<svg xmlns="http://www.w3.org/2000/svg" viewBox="0 0 115 115"><title>mona_lisa</title><rect x="12.5" width="90" height="115" style="fill:#f9f9f9"/><rect x="17.28" y="4.8" width="80.45" height="103.41" style="fill:#f9f9f9"/><path d="M94.22,8.29V104.7H20.78V8.29H94.22m7-7H13.78V111.7h87.44V1.29Z" style="fill:#f7931e"/><rect x="20.34" y="64.84" width="42" height="39" style="fill:#6d8566"/><path d="M92,10.5v92H23v-92H92M95.5,7h-76v99h76V7Z" style="fill:#fbb03b"/><path d="M39.34,52.84c4.26-4.62,30.4-15.14,34-12,1.74,1.52,9.19,5.75,12.14,8.1,4.86,3.9,13.34,22.89,14.78,29.42,2.08,9.48-5.44,23.29-7.92,24.48-3.19,1.54-15.22,2.75-18,3-11,1-11-10-19-13-7.14-2.68-22.53-9.53-30-8C22.11,85.5,34.11,58.51,39.34,52.84Z" style="fill:#6d8566"/><path d="M46.94,96c-1.49,1.26-5.39,3-5.73,4.78-.27,1.39-1.05,4.27,0,6,.87,1.42,7.47,2.93,8,4,2,4,3,3,3.17.85-.38-1.49-1.21-2.31-1.17-3.85a6.69,6.69,0,0,1,1-2.27c.35-.48,4.38-1.86,5.81-2.34" style="fill:#edb24a;stroke:#383f19;stroke-linecap:round;stroke-linejoin:round"/><path d="M54.43,85a28.81,28.81,0,0,0-10.85-.71c-.26,0-4.14,3.65-4.4,4.68-.31,1.28.7,4.14.7,4.14.46.72,3.24,1.45,4.12,1.64a11.14,11.14,0,0,0,1.36.25c1,.1,2,1.29,3,2.55a15.48,15.48,0,0,0,3,3,16.87,16.87,0,0,0,8.31,2.87,5.52,5.52,0,0,0,2.5-.52.46.46,0,0,0,.2-.19,4.77,4.77,0,0,0,1.12.17,2.3,2.3,0,0,0,.81-.13,1.71,1.71,0,0,0,1-1.1.44.44,0,0,0,0-.2c1.41.69,2.5,1,3.17.82a1,1,0,0,0,.67-.58.47.47,0,0,0,0-.35c-.59-1.75-3.28-3.81-6.14-6-1.3-1-2.62-2-3.73-3,6.72,3.24,10.33,4.75,11.44,4a.84.84,0,0,0,.39-.73C71.24,93.27,56.06,85.38,54.43,85Z" style="fill:#edb24a"/><path d="M40.9,94c1-.25,3.11.44,4.18.55,2.13.21,3.84,4,6.49,5.81s7.78,3.82,10.64,2.4" style="fill:none;stroke:#383f19;stroke-linecap:round;stroke-linejoin:round"/><path d="M88.62,56.77a8.92,8.92,0,0,0-5-4.24s0-.06,0-.08c-.94-1.15-2.06-2.33-3.24-3.57a48.52,48.52,0,0,1-6.73-8.27.48.48,0,0,0-.68-.17.5.5,0,0,0-.18.68,49.22,49.22,0,0,0,6.87,8.45c.87.92,1.71,1.8,2.46,2.66C71.38,52.3,56,65,49.76,78.2a17.71,17.71,0,0,0-1.22,2.9c-.31.85-.58,1.7-.81,2.54a.76.76,0,0,0,0,.15,23.29,23.29,0,0,0-4,.16c-2.18-.87-6.33-1.23-7.55-3.18-2.18-3.52-2-6-5.31-9.17l5-10c-1.43,8.52,2.38,13.63,2.94,14.47a.49.49,0,0,0,.41.22.47.47,0,0,0,.28-.09.5.5,0,0,0,.14-.69c-.69-1-6.54-10.43-.11-22.43a.49.49,0,0,0-.21-.67.47.47,0,0,0-.38,0L38,51.24c-3,1.79-4.86,4.9-6.18,8.09s-2.12,5.32-3.6,8.44-4.5,10.08-5.52,13.3,1.25,9.17,3.8,11.36c1,.82,10.84,3,14.72,2.34-1.71-1.72,2-9.76,2.14-9.78a23.41,23.41,0,0,1,5.14-.16,35.75,35.75,0,0,1,5.66.88,45.63,45.63,0,0,1,6.92,3.42c4.42,2.48,9.3,5.57,9.63,6.58-1.24.34-8.06-3-11-4.39-.89-.43-1.68-.81-2.29-1.09a.49.49,0,0,0-.6.15.5.5,0,0,0,0,.61,35.71,35.71,0,0,0,6,5.23c2.53,1.93,5.13,3.92,5.86,5.41-1.45.21-6.94-3.39-9.91-5.36-1.16-.76-2.16-1.42-2.85-1.83a.51.51,0,0,0-.66.13.52.52,0,0,0,.06.67,51.42,51.42,0,0,0,6.44,4.7c1.13.75,2.13,1.4,2.89,2a.71.71,0,0,1-.3.21c-1.38.52-4.85-1.52-6.93-2.74-.83-.49-1.49-.87-1.94-1.07a.49.49,0,0,0-.65.26.5.5,0,0,0,.25.66c.39.17,1.06.56,1.83,1,2.18,1.27,5,3,6.95,3a2.25,2.25,0,0,0,.84-.14,1.74,1.74,0,0,0,1.06-1.12.5.5,0,0,0,0-.21c1.46.71,2.58,1,3.27.85a1.09,1.09,0,0,0,.69-.6.5.5,0,0,0,0-.36c-.6-1.81-3.38-3.93-6.33-6.19-1.34-1-2.7-2.06-3.84-3.07,6.92,3.33,10.65,4.89,11.79,4.18a.88.88,0,0,0,.4-.76c0-1.36-4.6-4.38-9.09-6.92,5.54-1.33,11.8-2.54,17.51-1.59,2.47.41,10.43,3.86,10.51,3.89l.46.2.2-.46C94.11,84.28,93.86,65.3,88.62,56.77Z" style="fill:#383f19"/><path d="M41.9,9A47.11,47.11,0,0,0,37.47,19a24.8,24.8,0,0,0-1.35,5.26c-.41,3.66.67,7.31,2.07,10.71s2.32,7.34.5,10.51a7.1,7.1,0,0,0,.39,7.85l15.76-7.94L49.15,6.73C50,5.15,51,3.22,50.7,2.58,46.21,2.77,43.84,5.94,41.9,9Z" style="fill:#9e4f23"/><path d="M70.33,21.6c-1-4.87-1.26-10.76-4.12-14.83s-13-7-14.56-4.1c-.35.65-1.23,2.5-1.84,3.82l15.57,50.8c1.85,0,6-3.86,7.83-7.52C76.21,43.77,72.66,32.88,70.33,21.6Z" style="fill:#9e4f23"/><path d="M47.34,36.28l1.06,5.29a2.86,2.86,0,0,1,.05,1.33A3.16,3.16,0,0,1,47,44.41c-4.31,3.09-8.83,7.36-7.83,11.92s16,7.44,20.57,5.72c1-.39,4.46-3,5.43-5.28,1.56-3.64,1.55-10.37,0-15-1-3-3.66-6.35-3.95-10.67" style="fill:#edb24a"/><path d="M51.21,37.27c-2.33,0-5.17-2.16-7.58-5.78-1.83-2.75-2-12.64-1.44-16.89C43,8.48,46,7.28,53.09,6.79h.25c2.86,0,5.87,3.21,6.44,4.23,2.07,3.74,2.93,13.68,1,19.94C59.93,33.6,53.53,37.27,51.21,37.27Z" style="fill:#edb24a"/><path d="M53.34,7.28c2.61,0,5.49,3.05,6,4,2,3.66,2.86,13.4.94,19.55-.74,2.37-7,6-9.07,6s-4.85-2.08-7.16-5.56c-1.71-2.55-1.9-12.26-1.36-16.55C43.41,9,46.05,7.78,53.12,7.29h.22m0-1h-.29c-6.84.48-10.51,1.6-11.35,8.25-.5,4-.49,14.23,1.51,17.23s5,6,8,6c2.5,0,9.12-3.8,10-6.67,2-6.33,1.14-16.45-1-20.33-.61-1.11-3.77-4.49-6.87-4.49Z" style="fill:#9e4f23"/><path d="M47,31.09c1.17.25,5.16.58,6.92-.88" style="fill:none;stroke:#9e4f23;stroke-linecap:round;stroke-linejoin:round"/><path d="M49.4,33.14a4.86,4.86,0,0,1,3-.23" style="fill:none;stroke:#9e4f23;stroke-linecap:round;stroke-linejoin:round"/><path d="M41.46,18.79c1-.21,2.61-1.58,3.57-1.33,1.18.31,2.3,2.34,2.42,3.58s-.6,5.28-.52,5.89a3.57,3.57,0,0,0,2.28,1.84c1,0,3.56-2.17,3-3a10.4,10.4,0,0,1-1.48-7.33c1.48-5.67,6.48-2.11,8.15-2.08" style="fill:none;stroke:#9e4f23;stroke-linecap:round;stroke-linejoin:round"/><path d="M42.12,21c.57.21.09.75,2.09.75s3.5-1.29,1.72-2.16S41.93,21,42.12,21Z" style="fill:#fff;stroke:#9e4f23;stroke-linecap:round;stroke-linejoin:round"/><path d="M54.94,17.5c1.31,0,1.63.48,3.27,1.27-.64,1.21-5,3-6.81.34A7.37,7.37,0,0,1,54.94,17.5Z" style="fill:#fff;stroke:#9e4f23;stroke-linecap:round;stroke-linejoin:round"/><path d="M48.5,58.37a4.32,4.32,0,0,0-1.75,2.74" style="fill:none;stroke:#9e4f23;stroke-linecap:round;stroke-linejoin:round"/><path d="M46.37,99.77c-.45.93-3.15,4.25-3.15,5a8.57,8.57,0,0,0,.93,3.62" style="fill:none;stroke:#383f19;stroke-linecap:round;stroke-linejoin:round"/><path d="M48.14,102.25s-2,3.18-1.93,5.52a6.52,6.52,0,0,0,1.06,1.88" style="fill:none;stroke:#383f19;stroke-linecap:round;stroke-linejoin:round"/><path d="M50.08,104.13c-1.27,1.55-1.49,4.85-.87,6.64" style="fill:none;stroke:#383f19;stroke-linecap:round;stroke-linejoin:round"/></svg>