<svg xmlns="http://www.w3.org/2000/svg" viewBox="0 0 100 25"><title>logo</title><circle cx="12.09" cy="12.5" r="11.37" style="fill:#231f20"/><path d="M16.62,12.5l3.33-5.75-4.67,3.43L12.09,4.66,8.9,10.18,4.23,6.75,7.55,12.5,4.23,18.27,8.9,14.85l3.19,5.52,3.18-5.52,4.67,3.43Z" style="fill:#fff"/><circle cx="11.99" cy="9.06" r="0.89" style="fill:#231f20"/><path d="M16.77,12.5,20,6.84a.21.21,0,0,0-.31-.27L15.24,9.86,12.17,4.54a.21.21,0,0,0-.36,0L8.74,9.86,4.26,6.57a.21.21,0,0,0-.3.27L7.23,12.5,4,18.16a.21.21,0,0,0,.3.27l4.49-3.29,3.07,5.32a.21.21,0,0,0,.36,0l3.07-5.32,4.48,3.29a.21.21,0,0,0,.3-.27Zm-12-5,3.67,2.69L7.42,12Zm0,10L7.64,12.6h0L9,10.26H9l3-5.2,2.88,5L8.69,14.66h0ZM12,19.94l-2.88-5,6.16-4.59,0,0,3.88-2.84L16.35,12.4h0L15,14.73h0Zm3.51-5.12L16.57,13l2.61,4.53Z" style="fill:#231f20"/><path d="M59,11.95l-1.73,1.91-.86-1.91a.5.5,0,0,0-1-.05l-1.31,2.72,0,0a3.22,3.22,0,0,1-2.77,2.13c-.77,0-1.22-.42-1.17-1,0-.25.15-.42.4-.34A2.58,2.58,0,0,0,53,14.61c1-1.05.62-2.55-.81-2.56s-2.55,1.36-3,2.7l0,.06c-.67,1.44-1.28,1.87-1.83,1.87s-.67-.5-.47-.93l3-6.58c.25-.62-.67-1.09-1-.44l-2.75,6,0,0c-.67,1.44-1.28,1.87-1.83,1.87a.6.6,0,0,1-.48-.94c1-2.32,3.06-7.61,3-7.33a.47.47,0,0,0-.13-.64h0A.62.62,0,0,0,46,7.9C37.39,16,36,16.65,34.81,16.65c-.59,0-1-.48-1-1.29a1.66,1.66,0,0,1,1.67-1.53.71.71,0,0,0,.66-.56.47.47,0,0,0-.36-.55h-.11a3,3,0,0,0-3,2.83,2.13,2.13,0,0,0,2.11,2.22c1.28,0,2.65-.69,5.91-3.63h2.69l-.52,1.18a1.6,1.6,0,0,0,1.36,2.45A2.59,2.59,0,0,0,45.93,17a1.5,1.5,0,0,0,1.36.75,2.79,2.79,0,0,0,2-1,1.76,1.76,0,0,0,.28.41,2.36,2.36,0,0,0,1.79.63A4,4,0,0,0,55,15.26s0,0,0,0l.83-1.78.59,1.3-1.9,2.09a.56.56,0,1,0,.84.75L57,15.84l.7,1.54a.55.55,0,0,0,.53.38l.18,0a.55.55,0,0,0,.35-.69v0L57.77,15l2.06-2.28a.56.56,0,0,0-.83-.75h0Zm-8.25,2.32c.21-.38.86-1.25,1.45-1.25s.6.5.14,1a1.5,1.5,0,0,1-1.43.5c-.27,0-.19-.16-.14-.25Zm-8.87-1.21c1-.92,2.12-2,3.44-3.3l-1.46,3.3Z" style="fill:#231f20"/><path d="M73.38,8.71a.56.56,0,0,0,.56-.55.55.55,0,0,0-.54-.56h0c-1.67,0-3,1.59-4.62,4.87-.29.56-.56,1.13-.79,1.66.15-3.5.1-6.65-2.39-6.65A3.1,3.1,0,0,0,63,9.59a2.65,2.65,0,0,0,.33,2.55.51.51,0,0,0,.73,0l0,0a.53.53,0,0,0,0-.72A1.87,1.87,0,0,1,64,10c.34-.85,1.07-1.55,1.72-1.55,1.63,0,1.27,5.92,1.07,8.86a.55.55,0,0,0,1.08.17,41.84,41.84,0,0,1,1.88-4.5C71.1,10.25,72.44,8.71,73.38,8.71Z" style="fill:#231f20"/><path d="M96.87,14.82c-.67,1.44-1.28,1.87-1.83,1.87s-.67-.5-.47-.93L95.8,13h.58a.52.52,0,0,0,.52-.53h0a.52.52,0,0,0-.5-.53h-.12L96.7,11c.25-.62-.67-1.09-.95-.44L95.12,12h-.68a.52.52,0,0,0-.53.51s0,0,0,0a.53.53,0,0,0,.52.53h.2l-.84,1.82c-.65,1.35-1.28,1.84-1.81,1.84s-.68-.56-.48-.94l1-2.19.28-.61a.27.27,0,0,0-.09-.37l-.06,0-1.11-.47c-.05,0-.07-.05,0-.13.25-.61-.71-.94-1-.33l-1.41,3.05a3.21,3.21,0,0,1-2.75,2.11c-.77,0-1.22-.42-1.17-1,0-.25.15-.42.4-.34a2.58,2.58,0,0,0,2.48-.83c.95-1.05.62-2.55-.81-2.56s-2.51,1.32-3,2.65h0c-.59,1.19-1,1.55-1.38,1.57a3.91,3.91,0,0,0,.7-2.51,2,2,0,0,0-1-1.63,1.85,1.85,0,0,0-1.63,0,.52.52,0,0,0-.29-.37.53.53,0,0,0-.7.26h0l-1.4,3.07c-.62,1.25-1.19,1.63-1.71,1.63s-.67-.5-.47-.93l3-6.58c.25-.62-.67-1.09-.95-.44l-2.72,5.94v0c-.61,1.22-1,1.57-1.42,1.57h-.06A3.91,3.91,0,0,0,75,13.75a2,2,0,0,0-1-1.63,2,2,0,0,0-1.9.11,4.11,4.11,0,0,0-2,3.72,2,2,0,0,0,1,1.64,1.87,1.87,0,0,0,1.13.16,2.25,2.25,0,0,0,.77-.28,2.59,2.59,0,0,0,.48-.34,1.21,1.21,0,0,0,.75.25A2,2,0,0,0,75.44,17a1.48,1.48,0,0,0,1.4.84,2.07,2.07,0,0,0,.64-.11l-1.41,3.07a.54.54,0,0,0,.25.71.69.69,0,0,0,.22,0,.56.56,0,0,0,.5-.32l2-4.38a1.64,1.64,0,0,0,.71.75,1.87,1.87,0,0,0,1.14.16,2.25,2.25,0,0,0,.77-.28,3,3,0,0,0,.43-.29,1.25,1.25,0,0,0,.69.2,2.08,2.08,0,0,0,1.5-.69,1.77,1.77,0,0,0,.3.47,2.36,2.36,0,0,0,1.79.63A4,4,0,0,0,90,15.26s0,0,0,0L91,13a.05.05,0,0,1,.07,0h0l.37.16s.05.05,0,.11l-1,2.1a1.6,1.6,0,0,0,1.36,2.45A2.6,2.6,0,0,0,93.54,17a1.5,1.5,0,0,0,1.37.77c.93,0,2.13-.72,2.93-2.54C98.14,14.61,97.16,14.2,96.87,14.82Zm-11.09-.55c.21-.38.86-1.25,1.45-1.25s.6.5.14,1a1.5,1.5,0,0,1-1.43.5c-.29,0-.21-.16-.16-.25Zm-11.92.48a.81.81,0,0,0-.87.54,1.32,1.32,0,0,0-.09,1,1.88,1.88,0,0,1-.38.27.87.87,0,0,1-.9.1.88.88,0,0,1-.41-.75,3,3,0,0,1,1.44-2.68,1,1,0,0,1,.9-.11.9.9,0,0,1,.41.79A2.19,2.19,0,0,1,73.86,14.75Zm8.64,0a.78.78,0,0,0-1,.5,1.36,1.36,0,0,0-.07,1.05l-.3.2a.87.87,0,0,1-.9.1.92.92,0,0,1-.41-.75A3,3,0,0,1,81.3,13.2a1,1,0,0,1,.9-.11.9.9,0,0,1,.41.79,2.16,2.16,0,0,1-.11.89Z" style="fill:#231f20"/></svg>