<svg xmlns="http://www.w3.org/2000/svg" xmlns:xlink="http://www.w3.org/1999/xlink" viewBox="0 0 900 300"><defs><pattern id="a" width="280.84" height="266" patternUnits="userSpaceOnUse" viewBox="0 0 280.84 266"><rect width="280.84" height="266" style="fill:none"/><path d="M345.28,187.26a3.37,3.37,0,0,1-2.41,2.65,9.38,9.38,0,0,1-5.44.16,7.28,7.28,0,0,1-2.94-1.47c-2-1.79-1.93-3.33-1.46-4.32-2-1.17-3.9-2.64-4.44-4.94a14.56,14.56,0,0,1-8.24,1l-1.34-.28c-2.49-.52-5.47-1.13-8.48-1.92-5-1.3-10.09-3.07-13.3-5.62a36.33,36.33,0,0,0-4.79-1.9,5.31,5.31,0,0,0,.9,2.5,8,8,0,0,1,1.15,3c.25,2.15-1.51,4.14-3.36,5.17a4.9,4.9,0,0,1-3.58.19,14.51,14.51,0,0,1-5.89-3.32,1.51,1.51,0,0,1,.18-1.89,2.48,2.48,0,0,1,1.48-.75,27.69,27.69,0,0,1-1.14-4.7l-1-.23c-2.49-.65-6.22-2-6.47-3.81-.14-.94,2.43-5.3,4.72-5.88l.69-.2.59-.17a15.15,15.15,0,0,0-5.17-3.69c-.48-.15-1.32-.3-2.29-.48a24,24,0,0,1-6.2-1.66,4.75,4.75,0,0,1-2.59-5.4c.45-1.72,8.11-3.8,11.89-2.81,1.27.33,3,1.66,4.78,3.07a41.91,41.91,0,0,0,3.43,2.5,2.22,2.22,0,0,1,0-1.84c.43-.76,1.4-1.16,3.14-1.3,1.49-.12,2.48-1.4,4.23-2.42a17,17,0,0,1,4.77-2.2h0c1.44-.28,3.2-.81,4.9-1.31,2.87-.86,5.58-1.67,7.11-1.45a25.46,25.46,0,0,1,5.89,1.68,11.92,11.92,0,0,0,4.91,1.16c.07,0,7-.13,9.32,1.9.76.66,1.33,1.21,1.84,1.7a9.77,9.77,0,0,0,3.81,2.62c5.12,2,9.37,10.38,9.45,14,0,1.66,1.12,7.07,4.27,9.88a.65.65,0,0,1,.22.47.64.64,0,0,1-.21.48,10.2,10.2,0,0,1-7.13,2.57,18.33,18.33,0,0,0,1.4,2.28c.33.48.64.93.91,1.38C344.33,183.18,345.46,185.86,345.28,187.26Zm-75.44-37.88a1.47,1.47,0,0,0-.66.46.65.65,0,0,1,.54-.11.64.64,0,0,1,.48.58,5.15,5.15,0,0,0,1.11,0l.21,0c-.57-.51-1.15-1-1.68-.87Zm14.2,9c1-.56,1.39-4.42,1.39-4.42a25.2,25.2,0,0,1-5.05-3.36c-1.62-1.27-3.3-2.58-4.31-2.85a14.41,14.41,0,0,0-6.44.36c1.2-.23,2.15.63,2.92,1.32.12.12.25.23.37.33a.66.66,0,0,1,.2.65,1.57,1.57,0,0,1-1.3,1.08,6,6,0,0,1-2.65-.07,2.24,2.24,0,0,1-1.06-.53,1.26,1.26,0,0,1-.27-1.26,2.57,2.57,0,0,1,1.46-1.43,9,9,0,0,0-3.58,1.51,3.17,3.17,0,0,0,.71,2.83,4.09,4.09,0,0,1,2.39-.3,6,6,0,0,1,.73.18l.46.13a3.93,3.93,0,0,0,2.15-.13.64.64,0,1,1,.44,1.2,5.14,5.14,0,0,1-2.88.18l-.53-.14c-.2-.06-.4-.12-.6-.16a2.86,2.86,0,0,0-1,0,.91.91,0,0,0,.13.08,24,24,0,0,0,5.81,1.53c1,.18,3.17-1.34,3.71-1.18C279.91,154.75,281.6,159.74,284,158.39Zm-3.24,9c1.64-.94,1-5.78,1-5.78-.34.07-.85.22-1.24.34l-.74.21c-1.6.4-3.6,3.77-3.76,4.5C276.24,167.5,278.14,168.93,280.8,167.41Zm20.58,4.23a26.07,26.07,0,0,0-3.71-2.1c-2.73-1.38-6-3-8.19-5.69-.05,0,0,0,0,0-1.89-.67-4.45-1.1-5.49.66-1.77,3,.05,9.59.88,11.52a.66.66,0,0,1-.15.72.66.66,0,0,1-.73.11,1.2,1.2,0,0,0-1.2.3.25.25,0,0,0,0,.35c.5.59,5.49,3.94,7.75,2.69,1.44-.8,2.9-2.35,2.72-3.9a7.07,7.07,0,0,0-1-2.57,5.53,5.53,0,0,1-1-4,.62.62,0,0,1,.66-.52,18,18,0,0,1,5,1.58c.68.28,1.31.55,1.85.74A14.85,14.85,0,0,0,301.38,171.64Zm30.39,5a45.26,45.26,0,0,1,7.1-2.64c.89-.22,2.13-.42,2.7.34s3.79,1.85,5.33.66c-3.3-3.41-4.15-9-4.17-10.3-.08-3.42-4.18-11.15-8.63-12.85a11,11,0,0,1-4.24-2.89c-.5-.48-1.06-1-1.79-1.67-1.57-1.37-6.8-1.64-8.43-1.57a13,13,0,0,1-5.42-1.25,25,25,0,0,0-5.61-1.61c-1.25-.18-3.95.63-6.56,1.41-1.74.51-3.53,1.05-5,1.34a16.23,16.23,0,0,0-4.37,2c-1.88,1.1-3,2.45-4.77,2.6-1.61.13-2,.46-2.13.65-.23.41.29,1.46.8,2.47a14.47,14.47,0,0,1,1.55,4.21c1,6.2,5.85,8.66,10.14,10.83,2.18,1.1,3.73,2.64,5.17,3.38,2,1,12.25,1.07,17.22,2.37C324.79,175.22,328,178.29,331.77,176.62ZM344,187.1c.11-.91-.78-3.25-1.65-4.74-.24-.41-.54-.84-.86-1.3a14.14,14.14,0,0,1-1.94-3.54.76.76,0,0,1,0-.15s0-.05,0-.08a.64.64,0,0,1,.07-.27h0l.18-.32a4.73,4.73,0,0,0,.73-1.63,4.1,4.1,0,0,0-1.35.17,43.35,43.35,0,0,0-6.9,2.57c-.83.37-1.65.73-2.47,1.06.36,1.92,2,3.26,4.43,4.64a.63.63,0,0,1,.31.43.62.62,0,0,1-.12.51c-.47.62-.89,1.62.91,3.19a7.78,7.78,0,0,0,7.08,1.08C343.08,188.45,343.9,188,344,187.1Z" style="fill:#177f5a"/><path d="M272.9,205.69a.6.6,0,0,1-.28.35,5.11,5.11,0,0,1-2.59.67c-3.39,0-7.25-2.9-10.74-5.53-2.56-1.93-5-3.75-6.69-4a37.71,37.71,0,0,1-4.11-.95,5.91,5.91,0,0,1-3,2.34.64.64,0,0,1-.71-.25.63.63,0,0,1,0-.75,8,8,0,0,0,.63-2.27l-2-.66-.72-.24a8.39,8.39,0,0,1-2.53,2.29,1.89,1.89,0,0,0-.4.27,1.3,1.3,0,0,0-.12.45,19.33,19.33,0,0,0-.23,3.95.63.63,0,0,1-.39.62.56.56,0,0,1-.25.05.67.67,0,0,1-.48-.2,5.9,5.9,0,0,1-1.66-5.16,2.9,2.9,0,0,1-1.93-.39l-.35-.26a1.89,1.89,0,0,0-.48-.31s0,.1-.1.37l-.9,3.6a.65.65,0,0,1-.45.47.55.55,0,0,1-.18,0,.63.63,0,0,1-.45-.18,4.41,4.41,0,0,1-1.11-4.8l-.35-.46c-.09-.12-.2-.27-.28-.3a.39.39,0,0,0-.36.16,2.17,2.17,0,0,0-.39.85c-.21.7-.41,1.39-.59,2.1a.63.63,0,0,1-.54.48h-.08a.64.64,0,0,1-.57-.34,4.3,4.3,0,0,1,.07-4.09,5.11,5.11,0,0,1,1-1.25,5,5,0,0,1,3-1.09c-.14-.22-.27-.44-.4-.66s-.41-.72-.65-1.07l-2-2.86c-3.8-5.38-7.72-10.94-10-17.06-2-5.64-4-14.17-1.34-22.76a16.53,16.53,0,0,1,.91-2.4c-1.5-1.65-1.09-7-.88-8.49a.63.63,0,0,1,.33-.47.65.65,0,0,1,.59,0c5.4,2.56,5.54,2.73,5.7,2.9a1.88,1.88,0,0,1,.33.56,13.21,13.21,0,0,1,2.42-.63,16.34,16.34,0,0,1,6.88,0c0-.07,0-.15,0-.23.22-1,.38-1.74.51-2.15.42-1.33,1.52-1.84,2.78-2.43l.81-.39a.66.66,0,0,1,.5,0,.65.65,0,0,1,.37.34l.21.41a11.07,11.07,0,0,1,1.49,4.76,5.51,5.51,0,0,1-1.65,3.85,31.53,31.53,0,0,1,2,3.53c1.59,3.3,3.22,6.42,5.69,8.3a15.9,15.9,0,0,0,3.47,1.85c.72.31,1.47.63,2.25,1a23,23,0,0,1,9,9.43,72.83,72.83,0,0,1,6.8,20.85,65.9,65.9,0,0,0,2,8.59,26.7,26.7,0,0,0,1.13,2.54C272.12,201.05,273.5,203.91,272.9,205.69Zm-35.22-62.41c-.15.12-.32.25-.5.37,1.09,1.19,1.37,2.83,1.61,4.89a17,17,0,0,1-.52,5.78,23.65,23.65,0,0,1,5.72-.46,29.19,29.19,0,0,1-4.57-7.38A30.29,30.29,0,0,0,237.68,143.28Zm-13.2-3v.25a5.68,5.68,0,0,0,.62,2.42.35.35,0,0,0,0,.11c1.64.66,3.05,2.87,4.28,5.21l0-.08c.72-2.38,1.58-5.23,3.14-6.05a24,24,0,0,0,.71-2.65,15.36,15.36,0,0,0-6.39,0,12.39,12.39,0,0,0-2.43.66Zm6.88,7.56a1,1,0,0,1,.08-.39,2.12,2.12,0,0,0-.45.12c-.11.34-.21.67-.31,1,0,.07,0,.13-.05.19a1.88,1.88,0,0,0,1.68,1.36,2.64,2.64,0,0,0,3-2.5c-.21,0-1.44,0-1.66-.08l-.38-.05a1,1,0,0,1,.07.36,1,1,0,1,1-2,0Zm-5.72.18a.86.86,0,0,1,.08-.36,21.92,21.92,0,0,0-2.37.14,3.12,3.12,0,0,0,.82,2.3,4.48,4.48,0,0,0,2.31.23c1.45-.32,1.82-1.06,1.9-1.28-.19-.35-.39-.74-.61-1.13l-.2-.06a.94.94,0,0,1,0,.16,1,1,0,0,1-2,0Zm-7.85,13.25c1.24-1.7,3.05-4.44,3.15-5.78a7.19,7.19,0,0,0-.86-3,8.54,8.54,0,0,1-1-3.47,6.36,6.36,0,0,1,1-2.94c-.3-.29-.6-.58-.86-.81a17,17,0,0,0-.69,1.92A31.28,31.28,0,0,0,217.79,161.3Zm13.87,27.45c.26.37.49.77.71,1.15a8,8,0,0,0,.92,1.35,8.22,8.22,0,0,1,1.67.34.45.45,0,0,1,.19.11,10,10,0,0,1,3.7-.58,3.58,3.58,0,0,1,.89-.85,2.94,2.94,0,0,1,2.28-.35c0-.08,1.34-1.09,2-1.61s1.36-1.06,1.86-1.41c-5.66-5.06-11.37-10.71-13-14-1.41-2.89-2.84-10.77-1-15a4.54,4.54,0,0,1,2.85-2.73c.64-.19,1.33-.38,2.08-.55a16.61,16.61,0,0,0,.64-5.93c-.39-3.54-.95-4.74-3.73-5.44-.93-.23-1.67,1.18-2.28,2.85a9.56,9.56,0,0,1,2.31.18c.43.05,1.84.11,2.19.11a.66.66,0,0,1,.46.21.64.64,0,0,1,.17.47,4.33,4.33,0,0,1-4.23,4.36h-.11a2.56,2.56,0,0,1-.75-.12,6,6,0,0,1,.06,1.14,9.18,9.18,0,0,1-1,3.39.66.66,0,0,1-.59.38h0a.67.67,0,0,1-.58-.44c-.28-.79-.53-1.6-.74-2.41a6.74,6.74,0,0,1-.29-1.75h0a4.91,4.91,0,0,1,.09-.73,4.43,4.43,0,0,1-1.73.73,3.1,3.1,0,0,1-.73.09,6.29,6.29,0,0,1-2.68-.58,4.46,4.46,0,0,1-1.29-3.67.77.77,0,0,1,.44-.68,12.25,12.25,0,0,1,4.35-.33,5,5,0,0,0-2.41-2.24,2.11,2.11,0,0,0-1.58.58,6.91,6.91,0,0,0-1.32,1.42l-.17.25a5.37,5.37,0,0,0-1,2.59,7.78,7.78,0,0,0,.86,2.92,8,8,0,0,1,1,3.65c-.18,2.29-3.56,6.69-4.12,7.41a46.29,46.29,0,0,0,1.74,6.09c2.18,5.95,6.05,11.44,9.79,16.75Zm-.14,5.27c.1-.11.21-.23.34-.35a9.53,9.53,0,0,1,1.5-1.11,5.45,5.45,0,0,0-3.69.58,1.46,1.46,0,0,1,1,.06,2.12,2.12,0,0,1,.79.7Zm6.12.64a3.83,3.83,0,0,0,.25-1.06c0-.23.07-.45.12-.67a4.48,4.48,0,0,1,.16-.52,8.66,8.66,0,0,0-5.43,2.21,4,4,0,0,0-.46.48c-.07.09-.14.17-.19.25a2.2,2.2,0,0,0-.25.54A2.92,2.92,0,0,0,232,198l.56-2.23a1.74,1.74,0,0,1,.82-1.23,1.69,1.69,0,0,1,1.8.46l.27.2a1.74,1.74,0,0,0,1.32.15,4.1,4.1,0,0,0,.59-.2A2.46,2.46,0,0,0,237.64,194.66Zm4.7-2a2,2,0,0,1,1.1-1.14,4.78,4.78,0,0,1-1.19-.18l-.19,0a4.5,4.5,0,0,0-.86-.12,1.32,1.32,0,0,0-.75.22h0a2.37,2.37,0,0,0-.39.32,2.89,2.89,0,0,0-.48.73,4,4,0,0,0-.29.8c0,.19-.07.38-.1.58s-.09.57-.16.86a3.31,3.31,0,0,1-.18.53,6.29,6.29,0,0,1-.4.73,2.39,2.39,0,0,0-.13.21,2.25,2.25,0,0,0-.12.21,3.37,3.37,0,0,0,0,2.86c.05-.68.12-1.35.23-2a2.14,2.14,0,0,1,.38-1,2.22,2.22,0,0,1,.72-.58A7.24,7.24,0,0,0,242.34,192.61Zm1.55.77,1.64.54a2.34,2.34,0,0,0-.08-.53.86.86,0,0,0-.38-.61,4.33,4.33,0,0,0-1.29-.06,2.24,2.24,0,0,0-.29.47l0,0Zm2.67,3.07a5.89,5.89,0,0,0,1.46-2,4.41,4.41,0,0,0,0-2.78c-.36-.91-.53-1.16-1.1-1.23a7.83,7.83,0,0,0-1.25.51,7.36,7.36,0,0,1-1.08.44l-.39.07h.09a3.42,3.42,0,0,1,1.35.21,2.1,2.1,0,0,1,1.08,1.5A7.87,7.87,0,0,1,246.56,196.45Z" style="fill:#d5c52a"/><path d="M281,245.23c-1.13,5.64-7.33,6.75-12.64,5.4h-.19l-.5.69c-1.34,1.84-3.83,5.27-4.66,8.77-.61,2.56-2.67,4.48-6.3,5.87a.62.62,0,0,1-.23,0,.66.66,0,0,1-.54-.3,1,1,0,0,1-.11-.94,8.55,8.55,0,0,0,.34-4.32,8.51,8.51,0,0,1-.08-1.17,6.59,6.59,0,0,1,1.07-2.86h0c-.81.24-1.68.43-2.64.64a47.32,47.32,0,0,0-7.9,2.32.46.46,0,0,1-.23.05.76.76,0,0,1-.68-.56,1,1,0,0,1,.4-1.11,5,5,0,0,0,2.12-2.39,5.78,5.78,0,0,1,3-3c1.25-.5,3-2.53,4.69-4.55a27.46,27.46,0,0,0-5.25,2.76c-3.34,2.12-11.2,3-14.62,2.11a2.61,2.61,0,0,1-2-1.4,3.19,3.19,0,0,1,.57-2.54c.2-.39.42-.82.62-1.31l-.93.42c-3,1.37-5.18,2.36-8.94,1.45l-1-.23c-3.54-.83-4.81-1.2-5.17-2.06a1.26,1.26,0,0,1,0-1c.23-.58.95-2.33,8.67-5.09l.21-.08c3.32-1.49,4.82-3.59,6.95-6.74-4,1.37-10.21,1.77-15.49,2.11-3.62.23-6.75.43-8,.88a.7.7,0,0,1-.87-.45,1,1,0,0,1,.23-1.09,64.9,64.9,0,0,0,6.45-7.41c3.27-4.08,6.64-8.31,9.22-10,3.18-2.09,9.69-3.94,13.65-2a5.3,5.3,0,0,1,2.88,3.63c.45,1.87,2.66,4.33,6.14,6.84-.43-2.41-1.05-4.2-2.65-5.15-.89-.54-2.91-4.1-4.11-5.53a6.45,6.45,0,0,0-5-2.74.77.77,0,0,1-.64-.64,1,1,0,0,1,.28-.94,10.23,10.23,0,0,0,1.76-2c.5-.72,1-1.47,2-1.28,3.82.75,6.15,1.27,9.82,3.46a20.51,20.51,0,0,1,6.27,6.06,11,11,0,0,0,1.18,1.46c2,1.82,3.91,4.24,2.5,8.45a23,23,0,0,1-1.06,2.63A6.13,6.13,0,0,0,259,232c2.73,2.75,8.23,4.14,11.22,4.9.8.2,1.42.36,1.83.5,3.08,1.05,5.14,3.22,6.95,5.13.61.64,1.19,1.26,1.76,1.76A1,1,0,0,1,281,245.23Zm-30-17.16a75.14,75.14,0,0,0,6.52,4,7.2,7.2,0,0,1,.78-2.47,21.22,21.22,0,0,0,1-2.43c.87-2.62.34-4.3-2-6.42a11,11,0,0,1-1.4-1.71,19,19,0,0,0-5.84-5.64c-3.47-2.08-5.72-2.58-9.39-3.3-.12,0-.18,0-.65.68a13.54,13.54,0,0,1-.89,1.17c1.91.94,2.79.81,4.45,2.8,1.08,1.27,3.06,4.79,3.74,5.2C249.83,221.45,250.47,224.51,251,228.07Zm-13.86,3s0-.94,0-3.27a13.55,13.55,0,0,1,4.09-8.74,3.73,3.73,0,0,0-1.47-1.26c-3.21-1.6-9.1-.29-12.39,1.88-2.39,1.57-5.69,5.69-8.88,9.68-1.63,2-3.21,4-4.6,5.57,1.51-.17,3.43-.3,5.61-.44C225.9,234.05,234.74,233.48,237.12,231ZM255.94,246c-4.68-2.14-15-7.55-18-13.36-.57.8-1.09,1.56-1.57,2.28-2.31,3.41-4,5.87-7.78,7.58l-.3.11c-4.95,1.77-6.76,3-7.42,3.71a32.52,32.52,0,0,0,3.79,1l1,.24c3.36.8,5.26-.07,8.14-1.38.74-.34,1.54-.7,2.44-1.07a.66.66,0,0,1,.73.18,1,1,0,0,1,.21.85,13,13,0,0,1-1.31,3.47,7.44,7.44,0,0,0-.44.95,2.84,2.84,0,0,0,1,.38c3.43.89,10.82-.16,13.63-1.95A25.65,25.65,0,0,1,255.94,246Zm10,5a20.13,20.13,0,0,0-3.52,2.31c-.67.5-1.45,1.08-2.38,1.74l-.21.14h0c-1.12,1.42-2.31,3.37-2.33,4.13,0,.2,0,.52.07.89a11.85,11.85,0,0,1,0,3.5c2.28-1.1,3.59-2.45,4-4.1A26,26,0,0,1,266,251Zm1.93-.37h0Zm.18-1.75c-.4-1-1.09-1.95-2.06-1.95s-1.72-3.41-3-3.23c-1.91.27-5.87,5-5.87,5-2,2.36-3.86,4.59-5.49,5.24a4.23,4.23,0,0,0-2.26,2.35l-.16.29c1.94-.61,3.56-1,5-1.27a13.15,13.15,0,0,0,5.08-1.78c.92-.66,1.7-1.24,2.37-1.73C264.63,249.65,265.73,248.86,268.08,248.88Zm8.55-5.76a1.11,1.11,0,0,1-1.08.86,1.13,1.13,0,0,1-1.13-1.13,1.16,1.16,0,0,1,.19-.61,1.45,1.45,0,0,0-.88,2.26,1.85,1.85,0,0,0,2.9.19A1.4,1.4,0,0,0,276.63,243.12Z" style="fill:#f4b095"/><path d="M204.87,253.76a3.39,3.39,0,0,1-2.41,2.65,9.41,9.41,0,0,1-5.45.16,7.24,7.24,0,0,1-2.93-1.47c-2.05-1.79-1.94-3.33-1.47-4.32-2-1.17-3.9-2.64-4.44-4.94a14.55,14.55,0,0,1-8.24,1l-1.33-.28c-2.5-.52-5.48-1.13-8.49-1.92-5-1.3-10.09-3.07-13.3-5.62a36.66,36.66,0,0,0-4.78-1.9,5.29,5.29,0,0,0,.89,2.5,8,8,0,0,1,1.15,3c.26,2.15-1.5,4.14-3.36,5.17a4.9,4.9,0,0,1-3.58.19,14.51,14.51,0,0,1-5.89-3.32,1.51,1.51,0,0,1,.18-1.89,2.48,2.48,0,0,1,1.48-.75,28.68,28.68,0,0,1-1.14-4.7l-1-.23c-2.48-.65-6.22-2-6.47-3.81-.14-.94,2.43-5.3,4.72-5.88l.7-.2.58-.17a15.15,15.15,0,0,0-5.17-3.69c-.47-.15-1.32-.3-2.29-.48a24,24,0,0,1-6.2-1.66,4.77,4.77,0,0,1-2.59-5.4c.45-1.72,8.11-3.8,11.89-2.81,1.27.33,3,1.66,4.78,3.07a41.91,41.91,0,0,0,3.43,2.5,2.22,2.22,0,0,1,0-1.84c.43-.76,1.4-1.16,3.14-1.3,1.5-.12,2.48-1.4,4.23-2.42a17,17,0,0,1,4.77-2.2h0c1.44-.28,3.2-.81,4.9-1.31,2.87-.86,5.58-1.67,7.11-1.45a25.46,25.46,0,0,1,5.89,1.68,11.92,11.92,0,0,0,4.91,1.16c.07,0,7-.13,9.33,1.9.75.66,1.33,1.21,1.84,1.7a9.66,9.66,0,0,0,3.8,2.62c5.12,2,9.37,10.38,9.45,14,0,1.66,1.12,7.07,4.27,9.88a.62.62,0,0,1,.22.47.64.64,0,0,1-.21.48,10.2,10.2,0,0,1-7.13,2.57,17.27,17.27,0,0,0,1.41,2.28c.32.48.64.93.9,1.38C203.91,249.68,205,252.36,204.87,253.76Zm-75.45-37.88a1.47,1.47,0,0,0-.66.46.65.65,0,0,1,.54-.11.64.64,0,0,1,.48.58,5.15,5.15,0,0,0,1.11,0l.21,0c-.57-.51-1.15-1-1.68-.87Zm14.2,9c1-.56,1.39-4.42,1.39-4.42a25.2,25.2,0,0,1-5-3.36c-1.62-1.27-3.3-2.58-4.31-2.85a14.41,14.41,0,0,0-6.44.36c1.2-.23,2.15.63,2.92,1.32.12.12.25.23.37.33a.64.64,0,0,1,.2.65,1.55,1.55,0,0,1-1.3,1.08,5.92,5.92,0,0,1-2.64-.07,2.28,2.28,0,0,1-1.07-.53,1.29,1.29,0,0,1-.27-1.26,2.57,2.57,0,0,1,1.46-1.43,9,9,0,0,0-3.58,1.51,3.2,3.2,0,0,0,.71,2.83,4.12,4.12,0,0,1,2.4-.3,6.31,6.31,0,0,1,.72.18l.46.13a3.93,3.93,0,0,0,2.15-.13.64.64,0,0,1,.44,1.2,5.11,5.11,0,0,1-2.87.18l-.54-.14c-.2-.06-.4-.12-.6-.16a2.86,2.86,0,0,0-1,0,.91.91,0,0,0,.13.08,24.11,24.11,0,0,0,5.81,1.53c1,.18,3.17-1.34,3.71-1.18C139.49,221.25,141.18,226.24,143.62,224.89Zm-3.24,9c1.64-.94,1-5.78,1-5.78-.34.07-.84.22-1.24.34l-.74.21c-1.59.4-3.6,3.77-3.76,4.5C135.83,234,137.72,235.43,140.38,233.91ZM161,238.14a26.07,26.07,0,0,0-3.71-2.1c-2.73-1.38-6-3-8.19-5.69-.05,0,.06,0,0,0-1.89-.67-4.44-1.1-5.48.66-1.78,3,0,9.59.87,11.52a.63.63,0,0,1-.15.72.64.64,0,0,1-.72.11,1.21,1.21,0,0,0-1.21.3.25.25,0,0,0,0,.35c.5.59,5.49,3.94,7.76,2.69,1.43-.8,2.89-2.35,2.71-3.9a7.07,7.07,0,0,0-1-2.57,5.58,5.58,0,0,1-1-4,.63.63,0,0,1,.67-.52,18.09,18.09,0,0,1,5,1.58c.68.28,1.31.55,1.85.74A14.85,14.85,0,0,0,161,238.14Zm30.39,5a45.26,45.26,0,0,1,7.1-2.64c.89-.22,2.14-.42,2.7.34s3.79,1.85,5.33.66c-3.3-3.41-4.14-9-4.17-10.3-.08-3.42-4.17-11.15-8.63-12.85a11,11,0,0,1-4.24-2.89c-.49-.48-1.06-1-1.79-1.67-1.57-1.37-6.8-1.64-8.43-1.57A13,13,0,0,1,173.8,211a24.83,24.83,0,0,0-5.61-1.61c-1.25-.18-3.95.63-6.56,1.41-1.74.51-3.53,1.05-5,1.34a16.37,16.37,0,0,0-4.37,2c-1.88,1.1-3,2.45-4.77,2.6-1.6.13-2,.46-2.13.65-.23.41.29,1.46.8,2.47a14.47,14.47,0,0,1,1.55,4.21c1,6.2,5.85,8.66,10.14,10.83,2.18,1.1,3.73,2.64,5.17,3.38,2,1,12.25,1.07,17.23,2.37C184.37,241.72,187.56,244.79,191.35,243.12Zm12.24,10.48c.11-.91-.78-3.25-1.65-4.74-.24-.41-.54-.84-.85-1.3a13.54,13.54,0,0,1-1.94-3.54.39.39,0,0,1,0-.15s0-.05,0-.08a.65.65,0,0,1,.08-.27h0l.18-.32a4.73,4.73,0,0,0,.73-1.63,4.11,4.11,0,0,0-1.35.17,42.87,42.87,0,0,0-6.89,2.57c-.84.37-1.66.73-2.48,1.06.36,1.92,2,3.26,4.43,4.64a.6.6,0,0,1,.31.43.59.59,0,0,1-.12.51c-.47.62-.88,1.62.91,3.19a7.78,7.78,0,0,0,7.08,1.08A2.22,2.22,0,0,0,203.59,253.6Z" style="fill:#177f5a"/><path d="M132.48,272.19a.6.6,0,0,1-.28.35,5.11,5.11,0,0,1-2.59.67c-3.39,0-7.25-2.9-10.74-5.53-2.56-1.93-5-3.75-6.69-4a38.26,38.26,0,0,1-4.11-.95,5.86,5.86,0,0,1-2.95,2.34.64.64,0,0,1-.71-.25.63.63,0,0,1,0-.75,8,8,0,0,0,.63-2.27l-2-.66-.72-.24a8.47,8.47,0,0,1-2.52,2.29,1.65,1.65,0,0,0-.4.27,1.31,1.31,0,0,0-.13.45,19.33,19.33,0,0,0-.23,3.95.62.62,0,0,1-.39.62.56.56,0,0,1-.25.05.63.63,0,0,1-.47-.2,5.88,5.88,0,0,1-1.67-5.16,2.91,2.91,0,0,1-1.93-.39l-.35-.26a1.74,1.74,0,0,0-.48-.31s0,.1-.1.37l-.9,3.6a.65.65,0,0,1-.45.47.55.55,0,0,1-.18,0,.63.63,0,0,1-.45-.18,4.42,4.42,0,0,1-1.11-4.8l-.35-.46c-.09-.12-.2-.27-.28-.3a.4.4,0,0,0-.36.16,2.17,2.17,0,0,0-.39.85c-.21.7-.4,1.39-.58,2.1a.65.65,0,0,1-.55.48h-.08a.64.64,0,0,1-.57-.34,4.3,4.3,0,0,1,.07-4.09,5.11,5.11,0,0,1,1-1.25,5,5,0,0,1,3-1.09l-.4-.66a10.91,10.91,0,0,0-.65-1.07l-2-2.86c-3.79-5.38-7.72-10.94-10-17.06-2-5.64-4-14.17-1.34-22.76a16.53,16.53,0,0,1,.91-2.4c-1.5-1.65-1.09-7-.88-8.49a.64.64,0,0,1,.34-.47.63.63,0,0,1,.58,0c5.4,2.56,5.55,2.73,5.7,2.9a1.88,1.88,0,0,1,.33.56,13.42,13.42,0,0,1,2.42-.63,16.33,16.33,0,0,1,6.88,0c0-.07,0-.15,0-.23.22-1,.38-1.74.51-2.15.43-1.33,1.52-1.84,2.78-2.43l.81-.39a.67.67,0,0,1,.5,0,.65.65,0,0,1,.37.34l.21.41A11.07,11.07,0,0,1,99.87,205a5.51,5.51,0,0,1-1.65,3.85,31.53,31.53,0,0,1,2,3.53c1.59,3.3,3.23,6.42,5.69,8.3a15.9,15.9,0,0,0,3.47,1.85c.72.31,1.47.63,2.25,1a22.93,22.93,0,0,1,9,9.43,68.76,68.76,0,0,1,4.79,12.1,68.31,68.31,0,0,1,2,8.75,64.36,64.36,0,0,0,2,8.59,24,24,0,0,0,1.12,2.54C131.7,267.55,133.08,270.41,132.48,272.19ZM97.27,209.78l-.5.37c1.08,1.19,1.37,2.83,1.6,4.89a16.77,16.77,0,0,1-.52,5.78,23.65,23.65,0,0,1,5.72-.46A29.47,29.47,0,0,1,99,213,32.12,32.12,0,0,0,97.27,209.78Zm-13.2-3v.25a5.68,5.68,0,0,0,.62,2.42.35.35,0,0,0,0,.11c1.64.66,3,2.87,4.29,5.21l0-.08c.72-2.38,1.58-5.23,3.14-6.05a26.12,26.12,0,0,0,.72-2.65,15.41,15.41,0,0,0-6.4,0,12.11,12.11,0,0,0-2.42.66Zm6.87,7.56A1,1,0,0,1,91,214a2.12,2.12,0,0,0-.45.12c-.11.34-.21.67-.31,1a1.05,1.05,0,0,1-.05.19,1.88,1.88,0,0,0,1.68,1.36,2.64,2.64,0,0,0,3-2.5c-.21,0-1.44,0-1.66-.08l-.38-.05a1,1,0,0,1,.07.36,1,1,0,1,1-2,0Zm-5.72.18a.86.86,0,0,1,.08-.36,21.56,21.56,0,0,0-2.36.14,3.08,3.08,0,0,0,.81,2.3,4.52,4.52,0,0,0,2.32.23c1.44-.32,1.81-1.06,1.89-1.28-.19-.35-.39-.74-.61-1.13l-.19-.06a.9.9,0,0,1,0,.16,1,1,0,0,1-2,0ZM77.38,227.8c1.23-1.7,3-4.44,3.14-5.78a7.19,7.19,0,0,0-.86-3,8.37,8.37,0,0,1-1-3.47,6.23,6.23,0,0,1,1-2.94l-.85-.81a16.94,16.94,0,0,0-.7,1.92A31.27,31.27,0,0,0,77.38,227.8Zm13.86,27.45A12.75,12.75,0,0,1,92,256.4a8,8,0,0,0,.92,1.35,8.22,8.22,0,0,1,1.67.34.56.56,0,0,1,.2.11,9.88,9.88,0,0,1,3.69-.58,3.58,3.58,0,0,1,.89-.85,2.94,2.94,0,0,1,2.28-.35c0-.08,1.34-1.09,2-1.61s1.36-1.06,1.86-1.41c-5.66-5.06-11.37-10.71-13-14-1.41-2.89-2.84-10.77-1-15a4.54,4.54,0,0,1,2.85-2.73c.64-.19,1.34-.38,2.08-.55a16.38,16.38,0,0,0,.64-5.93c-.39-3.54-1-4.74-3.73-5.44-.93-.23-1.67,1.18-2.28,2.85a9.68,9.68,0,0,1,2.32.18c.42.05,1.84.11,2.19.11a.64.64,0,0,1,.45.21.65.65,0,0,1,.18.47A4.34,4.34,0,0,1,92,217.93h-.11a2.56,2.56,0,0,1-.75-.12,6,6,0,0,1,.06,1.14,9,9,0,0,1-1,3.39.66.66,0,0,1-.59.38h0a.67.67,0,0,1-.58-.44c-.28-.79-.53-1.6-.74-2.41a6.74,6.74,0,0,1-.29-1.75h0a4.91,4.91,0,0,1,.09-.73,4.45,4.45,0,0,1-1.72.73,3.25,3.25,0,0,1-.74.09,6.25,6.25,0,0,1-2.67-.58,4.43,4.43,0,0,1-1.3-3.67.77.77,0,0,1,.44-.68,12.25,12.25,0,0,1,4.35-.33A5,5,0,0,0,84,210.71a2.09,2.09,0,0,0-1.57.58,6.69,6.69,0,0,0-1.33,1.42L81,213a5.47,5.47,0,0,0-1,2.59,7.78,7.78,0,0,0,.86,2.92,8,8,0,0,1,1,3.65c-.18,2.29-3.56,6.69-4.12,7.41a44.75,44.75,0,0,0,1.75,6.09c2.17,5.95,6,11.44,9.78,16.75C89.9,253.33,90.58,254.29,91.24,255.25Zm-.14,5.27c.11-.11.21-.23.34-.35a9.53,9.53,0,0,1,1.5-1.11,5.42,5.42,0,0,0-3.68.58,1.44,1.44,0,0,1,1,.06,2,2,0,0,1,.79.7Zm6.13.64a4.71,4.71,0,0,0,.25-1.06c0-.23.06-.45.11-.67s.11-.35.16-.52a8.66,8.66,0,0,0-5.43,2.21,4,4,0,0,0-.46.48c-.07.09-.14.17-.19.25a2.2,2.2,0,0,0-.25.54,2.92,2.92,0,0,0,.19,2.07l.56-2.23A1.74,1.74,0,0,1,93,261a1.69,1.69,0,0,1,1.8.46l.27.2a1.74,1.74,0,0,0,1.32.15,4.1,4.1,0,0,0,.59-.2A3.3,3.3,0,0,0,97.23,261.16Zm4.69-2.05A2,2,0,0,1,103,258a4.79,4.79,0,0,1-1.2-.18l-.19,0a4.5,4.5,0,0,0-.86-.12,1.32,1.32,0,0,0-.75.22h0a2.37,2.37,0,0,0-.39.32,2.89,2.89,0,0,0-.48.73,3.44,3.44,0,0,0-.28.8,3.7,3.7,0,0,0-.1.58c-.05.28-.1.57-.17.86a3.31,3.31,0,0,1-.18.53,6.29,6.29,0,0,1-.4.73,2.39,2.39,0,0,0-.13.21,2.25,2.25,0,0,0-.12.21,3.37,3.37,0,0,0,0,2.86,20,20,0,0,1,.22-2,2.14,2.14,0,0,1,.38-1,2.33,2.33,0,0,1,.72-.58A7.24,7.24,0,0,0,101.92,259.11Zm1.55.77,1.65.54a4.51,4.51,0,0,0-.08-.53.9.9,0,0,0-.39-.61,4.33,4.33,0,0,0-1.29-.06,1.88,1.88,0,0,0-.28.47l0,0Zm2.67,3.07a5.89,5.89,0,0,0,1.46-2.05,4.41,4.41,0,0,0,0-2.78c-.35-.91-.53-1.16-1.1-1.23a7.83,7.83,0,0,0-1.25.51,7.36,7.36,0,0,1-1.08.44l-.39.07h.09a3.5,3.5,0,0,1,1.36.21,2.12,2.12,0,0,1,1.07,1.5A7.87,7.87,0,0,1,106.14,263Z" style="fill:#d5c52a"/><path d="M210.62,296.76a.88.88,0,0,1-1,.72h0c-3.29-.43-9.51-2.85-12.11-4.28-2.11-1.15-4.07-2.15-5.93-3a36.11,36.11,0,0,1,11.79,15,.85.85,0,0,1-1.44.87c-4.24-5.06-9.14-10.56-15.1-14.46a51.75,51.75,0,0,1,10.48,13.54.85.85,0,0,1-1.4.94,102.19,102.19,0,0,0-9.62-9.79,35.76,35.76,0,0,1,2.53,15.39.84.84,0,0,1-.66.78.83.83,0,0,1-.93-.42,36.09,36.09,0,0,1-3-8.78,49.53,49.53,0,0,0-1.72-6,25.14,25.14,0,0,1-5.68,18.62.85.85,0,0,1-.82.28.49.49,0,0,1-.17-.06.84.84,0,0,1-.49-.9,65.38,65.38,0,0,1,1.88-8c.19-.67.37-1.35.55-2a10.92,10.92,0,0,1-3.14,1.1,29.06,29.06,0,0,1-12.14.05,28.34,28.34,0,0,1-5.38-1.74c-10.2-4.42-15.78-13.47-14.57-23.61,1-8.71,4.06-12.81,7.16-15.94,4-4,9-6.21,13.75-6a15.56,15.56,0,0,1,13.44,8.07,1.67,1.67,0,0,1,1.31-.5c1.58.1,3.09,2.2,5.37,5.65a29.46,29.46,0,0,0,2.43,3.36,30,30,0,0,0,5.67,4.26,37.17,37.17,0,0,1,3.27,2.24c2.06,1.65,3.12,3.13,3.56,7.06a.87.87,0,0,1-.07.42c2,1.07,4.11,2.22,6.23,3.38,2.47,1.36,4.8,2.63,5.21,2.76A.82.82,0,0,1,210.62,296.76Zm-40.51-16c-.22,0-.43,0-.67-.09-2.39-.52-2.49-2.55-2.31-3.9-1.33,0-1.79.43-2,1.06-.73,2,.23,3.05,2,4.72a11,11,0,0,1,3,3.86c1,2.47,2.53,2.9,4.34,3.41a16.43,16.43,0,0,1,1.76.58,4.19,4.19,0,0,1-.08-3,4.85,4.85,0,0,1-3,.31l-.66-.18a4.53,4.53,0,0,1-3-4.4A4.29,4.29,0,0,1,170.11,280.75Zm4.47,2.39a3.93,3.93,0,0,0-.29,2.68.88.88,0,0,1,.06.27,3.07,3.07,0,0,0,1.16-.31,2.58,2.58,0,0,0,1.31-1.52,2.61,2.61,0,0,0-.77-2.58,3.57,3.57,0,0,0-1.76-1,2.93,2.93,0,0,0-1.5,0h0a2.38,2.38,0,0,0-1.7,2.36,2.89,2.89,0,0,0,1.42,2.56,6.6,6.6,0,0,1,.49-3.17.85.85,0,1,1,1.58.62Zm5.24-1c1.12-.31,3.18.21,5.88,1.27a31.48,31.48,0,0,0-6.92-3.09,10.55,10.55,0,0,0-1.95-.24,5,5,0,0,1,.42.37,4.52,4.52,0,0,1,1.31,2.51A3.17,3.17,0,0,1,179.82,282.17Zm-7.62-9.53-.57.31-2.34,2a7.91,7.91,0,0,0-.32,1.16l0,.1c-.4,1.86-.19,2.56.85,2.79a7.87,7.87,0,0,0,3.6-.19,12.35,12.35,0,0,1,5.73-.12c3.27.7,9.13,4.2,13.83,7,1.4.84,2.69,1.61,3.66,2.15a6.44,6.44,0,0,0-2.69-4.33,33.72,33.72,0,0,0-3.12-2.13,31.52,31.52,0,0,1-6-4.52,27.8,27.8,0,0,1-2.63-3.6c-1.07-1.61-3.27-5-4.08-4.9a12.15,12.15,0,0,1-.86.88h0A22,22,0,0,1,172.2,272.64Zm6.23,30a24.14,24.14,0,0,0-1.13-9.38,5.41,5.41,0,0,0-3.33-1.84c-2-.55-4.18-1.17-5.46-4.43a9.63,9.63,0,0,0-2.57-3.25c-1.67-1.58-3.56-3.37-2.42-6.53.72-2,2.66-2.23,3.95-2.2l0-.08a1.09,1.09,0,0,1,.05-.17,1.43,1.43,0,0,1,.09-.27.88.88,0,0,1,.05-.15,4.24,4.24,0,0,1,.42-.82l.09-.13a2.83,2.83,0,0,1,.23-.28l.12-.14a3.84,3.84,0,0,1,.29-.27l.13-.12a4.23,4.23,0,0,1,.51-.38c.56-.36,1.22-.71,1.92-1.09.36-.19.73-.38,1.1-.59l.33-.19.81-.48c.14-.08.29-.18.43-.28s.47-.31.71-.48l.46-.37.42-.35a13.42,13.42,0,0,0-9.49-7.24,18,18,0,0,0-2.75-.35c-4.28-.2-8.82,1.8-12.47,5.49-3.33,3.37-5.74,7.2-6.67,14.95-1.14,9.5,3.93,17.67,13.55,21.84a26.89,26.89,0,0,0,16.52,1.59A7.27,7.27,0,0,0,178.43,302.67Z" style="fill:#93d8ca"/><path d="M64.45,187.26A3.39,3.39,0,0,1,62,189.91a9.41,9.41,0,0,1-5.45.16,7.24,7.24,0,0,1-2.93-1.47c-2-1.79-1.94-3.33-1.47-4.32-2-1.17-3.9-2.64-4.44-4.94a14.55,14.55,0,0,1-8.24,1l-1.33-.28c-2.5-.52-5.47-1.13-8.49-1.92-5-1.3-10.09-3.07-13.3-5.62a36.08,36.08,0,0,0-4.78-1.9,5.29,5.29,0,0,0,.89,2.5,8.18,8.18,0,0,1,1.16,3c.25,2.15-1.51,4.14-3.37,5.17a4.9,4.9,0,0,1-3.58.19,14.51,14.51,0,0,1-5.89-3.32A1.51,1.51,0,0,1,1,176.3a2.48,2.48,0,0,1,1.48-.75,28.68,28.68,0,0,1-1.14-4.7l-.95-.23c-2.49-.65-6.23-2-6.48-3.81-.13-.94,2.43-5.3,4.73-5.88l.69-.2.59-.17c-1.67-1.66-3.69-3.25-5.18-3.69-.47-.15-1.31-.3-2.29-.48a24,24,0,0,1-6.2-1.66,4.77,4.77,0,0,1-2.59-5.4c.45-1.72,8.11-3.8,11.89-2.81,1.27.33,3,1.66,4.79,3.07a40.19,40.19,0,0,0,3.42,2.5,2.22,2.22,0,0,1,.05-1.84c.42-.76,1.39-1.16,3.13-1.3,1.5-.12,2.48-1.4,4.24-2.42a16.78,16.78,0,0,1,4.76-2.2h0c1.44-.28,3.2-.81,4.9-1.31,2.87-.86,5.59-1.67,7.11-1.45a25.46,25.46,0,0,1,5.89,1.68,11.92,11.92,0,0,0,4.91,1.16c.07,0,7-.13,9.33,1.9.75.66,1.33,1.21,1.84,1.7a9.66,9.66,0,0,0,3.8,2.62c5.12,2,9.37,10.38,9.45,14,0,1.66,1.12,7.07,4.27,9.88a.62.62,0,0,1,.22.47.67.67,0,0,1-.2.48,10.22,10.22,0,0,1-7.14,2.57,17.27,17.27,0,0,0,1.41,2.28c.33.48.64.93.9,1.38C63.49,183.18,64.62,185.86,64.45,187.26ZM-11,149.38a1.47,1.47,0,0,0-.66.46.67.67,0,0,1,.55-.11.64.64,0,0,1,.47.58,5.15,5.15,0,0,0,1.11,0l.21,0c-.57-.51-1.15-1-1.68-.87Zm14.2,9c1-.56,1.4-4.42,1.4-4.42a25,25,0,0,1-5.06-3.36c-1.62-1.27-3.3-2.58-4.31-2.85a14.41,14.41,0,0,0-6.44.36c1.2-.23,2.15.63,2.92,1.32l.37.33a.62.62,0,0,1,.2.65A1.55,1.55,0,0,1-9,151.5a5.92,5.92,0,0,1-2.64-.07,2.19,2.19,0,0,1-1.06-.53,1.24,1.24,0,0,1-.27-1.26,2.51,2.51,0,0,1,1.46-1.43,9,9,0,0,0-3.59,1.51,3.17,3.17,0,0,0,.72,2.83,4.08,4.08,0,0,1,2.39-.3,6.31,6.31,0,0,1,.72.18l.46.13a3.93,3.93,0,0,0,2.15-.13.64.64,0,0,1,.82.38.64.64,0,0,1-.38.82,5.11,5.11,0,0,1-2.87.18l-.54-.14a5.87,5.87,0,0,0-.6-.16,2.86,2.86,0,0,0-1,0l.13.08a24.11,24.11,0,0,0,5.81,1.53c1,.18,3.17-1.34,3.72-1.18C-.92,154.75.76,159.74,3.2,158.39Zm-3.24,9c1.64-.94,1-5.78,1-5.78-.34.07-.84.22-1.24.34l-.74.21c-1.59.4-3.6,3.77-3.76,4.5C-4.59,167.5-2.7,168.93,0,167.41Zm20.59,4.23a26.81,26.81,0,0,0-3.72-2.1c-2.73-1.38-6-3-8.19-5.69-.05,0,.06,0,0,0-1.89-.67-4.44-1.1-5.48.66-1.78,3,0,9.59.87,11.52a.63.63,0,0,1-.15.72.64.64,0,0,1-.72.11,1.21,1.21,0,0,0-1.21.3.25.25,0,0,0,0,.35c.5.59,5.49,3.94,7.76,2.69,1.43-.8,2.89-2.35,2.71-3.9a7.07,7.07,0,0,0-1-2.57,5.58,5.58,0,0,1-1-4,.63.63,0,0,1,.67-.52,18.14,18.14,0,0,1,5,1.58c.67.28,1.3.55,1.84.74A14.93,14.93,0,0,0,20.55,171.64Zm30.38,5A45.26,45.26,0,0,1,58,174c.89-.22,2.14-.42,2.7.34s3.79,1.85,5.33.66c-3.3-3.41-4.14-9-4.17-10.3-.08-3.42-4.17-11.15-8.63-12.85A11.1,11.1,0,0,1,49,148.94c-.49-.48-1.06-1-1.79-1.67-1.56-1.37-6.8-1.64-8.43-1.57a13,13,0,0,1-5.42-1.25,24.83,24.83,0,0,0-5.61-1.61c-1.25-.18-3.95.63-6.56,1.41-1.73.51-3.52,1.05-5,1.34a16.37,16.37,0,0,0-4.37,2c-1.87,1.1-3,2.45-4.77,2.6-1.6.13-2,.46-2.13.65-.23.41.29,1.46.8,2.47a14.77,14.77,0,0,1,1.56,4.21c1,6.2,5.84,8.66,10.13,10.83,2.18,1.1,3.74,2.64,5.17,3.38,2.05,1,12.26,1.07,17.23,2.37C44,175.22,47.14,178.29,50.93,176.62ZM63.17,187.1c.12-.91-.77-3.25-1.65-4.74-.24-.41-.54-.84-.85-1.3a13.54,13.54,0,0,1-1.94-3.54.39.39,0,0,1,0-.15s0-.05,0-.08a.65.65,0,0,1,.08-.27h0l.18-.32a4.55,4.55,0,0,0,.73-1.63,4.11,4.11,0,0,0-1.35.17,42.87,42.87,0,0,0-6.89,2.57c-.84.37-1.66.73-2.48,1.06.36,1.92,2,3.26,4.43,4.64a.6.6,0,0,1,.31.43.59.59,0,0,1-.12.51c-.47.62-.88,1.62.91,3.19a7.78,7.78,0,0,0,7.08,1.08C62.25,188.45,63.07,188,63.17,187.1Z" style="fill:#177f5a"/><path d="M.16,245.23c-1.13,5.64-7.33,6.75-12.65,5.4h-.19l-.49.69c-1.34,1.84-3.84,5.27-4.67,8.77-.61,2.56-2.67,4.48-6.3,5.87a.57.57,0,0,1-.22,0,.66.66,0,0,1-.55-.3,1,1,0,0,1-.11-.94,8.68,8.68,0,0,0,.35-4.32,7.28,7.28,0,0,1-.09-1.17,6.85,6.85,0,0,1,1.07-2.86h0c-.81.24-1.68.43-2.64.64a47,47,0,0,0-7.89,2.32.5.5,0,0,1-.23.05.74.74,0,0,1-.68-.56.93.93,0,0,1,.39-1.11,4.93,4.93,0,0,0,2.12-2.39,5.78,5.78,0,0,1,3-3c1.25-.5,3-2.53,4.7-4.55a27.16,27.16,0,0,0-5.26,2.76c-3.34,2.12-11.19,3-14.62,2.11a2.61,2.61,0,0,1-2-1.4,3.19,3.19,0,0,1,.57-2.54c.2-.39.42-.82.63-1.31l-.94.42c-3,1.37-5.17,2.36-8.94,1.45l-1-.23c-3.55-.83-4.82-1.2-5.18-2.06a1.26,1.26,0,0,1,0-1c.24-.58,1-2.33,8.67-5.09l.22-.08c3.32-1.49,4.81-3.59,6.94-6.74-4,1.37-10.21,1.77-15.49,2.11-3.62.23-6.74.43-7.95.88a.69.69,0,0,1-.86-.45,1,1,0,0,1,.23-1.09,64,64,0,0,0,6.44-7.41c3.27-4.08,6.65-8.31,9.23-10,3.17-2.09,9.68-3.94,13.65-2a5.31,5.31,0,0,1,2.87,3.63c.45,1.87,2.66,4.33,6.15,6.84-.43-2.41-1.06-4.2-2.65-5.15-.9-.54-2.91-4.1-4.12-5.53a6.43,6.43,0,0,0-5.05-2.74.78.78,0,0,1-.64-.64,1,1,0,0,1,.28-.94,9.9,9.9,0,0,0,1.76-2c.5-.72,1-1.47,2-1.28,3.82.75,6.16,1.27,9.82,3.46a20.45,20.45,0,0,1,6.28,6.06,10.31,10.31,0,0,0,1.17,1.46c2,1.82,3.91,4.24,2.5,8.45a23,23,0,0,1-1.06,2.63,6.13,6.13,0,0,0-.6,1.63c2.73,2.75,8.23,4.14,11.23,4.9.79.2,1.42.36,1.82.5,3.08,1.05,5.14,3.22,7,5.13.62.64,1.2,1.26,1.76,1.76A1,1,0,0,1,.16,245.23Zm-30-17.16a75.14,75.14,0,0,0,6.53,4,7.41,7.41,0,0,1,.77-2.47,21.22,21.22,0,0,0,1-2.43c.88-2.62.35-4.3-2-6.42A11,11,0,0,1-25,219a18.94,18.94,0,0,0-5.83-5.64c-3.47-2.08-5.72-2.58-9.4-3.3-.12,0-.17,0-.64.68-.24.33-.52.73-.9,1.17,1.91.94,2.79.81,4.46,2.8,1.07,1.27,3,4.79,3.74,5.2C-31,221.45-30.36,224.51-29.86,228.07Zm-13.86,3s0-.94,0-3.27A13.55,13.55,0,0,1-39.67,219a3.73,3.73,0,0,0-1.47-1.26c-3.2-1.6-9.1-.29-12.39,1.88-2.38,1.57-5.68,5.69-8.87,9.68-1.64,2-3.21,4-4.61,5.57,1.51-.17,3.43-.3,5.61-.44C-54.94,234.05-46.1,233.48-43.72,231ZM-24.89,246c-4.68-2.14-15-7.55-18-13.36-.56.8-1.09,1.56-1.57,2.28-2.3,3.41-4,5.87-7.78,7.58l-.29.11c-5,1.77-6.77,3-7.43,3.71a32.18,32.18,0,0,0,3.8,1l1,.24c3.36.8,5.25-.07,8.13-1.38.75-.34,1.55-.7,2.44-1.07a.66.66,0,0,1,.73.18,1,1,0,0,1,.22.85A12.6,12.6,0,0,1-45,249.61a9.15,9.15,0,0,0-.44.95,2.84,2.84,0,0,0,1,.38c3.43.89,10.82-.16,13.63-1.95A25.66,25.66,0,0,1-24.89,246Zm10,5a19.41,19.41,0,0,0-3.52,2.31c-.68.5-1.46,1.08-2.38,1.74l-.22.14h0c-1.12,1.42-2.31,3.37-2.32,4.13a7.13,7.13,0,0,0,.07.89,12.57,12.57,0,0,1,0,3.5c2.27-1.1,3.58-2.45,4-4.1A25.83,25.83,0,0,1-14.86,251Zm1.92-.37h0Zm.19-1.75c-.41-1-1.1-1.95-2.07-1.95s-1.72-3.41-2.95-3.23c-1.92.27-5.88,5-5.88,5-2,2.36-3.86,4.59-5.49,5.24a4.29,4.29,0,0,0-2.26,2.35l-.16.29c1.94-.61,3.57-1,5-1.27a13.21,13.21,0,0,0,5.08-1.78c.92-.66,1.69-1.24,2.36-1.73C-16.2,249.65-15.11,248.86-12.75,248.88Zm8.54-5.76a1.11,1.11,0,0,1-1.08.86,1.14,1.14,0,0,1-1.13-1.13,1.08,1.08,0,0,1,.2-.61,1.45,1.45,0,0,0-.88,2.26,1.85,1.85,0,0,0,2.9.19A1.42,1.42,0,0,0-4.21,243.12Z" style="fill:#f4b095"/><path d="M70.2,230.26a.88.88,0,0,1-1,.72h0c-3.28-.43-9.51-2.85-12.11-4.28-2.1-1.15-4.07-2.15-5.93-3A36,36,0,0,1,63,238.7a.85.85,0,0,1-1.44.87c-4.24-5.06-9.13-10.56-15.09-14.46A51.92,51.92,0,0,1,56.9,238.65a.85.85,0,0,1-1.4.94,102.19,102.19,0,0,0-9.62-9.79,35.76,35.76,0,0,1,2.53,15.39.84.84,0,0,1-.66.78.83.83,0,0,1-.93-.42,36.09,36.09,0,0,1-3-8.78,49.53,49.53,0,0,0-1.72-6,25.17,25.17,0,0,1-5.67,18.62.88.88,0,0,1-.83.28.49.49,0,0,1-.17-.06.84.84,0,0,1-.49-.9,65.38,65.38,0,0,1,1.88-8c.19-.67.37-1.35.55-2a10.85,10.85,0,0,1-3.13,1.1,29.11,29.11,0,0,1-12.15,0,28.34,28.34,0,0,1-5.38-1.74C6.54,233.73,1,224.68,2.17,214.54c1.05-8.71,4.06-12.81,7.16-15.94,4-4,9-6.21,13.75-6,7.07.33,11.51,4.33,13.44,8.07a1.68,1.68,0,0,1,1.31-.5c1.58.1,3.09,2.2,5.38,5.65a27.18,27.18,0,0,0,2.43,3.36,29.67,29.67,0,0,0,5.66,4.26,35.74,35.74,0,0,1,3.27,2.24c2.06,1.65,3.12,3.13,3.56,7.06a.87.87,0,0,1-.07.42c2,1.07,4.11,2.22,6.23,3.38,2.47,1.36,4.8,2.63,5.21,2.76A.82.82,0,0,1,70.2,230.26Zm-40.51-16c-.22,0-.43,0-.67-.09-2.39-.52-2.49-2.55-2.31-3.9-1.33,0-1.79.43-2,1.06-.72,2,.24,3.05,2,4.72a11,11,0,0,1,3,3.86c1,2.47,2.54,2.9,4.34,3.41a15.72,15.72,0,0,1,1.76.58,4.24,4.24,0,0,1-.08-3,4.84,4.84,0,0,1-3,.31L32,221a4.53,4.53,0,0,1-3-4.4A4.29,4.29,0,0,1,29.69,214.25Zm4.47,2.39a3.93,3.93,0,0,0-.29,2.68.88.88,0,0,1,.06.27,3,3,0,0,0,1.16-.31,2.54,2.54,0,0,0,1.31-1.52,2.63,2.63,0,0,0-.76-2.58,3.64,3.64,0,0,0-1.77-1,2.93,2.93,0,0,0-1.5.05h0a2.37,2.37,0,0,0-1.69,2.36,2.85,2.85,0,0,0,1.42,2.56,6.49,6.49,0,0,1,.48-3.17.85.85,0,1,1,1.58.62Zm5.25-1c1.11-.31,3.18.21,5.87,1.27a31.48,31.48,0,0,0-6.92-3.09,10.55,10.55,0,0,0-2-.24,5,5,0,0,1,.42.37,4.52,4.52,0,0,1,1.31,2.51A3.13,3.13,0,0,1,39.41,215.67Zm-7.63-9.53-.57.31-2.33,2a6.78,6.78,0,0,0-.33,1.16l0,.1c-.4,1.86-.19,2.56.85,2.79a7.87,7.87,0,0,0,3.6-.19,12.39,12.39,0,0,1,5.74-.12c3.27.7,9.12,4.2,13.82,7,1.4.84,2.69,1.61,3.66,2.15A6.44,6.44,0,0,0,53.51,217a32.42,32.42,0,0,0-3.12-2.13,31.52,31.52,0,0,1-6-4.52,27.8,27.8,0,0,1-2.63-3.6c-1.07-1.61-3.27-5-4.08-4.9a12.15,12.15,0,0,1-.86.88h0A21.79,21.79,0,0,1,31.78,206.14Zm6.23,30a24.14,24.14,0,0,0-1.13-9.38A5.41,5.41,0,0,0,33.56,225c-2-.55-4.19-1.17-5.47-4.43a9.63,9.63,0,0,0-2.57-3.25c-1.66-1.58-3.55-3.37-2.42-6.53.72-2,2.66-2.23,3.95-2.2l0-.08a1.09,1.09,0,0,1,.05-.17c0-.09.06-.18.09-.27s0-.1.05-.15a3.8,3.8,0,0,1,.43-.82.57.57,0,0,1,.08-.13l.23-.28.12-.14a3.84,3.84,0,0,1,.29-.27l.13-.12a5.2,5.2,0,0,1,.51-.38c.56-.36,1.22-.71,1.92-1.09.36-.19.73-.38,1.1-.59l.33-.19q.41-.23.81-.48a4,4,0,0,0,.43-.28c.24-.15.48-.31.71-.48l.46-.37.42-.35a13.42,13.42,0,0,0-9.49-7.24,18,18,0,0,0-2.75-.35c-4.28-.2-8.82,1.8-12.46,5.49-3.34,3.37-5.75,7.2-6.68,14.95-1.14,9.5,3.93,17.67,13.55,21.84a26.89,26.89,0,0,0,16.52,1.59A7.27,7.27,0,0,0,38,236.17Z" style="fill:#93d8ca"/><path d="M345.28,54.26a3.37,3.37,0,0,1-2.41,2.65,9.38,9.38,0,0,1-5.44.16,7.28,7.28,0,0,1-2.94-1.47c-2-1.79-1.93-3.33-1.46-4.32-2-1.17-3.9-2.64-4.44-4.94a14.56,14.56,0,0,1-8.24,1L319,47.05c-2.49-.52-5.47-1.13-8.48-1.92-5-1.3-10.09-3.07-13.3-5.62a36.33,36.33,0,0,0-4.79-1.9,5.31,5.31,0,0,0,.9,2.5,8,8,0,0,1,1.15,3c.25,2.15-1.51,4.14-3.36,5.17a4.9,4.9,0,0,1-3.58.19,14.51,14.51,0,0,1-5.89-3.32,1.51,1.51,0,0,1,.18-1.89,2.48,2.48,0,0,1,1.48-.75,27.69,27.69,0,0,1-1.14-4.7l-1-.23c-2.49-.65-6.22-2-6.47-3.81-.14-.94,2.43-5.3,4.72-5.88l.69-.2.59-.17a15.15,15.15,0,0,0-5.17-3.69c-.48-.15-1.32-.3-2.29-.48a24,24,0,0,1-6.2-1.66,4.75,4.75,0,0,1-2.59-5.4c.45-1.72,8.11-3.8,11.89-2.81,1.27.33,3,1.66,4.78,3.07a41.91,41.91,0,0,0,3.43,2.5,2.22,2.22,0,0,1,0-1.84c.43-.76,1.4-1.16,3.14-1.3,1.49-.12,2.48-1.4,4.23-2.42a17,17,0,0,1,4.77-2.2h0c1.44-.28,3.2-.81,4.9-1.31,2.87-.86,5.58-1.67,7.11-1.45a25.46,25.46,0,0,1,5.89,1.68,11.92,11.92,0,0,0,4.91,1.16c.07,0,7-.13,9.32,1.9.76.66,1.33,1.21,1.84,1.7a9.77,9.77,0,0,0,3.81,2.62c5.12,2,9.37,10.38,9.45,14,0,1.66,1.12,7.07,4.27,9.88a.65.65,0,0,1,.22.47.64.64,0,0,1-.21.48,10.2,10.2,0,0,1-7.13,2.57,18.33,18.33,0,0,0,1.4,2.28c.33.48.64.93.91,1.38C344.33,50.18,345.46,52.86,345.28,54.26ZM269.84,16.38a1.47,1.47,0,0,0-.66.46.65.65,0,0,1,.54-.11.64.64,0,0,1,.48.58,5.15,5.15,0,0,0,1.11,0l.21,0c-.57-.51-1.15-1-1.68-.87Zm14.2,9c1-.56,1.39-4.42,1.39-4.42a25.2,25.2,0,0,1-5.05-3.36c-1.62-1.27-3.3-2.58-4.31-2.85a14.41,14.41,0,0,0-6.44.36c1.2-.23,2.15.63,2.92,1.32.12.12.25.23.37.33a.66.66,0,0,1,.2.65,1.57,1.57,0,0,1-1.3,1.08,6,6,0,0,1-2.65-.07,2.24,2.24,0,0,1-1.06-.53,1.26,1.26,0,0,1-.27-1.26,2.57,2.57,0,0,1,1.46-1.43,9,9,0,0,0-3.58,1.51,3.17,3.17,0,0,0,.71,2.83,4.09,4.09,0,0,1,2.39-.3,6,6,0,0,1,.73.18l.46.13a3.93,3.93,0,0,0,2.15-.13.64.64,0,1,1,.44,1.2,5.14,5.14,0,0,1-2.88.18l-.53-.14c-.2-.06-.4-.12-.6-.16a2.86,2.86,0,0,0-1,0,.91.91,0,0,0,.13.08,24,24,0,0,0,5.81,1.53c1,.18,3.17-1.34,3.71-1.18C279.91,21.75,281.6,26.74,284,25.39Zm-3.24,9c1.64-.94,1-5.78,1-5.78-.34.07-.85.22-1.24.34l-.74.21c-1.6.4-3.6,3.77-3.76,4.5C276.24,34.5,278.14,35.93,280.8,34.41Zm20.58,4.23a26.07,26.07,0,0,0-3.71-2.1c-2.73-1.38-6-3-8.19-5.69-.05,0,0,0,0,0-1.89-.67-4.45-1.1-5.49.66-1.77,3,.05,9.59.88,11.52a.66.66,0,0,1-.15.72.66.66,0,0,1-.73.11,1.2,1.2,0,0,0-1.2.3.25.25,0,0,0,0,.35c.5.59,5.49,3.94,7.75,2.69,1.44-.8,2.9-2.35,2.72-3.9a7.07,7.07,0,0,0-1-2.57,5.53,5.53,0,0,1-1-4,.62.62,0,0,1,.66-.52,18,18,0,0,1,5,1.58c.68.28,1.31.55,1.85.74A14.85,14.85,0,0,0,301.38,38.64Zm30.39,5a45.26,45.26,0,0,1,7.1-2.64c.89-.22,2.13-.42,2.7.34s3.79,1.85,5.33.66c-3.3-3.41-4.15-9-4.17-10.3-.08-3.42-4.18-11.15-8.63-12.85a11,11,0,0,1-4.24-2.89c-.5-.48-1.06-1-1.79-1.67-1.57-1.37-6.8-1.64-8.43-1.57a13,13,0,0,1-5.42-1.25,25,25,0,0,0-5.61-1.61c-1.25-.18-3.95.63-6.56,1.41-1.74.51-3.53,1.05-5,1.34a16.23,16.23,0,0,0-4.37,2c-1.88,1.1-3,2.45-4.77,2.6-1.61.13-2,.46-2.13.65-.23.41.29,1.46.8,2.47a14.47,14.47,0,0,1,1.55,4.21c1,6.2,5.85,8.66,10.14,10.83,2.18,1.1,3.73,2.64,5.17,3.38,2,1,12.25,1.07,17.22,2.37C324.79,42.22,328,45.29,331.77,43.62ZM344,54.1c.11-.91-.78-3.25-1.65-4.74-.24-.41-.54-.84-.86-1.3a14.14,14.14,0,0,1-1.94-3.54.76.76,0,0,1,0-.15s0,0,0-.08a.64.64,0,0,1,.07-.27h0l.18-.32a4.73,4.73,0,0,0,.73-1.63,4.1,4.1,0,0,0-1.35.17,43.35,43.35,0,0,0-6.9,2.57c-.83.37-1.65.73-2.47,1.06.36,1.92,2,3.26,4.43,4.64a.63.63,0,0,1,.31.43.62.62,0,0,1-.12.51c-.47.62-.89,1.62.91,3.19a7.78,7.78,0,0,0,7.08,1.08C343.08,55.45,343.9,55,344,54.1Z" style="fill:#177f5a"/><path d="M272.9,72.69a.6.6,0,0,1-.28.35,5.11,5.11,0,0,1-2.59.67c-3.39,0-7.25-2.9-10.74-5.53-2.56-1.93-5-3.75-6.69-4a37.71,37.71,0,0,1-4.11-1,5.91,5.91,0,0,1-3,2.34.64.64,0,0,1-.71-.25.63.63,0,0,1,0-.75,8,8,0,0,0,.63-2.27l-2-.66-.72-.24a8.39,8.39,0,0,1-2.53,2.29,1.89,1.89,0,0,0-.4.27,1.3,1.3,0,0,0-.12.45,19.33,19.33,0,0,0-.23,3.95.63.63,0,0,1-.39.62.56.56,0,0,1-.25,0,.67.67,0,0,1-.48-.2,5.9,5.9,0,0,1-1.66-5.16,2.9,2.9,0,0,1-1.93-.39l-.35-.26a1.89,1.89,0,0,0-.48-.31s0,.1-.1.37l-.9,3.6a.65.65,0,0,1-.45.47.55.55,0,0,1-.18,0,.63.63,0,0,1-.45-.18,4.41,4.41,0,0,1-1.11-4.8l-.35-.46c-.09-.12-.2-.27-.28-.3a.39.39,0,0,0-.36.16,2.17,2.17,0,0,0-.39.85c-.21.7-.41,1.39-.59,2.1a.63.63,0,0,1-.54.48h-.08a.64.64,0,0,1-.57-.34,4.3,4.3,0,0,1,.07-4.09,5.11,5.11,0,0,1,1-1.25,5,5,0,0,1,3-1.09c-.14-.22-.27-.44-.4-.66s-.41-.72-.65-1.07l-2-2.86c-3.8-5.38-7.72-10.94-10-17.06-2-5.64-4-14.17-1.34-22.76a16.53,16.53,0,0,1,.91-2.4c-1.5-1.65-1.09-7-.88-8.49a.63.63,0,0,1,.33-.47.65.65,0,0,1,.59,0c5.4,2.56,5.54,2.73,5.7,2.9a1.88,1.88,0,0,1,.33.56,13.21,13.21,0,0,1,2.42-.63,16.34,16.34,0,0,1,6.88,0c0-.07,0-.15,0-.23.22-1,.38-1.74.51-2.15.42-1.33,1.52-1.84,2.78-2.43l.81-.39a.66.66,0,0,1,.5,0,.65.65,0,0,1,.37.34l.21.41a11.07,11.07,0,0,1,1.49,4.76,5.51,5.51,0,0,1-1.65,3.85,31.53,31.53,0,0,1,2,3.53c1.59,3.3,3.22,6.42,5.69,8.3a15.9,15.9,0,0,0,3.47,1.85c.72.31,1.47.63,2.25,1a23,23,0,0,1,9,9.43,72.83,72.83,0,0,1,6.8,20.85,65.9,65.9,0,0,0,2,8.59,26.7,26.7,0,0,0,1.13,2.54C272.12,68.05,273.5,70.91,272.9,72.69ZM237.68,10.28c-.15.12-.32.25-.5.37,1.09,1.19,1.37,2.83,1.61,4.89a17,17,0,0,1-.52,5.78,23.65,23.65,0,0,1,5.72-.46,29.19,29.19,0,0,1-4.57-7.38A30.29,30.29,0,0,0,237.68,10.28Zm-13.2-3v.25a5.68,5.68,0,0,0,.62,2.42.35.35,0,0,0,0,.11c1.64.66,3.05,2.87,4.28,5.21l0-.08c.72-2.38,1.58-5.23,3.14-6.05a24,24,0,0,0,.71-2.65,15.36,15.36,0,0,0-6.39,0,12.39,12.39,0,0,0-2.43.66Zm6.88,7.56a1,1,0,0,1,.08-.39,2.12,2.12,0,0,0-.45.12c-.11.34-.21.67-.31,1,0,.07,0,.13-.05.19a1.88,1.88,0,0,0,1.68,1.36,2.64,2.64,0,0,0,3-2.5c-.21,0-1.44-.05-1.66-.08l-.38-.05a1,1,0,0,1,.07.36,1,1,0,1,1-2,0Zm-5.72.18a.86.86,0,0,1,.08-.36,21.92,21.92,0,0,0-2.37.14,3.12,3.12,0,0,0,.82,2.3,4.48,4.48,0,0,0,2.31.23c1.45-.32,1.82-1.06,1.9-1.28-.19-.35-.39-.74-.61-1.13l-.2-.06a.94.94,0,0,1,0,.16,1,1,0,0,1-2,0ZM217.79,28.3c1.24-1.7,3.05-4.44,3.15-5.78a7.19,7.19,0,0,0-.86-3,8.54,8.54,0,0,1-1-3.47,6.36,6.36,0,0,1,1-2.94c-.3-.29-.6-.58-.86-.81a17,17,0,0,0-.69,1.92A31.28,31.28,0,0,0,217.79,28.3Zm13.87,27.45c.26.37.49.77.71,1.15a8,8,0,0,0,.92,1.35,8.22,8.22,0,0,1,1.67.34.45.45,0,0,1,.19.11,10,10,0,0,1,3.7-.58,3.58,3.58,0,0,1,.89-.85,2.94,2.94,0,0,1,2.28-.35c0-.08,1.34-1.09,2-1.61s1.36-1.06,1.86-1.41c-5.66-5.06-11.37-10.71-13-14-1.41-2.89-2.84-10.77-1-15a4.54,4.54,0,0,1,2.85-2.73c.64-.19,1.33-.38,2.08-.55a16.61,16.61,0,0,0,.64-5.93c-.39-3.54-.95-4.74-3.73-5.44-.93-.23-1.67,1.18-2.28,2.85a9.56,9.56,0,0,1,2.31.18c.43.05,1.84.11,2.19.11a.66.66,0,0,1,.46.21.64.64,0,0,1,.17.47,4.33,4.33,0,0,1-4.23,4.36h-.11a2.56,2.56,0,0,1-.75-.12,6,6,0,0,1,.06,1.14,9.18,9.18,0,0,1-1,3.39.66.66,0,0,1-.59.38h0a.67.67,0,0,1-.58-.44c-.28-.79-.53-1.6-.74-2.41a6.74,6.74,0,0,1-.29-1.75h0a4.91,4.91,0,0,1,.09-.73,4.43,4.43,0,0,1-1.73.73,3.1,3.1,0,0,1-.73.09,6.29,6.29,0,0,1-2.68-.58,4.46,4.46,0,0,1-1.29-3.67.77.77,0,0,1,.44-.68,12.25,12.25,0,0,1,4.35-.33,5,5,0,0,0-2.41-2.24,2.11,2.11,0,0,0-1.58.58,6.91,6.91,0,0,0-1.32,1.42l-.17.25a5.37,5.37,0,0,0-1,2.59,7.78,7.78,0,0,0,.86,2.92,8,8,0,0,1,1,3.65c-.18,2.29-3.56,6.69-4.12,7.41a46.29,46.29,0,0,0,1.74,6.09c2.18,6,6.05,11.44,9.79,16.75ZM231.52,61c.1-.11.21-.23.34-.35a9.53,9.53,0,0,1,1.5-1.11,5.45,5.45,0,0,0-3.69.58,1.46,1.46,0,0,1,1,.06,2.12,2.12,0,0,1,.79.7Zm6.12.64a3.83,3.83,0,0,0,.25-1.06c0-.23.07-.45.12-.67a4.48,4.48,0,0,1,.16-.52,8.66,8.66,0,0,0-5.43,2.21,4,4,0,0,0-.46.48c-.07.09-.14.17-.19.25a2.2,2.2,0,0,0-.25.54A2.92,2.92,0,0,0,232,65l.56-2.23a1.74,1.74,0,0,1,.82-1.23,1.69,1.69,0,0,1,1.8.46l.27.2a1.74,1.74,0,0,0,1.32.15,4.1,4.1,0,0,0,.59-.2A2.46,2.46,0,0,0,237.64,61.66Zm4.7-2a2,2,0,0,1,1.1-1.14,4.78,4.78,0,0,1-1.19-.18l-.19,0a4.5,4.5,0,0,0-.86-.12,1.32,1.32,0,0,0-.75.22h0a2.37,2.37,0,0,0-.39.32,2.89,2.89,0,0,0-.48.73,4,4,0,0,0-.29.8c0,.19-.07.38-.1.58s-.09.57-.16.86a3.31,3.31,0,0,1-.18.53,6.29,6.29,0,0,1-.4.73,2.39,2.39,0,0,0-.13.21,2.25,2.25,0,0,0-.12.21,3.37,3.37,0,0,0,0,2.86c.05-.68.12-1.35.23-2a2.14,2.14,0,0,1,.38-1,2.22,2.22,0,0,1,.72-.58A7.24,7.24,0,0,0,242.34,59.61Zm1.55.77,1.64.54a2.34,2.34,0,0,0-.08-.53.86.86,0,0,0-.38-.61,4.33,4.33,0,0,0-1.29-.06,2.24,2.24,0,0,0-.29.47.08.08,0,0,1,0,0Zm2.67,3.07A5.89,5.89,0,0,0,248,61.4a4.41,4.41,0,0,0,0-2.78c-.36-.91-.53-1.16-1.1-1.23a7.83,7.83,0,0,0-1.25.51,7.36,7.36,0,0,1-1.08.44l-.39.07h.09a3.42,3.42,0,0,1,1.35.21,2.1,2.1,0,0,1,1.08,1.5A7.87,7.87,0,0,1,246.56,63.45Z" style="fill:#d5c52a"/><path d="M281,112.23c-1.13,5.64-7.33,6.75-12.64,5.4h-.19l-.5.69c-1.34,1.84-3.83,5.27-4.66,8.77-.61,2.56-2.67,4.48-6.3,5.87a.62.62,0,0,1-.23,0,.66.66,0,0,1-.54-.3,1,1,0,0,1-.11-.94,8.55,8.55,0,0,0,.34-4.32,8.51,8.51,0,0,1-.08-1.17,6.59,6.59,0,0,1,1.07-2.86h0c-.81.24-1.68.43-2.64.64a47.32,47.32,0,0,0-7.9,2.32.46.46,0,0,1-.23,0,.76.76,0,0,1-.68-.56,1,1,0,0,1,.4-1.11,5,5,0,0,0,2.12-2.39,5.78,5.78,0,0,1,3-3c1.25-.5,3-2.53,4.69-4.55a27.46,27.46,0,0,0-5.25,2.76c-3.34,2.12-11.2,3-14.62,2.11a2.61,2.61,0,0,1-2-1.4,3.19,3.19,0,0,1,.57-2.54c.2-.39.42-.82.62-1.31l-.93.42c-3,1.37-5.18,2.36-8.94,1.45l-1-.23c-3.54-.83-4.81-1.2-5.17-2.06a1.26,1.26,0,0,1,0-1c.23-.58.95-2.33,8.67-5.09l.21-.08c3.32-1.49,4.82-3.59,6.95-6.74-4,1.37-10.21,1.77-15.49,2.11-3.62.23-6.75.43-8,.88a.7.7,0,0,1-.87-.45,1,1,0,0,1,.23-1.09,64.9,64.9,0,0,0,6.45-7.41c3.27-4.08,6.64-8.31,9.22-10,3.18-2.09,9.69-3.94,13.65-2a5.3,5.3,0,0,1,2.88,3.63c.45,1.87,2.66,4.33,6.14,6.84-.43-2.41-1.05-4.2-2.65-5.15-.89-.54-2.91-4.1-4.11-5.53a6.45,6.45,0,0,0-5-2.74.77.77,0,0,1-.64-.64,1,1,0,0,1,.28-.94,10.23,10.23,0,0,0,1.76-2c.5-.72,1-1.47,2-1.28,3.82.75,6.15,1.27,9.82,3.46a20.51,20.51,0,0,1,6.27,6.06,11,11,0,0,0,1.18,1.46c2,1.82,3.91,4.24,2.5,8.45a23,23,0,0,1-1.06,2.63A6.13,6.13,0,0,0,259,99c2.73,2.75,8.23,4.14,11.22,4.9.8.2,1.42.36,1.83.5,3.08,1,5.14,3.22,6.95,5.13.61.64,1.19,1.26,1.76,1.76A1,1,0,0,1,281,112.23ZM251,95.07a75.14,75.14,0,0,0,6.52,4,7.2,7.2,0,0,1,.78-2.47,21.22,21.22,0,0,0,1-2.43c.87-2.62.34-4.3-2-6.42a11,11,0,0,1-1.4-1.71A19,19,0,0,0,250,80.37c-3.47-2.08-5.72-2.58-9.39-3.3-.12,0-.18,0-.65.68a13.54,13.54,0,0,1-.89,1.17c1.91.94,2.79.81,4.45,2.8,1.08,1.27,3.06,4.79,3.74,5.2C249.83,88.45,250.47,91.51,251,95.07Zm-13.86,3s0-.94,0-3.27A13.55,13.55,0,0,1,241.17,86a3.73,3.73,0,0,0-1.47-1.26c-3.21-1.6-9.1-.29-12.39,1.88-2.39,1.57-5.69,5.69-8.88,9.68-1.63,2-3.21,4-4.6,5.57,1.51-.17,3.43-.3,5.61-.44C225.9,101.05,234.74,100.48,237.12,98ZM255.94,113c-4.68-2.14-15-7.55-18-13.36-.57.8-1.09,1.56-1.57,2.28-2.31,3.41-4,5.87-7.78,7.58l-.3.11c-4.95,1.77-6.76,3-7.42,3.71a32.52,32.52,0,0,0,3.79,1l1,.24c3.36.8,5.26-.07,8.14-1.38.74-.34,1.54-.7,2.44-1.07a.66.66,0,0,1,.73.18,1,1,0,0,1,.21.85,13,13,0,0,1-1.31,3.47,7.44,7.44,0,0,0-.44,1,2.84,2.84,0,0,0,1,.38c3.43.89,10.82-.16,13.63-2A25.65,25.65,0,0,1,255.94,113Zm10,5a20.13,20.13,0,0,0-3.52,2.31c-.67.5-1.45,1.08-2.38,1.74l-.21.14h0c-1.12,1.42-2.31,3.37-2.33,4.13,0,.2,0,.52.07.89a11.85,11.85,0,0,1,0,3.5c2.28-1.1,3.59-2.45,4-4.1A26,26,0,0,1,266,118Zm1.93-.37h0S267.88,117.63,267.9,117.63Zm.18-1.75c-.4-1-1.09-1.95-2.06-1.95s-1.72-3.41-3-3.23c-1.91.27-5.87,5-5.87,5-2,2.36-3.86,4.59-5.49,5.24a4.23,4.23,0,0,0-2.26,2.35l-.16.29c1.94-.61,3.56-1,5-1.27a13.15,13.15,0,0,0,5.08-1.78c.92-.66,1.7-1.24,2.37-1.73C264.63,116.65,265.73,115.86,268.08,115.88Zm8.55-5.76a1.11,1.11,0,0,1-1.08.86,1.13,1.13,0,0,1-1.13-1.13,1.16,1.16,0,0,1,.19-.61,1.45,1.45,0,0,0-.88,2.26,1.85,1.85,0,0,0,2.9.19A1.4,1.4,0,0,0,276.63,110.12Z" style="fill:#f4b095"/><path d="M204.87,120.76a3.39,3.39,0,0,1-2.41,2.65,9.41,9.41,0,0,1-5.45.16,7.24,7.24,0,0,1-2.93-1.47c-2.05-1.79-1.94-3.33-1.47-4.32-2-1.17-3.9-2.64-4.44-4.94a14.55,14.55,0,0,1-8.24,1l-1.33-.28c-2.5-.52-5.48-1.13-8.49-1.92-5-1.3-10.09-3.07-13.3-5.62a36.66,36.66,0,0,0-4.78-1.9,5.29,5.29,0,0,0,.89,2.5,8,8,0,0,1,1.15,3c.26,2.15-1.5,4.14-3.36,5.17a4.9,4.9,0,0,1-3.58.19,14.51,14.51,0,0,1-5.89-3.32,1.51,1.51,0,0,1,.18-1.89,2.48,2.48,0,0,1,1.48-.75,28.68,28.68,0,0,1-1.14-4.7l-1-.23c-2.48-.65-6.22-2-6.47-3.81-.14-.94,2.43-5.3,4.72-5.88l.7-.2.58-.17a15.15,15.15,0,0,0-5.17-3.69c-.47-.15-1.32-.3-2.29-.48a24,24,0,0,1-6.2-1.66,4.77,4.77,0,0,1-2.59-5.4c.45-1.72,8.11-3.8,11.89-2.81,1.27.33,3,1.66,4.78,3.07a41.91,41.91,0,0,0,3.43,2.5,2.22,2.22,0,0,1,0-1.84c.43-.76,1.4-1.16,3.14-1.3,1.5-.12,2.48-1.4,4.23-2.42a17,17,0,0,1,4.77-2.2h0c1.44-.28,3.2-.81,4.9-1.31,2.87-.86,5.58-1.67,7.11-1.45a25.46,25.46,0,0,1,5.89,1.68,11.92,11.92,0,0,0,4.91,1.16c.07,0,7-.13,9.33,1.9.75.66,1.33,1.21,1.84,1.7a9.66,9.66,0,0,0,3.8,2.62c5.12,2,9.37,10.38,9.45,14,0,1.66,1.12,7.07,4.27,9.88a.62.62,0,0,1,.22.47.64.64,0,0,1-.21.48,10.2,10.2,0,0,1-7.13,2.57,17.27,17.27,0,0,0,1.41,2.28c.32.48.64.93.9,1.38C203.91,116.68,205,119.36,204.87,120.76ZM129.42,82.88a1.47,1.47,0,0,0-.66.46.65.65,0,0,1,.54-.11.64.64,0,0,1,.48.58,5.15,5.15,0,0,0,1.11,0l.21,0c-.57-.51-1.15-1-1.68-.87Zm14.2,9c1-.56,1.39-4.42,1.39-4.42a25.2,25.2,0,0,1-5-3.36c-1.62-1.27-3.3-2.58-4.31-2.85a14.41,14.41,0,0,0-6.44.36c1.2-.23,2.15.63,2.92,1.32.12.12.25.23.37.33a.64.64,0,0,1,.2.65A1.55,1.55,0,0,1,131.4,85a5.92,5.92,0,0,1-2.64-.07,2.28,2.28,0,0,1-1.07-.53,1.29,1.29,0,0,1-.27-1.26,2.57,2.57,0,0,1,1.46-1.43,9,9,0,0,0-3.58,1.51,3.2,3.2,0,0,0,.71,2.83,4.12,4.12,0,0,1,2.4-.3,6.31,6.31,0,0,1,.72.18l.46.13a3.93,3.93,0,0,0,2.15-.13.64.64,0,0,1,.44,1.2,5.11,5.11,0,0,1-2.87.18l-.54-.14c-.2-.06-.4-.12-.6-.16a2.86,2.86,0,0,0-1,0,.91.91,0,0,0,.13.08,24.11,24.11,0,0,0,5.81,1.53c1,.18,3.17-1.34,3.71-1.18C139.49,88.25,141.18,93.24,143.62,91.89Zm-3.24,9c1.64-.94,1-5.78,1-5.78-.34.07-.84.22-1.24.34l-.74.21c-1.59.4-3.6,3.77-3.76,4.5C135.83,101,137.72,102.43,140.38,100.91ZM161,105.14a26.07,26.07,0,0,0-3.71-2.1c-2.73-1.38-6-3-8.19-5.69-.05,0,.06,0,0,0-1.89-.67-4.44-1.1-5.48.66-1.78,3,0,9.59.87,11.52a.63.63,0,0,1-.15.72.64.64,0,0,1-.72.11,1.21,1.21,0,0,0-1.21.3.25.25,0,0,0,0,.35c.5.59,5.49,3.94,7.76,2.69,1.43-.8,2.89-2.35,2.71-3.9a7.07,7.07,0,0,0-1-2.57,5.58,5.58,0,0,1-1-4,.63.63,0,0,1,.67-.52,18.09,18.09,0,0,1,5,1.58c.68.28,1.31.55,1.85.74A14.85,14.85,0,0,0,161,105.14Zm30.39,5a45.26,45.26,0,0,1,7.1-2.64c.89-.22,2.14-.42,2.7.34s3.79,1.85,5.33.66c-3.3-3.41-4.14-9-4.17-10.3-.08-3.42-4.17-11.15-8.63-12.85a11,11,0,0,1-4.24-2.89c-.49-.48-1.06-1-1.79-1.67-1.57-1.37-6.8-1.64-8.43-1.57A13,13,0,0,1,173.8,78a24.83,24.83,0,0,0-5.61-1.61c-1.25-.18-3.95.63-6.56,1.41-1.74.51-3.53,1-5,1.34a16.37,16.37,0,0,0-4.37,2c-1.88,1.1-3,2.45-4.77,2.6-1.6.13-2,.46-2.13.65-.23.41.29,1.46.8,2.47a14.47,14.47,0,0,1,1.55,4.21c1,6.2,5.85,8.66,10.14,10.83,2.18,1.1,3.73,2.64,5.17,3.38,2,1,12.25,1.07,17.23,2.37C184.37,108.72,187.56,111.79,191.35,110.12Zm12.24,10.48c.11-.91-.78-3.25-1.65-4.74-.24-.41-.54-.84-.85-1.3a13.54,13.54,0,0,1-1.94-3.54.39.39,0,0,1,0-.15s0-.05,0-.08a.65.65,0,0,1,.08-.27h0l.18-.32a4.73,4.73,0,0,0,.73-1.63,4.11,4.11,0,0,0-1.35.17,42.87,42.87,0,0,0-6.89,2.57c-.84.37-1.66.73-2.48,1.06.36,1.92,2,3.26,4.43,4.64a.6.6,0,0,1,.31.43.59.59,0,0,1-.12.51c-.47.62-.88,1.62.91,3.19a7.78,7.78,0,0,0,7.08,1.08A2.22,2.22,0,0,0,203.59,120.6Z" style="fill:#177f5a"/><path d="M132.48,139.19a.6.6,0,0,1-.28.35,5.11,5.11,0,0,1-2.59.67c-3.39,0-7.25-2.9-10.74-5.53-2.56-1.93-5-3.75-6.69-4a38.26,38.26,0,0,1-4.11-.95,5.86,5.86,0,0,1-2.95,2.34.64.64,0,0,1-.71-.25.63.63,0,0,1,0-.75,8,8,0,0,0,.63-2.27l-2-.66-.72-.24a8.47,8.47,0,0,1-2.52,2.29,1.65,1.65,0,0,0-.4.27,1.31,1.31,0,0,0-.13.45,19.33,19.33,0,0,0-.23,3.95.62.62,0,0,1-.39.62.56.56,0,0,1-.25.05.63.63,0,0,1-.47-.2,5.88,5.88,0,0,1-1.67-5.16,2.91,2.91,0,0,1-1.93-.39l-.35-.26a1.74,1.74,0,0,0-.48-.31s0,.1-.1.37l-.9,3.6a.65.65,0,0,1-.45.47.55.55,0,0,1-.18,0,.63.63,0,0,1-.45-.18,4.42,4.42,0,0,1-1.11-4.8l-.35-.46c-.09-.12-.2-.27-.28-.3a.4.4,0,0,0-.36.16,2.17,2.17,0,0,0-.39.85c-.21.7-.4,1.39-.58,2.1a.65.65,0,0,1-.55.48h-.08a.64.64,0,0,1-.57-.34,4.3,4.3,0,0,1,.07-4.09,5.11,5.11,0,0,1,1-1.25,5,5,0,0,1,3-1.09l-.4-.66a10.91,10.91,0,0,0-.65-1.07l-2-2.86c-3.79-5.38-7.72-10.94-10-17.06-2-5.64-4-14.17-1.34-22.76a16.53,16.53,0,0,1,.91-2.4c-1.5-1.65-1.09-7-.88-8.49a.64.64,0,0,1,.34-.47.63.63,0,0,1,.58,0c5.4,2.56,5.55,2.73,5.7,2.9a1.88,1.88,0,0,1,.33.56,13.42,13.42,0,0,1,2.42-.63,16.33,16.33,0,0,1,6.88,0c0-.07,0-.15,0-.23.22-1,.38-1.74.51-2.15.43-1.33,1.52-1.84,2.78-2.43l.81-.39a.67.67,0,0,1,.5,0,.65.65,0,0,1,.37.34l.21.41A11.07,11.07,0,0,1,99.87,72a5.51,5.51,0,0,1-1.65,3.85,31.53,31.53,0,0,1,2,3.53c1.59,3.3,3.23,6.42,5.69,8.3a15.9,15.9,0,0,0,3.47,1.85c.72.31,1.47.63,2.25,1a22.93,22.93,0,0,1,9,9.43,68.76,68.76,0,0,1,4.79,12.1,68.31,68.31,0,0,1,2,8.75,64.36,64.36,0,0,0,2,8.59,24,24,0,0,0,1.12,2.54C131.7,134.55,133.08,137.41,132.48,139.19ZM97.27,76.78l-.5.37c1.08,1.19,1.37,2.83,1.6,4.89a16.77,16.77,0,0,1-.52,5.78,23.65,23.65,0,0,1,5.72-.46A29.47,29.47,0,0,1,99,80,32.12,32.12,0,0,0,97.27,76.78Zm-13.2-3v.25a5.68,5.68,0,0,0,.62,2.42.35.35,0,0,0,0,.11c1.64.66,3,2.87,4.29,5.21l0-.08c.72-2.38,1.58-5.23,3.14-6A26.12,26.12,0,0,0,92.89,73a15.41,15.41,0,0,0-6.4,0,12.11,12.11,0,0,0-2.42.66Zm6.87,7.56A1,1,0,0,1,91,81a2.12,2.12,0,0,0-.45.12c-.11.34-.21.67-.31,1a1.05,1.05,0,0,1-.05.19,1.88,1.88,0,0,0,1.68,1.36,2.64,2.64,0,0,0,3-2.5c-.21,0-1.44,0-1.66-.08l-.38,0a1,1,0,0,1,.07.36,1,1,0,0,1-2,0Zm-5.72.18a.86.86,0,0,1,.08-.36,21.56,21.56,0,0,0-2.36.14,3.08,3.08,0,0,0,.81,2.3,4.52,4.52,0,0,0,2.32.23c1.44-.32,1.81-1.06,1.89-1.28-.19-.35-.39-.74-.61-1.13l-.19-.06a.9.9,0,0,1,0,.16,1,1,0,0,1-2,0ZM77.38,94.8c1.23-1.7,3-4.44,3.14-5.78a7.19,7.19,0,0,0-.86-3,8.37,8.37,0,0,1-1-3.47,6.23,6.23,0,0,1,1-2.94l-.85-.81a16.94,16.94,0,0,0-.7,1.92A31.27,31.27,0,0,0,77.38,94.8Zm13.86,27.45A12.75,12.75,0,0,1,92,123.4a8,8,0,0,0,.92,1.35,8.22,8.22,0,0,1,1.67.34.56.56,0,0,1,.2.11,9.88,9.88,0,0,1,3.69-.58,3.58,3.58,0,0,1,.89-.85,2.94,2.94,0,0,1,2.28-.35c0-.08,1.34-1.09,2-1.61s1.36-1.06,1.86-1.41c-5.66-5.06-11.37-10.71-13-14-1.41-2.89-2.84-10.77-1-15a4.54,4.54,0,0,1,2.85-2.73c.64-.19,1.34-.38,2.08-.55a16.38,16.38,0,0,0,.64-5.93c-.39-3.54-1-4.74-3.73-5.44-.93-.23-1.67,1.18-2.28,2.85a9.68,9.68,0,0,1,2.32.18c.42,0,1.84.11,2.19.11a.64.64,0,0,1,.45.21.65.65,0,0,1,.18.47A4.34,4.34,0,0,1,92,84.93h-.11a2.56,2.56,0,0,1-.75-.12A6,6,0,0,1,91.17,86a9,9,0,0,1-1,3.39.66.66,0,0,1-.59.38h0a.67.67,0,0,1-.58-.44c-.28-.79-.53-1.6-.74-2.41A6.74,6.74,0,0,1,88,85.12h0a4.91,4.91,0,0,1,.09-.73,4.45,4.45,0,0,1-1.72.73,3.25,3.25,0,0,1-.74.09,6.25,6.25,0,0,1-2.67-.58A4.43,4.43,0,0,1,81.64,81a.77.77,0,0,1,.44-.68A12.25,12.25,0,0,1,86.43,80,5,5,0,0,0,84,77.71a2.09,2.09,0,0,0-1.57.58,6.69,6.69,0,0,0-1.33,1.42L81,80a5.47,5.47,0,0,0-1,2.59,7.78,7.78,0,0,0,.86,2.92,8,8,0,0,1,1,3.65c-.18,2.29-3.56,6.69-4.12,7.41a44.75,44.75,0,0,0,1.75,6.09c2.17,5.95,6,11.44,9.78,16.75C89.9,120.33,90.58,121.29,91.24,122.25Zm-.14,5.27c.11-.11.21-.23.34-.35a9.53,9.53,0,0,1,1.5-1.11,5.42,5.42,0,0,0-3.68.58,1.44,1.44,0,0,1,1,.06,2,2,0,0,1,.79.7Zm6.13.64a4.71,4.71,0,0,0,.25-1.06c0-.23.06-.45.11-.67s.11-.35.16-.52a8.66,8.66,0,0,0-5.43,2.21,4,4,0,0,0-.46.48c-.07.09-.14.17-.19.25a2.2,2.2,0,0,0-.25.54,2.92,2.92,0,0,0,.19,2.07l.56-2.23A1.74,1.74,0,0,1,93,128a1.69,1.69,0,0,1,1.8.46l.27.2a1.74,1.74,0,0,0,1.32.15,4.1,4.1,0,0,0,.59-.2A3.3,3.3,0,0,0,97.23,128.16Zm4.69-2A2,2,0,0,1,103,125a4.79,4.79,0,0,1-1.2-.18l-.19,0a4.5,4.5,0,0,0-.86-.12,1.32,1.32,0,0,0-.75.22h0a2.37,2.37,0,0,0-.39.32,2.89,2.89,0,0,0-.48.73,3.44,3.44,0,0,0-.28.8,3.7,3.7,0,0,0-.1.58c-.05.28-.1.57-.17.86a3.31,3.31,0,0,1-.18.53,6.29,6.29,0,0,1-.4.73,2.39,2.39,0,0,0-.13.21,2.25,2.25,0,0,0-.12.21,3.37,3.37,0,0,0,0,2.86,20,20,0,0,1,.22-2,2.14,2.14,0,0,1,.38-1,2.33,2.33,0,0,1,.72-.58A7.24,7.24,0,0,0,101.92,126.11Zm1.55.77,1.65.54a4.51,4.51,0,0,0-.08-.53.9.9,0,0,0-.39-.61,4.33,4.33,0,0,0-1.29-.06,1.88,1.88,0,0,0-.28.47l0,0C103.19,126.78,103.33,126.82,103.47,126.88Zm2.67,3.07a5.89,5.89,0,0,0,1.46-2,4.41,4.41,0,0,0,0-2.78c-.35-.91-.53-1.16-1.1-1.23a7.83,7.83,0,0,0-1.25.51,7.36,7.36,0,0,1-1.08.44l-.39.07h.09a3.5,3.5,0,0,1,1.36.21,2.12,2.12,0,0,1,1.07,1.5A7.87,7.87,0,0,1,106.14,130Z" style="fill:#d5c52a"/><path d="M140.57,178.73c-1.13,5.64-7.32,6.75-12.64,5.4h-.19l-.5.69c-1.34,1.84-3.83,5.27-4.66,8.77-.61,2.56-2.67,4.48-6.3,5.87a.6.6,0,0,1-.22,0,.66.66,0,0,1-.55-.3,1,1,0,0,1-.11-.94,8.55,8.55,0,0,0,.34-4.32,8.51,8.51,0,0,1-.08-1.17,6.72,6.72,0,0,1,1.07-2.86h0c-.81.24-1.68.43-2.64.64a47,47,0,0,0-7.89,2.32.5.5,0,0,1-.23,0,.74.74,0,0,1-.68-.56.93.93,0,0,1,.39-1.11,4.93,4.93,0,0,0,2.12-2.39,5.78,5.78,0,0,1,3-3c1.25-.5,3-2.53,4.69-4.55a27.46,27.46,0,0,0-5.25,2.76c-3.34,2.12-11.2,3-14.62,2.11a2.61,2.61,0,0,1-2-1.4,3.19,3.19,0,0,1,.57-2.54c.2-.39.42-.82.62-1.31l-.93.42c-3,1.37-5.17,2.36-8.94,1.45l-1-.23c-3.55-.83-4.82-1.2-5.18-2.06a1.26,1.26,0,0,1,0-1c.23-.58.95-2.33,8.67-5.09l.22-.08c3.32-1.49,4.81-3.59,6.94-6.74-4,1.37-10.21,1.77-15.49,2.11-3.62.23-6.74.43-7.95.88a.7.7,0,0,1-.87-.45,1,1,0,0,1,.23-1.09A63,63,0,0,0,77,161.63c3.27-4.08,6.64-8.31,9.22-10,3.18-2.09,9.69-3.94,13.66-2a5.31,5.31,0,0,1,2.87,3.63c.45,1.87,2.66,4.33,6.15,6.84-.44-2.41-1.06-4.2-2.65-5.15-.9-.54-2.91-4.1-4.12-5.53a6.45,6.45,0,0,0-5-2.74.78.78,0,0,1-.64-.64,1,1,0,0,1,.28-.94,9.9,9.9,0,0,0,1.76-2c.5-.72,1-1.47,2-1.28,3.82.75,6.16,1.27,9.82,3.46a20.56,20.56,0,0,1,6.28,6.06,10.31,10.31,0,0,0,1.17,1.46c2,1.82,3.91,4.24,2.5,8.45a23,23,0,0,1-1.06,2.63,6.13,6.13,0,0,0-.6,1.63c2.73,2.75,8.23,4.14,11.23,4.9.79.2,1.41.36,1.82.5,3.08,1.05,5.14,3.22,6.95,5.13.61.64,1.19,1.26,1.76,1.76A1,1,0,0,1,140.57,178.73Zm-30-17.16a75.14,75.14,0,0,0,6.53,4,7.18,7.18,0,0,1,.77-2.47,21.22,21.22,0,0,0,1-2.43c.87-2.62.35-4.3-2-6.42a11,11,0,0,1-1.4-1.71,19.06,19.06,0,0,0-5.83-5.64c-3.48-2.08-5.73-2.58-9.4-3.3-.12,0-.17,0-.65.68a13.54,13.54,0,0,1-.89,1.17c1.91.94,2.79.81,4.46,2.8,1.07,1.27,3,4.79,3.74,5.2C109.41,155,110.05,158,110.56,161.57Zm-13.86,3s0-.94,0-3.27a13.55,13.55,0,0,1,4.09-8.74,3.73,3.73,0,0,0-1.47-1.26c-3.2-1.6-9.1-.29-12.39,1.88-2.39,1.57-5.68,5.69-8.87,9.68-1.64,2-3.21,4-4.61,5.57,1.51-.17,3.43-.3,5.61-.44C85.48,167.55,94.32,167,96.7,164.54Zm18.83,14.93c-4.68-2.14-15-7.55-18-13.36-.57.8-1.09,1.56-1.57,2.28-2.3,3.41-4,5.87-7.78,7.58l-.29.11c-5,1.77-6.77,3-7.43,3.71a32.18,32.18,0,0,0,3.8,1l1,.24c3.36.8,5.26-.07,8.14-1.38.74-.34,1.55-.7,2.44-1.07a.66.66,0,0,1,.73.18,1,1,0,0,1,.21.85,13,13,0,0,1-1.31,3.47,7.44,7.44,0,0,0-.44.95,2.84,2.84,0,0,0,1,.38c3.43.89,10.82-.16,13.63-1.95A25.47,25.47,0,0,1,115.53,179.47Zm10,5a19.74,19.74,0,0,0-3.53,2.31c-.67.5-1.45,1.08-2.38,1.74l-.21.14h0c-1.12,1.42-2.31,3.37-2.33,4.13a7.54,7.54,0,0,0,.08.89,12.25,12.25,0,0,1,0,3.5c2.28-1.1,3.59-2.45,4-4.1A25.83,25.83,0,0,1,125.56,184.5Zm1.92-.37h0Zm.19-1.75c-.41-1-1.1-1.95-2.07-1.95s-1.72-3.41-3-3.23c-1.91.27-5.87,5-5.87,5-2,2.36-3.86,4.59-5.49,5.24a4.26,4.26,0,0,0-2.26,2.35l-.16.29c1.94-.61,3.57-1,5-1.27a13.26,13.26,0,0,0,5.09-1.78l2.36-1.73C124.22,183.15,125.31,182.36,127.67,182.38Zm8.54-5.76a1.11,1.11,0,0,1-1.08.86,1.14,1.14,0,0,1-1.13-1.13,1.08,1.08,0,0,1,.2-.61,1.45,1.45,0,0,0-.88,2.26,1.84,1.84,0,0,0,2.89.19A1.4,1.4,0,0,0,136.21,176.62Z" style="fill:#f4b095"/><path d="M210.62,163.76a.88.88,0,0,1-1,.72h0c-3.29-.43-9.51-2.85-12.11-4.28-2.11-1.15-4.07-2.15-5.93-3a36.11,36.11,0,0,1,11.79,15,.85.85,0,0,1-1.44.87c-4.24-5.06-9.14-10.56-15.1-14.46a51.75,51.75,0,0,1,10.48,13.54.85.85,0,0,1-1.4.94,102.19,102.19,0,0,0-9.62-9.79,35.76,35.76,0,0,1,2.53,15.39.84.84,0,0,1-.66.78.83.83,0,0,1-.93-.42,36.09,36.09,0,0,1-3-8.78,49.53,49.53,0,0,0-1.72-6,25.14,25.14,0,0,1-5.68,18.62.85.85,0,0,1-.82.28.49.49,0,0,1-.17-.06.84.84,0,0,1-.49-.9,65.38,65.38,0,0,1,1.88-8c.19-.67.37-1.35.55-2a10.92,10.92,0,0,1-3.14,1.1,29.06,29.06,0,0,1-12.14,0,28.34,28.34,0,0,1-5.38-1.74c-10.2-4.42-15.78-13.47-14.57-23.61,1-8.71,4.06-12.81,7.16-15.94,4-4,9-6.21,13.75-6a15.56,15.56,0,0,1,13.44,8.07,1.67,1.67,0,0,1,1.31-.5c1.58.1,3.09,2.2,5.37,5.65a29.46,29.46,0,0,0,2.43,3.36,30,30,0,0,0,5.67,4.26,37.17,37.17,0,0,1,3.27,2.24c2.06,1.65,3.12,3.13,3.56,7.06a.87.87,0,0,1-.07.42c2,1.07,4.11,2.22,6.23,3.38,2.47,1.36,4.8,2.63,5.21,2.76A.82.82,0,0,1,210.62,163.76Zm-40.51-16c-.22,0-.43,0-.67-.09-2.39-.52-2.49-2.55-2.31-3.9-1.33,0-1.79.43-2,1.06-.73,2,.23,3.05,2,4.72a11,11,0,0,1,3,3.86c1,2.47,2.53,2.9,4.34,3.41a16.43,16.43,0,0,1,1.76.58,4.19,4.19,0,0,1-.08-3,4.85,4.85,0,0,1-3,.31l-.66-.18a4.53,4.53,0,0,1-3-4.4A4.29,4.29,0,0,1,170.11,147.75Zm4.47,2.39a3.93,3.93,0,0,0-.29,2.68.88.88,0,0,1,.06.27,3.07,3.07,0,0,0,1.16-.31,2.58,2.58,0,0,0,1.31-1.52,2.61,2.61,0,0,0-.77-2.58,3.57,3.57,0,0,0-1.76-1,2.93,2.93,0,0,0-1.5.05h0a2.38,2.38,0,0,0-1.7,2.36,2.89,2.89,0,0,0,1.42,2.56,6.6,6.6,0,0,1,.49-3.17.85.85,0,1,1,1.58.62Zm5.24-1c1.12-.31,3.18.21,5.88,1.27a31.48,31.48,0,0,0-6.92-3.09,10.55,10.55,0,0,0-1.95-.24,5,5,0,0,1,.42.37,4.52,4.52,0,0,1,1.31,2.51A3.17,3.17,0,0,1,179.82,149.17Zm-7.62-9.53-.57.31-2.34,2a7.91,7.91,0,0,0-.32,1.16l0,.1c-.4,1.86-.19,2.56.85,2.79a7.87,7.87,0,0,0,3.6-.19,12.35,12.35,0,0,1,5.73-.12c3.27.7,9.13,4.2,13.83,7,1.4.84,2.69,1.61,3.66,2.15a6.44,6.44,0,0,0-2.69-4.33,33.72,33.72,0,0,0-3.12-2.13,31.52,31.52,0,0,1-6-4.52,27.8,27.8,0,0,1-2.63-3.6c-1.07-1.61-3.27-5-4.08-4.9a12.15,12.15,0,0,1-.86.88h0A22,22,0,0,1,172.2,139.64Zm6.23,30a24.14,24.14,0,0,0-1.13-9.38,5.41,5.41,0,0,0-3.33-1.84c-2-.55-4.18-1.17-5.46-4.43a9.63,9.63,0,0,0-2.57-3.25c-1.67-1.58-3.56-3.37-2.42-6.53.72-2,2.66-2.23,3.95-2.2l0-.08a1.09,1.09,0,0,1,.05-.17,1.43,1.43,0,0,1,.09-.27.88.88,0,0,1,.05-.15,4.24,4.24,0,0,1,.42-.82l.09-.13a2.83,2.83,0,0,1,.23-.28l.12-.14a3.84,3.84,0,0,1,.29-.27l.13-.12a4.23,4.23,0,0,1,.51-.38c.56-.36,1.22-.71,1.92-1.09.36-.19.73-.38,1.1-.59l.33-.19q.4-.23.81-.48c.14-.08.29-.18.43-.28s.47-.31.71-.48l.46-.37.42-.35a13.42,13.42,0,0,0-9.49-7.24,18,18,0,0,0-2.75-.35c-4.28-.2-8.82,1.8-12.47,5.49-3.33,3.37-5.74,7.2-6.67,14.95-1.14,9.5,3.93,17.67,13.55,21.84a26.89,26.89,0,0,0,16.52,1.59A7.27,7.27,0,0,0,178.43,169.67Z" style="fill:#93d8ca"/><path d="M64.45,54.26A3.39,3.39,0,0,1,62,56.91a9.41,9.41,0,0,1-5.45.16,7.24,7.24,0,0,1-2.93-1.47c-2-1.79-1.94-3.33-1.47-4.32-2-1.17-3.9-2.64-4.44-4.94a14.55,14.55,0,0,1-8.24,1l-1.33-.28c-2.5-.52-5.47-1.13-8.49-1.92-5-1.3-10.09-3.07-13.3-5.62a36.08,36.08,0,0,0-4.78-1.9,5.29,5.29,0,0,0,.89,2.5,8.18,8.18,0,0,1,1.16,3c.25,2.15-1.51,4.14-3.37,5.17a4.9,4.9,0,0,1-3.58.19A14.51,14.51,0,0,1,.82,45.19,1.51,1.51,0,0,1,1,43.3a2.48,2.48,0,0,1,1.48-.75,28.68,28.68,0,0,1-1.14-4.7l-.95-.23c-2.49-.65-6.23-2-6.48-3.81-.13-.94,2.43-5.3,4.73-5.88l.69-.2.59-.17c-1.67-1.66-3.69-3.25-5.18-3.69-.47-.15-1.31-.3-2.29-.48a24,24,0,0,1-6.2-1.66,4.77,4.77,0,0,1-2.59-5.4c.45-1.72,8.11-3.8,11.89-2.81,1.27.33,3,1.66,4.79,3.07a40.19,40.19,0,0,0,3.42,2.5,2.22,2.22,0,0,1,.05-1.84c.42-.76,1.39-1.16,3.13-1.3,1.5-.12,2.48-1.4,4.24-2.42a16.78,16.78,0,0,1,4.76-2.2h0c1.44-.28,3.2-.81,4.9-1.31,2.87-.86,5.59-1.67,7.11-1.45a25.46,25.46,0,0,1,5.89,1.68,11.92,11.92,0,0,0,4.91,1.16c.07,0,7-.13,9.33,1.9.75.66,1.33,1.21,1.84,1.7a9.66,9.66,0,0,0,3.8,2.62c5.12,2,9.37,10.38,9.45,14,0,1.66,1.12,7.07,4.27,9.88a.62.62,0,0,1,.22.47.67.67,0,0,1-.2.48,10.22,10.22,0,0,1-7.14,2.57,17.27,17.27,0,0,0,1.41,2.28c.33.48.64.93.9,1.38C63.49,50.18,64.62,52.86,64.45,54.26ZM-11,16.38a1.47,1.47,0,0,0-.66.46.67.67,0,0,1,.55-.11.64.64,0,0,1,.47.58,5.15,5.15,0,0,0,1.11,0l.21,0c-.57-.51-1.15-1-1.68-.87Zm14.2,9c1-.56,1.4-4.42,1.4-4.42A25,25,0,0,1-.46,17.61c-1.62-1.27-3.3-2.58-4.31-2.85a14.41,14.41,0,0,0-6.44.36c1.2-.23,2.15.63,2.92,1.32l.37.33a.62.62,0,0,1,.2.65A1.55,1.55,0,0,1-9,18.5a5.92,5.92,0,0,1-2.64-.07,2.19,2.19,0,0,1-1.06-.53A1.24,1.24,0,0,1-13,16.64a2.51,2.51,0,0,1,1.46-1.43,9,9,0,0,0-3.59,1.51,3.17,3.17,0,0,0,.72,2.83,4.08,4.08,0,0,1,2.39-.3,6.31,6.31,0,0,1,.72.18l.46.13a3.93,3.93,0,0,0,2.15-.13.64.64,0,0,1,.82.38.64.64,0,0,1-.38.82,5.11,5.11,0,0,1-2.87.18l-.54-.14a5.87,5.87,0,0,0-.6-.16,2.86,2.86,0,0,0-1,0l.13.08a24.11,24.11,0,0,0,5.81,1.53c1,.18,3.17-1.34,3.72-1.18C-.92,21.75.76,26.74,3.2,25.39ZM0,34.41c1.64-.94,1-5.78,1-5.78-.34.07-.84.22-1.24.34l-.74.21c-1.59.4-3.6,3.77-3.76,4.5C-4.59,34.5-2.7,35.93,0,34.41Zm20.59,4.23a26.81,26.81,0,0,0-3.72-2.1c-2.73-1.38-6-3-8.19-5.69-.05,0,.06,0,0,0-1.89-.67-4.44-1.1-5.48.66-1.78,3,0,9.59.87,11.52a.63.63,0,0,1-.15.72.64.64,0,0,1-.72.11,1.21,1.21,0,0,0-1.21.3.25.25,0,0,0,0,.35c.5.59,5.49,3.94,7.76,2.69,1.43-.8,2.89-2.35,2.71-3.9a7.07,7.07,0,0,0-1-2.57,5.58,5.58,0,0,1-1-4,.63.63,0,0,1,.67-.52,18.14,18.14,0,0,1,5,1.58c.67.28,1.3.55,1.84.74A14.93,14.93,0,0,0,20.55,38.64Zm30.38,5A45.26,45.26,0,0,1,58,41c.89-.22,2.14-.42,2.7.34s3.79,1.85,5.33.66c-3.3-3.41-4.14-9-4.17-10.3-.08-3.42-4.17-11.15-8.63-12.85A11.1,11.1,0,0,1,49,15.94c-.49-.48-1.06-1-1.79-1.67-1.56-1.37-6.8-1.64-8.43-1.57a13,13,0,0,1-5.42-1.25,24.83,24.83,0,0,0-5.61-1.61c-1.25-.18-3.95.63-6.56,1.41-1.73.51-3.52,1.05-5,1.34a16.37,16.37,0,0,0-4.37,2c-1.87,1.1-3,2.45-4.77,2.6-1.6.13-2,.46-2.13.65-.23.41.29,1.46.8,2.47a14.77,14.77,0,0,1,1.56,4.21c1,6.2,5.84,8.66,10.13,10.83,2.18,1.1,3.74,2.64,5.17,3.38,2.05,1,12.26,1.07,17.23,2.37C44,42.22,47.14,45.29,50.93,43.62ZM63.17,54.1c.12-.91-.77-3.25-1.65-4.74-.24-.41-.54-.84-.85-1.3a13.54,13.54,0,0,1-1.94-3.54.39.39,0,0,1,0-.15s0,0,0-.08a.65.65,0,0,1,.08-.27h0l.18-.32a4.55,4.55,0,0,0,.73-1.63,4.11,4.11,0,0,0-1.35.17,42.87,42.87,0,0,0-6.89,2.57c-.84.37-1.66.73-2.48,1.06.36,1.92,2,3.26,4.43,4.64a.6.6,0,0,1,.31.43.59.59,0,0,1-.12.51c-.47.62-.88,1.62.91,3.19a7.78,7.78,0,0,0,7.08,1.08C62.25,55.45,63.07,55,63.17,54.1Z" style="fill:#177f5a"/><path d="M.16,112.23c-1.13,5.64-7.33,6.75-12.65,5.4h-.19l-.49.69c-1.34,1.84-3.84,5.27-4.67,8.77-.61,2.56-2.67,4.48-6.3,5.87a.57.57,0,0,1-.22,0,.66.66,0,0,1-.55-.3,1,1,0,0,1-.11-.94,8.68,8.68,0,0,0,.35-4.32,7.28,7.28,0,0,1-.09-1.17,6.85,6.85,0,0,1,1.07-2.86h0c-.81.24-1.68.43-2.64.64a47,47,0,0,0-7.89,2.32.5.5,0,0,1-.23,0,.74.74,0,0,1-.68-.56.93.93,0,0,1,.39-1.11,4.93,4.93,0,0,0,2.12-2.39,5.78,5.78,0,0,1,3-3c1.25-.5,3-2.53,4.7-4.55a27.16,27.16,0,0,0-5.26,2.76c-3.34,2.12-11.19,3-14.62,2.11a2.61,2.61,0,0,1-2-1.4,3.19,3.19,0,0,1,.57-2.54c.2-.39.42-.82.63-1.31l-.94.42c-3,1.37-5.17,2.36-8.94,1.45l-1-.23c-3.55-.83-4.82-1.2-5.18-2.06a1.26,1.26,0,0,1,0-1c.24-.58,1-2.33,8.67-5.09l.22-.08c3.32-1.49,4.81-3.59,6.94-6.74-4,1.37-10.21,1.77-15.49,2.11-3.62.23-6.74.43-7.95.88a.69.69,0,0,1-.86-.45,1,1,0,0,1,.23-1.09,64,64,0,0,0,6.44-7.41c3.27-4.08,6.65-8.31,9.23-10,3.17-2.09,9.68-3.94,13.65-2a5.31,5.31,0,0,1,2.87,3.63c.45,1.87,2.66,4.33,6.15,6.84-.43-2.41-1.06-4.2-2.65-5.15-.9-.54-2.91-4.1-4.12-5.53a6.43,6.43,0,0,0-5.05-2.74.78.78,0,0,1-.64-.64,1,1,0,0,1,.28-.94,9.9,9.9,0,0,0,1.76-2c.5-.72,1-1.47,2-1.28,3.82.75,6.16,1.27,9.82,3.46a20.45,20.45,0,0,1,6.28,6.06,10.31,10.31,0,0,0,1.17,1.46c2,1.82,3.91,4.24,2.5,8.45a23,23,0,0,1-1.06,2.63,6.13,6.13,0,0,0-.6,1.63c2.73,2.75,8.23,4.14,11.23,4.9.79.2,1.42.36,1.82.5,3.08,1,5.14,3.22,7,5.13.62.64,1.2,1.26,1.76,1.76A1,1,0,0,1,.16,112.23Zm-30-17.16a75.14,75.14,0,0,0,6.53,4,7.41,7.41,0,0,1,.77-2.47,21.22,21.22,0,0,0,1-2.43c.88-2.62.35-4.3-2-6.42A11,11,0,0,1-25,86a18.94,18.94,0,0,0-5.83-5.64c-3.47-2.08-5.72-2.58-9.4-3.3-.12,0-.17,0-.64.68-.24.33-.52.73-.9,1.17,1.91.94,2.79.81,4.46,2.8,1.07,1.27,3,4.79,3.74,5.2C-31,88.45-30.36,91.51-29.86,95.07Zm-13.86,3s0-.94,0-3.27A13.55,13.55,0,0,1-39.67,86a3.73,3.73,0,0,0-1.47-1.26c-3.2-1.6-9.1-.29-12.39,1.88-2.38,1.57-5.68,5.69-8.87,9.68-1.64,2-3.21,4-4.61,5.57,1.51-.17,3.43-.3,5.61-.44C-54.94,101.05-46.1,100.48-43.72,98ZM-24.89,113c-4.68-2.14-15-7.55-18-13.36-.56.8-1.09,1.56-1.57,2.28-2.3,3.41-4,5.87-7.78,7.58l-.29.11c-5,1.77-6.77,3-7.43,3.71a32.18,32.18,0,0,0,3.8,1l1,.24c3.36.8,5.25-.07,8.13-1.38.75-.34,1.55-.7,2.44-1.07a.66.66,0,0,1,.73.18,1,1,0,0,1,.22.85A12.6,12.6,0,0,1-45,116.61a9.15,9.15,0,0,0-.44,1,2.84,2.84,0,0,0,1,.38c3.43.89,10.82-.16,13.63-2A25.66,25.66,0,0,1-24.89,113Zm10,5a19.41,19.41,0,0,0-3.52,2.31c-.68.5-1.46,1.08-2.38,1.74l-.22.14h0c-1.12,1.42-2.31,3.37-2.32,4.13a7.13,7.13,0,0,0,.07.89,12.57,12.57,0,0,1,0,3.5c2.27-1.1,3.58-2.45,4-4.1A25.83,25.83,0,0,1-14.86,118Zm1.92-.37h0S-12.95,117.63-12.94,117.63Zm.19-1.75c-.41-1-1.1-1.95-2.07-1.95s-1.72-3.41-2.95-3.23c-1.92.27-5.88,5-5.88,5-2,2.36-3.86,4.59-5.49,5.24a4.29,4.29,0,0,0-2.26,2.35l-.16.29c1.94-.61,3.57-1,5-1.27a13.21,13.21,0,0,0,5.08-1.78c.92-.66,1.69-1.24,2.36-1.73C-16.2,116.65-15.11,115.86-12.75,115.88Zm8.54-5.76a1.11,1.11,0,0,1-1.08.86,1.14,1.14,0,0,1-1.13-1.13,1.08,1.08,0,0,1,.2-.61,1.45,1.45,0,0,0-.88,2.26,1.85,1.85,0,0,0,2.9.19A1.42,1.42,0,0,0-4.21,110.12Z" style="fill:#f4b095"/><path d="M70.2,97.26a.88.88,0,0,1-1,.72h0c-3.28-.43-9.51-2.85-12.11-4.28-2.1-1.15-4.07-2.15-5.93-3A36,36,0,0,1,63,105.7a.85.85,0,0,1-1.44.87C57.28,101.51,52.39,96,46.43,92.11A51.92,51.92,0,0,1,56.9,105.65a.85.85,0,0,1-1.4.94,102.19,102.19,0,0,0-9.62-9.79,35.76,35.76,0,0,1,2.53,15.39.84.84,0,0,1-.66.78.83.83,0,0,1-.93-.42,36.09,36.09,0,0,1-3-8.78,49.53,49.53,0,0,0-1.72-6,25.17,25.17,0,0,1-5.67,18.62.88.88,0,0,1-.83.28.49.49,0,0,1-.17-.06.84.84,0,0,1-.49-.9,65.38,65.38,0,0,1,1.88-8c.19-.67.37-1.35.55-2a10.85,10.85,0,0,1-3.13,1.1,29.11,29.11,0,0,1-12.15,0,28.34,28.34,0,0,1-5.38-1.74C6.54,100.73,1,91.68,2.17,81.54,3.22,72.83,6.23,68.73,9.33,65.6c4-4,9-6.21,13.75-6,7.07.33,11.51,4.33,13.44,8.07a1.68,1.68,0,0,1,1.31-.5c1.58.1,3.09,2.2,5.38,5.65a27.18,27.18,0,0,0,2.43,3.36,29.67,29.67,0,0,0,5.66,4.26,35.74,35.74,0,0,1,3.27,2.24c2.06,1.65,3.12,3.13,3.56,7.06a.87.87,0,0,1-.07.42c2,1.07,4.11,2.22,6.23,3.38,2.47,1.36,4.8,2.63,5.21,2.76A.82.82,0,0,1,70.2,97.26Zm-40.51-16c-.22,0-.43,0-.67-.09-2.39-.52-2.49-2.55-2.31-3.9-1.33,0-1.79.43-2,1.06-.72,2,.24,3.05,2,4.72a11,11,0,0,1,3,3.86c1,2.47,2.54,2.9,4.34,3.41a15.72,15.72,0,0,1,1.76.58,4.24,4.24,0,0,1-.08-3,4.84,4.84,0,0,1-3,.31L32,88a4.53,4.53,0,0,1-3-4.4A4.29,4.29,0,0,1,29.69,81.25Zm4.47,2.39a3.93,3.93,0,0,0-.29,2.68.88.88,0,0,1,.06.27,3,3,0,0,0,1.16-.31,2.54,2.54,0,0,0,1.31-1.52,2.63,2.63,0,0,0-.76-2.58,3.64,3.64,0,0,0-1.77-1,2.93,2.93,0,0,0-1.5,0h0a2.37,2.37,0,0,0-1.69,2.36,2.85,2.85,0,0,0,1.42,2.56A6.49,6.49,0,0,1,32.58,83a.85.85,0,1,1,1.58.62Zm5.25-1c1.11-.31,3.18.21,5.87,1.27a31.48,31.48,0,0,0-6.92-3.09,10.55,10.55,0,0,0-2-.24,5,5,0,0,1,.42.37,4.52,4.52,0,0,1,1.31,2.51A3.13,3.13,0,0,1,39.41,82.67Zm-7.63-9.53-.57.31-2.33,2a6.78,6.78,0,0,0-.33,1.16l0,.1c-.4,1.86-.19,2.56.85,2.79a7.87,7.87,0,0,0,3.6-.19,12.39,12.39,0,0,1,5.74-.12c3.27.7,9.12,4.2,13.82,7,1.4.84,2.69,1.61,3.66,2.15A6.44,6.44,0,0,0,53.51,84a32.42,32.42,0,0,0-3.12-2.13,31.52,31.52,0,0,1-6-4.52,27.8,27.8,0,0,1-2.63-3.6c-1.07-1.61-3.27-5-4.08-4.9a12.15,12.15,0,0,1-.86.88h0A21.79,21.79,0,0,1,31.78,73.14Zm6.23,30a24.14,24.14,0,0,0-1.13-9.38A5.41,5.41,0,0,0,33.56,92c-2-.55-4.19-1.17-5.47-4.43a9.63,9.63,0,0,0-2.57-3.25C23.86,82.69,22,80.9,23.1,77.74c.72-2,2.66-2.23,3.95-2.2l0-.08a1.09,1.09,0,0,1,.05-.17c0-.09.06-.18.09-.27l.05-.15a3.8,3.8,0,0,1,.43-.82.57.57,0,0,1,.08-.13l.23-.28.12-.14a3.84,3.84,0,0,1,.29-.27l.13-.12a5.2,5.2,0,0,1,.51-.38c.56-.36,1.22-.71,1.92-1.09.36-.19.73-.38,1.1-.59l.33-.19q.41-.23.81-.48a4,4,0,0,0,.43-.28c.24-.15.48-.31.71-.48l.46-.37.42-.35a13.42,13.42,0,0,0-9.49-7.24A18,18,0,0,0,23,61.31c-4.28-.2-8.82,1.8-12.46,5.49-3.34,3.37-5.75,7.2-6.68,15-1.14,9.5,3.93,17.67,13.55,21.84a26.89,26.89,0,0,0,16.52,1.59A7.27,7.27,0,0,0,38,103.17Z" style="fill:#93d8ca"/><path d="M132.48,6.19a.6.6,0,0,1-.28.35,5.11,5.11,0,0,1-2.59.67c-3.39,0-7.25-2.9-10.74-5.53-2.56-1.93-5-3.75-6.69-4a38.26,38.26,0,0,1-4.11-1A5.86,5.86,0,0,1,105.12-1a.64.64,0,0,1-.71-.25.63.63,0,0,1,0-.75,8,8,0,0,0,.63-2.27l-2-.66-.72-.24a8.47,8.47,0,0,1-2.52,2.29,1.65,1.65,0,0,0-.4.27,1.31,1.31,0,0,0-.13.45,19.33,19.33,0,0,0-.23,4,.62.62,0,0,1-.39.62.56.56,0,0,1-.25.05.63.63,0,0,1-.47-.2,5.88,5.88,0,0,1-1.67-5.16,2.91,2.91,0,0,1-1.93-.39L94-3.52a1.74,1.74,0,0,0-.48-.31s0,.1-.1.37l-.9,3.6a.65.65,0,0,1-.45.47.55.55,0,0,1-.18,0,.63.63,0,0,1-.45-.18,4.42,4.42,0,0,1-1.11-4.8L90-4.81c-.09-.12-.2-.27-.28-.3a.4.4,0,0,0-.36.16A2.17,2.17,0,0,0,89-4.1c-.21.7-.4,1.39-.58,2.1a.65.65,0,0,1-.55.48h-.08a.64.64,0,0,1-.57-.34,4.3,4.3,0,0,1,.07-4.09,5.11,5.11,0,0,1,1-1.25,5,5,0,0,1,3-1.09l-.4-.66A10.91,10.91,0,0,0,90.18-10l-2-2.86c-3.79-5.38-7.72-10.94-10-17.06-2-5.64-4-14.17-1.34-22.76a16.53,16.53,0,0,1,.91-2.4c-1.5-1.65-1.09-7-.88-8.49a.64.64,0,0,1,.34-.47.63.63,0,0,1,.58,0c5.4,2.56,5.55,2.73,5.7,2.9a1.88,1.88,0,0,1,.33.56,13.42,13.42,0,0,1,2.42-.63,16.33,16.33,0,0,1,6.88,0c0-.07,0-.15,0-.23.22-1,.38-1.74.51-2.15.43-1.33,1.52-1.84,2.78-2.43l.81-.39a.67.67,0,0,1,.5,0,.65.65,0,0,1,.37.34l.21.41A11.07,11.07,0,0,1,99.87-61a5.51,5.51,0,0,1-1.65,3.85,31.53,31.53,0,0,1,2,3.53c1.59,3.3,3.23,6.42,5.69,8.3a15.9,15.9,0,0,0,3.47,1.85c.72.31,1.47.63,2.25,1a22.93,22.93,0,0,1,9,9.43,68.76,68.76,0,0,1,4.79,12.1,68.31,68.31,0,0,1,2,8.75,64.36,64.36,0,0,0,2,8.59A24,24,0,0,0,130.48-1C131.7,1.55,133.08,4.41,132.48,6.19ZM97.27-56.22l-.5.37c1.08,1.19,1.37,2.83,1.6,4.89a16.77,16.77,0,0,1-.52,5.78,23.65,23.65,0,0,1,5.72-.46A29.47,29.47,0,0,1,99-53,32.12,32.12,0,0,0,97.27-56.22Zm-13.2-3v.25a5.68,5.68,0,0,0,.62,2.42.35.35,0,0,0,0,.11c1.64.66,3,2.87,4.29,5.21l0-.08c.72-2.38,1.58-5.23,3.14-6A26.12,26.12,0,0,0,92.89-60a15.41,15.41,0,0,0-6.4,0,12.11,12.11,0,0,0-2.42.66Zm6.87,7.56A1,1,0,0,1,91-52a2.12,2.12,0,0,0-.45.12c-.11.34-.21.67-.31,1a1.05,1.05,0,0,1-.05.19,1.88,1.88,0,0,0,1.68,1.36,2.64,2.64,0,0,0,3-2.5c-.21,0-1.44,0-1.66-.08L92.83-52a1,1,0,0,1,.07.36,1,1,0,0,1-1,1A1,1,0,0,1,90.94-51.63Zm-5.72.18a.86.86,0,0,1,.08-.36,21.56,21.56,0,0,0-2.36.14,3.08,3.08,0,0,0,.81,2.3,4.52,4.52,0,0,0,2.32.23c1.44-.32,1.81-1.06,1.89-1.28-.19-.35-.39-.74-.61-1.13l-.19-.06a.9.9,0,0,1,0,.16,1,1,0,0,1-1,1A1,1,0,0,1,85.22-51.45ZM77.38-38.2c1.23-1.7,3-4.44,3.14-5.78a7.19,7.19,0,0,0-.86-3,8.37,8.37,0,0,1-1-3.47,6.23,6.23,0,0,1,1-2.94l-.85-.81a16.94,16.94,0,0,0-.7,1.92A31.27,31.27,0,0,0,77.38-38.2ZM91.24-10.75A12.75,12.75,0,0,1,92-9.6a8,8,0,0,0,.92,1.35,8.22,8.22,0,0,1,1.67.34.56.56,0,0,1,.2.11,9.88,9.88,0,0,1,3.69-.58,3.58,3.58,0,0,1,.89-.85,2.94,2.94,0,0,1,2.28-.35c0-.08,1.34-1.09,2-1.61s1.36-1.06,1.86-1.41c-5.66-5.06-11.37-10.71-13-14-1.41-2.89-2.84-10.77-1-15a4.54,4.54,0,0,1,2.85-2.73c.64-.19,1.34-.38,2.08-.55a16.38,16.38,0,0,0,.64-5.93c-.39-3.54-1-4.74-3.73-5.44-.93-.23-1.67,1.18-2.28,2.85a9.68,9.68,0,0,1,2.32.18c.42,0,1.84.11,2.19.11a.64.64,0,0,1,.45.21.65.65,0,0,1,.18.47A4.34,4.34,0,0,1,92-48.07h-.11a2.56,2.56,0,0,1-.75-.12A6,6,0,0,1,91.17-47a9,9,0,0,1-1,3.39.66.66,0,0,1-.59.38h0a.67.67,0,0,1-.58-.44c-.28-.79-.53-1.6-.74-2.41A6.74,6.74,0,0,1,88-47.88h0a4.91,4.91,0,0,1,.09-.73,4.45,4.45,0,0,1-1.72.73,3.25,3.25,0,0,1-.74.09,6.25,6.25,0,0,1-2.67-.58A4.43,4.43,0,0,1,81.64-52a.77.77,0,0,1,.44-.68A12.25,12.25,0,0,1,86.43-53,5,5,0,0,0,84-55.29a2.09,2.09,0,0,0-1.57.58,6.69,6.69,0,0,0-1.33,1.42L81-53a5.47,5.47,0,0,0-1,2.59,7.78,7.78,0,0,0,.86,2.92,8,8,0,0,1,1,3.65c-.18,2.29-3.56,6.69-4.12,7.41a44.75,44.75,0,0,0,1.75,6.09c2.17,5.95,6,11.44,9.78,16.75C89.9-12.67,90.58-11.71,91.24-10.75ZM91.1-5.48c.11-.11.21-.23.34-.35a9.53,9.53,0,0,1,1.5-1.11,5.42,5.42,0,0,0-3.68.58,1.44,1.44,0,0,1,1,.06,2,2,0,0,1,.79.7Zm6.13.64a4.71,4.71,0,0,0,.25-1.06c0-.23.06-.45.11-.67s.11-.35.16-.52a8.66,8.66,0,0,0-5.43,2.21,4,4,0,0,0-.46.48c-.07.09-.14.17-.19.25a2.2,2.2,0,0,0-.25.54,2.92,2.92,0,0,0,.19,2.07l.56-2.23A1.74,1.74,0,0,1,93-5a1.69,1.69,0,0,1,1.8.46l.27.2a1.74,1.74,0,0,0,1.32.15,4.1,4.1,0,0,0,.59-.2A3.3,3.3,0,0,0,97.23-4.84Zm4.69-2A2,2,0,0,1,103-8a4.79,4.79,0,0,1-1.2-.18l-.19,0a4.5,4.5,0,0,0-.86-.12,1.32,1.32,0,0,0-.75.22h0a2.37,2.37,0,0,0-.39.32,2.89,2.89,0,0,0-.48.73,3.44,3.44,0,0,0-.28.8,3.7,3.7,0,0,0-.1.58c-.05.28-.1.57-.17.86a3.31,3.31,0,0,1-.18.53,6.29,6.29,0,0,1-.4.73,2.39,2.39,0,0,0-.13.21,2.25,2.25,0,0,0-.12.21,3.37,3.37,0,0,0,0,2.86,20,20,0,0,1,.22-2,2.14,2.14,0,0,1,.38-1,2.33,2.33,0,0,1,.72-.58A7.24,7.24,0,0,0,101.92-6.89Zm1.55.77,1.65.54a4.51,4.51,0,0,0-.08-.53.9.9,0,0,0-.39-.61,4.33,4.33,0,0,0-1.29-.06,1.88,1.88,0,0,0-.28.47l0,0ZM106.14-3a5.89,5.89,0,0,0,1.46-2,4.41,4.41,0,0,0,0-2.78c-.35-.91-.53-1.16-1.1-1.23a7.83,7.83,0,0,0-1.25.51,7.36,7.36,0,0,1-1.08.44l-.39.07h.09a3.5,3.5,0,0,1,1.36.21,2.12,2.12,0,0,1,1.07,1.5A7.87,7.87,0,0,1,106.14-3Z" style="fill:#d5c52a"/><path d="M140.57,45.73c-1.13,5.64-7.32,6.75-12.64,5.4h-.19l-.5.69c-1.34,1.84-3.83,5.27-4.66,8.77-.61,2.56-2.67,4.48-6.3,5.87a.6.6,0,0,1-.22,0,.66.66,0,0,1-.55-.3,1,1,0,0,1-.11-.94,8.55,8.55,0,0,0,.34-4.32,8.51,8.51,0,0,1-.08-1.17,6.72,6.72,0,0,1,1.07-2.86h0c-.81.24-1.68.43-2.64.64a47,47,0,0,0-7.89,2.32.5.5,0,0,1-.23.05.74.74,0,0,1-.68-.56.93.93,0,0,1,.39-1.11,4.93,4.93,0,0,0,2.12-2.39,5.78,5.78,0,0,1,3-3c1.25-.5,3-2.53,4.69-4.55A27.46,27.46,0,0,0,110.26,51c-3.34,2.12-11.2,3-14.62,2.11a2.61,2.61,0,0,1-2-1.4,3.19,3.19,0,0,1,.57-2.54c.2-.39.42-.82.62-1.31l-.93.42c-3,1.37-5.17,2.36-8.94,1.45l-1-.23c-3.55-.83-4.82-1.2-5.18-2.06a1.26,1.26,0,0,1,0-1c.23-.58.95-2.33,8.67-5.09l.22-.08c3.32-1.49,4.81-3.59,6.94-6.74-4,1.37-10.21,1.77-15.49,2.11-3.62.23-6.74.43-7.95.88a.7.7,0,0,1-.87-.45A1,1,0,0,1,70.51,36,63,63,0,0,0,77,28.63c3.27-4.08,6.64-8.31,9.22-10,3.18-2.09,9.69-3.94,13.66-2a5.31,5.31,0,0,1,2.87,3.63c.45,1.87,2.66,4.33,6.15,6.84-.44-2.41-1.06-4.2-2.65-5.15-.9-.54-2.91-4.1-4.12-5.53a6.45,6.45,0,0,0-5-2.74.78.78,0,0,1-.64-.64,1,1,0,0,1,.28-.94,9.9,9.9,0,0,0,1.76-2c.5-.72,1-1.47,2-1.28,3.82.75,6.16,1.27,9.82,3.46a20.56,20.56,0,0,1,6.28,6.06,10.31,10.31,0,0,0,1.17,1.46c2,1.82,3.91,4.24,2.5,8.45a23,23,0,0,1-1.06,2.63,6.13,6.13,0,0,0-.6,1.63c2.73,2.75,8.23,4.14,11.23,4.9.79.2,1.41.36,1.82.5,3.08,1.05,5.14,3.22,6.95,5.13.61.64,1.19,1.26,1.76,1.76A1,1,0,0,1,140.57,45.73Zm-30-17.16a75.14,75.14,0,0,0,6.53,4,7.18,7.18,0,0,1,.77-2.47,21.22,21.22,0,0,0,1-2.43c.87-2.62.35-4.3-2-6.42a11,11,0,0,1-1.4-1.71,19.06,19.06,0,0,0-5.83-5.64c-3.48-2.08-5.73-2.58-9.4-3.3-.12,0-.17,0-.65.68a13.54,13.54,0,0,1-.89,1.17c1.91.94,2.79.81,4.46,2.8,1.07,1.27,3,4.79,3.74,5.2C109.41,22,110.05,25,110.56,28.57Zm-13.86,3s0-.94,0-3.27a13.55,13.55,0,0,1,4.09-8.74,3.73,3.73,0,0,0-1.47-1.26c-3.2-1.6-9.1-.29-12.39,1.88-2.39,1.57-5.68,5.69-8.87,9.68-1.64,2.05-3.21,4-4.61,5.57,1.51-.17,3.43-.3,5.61-.44C85.48,34.55,94.32,34,96.7,31.54Zm18.83,14.93c-4.68-2.14-15-7.55-18-13.36-.57.8-1.09,1.56-1.57,2.28-2.3,3.41-4,5.87-7.78,7.58l-.29.11c-5,1.77-6.77,3.05-7.43,3.71a32.18,32.18,0,0,0,3.8,1l1,.24c3.36.8,5.26-.07,8.14-1.38.74-.34,1.55-.7,2.44-1.07a.66.66,0,0,1,.73.18,1,1,0,0,1,.21.85,13,13,0,0,1-1.31,3.47,7.44,7.44,0,0,0-.44,1,2.84,2.84,0,0,0,1,.38c3.43.89,10.82-.16,13.63-1.95A25.47,25.47,0,0,1,115.53,46.47Zm10,5A19.74,19.74,0,0,0,122,53.81c-.67.5-1.45,1.08-2.38,1.74l-.21.14h0c-1.12,1.42-2.31,3.37-2.33,4.13a7.54,7.54,0,0,0,.08.89,12.25,12.25,0,0,1,0,3.5c2.28-1.1,3.59-2.45,4-4.1A25.83,25.83,0,0,1,125.56,51.5Zm1.92-.37h0Zm.19-1.75c-.41-1-1.1-2-2.07-2s-1.72-3.41-3-3.23c-1.91.27-5.87,5-5.87,5-2,2.36-3.86,4.59-5.49,5.24A4.26,4.26,0,0,0,109,56.82l-.16.29c1.94-.61,3.57-1,5-1.27a13.26,13.26,0,0,0,5.09-1.78l2.36-1.73C124.22,50.15,125.31,49.36,127.67,49.38Zm8.54-5.76a1.11,1.11,0,0,1-1.08.86A1.14,1.14,0,0,1,134,43.35a1.08,1.08,0,0,1,.2-.61,1.45,1.45,0,0,0-.88,2.26,1.84,1.84,0,0,0,2.89.19A1.4,1.4,0,0,0,136.21,43.62Z" style="fill:#f4b095"/><path d="M210.62,30.76a.88.88,0,0,1-1,.72h0c-3.29-.43-9.51-2.85-12.11-4.28-2.11-1.15-4.07-2.15-5.93-3a36.11,36.11,0,0,1,11.79,15,.85.85,0,0,1-1.44.87c-4.24-5.06-9.14-10.56-15.1-14.46a51.75,51.75,0,0,1,10.48,13.54.85.85,0,0,1-1.4.94,102.19,102.19,0,0,0-9.62-9.79,35.76,35.76,0,0,1,2.53,15.39.84.84,0,0,1-.66.78.83.83,0,0,1-.93-.42,36.09,36.09,0,0,1-3-8.78,49.53,49.53,0,0,0-1.72-6,25.14,25.14,0,0,1-5.68,18.62.85.85,0,0,1-.82.28.49.49,0,0,1-.17-.06.84.84,0,0,1-.49-.9,65.38,65.38,0,0,1,1.88-8c.19-.67.37-1.35.55-2a10.92,10.92,0,0,1-3.14,1.1,29.06,29.06,0,0,1-12.14,0,28.34,28.34,0,0,1-5.38-1.74C147,34.23,141.38,25.18,142.59,15c1-8.71,4.06-12.81,7.16-15.94,4-4,9-6.21,13.75-6a15.56,15.56,0,0,1,13.44,8.07,1.67,1.67,0,0,1,1.31-.5c1.58.1,3.09,2.2,5.37,5.65a29.46,29.46,0,0,0,2.43,3.36A30,30,0,0,0,191.72,14,37.17,37.17,0,0,1,195,16.19c2.06,1.65,3.12,3.13,3.56,7.06a.87.87,0,0,1-.07.42c2,1.07,4.11,2.22,6.23,3.38,2.47,1.36,4.8,2.63,5.21,2.76A.82.82,0,0,1,210.62,30.76Zm-40.51-16c-.22,0-.43,0-.67-.09-2.39-.52-2.49-2.55-2.31-3.9-1.33,0-1.79.43-2,1.06-.73,2,.23,3,2,4.72a11,11,0,0,1,3,3.86c1,2.47,2.53,2.9,4.34,3.41a16.43,16.43,0,0,1,1.76.58,4.19,4.19,0,0,1-.08-3,4.85,4.85,0,0,1-3,.31q-.33-.08-.66-.18a4.53,4.53,0,0,1-3-4.4A4.29,4.29,0,0,1,170.11,14.75Zm4.47,2.39a3.93,3.93,0,0,0-.29,2.68.88.88,0,0,1,.06.27,3.07,3.07,0,0,0,1.16-.31,2.58,2.58,0,0,0,1.31-1.52,2.61,2.61,0,0,0-.77-2.58,3.57,3.57,0,0,0-1.76-1,2.93,2.93,0,0,0-1.5,0h0a2.38,2.38,0,0,0-1.7,2.36,2.89,2.89,0,0,0,1.42,2.56,6.6,6.6,0,0,1,.49-3.17.85.85,0,1,1,1.58.62Zm5.24-1c1.12-.31,3.18.21,5.88,1.27a31.48,31.48,0,0,0-6.92-3.09,10.55,10.55,0,0,0-1.95-.24,5,5,0,0,1,.42.37A4.52,4.52,0,0,1,178.56,17,3.17,3.17,0,0,1,179.82,16.17ZM172.2,6.64l-.57.31-2.34,2a7.91,7.91,0,0,0-.32,1.16l0,.1c-.4,1.86-.19,2.56.85,2.79a7.87,7.87,0,0,0,3.6-.19,12.35,12.35,0,0,1,5.73-.12c3.27.7,9.13,4.2,13.83,7,1.4.84,2.69,1.61,3.66,2.15a6.44,6.44,0,0,0-2.69-4.33,33.72,33.72,0,0,0-3.12-2.13,31.52,31.52,0,0,1-6-4.52,27.8,27.8,0,0,1-2.63-3.6c-1.07-1.61-3.27-5-4.08-4.9a12.15,12.15,0,0,1-.86.88h0A22,22,0,0,1,172.2,6.64Zm6.23,30a24.14,24.14,0,0,0-1.13-9.38A5.41,5.41,0,0,0,174,25.45c-2-.55-4.18-1.17-5.46-4.43a9.63,9.63,0,0,0-2.57-3.25c-1.67-1.58-3.56-3.37-2.42-6.53.72-2,2.66-2.23,3.95-2.2l0-.08a1.09,1.09,0,0,1,.05-.17,1.43,1.43,0,0,1,.09-.27.88.88,0,0,1,.05-.15,4.24,4.24,0,0,1,.42-.82l.09-.13a2.83,2.83,0,0,1,.23-.28l.12-.14a3.84,3.84,0,0,1,.29-.27l.13-.12a4.23,4.23,0,0,1,.51-.38c.56-.36,1.22-.71,1.92-1.09.36-.19.73-.38,1.1-.59l.33-.19q.4-.23.81-.48c.14-.08.29-.18.43-.28s.47-.31.71-.48l.46-.37.42-.35a13.42,13.42,0,0,0-9.49-7.24,18,18,0,0,0-2.75-.35c-4.28-.2-8.82,1.8-12.47,5.49-3.33,3.37-5.74,7.2-6.67,15-1.14,9.5,3.93,17.67,13.55,21.84a26.89,26.89,0,0,0,16.52,1.59A7.27,7.27,0,0,0,178.43,36.67Z" style="fill:#93d8ca"/></pattern></defs><title>camelot_collective_pattern</title><rect width="900" height="300" style="fill:url(#a)"/></svg>