<svg xmlns="http://www.w3.org/2000/svg" xmlns:xlink="http://www.w3.org/1999/xlink" viewBox="0 0 1440 800"><defs><linearGradient id="a" x1="729.53" y1="-338.1" x2="730.53" y2="-338.11" gradientTransform="matrix(1440, 0, 0, -800, -1050526, -270083)" gradientUnits="userSpaceOnUse"><stop offset="0" stop-color="#56cee2"/><stop offset="0.2" stop-color="#52aed2"/><stop offset="0.4" stop-color="#4c8ec3"/><stop offset="0.6" stop-color="#436fb3"/><stop offset="0.8" stop-color="#3651a4"/><stop offset="1" stop-color="#253494"/></linearGradient></defs><title>hackathon_hero_image</title><rect x="0.4" y="-0.22" width="1440" height="800" style="fill:url(#a)"/><line x1="277.12" y1="250.55" x2="277.12" y2="282.33" style="fill:none;stroke:#2c7fb8;stroke-linecap:round;stroke-linejoin:round;stroke-width:3px"/><line x1="568.43" y1="188.76" x2="568.43" y2="231.13" style="fill:none;stroke:#2c7fb8;stroke-linecap:round;stroke-linejoin:round;stroke-width:3px"/><line x1="1249.92" y1="248.78" x2="1249.92" y2="330" style="fill:none;stroke:#2c7fb8;stroke-linecap:round;stroke-linejoin:round;stroke-width:3px"/><polyline points="1430 573.64 1412.35 531.27 1412.35 428.87 1288.76 428.87 1288.76 372.37 1271.1 365.31 1271.1 354.71 1256.98 351.18 1249.92 330 1242.86 351.18 1228.73 354.71 1228.73 361.78 1200.48 368.84 1200.48 594.82 1189.89 584.23 1189.89 506.55 1175.77 495.95 1158.11 495.95 1158.11 407.68 1069.84 407.68 1069.84 457.11 1045.12 457.11 1045.12 570.11 1027.46 587.76 1027.46 492.42 1006.28 492.42 1006.28 467.71 992.15 467.71 992.15 442.99 946.25 442.99 946.25 481.83 932.13 481.83 932.13 492.42 910.94 492.42 910.94 368.84 896.82 361.78 896.82 347.65 886.22 344.12 886.22 326.47 875.63 319.4 847.38 322.94 847.38 344.12 833.26 344.12 833.26 358.25 822.66 358.25 822.66 375.9 790.89 375.9 790.89 365.31 780.29 361.78 780.29 351.18 766.17 344.12 766.17 322.94 752.04 315.87 727.33 319.4 727.33 344.12 713.2 347.65 713.2 358.25 706.14 361.78 706.14 555.98 692.02 555.98 692.02 495.95 670.83 495.95 670.83 418.27 642.58 418.27 642.58 347.65 628.46 344.12 628.46 312.34 610.8 308.81 610.8 277.03 596.68 273.5 596.68 248.78 586.09 245.25 586.09 234.66 568.43 231.13 550.78 234.66 550.78 245.25 540.18 248.78 540.18 273.5 526.06 277.03 526.06 305.28 508.4 308.81 508.4 340.59 490.75 344.12 490.75 612.48 469.56 612.48 469.56 623.07 448.38 623.07 444.85 439.46 384.82 425.33 338.92 428.87 338.92 397.09 296.54 351.18 296.54 337.06 282.42 322.94 278.89 284.09 271.83 284.09 264.76 322.94 250.64 337.06 250.64 344.12 204.74 390.02 204.74 478.3 183.55 478.3 183.55 450.05 127.06 450.05 127.06 492.42 109.4 492.42 107.63 504.78 86.45 504.78 86.45 518.91 65.26 518.91 65.26 610.71 40.55 610.71 40.55 716.64 7 737.83 7 796.09" style="fill:none;stroke:#56cee2;stroke-linecap:round;stroke-linejoin:round;stroke-width:3px"/><line x1="503.11" y1="356.48" x2="503.11" y2="614.24" style="fill:none;stroke:#56cee2;stroke-linecap:round;stroke-linejoin:round;stroke-width:3px"/><line x1="513.7" y1="356.48" x2="513.7" y2="614.24" style="fill:none;stroke:#56cee2;stroke-linecap:round;stroke-linejoin:round;stroke-width:3px"/><line x1="524.29" y1="356.48" x2="524.29" y2="614.24" style="fill:none;stroke:#56cee2;stroke-linecap:round;stroke-linejoin:round;stroke-width:3px"/><line x1="534.89" y1="356.48" x2="534.89" y2="631.9" style="fill:none;stroke:#56cee2;stroke-linecap:round;stroke-linejoin:round;stroke-width:3px"/><line x1="545.48" y1="356.48" x2="545.48" y2="631.9" style="fill:none;stroke:#56cee2;stroke-linecap:round;stroke-linejoin:round;stroke-width:3px"/><line x1="586.09" y1="356.48" x2="586.09" y2="720.17" style="fill:none;stroke:#56cee2;stroke-linecap:round;stroke-linejoin:round;stroke-width:3px"/><line x1="596.68" y1="356.48" x2="596.68" y2="720.17" style="fill:none;stroke:#56cee2;stroke-linecap:round;stroke-linejoin:round;stroke-width:3px"/><line x1="607.27" y1="356.48" x2="607.27" y2="677.8" style="fill:none;stroke:#56cee2;stroke-linecap:round;stroke-linejoin:round;stroke-width:3px"/><line x1="617.87" y1="356.48" x2="617.87" y2="677.8" style="fill:none;stroke:#56cee2;stroke-linecap:round;stroke-linejoin:round;stroke-width:3px"/><line x1="628.46" y1="356.48" x2="628.46" y2="677.8" style="fill:none;stroke:#56cee2;stroke-linecap:round;stroke-linejoin:round;stroke-width:3px"/><line x1="522.53" y1="315.87" x2="522.53" y2="340.59" style="fill:none;stroke:#56cee2;stroke-linecap:round;stroke-linejoin:round;stroke-width:3px"/><line x1="533.12" y1="315.87" x2="533.12" y2="340.59" style="fill:none;stroke:#56cee2;stroke-linecap:round;stroke-linejoin:round;stroke-width:3px"/><line x1="543.71" y1="315.87" x2="543.71" y2="340.59" style="fill:none;stroke:#56cee2;stroke-linecap:round;stroke-linejoin:round;stroke-width:3px"/><line x1="554.31" y1="315.87" x2="554.31" y2="340.59" style="fill:none;stroke:#56cee2;stroke-linecap:round;stroke-linejoin:round;stroke-width:3px"/><line x1="582.56" y1="317.64" x2="582.56" y2="342.36" style="fill:none;stroke:#56cee2;stroke-linecap:round;stroke-linejoin:round;stroke-width:3px"/><line x1="593.15" y1="317.64" x2="593.15" y2="342.36" style="fill:none;stroke:#56cee2;stroke-linecap:round;stroke-linejoin:round;stroke-width:3px"/><line x1="603.74" y1="317.64" x2="603.74" y2="342.36" style="fill:none;stroke:#56cee2;stroke-linecap:round;stroke-linejoin:round;stroke-width:3px"/><line x1="614.33" y1="317.64" x2="614.33" y2="342.36" style="fill:none;stroke:#56cee2;stroke-linecap:round;stroke-linejoin:round;stroke-width:3px"/><line x1="536.65" y1="282.33" x2="536.65" y2="307.05" style="fill:none;stroke:#56cee2;stroke-linecap:round;stroke-linejoin:round;stroke-width:3px"/><line x1="547.25" y1="282.33" x2="547.25" y2="307.05" style="fill:none;stroke:#56cee2;stroke-linecap:round;stroke-linejoin:round;stroke-width:3px"/><line x1="557.84" y1="282.33" x2="557.84" y2="307.05" style="fill:none;stroke:#56cee2;stroke-linecap:round;stroke-linejoin:round;stroke-width:3px"/><line x1="575.49" y1="282.33" x2="575.49" y2="307.05" style="fill:none;stroke:#56cee2;stroke-linecap:round;stroke-linejoin:round;stroke-width:3px"/><line x1="586.09" y1="282.33" x2="586.09" y2="307.05" style="fill:none;stroke:#56cee2;stroke-linecap:round;stroke-linejoin:round;stroke-width:3px"/><line x1="596.68" y1="282.33" x2="596.68" y2="307.05" style="fill:none;stroke:#56cee2;stroke-linecap:round;stroke-linejoin:round;stroke-width:3px"/><line x1="548.76" y1="254.08" x2="548.76" y2="271.74" style="fill:none;stroke:#56cee2;stroke-miterlimit:10;stroke-width:3px"/><line x1="556.33" y1="254.08" x2="556.33" y2="271.74" style="fill:none;stroke:#56cee2;stroke-miterlimit:10;stroke-width:3px"/><line x1="577.01" y1="254.08" x2="577.01" y2="271.74" style="fill:none;stroke:#56cee2;stroke-miterlimit:10;stroke-width:3px"/><line x1="584.57" y1="254.08" x2="584.57" y2="271.74" style="fill:none;stroke:#56cee2;stroke-miterlimit:10;stroke-width:3px"/><line x1="766.17" y1="393.56" x2="822.67" y2="390.02" style="fill:none;stroke:#56cee2;stroke-linecap:round;stroke-linejoin:round;stroke-width:3px"/><line x1="882.69" y1="368.84" x2="910.94" y2="380.61" style="fill:none;stroke:#56cee2;stroke-linecap:round;stroke-linejoin:round;stroke-width:3px"/><line x1="882.69" y1="379.43" x2="910.94" y2="391.2" style="fill:none;stroke:#56cee2;stroke-linecap:round;stroke-linejoin:round;stroke-width:3px"/><line x1="882.69" y1="390.02" x2="910.94" y2="401.79" style="fill:none;stroke:#56cee2;stroke-linecap:round;stroke-linejoin:round;stroke-width:3px"/><line x1="882.69" y1="400.62" x2="910.94" y2="412.39" style="fill:none;stroke:#56cee2;stroke-linecap:round;stroke-linejoin:round;stroke-width:3px"/><line x1="882.69" y1="411.21" x2="910.94" y2="422.98" style="fill:none;stroke:#56cee2;stroke-linecap:round;stroke-linejoin:round;stroke-width:3px"/><line x1="882.69" y1="421.8" x2="910.94" y2="433.57" style="fill:none;stroke:#56cee2;stroke-linecap:round;stroke-linejoin:round;stroke-width:3px"/><line x1="882.69" y1="432.4" x2="910.94" y2="444.17" style="fill:none;stroke:#56cee2;stroke-linecap:round;stroke-linejoin:round;stroke-width:3px"/><line x1="882.69" y1="442.99" x2="910.94" y2="454.76" style="fill:none;stroke:#56cee2;stroke-linecap:round;stroke-linejoin:round;stroke-width:3px"/><line x1="882.69" y1="453.58" x2="910.94" y2="465.35" style="fill:none;stroke:#56cee2;stroke-linecap:round;stroke-linejoin:round;stroke-width:3px"/><line x1="882.69" y1="464.18" x2="910.94" y2="475.95" style="fill:none;stroke:#56cee2;stroke-linecap:round;stroke-linejoin:round;stroke-width:3px"/><line x1="882.69" y1="474.77" x2="910.94" y2="486.54" style="fill:none;stroke:#56cee2;stroke-linecap:round;stroke-linejoin:round;stroke-width:3px"/><line x1="1216.37" y1="377.67" x2="1216.37" y2="773.14" style="fill:none;stroke:#56cee2;stroke-linecap:round;stroke-linejoin:round;stroke-width:3px"/><line x1="1234.03" y1="377.67" x2="1234.03" y2="773.14" style="fill:none;stroke:#56cee2;stroke-linecap:round;stroke-linejoin:round;stroke-width:3px"/><line x1="1251.68" y1="377.67" x2="1251.68" y2="773.14" style="fill:none;stroke:#56cee2;stroke-linecap:round;stroke-linejoin:round;stroke-width:3px"/><line x1="1269.34" y1="377.67" x2="1269.34" y2="773.14" style="fill:none;stroke:#56cee2;stroke-linecap:round;stroke-linejoin:round;stroke-width:3px"/><line x1="766.17" y1="407.68" x2="822.67" y2="404.15" style="fill:none;stroke:#56cee2;stroke-linecap:round;stroke-linejoin:round;stroke-width:3px"/><line x1="766.17" y1="421.8" x2="822.67" y2="418.27" style="fill:none;stroke:#56cee2;stroke-linecap:round;stroke-linejoin:round;stroke-width:3px"/><line x1="766.17" y1="435.93" x2="822.67" y2="432.4" style="fill:none;stroke:#56cee2;stroke-linecap:round;stroke-linejoin:round;stroke-width:3px"/><line x1="766.17" y1="450.05" x2="822.67" y2="446.52" style="fill:none;stroke:#56cee2;stroke-linecap:round;stroke-linejoin:round;stroke-width:3px"/><line x1="766.17" y1="464.18" x2="822.67" y2="460.65" style="fill:none;stroke:#56cee2;stroke-linecap:round;stroke-linejoin:round;stroke-width:3px"/><line x1="766.17" y1="478.3" x2="822.67" y2="474.77" style="fill:none;stroke:#56cee2;stroke-linecap:round;stroke-linejoin:round;stroke-width:3px"/><line x1="766.17" y1="492.42" x2="822.67" y2="488.89" style="fill:none;stroke:#56cee2;stroke-linecap:round;stroke-linejoin:round;stroke-width:3px"/><line x1="766.17" y1="506.55" x2="822.67" y2="503.02" style="fill:none;stroke:#56cee2;stroke-linecap:round;stroke-linejoin:round;stroke-width:3px"/><line x1="766.17" y1="520.67" x2="822.67" y2="517.14" style="fill:none;stroke:#56cee2;stroke-linecap:round;stroke-linejoin:round;stroke-width:3px"/><line x1="766.17" y1="534.8" x2="822.67" y2="531.27" style="fill:none;stroke:#56cee2;stroke-linecap:round;stroke-linejoin:round;stroke-width:3px"/><line x1="766.17" y1="548.92" x2="822.67" y2="545.39" style="fill:none;stroke:#56cee2;stroke-linecap:round;stroke-linejoin:round;stroke-width:3px"/><line x1="766.17" y1="563.04" x2="822.67" y2="559.51" style="fill:none;stroke:#56cee2;stroke-linecap:round;stroke-linejoin:round;stroke-width:3px"/><line x1="766.17" y1="577.17" x2="822.67" y2="573.64" style="fill:none;stroke:#56cee2;stroke-linecap:round;stroke-linejoin:round;stroke-width:3px"/><line x1="766.17" y1="591.29" x2="822.67" y2="587.76" style="fill:none;stroke:#56cee2;stroke-linecap:round;stroke-linejoin:round;stroke-width:3px"/><line x1="766.17" y1="605.42" x2="822.67" y2="601.89" style="fill:none;stroke:#56cee2;stroke-linecap:round;stroke-linejoin:round;stroke-width:3px"/><line x1="766.17" y1="619.54" x2="822.67" y2="616.01" style="fill:none;stroke:#56cee2;stroke-linecap:round;stroke-linejoin:round;stroke-width:3px"/><line x1="766.17" y1="633.67" x2="822.67" y2="630.13" style="fill:none;stroke:#56cee2;stroke-linecap:round;stroke-linejoin:round;stroke-width:3px"/><line x1="766.17" y1="647.79" x2="822.67" y2="644.26" style="fill:none;stroke:#56cee2;stroke-linecap:round;stroke-linejoin:round;stroke-width:3px"/><line x1="766.17" y1="661.91" x2="822.67" y2="658.38" style="fill:none;stroke:#56cee2;stroke-linecap:round;stroke-linejoin:round;stroke-width:3px"/><line x1="766.17" y1="676.04" x2="822.67" y2="672.51" style="fill:none;stroke:#56cee2;stroke-linecap:round;stroke-linejoin:round;stroke-width:3px"/><line x1="766.17" y1="690.16" x2="822.67" y2="686.63" style="fill:none;stroke:#56cee2;stroke-linecap:round;stroke-linejoin:round;stroke-width:3px"/><line x1="766.17" y1="704.29" x2="822.67" y2="700.75" style="fill:none;stroke:#56cee2;stroke-linecap:round;stroke-linejoin:round;stroke-width:3px"/><rect x="1119.27" y="495.96" width="56.5" height="70.62" style="fill:none;stroke:#56cee2;stroke-linecap:round;stroke-linejoin:round;stroke-width:3px"/><polygon points="222.39 404.15 261.23 400.62 261.23 637.2 222.39 637.2 222.39 404.15" style="fill:none;stroke:#56cee2;stroke-linecap:round;stroke-linejoin:round;stroke-width:3px"/><rect x="81.15" y="534.8" width="35.31" height="63.56" style="fill:none;stroke:#56cee2;stroke-linecap:round;stroke-linejoin:round;stroke-width:3px"/><polygon points="331.85 446.52 367.16 442.99 367.16 690.16 331.85 690.16 331.85 446.52" style="fill:none;stroke:#56cee2;stroke-linecap:round;stroke-linejoin:round;stroke-width:3px"/><line x1="56.43" y1="626.6" x2="56.43" y2="672.51" style="fill:none;stroke:#56cee2;stroke-linecap:round;stroke-linejoin:round;stroke-width:3px"/><line x1="67.03" y1="626.6" x2="67.03" y2="672.51" style="fill:none;stroke:#56cee2;stroke-linecap:round;stroke-linejoin:round;stroke-width:3px"/><line x1="77.62" y1="626.6" x2="77.62" y2="672.51" style="fill:none;stroke:#56cee2;stroke-linecap:round;stroke-linejoin:round;stroke-width:3px"/><line x1="88.21" y1="626.6" x2="88.21" y2="672.51" style="fill:none;stroke:#56cee2;stroke-linecap:round;stroke-linejoin:round;stroke-width:3px"/><line x1="98.81" y1="626.6" x2="98.81" y2="672.51" style="fill:none;stroke:#56cee2;stroke-linecap:round;stroke-linejoin:round;stroke-width:3px"/><line x1="109.4" y1="626.6" x2="109.4" y2="683.1" style="fill:none;stroke:#56cee2;stroke-linecap:round;stroke-linejoin:round;stroke-width:3px"/><line x1="119.99" y1="626.6" x2="119.99" y2="683.1" style="fill:none;stroke:#56cee2;stroke-linecap:round;stroke-linejoin:round;stroke-width:3px"/><line x1="130.59" y1="626.6" x2="130.59" y2="683.1" style="fill:none;stroke:#56cee2;stroke-linecap:round;stroke-linejoin:round;stroke-width:3px"/><line x1="141.18" y1="626.6" x2="141.18" y2="697.22" style="fill:none;stroke:#56cee2;stroke-linecap:round;stroke-linejoin:round;stroke-width:3px"/><line x1="151.77" y1="626.6" x2="151.77" y2="697.22" style="fill:none;stroke:#56cee2;stroke-linecap:round;stroke-linejoin:round;stroke-width:3px"/><line x1="162.36" y1="626.6" x2="162.36" y2="697.22" style="fill:none;stroke:#56cee2;stroke-linecap:round;stroke-linejoin:round;stroke-width:3px"/><line x1="172.96" y1="626.6" x2="172.96" y2="672.51" style="fill:none;stroke:#56cee2;stroke-linecap:round;stroke-linejoin:round;stroke-width:3px"/><line x1="183.55" y1="626.6" x2="183.55" y2="672.51" style="fill:none;stroke:#56cee2;stroke-linecap:round;stroke-linejoin:round;stroke-width:3px"/><line x1="445.05" y1="457.11" x2="388.35" y2="442.99" style="fill:none;stroke:#56cee2;stroke-linecap:round;stroke-linejoin:round;stroke-width:3px"/><line x1="445.05" y1="474.77" x2="388.35" y2="460.65" style="fill:none;stroke:#56cee2;stroke-linecap:round;stroke-linejoin:round;stroke-width:3px"/><line x1="445.05" y1="492.42" x2="388.35" y2="478.3" style="fill:none;stroke:#56cee2;stroke-linecap:round;stroke-linejoin:round;stroke-width:3px"/><line x1="445.05" y1="510.08" x2="388.35" y2="495.96" style="fill:none;stroke:#56cee2;stroke-linecap:round;stroke-linejoin:round;stroke-width:3px"/><line x1="445.05" y1="527.73" x2="388.35" y2="513.61" style="fill:none;stroke:#56cee2;stroke-linecap:round;stroke-linejoin:round;stroke-width:3px"/><line x1="445.05" y1="545.39" x2="388.35" y2="531.27" style="fill:none;stroke:#56cee2;stroke-linecap:round;stroke-linejoin:round;stroke-width:3px"/><line x1="445.05" y1="563.04" x2="388.35" y2="548.92" style="fill:none;stroke:#56cee2;stroke-linecap:round;stroke-linejoin:round;stroke-width:3px"/><line x1="445.05" y1="580.7" x2="388.35" y2="566.58" style="fill:none;stroke:#56cee2;stroke-linecap:round;stroke-linejoin:round;stroke-width:3px"/><polyline points="338.92 428.87 314.2 432.4 314.2 644.26 285.95 651.32" style="fill:none;stroke:#56cee2;stroke-linecap:round;stroke-linejoin:round;stroke-width:3px"/><polyline points="448.38 623.07 398.94 623.07 398.94 704.28" style="fill:none;stroke:#56cee2;stroke-linecap:round;stroke-linejoin:round;stroke-width:3px"/><rect x="907.41" y="517.14" width="31.78" height="60.03" style="fill:none;stroke:#56cee2;stroke-linecap:round;stroke-linejoin:round;stroke-width:3px"/><rect x="1052.18" y="591.29" width="120.05" height="150.07" style="fill:none;stroke:#56cee2;stroke-linecap:round;stroke-linejoin:round;stroke-width:3px"/><line x1="907.41" y1="603.65" x2="907.41" y2="751.95" style="fill:none;stroke:#56cee2;stroke-linecap:round;stroke-linejoin:round;stroke-width:3px"/><line x1="918" y1="603.65" x2="918" y2="751.95" style="fill:none;stroke:#56cee2;stroke-linecap:round;stroke-linejoin:round;stroke-width:3px"/><line x1="928.6" y1="603.65" x2="928.6" y2="751.95" style="fill:none;stroke:#56cee2;stroke-linecap:round;stroke-linejoin:round;stroke-width:3px"/><line x1="939.19" y1="603.65" x2="939.19" y2="751.95" style="fill:none;stroke:#56cee2;stroke-linecap:round;stroke-linejoin:round;stroke-width:3px"/><line x1="949.78" y1="603.65" x2="949.78" y2="751.95" style="fill:none;stroke:#56cee2;stroke-linecap:round;stroke-linejoin:round;stroke-width:3px"/><line x1="960.37" y1="603.65" x2="960.37" y2="751.95" style="fill:none;stroke:#56cee2;stroke-linecap:round;stroke-linejoin:round;stroke-width:3px"/><line x1="970.97" y1="603.65" x2="970.97" y2="751.95" style="fill:none;stroke:#56cee2;stroke-linecap:round;stroke-linejoin:round;stroke-width:3px"/><line x1="981.56" y1="603.65" x2="981.56" y2="751.95" style="fill:none;stroke:#56cee2;stroke-linecap:round;stroke-linejoin:round;stroke-width:3px"/><rect x="1299.35" y="563.04" width="38.84" height="180.08" style="fill:none;stroke:#56cee2;stroke-linecap:round;stroke-linejoin:round;stroke-width:3px"/><polyline points="910.94 492.42 900.35 492.42 900.35 506.55 889.75 506.55 889.75 584.23" style="fill:none;stroke:#56cee2;stroke-linecap:round;stroke-linejoin:round;stroke-width:3px"/><polyline points="737.92 690.16 737.92 651.32 709.67 651.32 709.67 580.7" style="fill:none;stroke:#56cee2;stroke-linecap:round;stroke-linejoin:round;stroke-width:3px"/><circle cx="1218.14" cy="121.67" r="51.2" style="fill:#253494"/><path d="M1166.94,121.67a51.2,51.2,0,0,0,51.2,51.2s-19.14-19.87-19-49.44c.15-32.45,19-53,19-53A51.2,51.2,0,0,0,1166.94,121.67Z" style="fill:#56cee2"/><circle cx="974.5" cy="128.73" r="5.3" style="fill:#41b6c4"/><circle cx="1334.66" cy="217" r="5.3" style="fill:#2c7fb8"/><circle cx="1338.19" cy="54.58" r="5.3" style="fill:#56cee2"/><circle cx="1052.18" cy="54.58" r="5.3" style="fill:#2c7fb8"/><circle cx="1048.65" cy="278.85" r="5.3" style="fill:#2c7fb8"/><circle cx="1165.7" cy="261.75" r="5.3" style="fill:#56cee2"/><circle cx="1115.74" cy="171.1" r="5.3" style="fill:#56cee2"/><circle cx="1373.5" cy="315.87" r="5.3" style="fill:#41b6c4"/><circle cx="879.16" cy="231.13" r="5.3" style="fill:#41b6c4"/><circle cx="769.7" cy="54.58" r="5.3" style="fill:#56cee2"/><circle cx="119.99" cy="125.2" r="44.14" style="fill:#f8be4b"/><path d="M263,114c2-33-75-46-82-7-27-26-117,47-5,56,28,2.25,95,13,114-8C309.56,133.38,289,113,263,114Z" style="fill:#f2f2f2;opacity:0.6000000000000001"/><path d="M255.8,322.74c.06-5.52.46-19.07,2.86-26.26-17.65-1.36-23.78,17.07-23.79,28.77C240.5,321.38,250.13,322,255.8,322.74Z" style="fill:#fff"/><path d="M1230.34,293.06c-2.77-1.66-9.16-.86-10.52,1,0,0,2-28.95,1.36-29.07-3.86-.74-15,4.09-18,10.74a42.88,42.88,0,0,0-3.9,19.29,5.81,5.81,0,0,1-3.06,5.72c-6.3,3.39-14.2.82-21.3,0a18.13,18.13,0,0,1,.06,12.12,40.77,40.77,0,0,1,24.35-5.05c4.12.44,19.48,1.34,22.68-1.3,1.47-1.21,4-2.8,5.58-3.86a8.25,8.25,0,0,1,8.38-.35C1235.36,298.19,1233.44,294.93,1230.34,293.06Z" style="fill:#fff"/><path d="M1007.32,342.74c-1.09-2.47.86-5.42-.92-7.46s-21.74-10.51-29.7-11.21c2.56,5.53,10.7,7.92,11.11,14,.12,1.89-.6,3.75-.65,5.65s1,4.13,2.88,4.28a34.85,34.85,0,0,1-19.61,5.2,29.82,29.82,0,0,1,2.29,10.33,36.8,36.8,0,0,1,14-6.82,106.26,106.26,0,0,0,19.77.06c2.22-.22,4.55-.27,6.5-1.35s3.33-3.19,5.13-4.65,4.72-2.15,6.26-.41C1022.17,344.42,1013.9,340,1007.32,342.74Z" style="fill:#fff"/><path d="M1077.33,218.28a55.45,55.45,0,0,0-5.72-4l-.07,0a9.32,9.32,0,0,1,5.66.48c-.91-5.83-4.57-8-10.41-8.84-6.65-.92-14.3.29-19.69,4.3S1036,220,1029.3,220.31c-.69,3.46-1.38,8.28-2.06,11.74,0,0,8.11-6,10.89-7.92,1.19-.82,3.77-1.62,5.07-2.32-1.06,3.62-1.38,7.17.3,10.33,1.82,3.43,4.53,6.29,7.21,9.1,3.47,3.64,8.31,8.65,11.79,12.3,2.37-.51,1.62-13.49,1.65-16.53.06-6.42,0-13.12-2.45-19,.86-.37,1.73-.76,2.61-1.16a122,122,0,0,0,18.06,6C1080.06,221.15,1078.89,219.53,1077.33,218.28Z" style="fill:#fff"/><path d="M268.74,336.78c0-7.19-8.79-9.16-11.52-10.07-4.32-1.44-15.83-1.44-23,2.88-7.2,1.43-13-4.32-18.71-4.32-5,4.84,0,23,2.88,25.91,2.87-2.88,11.75-12.39,15.83-10.08,1.44,10.08,1.44,41.75,25.91,37.43,0-11.52-8.18-30.23-2.88-38.87C259,336.75,265.86,336.78,268.74,336.78Z" style="fill:#fff"/><path d="M423.19,333.85c-14.4-1.44-30.23,5.75-36,8.63-4.32,0-11.52-1.44-14.4,0,2.88,2.88,4.32,2.88,7.2,4.32V354c2.88,0,6.58-5.16,10.08-5.76,5-.85,18.17,2.81,23,1.44,3-.84,8.62-6.09,11.51-7.2,1.69-.64,4.32,0,7.2,0C428.94,336.73,426.27,334.15,423.19,333.85Z" style="fill:#fff"/><path d="M466.88,245.23s5.76-18.71-1.44-27.35c-10.08,5.76-17.27,27.35-21.59,37.43-2.63,2-10.27.94-13,2.88-1.44,2.88-4.32,7.2-4.32,11.52,4.32,1.44,9.44-6.79,13-7.2,4.3-.51,13.05,2.42,17.27,1.44s10.73-6.41,14.4-10.08c2.88-1.44,4.32-1.44,8.63-1.44C477,243.79,466.88,245.23,466.88,245.23Z" style="fill:#fff"/><path d="M450.27,232.18c-1.33-3.25-4.12-7.1-6.42-7.1-2.88,0-5.48,7.68-5.76,10.08-.49,4.07.92,12.73,4,16.07C443.61,247.69,448,237.17,450.27,232.18Z" style="fill:#fff"/><path d="M1199.05,311.3a42,42,0,0,0,9.16,4.1c3.86.83,6.9-1.53,8.55-3.66-1.15.11-2.64.18-4.58.18C1209.09,311.92,1204.85,311.74,1199.05,311.3Z" style="fill:#fff"/></svg>