<svg id="Layer_1" data-name="Layer 1" xmlns="http://www.w3.org/2000/svg" viewBox="0 0 341.42 225.81"><defs><style>.cls-1{fill:#587877;}.cls-2{fill:#def0ef;}.cls-3{fill:#c1e2c9;}.cls-4{fill:#afdcf0;}.cls-5{fill:#9bd8da;}.cls-6{fill:#ffcfd8;}.cls-7{fill:#faeaee;}</style></defs><rect class="cls-1" width="341.42" height="225.81"/><path class="cls-2" d="M244,133.64a3,3,0,0,0-1.92-1.26c-2-.09-3.12,4.41-7,6-4.61,1.87-6.83,5.25-16.81,7.88-3.1.81-11.28,10.41-15.56,10.35a2.06,2.06,0,0,1-1.24-.38c-1.58-8.92-2.63-16.8,1.58-24.68,2.9-5.44,3.67-18.9,8.4-24.15,4-4.45,6.63-3.94,5.77-7.36-1-4.2-5.77-5.25-12.07-10.5-8.11-6.76-24.27-9.84-33.35-9.89a20.55,20.55,0,0,0-5,.44c-6.77,1.78-16.12,4.25-25.08,8.58a67.52,67.52,0,0,0-9.58,5.6c-2.89,2-11.4,6.06-16,9.16-1.69,1.15-2.84,2.17-2.94,2.92-.53,3.67-4.36,11.13-4,15.9.08.94,1.08,2.16,2.61,3.57h0c1.66,1.53,4,3.27,6.41,5.12,4.56,3.44,9.67,7.23,12.26,10.59a83.3,83.3,0,0,0,6.83,7.7h0c11.66,11.78,29.89,25,43.55,28.23h1.6c15.85.08,33.33-5,47.77-11.31,4.87-2.11,5.68-7.36,8.93-11.55C243.34,149.36,248.36,138.7,244,133.64Zm-80.43,31c-4.16-1.85-6-6.7-9.08-9.82a61.91,61.91,0,0,0-11.51-9.4.79.79,0,0,1-.18-1.1.78.78,0,0,1,1-.26,63.19,63.19,0,0,1,10.8,8.69,32.46,32.46,0,0,1,4.21,4.79c1.6,2.25,2.95,4.62,5.58,5.79.93.41.13,1.77-.79,1.36ZM179.7,86.73c.6-.81,2,0,1.36.8-.39.53,1.46,2.48,1.9,2.77,1.2.75,3.35.9,4.71,1.25a28.63,28.63,0,0,1,8.51,3.63c.85.54.06,1.9-.8,1.36a26,26,0,0,0-7.4-3.28c-1.79-.49-4-.66-5.68-1.54-1.26-.63-3.76-3.43-2.6-4.94Zm-10.95,2.19c-.93-.37-.52-1.89.42-1.51,3.11,1.24,5.11,3.87,7.26,6.3,3.28,3.72,6.67,6,11.63,6.89,4.18.75,7.3,1.07,10.17,4.36a42.75,42.75,0,0,1,6.51,10.38c.41.92-.94,1.72-1.36.8a39.76,39.76,0,0,0-6.71-10.56c-3.11-3.34-7.51-2.91-11.64-4a18.75,18.75,0,0,1-8.84-5.76c-2.24-2.39-4.26-5.57-7.44-6.85Zm24,29c-1.72,1.49-4.48.36-5.14-1.49a3.46,3.46,0,0,1,.19-2.41,2.9,2.9,0,0,1,2.09-1.62c2.83-.62,3.83,1.16,4.07,2.18A3.44,3.44,0,0,1,192.8,118Zm9.57,53.58c-4.2,1.6-10.29,3.12-14.67,1.42-2.28-.88-3.92-3.26-5.08-5.31-1.72-3-1.75-7.85-5.62-9.09a.79.79,0,0,1,.42-1.52,7.43,7.43,0,0,1,4.57,4.62c1.36,3.23,2.07,6.37,4.79,8.87,3.57,3.27,11.19,1,15.17-.51,1-.3,1.4,1.23.47,1.59Z"/><path class="cls-3" d="M134.83,84.27c-3-2.51-7.41-2.39-11.16-1.34-2.17.6-8.83,4.17-10.28,4.62-1.1.35-3.85.44-5,.78-3.45,1-4.47,5.62-4.12,9.29l11.94,5.28-.11.55c4.56-3.1,13.07-7.11,16-9.16a67.52,67.52,0,0,1,9.58-5.6C139.86,88.09,135.64,85,134.83,84.27Z"/><path class="cls-4" d="M116.26,102.9c-11.72-4.16-27.18-14.09-36.43-15.34h-.07L79,87.49H78c-8.4,0-19.95,10-20.48,14.18-.63,5,1.54,13.83,4.83,17.71a31.58,31.58,0,0,0,7.86,4.23c13.69,3.45,27.5,3,41.6,2.43v-.17h0a13.44,13.44,0,0,1-1-1,5,5,0,0,1-1.57-2.55,11.89,11.89,0,0,1,.17-2.92,29.87,29.87,0,0,1,.76-3.24c1.07-3.67,2.69-7.45,3-9.74a2,2,0,0,1,.53-1,7.67,7.67,0,0,1,.77-.74l.48-.4c.35-.27.74-.55,1.16-.83Z"/><path class="cls-3" d="M122.09,152.19c4.83-.31,10.69-1.11,15.28-3a83.3,83.3,0,0,1-6.83-7.7c-2.59-3.36-7.7-7.15-12.26-10.59-4.84,1.25-13.23,3.58-14,4.2s-4,7.64-3.37,10.2c.42,1.66,4.76,6.37,6.07,7a8.52,8.52,0,0,0,3.59.67,19,19,0,0,0,2.14-.08C116.39,152.65,118.45,152.42,122.09,152.19Z"/><path class="cls-5" d="M141.26,109.84c1.49-2.32,6.54-7,10.43-4.23l.62.41.17-.16c-1.42-1,2.74-11.08-.44-13.82-6.55-5.67-17.08-3.49-23.6,2.22-8.41,7.35-3.15,16.28-.07,18.53,2.41,1.77,10.79,2.89,13.72,3.52l.18-.17h0A5.11,5.11,0,0,1,141.26,109.84Z"/><path class="cls-6" d="M162.05,110.54c-3.51-2.46-6-2.15-9.74-4.52l-.62-.41c-3.89-2.72-8.94,1.91-10.43,4.23-1.8,2.8.37,6.1,1,6.29h0c2.59.78,5.38,1.88,6.66,4.27,1.47,2.74.4,4,.92,7.11a9.14,9.14,0,0,0,5.77,6.92C152.86,130.26,167.3,114.21,162.05,110.54Z"/><path class="cls-3" d="M219.19,56.51a5,5,0,0,0-4.26-.19c-2.11.82-4.8,3.62-4.92,5.88s.48,4.51.61,6.78c.3,5.3-1.41,10.42-2.81,15.55-.94,3.39-4.23,9.22-5.56,13.39a6.87,6.87,0,0,0,.09,4.69c.75,1.44,4.94,1.51,5.83-1.73.85-3.08,3.77-16,5.46-24.33.72-3.53,2.93-5.73,4.33-8.46C220.54,63.09,221.59,57.9,219.19,56.51Zm-2.94,9.2a3.48,3.48,0,0,1-4.09-.34,2.24,2.24,0,0,1-.37-1.55,7.58,7.58,0,0,1,3.29-4.48,1.64,1.64,0,0,1,2.14.88,1.78,1.78,0,0,1,.09.33c.41,1.25,0,4.41-1.06,5.16Z"/><path class="cls-4" d="M192.39,110.9a6.2,6.2,0,0,0-4.29.95c-1.72,1-2.32,2.73-2.9,4.6-.52,1.7,2.22,8.94,5.56,10.35,3.84,1.62,4.89-5.73,5.47-9.4S196,111.74,192.39,110.9Zm.41,7.12c-1.72,1.49-4.48.36-5.14-1.49a3.46,3.46,0,0,1,.19-2.41,2.9,2.9,0,0,1,2.09-1.62c2.83-.62,3.83,1.16,4.07,2.18A3.44,3.44,0,0,1,192.8,118Z"/><path class="cls-1" d="M193.89,110.51c-4.43-1.77-9.35,1.77-9.54,6.47-.15,3.61,2.8,8.87,6,10.47h.19c4.08,1.37,5.37-4.11,5.94-7C197.23,116.81,198.21,112.25,193.89,110.51Zm1.14,9.31c-.36,1.91-1.12,7.06-4,6.22-2.49-1.31-4-4.48-4.74-7.06-1.15-3.88,2.14-8.54,6.54-7.16C196.6,113,195.6,116.82,195,119.82Z"/><path class="cls-7" d="M216.14,104.29a24.2,24.2,0,0,0-4.72,4.32c-4.12,5.55-4.35,13.38-6.37,19.87-1.18,3.26-2.79,6.36-3.56,9.74a20,20,0,0,0-.55,3.17,39.69,39.69,0,0,0,.15,7.23c.13,1.24.2,6.5,1.28,7.16,1.33.79,4.2-1.4,6-2.95,1.12-.86,2.2-1.79,3.27-2.71,2-1.66,4-3.74,6.43-4.63a72.69,72.69,0,0,0,8-2.9c1.59-.8,3.09-1.75,4.6-2.7a39.64,39.64,0,0,1,4.05-2.2A11.87,11.87,0,0,0,239,134a6.14,6.14,0,0,1,2.36-2c-.21-.44-.43-.86-.67-1.28,0-.1-1.89-7-3.87-9.86a16.14,16.14,0,0,0-8-6.21.79.79,0,0,0-1,.59.8.8,0,0,0,.07.57c1.53,2.26,3.51,4.28,4.62,6.78-.19-.11-.38-.23-.58-.33-.75-.39-1.66.63-1,1.24a13.83,13.83,0,0,1,4.47,6.83c.21.73.4,1.43.62,2.1a24.94,24.94,0,0,0-3.67-1.89c-.64-.27-1.25.62-.89,1.15s3.07,5.74,1.46,5.92c-.49,0-2.05-1.46-2.45-1.74a55.07,55.07,0,0,0-7.76-4.94.8.8,0,0,0-1.08,1.08c.89,1.51,2.28,2.52,3.24,4,1.64,2.48.78,4.64-1.55,5.79a8.82,8.82,0,0,0-5.53-6.32.79.79,0,0,0-1,.5.85.85,0,0,0,0,.5c.5,1.33,1.09,2.64,1.56,4a7,7,0,0,1,.52,2.26,4.29,4.29,0,0,0,0,1.24,22.83,22.83,0,0,0-2.48-2,.79.79,0,0,0-1,.52v0c-.11.77.14,2.1.08,3.14a20.92,20.92,0,0,0-4.42-3.64c-.53-.37-1.14.14-1.18.68a7.86,7.86,0,0,0,.71,3.38,6.45,6.45,0,0,1,.65,2.39,6.53,6.53,0,0,1-1.17,2.7c-1.28-.72-2.33-1.94-3.68-2.37a.79.79,0,0,0-1,.52v0c-.34,1.12.23,2.62.42,3.9a6.49,6.49,0,0,0-2.82,2.06,6.1,6.1,0,0,0,0-2c-.18-1-.7-1.23.16-2.39.27-.35.67-.33.9-.77a1.74,1.74,0,0,0-.36-1.92c-.63-.92-1.48-1.26-.27-2,.67-.43,2.33-.21,3.06,0a.81.81,0,0,0,1-.57,1.37,1.37,0,0,0,0-.19c.05-1.25-1-2.06-2-2.74a10.81,10.81,0,0,1,1.79-.15.79.79,0,0,0,.68-1.19c-.85-1.6-2.35-2.73-3.46-4.15,2.16.19,4.52,1.77,6.19,2.8a.79.79,0,0,0,1.08-.34.75.75,0,0,0,0-.74,61.79,61.79,0,0,0-4.72-7c.49,0,1,.08,1.49.09a.79.79,0,0,0,.68-1.19,18,18,0,0,0-2.47-3.89c-1.4-1.86.46-2.18,1.91-1.22,1.82,1.19,3.13,3,4.94,4.21.54.35,1.42-.25,1.16-.89-.93-2.28-1.9-4.54-3.05-6.71,2.46,1.17,5.38,2.44,7.54,1a.8.8,0,0,0,.27-1.1.49.49,0,0,0-.11-.14c-2.47-2.37-4.23-5.34-6.86-7.43,3.18.54,5.37,3.63,8.06,5.61.58.43,1.32-.27,1.16-.89a37.29,37.29,0,0,0-2.72-7.72c1.43,1.14,2.76,2.56,4,3.66a.79.79,0,0,0,1.12,0,.77.77,0,0,0,.2-.75,28.25,28.25,0,0,0-1.11-3.6,18.26,18.26,0,0,0,4.55,1.44c.77.1.92-.88.56-1.34-2.82-3.61-6-7.28-10.28-9.15a1.68,1.68,0,0,1-.09.32A4.8,4.8,0,0,1,216.14,104.29Z"/><path class="cls-1" d="M244.73,133.25a.61.61,0,0,0-.12-.16.67.67,0,0,0-.15-.14,4.11,4.11,0,0,0-1.6-1.09,2.23,2.23,0,0,0-1.53,0,6.14,6.14,0,0,0-2.36,2,11.87,11.87,0,0,1-4.25,3.74,39.64,39.64,0,0,0-4.05,2.2c-1.51,1-3,1.9-4.6,2.7a72.69,72.69,0,0,1-8,2.9c-2.46.89-4.47,3-6.43,4.63-1.07.92-2.15,1.85-3.27,2.71-1.84,1.55-4.71,3.74-6,3-1.08-.66-1.15-5.92-1.28-7.16a39.69,39.69,0,0,1-.15-7.23,20,20,0,0,1,.55-3.17c.77-3.38,2.38-6.48,3.56-9.74,2-6.49,2.25-14.32,6.37-19.87a24.2,24.2,0,0,1,4.72-4.32,4.79,4.79,0,0,0,1.82-2.09,1.68,1.68,0,0,0,.09-.32c.53-2.13-1-4.48-2.51-5.83a18.92,18.92,0,0,0-1.72-1.41c-.59-.41-1.09-.72-1.62-1.07l-1.27-.86v-.09q1.41-6.17,2.72-12.36c.58-2.77,1.06-5.37,2.55-7.84a47.45,47.45,0,0,0,3.34-5.89c1.25-2.88,3.18-7.94.32-10.46l-.29-.24-.35-.14c-3-1.21-6,.08-8.07,2.47-3.23,3.68-1.27,7.9-1.31,12.3a46.94,46.94,0,0,1-3.5,15.84c-.31.79-.65,1.56-1,2.34l-.2-.15A37.82,37.82,0,0,0,194.78,83a68.83,68.83,0,0,0-22.05-4.13H171C167.43,79,164.12,80,160.72,81a126.19,126.19,0,0,0-15.78,5.44,15.88,15.88,0,0,1-2.58,1.1,2.56,2.56,0,0,1-2-.28c-.9-.51-1.77-1.09-2.62-1.68a29,29,0,0,0-4.7-3.19c-4.24-1.81-9-.63-12.94,1.22-2,.91-3.92,1.94-5.91,2.82s-4,.61-6,1.22c-3.7,1.07-4.7,5.21-4.7,8.72a175.22,175.22,0,0,0-17-7.81l-.88-.31a22.37,22.37,0,0,0-7.58-1.58c-4,0-8,1.91-11.32,4a30.78,30.78,0,0,0-8.4,7.56c-1.94,2.71-1.83,5.59-1.38,8.83.56,4.12,1.8,9.07,4.53,12.35,1.82,2.19,5.32,3.79,8,4.7,6.22,2.14,13.46,2.56,20,2.86,7.45.34,14.9.07,22.35-.21l.88.74c1.3,1.1,2.66,2.14,4,3.17-2.54.64-5.08,1.3-7.6,2-1.58.45-4.07.77-5.3,2s-2.11,4-2.7,5.73c-.67,1.95-1.38,4.18-.34,6.11a20.16,20.16,0,0,0,5,5.76c2.51,2,6,1.48,9,1.26,4.19-.31,8.42-.52,12.58-1.07a48.84,48.84,0,0,0,5.48-1c1-.24,2-.5,2.94-.82s1.41-.43,2,0a3.55,3.55,0,0,1,.59.5c1.61,1.57,3.27,3.14,5,4.68l1.06.94a133.76,133.76,0,0,0,20.09,14.6,78,78,0,0,0,9.56,4.74c1.16.45,2.33.88,3.5,1.26a21.65,21.65,0,0,0,7.28.95h.93c1.18,0,2.36-.11,3.54-.2h.19L191,178h.39l1.23-.14.6-.06.95-.13.82-.11h.3c.88-.12,1.74-.26,2.61-.41l.36-.06.93-.16.86-.16.58-.11,1.11-.22,2.27-.49c3.51-.79,7-1.74,10.39-2.8,4.78-1.48,9.48-3.21,14.09-5.14,3.54-1.48,5.82-3.16,7.73-6.52.31-.53.62-1,.94-1.56.5-1,1-1.92,1.57-2.85.69-1.12,1.49-2.18,2.26-3.26.35-.5.7-1,1-1.53C245.17,147,248.89,138.77,244.73,133.25ZM206,91.07h0c.2-.47.41-.94.62-1.41V89.6a51.13,51.13,0,0,0,2.5-6.79c1.35-4.82,2.73-9.74,2.23-14.8-.26-2.55-1.21-5.42.22-7.76s4.42-4.38,7.25-3.06c2,1.49.6,5.34-.06,7.18A32.87,32.87,0,0,1,215.25,71c-2.19,3.47-2.76,7.18-3.61,11.13-.66,3.21-1.37,6.42-2.13,9.61h0l-.36,1.6v.09L209,94c-.49,2.12-.81,7.07-2.85,8.34s-3.47,0-3.5-2c0-2.34,1.25-4.73,2.18-6.81.37-.79.73-1.58,1.09-2.41Zm-63.17-1.56a17.75,17.75,0,0,1,3,.31q-.06,7.53-.11,15.06l-.34.17a.62.62,0,0,0,0-.53c-1.55-4.88-2.81-9.83-4-14.81v-.15c.44,0,.95,0,1.45,0Zm7.86,2.4a61.66,61.66,0,0,1-2.53,12.17h0c-.3,0-.61.12-.91.2q.06-7,.11-14.09a10.18,10.18,0,0,1,3.36,1.59Zm1.4,1.48a2.48,2.48,0,0,1,.24.62c.73,2.52-.17,5.55-.57,8a19.83,19.83,0,0,0-.37,2.55,5.82,5.82,0,0,0-1.59-.52A61.61,61.61,0,0,0,152,93.39Zm-3.31,12.22c2.24-.13,4.34,1.89,6.41,2.72a34.83,34.83,0,0,1,6.43,2.84c3.05,2.62-2.34,10.45-3.63,12.9-1.13,2.17-3.61,5.89-3.5,8.89a8.33,8.33,0,0,1-3.8-5.63c-.32-1.86.16-3.79-.34-5.63a7.47,7.47,0,0,0-2.81-4c-1.44-1.07-3.83-1.28-5.09-2.41-3.24-2.89.59-7.25,4-8.93l.6-.27A5.5,5.5,0,0,1,148.73,105.61Zm-9,7.7h.13a7.28,7.28,0,0,0,.63,1.93c-3.09-.48-6.73-.81-9.65-2.07,3,0,5.94,0,8.9.14Zm-11.56-1.82h0a8.8,8.8,0,0,1-1-1.11,12.49,12.49,0,0,1-1.59-2.8A88.87,88.87,0,0,1,140,111.19a5,5,0,0,0-.1.56h-.08c-3.9-.26-7.76,0-11.61-.26Zm12.27-1.78A92.88,92.88,0,0,0,125,105.9a10.43,10.43,0,0,1-.12-3.61c5.33,2.2,10.62,4.46,15.86,6.86a5,5,0,0,0-.31.56Zm-15.2-9a12.15,12.15,0,0,1,1-2.24A14.82,14.82,0,0,1,128,95.9l1.13.92c4.14,3.31,8.61,6.52,11.87,10.69q-7.84-3.53-15.79-6.78ZM130.58,96l-1.25-1-.23-.19a16.76,16.76,0,0,1,2.74-2.08c.32-.19.64-.38,1-.56l.33.41c.34.41.66.83,1,1.25,3.11,4.13,5.67,8.73,9.47,12.28a8.55,8.55,0,0,0-1,.87c-3.36-4.29-7.82-7.58-12-11Zm9.11-6.24a2.9,2.9,0,0,0,.17.69c1.06,4.44,2.2,8.86,3.54,13.23-3-3.25-5.31-7.13-8-10.69-.32-.43-.64-.84-1-1.26-.08-.09-.15-.19-.23-.29a21.4,21.4,0,0,1,5.45-1.69Zm-4.89-4.51a43.64,43.64,0,0,0,4,3.06l-.3.06a22.88,22.88,0,0,0-3.79,1.12c-2.28-1.07-3.69-4-4.7-6.28a10.47,10.47,0,0,1,4.8,2.06ZM128.3,83v.08c1,2.35,2.4,5.51,4.64,7.13a23.71,23.71,0,0,0-2.81,1.61c-2.27-2.59-4.63-5-5.73-8.29a14.78,14.78,0,0,1,3.91-.51Zm-6.83,1.59c.48-.22,1-.41,1.46-.59,1.15,3.48,3.56,6,5.95,8.74a17.18,17.18,0,0,0-2.18,2c-2.84-2.78-5.35-5.87-8.21-8.64,1.05-.51,2.05-1,3-1.49ZM117,86.9l.09.11c3,2.86,5.6,6.11,8.57,9a15.83,15.83,0,0,0-1.06,1.6l-.55.3h0a36.91,36.91,0,0,1-3.87-4.41A37.75,37.75,0,0,0,114.47,88,23.49,23.49,0,0,0,117,86.9Zm7.27,11.34h0a.11.11,0,0,0,0-.08A.11.11,0,0,1,124.31,98.24Zm-11.6-9.73a.84.84,0,0,0,.25.31,38.5,38.5,0,0,1,6.4,6.1,39.31,39.31,0,0,0,3.28,3.78l-2.22,1.2c-4-3.52-8.38-6.46-11.69-10.75A38.77,38.77,0,0,1,112.71,88.51ZM106.33,91a4.29,4.29,0,0,1,1-1.08c3.31,4.33,7.58,7.34,11.67,10.86l-.69.4-.1.06h0c-3.65-1.41-6.9-3.84-10-6.14-.62-.45-1.73-1.63-2.74-1.84A7.55,7.55,0,0,1,106.33,91Zm-1.21,3.87c.34.28.78.53,1.11.77,1.13.82,2.25,1.65,3.4,2.45A44.29,44.29,0,0,0,116,101.9a114.55,114.55,0,0,1-10.91-4.75A16.34,16.34,0,0,1,105.12,94.83Zm-1.44,30.37a200.3,200.3,0,0,1-25.21-1,54.34,54.34,0,0,1-5.92-.93,28.26,28.26,0,0,1-5.88-2.17c-.23-.11-.45-.23-.69-.36l-.5-.27c6.59.5,13.13,1.54,19.69,2.42,1,.13,1.42-1.38.42-1.52-7.48-1-14.94-2.22-22.49-2.63a11.5,11.5,0,0,1-1.83-2.49,24.71,24.71,0,0,1-1.1-2.73c10.15,1.59,20.08,4.22,30.25,5.69,1,.15,1.42-1.37.42-1.52-10.48-1.51-20.72-4.27-31.19-5.83h0a40.94,40.94,0,0,1-1.11-4.36c12.27.52,23.47,7,35.84,7a.79.79,0,0,0,0-1.58c-12.44,0-23.7-6.52-36.08-7a10.07,10.07,0,0,1,1-6.13A117.71,117.71,0,0,0,103.14,112c1,.08,1-1.5,0-1.57a115.61,115.61,0,0,1-43-12,25.06,25.06,0,0,1,4.29-4.26,152.37,152.37,0,0,0,39.33,13.62c1,.2,1.42-1.32.42-1.52A151,151,0,0,1,65.84,93.13a39,39,0,0,1,3.52-2.2,20.59,20.59,0,0,1,2.18-1c8.6,4.83,17.28,9.3,26.87,11.85a.79.79,0,0,0,.42-1.52c-9-2.4-17.25-6.53-25.35-11a17.3,17.3,0,0,1,11.08.33c.54.17,1.07.37,1.6.56.87.34,1.72.69,2.56,1,8.88,3.71,17.21,8.69,26.23,12.09a8,8,0,0,0-2,1.93,7.76,7.76,0,0,0-.83,2.53c-.51,1.91-1.24,3.76-1.87,5.64-.9,2.69-2.56,6.7-1.63,9.61a6.35,6.35,0,0,0,1.33,2.16C107.85,125.13,105.76,125.19,103.68,125.2Zm13.44,26.58c-1,.09-2.25.26-3.49.38,3.84-3.51,9.57-3.29,14.49-4.1,1-.17.58-1.69-.42-1.52-5.63.93-12.08.69-16.1,5.45a1.08,1.08,0,0,0-.16.3,7.91,7.91,0,0,1-4.6-1.11,16.43,16.43,0,0,1-3-3c5.54-4.86,14.34-4.3,21.23-4.91,1-.09,1-1.67,0-1.58-7.3.65-16.25.18-22.17,5.23-.2-.29-.39-.58-.55-.85-1.14-1.91-.16-4.22.57-6.14,0-.08,0-.16.08-.24l18.45-2.61c1-.15.57-1.66-.42-1.52l-17.4,2.46a5.59,5.59,0,0,1,1.71-2.51c1.57-1.08,4.28-1.38,6.1-1.88,2.28-.63,4.58-1.22,6.88-1.79a69.16,69.16,0,0,1,10.69,9c2.24,2.48,4.23,5.15,6.55,7.57l.46.47C129.9,151,123.54,151.27,117.12,151.78Zm120.26,4.32c-.84,1.38-1.56,2.83-2.34,4.19a13,13,0,0,1-3.37,4.19l-.17.11a8.54,8.54,0,0,1-1.5.93l-.31.14L229,166a116.22,116.22,0,0,1-13.2,4.93,116.19,116.19,0,0,1-26.14,5.55,49.27,49.27,0,0,1-6.32.3,15.22,15.22,0,0,1-3.74-.42l-.46-.13c-.33-.09-.66-.17-1-.28a62.13,62.13,0,0,1-10.25-4.47,122.59,122.59,0,0,1-30.32-23c-1.76-1.85-3.46-3.74-5.07-5.68a77,77,0,0,0-13.47-12.22l-.36-.27a73.48,73.48,0,0,1-6.48-5.21l-.55-.53c-2.42-2.45-1.65-5.13-.74-8.26.49-1.7,1.09-3.37,1.67-5s.73-3.28,1.35-4.69c.81-1.86,3.46-3.06,5.12-4l1.44-.84.43-.25c.89-.51,1.78-1,2.68-1.5a13,13,0,0,0,2.91,12.25c3.54,3.92,10.48,3.87,15.3,4.87a.82.82,0,0,0,.44,0,31.79,31.79,0,0,1,3,1.12,6.22,6.22,0,0,1,3.59,5c.21,2.65-.17,5,1.17,7.43a10.23,10.23,0,0,0,5,4.41c1.18,1.69,1.37,3.72,1.89,5.68.44,1.67,1,3.28,1.38,5,.72,3.29,1.43,6.12,3.45,8.88,4.16,5.67,10.53,9,16.19,12.91.84.58,1.62-.79.8-1.36-6-4.16-13.28-7.75-17-14.39-1.62-2.91-1.76-6.4-2.74-9.53-.87-2.76-1.11-5.76-2.78-8.16h0c-1-1.71.73-4.63,1.46-6.14,1.19-2.49,2.57-4.88,3.79-7.36,1.33-2.73,4.24-8.06,1.05-10.56h0l-.13-.1c-2.53-1.67-5.39-2.26-8.07-3.58-.4-.2-.77-.41-1.13-.62a.67.67,0,0,0-.21-.36c-.82-.84.67-5.53.81-6.62.25-1.91.51-4.19-.37-6-1-2.11-3.8-3.34-5.9-4a15.48,15.48,0,0,0-2.62-.57c.26-.14.52-.27.79-.39,1.71-.73,3.45-1.41,5.2-2q3.84-1.38,7.77-2.53l2.08-.64c4.53-1.29,8.85-2.27,13.71-2a70.89,70.89,0,0,1,20.1,4.19,36,36,0,0,1,9.2,4.78c.27.21.56.41.83.61a36.16,36.16,0,0,0-3.36,8.46c-.39,2-.34,4.86,2,5.6a4.6,4.6,0,0,0,5.5-2.5,34.48,34.48,0,0,0,1.85-7.27l.82.52a17.78,17.78,0,0,1,3.69,2.82c1.15,1.24,2.23,3.31.88,4.75-1.5,1.62-3.55,2.65-5,4.35-2.26,2.59-3.37,6-4.29,9.28-1.14,4.09-1.83,8.32-3.15,12.37s-3.47,7.62-4,12.08a37.32,37.32,0,0,0,0,7.62c.08.81.14,1.67.22,2.55.05.39.1.78.16,1.17s.11,1,.15,1.54a16.89,16.89,0,0,0,.59,2.53,1.93,1.93,0,0,0,1.46,1.34h0a5.83,5.83,0,0,0,3.47-.74c.23-.11.45-.24.67-.36.81-.49,1.57-1.06,2.25-1.57,2.26-1.68,4.33-3.59,6.51-5.37.22-.18.43-.34.65-.49a10.93,10.93,0,0,1,2.6-1.71c1.74-.72,3.59-1.14,5.38-1.76a40,40,0,0,0,5.1-2.48c2-1.16,3.86-2.42,5.92-3.42a17.18,17.18,0,0,0,2.76-1.59,16.18,16.18,0,0,0,2.58-2.78c.88-1.11,1.54-2.09,2.6-1.52a2.42,2.42,0,0,1,.7.48l.29.32c2.48,3.32,1.18,8.09-.21,11.6-1.5,3.72-3.91,6.7-6,10.11Z"/><path class="cls-5" d="M156,48.59a10.2,10.2,0,0,1-.07,1.47.72.72,0,0,0,.52-.86l0-.05A.73.73,0,0,0,156,48.59Z"/><path class="cls-5" d="M153.54,46.45c-.13.53.29.57.71.53a6,6,0,0,0-.18-1.09A.79.79,0,0,0,153.54,46.45Z"/><path class="cls-5" d="M181.31,41.11a2.17,2.17,0,0,0-1.09-.57c-6.49-1.92-9.25-2.45-15.75-.58-4.06,1.17-7.94,3.67-12.13,3.22a1.87,1.87,0,0,0-1.07.07c-1,.5-.19,2.06-.53,3.13a22.08,22.08,0,0,1,1,5.47,10.65,10.65,0,0,0,.94,3.59c.52.69,3.44-1.6,4.22-2,3.78-1.9,8.29-1.58,12.42-.64s9,2.06,9.93,1.62c1.25-.58,1.63-2.13,1.8-3.5a83.83,83.83,0,0,0,.57-8.38A2.12,2.12,0,0,0,181.31,41.11Zm-23.9,9.79a3,3,0,0,1-1.75.87c-.06.32-.13.64-.22,1a.79.79,0,0,1-1.52-.42c.05-.18.09-.36.12-.53l-.63-.13a.79.79,0,0,1,.42-1.52,4.2,4.2,0,0,0,.47.08,11.4,11.4,0,0,0,.08-1.65,2,2,0,0,1-2.11-.77,2.3,2.3,0,0,1,.65-3,2.68,2.68,0,0,1,.83-.41.8.8,0,0,1,.9-.69.79.79,0,0,1,.65.53v.08a5,5,0,0,1,1.26.38c.93.39.12,1.75-.8,1.36h-.07c.06.31.1.62.14.93a2.43,2.43,0,0,1,1.71.89A2.19,2.19,0,0,1,157.41,50.9Zm19.13-6.85a4.61,4.61,0,0,0-1.37-1.23,18.12,18.12,0,0,0-.46,2.19c1.15.27,2.1.62,2.31,2a3,3,0,0,1-1.75,3.29,3.2,3.2,0,0,1-1.68.16,7.19,7.19,0,0,1-1.05,1.82c-.63.79-1.74-.33-1.11-1.11a7.18,7.18,0,0,0,.75-1.21,10.47,10.47,0,0,1-1.91-1.41c-.75-.69.37-1.8,1.12-1.12a8.57,8.57,0,0,0,1.33,1,16.83,16.83,0,0,0,.41-2.23,2.62,2.62,0,0,1-1.39-2.66c.08-1.87,1.16-2.55,2.42-2.5.1-.25.22-.5.34-.74.48-.89,1.84-.09,1.36.8-.06.11-.11.22-.16.33a5.06,5.06,0,0,1,2,1.48C178.31,43.72,177.2,44.9,176.54,44.05Z"/><path class="cls-5" d="M173.41,44.38c.07-.53.16-1,.26-1.56A1.45,1.45,0,0,0,173.41,44.38Z"/><path class="cls-5" d="M174.12,48.9a1.29,1.29,0,0,0,1.2-.64c.73-1.13,0-1.51-.79-1.72A22.67,22.67,0,0,1,174.12,48.9Z"/><path class="cls-5" d="M239.54,34.32c-.54.58-1.08,1.16-1.64,1.72,1.07.41,2.11.24,1.89-1A2.06,2.06,0,0,0,239.54,34.32Z"/><path class="cls-5" d="M247.6,29.44a3.4,3.4,0,0,0-1.64-1c-5.26-2-11.13-2-16.33-4.08a30.26,30.26,0,0,0-5.11-2,5.24,5.24,0,0,0-5.07,1.31A23.65,23.65,0,0,1,220,27c-.69,4.1-4.29,5.59-5.24,9.64,2.15-.12,8.18-.63,10.79-.08,1.86.4,3.25,1.93,4.89,2.88,2.8,1.62,9.83,3.39,11.51,2.28.51-.34,4.86-6.2,5.75-9.1A3.53,3.53,0,0,0,247.6,29.44ZM227.54,27.1c.56.85-.8,1.64-1.36.8l-.21-.32-.77,1.14a1.91,1.91,0,0,1,1,1.84A2.58,2.58,0,0,1,224.54,33a2.74,2.74,0,0,1-2.22-.18l-.78,1.23c-.57.84-1.94,0-1.36-.79l.93-1.36c-.18-.17-.36-.35-.52-.52-.68-.75.44-1.87,1.12-1.12.1.11.2.22.31.32L223.1,29a2.53,2.53,0,0,1-.59-2.25,2.29,2.29,0,0,1,2.51-2l.19,0a2,2,0,0,1,.6.27c.13-.2.26-.39.4-.58.57-.84,1.93-.05,1.36.79l-.63.91A7.61,7.61,0,0,0,227.54,27.1Zm17,2.92c-.3.16-.6.34-.89.53a5.41,5.41,0,0,1,.56,1.79c.14,1-1.38,1.42-1.52.42a4.6,4.6,0,0,0-.33-1.26c-.61.52-1.2,1.07-1.76,1.65h0a3.33,3.33,0,0,1,.44,3.44c-1,1.83-2.94,1.61-4.49.6a12.93,12.93,0,0,1-2.21,1.52c-.9.48-1.69-.88-.8-1.36a12.25,12.25,0,0,0,1.8-1.2,4.25,4.25,0,0,1-1.09-2.25c-.08-1,1.5-1,1.58,0a2.19,2.19,0,0,0,.71,1.3c.71-.68,1.39-1.41,2.07-2.13a3.42,3.42,0,0,1-.72-1.45c-.35-1.91,1.65-2.72,3.25-2.66a2.78,2.78,0,0,1,1.46.41,11.76,11.76,0,0,1,1.17-.71C244.66,28.19,245.46,29.55,244.54,30Z"/><path class="cls-5" d="M224.09,27.53l.76-1.11C224.22,26.22,224,26.9,224.09,27.53Z"/><path class="cls-5" d="M224.32,30l-1.06,1.55a.91.91,0,0,0,1.24-.37l0-.07a.75.75,0,0,0-.12-1Z"/><path class="cls-5" d="M239.81,31.1a1,1,0,0,0-.14.85c.47-.5,1-1,1.47-1.43A1.4,1.4,0,0,0,239.81,31.1Z"/><path class="cls-5" d="M245.25,86a2.42,2.42,0,0,0-.39-.21,16.93,16.93,0,0,1-.2,2,1.19,1.19,0,0,0,.64-.18,1,1,0,0,0,.17-1.4A.88.88,0,0,0,245.25,86Z"/><path class="cls-5" d="M242.8,83.77a.89.89,0,0,0,.59.26c0-.51,0-1,.05-1.52a1.38,1.38,0,0,0-.39.09.77.77,0,0,0-.35,1A1.3,1.3,0,0,0,242.8,83.77Z"/><path class="cls-5" d="M271.75,80.23c-1-1.73-9.67-3-13.41-2.46-3.24.5-14.9,3.88-18.12-.14a33.23,33.23,0,0,0-2,10.58c.17,2.37,1.36,5.33,3.73,5.47,1.24.07,3-1,4.11-1.45a24.2,24.2,0,0,1,18.37.49c2.11.94,4.15,2.21,6.45,2.41C271.54,90.9,272.87,82.17,271.75,80.23Zm-25.84,8.88a2.89,2.89,0,0,1-1.45.26c-.06.41-.11.82-.18,1.23-.17,1-1.69.57-1.52-.42.06-.38.11-.77.16-1.15-.42-.15-.82-.33-1.19-.5-.92-.42-.12-1.78.79-1.36.17.08.38.18.61.27.07-.61.13-1.22.17-1.83a3.36,3.36,0,0,1-.62-.11,2.48,2.48,0,0,1-1.46-1.29,2.33,2.33,0,0,1,1.25-3A2.13,2.13,0,0,1,243,81a4.43,4.43,0,0,1,.51-.06.79.79,0,0,1,.95-.59.77.77,0,0,1,.61.77v.15a3.09,3.09,0,0,1,1.3,1.1c.55.84-.76,1.61-1.33.83a6.57,6.57,0,0,1-.05,1A2.94,2.94,0,0,1,247.14,86a2.58,2.58,0,0,1-1.23,3.13Zm21.3-6.69a5.46,5.46,0,0,0-1.43-.59c-.24.73-.48,1.45-.73,2.18,1.07,0,2.13.06,2.65,1.19.72,1.56-.45,3.16-1.86,3.74a4.67,4.67,0,0,1-2.64.26c-.08.22-.16.44-.25.66-.35,1-1.88.53-1.52-.41.09-.24.18-.47.26-.7a15.53,15.53,0,0,1-2.46-1.36c-.84-.55-.05-1.92.8-1.36a15.11,15.11,0,0,0,2.2,1.27l.66-1.85a2.58,2.58,0,0,1-2-1.52,2.73,2.73,0,0,1,1.47-3.57h0a4.94,4.94,0,0,1,2.28-.3c0-.14.09-.27.13-.41a.79.79,0,0,1,1.52.42,1.29,1.29,0,0,1-.08.26,7.23,7.23,0,0,1,1.74.74c.89.54.1,1.91-.76,1.36Z"/><path class="cls-5" d="M263.22,81.74a1.2,1.2,0,0,0-.92,1.37,1.1,1.1,0,0,0,1.11.86c.26-.78.53-1.57.78-2.35A3.23,3.23,0,0,0,263.22,81.74Z"/><path class="cls-5" d="M264.54,85.58c-.25.71-.5,1.42-.76,2.12a3.33,3.33,0,0,0,1-.06c.54-.11,2.53-1.22,1.28-2-.27-.17-1,0-1.32,0Z"/><path class="cls-5" d="M263.33,158.76a2.67,2.67,0,0,1-.16.6,1.71,1.71,0,0,0,.63-.08A.76.76,0,0,0,263.33,158.76Z"/><path class="cls-5" d="M275.3,158.56a4.06,4.06,0,0,0-.63.24,1.58,1.58,0,0,0-.73,1.12h.87C275,159.46,275.15,159,275.3,158.56Z"/><path class="cls-5" d="M284.71,156.29a2.5,2.5,0,0,0-1-1.41c-5.24-1.56-11.14.73-16.25-1.22-2.61-1-4.91-3.07-7.7-3.14a27.78,27.78,0,0,1,.15,3.65c-.55,4.94-2.94,7.23-4,12.09,2.25.16,4.52-.67,6.73-.23a14.41,14.41,0,0,1,3.92,1.76A34.55,34.55,0,0,0,281.07,172a1.7,1.7,0,0,0,1.11-.2c.56-.4.44-1.24.34-1.92C281.88,165.29,284.41,160.9,284.71,156.29Zm-19.4,3.86a.8.8,0,0,1-.55.55,9.54,9.54,0,0,1-2,.27c-.13.49-.25,1-.38,1.48a.79.79,0,0,1-1.52-.42l.3-1.15-.74-.13c-1-.22-.57-1.74.42-1.52a6,6,0,0,1,.72.11c.1-.41.22-.83.32-1.24a1.58,1.58,0,0,1-.58-1.23,1.67,1.67,0,0,1,1.22-1.46c.13-.54.26-1.07.38-1.6.22-1,1.74-.57,1.52.42-.07.32-.15.63-.23,1a3.55,3.55,0,0,1,.47.06c1,.22.56,1.74-.42,1.52a2.7,2.7,0,0,0-.41,0,2.08,2.08,0,0,1-.11.48,2.19,2.19,0,0,1,.85.46,2.54,2.54,0,0,1,.74,2.5ZM279,158.48c-.56,0-1.28-.1-2-.1-.16.51-.33,1-.52,1.52h.21c1.53.15,3,1,2.88,2.71-.15,2.84-3.06,3.58-5.72,3.32-.29.64-.57,1.27-.82,1.89-.38.93-1.9.52-1.52-.42.24-.57.49-1.16.76-1.75a7.59,7.59,0,0,1-1.84-.7.79.79,0,0,1,.8-1.36,7.1,7.1,0,0,0,1.66.69c.41-.89.82-1.8,1.22-2.71a1.69,1.69,0,0,1-1.38-.56,2.65,2.65,0,0,1,.45-3.27,5.09,5.09,0,0,1,2.61-.85c.11-.43.2-.85.28-1.28.18-1,1.7-.57,1.52.42-.05.27-.11.53-.17.8a11.21,11.21,0,0,1,1.59.07c1,.07,1,1.64,0,1.58Z"/><path class="cls-5" d="M275.88,161.43c-.43,1-.9,2-1.36,3.06h.15a5.19,5.19,0,0,0,1.75-.35c.6-.23,2.84-1.48.93-2.52A2.64,2.64,0,0,0,275.88,161.43Z"/><path class="cls-5" d="M132,187.77a.73.73,0,0,0,.42.12c.75,0,.81-.71.68-1.36C132.71,186.9,132.35,187.36,132,187.77Z"/><path class="cls-5" d="M133.76,182.14c-.89.18-.6.83-.29,1.44v.08a12.73,12.73,0,0,0,1-1.25A.76.76,0,0,0,133.76,182.14Z"/><path class="cls-5" d="M144.18,192.41a1.78,1.78,0,0,0,1.26.15c1.07-.31.64-1.17.14-1.87C145.1,191.26,144.64,191.83,144.18,192.41Z"/><path class="cls-5" d="M140.81,181c-3-1.15-6.07-2.58-9.32-2.61,0,0-5.18,7.13-7.93,10.78a2,2,0,0,0-.55,1.42,1.4,1.4,0,0,0,1.43,1,6.51,6.51,0,0,0,1.81-.46c2.58-.8,5.4-.07,7.84,1.07s4.7,2.7,7.2,3.7a17.85,17.85,0,0,0,7.78,1.25,2.43,2.43,0,0,0,1.32-.36c.28-.22,4.46-8.38,6.24-12.2A59,59,0,0,1,140.81,181Zm-3.87.79c-.22.33-.45.66-.69,1a2.8,2.8,0,0,1,0,1c-.09.62-.71.69-1.13.41l-.84,1,.16.36a3.41,3.41,0,0,1-.36,3.11c-.93,1.35-2.17,1-3.19.18a6.88,6.88,0,0,1-.73.58c-.83.59-1.61-.78-.79-1.36.16-.11.32-.24.48-.37a5.48,5.48,0,0,1-.81-1.6.79.79,0,0,1,1.52-.42,7.75,7.75,0,0,0,.39.94c.5-.55,1-1.12,1.43-1.65-.54-1-1.17-2-.69-3.08.88-2,2.66-1.78,3.72-.62a.85.85,0,0,0,.14-.19c.57-.94,2-.15,1.39.71Zm13.43,3.69c-.24.23-.46.47-.69.7a4.45,4.45,0,0,1,.57,2.31.79.79,0,0,1-.87.7.81.81,0,0,1-.7-.7,3.22,3.22,0,0,0-.17-1.11c-.64.67-1.27,1.36-1.89,2.06a3.75,3.75,0,0,1,1.1,2.58,2.58,2.58,0,0,1-2.78,2.12,3.79,3.79,0,0,1-1.73-.52h0c-.6.8-2,0-1.36-.8l.15-.19a5.86,5.86,0,0,1-1-1.5c-.44-.91.92-1.71,1.36-.79a5.63,5.63,0,0,0,.67,1c.54-.68,1.08-1.35,1.64-2-.71-1-1.38-2.13-.69-3.27a3.59,3.59,0,0,1,4.34-1.2,1.59,1.59,0,0,1,.29.15c.24-.23.46-.48.7-.71.67-.65,1.78.46,1.06,1.17Z"/><path class="cls-5" d="M145.28,186.9a1.41,1.41,0,0,0,.38,1.25c.56-.63,1.13-1.26,1.71-1.88a2.41,2.41,0,0,0-.48-.07C146.4,186.22,145.46,186.42,145.28,186.9Z"/></svg>