<svg xmlns="http://www.w3.org/2000/svg" viewBox="0 0 576 576"><title>barks_and_rec</title><path d="M537.63,213.9c-6.57-13.4-42.52-45.16-72-58.15-18.73-8.25-37.9-8.43-51.33-6.27s-28.92,6.85-32.33,9.6c-31-5.65-77.24,40.88-71.83,73.77,3.57,21.71-27,83-9.5,94.62,22,14.67,13.79-11.75,41.36-31.71,14.28-10.34,46-54.53,42.58-62.1,25-1.82,35.5-1.6,55.39,13.57,26.67,20.33,53,134.3,98.67,161.67C538.21,408.65,543.11,225.07,537.63,213.9Z" style="fill:none;stroke:#f59493;stroke-linejoin:round;stroke-width:5px"/><path d="M388.76,150.75c8.36,1.68,16.06,5.63,23.65,9.52l16.16,8.31c-14.4,18-39.79,15.42-59.15,8.37C342,167,369.93,147,388.76,150.75Z" style="fill:#f59493"/><path d="M342.16,273.22c-2.06,14.71-7.25,28.81-16.69,40.28" style="fill:none;stroke:#f59493;stroke-linecap:round;stroke-linejoin:round;stroke-width:5px"/><path d="M334.16,219.9c-.72,6.94-1.52,15.67-11.38,21.35" style="fill:none;stroke:#f59493;stroke-linecap:round;stroke-linejoin:round;stroke-width:5px"/><path d="M308.09,319.29c2,2.44,4.4,4.51,7.5,5,.82.14,2.38-.17,1.94.54a24.45,24.45,0,0,1-5.94,5.84c-1.11.64-7.64-.47-10.33-1.72-1.42-.66-5.43-4.15-5.1-6.13.21-1.24,4-2.28,7.94-4.32A3.35,3.35,0,0,1,308.09,319.29Z" style="fill:#f59493"/><path d="M37.76,213.9c6.57-13.4,42.52-45.16,72-58.15,18.73-8.25,37.9-8.43,51.33-6.27s28.92,6.85,32.33,9.6c31-5.65,77.24,40.88,71.83,73.77-3.57,21.71,27,83,9.5,94.62-22,14.67-13.79-11.75-41.36-31.71-14.28-10.34-46-54.53-42.58-62.1-24.95-1.82-35.5-1.6-55.39,13.57-26.67,20.33-53,134.3-98.67,161.67C37.19,408.65,32.29,225.07,37.76,213.9Z" style="fill:none;stroke:#f59493;stroke-linejoin:round;stroke-width:5px"/><path d="M186.64,150.75c-8.36,1.68-16.06,5.63-23.65,9.52l-16.16,8.31c14.4,18,39.79,15.42,59.15,8.37C233.44,167,205.47,147,186.64,150.75Z" style="fill:#f59493"/><path d="M233.24,273.22c2.06,14.71,7.25,28.81,16.69,40.28" style="fill:none;stroke:#f59493;stroke-linecap:round;stroke-linejoin:round;stroke-width:5px"/><path d="M241.24,219.9c.72,6.94,1.52,15.67,11.38,21.35" style="fill:none;stroke:#f59493;stroke-linecap:round;stroke-linejoin:round;stroke-width:5px"/><path d="M267.31,319.29c-2,2.44-4.4,4.51-7.5,5-.82.14-2.38-.17-1.94.54a24.45,24.45,0,0,0,5.94,5.84c1.11.64,7.64-.47,10.33-1.72,1.42-.66,5.43-4.15,5.1-6.13-.21-1.24-4-2.28-7.94-4.32A3.35,3.35,0,0,0,267.31,319.29Z" style="fill:#f59493"/><path d="M147.35,409.32q-1,0-2.39-.06t-2.83-.24q-1.46-.18-2.89-.45a13.92,13.92,0,0,1-2.63-.75q-3.28-1.25-3.28-4.36V375.61a2.62,2.62,0,0,1,.69-1.94,4.92,4.92,0,0,1,1.88-1.1,22.81,22.81,0,0,1,5.07-1,58.45,58.45,0,0,1,6.27-.33q7.64,0,11.76,2.57a8.7,8.7,0,0,1,4.12,7.94,7.18,7.18,0,0,1-1.55,4.63,8.86,8.86,0,0,1-4.18,2.83,10.34,10.34,0,0,1,5,3,8,8,0,0,1,2,5.55q0,5.91-4.39,8.74T147.35,409.32Zm-3.88-23h4.36a5.87,5.87,0,0,0,3.73-1,3.42,3.42,0,0,0,1.16-2.8,3,3,0,0,0-1.34-2.57,7,7,0,0,0-4-1q-.9,0-2.06.06a15.2,15.2,0,0,0-1.82.18Zm0,14.56a10.64,10.64,0,0,0,2.15.33q1.31.09,2.51.09a7.39,7.39,0,0,0,4-1,3.36,3.36,0,0,0,1.58-3.07,3.07,3.07,0,0,0-1.31-2.8,7.58,7.58,0,0,0-4-.84h-4.89Z" style="fill:#f59089"/><path d="M181.42,378.47a24.52,24.52,0,0,1,5.88.66,13.18,13.18,0,0,1,4.54,2,9,9,0,0,1,2.89,3.4,10.9,10.9,0,0,1,1,4.86v13.37a3.7,3.7,0,0,1-.87,2.54,8.63,8.63,0,0,1-2.06,1.7q-3.88,2.33-10.92,2.33a25,25,0,0,1-5.7-.6,13.49,13.49,0,0,1-4.36-1.79,8.2,8.2,0,0,1-2.8-3,9,9,0,0,1-1-4.3,8.08,8.08,0,0,1,2.45-6.33q2.45-2.21,7.58-2.75l7.82-.84v-.42a2.56,2.56,0,0,0-1.52-2.48A10.24,10.24,0,0,0,180,386a20.35,20.35,0,0,0-4.42.48,23.53,23.53,0,0,0-3.88,1.19,4.14,4.14,0,0,1-1.31-1.64,5.19,5.19,0,0,1-.54-2.3,3.84,3.84,0,0,1,.75-2.48,5.78,5.78,0,0,1,2.3-1.58,18,18,0,0,1,4.09-1A35.6,35.6,0,0,1,181.42,378.47Zm.48,23.45a13.25,13.25,0,0,0,2.24-.21,5.47,5.47,0,0,0,1.82-.57v-4.77l-4.3.36a6.62,6.62,0,0,0-2.75.72,1.93,1.93,0,0,0-1.07,1.79,2.37,2.37,0,0,0,.92,1.94A5.06,5.06,0,0,0,181.9,401.92Z" style="fill:#f59089"/><path d="M212.09,408.31a14,14,0,0,1-1.88.36,19.25,19.25,0,0,1-2.66.18,14,14,0,0,1-2.36-.18,4,4,0,0,1-1.76-.72,3.43,3.43,0,0,1-1.1-1.46,6.3,6.3,0,0,1-.39-2.42v-17.9a5.08,5.08,0,0,1,.51-2.36,5.52,5.52,0,0,1,1.46-1.76,10.55,10.55,0,0,1,2.36-1.4,24.37,24.37,0,0,1,3-1.1,25.45,25.45,0,0,1,3.34-.75,22.57,22.57,0,0,1,3.46-.27,8.14,8.14,0,0,1,4.54,1.1,4,4,0,0,1,1.67,3.61,5.78,5.78,0,0,1-.24,1.64,7.51,7.51,0,0,1-.6,1.46q-1.25,0-2.57.12t-2.57.36q-1.25.24-2.36.51a10.41,10.41,0,0,0-1.88.63Z" style="fill:#f59089"/><path d="M254.82,403.12a7.45,7.45,0,0,1-1.64,4.3,5,5,0,0,1-3.91,1.49,6.32,6.32,0,0,1-3.4-.92,13.29,13.29,0,0,1-3.22-3.13l-5.91-7.4v10.86l-1.94.33a16.21,16.21,0,0,1-2.6.21,14,14,0,0,1-2.36-.18,4,4,0,0,1-1.76-.72,3.43,3.43,0,0,1-1.1-1.46,6.31,6.31,0,0,1-.39-2.42V369.52c.44-.12,1.08-.25,1.94-.39a16.18,16.18,0,0,1,2.6-.21,14.08,14.08,0,0,1,2.36.18,4,4,0,0,1,1.76.72,3.46,3.46,0,0,1,1.1,1.46,6.35,6.35,0,0,1,.39,2.42v15.75L247,379a8.26,8.26,0,0,1,5,1.37,4.14,4.14,0,0,1,1.88,3.46,4.37,4.37,0,0,1-.3,1.64,6,6,0,0,1-.92,1.52,13.49,13.49,0,0,1-1.61,1.64l-2.3,2-3.46,3Z" style="fill:#f59089"/><path d="M283.34,399.71a8.4,8.4,0,0,1-3.4,7.1q-3.4,2.56-10,2.57a28.31,28.31,0,0,1-4.66-.36,13.32,13.32,0,0,1-3.67-1.1,6.56,6.56,0,0,1-2.39-1.88,4.3,4.3,0,0,1-.87-2.69,4.58,4.58,0,0,1,.6-2.42,6,6,0,0,1,1.43-1.64,23.76,23.76,0,0,0,4,1.7,16.3,16.3,0,0,0,5.16.75,6,6,0,0,0,2.83-.54,1.61,1.61,0,0,0,1-1.43,1.5,1.5,0,0,0-.72-1.31,6.65,6.65,0,0,0-2.39-.78l-1.79-.36q-5.19-1-7.73-3.19a7.77,7.77,0,0,1-2.54-6.24,8.23,8.23,0,0,1,3.64-7A13.49,13.49,0,0,1,266,379a20.36,20.36,0,0,1,5.34-.66,24.87,24.87,0,0,1,4.15.33,13.52,13.52,0,0,1,3.37,1,6.1,6.1,0,0,1,2.27,1.7,3.85,3.85,0,0,1,.84,2.48,5.09,5.09,0,0,1-.51,2.36,5.29,5.29,0,0,1-1.28,1.64,7.43,7.43,0,0,0-1.43-.63q-1-.33-2.09-.6t-2.3-.45a14.06,14.06,0,0,0-2.12-.18,8.18,8.18,0,0,0-3,.45,1.48,1.48,0,0,0-1.07,1.4,1.26,1.26,0,0,0,.6,1.07,6.83,6.83,0,0,0,2.27.78l1.85.42q5.73,1.31,8.15,3.61A7.83,7.83,0,0,1,283.34,399.71Z" style="fill:#f59089"/><path d="M324.94,385.81a12,12,0,0,1,2.12-.69,9.64,9.64,0,0,1,2-.21,5.55,5.55,0,0,1,2.33.42,3.39,3.39,0,0,1,1.4,1.16,4.48,4.48,0,0,1,.69,1.76,12.75,12.75,0,0,1,.18,2.21,18.49,18.49,0,0,1-2.45,9.19l4.59,4.42a5.43,5.43,0,0,1-1.55,3.7,4.64,4.64,0,0,1-3.4,1.43,6.63,6.63,0,0,1-4.65-2.27l-1.13-1.07a17.94,17.94,0,0,1-5,2.54,20.23,20.23,0,0,1-6.3.92,19,19,0,0,1-6.21-.92,13.52,13.52,0,0,1-4.54-2.54,10.61,10.61,0,0,1-2.8-3.79,11.67,11.67,0,0,1-1-4.74,11,11,0,0,1,.66-3.94,10.85,10.85,0,0,1,1.73-3,12.1,12.1,0,0,1,2.39-2.24,15.11,15.11,0,0,1,2.68-1.52,8.91,8.91,0,0,1-1.7-3,10.13,10.13,0,0,1-.51-3,7.87,7.87,0,0,1,.78-3.46,8.33,8.33,0,0,1,2.21-2.8,10.27,10.27,0,0,1,3.49-1.85,15.4,15.4,0,0,1,4.68-.66q3.76,0,5.31,1.34a4.33,4.33,0,0,1,1.55,3.43,5.18,5.18,0,0,1-1.55,3.7,7.25,7.25,0,0,0-1.52-.48,9,9,0,0,0-1.82-.18,6,6,0,0,0-2.6.33,1.74,1.74,0,0,0-1,1.73,2.86,2.86,0,0,0,.78,1.82q.77.93,1.91,2.06l7.64,7.4a22.62,22.62,0,0,0,.45-3.1Q324.94,388.14,324.94,385.81Zm-16.17,10.86a4.74,4.74,0,0,0,1.4,3.49,5.63,5.63,0,0,0,4.15,1.4,10.35,10.35,0,0,0,2.51-.33,8.25,8.25,0,0,0,2.51-1.1l-7.64-7.7a5,5,0,0,0-2.18,1.79,4.37,4.37,0,0,0-.75,2.45Z" style="fill:#f59089"/><path d="M363.43,396.67v11.46a16.67,16.67,0,0,1-2.06.36,22,22,0,0,1-2.78.18,12.47,12.47,0,0,1-2.42-.21,4.06,4.06,0,0,1-1.73-.75,3.31,3.31,0,0,1-1-1.49,7.26,7.26,0,0,1-.36-2.51v-28.1a2.62,2.62,0,0,1,.69-1.94,4.91,4.91,0,0,1,1.88-1.1,22.35,22.35,0,0,1,4.71-1,47.31,47.31,0,0,1,5.73-.33q8.24,0,12.41,3.46a11.53,11.53,0,0,1,4.18,9.37,10.46,10.46,0,0,1-1.91,6.33,13.72,13.72,0,0,1-4.54,4.06q2.15,2.92,4.24,5.49a35.63,35.63,0,0,1,3.28,4.65,5.62,5.62,0,0,1-2.18,3.19,6.06,6.06,0,0,1-3.55,1.1,7.63,7.63,0,0,1-2.27-.3,5.48,5.48,0,0,1-1.67-.83,6.79,6.79,0,0,1-1.31-1.31,17.24,17.24,0,0,1-1.13-1.67l-5-8.06Zm3.76-7.94a5.21,5.21,0,0,0,3.58-1.16,4.35,4.35,0,0,0,1.31-3.43,4.12,4.12,0,0,0-1.46-3.43,7.42,7.42,0,0,0-4.62-1.16,13.79,13.79,0,0,0-1.43.06q-.54.06-1.19.18v9Z" style="fill:#f59089"/><path d="M403,409.32a20.9,20.9,0,0,1-6.53-1,14.79,14.79,0,0,1-5.25-3,13.69,13.69,0,0,1-3.52-5,17.56,17.56,0,0,1-1.28-7,16.33,16.33,0,0,1,1.28-6.77,13.11,13.11,0,0,1,8.15-7.34,17.82,17.82,0,0,1,5.49-.87,16.57,16.57,0,0,1,5.76,1,13.86,13.86,0,0,1,4.48,2.63,11.7,11.7,0,0,1,2.92,4,12.26,12.26,0,0,1,1,5.07,4.07,4.07,0,0,1-1.13,3.1,5.67,5.67,0,0,1-3.16,1.37l-14.74,2.21a5,5,0,0,0,2.69,3,10.53,10.53,0,0,0,4.65,1,16.65,16.65,0,0,0,4.63-.63,14.68,14.68,0,0,0,3.55-1.46,5,5,0,0,1,1.61,1.67,4.38,4.38,0,0,1-1.85,6.27,13.28,13.28,0,0,1-4.3,1.37A30.2,30.2,0,0,1,403,409.32Zm-1.67-23.45a5.92,5.92,0,0,0-2.48.48,5,5,0,0,0-1.7,1.22,5.06,5.06,0,0,0-1,1.67,6.83,6.83,0,0,0-.39,1.88L406,389.45a4.52,4.52,0,0,0-1.31-2.39,4.4,4.4,0,0,0-3.31-1.19Z" style="fill:#f59089"/><path d="M436.83,386.47A8.41,8.41,0,0,0,434,387a6.6,6.6,0,0,0-2.33,1.4,6.86,6.86,0,0,0-1.58,2.3,8,8,0,0,0-.6,3.22,7,7,0,0,0,2.12,5.55,7.57,7.57,0,0,0,5.16,1.85,10.26,10.26,0,0,0,3.1-.42,19,19,0,0,0,2.33-.89,6.19,6.19,0,0,1,1.79,1.82,4.47,4.47,0,0,1,.6,2.36,4.18,4.18,0,0,1-2.33,3.79,13,13,0,0,1-6.45,1.34,19.86,19.86,0,0,1-6.8-1.1,15.34,15.34,0,0,1-5.22-3.1,13.7,13.7,0,0,1-3.37-4.8,15.67,15.67,0,0,1-1.19-6.21,17.18,17.18,0,0,1,1.28-6.89,13.33,13.33,0,0,1,3.49-4.86,14.78,14.78,0,0,1,5.1-2.86,19.39,19.39,0,0,1,6.12-1,11.9,11.9,0,0,1,6.62,1.55,4.65,4.65,0,0,1,2.33,4,4.36,4.36,0,0,1-.54,2.12,7.41,7.41,0,0,1-1.25,1.7,19.31,19.31,0,0,0-2.45-.92A10.35,10.35,0,0,0,436.83,386.47Z" style="fill:#f59089"/><path d="M139.17,453.83a7.36,7.36,0,0,1-.91.16,9.74,9.74,0,0,1-1.23.08,5.51,5.51,0,0,1-1-.07,1.9,1.9,0,0,1-.78-.33,1.43,1.43,0,0,1-.48-.66,3.23,3.23,0,0,1-.16-1.11V439.42a1.16,1.16,0,0,1,.3-.86,2.17,2.17,0,0,1,.83-.49,9.86,9.86,0,0,1,2-.46,18.46,18.46,0,0,1,2.31-.15A8.69,8.69,0,0,1,145.6,439a5.15,5.15,0,0,1,1.93,4.23,6.35,6.35,0,0,1-.41,2.34,4.86,4.86,0,0,1-1.22,1.8,5.47,5.47,0,0,1-2,1.16,9,9,0,0,1-2.9.45h-1.88Zm1.38-8.49a2.53,2.53,0,0,0,1.71-.52,2.31,2.31,0,0,0,0-3.12,2.68,2.68,0,0,0-1.81-.54h-.7a4.36,4.36,0,0,0-.57.07v4.1Z" style="fill:#f59493"/><path d="M153.53,453.91a6.14,6.14,0,0,1-.83.16,8.54,8.54,0,0,1-1.18.08,6.22,6.22,0,0,1-1-.08,1.78,1.78,0,0,1-.78-.32,1.53,1.53,0,0,1-.49-.65A2.79,2.79,0,0,1,149,452v-7.9a2.25,2.25,0,0,1,.22-1,2.45,2.45,0,0,1,.65-.78,4.7,4.7,0,0,1,1-.62,10.8,10.8,0,0,1,1.33-.49,11.15,11.15,0,0,1,1.48-.33,10,10,0,0,1,1.53-.12,3.61,3.61,0,0,1,2,.49,1.78,1.78,0,0,1,.74,1.6,2.55,2.55,0,0,1-.11.73,3.3,3.3,0,0,1-.26.65,8.85,8.85,0,0,0-1.14,0c-.39,0-.77.09-1.14.16l-1,.22a4.59,4.59,0,0,0-.83.28Z" style="fill:#f59493"/><path d="M166.19,454.36a9.26,9.26,0,0,1-2.89-.44,6.54,6.54,0,0,1-2.33-1.31,6.06,6.06,0,0,1-1.56-2.19,7.78,7.78,0,0,1-.57-3.09,7.23,7.23,0,0,1,.57-3,5.81,5.81,0,0,1,3.61-3.25,7.9,7.9,0,0,1,2.43-.38,7.36,7.36,0,0,1,2.55.42,6.15,6.15,0,0,1,2,1.16,5.19,5.19,0,0,1,1.29,1.77,5.44,5.44,0,0,1,.46,2.25,1.8,1.8,0,0,1-.5,1.37,2.51,2.51,0,0,1-1.4.61l-6.53,1a2.2,2.2,0,0,0,1.19,1.31,4.66,4.66,0,0,0,2.06.44,7.36,7.36,0,0,0,2-.28,6.49,6.49,0,0,0,1.57-.65,2.22,2.22,0,0,1,.71.74,1.94,1.94,0,0,1-.62,2.67l-.2.11a5.9,5.9,0,0,1-1.9.61A13.45,13.45,0,0,1,166.19,454.36ZM165.45,444a2.63,2.63,0,0,0-1.1.21,2.19,2.19,0,0,0-1.19,1.28,3.06,3.06,0,0,0-.17.83l4.52-.74a1.94,1.94,0,0,0-2.06-1.58Z" style="fill:#f59493"/><path d="M180.06,440.69a7.56,7.56,0,0,1,2.13.3,5.23,5.23,0,0,1,1.81.91,7.89,7.89,0,0,1,1.78-.87,8,8,0,0,1,4.36-.08,5,5,0,0,1,1.72.83,4,4,0,0,1,1.2,1.51,5.26,5.26,0,0,1,.45,2.29v8.33a6.17,6.17,0,0,1-.83.16,8.53,8.53,0,0,1-1.18.08,6.23,6.23,0,0,1-1-.08,1.78,1.78,0,0,1-.78-.32,1.52,1.52,0,0,1-.49-.65A2.79,2.79,0,0,1,189,452v-6.32a1.38,1.38,0,0,0-.45-1.15,1.9,1.9,0,0,0-1.22-.36,2.12,2.12,0,0,0-.79.17,2.3,2.3,0,0,0-.63.36.82.82,0,0,1,0,.2v9a7.41,7.41,0,0,1-.86.16,8.35,8.35,0,0,1-1.15.08,6.23,6.23,0,0,1-1-.08,1.78,1.78,0,0,1-.78-.32,1.52,1.52,0,0,1-.49-.65,2.79,2.79,0,0,1-.17-1.07V445.7a1.33,1.33,0,0,0-.49-1.15,1.94,1.94,0,0,0-1.18-.36,2.1,2.1,0,0,0-.82.15,6.43,6.43,0,0,0-.58.28v9.28a6.14,6.14,0,0,1-.83.16,8.54,8.54,0,0,1-1.18.08,6.22,6.22,0,0,1-1-.08,1.78,1.78,0,0,1-.78-.32,1.53,1.53,0,0,1-.49-.65,2.79,2.79,0,0,1-.17-1.07v-8a1.91,1.91,0,0,1,.3-1.14,3.43,3.43,0,0,1,.83-.79,7.6,7.6,0,0,1,2.23-1A9.76,9.76,0,0,1,180.06,440.69Z" style="fill:#f59493"/><path d="M196.16,437.52a2.32,2.32,0,0,1,.67-1.69,2.66,2.66,0,0,1,3.57,0,2.46,2.46,0,0,1,0,3.38,2.66,2.66,0,0,1-3.57,0A2.32,2.32,0,0,1,196.16,437.52Zm4.71,16.39-.86.15a7.16,7.16,0,0,1-1.15.09,6.22,6.22,0,0,1-1-.08,1.78,1.78,0,0,1-.78-.32,1.54,1.54,0,0,1-.49-.65,2.81,2.81,0,0,1-.17-1.07V441.28l.86-.15a7.16,7.16,0,0,1,1.15-.09,6.24,6.24,0,0,1,1,.08,1.79,1.79,0,0,1,.78.32,1.54,1.54,0,0,1,.49.65,2.82,2.82,0,0,1,.17,1.07Z" style="fill:#f59493"/><path d="M210.51,454.36a9.26,9.26,0,0,1-2.89-.44,6.54,6.54,0,0,1-2.33-1.31,6.06,6.06,0,0,1-1.56-2.19,7.78,7.78,0,0,1-.57-3.09,7.23,7.23,0,0,1,.57-3,5.81,5.81,0,0,1,3.61-3.25,7.9,7.9,0,0,1,2.43-.38,7.36,7.36,0,0,1,2.55.42,6.15,6.15,0,0,1,2,1.16,5.19,5.19,0,0,1,1.29,1.77,5.44,5.44,0,0,1,.46,2.25,1.8,1.8,0,0,1-.5,1.37,2.51,2.51,0,0,1-1.4.61l-6.53,1a2.2,2.2,0,0,0,1.19,1.31,4.66,4.66,0,0,0,2.06.44,7.36,7.36,0,0,0,2-.28,6.49,6.49,0,0,0,1.57-.65,2.22,2.22,0,0,1,.71.74,1.94,1.94,0,0,1-.62,2.67l-.2.11a5.9,5.9,0,0,1-1.9.61A13.45,13.45,0,0,1,210.51,454.36ZM209.77,444a2.63,2.63,0,0,0-1.1.21,2.19,2.19,0,0,0-1.19,1.28,3.06,3.06,0,0,0-.17.83l4.52-.74a1.94,1.94,0,0,0-2.06-1.58Z" style="fill:#f59493"/><path d="M222.73,453.91a6.14,6.14,0,0,1-.83.16,8.54,8.54,0,0,1-1.18.08,6.22,6.22,0,0,1-1-.08,1.78,1.78,0,0,1-.78-.32,1.53,1.53,0,0,1-.49-.65,2.79,2.79,0,0,1-.17-1.07V444.1a2.25,2.25,0,0,1,.22-1,2.45,2.45,0,0,1,.65-.78,4.7,4.7,0,0,1,1-.62,10.8,10.8,0,0,1,1.33-.49,11.15,11.15,0,0,1,1.48-.33,10,10,0,0,1,1.53-.12,3.61,3.61,0,0,1,2,.49,1.78,1.78,0,0,1,.74,1.6,2.55,2.55,0,0,1-.11.73,3.3,3.3,0,0,1-.26.65,8.85,8.85,0,0,0-1.14,0c-.39,0-.77.09-1.14.16l-1,.22a4.59,4.59,0,0,0-.83.28Z" style="fill:#f59493"/><path d="M239.35,453.83a7.36,7.36,0,0,1-.91.16,9.74,9.74,0,0,1-1.23.08,5.51,5.51,0,0,1-1.07-.09,1.9,1.9,0,0,1-.78-.33,1.43,1.43,0,0,1-.48-.66,3.23,3.23,0,0,1-.16-1.11V439.42a1.16,1.16,0,0,1,.3-.86,2.17,2.17,0,0,1,.83-.49,9.86,9.86,0,0,1,2-.46,18.46,18.46,0,0,1,2.31-.15A8.69,8.69,0,0,1,245.8,439a5.15,5.15,0,0,1,1.93,4.23,6.35,6.35,0,0,1-.41,2.34,4.86,4.86,0,0,1-1.22,1.8,5.47,5.47,0,0,1-2,1.16,9,9,0,0,1-2.84.41h-1.88Zm1.38-8.49a2.53,2.53,0,0,0,1.71-.52,2.31,2.31,0,0,0,0-3.12,2.68,2.68,0,0,0-1.81-.54h-.7a4.36,4.36,0,0,0-.57.07v4.1Z" style="fill:#f59493"/><path d="M262.64,447.51a8,8,0,0,1-.5,2.92,5.92,5.92,0,0,1-1.41,2.15,6,6,0,0,1-2.18,1.32,8.42,8.42,0,0,1-2.83.45,8,8,0,0,1-2.83-.48,6.22,6.22,0,0,1-2.18-1.36,6,6,0,0,1-1.41-2.15,7.7,7.7,0,0,1-.5-2.85,7.62,7.62,0,0,1,.5-2.83,6,6,0,0,1,1.41-2.15,6.2,6.2,0,0,1,2.18-1.36,8,8,0,0,1,2.83-.48,7.81,7.81,0,0,1,2.83.49,6.38,6.38,0,0,1,2.18,1.38,6.06,6.06,0,0,1,1.41,2.15A7.54,7.54,0,0,1,262.64,447.51Zm-9.25,0A4.17,4.17,0,0,0,254,450a2,2,0,0,0,1.73.86,1.94,1.94,0,0,0,1.71-.87,4.33,4.33,0,0,0,.59-2.46,4.2,4.2,0,0,0-.61-2.45,2.15,2.15,0,0,0-3.44,0,4.19,4.19,0,0,0-.59,2.43Z" style="fill:#f59493"/><path d="M278.13,447.51a8,8,0,0,1-.5,2.92,5.93,5.93,0,0,1-1.41,2.15A6,6,0,0,1,274,453.9a8.43,8.43,0,0,1-2.83.45,8,8,0,0,1-2.83-.48,6.23,6.23,0,0,1-2.18-1.36,6.08,6.08,0,0,1-1.41-2.15,7.7,7.7,0,0,1-.5-2.85,7.62,7.62,0,0,1,.5-2.83,6.07,6.07,0,0,1,1.41-2.15,6.21,6.21,0,0,1,2.18-1.36,8,8,0,0,1,2.83-.48,7.81,7.81,0,0,1,2.83.49,6.39,6.39,0,0,1,2.18,1.38,6.07,6.07,0,0,1,1.41,2.15A7.56,7.56,0,0,1,278.13,447.51Zm-9.25,0a4.17,4.17,0,0,0,.62,2.47,2,2,0,0,0,1.73.86,1.94,1.94,0,0,0,1.71-.87,4.33,4.33,0,0,0,.59-2.46,4.2,4.2,0,0,0-.61-2.45,2.15,2.15,0,0,0-3.44,0A4.2,4.2,0,0,0,268.88,447.51Z" style="fill:#f59493"/><path d="M287.57,444.24a3.73,3.73,0,0,0-1.26.21,2.91,2.91,0,0,0-1,.62,3,3,0,0,0-.7,1,3.55,3.55,0,0,0-.26,1.43,3.09,3.09,0,0,0,.94,2.46,3.36,3.36,0,0,0,2.29.82,4.57,4.57,0,0,0,1.38-.18,8.52,8.52,0,0,0,1-.4,2.72,2.72,0,0,1,.79.81,2,2,0,0,1,.26,1,1.85,1.85,0,0,1-1,1.68,5.74,5.74,0,0,1-2.85.59,8.79,8.79,0,0,1-3-.49,6.78,6.78,0,0,1-2.31-1.37,6.07,6.07,0,0,1-1.49-2.13,6.93,6.93,0,0,1-.53-2.75,7.61,7.61,0,0,1,.57-3,5.89,5.89,0,0,1,1.55-2.15,6.54,6.54,0,0,1,2.26-1.27,8.61,8.61,0,0,1,2.71-.42,5.27,5.27,0,0,1,2.93.69,2.06,2.06,0,0,1,1,1.77,1.93,1.93,0,0,1-.24.94,3.3,3.3,0,0,1-.56.75,8.75,8.75,0,0,0-1.08-.41A4.6,4.6,0,0,0,287.57,444.24Z" style="fill:#f59493"/><path d="M305.94,453.91a6.17,6.17,0,0,1-.83.16,8.53,8.53,0,0,1-1.18.08,6.23,6.23,0,0,1-1-.08,1.78,1.78,0,0,1-.78-.32,1.52,1.52,0,0,1-.49-.65,2.81,2.81,0,0,1-.17-1.07v-5.87a1.85,1.85,0,0,0-.54-1.52,2.06,2.06,0,0,0-1.33-.44,3.74,3.74,0,0,0-1,.13,2.86,2.86,0,0,0-.77.32v9.25a6.17,6.17,0,0,1-.83.16,8.52,8.52,0,0,1-1.18.08,6.22,6.22,0,0,1-1-.08,1.78,1.78,0,0,1-.78-.32,1.53,1.53,0,0,1-.49-.65,2.79,2.79,0,0,1-.17-1.07V436.7l.86-.15a7.17,7.17,0,0,1,1.15-.09,6.24,6.24,0,0,1,1,.08,1.77,1.77,0,0,1,.78.32,1.52,1.52,0,0,1,.49.65,2.81,2.81,0,0,1,.17,1.07v2.59a9.48,9.48,0,0,1,1-.3,6.51,6.51,0,0,1,1.55-.17,5.92,5.92,0,0,1,4.08,1.31,5,5,0,0,1,1.47,3.9Z" style="fill:#f59493"/><path d="M319,453.83a7.38,7.38,0,0,1-.91.16,9.71,9.71,0,0,1-1.23.08,5.52,5.52,0,0,1-1.07-.09,1.9,1.9,0,0,1-.78-.33,1.42,1.42,0,0,1-.48-.66,3.21,3.21,0,0,1-.16-1.11V439.42a1.16,1.16,0,0,1,.3-.86,2.17,2.17,0,0,1,.83-.49,9.85,9.85,0,0,1,2-.46,18.46,18.46,0,0,1,2.31-.15,8.69,8.69,0,0,1,5.58,1.56,5.15,5.15,0,0,1,1.93,4.23,6.37,6.37,0,0,1-.41,2.34,4.86,4.86,0,0,1-1.22,1.8,5.47,5.47,0,0,1-2,1.16,9,9,0,0,1-2.84.41H319Zm1.38-8.49a2.53,2.53,0,0,0,1.7-.52,2,2,0,0,0,.59-1.57,1.94,1.94,0,0,0-.62-1.55,2.68,2.68,0,0,0-1.81-.54h-.7a4.34,4.34,0,0,0-.57.07v4.1Z" style="fill:#f59493"/><path d="M334.38,440.69a10.88,10.88,0,0,1,2.6.29,5.83,5.83,0,0,1,2,.89,4,4,0,0,1,1.28,1.51,4.83,4.83,0,0,1,.45,2.15v5.92a1.64,1.64,0,0,1-.38,1.12,3.82,3.82,0,0,1-.91.75,9.45,9.45,0,0,1-4.84,1,11,11,0,0,1-2.52-.26,6,6,0,0,1-1.93-.79,3.63,3.63,0,0,1-1.24-1.35,4,4,0,0,1-.44-1.9,3.58,3.58,0,0,1,1.08-2.8A5.84,5.84,0,0,1,332.9,446l3.46-.37v-.18a1.13,1.13,0,0,0-.67-1.1,4.55,4.55,0,0,0-1.94-.33,9,9,0,0,0-2,.21,10.42,10.42,0,0,0-1.72.53,1.83,1.83,0,0,1-.58-.73,2.3,2.3,0,0,1-.24-1,1.69,1.69,0,0,1,.33-1.1,2.57,2.57,0,0,1,1-.7,7.9,7.9,0,0,1,1.81-.42A15.77,15.77,0,0,1,334.38,440.69Zm.21,10.39a6,6,0,0,0,1-.09,2.42,2.42,0,0,0,.81-.25v-2.11l-1.9.16a2.93,2.93,0,0,0-1.22.32.85.85,0,0,0-.48.79,1,1,0,0,0,.41.86,2.24,2.24,0,0,0,1.38.32Z" style="fill:#f59493"/><path d="M349.63,440.69a7.56,7.56,0,0,1,2.13.3,5.23,5.23,0,0,1,1.81.91,7.85,7.85,0,0,1,1.78-.87,7.36,7.36,0,0,1,2.39-.34,7.44,7.44,0,0,1,2,.26,5,5,0,0,1,1.72.83,4,4,0,0,1,1.2,1.51,5.26,5.26,0,0,1,.45,2.29v8.33a6.14,6.14,0,0,1-.83.16,8.54,8.54,0,0,1-1.18.08,6.23,6.23,0,0,1-1-.08,1.78,1.78,0,0,1-.78-.32,1.52,1.52,0,0,1-.49-.65,2.79,2.79,0,0,1-.17-1.07v-6.32a1.38,1.38,0,0,0-.45-1.15,1.9,1.9,0,0,0-1.22-.36,2.12,2.12,0,0,0-.79.17,2.3,2.3,0,0,0-.63.36.82.82,0,0,1,0,.2v9a7.44,7.44,0,0,1-.86.16,8.33,8.33,0,0,1-1.15.08,6.22,6.22,0,0,1-1-.08,1.78,1.78,0,0,1-.78-.32,1.53,1.53,0,0,1-.49-.65A2.79,2.79,0,0,1,351,452v-6.32a1.33,1.33,0,0,0-.49-1.15,1.94,1.94,0,0,0-1.18-.36,2.1,2.1,0,0,0-.82.15,6.4,6.4,0,0,0-.58.28v9.28a6.17,6.17,0,0,1-.83.16,8.52,8.52,0,0,1-1.18.08,6.22,6.22,0,0,1-1-.08,1.78,1.78,0,0,1-.78-.32,1.54,1.54,0,0,1-.49-.65,2.81,2.81,0,0,1-.17-1.07v-8a1.91,1.91,0,0,1,.3-1.14,3.44,3.44,0,0,1,.83-.79,7.62,7.62,0,0,1,2.23-1A9.76,9.76,0,0,1,349.63,440.69Z" style="fill:#f59493"/><path d="M371.73,440.69a10.17,10.17,0,0,1,3,.41,6.3,6.3,0,0,1,2.34,1.26,5.82,5.82,0,0,1,1.53,2.13,7.65,7.65,0,0,1,.55,3,8.41,8.41,0,0,1-.48,3,5.8,5.8,0,0,1-1.35,2.13,5.5,5.5,0,0,1-2.1,1.28,8.39,8.39,0,0,1-2.74.42,6.35,6.35,0,0,1-2.11-.34v4.39a7.24,7.24,0,0,1-.85.17,7.58,7.58,0,0,1-1.19.09,6.22,6.22,0,0,1-1-.08,1.79,1.79,0,0,1-.78-.32,1.44,1.44,0,0,1-.48-.65,3,3,0,0,1-.16-1.07V443.84a2,2,0,0,1,.3-1.16,3.21,3.21,0,0,1,.83-.82,7,7,0,0,1,2-.85A10.81,10.81,0,0,1,371.73,440.69Zm0,10.1q2.72,0,2.72-3.25a3.91,3.91,0,0,0-.67-2.51,2.37,2.37,0,0,0-1.94-.82,3.13,3.13,0,0,0-.9.12,3.58,3.58,0,0,0-.69.28v5.82a4,4,0,0,0,.69.26A2.88,2.88,0,0,0,371.78,450.79Z" style="fill:#f59493"/><path d="M388.09,454.36a9.26,9.26,0,0,1-2.89-.44,6.55,6.55,0,0,1-2.33-1.31,6.06,6.06,0,0,1-1.56-2.19,7.78,7.78,0,0,1-.57-3.09,7.23,7.23,0,0,1,.57-3,5.8,5.8,0,0,1,3.61-3.25,7.9,7.9,0,0,1,2.43-.38,7.36,7.36,0,0,1,2.55.42,6.15,6.15,0,0,1,2,1.16,5.19,5.19,0,0,1,1.29,1.77,5.42,5.42,0,0,1,.46,2.25,1.81,1.81,0,0,1-.5,1.37,2.51,2.51,0,0,1-1.4.61l-6.53,1a2.2,2.2,0,0,0,1.19,1.31,4.66,4.66,0,0,0,2.06.44,7.36,7.36,0,0,0,2-.28,6.48,6.48,0,0,0,1.57-.65,2.23,2.23,0,0,1,.71.74,1.94,1.94,0,0,1-.62,2.67l-.2.11a5.91,5.91,0,0,1-1.9.61A13.44,13.44,0,0,1,388.09,454.36ZM387.35,444a2.62,2.62,0,0,0-1.1.21,2.17,2.17,0,0,0-1.19,1.28,3,3,0,0,0-.17.83l4.52-.74a1.94,1.94,0,0,0-2.06-1.58Z" style="fill:#f59493"/><path d="M400.3,453.91a6.17,6.17,0,0,1-.83.16,8.52,8.52,0,0,1-1.18.08,6.22,6.22,0,0,1-1-.08,1.78,1.78,0,0,1-.78-.32,1.54,1.54,0,0,1-.49-.65,2.81,2.81,0,0,1-.17-1.07V444.1a2.25,2.25,0,0,1,.23-1,2.45,2.45,0,0,1,.65-.78,4.7,4.7,0,0,1,1-.62,10.8,10.8,0,0,1,1.33-.49,11.17,11.17,0,0,1,1.48-.33,10,10,0,0,1,1.53-.12,3.61,3.61,0,0,1,2,.49,1.78,1.78,0,0,1,.74,1.6,2.54,2.54,0,0,1-.11.73,3.24,3.24,0,0,1-.26.65q-.56,0-1.14,0a6.14,6.14,0,0,0-1.14.16l-1,.22a4.56,4.56,0,0,0-.83.28Z" style="fill:#f59493"/><path d="M413,454.36a9.26,9.26,0,0,1-2.89-.44,6.55,6.55,0,0,1-2.33-1.31,6.06,6.06,0,0,1-1.56-2.19,7.78,7.78,0,0,1-.57-3.09,7.23,7.23,0,0,1,.57-3,5.8,5.8,0,0,1,3.61-3.25,7.9,7.9,0,0,1,2.43-.38,7.36,7.36,0,0,1,2.55.42,6.15,6.15,0,0,1,2,1.16A5.19,5.19,0,0,1,418.1,444a5.42,5.42,0,0,1,.46,2.25,1.81,1.81,0,0,1-.5,1.37,2.51,2.51,0,0,1-1.4.61l-6.53,1a2.2,2.2,0,0,0,1.19,1.31,4.66,4.66,0,0,0,2.06.44,7.36,7.36,0,0,0,2-.28,6.48,6.48,0,0,0,1.57-.65,2.23,2.23,0,0,1,.71.74,1.94,1.94,0,0,1-.62,2.67l-.2.11a5.91,5.91,0,0,1-1.9.61A13.44,13.44,0,0,1,413,454.36ZM412.22,444a2.62,2.62,0,0,0-1.1.21,2.17,2.17,0,0,0-1.19,1.28,3,3,0,0,0-.17.83l4.52-.74a1.94,1.94,0,0,0-2.06-1.58Z" style="fill:#f59493"/><path d="M425.17,453.91a6.17,6.17,0,0,1-.83.16,8.52,8.52,0,0,1-1.18.08,6.22,6.22,0,0,1-1-.08,1.78,1.78,0,0,1-.78-.32,1.54,1.54,0,0,1-.49-.65,2.81,2.81,0,0,1-.17-1.07V444.1a2.25,2.25,0,0,1,.23-1,2.45,2.45,0,0,1,.65-.78,4.7,4.7,0,0,1,1-.62,10.8,10.8,0,0,1,1.33-.49,11.17,11.17,0,0,1,1.48-.33,10,10,0,0,1,1.53-.12,3.61,3.61,0,0,1,2,.49,1.78,1.78,0,0,1,.74,1.6,2.54,2.54,0,0,1-.11.73,3.24,3.24,0,0,1-.26.65q-.56,0-1.14,0a6.14,6.14,0,0,0-1.14.16l-1,.22a4.56,4.56,0,0,0-.83.28Z" style="fill:#f59493"/><path d="M442.38,450.1a3.72,3.72,0,0,1-1.51,3.15,7.3,7.3,0,0,1-4.44,1.14,12.58,12.58,0,0,1-2.06-.16,5.94,5.94,0,0,1-1.63-.49,2.91,2.91,0,0,1-1.06-.83,1.9,1.9,0,0,1-.38-1.19,2,2,0,0,1,.26-1.07,2.66,2.66,0,0,1,.63-.73,10.45,10.45,0,0,0,1.76.75,7.21,7.21,0,0,0,2.29.33,2.68,2.68,0,0,0,1.26-.24.71.71,0,0,0,.44-.63.67.67,0,0,0-.32-.58,3,3,0,0,0-1.06-.34l-.79-.16a7.43,7.43,0,0,1-3.42-1.41,3.44,3.44,0,0,1-1.12-2.76,3.65,3.65,0,0,1,1.61-3.09,6,6,0,0,1,1.84-.82,9,9,0,0,1,2.37-.29,11.05,11.05,0,0,1,1.84.15,6,6,0,0,1,1.49.44,2.7,2.7,0,0,1,1,.75,1.7,1.7,0,0,1,.37,1.1,2.26,2.26,0,0,1-.22,1,2.33,2.33,0,0,1-.57.73,3.24,3.24,0,0,0-.63-.28,7.43,7.43,0,0,0-.93-.26l-1-.2a6.23,6.23,0,0,0-.94-.08,3.63,3.63,0,0,0-1.35.2.66.66,0,0,0-.48.62.56.56,0,0,0,.26.48,3,3,0,0,0,1,.34l.82.19a7.81,7.81,0,0,1,3.61,1.6A3.47,3.47,0,0,1,442.38,450.1Z" style="fill:#f59493"/></svg>