<svg xmlns="http://www.w3.org/2000/svg" xmlns:xlink="http://www.w3.org/1999/xlink" viewBox="0 0 477.84 350"><defs><pattern id="a" width="611.28" height="697.01" patternTransform="translate(272.92 153.2) scale(0.5)" patternUnits="userSpaceOnUse" viewBox="0 0 611.28 697.01"><rect width="611.28" height="697.01" style="fill:none"/><path d="M571.21,596.49c-2.5,5.18-2.25,12.12,2.05,15.95,3.75,3.34,9.52,3.45,14.24,1.71s8.66-5,12.68-8a141.74,141.74,0,0,1,26-15.47c3.69-1.69,7.59-3.24,11.65-3.19s13.75,2.43,15.35,6.16c2.08,4.85-23.72,26.72-31.34,32.32-18,13.24-39.06,22.18-53.82,39-6.61,7.53-11.07,19.54-4.51,27.11,6.25,7.21,17.78,5.25,26.83,2.2,2.95-1,6-2.12,8.08-4.44s2.73-6.2.61-8.47c-5.13-5.47-23.8,8.27-29,2.87-3.81-4,9-13.36,13.52-16.5l35.74-24.85c16.85-11.72,35.18-25.73,38-46.06.73-5.16.29-10.71-2.52-15.11-3.64-5.71-10.76-8.5-17.53-8.46s-13.29,2.51-19.42,5.4c-13.79,6.49-29.69,20.15-40.63,30.77-1.77-.4.15-5.9,5.37-13,10.1-13.8,41.42-44,46.86-43.37,29.73,3.39,59.25-14.38,52.49-26.59-13.82-25-61.93,15.19-78.06,30.58C592.37,568,578.44,581.54,571.21,596.49Z" style="fill:#f49392"/><path d="M603.19,675.9c0-.94-.28-2.1.49-2.65s2.32,1.4,2.89.55c4.64-7,12-8.62,15.12-2.19,2.47,5.11-2.9,14.9-12,10.74-2.68-1.23-8.6,3-10.74,3.34a1.52,1.52,0,0,1-.93-.07,1.63,1.63,0,0,1-.62-1.31C596.79,679.52,603.18,680.69,603.19,675.9Z" style="fill:none;stroke:#f49392;stroke-miterlimit:10;stroke-width:3px"/><path d="M605,673.49c1.38,1.22,4.76,4.54,7.22,4.54a4.5,4.5,0,0,0,4.28-3.92c0-2.91-5.29-3.71-9.94-.32" style="fill:none;stroke:#f49392;stroke-linecap:round;stroke-linejoin:round;stroke-width:3px"/><circle cx="609.83" cy="496.8" r="20.08" style="fill:#d5c429"/><path d="M590,495.61c4.15-1,6.35-4.91,9.31-8,10.47-10.9,20.47-2.74,23.18.64,4.72,5.9,3.29,12.33-2,16.67s-12.75,5.56-17.15,10.87" style="fill:none;stroke:#fff;stroke-linecap:round;stroke-linejoin:round;stroke-width:3px"/><path d="M402.06,580c-6.13-.26-8.76,6.39-10.94,10.33-1.19,2.15-7,7.13-4,12.6a6,6,0,0,0,6.89,3.28c2.82-.76,4.58-3,7.45-2.44s6.5,2.64,8.33,2.68c3.26.08,4.65-.64,6.12-3.56,2.12-4.19-1.5-10.06-4.08-12.92C408.22,585.94,409.23,580.25,402.06,580Z" style="fill:#f4c6c6"/><path d="M408.62,564.2c-4.4-.06-7.92,6-4.83,12.12.68,1.36,4.35,2.55,6.35.77C413.86,573.78,413.71,564.27,408.62,564.2Z" style="fill:#f4c6c6"/><path d="M412.52,583.69c0,2.76,1.58,4.31,3.86,3.94,7.21-1.18,7.24-9.37,3.18-11C417.38,575.81,412.54,580.61,412.52,583.69Z" style="fill:#f4c6c6"/><path d="M390.21,566.93c-3.44,1.83-1.67,11,1.54,12.49a5.29,5.29,0,0,0,6.59-1.93C400.11,574.38,395,564.36,390.21,566.93Z" style="fill:#f4c6c6"/><path d="M380.87,579.42c-2.19,2.64-.58,6.53.48,7.77a4.76,4.76,0,0,0,4.35,1.71,3.58,3.58,0,0,0,2.8-3.48C388.5,580.54,382.21,577.81,380.87,579.42Z" style="fill:#f4c6c6"/><path d="M461.77,615.14c5.48-4.28,24,1.06,21.51,29.28-.51,5.7-1.8,9-.19,14.47,1.31,4.48-12.58,6.33-14.41,5.48C464.07,662.23,446.79,626.83,461.77,615.14Z" style="fill:#f4c6c6"/><path d="M485.25,666.77c1.72,1.26,6.14,16,.17,18.71-9,4.13-14-5.22-14.74-14.2C470.5,669.11,483.74,665.67,485.25,666.77Z" style="fill:#f4c6c6"/><path d="M351.89,659.5c-3.38.34-9.52,9.53-.69,15.65,14.46,10,64.8,11.57,81.3-1,11.23-8.54,1.52-18.76-2.7-18.22" style="fill:#a3d9d0"/><path d="M352.65,665.06c7.95,11,67.66,15.26,78.9-2.34,1.06-1.67-6.82-16.47-9.58-21.48-5.54-10.08-56.32-10.78-62.78,1.11C357.44,645.6,350.78,662.73,352.65,665.06Z" style="fill:#fff;stroke:#a3d9d0;stroke-linecap:round;stroke-linejoin:round;stroke-width:3px"/><path d="M365.66,643.88c4.9,5.07,16.93,5.71,27.45,5.71,8.65,0,20.1-2.3,23.33-7.24" style="fill:#a3d9d0;stroke:#a3d9d0;stroke-linecap:round;stroke-linejoin:round;stroke-width:3px"/><path d="M265.57,596.49c-2.5,5.18-2.25,12.12,2.05,15.95,3.75,3.34,9.52,3.45,14.24,1.71s8.66-5,12.68-8a141.74,141.74,0,0,1,26-15.47c3.69-1.69,7.59-3.24,11.65-3.19s13.75,2.43,15.35,6.16c2.08,4.85-23.72,26.72-31.34,32.32-18,13.24-39.06,22.18-53.82,39-6.61,7.53-11.07,19.54-4.51,27.11,6.25,7.21,17.78,5.25,26.83,2.2,2.95-1,6-2.12,8.08-4.44s2.73-6.2.61-8.47c-5.13-5.47-23.8,8.27-29,2.87-3.81-4,9-13.36,13.52-16.5l35.74-24.85c16.85-11.72,35.18-25.73,38-46.06.73-5.16.29-10.71-2.52-15.11-3.64-5.71-10.76-8.5-17.53-8.46s-13.29,2.51-19.42,5.4c-13.79,6.49-29.69,20.15-40.63,30.77-1.77-.4.15-5.9,5.37-13,10.1-13.8,41.42-44,46.86-43.37,29.73,3.39,59.25-14.38,52.49-26.59-13.82-25-61.93,15.19-78.06,30.58C286.72,568,272.8,581.54,265.57,596.49Z" style="fill:#f49392"/><path d="M297.55,675.9c0-.94-.28-2.1.49-2.65s2.32,1.4,2.89.55c4.64-7,12-8.62,15.12-2.19,2.47,5.11-2.9,14.9-12,10.74-2.68-1.23-8.6,3-10.74,3.34a1.52,1.52,0,0,1-.93-.07,1.63,1.63,0,0,1-.62-1.31C291.15,679.52,297.54,680.69,297.55,675.9Z" style="fill:none;stroke:#f49392;stroke-miterlimit:10;stroke-width:3px"/><path d="M299.36,673.49c1.38,1.22,4.76,4.54,7.22,4.54a4.5,4.5,0,0,0,4.28-3.92c0-2.91-5.29-3.71-9.94-.32" style="fill:none;stroke:#f49392;stroke-linecap:round;stroke-linejoin:round;stroke-width:3px"/><path d="M355.35,523.93c-7,2.22-19.12,11.67-25,17.5,6.72,1.72,35.78.61,41.6-12.61C375.31,521.14,362.22,521.76,355.35,523.93Z" style="fill:#fff;stroke:#f49392;stroke-miterlimit:10;stroke-width:3px"/><circle cx="532.95" cy="639.2" r="20.08" style="fill:#d5c429"/><path d="M519.64,654.16c2.79-4.59,13.8-11.79,23.6-10.21a9.21,9.21,0,0,1,7.09,5.92" style="fill:none;stroke:#fff;stroke-linecap:round;stroke-linejoin:round;stroke-width:3px"/><path d="M515.3,627.64c11.73-5.71,20.14-2.18,27.91-5.71" style="fill:none;stroke:#fff;stroke-linecap:round;stroke-linejoin:round;stroke-width:3px"/><circle cx="304.19" cy="496.8" r="20.08" style="fill:#d5c429"/><path d="M284.41,495.61c4.15-1,6.35-4.91,9.31-8,10.47-10.9,20.47-2.74,23.18.64,4.72,5.9,3.29,12.33-2,16.67s-12.75,5.56-17.15,10.87" style="fill:none;stroke:#fff;stroke-linecap:round;stroke-linejoin:round;stroke-width:3px"/><circle cx="468.3" cy="555.72" r="20.08" style="fill:#d5c429"/><path d="M484.44,542.13c-2.64-1-7.29,2.08-9.2,10.57-2.08,9.26,3.33,18.48,5.23,19.33" style="fill:none;stroke:#fff;stroke-linecap:round;stroke-linejoin:round;stroke-width:3px"/><path d="M459.36,536.44c-8.66,3.42-9.47,32.4-4.85,35" style="fill:none;stroke:#fff;stroke-linecap:round;stroke-linejoin:round;stroke-width:3px"/><path d="M486.88,505.3a16.94,16.94,0,0,1-7.22-2.5c-2.09-1.49-3.59-4.07-3.12-6.6.53-2.81,3.29-4.72,6.08-5.38a29.18,29.18,0,0,1,8.56-.52c6.36.42,38.14-9.42,41.92-12,3.15-2.15,2.72-12.21,9.28-12.13,2.87,0,5.87,1.17,7.1,3.77,1.05,2.23,1.09,6.67.82,9.11" style="fill:none;stroke:#a3d9d0;stroke-linecap:round;stroke-linejoin:round;stroke-width:3px"/><path d="M481.72,505.5c-3,4.35.15,10.39,6.27,9.78,6.9-.68,9-9.17,11.07-12s34.26-14.33,46.58-13.2c4,.37,8.78,1.25,11.58-1.68,2-2.09,2.06-5.57.6-8.06a11.08,11.08,0,0,0-7-4.79" style="fill:none;stroke:#a3d9d0;stroke-linecap:round;stroke-linejoin:round;stroke-width:3px"/><path d="M424.41,496.79c-6-.25-8.56,6.25-10.69,10.1-1.16,2.1-6.79,7-3.91,12.31a5.9,5.9,0,0,0,6.73,3.21c2.76-.74,4.48-2.94,7.28-2.39s6.35,2.58,8.14,2.62c3.19.08,4.54-.63,6-3.48,2.07-4.09-1.47-9.83-4-12.63C430.44,502.65,431.42,497.09,424.41,496.79Z" style="fill:#f4c6c6"/><path d="M430.83,481.4c-4.3-.06-7.74,5.85-4.72,11.85.67,1.33,4.25,2.49,6.2.76C435.95,490.76,435.8,481.47,430.83,481.4Z" style="fill:#f4c6c6"/><path d="M434.64,500.44c0,2.7,1.54,4.21,3.77,3.85,7-1.15,7.08-9.15,3.1-10.71C439.39,492.75,434.66,497.43,434.64,500.44Z" style="fill:#f4c6c6"/><path d="M412.83,484.07c-3.36,1.79-1.63,10.73,1.51,12.2a5.17,5.17,0,0,0,6.44-1.89C422.51,491.35,417.54,481.56,412.83,484.07Z" style="fill:#f4c6c6"/><path d="M403.71,496.27c-2.14,2.58-.57,6.38.47,7.59a4.65,4.65,0,0,0,4.25,1.67,3.49,3.49,0,0,0,2.73-3.4C411.17,497.37,405,494.69,403.71,496.27Z" style="fill:#f4c6c6"/><path d="M543.3,527.2c-5.48-4.28-24,1.06-21.51,29.28.51,5.7,1.8,9,.19,14.47-1.31,4.48,12.58,6.33,14.41,5.48C541,574.3,558.28,538.9,543.3,527.2Z" style="fill:#f4c6c6"/><path d="M519.82,578.84c-1.72,1.26-6.14,16-.17,18.71,9,4.13,14-5.22,14.74-14.2C534.57,581.17,521.32,577.74,519.82,578.84Z" style="fill:#f4c6c6"/><path d="M96.42,580c-6.13-.26-8.76,6.39-10.94,10.33-1.19,2.15-7,7.13-4,12.6a6,6,0,0,0,6.89,3.28c2.82-.76,4.58-3,7.45-2.44s6.5,2.64,8.33,2.68c3.26.08,4.65-.64,6.12-3.56,2.12-4.19-1.5-10.06-4.08-12.92C102.58,585.94,103.58,580.25,96.42,580Z" style="fill:#f4c6c6"/><path d="M103,564.2c-4.4-.06-7.92,6-4.83,12.12.68,1.36,4.35,2.55,6.35.77C108.22,573.78,108.07,564.27,103,564.2Z" style="fill:#f4c6c6"/><path d="M106.88,583.69c0,2.76,1.58,4.31,3.86,3.94,7.21-1.18,7.24-9.37,3.18-11C111.74,575.81,106.9,580.61,106.88,583.69Z" style="fill:#f4c6c6"/><path d="M84.57,566.93c-3.44,1.83-1.67,11,1.54,12.49a5.29,5.29,0,0,0,6.59-1.93C94.47,574.38,89.38,564.36,84.57,566.93Z" style="fill:#f4c6c6"/><path d="M75.23,579.42c-2.19,2.64-.58,6.53.48,7.77a4.76,4.76,0,0,0,4.35,1.71,3.58,3.58,0,0,0,2.8-3.48C82.86,580.54,76.57,577.81,75.23,579.42Z" style="fill:#f4c6c6"/><path d="M156.13,615.14c5.48-4.28,24,1.06,21.51,29.28-.51,5.7-1.8,9-.19,14.47,1.31,4.48-12.58,6.33-14.41,5.48C158.43,662.23,141.15,626.83,156.13,615.14Z" style="fill:#f4c6c6"/><path d="M179.61,666.77c1.72,1.26,6.14,16,.17,18.71-9,4.13-14-5.22-14.74-14.2C164.85,669.11,178.1,665.67,179.61,666.77Z" style="fill:#f4c6c6"/><path d="M46.25,659.5c-3.38.34-9.52,9.53-.69,15.65,14.46,10,64.8,11.57,81.3-1,11.23-8.54,1.52-18.76-2.7-18.22" style="fill:#a3d9d0"/><path d="M47,665.06c7.95,11,67.66,15.26,78.9-2.34,1.06-1.67-6.82-16.47-9.58-21.48-5.54-10.08-56.32-10.78-62.78,1.11C51.8,645.6,45.14,662.73,47,665.06Z" style="fill:#fff;stroke:#a3d9d0;stroke-linecap:round;stroke-linejoin:round;stroke-width:3px"/><path d="M60,643.88c4.9,5.07,16.93,5.71,27.45,5.71,8.65,0,20.1-2.3,23.33-7.24" style="fill:#a3d9d0;stroke:#a3d9d0;stroke-linecap:round;stroke-linejoin:round;stroke-width:3px"/><path d="M-40.07,596.49c-2.5,5.18-2.25,12.12,2.05,15.95,3.75,3.34,9.52,3.45,14.24,1.71s8.66-5,12.68-8a141.74,141.74,0,0,1,26-15.47c3.69-1.69,7.59-3.24,11.65-3.19s13.75,2.43,15.35,6.16c2.08,4.85-23.72,26.72-31.34,32.32-18,13.24-39.06,22.18-53.82,39-6.61,7.53-11.07,19.54-4.51,27.11,6.25,7.21,17.78,5.25,26.83,2.2,2.95-1,6-2.12,8.08-4.44s2.73-6.2.61-8.47c-5.13-5.47-23.8,8.27-29,2.87-3.81-4,9-13.36,13.52-16.5L8.06,642.87c16.85-11.72,35.18-25.73,38-46.06.73-5.16.29-10.71-2.52-15.11-3.64-5.71-10.76-8.5-17.53-8.46s-13.29,2.51-19.42,5.4C-7.16,585.14-23.07,598.79-34,609.41c-1.77-.4.15-5.9,5.37-13,10.1-13.8,41.42-44,46.86-43.37,29.73,3.39,59.25-14.38,52.49-26.59C56.89,501.45,8.79,541.6-7.34,557-18.92,568-32.84,581.54-40.07,596.49Z" style="fill:#f49392"/><path d="M-8.1,675.9c0-.94-.28-2.1.49-2.65s2.32,1.4,2.89.55c4.64-7,12-8.62,15.12-2.19,2.47,5.11-2.9,14.9-12,10.74-2.68-1.23-8.6,3-10.74,3.34a1.52,1.52,0,0,1-.93-.07,1.63,1.63,0,0,1-.62-1.31C-14.49,679.52-8.11,680.69-8.1,675.9Z" style="fill:none;stroke:#f49392;stroke-miterlimit:10;stroke-width:3px"/><path d="M-6.28,673.49C-4.9,674.71-1.52,678,.94,678a4.5,4.5,0,0,0,4.28-3.92c0-2.91-5.29-3.71-9.94-.32" style="fill:none;stroke:#f49392;stroke-linecap:round;stroke-linejoin:round;stroke-width:3px"/><path d="M49.71,523.93c-7,2.22-19.12,11.67-25,17.5,6.72,1.72,35.78.61,41.6-12.61C69.67,521.14,56.58,521.76,49.71,523.93Z" style="fill:#fff;stroke:#f49392;stroke-miterlimit:10;stroke-width:3px"/><circle cx="227.31" cy="639.2" r="20.08" style="fill:#d5c429"/><path d="M214,654.16c2.79-4.59,13.8-11.79,23.6-10.21a9.21,9.21,0,0,1,7.09,5.92" style="fill:none;stroke:#fff;stroke-linecap:round;stroke-linejoin:round;stroke-width:3px"/><path d="M209.66,627.64c11.73-5.71,20.14-2.18,27.91-5.71" style="fill:none;stroke:#fff;stroke-linecap:round;stroke-linejoin:round;stroke-width:3px"/><circle cx="-1.45" cy="496.8" r="20.08" style="fill:#d5c429"/><path d="M-21.24,495.61c4.15-1,6.35-4.91,9.31-8,10.47-10.9,20.47-2.74,23.18.64,4.72,5.9,3.29,12.33-2,16.67S-3.45,510.49-7.85,515.8" style="fill:none;stroke:#fff;stroke-linecap:round;stroke-linejoin:round;stroke-width:3px"/><circle cx="162.66" cy="555.72" r="20.08" style="fill:#d5c429"/><path d="M178.8,542.13c-2.64-1-7.29,2.08-9.2,10.57-2.08,9.26,3.33,18.48,5.23,19.33" style="fill:none;stroke:#fff;stroke-linecap:round;stroke-linejoin:round;stroke-width:3px"/><path d="M153.72,536.44c-8.66,3.42-9.47,32.4-4.85,35" style="fill:none;stroke:#fff;stroke-linecap:round;stroke-linejoin:round;stroke-width:3px"/><path d="M181.24,505.3a16.94,16.94,0,0,1-7.22-2.5c-2.09-1.49-3.59-4.07-3.12-6.6.53-2.81,3.29-4.72,6.08-5.38a29.18,29.18,0,0,1,8.56-.52c6.36.42,38.14-9.42,41.92-12,3.15-2.15,2.72-12.21,9.28-12.13,2.87,0,5.87,1.17,7.1,3.77,1.05,2.23,1.09,6.67.82,9.11" style="fill:none;stroke:#a3d9d0;stroke-linecap:round;stroke-linejoin:round;stroke-width:3px"/><path d="M176.08,505.5c-3,4.35.15,10.39,6.27,9.78,6.9-.68,9-9.17,11.07-12s34.26-14.33,46.58-13.2c4,.37,8.78,1.25,11.58-1.68,2-2.09,2.06-5.57.6-8.06a11.08,11.08,0,0,0-7-4.79" style="fill:none;stroke:#a3d9d0;stroke-linecap:round;stroke-linejoin:round;stroke-width:3px"/><path d="M118.77,496.79c-6-.25-8.56,6.25-10.69,10.1-1.16,2.1-6.79,7-3.91,12.31a5.9,5.9,0,0,0,6.73,3.21c2.76-.74,4.48-2.94,7.28-2.39s6.35,2.58,8.14,2.62c3.19.08,4.54-.63,6-3.48,2.07-4.09-1.47-9.83-4-12.63C124.8,502.65,125.78,497.09,118.77,496.79Z" style="fill:#f4c6c6"/><path d="M125.19,481.4c-4.3-.06-7.74,5.85-4.72,11.85.67,1.33,4.25,2.49,6.2.76C130.31,490.76,130.16,481.47,125.19,481.4Z" style="fill:#f4c6c6"/><path d="M129,500.44c0,2.7,1.54,4.21,3.77,3.85,7-1.15,7.08-9.15,3.1-10.71C133.75,492.75,129,497.43,129,500.44Z" style="fill:#f4c6c6"/><path d="M107.19,484.07c-3.36,1.79-1.63,10.73,1.51,12.2a5.17,5.17,0,0,0,6.44-1.89C116.87,491.35,111.9,481.56,107.19,484.07Z" style="fill:#f4c6c6"/><path d="M98.07,496.27c-2.14,2.58-.57,6.38.47,7.59a4.65,4.65,0,0,0,4.25,1.67,3.49,3.49,0,0,0,2.73-3.4C105.53,497.37,99.38,494.69,98.07,496.27Z" style="fill:#f4c6c6"/><path d="M237.66,527.2c-5.48-4.28-24,1.06-21.51,29.28.51,5.7,1.8,9,.19,14.47-1.31,4.48,12.58,6.33,14.41,5.48C235.35,574.3,252.64,538.9,237.66,527.2Z" style="fill:#f4c6c6"/><path d="M214.18,578.84c-1.72,1.26-6.14,16-.17,18.71,9,4.13,14-5.22,14.74-14.2C228.93,581.17,215.68,577.74,214.18,578.84Z" style="fill:#f4c6c6"/><path d="M605.82,347.61c-6.13-.26-8.76,6.39-10.94,10.33-1.19,2.15-7,7.13-4,12.6a6,6,0,0,0,6.89,3.28c2.82-.76,4.58-3,7.45-2.44s6.5,2.64,8.33,2.68c3.26.08,4.65-.64,6.12-3.56,2.12-4.19-1.5-10.06-4.08-12.92C612,353.61,613,347.92,605.82,347.61Z" style="fill:#f4c6c6"/><path d="M612.38,331.86c-4.4-.06-7.92,6-4.83,12.12.68,1.36,4.35,2.55,6.35.77C617.62,341.45,617.47,331.93,612.38,331.86Z" style="fill:#f4c6c6"/><path d="M594,334.59c-3.44,1.83-1.67,11,1.54,12.49a5.29,5.29,0,0,0,6.59-1.93C603.87,342,598.79,332,594,334.59Z" style="fill:#f4c6c6"/><path d="M584.63,347.08c-2.19,2.64-.58,6.53.48,7.77a4.76,4.76,0,0,0,4.35,1.71,3.58,3.58,0,0,0,2.8-3.48C592.26,348.21,586,345.47,584.63,347.08Z" style="fill:#f4c6c6"/><path d="M555.65,427.16c-3.38.34-9.52,9.53-.69,15.65,14.46,10,64.8,11.57,81.3-1,11.23-8.54,1.52-18.76-2.7-18.22" style="fill:#a3d9d0"/><path d="M556.42,432.73c7.95,11,67.66,15.26,78.9-2.34,1.06-1.67-6.82-16.47-9.58-21.48C620.2,398.83,569.42,398.12,563,410,561.2,413.27,554.55,430.39,556.42,432.73Z" style="fill:#fff;stroke:#a3d9d0;stroke-linecap:round;stroke-linejoin:round;stroke-width:3px"/><path d="M569.42,411.54c4.9,5.07,16.93,5.71,27.45,5.71,8.65,0,20.1-2.3,23.33-7.24" style="fill:#a3d9d0;stroke:#a3d9d0;stroke-linecap:round;stroke-linejoin:round;stroke-width:3px"/><path d="M469.33,364.15c-2.5,5.18-2.25,12.12,2.05,15.95,3.75,3.34,9.52,3.45,14.24,1.71s8.66-5,12.68-8a141.74,141.74,0,0,1,26-15.47c3.69-1.69,7.59-3.24,11.65-3.19s13.75,2.43,15.35,6.16c2.08,4.85-23.72,26.72-31.34,32.32-18,13.24-39.06,22.18-53.82,39-6.61,7.53-11.07,19.54-4.51,27.11,6.25,7.21,17.78,5.25,26.83,2.2,2.95-1,6-2.12,8.08-4.44s2.73-6.2.61-8.47c-5.13-5.47-23.8,8.27-29,2.87-3.81-4,9-13.36,13.52-16.5l35.74-24.85c16.85-11.72,35.18-25.73,38-46.06.73-5.16.29-10.71-2.52-15.11-3.64-5.71-10.76-8.5-17.53-8.46s-13.29,2.51-19.42,5.4c-13.79,6.49-29.69,20.15-40.63,30.77-1.77-.4.15-5.9,5.37-13,10.1-13.8,41.42-44,46.86-43.37,29.73,3.39,59.25-14.38,52.49-26.59-13.82-25-61.93,15.19-78.06,30.58C490.48,335.7,476.56,349.2,469.33,364.15Z" style="fill:#f49392"/><path d="M501.31,443.56c0-.94-.28-2.1.49-2.65s2.32,1.4,2.89.55c4.64-7,12-8.62,15.12-2.19,2.47,5.11-2.9,14.9-12,10.74-2.68-1.23-8.6,3-10.74,3.34a1.52,1.52,0,0,1-.93-.07,1.63,1.63,0,0,1-.62-1.31C494.91,447.19,501.3,448.35,501.31,443.56Z" style="fill:none;stroke:#f49392;stroke-miterlimit:10;stroke-width:3px"/><path d="M503.12,441.16c1.38,1.22,4.76,4.54,7.22,4.54a4.5,4.5,0,0,0,4.28-3.92c0-2.91-5.29-3.71-9.94-.32" style="fill:none;stroke:#f49392;stroke-linecap:round;stroke-linejoin:round;stroke-width:3px"/><path d="M559.11,291.6c-7,2.22-19.12,11.67-25,17.5,6.72,1.72,35.78.61,41.6-12.61C579.07,288.8,566,289.42,559.11,291.6Z" style="fill:#fff;stroke:#f49392;stroke-miterlimit:10;stroke-width:3px"/><circle cx="507.95" cy="264.47" r="20.08" style="fill:#d5c429"/><path d="M488.17,263.27c4.15-1,6.35-4.91,9.31-8,10.47-10.9,20.47-2.74,23.18.64,4.72,5.9,3.29,12.33-2,16.67s-12.75,5.56-17.15,10.87" style="fill:none;stroke:#fff;stroke-linecap:round;stroke-linejoin:round;stroke-width:3px"/><path d="M607.47,263.93c-2.14,2.58-.57,6.38.47,7.59a4.65,4.65,0,0,0,4.25,1.67,3.49,3.49,0,0,0,2.73-3.4C614.93,265,608.78,262.36,607.47,263.93Z" style="fill:#f4c6c6"/><path d="M300.18,347.61c-6.13-.26-8.76,6.39-10.94,10.33-1.19,2.15-7,7.13-4,12.6a6,6,0,0,0,6.89,3.28c2.82-.76,4.58-3,7.45-2.44s6.5,2.64,8.33,2.68c3.26.08,4.65-.64,6.12-3.56,2.12-4.19-1.5-10.06-4.08-12.92C306.34,353.61,307.34,347.92,300.18,347.61Z" style="fill:#f4c6c6"/><path d="M306.74,331.86c-4.4-.06-7.92,6-4.83,12.12.68,1.36,4.35,2.55,6.35.77C312,341.45,311.83,331.93,306.74,331.86Z" style="fill:#f4c6c6"/><path d="M310.64,351.35c0,2.76,1.58,4.31,3.86,3.94,7.21-1.18,7.24-9.37,3.18-11C315.5,343.48,310.66,348.27,310.64,351.35Z" style="fill:#f4c6c6"/><path d="M288.33,334.59c-3.44,1.83-1.67,11,1.54,12.49a5.29,5.29,0,0,0,6.59-1.93C298.23,342,293.15,332,288.33,334.59Z" style="fill:#f4c6c6"/><path d="M279,347.08c-2.19,2.64-.58,6.53.48,7.77a4.76,4.76,0,0,0,4.35,1.71,3.58,3.58,0,0,0,2.8-3.48C286.62,348.21,280.33,345.47,279,347.08Z" style="fill:#f4c6c6"/><path d="M359.89,382.8c5.48-4.28,24,1.06,21.51,29.28-.51,5.7-1.8,9-.19,14.47,1.31,4.48-12.58,6.33-14.41,5.48C362.19,429.89,344.91,394.49,359.89,382.8Z" style="fill:#f4c6c6"/><path d="M383.37,434.43c1.72,1.26,6.14,16,.17,18.71-9,4.13-14-5.22-14.74-14.2C368.61,436.77,381.86,433.34,383.37,434.43Z" style="fill:#f4c6c6"/><path d="M250,427.16c-3.38.34-9.52,9.53-.69,15.65,14.46,10,64.8,11.57,81.3-1,11.23-8.54,1.52-18.76-2.7-18.22" style="fill:#a3d9d0"/><path d="M250.77,432.73c7.95,11,67.66,15.26,78.9-2.34,1.06-1.67-6.82-16.47-9.58-21.48-5.54-10.08-56.32-10.78-62.78,1.11C255.56,413.27,248.9,430.39,250.77,432.73Z" style="fill:#fff;stroke:#a3d9d0;stroke-linecap:round;stroke-linejoin:round;stroke-width:3px"/><path d="M263.78,411.54c4.9,5.07,16.93,5.71,27.45,5.71,8.65,0,20.1-2.3,23.33-7.24" style="fill:#a3d9d0;stroke:#a3d9d0;stroke-linecap:round;stroke-linejoin:round;stroke-width:3px"/><path d="M163.69,364.15c-2.5,5.18-2.25,12.12,2.05,15.95,3.75,3.34,9.52,3.45,14.24,1.71s8.66-5,12.68-8a141.74,141.74,0,0,1,26-15.47c3.69-1.69,7.59-3.24,11.65-3.19s13.75,2.43,15.35,6.16c2.08,4.85-23.72,26.72-31.34,32.32-18,13.24-39.06,22.18-53.82,39-6.61,7.53-11.07,19.54-4.51,27.11,6.25,7.21,17.78,5.25,26.83,2.2,2.95-1,6-2.12,8.08-4.44s2.73-6.2.61-8.47c-5.13-5.47-23.8,8.27-29,2.87-3.81-4,9-13.36,13.52-16.5l35.74-24.85c16.85-11.72,35.18-25.73,38-46.06.73-5.16.29-10.71-2.52-15.11-3.64-5.71-10.76-8.5-17.53-8.46s-13.29,2.51-19.42,5.4c-13.79,6.49-29.69,20.15-40.63,30.77-1.77-.4.15-5.9,5.37-13,10.1-13.8,41.42-44,46.86-43.37,29.73,3.39,59.25-14.38,52.49-26.59-13.82-25-61.93,15.19-78.06,30.58C184.84,335.7,170.92,349.2,163.69,364.15Z" style="fill:#f49392"/><path d="M195.67,443.56c0-.94-.28-2.1.49-2.65s2.32,1.4,2.89.55c4.64-7,12-8.62,15.12-2.19,2.47,5.11-2.9,14.9-12,10.74-2.68-1.23-8.6,3-10.74,3.34a1.52,1.52,0,0,1-.93-.07,1.63,1.63,0,0,1-.62-1.31C189.27,447.19,195.66,448.35,195.67,443.56Z" style="fill:none;stroke:#f49392;stroke-miterlimit:10;stroke-width:3px"/><path d="M197.48,441.16c1.38,1.22,4.76,4.54,7.22,4.54a4.5,4.5,0,0,0,4.28-3.92c0-2.91-5.29-3.71-9.94-.32" style="fill:none;stroke:#f49392;stroke-linecap:round;stroke-linejoin:round;stroke-width:3px"/><path d="M253.47,291.6c-7,2.22-19.12,11.67-25,17.5,6.72,1.72,35.78.61,41.6-12.61C273.43,288.8,260.34,289.42,253.47,291.6Z" style="fill:#fff;stroke:#f49392;stroke-miterlimit:10;stroke-width:3px"/><circle cx="431.07" cy="406.86" r="20.08" style="fill:#d5c429"/><path d="M417.76,421.82c2.79-4.59,13.8-11.79,23.6-10.21a9.21,9.21,0,0,1,7.09,5.92" style="fill:none;stroke:#fff;stroke-linecap:round;stroke-linejoin:round;stroke-width:3px"/><path d="M413.42,395.3c11.73-5.71,20.14-2.18,27.91-5.71" style="fill:none;stroke:#fff;stroke-linecap:round;stroke-linejoin:round;stroke-width:3px"/><circle cx="202.31" cy="264.47" r="20.08" style="fill:#d5c429"/><path d="M182.53,263.27c4.15-1,6.35-4.91,9.31-8,10.47-10.9,20.47-2.74,23.18.64,4.72,5.9,3.29,12.33-2,16.67s-12.75,5.56-17.15,10.87" style="fill:none;stroke:#fff;stroke-linecap:round;stroke-linejoin:round;stroke-width:3px"/><circle cx="366.42" cy="323.39" r="20.08" style="fill:#d5c429"/><path d="M382.56,309.79c-2.64-1-7.29,2.08-9.2,10.57-2.08,9.26,3.33,18.48,5.23,19.33" style="fill:none;stroke:#fff;stroke-linecap:round;stroke-linejoin:round;stroke-width:3px"/><path d="M357.48,304.1c-8.66,3.42-9.47,32.4-4.85,35" style="fill:none;stroke:#fff;stroke-linecap:round;stroke-linejoin:round;stroke-width:3px"/><path d="M385,273a16.94,16.94,0,0,1-7.22-2.5c-2.09-1.49-3.59-4.07-3.12-6.6.53-2.81,3.29-4.72,6.08-5.38a29.18,29.18,0,0,1,8.56-.52c6.36.42,38.14-9.42,41.92-12,3.15-2.15,2.72-12.21,9.28-12.13,2.87,0,5.87,1.17,7.1,3.77,1.05,2.23,1.09,6.67.82,9.11" style="fill:none;stroke:#a3d9d0;stroke-linecap:round;stroke-linejoin:round;stroke-width:3px"/><path d="M379.84,273.16c-3,4.35.15,10.39,6.27,9.78,6.9-.68,9-9.17,11.07-12s34.26-14.33,46.58-13.2c4,.37,8.78,1.25,11.58-1.68,2-2.09,2.06-5.57.6-8.06a11.08,11.08,0,0,0-7-4.79" style="fill:none;stroke:#a3d9d0;stroke-linecap:round;stroke-linejoin:round;stroke-width:3px"/><path d="M322.53,264.45c-6-.25-8.56,6.25-10.69,10.1-1.16,2.1-6.79,7-3.91,12.31a5.9,5.9,0,0,0,6.73,3.21c2.76-.74,4.48-2.94,7.28-2.39s6.35,2.58,8.14,2.62c3.19.08,4.54-.63,6-3.48,2.07-4.09-1.47-9.83-4-12.63C328.56,270.31,329.54,264.75,322.53,264.45Z" style="fill:#f4c6c6"/><path d="M328.95,249.06c-4.3-.06-7.74,5.85-4.72,11.85.67,1.33,4.25,2.49,6.2.76C334.07,258.43,333.92,249.13,328.95,249.06Z" style="fill:#f4c6c6"/><path d="M332.76,268.11c0,2.7,1.54,4.21,3.77,3.85,7-1.15,7.08-9.15,3.1-10.71C337.51,260.41,332.78,265.1,332.76,268.11Z" style="fill:#f4c6c6"/><path d="M311,251.73c-3.36,1.79-1.63,10.73,1.51,12.2A5.17,5.17,0,0,0,318.9,262C320.63,259,315.66,249.22,311,251.73Z" style="fill:#f4c6c6"/><path d="M301.83,263.93c-2.14,2.58-.57,6.38.47,7.59a4.65,4.65,0,0,0,4.25,1.67,3.49,3.49,0,0,0,2.73-3.4C309.29,265,303.14,262.36,301.83,263.93Z" style="fill:#f4c6c6"/><path d="M441.42,294.87c-5.48-4.28-24,1.06-21.51,29.28.51,5.7,1.8,9,.19,14.47-1.31,4.48,12.58,6.33,14.41,5.48C439.11,342,456.4,306.56,441.42,294.87Z" style="fill:#f4c6c6"/><path d="M417.94,346.5c-1.72,1.26-6.14,16-.17,18.71,9,4.13,14-5.22,14.74-14.2C432.69,348.84,419.44,345.4,417.94,346.5Z" style="fill:#f4c6c6"/><path d="M-5.47,347.61c-6.13-.26-8.76,6.39-10.94,10.33-1.19,2.15-7,7.13-4,12.6a6,6,0,0,0,6.89,3.28c2.82-.76,4.58-3,7.45-2.44s6.5,2.64,8.33,2.68c3.26.08,4.65-.64,6.12-3.56,2.12-4.19-1.5-10.06-4.08-12.92C.7,353.61,1.7,347.92-5.47,347.61Z" style="fill:#f4c6c6"/><path d="M1.1,331.86c-4.4-.06-7.92,6-4.83,12.12.68,1.36,4.35,2.55,6.35.77C6.34,341.45,6.19,331.93,1.1,331.86Z" style="fill:#f4c6c6"/><path d="M5,351.35c0,2.76,1.58,4.31,3.86,3.94,7.21-1.18,7.24-9.37,3.18-11C9.86,343.48,5,348.27,5,351.35Z" style="fill:#f4c6c6"/><path d="M54.25,382.8c5.48-4.28,24,1.06,21.51,29.28-.51,5.7-1.8,9-.19,14.47C76.88,431,63,432.88,61.16,432,56.55,429.89,39.27,394.49,54.25,382.8Z" style="fill:#f4c6c6"/><path d="M77.73,434.43c1.72,1.26,6.14,16,.17,18.71-9,4.13-14-5.22-14.74-14.2C63,436.77,76.22,433.34,77.73,434.43Z" style="fill:#f4c6c6"/><path d="M-55.63,427.16c-3.38.34-9.52,9.53-.69,15.65,14.46,10,64.8,11.57,81.3-1,11.23-8.54,1.52-18.76-2.7-18.22" style="fill:#a3d9d0"/><path d="M-54.87,432.73c7.95,11,67.66,15.26,78.9-2.34,1.06-1.67-6.82-16.47-9.58-21.48C8.92,398.83-41.87,398.12-48.32,410-50.08,413.27-56.74,430.39-54.87,432.73Z" style="fill:#fff;stroke:#a3d9d0;stroke-linecap:round;stroke-linejoin:round;stroke-width:3px"/><path d="M-41.87,411.54c4.9,5.07,16.93,5.71,27.45,5.71,8.65,0,20.1-2.3,23.33-7.24" style="fill:#a3d9d0;stroke:#a3d9d0;stroke-linecap:round;stroke-linejoin:round;stroke-width:3px"/><circle cx="125.43" cy="406.86" r="20.08" style="fill:#d5c429"/><path d="M112.12,421.82c2.79-4.59,13.8-11.79,23.6-10.21a9.21,9.21,0,0,1,7.09,5.92" style="fill:none;stroke:#fff;stroke-linecap:round;stroke-linejoin:round;stroke-width:3px"/><path d="M107.78,395.3c11.73-5.71,20.14-2.18,27.91-5.71" style="fill:none;stroke:#fff;stroke-linecap:round;stroke-linejoin:round;stroke-width:3px"/><circle cx="60.78" cy="323.39" r="20.08" style="fill:#d5c429"/><path d="M76.92,309.79c-2.64-1-7.29,2.08-9.2,10.57-2.08,9.26,3.33,18.48,5.23,19.33" style="fill:none;stroke:#fff;stroke-linecap:round;stroke-linejoin:round;stroke-width:3px"/><path d="M51.84,304.1c-8.66,3.42-9.47,32.4-4.85,35" style="fill:none;stroke:#fff;stroke-linecap:round;stroke-linejoin:round;stroke-width:3px"/><path d="M79.36,273a16.94,16.94,0,0,1-7.22-2.5c-2.09-1.49-3.59-4.07-3.12-6.6.53-2.81,3.29-4.72,6.08-5.38a29.18,29.18,0,0,1,8.56-.52c6.36.42,38.14-9.42,41.92-12,3.15-2.15,2.72-12.21,9.28-12.13,2.87,0,5.87,1.17,7.1,3.77,1.05,2.23,1.09,6.67.82,9.11" style="fill:none;stroke:#a3d9d0;stroke-linecap:round;stroke-linejoin:round;stroke-width:3px"/><path d="M74.2,273.16c-3,4.35.15,10.39,6.27,9.78,6.9-.68,9-9.17,11.07-12s34.26-14.33,46.58-13.2c4,.37,8.78,1.25,11.58-1.68,2-2.09,2.06-5.57.6-8.06a11.08,11.08,0,0,0-7-4.79" style="fill:none;stroke:#a3d9d0;stroke-linecap:round;stroke-linejoin:round;stroke-width:3px"/><path d="M16.89,264.45c-6-.25-8.56,6.25-10.69,10.1-1.16,2.1-6.79,7-3.91,12.31A5.9,5.9,0,0,0,9,290.07c2.76-.74,4.48-2.94,7.28-2.39s6.35,2.58,8.14,2.62c3.19.08,4.54-.63,6-3.48,2.07-4.09-1.47-9.83-4-12.63C22.92,270.31,23.9,264.75,16.89,264.45Z" style="fill:#f4c6c6"/><path d="M23.31,249.06c-4.3-.06-7.74,5.85-4.72,11.85.67,1.33,4.25,2.49,6.2.76C28.43,258.43,28.28,249.13,23.31,249.06Z" style="fill:#f4c6c6"/><path d="M27.12,268.11c0,2.7,1.54,4.21,3.77,3.85,7-1.15,7.08-9.15,3.1-10.71C31.87,260.41,27.14,265.1,27.12,268.11Z" style="fill:#f4c6c6"/><path d="M5.31,251.73c-3.36,1.79-1.63,10.73,1.51,12.2A5.17,5.17,0,0,0,13.26,262C15,259,10,249.22,5.31,251.73Z" style="fill:#f4c6c6"/><path d="M-3.81,263.93c-2.14,2.58-.57,6.38.47,7.59a4.65,4.65,0,0,0,4.25,1.67,3.49,3.49,0,0,0,2.73-3.4C3.65,265-2.5,262.36-3.81,263.93Z" style="fill:#f4c6c6"/><path d="M135.78,294.87c-5.48-4.28-24,1.06-21.51,29.28.51,5.7,1.8,9,.19,14.47-1.31,4.48,12.58,6.33,14.41,5.48C133.47,342,150.76,306.56,135.78,294.87Z" style="fill:#f4c6c6"/><path d="M112.3,346.5c-1.72,1.26-6.14,16-.17,18.71,9,4.13,14-5.22,14.74-14.2C127,348.84,113.8,345.4,112.3,346.5Z" style="fill:#f4c6c6"/><path d="M503.94,115.28c-6.13-.26-8.76,6.39-10.94,10.33-1.19,2.15-7,7.13-4,12.6a6,6,0,0,0,6.89,3.28c2.82-.76,4.58-3,7.45-2.44s6.5,2.64,8.33,2.68c3.26.08,4.65-.64,6.12-3.56,2.12-4.19-1.5-10.06-4.08-12.92C510.1,121.27,511.11,115.58,503.94,115.28Z" style="fill:#f4c6c6"/><path d="M510.5,99.53c-4.4-.06-7.92,6-4.83,12.12.68,1.36,4.35,2.55,6.35.77C515.74,109.11,515.59,99.6,510.5,99.53Z" style="fill:#f4c6c6"/><path d="M514.4,119c0,2.76,1.58,4.31,3.86,3.94,7.21-1.18,7.24-9.37,3.18-11C519.26,111.14,514.42,115.93,514.4,119Z" style="fill:#f4c6c6"/><path d="M492.09,102.26c-3.44,1.83-1.67,11,1.54,12.49a5.29,5.29,0,0,0,6.59-1.93C502,109.7,496.91,99.69,492.09,102.26Z" style="fill:#f4c6c6"/><path d="M482.75,114.74c-2.19,2.64-.58,6.53.48,7.77a4.76,4.76,0,0,0,4.35,1.71,3.58,3.58,0,0,0,2.8-3.48C490.38,115.87,484.09,113.13,482.75,114.74Z" style="fill:#f4c6c6"/><path d="M563.65,150.46c5.48-4.28,24,1.06,21.51,29.28-.51,5.7-1.8,9-.19,14.47,1.31,4.48-12.58,6.33-14.41,5.48C566,197.56,548.67,162.16,563.65,150.46Z" style="fill:#f4c6c6"/><path d="M587.13,202.1c1.72,1.26,6.14,16,.17,18.71-9,4.13-14-5.22-14.74-14.2C572.38,204.44,585.62,201,587.13,202.1Z" style="fill:#f4c6c6"/><path d="M453.77,194.83c-3.38.34-9.52,9.53-.69,15.65,14.46,10,64.8,11.57,81.3-1,11.23-8.54,1.52-18.76-2.7-18.22" style="fill:#a3d9d0"/><path d="M454.54,200.39c7.95,11,67.66,15.26,78.9-2.34,1.06-1.67-6.82-16.47-9.58-21.48-5.54-10.08-56.32-10.78-62.78,1.11C459.32,180.93,452.66,198.05,454.54,200.39Z" style="fill:#fff;stroke:#a3d9d0;stroke-linecap:round;stroke-linejoin:round;stroke-width:3px"/><path d="M467.54,179.21c4.9,5.07,16.93,5.71,27.45,5.71,8.65,0,20.1-2.3,23.33-7.24" style="fill:#a3d9d0;stroke:#a3d9d0;stroke-linecap:round;stroke-linejoin:round;stroke-width:3px"/><path d="M367.45,131.81c-2.5,5.18-2.25,12.12,2.05,15.95,3.75,3.34,9.52,3.45,14.24,1.71s8.66-5,12.68-8a141.74,141.74,0,0,1,26-15.47c3.69-1.69,7.59-3.24,11.65-3.19s13.75,2.43,15.35,6.16c2.08,4.85-23.72,26.72-31.34,32.32-18,13.24-39.06,22.18-53.82,39-6.61,7.53-11.07,19.54-4.51,27.11,6.25,7.21,17.78,5.25,26.83,2.2,2.95-1,6-2.12,8.08-4.44s2.73-6.2.61-8.47c-5.13-5.47-23.8,8.27-29,2.87-3.81-4,9-13.36,13.52-16.5l35.74-24.85c16.85-11.72,35.18-25.73,38-46.06.73-5.16.29-10.71-2.52-15.11-3.64-5.71-10.76-8.5-17.53-8.46s-13.29,2.51-19.42,5.4c-13.79,6.49-29.69,20.15-40.63,30.77-1.77-.4.15-5.9,5.37-13,10.1-13.8,41.42-44,46.86-43.37C455.48,91.71,485,74,478.24,61.74c-13.82-25-61.93,15.19-78.06,30.58C388.6,103.36,374.68,116.86,367.45,131.81Z" style="fill:#f49392"/><path d="M399.43,211.22c0-.94-.28-2.1.49-2.65s2.32,1.4,2.89.55c4.64-7,12-8.62,15.12-2.19,2.47,5.11-2.9,14.9-12,10.74-2.68-1.23-8.6,3-10.74,3.34a1.52,1.52,0,0,1-.93-.07,1.63,1.63,0,0,1-.62-1.31C393,214.85,399.42,216,399.43,211.22Z" style="fill:none;stroke:#f49392;stroke-miterlimit:10;stroke-width:3px"/><path d="M401.24,208.82c1.38,1.22,4.76,4.54,7.22,4.54a4.5,4.5,0,0,0,4.28-3.92c0-2.91-5.29-3.71-9.94-.32" style="fill:none;stroke:#f49392;stroke-linecap:round;stroke-linejoin:round;stroke-width:3px"/><path d="M457.23,59.26c-7,2.22-19.12,11.67-25,17.5,6.72,1.72,35.78.61,41.6-12.61C477.19,56.47,464.1,57.09,457.23,59.26Z" style="fill:#fff;stroke:#f49392;stroke-miterlimit:10;stroke-width:3px"/><circle cx="406.07" cy="32.13" r="20.08" style="fill:#d5c429"/><path d="M386.29,30.93c4.15-1,6.35-4.91,9.31-8,10.47-10.9,20.47-2.74,23.18.64,4.72,5.9,3.29,12.33-2,16.67s-12.75,5.56-17.15,10.87" style="fill:none;stroke:#fff;stroke-linecap:round;stroke-linejoin:round;stroke-width:3px"/><circle cx="570.18" cy="91.05" r="20.08" style="fill:#d5c429"/><path d="M586.32,77.46c-2.64-1-7.29,2.08-9.2,10.57-2.08,9.26,3.33,18.48,5.23,19.33" style="fill:none;stroke:#fff;stroke-linecap:round;stroke-linejoin:round;stroke-width:3px"/><path d="M561.24,71.76c-8.66,3.42-9.47,32.4-4.85,35" style="fill:none;stroke:#fff;stroke-linecap:round;stroke-linejoin:round;stroke-width:3px"/><path d="M588.76,40.63a16.94,16.94,0,0,1-7.22-2.5c-2.09-1.49-3.59-4.07-3.12-6.6.53-2.81,3.29-4.72,6.08-5.38a29.18,29.18,0,0,1,8.56-.52c6.36.42,38.14-9.42,41.92-12,3.15-2.15,2.72-12.21,9.28-12.13,2.87,0,5.87,1.17,7.1,3.77,1.05,2.23,1.09,6.67.82,9.11" style="fill:none;stroke:#a3d9d0;stroke-linecap:round;stroke-linejoin:round;stroke-width:3px"/><path d="M583.6,40.83c-3,4.35.15,10.39,6.27,9.78,6.9-.68,9-9.17,11.07-12s34.26-14.33,46.58-13.2c4,.37,8.78,1.25,11.58-1.68,2-2.09,2.06-5.57.6-8.06a11.08,11.08,0,0,0-7-4.79" style="fill:none;stroke:#a3d9d0;stroke-linecap:round;stroke-linejoin:round;stroke-width:3px"/><path d="M526.29,32.12c-6-.25-8.56,6.25-10.69,10.1-1.16,2.1-6.79,7-3.91,12.31a5.9,5.9,0,0,0,6.73,3.21c2.76-.74,4.48-2.94,7.28-2.39s6.35,2.58,8.14,2.62c3.19.08,4.54-.63,6-3.48,2.07-4.09-1.47-9.83-4-12.63C532.32,38,533.3,32.41,526.29,32.12Z" style="fill:#f4c6c6"/><path d="M532.71,16.73c-4.3-.06-7.74,5.85-4.72,11.85.67,1.33,4.25,2.49,6.2.76C537.83,26.09,537.68,16.79,532.71,16.73Z" style="fill:#f4c6c6"/><path d="M536.52,35.77c0,2.7,1.54,4.21,3.77,3.85,7-1.15,7.08-9.15,3.1-10.71C541.27,28.07,536.54,32.76,536.52,35.77Z" style="fill:#f4c6c6"/><path d="M514.72,19.39c-3.36,1.79-1.63,10.73,1.51,12.2a5.17,5.17,0,0,0,6.44-1.89C524.39,26.67,519.42,16.89,514.72,19.39Z" style="fill:#f4c6c6"/><path d="M505.59,31.6c-2.14,2.58-.57,6.38.47,7.59a4.65,4.65,0,0,0,4.25,1.67,3.49,3.49,0,0,0,2.73-3.4C513,32.7,506.9,30,505.59,31.6Z" style="fill:#f4c6c6"/><path d="M198.3,115.28c-6.13-.26-8.76,6.39-10.94,10.33-1.19,2.15-7,7.13-4,12.6a6,6,0,0,0,6.89,3.28c2.82-.76,4.58-3,7.45-2.44s6.5,2.64,8.33,2.68c3.26.08,4.65-.64,6.12-3.56,2.12-4.19-1.5-10.06-4.08-12.92C204.46,121.27,205.46,115.58,198.3,115.28Z" style="fill:#f4c6c6"/><path d="M204.86,99.53c-4.4-.06-7.92,6-4.83,12.12.68,1.36,4.35,2.55,6.35.77C210.1,109.11,209.95,99.6,204.86,99.53Z" style="fill:#f4c6c6"/><path d="M208.76,119c0,2.76,1.58,4.31,3.86,3.94,7.21-1.18,7.24-9.37,3.18-11C213.62,111.14,208.78,115.93,208.76,119Z" style="fill:#f4c6c6"/><path d="M186.45,102.26c-3.44,1.83-1.67,11,1.54,12.49a5.29,5.29,0,0,0,6.59-1.93C196.35,109.7,191.27,99.69,186.45,102.26Z" style="fill:#f4c6c6"/><path d="M177.11,114.74c-2.19,2.64-.58,6.53.48,7.77a4.76,4.76,0,0,0,4.35,1.71,3.58,3.58,0,0,0,2.8-3.48C184.74,115.87,178.45,113.13,177.11,114.74Z" style="fill:#f4c6c6"/><path d="M258,150.46c5.48-4.28,24,1.06,21.51,29.28-.51,5.7-1.8,9-.19,14.47,1.31,4.48-12.58,6.33-14.41,5.48C260.31,197.56,243,162.16,258,150.46Z" style="fill:#f4c6c6"/><path d="M281.49,202.1c1.72,1.26,6.14,16,.17,18.71-9,4.13-14-5.22-14.74-14.2C266.73,204.44,280,201,281.49,202.1Z" style="fill:#f4c6c6"/><path d="M148.13,194.83c-3.38.34-9.52,9.53-.69,15.65,14.46,10,64.8,11.57,81.3-1,11.23-8.54,1.52-18.76-2.7-18.22" style="fill:#a3d9d0"/><path d="M148.89,200.39c7.95,11,67.66,15.26,78.9-2.34,1.06-1.67-6.82-16.47-9.58-21.48-5.54-10.08-56.32-10.78-62.78,1.11C153.68,180.93,147,198.05,148.89,200.39Z" style="fill:#fff;stroke:#a3d9d0;stroke-linecap:round;stroke-linejoin:round;stroke-width:3px"/><path d="M161.89,179.21c4.9,5.07,16.93,5.71,27.45,5.71,8.65,0,20.1-2.3,23.33-7.24" style="fill:#a3d9d0;stroke:#a3d9d0;stroke-linecap:round;stroke-linejoin:round;stroke-width:3px"/><path d="M61.81,131.81c-2.5,5.18-2.25,12.12,2.05,15.95,3.75,3.34,9.52,3.45,14.24,1.71s8.66-5,12.68-8a141.74,141.74,0,0,1,26-15.47c3.69-1.69,7.59-3.24,11.65-3.19s13.75,2.43,15.35,6.16c2.08,4.85-23.72,26.72-31.34,32.32-18,13.24-39.06,22.18-53.82,39-6.61,7.53-11.07,19.54-4.51,27.11,6.25,7.21,17.78,5.25,26.83,2.2,2.95-1,6-2.12,8.08-4.44s2.73-6.2.61-8.47c-5.13-5.47-23.8,8.27-29,2.87-3.81-4,9-13.36,13.52-16.5l35.74-24.85c16.85-11.72,35.18-25.73,38-46.06.73-5.16.29-10.71-2.52-15.11-3.64-5.71-10.76-8.5-17.53-8.46s-13.29,2.51-19.42,5.4c-13.79,6.49-29.69,20.15-40.63,30.77-1.77-.4.15-5.9,5.37-13,10.1-13.8,41.42-44,46.86-43.37C149.84,91.71,179.36,74,172.6,61.74c-13.82-25-61.93,15.19-78.06,30.58C83,103.36,69,116.86,61.81,131.81Z" style="fill:#f49392"/><path d="M93.79,211.22c0-.94-.28-2.1.49-2.65s2.32,1.4,2.89.55c4.64-7,12-8.62,15.12-2.19,2.47,5.11-2.9,14.9-12,10.74-2.68-1.23-8.6,3-10.74,3.34a1.52,1.52,0,0,1-.93-.07,1.63,1.63,0,0,1-.62-1.31C87.39,214.85,93.77,216,93.79,211.22Z" style="fill:none;stroke:#f49392;stroke-miterlimit:10;stroke-width:3px"/><path d="M95.6,208.82c1.38,1.22,4.76,4.54,7.22,4.54a4.5,4.5,0,0,0,4.28-3.92c0-2.91-5.29-3.71-9.94-.32" style="fill:none;stroke:#f49392;stroke-linecap:round;stroke-linejoin:round;stroke-width:3px"/><path d="M151.59,59.26c-7,2.22-19.12,11.67-25,17.5,6.72,1.72,35.78.61,41.6-12.61C171.55,56.47,158.46,57.09,151.59,59.26Z" style="fill:#fff;stroke:#f49392;stroke-miterlimit:10;stroke-width:3px"/><circle cx="329.19" cy="174.53" r="20.08" style="fill:#d5c429"/><path d="M315.88,189.49c2.79-4.59,13.8-11.79,23.6-10.21a9.21,9.21,0,0,1,7.09,5.92" style="fill:none;stroke:#fff;stroke-linecap:round;stroke-linejoin:round;stroke-width:3px"/><path d="M311.54,163c11.73-5.71,20.14-2.18,27.91-5.71" style="fill:none;stroke:#fff;stroke-linecap:round;stroke-linejoin:round;stroke-width:3px"/><circle cx="100.43" cy="32.13" r="20.08" style="fill:#d5c429"/><path d="M80.64,30.93c4.15-1,6.35-4.91,9.31-8,10.47-10.9,20.47-2.74,23.18.64,4.72,5.9,3.29,12.33-2,16.67S98.43,45.82,94,51.12" style="fill:none;stroke:#fff;stroke-linecap:round;stroke-linejoin:round;stroke-width:3px"/><circle cx="264.54" cy="91.05" r="20.08" style="fill:#d5c429"/><path d="M280.68,77.46c-2.64-1-7.29,2.08-9.2,10.57-2.08,9.26,3.33,18.48,5.23,19.33" style="fill:none;stroke:#fff;stroke-linecap:round;stroke-linejoin:round;stroke-width:3px"/><path d="M255.6,71.76c-8.66,3.42-9.47,32.4-4.85,35" style="fill:none;stroke:#fff;stroke-linecap:round;stroke-linejoin:round;stroke-width:3px"/><path d="M283.12,40.63a16.94,16.94,0,0,1-7.22-2.5c-2.09-1.49-3.59-4.07-3.12-6.6.53-2.81,3.29-4.72,6.08-5.38a29.18,29.18,0,0,1,8.56-.52c6.36.42,38.14-9.42,41.92-12,3.15-2.15,2.72-12.21,9.28-12.13,2.87,0,5.87,1.17,7.1,3.77,1.05,2.23,1.09,6.67.82,9.11" style="fill:none;stroke:#a3d9d0;stroke-linecap:round;stroke-linejoin:round;stroke-width:3px"/><path d="M278,40.83c-3,4.35.15,10.39,6.27,9.78,6.9-.68,9-9.17,11.07-12s34.26-14.33,46.58-13.2c4,.37,8.78,1.25,11.58-1.68,2-2.09,2.06-5.57.6-8.06a11.08,11.08,0,0,0-7-4.79" style="fill:none;stroke:#a3d9d0;stroke-linecap:round;stroke-linejoin:round;stroke-width:3px"/><path d="M220.65,32.12c-6-.25-8.56,6.25-10.69,10.1-1.16,2.1-6.79,7-3.91,12.31a5.9,5.9,0,0,0,6.73,3.21c2.76-.74,4.48-2.94,7.28-2.39s6.35,2.58,8.14,2.62c3.19.08,4.54-.63,6-3.48,2.07-4.09-1.47-9.83-4-12.63C226.68,38,227.66,32.41,220.65,32.12Z" style="fill:#f4c6c6"/><path d="M227.07,16.73c-4.3-.06-7.74,5.85-4.72,11.85.67,1.33,4.25,2.49,6.2.76C232.19,26.09,232,16.79,227.07,16.73Z" style="fill:#f4c6c6"/><path d="M230.88,35.77c0,2.7,1.54,4.21,3.77,3.85,7-1.15,7.08-9.15,3.1-10.71C235.63,28.07,230.9,32.76,230.88,35.77Z" style="fill:#f4c6c6"/><path d="M209.07,19.39c-3.36,1.79-1.63,10.73,1.51,12.2A5.17,5.17,0,0,0,217,29.7C218.75,26.67,213.78,16.89,209.07,19.39Z" style="fill:#f4c6c6"/><path d="M200,31.6c-2.14,2.58-.57,6.38.47,7.59a4.65,4.65,0,0,0,4.25,1.67,3.49,3.49,0,0,0,2.73-3.4C207.41,32.7,201.26,30,200,31.6Z" style="fill:#f4c6c6"/><path d="M339.54,62.53c-5.48-4.28-24,1.06-21.51,29.28.51,5.7,1.8,9,.19,14.47-1.31,4.48,12.58,6.33,14.41,5.48C337.23,109.62,354.52,74.22,339.54,62.53Z" style="fill:#f4c6c6"/><path d="M316.06,114.16c-1.72,1.26-6.14,16-.17,18.71,9,4.13,14-5.22,14.74-14.2C330.81,116.5,317.56,113.07,316.06,114.16Z" style="fill:#f4c6c6"/><circle cx="23.55" cy="174.53" r="20.08" style="fill:#d5c429"/><path d="M10.24,189.49C13,184.9,24,177.69,33.84,179.28a9.21,9.21,0,0,1,7.09,5.92" style="fill:none;stroke:#fff;stroke-linecap:round;stroke-linejoin:round;stroke-width:3px"/><path d="M5.89,163c11.73-5.71,20.14-2.18,27.91-5.71" style="fill:none;stroke:#fff;stroke-linecap:round;stroke-linejoin:round;stroke-width:3px"/><path d="M-22.52,40.63a16.94,16.94,0,0,1-7.22-2.5c-2.09-1.49-3.59-4.07-3.12-6.6.53-2.81,3.29-4.72,6.08-5.38a29.18,29.18,0,0,1,8.56-.52c6.36.42,38.14-9.42,41.92-12C26.85,11.48,26.43,1.43,33,1.5c2.87,0,5.87,1.17,7.1,3.77,1.05,2.23,1.09,6.67.82,9.11" style="fill:none;stroke:#a3d9d0;stroke-linecap:round;stroke-linejoin:round;stroke-width:3px"/><path d="M-27.68,40.83c-3,4.35.15,10.39,6.27,9.78,6.9-.68,9-9.17,11.07-12s34.26-14.33,46.58-13.2c4,.37,8.78,1.25,11.58-1.68,2-2.09,2.06-5.57.6-8.06a11.08,11.08,0,0,0-7-4.79" style="fill:none;stroke:#a3d9d0;stroke-linecap:round;stroke-linejoin:round;stroke-width:3px"/><path d="M33.9,62.53c-5.48-4.28-24,1.06-21.51,29.28.51,5.7,1.8,9,.19,14.47-1.31,4.48,12.58,6.33,14.41,5.48C31.59,109.62,48.87,74.22,33.9,62.53Z" style="fill:#f4c6c6"/><path d="M10.42,114.16c-1.72,1.26-6.14,16-.17,18.71,9,4.13,14-5.22,14.74-14.2C25.17,116.5,11.92,113.07,10.42,114.16Z" style="fill:#f4c6c6"/></pattern></defs><title>bn_logo</title><polygon points="0 0 171.84 0 171.84 350 0 350 0 0" style="fill:url(#a)"/><path d="M309.5,222.28H204.1a.75.75,0,0,1,0-1.5H309.5a.75.75,0,1,1,0,1.5Z" style="fill:#f4c6c6"/><path d="M206,202.48v-4.06h-1.47v-.54a3.51,3.51,0,0,0,.56,0,1.52,1.52,0,0,0,.49-.16,1.13,1.13,0,0,0,.37-.33,1.24,1.24,0,0,0,.21-.53h.52v5.67Z" style="fill:#333"/><path d="M215.29,199.94v.64h-5.92v-.64Z" style="fill:#333"/><path d="M219.06,196.77h.4l.42,0,.39.06a1,1,0,0,1,.31.12,1.48,1.48,0,0,1,.48.46,1.29,1.29,0,0,1,.2.73,1.39,1.39,0,0,1-.22.79,1.3,1.3,0,0,1-.63.49v0a1.32,1.32,0,0,1,.81.48,1.44,1.44,0,0,1,.28.9,1.69,1.69,0,0,1-.11.61,1.52,1.52,0,0,1-.33.52,1.66,1.66,0,0,1-.54.37,1.86,1.86,0,0,1-.75.14H217v-5.71Zm.21,2.46a1.5,1.5,0,0,0,.93-.23.82.82,0,0,0,.28-.68,1,1,0,0,0-.1-.48.69.69,0,0,0-.26-.27,1,1,0,0,0-.39-.12l-.47,0h-1.52v1.82Zm.38,2.62a1.09,1.09,0,0,0,.79-.27,1,1,0,0,0,.28-.75.93.93,0,0,0-.1-.46.81.81,0,0,0-.28-.29,1.16,1.16,0,0,0-.4-.15,2.4,2.4,0,0,0-.46,0h-1.74v2Z" style="fill:#333"/><path d="M225.2,196.77a1.88,1.88,0,0,1,1.28.4,1.38,1.38,0,0,1,.46,1.1,1.72,1.72,0,0,1-.24.91,1.21,1.21,0,0,1-.76.54v0a1,1,0,0,1,.4.16.87.87,0,0,1,.25.27,1.21,1.21,0,0,1,.14.35,3.59,3.59,0,0,1,.07.4c0,.14,0,.28,0,.42a4,4,0,0,0,0,.42,2.61,2.61,0,0,0,.09.4,1,1,0,0,0,.18.33h-.85a.47.47,0,0,1-.11-.24,2.56,2.56,0,0,1,0-.34c0-.12,0-.26,0-.4a2.91,2.91,0,0,0,0-.42c0-.14,0-.27-.08-.4a.93.93,0,0,0-.15-.33.76.76,0,0,0-.27-.22,1,1,0,0,0-.45-.08h-1.86v2.44h-.76v-5.71Zm.16,2.59a1.09,1.09,0,0,0,.42-.16.84.84,0,0,0,.29-.31,1,1,0,0,0,.11-.51,1,1,0,0,0-.24-.7,1,1,0,0,0-.78-.27h-1.89v2h1.58A3,3,0,0,0,225.36,199.36Z" style="fill:#333"/><path d="M230.42,196.77l2.23,5.71h-.84l-.62-1.72h-2.42l-.64,1.72h-.78l2.22-5.71Zm.53,3.35-1-2.66h0l-1,2.66Z" style="fill:#333"/><path d="M234.06,196.77l3,4.63h0v-4.63h.72v5.71H237l-3-4.58h0v4.58h-.72v-5.71Z" style="fill:#333"/><path d="M241,196.77a2.85,2.85,0,0,1,2,.67,2.69,2.69,0,0,1,.71,2,4.63,4.63,0,0,1-.16,1.28,2.38,2.38,0,0,1-.5.94,2.14,2.14,0,0,1-.86.58,3.42,3.42,0,0,1-1.23.2h-2v-5.71Zm.06,5.07.32,0a1.78,1.78,0,0,0,.41-.1,1.86,1.86,0,0,0,.43-.22,1.42,1.42,0,0,0,.38-.39,2.19,2.19,0,0,0,.28-.62,3.25,3.25,0,0,0,.11-.9,3.84,3.84,0,0,0-.1-.92,1.75,1.75,0,0,0-.33-.69,1.44,1.44,0,0,0-.59-.43,2.34,2.34,0,0,0-.89-.15h-1.28v4.43Z" style="fill:#333"/><path d="M245.8,196.77l1.8,4.8,1.81-4.8h1v5.71h-.72v-4.75h0l-1.78,4.75h-.65l-1.78-4.75h0v4.75h-.72v-5.71Z" style="fill:#333"/><path d="M254.14,196.77l2.23,5.71h-.84l-.62-1.72H252.5l-.64,1.72h-.78l2.22-5.71Zm.53,3.35-1-2.66h0l-1,2.66Z" style="fill:#333"/><path d="M259.66,196.77a1.88,1.88,0,0,1,1.28.4,1.38,1.38,0,0,1,.46,1.1,1.72,1.72,0,0,1-.24.91,1.21,1.21,0,0,1-.76.54v0a1,1,0,0,1,.4.16.87.87,0,0,1,.25.27,1.21,1.21,0,0,1,.14.35,3.59,3.59,0,0,1,.07.4c0,.14,0,.28,0,.42a4,4,0,0,0,0,.42,2.61,2.61,0,0,0,.09.4,1,1,0,0,0,.18.33h-.85a.47.47,0,0,1-.11-.24,2.56,2.56,0,0,1,0-.34c0-.12,0-.26,0-.4a2.91,2.91,0,0,0,0-.42c0-.14,0-.27-.08-.4a.93.93,0,0,0-.15-.33.76.76,0,0,0-.27-.22,1,1,0,0,0-.45-.08h-1.86v2.44H257v-5.71Zm.16,2.59a1.09,1.09,0,0,0,.42-.16.84.84,0,0,0,.29-.31,1,1,0,0,0,.11-.51,1,1,0,0,0-.24-.7,1,1,0,0,0-.78-.27h-1.89v2h1.58A3,3,0,0,0,259.82,199.36Z" style="fill:#333"/><path d="M263.26,196.77v2.85l2.9-2.85h1l-2.41,2.3,2.5,3.41h-1l-2.06-2.89-1,.89v2h-.76v-5.71Z" style="fill:#333"/><path d="M465.84,71.77c-1.77-3.62-7.38-9.62-14.63-15.66-7.95-6.62-16.55-12.2-23.62-15.31a49.73,49.73,0,0,0-27.49-3.36,86.08,86.08,0,0,0-10.49,2.41,27,27,0,0,0-2.73-.72c-5.27-1.06-11.9,1.43-14.75,4.78a44.15,44.15,0,0,0-14.85,9.92c-11,10.8-13.73,21.8-12.63,28.5.72,4.37-1.39,12.15-3.62,20.38-3.44,12.7-7,25.84-.91,29.91,3,2,5.2,2.73,7,2.27,2.33-.58,3.6-2.93,5.2-5.91.67-1.24,1.42-2.63,2.36-4.1a37.13,37.13,0,0,0,2.44-3.39A31.09,31.09,0,0,1,363,116c4.12-3,10.44-10.72,14.87-17.07,3-4.35,7.72-11.61,8-15.36,11.75-.83,17.22-.67,27.24,7,5.66,4.32,11.64,17.77,18,32,9.21,20.74,19.65,44.24,33.79,52.74l0,0a1,1,0,0,0,1.58-1c0-.63.06-5.41.17-11.42C467.41,120.2,467.92,76,465.84,71.77Zm-1.3,91c-.06,3.54-.12,6.43-.15,8.44,0,.47,0,.88,0,1.24-12.82-8.93-22.68-31.12-31.41-50.79-6.72-15.13-12.52-28.19-18.61-32.83-8.13-6.2-13.58-7.74-21.1-7.74-2.57,0-5.39.18-8.64.42a1,1,0,0,0-.88,1.47c.4.91-1.3,5.7-7.59,14.7-5.2,7.45-11,14.11-14.38,16.57-.51.37-1,.74-1.46,1.12a48.32,48.32,0,0,0,3.19-11.95,1,1,0,0,0-2.08-.29,42.65,42.65,0,0,1-6,17.06A36.11,36.11,0,0,0,353,123.7l-.05.06a1,1,0,0,0-.14.24c-.89,1.43-1.62,2.78-2.28,4-.42.79-.81,1.5-1.18,2.14-.23,0-.55,0-.76,0a6.64,6.64,0,0,1-3.93-2.64,1.76,1.76,0,0,0-2.09-.4c-1.11.58-2.21,1-3,1.38-1.88-5.15,1-15.69,3.55-25.18,2.29-8.46,4.46-16.45,3.67-21.27-1.28-7.76,3.45-18.22,12-26.66a44.16,44.16,0,0,1,12-8.57c-.27,2.19,1.35,4.42,6,6.11,10.14,3.69,23.45,5.06,31-4.39l-8.47-4.35c-2.07-1.07-4.16-2.13-6.31-3,2.35-.61,4.94-1.17,7.47-1.58a47.61,47.61,0,0,1,26.31,3.21C442.32,49.58,460.68,66,464,72.7,466.1,77.06,464.92,141.61,464.54,162.82Z" style="fill:#f49392"/><path d="M323.19,82.34c1.1-6.69-1.64-17.69-12.63-28.5a44.15,44.15,0,0,0-14.85-9.92c-2.85-3.35-9.48-5.85-14.75-4.79a27,27,0,0,0-2.73.72,86.06,86.06,0,0,0-10.49-2.41,49.74,49.74,0,0,0-27.49,3.36c-7.06,3.11-15.67,8.69-23.62,15.31-7.25,6-12.86,12-14.63,15.66-2.08,4.25-1.57,48.43-.79,91.08.11,6,.2,10.79.17,11.42a1,1,0,0,0,1.58,1l0,0c14.15-8.51,24.58-32,33.79-52.74,6.33-14.25,12.3-27.7,18-32,10-7.64,15.49-7.81,27.24-7,.25,3.76,4.93,11,8,15.36,4.43,6.34,10.75,14.08,14.87,17.07a31.09,31.09,0,0,1,5.86,5.51,37.13,37.13,0,0,0,2.45,3.39c.93,1.47,1.69,2.86,2.35,4.1,1.6,3,2.87,5.33,5.2,5.91,1.81.45,4-.25,7-2.27,6.09-4.07,2.53-17.2-.91-29.91C324.58,94.48,322.47,86.7,323.19,82.34Zm5.14,46.11c-.79-.37-1.9-.8-3-1.38a1.76,1.76,0,0,0-2.09.4,6.64,6.64,0,0,1-3.93,2.64c-.22,0-.53,0-.76,0-.37-.63-.76-1.35-1.18-2.14-.65-1.21-1.38-2.57-2.28-4a1,1,0,0,0-.14-.24l-.05-.06a36.11,36.11,0,0,0-2.49-3.46,42.64,42.64,0,0,1-6-17.06,1,1,0,0,0-2.08.29,48.31,48.31,0,0,0,3.19,11.95c-.47-.38-.95-.75-1.46-1.12-3.4-2.46-9.18-9.12-14.38-16.57-6.29-9-8-13.8-7.59-14.7a1,1,0,0,0-.88-1.47c-12.74-.93-18.83-1-29.74,7.32-6.09,4.64-11.89,17.71-18.61,32.83-8.74,19.67-18.59,41.86-31.41,50.79,0-.36,0-.77,0-1.24,0-2-.08-4.9-.15-8.44-.39-21.21-1.56-85.76.58-90.12,3.28-6.68,21.64-23.11,37.21-30a47.62,47.62,0,0,1,26.31-3.21c2.53.41,5.11,1,7.47,1.58-2.15.91-4.24,2-6.31,3l-8.47,4.35c7.55,9.44,20.85,8.08,31,4.39,4.64-1.69,6.26-3.92,6-6.11a44.15,44.15,0,0,1,12,8.57c8.59,8.44,13.31,18.9,12,26.66-.79,4.82,1.37,12.81,3.67,21.27C327.36,112.76,330.21,123.3,328.33,128.45Z" style="fill:#f49392"/><path d="M358.38,74.34a1,1,0,0,0-1.15.93v.11c-.37,3.56-.79,7.6-5.43,10.28a1,1,0,1,0,1,1.82c5.57-3.22,6.09-8.22,6.47-11.88v-.11A1,1,0,0,0,358.38,74.34Z" style="fill:#f49392"/><path d="M316.06,85.66c-4.65-2.68-5.06-6.72-5.43-10.28v-.11a1,1,0,1,0-2.08.22v.11c.38,3.66.89,8.66,6.47,11.88a1,1,0,1,0,1-1.82Z" style="fill:#f49392"/><path d="M251.44,171.81l-1.26,0q-.72,0-1.49-.13t-1.53-.24a7.4,7.4,0,0,1-1.38-.39,2.34,2.34,0,0,1-1.73-2.3V154a1.38,1.38,0,0,1,.36-1,2.59,2.59,0,0,1,1-.58,12,12,0,0,1,2.67-.55,30.82,30.82,0,0,1,3.3-.17,11.76,11.76,0,0,1,6.19,1.35,4.58,4.58,0,0,1,2.17,4.18,3.78,3.78,0,0,1-.82,2.44,4.67,4.67,0,0,1-2.2,1.49,5.45,5.45,0,0,1,2.63,1.6,4.19,4.19,0,0,1,1.05,2.92,5.1,5.1,0,0,1-2.31,4.61A12.28,12.28,0,0,1,251.44,171.81Zm-2-12.11h2.3a3.09,3.09,0,0,0,2-.5,1.8,1.8,0,0,0,.61-1.48,1.58,1.58,0,0,0-.71-1.35,3.67,3.67,0,0,0-2.12-.5l-1.08,0a8,8,0,0,0-1,.09Zm0,7.67a5.63,5.63,0,0,0,1.13.17q.69,0,1.32,0a3.89,3.89,0,0,0,2.09-.52,1.77,1.77,0,0,0,.83-1.62,1.62,1.62,0,0,0-.69-1.48,4,4,0,0,0-2.11-.44H249.4Z" style="fill:#f49392"/><path d="M271,155.55a12.92,12.92,0,0,1,3.1.35,6.94,6.94,0,0,1,2.39,1.05,4.76,4.76,0,0,1,1.53,1.79,5.74,5.74,0,0,1,.53,2.56v7a2,2,0,0,1-.46,1.34,4.56,4.56,0,0,1-1.08.9,11.24,11.24,0,0,1-5.75,1.23,13.15,13.15,0,0,1-3-.31,7.1,7.1,0,0,1-2.3-.94,4.33,4.33,0,0,1-1.48-1.6,4.75,4.75,0,0,1-.52-2.26,4.26,4.26,0,0,1,1.29-3.33,7,7,0,0,1,4-1.45l4.12-.44v-.22a1.35,1.35,0,0,0-.8-1.31,5.41,5.41,0,0,0-2.31-.39,10.68,10.68,0,0,0-2.33.25,12.34,12.34,0,0,0-2,.63,2.18,2.18,0,0,1-.69-.86,2.74,2.74,0,0,1-.28-1.21,2,2,0,0,1,.39-1.3,3,3,0,0,1,1.21-.83,9.43,9.43,0,0,1,2.15-.5A18.68,18.68,0,0,1,271,155.55Zm.25,12.36a7,7,0,0,0,1.18-.11,2.88,2.88,0,0,0,1-.3V165l-2.26.19a3.49,3.49,0,0,0-1.45.38,1,1,0,0,0-.57.94,1.25,1.25,0,0,0,.49,1A2.66,2.66,0,0,0,271.22,167.91Z" style="fill:#f49392"/><path d="M288.7,171.27a7.31,7.31,0,0,1-1,.19,10.12,10.12,0,0,1-1.4.09,7.4,7.4,0,0,1-1.24-.09,2.12,2.12,0,0,1-.93-.38,1.81,1.81,0,0,1-.58-.77,3.32,3.32,0,0,1-.2-1.27v-9.43a2.68,2.68,0,0,1,.27-1.24,2.91,2.91,0,0,1,.77-.93,5.55,5.55,0,0,1,1.24-.74,12.92,12.92,0,0,1,1.59-.58,13.56,13.56,0,0,1,1.76-.39,11.9,11.9,0,0,1,1.82-.14,4.29,4.29,0,0,1,2.39.58,2.11,2.11,0,0,1,.88,1.9,3.06,3.06,0,0,1-.13.86,3.93,3.93,0,0,1-.31.77q-.66,0-1.35.06t-1.35.19q-.66.13-1.24.27a5.47,5.47,0,0,0-1,.33Z" style="fill:#f49392"/><path d="M312.79,168.54a3.93,3.93,0,0,1-.86,2.26,2.63,2.63,0,0,1-2.06.79,3.33,3.33,0,0,1-1.79-.49,7,7,0,0,1-1.7-1.65l-3.11-3.9v5.72l-1,.17a8.53,8.53,0,0,1-1.37.11,7.39,7.39,0,0,1-1.24-.09,2.12,2.12,0,0,1-.93-.38,1.81,1.81,0,0,1-.58-.77,3.33,3.33,0,0,1-.2-1.27V150.84q.35-.09,1-.2a8.51,8.51,0,0,1,1.37-.11,7.39,7.39,0,0,1,1.24.09,2.12,2.12,0,0,1,.93.38,1.82,1.82,0,0,1,.58.77,3.34,3.34,0,0,1,.2,1.27v8.3l5.41-5.53a4.35,4.35,0,0,1,2.63.72,2.18,2.18,0,0,1,1,1.82,2.32,2.32,0,0,1-.16.86,3.17,3.17,0,0,1-.49.8,7.14,7.14,0,0,1-.85.86l-1.21,1.05-1.82,1.57Z" style="fill:#f49392"/><path d="M329.39,166.75a4.42,4.42,0,0,1-1.79,3.74,8.69,8.69,0,0,1-5.28,1.35,15,15,0,0,1-2.45-.19,7,7,0,0,1-1.93-.58,3.46,3.46,0,0,1-1.26-1,2.26,2.26,0,0,1-.46-1.42,2.41,2.41,0,0,1,.31-1.27,3.18,3.18,0,0,1,.75-.86,12.49,12.49,0,0,0,2.09.9,8.58,8.58,0,0,0,2.72.39,3.18,3.18,0,0,0,1.49-.28.85.85,0,0,0,.52-.75.79.79,0,0,0-.38-.69,3.49,3.49,0,0,0-1.26-.41l-.94-.19a8.82,8.82,0,0,1-4.07-1.68,4.09,4.09,0,0,1-1.34-3.29,4.34,4.34,0,0,1,1.92-3.68,7.1,7.1,0,0,1,2.19-1,10.71,10.71,0,0,1,2.81-.35,13.12,13.12,0,0,1,2.19.17,7.1,7.1,0,0,1,1.78.52,3.21,3.21,0,0,1,1.19.9,2,2,0,0,1,.44,1.3,2.68,2.68,0,0,1-.27,1.24,2.79,2.79,0,0,1-.68.86,3.87,3.87,0,0,0-.75-.33q-.5-.17-1.1-.31t-1.21-.24a7.39,7.39,0,0,0-1.12-.09,4.31,4.31,0,0,0-1.6.24.78.78,0,0,0-.57.74.66.66,0,0,0,.31.57,3.6,3.6,0,0,0,1.19.41l1,.22a9.28,9.28,0,0,1,4.29,1.9A4.12,4.12,0,0,1,329.39,166.75Z" style="fill:#f49392"/><path d="M354.45,159.42a6.28,6.28,0,0,1,1.12-.36,5.07,5.07,0,0,1,1.05-.11,2.92,2.92,0,0,1,1.23.22,1.79,1.79,0,0,1,.74.61,2.36,2.36,0,0,1,.36.93,6.71,6.71,0,0,1,.09,1.16,9.75,9.75,0,0,1-1.29,4.84l2.42,2.33a2.86,2.86,0,0,1-.82,1.95,2.45,2.45,0,0,1-1.79.75,3.49,3.49,0,0,1-2.45-1.19l-.6-.57a9.42,9.42,0,0,1-2.66,1.34,10.65,10.65,0,0,1-3.32.49,10,10,0,0,1-3.27-.49,7.11,7.11,0,0,1-2.39-1.34,5.6,5.6,0,0,1-1.48-2,6.15,6.15,0,0,1-.5-2.5,5.81,5.81,0,0,1,.35-2.08,5.7,5.7,0,0,1,.91-1.6,6.37,6.37,0,0,1,1.26-1.18,8,8,0,0,1,1.42-.8,4.69,4.69,0,0,1-.9-1.6,5.34,5.34,0,0,1-.27-1.6,4.15,4.15,0,0,1,.41-1.82,4.39,4.39,0,0,1,1.16-1.48,5.41,5.41,0,0,1,1.84-1,8.12,8.12,0,0,1,2.47-.35,4.3,4.3,0,0,1,2.8.71,2.28,2.28,0,0,1,.82,1.81,2.73,2.73,0,0,1-.82,1.95,3.8,3.8,0,0,0-.8-.25,4.72,4.72,0,0,0-1-.09,3.17,3.17,0,0,0-1.35.25.92.92,0,0,0-.53.91,1.5,1.5,0,0,0,.41,1q.41.49,1,1.08l4,3.9a12,12,0,0,0,.24-1.64Q354.45,160.65,354.45,159.42Zm-8.52,5.72a2.49,2.49,0,0,0,.74,1.84,3,3,0,0,0,2.19.74,5.46,5.46,0,0,0,1.32-.17,4.35,4.35,0,0,0,1.32-.58l-4-4.06a2.66,2.66,0,0,0-1.15.94A2.3,2.3,0,0,0,345.93,165.14Z" style="fill:#f49392"/><path d="M377.88,165.14v6a8.75,8.75,0,0,1-1.08.19,11.52,11.52,0,0,1-1.46.09,6.56,6.56,0,0,1-1.27-.11,2.13,2.13,0,0,1-.91-.39,1.75,1.75,0,0,1-.55-.79,3.83,3.83,0,0,1-.19-1.32V154a1.38,1.38,0,0,1,.36-1,2.59,2.59,0,0,1,1-.58,11.76,11.76,0,0,1,2.48-.55,25,25,0,0,1,3-.17q4.34,0,6.54,1.82a6.08,6.08,0,0,1,2.2,4.94,5.51,5.51,0,0,1-1,3.33,7.23,7.23,0,0,1-2.39,2.14q1.13,1.54,2.23,2.89a18.71,18.71,0,0,1,1.73,2.45,3,3,0,0,1-1.15,1.68,3.19,3.19,0,0,1-1.87.58,4,4,0,0,1-1.19-.16,2.88,2.88,0,0,1-.88-.44,3.6,3.6,0,0,1-.69-.69,9.22,9.22,0,0,1-.6-.88l-2.64-4.24Zm2-4.18a2.74,2.74,0,0,0,1.89-.61,2.29,2.29,0,0,0,.69-1.81,2.17,2.17,0,0,0-.77-1.81,3.91,3.91,0,0,0-2.44-.61,7.13,7.13,0,0,0-.75,0l-.63.09V161Z" style="fill:#f49392"/><path d="M400.33,171.81a11,11,0,0,1-3.44-.52,7.8,7.8,0,0,1-2.77-1.56,7.2,7.2,0,0,1-1.86-2.61,9.24,9.24,0,0,1-.68-3.68,8.59,8.59,0,0,1,.68-3.57,6.91,6.91,0,0,1,4.29-3.87,9.39,9.39,0,0,1,2.89-.46,8.75,8.75,0,0,1,3,.5,7.31,7.31,0,0,1,2.36,1.38,6.16,6.16,0,0,1,1.54,2.11,6.46,6.46,0,0,1,.55,2.67,2.14,2.14,0,0,1-.6,1.63,3,3,0,0,1-1.67.72l-7.77,1.16a2.61,2.61,0,0,0,1.42,1.56,5.55,5.55,0,0,0,2.45.52,8.78,8.78,0,0,0,2.44-.33,7.74,7.74,0,0,0,1.87-.77,2.63,2.63,0,0,1,.85.88,2.31,2.31,0,0,1-1,3.3,7,7,0,0,1-2.26.72A15.94,15.94,0,0,1,400.33,171.81Zm-.88-12.36a3.12,3.12,0,0,0-1.31.25,2.63,2.63,0,0,0-.9.64,2.68,2.68,0,0,0-.52.88,3.6,3.6,0,0,0-.2,1l5.38-.88a2.38,2.38,0,0,0-.69-1.26A2.32,2.32,0,0,0,399.45,159.45Z" style="fill:#f49392"/><path d="M419.7,159.77a4.42,4.42,0,0,0-1.49.25,3.46,3.46,0,0,0-1.23.74,3.6,3.6,0,0,0-.83,1.21,4.23,4.23,0,0,0-.31,1.7,3.67,3.67,0,0,0,1.12,2.92,4,4,0,0,0,2.72,1,5.41,5.41,0,0,0,1.64-.22,10,10,0,0,0,1.23-.47,3.27,3.27,0,0,1,.94,1,2.35,2.35,0,0,1,.31,1.24,2.2,2.2,0,0,1-1.23,2,6.82,6.82,0,0,1-3.4.71,10.46,10.46,0,0,1-3.58-.58,8.09,8.09,0,0,1-2.75-1.64A7.22,7.22,0,0,1,411,167a8.27,8.27,0,0,1-.63-3.27,9,9,0,0,1,.68-3.63,7,7,0,0,1,1.84-2.56,7.8,7.8,0,0,1,2.69-1.51,10.24,10.24,0,0,1,3.22-.5,6.27,6.27,0,0,1,3.49.82,2.45,2.45,0,0,1,1.23,2.11,2.3,2.3,0,0,1-.28,1.12,3.88,3.88,0,0,1-.66.9,10.28,10.28,0,0,0-1.29-.49A5.46,5.46,0,0,0,419.7,159.77Z" style="fill:#f49392"/><path d="M236.85,284.07a14.43,14.43,0,0,0-14.22,12c1.57-.52,2.72-1.86,4-3.41.5-.59,1-1.21,1.58-1.8,3-3.07,6.17-4.55,9.59-4.39,5.42.25,8.94,4.47,9.33,4.95,3.72,4.66,3.09,10.18-1.62,14.08a27.53,27.53,0,0,1-5.81,3.42,19.8,19.8,0,0,0-5.87,3.71,14.44,14.44,0,1,0,3-28.56Z" style="fill:#d5c429"/><path d="M231.1,311.21c2-2.42,4.71-3.73,7.33-5a24.93,24.93,0,0,0,5.2-3c3.43-2.84,3.87-6.54,1.19-9.9a10.51,10.51,0,0,0-7.12-3.83c-2.54-.11-5,1.05-7.29,3.47-.5.52-1,1.07-1.45,1.65-1.6,1.9-3.25,3.86-6,4.51a1.48,1.48,0,0,1-.53,0,14.42,14.42,0,0,0,8.41,12.5A1.48,1.48,0,0,1,231.1,311.21Z" style="fill:#d5c429"/><path d="M429.5,308.28H324.1a.75.75,0,0,1,0-1.5H429.5a.75.75,0,1,1,0,1.5Z" style="fill:#f4c6c6"/><path d="M324.28,284a1.69,1.69,0,0,1,.35-.64,1.64,1.64,0,0,1,.59-.42,2,2,0,0,1,.8-.15,2.17,2.17,0,0,1,.69.11,1.66,1.66,0,0,1,.56.31,1.44,1.44,0,0,1,.38.51,1.66,1.66,0,0,1,.14.7,1.77,1.77,0,0,1-.12.66,1.9,1.9,0,0,1-.31.52,2.6,2.6,0,0,1-.44.41l-.51.35-.53.32a4.18,4.18,0,0,0-.48.33,2.16,2.16,0,0,0-.38.38,1.06,1.06,0,0,0-.2.47h2.91v.6H324a3,3,0,0,1,.18-.86,2.29,2.29,0,0,1,.36-.62,2.69,2.69,0,0,1,.49-.46q.27-.2.57-.38l.63-.41a2.8,2.8,0,0,0,.45-.38,1.28,1.28,0,0,0,.36-.94A1,1,0,0,0,327,284a1,1,0,0,0-.24-.32,1,1,0,0,0-.35-.21,1.24,1.24,0,0,0-.42-.07,1,1,0,0,0-.51.12,1.07,1.07,0,0,0-.35.32,1.35,1.35,0,0,0-.2.45,1.9,1.9,0,0,0-.05.51h-.68A2.29,2.29,0,0,1,324.28,284Z" style="fill:#333"/><path d="M335.29,285.94v.64h-5.92v-.64Z" style="fill:#333"/><path d="M339.5,282.77a1.77,1.77,0,0,1,1.31.44,2,2,0,0,1,0,2.49,1.74,1.74,0,0,1-1.31.44h-1.74v2.34H337v-5.71Zm-.26,2.74a1.36,1.36,0,0,0,.95-.26,1,1,0,0,0,.3-.78,1,1,0,0,0-.3-.78,1.4,1.4,0,0,0-.95-.27h-1.49v2.1Z" style="fill:#333"/><path d="M344,282.77l2.23,5.71h-.84l-.62-1.72h-2.42l-.64,1.72H341l2.22-5.71Zm.53,3.35-1-2.66h0l-1,2.66Z" style="fill:#333"/><path d="M345.5,283.41v-.64h4.57v.64h-1.9v5.07h-.76v-5.07Z" style="fill:#333"/><path d="M350.14,283.41v-.64h4.57v.64h-1.9v5.07H352v-5.07Z" style="fill:#333"/><path d="M359.32,282.77v.64h-3.18v1.82h3v.64h-3v2h3.21v.64h-4v-5.71Z" style="fill:#333"/><path d="M363,282.77a1.88,1.88,0,0,1,1.28.4,1.38,1.38,0,0,1,.46,1.1,1.72,1.72,0,0,1-.24.91,1.21,1.21,0,0,1-.76.54v0a1,1,0,0,1,.4.16.87.87,0,0,1,.25.27,1.21,1.21,0,0,1,.14.35,3.59,3.59,0,0,1,.07.4c0,.14,0,.28,0,.42a4,4,0,0,0,0,.42,2.61,2.61,0,0,0,.09.4,1,1,0,0,0,.18.33h-.85a.47.47,0,0,1-.11-.24,2.56,2.56,0,0,1,0-.34c0-.12,0-.26,0-.4a2.91,2.91,0,0,0,0-.42c0-.14,0-.27-.08-.4a.93.93,0,0,0-.15-.33.76.76,0,0,0-.27-.22,1,1,0,0,0-.45-.08h-1.86v2.44h-.76v-5.71Zm.16,2.59a1.09,1.09,0,0,0,.42-.16.84.84,0,0,0,.29-.31,1,1,0,0,0,.11-.51,1,1,0,0,0-.24-.7,1,1,0,0,0-.78-.27h-1.89v2h1.58A3,3,0,0,0,363.15,285.36Z" style="fill:#333"/><path d="M366.62,282.77l3,4.63h0v-4.63h.72v5.71h-.83l-3-4.58h0v4.58h-.72v-5.71Z" style="fill:#333"/><path d="M376.3,282.77l2.23,5.71h-.84l-.62-1.72h-2.42l-.64,1.72h-.78l2.22-5.71Zm.53,3.35-1-2.66h0l-1,2.66Z" style="fill:#333"/><path d="M379.93,282.77l3,4.63h0v-4.63h.72v5.71h-.83l-3-4.58h0v4.58h-.72v-5.71Z" style="fill:#333"/><path d="M386.9,282.77a2.85,2.85,0,0,1,2,.67,2.69,2.69,0,0,1,.71,2,4.63,4.63,0,0,1-.16,1.28,2.38,2.38,0,0,1-.5.94,2.14,2.14,0,0,1-.86.58,3.42,3.42,0,0,1-1.23.2h-2v-5.71Zm.06,5.07.32,0a1.78,1.78,0,0,0,.41-.1,1.86,1.86,0,0,0,.43-.22,1.42,1.42,0,0,0,.38-.39,2.19,2.19,0,0,0,.28-.62,3.25,3.25,0,0,0,.11-.9,3.84,3.84,0,0,0-.1-.92,1.75,1.75,0,0,0-.33-.69,1.44,1.44,0,0,0-.59-.43,2.34,2.34,0,0,0-.89-.15H385.7v4.43Z" style="fill:#333"/><path d="M393.67,282.77v5.71h-.76v-5.71Z" style="fill:#333"/><path d="M398.44,283.58a1.77,1.77,0,0,0-1-.3,1.85,1.85,0,0,0-.88.19,1.72,1.72,0,0,0-.6.52,2.22,2.22,0,0,0-.35.74,3.33,3.33,0,0,0-.11.86,3.72,3.72,0,0,0,.11.92,2.21,2.21,0,0,0,.35.76,1.72,1.72,0,0,0,.6.52,1.88,1.88,0,0,0,.88.19,1.7,1.7,0,0,0,.67-.12,1.5,1.5,0,0,0,.5-.34,1.58,1.58,0,0,0,.33-.52,2.2,2.2,0,0,0,.14-.66h.76a2.6,2.6,0,0,1-.74,1.68,2.4,2.4,0,0,1-1.73.6,2.75,2.75,0,0,1-1.16-.23,2.28,2.28,0,0,1-.82-.63,2.7,2.7,0,0,1-.49-.94,4,4,0,0,1-.16-1.17,3.82,3.82,0,0,1,.18-1.17,2.84,2.84,0,0,1,.52-1,2.4,2.4,0,0,1,.85-.64,2.74,2.74,0,0,1,1.16-.24,2.94,2.94,0,0,1,.85.12,2.28,2.28,0,0,1,.71.35,2,2,0,0,1,.52.58,2.13,2.13,0,0,1,.27.8H399A1.41,1.41,0,0,0,398.44,283.58Z" style="fill:#333"/><path d="M400.66,284.5a2.84,2.84,0,0,1,.52-1,2.53,2.53,0,0,1,.86-.66,3,3,0,0,1,2.38,0,2.53,2.53,0,0,1,.86.66,2.82,2.82,0,0,1,.52,1,3.74,3.74,0,0,1,0,2.25,2.82,2.82,0,0,1-.52,1,2.48,2.48,0,0,1-.86.66,3,3,0,0,1-2.38,0,2.48,2.48,0,0,1-.86-.66,2.84,2.84,0,0,1-.52-1,3.76,3.76,0,0,1,0-2.25Zm.7,2a2.33,2.33,0,0,0,.35.76,1.81,1.81,0,0,0,.62.54,2.07,2.07,0,0,0,1.79,0,1.8,1.8,0,0,0,.62-.54,2.33,2.33,0,0,0,.35-.76,3.32,3.32,0,0,0,0-1.7,2.32,2.32,0,0,0-.35-.76,1.8,1.8,0,0,0-.62-.54,2.07,2.07,0,0,0-1.79,0,1.8,1.8,0,0,0-.62.54,2.32,2.32,0,0,0-.35.76,3.32,3.32,0,0,0,0,1.7Z" style="fill:#333"/><path d="M407.73,282.77l3,4.63h0v-4.63h.72v5.71h-.83l-3-4.58h0v4.58h-.72v-5.71Z" style="fill:#333"/><path d="M415.6,283.55a1.62,1.62,0,0,0-1-.28,2.34,2.34,0,0,0-.47,0,1.25,1.25,0,0,0-.41.16.84.84,0,0,0-.29.3.93.93,0,0,0-.11.47.6.6,0,0,0,.16.43,1.16,1.16,0,0,0,.42.27,3.51,3.51,0,0,0,.59.17l.67.15c.23.05.45.12.67.19a2.21,2.21,0,0,1,.59.29,1.4,1.4,0,0,1,.42.46,1.63,1.63,0,0,1,0,1.48,1.68,1.68,0,0,1-.52.53,2.3,2.3,0,0,1-.72.3,3.5,3.5,0,0,1-.79.09,3.34,3.34,0,0,1-.91-.12,2.24,2.24,0,0,1-.75-.36,1.72,1.72,0,0,1-.51-.62,2,2,0,0,1-.19-.9h.72a1.29,1.29,0,0,0,.14.62,1.26,1.26,0,0,0,.37.43,1.55,1.55,0,0,0,.53.25,2.45,2.45,0,0,0,.62.08,2.87,2.87,0,0,0,.52,0,1.53,1.53,0,0,0,.47-.16.88.88,0,0,0,.46-.83.71.71,0,0,0-.16-.48,1.14,1.14,0,0,0-.42-.3,3.07,3.07,0,0,0-.59-.19l-.67-.15-.67-.18a2.41,2.41,0,0,1-.59-.26,1.27,1.27,0,0,1-.42-.42,1.25,1.25,0,0,1-.16-.65,1.5,1.5,0,0,1,.18-.75,1.53,1.53,0,0,1,.47-.52,2.1,2.1,0,0,1,.66-.3,2.94,2.94,0,0,1,.76-.1,3.06,3.06,0,0,1,.82.1,1.84,1.84,0,0,1,.66.33,1.58,1.58,0,0,1,.45.56,2,2,0,0,1,.18.81H416A1.19,1.19,0,0,0,415.6,283.55Z" style="fill:#333"/><path d="M283.18,286.23a24.31,24.31,0,0,0,6-.82,14.4,14.4,0,0,0-14.46,2A37,37,0,0,1,283.18,286.23Z" style="fill:#d5c429"/><path d="M291.32,300.68a8,8,0,0,1,5.59,3.84,14.4,14.4,0,0,0-4.62-17.35,1.49,1.49,0,0,1-.61.52c-2.71,1.23-5.44,1.38-8.33,1.53-3.56.19-7.24.39-11.7,2.56a1.49,1.49,0,0,1-.66.15h0A14.4,14.4,0,0,0,273,308.45C275.66,304.49,284,299.51,291.32,300.68Z" style="fill:#d5c429"/><path d="M294.77,306.93a5.1,5.1,0,0,0-3.92-3.28c-6.34-1-13.71,3.78-15.45,6.64a1.46,1.46,0,0,1-.14.17,14.39,14.39,0,0,0,19.89-3A1.48,1.48,0,0,1,294.77,306.93Z" style="fill:#d5c429"/><path d="M268.67,256.58a1.48,1.48,0,0,1-.75-.08,1.27,1.27,0,0,0-1,.19c-1.21.64-2.8,2.64-3.63,6.34-1.32,5.89,2,11.59,3,12.24a1.46,1.46,0,0,1,.33.21,14.39,14.39,0,0,0,2-18.91Z" style="fill:#d5c429"/><path d="M260.39,262.37c.91-4,2.79-7.08,5.16-8.33a5.23,5.23,0,0,1,.57-.24,14.36,14.36,0,0,0-14.22-2.46,1.5,1.5,0,0,1-.91,1.07c-1.77.7-3.34,4.18-4.09,9.09-1.06,6.93-.06,12.71.81,13.42a1.48,1.48,0,0,1,.7,1.66,14.36,14.36,0,0,0,15.73.77C261.92,275.17,259,268.61,260.39,262.37Z" style="fill:#d5c429"/><path d="M243.56,264.44a38.44,38.44,0,0,1,1.29-7.56,14.45,14.45,0,0,0-1.28,13.64A43.17,43.17,0,0,1,243.56,264.44Z" style="fill:#d5c429"/></svg>