<?xml version="1.0" encoding="utf-8"?>
<!-- Generator: Adobe Illustrator 24.1.2, SVG Export Plug-In . SVG Version: 6.00 Build 0)  -->
<svg version="1.1" id="Layer_1" xmlns="http://www.w3.org/2000/svg" xmlns:xlink="http://www.w3.org/1999/xlink" x="0px" y="0px"
	 viewBox="0 0 320 320" style="enable-background:new 0 0 320 320;" xml:space="preserve">
<style type="text/css">
	.st0{fill:none;}
	.st1{fill:#177F5A;}
	.st2{fill:#D5C52A;}
	.st3{fill:#F4B095;}
	.st4{fill:#93D8CA;}
	.st5{fill:#F8FFFC;}
	.st6{fill:url(#SVGID_1_);}
</style>
<pattern  y="320" width="280.8" height="266" patternUnits="userSpaceOnUse" id="SVGID_2_" viewBox="70.2 -332.5 280.8 266" style="overflow:visible;">
	<g>
		<rect x="70.2" y="-332.5" class="st0" width="280.8" height="266"/>
		<g>
			<rect x="70.2" y="-332.5" class="st0" width="280.8" height="266"/>
			<g>
				<rect x="70.2" y="-332.5" class="st0" width="280.8" height="266"/>
				<rect x="70.2" y="-332.5" class="st0" width="280.8" height="266"/>
				<path class="st1" d="M415.5-253.7c-0.2-1.3-1.2-2.3-2.4-2.6c-1.8-0.6-3.7-0.6-5.4-0.2c-1.1,0.3-2.1,0.8-2.9,1.5
					c-2,1.8-1.9,3.3-1.5,4.3c-2,1.2-3.9,2.6-4.4,4.9c-2.6-1.1-5.5-1.5-8.2-1l-1.3,0.3c-2.5,0.5-5.5,1.1-8.5,1.9
					c-5,1.3-10.1,3.1-13.3,5.6c-1.5,0.7-3.2,1.4-4.8,1.9c0.1-0.9,0.4-1.8,0.9-2.5c0.6-0.9,1-1.9,1.1-3c0.2-2.1-1.5-4.1-3.4-5.2
					c-1.1-0.5-2.4-0.6-3.6-0.2c-2.2,0.6-4.2,1.8-5.9,3.3c-0.4,0.6-0.3,1.4,0.2,1.9c0.4,0.4,0.9,0.7,1.5,0.8
					c-0.5,1.5-0.9,3.1-1.1,4.7l-1,0.2c-2.5,0.6-6.2,2-6.5,3.8c-0.1,0.9,2.4,5.3,4.7,5.9l0.7,0.2l0.6,0.2c-1.4,1.6-3.2,2.8-5.2,3.7
					c-0.5,0.1-1.3,0.3-2.3,0.5c-2.1,0.3-4.2,0.8-6.2,1.7c-2,1-3.1,3.2-2.6,5.4c0.5,1.7,8.1,3.8,11.9,2.8c1.3-0.3,3-1.7,4.8-3.1
					c1.1-0.9,2.2-1.7,3.4-2.5c-0.3,0.6-0.3,1.3,0,1.8c0.4,0.8,1.4,1.2,3.1,1.3c1.5,0.1,2.5,1.4,4.2,2.4c1.5,1,3.1,1.7,4.8,2.2l0,0
					c1.4,0.3,3.2,0.8,4.9,1.3c2.9,0.9,5.6,1.7,7.1,1.4c2-0.3,4-0.9,5.9-1.7c1.5-0.7,3.2-1.1,4.9-1.2c0.1,0,7,0.1,9.3-1.9
					c0.8-0.7,1.3-1.2,1.8-1.7c1-1.2,2.3-2.1,3.8-2.6c5.1-2,9.4-10.4,9.5-14c0-1.7,1.1-7.1,4.3-9.9c0.1-0.1,0.2-0.3,0.2-0.5
					c0-0.2-0.1-0.4-0.2-0.5c-2-1.7-4.5-2.7-7.1-2.6c0.4-0.8,0.9-1.6,1.4-2.3c0.3-0.5,0.6-0.9,0.9-1.4
					C414.5-249.6,415.7-252.3,415.5-253.7z M340-215.8c-0.3-0.1-0.5-0.2-0.7-0.5c0.2,0.1,0.4,0.2,0.5,0.1c0.3-0.1,0.5-0.3,0.5-0.6
					c0.4,0,0.7,0,1.1,0h0.2C341.2-216.3,340.6-215.8,340-215.8L340-215.8z M354.2-224.8c1,0.6,1.4,4.4,1.4,4.4c-1.8,0.9-3.5,2-5,3.4
					c-1.6,1.3-3.3,2.6-4.3,2.9c-2.1,0.4-4.3,0.2-6.4-0.4c1.2,0.2,2.1-0.6,2.9-1.3c0.1-0.1,0.2-0.2,0.4-0.3c0.2-0.2,0.3-0.4,0.2-0.6
					c-0.2-0.6-0.7-1-1.3-1.1c-0.9-0.2-1.8-0.2-2.6,0.1c-0.4,0.1-0.8,0.3-1.1,0.5c-0.3,0.3-0.4,0.8-0.3,1.3c0.3,0.7,0.8,1.2,1.5,1.4
					c-1.3-0.2-2.5-0.8-3.6-1.5c-0.2-1,0-2.1,0.7-2.8c0.7,0.3,1.6,0.4,2.4,0.3c0.2,0,0.5-0.1,0.7-0.2l0.5-0.1
					c0.7-0.2,1.5-0.1,2.1,0.1c0.3,0.1,0.7,0,0.8-0.3c0.1-0.3,0-0.7-0.3-0.8c0,0,0,0-0.1,0c-0.9-0.3-1.9-0.4-2.9-0.2l-0.5,0.1
					c-0.2,0.1-0.4,0.1-0.6,0.2c-0.3,0.1-0.7,0.1-1,0l0.1-0.1c1.9-0.8,3.8-1.3,5.8-1.5c1-0.2,3.2,1.3,3.7,1.2
					C350.1-221.2,351.8-226.2,354.2-224.8L354.2-224.8z M351-233.8c1.6,0.9,1,5.8,1,5.8c-0.3-0.1-0.9-0.2-1.2-0.3l-0.7-0.2
					c-1.6-0.4-3.6-3.8-3.8-4.5C346.4-234,348.3-235.4,351-233.8L351-233.8z M371.6-238.1c-1.2,0.8-2.4,1.5-3.7,2.1
					c-2.7,1.4-6,3-8.2,5.7l0,0c-1.9,0.7-4.5,1.1-5.5-0.7c-1.8-3,0-9.6,0.9-11.5c0.1-0.2,0-0.5-0.1-0.7c-0.2-0.2-0.5-0.2-0.7-0.1
					c-0.4,0.1-0.9,0-1.2-0.3c-0.1-0.1-0.1-0.3,0-0.4c0.5-0.6,5.5-3.9,7.8-2.7c1.4,0.8,2.9,2.4,2.7,3.9c-0.2,0.9-0.5,1.8-1,2.6
					c-0.8,1.2-1.2,2.6-1,4c0.1,0.3,0.3,0.5,0.7,0.5c1.7-0.3,3.4-0.8,5-1.6c0.7-0.3,1.3-0.6,1.9-0.7
					C369.8-238.1,370.7-238.1,371.6-238.1L371.6-238.1z M402-243.1c2.3,1.1,4.7,2,7.1,2.6c0.9,0.2,2.1,0.4,2.7-0.3
					c0.6-0.7,3.8-1.9,5.3-0.7c-3.3,3.4-4.1,9-4.2,10.3c-0.1,3.4-4.2,11.1-8.6,12.9c-1.6,0.6-3.1,1.6-4.2,2.9c-0.5,0.5-1.1,1-1.8,1.7
					c-1.6,1.4-6.8,1.6-8.4,1.6c-1.9,0-3.7,0.4-5.4,1.2c-1.8,0.8-3.7,1.3-5.6,1.6c-1.2,0.2-4-0.6-6.6-1.4c-1.7-0.5-3.5-1.1-5-1.3
					c-1.5-0.4-3-1.1-4.4-2c-1.9-1.1-3-2.4-4.8-2.6c-1.6-0.1-2-0.5-2.1-0.6c-0.2-0.4,0.3-1.5,0.8-2.5c0.7-1.3,1.3-2.7,1.5-4.2
					c1-6.2,5.9-8.7,10.1-10.8c2.2-1.1,3.7-2.6,5.2-3.4c2-1,12.2-1.1,17.2-2.4C395-241.7,398.2-244.7,402-243.1L402-243.1z
					 M414.2-253.6c0.1,0.9-0.8,3.2-1.6,4.7c-0.2,0.4-0.5,0.8-0.9,1.3c-0.8,1.1-1.5,2.3-1.9,3.5v0.1v0.1c0,0.1,0,0.2,0.1,0.3l0,0
					l0.2,0.3c0.3,0.5,0.6,1,0.7,1.6c-0.5,0-0.9,0-1.4-0.2c-2.4-0.7-4.7-1.5-6.9-2.6c-0.8-0.4-1.6-0.7-2.5-1.1c0.4-1.9,2-3.3,4.4-4.6
					c0.2-0.1,0.3-0.2,0.3-0.4c0-0.2,0-0.4-0.1-0.5c-0.5-0.6-0.9-1.6,0.9-3.2c2-1.5,4.7-1.9,7.1-1.1
					C413.3-254.9,414.1-254.5,414.2-253.6z"/>
				<path class="st2" d="M343.1-272.1c0-0.1-0.1-0.3-0.3-0.4c-0.8-0.4-1.7-0.7-2.6-0.7c-3.4,0-7.2,2.9-10.7,5.5
					c-2.6,1.9-5,3.8-6.7,4c-1.4,0.2-2.8,0.6-4.1,1c-0.7-1.1-1.8-1.9-3-2.3c-0.3-0.1-0.6,0-0.7,0.2c-0.2,0.2-0.2,0.5,0,0.8
					c0.3,0.7,0.5,1.5,0.6,2.3l-2,0.7l-0.7,0.2c-0.7-0.9-1.5-1.7-2.5-2.3c-0.1-0.1-0.3-0.2-0.4-0.3s-0.1-0.3-0.1-0.5
					c-0.2-1.3-0.3-2.6-0.2-3.9c0-0.3-0.1-0.5-0.4-0.6c-0.1,0-0.2-0.1-0.2-0.1c-0.2,0-0.4,0.1-0.5,0.2c-1.4,1.3-2,3.3-1.7,5.2
					c-0.7-0.1-1.4,0-1.9,0.4l-0.4,0.3c-0.1,0.1-0.3,0.2-0.5,0.3c0,0,0-0.1-0.1-0.4l-0.9-3.6c-0.1-0.2-0.2-0.4-0.5-0.5
					c-0.1,0-0.1,0-0.2,0c-0.2,0-0.3,0.1-0.4,0.2c-1.3,1.2-1.8,3.1-1.1,4.8l-0.4,0.5c-0.1,0.1-0.2,0.3-0.3,0.3c-0.1,0-0.3,0-0.4-0.2
					c-0.2-0.3-0.3-0.5-0.4-0.9c-0.2-0.7-0.4-1.4-0.6-2.1c-0.1-0.3-0.3-0.4-0.5-0.5h-0.1c-0.2,0-0.5,0.1-0.6,0.3
					c-0.7,1.3-0.6,2.8,0.1,4.1c0.3,0.5,0.6,0.9,1,1.2c0.9,0.7,1.9,1.1,3,1.1c-0.1,0.2-0.3,0.4-0.4,0.7c-0.1,0.2-0.4,0.7-0.6,1.1
					l-2,2.9c-3.8,5.4-7.7,10.9-10,17.1c-2,5.6-4,14.2-1.3,22.8c0.2,0.8,0.5,1.6,0.9,2.4c-1.5,1.6-1.1,7-0.9,8.5
					c0,0.2,0.2,0.4,0.3,0.5c0.2,0.1,0.4,0.1,0.6,0c5.4-2.6,5.5-2.7,5.7-2.9c0.1-0.2,0.3-0.4,0.3-0.6c0.8,0.3,1.6,0.5,2.4,0.6
					c2.3,0.5,4.6,0.5,6.9,0c0,0.1,0,0.1,0,0.2c0.2,1,0.4,1.7,0.5,2.1c0.4,1.3,1.5,1.8,2.8,2.4l0.8,0.4c0.2,0.1,0.3,0.1,0.5,0
					s0.3-0.2,0.4-0.3l0.2-0.4c0.9-1.5,1.4-3.1,1.5-4.8c0-1.5-0.6-2.8-1.6-3.9c0.7-1.1,1.4-2.3,2-3.5c1.6-3.3,3.2-6.4,5.7-8.3
					c1.1-0.8,2.2-1.4,3.5-1.9c0.7-0.3,1.5-0.6,2.2-1c3.8-2.2,7-5.5,9-9.4c3.3-6.6,5.6-13.6,6.8-20.9c0.5-2.9,1.1-5.8,2-8.6
					c0.3-0.9,0.7-1.7,1.1-2.5C342.3-267.5,343.7-270.4,343.1-272.1z M307.9-209.7c-0.1-0.1-0.3-0.2-0.5-0.4c1.1-1.2,1.4-2.8,1.6-4.9
					c0.2-1.9,0-3.9-0.5-5.8c1.9,0.4,3.8,0.5,5.7,0.5c-1.9,2.2-3.4,4.7-4.6,7.4C309.1-211.8,308.5-210.8,307.9-209.7z M294.7-206.7
					v-0.2c0-0.8,0.2-1.7,0.6-2.4v-0.1c1.6-0.7,3.1-2.9,4.3-5.2v0.1c0.7,2.4,1.6,5.2,3.1,6.1c0.3,0.9,0.5,1.8,0.7,2.6
					c-2.1,0.4-4.3,0.4-6.4,0c-0.8-0.1-1.6-0.4-2.4-0.7L294.7-206.7z M301.6-214.3c0,0.1,0,0.3,0.1,0.4c-0.2,0-0.3-0.1-0.5-0.1
					c-0.1-0.3-0.2-0.7-0.3-1c0-0.1,0-0.1,0-0.2c0.2-0.8,0.9-1.3,1.7-1.4c1.4-0.2,2.8,0.8,3,2.3c0,0.1,0,0.2,0,0.2
					c-0.2,0-1.4,0-1.7,0.1l-0.4,0.1c0-0.1,0.1-0.2,0.1-0.4c0-0.6-0.4-1-1-1C302-215.3,301.5-214.9,301.6-214.3L301.6-214.3z
					 M295.8-214.5c0,0.1,0,0.2,0.1,0.4c-0.8,0-1.6-0.1-2.4-0.1c-0.1-0.8,0.2-1.7,0.8-2.3c0.7-0.3,1.5-0.4,2.3-0.2
					c1.4,0.3,1.8,1.1,1.9,1.3c-0.2,0.4-0.4,0.7-0.6,1.1l-0.2,0.1c0-0.1,0-0.1,0-0.2c0-0.6-0.4-1-1-1
					C296.2-215.5,295.8-215,295.8-214.5L295.8-214.5z M288-227.7c1.2,1.7,3.1,4.4,3.1,5.8c-0.1,1.1-0.4,2.1-0.9,3
					c-0.6,1.1-0.9,2.3-1,3.5c0.1,1,0.4,2.1,1,2.9c-0.3,0.3-0.6,0.6-0.9,0.8c-0.3-0.6-0.5-1.3-0.7-1.9
					C287.4-218.2,287.2-223.1,288-227.7L288-227.7z M301.9-255.2c0.3-0.4,0.5-0.8,0.7-1.1c0.3-0.5,0.6-0.9,0.9-1.4
					c0.6-0.1,1.1-0.2,1.7-0.3c0.1,0,0.1-0.1,0.2-0.1c1.2,0.4,2.4,0.6,3.7,0.6c0.2,0.3,0.5,0.6,0.9,0.9c0.7,0.4,1.5,0.5,2.3,0.4
					c0,0.1,1.3,1.1,2,1.6c0.7,0.5,1.4,1.1,1.9,1.4c-5.7,5.1-11.4,10.7-13,14c-1.4,2.9-2.8,10.8-1,15c0.5,1.3,1.5,2.3,2.9,2.7
					c0.6,0.2,1.3,0.4,2.1,0.6c0.6,1.9,0.8,3.9,0.6,5.9c-0.4,3.5-0.9,4.7-3.7,5.4c-0.9,0.2-1.7-1.2-2.3-2.9c0.8,0,1.6,0,2.3-0.2
					c0.4-0.1,1.8-0.1,2.2-0.1c0.2,0,0.3-0.1,0.5-0.2c0.1-0.1,0.2-0.3,0.2-0.5c0-2.4-1.9-4.3-4.2-4.4h-0.1c-0.3,0-0.5,0-0.8,0.1
					c0.1-0.4,0.1-0.8,0.1-1.1c-0.1-1.2-0.5-2.3-1-3.4c-0.1-0.2-0.3-0.4-0.6-0.4l0,0c-0.3,0-0.5,0.2-0.6,0.4
					c-0.3,0.8-0.5,1.6-0.7,2.4c-0.2,0.6-0.3,1.2-0.3,1.8l0,0c0,0.2,0,0.5,0.1,0.7c-0.5-0.4-1.1-0.6-1.7-0.7
					c-0.2-0.1-0.5-0.1-0.7-0.1c-0.9,0-1.8,0.2-2.7,0.6c-1,1-1.4,2.3-1.3,3.7c0,0.3,0.2,0.6,0.4,0.7c1.4,0.4,2.9,0.5,4.4,0.3
					c-0.5,1-1.4,1.8-2.4,2.2c-0.6,0-1.2-0.2-1.6-0.6c-0.5-0.4-0.9-0.9-1.3-1.4l-0.2-0.2c-0.6-0.8-0.9-1.7-1-2.6c0.1-1,0.4-2,0.9-2.9
					c0.6-1.1,1-2.4,1-3.6c-0.2-2.3-3.6-6.7-4.1-7.4c0.4-2.1,1-4.1,1.7-6.1c2.2-5.9,6-11.4,9.8-16.8L301.9-255.2z M301.7-260.4
					c0.1,0.1,0.2,0.2,0.3,0.4c0.5,0.4,1,0.8,1.5,1.1c-1.3,0.2-2.6,0-3.7-0.6c0.3,0.1,0.7,0.1,1-0.1c0.3-0.2,0.6-0.4,0.8-0.7
					L301.7-260.4z M307.8-261.1c0.1,0.3,0.2,0.7,0.2,1.1c0,0.2,0.1,0.5,0.1,0.7c0,0.2,0.1,0.4,0.2,0.5c-2-0.1-3.9-0.9-5.4-2.2
					c-0.2-0.1-0.3-0.3-0.5-0.5c-0.1-0.1-0.1-0.2-0.2-0.2c-0.1-0.2-0.2-0.3-0.2-0.5c-0.2-0.7-0.2-1.5,0.2-2.1l0.6,2.2
					c0.1,0.5,0.4,1,0.8,1.2c0.6,0.2,1.3,0,1.8-0.5l0.3-0.2c0.4-0.2,0.9-0.3,1.3-0.1c0.2,0.1,0.4,0.1,0.6,0.2
					C307.7-261.5,307.8-261.3,307.8-261.1L307.8-261.1z M312.5-259.1c0.2,0.5,0.6,0.9,1.1,1.1c-0.4,0-0.8,0.1-1.2,0.2h-0.2
					c-0.3,0.1-0.6,0.1-0.9,0.1s-0.5-0.1-0.8-0.2l0,0c-0.1-0.1-0.3-0.2-0.4-0.3c-0.2-0.2-0.4-0.5-0.5-0.7c-0.1-0.3-0.2-0.5-0.3-0.8
					c0-0.2-0.1-0.4-0.1-0.6c0-0.2-0.1-0.6-0.2-0.9c0-0.2-0.1-0.4-0.2-0.5c-0.1-0.3-0.3-0.5-0.4-0.7c0-0.1-0.1-0.1-0.1-0.2
					c0-0.1-0.1-0.1-0.1-0.2c-0.4-0.9-0.4-2,0-2.9c0.1,0.7,0.1,1.4,0.2,2c0,0.4,0.2,0.7,0.4,1c0.2,0.2,0.4,0.4,0.7,0.6
					C310.9-261.4,311.9-260.3,312.5-259.1L312.5-259.1z M314.1-259.9l1.6-0.5c0,0.2,0,0.4-0.1,0.5c0,0.2-0.2,0.5-0.4,0.6
					c-0.4,0.1-0.9,0.1-1.3,0.1c-0.1-0.1-0.2-0.3-0.3-0.5l0,0L314.1-259.9z M316.8-262.9c0.6,0.6,1.1,1.2,1.5,2
					c0.3,0.9,0.3,1.9,0,2.8c-0.4,0.9-0.5,1.2-1.1,1.2c-0.4-0.1-0.8-0.3-1.2-0.5c-0.3-0.2-0.7-0.3-1.1-0.4l-0.4-0.1h0.1
					c0.5,0,0.9,0,1.4-0.2c0.6-0.3,1-0.9,1.1-1.5C317.1-260.7,317-261.8,316.8-262.9L316.8-262.9z"/>
				<path class="st3" d="M351.2-311.7c-1.1-5.6-7.3-6.8-12.6-5.4h-0.2l-0.5-0.7c-1.3-1.8-3.8-5.3-4.7-8.8c-0.6-2.6-2.7-4.5-6.3-5.9
					c-0.1,0-0.2,0-0.2,0c-0.2,0-0.4,0.1-0.5,0.3c-0.2,0.3-0.2,0.6-0.1,0.9c0.5,1.4,0.6,2.9,0.3,4.3c-0.1,0.4-0.1,0.8-0.1,1.2
					c0.1,1,0.5,2,1.1,2.9l0,0c-0.8-0.2-1.7-0.4-2.6-0.6c-2.7-0.5-5.3-1.3-7.9-2.3c-0.1,0-0.2-0.1-0.2,0c-0.3,0-0.6,0.2-0.7,0.6
					s0,0.9,0.4,1.1c0.9,0.5,1.7,1.4,2.1,2.4c0.6,1.3,1.7,2.4,3,3c1.2,0.5,3,2.5,4.7,4.6c-1.8-0.7-3.6-1.7-5.2-2.8
					c-3.3-2.1-11.2-3-14.6-2.1c-0.9,0.1-1.6,0.6-2,1.4c-0.2,0.9,0,1.8,0.6,2.5c0.2,0.4,0.4,0.8,0.6,1.3l-0.9-0.4
					c-3-1.4-5.2-2.4-8.9-1.5l-1,0.2c-3.5,0.8-4.8,1.2-5.2,2.1c-0.1,0.3-0.1,0.7,0,1c0.2,0.6,1,2.3,8.7,5.1l0.2,0.1
					c3.3,1.5,4.8,3.6,7,6.7c-4-1.4-10.2-1.8-15.5-2.1c-3.6-0.2-6.8-0.4-8-0.9c-0.4-0.1-0.8,0.1-0.9,0.5c-0.2,0.4-0.1,0.8,0.2,1.1
					c2.3,2.3,4.5,4.8,6.4,7.4c3.3,4.1,6.6,8.3,9.2,10c3.2,2.1,9.7,3.9,13.6,2c1.5-0.7,2.5-2,2.9-3.6c0.5-1.9,2.7-4.3,6.1-6.8
					c-0.4,2.4-1.1,4.2-2.6,5.1c-0.9,0.5-2.9,4.1-4.1,5.5c-1.2,1.6-3,2.7-5,2.7c-0.3,0.1-0.6,0.3-0.6,0.6c-0.1,0.3,0,0.7,0.3,0.9
					c0.7,0.6,1.3,1.3,1.8,2c0.5,0.7,1,1.5,2,1.3c3.8-0.8,6.1-1.3,9.8-3.5c2.5-1.5,4.6-3.6,6.3-6.1c0.4-0.5,0.7-1,1.2-1.5
					c2-1.8,3.9-4.2,2.5-8.5c-0.3-0.9-0.7-1.8-1.1-2.6c-0.3-0.5-0.5-1.1-0.6-1.6c2.7-2.8,8.2-4.1,11.2-4.9c0.8-0.2,1.4-0.4,1.8-0.5
					c3.1-1.1,5.1-3.2,7-5.1c0.6-0.6,1.2-1.3,1.8-1.8C351.2-311,351.3-311.4,351.2-311.7z M321.2-294.5c2.1-1.4,4.3-2.8,6.5-4
					c0.1,0.9,0.4,1.7,0.8,2.5c0.4,0.8,0.7,1.6,1,2.4c0.9,2.6,0.3,4.3-2,6.4c-0.5,0.5-1,1.1-1.4,1.7c-1.5,2.3-3.5,4.2-5.8,5.6
					c-3.5,2.1-5.7,2.6-9.4,3.3c-0.1,0-0.2,0-0.6-0.7c-0.3-0.4-0.6-0.8-0.9-1.2c1.9-0.9,2.8-0.8,4.4-2.8c1.1-1.3,3.1-4.8,3.7-5.2
					C320-287.9,320.7-291,321.2-294.5L321.2-294.5z M307.3-297.5c0,0,0,0.9,0,3.3c0.2,3.3,1.7,6.4,4.1,8.7c-0.4,0.5-0.9,1-1.5,1.3
					c-3.2,1.6-9.1,0.3-12.4-1.9c-2.4-1.6-5.7-5.7-8.9-9.7c-1.6-2-3.2-4-4.6-5.6c1.5,0.2,3.4,0.3,5.6,0.4
					C296.1-300.5,304.9-299.9,307.3-297.5L307.3-297.5z M326.1-312.5c-4.7,2.1-15,7.5-18,13.4c-0.6-0.8-1.1-1.6-1.6-2.3
					c-2.3-3.4-4-5.9-7.8-7.6l-0.3-0.1c-4.9-1.8-6.8-3-7.4-3.7c1.2-0.4,2.5-0.7,3.8-1l1-0.2c3.4-0.8,5.3,0.1,8.1,1.4
					c0.7,0.3,1.5,0.7,2.4,1.1c0.3,0.1,0.5,0,0.7-0.2s0.3-0.5,0.2-0.9c-0.3-1.2-0.7-2.4-1.3-3.5c-0.2-0.3-0.3-0.6-0.4-0.9
					c0.3-0.2,0.6-0.3,1-0.4c3.4-0.9,10.8,0.2,13.6,1.9C322.1-314.2,324.1-313.2,326.1-312.5z M336.1-317.5c-1.3-0.6-2.4-1.4-3.5-2.3
					c-0.7-0.5-1.5-1.1-2.4-1.7l-0.2-0.1l0,0c-1.1-1.4-2.3-3.4-2.3-4.1c0-0.2,0-0.5,0.1-0.9c0.2-1.2,0.2-2.3,0-3.5
					c2.3,1.1,3.6,2.5,4,4.1C332.7-322.9,334.2-320,336.1-317.5L336.1-317.5z M338.1-317.1L338.1-317.1z M338.3-315.3
					c-0.4,1-1.1,1.9-2.1,1.9s-1.7,3.4-3,3.2c-1.9-0.3-5.9-5-5.9-5c-2-2.4-3.9-4.6-5.5-5.2c-1-0.4-1.9-1.3-2.3-2.3l-0.2-0.3
					c1.9,0.6,3.6,1,5,1.3c1.8,0.2,3.5,0.8,5.1,1.8c0.9,0.7,1.7,1.2,2.4,1.7C334.8-316.1,335.9-315.3,338.3-315.3L338.3-315.3z
					 M346.8-309.6c-0.1-0.5-0.6-0.9-1.1-0.9c-0.6,0-1.1,0.5-1.1,1.1l0,0c0,0.2,0.1,0.4,0.2,0.6c-0.8-0.2-1.3-0.9-1.1-1.7
					c0-0.2,0.1-0.4,0.2-0.5c0.6-0.8,1.7-1.1,2.6-0.5c0.1,0.1,0.2,0.2,0.3,0.3C347.1-310.7,347.1-310.1,346.8-309.6L346.8-309.6z"/>
				<path class="st1" d="M275.1-320.2c-0.2-1.3-1.2-2.3-2.4-2.6c-1.8-0.6-3.7-0.6-5.5-0.2c-1.1,0.3-2.1,0.8-2.9,1.5
					c-2,1.8-1.9,3.3-1.5,4.3c-2,1.2-3.9,2.6-4.4,4.9c-2.6-1.1-5.5-1.5-8.2-1l-1.3,0.3c-2.5,0.5-5.5,1.1-8.5,1.9
					c-5,1.3-10.1,3.1-13.3,5.6c-1.5,0.7-3.1,1.4-4.8,1.9c0.1-0.9,0.4-1.8,0.9-2.5c0.6-0.9,1-1.9,1.1-3c0.3-2.1-1.5-4.1-3.4-5.2
					c-1.1-0.5-2.4-0.6-3.6-0.2c-2.2,0.6-4.2,1.8-5.9,3.3c-0.4,0.6-0.3,1.4,0.2,1.9c0.4,0.4,0.9,0.7,1.5,0.8
					c-0.5,1.5-0.9,3.1-1.1,4.7l-1,0.2c-2.5,0.6-6.2,2-6.5,3.8c-0.1,0.9,2.4,5.3,4.7,5.9l0.7,0.2l0.6,0.2c-1.4,1.6-3.2,2.8-5.2,3.7
					c-0.5,0.1-1.3,0.3-2.3,0.5c-2.1,0.3-4.2,0.8-6.2,1.7c-2,1-3.1,3.2-2.6,5.4c0.4,1.7,8.1,3.8,11.9,2.8c1.3-0.3,3-1.7,4.8-3.1
					c1.1-0.9,2.2-1.7,3.4-2.5c-0.3,0.6-0.3,1.3,0,1.8c0.4,0.8,1.4,1.2,3.1,1.3c1.5,0.1,2.5,1.4,4.2,2.4c1.5,1,3.1,1.7,4.8,2.2l0,0
					c1.4,0.3,3.2,0.8,4.9,1.3c2.9,0.9,5.6,1.7,7.1,1.5c2-0.3,4-0.9,5.9-1.7c1.5-0.7,3.2-1.1,4.9-1.2c0.1,0,7,0.1,9.3-1.9
					c0.8-0.7,1.3-1.2,1.8-1.7c1-1.2,2.3-2.1,3.8-2.6c5.1-2,9.4-10.4,9.4-14c0-1.7,1.1-7.1,4.3-9.9c0.1-0.1,0.2-0.3,0.2-0.5
					c0-0.2-0.1-0.4-0.2-0.5c-2-1.7-4.5-2.7-7.1-2.6c0.4-0.8,0.9-1.6,1.4-2.3c0.3-0.5,0.6-0.9,0.9-1.4
					C274.1-316.1,275.2-318.8,275.1-320.2z M199.6-282.3c-0.3-0.1-0.5-0.2-0.7-0.5c0.2,0.1,0.4,0.2,0.5,0.1c0.3-0.1,0.5-0.3,0.5-0.6
					c0.4,0,0.7,0,1.1,0h0.2C200.7-282.8,200.2-282.3,199.6-282.3L199.6-282.3z M213.8-291.3c1,0.6,1.4,4.4,1.4,4.4
					c-1.8,0.9-3.5,2-5,3.4c-1.6,1.3-3.3,2.6-4.3,2.9c-2.1,0.4-4.3,0.2-6.4-0.4c1.2,0.2,2.1-0.6,2.9-1.3c0.1-0.1,0.2-0.2,0.4-0.3
					c0.2-0.2,0.3-0.4,0.2-0.6c-0.2-0.6-0.7-1-1.3-1.1c-0.9-0.2-1.8-0.2-2.6,0.1c-0.4,0.1-0.8,0.3-1.1,0.5c-0.3,0.3-0.4,0.8-0.3,1.3
					c0.3,0.7,0.8,1.2,1.5,1.4c-1.3-0.2-2.5-0.8-3.6-1.5c-0.2-1,0-2.1,0.7-2.8c0.8,0.3,1.6,0.4,2.4,0.3c0.2,0,0.5-0.1,0.7-0.2
					l0.5-0.1c0.7-0.2,1.5-0.1,2.1,0.1c0.3,0.1,0.7-0.1,0.8-0.4c0.1-0.3-0.1-0.6-0.4-0.8c-0.9-0.3-1.9-0.4-2.9-0.2l-0.5,0.1
					c-0.2,0.1-0.4,0.1-0.6,0.2c-0.3,0.1-0.7,0.1-1,0l0.1-0.1c1.9-0.8,3.8-1.3,5.8-1.5c1-0.2,3.2,1.3,3.7,1.2
					C209.7-287.7,211.4-292.7,213.8-291.3L213.8-291.3z M210.6-300.3c1.6,0.9,1,5.8,1,5.8c-0.3-0.1-0.8-0.2-1.2-0.3l-0.7-0.2
					c-1.6-0.4-3.6-3.8-3.8-4.5C206-300.5,207.9-301.9,210.6-300.3L210.6-300.3z M231.2-304.6c-1.2,0.8-2.4,1.5-3.7,2.1
					c-2.7,1.4-6,3-8.2,5.7c-0.1,0,0.1,0,0,0c-1.9,0.7-4.4,1.1-5.5-0.7c-1.8-3,0-9.6,0.9-11.5c0.1-0.2,0-0.5-0.1-0.7
					c-0.2-0.2-0.5-0.2-0.7-0.1c-0.4,0.1-0.9,0-1.2-0.3c-0.1-0.1-0.1-0.3,0-0.4c0.5-0.6,5.5-3.9,7.8-2.7c1.4,0.8,2.9,2.4,2.7,3.9
					c-0.2,0.9-0.5,1.8-1,2.6c-0.8,1.2-1.2,2.6-1,4c0.1,0.3,0.3,0.5,0.7,0.5c1.7-0.3,3.4-0.8,5-1.6c0.7-0.3,1.3-0.6,1.9-0.7
					C229.5-304.6,230.3-304.6,231.2-304.6z M261.6-309.6c2.3,1.1,4.7,2,7.1,2.6c0.9,0.2,2.1,0.4,2.7-0.3c0.6-0.8,3.8-1.9,5.3-0.7
					c-3.3,3.4-4.1,9-4.2,10.3c-0.1,3.4-4.2,11.1-8.6,12.9c-1.6,0.6-3.1,1.6-4.2,2.9c-0.5,0.5-1.1,1-1.8,1.7
					c-1.6,1.4-6.8,1.6-8.4,1.6c-1.9,0-3.8,0.4-5.5,1.2c-1.8,0.8-3.7,1.3-5.6,1.6c-1.2,0.2-3.9-0.6-6.6-1.4c-1.7-0.5-3.5-1-5-1.3
					c-1.5-0.4-3-1.1-4.4-2c-1.9-1.1-3-2.4-4.8-2.6c-1.6-0.1-2-0.5-2.1-0.6c-0.2-0.4,0.3-1.5,0.8-2.5c0.7-1.3,1.3-2.7,1.6-4.2
					c1-6.2,5.9-8.7,10.1-10.8c2.2-1.1,3.7-2.6,5.2-3.4c2-1,12.2-1.1,17.2-2.4C254.6-308.2,257.8-311.2,261.6-309.6L261.6-309.6z
					 M273.8-320.1c0.1,0.9-0.8,3.2-1.6,4.7c-0.2,0.4-0.5,0.8-0.9,1.3c-0.8,1.1-1.5,2.3-1.9,3.5v0.1v0.1c0,0.1,0,0.2,0.1,0.3l0,0
					l0.2,0.3c0.3,0.5,0.6,1,0.7,1.6c-0.5,0-0.9,0-1.4-0.2c-2.4-0.7-4.7-1.5-6.9-2.6c-0.8-0.4-1.7-0.7-2.5-1.1c0.4-1.9,2-3.3,4.4-4.6
					c0.2-0.1,0.3-0.2,0.3-0.4s0-0.4-0.1-0.5c-0.5-0.6-0.9-1.6,0.9-3.2c2-1.5,4.7-1.9,7.1-1.1C273-321.5,273.6-320.8,273.8-320.1
					L273.8-320.1z"/>
				<path class="st2" d="M202.7-338.6c0-0.1-0.1-0.3-0.3-0.4c-0.8-0.4-1.7-0.7-2.6-0.7c-3.4,0-7.2,2.9-10.7,5.5
					c-2.6,1.9-5,3.8-6.7,4c-1.4,0.2-2.8,0.6-4.1,1c-0.7-1.1-1.7-1.9-2.9-2.3c-0.3-0.1-0.6,0-0.7,0.2c-0.2,0.2-0.2,0.5,0,0.8
					c0.3,0.7,0.5,1.5,0.6,2.3l-2,0.7l-0.7,0.2c-0.7-0.9-1.5-1.7-2.5-2.3c-0.1-0.1-0.3-0.2-0.4-0.3c-0.1-0.1-0.1-0.3-0.1-0.5
					c-0.2-1.3-0.3-2.6-0.2-4c0-0.3-0.1-0.5-0.4-0.6c-0.1,0-0.2-0.1-0.2,0c-0.2,0-0.3,0.1-0.5,0.2c-1.4,1.3-2,3.3-1.7,5.2
					c-0.7-0.1-1.4,0-1.9,0.4l-0.3,0.3c-0.1,0.1-0.3,0.2-0.5,0.3c0,0,0-0.1-0.1-0.4l-0.9-3.6c-0.1-0.2-0.2-0.4-0.4-0.5
					c-0.1,0-0.1,0-0.2,0c-0.2,0-0.3,0.1-0.4,0.2c-1.3,1.2-1.7,3.1-1.1,4.8l-0.4,0.5c-0.1,0.1-0.2,0.3-0.3,0.3s-0.3,0-0.4-0.2
					c-0.2-0.3-0.3-0.5-0.4-0.9c-0.2-0.7-0.4-1.4-0.6-2.1c-0.1-0.3-0.3-0.4-0.6-0.5H158c-0.2,0-0.5,0.1-0.6,0.3
					c-0.7,1.3-0.6,2.8,0.1,4.1c0.3,0.5,0.6,0.9,1,1.2c0.9,0.7,1.9,1.1,3,1.1l-0.4,0.7c-0.2,0.4-0.4,0.7-0.7,1.1l-2,2.9
					c-3.8,5.4-7.7,10.9-10,17.1c-2,5.6-4,14.2-1.3,22.8c0.2,0.8,0.5,1.6,0.9,2.4c-1.5,1.6-1.1,7-0.9,8.5c0,0.2,0.2,0.4,0.3,0.5
					c0.2,0.1,0.4,0.1,0.6,0c5.4-2.6,5.6-2.7,5.7-2.9c0.1-0.2,0.3-0.4,0.3-0.6c0.8,0.3,1.6,0.5,2.4,0.6c2.3,0.5,4.6,0.5,6.9,0
					c0,0.1,0,0.1,0,0.2c0.2,1,0.4,1.7,0.5,2.1c0.4,1.3,1.5,1.8,2.8,2.4l0.8,0.4c0.2,0.1,0.3,0.1,0.5,0c0.2-0.1,0.3-0.2,0.4-0.3
					l0.2-0.4c0.9-1.4,1.4-3,1.6-4.7c0-1.5-0.6-2.8-1.7-3.9c0.7-1.1,1.4-2.3,2-3.5c1.6-3.3,3.2-6.4,5.7-8.3c1.1-0.8,2.2-1.4,3.5-1.9
					c0.7-0.3,1.5-0.6,2.2-1c3.8-2.2,7-5.5,9-9.4s3.6-7.9,4.8-12.1c0.9-2.9,1.5-5.8,2-8.8c0.5-2.9,1.1-5.8,2-8.6
					c0.3-0.9,0.7-1.7,1.1-2.5C201.9-334,203.3-336.9,202.7-338.6z M167.5-276.2l-0.5-0.4c1.1-1.2,1.4-2.8,1.6-4.9
					c0.2-1.9,0-3.9-0.5-5.8c1.9,0.4,3.8,0.5,5.7,0.5c-1.9,2.2-3.4,4.7-4.6,7.4C168.7-278.4,168.1-277.3,167.5-276.2z M154.3-273.2
					v-0.2c0-0.8,0.2-1.7,0.6-2.4v-0.1c1.6-0.7,3-2.9,4.3-5.2v0.1c0.7,2.4,1.6,5.2,3.1,6c0.3,0.9,0.5,1.8,0.7,2.6
					c-2.1,0.4-4.3,0.4-6.4,0C155.8-272.5,155-272.8,154.3-273.2L154.3-273.2z M161.1-280.8c0,0.1,0,0.2,0.1,0.3
					c-0.2,0-0.3-0.1-0.4-0.1c-0.1-0.3-0.2-0.7-0.3-1c0-0.1,0-0.1-0.1-0.2c0.2-0.8,0.9-1.3,1.7-1.4c1.4-0.2,2.8,0.8,3,2.3
					c0,0.1,0,0.2,0,0.2c-0.2,0-1.4,0-1.7,0.1H163c0-0.1,0.1-0.2,0.1-0.4c0-0.6-0.4-1-1-1C161.6-281.9,161.1-281.4,161.1-280.8
					L161.1-280.8z M155.4-281c0,0.1,0,0.2,0.1,0.4c-0.8,0-1.6-0.1-2.4-0.1c-0.1-0.8,0.2-1.7,0.8-2.3c0.7-0.3,1.5-0.4,2.3-0.2
					c1.4,0.3,1.8,1.1,1.9,1.3c-0.2,0.4-0.4,0.7-0.6,1.1l-0.2,0.1c0-0.1,0-0.1,0-0.2c0-0.6-0.4-1-1-1
					C155.8-282,155.4-281.5,155.4-281L155.4-281z M147.6-294.3c1.2,1.7,3,4.4,3.1,5.8c-0.1,1.1-0.4,2.1-0.9,3
					c-0.6,1.1-0.9,2.3-1,3.5c0.1,1,0.4,2.1,1,2.9l-0.9,0.8c-0.3-0.6-0.5-1.3-0.7-1.9C147-284.8,146.8-289.6,147.6-294.3z
					 M161.4-321.7c0.3-0.4,0.5-0.8,0.8-1.1c0.3-0.5,0.6-0.9,0.9-1.4c0.6-0.1,1.1-0.2,1.7-0.3c0.1,0,0.1-0.1,0.2-0.1
					c1.2,0.4,2.4,0.6,3.7,0.6c0.2,0.3,0.5,0.6,0.9,0.9c0.7,0.4,1.5,0.5,2.3,0.4c0,0.1,1.3,1.1,2,1.6s1.4,1.1,1.9,1.4
					c-5.7,5.1-11.4,10.7-13,14c-1.4,2.9-2.8,10.8-1,15c0.5,1.3,1.5,2.3,2.9,2.7c0.6,0.2,1.3,0.4,2.1,0.5c0.6,1.9,0.8,3.9,0.6,5.9
					c-0.4,3.5-1,4.7-3.7,5.4c-0.9,0.2-1.7-1.2-2.3-2.9c0.8,0,1.6,0,2.3-0.2c0.4,0,1.8-0.1,2.2-0.1c0.2,0,0.3-0.1,0.4-0.2
					c0.1-0.1,0.2-0.3,0.2-0.5c0-2.4-1.9-4.3-4.2-4.4h-0.1c-0.3,0-0.5,0-0.8,0.1c0.1-0.4,0.1-0.8,0.1-1.1c-0.1-1.2-0.4-2.3-1-3.4
					c-0.1-0.2-0.3-0.4-0.6-0.4l0,0c-0.3,0-0.5,0.2-0.6,0.4c-0.3,0.8-0.5,1.6-0.7,2.4c-0.2,0.6-0.3,1.2-0.3,1.8l0,0
					c0,0.2,0,0.5,0.1,0.7c-0.5-0.4-1.1-0.6-1.7-0.7c-0.2-0.1-0.5-0.1-0.7-0.1c-0.9,0-1.8,0.2-2.7,0.6c-1,1-1.5,2.3-1.3,3.7
					c0,0.3,0.2,0.6,0.4,0.7c1.4,0.4,2.9,0.5,4.3,0.3c-0.5,1-1.4,1.8-2.4,2.2c-0.6,0-1.2-0.2-1.6-0.6c-0.5-0.4-1-0.9-1.3-1.4
					l-0.1-0.3c-0.6-0.8-0.9-1.7-1-2.6c0.1-1,0.4-2,0.9-2.9c0.6-1.1,1-2.4,1-3.6c-0.2-2.3-3.6-6.7-4.1-7.4c0.4-2.1,1-4.1,1.8-6.1
					c2.2-5.9,6-11.4,9.8-16.8C160.1-319.8,160.8-320.7,161.4-321.7z M161.3-327c0.1,0.1,0.2,0.2,0.3,0.4c0.5,0.4,1,0.8,1.5,1.1
					c-1.3,0.2-2.6,0-3.7-0.6c0.3,0.1,0.7,0.1,1-0.1C160.7-326.4,161-326.6,161.3-327L161.3-327z M167.4-327.6
					c0.1,0.3,0.2,0.7,0.2,1.1c0,0.2,0.1,0.5,0.1,0.7s0.1,0.4,0.2,0.5c-2-0.1-3.9-0.9-5.4-2.2c-0.2-0.1-0.3-0.3-0.5-0.5
					c-0.1-0.1-0.1-0.2-0.2-0.2c-0.1-0.2-0.2-0.3-0.2-0.5c-0.2-0.7-0.1-1.4,0.2-2.1l0.6,2.2c0.1,0.5,0.4,1,0.8,1.2
					c0.6,0.2,1.3,0,1.8-0.5l0.3-0.2c0.4-0.2,0.9-0.3,1.3-0.1c0.2,0.1,0.4,0.1,0.6,0.2C167.3-327.9,167.4-327.8,167.4-327.6z
					 M172.1-325.6c0.2,0.5,0.6,0.9,1.1,1.1c-0.4,0-0.8,0.1-1.2,0.2h-0.2c-0.3,0.1-0.6,0.1-0.9,0.1c-0.3,0-0.5-0.1-0.8-0.2l0,0
					c-0.1-0.1-0.3-0.2-0.4-0.3c-0.2-0.2-0.4-0.5-0.5-0.7c-0.1-0.3-0.2-0.5-0.3-0.8c0-0.2-0.1-0.4-0.1-0.6c-0.1-0.3-0.1-0.6-0.2-0.9
					c0-0.2-0.1-0.4-0.2-0.5c-0.1-0.3-0.3-0.5-0.4-0.7c0-0.1-0.1-0.1-0.1-0.2s-0.1-0.1-0.1-0.2c-0.4-0.9-0.4-2,0-2.9
					c0,0.7,0.1,1.3,0.2,2c0,0.4,0.2,0.7,0.4,1c0.2,0.2,0.4,0.4,0.7,0.6C170.5-327.9,171.5-326.8,172.1-325.6L172.1-325.6z
					 M173.7-326.3l1.7-0.5c0,0.2,0,0.4-0.1,0.5c0,0.2-0.2,0.5-0.4,0.6c-0.4,0.1-0.9,0.1-1.3,0.1c-0.1-0.1-0.2-0.3-0.3-0.5l0,0
					L173.7-326.3z M176.3-329.4c0.6,0.6,1.1,1.3,1.5,2c0.3,0.9,0.3,1.9,0,2.8c-0.4,0.9-0.5,1.2-1.1,1.2c-0.4-0.1-0.8-0.3-1.2-0.5
					c-0.3-0.2-0.7-0.3-1.1-0.4l-0.4-0.1h0.1c0.5,0,0.9-0.1,1.4-0.2c0.6-0.3,1-0.9,1.1-1.5C176.7-327.2,176.6-328.4,176.3-329.4
					L176.3-329.4z"/>
				<path class="st4" d="M280.8-363.2c-0.1-0.5-0.5-0.8-1-0.7l0,0c-3.3,0.4-9.5,2.9-12.1,4.3c-2.1,1.1-4.1,2.1-5.9,3
					c5.2-3.9,9.3-9,11.8-15c0.2-0.4,0-0.9-0.5-1.1c-0.3-0.1-0.7,0-1,0.2c-4.2,5.1-9.1,10.6-15.1,14.5c4.2-3.9,7.8-8.5,10.5-13.5
					c0.2-0.4,0-0.9-0.4-1.1c-0.3-0.2-0.8-0.1-1,0.2c-3,3.5-6.2,6.7-9.6,9.8c2-4.9,2.8-10.1,2.5-15.4c0-0.4-0.3-0.7-0.7-0.8
					c-0.4-0.1-0.8,0.1-0.9,0.4c-1.4,2.8-2.4,5.7-3,8.8c-0.4,2-1,4-1.7,6c0.7-6.7-1.4-13.4-5.7-18.6c-0.2-0.2-0.5-0.3-0.8-0.3
					c-0.1,0-0.1,0-0.2,0.1c-0.3,0.2-0.5,0.5-0.5,0.9c0.5,2.7,1.1,5.4,1.9,8c0.2,0.7,0.4,1.4,0.6,2c-1-0.5-2-0.9-3.1-1.1
					c-4-0.9-8.1-0.9-12.1,0c-1.8,0.4-3.6,1-5.4,1.7c-10.2,4.4-15.8,13.5-14.6,23.6c1,8.7,4.1,12.8,7.2,15.9c4,4,9,6.2,13.8,6
					c5.6-0.1,10.7-3.2,13.4-8.1c0.3,0.4,0.8,0.5,1.3,0.5c1.6-0.1,3.1-2.2,5.4-5.6c0.7-1.2,1.5-2.3,2.4-3.4c1.7-1.6,3.6-3.1,5.7-4.3
					c1.1-0.7,2.2-1.4,3.3-2.2c2.1-1.6,3.1-3.1,3.6-7.1c0-0.1,0-0.3-0.1-0.4c2-1.1,4.1-2.2,6.2-3.4c2.5-1.4,4.8-2.6,5.2-2.8
					c0.5,0,0.8-0.4,0.8-0.9C280.8-363.1,280.8-363.2,280.8-363.2z M240.3-347.2c-0.2,0-0.4,0-0.7,0.1c-2.4,0.5-2.5,2.5-2.3,3.9
					c-1.3,0-1.8-0.4-2-1.1c-0.7-2,0.2-3,2-4.7c1.3-1,2.3-2.4,3-3.9c1-2.5,2.5-2.9,4.3-3.4c0.6-0.2,1.2-0.4,1.8-0.6
					c-0.4,1-0.4,2-0.1,3c-0.9-0.4-2-0.5-3-0.3l-0.7,0.2c-1.8,0.7-3.1,2.4-3,4.4C239.7-348.8,239.9-347.9,240.3-347.2L240.3-347.2z
					 M244.8-349.6c-0.4-0.8-0.5-1.8-0.3-2.7c0-0.1,0.1-0.2,0.1-0.3c0.4,0,0.8,0.1,1.2,0.3c0.6,0.3,1.1,0.9,1.3,1.5
					c0.2,0.9-0.1,1.9-0.8,2.6c-0.5,0.5-1.1,0.8-1.8,1c-0.5,0.1-1,0.1-1.5,0l0,0c-1-0.3-1.7-1.3-1.7-2.4c0-1,0.5-2,1.4-2.6
					c-0.1,1.1,0.1,2.2,0.5,3.2c0.1,0.4,0.6,0.7,1.1,0.5S245-349.1,244.8-349.6C244.8-349.5,244.8-349.5,244.8-349.6L244.8-349.6z
					 M250-348.6c1.1,0.3,3.2-0.2,5.9-1.3c-2.2,1.3-4.5,2.3-6.9,3.1c-0.6,0.1-1.3,0.2-1.9,0.2c0.1-0.1,0.3-0.2,0.4-0.4
					c0.7-0.7,1.2-1.6,1.3-2.5C249.1-349.1,249.5-348.8,250-348.6L250-348.6z M242.4-339.1l-0.6-0.3l-2.3-2c-0.1-0.4-0.2-0.8-0.3-1.2
					v-0.1c-0.4-1.9-0.2-2.6,0.9-2.8c1.2-0.2,2.4-0.2,3.6,0.2c1.9,0.5,3.8,0.5,5.7,0.1c3.3-0.7,9.1-4.2,13.8-7
					c1.4-0.8,2.7-1.6,3.7-2.1c-0.3,1.8-1.2,3.3-2.7,4.3c-1,0.8-2,1.5-3.1,2.1c-2.2,1.3-4.2,2.8-6,4.5c-1,1.1-1.9,2.3-2.6,3.6
					c-1.1,1.6-3.3,5-4.1,4.9c-0.3-0.3-0.6-0.6-0.9-0.9l0,0C245.9-337,244.2-338.2,242.4-339.1L242.4-339.1z M248.6-369.1
					c0.2,3.2-0.1,6.4-1.1,9.4c-0.9,1-2,1.7-3.3,1.8c-2,0.5-4.2,1.2-5.5,4.4c-0.6,1.3-1.5,2.4-2.6,3.2c-1.7,1.6-3.6,3.4-2.4,6.5
					c0.7,2,2.7,2.2,3.9,2.2v0.1c0,0.1,0,0.1,0.1,0.2c0,0.1,0.1,0.2,0.1,0.3c0,0.1,0,0.1,0.1,0.1c0.1,0.3,0.3,0.6,0.4,0.8l0.1,0.1
					c0.1,0.1,0.1,0.2,0.2,0.3l0.1,0.1c0.1,0.1,0.2,0.2,0.3,0.3l0.1,0.1c0.2,0.1,0.3,0.3,0.5,0.4c0.6,0.4,1.2,0.7,1.9,1.1
					c0.4,0.2,0.7,0.4,1.1,0.6l0.3,0.2l0.8,0.5c0.1,0.1,0.3,0.2,0.4,0.3s0.5,0.3,0.7,0.5l0.5,0.4l0.4,0.4c-1.9,3.8-5.4,6.4-9.5,7.2
					c-0.9,0.2-1.8,0.3-2.8,0.4c-4.3,0.2-8.8-1.8-12.5-5.5c-3.3-3.4-5.7-7.2-6.7-15c-1.1-9.5,3.9-17.7,13.6-21.8
					c5.2-2.3,11-2.8,16.5-1.6C246.1-370.9,247.5-370.2,248.6-369.1L248.6-369.1z"/>
				<path class="st1" d="M134.7-253.7c-0.2-1.3-1.2-2.3-2.4-2.6c-1.8-0.6-3.7-0.6-5.4-0.2c-1.1,0.3-2.1,0.8-2.9,1.5
					c-2,1.8-1.9,3.3-1.5,4.3c-2,1.2-3.9,2.6-4.4,4.9c-2.6-1.1-5.5-1.5-8.2-1l-1.3,0.3c-2.5,0.5-5.5,1.1-8.5,1.9
					c-5,1.3-10.1,3.1-13.3,5.6c-1.5,0.7-3.1,1.4-4.8,1.9c0.1-0.9,0.4-1.8,0.9-2.5c0.6-0.9,1-1.9,1.2-3c0.2-2.1-1.5-4.1-3.4-5.2
					c-1.1-0.5-2.4-0.6-3.6-0.2c-2.2,0.6-4.2,1.8-5.9,3.3c-0.4,0.6-0.3,1.4,0.2,1.9c0.4,0.4,0.9,0.7,1.5,0.8
					c-0.5,1.5-0.9,3.1-1.1,4.7l-0.9,0.2c-2.5,0.6-6.2,2-6.5,3.8c-0.1,0.9,2.4,5.3,4.7,5.9l0.7,0.2l0.6,0.2c-1.7,1.7-3.7,3.2-5.2,3.7
					c-0.5,0.1-1.3,0.3-2.3,0.5c-2.1,0.3-4.2,0.8-6.2,1.7c-2,1-3.1,3.2-2.6,5.4c0.5,1.7,8.1,3.8,11.9,2.8c1.3-0.3,3-1.7,4.8-3.1
					c1.1-0.9,2.2-1.7,3.4-2.5c-0.3,0.6-0.2,1.3,0,1.8c0.4,0.8,1.4,1.2,3.1,1.3c1.5,0.1,2.5,1.4,4.2,2.4c1.5,1,3.1,1.7,4.8,2.2l0,0
					c1.4,0.3,3.2,0.8,4.9,1.3c2.9,0.9,5.6,1.7,7.1,1.4c2-0.3,4-0.9,5.9-1.7c1.5-0.7,3.2-1.1,4.9-1.2c0.1,0,7,0.1,9.3-1.9
					c0.8-0.7,1.3-1.2,1.8-1.7c1-1.2,2.3-2.1,3.8-2.6c5.1-2,9.4-10.4,9.4-14c0-1.7,1.1-7.1,4.3-9.9c0.1-0.1,0.2-0.3,0.2-0.5
					c0-0.2-0.1-0.4-0.2-0.5c-2-1.7-4.5-2.7-7.1-2.6c0.4-0.8,0.9-1.6,1.4-2.3c0.3-0.5,0.6-0.9,0.9-1.4
					C133.7-249.6,134.8-252.3,134.7-253.7z M59.2-215.8c-0.3-0.1-0.5-0.2-0.7-0.5c0.2,0.1,0.4,0.2,0.5,0.1c0.3-0.1,0.5-0.3,0.5-0.6
					c0.4,0,0.7,0,1.1,0h0.2C60.3-216.3,59.7-215.8,59.2-215.8L59.2-215.8z M73.4-224.8c1,0.6,1.4,4.4,1.4,4.4
					c-1.8,0.9-3.5,2-5.1,3.4c-1.6,1.3-3.3,2.6-4.3,2.9c-2.1,0.4-4.3,0.2-6.4-0.4c1.2,0.2,2.2-0.6,2.9-1.3l0.4-0.3
					c0.2-0.2,0.3-0.4,0.2-0.6c-0.2-0.6-0.7-1-1.3-1.1c-0.9-0.2-1.8-0.2-2.6,0.1c-0.4,0.1-0.8,0.3-1.1,0.5c-0.3,0.3-0.4,0.8-0.3,1.3
					c0.3,0.7,0.8,1.2,1.5,1.4c-1.3-0.2-2.5-0.8-3.6-1.5c-0.2-1,0-2.1,0.7-2.8c0.7,0.3,1.6,0.4,2.4,0.3c0.2,0,0.5-0.1,0.7-0.2
					l0.5-0.1c0.7-0.2,1.5-0.1,2.2,0.1c0.3,0.1,0.7,0,0.8-0.4c0.1-0.3,0-0.7-0.4-0.8c-0.9-0.3-1.9-0.4-2.9-0.2l-0.5,0.1
					c-0.2,0.1-0.4,0.1-0.6,0.2c-0.3,0.1-0.7,0.1-1,0l0.1-0.1c1.9-0.8,3.8-1.3,5.8-1.5c1-0.2,3.2,1.3,3.7,1.2
					C69.3-221.2,71-226.2,73.4-224.8L73.4-224.8z M70.2-233.8c1.6,0.9,1,5.8,1,5.8c-0.3-0.1-0.8-0.2-1.2-0.3l-0.7-0.2
					c-1.6-0.4-3.6-3.8-3.8-4.5C65.6-234,67.5-235.4,70.2-233.8L70.2-233.8z M90.8-238.1c-1.2,0.8-2.4,1.5-3.7,2.1
					c-2.7,1.4-6,3-8.2,5.7c0,0,0.1,0,0,0c-1.9,0.7-4.4,1.1-5.5-0.7c-1.8-3,0-9.6,0.9-11.5c0.1-0.2,0-0.5-0.2-0.7
					c-0.2-0.2-0.5-0.2-0.7-0.1c-0.4,0.1-0.9,0-1.2-0.3c-0.1-0.1-0.1-0.3,0-0.4c0.5-0.6,5.5-3.9,7.8-2.7c1.4,0.8,2.9,2.4,2.7,3.9
					c-0.2,0.9-0.5,1.8-1,2.6c-0.8,1.2-1.2,2.6-1,4c0.1,0.3,0.3,0.5,0.7,0.5c1.7-0.3,3.4-0.8,5-1.6c0.7-0.3,1.3-0.6,1.8-0.7
					C89-238.1,89.9-238.1,90.8-238.1L90.8-238.1z M121.1-243.1c2.3,1.1,4.6,1.9,7.1,2.6c0.9,0.2,2.1,0.4,2.7-0.3
					c0.6-0.8,3.8-1.9,5.3-0.7c-3.3,3.4-4.1,9-4.2,10.3c-0.1,3.4-4.2,11.1-8.6,12.9c-1.6,0.6-3.1,1.6-4.2,2.9c-0.5,0.5-1.1,1-1.8,1.7
					c-1.6,1.4-6.8,1.6-8.4,1.6c-1.9,0-3.7,0.4-5.4,1.2c-1.8,0.8-3.7,1.3-5.6,1.6c-1.2,0.2-3.9-0.6-6.6-1.4c-1.7-0.5-3.5-1.1-5-1.3
					c-1.5-0.4-3-1.1-4.4-2c-1.9-1.1-3-2.4-4.8-2.6c-1.6-0.1-2-0.5-2.1-0.6c-0.2-0.4,0.3-1.5,0.8-2.5c0.7-1.3,1.3-2.7,1.6-4.2
					c1-6.2,5.8-8.7,10.1-10.8c2.2-1.1,3.7-2.6,5.2-3.4c2-1,12.3-1.1,17.2-2.4C114.2-241.7,117.3-244.7,121.1-243.1L121.1-243.1z
					 M133.4-253.6c0.1,0.9-0.8,3.2-1.6,4.7c-0.2,0.4-0.5,0.8-0.9,1.3c-0.8,1.1-1.5,2.3-1.9,3.5v0.1v0.1c0,0.1,0,0.2,0.1,0.3l0,0
					l0.2,0.3c0.3,0.5,0.6,1,0.7,1.6c-0.5,0-0.9,0-1.3-0.2c-2.4-0.7-4.7-1.5-6.9-2.6c-0.8-0.4-1.7-0.7-2.5-1.1c0.4-1.9,2-3.3,4.4-4.6
					c0.2-0.1,0.3-0.2,0.3-0.4c0-0.2,0-0.4-0.1-0.5c-0.5-0.6-0.9-1.6,0.9-3.2c2-1.5,4.7-1.9,7.1-1.1
					C132.5-254.9,133.3-254.5,133.4-253.6z"/>
				<path class="st3" d="M70.4-311.7c-1.1-5.6-7.3-6.8-12.7-5.4h-0.2l-0.5-0.7c-1.3-1.8-3.8-5.3-4.7-8.8c-0.6-2.6-2.7-4.5-6.3-5.9
					c-0.1,0-0.1,0-0.2,0c-0.2,0-0.4,0.1-0.5,0.3c-0.2,0.3-0.2,0.6-0.1,0.9c0.5,1.4,0.6,2.9,0.3,4.3c-0.1,0.4-0.1,0.8-0.1,1.2
					c0.1,1,0.5,2,1.1,2.9l0,0c-0.8-0.2-1.7-0.4-2.6-0.6c-2.7-0.5-5.3-1.3-7.9-2.3c-0.1,0-0.2-0.1-0.2,0c-0.3,0-0.6,0.2-0.7,0.6
					c-0.2,0.4,0,0.9,0.4,1.1c1,0.5,1.7,1.4,2.1,2.4c0.6,1.3,1.7,2.4,3,3c1.2,0.5,3,2.5,4.7,4.6c-1.8-0.7-3.6-1.7-5.3-2.8
					c-3.3-2.1-11.2-3-14.6-2.1c-0.9,0.1-1.6,0.6-2,1.4c-0.2,0.9,0,1.8,0.6,2.5c0.2,0.4,0.4,0.8,0.6,1.3l-0.9-0.4
					c-3-1.4-5.2-2.4-8.9-1.5l-1,0.2c-3.5,0.8-4.8,1.2-5.2,2.1c-0.1,0.3-0.1,0.7,0,1c0.2,0.6,1,2.3,8.7,5.1l0.2,0.1
					c3.3,1.5,4.8,3.6,6.9,6.7c-4-1.4-10.2-1.8-15.5-2.1c-3.6-0.2-6.7-0.4-7.9-0.9c-0.4-0.1-0.7,0.1-0.9,0.5
					c-0.2,0.4-0.1,0.8,0.2,1.1c2.3,2.3,4.5,4.8,6.4,7.4c3.3,4.1,6.7,8.3,9.2,10c3.2,2.1,9.7,3.9,13.7,2c1.5-0.7,2.5-2,2.9-3.6
					c0.5-1.9,2.7-4.3,6.2-6.8c-0.4,2.4-1.1,4.2-2.7,5.1c-0.9,0.5-2.9,4.1-4.1,5.5c-1.2,1.7-3,2.7-5,2.7c-0.3,0.1-0.6,0.3-0.6,0.6
					c-0.1,0.3,0,0.7,0.3,0.9c0.7,0.6,1.3,1.3,1.8,2c0.5,0.7,1,1.5,2,1.3c3.8-0.8,6.2-1.3,9.8-3.5c2.5-1.5,4.6-3.6,6.3-6.1
					c0.3-0.5,0.7-1,1.2-1.5c2-1.8,3.9-4.2,2.5-8.5c-0.3-0.9-0.7-1.8-1.1-2.6c-0.3-0.5-0.5-1.1-0.6-1.6c2.7-2.8,8.2-4.1,11.2-4.9
					c0.8-0.2,1.4-0.4,1.8-0.5c3.1-1,5.1-3.2,7-5.1c0.6-0.6,1.2-1.3,1.8-1.8C70.4-311,70.5-311.4,70.4-311.7z M40.4-294.5
					c2.1-1.4,4.3-2.8,6.5-4c0.1,0.9,0.4,1.7,0.8,2.5c0.4,0.8,0.7,1.6,1,2.4c0.9,2.6,0.3,4.3-2,6.4c-0.5,0.5-1,1.1-1.5,1.8
					c-1.5,2.3-3.5,4.2-5.8,5.6c-3.5,2.1-5.7,2.6-9.4,3.3c-0.1,0-0.2,0-0.6-0.7c-0.2-0.3-0.5-0.7-0.9-1.2c1.9-0.9,2.8-0.8,4.5-2.8
					c1.1-1.3,3-4.8,3.7-5.2C39.2-287.9,39.8-291,40.4-294.5L40.4-294.5z M26.5-297.5c0,0,0,0.9,0,3.3c0.2,3.3,1.6,6.5,4,8.8
					c-0.4,0.5-0.9,1-1.5,1.3c-3.2,1.6-9.1,0.3-12.4-1.9c-2.4-1.6-5.7-5.7-8.9-9.7c-1.6-2-3.2-4-4.6-5.6c1.5,0.2,3.4,0.3,5.6,0.4
					C15.3-300.5,24.1-299.9,26.5-297.5L26.5-297.5z M45.3-312.5c-4.7,2.1-15,7.5-18,13.4c-0.6-0.8-1.1-1.6-1.6-2.3
					c-2.3-3.4-4-5.9-7.8-7.6l-0.3-0.1c-5-1.8-6.8-3-7.4-3.7c1.2-0.4,2.5-0.7,3.8-1l1-0.2c3.4-0.8,5.2,0.1,8.1,1.4
					c0.8,0.3,1.5,0.7,2.4,1.1c0.3,0.1,0.5,0,0.7-0.2s0.3-0.5,0.2-0.9c-0.3-1.2-0.7-2.4-1.4-3.5c-0.2-0.3-0.3-0.6-0.4-0.9
					c0.3-0.2,0.6-0.3,1-0.4c3.4-0.9,10.8,0.2,13.6,1.9C41.2-314.2,43.2-313.2,45.3-312.5z M55.3-317.5c-1.3-0.6-2.4-1.4-3.5-2.3
					c-0.7-0.5-1.5-1.1-2.4-1.7l-0.2-0.1l0,0c-1.1-1.4-2.3-3.4-2.3-4.1c0-0.3,0-0.6,0.1-0.9c0.2-1.2,0.2-2.3,0-3.5
					c2.3,1.1,3.6,2.5,4,4.1C51.9-322.9,53.3-320,55.3-317.5L55.3-317.5z M57.2-317.1L57.2-317.1z M57.4-315.3
					c-0.4,1-1.1,1.9-2.1,1.9s-1.7,3.4-3,3.2c-1.9-0.3-5.9-5-5.9-5c-2-2.4-3.9-4.6-5.5-5.2c-1-0.5-1.8-1.3-2.3-2.3l-0.2-0.3
					c1.9,0.6,3.6,1,5,1.3c1.8,0.2,3.5,0.8,5.1,1.8c0.9,0.7,1.7,1.2,2.4,1.7C54-316.1,55.1-315.3,57.4-315.3L57.4-315.3z M66-309.6
					c-0.1-0.5-0.6-0.9-1.1-0.9c-0.6,0-1.1,0.5-1.1,1.1c0,0.2,0.1,0.4,0.2,0.6c-0.8-0.2-1.3-0.9-1.1-1.7c0-0.2,0.1-0.4,0.2-0.5
					c0.6-0.8,1.7-1.1,2.6-0.5c0.1,0.1,0.2,0.2,0.3,0.3C66.3-310.7,66.3-310.1,66-309.6L66-309.6z"/>
				<path class="st4" d="M140.4-296.7c-0.1-0.5-0.5-0.8-1-0.7l0,0c-3.3,0.4-9.5,2.9-12.1,4.3c-2.1,1.1-4.1,2.1-5.9,3
					c5.2-3.8,9.3-9,11.8-15c0.2-0.4,0-0.9-0.5-1.1c-0.3-0.1-0.7,0-1,0.2c-4.2,5.1-9.1,10.6-15.1,14.5c4.2-3.9,7.7-8.5,10.4-13.5
					c0.2-0.4,0-0.9-0.4-1.1c-0.3-0.2-0.8-0.1-1,0.2c-3,3.5-6.2,6.7-9.6,9.8c2-4.9,2.8-10.1,2.5-15.4c0-0.4-0.3-0.7-0.7-0.8
					c-0.4-0.1-0.8,0.1-0.9,0.4c-1.4,2.8-2.4,5.7-3,8.8c-0.4,2-1,4-1.7,6c0.7-6.7-1.4-13.4-5.7-18.6c-0.2-0.2-0.5-0.3-0.8-0.3
					c-0.1,0-0.1,0-0.2,0.1c-0.3,0.2-0.5,0.5-0.5,0.9c0.5,2.7,1.1,5.4,1.9,8c0.2,0.7,0.4,1.4,0.6,2c-1-0.5-2-0.9-3.1-1.1
					c-4-0.9-8.1-0.9-12.2,0c-1.8,0.4-3.6,1-5.4,1.7c-10.2,4.3-15.7,13.4-14.5,23.5c1.1,8.7,4.1,12.8,7.2,15.9c4,4,9,6.2,13.8,6
					c7.1-0.3,11.5-4.3,13.4-8.1c0.3,0.3,0.8,0.5,1.3,0.5c1.6-0.1,3.1-2.2,5.4-5.6c0.7-1.2,1.5-2.3,2.4-3.4c1.7-1.6,3.6-3.1,5.7-4.3
					c1.1-0.7,2.2-1.4,3.3-2.2c2.1-1.6,3.1-3.1,3.6-7.1c0-0.1,0-0.3-0.1-0.4c2-1.1,4.1-2.2,6.2-3.4c2.5-1.4,4.8-2.6,5.2-2.8
					C140.2-295.8,140.5-296.2,140.4-296.7L140.4-296.7z M99.9-280.7c-0.2,0-0.4,0-0.7,0.1c-2.4,0.5-2.5,2.6-2.3,3.9
					c-1.3,0-1.8-0.4-2-1.1c-0.7-2,0.2-3,2-4.7c1.3-1,2.3-2.4,3-3.9c1-2.5,2.5-2.9,4.3-3.4c0.6-0.2,1.2-0.4,1.8-0.6
					c-0.4,1-0.4,2-0.1,3c-0.9-0.4-2-0.5-3-0.3l-0.7,0.2c-1.8,0.7-3.1,2.4-3,4.4C99.2-282.2,99.4-281.4,99.9-280.7L99.9-280.7z
					 M104.4-283.1c-0.4-0.8-0.5-1.8-0.3-2.7c0-0.1,0.1-0.2,0.1-0.3c0.4,0,0.8,0.1,1.2,0.3c0.6,0.3,1.1,0.9,1.3,1.5
					c0.2,0.9-0.1,1.9-0.8,2.6c-0.5,0.5-1.1,0.8-1.8,1c-0.5,0.1-1,0.1-1.5,0l0,0c-1-0.3-1.7-1.3-1.7-2.4c0-1,0.5-2,1.4-2.6
					c-0.1,1.1,0.1,2.2,0.5,3.2c0.1,0.4,0.6,0.7,1.1,0.5C104.3-282.1,104.6-282.6,104.4-283.1C104.4-283,104.4-283,104.4-283.1
					L104.4-283.1z M109.6-282.1c1.1,0.3,3.2-0.2,5.9-1.3c-2.2,1.3-4.5,2.3-6.9,3.1c-0.7,0.1-1.3,0.2-2,0.2c0.1-0.1,0.3-0.2,0.4-0.4
					c0.7-0.7,1.2-1.6,1.3-2.5C108.7-282.6,109.1-282.3,109.6-282.1L109.6-282.1z M102-272.6l-0.6-0.3l-2.3-2
					c-0.1-0.4-0.3-0.8-0.3-1.2v-0.1c-0.4-1.9-0.2-2.6,0.8-2.8c1.2-0.2,2.4-0.2,3.6,0.2c1.9,0.5,3.8,0.5,5.7,0.1
					c3.3-0.7,9.1-4.2,13.8-7c1.4-0.8,2.7-1.6,3.7-2.1c-0.3,1.8-1.3,3.3-2.7,4.3c-1,0.8-2,1.5-3.1,2.1c-2.2,1.3-4.2,2.8-6,4.5
					c-1,1.1-1.9,2.3-2.6,3.6c-1.1,1.6-3.3,5-4.1,4.9c-0.3-0.3-0.6-0.6-0.9-0.9l0,0C105.5-270.6,103.8-271.7,102-272.6L102-272.6z
					 M108.2-302.6c0.2,3.2-0.1,6.4-1.1,9.4c-0.9,1-2,1.6-3.3,1.7c-2,0.5-4.2,1.2-5.5,4.4c-0.6,1.3-1.5,2.4-2.6,3.2
					c-1.7,1.6-3.6,3.4-2.4,6.5c0.7,2,2.7,2.2,3.9,2.2v0.1c0,0.1,0,0.1,0.1,0.2c0,0.1,0.1,0.2,0.1,0.3s0,0.1,0.1,0.1
					c0.1,0.3,0.3,0.6,0.4,0.8c0,0,0,0.1,0.1,0.1l0.2,0.3l0.1,0.1c0.1,0.1,0.2,0.2,0.3,0.3l0.1,0.1c0.2,0.1,0.3,0.3,0.5,0.4
					c0.6,0.4,1.2,0.7,1.9,1.1c0.4,0.2,0.7,0.4,1.1,0.6l0.3,0.2c0.3,0.2,0.5,0.3,0.8,0.5c0.1,0.1,0.3,0.2,0.4,0.3
					c0.2,0.1,0.5,0.3,0.7,0.5l0.5,0.4l0.4,0.4c-1.9,3.8-5.4,6.4-9.5,7.2c-0.9,0.2-1.8,0.3-2.8,0.4c-4.3,0.2-8.8-1.8-12.5-5.5
					c-3.3-3.4-5.8-7.2-6.7-15c-1.1-9.5,3.9-17.7,13.6-21.8c5.2-2.3,11-2.8,16.5-1.6C105.7-304.5,107.1-303.7,108.2-302.6
					L108.2-302.6z"/>
				<path class="st1" d="M415.5-120.7c-0.2-1.3-1.2-2.3-2.4-2.7c-1.8-0.6-3.7-0.6-5.4-0.2c-1.1,0.3-2.1,0.8-2.9,1.5
					c-2,1.8-1.9,3.3-1.5,4.3c-2,1.2-3.9,2.6-4.4,4.9c-2.6-1.1-5.5-1.5-8.2-1l-1.4,0.3c-2.5,0.5-5.5,1.1-8.5,1.9
					c-5,1.3-10.1,3.1-13.3,5.6c-1.5,0.7-3.2,1.4-4.8,1.9c0.1-0.9,0.4-1.8,0.9-2.5c0.6-0.9,1-1.9,1.1-3c0.2-2.2-1.5-4.1-3.4-5.2
					c-1.1-0.5-2.4-0.6-3.6-0.2c-2.2,0.6-4.2,1.8-5.9,3.3c-0.4,0.6-0.3,1.4,0.2,1.9c0.4,0.4,0.9,0.7,1.5,0.8
					c-0.5,1.5-0.9,3.1-1.1,4.7l-1,0.2c-2.5,0.7-6.2,2-6.5,3.8c-0.1,0.9,2.4,5.3,4.7,5.9l0.7,0.2l0.6,0.2c-1.4,1.6-3.2,2.8-5.2,3.7
					c-0.5,0.2-1.3,0.3-2.3,0.5c-2.1,0.3-4.2,0.8-6.2,1.7c-2,1-3.1,3.2-2.6,5.4c0.5,1.7,8.1,3.8,11.9,2.8c1.3-0.3,3-1.7,4.8-3.1
					c1.1-0.9,2.2-1.7,3.4-2.5c-0.3,0.6-0.3,1.3,0,1.8c0.4,0.8,1.4,1.2,3.1,1.3c1.5,0.1,2.5,1.4,4.2,2.4c1.5,1,3.1,1.7,4.8,2.2l0,0
					c1.4,0.3,3.2,0.8,4.9,1.3c2.9,0.9,5.6,1.7,7.1,1.5c2-0.3,4-0.9,5.9-1.7c1.5-0.7,3.2-1.1,4.9-1.2c0.1,0,7,0.1,9.3-1.9
					c0.8-0.7,1.3-1.2,1.8-1.7c1-1.2,2.3-2.1,3.8-2.6c5.1-2,9.4-10.4,9.5-14c0-1.7,1.1-7.1,4.3-9.9c0.1-0.1,0.2-0.3,0.2-0.5
					s-0.1-0.4-0.2-0.5c-2-1.7-4.5-2.7-7.1-2.6c0.4-0.8,0.9-1.6,1.4-2.3c0.3-0.5,0.6-0.9,0.9-1.4
					C414.5-116.6,415.7-119.3,415.5-120.7z M340-82.8c-0.3-0.1-0.5-0.2-0.7-0.5c0.2,0.1,0.4,0.2,0.5,0.1c0.3-0.1,0.5-0.3,0.5-0.6
					c0.4,0,0.7,0,1.1,0h0.2C341.2-83.3,340.6-82.8,340-82.8L340-82.8z M354.2-91.8c1,0.6,1.4,4.4,1.4,4.4c-1.8,0.9-3.5,2-5,3.4
					c-1.6,1.3-3.3,2.6-4.3,2.8c-2.1,0.4-4.3,0.2-6.4-0.4c1.2,0.2,2.1-0.6,2.9-1.3c0.1-0.1,0.2-0.2,0.4-0.3c0.2-0.2,0.3-0.4,0.2-0.7
					c-0.2-0.6-0.7-1-1.3-1.1c-0.9-0.2-1.8-0.2-2.6,0.1c-0.4,0.1-0.8,0.3-1.1,0.5c-0.3,0.3-0.4,0.8-0.3,1.3c0.3,0.7,0.8,1.2,1.5,1.4
					c-1.3-0.2-2.5-0.8-3.6-1.5c-0.2-1,0-2.1,0.7-2.8c0.7,0.3,1.6,0.4,2.4,0.3c0.2,0,0.5-0.1,0.7-0.2l0.5-0.1
					c0.7-0.2,1.5-0.1,2.1,0.1c0.3,0.1,0.7,0,0.8-0.3c0.1-0.3,0-0.7-0.3-0.8c0,0,0,0-0.1,0c-0.9-0.3-1.9-0.4-2.9-0.2l-0.5,0.1
					c-0.2,0.1-0.4,0.1-0.6,0.2c-0.3,0.1-0.7,0.1-1,0l0.1-0.1c1.9-0.8,3.8-1.3,5.8-1.5c1-0.2,3.2,1.3,3.7,1.2
					C350.1-88.2,351.8-93.2,354.2-91.8L354.2-91.8z M351-100.8c1.6,0.9,1,5.8,1,5.8c-0.3-0.1-0.9-0.2-1.2-0.3l-0.7-0.2
					c-1.6-0.4-3.6-3.8-3.8-4.5C346.4-101,348.3-102.4,351-100.8L351-100.8z M371.6-105.1c-1.2,0.8-2.4,1.5-3.7,2.1
					c-2.7,1.4-6,3-8.2,5.7l0,0c-1.9,0.7-4.5,1.1-5.5-0.7c-1.8-3,0-9.6,0.9-11.5c0.1-0.2,0-0.5-0.1-0.7c-0.2-0.2-0.5-0.2-0.7-0.1
					c-0.4,0.1-0.9,0-1.2-0.3c-0.1-0.1-0.1-0.3,0-0.3c0.5-0.6,5.5-3.9,7.8-2.7c1.4,0.8,2.9,2.3,2.7,3.9c-0.2,0.9-0.5,1.8-1,2.6
					c-0.8,1.2-1.2,2.6-1,4c0.1,0.3,0.3,0.5,0.7,0.5c1.7-0.3,3.4-0.8,5-1.6c0.7-0.3,1.3-0.6,1.9-0.7
					C369.8-105.1,370.7-105.1,371.6-105.1L371.6-105.1z M402-110.1c2.3,1.1,4.7,2,7.1,2.6c0.9,0.2,2.1,0.4,2.7-0.3
					c0.6-0.8,3.8-1.8,5.3-0.7c-3.3,3.4-4.1,9-4.2,10.3c-0.1,3.4-4.2,11.2-8.6,12.9c-1.6,0.6-3.1,1.6-4.2,2.9c-0.5,0.5-1.1,1-1.8,1.7
					c-1.6,1.4-6.8,1.6-8.4,1.6c-1.9,0-3.7,0.4-5.4,1.2c-1.8,0.8-3.7,1.3-5.6,1.6c-1.2,0.2-4-0.6-6.6-1.4c-1.7-0.5-3.5-1-5-1.3
					c-1.5-0.4-3-1.1-4.4-2c-1.9-1.1-3-2.5-4.8-2.6c-1.6-0.1-2-0.5-2.1-0.7c-0.2-0.4,0.3-1.5,0.8-2.5c0.7-1.3,1.3-2.7,1.5-4.2
					c1-6.2,5.9-8.7,10.1-10.8c2.2-1.1,3.7-2.6,5.2-3.4c2-1,12.2-1.1,17.2-2.4C395-108.7,398.2-111.7,402-110.1L402-110.1z
					 M414.2-120.6c0.1,0.9-0.8,3.2-1.6,4.7c-0.2,0.4-0.5,0.8-0.9,1.3c-0.8,1.1-1.5,2.3-1.9,3.5c0,0,0,0.1,0,0.2c0,0,0,0,0,0.1
					s0,0.2,0.1,0.3l0,0l0.2,0.3c0.3,0.5,0.6,1,0.7,1.6c-0.5,0-0.9,0-1.4-0.2c-2.4-0.7-4.7-1.5-6.9-2.6c-0.8-0.4-1.6-0.7-2.5-1.1
					c0.4-1.9,2-3.3,4.4-4.6c0.2-0.1,0.3-0.2,0.3-0.4c0-0.2,0-0.4-0.1-0.5c-0.5-0.6-0.9-1.6,0.9-3.2c2-1.5,4.7-1.9,7.1-1.1
					C413.3-121.9,414.1-121.5,414.2-120.6z"/>
				<path class="st2" d="M343.1-139.1c0-0.1-0.1-0.3-0.3-0.3c-0.8-0.4-1.7-0.7-2.6-0.7c-3.4,0-7.2,2.9-10.7,5.5
					c-2.6,1.9-5,3.8-6.7,4c-1.4,0.3-2.8,0.6-4.1,1c-0.7-1.1-1.8-1.9-3-2.3c-0.3-0.1-0.6,0-0.7,0.2c-0.2,0.2-0.2,0.5,0,0.8
					c0.3,0.7,0.5,1.5,0.6,2.3l-2,0.7l-0.7,0.2c-0.7-0.9-1.5-1.7-2.5-2.3c-0.1-0.1-0.3-0.2-0.4-0.3s-0.1-0.3-0.1-0.4
					c-0.2-1.3-0.3-2.6-0.2-3.9c0-0.3-0.1-0.5-0.4-0.6c-0.1,0-0.2,0-0.2,0c-0.2,0-0.4,0.1-0.5,0.2c-1.4,1.3-2,3.3-1.7,5.2
					c-0.7-0.1-1.4,0-1.9,0.4l-0.4,0.3c-0.1,0.1-0.3,0.2-0.5,0.3c0,0,0-0.1-0.1-0.4l-0.9-3.6c-0.1-0.2-0.2-0.4-0.5-0.5
					c-0.1,0-0.1,0-0.2,0c-0.2,0-0.3,0.1-0.4,0.2c-1.3,1.2-1.8,3.1-1.1,4.8l-0.4,0.5c-0.1,0.1-0.2,0.3-0.3,0.3c-0.1,0-0.3,0-0.4-0.2
					c-0.2-0.3-0.3-0.5-0.4-0.8c-0.2-0.7-0.4-1.4-0.6-2.1c-0.1-0.3-0.3-0.4-0.5-0.5h-0.1c-0.2,0-0.5,0.1-0.6,0.3
					c-0.7,1.3-0.6,2.8,0.1,4.1c0.3,0.5,0.6,0.9,1,1.2c0.9,0.7,1.9,1.1,3,1.1c-0.1,0.2-0.3,0.4-0.4,0.7c-0.1,0.2-0.4,0.7-0.6,1.1
					l-2,2.9c-3.8,5.4-7.7,10.9-10,17.1c-2,5.6-4,14.2-1.3,22.8c0.2,0.8,0.5,1.6,0.9,2.4c-1.5,1.7-1.1,7-0.9,8.5
					c0,0.2,0.2,0.4,0.3,0.5c0.2,0.1,0.4,0.1,0.6,0c5.4-2.6,5.5-2.7,5.7-2.9c0.1-0.2,0.3-0.4,0.3-0.6c0.8,0.3,1.6,0.5,2.4,0.6
					c2.3,0.5,4.6,0.5,6.9,0c0,0.1,0,0.2,0,0.2c0.2,1,0.4,1.7,0.5,2.1c0.4,1.3,1.5,1.8,2.8,2.4l0.8,0.4c0.2,0.1,0.3,0.1,0.5,0
					s0.3-0.2,0.4-0.3l0.2-0.4c0.9-1.5,1.4-3.1,1.5-4.8c0-1.5-0.6-2.8-1.6-3.9c0.7-1.1,1.4-2.3,2-3.5c1.6-3.3,3.2-6.4,5.7-8.3
					c1.1-0.8,2.2-1.4,3.5-1.8c0.7-0.3,1.5-0.6,2.2-1c3.8-2.2,7-5.5,9-9.4c3.3-6.6,5.6-13.6,6.8-20.8c0.5-2.9,1.1-5.8,2-8.6
					c0.3-0.9,0.7-1.7,1.1-2.5C342.3-134.5,343.7-137.4,343.1-139.1z M307.9-76.7c-0.1-0.1-0.3-0.2-0.5-0.4c1.1-1.2,1.4-2.8,1.6-4.9
					c0.2-1.9,0-3.9-0.5-5.8c1.9,0.4,3.8,0.5,5.7,0.5c-1.9,2.2-3.4,4.7-4.6,7.4C309.1-78.8,308.5-77.8,307.9-76.7z M294.7-73.7V-74
					c0-0.8,0.2-1.7,0.6-2.4v-0.1c1.6-0.7,3.1-2.9,4.3-5.2v0.1c0.7,2.4,1.6,5.2,3.1,6c0.3,0.9,0.5,1.8,0.7,2.7
					c-2.1,0.4-4.3,0.4-6.4,0C296.2-73,295.4-73.3,294.7-73.7L294.7-73.7z M301.6-81.3c0,0.1,0,0.3,0.1,0.4c-0.2,0-0.3-0.1-0.5-0.1
					c-0.1-0.3-0.2-0.7-0.3-1c0-0.1,0-0.1,0-0.2c0.2-0.8,0.9-1.3,1.7-1.4c1.4-0.2,2.8,0.8,3,2.3c0,0.1,0,0.2,0,0.2
					c-0.2,0-1.4,0-1.7,0.1h-0.4c0-0.1,0.1-0.2,0.1-0.4c0-0.6-0.4-1-1-1C302-82.3,301.5-81.9,301.6-81.3L301.6-81.3z M295.8-81.5
					c0,0.1,0,0.2,0.1,0.4c-0.8,0-1.6-0.1-2.4-0.1c-0.1-0.8,0.2-1.7,0.8-2.3c0.7-0.3,1.5-0.4,2.3-0.2c1.4,0.3,1.8,1.1,1.9,1.3
					c-0.2,0.3-0.4,0.7-0.6,1.1l-0.2,0.1c0-0.1,0-0.1,0-0.2c0-0.6-0.4-1-1-1C296.2-82.5,295.8-82,295.8-81.5L295.8-81.5z M288-94.8
					c1.2,1.7,3.1,4.4,3.1,5.8c-0.1,1.1-0.4,2.1-0.9,3c-0.6,1.1-0.9,2.3-1,3.5c0.1,1,0.4,2.1,1,2.9c-0.3,0.3-0.6,0.6-0.9,0.8
					c-0.3-0.6-0.5-1.3-0.7-1.9C287.4-85.3,287.2-90.1,288-94.8z M301.9-122.2c0.3-0.4,0.5-0.8,0.7-1.2c0.3-0.5,0.6-0.9,0.9-1.3
					c0.6-0.1,1.1-0.2,1.7-0.3c0.1,0,0.1-0.1,0.2-0.1c1.2,0.4,2.4,0.6,3.7,0.6c0.2,0.3,0.5,0.6,0.9,0.8c0.7,0.4,1.5,0.5,2.3,0.3
					c0,0.1,1.3,1.1,2,1.6s1.4,1.1,1.9,1.4c-5.7,5.1-11.4,10.7-13,14c-1.4,2.9-2.8,10.8-1,15c0.5,1.3,1.5,2.3,2.9,2.7
					c0.6,0.2,1.3,0.4,2.1,0.5c0.6,1.9,0.8,3.9,0.6,5.9c-0.4,3.5-0.9,4.7-3.7,5.4c-0.9,0.2-1.7-1.2-2.3-2.8c0.8,0,1.6,0,2.3-0.2
					c0.4-0.1,1.8-0.1,2.2-0.1c0.2,0,0.3-0.1,0.5-0.2c0.1-0.1,0.2-0.3,0.2-0.5c0-2.4-1.9-4.3-4.2-4.4h-0.1c-0.3,0-0.5,0-0.8,0.1
					c0.1-0.4,0.1-0.8,0.1-1.1c-0.1-1.2-0.5-2.3-1-3.4c-0.1-0.2-0.3-0.4-0.6-0.4l0,0c-0.3,0-0.5,0.2-0.6,0.4
					c-0.3,0.8-0.5,1.6-0.7,2.4c-0.2,0.6-0.3,1.2-0.3,1.8l0,0c0,0.2,0,0.5,0.1,0.7c-0.5-0.4-1.1-0.6-1.7-0.7
					c-0.2-0.1-0.5-0.1-0.7-0.1c-0.9,0-1.8,0.2-2.7,0.6c-1,1-1.4,2.3-1.3,3.7c0,0.3,0.2,0.6,0.4,0.7c1.4,0.4,2.9,0.5,4.4,0.3
					c-0.5,1-1.4,1.8-2.4,2.2c-0.6,0-1.2-0.2-1.6-0.6c-0.5-0.4-0.9-0.9-1.3-1.4l-0.2-0.2c-0.6-0.8-0.9-1.7-1-2.6c0.1-1,0.4-2,0.9-2.9
					c0.6-1.1,1-2.4,1-3.6c-0.2-2.3-3.6-6.7-4.1-7.4c0.4-2.1,1-4.1,1.7-6.1c2.2-6,6-11.4,9.8-16.8L301.9-122.2z M301.7-127.5
					c0.1,0.1,0.2,0.2,0.3,0.3c0.5,0.4,1,0.8,1.5,1.1c-1.3,0.2-2.6,0-3.7-0.6c0.3,0.1,0.7,0.1,1-0.1c0.3-0.2,0.6-0.4,0.8-0.7
					L301.7-127.5L301.7-127.5z M307.8-128.1c0.1,0.3,0.2,0.7,0.2,1.1c0,0.2,0.1,0.4,0.1,0.7c0,0.2,0.1,0.4,0.2,0.5
					c-2-0.1-3.9-0.9-5.4-2.2c-0.2-0.1-0.3-0.3-0.5-0.5c-0.1-0.1-0.1-0.2-0.2-0.2c-0.1-0.2-0.2-0.3-0.2-0.5c-0.2-0.7-0.2-1.5,0.2-2.1
					l0.6,2.2c0.1,0.5,0.4,1,0.8,1.2c0.6,0.2,1.3,0,1.8-0.5l0.3-0.2c0.4-0.2,0.9-0.3,1.3-0.2c0.2,0.1,0.4,0.1,0.6,0.2
					C307.7-128.5,307.8-128.3,307.8-128.1L307.8-128.1z M312.5-126.1c0.2,0.5,0.6,0.9,1.1,1.1c-0.4,0-0.8,0.1-1.2,0.2h-0.2
					c-0.3,0.1-0.6,0.1-0.9,0.1s-0.5-0.1-0.8-0.2l0,0c-0.1-0.1-0.3-0.2-0.4-0.3c-0.2-0.2-0.4-0.5-0.5-0.7c-0.1-0.3-0.2-0.5-0.3-0.8
					c0-0.2-0.1-0.4-0.1-0.6s-0.1-0.6-0.2-0.9c0-0.2-0.1-0.4-0.2-0.5c-0.1-0.3-0.3-0.5-0.4-0.7c0-0.1-0.1-0.1-0.1-0.2
					c0-0.1-0.1-0.1-0.1-0.2c-0.4-0.9-0.4-2,0-2.9c0,0.7,0.1,1.4,0.2,2c0,0.4,0.2,0.7,0.4,1c0.2,0.2,0.4,0.4,0.7,0.6
					C310.9-128.4,311.9-127.3,312.5-126.1L312.5-126.1z M314.1-126.9l1.6-0.5c0,0.2,0,0.4-0.1,0.5c0,0.2-0.2,0.5-0.4,0.6
					c-0.4,0.1-0.9,0.1-1.3,0.1c-0.1-0.1-0.2-0.3-0.3-0.5l0,0L314.1-126.9z M316.8-129.9c0.6,0.6,1.1,1.3,1.4,2.1
					c0.3,0.9,0.3,1.9,0,2.8c-0.4,0.9-0.5,1.2-1.1,1.2c-0.4-0.1-0.8-0.3-1.2-0.5c-0.3-0.2-0.7-0.3-1.1-0.4l-0.4-0.1h0.1
					c0.5,0,0.9,0,1.4-0.2c0.6-0.3,1-0.9,1.1-1.5C317.1-127.7,317-128.8,316.8-129.9L316.8-129.9z"/>
				<path class="st3" d="M351.2-178.7c-1.1-5.6-7.3-6.8-12.6-5.4h-0.2l-0.5-0.7c-1.3-1.8-3.8-5.3-4.7-8.8c-0.6-2.6-2.7-4.5-6.3-5.9
					c-0.1,0-0.2,0-0.2,0c-0.2,0-0.4,0.1-0.5,0.3c-0.2,0.3-0.2,0.6-0.1,0.9c0.5,1.4,0.6,2.9,0.3,4.3c-0.1,0.4-0.1,0.8-0.1,1.2
					c0.1,1,0.5,2,1.1,2.9l0,0c-0.8-0.2-1.7-0.4-2.6-0.6c-2.7-0.5-5.3-1.3-7.9-2.3c-0.1,0-0.2,0-0.2,0c-0.3,0-0.6,0.2-0.7,0.6
					c-0.1,0.4,0,0.9,0.4,1.1c0.9,0.5,1.7,1.4,2.1,2.4c0.6,1.3,1.7,2.4,3,3c1.2,0.5,3,2.5,4.7,4.6c-1.8-0.7-3.6-1.7-5.2-2.8
					c-3.3-2.1-11.2-3-14.6-2.1c-0.9,0.1-1.6,0.6-2,1.4c-0.2,0.9,0,1.8,0.6,2.5c0.2,0.4,0.4,0.8,0.6,1.3l-0.9-0.4
					c-3-1.4-5.2-2.4-8.9-1.4l-1,0.2c-3.5,0.8-4.8,1.2-5.2,2.1c-0.1,0.3-0.1,0.7,0,1c0.2,0.6,1,2.3,8.7,5.1l0.2,0.1
					c3.3,1.5,4.8,3.6,7,6.7c-4-1.4-10.2-1.8-15.5-2.1c-3.6-0.2-6.8-0.4-8-0.9c-0.4-0.1-0.8,0.1-0.9,0.4c-0.2,0.4-0.1,0.8,0.2,1.1
					c2.3,2.3,4.5,4.8,6.4,7.4c3.3,4.1,6.6,8.3,9.2,10c3.2,2.1,9.7,3.9,13.6,2c1.5-0.7,2.5-2,2.9-3.6c0.5-1.9,2.7-4.3,6.1-6.8
					c-0.4,2.4-1.1,4.2-2.6,5.2c-0.9,0.5-2.9,4.1-4.1,5.5c-1.2,1.6-3,2.7-5,2.7c-0.3,0.1-0.6,0.3-0.6,0.6c-0.1,0.3,0,0.7,0.3,0.9
					c0.7,0.6,1.3,1.3,1.8,2c0.5,0.7,1,1.5,2,1.3c3.8-0.8,6.1-1.3,9.8-3.5c2.5-1.5,4.6-3.6,6.3-6.1c0.4-0.5,0.7-1,1.2-1.5
					c2-1.8,3.9-4.2,2.5-8.4c-0.3-0.9-0.7-1.8-1.1-2.6c-0.3-0.5-0.5-1.1-0.6-1.7c2.7-2.8,8.2-4.1,11.2-4.9c0.8-0.2,1.4-0.4,1.8-0.5
					c3.1-1,5.1-3.2,7-5.1c0.6-0.6,1.2-1.3,1.8-1.8C351.2-178,351.3-178.4,351.2-178.7z M321.2-161.5c2.1-1.4,4.3-2.8,6.5-4
					c0.1,0.9,0.4,1.7,0.8,2.5c0.4,0.8,0.7,1.6,1,2.4c0.9,2.6,0.3,4.3-2,6.4c-0.5,0.5-1,1.1-1.4,1.7c-1.5,2.3-3.5,4.2-5.9,5.7
					c-3.5,2.1-5.7,2.6-9.4,3.3c-0.1,0-0.2,0-0.6-0.7c-0.3-0.4-0.6-0.8-0.9-1.2c1.9-0.9,2.8-0.8,4.4-2.8c1.1-1.3,3.1-4.8,3.7-5.2
					C320-154.9,320.7-158,321.2-161.5z M307.3-164.5c0,0,0,0.9,0,3.3c0.2,3.3,1.6,6.5,4,8.8c-0.4,0.5-0.9,1-1.5,1.3
					c-3.2,1.6-9.1,0.3-12.4-1.9c-2.4-1.6-5.7-5.7-8.9-9.7c-1.6-2-3.2-4-4.6-5.6c1.5,0.2,3.4,0.3,5.6,0.4
					C296.1-167.5,304.9-166.9,307.3-164.5L307.3-164.5z M326.1-179.5c-4.7,2.1-15,7.6-18,13.4c-0.6-0.8-1.1-1.6-1.6-2.3
					c-2.3-3.4-4-5.9-7.8-7.6l-0.3-0.1c-4.9-1.8-6.8-3-7.4-3.7c1.2-0.4,2.5-0.7,3.8-1l1-0.2c3.4-0.8,5.3,0.1,8.1,1.4
					c0.7,0.3,1.5,0.7,2.4,1.1c0.3,0.1,0.5,0,0.7-0.2c0.2-0.2,0.3-0.5,0.2-0.9c-0.3-1.2-0.7-2.4-1.3-3.5c-0.2-0.3-0.3-0.7-0.4-1
					c0.3-0.2,0.6-0.3,1-0.4c3.4-0.9,10.8,0.2,13.6,2C322.1-181.2,324.1-180.2,326.1-179.5z M336.1-184.5c-1.3-0.6-2.4-1.4-3.5-2.3
					c-0.7-0.5-1.5-1.1-2.4-1.7l-0.2-0.1l0,0c-1.1-1.4-2.3-3.4-2.3-4.1c0-0.2,0-0.5,0.1-0.9c0.2-1.2,0.2-2.3,0-3.5
					c2.3,1.1,3.6,2.4,4,4.1C332.7-189.9,334.2-187,336.1-184.5L336.1-184.5z M338.1-184.1L338.1-184.1L338.1-184.1L338.1-184.1z
					 M338.3-182.3c-0.4,1-1.1,1.9-2.1,1.9s-1.7,3.4-3,3.2c-1.9-0.3-5.9-5-5.9-5c-2-2.4-3.9-4.6-5.5-5.2c-1-0.4-1.9-1.3-2.3-2.4
					l-0.2-0.3c1.9,0.6,3.6,1,5,1.3c1.8,0.2,3.5,0.8,5.1,1.8c0.9,0.7,1.7,1.2,2.4,1.7C334.8-183.1,335.9-182.3,338.3-182.3
					L338.3-182.3z M346.8-176.6c-0.1-0.5-0.6-0.9-1.1-0.9c-0.6,0-1.1,0.5-1.1,1.1l0,0c0,0.2,0.1,0.4,0.2,0.6
					c-0.8-0.2-1.3-0.9-1.1-1.7c0-0.2,0.1-0.4,0.2-0.5c0.6-0.8,1.7-1.1,2.6-0.5c0.1,0.1,0.2,0.2,0.3,0.3
					C347.1-177.7,347.1-177.1,346.8-176.6L346.8-176.6z"/>
				<path class="st1" d="M275.1-187.2c-0.2-1.3-1.2-2.3-2.4-2.7c-1.8-0.6-3.7-0.6-5.5-0.2c-1.1,0.3-2.1,0.8-2.9,1.5
					c-2,1.8-1.9,3.3-1.5,4.3c-2,1.2-3.9,2.6-4.4,4.9c-2.6-1.1-5.5-1.5-8.2-1l-1.3,0.3c-2.5,0.5-5.5,1.1-8.5,1.9
					c-5,1.3-10.1,3.1-13.3,5.6c-1.5,0.7-3.1,1.4-4.8,1.9c0.1-0.9,0.4-1.8,0.9-2.5c0.6-0.9,1-1.9,1.1-3c0.3-2.2-1.5-4.1-3.4-5.2
					c-1.1-0.5-2.4-0.6-3.6-0.2c-2.2,0.6-4.2,1.8-5.9,3.3c-0.4,0.6-0.3,1.4,0.2,1.9c0.4,0.4,0.9,0.7,1.5,0.8
					c-0.5,1.5-0.9,3.1-1.1,4.7l-1,0.2c-2.5,0.6-6.2,2-6.5,3.8c-0.1,0.9,2.4,5.3,4.7,5.9l0.7,0.2l0.6,0.2c-1.4,1.6-3.2,2.8-5.2,3.7
					c-0.5,0.2-1.3,0.3-2.3,0.5c-2.1,0.3-4.2,0.8-6.2,1.7c-2,1-3.1,3.2-2.6,5.4c0.4,1.7,8.1,3.8,11.9,2.8c1.3-0.3,3-1.7,4.8-3.1
					c1.1-0.9,2.2-1.7,3.4-2.5c-0.3,0.6-0.3,1.3,0,1.8c0.4,0.8,1.4,1.2,3.1,1.3c1.5,0.1,2.5,1.4,4.2,2.4c1.5,1,3.1,1.7,4.8,2.2l0,0
					c1.4,0.3,3.2,0.8,4.9,1.3c2.9,0.9,5.6,1.7,7.1,1.4c2-0.3,4-0.9,5.9-1.7c1.5-0.7,3.2-1.1,4.9-1.2c0.1,0,7,0.1,9.3-1.9
					c0.8-0.7,1.3-1.2,1.8-1.7c1-1.2,2.3-2.1,3.8-2.6c5.1-2,9.4-10.4,9.4-14c0-1.7,1.1-7.1,4.3-9.9c0.1-0.1,0.2-0.3,0.2-0.5
					c0-0.2-0.1-0.4-0.2-0.5c-2-1.7-4.5-2.7-7.1-2.6c0.4-0.8,0.9-1.6,1.4-2.3c0.3-0.5,0.6-0.9,0.9-1.4
					C274.1-183.1,275.2-185.8,275.1-187.2z M199.6-149.3c-0.3-0.1-0.5-0.2-0.7-0.5c0.2,0.1,0.4,0.2,0.5,0.1c0.3-0.1,0.5-0.3,0.5-0.6
					c0.4,0,0.7,0,1.1,0h0.2C200.7-149.8,200.2-149.3,199.6-149.3L199.6-149.3z M213.8-158.3c1,0.6,1.4,4.4,1.4,4.4
					c-1.8,0.9-3.5,2-5,3.4c-1.6,1.3-3.3,2.6-4.3,2.8c-2.1,0.4-4.3,0.2-6.4-0.4c1.2,0.2,2.1-0.6,2.9-1.3c0.1-0.1,0.2-0.2,0.4-0.3
					c0.2-0.2,0.3-0.4,0.2-0.7c-0.2-0.6-0.7-1-1.3-1.1c-0.9-0.2-1.8-0.2-2.6,0.1c-0.4,0.1-0.8,0.3-1.1,0.5c-0.3,0.3-0.4,0.8-0.3,1.3
					c0.3,0.7,0.8,1.2,1.5,1.4c-1.3-0.2-2.5-0.8-3.6-1.5c-0.2-1,0-2.1,0.7-2.8c0.8,0.3,1.6,0.4,2.4,0.3c0.2,0,0.5-0.1,0.7-0.2
					l0.5-0.1c0.7-0.2,1.5-0.1,2.1,0.1c0.3,0.1,0.7-0.1,0.8-0.4c0.1-0.3-0.1-0.6-0.4-0.8c-0.9-0.3-1.9-0.4-2.9-0.2l-0.5,0.1
					c-0.2,0.1-0.4,0.1-0.6,0.2c-0.3,0.1-0.7,0.1-1,0l0.1-0.1c1.9-0.8,3.8-1.3,5.8-1.5c1-0.2,3.2,1.3,3.7,1.2
					C209.7-154.7,211.4-159.7,213.8-158.3L213.8-158.3z M210.6-167.3c1.6,0.9,1,5.8,1,5.8c-0.3-0.1-0.8-0.2-1.2-0.3l-0.7-0.2
					c-1.6-0.4-3.6-3.8-3.8-4.5C206-167.5,207.9-168.9,210.6-167.3L210.6-167.3z M231.2-171.6c-1.2,0.8-2.4,1.5-3.7,2.1
					c-2.7,1.4-6,3-8.2,5.7c-0.1,0,0.1,0,0,0c-1.9,0.7-4.4,1.1-5.5-0.7c-1.8-3,0-9.6,0.9-11.5c0.1-0.2,0-0.5-0.1-0.7
					c-0.2-0.2-0.5-0.2-0.7-0.1c-0.4,0.1-0.9,0-1.2-0.3c-0.1-0.1-0.1-0.3,0-0.3c0.5-0.6,5.5-3.9,7.8-2.7c1.4,0.8,2.9,2.3,2.7,3.9
					c-0.2,0.9-0.5,1.8-1,2.6c-0.8,1.2-1.2,2.6-1,4c0.1,0.3,0.3,0.5,0.7,0.5c1.7-0.3,3.4-0.8,5-1.6c0.7-0.3,1.3-0.6,1.9-0.7
					C229.5-171.6,230.3-171.6,231.2-171.6z M261.6-176.6c2.3,1.1,4.7,2,7.1,2.6c0.9,0.2,2.1,0.4,2.7-0.3c0.6-0.7,3.8-1.8,5.3-0.7
					c-3.3,3.4-4.1,9-4.2,10.3c-0.1,3.4-4.2,11.2-8.6,12.9c-1.6,0.6-3.1,1.6-4.2,2.9c-0.5,0.5-1.1,1-1.8,1.7
					c-1.6,1.4-6.8,1.6-8.4,1.6c-1.9,0-3.8,0.4-5.5,1.2c-1.8,0.8-3.7,1.3-5.6,1.6c-1.2,0.2-3.9-0.6-6.6-1.4c-1.7-0.5-3.5-1-5-1.3
					c-1.5-0.4-3-1.1-4.4-2c-1.9-1.1-3-2.4-4.8-2.6c-1.6-0.1-2-0.5-2.1-0.7c-0.2-0.4,0.3-1.5,0.8-2.5c0.7-1.3,1.3-2.7,1.6-4.2
					c1-6.2,5.9-8.7,10.1-10.8c2.2-1.1,3.7-2.6,5.2-3.4c2-1,12.2-1.1,17.2-2.4C254.6-175.2,257.8-178.2,261.6-176.6L261.6-176.6z
					 M273.8-187.1c0.1,0.9-0.8,3.2-1.6,4.7c-0.2,0.4-0.5,0.8-0.9,1.3c-0.8,1.1-1.5,2.3-1.9,3.5c0,0,0,0.1,0,0.2v0.1
					c0,0.1,0,0.2,0.1,0.3l0,0l0.2,0.3c0.3,0.5,0.6,1,0.7,1.6c-0.5,0-0.9,0-1.4-0.2c-2.4-0.7-4.7-1.5-6.9-2.6
					c-0.8-0.4-1.7-0.7-2.5-1.1c0.4-1.9,2-3.3,4.4-4.6c0.2-0.1,0.3-0.2,0.3-0.4c0-0.2,0-0.4-0.1-0.5c-0.5-0.6-0.9-1.6,0.9-3.2
					c2-1.5,4.7-1.9,7.1-1.1C273-188.5,273.6-187.8,273.8-187.1L273.8-187.1z"/>
				<path class="st2" d="M202.7-205.6c0-0.1-0.1-0.3-0.3-0.4c-0.8-0.4-1.7-0.7-2.6-0.7c-3.4,0-7.2,2.9-10.7,5.5
					c-2.6,1.9-5,3.8-6.7,4c-1.4,0.2-2.8,0.6-4.1,0.9c-0.7-1.1-1.7-1.9-2.9-2.3c-0.3-0.1-0.6,0-0.7,0.2c-0.2,0.2-0.2,0.5,0,0.8
					c0.3,0.7,0.5,1.5,0.6,2.3l-2,0.7l-0.7,0.2c-0.7-0.9-1.5-1.7-2.5-2.3c-0.1-0.1-0.3-0.2-0.4-0.3c-0.1-0.1-0.1-0.3-0.1-0.4
					c-0.2-1.3-0.3-2.6-0.2-3.9c0-0.3-0.1-0.5-0.4-0.6c-0.1,0-0.2-0.1-0.2-0.1c-0.2,0-0.3,0.1-0.5,0.2c-1.4,1.3-2,3.3-1.7,5.2
					c-0.7-0.1-1.4,0-1.9,0.4l-0.3,0.3c-0.1,0.1-0.3,0.2-0.5,0.3c0,0,0-0.1-0.1-0.4l-0.9-3.6c-0.1-0.2-0.2-0.4-0.4-0.5
					c-0.1,0-0.1,0-0.2,0c-0.2,0-0.3,0.1-0.4,0.2c-1.3,1.2-1.7,3.1-1.1,4.8l-0.4,0.5c-0.1,0.1-0.2,0.3-0.3,0.3s-0.3,0-0.4-0.2
					c-0.2-0.3-0.3-0.5-0.4-0.9c-0.2-0.7-0.4-1.4-0.6-2.1c-0.1-0.3-0.3-0.4-0.6-0.5H158c-0.2,0-0.5,0.1-0.6,0.3
					c-0.7,1.3-0.6,2.8,0.1,4.1c0.3,0.5,0.6,0.9,1,1.2c0.9,0.7,1.9,1.1,3,1.1l-0.4,0.7c-0.2,0.4-0.4,0.7-0.7,1.1l-2,2.9
					c-3.8,5.4-7.7,10.9-10,17.1c-2,5.6-4,14.2-1.3,22.8c0.2,0.8,0.5,1.6,0.9,2.4c-1.5,1.6-1.1,7-0.9,8.5c0,0.2,0.2,0.4,0.3,0.5
					c0.2,0.1,0.4,0.1,0.6,0c5.4-2.6,5.6-2.7,5.7-2.9c0.1-0.2,0.3-0.4,0.3-0.6c0.8,0.3,1.6,0.5,2.4,0.6c2.3,0.5,4.6,0.5,6.9,0
					c0,0.1,0,0.2,0,0.2c0.2,1,0.4,1.7,0.5,2.1c0.4,1.3,1.5,1.8,2.8,2.4l0.8,0.4c0.2,0.1,0.3,0.1,0.5,0s0.3-0.2,0.4-0.3l0.2-0.4
					c0.9-1.4,1.4-3,1.6-4.7c0-1.5-0.6-2.8-1.7-3.8c0.7-1.1,1.4-2.3,2-3.5c1.6-3.3,3.2-6.4,5.7-8.3c1.1-0.8,2.2-1.4,3.5-1.9
					c0.7-0.3,1.5-0.6,2.2-1c3.8-2.2,7-5.5,9-9.4s3.6-7.9,4.8-12.1c0.9-2.9,1.5-5.8,2-8.8c0.5-2.9,1.1-5.8,2-8.6
					c0.3-0.9,0.7-1.7,1.1-2.5C201.9-201,203.3-203.9,202.7-205.6z M167.5-143.2l-0.5-0.4c1.1-1.2,1.4-2.8,1.6-4.9
					c0.2-1.9,0-3.9-0.5-5.8c1.9,0.4,3.8,0.5,5.7,0.5c-1.9,2.2-3.4,4.7-4.6,7.4C168.7-145.4,168.1-144.3,167.5-143.2z M154.3-140.2
					v-0.2c0-0.8,0.2-1.7,0.6-2.4v-0.1c1.6-0.7,3-2.9,4.3-5.2v0.1c0.7,2.4,1.6,5.2,3.1,6c0.3,0.9,0.6,1.8,0.8,2.7
					c-2.1,0.4-4.3,0.4-6.4,0c-0.8-0.1-1.6-0.4-2.4-0.7L154.3-140.2L154.3-140.2z M161.1-147.8c0,0.1,0,0.2,0.1,0.3
					c-0.2,0-0.3-0.1-0.4-0.1c-0.1-0.3-0.2-0.7-0.3-1c0-0.1,0-0.1-0.1-0.2c0.2-0.8,0.9-1.3,1.7-1.4c1.4-0.2,2.8,0.8,3,2.3
					c0,0.1,0,0.2,0,0.2c-0.2,0-1.4,0-1.7,0.1H163c0-0.1,0.1-0.2,0.1-0.4c0-0.6-0.4-1-1-1s-1,0.4-1,1V-147.8z M155.4-148
					c0,0.1,0,0.2,0.1,0.4c-0.8,0-1.6-0.1-2.4-0.1c-0.1-0.8,0.2-1.7,0.8-2.3c0.7-0.3,1.5-0.4,2.3-0.2c1.4,0.3,1.8,1.1,1.9,1.3
					c-0.2,0.4-0.4,0.7-0.6,1.1l-0.2,0.1c0-0.1,0-0.1,0-0.2c0-0.6-0.4-1-1-1C155.8-149,155.4-148.5,155.4-148L155.4-148z
					 M147.6-161.3c1.2,1.7,3,4.4,3.1,5.8c-0.1,1.1-0.4,2.1-0.9,3c-0.6,1.1-0.9,2.3-1,3.5c0.1,1,0.4,2.1,1,2.9l-0.9,0.8
					c-0.3-0.6-0.5-1.3-0.7-1.9C147-151.8,146.8-156.6,147.6-161.3z M161.4-188.7c0.3-0.4,0.5-0.8,0.8-1.1c0.3-0.5,0.6-0.9,0.9-1.4
					c0.6-0.1,1.1-0.2,1.7-0.3c0.1,0,0.1-0.1,0.2-0.1c1.2,0.4,2.4,0.6,3.7,0.6c0.2,0.3,0.5,0.6,0.9,0.9c0.7,0.4,1.5,0.5,2.3,0.3
					c0,0.1,1.3,1.1,2,1.6s1.4,1.1,1.9,1.4c-5.7,5.1-11.4,10.7-13,14c-1.4,2.9-2.8,10.8-1,15c0.5,1.3,1.5,2.3,2.9,2.7
					c0.6,0.2,1.3,0.4,2.1,0.6c0.6,1.9,0.8,3.9,0.6,5.9c-0.4,3.5-1,4.7-3.7,5.4c-0.9,0.2-1.7-1.2-2.3-2.8c0.8,0,1.6,0,2.3-0.2
					c0.4,0,1.8-0.1,2.2-0.1c0.2,0,0.3-0.1,0.4-0.2c0.1-0.1,0.2-0.3,0.2-0.5c0-2.4-1.9-4.3-4.2-4.4h-0.1c-0.3,0-0.5,0-0.8,0.1
					c0-0.4,0.1-0.8,0-1.2c-0.1-1.2-0.4-2.3-1-3.4c-0.1-0.2-0.3-0.4-0.6-0.4l0,0c-0.3,0-0.5,0.2-0.6,0.4c-0.3,0.8-0.5,1.6-0.7,2.4
					c-0.2,0.6-0.3,1.2-0.3,1.8l0,0c0,0.2,0,0.5,0.1,0.7c-0.5-0.4-1.1-0.6-1.7-0.7c-0.2-0.1-0.5-0.1-0.7-0.1c-0.9,0-1.8,0.2-2.7,0.6
					c-1,0.9-1.5,2.3-1.3,3.6c0,0.3,0.2,0.6,0.4,0.7c1.4,0.4,2.9,0.5,4.4,0.3c-0.5,1-1.4,1.8-2.4,2.3c-0.6,0-1.2-0.2-1.6-0.6
					c-0.5-0.4-1-0.9-1.3-1.4l-0.1-0.3c-0.6-0.8-0.9-1.7-1-2.6c0.1-1,0.4-2,0.9-2.9c0.6-1.1,1-2.4,1-3.6c-0.2-2.3-3.6-6.7-4.1-7.4
					c0.4-2.1,1-4.1,1.8-6.1c2.2-5.9,6-11.4,9.8-16.8C160.1-186.8,160.8-187.7,161.4-188.7z M161.3-194c0.1,0.1,0.2,0.2,0.3,0.3
					c0.5,0.4,1,0.8,1.5,1.1c-1.3,0.2-2.6,0-3.7-0.6c0.3,0.1,0.7,0.1,1-0.1C160.7-193.5,161-193.7,161.3-194L161.3-194z M167.4-194.6
					c0.1,0.3,0.2,0.7,0.2,1.1c0,0.2,0.1,0.4,0.1,0.7c0,0.3,0.1,0.4,0.2,0.5c-2-0.1-3.9-0.9-5.4-2.2c-0.2-0.1-0.3-0.3-0.5-0.5
					c-0.1-0.1-0.1-0.2-0.2-0.2c-0.1-0.2-0.2-0.3-0.2-0.5c-0.2-0.7-0.1-1.4,0.2-2.1l0.6,2.2c0.1,0.5,0.4,1,0.8,1.2
					c0.6,0.2,1.3,0,1.8-0.5l0.3-0.2c0.4-0.2,0.9-0.3,1.3-0.1c0.2,0.1,0.4,0.1,0.6,0.2C167.3-194.9,167.4-194.8,167.4-194.6z
					 M172.1-192.6c0.2,0.5,0.6,0.9,1.1,1.2c-0.4,0-0.8,0.1-1.2,0.2h-0.2c-0.3,0.1-0.6,0.1-0.9,0.1c-0.3,0-0.5-0.1-0.8-0.2l0,0
					c-0.1-0.1-0.3-0.2-0.4-0.3c-0.2-0.2-0.4-0.5-0.5-0.7c-0.1-0.3-0.2-0.5-0.3-0.8c0-0.2-0.1-0.4-0.1-0.6c-0.1-0.3-0.1-0.6-0.2-0.9
					c0-0.2-0.1-0.4-0.2-0.5c-0.1-0.3-0.3-0.5-0.4-0.7c0-0.1-0.1-0.1-0.1-0.2s-0.1-0.1-0.1-0.2c-0.4-0.9-0.4-2,0-2.9
					c0,0.7,0.1,1.3,0.2,2c0,0.4,0.2,0.7,0.4,1c0.2,0.2,0.4,0.4,0.7,0.6C170.5-194.9,171.5-193.8,172.1-192.6L172.1-192.6z
					 M173.7-193.4l1.7-0.5c0,0.2,0,0.4-0.1,0.5c0,0.2-0.2,0.5-0.4,0.6c-0.4,0.1-0.9,0.1-1.3,0.1c-0.1-0.1-0.2-0.3-0.3-0.5l0,0
					C173.4-193.2,173.5-193.3,173.7-193.4L173.7-193.4z M176.3-196.5c0.6,0.6,1.1,1.2,1.5,2c0.3,0.9,0.3,1.9,0,2.8
					c-0.4,0.9-0.5,1.2-1.1,1.2c-0.4-0.1-0.8-0.3-1.2-0.5c-0.3-0.2-0.7-0.3-1.1-0.4l-0.4-0.1h0.1c0.5,0,0.9-0.1,1.4-0.2
					c0.6-0.3,1-0.9,1.1-1.5C176.7-194.3,176.6-195.4,176.3-196.5z"/>
				<path class="st3" d="M210.8-245.2c-1.1-5.6-7.3-6.8-12.6-5.4H198l-0.5-0.7c-1.3-1.8-3.8-5.3-4.7-8.8c-0.6-2.6-2.7-4.5-6.3-5.9
					c-0.1,0-0.1,0-0.2,0c-0.2,0-0.4,0.1-0.6,0.3c-0.2,0.3-0.2,0.6-0.1,0.9c0.5,1.4,0.6,2.9,0.3,4.3c-0.1,0.4-0.1,0.8-0.1,1.2
					c0.1,1,0.5,2,1.1,2.9l0,0c-0.8-0.2-1.7-0.4-2.6-0.6c-2.7-0.5-5.3-1.3-7.9-2.3c-0.1,0-0.2,0-0.2,0c-0.3,0-0.6,0.2-0.7,0.6
					c-0.2,0.4,0,0.9,0.4,1.1c1,0.5,1.7,1.4,2.1,2.4c0.6,1.3,1.7,2.4,3,3c1.2,0.5,3,2.5,4.7,4.6c-1.8-0.7-3.6-1.7-5.2-2.8
					c-3.3-2.1-11.2-3-14.6-2.1c-0.9,0.1-1.6,0.6-2,1.4c-0.2,0.9,0,1.8,0.6,2.5c0.2,0.4,0.4,0.8,0.6,1.3l-0.9-0.4
					c-3-1.4-5.2-2.4-8.9-1.4l-1,0.2c-3.6,0.8-4.8,1.2-5.2,2.1c-0.1,0.3-0.1,0.7,0,1c0.2,0.6,0.9,2.3,8.7,5.1l0.2,0.1
					c3.3,1.5,4.8,3.6,6.9,6.7c-4-1.4-10.2-1.8-15.5-2.1c-3.6-0.2-6.7-0.4-7.9-0.9c-0.4-0.1-0.8,0.1-0.9,0.4
					c-0.2,0.4-0.1,0.8,0.2,1.1c2.4,2.3,4.5,4.7,6.5,7.3c3.3,4.1,6.6,8.3,9.2,10c3.2,2.1,9.7,3.9,13.7,2c1.5-0.7,2.5-2,2.9-3.6
					c0.4-1.9,2.7-4.3,6.1-6.8c-0.4,2.4-1.1,4.2-2.6,5.1c-0.9,0.5-2.9,4.1-4.1,5.5c-1.2,1.6-3,2.7-5,2.7c-0.3,0.1-0.6,0.3-0.6,0.6
					c-0.1,0.3,0,0.7,0.3,0.9c0.7,0.6,1.3,1.3,1.8,2c0.5,0.7,1,1.5,2,1.3c3.8-0.8,6.2-1.3,9.8-3.5c2.5-1.5,4.6-3.6,6.3-6.1
					c0.3-0.5,0.7-1,1.2-1.5c2-1.8,3.9-4.2,2.5-8.4c-0.3-0.9-0.7-1.8-1.1-2.6c-0.3-0.5-0.5-1.1-0.6-1.6c2.7-2.8,8.2-4.1,11.2-4.9
					c0.8-0.2,1.4-0.4,1.8-0.5c3.1-1.1,5.1-3.2,6.9-5.1c0.6-0.6,1.2-1.3,1.8-1.8C210.8-244.5,210.9-244.9,210.8-245.2z M180.8-228
					c2.1-1.4,4.3-2.8,6.5-4c0.1,0.9,0.4,1.7,0.8,2.5c0.4,0.8,0.7,1.6,1,2.4c0.9,2.6,0.3,4.3-2,6.4c-0.5,0.5-1,1.1-1.4,1.7
					c-1.5,2.3-3.5,4.2-5.8,5.6c-3.5,2.1-5.7,2.6-9.4,3.3c-0.1,0-0.2,0-0.7-0.7c-0.3-0.4-0.6-0.8-0.9-1.2c1.9-0.9,2.8-0.8,4.5-2.8
					c1.1-1.3,3-4.8,3.7-5.2C179.6-221.5,180.3-224.5,180.8-228L180.8-228z M166.9-231c0,0,0,0.9,0,3.3c0.2,3.3,1.7,6.4,4.1,8.7
					c-0.4,0.5-0.9,1-1.5,1.3c-3.2,1.6-9.1,0.3-12.4-1.9c-2.4-1.6-5.7-5.7-8.9-9.7c-1.6-2-3.2-4-4.6-5.6c1.5,0.2,3.4,0.3,5.6,0.4
					C155.7-234,164.5-233.5,166.9-231L166.9-231z M185.7-246c-4.7,2.1-15,7.6-18,13.4c-0.6-0.8-1.1-1.6-1.6-2.3
					c-2.3-3.4-4-5.9-7.8-7.6l-0.3-0.1c-5-1.8-6.8-3-7.4-3.7c1.2-0.4,2.5-0.7,3.8-1l1-0.2c3.4-0.8,5.3,0.1,8.1,1.4
					c0.7,0.3,1.6,0.7,2.4,1.1c0.3,0.1,0.5,0,0.7-0.2c0.2-0.2,0.3-0.5,0.2-0.9c-0.3-1.2-0.7-2.4-1.3-3.5c-0.2-0.3-0.3-0.6-0.4-0.9
					c0.3-0.2,0.6-0.3,1-0.4c3.4-0.9,10.8,0.2,13.6,1.9C181.7-247.7,183.7-246.7,185.7-246L185.7-246z M195.7-251
					c-1.3-0.6-2.4-1.4-3.5-2.3c-0.7-0.5-1.4-1.1-2.4-1.7l-0.2-0.1l0,0c-1.1-1.4-2.3-3.4-2.3-4.1c0-0.3,0-0.6,0.1-0.9
					c0.2-1.2,0.2-2.3,0-3.5c2.3,1.1,3.6,2.5,4,4.1C192.3-256.4,193.8-253.5,195.7-251L195.7-251z M197.7-250.6L197.7-250.6z
					 M197.9-248.8c-0.4,1-1.1,1.9-2.1,1.9s-1.7,3.4-3,3.2c-1.9-0.3-5.9-5-5.9-5c-2-2.4-3.9-4.6-5.5-5.2c-1-0.5-1.8-1.3-2.3-2.4
					l-0.2-0.3c1.9,0.6,3.6,1,5,1.3c1.8,0.2,3.5,0.8,5.1,1.8l2.4,1.7C194.4-249.6,195.5-248.8,197.9-248.8L197.9-248.8z M206.4-243.1
					c-0.1-0.5-0.6-0.9-1.1-0.9c-0.6,0-1.1,0.5-1.1,1.1c0,0.2,0.1,0.4,0.2,0.6c-0.8-0.2-1.3-0.9-1.1-1.7c0-0.2,0.1-0.4,0.2-0.5
					c0.6-0.8,1.7-1.1,2.6-0.5c0.1,0.1,0.2,0.2,0.3,0.3C206.7-244.2,206.7-243.6,206.4-243.1L206.4-243.1z"/>
				<path class="st4" d="M280.8-230.2c-0.1-0.5-0.5-0.8-1-0.7l0,0c-3.3,0.4-9.5,2.9-12.1,4.3c-2.1,1.1-4.1,2.1-5.9,3
					c5.2-3.9,9.3-9,11.8-15c0.2-0.4,0-0.9-0.5-1.1c-0.3-0.1-0.7,0-1,0.2c-4.2,5.1-9.1,10.6-15.1,14.5c4.2-3.9,7.8-8.5,10.5-13.5
					c0.2-0.4,0-0.9-0.4-1.1c-0.3-0.2-0.8-0.1-1,0.2c-3,3.5-6.2,6.7-9.6,9.8c2-4.9,2.8-10.1,2.5-15.4c0-0.4-0.3-0.7-0.7-0.8
					c-0.4-0.1-0.8,0.1-0.9,0.4c-1.4,2.8-2.4,5.7-3,8.8c-0.4,2-1,4-1.7,6c0.7-6.7-1.4-13.4-5.7-18.6c-0.2-0.2-0.5-0.3-0.8-0.3
					c-0.1,0-0.1,0-0.2,0.1c-0.3,0.2-0.5,0.5-0.5,0.9c0.5,2.7,1.1,5.4,1.9,8c0.2,0.7,0.4,1.4,0.6,2c-1-0.5-2-0.9-3.1-1.1
					c-4-0.9-8.1-0.9-12.1,0c-1.8,0.4-3.6,1-5.4,1.7c-10.2,4.4-15.8,13.5-14.6,23.6c1,8.7,4.1,12.8,7.2,15.9c4,4,9,6.2,13.8,6
					c5.6-0.1,10.7-3.2,13.4-8.1c0.3,0.4,0.8,0.5,1.3,0.5c1.6-0.1,3.1-2.2,5.4-5.6c0.7-1.2,1.5-2.3,2.4-3.4c1.7-1.6,3.6-3.1,5.7-4.3
					c1.1-0.7,2.2-1.4,3.3-2.2c2.1-1.6,3.1-3.1,3.6-7.1c0-0.1,0-0.3-0.1-0.4c2-1.1,4.1-2.2,6.2-3.4c2.5-1.4,4.8-2.6,5.2-2.8
					c0.5,0,0.8-0.4,0.8-0.9C280.8-230.1,280.8-230.2,280.8-230.2z M240.3-214.2c-0.2,0-0.4,0-0.7,0.1c-2.4,0.5-2.5,2.6-2.3,3.9
					c-1.3,0-1.8-0.4-2-1.1c-0.7-2,0.2-3.1,2-4.7c1.3-1,2.3-2.4,3-3.9c1-2.5,2.5-2.9,4.3-3.4c0.6-0.2,1.2-0.4,1.8-0.6
					c-0.4,1-0.4,2-0.1,3c-0.9-0.4-2-0.5-3-0.3l-0.7,0.2c-1.8,0.7-3.1,2.4-3,4.4C239.7-215.8,239.9-214.9,240.3-214.2L240.3-214.2z
					 M244.8-216.6c-0.4-0.8-0.5-1.8-0.3-2.7c0-0.1,0.1-0.2,0.1-0.3c0.4,0,0.8,0.1,1.2,0.3c0.6,0.3,1.1,0.9,1.3,1.5
					c0.2,0.9-0.1,1.9-0.8,2.6c-0.5,0.5-1.1,0.8-1.8,1c-0.5,0.1-1,0.1-1.5-0.1l0,0c-1-0.3-1.7-1.3-1.7-2.4c0-1,0.5-2,1.4-2.6
					c-0.1,1.1,0.1,2.2,0.5,3.2c0.1,0.4,0.6,0.7,1.1,0.5c0.4-0.1,0.7-0.6,0.5-1.1C244.8-216.5,244.8-216.5,244.8-216.6L244.8-216.6z
					 M250-215.6c1.1,0.3,3.2-0.2,5.9-1.3c-2.2,1.3-4.5,2.3-6.9,3.1c-0.6,0.1-1.3,0.2-1.9,0.2c0.1-0.1,0.3-0.2,0.4-0.4
					c0.7-0.7,1.2-1.6,1.3-2.5C249.1-216.1,249.5-215.8,250-215.6L250-215.6z M242.4-206.1l-0.6-0.3l-2.3-2c-0.1-0.4-0.2-0.8-0.3-1.2
					v-0.1c-0.4-1.9-0.2-2.6,0.9-2.8c1.2-0.2,2.4-0.2,3.6,0.2c1.9,0.5,3.8,0.5,5.7,0.1c3.3-0.7,9.1-4.2,13.8-7
					c1.4-0.8,2.7-1.6,3.7-2.1c-0.3,1.8-1.2,3.3-2.7,4.3c-1,0.8-2,1.5-3.1,2.1c-2.2,1.3-4.2,2.8-6,4.5c-1,1.1-1.9,2.3-2.6,3.6
					c-1.1,1.6-3.3,5-4.1,4.9c-0.3-0.3-0.6-0.6-0.9-0.9l0,0C245.9-204,244.2-205.2,242.4-206.1L242.4-206.1z M248.6-236.1
					c0.2,3.2-0.1,6.4-1.1,9.4c-0.9,1-2,1.7-3.3,1.8c-2,0.6-4.2,1.2-5.5,4.4c-0.6,1.3-1.5,2.4-2.6,3.2c-1.7,1.6-3.6,3.4-2.4,6.5
					c0.7,2,2.7,2.2,3.9,2.2v0.1c0,0.1,0,0.1,0.1,0.2c0,0.1,0.1,0.2,0.1,0.3s0,0.1,0.1,0.1c0.1,0.3,0.3,0.6,0.4,0.8l0.1,0.1
					c0.1,0.1,0.1,0.2,0.2,0.3l0.1,0.1c0.1,0.1,0.2,0.2,0.3,0.3l0.1,0.1c0.2,0.1,0.3,0.3,0.5,0.4c0.6,0.4,1.2,0.7,1.9,1.1
					c0.4,0.2,0.7,0.4,1.1,0.6l0.3,0.2c0.3,0.2,0.5,0.3,0.8,0.5c0.1,0.1,0.3,0.2,0.4,0.3s0.5,0.3,0.7,0.5l0.5,0.4l0.4,0.4
					c-1.9,3.8-5.4,6.4-9.5,7.2c-0.9,0.2-1.8,0.3-2.8,0.4c-4.3,0.2-8.8-1.8-12.5-5.5c-3.3-3.4-5.7-7.2-6.7-14.9
					c-1.1-9.5,3.9-17.7,13.6-21.8c5.2-2.3,11-2.8,16.5-1.6C246.1-237.9,247.5-237.2,248.6-236.1L248.6-236.1z"/>
				<path class="st1" d="M134.7-120.7c-0.2-1.3-1.2-2.3-2.4-2.7c-1.8-0.6-3.7-0.6-5.4-0.2c-1.1,0.3-2.1,0.8-2.9,1.5
					c-2,1.8-1.9,3.3-1.5,4.3c-2,1.2-3.9,2.6-4.4,4.9c-2.6-1.1-5.5-1.5-8.2-1l-1.3,0.3c-2.5,0.5-5.5,1.1-8.5,1.9
					c-5,1.3-10.1,3.1-13.3,5.6c-1.5,0.7-3.1,1.4-4.8,1.9c0.1-0.9,0.4-1.8,0.9-2.5c0.6-0.9,1-1.9,1.2-3c0.2-2.2-1.5-4.1-3.4-5.2
					c-1.1-0.5-2.4-0.6-3.6-0.2c-2.2,0.6-4.2,1.8-5.8,3.3c-0.4,0.6-0.3,1.4,0.2,1.9c0.4,0.4,0.9,0.7,1.5,0.8
					c-0.5,1.5-0.9,3.1-1.1,4.7l-0.9,0.2c-2.5,0.7-6.2,2-6.5,3.8c-0.1,0.9,2.4,5.3,4.7,5.9l0.7,0.2l0.6,0.2c-1.7,1.7-3.7,3.2-5.2,3.7
					c-0.5,0.2-1.3,0.3-2.3,0.5c-2.1,0.3-4.2,0.8-6.2,1.7c-2,1-3.1,3.2-2.6,5.4C54.3-81.1,62-79,65.8-80c1.3-0.3,3-1.7,4.8-3.1
					c1.1-0.9,2.2-1.7,3.4-2.5c-0.3,0.6-0.2,1.3,0,1.8c0.4,0.8,1.4,1.2,3.1,1.3c1.5,0.1,2.5,1.4,4.2,2.4c1.5,1,3.1,1.7,4.8,2.2l0,0
					c1.4,0.3,3.2,0.8,4.9,1.3c2.9,0.9,5.6,1.7,7.1,1.5c2-0.3,4-0.9,5.9-1.7c1.5-0.7,3.2-1.1,4.9-1.2c0.1,0,7,0.1,9.3-1.9
					c0.8-0.7,1.3-1.2,1.8-1.7c1-1.2,2.3-2.1,3.8-2.6c5.1-2,9.4-10.4,9.4-14c0-1.7,1.1-7.1,4.3-9.9c0.1-0.1,0.2-0.3,0.2-0.5
					s-0.1-0.4-0.2-0.5c-2-1.7-4.5-2.7-7.1-2.6c0.4-0.8,0.9-1.6,1.4-2.3c0.3-0.5,0.6-0.9,0.9-1.4
					C133.7-116.6,134.8-119.3,134.7-120.7z M59.2-82.8c-0.3-0.1-0.5-0.2-0.7-0.5c0.2,0.1,0.4,0.2,0.5,0.1c0.3-0.1,0.5-0.3,0.5-0.6
					c0.4,0,0.7,0,1.1,0h0.2C60.3-83.3,59.7-82.8,59.2-82.8L59.2-82.8z M73.4-91.8c1,0.6,1.4,4.4,1.4,4.4c-1.8,0.9-3.5,2-5.1,3.3
					s-3.3,2.6-4.3,2.9c-2.1,0.4-4.3,0.2-6.4-0.4c1.2,0.2,2.2-0.6,2.9-1.3l0.4-0.3c0.2-0.2,0.3-0.4,0.2-0.7c-0.2-0.6-0.7-1-1.3-1.1
					c-0.9-0.2-1.8-0.2-2.6,0.1c-0.4,0.1-0.8,0.3-1.1,0.5c-0.3,0.3-0.4,0.8-0.3,1.3c0.3,0.7,0.8,1.2,1.5,1.4
					c-1.3-0.2-2.5-0.8-3.6-1.5c-0.2-1,0-2.1,0.7-2.8c0.7,0.3,1.6,0.4,2.4,0.3c0.2,0,0.5-0.1,0.7-0.2l0.5-0.1
					c0.7-0.2,1.5-0.1,2.2,0.1c0.3,0.1,0.7,0,0.8-0.4c0.1-0.3,0-0.7-0.4-0.8c-0.9-0.3-1.9-0.4-2.9-0.2l-0.5,0.1
					c-0.2,0.1-0.4,0.1-0.6,0.2c-0.3,0.1-0.7,0.1-1,0l0.1-0.1c1.9-0.8,3.8-1.3,5.8-1.5c1-0.2,3.2,1.3,3.7,1.2
					C69.3-88.2,71-93.2,73.4-91.8L73.4-91.8z M70.2-100.9c1.6,0.9,1,5.8,1,5.8c-0.3-0.1-0.8-0.2-1.2-0.3l-0.7-0.2
					c-1.6-0.4-3.6-3.8-3.8-4.5C65.6-101,67.5-102.4,70.2-100.9z M90.8-105.1c-1.2,0.8-2.4,1.5-3.7,2.1c-2.7,1.4-6,3-8.2,5.7
					c0,0,0.1,0,0,0c-1.9,0.7-4.4,1.1-5.5-0.7c-1.8-3,0-9.6,0.9-11.5c0.1-0.2,0-0.5-0.2-0.7s-0.5-0.2-0.7-0.1c-0.4,0.1-0.9,0-1.2-0.3
					c-0.1-0.1-0.1-0.3,0-0.3c0.5-0.6,5.5-3.9,7.8-2.7c1.4,0.8,2.9,2.3,2.7,3.9c-0.2,0.9-0.5,1.8-1,2.6c-0.8,1.2-1.2,2.6-1,4
					c0.1,0.3,0.3,0.5,0.7,0.5c1.7-0.3,3.4-0.8,5-1.6c0.7-0.3,1.3-0.6,1.8-0.7C89-105.1,89.9-105.1,90.8-105.1L90.8-105.1z
					 M121.2-110.1c2.3,1.1,4.6,2,7,2.6c0.9,0.2,2.1,0.4,2.7-0.3c0.6-0.8,3.8-1.8,5.3-0.7c-3.3,3.4-4.1,9-4.2,10.3
					c-0.1,3.4-4.2,11.1-8.6,12.8c-1.6,0.6-3.1,1.6-4.2,2.9c-0.5,0.5-1.1,1-1.8,1.7c-1.6,1.4-6.8,1.6-8.4,1.6c-1.9,0-3.7,0.4-5.4,1.2
					c-1.8,0.8-3.7,1.3-5.6,1.6c-1.2,0.2-3.9-0.6-6.6-1.4c-1.7-0.5-3.5-1-5-1.3c-1.5-0.4-3-1.1-4.4-2c-1.9-1.1-3-2.5-4.8-2.6
					c-1.6-0.1-2-0.5-2.1-0.6c-0.2-0.4,0.3-1.5,0.8-2.5c0.7-1.3,1.3-2.7,1.6-4.2c1-6.2,5.8-8.7,10.1-10.8c2.2-1.1,3.7-2.6,5.2-3.4
					c2-1,12.3-1.1,17.2-2.4C114.2-108.7,117.3-111.7,121.2-110.1L121.2-110.1z M133.4-120.6c0.1,0.9-0.8,3.2-1.6,4.7
					c-0.2,0.4-0.5,0.8-0.9,1.3c-0.8,1.1-1.5,2.3-1.9,3.5c0,0,0,0.1,0,0.2c0,0,0,0,0,0.1s0,0.2,0.1,0.3l0,0l0.2,0.3
					c0.3,0.5,0.6,1,0.7,1.6c-0.5,0-0.9,0-1.3-0.2c-2.4-0.7-4.7-1.5-6.9-2.6c-0.8-0.4-1.7-0.7-2.5-1.1c0.4-1.9,2-3.3,4.4-4.6
					c0.2-0.1,0.3-0.2,0.3-0.4c0-0.2,0-0.4-0.1-0.5c-0.5-0.6-0.9-1.6,0.9-3.2c2-1.5,4.7-1.9,7.1-1.1
					C132.5-121.9,133.3-121.5,133.4-120.6z"/>
				<path class="st3" d="M70.4-178.7c-1.1-5.6-7.3-6.8-12.7-5.4h-0.2l-0.5-0.7c-1.3-1.8-3.8-5.3-4.7-8.8c-0.6-2.6-2.7-4.5-6.3-5.9
					c-0.1,0-0.1,0-0.2,0c-0.2,0-0.4,0.1-0.5,0.3c-0.2,0.3-0.2,0.6-0.1,0.9c0.5,1.4,0.6,2.9,0.3,4.3c-0.1,0.4-0.1,0.8-0.1,1.2
					c0.1,1,0.5,2,1.1,2.9l0,0c-0.8-0.2-1.7-0.4-2.6-0.6c-2.7-0.5-5.3-1.3-7.9-2.3c-0.1,0-0.2,0-0.2,0c-0.3,0-0.6,0.2-0.7,0.6
					c-0.2,0.4,0,0.9,0.4,1.1c1,0.5,1.7,1.4,2.1,2.4c0.6,1.3,1.7,2.4,3,3c1.2,0.5,3,2.5,4.7,4.6c-1.8-0.7-3.6-1.7-5.3-2.8
					c-3.3-2.1-11.2-3-14.6-2.1c-0.9,0.1-1.6,0.6-2,1.4c-0.2,0.9,0,1.8,0.6,2.5c0.2,0.4,0.4,0.8,0.6,1.3l-0.9-0.4
					c-3-1.4-5.2-2.4-8.9-1.4l-1,0.2c-3.5,0.8-4.8,1.2-5.2,2.1c-0.1,0.3-0.1,0.7,0,1c0.2,0.6,1,2.3,8.7,5.1l0.2,0.1
					c3.3,1.5,4.8,3.6,6.9,6.7c-4-1.4-10.2-1.8-15.5-2.1c-3.6-0.2-6.7-0.4-7.9-0.9c-0.4-0.1-0.7,0.1-0.9,0.4
					c-0.2,0.4-0.1,0.8,0.2,1.1c2.3,2.3,4.5,4.8,6.4,7.4c3.3,4.1,6.7,8.3,9.2,10c3.2,2.1,9.7,3.9,13.7,2c1.5-0.7,2.5-2,2.9-3.6
					c0.5-1.9,2.7-4.3,6.2-6.8c-0.4,2.4-1.1,4.2-2.7,5.2c-0.9,0.5-2.9,4.1-4.1,5.5c-1.2,1.7-3,2.7-5,2.7c-0.3,0.1-0.6,0.3-0.6,0.6
					c-0.1,0.3,0,0.7,0.3,0.9c0.7,0.6,1.3,1.3,1.8,2c0.5,0.7,1,1.5,2,1.3c3.8-0.8,6.2-1.3,9.8-3.5c2.5-1.5,4.6-3.6,6.3-6.1
					c0.3-0.5,0.7-1,1.2-1.5c2-1.8,3.9-4.2,2.5-8.4c-0.3-0.9-0.7-1.8-1.1-2.6c-0.3-0.5-0.5-1.1-0.6-1.6c2.7-2.8,8.2-4.1,11.2-4.9
					c0.8-0.2,1.4-0.4,1.8-0.5c3.1-1,5.1-3.2,7-5.1c0.6-0.6,1.2-1.3,1.8-1.8C70.4-177.9,70.5-178.3,70.4-178.7z M40.4-161.5
					c2.1-1.4,4.3-2.8,6.5-4c0.1,0.9,0.4,1.7,0.8,2.5c0.4,0.8,0.7,1.6,1,2.4c0.9,2.6,0.3,4.3-2,6.4c-0.5,0.5-1,1.1-1.5,1.8
					c-1.5,2.3-3.5,4.2-5.8,5.6c-3.5,2.1-5.7,2.6-9.4,3.3c-0.1,0-0.2,0-0.6-0.7c-0.2-0.3-0.5-0.7-0.9-1.2c1.9-0.9,2.8-0.8,4.5-2.8
					c1.1-1.3,3-4.8,3.7-5.2C39.2-154.9,39.8-158,40.4-161.5L40.4-161.5z M26.5-164.5c0,0,0,0.9,0,3.3c0.2,3.3,1.6,6.5,4,8.8
					c-0.4,0.5-0.9,1-1.5,1.3c-3.2,1.6-9.1,0.3-12.4-1.9c-2.4-1.6-5.7-5.7-8.9-9.7c-1.6-2-3.2-4-4.6-5.6c1.5,0.2,3.4,0.3,5.6,0.4
					C15.3-167.5,24.1-166.9,26.5-164.5L26.5-164.5z M45.3-179.5c-4.7,2.1-15,7.6-18,13.4c-0.6-0.8-1.1-1.6-1.6-2.3
					c-2.3-3.4-4-5.9-7.8-7.6l-0.3-0.1c-5-1.8-6.8-3-7.4-3.7c1.2-0.4,2.5-0.7,3.8-1l1-0.2c3.4-0.8,5.2,0.1,8.1,1.4
					c0.8,0.3,1.5,0.7,2.4,1.1c0.3,0.1,0.5,0,0.7-0.2c0.2-0.2,0.3-0.5,0.2-0.9c-0.3-1.2-0.7-2.4-1.4-3.5c-0.2-0.3-0.3-0.7-0.4-1
					c0.3-0.2,0.6-0.3,1-0.4c3.4-0.9,10.8,0.2,13.6,2C41.2-181.2,43.2-180.2,45.3-179.5z M55.3-184.5c-1.3-0.6-2.4-1.4-3.5-2.3
					c-0.7-0.5-1.5-1.1-2.4-1.7l-0.2-0.1l0,0c-1.1-1.4-2.3-3.4-2.3-4.1c0-0.3,0-0.6,0.1-0.9c0.2-1.2,0.2-2.3,0-3.5
					c2.3,1.1,3.6,2.4,4,4.1C51.9-189.9,53.3-187,55.3-184.5L55.3-184.5z M57.2-184.1L57.2-184.1C57.2-184.1,57.3-184.1,57.2-184.1
					L57.2-184.1z M57.4-182.3c-0.4,1-1.1,1.9-2.1,1.9s-1.7,3.4-3,3.2c-1.9-0.3-5.9-5-5.9-5c-2-2.4-3.9-4.6-5.5-5.2
					c-1-0.5-1.8-1.3-2.3-2.4l-0.2-0.3c1.9,0.6,3.6,1,5,1.3c1.8,0.2,3.5,0.8,5.1,1.8c0.9,0.7,1.7,1.2,2.4,1.7
					C54-183.1,55.1-182.3,57.4-182.3L57.4-182.3z M66-176.6c-0.1-0.5-0.6-0.9-1.1-0.9c-0.6,0-1.1,0.5-1.1,1.1c0,0.2,0.1,0.4,0.2,0.6
					c-0.8-0.2-1.3-0.9-1.1-1.7c0-0.2,0.1-0.4,0.2-0.5c0.6-0.8,1.7-1.1,2.6-0.5c0.1,0.1,0.2,0.2,0.3,0.3
					C66.3-177.7,66.3-177.1,66-176.6L66-176.6z"/>
				<path class="st4" d="M140.4-163.7c-0.1-0.5-0.5-0.8-1-0.7l0,0c-3.3,0.4-9.5,2.8-12.1,4.3c-2.1,1.1-4.1,2.1-5.9,3
					c5.2-3.8,9.3-9,11.8-15c0.2-0.4,0-0.9-0.5-1.1c-0.3-0.1-0.7,0-1,0.2c-4.3,5.1-9.2,10.6-15.1,14.5c4.2-3.9,7.8-8.5,10.5-13.5
					c0.2-0.4,0-0.9-0.4-1.1c-0.3-0.2-0.8-0.1-1,0.2c-3,3.5-6.2,6.7-9.6,9.8c2-4.9,2.8-10.1,2.5-15.4c0-0.4-0.3-0.7-0.7-0.8
					c-0.4-0.1-0.8,0.1-0.9,0.4c-1.4,2.8-2.4,5.7-3,8.8c-0.4,2-1,4-1.7,6c0.7-6.7-1.4-13.4-5.7-18.6c-0.2-0.2-0.5-0.3-0.8-0.3
					c-0.1,0-0.1,0-0.2,0.1c-0.3,0.2-0.5,0.5-0.5,0.9c0.5,2.7,1.1,5.4,1.9,8c0.2,0.7,0.4,1.4,0.6,2c-1-0.5-2-0.9-3.1-1.1
					c-4-0.9-8.1-0.9-12.2,0c-1.8,0.4-3.6,1-5.4,1.7c-10.2,4.3-15.7,13.4-14.5,23.5c1.1,8.7,4.1,12.8,7.2,15.9c4,4,9,6.2,13.8,6
					c7.1-0.3,11.5-4.3,13.4-8.1c0.3,0.3,0.8,0.5,1.3,0.5c1.6-0.1,3.1-2.2,5.4-5.6c0.7-1.2,1.5-2.3,2.4-3.4c1.7-1.6,3.6-3.1,5.7-4.3
					c1.1-0.7,2.2-1.4,3.3-2.2c2.1-1.7,3.1-3.1,3.6-7.1c0-0.1,0-0.3-0.1-0.4c2-1.1,4.1-2.2,6.2-3.4c2.5-1.4,4.8-2.6,5.2-2.8
					C140.2-162.8,140.5-163.2,140.4-163.7L140.4-163.7z M99.9-147.7c-0.2,0-0.4,0-0.7,0.1c-2.4,0.5-2.5,2.6-2.3,3.9
					c-1.3,0-1.8-0.4-2-1.1c-0.7-2,0.2-3.1,2-4.7c1.3-1,2.3-2.4,3-3.9c1-2.5,2.5-2.9,4.3-3.4c0.6-0.2,1.2-0.4,1.8-0.6
					c-0.4,1-0.4,2-0.1,3c-0.9-0.4-2-0.5-3-0.3l-0.7,0.2c-1.8,0.7-3.1,2.4-3,4.4C99.2-149.2,99.4-148.4,99.9-147.7L99.9-147.7z
					 M104.4-150.1c-0.4-0.8-0.5-1.8-0.3-2.7c0-0.1,0.1-0.2,0.1-0.3c0.4,0,0.8,0.1,1.2,0.3c0.6,0.3,1.1,0.9,1.3,1.5
					c0.2,0.9-0.1,1.9-0.8,2.6c-0.5,0.5-1.1,0.8-1.8,1c-0.5,0.1-1,0.1-1.5,0l0,0c-1-0.3-1.7-1.3-1.7-2.4c0-1,0.5-2,1.4-2.6
					c-0.1,1.1,0.1,2.1,0.5,3.1c0.1,0.4,0.6,0.7,1.1,0.5C104.3-149.2,104.6-149.7,104.4-150.1C104.4-150,104.4-150,104.4-150.1
					L104.4-150.1z M109.6-149.1c1.1,0.3,3.2-0.2,5.9-1.3c-2.2,1.3-4.5,2.3-6.9,3.1c-0.7,0.1-1.3,0.2-2,0.2c0.1-0.1,0.3-0.2,0.4-0.4
					c0.7-0.7,1.2-1.6,1.3-2.5C108.7-149.6,109.1-149.3,109.6-149.1L109.6-149.1z M102-139.6l-0.6-0.3l-2.3-2
					c-0.1-0.4-0.3-0.8-0.3-1.2v-0.1c-0.4-1.9-0.2-2.6,0.8-2.8c1.2-0.2,2.4-0.2,3.6,0.2c1.9,0.5,3.8,0.5,5.7,0.1
					c3.3-0.7,9.1-4.2,13.8-7c1.4-0.8,2.7-1.6,3.7-2.1c-0.3,1.8-1.3,3.3-2.7,4.3c-1,0.8-2,1.5-3.1,2.1c-2.2,1.3-4.2,2.8-6,4.5
					c-1,1.1-1.9,2.3-2.6,3.6c-1.1,1.6-3.3,5-4.1,4.9c-0.3-0.3-0.6-0.6-0.9-0.9l0,0C105.5-137.6,103.8-138.7,102-139.6L102-139.6z
					 M108.2-169.6c0.2,3.2-0.1,6.4-1.1,9.4c-0.9,1-2,1.6-3.3,1.7c-2,0.6-4.2,1.2-5.5,4.4c-0.6,1.3-1.5,2.4-2.6,3.2
					c-1.7,1.6-3.5,3.4-2.4,6.6c0.7,2,2.7,2.2,4,2.2v0.1c0,0.1,0,0.1,0,0.2c0,0.1,0.1,0.2,0.1,0.3v0.2c0.1,0.3,0.3,0.6,0.4,0.8
					c0,0,0,0.1,0.1,0.1l0.2,0.3l0.1,0.1c0.1,0.1,0.2,0.2,0.3,0.3l0.1,0.1c0.2,0.1,0.3,0.3,0.5,0.4c0.6,0.4,1.2,0.7,1.9,1.1
					c0.4,0.2,0.7,0.4,1.1,0.6l0.3,0.2c0.3,0.2,0.5,0.3,0.8,0.5c0.1,0.1,0.3,0.2,0.4,0.3c0.2,0.1,0.5,0.3,0.7,0.5l0.5,0.4l0.4,0.3
					c-1.9,3.8-5.4,6.4-9.5,7.2c-0.9,0.2-1.8,0.3-2.7,0.4c-4.3,0.2-8.8-1.8-12.5-5.5c-3.3-3.4-5.8-7.2-6.7-15
					c-1.1-9.5,3.9-17.7,13.6-21.8c5.2-2.3,11-2.8,16.5-1.6C105.7-171.5,107.1-170.7,108.2-169.6L108.2-169.6z"/>
				<path class="st2" d="M202.7-72.6c0-0.1-0.1-0.3-0.3-0.4c-0.8-0.4-1.7-0.7-2.6-0.7c-3.4,0-7.2,2.9-10.7,5.5c-2.6,1.9-5,3.8-6.7,4
					c-1.4,0.3-2.8,0.6-4.1,1c-0.7-1.1-1.7-1.9-2.9-2.3c-0.3-0.1-0.6,0-0.7,0.2c-0.2,0.2-0.2,0.5,0,0.8c0.3,0.7,0.5,1.5,0.6,2.3
					l-2,0.7l-0.7,0.2c-0.7-0.9-1.5-1.7-2.5-2.3c-0.1-0.1-0.3-0.2-0.4-0.3c-0.1-0.1-0.1-0.3-0.1-0.4c-0.2-1.3-0.3-2.7-0.2-4
					c0-0.3-0.1-0.5-0.4-0.6c-0.1,0-0.2-0.1-0.2-0.1c-0.2,0-0.3,0.1-0.5,0.2c-1.4,1.3-2,3.3-1.7,5.2c-0.7-0.1-1.4,0-1.9,0.4l-0.3,0.3
					c-0.1,0.1-0.3,0.2-0.5,0.3c0,0,0-0.1-0.1-0.4l-0.9-3.6c-0.1-0.2-0.2-0.4-0.4-0.5c-0.1,0-0.1,0-0.2,0c-0.2,0-0.3,0.1-0.4,0.2
					c-1.3,1.2-1.7,3.1-1.1,4.8l-0.3,0.4c-0.1,0.1-0.2,0.3-0.3,0.3s-0.3,0-0.4-0.2c-0.2-0.3-0.3-0.5-0.4-0.8
					c-0.2-0.7-0.4-1.4-0.6-2.1c-0.1-0.3-0.3-0.4-0.6-0.5H158c-0.2,0-0.5,0.1-0.6,0.3c-0.7,1.3-0.6,2.8,0.1,4.1
					c0.3,0.5,0.6,0.9,1,1.2c0.9,0.7,1.9,1.1,3,1.1l-0.4,0.7c-0.2,0.4-0.5,0.7-0.7,1l-2,2.9c-3.8,5.4-7.7,10.9-10,17.1
					c-2,5.6-4,14.2-1.3,22.8c0.2,0.8,0.5,1.6,0.9,2.4c-1.5,1.7-1.1,7-0.9,8.5c0,0.2,0.2,0.4,0.3,0.5c0.2,0.1,0.4,0.1,0.6,0
					c5.4-2.6,5.6-2.7,5.7-2.9c0.1-0.2,0.3-0.4,0.3-0.6c0.8,0.3,1.6,0.5,2.4,0.6c2.3,0.5,4.6,0.5,6.9,0c0,0.1,0,0.2,0,0.2
					c0.2,1,0.4,1.7,0.5,2.2c0.4,1.3,1.5,1.8,2.8,2.4l0.8,0.4c0.2,0.1,0.3,0.1,0.5,0s0.3-0.2,0.4-0.3l0.2-0.4c0.9-1.4,1.4-3,1.6-4.7
					c0-1.5-0.6-2.8-1.7-3.8c0.7-1.1,1.4-2.3,2-3.5c1.6-3.3,3.2-6.4,5.7-8.3c1.1-0.8,2.2-1.4,3.5-1.8c0.7-0.3,1.5-0.6,2.2-1
					c3.8-2.2,7-5.5,9-9.4s3.6-7.9,4.8-12.1c0.9-2.9,1.5-5.8,2-8.8c0.5-2.9,1.1-5.8,2-8.6c0.3-0.9,0.7-1.8,1.1-2.6
					C201.9-68,203.3-70.9,202.7-72.6z M167.5-10.2l-0.5-0.4c1.1-1.2,1.4-2.8,1.6-4.9c0.2-1.9,0-3.9-0.5-5.8c1.9,0.4,3.8,0.5,5.7,0.5
					c-1.9,2.2-3.4,4.7-4.6,7.4C168.7-12.4,168.1-11.3,167.5-10.2z M154.3-7.2v-0.2c0-0.8,0.2-1.7,0.6-2.4v-0.1
					c1.6-0.7,3-2.9,4.3-5.2v0.1c0.7,2.4,1.6,5.2,3.1,6c0.3,0.9,0.6,1.8,0.8,2.7c-2.1,0.4-4.3,0.4-6.4,0c-0.8-0.1-1.6-0.4-2.4-0.7
					L154.3-7.2L154.3-7.2z M161.1-14.8c0,0.1,0,0.2,0.1,0.3c-0.2,0-0.3-0.1-0.4-0.1c-0.1-0.3-0.2-0.7-0.3-1c0-0.1,0-0.1-0.1-0.2
					c0.2-0.8,0.9-1.3,1.7-1.4c1.4-0.2,2.8,0.8,3,2.3c0,0.1,0,0.2,0,0.2c-0.2,0-1.4,0-1.7,0.1l-0.4,0.1c0-0.1,0.1-0.2,0.1-0.4
					c0-0.6-0.4-1-1-1C161.6-15.8,161.1-15.4,161.1-14.8L161.1-14.8z M155.4-15c0,0.1,0,0.2,0.1,0.4c-0.8,0-1.6-0.1-2.4-0.1
					c-0.1-0.8,0.2-1.7,0.8-2.3c0.7-0.3,1.5-0.4,2.3-0.2c1.4,0.3,1.8,1.1,1.9,1.3c-0.2,0.3-0.4,0.7-0.6,1.1l-0.2,0.1
					c0-0.1,0-0.1,0-0.2c0-0.6-0.4-1-1-1C155.8-15.9,155.4-15.5,155.4-15L155.4-15z M147.6-28.3c1.2,1.7,3,4.4,3.1,5.8
					c-0.1,1.1-0.4,2.1-0.9,3c-0.6,1.1-0.9,2.3-1,3.5c0.1,1,0.4,2.1,1,2.9l-0.9,0.8c-0.3-0.6-0.5-1.3-0.7-1.9
					C147-18.8,146.8-23.6,147.6-28.3z M161.4-55.7c0.3-0.4,0.5-0.8,0.8-1.1c0.3-0.5,0.6-0.9,0.9-1.4c0.6-0.1,1.1-0.2,1.7-0.3
					c0.1,0,0.1-0.1,0.2-0.1c1.2,0.4,2.4,0.6,3.7,0.6c0.2,0.3,0.5,0.6,0.9,0.9c0.7,0.4,1.5,0.5,2.3,0.3c0,0.1,1.3,1.1,2,1.6
					s1.4,1.1,1.9,1.4c-5.7,5.1-11.4,10.7-13,14c-1.4,2.9-2.8,10.8-1,15c0.5,1.3,1.5,2.3,2.9,2.7c0.6,0.2,1.3,0.4,2.1,0.5
					c0.6,1.9,0.8,3.9,0.6,5.9c-0.4,3.5-1,4.7-3.7,5.4c-0.9,0.2-1.7-1.2-2.3-2.8c0.8,0,1.6,0,2.3-0.2c0.4,0,1.8-0.1,2.2-0.1
					c0.2,0,0.3-0.1,0.4-0.2c0.1-0.1,0.2-0.3,0.2-0.5c0-2.4-1.9-4.3-4.2-4.4h-0.1c-0.3,0-0.5,0-0.8,0.1c0-0.4,0.1-0.8,0-1.2
					c-0.1-1.2-0.4-2.3-1-3.4c-0.1-0.2-0.3-0.4-0.6-0.4l0,0c-0.3,0-0.5,0.2-0.6,0.4c-0.3,0.8-0.5,1.6-0.7,2.4
					c-0.2,0.6-0.3,1.2-0.3,1.8l0,0c0,0.2,0,0.5,0.1,0.7c-0.5-0.4-1.1-0.6-1.7-0.7c-0.2-0.1-0.5-0.1-0.7-0.1c-0.9,0-1.8,0.2-2.7,0.6
					c-1,0.9-1.5,2.3-1.3,3.6c0,0.3,0.2,0.6,0.4,0.7c1.4,0.4,2.9,0.5,4.4,0.3c-0.5,1-1.4,1.8-2.4,2.3c-0.6,0-1.2-0.2-1.6-0.6
					c-0.5-0.4-1-0.9-1.3-1.4l-0.1-0.3c-0.6-0.8-0.9-1.7-1-2.6c0.1-1,0.4-2,0.9-2.9c0.6-1.1,1-2.4,1-3.7c-0.2-2.3-3.6-6.7-4.1-7.4
					c0.4-2.1,1-4.1,1.8-6.1c2.2-5.9,6-11.4,9.8-16.8C160.1-53.8,160.8-54.7,161.4-55.7z M161.3-61c0.1,0.1,0.2,0.2,0.3,0.3
					c0.5,0.4,1,0.8,1.5,1.1c-1.3,0.2-2.6,0-3.7-0.6c0.3,0.1,0.7,0.1,1-0.1C160.7-60.5,161-60.7,161.3-61L161.3-61z M167.4-61.6
					c0.1,0.3,0.2,0.7,0.2,1.1c0,0.2,0.1,0.5,0.1,0.7c0.1,0.2,0.1,0.3,0.2,0.5c-2-0.1-3.9-0.9-5.4-2.2c-0.2-0.1-0.3-0.3-0.5-0.5
					c-0.1-0.1-0.1-0.2-0.2-0.2c-0.1-0.2-0.2-0.3-0.2-0.5c-0.2-0.7-0.1-1.4,0.2-2.1l0.6,2.2c0.1,0.5,0.4,1,0.8,1.2
					c0.6,0.2,1.3,0,1.8-0.5l0.3-0.2c0.4-0.2,0.9-0.3,1.3-0.2c0.2,0.1,0.4,0.1,0.6,0.2C167.3-61.9,167.4-61.8,167.4-61.6z
					 M172.1-59.6c0.2,0.5,0.6,0.9,1.1,1.2c-0.4,0-0.8,0.1-1.2,0.2h-0.2c-0.3,0.1-0.6,0.1-0.9,0.1c-0.3,0-0.5-0.1-0.8-0.2l0,0
					c-0.1-0.1-0.3-0.2-0.4-0.3c-0.2-0.2-0.4-0.5-0.5-0.7c-0.1-0.3-0.2-0.5-0.3-0.8c0-0.2-0.1-0.4-0.1-0.6c-0.1-0.3-0.1-0.6-0.2-0.9
					c0-0.2-0.1-0.4-0.2-0.5c-0.1-0.3-0.3-0.5-0.4-0.7c0-0.1-0.1-0.1-0.1-0.2s-0.1-0.1-0.1-0.2c-0.4-0.9-0.4-2,0-2.9
					c0,0.7,0.1,1.3,0.2,2c0,0.4,0.2,0.7,0.4,1c0.2,0.2,0.4,0.4,0.7,0.6C170.5-61.9,171.5-60.8,172.1-59.6L172.1-59.6z M173.7-60.4
					l1.7-0.5c0,0.2,0,0.4-0.1,0.5c0,0.2-0.2,0.5-0.4,0.6c-0.4,0.1-0.9,0.1-1.3,0.1c-0.1-0.1-0.2-0.3-0.3-0.5l0,0L173.7-60.4z
					 M176.3-63.5c0.6,0.6,1.1,1.2,1.5,2c0.3,0.9,0.3,1.9,0,2.8c-0.4,0.9-0.5,1.2-1.1,1.2c-0.4-0.1-0.8-0.3-1.2-0.5
					c-0.3-0.2-0.7-0.3-1.1-0.4l-0.4-0.1h0.1c0.5,0,0.9-0.1,1.4-0.2c0.6-0.3,1-0.9,1.1-1.5C176.7-61.3,176.6-62.4,176.3-63.5z"/>
				<path class="st3" d="M210.8-112.2c-1.1-5.6-7.3-6.8-12.6-5.4H198l-0.5-0.7c-1.3-1.8-3.8-5.3-4.7-8.8c-0.6-2.6-2.7-4.5-6.3-5.9
					c-0.1,0-0.1,0-0.2,0c-0.2,0-0.4,0.1-0.6,0.3c-0.2,0.3-0.2,0.6-0.1,0.9c0.5,1.4,0.6,2.9,0.3,4.3c-0.1,0.4-0.1,0.8-0.1,1.2
					c0.1,1,0.5,2,1.1,2.9l0,0c-0.8-0.2-1.7-0.4-2.6-0.6c-2.7-0.5-5.3-1.3-7.9-2.3c-0.1,0-0.2-0.1-0.2,0c-0.3,0-0.6,0.2-0.7,0.6
					c-0.2,0.4,0,0.9,0.4,1.1c1,0.5,1.7,1.4,2.1,2.4c0.6,1.3,1.7,2.4,3,3c1.2,0.5,3,2.5,4.7,4.6c-1.8-0.7-3.6-1.6-5.2-2.7
					c-3.3-2.1-11.2-3-14.6-2.1c-0.9,0.1-1.6,0.6-2,1.4c-0.2,0.9,0,1.8,0.6,2.5c0.2,0.4,0.4,0.8,0.6,1.3l-0.9-0.4
					c-3-1.4-5.2-2.4-8.9-1.5l-1,0.2c-3.6,0.8-4.8,1.2-5.2,2.1c-0.1,0.3-0.1,0.7,0,1c0.2,0.6,0.9,2.3,8.7,5.1l0.2,0.1
					c3.3,1.5,4.8,3.6,6.9,6.7c-4-1.4-10.2-1.8-15.5-2.1c-3.6-0.2-6.7-0.4-7.9-0.9c-0.4-0.1-0.8,0.1-0.9,0.4
					c-0.1,0.4-0.1,0.8,0.2,1.1c2.4,2.3,4.5,4.7,6.5,7.4c3.3,4.1,6.6,8.3,9.2,10c3.2,2.1,9.7,3.9,13.7,2c1.5-0.7,2.5-2,2.9-3.6
					c0.4-1.9,2.7-4.3,6.1-6.8c-0.4,2.4-1.1,4.2-2.6,5.2c-0.9,0.5-2.9,4.1-4.1,5.5c-1.2,1.6-3,2.7-5,2.7c-0.3,0.1-0.6,0.3-0.6,0.6
					c-0.1,0.3,0,0.7,0.3,0.9c0.7,0.6,1.3,1.3,1.8,2s1,1.5,2,1.3c3.8-0.8,6.2-1.3,9.8-3.5c2.5-1.5,4.6-3.6,6.3-6.1
					c0.3-0.5,0.7-1,1.2-1.5c2-1.8,3.9-4.2,2.5-8.5c-0.3-0.9-0.7-1.8-1.1-2.6c-0.3-0.5-0.5-1.1-0.6-1.6c2.7-2.8,8.2-4.1,11.2-4.9
					c0.8-0.2,1.4-0.4,1.8-0.5c3.1-1,5.1-3.2,6.9-5.1c0.6-0.6,1.2-1.3,1.8-1.8C210.8-111.5,210.9-111.9,210.8-112.2z M180.8-95
					c2.1-1.4,4.3-2.8,6.5-4c0.1,0.9,0.4,1.7,0.8,2.5c0.4,0.8,0.7,1.6,1,2.4c0.9,2.6,0.3,4.3-2,6.4c-0.5,0.5-1,1.1-1.4,1.7
					c-1.5,2.3-3.5,4.2-5.8,5.6c-3.5,2.1-5.7,2.6-9.4,3.3c-0.1,0-0.2,0-0.7-0.7c-0.3-0.4-0.6-0.8-0.9-1.2c1.9-0.9,2.8-0.8,4.5-2.8
					c1.1-1.3,3-4.8,3.7-5.2C179.6-88.5,180.3-91.5,180.8-95L180.8-95z M166.9-98c0,0,0,0.9,0,3.3c0.2,3.3,1.7,6.4,4.1,8.7
					c-0.4,0.5-0.9,1-1.5,1.3c-3.2,1.6-9.1,0.3-12.4-1.9c-2.4-1.6-5.7-5.7-8.9-9.7c-1.6-2-3.2-4-4.6-5.6c1.5,0.2,3.4,0.3,5.6,0.4
					C155.7-101,164.5-100.5,166.9-98L166.9-98z M185.7-113c-4.7,2.1-15,7.6-18,13.4c-0.6-0.8-1.1-1.6-1.6-2.3
					c-2.3-3.4-4-5.9-7.8-7.6l-0.3-0.1c-5-1.8-6.8-3-7.4-3.7c1.2-0.4,2.5-0.7,3.8-1l1-0.2c3.4-0.8,5.3,0.1,8.1,1.4
					c0.7,0.3,1.6,0.7,2.4,1.1c0.3,0.1,0.5,0,0.7-0.2s0.3-0.5,0.2-0.8c-0.3-1.2-0.7-2.4-1.3-3.5c-0.2-0.3-0.3-0.7-0.4-1
					c0.3-0.2,0.6-0.3,1-0.4c3.4-0.9,10.8,0.2,13.6,1.9C181.7-114.7,183.7-113.7,185.7-113L185.7-113z M195.7-118
					c-1.3-0.6-2.4-1.4-3.5-2.3c-0.7-0.5-1.4-1.1-2.4-1.7l-0.2-0.1l0,0c-1.1-1.4-2.3-3.4-2.3-4.1c0-0.3,0-0.6,0.1-0.9
					c0.2-1.2,0.2-2.3,0-3.5c2.3,1.1,3.6,2.4,4,4.1C192.3-123.4,193.8-120.5,195.7-118L195.7-118z M197.7-117.6L197.7-117.6z
					 M197.9-115.8c-0.4,1-1.1,2-2.1,2s-1.7,3.4-3,3.2c-1.9-0.3-5.9-5-5.9-5c-2-2.4-3.9-4.6-5.5-5.2c-1-0.5-1.8-1.4-2.2-2.4l-0.2-0.3
					c1.9,0.6,3.6,1,5,1.3c1.8,0.2,3.5,0.8,5.1,1.8l2.4,1.7C194.4-116.6,195.5-115.8,197.9-115.8L197.9-115.8z M206.4-110.1
					c-0.1-0.5-0.6-0.9-1.1-0.9c-0.6,0-1.1,0.5-1.1,1.1c0,0.2,0.1,0.4,0.2,0.6c-0.8-0.2-1.3-0.9-1.1-1.7c0-0.2,0.1-0.4,0.2-0.5
					c0.6-0.8,1.7-1.1,2.6-0.5c0.1,0.1,0.2,0.2,0.3,0.3C206.7-111.2,206.7-110.6,206.4-110.1L206.4-110.1z"/>
				<path class="st4" d="M280.8-97.2c-0.1-0.5-0.5-0.8-1-0.7l0,0c-3.3,0.4-9.5,2.8-12.1,4.3c-2.1,1.2-4.1,2.2-5.9,3
					c5.2-3.9,9.3-9,11.8-15c0.2-0.4,0-0.9-0.5-1.1c-0.3-0.1-0.7,0-1,0.2c-4.2,5.1-9.1,10.6-15.1,14.5c4.2-3.9,7.8-8.5,10.5-13.5
					c0.2-0.4,0-0.9-0.4-1.1c-0.3-0.2-0.8-0.1-1,0.2c-3,3.5-6.2,6.7-9.6,9.8c2-4.9,2.8-10.1,2.5-15.4c0-0.4-0.3-0.7-0.7-0.8
					c-0.4-0.1-0.8,0.1-0.9,0.4c-1.4,2.8-2.4,5.7-3,8.8c-0.4,2-1,4-1.7,6c0.7-6.7-1.4-13.4-5.7-18.6c-0.2-0.2-0.5-0.3-0.8-0.3
					c-0.1,0-0.1,0-0.2,0.1c-0.3,0.2-0.5,0.5-0.5,0.9c0.5,2.7,1.1,5.4,1.9,8c0.2,0.7,0.4,1.3,0.6,2c-1-0.5-2-0.9-3.1-1.1
					c-4-0.9-8.1-0.9-12.1,0c-1.8,0.4-3.6,1-5.4,1.7c-10.1,4.3-15.7,13.4-14.5,23.6c1,8.7,4.1,12.8,7.2,15.9c4,4,9,6.2,13.8,6
					c5.6-0.1,10.7-3.2,13.4-8.1c0.3,0.4,0.8,0.5,1.3,0.5c1.6-0.1,3.1-2.2,5.4-5.7c0.7-1.2,1.5-2.3,2.4-3.4c1.7-1.7,3.6-3.1,5.7-4.4
					c1.1-0.7,2.2-1.4,3.3-2.2c2.1-1.6,3.1-3.1,3.6-7.1c0-0.1,0-0.3-0.1-0.4c2-1.1,4.1-2.2,6.2-3.4c2.5-1.4,4.8-2.6,5.2-2.8
					C280.6-96.3,280.9-96.7,280.8-97.2L280.8-97.2z M240.3-81.2c-0.2,0-0.4,0-0.7,0.1c-2.4,0.5-2.5,2.6-2.3,3.9
					c-1.3,0-1.8-0.4-2-1.1c-0.7-2,0.2-3,2-4.7c1.3-1,2.3-2.4,3-3.9c1-2.5,2.5-2.9,4.3-3.4c0.6-0.2,1.2-0.4,1.8-0.6
					c-0.4,1-0.4,2-0.1,3c-0.9-0.4-2-0.5-3-0.3c-0.2,0.1-0.4,0.1-0.7,0.2c-1.8,0.7-3.1,2.4-3,4.4C239.7-82.8,239.9-81.9,240.3-81.2
					L240.3-81.2z M244.8-83.6c-0.4-0.8-0.5-1.8-0.3-2.7c0-0.1,0.1-0.2,0.1-0.3c0.4,0,0.8,0.1,1.2,0.3c0.6,0.3,1.1,0.9,1.3,1.5
					c0.2,0.9-0.1,1.9-0.8,2.6c-0.5,0.5-1.1,0.8-1.8,1c-0.5,0.1-1,0.1-1.5,0l0,0c-1-0.3-1.7-1.3-1.7-2.4c0-1,0.5-2,1.4-2.6
					c-0.1,1.1,0.1,2.2,0.5,3.2c0.1,0.4,0.6,0.7,1.1,0.5C244.7-82.6,245-83.1,244.8-83.6C244.8-83.5,244.8-83.5,244.8-83.6
					L244.8-83.6z M250-82.6c1.1,0.3,3.2-0.2,5.9-1.3c-2.2,1.3-4.5,2.3-6.9,3.1c-0.6,0.1-1.3,0.2-1.9,0.2c0.1-0.1,0.3-0.2,0.4-0.4
					c0.7-0.7,1.2-1.6,1.3-2.5C249.1-83.1,249.5-82.8,250-82.6L250-82.6z M242.4-73.1l-0.6-0.3l-2.3-2c-0.1-0.4-0.2-0.8-0.3-1.2v-0.1
					c-0.4-1.9-0.2-2.6,0.9-2.8c1.2-0.2,2.4-0.2,3.6,0.2c1.9,0.5,3.8,0.5,5.7,0.1c3.3-0.7,9.1-4.2,13.8-7c1.4-0.8,2.7-1.6,3.7-2.1
					c-0.3,1.8-1.2,3.3-2.7,4.3c-1,0.8-2,1.5-3.1,2.1c-2.2,1.3-4.2,2.8-6,4.5c-1,1.1-1.9,2.3-2.6,3.6c-1.1,1.6-3.3,5-4.1,4.9
					c-0.3-0.3-0.6-0.6-0.9-0.9l0,0C245.9-71.1,244.2-72.2,242.4-73.1z M248.6-103.1c0.2,3.2-0.1,6.4-1.1,9.4c-0.8,1-2,1.6-3.3,1.8
					c-2,0.5-4.2,1.2-5.5,4.4c-0.6,1.3-1.5,2.4-2.6,3.2c-1.7,1.6-3.6,3.4-2.4,6.5c0.7,2,2.7,2.2,3.9,2.2v0.1c0,0.1,0,0.1,0.1,0.2
					c0,0.1,0.1,0.2,0.1,0.3s0,0.1,0.1,0.2c0.1,0.3,0.3,0.6,0.4,0.8l0.1,0.1c0.1,0.1,0.1,0.2,0.2,0.3l0.1,0.1
					c0.1,0.1,0.2,0.2,0.3,0.3l0.1,0.1c0.2,0.1,0.3,0.3,0.5,0.4c0.6,0.4,1.2,0.7,1.9,1.1c0.4,0.2,0.7,0.4,1.1,0.6l0.3,0.2
					c0.3,0.2,0.5,0.3,0.8,0.5c0.1,0.1,0.3,0.2,0.4,0.3s0.5,0.3,0.7,0.5l0.5,0.4l0.4,0.4c-1.9,3.8-5.4,6.4-9.5,7.2
					c-0.9,0.2-1.8,0.3-2.8,0.3c-4.3,0.2-8.8-1.8-12.5-5.5c-3.3-3.4-5.7-7.2-6.7-15c-1.1-9.5,3.9-17.7,13.6-21.8
					c5.2-2.3,11-2.8,16.5-1.6C246.1-105,247.5-104.2,248.6-103.1L248.6-103.1z"/>
			</g>
		</g>
	</g>
</pattern>
<rect class="st5" width="320" height="320"/>
<pattern  id="SVGID_1_" xlink:href="#SVGID_2_" patternTransform="matrix(1 0 0 -1 -478.76 -34343.9102)">
</pattern>
<rect x="10" y="10" class="st6" width="300" height="300"/>
</svg>
