<?xml version="1.0" encoding="utf-8"?>
<!-- Generator: Adobe Illustrator 24.1.2, SVG Export Plug-In . SVG Version: 6.00 Build 0)  -->
<svg version="1.1" id="Layer_1" xmlns="http://www.w3.org/2000/svg" xmlns:xlink="http://www.w3.org/1999/xlink" x="0px" y="0px"
	 viewBox="0 0 300 300" style="enable-background:new 0 0 300 300;" xml:space="preserve">
<style type="text/css">
	.st0{fill:#F4F4F4;}
	.st1{fill:#231F20;}
</style>
<rect class="st0" width="300" height="300"/>
<g>
	<path class="st1" d="M59.9,126.1c0.6,0.3,1.2,0.7,1.7,1.2c0.5,0.4,0.9,0.9,1.1,1.4c0.3,0.5,0.5,1.1,0.5,1.7c0.1,0.7,0,1.3-0.2,2
		c-0.2,0.9-0.7,1.7-1.3,2.4c-0.6,0.6-1.3,1-2.1,1.2c-0.8,0.3-1.7,0.4-2.6,0.3c-0.9-0.1-1.9-0.2-2.8-0.5c-0.9-0.2-1.8-0.6-2.7-1
		c-0.8-0.4-1.5-0.9-2.1-1.6c-0.5-0.6-0.9-1.3-1.2-2.1c-0.2-0.9-0.2-1.7,0.1-2.6c0.1-0.3,0.2-0.6,0.4-0.9c0.2-0.3,0.4-0.6,0.6-0.8
		c0.2-0.2,0.5-0.4,0.8-0.5c0.3-0.1,0.6-0.2,0.9-0.2l-1.7-0.5l0.5-2l5.3,1.5l-0.5,2c-0.4-0.1-0.9-0.2-1.3-0.2c-0.4,0-0.9,0.1-1.3,0.2
		c-0.4,0.2-0.7,0.4-1,0.7c-0.7,0.8-0.9,1.9-0.6,2.9c0.2,0.5,0.5,0.9,1,1.3c0.5,0.4,1,0.7,1.6,1c0.6,0.3,1.2,0.5,1.8,0.7
		c0.6,0.2,1.3,0.3,1.9,0.4c0.6,0.1,1.2,0.1,1.8,0c0.5-0.1,1-0.3,1.5-0.6c0.4-0.4,0.8-0.9,0.9-1.4c0.3-0.8,0.2-1.7-0.3-2.3
		c-0.5-0.7-1.2-1.4-2-1.8L59.9,126.1z"/>
	<path class="st1" d="M62.2,123.7c-0.5-0.2-1-0.6-1.2-1.1c-0.3-0.5-0.4-1.1-0.5-1.7c0-0.7,0-1.3,0.2-1.9c0.2-0.7,0.4-1.4,0.7-2
		c0.2-0.4,0.3-0.7,0.5-0.9s0.3-0.5,0.4-0.8l-0.4-0.2c-0.4-0.2-0.9-0.2-1.4,0c-0.5,0.3-0.9,0.8-1.1,1.3c-0.6,1.2-0.8,2.5-0.7,3.8
		l-2,0.1c-0.1-0.8,0-1.6,0.1-2.4c0.1-0.8,0.4-1.6,0.8-2.4c0.2-0.5,0.5-1,0.9-1.4c0.3-0.4,0.7-0.8,1.2-1.1c0.4-0.3,1-0.4,1.5-0.5
		c0.6,0,1.2,0.1,1.8,0.4l6.3,3l-1,2.1l-1.4-0.7c0.4,0.6,0.5,1.3,0.5,2c0,0.8-0.2,1.6-0.6,2.3c-0.2,0.4-0.5,0.8-0.8,1.2
		c-0.3,0.3-0.7,0.6-1.1,0.8c-0.4,0.2-0.8,0.3-1.3,0.3C63.1,124.1,62.6,123.9,62.2,123.7z M65.1,120.4c0.2-0.4,0.3-0.8,0.4-1.2
		c0.1-0.4,0.1-0.8,0-1.2c0-0.3-0.2-0.7-0.4-1c-0.2-0.3-0.4-0.5-0.7-0.7l-0.4-0.2c-0.2,0.3-0.4,0.6-0.5,0.9l-0.4,0.8
		c-0.4,0.8-0.7,1.6-0.7,2.5c-0.1,0.5,0.2,1,0.6,1.3C63.8,122,64.5,121.6,65.1,120.4z"/>
	<path class="st1" d="M76.8,104.7l-1.4,1.9l-5.8-4.2c-0.3-0.2-0.6-0.4-1-0.5c-0.2-0.1-0.5,0-0.6,0.2c-0.3,0.4-0.2,0.9,0.1,1.2
		c0.5,0.6,1.1,1,1.8,1.5l4.5,3.2l-1.4,1.9l-5.8-4.2c-0.3-0.2-0.6-0.4-1-0.5c-0.2-0.1-0.5,0-0.6,0.2c-0.3,0.4-0.2,0.9,0.1,1.1
		c0.5,0.5,1.1,1,1.8,1.5l4.5,3.2l-1.4,1.9l-8.4-6.1l1.4-1.9l1.2,0.9c-0.3-0.4-0.6-0.9-0.6-1.4c0-0.5,0.1-0.9,0.4-1.3
		c0.2-0.3,0.6-0.6,1-0.7c0.4-0.1,0.9,0,1.3,0.2c-0.2-0.4-0.4-0.9-0.5-1.3c0-0.5,0.2-0.9,0.5-1.3c0.3-0.5,1-0.9,1.6-0.9
		c0.8,0.1,1.6,0.4,2.3,0.9L76.8,104.7z"/>
	<path class="st1" d="M76.9,97.9c0.6,0.4,1.3,0.6,2,0.5c0.8-0.1,1.6-0.5,2.1-1.1c0.5-0.5,0.9-1,1.1-1.6c0.2-0.5,0.3-1.1,0.4-1.7
		l2,0.3c0,0.9-0.2,1.7-0.5,2.5c-0.4,0.7-0.9,1.4-1.5,2c-0.5,0.5-1.2,1-1.9,1.3c-0.7,0.3-1.4,0.4-2.1,0.5c-0.7,0-1.4-0.1-2-0.4
		c-0.7-0.3-1.3-0.7-1.9-1.3c-0.5-0.5-1-1.1-1.3-1.8c-0.6-1.3-0.6-2.8,0-4c0.6-1.4,1.8-2.5,3.2-3.2c0.7-0.3,1.4-0.4,2.1-0.4
		c0.8,0,1.5,0.3,2.2,0.6c0.8,0.4,1.5,0.9,2.2,1.6L76.9,97.9z M79.8,92.1c-0.5-0.4-1.2-0.5-1.9-0.4c-0.7,0.1-1.3,0.5-1.8,0.9
		c-0.5,0.5-0.8,1.1-1,1.8c-0.1,0.7,0,1.3,0.4,1.9L79.8,92.1z"/>
	<path class="st1" d="M95.1,87.9L89.4,92l-1.2-1.7L90,89l-6.1-8.4l-1.8,1.3l-1.2-1.7l3.7-2.7l7.4,10.1l1.9-1.4L95.1,87.9z"/>
	<path class="st1" d="M105.9,75.7c0.4,0.7,0.6,1.4,0.7,2.1c0.1,0.7,0,1.4-0.2,2c-0.2,0.7-0.6,1.3-1,1.8c-0.5,0.6-1.1,1-1.8,1.4
		c-0.7,0.4-1.4,0.6-2.2,0.7c-0.7,0.1-1.4,0-2-0.2c-0.7-0.2-1.3-0.6-1.8-1c-0.6-0.5-1-1.1-1.4-1.8c-0.4-0.7-0.6-1.4-0.7-2.1
		c-0.2-1.4,0.2-2.8,1.2-3.9c0.5-0.6,1.1-1,1.8-1.4c0.7-0.4,1.4-0.6,2.2-0.7c1.4-0.2,2.8,0.3,3.8,1.2C105.1,74.4,105.6,75,105.9,75.7
		z M103.8,76.8c-0.2-0.4-0.5-0.8-0.8-1.1c-0.6-0.6-1.4-0.9-2.3-0.8c-0.9,0.1-1.7,0.5-2.3,1.2c-0.5,0.7-0.7,1.5-0.6,2.3
		c0.1,0.4,0.2,0.9,0.4,1.3c0.2,0.4,0.5,0.8,0.8,1.1c0.3,0.3,0.7,0.5,1,0.7c0.4,0.1,0.8,0.2,1.2,0.2c0.4,0,0.9-0.2,1.3-0.4
		c0.4-0.2,0.8-0.5,1-0.8c0.3-0.3,0.4-0.7,0.5-1.1c0.1-0.4,0.1-0.8,0.1-1.2C104.2,77.6,104.1,77.2,103.8,76.8z"/>
	<path class="st1" d="M119.6,72.4c0.3,1,0.1,2-0.3,2.9c-0.5,0.9-1.3,1.5-2.3,1.8c-0.5,0.2-1.1,0.3-1.7,0.3c-0.5,0-1-0.1-1.5-0.4
		c-0.5-0.2-0.9-0.5-1.2-0.9c-0.4-0.4-0.7-0.9-0.8-1.5l-1.5-4.2l-2.2,0.8l-0.7-2l2.2-0.8l-1.4-3.9l2.2-0.8l1.4,3.9l4.1-1.5l0.7,2
		l-4.1,1.5l1.4,4.3c0.1,0.5,0.5,1,1,1.2c0.4,0.2,0.9,0.2,1.4,0c0.5-0.1,1-0.5,1.2-1c0.2-0.5,0.2-1,0.1-1.5L119.6,72.4z"/>
	<path class="st1" d="M147,66.8c-0.1,0.7-0.3,1.3-0.6,2c-0.2,0.6-0.6,1.1-1,1.6c-0.4,0.4-0.9,0.8-1.4,1c-0.6,0.3-1.3,0.4-1.9,0.5
		c-0.9,0.1-1.8-0.1-2.7-0.5c-0.7-0.4-1.4-0.9-1.8-1.6c-0.5-0.7-0.9-1.5-1.1-2.3c-0.3-0.9-0.4-1.8-0.5-2.8c-0.1-0.9,0-1.9,0.1-2.8
		c0.1-0.9,0.4-1.7,0.8-2.5c0.4-0.7,0.9-1.3,1.6-1.8c0.7-0.5,1.6-0.8,2.5-0.8c0.3,0,0.7,0,1,0.1c0.3,0.1,0.6,0.2,0.9,0.3
		c0.3,0.1,0.6,0.3,0.8,0.6c0.2,0.2,0.4,0.5,0.5,0.8l-0.1-1.7l2.1-0.2l0.4,5.5l-2.1,0.2c0-0.5-0.1-0.9-0.3-1.3
		c-0.1-0.4-0.3-0.8-0.6-1.1c-0.3-0.3-0.6-0.6-1-0.8c-0.4-0.2-0.9-0.3-1.3-0.2c-0.6,0-1.1,0.2-1.6,0.6c-0.4,0.4-0.7,0.8-0.9,1.3
		c-0.2,0.6-0.4,1.2-0.4,1.8c0,0.7,0,1.3,0,2c0,0.7,0.1,1.3,0.3,2c0.1,0.6,0.3,1.2,0.6,1.7c0.3,0.5,0.6,0.9,1.1,1.2
		c0.5,0.3,1.1,0.4,1.7,0.4c0.8,0,1.6-0.4,2.1-1c0.5-0.8,0.9-1.6,1.1-2.5L147,66.8z"/>
	<path class="st1" d="M161.1,66.6c0,0.8-0.2,1.5-0.5,2.2c-0.3,0.6-0.7,1.2-1.2,1.6c-0.5,0.5-1.1,0.8-1.8,1c-0.7,0.2-1.5,0.3-2.3,0.3
		c-0.8,0-1.5-0.2-2.2-0.5c-0.6-0.3-1.2-0.7-1.7-1.2c-0.5-0.5-0.8-1.1-1-1.8c-0.2-0.7-0.3-1.5-0.2-2.2c0-0.7,0.2-1.5,0.5-2.2
		c0.6-1.3,1.7-2.3,3-2.7c0.7-0.2,1.5-0.3,2.2-0.3c0.8,0,1.5,0.2,2.2,0.5c0.6,0.3,1.2,0.7,1.6,1.2c0.4,0.5,0.8,1.1,1,1.8
		C161.1,65,161.2,65.8,161.1,66.6z M158.8,66.4c0-0.5,0-0.9-0.1-1.4c-0.2-0.8-0.8-1.5-1.5-1.9c-0.4-0.2-0.8-0.3-1.3-0.3
		c-0.4,0-0.9,0-1.3,0.2c-0.4,0.1-0.7,0.4-1,0.6c-0.3,0.3-0.5,0.7-0.7,1c-0.2,0.4-0.3,0.9-0.3,1.3c0,0.5,0,0.9,0.1,1.4
		c0.1,0.4,0.3,0.8,0.5,1.1c0.3,0.3,0.6,0.6,0.9,0.8c0.4,0.2,0.8,0.3,1.3,0.3c0.4,0,0.9,0,1.3-0.2c0.4-0.1,0.7-0.4,1-0.6
		c0.3-0.3,0.5-0.6,0.7-1C158.7,67.4,158.8,66.9,158.8,66.4z"/>
	<path class="st1" d="M172.2,73.7l-6.9-1.4l0.4-2l2.2,0.4l2-10.2l-2.2-0.4l0.4-2l4.5,0.9l-2.4,12.3l2.4,0.5L172.2,73.7z"/>
	<path class="st1" d="M185,77.5l-6.6-2.3l0.7-2l2.2,0.7l3.4-9.9l-2.2-0.7l0.7-2l4.3,1.5l-4.1,11.8l2.3,0.8L185,77.5z"/>
	<path class="st1" d="M193.3,76.2c-0.2,0.7-0.2,1.4,0.1,2.1c0.4,0.8,1,1.3,1.8,1.7c0.6,0.3,1.2,0.5,1.9,0.6c0.6,0,1.2,0,1.7-0.2
		l0.3,2c-0.8,0.3-1.7,0.4-2.5,0.2c-0.8-0.1-1.6-0.4-2.4-0.8c-0.7-0.4-1.3-0.8-1.8-1.4c-0.5-0.5-0.8-1.1-1.1-1.8
		c-0.2-0.7-0.3-1.4-0.3-2.1c0.1-0.8,0.3-1.5,0.6-2.2c0.3-0.7,0.8-1.3,1.3-1.8c0.5-0.5,1.1-0.8,1.8-1c0.7-0.2,1.4-0.3,2-0.2
		c0.8,0.1,1.5,0.3,2.2,0.7c0.7,0.3,1.3,0.8,1.8,1.4c0.5,0.6,0.8,1.2,1,1.9c0.2,0.8,0.2,1.5,0.1,2.3c-0.1,0.9-0.4,1.8-0.9,2.6
		L193.3,76.2z M199.6,77.2c0.2-0.6,0.1-1.3-0.2-1.9c-0.3-0.6-0.8-1.1-1.5-1.4c-0.6-0.3-1.3-0.4-2-0.4c-0.7,0.1-1.3,0.4-1.7,1
		L199.6,77.2z"/>
	<path class="st1" d="M210.3,89.8c-0.8,0.2-1.7,0.1-2.5-0.1c-0.8-0.2-1.5-0.6-2.2-1.1c-0.6-0.5-1.2-1-1.7-1.7
		c-0.4-0.6-0.7-1.2-0.8-1.9c-0.1-0.7-0.1-1.4,0.1-2.1c0.2-0.7,0.5-1.4,1-2.1c0.4-0.6,0.9-1.1,1.6-1.5c0.6-0.4,1.2-0.7,1.9-0.8
		c0.6-0.1,1.3-0.1,2,0c0.6,0.1,1.2,0.4,1.8,0.8c0.5,0.4,1,0.9,1.3,1.4c0.3,0.5,0.3,1.2,0.2,1.8l0.9-1.2l1.7,1.2l-2.8,3.9l-1.7-1.2
		c0.5-0.6,0.7-1.4,0.7-2.2c-0.1-0.7-0.5-1.4-1.1-1.8c-0.3-0.2-0.6-0.3-0.9-0.4c-0.4-0.1-0.8-0.1-1.1-0.1c-0.4,0.1-0.8,0.2-1.2,0.4
		c-0.4,0.3-0.8,0.6-1.1,1.1c-0.3,0.4-0.5,0.9-0.7,1.4c-0.1,0.4-0.1,0.9,0,1.3c0.1,0.4,0.3,0.8,0.5,1.1c0.2,0.3,0.5,0.6,0.9,0.9
		c0.5,0.4,1.1,0.7,1.8,0.9c0.6,0.1,1.1,0.2,1.7,0.1L210.3,89.8z"/>
	<path class="st1" d="M222,98c-0.8,0.7-1.7,1-2.7,1c-1-0.1-2-0.5-2.7-1.2c-0.4-0.4-0.8-0.9-1-1.4c-0.4-1-0.4-2.1,0-3
		c0.2-0.5,0.5-1,0.9-1.4l3.2-3.2L218,87l1.4-1.5l1.7,1.6l2.9-3l1.7,1.6l-2.9,3l3.1,3l-1.4,1.5l-3.1-3l-3.2,3.2
		c-0.4,0.4-0.7,0.9-0.7,1.4c0,0.5,0.2,0.9,0.6,1.3c0.4,0.4,0.9,0.6,1.4,0.6c0.5-0.1,1-0.3,1.4-0.6L222,98z"/>
	<path class="st1" d="M226.8,109.4l-4.1-5.6l1.7-1.3l1.4,1.8l5-3.7l-1.4-1.8l1.7-1.2l2.7,3.7l-6.7,4.9l1.4,1.9L226.8,109.4z
		 M235,100.7l-1.7-2.3l2.3-1.7l1.7,2.3L235,100.7z"/>
	<path class="st1" d="M243.3,117.6l-11,1.2l-1.2-2.4l7.6-8.1l1.1,2.2l-5.8,5.9l8.3-1.1L243.3,117.6z"/>
	<path class="st1" d="M239.9,125.6c-0.6,0.3-1.2,0.8-1.4,1.5c-0.3,0.8-0.3,1.6-0.1,2.4c0.2,0.6,0.5,1.2,0.9,1.8
		c0.4,0.5,0.8,0.8,1.3,1.1l-1.2,1.6c-0.8-0.4-1.4-1-1.9-1.7c-0.5-0.7-0.8-1.5-1-2.3c-0.2-0.7-0.3-1.5-0.2-2.3c0.1-0.7,0.3-1.4,0.6-2
		c0.3-0.6,0.8-1.2,1.3-1.6c0.6-0.5,1.3-0.8,2-1c0.7-0.2,1.5-0.3,2.2-0.2c1.4,0.1,2.7,0.8,3.5,1.9c0.5,0.6,0.8,1.3,1,2
		c0.2,0.8,0.3,1.5,0.2,2.3c-0.1,0.7-0.3,1.4-0.7,2c-0.4,0.7-1,1.2-1.6,1.7c-0.7,0.5-1.6,0.9-2.4,1.1L239.9,125.6z M243.6,130.9
		c0.6-0.3,1.1-0.8,1.3-1.4c0.2-0.7,0.3-1.4,0.1-2c-0.2-0.7-0.6-1.3-1.1-1.8c-0.5-0.4-1.2-0.6-1.8-0.6L243.6,130.9z"/>
	<path class="st1" d="M150.1,208.3c-17.4,0-33.9-6-46.2-16.9c-12.5-11-19.4-25.7-19.4-41.4c0-3.2,0.3-6.4,0.9-9.6
		c2.5-13.5,10.4-25.9,22.2-34.8c12.3-9.1,27.2-14,42.6-13.9c17.4,0,33.9,6,46.2,16.9s19.4,25.7,19.4,41.4c0,3.3-0.3,6.5-0.9,9.7
		c-2.5,13.5-10.5,25.8-22.3,34.7C180.3,203.5,165.4,208.4,150.1,208.3z M88.4,156.1c3.5,27.1,29.8,48.2,61.7,48.2
		c14.6,0.1,28.8-4.5,40.5-13.2c11-8.3,18.4-19.7,20.7-32.2c0-0.1,0-0.1,0-0.2l0,0c-2.4-11.9-10.2-22.6-22.1-30
		c-10.7-6.6-24-10.1-35.5-9.3c-20,1.4-33.6,11.7-34.2,25.9c6.1-8.1,16.2-12.4,29.5-12.4c7.9,0.1,15.6,2.2,22.4,6.1
		c7.7,4.6,12,11,12,18.1c0,16.9-15.1,29.4-37.5,30.9c-1.1,0.1-2.3,0.1-3.5,0.1l0,0c-12-0.2-23.7-3.6-33.8-9.9
		C99.5,172.4,92.5,164.8,88.4,156.1z M88.2,144.7c2.4,11.9,10.2,22.5,22.1,29.9c10.7,6.6,24,10.1,35.5,9.3l0,0
		c17.2-1.2,29.7-9,33.2-20.2c0.6-1.8,0.9-3.7,1-5.6c-6.1,8.1-16.2,12.4-29.5,12.4c-7.9-0.1-15.6-2.2-22.4-6.1
		c-7.7-4.6-12-11-12-18.1c0-16.9,15.1-29.4,37.5-30.9l0,0c1.2-0.1,2.3-0.1,3.5-0.1l0,0c12,0.2,23.7,3.6,33.8,9.9
		c9.9,6.2,17.3,14.6,21.3,24.1c-0.5-29.6-28.1-53.5-62.1-53.5c-14.6-0.1-28.8,4.5-40.6,13.2c-11,8.3-18.4,19.8-20.7,32.3
		C88.6,142.4,88.4,143.5,88.2,144.7z M120.4,150.8c3.7,9.7,18.8,15.6,30.1,15.6c9.7,0,22.4-2.4,28.7-13.9
		c-3.7-9.7-18.8-15.6-30.1-15.6C139.5,136.9,126.7,139.3,120.4,150.8L120.4,150.8z"/>
	<path class="st1" d="M240.1,174.3c-0.6-0.3-1.2-0.7-1.7-1.2c-0.5-0.4-0.8-0.9-1.1-1.4c-0.3-0.5-0.5-1.1-0.5-1.7
		c-0.1-0.7,0-1.3,0.2-2c0.2-0.9,0.7-1.7,1.3-2.3c0.6-0.6,1.3-1,2.1-1.2c0.8-0.2,1.7-0.3,2.6-0.3c1.9,0.1,3.8,0.6,5.4,1.5
		c0.8,0.4,1.5,0.9,2.1,1.6c0.5,0.6,0.9,1.3,1.1,2.1c0.2,0.9,0.2,1.8-0.1,2.6c-0.1,0.3-0.2,0.6-0.4,0.9c-0.2,0.3-0.4,0.6-0.6,0.8
		c-0.2,0.2-0.5,0.4-0.8,0.5c-0.3,0.1-0.6,0.2-0.9,0.2l1.7,0.5l-0.6,2l-5.3-1.5l0.6-2c0.4,0.1,0.9,0.2,1.3,0.2c0.4,0,0.9-0.1,1.3-0.2
		c0.4-0.1,0.8-0.4,1.1-0.7c0.3-0.3,0.6-0.7,0.7-1.2c0.2-0.5,0.2-1.1,0-1.7c-0.2-0.5-0.5-1-0.9-1.3c-0.5-0.4-1-0.7-1.5-1
		c-0.6-0.3-1.2-0.5-1.8-0.7c-0.6-0.2-1.3-0.3-1.9-0.4c-0.6-0.1-1.2-0.1-1.8,0c-0.5,0.1-1,0.3-1.5,0.6c-0.4,0.4-0.8,0.9-0.9,1.4
		c-0.3,0.8-0.2,1.6,0.3,2.3c0.5,0.7,1.2,1.4,2,1.8L240.1,174.3z"/>
	<path class="st1" d="M237.8,176.8c0.5,0.2,0.9,0.6,1.2,1.1c0.3,0.5,0.4,1.1,0.5,1.7c0,0.7,0,1.3-0.2,1.9c-0.2,0.7-0.4,1.4-0.7,2
		c-0.2,0.4-0.3,0.7-0.5,0.9s-0.3,0.5-0.4,0.7l0.4,0.2c0.4,0.2,0.9,0.2,1.4,0c0.5-0.3,0.9-0.8,1.1-1.3c0.3-0.6,0.5-1.2,0.6-1.8
		c0.1-0.7,0.2-1.3,0.1-2h2c0.1,0.8,0,1.6-0.1,2.4c-0.2,0.8-0.4,1.6-0.8,2.4c-0.2,0.5-0.5,1-0.9,1.4c-0.3,0.4-0.7,0.8-1.2,1.1
		c-0.5,0.3-1,0.4-1.5,0.4c-0.6,0-1.2-0.1-1.8-0.4l-6.3-3.1l1-2.1l1.4,0.7c-0.4-0.6-0.5-1.3-0.5-2c0-0.8,0.2-1.6,0.6-2.3
		c0.2-0.4,0.5-0.8,0.8-1.2c0.3-0.3,0.7-0.6,1.1-0.8c0.4-0.2,0.8-0.3,1.3-0.3C236.9,176.5,237.4,176.6,237.8,176.8z M234.8,180.1
		c-0.2,0.4-0.3,0.8-0.4,1.2c-0.1,0.4-0.1,0.8,0,1.2c0,0.3,0.2,0.7,0.3,1c0.2,0.3,0.4,0.5,0.7,0.7l0.4,0.2c0.2-0.3,0.4-0.6,0.5-0.9
		c0.2-0.3,0.3-0.5,0.4-0.8c0.4-0.8,0.7-1.6,0.7-2.5c0.1-0.5-0.2-1-0.6-1.3C236.1,178.5,235.4,178.9,234.8,180.1L234.8,180.1z"/>
	<path class="st1" d="M223.1,195.8l1.4-1.9l5.8,4.2c0.3,0.2,0.6,0.4,1,0.5c0.2,0.1,0.5,0,0.6-0.2c0.3-0.4,0.2-0.9-0.1-1.2
		c-0.5-0.6-1.1-1.1-1.7-1.5l-4.5-3.3l1.4-1.9l5.8,4.2c0.3,0.2,0.6,0.4,1,0.5c0.2,0.1,0.5,0,0.6-0.2c0.2-0.4,0.2-0.8-0.1-1.1
		c-0.5-0.5-1.1-1-1.8-1.5l-4.5-3.3l1.4-1.9l8.4,6.1l-1.4,1.9l-1.2-0.9c0.3,0.4,0.6,0.9,0.6,1.4c0,0.5-0.1,0.9-0.4,1.3
		c-0.2,0.3-0.6,0.6-1,0.7c-0.4,0.1-0.9,0-1.3-0.2c0.2,0.4,0.4,0.9,0.5,1.3c-0.1,1.1-0.9,2-2.1,2.1c-0.8-0.1-1.6-0.4-2.3-0.9
		L223.1,195.8z"/>
	<path class="st1" d="M222.9,202.6c-0.6-0.4-1.3-0.6-2-0.6c-0.8,0.1-1.6,0.5-2.1,1.1c-0.5,0.5-0.9,1-1.1,1.6
		c-0.2,0.5-0.3,1.1-0.4,1.7l-2-0.3c0-0.9,0.2-1.7,0.6-2.5c0.4-0.7,0.9-1.4,1.5-2c0.5-0.5,1.2-1,1.9-1.3c0.7-0.3,1.4-0.5,2.1-0.5
		c0.7,0,1.4,0.1,2,0.4c0.7,0.3,1.3,0.7,1.9,1.3c0.5,0.5,1,1.2,1.3,1.8c0.3,0.6,0.4,1.3,0.4,2c0,0.7-0.1,1.4-0.4,2
		c-0.3,0.7-0.7,1.3-1.3,1.9c-0.6,0.6-1.2,1-1.9,1.3c-0.7,0.3-1.4,0.4-2.1,0.3c-0.8-0.1-1.5-0.3-2.2-0.6c-0.8-0.4-1.5-1-2.2-1.6
		L222.9,202.6z M219.9,208.3c0.5,0.4,1.2,0.5,1.9,0.4c0.7-0.1,1.3-0.4,1.8-0.9c0.5-0.5,0.8-1.1,1-1.8c0.1-0.7,0-1.3-0.4-1.9
		L219.9,208.3z"/>
	<path class="st1" d="M204.7,212.4l5.7-4.1l1.2,1.7l-1.8,1.3l6.1,8.5l1.9-1.3l1.2,1.7l-3.7,2.7l-7.3-10.1l-1.9,1.4L204.7,212.4z"/>
	<path class="st1" d="M193.8,224.6c-0.4-0.7-0.6-1.4-0.7-2.1c-0.1-0.7,0-1.4,0.2-2c0.2-0.7,0.6-1.3,1-1.8c0.5-0.6,1.1-1,1.8-1.4
		c0.7-0.4,1.4-0.6,2.2-0.7c0.7-0.1,1.4,0,2,0.2c0.7,0.2,1.3,0.6,1.8,1c1.1,1,1.8,2.4,2,3.9c0.1,0.7,0,1.4-0.2,2.1
		c-0.2,0.7-0.6,1.3-1,1.8c-0.5,0.6-1.1,1-1.8,1.4c-0.7,0.4-1.4,0.6-2.2,0.7c-0.7,0.1-1.4,0-2-0.2c-0.7-0.2-1.3-0.6-1.8-1
		C194.6,225.8,194.1,225.2,193.8,224.6z M195.8,223.5c0.2,0.4,0.5,0.8,0.8,1.1c0.3,0.3,0.7,0.5,1.1,0.7c0.4,0.1,0.8,0.2,1.2,0.2
		c0.5,0,0.9-0.2,1.3-0.4c0.4-0.2,0.8-0.5,1-0.8c0.3-0.3,0.4-0.7,0.5-1.1c0.1-0.4,0.1-0.8,0.1-1.2c-0.1-0.4-0.2-0.9-0.4-1.3
		c-0.2-0.4-0.5-0.8-0.8-1.1c-0.3-0.3-0.7-0.5-1-0.6c-0.4-0.2-0.8-0.2-1.2-0.2c-0.4,0-0.9,0.2-1.3,0.4c-0.4,0.2-0.8,0.5-1.1,0.8
		c-0.3,0.3-0.5,0.7-0.6,1.1c-0.1,0.4-0.1,0.8-0.1,1.2C195.5,222.7,195.6,223.1,195.8,223.5L195.8,223.5z"/>
	<path class="st1" d="M180.1,227.8c-0.3-1-0.1-2,0.4-2.9c0.5-0.9,1.3-1.5,2.3-1.8c0.5-0.2,1.1-0.3,1.7-0.3c0.5,0,1,0.1,1.5,0.4
		c0.5,0.2,0.9,0.6,1.2,0.9c0.4,0.4,0.6,0.9,0.8,1.5l1.5,4.3l2.2-0.8l0.7,2l-2.2,0.8l1.4,3.9l-2.2,0.8l-1.4-3.9l-4.1,1.4l-0.7-2
		l4.1-1.4l-1.5-4.3c-0.1-0.5-0.5-1-1-1.3c-0.4-0.2-0.9-0.2-1.4,0c-0.5,0.1-1,0.5-1.2,1c-0.2,0.5-0.2,1-0.1,1.5L180.1,227.8z"/>
	<path class="st1" d="M152.7,233.2c0.1-0.7,0.3-1.3,0.6-2c0.2-0.6,0.6-1.1,1-1.6c0.4-0.4,0.9-0.8,1.4-1c0.6-0.3,1.3-0.4,1.9-0.5
		c0.9-0.1,1.8,0.1,2.7,0.5c0.7,0.4,1.4,0.9,1.8,1.6c0.5,0.7,0.9,1.5,1.1,2.3c0.5,1.8,0.6,3.8,0.4,5.6c-0.1,0.9-0.4,1.7-0.8,2.5
		c-0.4,0.7-0.9,1.3-1.6,1.8c-0.7,0.5-1.6,0.8-2.5,0.8c-0.3,0-0.7,0-1-0.1c-0.3-0.1-0.6-0.2-0.9-0.3c-0.3-0.1-0.6-0.3-0.8-0.6
		c-0.2-0.2-0.4-0.5-0.5-0.8l0.1,1.7l-2.1,0.1l-0.4-5.5l2.1-0.1c0,0.5,0.1,0.9,0.3,1.3c0.1,0.4,0.3,0.8,0.6,1.1
		c0.3,0.3,0.6,0.6,1,0.8c0.4,0.2,0.9,0.3,1.3,0.2c0.6,0,1.1-0.2,1.6-0.6c0.4-0.4,0.7-0.8,0.9-1.3c0.2-0.6,0.4-1.2,0.4-1.8
		c0-0.7,0-1.3,0-2c0-0.7-0.1-1.3-0.3-2c-0.1-0.6-0.3-1.2-0.6-1.8c-0.3-0.5-0.6-0.9-1.1-1.2c-0.5-0.3-1.1-0.4-1.7-0.4
		c-0.8,0-1.6,0.4-2.1,1c-0.5,0.8-0.9,1.6-1.1,2.5L152.7,233.2z"/>
	<path class="st1" d="M138.5,233.4c0-0.8,0.2-1.5,0.5-2.2c0.3-0.6,0.7-1.2,1.2-1.6c0.5-0.4,1.1-0.8,1.8-1c0.7-0.2,1.5-0.3,2.3-0.2
		c0.8,0,1.5,0.2,2.2,0.5c0.6,0.3,1.2,0.7,1.6,1.2c0.4,0.5,0.8,1.1,1,1.8c0.4,1.5,0.3,3-0.3,4.4c-0.3,0.6-0.7,1.2-1.2,1.7
		c-0.5,0.5-1.1,0.8-1.8,1c-1.5,0.4-3,0.3-4.4-0.3c-0.6-0.3-1.2-0.7-1.7-1.2c-0.4-0.5-0.8-1.1-1-1.8
		C138.5,234.9,138.4,234.1,138.5,233.4z M140.8,233.5c0,0.5,0,0.9,0.1,1.4c0.1,0.4,0.3,0.8,0.6,1.1c0.5,0.7,1.4,1.1,2.2,1.1
		c0.4,0,0.9,0,1.3-0.2c0.4-0.1,0.7-0.4,1-0.6c0.3-0.3,0.5-0.7,0.7-1c0.2-0.4,0.3-0.9,0.3-1.3c0-0.5,0-0.9-0.1-1.4
		c-0.1-0.4-0.3-0.8-0.5-1.1c-0.2-0.3-0.6-0.6-0.9-0.8c-0.8-0.4-1.8-0.5-2.7-0.2c-0.4,0.1-0.7,0.4-1,0.6c-0.3,0.3-0.5,0.6-0.7,1
		C140.9,232.6,140.8,233.1,140.8,233.5z"/>
	<path class="st1" d="M127.5,226.2l6.9,1.4l-0.4,2l-2.2-0.5l-2.1,10.2l2.2,0.5l-0.4,2L127,241l2.5-12.3l-2.4-0.5L127.5,226.2z"/>
	<path class="st1" d="M114.6,222.3l6.6,2.3l-0.7,2l-2.1-0.8l-3.4,9.9l2.1,0.8l-0.7,1.9l-4.3-1.5l4.1-11.8l-2.3-0.8L114.6,222.3z"/>
	<path class="st1" d="M106.4,223.6c0.2-0.7,0.2-1.4-0.1-2.1c-0.3-0.8-1-1.4-1.7-1.7c-0.6-0.3-1.2-0.5-1.9-0.6c-0.6,0-1.2,0-1.7,0.2
		l-0.3-2c0.8-0.3,1.7-0.4,2.5-0.2c0.8,0.1,1.6,0.4,2.3,0.8c0.7,0.4,1.3,0.8,1.8,1.4c0.5,0.5,0.8,1.1,1.1,1.8
		c0.2,0.7,0.3,1.4,0.3,2.1c-0.1,0.8-0.3,1.5-0.6,2.2c-0.3,0.7-0.8,1.3-1.4,1.8c-1.1,0.9-2.4,1.4-3.8,1.2c-0.7-0.1-1.5-0.3-2.1-0.7
		c-0.7-0.3-1.3-0.8-1.9-1.4c-0.5-0.6-0.8-1.2-1-1.9c-0.2-0.8-0.2-1.5-0.1-2.3c0.1-0.9,0.4-1.8,0.9-2.6L106.4,223.6z M100,222.6
		c-0.2,0.6-0.1,1.3,0.2,1.9c0.3,0.6,0.8,1.1,1.5,1.4c0.6,0.3,1.3,0.5,2,0.4c0.7-0.1,1.3-0.4,1.7-1L100,222.6z"/>
	<path class="st1" d="M89.4,209.9c0.8-0.2,1.7-0.1,2.5,0.1c0.8,0.3,1.5,0.6,2.2,1.1c0.7,0.5,1.2,1,1.7,1.7c0.4,0.6,0.7,1.2,0.8,1.9
		c0.1,0.7,0.1,1.4-0.1,2.1c-0.4,1.5-1.3,2.7-2.6,3.6c-0.6,0.4-1.2,0.6-1.9,0.8c-0.6,0.1-1.3,0.1-2,0c-0.6-0.1-1.2-0.4-1.8-0.8
		c-0.6-0.4-1-0.9-1.3-1.5c-0.3-0.6-0.3-1.2-0.2-1.8l-0.9,1.2l-1.7-1.2l2.8-3.9l1.7,1.3c-0.5,0.6-0.7,1.4-0.7,2.2
		c0.1,0.7,0.5,1.4,1.1,1.8c0.3,0.2,0.6,0.3,0.9,0.4c0.4,0.1,0.8,0.1,1.1,0.1c0.4-0.1,0.8-0.2,1.2-0.4c0.4-0.3,0.8-0.6,1.1-1.1
		c0.3-0.4,0.5-0.9,0.7-1.4c0.1-0.4,0.1-0.9,0-1.3c-0.1-0.4-0.3-0.8-0.5-1.1c-0.2-0.3-0.5-0.6-0.9-0.9c-0.5-0.4-1.1-0.7-1.8-0.9
		c-0.6-0.1-1.1-0.2-1.7-0.1L89.4,209.9z"/>
	<path class="st1" d="M77.8,201.6c0.8-0.7,1.7-1,2.7-0.9c1,0.1,2,0.5,2.7,1.3c0.4,0.4,0.7,0.9,1,1.4c0.2,0.5,0.3,1,0.3,1.5
		c0,0.5-0.1,1-0.3,1.5c-0.2,0.5-0.5,1-0.9,1.4l-3.2,3.2l1.7,1.7l-1.5,1.5l-1.7-1.7l-2.9,3l-1.6-1.6l2.9-3l-3.1-3.1l1.5-1.5l3.1,3.1
		l3.2-3.2c0.4-0.4,0.7-0.9,0.7-1.4c0-0.5-0.2-0.9-0.6-1.3c-0.4-0.4-0.9-0.6-1.4-0.6c-0.5,0.1-1,0.3-1.4,0.6L77.8,201.6z"/>
	<path class="st1" d="M64.8,198.9l1.7,2.3l-2.3,1.7l-1.7-2.3L64.8,198.9z M73.1,190.2l4.1,5.7l-1.7,1.2l-1.4-1.9l-5.1,3.7l1.4,1.9
		l-1.7,1.2l-2.7-3.7l6.7-4.9l-1.4-1.9L73.1,190.2z"/>
	<path class="st1" d="M56.6,181.8l11-1.1l1.2,2.5l-7.7,8L60,189l5.9-5.9l-8.3,1L56.6,181.8z"/>
	<path class="st1" d="M60.1,173.9c0.6-0.3,1.2-0.8,1.4-1.5c0.3-0.8,0.3-1.6,0.1-2.4c-0.2-0.6-0.5-1.2-0.9-1.8
		c-0.3-0.5-0.8-0.8-1.3-1.1l1.3-1.6c0.8,0.4,1.4,1,1.9,1.7c0.5,0.7,0.8,1.5,1,2.3c0.2,0.7,0.3,1.5,0.2,2.3c-0.1,0.7-0.3,1.4-0.6,2
		c-0.3,0.6-0.8,1.2-1.3,1.6c-0.6,0.5-1.3,0.8-2,1c-0.7,0.2-1.5,0.3-2.2,0.2c-0.7-0.1-1.4-0.3-2-0.6c-0.6-0.3-1.1-0.8-1.6-1.4
		c-0.9-1.2-1.4-2.8-1.3-4.3c0.1-0.7,0.3-1.4,0.7-2c0.4-0.6,1-1.2,1.6-1.6c0.8-0.5,1.6-0.9,2.5-1.1L60.1,173.9z M56.4,168.6
		c-0.6,0.3-1.1,0.8-1.3,1.4c-0.2,0.7-0.3,1.4-0.1,2c0.2,0.7,0.6,1.3,1.1,1.8c0.5,0.4,1.2,0.6,1.8,0.6L56.4,168.6z"/>
</g>
</svg>
