<?xml version="1.0" encoding="utf-8"?>
<!-- Generator: Adobe Illustrator 24.1.2, SVG Export Plug-In . SVG Version: 6.00 Build 0)  -->
<svg version="1.1" id="Layer_1" xmlns="http://www.w3.org/2000/svg" xmlns:xlink="http://www.w3.org/1999/xlink" x="0px" y="0px"
	 viewBox="0 0 320 320" style="enable-background:new 0 0 320 320;" xml:space="preserve">
<style type="text/css">
	.st0{fill:none;}
	.st1{fill:#177F5A;}
	.st2{fill:#D5C52A;}
	.st3{fill:#F4B095;}
	.st4{fill:#93D8CA;}
	.st5{fill:#F0FFF9;}
	.st6{fill:url(#SVGID_2_);}
</style>
<pattern  x="-290" y="310" width="280.8" height="266" patternUnits="userSpaceOnUse" id="SVGID_1_" viewBox="70.2 -316 280.8 266" style="overflow:visible;">
	<g>
		<rect x="70.2" y="-316" class="st0" width="280.8" height="266"/>
		<g>
			<rect x="70.2" y="-316" class="st0" width="280.8" height="266"/>
			<rect x="70.2" y="-316" class="st0" width="280.8" height="266"/>
			<path class="st1" d="M415.5-128.8c-0.2,1.3-1.2,2.3-2.4,2.6c-1.8,0.6-3.7,0.6-5.4,0.2c-1.1-0.3-2.1-0.8-2.9-1.5
				c-2-1.8-1.9-3.3-1.5-4.3c-2-1.2-3.9-2.6-4.4-4.9c-2.6,1.1-5.5,1.5-8.2,1l-1.3-0.3c-2.5-0.5-5.5-1.1-8.5-1.9
				c-5-1.3-10.1-3.1-13.3-5.6c-1.5-0.7-3.2-1.4-4.8-1.9c0.1,0.9,0.4,1.8,0.9,2.5c0.6,0.9,1,1.9,1.1,3c0.2,2.1-1.5,4.1-3.4,5.2
				c-1.1,0.5-2.4,0.6-3.6,0.2c-2.2-0.6-4.2-1.8-5.9-3.3c-0.4-0.6-0.3-1.4,0.2-1.9c0.4-0.4,0.9-0.7,1.5-0.8c-0.5-1.5-0.9-3.1-1.1-4.7
				l-1-0.2c-2.5-0.6-6.2-2-6.5-3.8c-0.1-0.9,2.4-5.3,4.7-5.9l0.7-0.2l0.6-0.2c-1.4-1.6-3.2-2.8-5.2-3.7c-0.5-0.1-1.3-0.3-2.3-0.5
				c-2.1-0.3-4.2-0.8-6.2-1.7c-2-1-3.1-3.2-2.6-5.4c0.5-1.7,8.1-3.8,11.9-2.8c1.3,0.3,3,1.7,4.8,3.1c1.1,0.9,2.2,1.7,3.4,2.5
				c-0.3-0.6-0.3-1.3,0-1.8c0.4-0.8,1.4-1.2,3.1-1.3c1.5-0.1,2.5-1.4,4.2-2.4c1.5-1,3.1-1.7,4.8-2.2l0,0c1.4-0.3,3.2-0.8,4.9-1.3
				c2.9-0.9,5.6-1.7,7.1-1.4c2,0.3,4,0.9,5.9,1.7c1.5,0.7,3.2,1.1,4.9,1.2c0.1,0,7-0.1,9.3,1.9c0.8,0.7,1.3,1.2,1.8,1.7
				c1,1.2,2.3,2.1,3.8,2.6c5.1,2,9.4,10.4,9.5,14c0,1.7,1.1,7.1,4.3,9.9c0.1,0.1,0.2,0.3,0.2,0.5s-0.1,0.4-0.2,0.5
				c-2,1.7-4.5,2.7-7.1,2.6c0.4,0.8,0.9,1.6,1.4,2.3c0.3,0.5,0.6,0.9,0.9,1.4C414.5-132.9,415.7-130.2,415.5-128.8z M340-166.7
				c-0.3,0.1-0.5,0.2-0.7,0.5c0.2-0.1,0.4-0.2,0.5-0.1c0.3,0.1,0.5,0.3,0.5,0.6c0.4,0,0.7,0,1.1,0h0.2
				C341.2-166.2,340.6-166.7,340-166.7L340-166.7z M354.2-157.7c1-0.6,1.4-4.4,1.4-4.4c-1.8-0.9-3.5-2-5-3.4
				c-1.6-1.3-3.3-2.6-4.3-2.9c-2.1-0.4-4.3-0.2-6.4,0.4c1.2-0.2,2.1,0.6,2.9,1.3c0.1,0.1,0.2,0.2,0.4,0.3c0.2,0.2,0.3,0.4,0.2,0.6
				c-0.2,0.6-0.7,1-1.3,1.1c-0.9,0.2-1.8,0.2-2.6-0.1c-0.4-0.1-0.8-0.3-1.1-0.5c-0.3-0.3-0.4-0.8-0.3-1.3c0.3-0.7,0.8-1.2,1.5-1.4
				c-1.3,0.2-2.5,0.8-3.6,1.5c-0.2,1,0,2.1,0.7,2.8c0.7-0.3,1.6-0.4,2.4-0.3c0.2,0,0.5,0.1,0.7,0.2l0.5,0.1c0.7,0.2,1.5,0.1,2.1-0.1
				c0.3-0.1,0.7,0,0.8,0.3s0,0.7-0.3,0.8c0,0,0,0-0.1,0c-0.9,0.3-1.9,0.4-2.9,0.2l-0.5-0.1c-0.2-0.1-0.4-0.1-0.6-0.2
				c-0.3-0.1-0.7-0.1-1,0l0.1,0.1c1.9,0.8,3.8,1.3,5.8,1.5c1,0.2,3.2-1.3,3.7-1.2C350.1-161.3,351.8-156.3,354.2-157.7L354.2-157.7z
				 M351-148.7c1.6-0.9,1-5.8,1-5.8c-0.3,0.1-0.9,0.2-1.2,0.3l-0.7,0.2c-1.6,0.4-3.6,3.8-3.8,4.5C346.4-148.5,348.3-147.1,351-148.7
				L351-148.7z M371.6-144.4c-1.2-0.8-2.4-1.5-3.7-2.1c-2.7-1.4-6-3-8.2-5.7l0,0c-1.9-0.7-4.5-1.1-5.5,0.7c-1.8,3,0,9.6,0.9,11.5
				c0.1,0.2,0,0.5-0.1,0.7c-0.2,0.2-0.5,0.2-0.7,0.1c-0.4-0.1-0.9,0-1.2,0.3c-0.1,0.1-0.1,0.3,0,0.4c0.5,0.6,5.5,3.9,7.8,2.7
				c1.4-0.8,2.9-2.4,2.7-3.9c-0.2-0.9-0.5-1.8-1-2.6c-0.8-1.2-1.2-2.6-1-4c0.1-0.3,0.3-0.5,0.7-0.5c1.7,0.3,3.4,0.8,5,1.6
				c0.7,0.3,1.3,0.6,1.9,0.7C369.8-144.4,370.7-144.4,371.6-144.4L371.6-144.4z M402-139.4c2.3-1.1,4.7-2,7.1-2.6
				c0.9-0.2,2.1-0.4,2.7,0.3s3.8,1.9,5.3,0.7c-3.3-3.4-4.1-9-4.2-10.3c-0.1-3.4-4.2-11.1-8.6-12.9c-1.6-0.6-3.1-1.6-4.2-2.9
				c-0.5-0.5-1.1-1-1.8-1.7c-1.6-1.4-6.8-1.6-8.4-1.6c-1.9,0-3.7-0.4-5.4-1.2c-1.8-0.8-3.7-1.3-5.6-1.6c-1.2-0.2-4,0.6-6.6,1.4
				c-1.7,0.5-3.5,1.1-5,1.3c-1.5,0.4-3,1.1-4.4,2c-1.9,1.1-3,2.4-4.8,2.6c-1.6,0.1-2,0.5-2.1,0.6c-0.2,0.4,0.3,1.5,0.8,2.5
				c0.7,1.3,1.3,2.7,1.5,4.2c1,6.2,5.9,8.7,10.1,10.8c2.2,1.1,3.7,2.6,5.2,3.4c2,1,12.2,1.1,17.2,2.4
				C395-140.8,398.2-137.8,402-139.4L402-139.4z M414.2-128.9c0.1-0.9-0.8-3.2-1.6-4.7c-0.2-0.4-0.5-0.8-0.9-1.3
				c-0.8-1.1-1.5-2.3-1.9-3.5v-0.1v-0.1c0-0.1,0-0.2,0.1-0.3l0,0l0.2-0.3c0.3-0.5,0.6-1,0.7-1.6c-0.5,0-0.9,0-1.4,0.2
				c-2.4,0.7-4.7,1.5-6.9,2.6c-0.8,0.4-1.6,0.7-2.5,1.1c0.4,1.9,2,3.3,4.4,4.6c0.2,0.1,0.3,0.2,0.3,0.4s0,0.4-0.1,0.5
				c-0.5,0.6-0.9,1.6,0.9,3.2c2,1.5,4.7,1.9,7.1,1.1C413.3-127.6,414.1-128,414.2-128.9z"/>
			<path class="st2" d="M343.1-110.4c0,0.1-0.1,0.3-0.3,0.4c-0.8,0.4-1.7,0.7-2.6,0.7c-3.4,0-7.2-2.9-10.7-5.5c-2.6-1.9-5-3.8-6.7-4
				c-1.4-0.2-2.8-0.6-4.1-1c-0.7,1.1-1.8,1.9-3,2.3c-0.3,0.1-0.6,0-0.7-0.2c-0.2-0.2-0.2-0.5,0-0.8c0.3-0.7,0.5-1.5,0.6-2.3l-2-0.7
				l-0.7-0.2c-0.7,0.9-1.5,1.7-2.5,2.3c-0.1,0.1-0.3,0.2-0.4,0.3c-0.1,0.1-0.1,0.3-0.1,0.5c-0.2,1.3-0.3,2.6-0.2,3.9
				c0,0.3-0.1,0.5-0.4,0.6c-0.1,0-0.2,0.1-0.2,0.1c-0.2,0-0.4-0.1-0.5-0.2c-1.4-1.3-2-3.3-1.7-5.2c-0.7,0.1-1.4,0-1.9-0.4l-0.4-0.3
				c-0.1-0.1-0.3-0.2-0.5-0.3c0,0,0,0.1-0.1,0.4l-0.9,3.6c-0.1,0.2-0.2,0.4-0.5,0.5c-0.1,0-0.1,0-0.2,0c-0.2,0-0.3-0.1-0.4-0.2
				c-1.3-1.2-1.8-3.1-1.1-4.8l-0.4-0.5c-0.1-0.1-0.2-0.3-0.3-0.3c-0.1,0-0.3,0-0.4,0.2c-0.2,0.3-0.3,0.5-0.4,0.9
				c-0.2,0.7-0.4,1.4-0.6,2.1c-0.1,0.3-0.3,0.4-0.5,0.5h-0.1c-0.2,0-0.5-0.1-0.6-0.3c-0.7-1.3-0.6-2.8,0.1-4.1
				c0.3-0.5,0.6-0.9,1-1.2c0.9-0.7,1.9-1.1,3-1.1c-0.1-0.2-0.3-0.4-0.4-0.7c-0.1-0.2-0.4-0.7-0.6-1.1l-2-2.9
				c-3.8-5.4-7.7-10.9-10-17.1c-2-5.6-4-14.2-1.3-22.8c0.2-0.8,0.5-1.6,0.9-2.4c-1.5-1.6-1.1-7-0.9-8.5c0-0.2,0.2-0.4,0.3-0.5
				c0.2-0.1,0.4-0.1,0.6,0c5.4,2.6,5.5,2.7,5.7,2.9c0.1,0.2,0.3,0.4,0.3,0.6c0.8-0.3,1.6-0.5,2.4-0.6c2.3-0.5,4.6-0.5,6.9,0
				c0-0.1,0-0.1,0-0.2c0.2-1,0.4-1.7,0.5-2.1c0.4-1.3,1.5-1.8,2.8-2.4l0.8-0.4c0.2-0.1,0.3-0.1,0.5,0s0.3,0.2,0.4,0.3l0.2,0.4
				c0.9,1.5,1.4,3.1,1.5,4.8c0,1.5-0.6,2.8-1.6,3.9c0.7,1.1,1.4,2.3,2,3.5c1.6,3.3,3.2,6.4,5.7,8.3c1.1,0.8,2.2,1.4,3.5,1.9
				c0.7,0.3,1.5,0.6,2.2,1c3.8,2.2,7,5.5,9,9.4c3.3,6.6,5.6,13.6,6.8,20.9c0.5,2.9,1.1,5.8,2,8.6c0.3,0.9,0.7,1.7,1.1,2.5
				C342.3-115,343.7-112.1,343.1-110.4z M307.9-172.8c-0.1,0.1-0.3,0.2-0.5,0.4c1.1,1.2,1.4,2.8,1.6,4.9c0.2,1.9,0,3.9-0.5,5.8
				c1.9-0.4,3.8-0.5,5.7-0.5c-1.9-2.2-3.4-4.7-4.6-7.4C309.1-170.7,308.5-171.7,307.9-172.8z M294.7-175.8v0.2
				c0,0.8,0.2,1.7,0.6,2.4v0.1c1.6,0.7,3.1,2.9,4.3,5.2v-0.1c0.7-2.4,1.6-5.2,3.1-6.1c0.3-0.9,0.5-1.8,0.7-2.6
				c-2.1-0.4-4.3-0.4-6.4,0c-0.8,0.1-1.6,0.4-2.4,0.7L294.7-175.8z M301.6-168.2c0-0.1,0-0.3,0.1-0.4c-0.2,0-0.3,0.1-0.5,0.1
				c-0.1,0.3-0.2,0.7-0.3,1c0,0.1,0,0.1,0,0.2c0.2,0.8,0.9,1.3,1.7,1.4c1.4,0.2,2.8-0.8,3-2.3c0-0.1,0-0.2,0-0.2
				c-0.2,0-1.4,0-1.7-0.1l-0.4-0.1c0,0.1,0.1,0.2,0.1,0.4c0,0.6-0.4,1-1,1C302-167.2,301.5-167.6,301.6-168.2L301.6-168.2z
				 M295.8-168c0-0.1,0-0.2,0.1-0.4c-0.8,0-1.6,0.1-2.4,0.1c-0.1,0.8,0.2,1.7,0.8,2.3c0.7,0.3,1.5,0.4,2.3,0.2
				c1.4-0.3,1.8-1.1,1.9-1.3c-0.2-0.4-0.4-0.7-0.6-1.1l-0.2-0.1c0,0.1,0,0.1,0,0.2c0,0.6-0.4,1-1,1C296.2-167,295.8-167.5,295.8-168
				L295.8-168z M288-154.8c1.2-1.7,3.1-4.4,3.1-5.8c-0.1-1.1-0.4-2.1-0.9-3c-0.6-1.1-0.9-2.3-1-3.5c0.1-1,0.4-2.1,1-2.9
				c-0.3-0.3-0.6-0.6-0.9-0.8c-0.3,0.6-0.5,1.3-0.7,1.9C287.4-164.3,287.2-159.4,288-154.8L288-154.8z M301.9-127.3
				c0.3,0.4,0.5,0.8,0.7,1.1c0.3,0.5,0.6,0.9,0.9,1.4c0.6,0.1,1.1,0.2,1.7,0.3c0.1,0,0.1,0.1,0.2,0.1c1.2-0.4,2.4-0.6,3.7-0.6
				c0.2-0.3,0.5-0.6,0.9-0.9c0.7-0.4,1.5-0.5,2.3-0.4c0-0.1,1.3-1.1,2-1.6s1.4-1.1,1.9-1.4c-5.7-5.1-11.4-10.7-13-14
				c-1.4-2.9-2.8-10.8-1-15c0.5-1.3,1.5-2.3,2.9-2.7c0.6-0.2,1.3-0.4,2.1-0.6c0.6-1.9,0.8-3.9,0.6-5.9c-0.4-3.5-0.9-4.7-3.7-5.4
				c-0.9-0.2-1.7,1.2-2.3,2.9c0.8,0,1.6,0,2.3,0.2c0.4,0.1,1.8,0.1,2.2,0.1c0.2,0,0.3,0.1,0.5,0.2c0.1,0.1,0.2,0.3,0.2,0.5
				c0,2.4-1.9,4.3-4.2,4.4h-0.1c-0.3,0-0.5,0-0.8-0.1c0.1,0.4,0.1,0.8,0.1,1.1c-0.1,1.2-0.5,2.3-1,3.4c-0.1,0.2-0.3,0.4-0.6,0.4l0,0
				c-0.3,0-0.5-0.2-0.6-0.4c-0.3-0.8-0.5-1.6-0.7-2.4c-0.2-0.6-0.3-1.2-0.3-1.8l0,0c0-0.2,0-0.5,0.1-0.7c-0.5,0.4-1.1,0.6-1.7,0.7
				c-0.2,0.1-0.5,0.1-0.7,0.1c-0.9,0-1.8-0.2-2.7-0.6c-1-1-1.4-2.3-1.3-3.7c0-0.3,0.2-0.6,0.4-0.7c1.4-0.4,2.9-0.5,4.4-0.3
				c-0.5-1-1.4-1.8-2.4-2.2c-0.6,0-1.2,0.2-1.6,0.6c-0.5,0.4-0.9,0.9-1.3,1.4l-0.2,0.2c-0.6,0.8-0.9,1.7-1,2.6c0.1,1,0.4,2,0.9,2.9
				c0.6,1.1,1,2.4,1,3.6c-0.2,2.3-3.6,6.7-4.1,7.4c0.4,2.1,1,4.1,1.7,6.1c2.2,5.9,6,11.4,9.8,16.8L301.9-127.3z M301.7-122.1
				c0.1-0.1,0.2-0.2,0.3-0.4c0.5-0.4,1-0.8,1.5-1.1c-1.3-0.2-2.6,0-3.7,0.6c0.3-0.1,0.7-0.1,1,0.1s0.6,0.4,0.8,0.7L301.7-122.1z
				 M307.8-121.4c0.1-0.3,0.2-0.7,0.2-1.1c0-0.2,0.1-0.5,0.1-0.7s0.1-0.4,0.2-0.5c-2,0.1-3.9,0.9-5.4,2.2c-0.2,0.1-0.3,0.3-0.5,0.5
				c-0.1,0.1-0.1,0.2-0.2,0.2c-0.1,0.2-0.2,0.3-0.2,0.5c-0.2,0.7-0.2,1.5,0.2,2.1l0.6-2.2c0.1-0.5,0.4-1,0.8-1.2
				c0.6-0.2,1.3,0,1.8,0.5l0.3,0.2c0.4,0.2,0.9,0.3,1.3,0.1c0.2-0.1,0.4-0.1,0.6-0.2C307.7-121,307.8-121.2,307.8-121.4L307.8-121.4
				z M312.5-123.4c0.2-0.5,0.6-0.9,1.1-1.1c-0.4,0-0.8-0.1-1.2-0.2h-0.2c-0.3-0.1-0.6-0.1-0.9-0.1s-0.5,0.1-0.8,0.2l0,0
				c-0.1,0.1-0.3,0.2-0.4,0.3c-0.2,0.2-0.4,0.5-0.5,0.7c-0.1,0.3-0.2,0.5-0.3,0.8c0,0.2-0.1,0.4-0.1,0.6s-0.1,0.6-0.2,0.9
				c0,0.2-0.1,0.4-0.2,0.5c-0.1,0.3-0.3,0.5-0.4,0.7c0,0.1-0.1,0.1-0.1,0.2s-0.1,0.1-0.1,0.2c-0.4,0.9-0.4,2,0,2.9
				c0.1-0.7,0.1-1.4,0.2-2c0-0.4,0.2-0.7,0.4-1c0.2-0.2,0.4-0.4,0.7-0.6C310.9-121.1,311.9-122.2,312.5-123.4L312.5-123.4z
				 M314.1-122.6l1.6,0.5c0-0.2,0-0.4-0.1-0.5c0-0.2-0.2-0.5-0.4-0.6c-0.4-0.1-0.9-0.1-1.3-0.1c-0.1,0.1-0.2,0.3-0.3,0.5l0,0
				L314.1-122.6z M316.8-119.6c0.6-0.6,1.1-1.2,1.5-2c0.3-0.9,0.3-1.9,0-2.8c-0.4-0.9-0.5-1.2-1.1-1.2c-0.4,0.1-0.8,0.3-1.2,0.5
				c-0.3,0.2-0.7,0.3-1.1,0.4l-0.4,0.1h0.1c0.5,0,0.9,0,1.4,0.2c0.6,0.3,1,0.9,1.1,1.5C317.1-121.8,317-120.7,316.8-119.6
				L316.8-119.6z"/>
			<path class="st3" d="M351.2-70.8c-1.1,5.6-7.3,6.8-12.6,5.4h-0.2l-0.5,0.7c-1.3,1.8-3.8,5.3-4.7,8.8c-0.6,2.6-2.7,4.5-6.3,5.9
				c-0.1,0-0.2,0-0.2,0c-0.2,0-0.4-0.1-0.5-0.3c-0.2-0.3-0.2-0.6-0.1-0.9c0.5-1.4,0.6-2.9,0.3-4.3c-0.1-0.4-0.1-0.8-0.1-1.2
				c0.1-1,0.5-2,1.1-2.9l0,0c-0.8,0.2-1.7,0.4-2.6,0.6c-2.7,0.5-5.3,1.3-7.9,2.3c-0.1,0-0.2,0.1-0.2,0c-0.3,0-0.6-0.2-0.7-0.6
				s0-0.9,0.4-1.1c0.9-0.5,1.7-1.4,2.1-2.4c0.6-1.3,1.7-2.4,3-3c1.2-0.5,3-2.5,4.7-4.6c-1.8,0.7-3.6,1.7-5.2,2.8
				c-3.3,2.1-11.2,3-14.6,2.1c-0.9-0.1-1.6-0.6-2-1.4c-0.2-0.9,0-1.8,0.6-2.5c0.2-0.4,0.4-0.8,0.6-1.3l-0.9,0.4
				c-3,1.4-5.2,2.4-8.9,1.5l-1-0.2c-3.5-0.8-4.8-1.2-5.2-2.1c-0.1-0.3-0.1-0.7,0-1c0.2-0.6,1-2.3,8.7-5.1l0.2-0.1
				c3.3-1.5,4.8-3.6,7-6.7c-4,1.4-10.2,1.8-15.5,2.1c-3.6,0.2-6.8,0.4-8,0.9c-0.4,0.1-0.8-0.1-0.9-0.5c-0.2-0.4-0.1-0.8,0.2-1.1
				c2.3-2.3,4.5-4.8,6.4-7.4c3.3-4.1,6.6-8.3,9.2-10c3.2-2.1,9.7-3.9,13.6-2c1.5,0.7,2.5,2,2.9,3.6c0.5,1.9,2.7,4.3,6.1,6.8
				c-0.4-2.4-1.1-4.2-2.6-5.1c-0.9-0.5-2.9-4.1-4.1-5.5c-1.2-1.6-3-2.7-5-2.7c-0.3-0.1-0.6-0.3-0.6-0.6c-0.1-0.3,0-0.7,0.3-0.9
				c0.7-0.6,1.3-1.3,1.8-2s1-1.5,2-1.3c3.8,0.8,6.1,1.3,9.8,3.5c2.5,1.5,4.6,3.6,6.3,6.1c0.4,0.5,0.7,1,1.2,1.5
				c2,1.8,3.9,4.2,2.5,8.5c-0.3,0.9-0.7,1.8-1.1,2.6c-0.3,0.5-0.5,1.1-0.6,1.6c2.7,2.8,8.2,4.1,11.2,4.9c0.8,0.2,1.4,0.4,1.8,0.5
				c3.1,1.1,5.1,3.2,7,5.1c0.6,0.6,1.2,1.3,1.8,1.8C351.2-71.5,351.3-71.1,351.2-70.8z M321.2-88c2.1,1.4,4.3,2.8,6.5,4
				c0.1-0.9,0.4-1.7,0.8-2.5s0.7-1.6,1-2.4c0.9-2.6,0.3-4.3-2-6.4c-0.5-0.5-1-1.1-1.4-1.7c-1.5-2.3-3.5-4.2-5.8-5.6
				c-3.5-2.1-5.7-2.6-9.4-3.3c-0.1,0-0.2,0-0.6,0.7c-0.3,0.4-0.6,0.8-0.9,1.2c1.9,0.9,2.8,0.8,4.4,2.8c1.1,1.3,3.1,4.8,3.7,5.2
				C320-94.6,320.7-91.5,321.2-88L321.2-88z M307.3-85c0,0,0-0.9,0-3.3c0.2-3.3,1.7-6.4,4.1-8.7c-0.4-0.5-0.9-1-1.5-1.3
				c-3.2-1.6-9.1-0.3-12.4,1.9c-2.4,1.6-5.7,5.7-8.9,9.7c-1.6,2-3.2,4-4.6,5.6c1.5-0.2,3.4-0.3,5.6-0.4
				C296.1-82,304.9-82.6,307.3-85L307.3-85z M326.1-70c-4.7-2.1-15-7.5-18-13.4c-0.6,0.8-1.1,1.6-1.6,2.3c-2.3,3.4-4,5.9-7.8,7.6
				l-0.3,0.1c-4.9,1.8-6.8,3-7.4,3.7c1.2,0.4,2.5,0.7,3.8,1l1,0.2c3.4,0.8,5.3-0.1,8.1-1.4c0.7-0.3,1.5-0.7,2.4-1.1
				c0.3-0.1,0.5,0,0.7,0.2s0.3,0.5,0.2,0.9c-0.3,1.2-0.7,2.4-1.3,3.5c-0.2,0.3-0.3,0.6-0.4,0.9c0.3,0.2,0.6,0.3,1,0.4
				c3.4,0.9,10.8-0.2,13.6-1.9C322.1-68.3,324.1-69.3,326.1-70z M336.1-65c-1.3,0.6-2.4,1.4-3.5,2.3c-0.7,0.5-1.5,1.1-2.4,1.7
				l-0.2,0.1l0,0c-1.1,1.4-2.3,3.4-2.3,4.1c0,0.2,0,0.5,0.1,0.9c0.2,1.2,0.2,2.3,0,3.5c2.3-1.1,3.6-2.5,4-4.1
				C332.7-59.6,334.2-62.5,336.1-65L336.1-65z M338.1-65.4L338.1-65.4z M338.3-67.2c-0.4-1-1.1-1.9-2.1-1.9s-1.7-3.4-3-3.2
				c-1.9,0.3-5.9,5-5.9,5c-2,2.4-3.9,4.6-5.5,5.2c-1,0.4-1.9,1.3-2.3,2.3l-0.2,0.3c1.9-0.6,3.6-1,5-1.3c1.8-0.2,3.5-0.8,5.1-1.8
				c0.9-0.7,1.7-1.2,2.4-1.7C334.8-66.4,335.9-67.2,338.3-67.2L338.3-67.2z M346.8-72.9c-0.1,0.5-0.6,0.9-1.1,0.9
				c-0.6,0-1.1-0.5-1.1-1.1l0,0c0-0.2,0.1-0.4,0.2-0.6c-0.8,0.2-1.3,0.9-1.1,1.7c0,0.2,0.1,0.4,0.2,0.5c0.6,0.8,1.7,1.1,2.6,0.5
				c0.1-0.1,0.2-0.2,0.3-0.3C347.1-71.8,347.1-72.4,346.8-72.9L346.8-72.9z"/>
			<path class="st1" d="M275.1-62.3c-0.2,1.3-1.2,2.3-2.4,2.6c-1.8,0.6-3.7,0.6-5.5,0.2c-1.1-0.3-2.1-0.8-2.9-1.5
				c-2-1.8-1.9-3.3-1.5-4.3c-2-1.2-3.9-2.6-4.4-4.9c-2.6,1.1-5.5,1.5-8.2,1l-1.3-0.3c-2.5-0.5-5.5-1.1-8.5-1.9
				c-5-1.3-10.1-3.1-13.3-5.6c-1.5-0.7-3.1-1.4-4.8-1.9c0.1,0.9,0.4,1.8,0.9,2.5c0.6,0.9,1,1.9,1.1,3c0.3,2.1-1.5,4.1-3.4,5.2
				c-1.1,0.5-2.4,0.6-3.6,0.2c-2.2-0.6-4.2-1.8-5.9-3.3c-0.4-0.6-0.3-1.4,0.2-1.9c0.4-0.4,0.9-0.7,1.5-0.8c-0.5-1.5-0.9-3.1-1.1-4.7
				l-1-0.2c-2.5-0.6-6.2-2-6.5-3.8c-0.1-0.9,2.4-5.3,4.7-5.9l0.7-0.2l0.6-0.2c-1.4-1.6-3.2-2.8-5.2-3.7c-0.5-0.1-1.3-0.3-2.3-0.5
				c-2.1-0.3-4.2-0.8-6.2-1.7c-2-1-3.1-3.2-2.6-5.4c0.4-1.7,8.1-3.8,11.9-2.8c1.3,0.3,3,1.7,4.8,3.1c1.1,0.9,2.2,1.7,3.4,2.5
				c-0.3-0.6-0.3-1.3,0-1.8c0.4-0.8,1.4-1.2,3.1-1.3c1.5-0.1,2.5-1.4,4.2-2.4c1.5-1,3.1-1.7,4.8-2.2l0,0c1.4-0.3,3.2-0.8,4.9-1.3
				c2.9-0.9,5.6-1.7,7.1-1.5c2,0.3,4,0.9,5.9,1.7c1.5,0.7,3.2,1.1,4.9,1.2c0.1,0,7-0.1,9.3,1.9c0.8,0.7,1.3,1.2,1.8,1.7
				c1,1.2,2.3,2.1,3.8,2.6c5.1,2,9.4,10.4,9.4,14c0,1.7,1.1,7.1,4.3,9.9c0.1,0.1,0.2,0.3,0.2,0.5s-0.1,0.4-0.2,0.5
				c-2,1.7-4.5,2.7-7.1,2.6c0.4,0.8,0.9,1.6,1.4,2.3c0.3,0.5,0.6,0.9,0.9,1.4C274.1-66.4,275.2-63.7,275.1-62.3z M199.6-100.2
				c-0.3,0.1-0.5,0.2-0.7,0.5c0.2-0.1,0.4-0.2,0.5-0.1c0.3,0.1,0.5,0.3,0.5,0.6c0.4,0,0.7,0,1.1,0h0.2
				C200.7-99.7,200.2-100.2,199.6-100.2L199.6-100.2z M213.8-91.2c1-0.6,1.4-4.4,1.4-4.4c-1.8-0.9-3.5-2-5-3.4
				c-1.6-1.3-3.3-2.6-4.3-2.9c-2.1-0.4-4.3-0.2-6.4,0.4c1.2-0.2,2.1,0.6,2.9,1.3c0.1,0.1,0.2,0.2,0.4,0.3c0.2,0.2,0.3,0.4,0.2,0.6
				c-0.2,0.6-0.7,1-1.3,1.1c-0.9,0.2-1.8,0.2-2.6-0.1c-0.4-0.1-0.8-0.3-1.1-0.5c-0.3-0.3-0.4-0.8-0.3-1.3c0.3-0.7,0.8-1.2,1.5-1.4
				c-1.3,0.2-2.5,0.8-3.6,1.5c-0.2,1,0,2.1,0.7,2.8c0.8-0.3,1.6-0.4,2.4-0.3c0.2,0,0.5,0.1,0.7,0.2l0.5,0.1c0.7,0.2,1.5,0.1,2.1-0.1
				c0.3-0.1,0.7,0.1,0.8,0.4s-0.1,0.6-0.4,0.8c-0.9,0.3-1.9,0.4-2.9,0.2L199-96c-0.2-0.1-0.4-0.1-0.6-0.2c-0.3-0.1-0.7-0.1-1,0
				l0.1,0.1c1.9,0.8,3.8,1.3,5.8,1.5c1,0.2,3.2-1.3,3.7-1.2C209.7-94.8,211.4-89.8,213.8-91.2L213.8-91.2z M210.6-82.2
				c1.6-0.9,1-5.8,1-5.8c-0.3,0.1-0.8,0.2-1.2,0.3l-0.7,0.2c-1.6,0.4-3.6,3.8-3.8,4.5C206-82,207.9-80.6,210.6-82.2L210.6-82.2z
				 M231.2-77.9c-1.2-0.8-2.4-1.5-3.7-2.1c-2.7-1.4-6-3-8.2-5.7c-0.1,0,0.1,0,0,0c-1.9-0.7-4.4-1.1-5.5,0.7c-1.8,3,0,9.6,0.9,11.5
				c0.1,0.2,0,0.5-0.1,0.7c-0.2,0.2-0.5,0.2-0.7,0.1c-0.4-0.1-0.9,0-1.2,0.3c-0.1,0.1-0.1,0.3,0,0.4c0.5,0.6,5.5,3.9,7.8,2.7
				c1.4-0.8,2.9-2.4,2.7-3.9c-0.2-0.9-0.5-1.8-1-2.6c-0.8-1.2-1.2-2.6-1-4c0.1-0.3,0.3-0.5,0.7-0.5c1.7,0.3,3.4,0.8,5,1.6
				c0.7,0.3,1.3,0.6,1.9,0.7C229.5-77.9,230.3-77.9,231.2-77.9z M261.6-72.9c2.3-1.1,4.7-2,7.1-2.6c0.9-0.2,2.1-0.4,2.7,0.3
				c0.6,0.8,3.8,1.9,5.3,0.7c-3.3-3.4-4.1-9-4.2-10.3c-0.1-3.4-4.2-11.1-8.6-12.9c-1.6-0.6-3.1-1.6-4.2-2.9c-0.5-0.5-1.1-1-1.8-1.7
				c-1.6-1.4-6.8-1.6-8.4-1.6c-1.9,0-3.8-0.4-5.5-1.2c-1.8-0.8-3.7-1.3-5.6-1.6c-1.2-0.2-3.9,0.6-6.6,1.4c-1.7,0.5-3.5,1-5,1.3
				c-1.5,0.4-3,1.1-4.4,2c-1.9,1.1-3,2.4-4.8,2.6c-1.6,0.1-2,0.5-2.1,0.6c-0.2,0.4,0.3,1.5,0.8,2.5c0.7,1.3,1.3,2.7,1.6,4.2
				c1,6.2,5.9,8.7,10.1,10.8c2.2,1.1,3.7,2.6,5.2,3.4c2,1,12.2,1.1,17.2,2.4C254.6-74.3,257.8-71.3,261.6-72.9L261.6-72.9z
				 M273.8-62.4c0.1-0.9-0.8-3.2-1.6-4.7c-0.2-0.4-0.5-0.8-0.9-1.3c-0.8-1.1-1.5-2.3-1.9-3.5V-72v-0.1c0-0.1,0-0.2,0.1-0.3l0,0
				l0.2-0.3c0.3-0.5,0.6-1,0.7-1.6c-0.5,0-0.9,0-1.4,0.2c-2.4,0.7-4.7,1.5-6.9,2.6c-0.8,0.4-1.7,0.7-2.5,1.1c0.4,1.9,2,3.3,4.4,4.6
				c0.2,0.1,0.3,0.2,0.3,0.4c0,0.2,0,0.4-0.1,0.5c-0.5,0.6-0.9,1.6,0.9,3.2c2,1.5,4.7,1.9,7.1,1.1C273-61,273.6-61.7,273.8-62.4
				L273.8-62.4z"/>
			<path class="st2" d="M202.7-43.9c0,0.1-0.1,0.3-0.3,0.4c-0.8,0.4-1.7,0.7-2.6,0.7c-3.4,0-7.2-2.9-10.7-5.5c-2.6-1.9-5-3.8-6.7-4
				c-1.4-0.2-2.8-0.6-4.1-1c-0.7,1.1-1.7,1.9-2.9,2.3c-0.3,0.1-0.6,0-0.7-0.2c-0.2-0.2-0.2-0.5,0-0.8c0.3-0.7,0.5-1.5,0.6-2.3
				l-2-0.7l-0.7-0.2c-0.7,0.9-1.5,1.7-2.5,2.3c-0.1,0.1-0.3,0.2-0.4,0.3c-0.1,0.1-0.1,0.3-0.1,0.5c-0.2,1.3-0.3,2.6-0.2,4
				c0,0.3-0.1,0.5-0.4,0.6c-0.1,0-0.2,0.1-0.2,0c-0.2,0-0.3-0.1-0.5-0.2c-1.4-1.3-2-3.3-1.7-5.2c-0.7,0.1-1.4,0-1.9-0.4l-0.3-0.3
				c-0.1-0.1-0.3-0.2-0.5-0.3c0,0,0,0.1-0.1,0.4l-0.9,3.6c-0.1,0.2-0.2,0.4-0.4,0.5c-0.1,0-0.1,0-0.2,0c-0.2,0-0.3-0.1-0.4-0.2
				c-1.3-1.2-1.7-3.1-1.1-4.8l-0.4-0.5c-0.1-0.1-0.2-0.3-0.3-0.3s-0.3,0-0.4,0.2c-0.2,0.3-0.3,0.5-0.4,0.9c-0.2,0.7-0.4,1.4-0.6,2.1
				c-0.1,0.3-0.3,0.4-0.6,0.5H158c-0.2,0-0.5-0.1-0.6-0.3c-0.7-1.3-0.6-2.8,0.1-4.1c0.3-0.5,0.6-0.9,1-1.2c0.9-0.7,1.9-1.1,3-1.1
				l-0.4-0.7c-0.2-0.4-0.4-0.7-0.7-1.1l-2-2.9c-3.8-5.4-7.7-10.9-10-17.1c-2-5.6-4-14.2-1.3-22.8c0.2-0.8,0.5-1.6,0.9-2.4
				c-1.5-1.6-1.1-7-0.9-8.5c0-0.2,0.2-0.4,0.3-0.5c0.2-0.1,0.4-0.1,0.6,0c5.4,2.6,5.6,2.7,5.7,2.9c0.1,0.2,0.3,0.4,0.3,0.6
				c0.8-0.3,1.6-0.5,2.4-0.6c2.3-0.5,4.6-0.5,6.9,0c0-0.1,0-0.1,0-0.2c0.2-1,0.4-1.7,0.5-2.1c0.4-1.3,1.5-1.8,2.8-2.4l0.8-0.4
				c0.2-0.1,0.3-0.1,0.5,0s0.3,0.2,0.4,0.3l0.2,0.4c0.9,1.4,1.4,3,1.6,4.7c0,1.5-0.6,2.8-1.7,3.9c0.7,1.1,1.4,2.3,2,3.5
				c1.6,3.3,3.2,6.4,5.7,8.3c1.1,0.8,2.2,1.4,3.5,1.9c0.7,0.3,1.5,0.6,2.2,1c3.8,2.2,7,5.5,9,9.4s3.6,7.9,4.8,12.1
				c0.9,2.9,1.5,5.8,2,8.8c0.5,2.9,1.1,5.8,2,8.6c0.3,0.9,0.7,1.7,1.1,2.5C201.9-48.5,203.3-45.6,202.7-43.9z M167.5-106.3l-0.5,0.4
				c1.1,1.2,1.4,2.8,1.6,4.9c0.2,1.9,0,3.9-0.5,5.8c1.9-0.4,3.8-0.5,5.7-0.5c-1.9-2.2-3.4-4.7-4.6-7.4
				C168.7-104.1,168.1-105.2,167.5-106.3z M154.3-109.3v0.2c0,0.8,0.2,1.7,0.6,2.4v0.1c1.6,0.7,3,2.9,4.3,5.2v-0.1
				c0.7-2.4,1.6-5.2,3.1-6c0.3-0.9,0.5-1.8,0.7-2.6c-2.1-0.4-4.3-0.4-6.4,0C155.8-110,155-109.7,154.3-109.3L154.3-109.3z
				 M161.1-101.7c0-0.1,0-0.2,0.1-0.3c-0.2,0-0.3,0.1-0.4,0.1c-0.1,0.3-0.2,0.7-0.3,1c0,0.1,0,0.1-0.1,0.2c0.2,0.8,0.9,1.3,1.7,1.4
				c1.4,0.2,2.8-0.8,3-2.3c0-0.1,0-0.2,0-0.2c-0.2,0-1.4,0-1.7-0.1H163c0,0.1,0.1,0.2,0.1,0.4c0,0.6-0.4,1-1,1
				C161.6-100.6,161.1-101.1,161.1-101.7L161.1-101.7z M155.4-101.5c0-0.1,0-0.2,0.1-0.4c-0.8,0-1.6,0.1-2.4,0.1
				c-0.1,0.8,0.2,1.7,0.8,2.3c0.7,0.3,1.5,0.4,2.3,0.2c1.4-0.3,1.8-1.1,1.9-1.3c-0.2-0.4-0.4-0.7-0.6-1.1l-0.2-0.1
				c0,0.1,0,0.1,0,0.2c0,0.6-0.4,1-1,1C155.8-100.5,155.4-101,155.4-101.5L155.4-101.5z M147.6-88.2c1.2-1.7,3-4.4,3.1-5.8
				c-0.1-1.1-0.4-2.1-0.9-3c-0.6-1.1-0.9-2.3-1-3.5c0.1-1,0.4-2.1,1-2.9l-0.9-0.8c-0.3,0.6-0.5,1.3-0.7,1.9
				C147-97.7,146.8-92.9,147.6-88.2z M161.4-60.8c0.3,0.4,0.5,0.8,0.8,1.1c0.3,0.5,0.6,0.9,0.9,1.4c0.6,0.1,1.1,0.2,1.7,0.3
				c0.1,0,0.1,0.1,0.2,0.1c1.2-0.4,2.4-0.6,3.7-0.6c0.2-0.3,0.5-0.6,0.9-0.9c0.7-0.4,1.5-0.5,2.3-0.4c0-0.1,1.3-1.1,2-1.6
				s1.4-1.1,1.9-1.4c-5.7-5.1-11.4-10.7-13-14c-1.4-2.9-2.8-10.8-1-15c0.5-1.3,1.5-2.3,2.9-2.7c0.6-0.2,1.3-0.4,2.1-0.5
				c0.6-1.9,0.8-3.9,0.6-5.9c-0.4-3.5-1-4.7-3.7-5.4c-0.9-0.2-1.7,1.2-2.3,2.9c0.8,0,1.6,0,2.3,0.2c0.4,0,1.8,0.1,2.2,0.1
				c0.2,0,0.3,0.1,0.4,0.2c0.1,0.1,0.2,0.3,0.2,0.5c0,2.4-1.9,4.3-4.2,4.4h-0.1c-0.3,0-0.5,0-0.8-0.1c0.1,0.4,0.1,0.8,0.1,1.1
				c-0.1,1.2-0.4,2.3-1,3.4c-0.1,0.2-0.3,0.4-0.6,0.4l0,0c-0.3,0-0.5-0.2-0.6-0.4c-0.3-0.8-0.5-1.6-0.7-2.4
				c-0.2-0.6-0.3-1.2-0.3-1.8l0,0c0-0.2,0-0.5,0.1-0.7c-0.5,0.4-1.1,0.6-1.7,0.7c-0.2,0.1-0.5,0.1-0.7,0.1c-0.9,0-1.8-0.2-2.7-0.6
				c-1-1-1.5-2.3-1.3-3.7c0-0.3,0.2-0.6,0.4-0.7c1.4-0.4,2.9-0.5,4.3-0.3c-0.5-1-1.4-1.8-2.4-2.2c-0.6,0-1.2,0.2-1.6,0.6
				c-0.5,0.4-1,0.9-1.3,1.4l-0.1,0.3c-0.6,0.8-0.9,1.7-1,2.6c0.1,1,0.4,2,0.9,2.9c0.6,1.1,1,2.4,1,3.6c-0.2,2.3-3.6,6.7-4.1,7.4
				c0.4,2.1,1,4.1,1.8,6.1c2.2,5.9,6,11.4,9.8,16.8C160.1-62.7,160.8-61.8,161.4-60.8z M161.3-55.5c0.1-0.1,0.2-0.2,0.3-0.4
				c0.5-0.4,1-0.8,1.5-1.1c-1.3-0.2-2.6,0-3.7,0.6c0.3-0.1,0.7-0.1,1,0.1S161-55.9,161.3-55.5L161.3-55.5z M167.4-54.9
				c0.1-0.3,0.2-0.7,0.2-1.1c0-0.2,0.1-0.5,0.1-0.7s0.1-0.4,0.2-0.5c-2,0.1-3.9,0.9-5.4,2.2c-0.2,0.1-0.3,0.3-0.5,0.5
				c-0.1,0.1-0.1,0.2-0.2,0.2c-0.1,0.2-0.2,0.3-0.2,0.5c-0.2,0.7-0.1,1.4,0.2,2.1l0.6-2.2c0.1-0.5,0.4-1,0.8-1.2
				c0.6-0.2,1.3,0,1.8,0.5l0.3,0.2c0.4,0.2,0.9,0.3,1.3,0.1c0.2-0.1,0.4-0.1,0.6-0.2C167.3-54.6,167.4-54.7,167.4-54.9z M172.1-56.9
				c0.2-0.5,0.6-0.9,1.1-1.1c-0.4,0-0.8-0.1-1.2-0.2h-0.2c-0.3-0.1-0.6-0.1-0.9-0.1c-0.3,0-0.5,0.1-0.8,0.2l0,0
				c-0.1,0.1-0.3,0.2-0.4,0.3c-0.2,0.2-0.4,0.5-0.5,0.7c-0.1,0.3-0.2,0.5-0.3,0.8c0,0.2-0.1,0.4-0.1,0.6c-0.1,0.3-0.1,0.6-0.2,0.9
				c0,0.2-0.1,0.4-0.2,0.5c-0.1,0.3-0.3,0.5-0.4,0.7c0,0.1-0.1,0.1-0.1,0.2s-0.1,0.1-0.1,0.2c-0.4,0.9-0.4,2,0,2.9
				c0-0.7,0.1-1.3,0.2-2c0-0.4,0.2-0.7,0.4-1c0.2-0.2,0.4-0.4,0.7-0.6C170.5-54.6,171.5-55.7,172.1-56.9L172.1-56.9z M173.7-56.2
				l1.7,0.5c0-0.2,0-0.4-0.1-0.5c0-0.2-0.2-0.5-0.4-0.6c-0.4-0.1-0.9-0.1-1.3-0.1c-0.1,0.1-0.2,0.3-0.3,0.5l0,0L173.7-56.2z
				 M176.3-53.1c0.6-0.6,1.1-1.3,1.5-2c0.3-0.9,0.3-1.9,0-2.8c-0.4-0.9-0.5-1.2-1.1-1.2c-0.4,0.1-0.8,0.3-1.2,0.5
				c-0.3,0.2-0.7,0.3-1.1,0.4l-0.4,0.1h0.1c0.5,0,0.9,0.1,1.4,0.2c0.6,0.3,1,0.9,1.1,1.5C176.7-55.3,176.6-54.1,176.3-53.1
				L176.3-53.1z"/>
			<path class="st4" d="M280.8-19.3c-0.1,0.5-0.5,0.8-1,0.7l0,0c-3.3-0.4-9.5-2.9-12.1-4.3c-2.1-1.1-4.1-2.1-5.9-3
				c5.2,3.9,9.3,9,11.8,15c0.2,0.4,0,0.9-0.5,1.1c-0.3,0.1-0.7,0-1-0.2c-4.2-5.1-9.1-10.6-15.1-14.5c4.2,3.9,7.8,8.5,10.5,13.5
				c0.2,0.4,0,0.9-0.4,1.1c-0.3,0.2-0.8,0.1-1-0.2c-3-3.5-6.2-6.7-9.6-9.8c2,4.9,2.8,10.1,2.5,15.4c0,0.4-0.3,0.7-0.7,0.8
				c-0.4,0.1-0.8-0.1-0.9-0.4c-1.4-2.8-2.4-5.7-3-8.8c-0.4-2-1-4-1.7-6c0.7,6.7-1.4,13.4-5.7,18.6c-0.2,0.2-0.5,0.3-0.8,0.3
				c-0.1,0-0.1,0-0.2-0.1c-0.3-0.2-0.5-0.5-0.5-0.9c0.5-2.7,1.1-5.4,1.9-8c0.2-0.7,0.4-1.4,0.6-2c-1,0.5-2,0.9-3.1,1.1
				c-4,0.9-8.1,0.9-12.1,0c-1.8-0.4-3.6-1-5.4-1.7c-10.2-4.4-15.8-13.5-14.6-23.6c1-8.7,4.1-12.8,7.2-15.9c4-4,9-6.2,13.8-6
				c5.6,0.1,10.7,3.2,13.4,8.1c0.3-0.4,0.8-0.5,1.3-0.5c1.6,0.1,3.1,2.2,5.4,5.6c0.7,1.2,1.5,2.3,2.4,3.4c1.7,1.6,3.6,3.1,5.7,4.3
				c1.1,0.7,2.2,1.4,3.3,2.2c2.1,1.6,3.1,3.1,3.6,7.1c0,0.1,0,0.3-0.1,0.4c2,1.1,4.1,2.2,6.2,3.4c2.5,1.4,4.8,2.6,5.2,2.8
				c0.5,0,0.8,0.4,0.8,0.9C280.8-19.4,280.8-19.3,280.8-19.3z M240.3-35.3c-0.2,0-0.4,0-0.7-0.1c-2.4-0.5-2.5-2.5-2.3-3.9
				c-1.3,0-1.8,0.4-2,1.1c-0.7,2,0.2,3,2,4.7c1.3,1,2.3,2.4,3,3.9c1,2.5,2.5,2.9,4.3,3.4c0.6,0.2,1.2,0.4,1.8,0.6
				c-0.4-1-0.4-2-0.1-3c-0.9,0.4-2,0.5-3,0.3l-0.7-0.2c-1.8-0.7-3.1-2.4-3-4.4C239.7-33.7,239.9-34.6,240.3-35.3L240.3-35.3z
				 M244.8-32.9c-0.4,0.8-0.5,1.8-0.3,2.7c0,0.1,0.1,0.2,0.1,0.3c0.4,0,0.8-0.1,1.2-0.3c0.6-0.3,1.1-0.9,1.3-1.5
				c0.2-0.9-0.1-1.9-0.8-2.6c-0.5-0.5-1.1-0.8-1.8-1c-0.5-0.1-1-0.1-1.5,0l0,0c-1,0.3-1.7,1.3-1.7,2.4c0,1,0.5,2,1.4,2.6
				c-0.1-1.1,0.1-2.2,0.5-3.2c0.1-0.4,0.6-0.7,1.1-0.5S245-33.4,244.8-32.9C244.8-33,244.8-33,244.8-32.9L244.8-32.9z M250-33.9
				c1.1-0.3,3.2,0.2,5.9,1.3c-2.2-1.3-4.5-2.3-6.9-3.1c-0.6-0.1-1.3-0.2-1.9-0.2c0.1,0.1,0.3,0.2,0.4,0.4c0.7,0.7,1.2,1.6,1.3,2.5
				C249.1-33.4,249.5-33.7,250-33.9L250-33.9z M242.4-43.4l-0.6,0.3l-2.3,2c-0.1,0.4-0.2,0.8-0.3,1.2v0.1c-0.4,1.9-0.2,2.6,0.9,2.8
				c1.2,0.2,2.4,0.2,3.6-0.2c1.9-0.5,3.8-0.5,5.7-0.1c3.3,0.7,9.1,4.2,13.8,7c1.4,0.8,2.7,1.6,3.7,2.1c-0.3-1.8-1.2-3.3-2.7-4.3
				c-1-0.8-2-1.5-3.1-2.1c-2.2-1.3-4.2-2.8-6-4.5c-1-1.1-1.9-2.3-2.6-3.6c-1.1-1.6-3.3-5-4.1-4.9c-0.3,0.3-0.6,0.6-0.9,0.9l0,0
				C245.9-45.5,244.2-44.3,242.4-43.4L242.4-43.4z M248.6-13.4c0.2-3.2-0.1-6.4-1.1-9.4c-0.9-1-2-1.7-3.3-1.8
				c-2-0.5-4.2-1.2-5.5-4.4c-0.6-1.3-1.5-2.4-2.6-3.2c-1.7-1.6-3.6-3.4-2.4-6.5c0.7-2,2.7-2.2,3.9-2.2V-41c0-0.1,0-0.1,0.1-0.2
				c0-0.1,0.1-0.2,0.1-0.3c0-0.1,0-0.1,0.1-0.1c0.1-0.3,0.3-0.6,0.4-0.8l0.1-0.1c0.1-0.1,0.1-0.2,0.2-0.3l0.1-0.1
				c0.1-0.1,0.2-0.2,0.3-0.3l0.1-0.1c0.2-0.1,0.3-0.3,0.5-0.4c0.6-0.4,1.2-0.7,1.9-1.1c0.4-0.2,0.7-0.4,1.1-0.6l0.3-0.2l0.8-0.5
				c0.1-0.1,0.3-0.2,0.4-0.3s0.5-0.3,0.7-0.5l0.5-0.4l0.4-0.4c-1.9-3.8-5.4-6.4-9.5-7.2c-0.9-0.2-1.8-0.3-2.8-0.4
				c-4.3-0.2-8.8,1.8-12.5,5.5c-3.3,3.4-5.7,7.2-6.7,15c-1.1,9.5,3.9,17.7,13.6,21.8c5.2,2.3,11,2.8,16.5,1.6
				C246.1-11.6,247.5-12.3,248.6-13.4L248.6-13.4z"/>
			<path class="st1" d="M134.7-128.8c-0.2,1.3-1.2,2.3-2.4,2.6c-1.8,0.6-3.7,0.6-5.4,0.2c-1.1-0.3-2.1-0.8-2.9-1.5
				c-2-1.8-1.9-3.3-1.5-4.3c-2-1.2-3.9-2.6-4.4-4.9c-2.6,1.1-5.5,1.5-8.2,1l-1.3-0.3c-2.5-0.5-5.5-1.1-8.5-1.9
				c-5-1.3-10.1-3.1-13.3-5.6c-1.5-0.7-3.1-1.4-4.8-1.9c0.1,0.9,0.4,1.8,0.9,2.5c0.6,0.9,1,1.9,1.2,3c0.2,2.1-1.5,4.1-3.4,5.2
				c-1.1,0.5-2.4,0.6-3.6,0.2c-2.2-0.6-4.2-1.8-5.9-3.3c-0.4-0.6-0.3-1.4,0.2-1.9c0.4-0.4,0.9-0.7,1.5-0.8c-0.5-1.5-0.9-3.1-1.1-4.7
				l-0.9-0.2c-2.5-0.6-6.2-2-6.5-3.8c-0.1-0.9,2.4-5.3,4.7-5.9l0.7-0.2l0.6-0.2c-1.7-1.7-3.7-3.2-5.2-3.7c-0.5-0.1-1.3-0.3-2.3-0.5
				c-2.1-0.3-4.2-0.8-6.2-1.7c-2-1-3.1-3.2-2.6-5.4c0.5-1.7,8.1-3.8,11.9-2.8c1.3,0.3,3,1.7,4.8,3.1c1.1,0.9,2.2,1.7,3.4,2.5
				c-0.3-0.6-0.2-1.3,0-1.8c0.4-0.8,1.4-1.2,3.1-1.3c1.5-0.1,2.5-1.4,4.2-2.4c1.5-1,3.1-1.7,4.8-2.2l0,0c1.4-0.3,3.2-0.8,4.9-1.3
				c2.9-0.9,5.6-1.7,7.1-1.4c2,0.3,4,0.9,5.9,1.7c1.5,0.7,3.2,1.1,4.9,1.2c0.1,0,7-0.1,9.3,1.9c0.8,0.7,1.3,1.2,1.8,1.7
				c1,1.2,2.3,2.1,3.8,2.6c5.1,2,9.4,10.4,9.4,14c0,1.7,1.1,7.1,4.3,9.9c0.1,0.1,0.2,0.3,0.2,0.5s-0.1,0.4-0.2,0.5
				c-2,1.7-4.5,2.7-7.1,2.6c0.4,0.8,0.9,1.6,1.4,2.3c0.3,0.5,0.6,0.9,0.9,1.4C133.7-132.9,134.8-130.2,134.7-128.8z M59.2-166.7
				c-0.3,0.1-0.5,0.2-0.7,0.5c0.2-0.1,0.4-0.2,0.5-0.1c0.3,0.1,0.5,0.3,0.5,0.6c0.4,0,0.7,0,1.1,0h0.2
				C60.3-166.2,59.7-166.7,59.2-166.7L59.2-166.7z M73.4-157.7c1-0.6,1.4-4.4,1.4-4.4c-1.8-0.9-3.5-2-5.1-3.4
				c-1.6-1.3-3.3-2.6-4.3-2.9c-2.1-0.4-4.3-0.2-6.4,0.4c1.2-0.2,2.2,0.6,2.9,1.3l0.4,0.3c0.2,0.2,0.3,0.4,0.2,0.6
				c-0.2,0.6-0.7,1-1.3,1.1c-0.9,0.2-1.8,0.2-2.6-0.1c-0.4-0.1-0.8-0.3-1.1-0.5c-0.3-0.3-0.4-0.8-0.3-1.3c0.3-0.7,0.8-1.2,1.5-1.4
				c-1.3,0.2-2.5,0.8-3.6,1.5c-0.2,1,0,2.1,0.7,2.8c0.7-0.3,1.6-0.4,2.4-0.3c0.2,0,0.5,0.1,0.7,0.2l0.5,0.1c0.7,0.2,1.5,0.1,2.2-0.1
				c0.3-0.1,0.7,0,0.8,0.4c0.1,0.3,0,0.7-0.4,0.8c-0.9,0.3-1.9,0.4-2.9,0.2l-0.5-0.1c-0.2-0.1-0.4-0.1-0.6-0.2c-0.3-0.1-0.7-0.1-1,0
				l0.1,0.1c1.9,0.8,3.8,1.3,5.8,1.5c1,0.2,3.2-1.3,3.7-1.2C69.3-161.3,71-156.3,73.4-157.7L73.4-157.7z M70.2-148.7
				c1.6-0.9,1-5.8,1-5.8c-0.3,0.1-0.8,0.2-1.2,0.3l-0.7,0.2c-1.6,0.4-3.6,3.8-3.8,4.5C65.6-148.5,67.5-147.1,70.2-148.7L70.2-148.7z
				 M90.8-144.4c-1.2-0.8-2.4-1.5-3.7-2.1c-2.7-1.4-6-3-8.2-5.7c0,0,0.1,0,0,0c-1.9-0.7-4.4-1.1-5.5,0.7c-1.8,3,0,9.6,0.9,11.5
				c0.1,0.2,0,0.5-0.2,0.7s-0.5,0.2-0.7,0.1c-0.4-0.1-0.9,0-1.2,0.3c-0.1,0.1-0.1,0.3,0,0.4c0.5,0.6,5.5,3.9,7.8,2.7
				c1.4-0.8,2.9-2.4,2.7-3.9c-0.2-0.9-0.5-1.8-1-2.6c-0.8-1.2-1.2-2.6-1-4c0.1-0.3,0.3-0.5,0.7-0.5c1.7,0.3,3.4,0.8,5,1.6
				c0.7,0.3,1.3,0.6,1.8,0.7C89-144.4,89.9-144.4,90.8-144.4L90.8-144.4z M121.1-139.4c2.3-1.1,4.6-1.9,7.1-2.6
				c0.9-0.2,2.1-0.4,2.7,0.3c0.6,0.8,3.8,1.9,5.3,0.7c-3.3-3.4-4.1-9-4.2-10.3c-0.1-3.4-4.2-11.1-8.6-12.9c-1.6-0.6-3.1-1.6-4.2-2.9
				c-0.5-0.5-1.1-1-1.8-1.7c-1.6-1.4-6.8-1.6-8.4-1.6c-1.9,0-3.7-0.4-5.4-1.2c-1.8-0.8-3.7-1.3-5.6-1.6c-1.2-0.2-3.9,0.6-6.6,1.4
				c-1.7,0.5-3.5,1.1-5,1.3c-1.5,0.4-3,1.1-4.4,2c-1.9,1.1-3,2.4-4.8,2.6c-1.6,0.1-2,0.5-2.1,0.6c-0.2,0.4,0.3,1.5,0.8,2.5
				c0.7,1.3,1.3,2.7,1.6,4.2c1,6.2,5.8,8.7,10.1,10.8c2.2,1.1,3.7,2.6,5.2,3.4c2,1,12.3,1.1,17.2,2.4
				C114.2-140.8,117.3-137.8,121.1-139.4L121.1-139.4z M133.4-128.9c0.1-0.9-0.8-3.2-1.6-4.7c-0.2-0.4-0.5-0.8-0.9-1.3
				c-0.8-1.1-1.5-2.3-1.9-3.5v-0.1v-0.1c0-0.1,0-0.2,0.1-0.3l0,0l0.2-0.3c0.3-0.5,0.6-1,0.7-1.6c-0.5,0-0.9,0-1.3,0.2
				c-2.4,0.7-4.7,1.5-6.9,2.6c-0.8,0.4-1.7,0.7-2.5,1.1c0.4,1.9,2,3.3,4.4,4.6c0.2,0.1,0.3,0.2,0.3,0.4s0,0.4-0.1,0.5
				c-0.5,0.6-0.9,1.6,0.9,3.2c2,1.5,4.7,1.9,7.1,1.1C132.5-127.6,133.3-128,133.4-128.9z"/>
			<path class="st3" d="M70.4-70.8c-1.1,5.6-7.3,6.8-12.7,5.4h-0.2L57-64.7c-1.3,1.8-3.8,5.3-4.7,8.8c-0.6,2.6-2.7,4.5-6.3,5.9
				c-0.1,0-0.1,0-0.2,0c-0.2,0-0.4-0.1-0.5-0.3c-0.2-0.3-0.2-0.6-0.1-0.9c0.5-1.4,0.6-2.9,0.3-4.3c-0.1-0.4-0.1-0.8-0.1-1.2
				c0.1-1,0.5-2,1.1-2.9l0,0c-0.8,0.2-1.7,0.4-2.6,0.6c-2.7,0.5-5.3,1.3-7.9,2.3c-0.1,0-0.2,0.1-0.2,0c-0.3,0-0.6-0.2-0.7-0.6
				c-0.2-0.4,0-0.9,0.4-1.1c1-0.5,1.7-1.4,2.1-2.4c0.6-1.3,1.7-2.4,3-3c1.2-0.5,3-2.5,4.7-4.6c-1.8,0.7-3.6,1.7-5.3,2.8
				c-3.3,2.1-11.2,3-14.6,2.1c-0.9-0.1-1.6-0.6-2-1.4c-0.2-0.9,0-1.8,0.6-2.5c0.2-0.4,0.4-0.8,0.6-1.3l-0.9,0.4
				c-3,1.4-5.2,2.4-8.9,1.5l-1-0.2c-3.5-0.8-4.8-1.2-5.2-2.1c-0.1-0.3-0.1-0.7,0-1c0.2-0.6,1-2.3,8.7-5.1l0.2-0.1
				c3.3-1.5,4.8-3.6,6.9-6.7c-4,1.4-10.2,1.8-15.5,2.1C5.3-79.7,2.2-79.5,1-79c-0.4,0.1-0.7-0.1-0.9-0.5S0-80.3,0.3-80.6
				c2.3-2.3,4.5-4.8,6.4-7.4c3.3-4.1,6.7-8.3,9.2-10c3.2-2.1,9.7-3.9,13.7-2c1.5,0.7,2.5,2,2.9,3.6c0.5,1.9,2.7,4.3,6.2,6.8
				c-0.4-2.4-1.1-4.2-2.7-5.1c-0.9-0.5-2.9-4.1-4.1-5.5c-1.2-1.7-3-2.7-5-2.7c-0.3-0.1-0.6-0.3-0.6-0.6c-0.1-0.3,0-0.7,0.3-0.9
				c0.7-0.6,1.3-1.3,1.8-2s1-1.5,2-1.3c3.8,0.8,6.2,1.3,9.8,3.5c2.5,1.5,4.6,3.6,6.3,6.1c0.3,0.5,0.7,1,1.2,1.5
				c2,1.8,3.9,4.2,2.5,8.5c-0.3,0.9-0.7,1.8-1.1,2.6c-0.3,0.5-0.5,1.1-0.6,1.6c2.7,2.8,8.2,4.1,11.2,4.9c0.8,0.2,1.4,0.4,1.8,0.5
				c3.1,1,5.1,3.2,7,5.1c0.6,0.6,1.2,1.3,1.8,1.8C70.4-71.5,70.5-71.1,70.4-70.8z M40.4-88c2.1,1.4,4.3,2.8,6.5,4
				c0.1-0.9,0.4-1.7,0.8-2.5c0.4-0.8,0.7-1.6,1-2.4c0.9-2.6,0.3-4.3-2-6.4c-0.5-0.5-1-1.1-1.5-1.8c-1.5-2.3-3.5-4.2-5.8-5.6
				c-3.5-2.1-5.7-2.6-9.4-3.3c-0.1,0-0.2,0-0.6,0.7c-0.2,0.3-0.5,0.7-0.9,1.2c1.9,0.9,2.8,0.8,4.5,2.8c1.1,1.3,3,4.8,3.7,5.2
				C39.2-94.6,39.8-91.5,40.4-88L40.4-88z M26.5-85c0,0,0-0.9,0-3.3c0.2-3.3,1.6-6.5,4-8.8c-0.4-0.5-0.9-1-1.5-1.3
				c-3.2-1.6-9.1-0.3-12.4,1.9c-2.4,1.6-5.7,5.7-8.9,9.7c-1.6,2-3.2,4-4.6,5.6c1.5-0.2,3.4-0.3,5.6-0.4C15.3-82,24.1-82.6,26.5-85
				L26.5-85z M45.3-70c-4.7-2.1-15-7.5-18-13.4c-0.6,0.8-1.1,1.6-1.6,2.3c-2.3,3.4-4,5.9-7.8,7.6l-0.3,0.1c-5,1.8-6.8,3-7.4,3.7
				c1.2,0.4,2.5,0.7,3.8,1l1,0.2c3.4,0.8,5.2-0.1,8.1-1.4c0.8-0.3,1.5-0.7,2.4-1.1c0.3-0.1,0.5,0,0.7,0.2s0.3,0.5,0.2,0.9
				c-0.3,1.2-0.7,2.4-1.4,3.5c-0.2,0.3-0.3,0.6-0.4,0.9c0.3,0.2,0.6,0.3,1,0.4c3.4,0.9,10.8-0.2,13.6-1.9
				C41.2-68.3,43.2-69.3,45.3-70z M55.3-65c-1.3,0.6-2.4,1.4-3.5,2.3c-0.7,0.5-1.5,1.1-2.4,1.7l-0.2,0.1l0,0
				c-1.1,1.4-2.3,3.4-2.3,4.1c0,0.3,0,0.6,0.1,0.9c0.2,1.2,0.2,2.3,0,3.5c2.3-1.1,3.6-2.5,4-4.1C51.9-59.6,53.3-62.5,55.3-65
				L55.3-65z M57.2-65.4L57.2-65.4z M57.4-67.2c-0.4-1-1.1-1.9-2.1-1.9s-1.7-3.4-3-3.2c-1.9,0.3-5.9,5-5.9,5c-2,2.4-3.9,4.6-5.5,5.2
				c-1,0.5-1.8,1.3-2.3,2.3l-0.2,0.3c1.9-0.6,3.6-1,5-1.3c1.8-0.2,3.5-0.8,5.1-1.8c0.9-0.7,1.7-1.2,2.4-1.7
				C54-66.4,55.1-67.2,57.4-67.2L57.4-67.2z M66-72.9c-0.1,0.5-0.6,0.9-1.1,0.9c-0.6,0-1.1-0.5-1.1-1.1c0-0.2,0.1-0.4,0.2-0.6
				c-0.8,0.2-1.3,0.9-1.1,1.7c0,0.2,0.1,0.4,0.2,0.5c0.6,0.8,1.7,1.1,2.6,0.5c0.1-0.1,0.2-0.2,0.3-0.3C66.3-71.8,66.3-72.4,66-72.9
				L66-72.9z"/>
			<path class="st4" d="M140.4-85.8c-0.1,0.5-0.5,0.8-1,0.7l0,0c-3.3-0.4-9.5-2.9-12.1-4.3c-2.1-1.1-4.1-2.1-5.9-3
				c5.2,3.8,9.3,9,11.8,15c0.2,0.4,0,0.9-0.5,1.1c-0.3,0.1-0.7,0-1-0.2c-4.2-5.1-9.1-10.6-15.1-14.5c4.2,3.9,7.7,8.5,10.4,13.5
				c0.2,0.4,0,0.9-0.4,1.1c-0.3,0.2-0.8,0.1-1-0.2c-3-3.5-6.2-6.7-9.6-9.8c2,4.9,2.8,10.1,2.5,15.4c0,0.4-0.3,0.7-0.7,0.8
				c-0.4,0.1-0.8-0.1-0.9-0.4c-1.4-2.8-2.4-5.7-3-8.8c-0.4-2-1-4-1.7-6c0.7,6.7-1.4,13.4-5.7,18.6c-0.2,0.2-0.5,0.3-0.8,0.3
				c-0.1,0-0.1,0-0.2-0.1c-0.3-0.2-0.5-0.5-0.5-0.9c0.5-2.7,1.1-5.4,1.9-8c0.2-0.7,0.4-1.4,0.6-2c-1,0.5-2,0.9-3.1,1.1
				c-4,0.9-8.1,0.9-12.2,0c-1.8-0.4-3.6-1-5.4-1.7c-10.2-4.3-15.7-13.4-14.5-23.5c1.1-8.7,4.1-12.8,7.2-15.9c4-4,9-6.2,13.8-6
				c7.1,0.3,11.5,4.3,13.4,8.1c0.3-0.3,0.8-0.5,1.3-0.5c1.6,0.1,3.1,2.2,5.4,5.6c0.7,1.2,1.5,2.3,2.4,3.4c1.7,1.6,3.6,3.1,5.7,4.3
				c1.1,0.7,2.2,1.4,3.3,2.2c2.1,1.6,3.1,3.1,3.6,7.1c0,0.1,0,0.3-0.1,0.4c2,1.1,4.1,2.2,6.2,3.4c2.5,1.4,4.8,2.6,5.2,2.8
				C140.2-86.7,140.5-86.3,140.4-85.8L140.4-85.8z M99.9-101.8c-0.2,0-0.4,0-0.7-0.1c-2.4-0.5-2.5-2.6-2.3-3.9c-1.3,0-1.8,0.4-2,1.1
				c-0.7,2,0.2,3,2,4.7c1.3,1,2.3,2.4,3,3.9c1,2.5,2.5,2.9,4.3,3.4c0.6,0.2,1.2,0.4,1.8,0.6c-0.4-1-0.4-2-0.1-3
				c-0.9,0.4-2,0.5-3,0.3l-0.7-0.2c-1.8-0.7-3.1-2.4-3-4.4C99.2-100.3,99.4-101.1,99.9-101.8L99.9-101.8z M104.4-99.4
				c-0.4,0.8-0.5,1.8-0.3,2.7c0,0.1,0.1,0.2,0.1,0.3c0.4,0,0.8-0.1,1.2-0.3c0.6-0.3,1.1-0.9,1.3-1.5c0.2-0.9-0.1-1.9-0.8-2.6
				c-0.5-0.5-1.1-0.8-1.8-1c-0.5-0.1-1-0.1-1.5,0l0,0c-1,0.3-1.7,1.3-1.7,2.4c0,1,0.5,2,1.4,2.6c-0.1-1.1,0.1-2.2,0.5-3.2
				c0.1-0.4,0.6-0.7,1.1-0.5C104.3-100.4,104.6-99.9,104.4-99.4C104.4-99.5,104.4-99.5,104.4-99.4L104.4-99.4z M109.6-100.4
				c1.1-0.3,3.2,0.2,5.9,1.3c-2.2-1.3-4.5-2.3-6.9-3.1c-0.7-0.1-1.3-0.2-2-0.2c0.1,0.1,0.3,0.2,0.4,0.4c0.7,0.7,1.2,1.6,1.3,2.5
				C108.7-99.9,109.1-100.2,109.6-100.4L109.6-100.4z M102-109.9l-0.6,0.3l-2.3,2c-0.1,0.4-0.3,0.8-0.3,1.2v0.1
				c-0.4,1.9-0.2,2.6,0.8,2.8c1.2,0.2,2.4,0.2,3.6-0.2c1.9-0.5,3.8-0.5,5.7-0.1c3.3,0.7,9.1,4.2,13.8,7c1.4,0.8,2.7,1.6,3.7,2.1
				c-0.3-1.8-1.3-3.3-2.7-4.3c-1-0.8-2-1.5-3.1-2.1c-2.2-1.3-4.2-2.8-6-4.5c-1-1.1-1.9-2.3-2.6-3.6c-1.1-1.6-3.3-5-4.1-4.9
				c-0.3,0.3-0.6,0.6-0.9,0.9l0,0C105.5-111.9,103.8-110.8,102-109.9L102-109.9z M108.2-79.9c0.2-3.2-0.1-6.4-1.1-9.4
				c-0.9-1-2-1.6-3.3-1.7c-2-0.5-4.2-1.2-5.5-4.4c-0.6-1.3-1.5-2.4-2.6-3.2c-1.7-1.6-3.6-3.4-2.4-6.5c0.7-2,2.7-2.2,3.9-2.2v-0.1
				c0-0.1,0-0.1,0.1-0.2c0-0.1,0.1-0.2,0.1-0.3c0-0.1,0-0.1,0.1-0.1c0.1-0.3,0.3-0.6,0.4-0.8c0,0,0-0.1,0.1-0.1l0.2-0.3l0.1-0.1
				c0.1-0.1,0.2-0.2,0.3-0.3l0.1-0.1c0.2-0.1,0.3-0.3,0.5-0.4c0.6-0.4,1.2-0.7,1.9-1.1c0.4-0.2,0.7-0.4,1.1-0.6l0.3-0.2
				c0.3-0.2,0.5-0.3,0.8-0.5c0.1-0.1,0.3-0.2,0.4-0.3c0.2-0.1,0.5-0.3,0.7-0.5l0.5-0.4l0.4-0.4c-1.9-3.8-5.4-6.4-9.5-7.2
				c-0.9-0.2-1.8-0.3-2.8-0.4c-4.3-0.2-8.8,1.8-12.5,5.5c-3.3,3.4-5.8,7.2-6.7,15c-1.1,9.5,3.9,17.7,13.6,21.8
				c5.2,2.3,11,2.8,16.5,1.6C105.7-78,107.1-78.8,108.2-79.9L108.2-79.9z"/>
			<path class="st1" d="M415.5-261.8c-0.2,1.3-1.2,2.3-2.4,2.7c-1.8,0.6-3.7,0.6-5.4,0.2c-1.1-0.3-2.1-0.8-2.9-1.5
				c-2-1.8-1.9-3.3-1.5-4.3c-2-1.2-3.9-2.6-4.4-4.9c-2.6,1.1-5.5,1.5-8.2,1l-1.4-0.3c-2.5-0.5-5.5-1.1-8.5-1.9
				c-5-1.3-10.1-3.1-13.3-5.6c-1.5-0.7-3.2-1.4-4.8-1.9c0.1,0.9,0.4,1.8,0.9,2.5c0.6,0.9,1,1.9,1.1,3c0.2,2.2-1.5,4.1-3.4,5.2
				c-1.1,0.5-2.4,0.6-3.6,0.2c-2.2-0.6-4.2-1.8-5.9-3.3c-0.4-0.6-0.3-1.4,0.2-1.9c0.4-0.4,0.9-0.7,1.5-0.8c-0.5-1.5-0.9-3.1-1.1-4.7
				l-1-0.2c-2.5-0.7-6.2-2-6.5-3.8c-0.1-0.9,2.4-5.3,4.7-5.9l0.7-0.2l0.6-0.2c-1.4-1.6-3.2-2.8-5.2-3.7c-0.5-0.2-1.3-0.3-2.3-0.5
				c-2.1-0.3-4.2-0.8-6.2-1.7c-2-1-3.1-3.2-2.6-5.4c0.5-1.7,8.1-3.8,11.9-2.8c1.3,0.3,3,1.7,4.8,3.1c1.1,0.9,2.2,1.7,3.4,2.5
				c-0.3-0.6-0.3-1.3,0-1.8c0.4-0.8,1.4-1.2,3.1-1.3c1.5-0.1,2.5-1.4,4.2-2.4c1.5-1,3.1-1.7,4.8-2.2l0,0c1.4-0.3,3.2-0.8,4.9-1.3
				c2.9-0.9,5.6-1.7,7.1-1.5c2,0.3,4,0.9,5.9,1.7c1.5,0.7,3.2,1.1,4.9,1.2c0.1,0,7-0.1,9.3,1.9c0.8,0.7,1.3,1.2,1.8,1.7
				c1,1.2,2.3,2.1,3.8,2.6c5.1,2,9.4,10.4,9.5,14c0,1.7,1.1,7.1,4.3,9.9c0.1,0.1,0.2,0.3,0.2,0.5c0,0.2-0.1,0.4-0.2,0.5
				c-2,1.7-4.5,2.7-7.1,2.6c0.4,0.8,0.9,1.6,1.4,2.3c0.3,0.5,0.6,0.9,0.9,1.4C414.5-265.9,415.7-263.2,415.5-261.8z M340-299.7
				c-0.3,0.1-0.5,0.2-0.7,0.5c0.2-0.1,0.4-0.2,0.5-0.1c0.3,0.1,0.5,0.3,0.5,0.6c0.4,0,0.7,0,1.1,0h0.2
				C341.2-299.2,340.6-299.7,340-299.7L340-299.7z M354.2-290.7c1-0.6,1.4-4.4,1.4-4.4c-1.8-0.9-3.5-2-5-3.4
				c-1.6-1.3-3.3-2.6-4.3-2.8c-2.1-0.4-4.3-0.2-6.4,0.4c1.2-0.2,2.1,0.6,2.9,1.3c0.1,0.1,0.2,0.2,0.4,0.3c0.2,0.2,0.3,0.4,0.2,0.7
				c-0.2,0.6-0.7,1-1.3,1.1c-0.9,0.2-1.8,0.2-2.6-0.1c-0.4-0.1-0.8-0.3-1.1-0.5c-0.3-0.3-0.4-0.8-0.3-1.3c0.3-0.7,0.8-1.2,1.5-1.4
				c-1.3,0.2-2.5,0.8-3.6,1.5c-0.2,1,0,2.1,0.7,2.8c0.7-0.3,1.6-0.4,2.4-0.3c0.2,0,0.5,0.1,0.7,0.2l0.5,0.1c0.7,0.2,1.5,0.1,2.1-0.1
				c0.3-0.1,0.7,0,0.8,0.3c0.1,0.3,0,0.7-0.3,0.8c0,0,0,0-0.1,0c-0.9,0.3-1.9,0.4-2.9,0.2l-0.5-0.1c-0.2-0.1-0.4-0.1-0.6-0.2
				c-0.3-0.1-0.7-0.1-1,0l0.1,0.1c1.9,0.8,3.8,1.3,5.8,1.5c1,0.2,3.2-1.3,3.7-1.2C350.1-294.3,351.8-289.3,354.2-290.7L354.2-290.7z
				 M351-281.7c1.6-0.9,1-5.8,1-5.8c-0.3,0.1-0.9,0.2-1.2,0.3l-0.7,0.2c-1.6,0.4-3.6,3.8-3.8,4.5C346.4-281.5,348.3-280.1,351-281.7
				L351-281.7z M371.6-277.4c-1.2-0.8-2.4-1.5-3.7-2.1c-2.7-1.4-6-3-8.2-5.7l0,0c-1.9-0.7-4.5-1.1-5.5,0.7c-1.8,3,0,9.6,0.9,11.5
				c0.1,0.2,0,0.5-0.1,0.7c-0.2,0.2-0.5,0.2-0.7,0.1c-0.4-0.1-0.9,0-1.2,0.3c-0.1,0.1-0.1,0.3,0,0.3c0.5,0.6,5.5,3.9,7.8,2.7
				c1.4-0.8,2.9-2.3,2.7-3.9c-0.2-0.9-0.5-1.8-1-2.6c-0.8-1.2-1.2-2.6-1-4c0.1-0.3,0.3-0.5,0.7-0.5c1.7,0.3,3.4,0.8,5,1.6
				c0.7,0.3,1.3,0.6,1.9,0.7C369.8-277.4,370.7-277.4,371.6-277.4L371.6-277.4z M402-272.4c2.3-1.1,4.7-2,7.1-2.6
				c0.9-0.2,2.1-0.4,2.7,0.3c0.6,0.8,3.8,1.8,5.3,0.7c-3.3-3.4-4.1-9-4.2-10.3c-0.1-3.4-4.2-11.2-8.6-12.9c-1.6-0.6-3.1-1.6-4.2-2.9
				c-0.5-0.5-1.1-1-1.8-1.7c-1.6-1.4-6.8-1.6-8.4-1.6c-1.9,0-3.7-0.4-5.4-1.2c-1.8-0.8-3.7-1.3-5.6-1.6c-1.2-0.2-4,0.6-6.6,1.4
				c-1.7,0.5-3.5,1-5,1.3c-1.5,0.4-3,1.1-4.4,2c-1.9,1.1-3,2.5-4.8,2.6c-1.6,0.1-2,0.5-2.1,0.7c-0.2,0.4,0.3,1.5,0.8,2.5
				c0.7,1.3,1.3,2.7,1.5,4.2c1,6.2,5.9,8.7,10.1,10.8c2.2,1.1,3.7,2.6,5.2,3.4c2,1,12.2,1.1,17.2,2.4
				C395-273.8,398.2-270.8,402-272.4L402-272.4z M414.2-261.9c0.1-0.9-0.8-3.2-1.6-4.7c-0.2-0.4-0.5-0.8-0.9-1.3
				c-0.8-1.1-1.5-2.3-1.9-3.5c0,0,0-0.1,0-0.2c0,0,0,0,0-0.1c0-0.1,0-0.2,0.1-0.3l0,0l0.2-0.3c0.3-0.5,0.6-1,0.7-1.6
				c-0.5,0-0.9,0-1.4,0.2c-2.4,0.7-4.7,1.5-6.9,2.6c-0.8,0.4-1.6,0.7-2.5,1.1c0.4,1.9,2,3.3,4.4,4.6c0.2,0.1,0.3,0.2,0.3,0.4
				c0,0.2,0,0.4-0.1,0.5c-0.5,0.6-0.9,1.6,0.9,3.2c2,1.5,4.7,1.9,7.1,1.1C413.3-260.6,414.1-261,414.2-261.9z"/>
			<path class="st2" d="M343.1-243.4c0,0.1-0.1,0.3-0.3,0.3c-0.8,0.4-1.7,0.7-2.6,0.7c-3.4,0-7.2-2.9-10.7-5.5c-2.6-1.9-5-3.8-6.7-4
				c-1.4-0.3-2.8-0.6-4.1-1c-0.7,1.1-1.8,1.9-3,2.3c-0.3,0.1-0.6,0-0.7-0.2c-0.2-0.2-0.2-0.5,0-0.8c0.3-0.7,0.5-1.5,0.6-2.3l-2-0.7
				l-0.7-0.2c-0.7,0.9-1.5,1.7-2.5,2.3c-0.1,0.1-0.3,0.2-0.4,0.3s-0.1,0.3-0.1,0.4c-0.2,1.3-0.3,2.6-0.2,3.9c0,0.3-0.1,0.5-0.4,0.6
				c-0.1,0-0.2,0-0.2,0c-0.2,0-0.4-0.1-0.5-0.2c-1.4-1.3-2-3.3-1.7-5.2c-0.7,0.1-1.4,0-1.9-0.4l-0.4-0.3c-0.1-0.1-0.3-0.2-0.5-0.3
				c0,0,0,0.1-0.1,0.4l-0.9,3.6c-0.1,0.2-0.2,0.4-0.5,0.5c-0.1,0-0.1,0-0.2,0c-0.2,0-0.3-0.1-0.4-0.2c-1.3-1.2-1.8-3.1-1.1-4.8
				l-0.4-0.5c-0.1-0.1-0.2-0.3-0.3-0.3c-0.1,0-0.3,0-0.4,0.2c-0.2,0.3-0.3,0.5-0.4,0.8c-0.2,0.7-0.4,1.4-0.6,2.1
				c-0.1,0.3-0.3,0.4-0.5,0.5h-0.1c-0.2,0-0.5-0.1-0.6-0.3c-0.7-1.3-0.6-2.8,0.1-4.1c0.3-0.5,0.6-0.9,1-1.2c0.9-0.7,1.9-1.1,3-1.1
				c-0.1-0.2-0.3-0.4-0.4-0.7c-0.1-0.2-0.4-0.7-0.6-1.1l-2-2.9c-3.8-5.4-7.7-10.9-10-17.1c-2-5.6-4-14.2-1.3-22.8
				c0.2-0.8,0.5-1.6,0.9-2.4c-1.5-1.7-1.1-7-0.9-8.5c0-0.2,0.2-0.4,0.3-0.5c0.2-0.1,0.4-0.1,0.6,0c5.4,2.6,5.5,2.7,5.7,2.9
				c0.1,0.2,0.3,0.4,0.3,0.6c0.8-0.3,1.6-0.5,2.4-0.6c2.3-0.5,4.6-0.5,6.9,0c0-0.1,0-0.2,0-0.2c0.2-1,0.4-1.7,0.5-2.1
				c0.4-1.3,1.5-1.8,2.8-2.4l0.8-0.4c0.2-0.1,0.3-0.1,0.5,0c0.2,0.1,0.3,0.2,0.4,0.3l0.2,0.4c0.9,1.5,1.4,3.1,1.5,4.8
				c0,1.5-0.6,2.8-1.6,3.9c0.7,1.1,1.4,2.3,2,3.5c1.6,3.3,3.2,6.4,5.7,8.3c1.1,0.8,2.2,1.4,3.5,1.8c0.7,0.3,1.5,0.6,2.2,1
				c3.8,2.2,7,5.5,9,9.4c3.3,6.6,5.6,13.6,6.8,20.8c0.5,2.9,1.1,5.8,2,8.6c0.3,0.9,0.7,1.7,1.1,2.5
				C342.3-248,343.7-245.1,343.1-243.4z M307.9-305.8c-0.1,0.1-0.3,0.2-0.5,0.4c1.1,1.2,1.4,2.8,1.6,4.9c0.2,1.9,0,3.9-0.5,5.8
				c1.9-0.4,3.8-0.5,5.7-0.5c-1.9-2.2-3.4-4.7-4.6-7.4C309.1-303.7,308.5-304.7,307.9-305.8z M294.7-308.8v0.3
				c0,0.8,0.2,1.7,0.6,2.4v0.1c1.6,0.7,3.1,2.9,4.3,5.2v-0.1c0.7-2.4,1.6-5.2,3.1-6c0.3-0.9,0.5-1.8,0.7-2.7c-2.1-0.4-4.3-0.4-6.4,0
				C296.2-309.5,295.4-309.2,294.7-308.8L294.7-308.8z M301.6-301.2c0-0.1,0-0.3,0.1-0.4c-0.2,0-0.3,0.1-0.5,0.1
				c-0.1,0.3-0.2,0.7-0.3,1c0,0.1,0,0.1,0,0.2c0.2,0.8,0.9,1.3,1.7,1.4c1.4,0.2,2.8-0.8,3-2.3c0-0.1,0-0.2,0-0.2
				c-0.2,0-1.4,0-1.7-0.1h-0.4c0,0.1,0.1,0.2,0.1,0.4c0,0.6-0.4,1-1,1C302-300.2,301.5-300.6,301.6-301.2L301.6-301.2z M295.8-301
				c0-0.1,0-0.2,0.1-0.4c-0.8,0-1.6,0.1-2.4,0.1c-0.1,0.8,0.2,1.7,0.8,2.3c0.7,0.3,1.5,0.4,2.3,0.2c1.4-0.3,1.8-1.1,1.9-1.3
				c-0.2-0.3-0.4-0.7-0.6-1.1l-0.2-0.1c0,0.1,0,0.1,0,0.2c0,0.6-0.4,1-1,1C296.2-300,295.8-300.5,295.8-301L295.8-301z M288-287.7
				c1.2-1.7,3.1-4.4,3.1-5.8c-0.1-1.1-0.4-2.1-0.9-3c-0.6-1.1-0.9-2.3-1-3.5c0.1-1,0.4-2.1,1-2.9c-0.3-0.3-0.6-0.6-0.9-0.8
				c-0.3,0.6-0.5,1.3-0.7,1.9C287.4-297.2,287.2-292.4,288-287.7z M301.9-260.3c0.3,0.4,0.5,0.8,0.7,1.2c0.3,0.5,0.6,0.9,0.9,1.3
				c0.6,0.1,1.1,0.2,1.7,0.3c0.1,0,0.1,0.1,0.2,0.1c1.2-0.4,2.4-0.6,3.7-0.6c0.2-0.3,0.5-0.6,0.9-0.8c0.7-0.4,1.5-0.5,2.3-0.3
				c0-0.1,1.3-1.1,2-1.6s1.4-1.1,1.9-1.4c-5.7-5.1-11.4-10.7-13-14c-1.4-2.9-2.8-10.8-1-15c0.5-1.3,1.5-2.3,2.9-2.7
				c0.6-0.2,1.3-0.4,2.1-0.5c0.6-1.9,0.8-3.9,0.6-5.9c-0.4-3.5-0.9-4.7-3.7-5.4c-0.9-0.2-1.7,1.2-2.3,2.8c0.8,0,1.6,0,2.3,0.2
				c0.4,0.1,1.8,0.1,2.2,0.1c0.2,0,0.3,0.1,0.5,0.2c0.1,0.1,0.2,0.3,0.2,0.5c0,2.4-1.9,4.3-4.2,4.4h-0.1c-0.3,0-0.5,0-0.8-0.1
				c0.1,0.4,0.1,0.8,0.1,1.1c-0.1,1.2-0.5,2.3-1,3.4c-0.1,0.2-0.3,0.4-0.6,0.4l0,0c-0.3,0-0.5-0.2-0.6-0.4c-0.3-0.8-0.5-1.6-0.7-2.4
				c-0.2-0.6-0.3-1.2-0.3-1.8l0,0c0-0.2,0-0.5,0.1-0.7c-0.5,0.4-1.1,0.6-1.7,0.7c-0.2,0.1-0.5,0.1-0.7,0.1c-0.9,0-1.8-0.2-2.7-0.6
				c-1-1-1.4-2.3-1.3-3.7c0-0.3,0.2-0.6,0.4-0.7c1.4-0.4,2.9-0.5,4.4-0.3c-0.5-1-1.4-1.8-2.4-2.2c-0.6,0-1.2,0.2-1.6,0.6
				c-0.5,0.4-0.9,0.9-1.3,1.4l-0.2,0.2c-0.6,0.8-0.9,1.7-1,2.6c0.1,1,0.4,2,0.9,2.9c0.6,1.1,1,2.4,1,3.6c-0.2,2.3-3.6,6.7-4.1,7.4
				c0.4,2.1,1,4.1,1.7,6.1c2.2,6,6,11.4,9.8,16.8L301.9-260.3z M301.7-255c0.1-0.1,0.2-0.2,0.3-0.3c0.5-0.4,1-0.8,1.5-1.1
				c-1.3-0.2-2.6,0-3.7,0.6c0.3-0.1,0.7-0.1,1,0.1c0.3,0.2,0.6,0.4,0.8,0.7H301.7z M307.8-254.4c0.1-0.3,0.2-0.7,0.2-1.1
				c0-0.2,0.1-0.4,0.1-0.7c0-0.2,0.1-0.4,0.2-0.5c-2,0.1-3.9,0.9-5.4,2.2c-0.2,0.1-0.3,0.3-0.5,0.5c-0.1,0.1-0.1,0.2-0.2,0.2
				c-0.1,0.2-0.2,0.3-0.2,0.5c-0.2,0.7-0.2,1.5,0.2,2.1l0.6-2.2c0.1-0.5,0.4-1,0.8-1.2c0.6-0.2,1.3,0,1.8,0.5l0.3,0.2
				c0.4,0.2,0.9,0.3,1.3,0.2c0.2-0.1,0.4-0.1,0.6-0.2C307.7-254,307.8-254.2,307.8-254.4L307.8-254.4z M312.5-256.4
				c0.2-0.5,0.6-0.9,1.1-1.1c-0.4,0-0.8-0.1-1.2-0.2h-0.2c-0.3-0.1-0.6-0.1-0.9-0.1s-0.5,0.1-0.8,0.2l0,0c-0.1,0.1-0.3,0.2-0.4,0.3
				c-0.2,0.2-0.4,0.5-0.5,0.7c-0.1,0.3-0.2,0.5-0.3,0.8c0,0.2-0.1,0.4-0.1,0.6s-0.1,0.6-0.2,0.9c0,0.2-0.1,0.4-0.2,0.5
				c-0.1,0.3-0.3,0.5-0.4,0.7c0,0.1-0.1,0.1-0.1,0.2c0,0.1-0.1,0.1-0.1,0.2c-0.4,0.9-0.4,2,0,2.9c0-0.7,0.1-1.4,0.2-2
				c0-0.4,0.2-0.7,0.4-1c0.2-0.2,0.4-0.4,0.7-0.6C310.9-254.1,311.9-255.2,312.5-256.4L312.5-256.4z M314.1-255.6l1.6,0.5
				c0-0.2,0-0.4-0.1-0.5c0-0.2-0.2-0.5-0.4-0.6c-0.4-0.1-0.9-0.1-1.3-0.1c-0.1,0.1-0.2,0.3-0.3,0.5l0,0L314.1-255.6z M316.8-252.6
				c0.6-0.6,1.1-1.3,1.4-2.1c0.3-0.9,0.3-1.9,0-2.8c-0.4-0.9-0.5-1.2-1.1-1.2c-0.4,0.1-0.8,0.3-1.2,0.5c-0.3,0.2-0.7,0.3-1.1,0.4
				l-0.4,0.1h0.1c0.5,0,0.9,0,1.4,0.2c0.6,0.3,1,0.9,1.1,1.5C317.1-254.8,317-253.7,316.8-252.6L316.8-252.6z"/>
			<path class="st3" d="M351.2-203.8c-1.1,5.6-7.3,6.8-12.6,5.4h-0.2l-0.5,0.7c-1.3,1.8-3.8,5.3-4.7,8.8c-0.6,2.6-2.7,4.5-6.3,5.9
				c-0.1,0-0.2,0-0.2,0c-0.2,0-0.4-0.1-0.5-0.3c-0.2-0.3-0.2-0.6-0.1-0.9c0.5-1.4,0.6-2.9,0.3-4.3c-0.1-0.4-0.1-0.8-0.1-1.2
				c0.1-1,0.5-2,1.1-2.9l0,0c-0.8,0.2-1.7,0.4-2.6,0.6c-2.7,0.5-5.3,1.3-7.9,2.3c-0.1,0-0.2,0-0.2,0c-0.3,0-0.6-0.2-0.7-0.6
				c-0.1-0.4,0-0.9,0.4-1.1c0.9-0.5,1.7-1.4,2.1-2.4c0.6-1.3,1.7-2.4,3-3c1.2-0.5,3-2.5,4.7-4.6c-1.8,0.7-3.6,1.7-5.2,2.8
				c-3.3,2.1-11.2,3-14.6,2.1c-0.9-0.1-1.6-0.6-2-1.4c-0.2-0.9,0-1.8,0.6-2.5c0.2-0.4,0.4-0.8,0.6-1.3l-0.9,0.4
				c-3,1.4-5.2,2.4-8.9,1.4l-1-0.2c-3.5-0.8-4.8-1.2-5.2-2.1c-0.1-0.3-0.1-0.7,0-1c0.2-0.6,1-2.3,8.7-5.1l0.2-0.1
				c3.3-1.5,4.8-3.6,7-6.7c-4,1.4-10.2,1.8-15.5,2.1c-3.6,0.2-6.8,0.4-8,0.9c-0.4,0.1-0.8-0.1-0.9-0.4c-0.2-0.4-0.1-0.8,0.2-1.1
				c2.3-2.3,4.5-4.8,6.4-7.4c3.3-4.1,6.6-8.3,9.2-10c3.2-2.1,9.7-3.9,13.6-2c1.5,0.7,2.5,2,2.9,3.6c0.5,1.9,2.7,4.3,6.1,6.8
				c-0.4-2.4-1.1-4.2-2.6-5.2c-0.9-0.5-2.9-4.1-4.1-5.5c-1.2-1.6-3-2.7-5-2.7c-0.3-0.1-0.6-0.3-0.6-0.6c-0.1-0.3,0-0.7,0.3-0.9
				c0.7-0.6,1.3-1.3,1.8-2s1-1.5,2-1.3c3.8,0.8,6.1,1.3,9.8,3.5c2.5,1.5,4.6,3.6,6.3,6.1c0.4,0.5,0.7,1,1.2,1.5
				c2,1.8,3.9,4.2,2.5,8.4c-0.3,0.9-0.7,1.8-1.1,2.6c-0.3,0.5-0.5,1.1-0.6,1.7c2.7,2.8,8.2,4.1,11.2,4.9c0.8,0.2,1.4,0.4,1.8,0.5
				c3.1,1,5.1,3.2,7,5.1c0.6,0.6,1.2,1.3,1.8,1.8C351.2-204.5,351.3-204.1,351.2-203.8z M321.2-221c2.1,1.4,4.3,2.8,6.5,4
				c0.1-0.9,0.4-1.7,0.8-2.5s0.7-1.6,1-2.4c0.9-2.6,0.3-4.3-2-6.4c-0.5-0.5-1-1.1-1.4-1.7c-1.5-2.3-3.5-4.2-5.9-5.7
				c-3.5-2.1-5.7-2.6-9.4-3.3c-0.1,0-0.2,0-0.6,0.7c-0.3,0.4-0.6,0.8-0.9,1.2c1.9,0.9,2.8,0.8,4.4,2.8c1.1,1.3,3.1,4.8,3.7,5.2
				C320-227.6,320.7-224.5,321.2-221z M307.3-218c0,0,0-0.9,0-3.3c0.2-3.3,1.6-6.5,4-8.8c-0.4-0.5-0.9-1-1.5-1.3
				c-3.2-1.6-9.1-0.3-12.4,1.9c-2.4,1.6-5.7,5.7-8.9,9.7c-1.6,2-3.2,4-4.6,5.6c1.5-0.2,3.4-0.3,5.6-0.4
				C296.1-215,304.9-215.6,307.3-218L307.3-218z M326.1-203c-4.7-2.1-15-7.6-18-13.4c-0.6,0.8-1.1,1.6-1.6,2.3
				c-2.3,3.4-4,5.9-7.8,7.6l-0.3,0.1c-4.9,1.8-6.8,3-7.4,3.7c1.2,0.4,2.5,0.7,3.8,1l1,0.2c3.4,0.8,5.3-0.1,8.1-1.4
				c0.7-0.3,1.5-0.7,2.4-1.1c0.3-0.1,0.5,0,0.7,0.2s0.3,0.5,0.2,0.9c-0.3,1.2-0.7,2.4-1.3,3.5c-0.2,0.3-0.3,0.7-0.4,1
				c0.3,0.2,0.6,0.3,1,0.4c3.4,0.9,10.8-0.2,13.6-2C322.1-201.3,324.1-202.3,326.1-203z M336.1-198c-1.3,0.6-2.4,1.4-3.5,2.3
				c-0.7,0.5-1.5,1.1-2.4,1.7l-0.2,0.1l0,0c-1.1,1.4-2.3,3.4-2.3,4.1c0,0.2,0,0.5,0.1,0.9c0.2,1.2,0.2,2.3,0,3.5
				c2.3-1.1,3.6-2.4,4-4.1C332.7-192.6,334.2-195.5,336.1-198L336.1-198z M338.1-198.4L338.1-198.4L338.1-198.4L338.1-198.4z
				 M338.3-200.2c-0.4-1-1.1-1.9-2.1-1.9s-1.7-3.4-3-3.2c-1.9,0.3-5.9,5-5.9,5c-2,2.4-3.9,4.6-5.5,5.2c-1,0.4-1.9,1.3-2.3,2.4
				l-0.2,0.3c1.9-0.6,3.6-1,5-1.3c1.8-0.2,3.5-0.8,5.1-1.8c0.9-0.7,1.7-1.2,2.4-1.7C334.8-199.4,335.9-200.2,338.3-200.2
				L338.3-200.2z M346.8-205.9c-0.1,0.5-0.6,0.9-1.1,0.9c-0.6,0-1.1-0.5-1.1-1.1l0,0c0-0.2,0.1-0.4,0.2-0.6
				c-0.8,0.2-1.3,0.9-1.1,1.7c0,0.2,0.1,0.4,0.2,0.5c0.6,0.8,1.7,1.1,2.6,0.5c0.1-0.1,0.2-0.2,0.3-0.3
				C347.1-204.8,347.1-205.4,346.8-205.9L346.8-205.9z"/>
			<path class="st1" d="M275.1-195.3c-0.2,1.3-1.2,2.3-2.4,2.7c-1.8,0.6-3.7,0.6-5.5,0.2c-1.1-0.3-2.1-0.8-2.9-1.5
				c-2-1.8-1.9-3.3-1.5-4.3c-2-1.2-3.9-2.6-4.4-4.9c-2.6,1.1-5.5,1.5-8.2,1l-1.3-0.3c-2.5-0.5-5.5-1.1-8.5-1.9
				c-5-1.3-10.1-3.1-13.3-5.6c-1.5-0.7-3.1-1.4-4.8-1.9c0.1,0.9,0.4,1.8,0.9,2.5c0.6,0.9,1,1.9,1.1,3c0.3,2.2-1.5,4.1-3.4,5.2
				c-1.1,0.5-2.4,0.6-3.6,0.2c-2.2-0.6-4.2-1.8-5.9-3.3c-0.4-0.6-0.3-1.4,0.2-1.9c0.4-0.4,0.9-0.7,1.5-0.8c-0.5-1.5-0.9-3.1-1.1-4.7
				l-1-0.2c-2.5-0.6-6.2-2-6.5-3.8c-0.1-0.9,2.4-5.3,4.7-5.9l0.7-0.2l0.6-0.2c-1.4-1.6-3.2-2.8-5.2-3.7c-0.5-0.2-1.3-0.3-2.3-0.5
				c-2.1-0.3-4.2-0.8-6.2-1.7c-2-1-3.1-3.2-2.6-5.4c0.4-1.7,8.1-3.8,11.9-2.8c1.3,0.3,3,1.7,4.8,3.1c1.1,0.9,2.2,1.7,3.4,2.5
				c-0.3-0.6-0.3-1.3,0-1.8c0.4-0.8,1.4-1.2,3.1-1.3c1.5-0.1,2.5-1.4,4.2-2.4c1.5-1,3.1-1.7,4.8-2.2l0,0c1.4-0.3,3.2-0.8,4.9-1.3
				c2.9-0.9,5.6-1.7,7.1-1.4c2,0.3,4,0.9,5.9,1.7c1.5,0.7,3.2,1.1,4.9,1.2c0.1,0,7-0.1,9.3,1.9c0.8,0.7,1.3,1.2,1.8,1.7
				c1,1.2,2.3,2.1,3.8,2.6c5.1,2,9.4,10.4,9.4,14c0,1.7,1.1,7.1,4.3,9.9c0.1,0.1,0.2,0.3,0.2,0.5s-0.1,0.4-0.2,0.5
				c-2,1.7-4.5,2.7-7.1,2.6c0.4,0.8,0.9,1.6,1.4,2.3c0.3,0.5,0.6,0.9,0.9,1.4C274.1-199.4,275.2-196.7,275.1-195.3z M199.6-233.2
				c-0.3,0.1-0.5,0.2-0.7,0.5c0.2-0.1,0.4-0.2,0.5-0.1c0.3,0.1,0.5,0.3,0.5,0.6c0.4,0,0.7,0,1.1,0h0.2
				C200.7-232.7,200.2-233.2,199.6-233.2L199.6-233.2z M213.8-224.2c1-0.6,1.4-4.4,1.4-4.4c-1.8-0.9-3.5-2-5-3.4
				c-1.6-1.3-3.3-2.6-4.3-2.8c-2.1-0.4-4.3-0.2-6.4,0.4c1.2-0.2,2.1,0.6,2.9,1.3c0.1,0.1,0.2,0.2,0.4,0.3c0.2,0.2,0.3,0.4,0.2,0.7
				c-0.2,0.6-0.7,1-1.3,1.1c-0.9,0.2-1.8,0.2-2.6-0.1c-0.4-0.1-0.8-0.3-1.1-0.5c-0.3-0.3-0.4-0.8-0.3-1.3c0.3-0.7,0.8-1.2,1.5-1.4
				c-1.3,0.2-2.5,0.8-3.6,1.5c-0.2,1,0,2.1,0.7,2.8c0.8-0.3,1.6-0.4,2.4-0.3c0.2,0,0.5,0.1,0.7,0.2l0.5,0.1c0.7,0.2,1.5,0.1,2.1-0.1
				c0.3-0.1,0.7,0.1,0.8,0.4c0.1,0.3-0.1,0.6-0.4,0.8c-0.9,0.3-1.9,0.4-2.9,0.2l-0.5-0.1c-0.2-0.1-0.4-0.1-0.6-0.2
				c-0.3-0.1-0.7-0.1-1,0l0.1,0.1c1.9,0.8,3.8,1.3,5.8,1.5c1,0.2,3.2-1.3,3.7-1.2C209.7-227.8,211.4-222.8,213.8-224.2L213.8-224.2z
				 M210.6-215.2c1.6-0.9,1-5.8,1-5.8c-0.3,0.1-0.8,0.2-1.2,0.3l-0.7,0.2c-1.6,0.4-3.6,3.8-3.8,4.5C206-215,207.9-213.6,210.6-215.2
				L210.6-215.2z M231.2-210.9c-1.2-0.8-2.4-1.5-3.7-2.1c-2.7-1.4-6-3-8.2-5.7c-0.1,0,0.1,0,0,0c-1.9-0.7-4.4-1.1-5.5,0.7
				c-1.8,3,0,9.6,0.9,11.5c0.1,0.2,0,0.5-0.1,0.7c-0.2,0.2-0.5,0.2-0.7,0.1c-0.4-0.1-0.9,0-1.2,0.3c-0.1,0.1-0.1,0.3,0,0.3
				c0.5,0.6,5.5,3.9,7.8,2.7c1.4-0.8,2.9-2.3,2.7-3.9c-0.2-0.9-0.5-1.8-1-2.6c-0.8-1.2-1.2-2.6-1-4c0.1-0.3,0.3-0.5,0.7-0.5
				c1.7,0.3,3.4,0.8,5,1.6c0.7,0.3,1.3,0.6,1.9,0.7C229.5-210.9,230.3-210.9,231.2-210.9z M261.6-205.9c2.3-1.1,4.7-2,7.1-2.6
				c0.9-0.2,2.1-0.4,2.7,0.3s3.8,1.8,5.3,0.7c-3.3-3.4-4.1-9-4.2-10.3c-0.1-3.4-4.2-11.2-8.6-12.9c-1.6-0.6-3.1-1.6-4.2-2.9
				c-0.5-0.5-1.1-1-1.8-1.7c-1.6-1.4-6.8-1.6-8.4-1.6c-1.9,0-3.8-0.4-5.5-1.2c-1.8-0.8-3.7-1.3-5.6-1.6c-1.2-0.2-3.9,0.6-6.6,1.4
				c-1.7,0.5-3.5,1-5,1.3c-1.5,0.4-3,1.1-4.4,2c-1.9,1.1-3,2.4-4.8,2.6c-1.6,0.1-2,0.5-2.1,0.7c-0.2,0.4,0.3,1.5,0.8,2.5
				c0.7,1.3,1.3,2.7,1.6,4.2c1,6.2,5.9,8.7,10.1,10.8c2.2,1.1,3.7,2.6,5.2,3.4c2,1,12.2,1.1,17.2,2.4
				C254.6-207.3,257.8-204.3,261.6-205.9L261.6-205.9z M273.8-195.4c0.1-0.9-0.8-3.2-1.6-4.7c-0.2-0.4-0.5-0.8-0.9-1.3
				c-0.8-1.1-1.5-2.3-1.9-3.5c0,0,0-0.1,0-0.2v-0.1c0-0.1,0-0.2,0.1-0.3l0,0l0.2-0.3c0.3-0.5,0.6-1,0.7-1.6c-0.5,0-0.9,0-1.4,0.2
				c-2.4,0.7-4.7,1.5-6.9,2.6c-0.8,0.4-1.7,0.7-2.5,1.1c0.4,1.9,2,3.3,4.4,4.6c0.2,0.1,0.3,0.2,0.3,0.4s0,0.4-0.1,0.5
				c-0.5,0.6-0.9,1.6,0.9,3.2c2,1.5,4.7,1.9,7.1,1.1C273-194,273.6-194.7,273.8-195.4L273.8-195.4z"/>
			<path class="st2" d="M202.7-176.9c0,0.1-0.1,0.3-0.3,0.4c-0.8,0.4-1.7,0.7-2.6,0.7c-3.4,0-7.2-2.9-10.7-5.5c-2.6-1.9-5-3.8-6.7-4
				c-1.4-0.2-2.8-0.6-4.1-0.9c-0.7,1.1-1.7,1.9-2.9,2.3c-0.3,0.1-0.6,0-0.7-0.2c-0.2-0.2-0.2-0.5,0-0.8c0.3-0.7,0.5-1.5,0.6-2.3
				l-2-0.7l-0.7-0.2c-0.7,0.9-1.5,1.7-2.5,2.3c-0.1,0.1-0.3,0.2-0.4,0.3c-0.1,0.1-0.1,0.3-0.1,0.4c-0.2,1.3-0.3,2.6-0.2,3.9
				c0,0.3-0.1,0.5-0.4,0.6c-0.1,0-0.2,0.1-0.2,0.1c-0.2,0-0.3-0.1-0.5-0.2c-1.4-1.3-2-3.3-1.7-5.2c-0.7,0.1-1.4,0-1.9-0.4l-0.3-0.3
				c-0.1-0.1-0.3-0.2-0.5-0.3c0,0,0,0.1-0.1,0.4l-0.9,3.6c-0.1,0.2-0.2,0.4-0.4,0.5c-0.1,0-0.1,0-0.2,0c-0.2,0-0.3-0.1-0.4-0.2
				c-1.3-1.2-1.7-3.1-1.1-4.8l-0.4-0.5c-0.1-0.1-0.2-0.3-0.3-0.3s-0.3,0-0.4,0.2c-0.2,0.3-0.3,0.5-0.4,0.9c-0.2,0.7-0.4,1.4-0.6,2.1
				c-0.1,0.3-0.3,0.4-0.6,0.5H158c-0.2,0-0.5-0.1-0.6-0.3c-0.7-1.3-0.6-2.8,0.1-4.1c0.3-0.5,0.6-0.9,1-1.2c0.9-0.7,1.9-1.1,3-1.1
				l-0.4-0.7c-0.2-0.4-0.4-0.7-0.7-1.1l-2-2.9c-3.8-5.4-7.7-10.9-10-17.1c-2-5.6-4-14.2-1.3-22.8c0.2-0.8,0.5-1.6,0.9-2.4
				c-1.5-1.6-1.1-7-0.9-8.5c0-0.2,0.2-0.4,0.3-0.5c0.2-0.1,0.4-0.1,0.6,0c5.4,2.6,5.6,2.7,5.7,2.9c0.1,0.2,0.3,0.4,0.3,0.6
				c0.8-0.3,1.6-0.5,2.4-0.6c2.3-0.5,4.6-0.5,6.9,0c0-0.1,0-0.2,0-0.2c0.2-1,0.4-1.7,0.5-2.1c0.4-1.3,1.5-1.8,2.8-2.4l0.8-0.4
				c0.2-0.1,0.3-0.1,0.5,0s0.3,0.2,0.4,0.3l0.2,0.4c0.9,1.4,1.4,3,1.6,4.7c0,1.5-0.6,2.8-1.7,3.8c0.7,1.1,1.4,2.3,2,3.5
				c1.6,3.3,3.2,6.4,5.7,8.3c1.1,0.8,2.2,1.4,3.5,1.9c0.7,0.3,1.5,0.6,2.2,1c3.8,2.2,7,5.5,9,9.4s3.6,7.9,4.8,12.1
				c0.9,2.9,1.5,5.8,2,8.8c0.5,2.9,1.1,5.8,2,8.6c0.3,0.9,0.7,1.7,1.1,2.5C201.9-181.5,203.3-178.6,202.7-176.9z M167.5-239.3
				l-0.5,0.4c1.1,1.2,1.4,2.8,1.6,4.9c0.2,1.9,0,3.9-0.5,5.8c1.9-0.4,3.8-0.5,5.7-0.5c-1.9-2.2-3.4-4.7-4.6-7.4
				C168.7-237.1,168.1-238.2,167.5-239.3z M154.3-242.3v0.2c0,0.8,0.2,1.7,0.6,2.4v0.1c1.6,0.7,3,2.9,4.3,5.2v-0.1
				c0.7-2.4,1.6-5.2,3.1-6c0.3-0.9,0.6-1.8,0.8-2.7c-2.1-0.4-4.3-0.4-6.4,0c-0.8,0.1-1.6,0.4-2.4,0.7L154.3-242.3L154.3-242.3z
				 M161.1-234.7c0-0.1,0-0.2,0.1-0.3c-0.2,0-0.3,0.1-0.4,0.1c-0.1,0.3-0.2,0.7-0.3,1c0,0.1,0,0.1-0.1,0.2c0.2,0.8,0.9,1.3,1.7,1.4
				c1.4,0.2,2.8-0.8,3-2.3c0-0.1,0-0.2,0-0.2c-0.2,0-1.4,0-1.7-0.1H163c0,0.1,0.1,0.2,0.1,0.4c0,0.6-0.4,1-1,1s-1-0.4-1-1V-234.7z
				 M155.4-234.5c0-0.1,0-0.2,0.1-0.4c-0.8,0-1.6,0.1-2.4,0.1c-0.1,0.8,0.2,1.7,0.8,2.3c0.7,0.3,1.5,0.4,2.3,0.2
				c1.4-0.3,1.8-1.1,1.9-1.3c-0.2-0.4-0.4-0.7-0.6-1.1l-0.2-0.1c0,0.1,0,0.1,0,0.2c0,0.6-0.4,1-1,1
				C155.8-233.5,155.4-234,155.4-234.5L155.4-234.5z M147.6-221.2c1.2-1.7,3-4.4,3.1-5.8c-0.1-1.1-0.4-2.1-0.9-3
				c-0.6-1.1-0.9-2.3-1-3.5c0.1-1,0.4-2.1,1-2.9l-0.9-0.8c-0.3,0.6-0.5,1.3-0.7,1.9C147-230.7,146.8-225.9,147.6-221.2z
				 M161.4-193.8c0.3,0.4,0.5,0.8,0.8,1.1c0.3,0.5,0.6,0.9,0.9,1.4c0.6,0.1,1.1,0.2,1.7,0.3c0.1,0,0.1,0.1,0.2,0.1
				c1.2-0.4,2.4-0.6,3.7-0.6c0.2-0.3,0.5-0.6,0.9-0.9c0.7-0.4,1.5-0.5,2.3-0.3c0-0.1,1.3-1.1,2-1.6s1.4-1.1,1.9-1.4
				c-5.7-5.1-11.4-10.7-13-14c-1.4-2.9-2.8-10.8-1-15c0.5-1.3,1.5-2.3,2.9-2.7c0.6-0.2,1.3-0.4,2.1-0.6c0.6-1.9,0.8-3.9,0.6-5.9
				c-0.4-3.5-1-4.7-3.7-5.4c-0.9-0.2-1.7,1.2-2.3,2.8c0.8,0,1.6,0,2.3,0.2c0.4,0,1.8,0.1,2.2,0.1c0.2,0,0.3,0.1,0.4,0.2
				c0.1,0.1,0.2,0.3,0.2,0.5c0,2.4-1.9,4.3-4.2,4.4h-0.1c-0.3,0-0.5,0-0.8-0.1c0,0.4,0.1,0.8,0,1.2c-0.1,1.2-0.4,2.3-1,3.4
				c-0.1,0.2-0.3,0.4-0.6,0.4l0,0c-0.3,0-0.5-0.2-0.6-0.4c-0.3-0.8-0.5-1.6-0.7-2.4c-0.2-0.6-0.3-1.2-0.3-1.8l0,0
				c0-0.2,0-0.5,0.1-0.7c-0.5,0.4-1.1,0.6-1.7,0.7c-0.2,0.1-0.5,0.1-0.7,0.1c-0.9,0-1.8-0.2-2.7-0.6c-1-0.9-1.5-2.3-1.3-3.6
				c0-0.3,0.2-0.6,0.4-0.7c1.4-0.4,2.9-0.5,4.4-0.3c-0.5-1-1.4-1.8-2.4-2.3c-0.6,0-1.2,0.2-1.6,0.6c-0.5,0.4-1,0.9-1.3,1.4l-0.1,0.3
				c-0.6,0.8-0.9,1.7-1,2.6c0.1,1,0.4,2,0.9,2.9c0.6,1.1,1,2.4,1,3.6c-0.2,2.3-3.6,6.7-4.1,7.4c0.4,2.1,1,4.1,1.8,6.1
				c2.2,5.9,6,11.4,9.8,16.8C160.1-195.7,160.8-194.8,161.4-193.8z M161.3-188.5c0.1-0.1,0.2-0.2,0.3-0.3c0.5-0.4,1-0.8,1.5-1.1
				c-1.3-0.2-2.6,0-3.7,0.6c0.3-0.1,0.7-0.1,1,0.1C160.7-189,161-188.8,161.3-188.5L161.3-188.5z M167.4-187.9
				c0.1-0.3,0.2-0.7,0.2-1.1c0-0.2,0.1-0.4,0.1-0.7s0.1-0.4,0.2-0.5c-2,0.1-3.9,0.9-5.4,2.2c-0.2,0.1-0.3,0.3-0.5,0.5
				c-0.1,0.1-0.1,0.2-0.2,0.2c-0.1,0.2-0.2,0.3-0.2,0.5c-0.2,0.7-0.1,1.4,0.2,2.1l0.6-2.2c0.1-0.5,0.4-1,0.8-1.2
				c0.6-0.2,1.3,0,1.8,0.5l0.3,0.2c0.4,0.2,0.9,0.3,1.3,0.1c0.2-0.1,0.4-0.1,0.6-0.2C167.3-187.6,167.4-187.7,167.4-187.9z
				 M172.1-189.9c0.2-0.5,0.6-0.9,1.1-1.2c-0.4,0-0.8-0.1-1.2-0.2h-0.2c-0.3-0.1-0.6-0.1-0.9-0.1c-0.3,0-0.5,0.1-0.8,0.2l0,0
				c-0.1,0.1-0.3,0.2-0.4,0.3c-0.2,0.2-0.4,0.5-0.5,0.7c-0.1,0.3-0.2,0.5-0.3,0.8c0,0.2-0.1,0.4-0.1,0.6c-0.1,0.3-0.1,0.6-0.2,0.9
				c0,0.2-0.1,0.4-0.2,0.5c-0.1,0.3-0.3,0.5-0.4,0.7c0,0.1-0.1,0.1-0.1,0.2c0,0.1-0.1,0.1-0.1,0.2c-0.4,0.9-0.4,2,0,2.9
				c0-0.7,0.1-1.3,0.2-2c0-0.4,0.2-0.7,0.4-1c0.2-0.2,0.4-0.4,0.7-0.6C170.5-187.6,171.5-188.7,172.1-189.9L172.1-189.9z
				 M173.7-189.1l1.7,0.5c0-0.2,0-0.4-0.1-0.5c0-0.2-0.2-0.5-0.4-0.6c-0.4-0.1-0.9-0.1-1.3-0.1c-0.1,0.1-0.2,0.3-0.3,0.5l0,0
				C173.4-189.3,173.5-189.2,173.7-189.1L173.7-189.1z M176.3-186c0.6-0.6,1.1-1.2,1.5-2c0.3-0.9,0.3-1.9,0-2.8
				c-0.4-0.9-0.5-1.2-1.1-1.2c-0.4,0.1-0.8,0.3-1.2,0.5c-0.3,0.2-0.7,0.3-1.1,0.4L174-191h0.1c0.5,0,0.9,0.1,1.4,0.2
				c0.6,0.3,1,0.9,1.1,1.5C176.7-188.2,176.6-187.1,176.3-186z"/>
			<path class="st3" d="M210.8-137.3c-1.1,5.6-7.3,6.8-12.6,5.4H198l-0.5,0.7c-1.3,1.8-3.8,5.3-4.7,8.8c-0.6,2.6-2.7,4.5-6.3,5.9
				c-0.1,0-0.1,0-0.2,0c-0.2,0-0.4-0.1-0.6-0.3c-0.2-0.3-0.2-0.6-0.1-0.9c0.5-1.4,0.6-2.9,0.3-4.3c-0.1-0.4-0.1-0.8-0.1-1.2
				c0.1-1,0.5-2,1.1-2.9l0,0c-0.8,0.2-1.7,0.4-2.6,0.6c-2.7,0.5-5.3,1.3-7.9,2.3c-0.1,0-0.2,0-0.2,0c-0.3,0-0.6-0.2-0.7-0.6
				c-0.2-0.4,0-0.9,0.4-1.1c1-0.5,1.7-1.4,2.1-2.4c0.6-1.3,1.7-2.4,3-3c1.2-0.5,3-2.5,4.7-4.6c-1.8,0.7-3.6,1.7-5.2,2.8
				c-3.3,2.1-11.2,3-14.6,2.1c-0.9-0.1-1.6-0.6-2-1.4c-0.2-0.9,0-1.8,0.6-2.5c0.2-0.4,0.4-0.8,0.6-1.3l-0.9,0.4
				c-3,1.4-5.2,2.4-8.9,1.4l-1-0.2c-3.6-0.8-4.8-1.2-5.2-2.1c-0.1-0.3-0.1-0.7,0-1c0.2-0.6,0.9-2.3,8.7-5.1l0.2-0.1
				c3.3-1.5,4.8-3.6,6.9-6.7c-4,1.4-10.2,1.8-15.5,2.1c-3.6,0.2-6.7,0.4-7.9,0.9c-0.4,0.1-0.8-0.1-0.9-0.4c-0.2-0.4-0.1-0.8,0.2-1.1
				c2.4-2.3,4.5-4.7,6.5-7.3c3.3-4.1,6.6-8.3,9.2-10c3.2-2.1,9.7-3.9,13.7-2c1.5,0.7,2.5,2,2.9,3.6c0.4,1.9,2.7,4.3,6.1,6.8
				c-0.4-2.4-1.1-4.2-2.6-5.1c-0.9-0.5-2.9-4.1-4.1-5.5c-1.2-1.6-3-2.7-5-2.7c-0.3-0.1-0.6-0.3-0.6-0.6c-0.1-0.3,0-0.7,0.3-0.9
				c0.7-0.6,1.3-1.3,1.8-2s1-1.5,2-1.3c3.8,0.8,6.2,1.3,9.8,3.5c2.5,1.5,4.6,3.6,6.3,6.1c0.3,0.5,0.7,1,1.2,1.5
				c2,1.8,3.9,4.2,2.5,8.4c-0.3,0.9-0.7,1.8-1.1,2.6c-0.3,0.5-0.5,1.1-0.6,1.6c2.7,2.8,8.2,4.1,11.2,4.9c0.8,0.2,1.4,0.4,1.8,0.5
				c3.1,1.1,5.1,3.2,6.9,5.1c0.6,0.6,1.2,1.3,1.8,1.8C210.8-138,210.9-137.6,210.8-137.3z M180.8-154.5c2.1,1.4,4.3,2.8,6.5,4
				c0.1-0.9,0.4-1.7,0.8-2.5c0.4-0.8,0.7-1.6,1-2.4c0.9-2.6,0.3-4.3-2-6.4c-0.5-0.5-1-1.1-1.4-1.7c-1.5-2.3-3.5-4.2-5.8-5.6
				c-3.5-2.1-5.7-2.6-9.4-3.3c-0.1,0-0.2,0-0.7,0.7c-0.3,0.4-0.6,0.8-0.9,1.2c1.9,0.9,2.8,0.8,4.5,2.8c1.1,1.3,3,4.8,3.7,5.2
				C179.6-161,180.3-158,180.8-154.5L180.8-154.5z M166.9-151.5c0,0,0-0.9,0-3.3c0.2-3.3,1.7-6.4,4.1-8.7c-0.4-0.5-0.9-1-1.5-1.3
				c-3.2-1.6-9.1-0.3-12.4,1.9c-2.4,1.6-5.7,5.7-8.9,9.7c-1.6,2-3.2,4-4.6,5.6c1.5-0.2,3.4-0.3,5.6-0.4
				C155.7-148.5,164.5-149,166.9-151.5L166.9-151.5z M185.7-136.5c-4.7-2.1-15-7.6-18-13.4c-0.6,0.8-1.1,1.6-1.6,2.3
				c-2.3,3.4-4,5.9-7.8,7.6l-0.3,0.1c-5,1.8-6.8,3-7.4,3.7c1.2,0.4,2.5,0.7,3.8,1l1,0.2c3.4,0.8,5.3-0.1,8.1-1.4
				c0.7-0.3,1.6-0.7,2.4-1.1c0.3-0.1,0.5,0,0.7,0.2s0.3,0.5,0.2,0.9c-0.3,1.2-0.7,2.4-1.3,3.5c-0.2,0.3-0.3,0.6-0.4,0.9
				c0.3,0.2,0.6,0.3,1,0.4c3.4,0.9,10.8-0.2,13.6-1.9C181.7-134.8,183.7-135.8,185.7-136.5L185.7-136.5z M195.7-131.5
				c-1.3,0.6-2.4,1.4-3.5,2.3c-0.7,0.5-1.4,1.1-2.4,1.7l-0.2,0.1l0,0c-1.1,1.4-2.3,3.4-2.3,4.1c0,0.3,0,0.6,0.1,0.9
				c0.2,1.2,0.2,2.3,0,3.5c2.3-1.1,3.6-2.5,4-4.1C192.3-126.1,193.8-129,195.7-131.5L195.7-131.5z M197.7-131.9L197.7-131.9z
				 M197.9-133.7c-0.4-1-1.1-1.9-2.1-1.9s-1.7-3.4-3-3.2c-1.9,0.3-5.9,5-5.9,5c-2,2.4-3.9,4.6-5.5,5.2c-1,0.5-1.8,1.3-2.3,2.4
				l-0.2,0.3c1.9-0.6,3.6-1,5-1.3c1.8-0.2,3.5-0.8,5.1-1.8l2.4-1.7C194.4-132.9,195.5-133.7,197.9-133.7L197.9-133.7z M206.4-139.4
				c-0.1,0.5-0.6,0.9-1.1,0.9c-0.6,0-1.1-0.5-1.1-1.1c0-0.2,0.1-0.4,0.2-0.6c-0.8,0.2-1.3,0.9-1.1,1.7c0,0.2,0.1,0.4,0.2,0.5
				c0.6,0.8,1.7,1.1,2.6,0.5c0.1-0.1,0.2-0.2,0.3-0.3C206.7-138.3,206.7-138.9,206.4-139.4L206.4-139.4z"/>
			<path class="st4" d="M280.8-152.3c-0.1,0.5-0.5,0.8-1,0.7l0,0c-3.3-0.4-9.5-2.9-12.1-4.3c-2.1-1.1-4.1-2.1-5.9-3
				c5.2,3.9,9.3,9,11.8,15c0.2,0.4,0,0.9-0.5,1.1c-0.3,0.1-0.7,0-1-0.2c-4.2-5.1-9.1-10.6-15.1-14.5c4.2,3.9,7.8,8.5,10.5,13.5
				c0.2,0.4,0,0.9-0.4,1.1c-0.3,0.2-0.8,0.1-1-0.2c-3-3.5-6.2-6.7-9.6-9.8c2,4.9,2.8,10.1,2.5,15.4c0,0.4-0.3,0.7-0.7,0.8
				c-0.4,0.1-0.8-0.1-0.9-0.4c-1.4-2.8-2.4-5.7-3-8.8c-0.4-2-1-4-1.7-6c0.7,6.7-1.4,13.4-5.7,18.6c-0.2,0.2-0.5,0.3-0.8,0.3
				c-0.1,0-0.1,0-0.2-0.1c-0.3-0.2-0.5-0.5-0.5-0.9c0.5-2.7,1.1-5.4,1.9-8c0.2-0.7,0.4-1.4,0.6-2c-1,0.5-2,0.9-3.1,1.1
				c-4,0.9-8.1,0.9-12.1,0c-1.8-0.4-3.6-1-5.4-1.7c-10.2-4.4-15.8-13.5-14.6-23.6c1-8.7,4.1-12.8,7.2-15.9c4-4,9-6.2,13.8-6
				c5.6,0.1,10.7,3.2,13.4,8.1c0.3-0.4,0.8-0.5,1.3-0.5c1.6,0.1,3.1,2.2,5.4,5.6c0.7,1.2,1.5,2.3,2.4,3.4c1.7,1.6,3.6,3.1,5.7,4.3
				c1.1,0.7,2.2,1.4,3.3,2.2c2.1,1.6,3.1,3.1,3.6,7.1c0,0.1,0,0.3-0.1,0.4c2,1.1,4.1,2.2,6.2,3.4c2.5,1.4,4.8,2.6,5.2,2.8
				c0.5,0,0.8,0.4,0.8,0.9C280.8-152.4,280.8-152.3,280.8-152.3z M240.3-168.3c-0.2,0-0.4,0-0.7-0.1c-2.4-0.5-2.5-2.6-2.3-3.9
				c-1.3,0-1.8,0.4-2,1.1c-0.7,2,0.2,3.1,2,4.7c1.3,1,2.3,2.4,3,3.9c1,2.5,2.5,2.9,4.3,3.4c0.6,0.2,1.2,0.4,1.8,0.6
				c-0.4-1-0.4-2-0.1-3c-0.9,0.4-2,0.5-3,0.3l-0.7-0.2c-1.8-0.7-3.1-2.4-3-4.4C239.7-166.7,239.9-167.6,240.3-168.3L240.3-168.3z
				 M244.8-165.9c-0.4,0.8-0.5,1.8-0.3,2.7c0,0.1,0.1,0.2,0.1,0.3c0.4,0,0.8-0.1,1.2-0.3c0.6-0.3,1.1-0.9,1.3-1.5
				c0.2-0.9-0.1-1.9-0.8-2.6c-0.5-0.5-1.1-0.8-1.8-1c-0.5-0.1-1-0.1-1.5,0.1l0,0c-1,0.3-1.7,1.3-1.7,2.4c0,1,0.5,2,1.4,2.6
				c-0.1-1.1,0.1-2.2,0.5-3.2c0.1-0.4,0.6-0.7,1.1-0.5c0.4,0.1,0.7,0.6,0.5,1.1C244.8-166,244.8-166,244.8-165.9L244.8-165.9z
				 M250-166.9c1.1-0.3,3.2,0.2,5.9,1.3c-2.2-1.3-4.5-2.3-6.9-3.1c-0.6-0.1-1.3-0.2-1.9-0.2c0.1,0.1,0.3,0.2,0.4,0.4
				c0.7,0.7,1.2,1.6,1.3,2.5C249.1-166.4,249.5-166.7,250-166.9L250-166.9z M242.4-176.4l-0.6,0.3l-2.3,2c-0.1,0.4-0.2,0.8-0.3,1.2
				v0.1c-0.4,1.9-0.2,2.6,0.9,2.8c1.2,0.2,2.4,0.2,3.6-0.2c1.9-0.5,3.8-0.5,5.7-0.1c3.3,0.7,9.1,4.2,13.8,7c1.4,0.8,2.7,1.6,3.7,2.1
				c-0.3-1.8-1.2-3.3-2.7-4.3c-1-0.8-2-1.5-3.1-2.1c-2.2-1.3-4.2-2.8-6-4.5c-1-1.1-1.9-2.3-2.6-3.6c-1.1-1.6-3.3-5-4.1-4.9
				c-0.3,0.3-0.6,0.6-0.9,0.9l0,0C245.9-178.5,244.2-177.3,242.4-176.4L242.4-176.4z M248.6-146.4c0.2-3.2-0.1-6.4-1.1-9.4
				c-0.9-1-2-1.7-3.3-1.8c-2-0.6-4.2-1.2-5.5-4.4c-0.6-1.3-1.5-2.4-2.6-3.2c-1.7-1.6-3.6-3.4-2.4-6.5c0.7-2,2.7-2.2,3.9-2.2v-0.1
				c0-0.1,0-0.1,0.1-0.2c0-0.1,0.1-0.2,0.1-0.3s0-0.1,0.1-0.1c0.1-0.3,0.3-0.6,0.4-0.8l0.1-0.1c0.1-0.1,0.1-0.2,0.2-0.3l0.1-0.1
				c0.1-0.1,0.2-0.2,0.3-0.3l0.1-0.1c0.2-0.1,0.3-0.3,0.5-0.4c0.6-0.4,1.2-0.7,1.9-1.1c0.4-0.2,0.7-0.4,1.1-0.6l0.3-0.2
				c0.3-0.2,0.5-0.3,0.8-0.5c0.1-0.1,0.3-0.2,0.4-0.3s0.5-0.3,0.7-0.5l0.5-0.4l0.4-0.4c-1.9-3.8-5.4-6.4-9.5-7.2
				c-0.9-0.2-1.8-0.3-2.8-0.4c-4.3-0.2-8.8,1.8-12.5,5.5c-3.3,3.4-5.7,7.2-6.7,14.9c-1.1,9.5,3.9,17.7,13.6,21.8
				c5.2,2.3,11,2.8,16.5,1.6C246.1-144.6,247.5-145.3,248.6-146.4L248.6-146.4z"/>
			<path class="st1" d="M134.7-261.8c-0.2,1.3-1.2,2.3-2.4,2.7c-1.8,0.6-3.7,0.6-5.4,0.2c-1.1-0.3-2.1-0.8-2.9-1.5
				c-2-1.8-1.9-3.3-1.5-4.3c-2-1.2-3.9-2.6-4.4-4.9c-2.6,1.1-5.5,1.5-8.2,1l-1.3-0.3c-2.5-0.5-5.5-1.1-8.5-1.9
				c-5-1.3-10.1-3.1-13.3-5.6c-1.5-0.7-3.1-1.4-4.8-1.9c0.1,0.9,0.4,1.8,0.9,2.5c0.6,0.9,1,1.9,1.2,3c0.2,2.2-1.5,4.1-3.4,5.2
				c-1.1,0.5-2.4,0.6-3.6,0.2c-2.2-0.6-4.2-1.8-5.8-3.3c-0.4-0.6-0.3-1.4,0.2-1.9c0.4-0.4,0.9-0.7,1.5-0.8c-0.5-1.5-0.9-3.1-1.1-4.7
				l-0.9-0.2c-2.5-0.7-6.2-2-6.5-3.8c-0.1-0.9,2.4-5.3,4.7-5.9l0.7-0.2l0.6-0.2c-1.7-1.7-3.7-3.2-5.2-3.7c-0.5-0.2-1.3-0.3-2.3-0.5
				c-2.1-0.3-4.2-0.8-6.2-1.7c-2-1-3.1-3.2-2.6-5.4c0.1-1.7,7.8-3.8,11.6-2.8c1.3,0.3,3,1.7,4.8,3.1c1.1,0.9,2.2,1.7,3.4,2.5
				c-0.3-0.6-0.2-1.3,0-1.8c0.4-0.8,1.4-1.2,3.1-1.3c1.5-0.1,2.5-1.4,4.2-2.4c1.5-1,3.1-1.7,4.8-2.2l0,0c1.4-0.3,3.2-0.8,4.9-1.3
				c2.9-0.9,5.6-1.7,7.1-1.5c2,0.3,4,0.9,5.9,1.7c1.5,0.7,3.2,1.1,4.9,1.2c0.1,0,7-0.1,9.3,1.9c0.8,0.7,1.3,1.2,1.8,1.7
				c1,1.2,2.3,2.1,3.8,2.6c5.1,2,9.4,10.4,9.4,14c0,1.7,1.1,7.1,4.3,9.9c0.1,0.1,0.2,0.3,0.2,0.5c0,0.2-0.1,0.4-0.2,0.5
				c-2,1.7-4.5,2.7-7.1,2.6c0.4,0.8,0.9,1.6,1.4,2.3c0.3,0.5,0.6,0.9,0.9,1.4C133.7-265.9,134.8-263.2,134.7-261.8z M59.2-299.7
				c-0.3,0.1-0.5,0.2-0.7,0.5c0.2-0.1,0.4-0.2,0.5-0.1c0.3,0.1,0.5,0.3,0.5,0.6c0.4,0,0.7,0,1.1,0h0.2
				C60.3-299.2,59.7-299.7,59.2-299.7L59.2-299.7z M73.4-290.7c1-0.6,1.4-4.4,1.4-4.4c-1.8-0.9-3.5-2-5.1-3.3
				c-1.6-1.3-3.3-2.6-4.3-2.9c-2.1-0.4-4.3-0.2-6.4,0.4c1.2-0.2,2.2,0.6,2.9,1.3l0.4,0.3c0.2,0.2,0.3,0.4,0.2,0.7
				c-0.2,0.6-0.7,1-1.3,1.1c-0.9,0.2-1.8,0.2-2.6-0.1c-0.4-0.1-0.8-0.3-1.1-0.5c-0.3-0.3-0.4-0.8-0.3-1.3c0.3-0.7,0.8-1.2,1.5-1.4
				c-1.3,0.2-2.5,0.8-3.6,1.5c-0.2,1,0,2.1,0.7,2.8c0.7-0.3,1.6-0.4,2.4-0.3c0.2,0,0.5,0.1,0.7,0.2l0.5,0.1c0.7,0.2,1.5,0.1,2.2-0.1
				c0.3-0.1,0.7,0,0.8,0.4c0.1,0.3,0,0.7-0.4,0.8c-0.9,0.3-1.9,0.4-2.9,0.2l-0.5-0.1c-0.2-0.1-0.4-0.1-0.6-0.2c-0.3-0.1-0.7-0.1-1,0
				l0.1,0.1c1.9,0.8,3.8,1.3,5.8,1.5c1,0.2,3.2-1.3,3.7-1.2C69.3-294.3,71-289.3,73.4-290.7L73.4-290.7z M70.2-281.6
				c1.6-0.9,1-5.8,1-5.8c-0.3,0.1-0.8,0.2-1.2,0.3l-0.7,0.2c-1.6,0.4-3.6,3.8-3.8,4.5C65.6-281.5,67.5-280.1,70.2-281.6z
				 M90.8-277.4c-1.2-0.8-2.4-1.5-3.7-2.1c-2.7-1.4-6-3-8.2-5.7c0,0,0.1,0,0,0c-1.9-0.7-4.4-1.1-5.5,0.7c-1.8,3,0,9.6,0.9,11.5
				c0.1,0.2,0,0.5-0.2,0.7c-0.2,0.2-0.5,0.2-0.7,0.1c-0.4-0.1-0.9,0-1.2,0.3c-0.1,0.1-0.1,0.3,0,0.3c0.5,0.6,5.5,3.9,7.8,2.7
				c1.4-0.8,2.9-2.3,2.7-3.9c-0.2-0.9-0.5-1.8-1-2.6c-0.8-1.2-1.2-2.6-1-4c0.1-0.3,0.3-0.5,0.7-0.5c1.7,0.3,3.4,0.8,5,1.6
				c0.7,0.3,1.3,0.6,1.8,0.7C89-277.4,89.9-277.4,90.8-277.4L90.8-277.4z M121.2-272.4c2.3-1.1,4.6-2,7-2.6c0.9-0.2,2.1-0.4,2.7,0.3
				c0.6,0.8,3.8,1.8,5.3,0.7c-3.3-3.4-4.1-9-4.2-10.3c-0.1-3.4-4.2-11.1-8.6-12.8c-1.6-0.6-3.1-1.6-4.2-2.9c-0.5-0.5-1.1-1-1.8-1.7
				c-1.6-1.4-6.8-1.6-8.4-1.6c-1.9,0-3.7-0.4-5.4-1.2c-1.8-0.8-3.7-1.3-5.6-1.6c-1.2-0.2-3.9,0.6-6.6,1.4c-1.7,0.5-3.5,1-5,1.3
				c-1.5,0.4-3,1.1-4.4,2c-1.9,1.1-3,2.5-4.8,2.6c-1.6,0.1-2,0.5-2.1,0.6c-0.2,0.4,0.3,1.5,0.8,2.5c0.7,1.3,1.3,2.7,1.6,4.2
				c1,6.2,5.8,8.7,10.1,10.8c2.2,1.1,3.7,2.6,5.2,3.4c2,1,12.3,1.1,17.2,2.4C114.2-273.8,117.3-270.8,121.2-272.4L121.2-272.4z
				 M133.4-261.9c0.1-0.9-0.8-3.2-1.6-4.7c-0.2-0.4-0.5-0.8-0.9-1.3c-0.8-1.1-1.5-2.3-1.9-3.5c0,0,0-0.1,0-0.2c0,0,0,0,0-0.1
				c0-0.1,0-0.2,0.1-0.3l0,0l0.2-0.3c0.3-0.5,0.6-1,0.7-1.6c-0.5,0-0.9,0-1.3,0.2c-2.4,0.7-4.7,1.5-6.9,2.6
				c-0.8,0.4-1.7,0.7-2.5,1.1c0.4,1.9,2,3.3,4.4,4.6c0.2,0.1,0.3,0.2,0.3,0.4c0,0.2,0,0.4-0.1,0.5c-0.5,0.6-0.9,1.6,0.9,3.2
				c2,1.5,4.7,1.9,7.1,1.1C132.5-260.6,133.3-261,133.4-261.9z"/>
			<path class="st3" d="M70.4-203.8c-1.1,5.6-7.3,6.8-12.7,5.4h-0.2l-0.5,0.7c-1.3,1.8-3.8,5.3-4.7,8.8c-0.6,2.6-2.7,4.5-6.3,5.9
				c-0.1,0-0.1,0-0.2,0c-0.2,0-0.4-0.1-0.5-0.3c-0.2-0.3-0.2-0.6-0.1-0.9c0.5-1.4,0.6-2.9,0.3-4.3c-0.1-0.4-0.1-0.8-0.1-1.2
				c0.1-1,0.5-2,1.1-2.9l0,0c-0.8,0.2-1.7,0.4-2.6,0.6c-2.7,0.5-5.3,1.3-7.9,2.3c-0.1,0-0.2,0-0.2,0c-0.3,0-0.6-0.2-0.7-0.6
				c-0.2-0.4,0-0.9,0.4-1.1c1-0.5,1.7-1.4,2.1-2.4c0.6-1.3,1.7-2.4,3-3c1.2-0.5,3-2.5,4.7-4.6c-1.8,0.7-3.6,1.7-5.3,2.8
				c-3.3,2.1-11.2,3-14.6,2.1c-0.9-0.1-1.6-0.6-2-1.4c-0.2-0.9,0-1.8,0.6-2.5c0.2-0.4,0.4-0.8,0.6-1.3l-0.9,0.4
				c-3,1.4-5.2,2.4-8.9,1.4l-1-0.2c-3.5-0.8-4.8-1.2-5.2-2.1c-0.1-0.3-0.1-0.7,0-1c0.2-0.6,1-2.3,8.7-5.1l0.2-0.1
				c3.3-1.5,4.8-3.6,6.9-6.7c-4,1.4-10.2,1.8-15.5,2.1c-3.6,0.2-6.7,0.4-7.9,0.9c-0.4,0.1-0.7-0.1-0.9-0.4c-0.2-0.4-0.1-0.8,0.2-1.1
				c2.3-2.3,4.5-4.8,6.4-7.4c3.3-4.1,6.7-8.3,9.2-10c3.2-2.1,9.7-3.9,13.7-2c1.5,0.7,2.5,2,2.9,3.6c0.5,1.9,2.7,4.3,6.2,6.8
				c-0.4-2.4-1.1-4.2-2.7-5.2c-0.9-0.5-2.9-4.1-4.1-5.5c-1.2-1.7-3-2.7-5-2.7c-0.3-0.1-0.6-0.3-0.6-0.6c-0.1-0.3,0-0.7,0.3-0.9
				c0.7-0.6,1.3-1.3,1.8-2s1-1.5,2-1.3c3.8,0.8,6.2,1.3,9.8,3.5c2.5,1.5,4.6,3.6,6.3,6.1c0.3,0.5,0.7,1,1.2,1.5
				c2,1.8,3.9,4.2,2.5,8.4c-0.3,0.9-0.7,1.8-1.1,2.6c-0.3,0.5-0.5,1.1-0.6,1.6c2.7,2.8,8.2,4.1,11.2,4.9c0.8,0.2,1.4,0.4,1.8,0.5
				c3.1,1,5.1,3.2,7,5.1c0.6,0.6,1.2,1.3,1.8,1.8C70.4-204.6,70.5-204.2,70.4-203.8z M40.4-221c2.1,1.4,4.3,2.8,6.5,4
				c0.1-0.9,0.4-1.7,0.8-2.5c0.4-0.8,0.7-1.6,1-2.4c0.9-2.6,0.3-4.3-2-6.4c-0.5-0.5-1-1.1-1.5-1.8c-1.5-2.3-3.5-4.2-5.8-5.6
				c-3.5-2.1-5.7-2.6-9.4-3.3c-0.1,0-0.2,0-0.6,0.7c-0.2,0.3-0.5,0.7-0.9,1.2c1.9,0.9,2.8,0.8,4.5,2.8c1.1,1.3,3,4.8,3.7,5.2
				C39.2-227.6,39.8-224.5,40.4-221L40.4-221z M26.5-218c0,0,0-0.9,0-3.3c0.2-3.3,1.6-6.5,4-8.8c-0.4-0.5-0.9-1-1.5-1.3
				c-3.2-1.6-9.1-0.3-12.4,1.9c-2.4,1.6-5.7,5.7-8.9,9.7c-1.6,2-3.2,4-4.6,5.6c1.5-0.2,3.4-0.3,5.6-0.4
				C15.3-215,24.1-215.6,26.5-218L26.5-218z M45.3-203c-4.7-2.1-15-7.6-18-13.4c-0.6,0.8-1.1,1.6-1.6,2.3c-2.3,3.4-4,5.9-7.8,7.6
				l-0.3,0.1c-5,1.8-6.8,3-7.4,3.7c1.2,0.4,2.5,0.7,3.8,1l1,0.2c3.4,0.8,5.2-0.1,8.1-1.4c0.8-0.3,1.5-0.7,2.4-1.1
				c0.3-0.1,0.5,0,0.7,0.2s0.3,0.5,0.2,0.9c-0.3,1.2-0.7,2.4-1.4,3.5c-0.2,0.3-0.3,0.7-0.4,1c0.3,0.2,0.6,0.3,1,0.4
				c3.4,0.9,10.8-0.2,13.6-2C41.2-201.3,43.2-202.3,45.3-203z M55.3-198c-1.3,0.6-2.4,1.4-3.5,2.3c-0.7,0.5-1.5,1.1-2.4,1.7
				l-0.2,0.1l0,0c-1.1,1.4-2.3,3.4-2.3,4.1c0,0.3,0,0.6,0.1,0.9c0.2,1.2,0.2,2.3,0,3.5c2.3-1.1,3.6-2.4,4-4.1
				C51.9-192.6,53.3-195.5,55.3-198L55.3-198z M57.2-198.4L57.2-198.4C57.2-198.4,57.3-198.4,57.2-198.4L57.2-198.4z M57.4-200.2
				c-0.4-1-1.1-1.9-2.1-1.9s-1.7-3.4-3-3.2c-1.9,0.3-5.9,5-5.9,5c-2,2.4-3.9,4.6-5.5,5.2c-1,0.5-1.8,1.3-2.3,2.4l-0.2,0.3
				c1.9-0.6,3.6-1,5-1.3c1.8-0.2,3.5-0.8,5.1-1.8c0.9-0.7,1.7-1.2,2.4-1.7C54-199.4,55.1-200.2,57.4-200.2L57.4-200.2z M66-205.9
				c-0.1,0.5-0.6,0.9-1.1,0.9c-0.6,0-1.1-0.5-1.1-1.1c0-0.2,0.1-0.4,0.2-0.6c-0.8,0.2-1.3,0.9-1.1,1.7c0,0.2,0.1,0.4,0.2,0.5
				c0.6,0.8,1.7,1.1,2.6,0.5c0.1-0.1,0.2-0.2,0.3-0.3C66.3-204.8,66.3-205.4,66-205.9L66-205.9z"/>
			<path class="st4" d="M140.4-218.8c-0.1,0.5-0.5,0.8-1,0.7l0,0c-3.3-0.4-9.5-2.8-12.1-4.3c-2.1-1.1-4.1-2.1-5.9-3
				c5.2,3.8,9.3,9,11.8,15c0.2,0.4,0,0.9-0.5,1.1c-0.3,0.1-0.7,0-1-0.2c-4.3-5.1-9.2-10.6-15.1-14.5c4.2,3.9,7.8,8.5,10.5,13.5
				c0.2,0.4,0,0.9-0.4,1.1c-0.3,0.2-0.8,0.1-1-0.2c-3-3.5-6.2-6.7-9.6-9.8c2,4.9,2.8,10.1,2.5,15.4c0,0.4-0.3,0.7-0.7,0.8
				c-0.4,0.1-0.8-0.1-0.9-0.4c-1.4-2.8-2.4-5.7-3-8.8c-0.4-2-1-4-1.7-6c0.7,6.7-1.4,13.4-5.7,18.6c-0.2,0.2-0.5,0.3-0.8,0.3
				c-0.1,0-0.1,0-0.2-0.1c-0.3-0.2-0.5-0.5-0.5-0.9c0.5-2.7,1.1-5.4,1.9-8c0.2-0.7,0.4-1.4,0.6-2c-1,0.5-2,0.9-3.1,1.1
				c-4,0.9-8.1,0.9-12.2,0c-1.8-0.4-3.6-1-5.4-1.7c-10.2-4.3-15.7-13.4-14.5-23.5c1.1-8.7,4.1-12.8,7.2-15.9c4-4,9-6.2,13.8-6
				c7.1,0.3,11.5,4.3,13.4,8.1c0.3-0.3,0.8-0.5,1.3-0.5c1.6,0.1,3.1,2.2,5.4,5.6c0.7,1.2,1.5,2.3,2.4,3.4c1.7,1.6,3.6,3.1,5.7,4.3
				c1.1,0.7,2.2,1.4,3.3,2.2c2.1,1.7,3.1,3.1,3.6,7.1c0,0.1,0,0.3-0.1,0.4c2,1.1,4.1,2.2,6.2,3.4c2.5,1.4,4.8,2.6,5.2,2.8
				C140.2-219.7,140.5-219.3,140.4-218.8L140.4-218.8z M99.9-234.8c-0.2,0-0.4,0-0.7-0.1c-2.4-0.5-2.5-2.6-2.3-3.9
				c-1.3,0-1.8,0.4-2,1.1c-0.7,2,0.2,3.1,2,4.7c1.3,1,2.3,2.4,3,3.9c1,2.5,2.5,2.9,4.3,3.4c0.6,0.2,1.2,0.4,1.8,0.6
				c-0.4-1-0.4-2-0.1-3c-0.9,0.4-2,0.5-3,0.3l-0.7-0.2c-1.8-0.7-3.1-2.4-3-4.4C99.2-233.3,99.4-234.1,99.9-234.8L99.9-234.8z
				 M104.4-232.4c-0.4,0.8-0.5,1.8-0.3,2.7c0,0.1,0.1,0.2,0.1,0.3c0.4,0,0.8-0.1,1.2-0.3c0.6-0.3,1.1-0.9,1.3-1.5
				c0.2-0.9-0.1-1.9-0.8-2.6c-0.5-0.5-1.1-0.8-1.8-1c-0.5-0.1-1-0.1-1.5,0l0,0c-1,0.3-1.7,1.3-1.7,2.4c0,1,0.5,2,1.4,2.6
				c-0.1-1.1,0.1-2.1,0.5-3.1c0.1-0.4,0.6-0.7,1.1-0.5C104.3-233.3,104.6-232.8,104.4-232.4C104.4-232.5,104.4-232.5,104.4-232.4
				L104.4-232.4z M109.6-233.4c1.1-0.3,3.2,0.2,5.9,1.3c-2.2-1.3-4.5-2.3-6.9-3.1c-0.7-0.1-1.3-0.2-2-0.2c0.1,0.1,0.3,0.2,0.4,0.4
				c0.7,0.7,1.2,1.6,1.3,2.5C108.7-232.9,109.1-233.2,109.6-233.4L109.6-233.4z M102-242.9l-0.6,0.3l-2.3,2
				c-0.1,0.4-0.3,0.8-0.3,1.2v0.1c-0.4,1.9-0.2,2.6,0.8,2.8c1.2,0.2,2.4,0.2,3.6-0.2c1.9-0.5,3.8-0.5,5.7-0.1
				c3.3,0.7,9.1,4.2,13.8,7c1.4,0.8,2.7,1.6,3.7,2.1c-0.3-1.8-1.3-3.3-2.7-4.3c-1-0.8-2-1.5-3.1-2.1c-2.2-1.3-4.2-2.8-6-4.5
				c-1-1.1-1.9-2.3-2.6-3.6c-1.1-1.6-3.3-5-4.1-4.9c-0.3,0.3-0.6,0.6-0.9,0.9l0,0C105.5-244.9,103.8-243.8,102-242.9L102-242.9z
				 M108.2-212.9c0.2-3.2-0.1-6.4-1.1-9.4c-0.9-1-2-1.6-3.3-1.7c-2-0.6-4.2-1.2-5.5-4.4c-0.6-1.3-1.5-2.4-2.6-3.2
				c-1.7-1.6-3.5-3.4-2.4-6.6c0.7-2,2.7-2.2,4-2.2v-0.1c0-0.1,0-0.1,0-0.2c0-0.1,0.1-0.2,0.1-0.3v-0.2c0.1-0.3,0.3-0.6,0.4-0.8
				c0,0,0-0.1,0.1-0.1l0.2-0.3l0.1-0.1c0.1-0.1,0.2-0.2,0.3-0.3l0.1-0.1c0.2-0.1,0.3-0.3,0.5-0.4c0.6-0.4,1.2-0.7,1.9-1.1
				c0.4-0.2,0.7-0.4,1.1-0.6l0.3-0.2c0.3-0.2,0.5-0.3,0.8-0.5c0.1-0.1,0.3-0.2,0.4-0.3c0.2-0.1,0.5-0.3,0.7-0.5l0.5-0.4l0.4-0.3
				c-1.9-3.8-5.4-6.4-9.5-7.2c-0.9-0.2-1.8-0.3-2.7-0.4c-4.3-0.2-8.8,1.8-12.5,5.5c-3.3,3.4-5.8,7.2-6.7,15
				c-1.1,9.5,3.9,17.7,13.6,21.8c5.2,2.3,11,2.8,16.5,1.6C105.7-211,107.1-211.8,108.2-212.9L108.2-212.9z"/>
			<path class="st2" d="M202.7-309.9c0,0.1-0.1,0.3-0.3,0.4c-0.8,0.4-1.7,0.7-2.6,0.7c-3.4,0-7.2-2.9-10.7-5.5c-2.6-1.9-5-3.8-6.7-4
				c-1.4-0.3-2.8-0.6-4.1-1c-0.7,1.1-1.7,1.9-2.9,2.3c-0.3,0.1-0.6,0-0.7-0.2c-0.2-0.2-0.2-0.5,0-0.8c0.3-0.7,0.5-1.5,0.6-2.3
				l-2-0.7l-0.7-0.2c-0.7,0.9-1.5,1.7-2.5,2.3c-0.1,0.1-0.3,0.2-0.4,0.3c-0.1,0.1-0.1,0.3-0.1,0.4c-0.2,1.3-0.3,2.7-0.2,4
				c0,0.3-0.1,0.5-0.4,0.6c-0.1,0-0.2,0.1-0.2,0.1c-0.2,0-0.3-0.1-0.5-0.2c-1.4-1.3-2-3.3-1.7-5.2c-0.7,0.1-1.4,0-1.9-0.4l-0.3-0.3
				c-0.1-0.1-0.3-0.2-0.5-0.3c0,0,0,0.1-0.1,0.4l-0.9,3.6c-0.1,0.2-0.2,0.4-0.4,0.5c-0.1,0-0.1,0-0.2,0c-0.2,0-0.3-0.1-0.4-0.2
				c-1.3-1.2-1.7-3.1-1.1-4.8l-0.3-0.4c-0.1-0.1-0.2-0.3-0.3-0.3s-0.3,0-0.4,0.2c-0.2,0.3-0.3,0.5-0.4,0.8c-0.2,0.7-0.4,1.4-0.6,2.1
				c-0.1,0.3-0.3,0.4-0.6,0.5H158c-0.2,0-0.5-0.1-0.6-0.3c-0.7-1.3-0.6-2.8,0.1-4.1c0.3-0.5,0.6-0.9,1-1.2c0.9-0.7,1.9-1.1,3-1.1
				l-0.4-0.7c-0.2-0.4-0.5-0.7-0.7-1l-2-2.9c-3.8-5.4-7.7-10.9-10-17.1c-2-5.6-4-14.2-1.3-22.8c0.2-0.8,0.5-1.6,0.9-2.4
				c-1.5-1.7-1.1-7-0.9-8.5c0-0.2,0.2-0.4,0.3-0.5c0.2-0.1,0.4-0.1,0.6,0c5.4,2.6,5.6,2.7,5.7,2.9c0.1,0.2,0.3,0.4,0.3,0.6
				c0.8-0.3,1.6-0.5,2.4-0.6c2.3-0.5,4.6-0.5,6.9,0c0-0.1,0-0.2,0-0.2c0.2-1,0.4-1.7,0.5-2.2c0.4-1.3,1.5-1.8,2.8-2.4l0.8-0.4
				c0.2-0.1,0.3-0.1,0.5,0s0.3,0.2,0.4,0.3l0.2,0.4c0.9,1.4,1.4,3,1.6,4.7c0,1.5-0.6,2.8-1.7,3.8c0.7,1.1,1.4,2.3,2,3.5
				c1.6,3.3,3.2,6.4,5.7,8.3c1.1,0.8,2.2,1.4,3.5,1.8c0.7,0.3,1.5,0.6,2.2,1c3.8,2.2,7,5.5,9,9.4s3.6,7.9,4.8,12.1
				c0.9,2.9,1.5,5.8,2,8.8c0.5,2.9,1.1,5.8,2,8.6c0.3,0.9,0.7,1.8,1.1,2.6C201.9-314.5,203.3-311.6,202.7-309.9z M167.5-372.3
				l-0.5,0.4c1.1,1.2,1.4,2.8,1.6,4.9c0.2,1.9,0,3.9-0.5,5.8c1.9-0.4,3.8-0.5,5.7-0.5c-1.9-2.2-3.4-4.7-4.6-7.4
				C168.7-370.1,168.1-371.2,167.5-372.3z M154.3-375.3v0.2c0,0.8,0.2,1.7,0.6,2.4v0.1c1.6,0.7,3,2.9,4.3,5.2v-0.1
				c0.7-2.4,1.6-5.2,3.1-6c0.3-0.9,0.6-1.8,0.8-2.7c-2.1-0.4-4.3-0.4-6.4,0c-0.8,0.1-1.6,0.4-2.4,0.7L154.3-375.3L154.3-375.3z
				 M161.1-367.7c0-0.1,0-0.2,0.1-0.3c-0.2,0-0.3,0.1-0.4,0.1c-0.1,0.3-0.2,0.7-0.3,1c0,0.1,0,0.1-0.1,0.2c0.2,0.8,0.9,1.3,1.7,1.4
				c1.4,0.2,2.8-0.8,3-2.3c0-0.1,0-0.2,0-0.2c-0.2,0-1.4,0-1.7-0.1L163-368c0,0.1,0.1,0.2,0.1,0.4c0,0.6-0.4,1-1,1
				C161.6-366.7,161.1-367.1,161.1-367.7L161.1-367.7z M155.4-367.5c0-0.1,0-0.2,0.1-0.4c-0.8,0-1.6,0.1-2.4,0.1
				c-0.1,0.8,0.2,1.7,0.8,2.3c0.7,0.3,1.5,0.4,2.3,0.2c1.4-0.3,1.8-1.1,1.9-1.3c-0.2-0.3-0.4-0.7-0.6-1.1l-0.2-0.1
				c0,0.1,0,0.1,0,0.2c0,0.6-0.4,1-1,1C155.8-366.6,155.4-367,155.4-367.5L155.4-367.5z M147.6-354.2c1.2-1.7,3-4.4,3.1-5.8
				c-0.1-1.1-0.4-2.1-0.9-3c-0.6-1.1-0.9-2.3-1-3.5c0.1-1,0.4-2.1,1-2.9l-0.9-0.8c-0.3,0.6-0.5,1.3-0.7,1.9
				C147-363.7,146.8-358.9,147.6-354.2z M161.4-326.8c0.3,0.4,0.5,0.8,0.8,1.1c0.3,0.5,0.6,0.9,0.9,1.4c0.6,0.1,1.1,0.2,1.7,0.3
				c0.1,0,0.1,0.1,0.2,0.1c1.2-0.4,2.4-0.6,3.7-0.6c0.2-0.3,0.5-0.6,0.9-0.9c0.7-0.4,1.5-0.5,2.3-0.3c0-0.1,1.3-1.1,2-1.6
				s1.4-1.1,1.9-1.4c-5.7-5.1-11.4-10.7-13-14c-1.4-2.9-2.8-10.8-1-15c0.5-1.3,1.5-2.3,2.9-2.7c0.6-0.2,1.3-0.4,2.1-0.5
				c0.6-1.9,0.8-3.9,0.6-5.9c-0.4-3.5-1-4.7-3.7-5.4c-0.9-0.2-1.7,1.2-2.3,2.8c0.8,0,1.6,0,2.3,0.2c0.4,0,1.8,0.1,2.2,0.1
				c0.2,0,0.3,0.1,0.4,0.2c0.1,0.1,0.2,0.3,0.2,0.5c0,2.4-1.9,4.3-4.2,4.4h-0.1c-0.3,0-0.5,0-0.8-0.1c0,0.4,0.1,0.8,0,1.2
				c-0.1,1.2-0.4,2.3-1,3.4c-0.1,0.2-0.3,0.4-0.6,0.4l0,0c-0.3,0-0.5-0.2-0.6-0.4c-0.3-0.8-0.5-1.6-0.7-2.4
				c-0.2-0.6-0.3-1.2-0.3-1.8l0,0c0-0.2,0-0.5,0.1-0.7c-0.5,0.4-1.1,0.6-1.7,0.7c-0.2,0.1-0.5,0.1-0.7,0.1c-0.9,0-1.8-0.2-2.7-0.6
				c-1-0.9-1.5-2.3-1.3-3.6c0-0.3,0.2-0.6,0.4-0.7c1.4-0.4,2.9-0.5,4.4-0.3c-0.5-1-1.4-1.8-2.4-2.3c-0.6,0-1.2,0.2-1.6,0.6
				c-0.5,0.4-1,0.9-1.3,1.4l-0.1,0.3c-0.6,0.8-0.9,1.7-1,2.6c0.1,1,0.4,2,0.9,2.9c0.6,1.1,1,2.4,1,3.7c-0.2,2.3-3.6,6.7-4.1,7.4
				c0.4,2.1,1,4.1,1.8,6.1c2.2,5.9,6,11.4,9.8,16.8C160.1-328.7,160.8-327.8,161.4-326.8z M161.3-321.5c0.1-0.1,0.2-0.2,0.3-0.3
				c0.5-0.4,1-0.8,1.5-1.1c-1.3-0.2-2.6,0-3.7,0.6c0.3-0.1,0.7-0.1,1,0.1C160.7-322,161-321.8,161.3-321.5L161.3-321.5z
				 M167.4-320.9c0.1-0.3,0.2-0.7,0.2-1.1c0-0.2,0.1-0.5,0.1-0.7c0.1-0.2,0.1-0.3,0.2-0.5c-2,0.1-3.9,0.9-5.4,2.2
				c-0.2,0.1-0.3,0.3-0.5,0.5c-0.1,0.1-0.1,0.2-0.2,0.2c-0.1,0.2-0.2,0.3-0.2,0.5c-0.2,0.7-0.1,1.4,0.2,2.1l0.6-2.2
				c0.1-0.5,0.4-1,0.8-1.2c0.6-0.2,1.3,0,1.8,0.5l0.3,0.2c0.4,0.2,0.9,0.3,1.3,0.2c0.2-0.1,0.4-0.1,0.6-0.2
				C167.3-320.6,167.4-320.7,167.4-320.9z M172.1-322.9c0.2-0.5,0.6-0.9,1.1-1.2c-0.4,0-0.8-0.1-1.2-0.2h-0.2
				c-0.3-0.1-0.6-0.1-0.9-0.1c-0.3,0-0.5,0.1-0.8,0.2l0,0c-0.1,0.1-0.3,0.2-0.4,0.3c-0.2,0.2-0.4,0.5-0.5,0.7
				c-0.1,0.3-0.2,0.5-0.3,0.8c0,0.2-0.1,0.4-0.1,0.6c-0.1,0.3-0.1,0.6-0.2,0.9c0,0.2-0.1,0.4-0.2,0.5c-0.1,0.3-0.3,0.5-0.4,0.7
				c0,0.1-0.1,0.1-0.1,0.2s-0.1,0.1-0.1,0.2c-0.4,0.9-0.4,2,0,2.9c0-0.7,0.1-1.3,0.2-2c0-0.4,0.2-0.7,0.4-1c0.2-0.2,0.4-0.4,0.7-0.6
				C170.5-320.6,171.5-321.7,172.1-322.9L172.1-322.9z M173.7-322.1l1.7,0.5c0-0.2,0-0.4-0.1-0.5c0-0.2-0.2-0.5-0.4-0.6
				c-0.4-0.1-0.9-0.1-1.3-0.1c-0.1,0.1-0.2,0.3-0.3,0.5l0,0L173.7-322.1z M176.3-319c0.6-0.6,1.1-1.2,1.5-2c0.3-0.9,0.3-1.9,0-2.8
				c-0.4-0.9-0.5-1.2-1.1-1.2c-0.4,0.1-0.8,0.3-1.2,0.5c-0.3,0.2-0.7,0.3-1.1,0.4L174-324h0.1c0.5,0,0.9,0.1,1.4,0.2
				c0.6,0.3,1,0.9,1.1,1.5C176.7-321.2,176.6-320.1,176.3-319z"/>
			<path class="st3" d="M210.8-270.3c-1.1,5.6-7.3,6.8-12.6,5.4H198l-0.5,0.7c-1.3,1.8-3.8,5.3-4.7,8.8c-0.6,2.6-2.7,4.5-6.3,5.9
				c-0.1,0-0.1,0-0.2,0c-0.2,0-0.4-0.1-0.6-0.3c-0.2-0.3-0.2-0.6-0.1-0.9c0.5-1.4,0.6-2.9,0.3-4.3c-0.1-0.4-0.1-0.8-0.1-1.2
				c0.1-1,0.5-2,1.1-2.9l0,0c-0.8,0.2-1.7,0.4-2.6,0.6c-2.7,0.5-5.3,1.3-7.9,2.3c-0.1,0-0.2,0.1-0.2,0c-0.3,0-0.6-0.2-0.7-0.6
				c-0.2-0.4,0-0.9,0.4-1.1c1-0.5,1.7-1.4,2.1-2.4c0.6-1.3,1.7-2.4,3-3c1.2-0.5,3-2.5,4.7-4.6c-1.8,0.7-3.6,1.6-5.2,2.7
				c-3.3,2.1-11.2,3-14.6,2.1c-0.9-0.1-1.6-0.6-2-1.4c-0.2-0.9,0-1.8,0.6-2.5c0.2-0.4,0.4-0.8,0.6-1.3l-0.9,0.4
				c-3,1.4-5.2,2.4-8.9,1.5l-1-0.2c-3.6-0.8-4.8-1.2-5.2-2.1c-0.1-0.3-0.1-0.7,0-1c0.2-0.6,0.9-2.3,8.7-5.1l0.2-0.1
				c3.3-1.5,4.8-3.6,6.9-6.7c-4,1.4-10.2,1.8-15.5,2.1c-3.6,0.2-6.7,0.4-7.9,0.9c-0.4,0.1-0.8-0.1-0.9-0.4c-0.1-0.4-0.1-0.8,0.2-1.1
				c2.4-2.3,4.5-4.7,6.5-7.4c3.3-4.1,6.6-8.3,9.2-10c3.2-2.1,9.7-3.9,13.7-2c1.5,0.7,2.5,2,2.9,3.6c0.4,1.9,2.7,4.3,6.1,6.8
				c-0.4-2.4-1.1-4.2-2.6-5.2c-0.9-0.5-2.9-4.1-4.1-5.5c-1.2-1.6-3-2.7-5-2.7c-0.3-0.1-0.6-0.3-0.6-0.6c-0.1-0.3,0-0.7,0.3-0.9
				c0.7-0.6,1.3-1.3,1.8-2c0.5-0.7,1-1.5,2-1.3c3.8,0.8,6.2,1.3,9.8,3.5c2.5,1.5,4.6,3.6,6.3,6.1c0.3,0.5,0.7,1,1.2,1.5
				c2,1.8,3.9,4.2,2.5,8.5c-0.3,0.9-0.7,1.8-1.1,2.6c-0.3,0.5-0.5,1.1-0.6,1.6c2.7,2.8,8.2,4.1,11.2,4.9c0.8,0.2,1.4,0.4,1.8,0.5
				c3.1,1,5.1,3.2,6.9,5.1c0.6,0.6,1.2,1.3,1.8,1.8C210.8-271,210.9-270.6,210.8-270.3z M180.8-287.5c2.1,1.4,4.3,2.8,6.5,4
				c0.1-0.9,0.4-1.7,0.8-2.5c0.4-0.8,0.7-1.6,1-2.4c0.9-2.6,0.3-4.3-2-6.4c-0.5-0.5-1-1.1-1.4-1.7c-1.5-2.3-3.5-4.2-5.8-5.6
				c-3.5-2.1-5.7-2.6-9.4-3.3c-0.1,0-0.2,0-0.7,0.7c-0.3,0.4-0.6,0.8-0.9,1.2c1.9,0.9,2.8,0.8,4.5,2.8c1.1,1.3,3,4.8,3.7,5.2
				C179.6-294,180.3-291,180.8-287.5L180.8-287.5z M166.9-284.5c0,0,0-0.9,0-3.3c0.2-3.3,1.7-6.4,4.1-8.7c-0.4-0.5-0.9-1-1.5-1.3
				c-3.2-1.6-9.1-0.3-12.4,1.9c-2.4,1.6-5.7,5.7-8.9,9.7c-1.6,2-3.2,4-4.6,5.6c1.5-0.2,3.4-0.3,5.6-0.4
				C155.7-281.5,164.5-282,166.9-284.5L166.9-284.5z M185.7-269.5c-4.7-2.1-15-7.6-18-13.4c-0.6,0.8-1.1,1.6-1.6,2.3
				c-2.3,3.4-4,5.9-7.8,7.6l-0.3,0.1c-5,1.8-6.8,3-7.4,3.7c1.2,0.4,2.5,0.7,3.8,1l1,0.2c3.4,0.8,5.3-0.1,8.1-1.4
				c0.7-0.3,1.6-0.7,2.4-1.1c0.3-0.1,0.5,0,0.7,0.2c0.2,0.2,0.3,0.5,0.2,0.8c-0.3,1.2-0.7,2.4-1.3,3.5c-0.2,0.3-0.3,0.7-0.4,1
				c0.3,0.2,0.6,0.3,1,0.4c3.4,0.9,10.8-0.2,13.6-1.9C181.7-267.8,183.7-268.8,185.7-269.5L185.7-269.5z M195.7-264.5
				c-1.3,0.6-2.4,1.4-3.5,2.3c-0.7,0.5-1.4,1.1-2.4,1.7l-0.2,0.1l0,0c-1.1,1.4-2.3,3.4-2.3,4.1c0,0.3,0,0.6,0.1,0.9
				c0.2,1.2,0.2,2.3,0,3.5c2.3-1.1,3.6-2.4,4-4.1C192.3-259.1,193.8-262,195.7-264.5L195.7-264.5z M197.7-264.9L197.7-264.9z
				 M197.9-266.7c-0.4-1-1.1-2-2.1-2s-1.7-3.4-3-3.2c-1.9,0.3-5.9,5-5.9,5c-2,2.4-3.9,4.6-5.5,5.2c-1,0.5-1.8,1.4-2.2,2.4L179-259
				c1.9-0.6,3.6-1,5-1.3c1.8-0.2,3.5-0.8,5.1-1.8l2.4-1.7C194.4-265.9,195.5-266.7,197.9-266.7L197.9-266.7z M206.4-272.4
				c-0.1,0.5-0.6,0.9-1.1,0.9c-0.6,0-1.1-0.5-1.1-1.1c0-0.2,0.1-0.4,0.2-0.6c-0.8,0.2-1.3,0.9-1.1,1.7c0,0.2,0.1,0.4,0.2,0.5
				c0.6,0.8,1.7,1.1,2.6,0.5c0.1-0.1,0.2-0.2,0.3-0.3C206.7-271.3,206.7-271.9,206.4-272.4L206.4-272.4z"/>
			<path class="st4" d="M280.8-285.3c-0.1,0.5-0.5,0.8-1,0.7l0,0c-3.3-0.4-9.5-2.8-12.1-4.3c-2.1-1.2-4.1-2.2-5.9-3
				c5.2,3.9,9.3,9,11.8,15c0.2,0.4,0,0.9-0.5,1.1c-0.3,0.1-0.7,0-1-0.2c-4.2-5.1-9.1-10.6-15.1-14.5c4.2,3.9,7.8,8.5,10.5,13.5
				c0.2,0.4,0,0.9-0.4,1.1c-0.3,0.2-0.8,0.1-1-0.2c-3-3.5-6.2-6.7-9.6-9.8c2,4.9,2.8,10.1,2.5,15.4c0,0.4-0.3,0.7-0.7,0.8
				c-0.4,0.1-0.8-0.1-0.9-0.4c-1.4-2.8-2.4-5.7-3-8.8c-0.4-2-1-4-1.7-6c0.7,6.7-1.4,13.4-5.7,18.6c-0.2,0.2-0.5,0.3-0.8,0.3
				c-0.1,0-0.1,0-0.2-0.1c-0.3-0.2-0.5-0.5-0.5-0.9c0.5-2.7,1.1-5.4,1.9-8c0.2-0.7,0.4-1.3,0.6-2c-1,0.5-2,0.9-3.1,1.1
				c-4,0.9-8.1,0.9-12.1,0c-1.8-0.4-3.6-1-5.4-1.7c-10.1-4.3-15.7-13.4-14.5-23.6c1-8.7,4.1-12.8,7.2-15.9c4-4,9-6.2,13.8-6
				c5.6,0.1,10.7,3.2,13.4,8.1c0.3-0.4,0.8-0.5,1.3-0.5c1.6,0.1,3.1,2.2,5.4,5.7c0.7,1.2,1.5,2.3,2.4,3.4c1.7,1.7,3.6,3.1,5.7,4.4
				c1.1,0.7,2.2,1.4,3.3,2.2c2.1,1.6,3.1,3.1,3.6,7.1c0,0.1,0,0.3-0.1,0.4c2,1.1,4.1,2.2,6.2,3.4c2.5,1.4,4.8,2.6,5.2,2.8
				C280.6-286.2,280.9-285.8,280.8-285.3L280.8-285.3z M240.3-301.3c-0.2,0-0.4,0-0.7-0.1c-2.4-0.5-2.5-2.6-2.3-3.9
				c-1.3,0-1.8,0.4-2,1.1c-0.7,2,0.2,3,2,4.7c1.3,1,2.3,2.4,3,3.9c1,2.5,2.5,2.9,4.3,3.4c0.6,0.2,1.2,0.4,1.8,0.6
				c-0.4-1-0.4-2-0.1-3c-0.9,0.4-2,0.5-3,0.3c-0.2-0.1-0.4-0.1-0.7-0.2c-1.8-0.7-3.1-2.4-3-4.4C239.7-299.7,239.9-300.6,240.3-301.3
				L240.3-301.3z M244.8-298.9c-0.4,0.8-0.5,1.8-0.3,2.7c0,0.1,0.1,0.2,0.1,0.3c0.4,0,0.8-0.1,1.2-0.3c0.6-0.3,1.1-0.9,1.3-1.5
				c0.2-0.9-0.1-1.9-0.8-2.6c-0.5-0.5-1.1-0.8-1.8-1c-0.5-0.1-1-0.1-1.5,0l0,0c-1,0.3-1.7,1.3-1.7,2.4c0,1,0.5,2,1.4,2.6
				c-0.1-1.1,0.1-2.2,0.5-3.2c0.1-0.4,0.6-0.7,1.1-0.5C244.7-299.9,245-299.4,244.8-298.9C244.8-299,244.8-299,244.8-298.9
				L244.8-298.9z M250-299.9c1.1-0.3,3.2,0.2,5.9,1.3c-2.2-1.3-4.5-2.3-6.9-3.1c-0.6-0.1-1.3-0.2-1.9-0.2c0.1,0.1,0.3,0.2,0.4,0.4
				c0.7,0.7,1.2,1.6,1.3,2.5C249.1-299.4,249.5-299.7,250-299.9L250-299.9z M242.4-309.4l-0.6,0.3l-2.3,2c-0.1,0.4-0.2,0.8-0.3,1.2
				v0.1c-0.4,1.9-0.2,2.6,0.9,2.8c1.2,0.2,2.4,0.2,3.6-0.2c1.9-0.5,3.8-0.5,5.7-0.1c3.3,0.7,9.1,4.2,13.8,7c1.4,0.8,2.7,1.6,3.7,2.1
				c-0.3-1.8-1.2-3.3-2.7-4.3c-1-0.8-2-1.5-3.1-2.1c-2.2-1.3-4.2-2.8-6-4.5c-1-1.1-1.9-2.3-2.6-3.6c-1.1-1.6-3.3-5-4.1-4.9
				c-0.3,0.3-0.6,0.6-0.9,0.9l0,0C245.9-311.4,244.2-310.3,242.4-309.4z M248.6-279.4c0.2-3.2-0.1-6.4-1.1-9.4c-0.8-1-2-1.6-3.3-1.8
				c-2-0.5-4.2-1.2-5.5-4.4c-0.6-1.3-1.5-2.4-2.6-3.2c-1.7-1.6-3.6-3.4-2.4-6.5c0.7-2,2.7-2.2,3.9-2.2v-0.1c0-0.1,0-0.1,0.1-0.2
				c0-0.1,0.1-0.2,0.1-0.3s0-0.1,0.1-0.2c0.1-0.3,0.3-0.6,0.4-0.8l0.1-0.1c0.1-0.1,0.1-0.2,0.2-0.3l0.1-0.1c0.1-0.1,0.2-0.2,0.3-0.3
				l0.1-0.1c0.2-0.1,0.3-0.3,0.5-0.4c0.6-0.4,1.2-0.7,1.9-1.1c0.4-0.2,0.7-0.4,1.1-0.6l0.3-0.2c0.3-0.2,0.5-0.3,0.8-0.5
				c0.1-0.1,0.3-0.2,0.4-0.3s0.5-0.3,0.7-0.5l0.5-0.4l0.4-0.4c-1.9-3.8-5.4-6.4-9.5-7.2c-0.9-0.2-1.8-0.3-2.8-0.3
				c-4.3-0.2-8.8,1.8-12.5,5.5c-3.3,3.4-5.7,7.2-6.7,15c-1.1,9.5,3.9,17.7,13.6,21.8c5.2,2.3,11,2.8,16.5,1.6
				C246.1-277.5,247.5-278.3,248.6-279.4L248.6-279.4z"/>
		</g>
	</g>
</pattern>
<rect class="st5" width="320" height="320"/>
<pattern  id="SVGID_2_" xlink:href="#SVGID_1_" patternTransform="matrix(1 0 0 1 -108.56 16638.9609)">
</pattern>
<rect x="10" y="10" class="st6" width="300" height="300"/>
</svg>
