<?xml version="1.0" encoding="utf-8"?>
<!-- Generator: Adobe Illustrator 24.1.2, SVG Export Plug-In . SVG Version: 6.00 Build 0)  -->
<svg version="1.1" id="Chipper_vectorizer_Image" xmlns="http://www.w3.org/2000/svg" xmlns:xlink="http://www.w3.org/1999/xlink"
	 x="0px" y="0px" viewBox="0 0 300 300" style="enable-background:new 0 0 300 300;" xml:space="preserve">
<style type="text/css">
	.st0{fill:#FAC5D2;stroke:#FAC4D2;stroke-miterlimit:10;}
	.st1{fill:#D1904C;}
	.st2{fill:#282525;}
	.st3{fill:#8A7F6D;}
	.st4{fill:#FCF5DB;}
	.st5{fill:#DF2541;}
	.st6{fill:#B9B7BA;}
	.st7{fill:#E4E2E3;}
	.st8{fill:#505362;}
	.st9{fill:#FFFFFF;}
	.st10{fill:#FAC5D2;}
	.st11{fill:#FAC4D2;}
	.st12{fill:#D1904C;stroke:#D1904C;stroke-miterlimit:10;}
</style>
<rect class="st0" width="300" height="300"/>
<path class="st1" d="M223.3,168.3c-0.3-0.8-0.7-1.6-1.3-2.2l-4.8-6c-1.7-2.1-3.6-4.6-6.4-5.7c-3.2-1.3-6.6-0.6-10.5,0.3
	c-2.1,0.4-4.1,1.1-5.8,2.3c-0.8,0.6-1.4,1.3-2.1,2.1c-0.3,0.4-0.7,0.8-1,1.1c-1.8,1.7-3.8,3.1-6,4.2c-2.2,1.1-4.1,2.5-5.9,4.1
	c-3.1,3-3.2,7-3.4,10.9c-0.1,1.2-0.1,2.4-0.2,3.5c-0.2,1.7-0.2,3.6-0.3,5.3c0,1.4-0.1,2.9-0.2,4.2c-0.3,3.8-0.5,7.6,0.8,11.5
	c0.8,2.7,1.8,5.7,3.9,7.9c2.3,2.5,5.4,4.2,8.3,5.9c2.2,1.2,4.3,2.5,6.3,4c1.3,1,2.7,1.8,4.1,2.4c1,0.5,2,1,3,1.6
	c1,0.6,2.2,1,3.4,0.9c0.7,0,1.4-0.1,2-0.3c1.1-0.4,1.9-1.2,2.2-2.3v-0.1l-0.1-0.1c-3.1-3-5.5-6.5-7.3-10.3c-0.3-0.5-0.5-1.2-0.4-1.8
	c0.2-0.8,0.6-1.5,1.3-2.1l14.2-14.6c1.8-1.8,3.8-3.9,4.5-6.5c0.6-2.1,1-4.3,1.1-6.6c0-1.5,0.2-2.9,0.3-4.3c0.3-2,0.3-4.1,0.1-6.2
	c0-0.5,0-0.9,0.1-1.4C223.4,169.5,223.4,168.9,223.3,168.3z"/>
<path class="st2" d="M224.1,159.8c-0.4-1.9-0.6-3.9-0.7-5.9c0-1.6-1.4-2-2.8-2.4c-0.8-0.2-1.5-0.5-2.2-0.9c-1.9-1.4-3.8-2.6-5.9-3.5
	c-2-0.9-4.1-1.7-6.2-2.4l-2.1-0.7c-14.1-5-28-9.6-42.1-9.6H162c-13.4,0-26.7,2.2-37.5,6c-1,0.4-3.5,0.2-6.2,0.1
	c-3.6-0.2-7.2-0.4-8.5,0.6c-0.2,0.2-0.4,0.4-0.4,0.7c-0.1,0.8,0.7,1.8,1.6,2.9c0.7,0.9,1.5,1.9,1.4,2.4c0,0.1-0.1,0.2-0.2,0.3
	c-0.8,0.4-1.8,0.6-2.7,0.6c-0.7,0-1.3,0.1-2,0.2c-4.9,1.3-5.8,7-6.3,10.8c-1.2,8.8-3,17.5-5.4,26c-0.1,0.2-4,19-1.7,20.1
	c1.5,0.4,3.1,0.6,4.7,0.5c11.6,0,40.8-4.1,53.2-16.2c1-1,2-2.1,2.9-3.3c0.5-0.6,0.9-1.2,1.4-1.8c2.1-2.4,5.7-0.4,9.4,1.8
	s7.6,4.4,10.4,2.3c1.8-1.3,2.8-5.7,3.9-10.3c1.1-4.9,2.3-9.9,4.4-10.8c0.9-0.4,1.9-0.7,2.9-0.9c2.9-0.4,5.4-2,7-4.5
	c0.4-0.5,0.9-1,1.3-1.5c5.2-5.3,13.6-5.9,19.5-1.4c4.4,3.5,6.3,9,8.2,15.3l0.3,0.8l0.2-0.9c0.8-2.9,1.2-5.8,1.2-8.8
	C224.8,163.6,224.5,161.7,224.1,159.8z"/>
<path class="st3" d="M115.3,142.1c-0.2-0.2-0.4-0.3-0.7-0.4c-0.9-0.3-1.9-0.4-2.8-0.6c-0.6-0.1-1.2-0.2-1.8-0.3
	c-0.8-0.2-1.6-0.4-2.3-0.6l-1.3-0.4l-0.5-0.1c-0.9-0.3-2.1-0.7-2.9-0.4c-0.4,0.2-0.7,0.6-0.9,1c-0.8,2.4,0.2,5.1,2.4,6.4l2.9,2.3
	c0.4,0.3,0.8,0.6,1.3,0.8c0.2,0.1,0.4,0.1,0.6,0.1c0.6,0,1.2-0.2,1.7-0.6c0.6-0.5,1.1-1,1.5-1.6l2.6-3.4
	C115.7,143.4,115.8,142.6,115.3,142.1z"/>
<path class="st3" d="M102.5,142.2c-0.3-0.5-0.7-0.9-1.2-1.2c-1.5-0.8-3.2,0.5-3.8,1.1c-1.4,1.3-2.5,2.8-3.6,4.4
	c-1.2,1.8-2.4,3.8-2.1,5.9c0.1,0.7,0.4,1.3,0.9,1.9c0.7,0.7,1.7,0.9,2.6,0.5c0.5-0.1,0.9-0.2,1.4-0.1c0.2,0,0.3,0.1,0.4,0.3
	c0.3,0.5,0.1,1.4-0.1,2.2c-0.1,0.2-0.1,0.5-0.2,0.7c-0.4,2-0.9,4.1-1.4,6c-0.3,1.2-0.7,2.5-1,3.8c-0.8,3.6-1.8,9-0.1,13.8
	c0.3,0.9,0.8,1.8,1.4,2.5c1.1,1,2.4,2.2,3.3,2.2c0.1,0,0.2,0,0.2,0c1.2-0.3,1.4-2.3,1.5-3.7c0-0.2,0-0.5,0-0.6
	c0.1-1.3,0-2.6-0.3-3.9c-0.1-0.5-0.3-1-0.5-1.4c-0.5-1-0.7-2-0.6-3.1c0.1-0.9,0.4-1.8,0.8-2.6c0.3-0.8,0.8-1.9,1.4-3.8
	c0.3-0.9,0.4-1.7,0.6-2.6c0.1-1.1,0.4-2.1,0.7-3.1c0.2-0.7,0.6-1.3,0.9-1.9s0.5-1.1,0.7-1.6C106.4,152.7,105.8,146.8,102.5,142.2z"
	/>
<path class="st3" d="M96.1,136.6c-0.3-1.2-1-2.3-1.9-3l0,0c0,0-1.5-0.8-2.1-0.5c-0.2,0.1-0.3,0.2-0.3,0.4c-0.1,0.5,0.4,1.3,1.1,2.3
	c0.2,0.2,0.3,0.5,0.4,0.6c0.2,0.3,0.3,0.6,0.3,0.9c0,0.3,0,0.6-0.2,0.9c-0.3,1.4-0.9,2.7-1.8,3.8v0.1c-0.3,0.3-0.5,0.6-0.5,1v0.4
	l0.4-0.2c1.8-1.2,3.3-2.7,4.5-4.4c0.2-0.3,0.4-0.6,0.4-1C96.3,137.3,96.3,136.9,96.1,136.6z"/>
<path class="st2" d="M108.3,147.9c-0.6-0.7-1.8-2-1.9-2.1h-0.1c-0.3-0.3-0.7-0.5-1-0.8c-0.6-0.4-1-1.1-1.2-1.8c0-0.3,0-0.7-0.1-1
	c0-0.5-0.1-1-0.2-1.5c-0.4-1.4-1.4-2.6-2.8-3.2c-1.3-0.6-2.9-1.5-4.2-1.1c-2.3,0.6-5.3,6.3-9.2,8.7c-0.5,0.6-0.9,1.3-1.1,2.1
	c-0.1,0.3-0.1,0.6,0,0.9l0.7,5.2l1.8-1.2c0.1,0.3,0.2,0.6,0.2,0.9c0,0.3,0.1,0.5,0.2,0.8c0.2,0.7,0.7,1.2,1.4,1.3h0.2
	c0.6-0.2,1.1-0.7,1.3-1.3l0.6-1.3c1.2-2.6,2.5-5.3,4.7-7.1l0.6-0.5c0.5-0.4,1-0.8,1.4-1.2l0,0c0.3-0.3,0.5-0.6,0.7-1
	c0.2,0.5,0.3,1,0.3,1.4c0,0.3,0.1,0.6,0.1,0.8c0.3,1.6,1.6,6.1,2.8,7.8c0.4,0.8,1.3,1.2,2.2,1.2c1.9-0.1,3.6-2.8,4-3.7
	C110.1,150.1,110.2,150,108.3,147.9z"/>
<path class="st3" d="M88.4,148.8c-0.1-0.1-0.2-0.2-0.2-0.3c-0.4-0.7-1.1-1.1-1.9-1.1c-0.9,0-1.9,0.2-2.8,0.4h-0.1v0.1
	c0,0.3-0.1,0.6-0.1,0.8c-0.1,1.4-0.5,2.7-1.1,4c-0.2,0.4-0.5,0.8-0.8,1.2c-0.9,1-1.4,2.3-1.4,3.7c0,0.5,0.2,1,0.5,1.3
	c0,0.1,0.1,0.2,0.1,0.3c0.1,0.4,0.1,0.7,0.3,0.7l0,0c0.2,0,0.3-0.2,0.5-0.5c0.1-0.1,0.1-0.2,0.2-0.3c0.4-0.3,1-0.6,1.8-1.1l1-0.6
	c1.5-0.8,3-1.8,3.5-2.7c0.4-0.8,0.5-1.7,0.4-2.6c-0.2-0.8,0-1.7,0.3-2.4C88.9,149.4,88.6,149.1,88.4,148.8z"/>
<path class="st4" d="M93.1,208c-0.2-0.1-0.3-0.1-0.5,0c-1.4,0.7-3.3,1-4.1,0.2c-0.5-0.5-0.3-1.2,0.1-2c0.4-0.7,0.5-1.5,0.2-2.2
	c-0.1-0.2-0.2-0.4-0.3-0.6c-0.3-0.8-0.8-1.6-1.5-2.2l-1.4-0.8c-2.6-1.4-4.6-2.4-6.4-6c-0.5-1.2-0.6-2.5-0.2-3.7
	c0.1-0.8,0.1-1.6,0-2.4c0-0.5-0.1-1-0.1-1.3c0-0.5-0.3-1-0.6-1.4c-0.3-0.3-0.4-0.7-0.6-1.1c-1.2-5,0.7-10.4,2.3-14.8
	c0.8-2,1.4-4,1.7-6.1c0,0,0-0.1,0-0.1c-0.2-2.1-0.6-4.1-1.2-6.1c0,0,0-0.1,0-0.1c-0.8-1.3-0.4-2.1,0.2-3.2c0.4-0.6,0.7-1.3,0.9-1.9
	c0.1-0.4,0.3-0.9,0.4-1.3c0.4-1,0.6-1.7,0.4-2.1c-0.1-0.2-0.2-0.3-0.4-0.3c-0.8-0.2-1.6-0.2-2.3,0.2c-1.3,0.9-2.4,2.1-3.2,3.4
	c-0.4,0.5-0.8,1.1-1.3,1.7c-0.5,0.7-1,1.4-1.4,2.2c-0.5,1-1.2,2-2,2.8c-1.8,1.6-3.9,2.8-6.1,3.6c-2.5,1.1-5,2.2-6.7,4.2
	c-1.2,1.5-1.4,3-1.2,5c0.1,1.5,0.2,3,0,4.5c-0.1,0.7-0.1,1.5,0,2.2c0,0.6,0,1.2-0.1,1.7c-0.3,0.7-0.6,1.5-0.8,2.2
	c-0.1,0.6-0.1,1.2,0.1,1.8c0.6,1.9,1.4,2.8,3.1,4.3c1,0.9,2.1,1.8,3.2,2.6c1.6,1.2,3.2,2.5,4.6,4c1.8,2.2,3.4,4.5,4.7,7
	c1.1,2,2.4,4.3,2.7,6.7c0.1,1.7-0.1,3.5-0.5,5.2c-2.1,9.2-4,16.4-9.2,24.9c-0.2,0.3-0.4,0.7-0.7,1.2c-0.5,1.1-1.2,2.1-1.9,3
	c-0.5,0.3-0.9,0.5-1.5,0.7c-0.7,0.3-1.5,0.6-2.2,0.9c-0.5,0.2-1.1,0.3-1.6,0.4c-0.7,0-1.3,0.2-1.9,0.5c-1.3,0.9-3.3,3.7-3.4,5.4
	c-0.1,0.3,0,0.6,0.2,0.9c0.4,0.4,1.4,0.3,2.3,0.1c0.3-0.1,0.7-0.1,1-0.1c0.1,0,0.2,0,0.3-0.1l1-0.9c0.1-0.1,0.2-0.1,0.3,0
	c0.1,0.1,0.1,0.2,0.1,0.2c-0.1,0.5-0.1,0.9,0,1.4c0,0.1,0.1,0.2,0.2,0.3c0.6,0.4,1.2,0.6,1.9,0.6c0.3,0,0.7,0.1,1,0.2
	c0.3,0.1,0.6,0.1,0.8,0.1c0.5,0,0.9-0.2,1.3-0.5c0.1-0.1,0.3-0.2,0.4-0.3c0.8-0.3,1.5-0.5,2.4-0.7l0.4-0.1c1.2-0.2,2.2-1,2.7-2.1
	c0.2-0.4,0.5-0.9,1-1.5c2-2.9,2.5-3.6,4.1-3.9c0.2-0.1,0.5-0.2,0.6-0.3c0.8-0.8,0.8-1.1,0.6-1.9c-0.2-0.8-0.3-1.5-0.2-2.3
	c0-0.6,0.1-1.2,0.4-1.8c2-4.2,4.5-8.2,7.3-11.9c2.5-3.4,4.8-6.9,6.8-10.6c0.7-1.4,1.5-2.7,2.5-4c0.8-0.9,1.3-2,1.6-3.2
	C93.3,208.2,93.2,208.1,93.1,208z"/>
<path class="st1" d="M100,185.1c-0.3-1.2-1-2.4-1.9-3.3c-0.8-0.8-1.4-1.8-1.8-2.9c-0.1-0.8-0.1-1.7,0-2.5l2.1-18.8
	c0-0.4,0.1-0.9,0.2-1.4c0.3-1.8,0.6-3.8-0.1-4.7c-1.4-0.6-3.1-0.4-4.3,0.6c-0.5,0.4-0.9,0.6-1.3,0.9c-0.4,0.5-1.1,0.8-1.7,0.8
	c0.2-1.5,0.3-2.9,0.3-4.4c0-0.4-0.1-0.8-0.4-1.1c-0.6-0.4-1.2,0.2-1.6,0.8l-5.1,8c-0.4,0.5-1,0.8-1.6,0.8c-0.7,0.1-1.4,0.3-1.7,1.1
	c-0.3,1.2-0.6,2.5-0.7,3.7c-0.1,0.9-0.2,1.8-0.3,2.4c-0.1,0.4-0.2,1-0.3,1.5c-0.2,1.4-0.6,2.8-1,4.1c-0.4,1.1-0.8,2-1.2,2.9
	s-0.8,1.8-1.2,2.9c-0.8,2.8-0.7,5.8,0.3,8.5c0.3,0.7,0.4,1.5,0.5,2.3c-0.9,2.5-0.7,5.2,0.6,7.5c1.2,2.3,3.1,4.1,5.4,5.4l0.8,0.5
	c1.9,1.1,3.9,2.2,4.3,4.2c0,0.4,0,0.8,0,1.1c-0.2,0.7-0.1,1.4,0.1,2.1c0.3,0.4,0.8,0.7,1.4,0.7c0.2,0,0.3,0,0.5,0
	c1,0,2.1-0.3,2.9-0.9c0.6-0.5,0.6-1.6,0.7-3c0-1.3,0.1-2.6,0.4-3.9l0.1-0.3c0.3-1.3,0.9-2.5,1.8-3.5c0.5-0.7,1.1-1.3,1.7-1.9
	c0.5-0.4,0.9-1,1.1-1.6c0.3-0.9,0.4-1.8,0.3-2.8c0-0.9,0.1-1.8,0.3-2.7C99.9,187.3,100.1,186.2,100,185.1z"/>
<path class="st1" d="M173.3,181.4c-0.2-1.4-0.4-2.8-0.4-4.1v-0.1l-0.1-0.1c-2.6-2.8-4.5-2.3-6.5-1.6c-2.5,0.9-5,2-7.4,3.2
	c-2.4,1.3-3.3,2.5-4.6,5c-0.2,0.4-0.4,0.9-0.6,1.4c-0.4,1.1-0.7,2.1-1.6,2.2c-0.5,0-1.1-0.1-1.6-0.3c-2.4-1.1-5-1.8-7.6-1.9
	c-2.3,0.1-4.6,0.5-6.7,1.2c-3.7,0.9-7.2,2.2-10.6,3.8l-0.9,0.5c-1.4,0.9-3,1.5-4.7,1.7c-1.7,0-3.4-0.4-4.9-1.1l-0.7-0.2
	c-4.4-1.6-9.1-2.5-13.8-2.6c-0.5-0.1-1,0-1.4,0.2c-0.6,0.5-1,1.2-1,1.9l-1.2,6.5c-0.1,0.3-0.1,0.6-0.2,0.9c-0.3,1.3-0.8,3.2,0.1,4.1
	c1.3,1.4,4.3,1.6,7.1,1.6c0.9,0,1.8,0,2.5,0h1.5c0.6-0.1,1.2-0.2,1.8-0.5c0.5-0.2,0.9-0.4,1.4-0.5c1-0.1,1.9-0.3,2.8-0.7
	c5-1.9,9.8-4.4,14.3-7.4l0.2-0.1c1.8-1.4,4.1-2.1,6.3-2l5.4-0.2c0.7-0.1,1.5,0,2.1,0.3c1.1,0.6,1.4,2.2,1.4,3.6v0.5l0.4-0.3
	c5.1-4.1,11.4-6.4,17.9-6.4c0.5,0.1,0.9-0.1,1.2-0.4c0.4-0.6,0-1.3-0.6-1.7c-0.8-0.6-1.7-1.1-2.7-1.4c-0.2-0.1-0.5-0.2-0.6-0.3
	c0-0.1,0-0.2,0-0.3c0.2-0.4,0.5-0.6,0.9-0.8c1-0.4,2-1,3.1-1.6c3.2-1.8,6.5-3.6,9.4-1.8l0.5,0.3L173.3,181.4z"/>
<path class="st4" d="M144.2,193.6c-0.2-0.9-0.7-1.6-1.4-2.2c-0.6-0.3-1.2-0.4-1.9-0.3h-5.6c-1.9,0-4.4,0-6.3,1.2
	c-0.8,0.5-1.5,1.1-2.1,1.7c-0.4,0.4-0.8,0.7-1.2,1c-1,0.8-2.1,1.4-3.2,2c-5.4,2.9-12.1,6.6-19,5.9c-0.8-0.1-1.6-0.2-2.4-0.4
	c-0.5-0.1-1-0.2-1.5-0.2l-0.7-0.1c-1.1-0.2-2.7-0.5-3.5-0.1c-0.6,0.3-1.7,2.6-1.6,3.4c0,0.2,0.1,0.4,0.3,0.4l5.4,1.3
	c1.7,0.5,3.5,0.8,5.3,1c0.5,0,0.9,0,1.4,0c1.1,0,2.2-0.1,3.3-0.2c6-0.3,11.9-1.2,17.7-2.7c5.8-1.5,11.3-4.2,16-7.9
	c0.4-0.3,0.8-0.7,1.1-1.2C144.6,195.3,144.5,194.4,144.2,193.6z"/>
<path class="st3" d="M93,139.4c-0.4-1.6-0.5-2.2-0.5-2.5c0-0.3-0.1-0.6-0.2-0.9c-0.3-0.8-0.6-1.5-1-2.2l-0.1-0.3
	c-0.2-0.5-0.4-0.7-0.5-0.9c-0.3-0.4-0.5-0.9-0.6-1.3c-0.1-0.4-0.3-0.9-0.4-1.3c-0.1-0.8-0.4-1.6-0.8-2.3c-0.9-1.6-2.1-3.1-3.6-4.3
	c-0.3-0.2-0.6-0.4-0.8-0.7c-0.6-0.4-1.1-0.8-1.5-1.3c-0.7-0.7-1.1-1.6-0.9-2.6l-0.5-0.1c-0.4,1.1-0.9,2.1-1.4,3.1l-0.3,0.5
	c-0.1,0.3-0.4,0.6-0.7,0.8c-0.2,0.1-0.4,0.3-0.6,0.4c-0.1,0.1-0.2,0.2-0.2,0.2c-0.3,0.5-0.6,0.9-0.9,1.3c0,0.1-0.1,0.1-0.2,0.2
	c-0.2,0.4-0.5,0.8-0.9,1.1c-1.1,0.6-1.9,1.7-2.1,3c0,0.5,0,1,0,1.5c0,1.2-0.1,2.4-0.3,3.6c-0.2,0.9,0.8,1.5,1.7,2.1s1.7,1.1,1.7,1.8
	c-0.1,0.7-0.5,1.4-1,1.9c-0.4,0.4-0.7,0.8-0.9,1.3c-0.4,1.2-0.5,2.6-0.1,3.9c0.1,0.3,0.3,0.6,0.7,0.8c0.1,0.1,0.3,0.2,0.4,0.3
	c0.1,0.1,0.3,0.2,0.5,0.2c0.4,0,0.7-0.2,1-0.4c0.2-0.1,0.4-0.3,0.7-0.3c0.9-0.1,1.9-0.2,2.8-0.1c0.7,0.1,1.3,0.2,2,0.4
	c1,0.3,2,0.4,3,0.2c1.7-0.2,3.2-1.1,4.3-2.5c0.3-0.3,0.6-0.6,0.9-0.9c0.4-0.4,0.7-0.8,1.1-1.3C93,141.2,93.1,140.3,93,139.4z"/>
<path class="st1" d="M77.4,117.2c-0.2-0.3-0.4-0.6-0.7-0.8s-0.4-0.5-0.6-0.8c-0.6-0.9-1-1.9-1.3-3c-0.3-1.4-1-2.7-2-3.8l-0.3-0.2
	c-0.2-0.1-0.3-0.3-0.5-0.5c-0.4-0.5-0.6-1.1-0.7-1.8c-0.1-0.4-0.2-0.9-0.4-1.3c-0.7-1.3-1.8-2.4-3.1-3c-0.8-0.5-1.6-0.9-2.4-1.2
	c-0.2-0.1-2-0.6-2.7,0.2s-0.3,1.9,0,2.7l0.1,0.2c1.1,3.7,1.6,7.5,1.5,11.3v0.4c-0.1,0.7-0.1,1.5,0,2.2c0.1,0.4,0.1,0.9,0.2,1.3
	c0.1,0.3,0.1,0.6,0.2,0.9c0.2,1.5,0.2,3,0,4.5c0,0.4,0,0.9-0.1,1.3c-0.2,2,0.2,4,1,5.8c0.1,0.3,0.3,0.5,0.5,0.8
	c0.2,0.3,0.4,0.6,0.6,0.9c0.3,0.7,0.6,1.5,0.7,2.3l0.1,0.3c0.4,1.7,0.9,3.4,1.5,5.1c0.1,0.4,0.3,0.7,0.6,1c0.3,0.3,0.7,0.5,1.2,0.6
	c0.5,0.1,1.1,0.2,1.6,0.2c0.7,0,1.5-0.1,2.1-0.4c1.2-0.5,2.1-1.7,2.2-3c-0.1-1.3-0.5-2.5-1.3-3.5c-0.2-0.2-0.4-0.4-0.7-0.4
	c-0.2-0.1-0.4-0.1-0.4-0.2c0-0.3-0.1-0.7-0.1-1c0-0.1,0-0.2,0-0.2s0-0.2,0.4-0.7c0.8-1.1,1.4-2.4,1.7-3.7c0.1-0.3,0-0.7-0.1-1
	c0-0.2-0.1-0.3-0.1-0.5c0.1-0.7,0.4-1.3,0.8-1.8c0.7-1,1.1-2.1,1.2-3.3c0-0.2,0.1-0.5,0.2-0.8C78.7,120.5,78.4,118.7,77.4,117.2z"/>
<path class="st4" d="M172.7,181.4c-0.7-0.7-2.1-0.7-3.2-0.6c-1.4,0.2-2.8,0.4-4.1,0.9l-2.9,0.8c-1,0.2-1.9,0.7-2.6,1.3
	c-0.5,0.5-0.8,1.2-1,1.8c-0.1,0.2-0.1,0.4-0.1,0.6c0,0.7,0.8,1,1.2,1.2c0.9,0.3,1.7,0.9,2,1.8v0.1c0,0.2,0.1,0.4,0.2,0.6
	c0.2,0.2,0.5,0.4,0.8,0.4h0.5c0.7,0,1.3-0.1,2-0.3c0.7-0.2,1.5-0.3,2.2-0.3c0.2,0,0.3,0,0.5,0.1c0.7,0.2,1.4,0.1,2-0.2
	c0.2-0.2,0.3-0.4,0.5-0.6c0.1-0.2,0.2-0.4,0.4-0.6c0.9-1.6,2.1-3.7,2.1-5.4C173.4,182.3,173.1,181.8,172.7,181.4z"/>
<path class="st4" d="M212.8,227.6c-1-1.6-2.4-2.9-4.1-3.8l-0.1-0.1l-0.1,0.1c-1.5,1.1-3.8,2.4-5.7,1.6c-1-0.5-1.9-1.1-2.7-1.9
	l-0.3-0.2c-4.5-3.7-9.6-6.6-15-8.7l-0.3-0.1c-1.5-0.4-2.8-1.2-4-2.2c-0.9-1.1-1.6-2.4-2-3.8c-0.3-1-0.5-2.1-0.6-3.1
	c-0.6-3.9-1.2-7-2.3-7.5l-0.2-0.1l-0.1,0.2c-0.9,2.1-1,8-0.3,10.1c1.3,4.1,4.5,7.1,7.3,9.9l5,4.8c1.7,1.7,3.4,3.2,5.3,4.7
	c2.7,2.1,5.5,4.6,5.8,8c0.2,1.2,0,2.5-0.4,3.6c-1.8,4.3-4,8.5-6.5,12.5c-0.8,1.3-1.9,2.7-3.3,2.8c-0.4,0-0.8,0-1.2-0.1
	c-0.3-0.1-0.7-0.1-1-0.1l0,0c-1.7,0-2.7,1.2-3.7,2.5c-0.4,0.5-0.9,1-1.3,1.5c-0.4,0.4-0.6,1-0.6,1.6c0,0.5,0.2,0.9,0.6,1.2
	c0.9,0.8,2.3,0.8,3.2,0c0.3-0.4,0.6-0.8,0.9-1.3c0.3-0.7,0.8-1.3,1.4-1.7c0.5-0.3,1-0.4,1.5-0.2c0.2,0.1,0.3,0.2,0.3,0.3
	c0.1,0.3,0,0.6-0.4,1.1c-0.9,1.2-2.2,2.2-3.7,2.7l-0.3,0.1l0.2,0.3c0.3,0.4,0.8,0.7,1.3,0.6c0.2,0,0.4,0,0.6-0.1
	c0.3-0.1,0.6-0.2,0.9-0.4c0.2-0.1,0.5-0.3,0.8-0.4c0.9-0.2,1.9-0.2,2.8,0c1.4,0.2,2.8,0.4,3.7-0.7c0.2-0.2,0.3-0.4,0.4-0.5
	c0.5-0.7,0.9-1.1,1.3-0.9c0.1,0.1,0.2,0.1,0.2,0.2c0.1,0.2,0.3,0.3,0.5,0.4c0.5,0.2,1-0.2,1.3-1c0.4-1,0.8-2,1.3-3
	c1.5-3.8,3.3-7.5,5.3-11c0.7-1,1.5-2,2.3-2.9c0.4-0.4,0.7-0.8,1.1-1.2c0.5-0.7,0.8-1.6,0.8-2.5c0-0.7,0.2-1.4,0.5-2
	c0.5-0.7,1.1-1.2,1.7-1.6c0.9-0.5,1.6-1.3,2.2-2.2C213.8,231.2,213.7,229.2,212.8,227.6z"/>
<path class="st5" d="M70.5,157.1c-0.1-0.2-0.2-0.4-0.4-0.6l-0.1-0.1c-0.3-0.3-0.6-0.7-0.9-1.1c-0.4-0.8-1.1-1.3-1.8-1.7
	c-1.1-0.3-2.2,0.4-3.2,1.2l-3.1,2.6c-0.6,0.6-1.3,1-2.1,1.3c-0.1,0-0.3,0.1-0.4,0.1c-0.3,0.1-0.5,0.1-0.8,0.3
	c-1,0.6-1.8,1.7-1.9,2.9c0.3,1.3,0.8,2.5,1.5,3.6c0.1,0.1,0.2,0.2,0.3,0.2h0.1l2.5-2.1c0.8-0.7,1.6-1.3,2.5-1.8
	c0.8-0.4,1.6-0.7,2.4-1c0.5-0.2,1.1-0.4,1.6-0.6c1.1-0.5,2.2-1.2,3.2-2C70.4,157.9,70.6,157.5,70.5,157.1z M68.2,157.4
	c0,0.1-0.1,0.1-0.1,0.1c-0.3,0.2-0.7,0.4-1.1,0.6c-0.2,0.1-0.4,0.2-0.6,0.2c-0.2-0.1-0.4-0.2-0.6-0.4c-1.2-1.2-0.7-2.2,0.7-2.9
	c0.2-0.1,0.4-0.1,0.5-0.1c0.1,0.1,0.2,0.2,0.2,0.3l0.9,1.7C68.2,157.2,68.2,157.3,68.2,157.4z"/>
<path class="st2" d="M68.4,157.1c-0.2-0.2-0.3-0.3-0.4-0.5c-0.2-0.4-0.4-0.7-0.4-1.1c0-0.1-0.1-0.2-0.1-0.3
	c-0.1-0.2-0.2-0.3-0.4-0.4c-0.2-0.1-0.4-0.1-0.6,0c-0.1,0-0.3,0.1-0.4,0.1c-0.4,0.2-0.8,0.4-1.2,0.8c-0.2,0.2-0.3,0.5-0.4,0.7
	c0,0.3,0,0.6,0.2,0.8c0.3,0.4,0.6,0.7,0.9,1c0.1,0.2,0.3,0.3,0.5,0.4c0.2,0.1,0.5,0.1,0.8,0c0.4-0.1,0.8-0.3,1.1-0.6
	c0.1-0.1,0.2-0.2,0.3-0.3c0.1-0.1,0.1-0.2,0.1-0.4C68.5,157.3,68.4,157.2,68.4,157.1z M67.7,157.3c-0.4,0.1-0.7,0.4-1,0.7
	c-0.1,0.1-0.2,0.3-0.4,0.3c-0.2,0-0.4-0.1-0.5-0.3c-0.3-0.3-0.4-0.7-0.4-1.1c0-0.1,0.1-0.3,0.2-0.4c0.1-0.1,0.1-0.2,0.2-0.3
	c0.3-0.2,0.5-0.5,0.8-0.6l0.3-0.2c0.1,0.1,0.1,0.1,0.2,0.2c0.3,0.3,0.5,0.6,0.7,1l0.1,0.5C67.8,157.2,67.7,157.3,67.7,157.3
	L67.7,157.3z"/>
<path class="st4" d="M75.8,141c-1.4,0.7-2.8,1.2-4,0.6c-0.7-0.5-1.2-1.1-1.5-1.9c-0.4-0.9-0.8-1.9-1-2.9c-0.1-0.4-0.2-0.8-0.2-1.3
	c-0.1-1.3-0.5-2.6-1-3.8c-0.3-0.5-0.7-1-1.1-1.4c-0.7-0.6-1.2-1.4-1.4-2.3c-0.2-1-0.1-2,0.3-2.9c0.3-1,0.4-2.1,0.2-3.1
	c-0.2-0.8-1-2.5-2-2.6c-0.4,0.1-0.8,0.3-1.1,0.7c-0.1,0.2-0.1,0.4,0,0.6c0.3,0.5,0.5,1.1,0.4,1.8c0,0.3,0,0.6,0.1,0.9
	c0.1,0.4,0.1,0.8,0,1.2l-0.3,0.9c-0.1,0.3-0.2,0.6-0.4,0.9c0,0.1-0.1,0.2-0.1,0.3c-0.1,0.3-0.2,0.5-0.4,0.7
	c-0.5,0.2-1.1,0.3-1.7,0.1h-0.2c-0.8-0.1-1.5-0.1-2.3-0.1c-0.7,0-1.5,0-2.2-0.1c-0.4,0-0.7-0.1-1-0.3c-0.6-0.7-1.2-1.5-1.7-2.3
	c-0.4-0.9-0.4-1.1-0.4-1.2c0-0.2-0.1-0.3-0.2-0.4c-0.1-0.2-2.2-2.8-3-2.7c-0.2,0-0.4,0.2-0.4,0.4c-0.4,2.6,2.9,6.6,5.3,8.2l0.1,0.1
	c0.2,0.1,0.4,0.3,0.5,0.5c0.2,0.4,0.2,0.8,0.1,1.1c0,0.2,0,0.3,0,0.5c0,0.7,0.1,1.3,0.3,1.9c0.1,0.5,0.2,0.9,0.3,1.4
	c0,0.7-0.1,1.5-0.3,2.2c-0.2,0.8-0.3,1.6-0.3,2.5c0,0.2,0.1,0.4,0.1,0.5c0.1,0.3,0.1,0.7,0.1,1c0,0.3-0.2,0.5-0.4,0.6
	c-0.1,0.1-0.2,0.1-0.4,0.1c-0.2-0.1-0.3-0.2-0.5-0.4c-0.2-0.2-0.5-0.4-0.8-0.5c-0.6-0.1-1.1,0.4-1.3,1.3l-1.1,3.7
	c-0.5,1.2-0.7,2.5-0.6,3.8c0,0.3,0.1,0.5,0.2,0.8c0.1,0.3,0.1,0.7,0.2,1c0,0.3,0,0.7-0.1,1l-0.1,0.6c0,2,0.5,3.9,1.4,5.7l0.3,0.6
	c0.2,0.5,0.5,1,0.9,1.5l0,0c0.4,0.5,0.9,0.8,1.4,1c0.2,0.1,0.3,0.1,0.5,0.1c0.2,0,0.3-0.1,0.4-0.3c0-0.1,0.1-0.1,0.1-0.2
	c0.2-0.3,0.4-0.6,0.5-0.9c0.2-0.5,0.6-0.9,1-1.3c0.5-0.3,1.1-0.5,1.6-0.6c0.6-0.1,1.3-0.4,1.8-0.7c0.7-0.6,1.5-1.2,2.2-1.8
	c2-1.8,4.1-3.7,7-3.7h0.1c0.9-0.1,1.7-0.6,2.3-1.3c0.2-0.2,0.4-0.4,0.7-0.5c1.3-1,2.2-2.5,2.2-4.1c0-0.3,0.1-0.7,0.1-1
	c0-1.2,0.1-3,1-3.7l2-1.5L75.8,141z"/>
<path class="st2" d="M48.4,144.8c-0.3-0.5-0.7-0.9-1.3-1.2l-0.1-0.1c-0.2-0.1-0.3-0.2-0.4-0.3c-0.1-0.1-0.1-0.2-0.2-0.4
	c-0.2-0.8-0.1-1.7,0.3-2.4c0.1-0.1,0.2-0.3,0.3-0.4c0.2-0.2,0.3-0.5,0.5-0.8c0.5-1.2-0.1-2.5-1.2-3c-0.1-0.1-0.3-0.1-0.5-0.1
	c-0.4-0.1-0.8,0.1-0.9,0.5c0,0.2,0,0.3,0,0.5v0.1c0.1,0.2,0.1,0.4,0,0.5c-0.1,0.1-0.2,0.1-0.3,0.1c-0.2-0.1-0.3-0.1-0.5-0.2
	l-0.2-0.2c-0.2-0.2-0.5-0.4-0.7-0.5c-0.4-0.2-0.9-0.2-1.3,0.1c-0.2,0.3-0.4,0.6-0.3,0.9v0.3c0,0.2,0,0.4-0.2,0.5
	c-0.3,0.3-0.4,0.8-0.3,1.2c0.1,0.1,0.1,0.3,0.2,0.4c0.1,0.1,0.1,0.2,0.2,0.3c0.1,0.2,0.1,0.4,0.1,0.5c0,0.4,0,0.9,0,1.3
	c0,0.5,0,1.1,0,1.6c0,0.4,0.1,0.9,0.2,1.3c0.2,0.5,0.5,0.8,1,1c0.5,0.1,1,0.1,1.5,0h0.2c0.4-0.1,0.9-0.1,1.2,0.2l0.1,0.1
	c0.1,0.2,0.3,0.3,0.5,0.4h0.2h0.2c0.4,0,0.8-0.2,1.2-0.3c0.4-0.1,0.7-0.4,0.8-0.8C48.8,145.6,48.7,145.1,48.4,144.8z"/>
<path class="st1" d="M56.6,136.8c0-0.7-0.1-1.4-0.3-2c-0.1-0.3-0.2-0.6-0.2-1c-0.1-0.5-0.1-1.1-0.1-1.6c0.1-1.1-0.2-2.3-0.7-3.2
	c-0.5-0.6-1-1.1-1.7-1.4l-0.6-0.4c-1.4-0.8-2.4-2.2-2.9-3.7c-0.3-1.5-0.3-3,0-4.5c0.3-1.8,0.2-3.6-0.2-5.4c-0.1-0.7-0.5-1.7-0.8-2.7
	c-0.2-0.7-0.4-1.4-0.6-2c0-0.2-0.2-0.3-0.3-0.3c-0.5-0.1-1.4,0.2-2.3,1.2c-3.5,3.6-3.6,10.6-3.6,15.2v0.8c0,0.3,0,0.7-0.2,1
	c-0.1,0.2-0.3,0.3-0.5,0.4l-0.2,0.2c-0.9,0.8-1.5,1.9-1.6,3.1l-1.5,5.6c-0.7,2.8-1.5,6-1.2,9.1l0.1,0.7l0.4-0.6
	c0.5-0.8,0.8-1.6,1-2.5c0.2-0.5,0.3-1.1,0.5-1.6c0.6-1.3,1.8-2.4,3-2.1l0.4,0.1l-0.1-0.4c-0.2-0.4-0.2-0.9,0-1.3
	c0.1-0.2,0.3-0.2,0.5-0.1c0.2,0.2,0.4,0.4,0.5,0.7c0.3,0.8,0.8,1.3,1.3,1.3c0.4,0,0.8-0.2,1-0.5c0.3-0.6,0.4-1.3,0.2-2
	c0-0.1,0-0.1,0-0.2c0.1,0.2,0.3,0.3,0.5,0.4c0.3,0.1,0.5,0.4,0.6,0.7c0.1,0.2,0,0.5-0.1,0.7c-0.1,0.2-0.2,0.5-0.2,0.7
	c-0.1,0.2-0.3,0.4-0.4,0.6c-0.3,0.5-0.7,0.9-0.6,1.3c0,0.1,0.1,0.4,0.1,0.8c0.2,1.5,0.2,2.1,0.5,2.2s0.5,0.2,0.7,0.4
	c0.8,0.3,1.1,0.5,1,1.3c-0.2-0.1-0.4-0.1-0.6,0c-0.1,0.1-0.2,0.2-0.2,0.4c0,0.2,0.2,2.2,1.2,2.7c0.2,0.1,0.3,0.1,0.5,0.1
	c0.3,0,0.7-0.1,0.9-0.4c0.5-0.7,0.8-1.4,0.8-2.2c0.1-0.3,0.1-0.6,0.2-0.7l1.1-3.2l0,0c0.2-0.6,0.4-0.9,0.7-0.9s0.5,0.2,0.7,0.4
	c0.3,0.3,0.7,0.5,1.1,0.5c0.4-0.1,0.7-0.3,0.9-0.6l0.3-1.3l0,0c0-0.6,0.2-1.3,0.4-1.8C56.3,138,56.5,137.4,56.6,136.8z"/>
<path class="st4" d="M64.8,109.4c-0.1-0.2-0.1-0.4-0.2-0.7c-0.1-0.7-0.2-1.3-0.3-2c0-0.6-0.1-1.2-0.2-1.9c-0.1-0.3-0.1-0.6-0.1-0.9
	c0-0.4,0-0.7-0.1-1.1c-0.4-1-1-1.9-1.9-2.5l-0.3-0.3c-0.2-0.1-0.3-0.3-0.5-0.4s-0.6-0.5-0.9-0.8c-0.2-0.2-0.4-0.4-0.5-0.6
	c-0.2-0.3-0.4-0.5-0.6-0.8c0,0-1-0.8-1.4-0.6c-0.1,0-0.2,0.2-0.2,0.3c0,0.2,0.1,0.4,0.6,1.1l0.2,0.3c0.1,0.3,0.2,0.5,0.3,0.8
	c0.4,1.6,0.9,3.2,1.2,4.8v0.2c0.1,0.6,0.3,1.2,0.5,1.7c0.4,0.7,0.8,1.2,1.4,1.8c0.5,0.5,0.9,1,1.3,1.6c0.1,0.3,0.3,0.6,0.4,0.9
	c0.2,0.6,0.5,1.2,1,1.7l0.2,0.2l0.2-0.2C65.3,111.2,65,110.2,64.8,109.4z"/>
<path class="st4" d="M52,99.8c-0.1-0.8-0.4-1.3-0.9-1.4s-0.9,0.2-1.2,0.8s-0.5,0.9-0.8,1.3c-0.4,0.5-0.7,1.1-1,1.7l-0.1,0.2
	c-0.2,0.4-0.4,0.7-0.5,1.2c-0.1,0.9-0.1,1.8,0.1,2.6l0.6,4.2c0.1,0.5,0.3,0.8,0.7,0.8l0,0c0.4,0,0.6-0.5,0.6-0.6l1.3-3.9
	C51.5,104.6,52.3,102.2,52,99.8z"/>
<path class="st6" d="M61.8,106.7c-0.1-0.6-0.4-1.2-0.8-1.6c-0.2-0.2-0.4-0.5-0.6-0.8c-0.2-0.5-0.3-1-0.4-1.6v-0.2
	c-0.1-1-0.4-2-0.8-2.9l-0.1-0.2c-0.2-0.7-0.5-1.3-1-1.8c-0.3-0.2-0.6-0.3-1-0.3c-1.2-0.2-2.4-0.2-3.5,0c-2.5,0.5-3,2.2-3.7,4
	c-0.2,0.5-0.3,1-0.5,1.4c-0.7,1.5-1,3.1-0.9,4.8c0,0.9,0.4,1.2,0.7,1.3c0.1,0,0.2,0,0.2,0c0.7,0,1-0.9,1.2-1.3
	c0.9-1.7,2.7-2.6,4.6-2.4c1.9,0.3,3.7,1,5.3,2.2c0.3,0.2,0.6,0.3,0.9,0.2c0.2,0,0.3-0.1,0.3-0.3C61.8,107,61.8,106.8,61.8,106.7z"/>
<path class="st3" d="M46.3,151.6l-0.1-5.7l-0.2-0.1c-0.5-0.2-1.1-0.2-1.7-0.1c-0.8,0-1.5,0-1.8-0.5c-0.2-0.4-0.3-0.8-0.2-1.2
	l0.1-3.3c0-0.3,0-0.6-0.1-0.9c-0.1-0.3-0.4-0.5-0.7-0.6c-0.4-0.1-0.9-0.1-1.3,0.1c-0.6,0.3-1,0.8-1.4,1.4l-1.8,2.7
	c-0.3,0.4-0.6,0.9-0.8,1.4c-0.2,0.7-0.4,1.5-0.3,2.3c-0.2,2.9-0.2,5.7,0.1,8.6c0,0.1,0,0.3,0,0.4c0.2,1.6,0.4,3.4,1.1,3.7
	c0.1,0,0.2,0.1,0.3,0.1c0.5,0,1.2-0.6,1.9-1.2c0.3-0.3,0.6-0.5,1-0.7c0.5-0.2,1.1-0.5,1.6-0.7c1.5-0.6,3-1.1,3.7-2.6
	C46.2,153.6,46.4,152.6,46.3,151.6z"/>
<path class="st6" d="M64,122.2c-0.4-0.7-0.9-1.3-1.5-1.7c-0.1-0.1-0.2-0.1-0.2-0.1c-0.1,0-0.1,0-0.2,0c-0.2,0-0.5-0.1-0.7-0.1
	c-0.3-0.1-0.6-0.1-0.9-0.2c-0.9,0-1.8,0.2-2.6,0.6c-0.6,0.3-1.2,0.5-1.8,0.6c-0.8,0-1.5,0-2.3-0.2l-0.5-0.1c-0.2,0-0.7-0.6-1.1-1
	c-0.8-0.9-1.6-1.7-2.1-1.2c-0.8,0.7,0,4.6,0.5,5.1l0,0c0.1,0.2,0.4,0.3,0.6,0.3c0.1,0,0.2-0.1,0.3-0.1l0.1-0.1
	c0.1,0.1,0.1,0.2,0.1,0.3l0,0.2c0.1,0.7,0.4,1.4,0.9,2c0.6,0.5,1.3,0.9,2,1.2L55,128c0.4,0.2,0.8,0.3,1.2,0.2h0.2
	c0.7,0,1.3,0.1,2,0.2c0.4,0.1,0.8,0.1,1.2,0.2c0.2,0,0.5,0,0.7,0c0.9,0.1,1.9-0.3,2.6-0.9c0.7-0.8,1.1-1.7,1.2-2.7
	c0.1-0.6,0.1-0.6,0.2-1C64.6,123.4,64.4,122.7,64,122.2z"/>
<path class="st2" d="M64.9,114.2c0-0.1,0-0.2,0-0.2c-0.1-0.5-0.1-1,0-1.5c0-0.6,0-1.1-0.1-1.7c-0.3-1.6-1.6-2.7-2.9-3.7
	c-1.5-1.3-3.2-2.4-5-3.1c-1.9-0.8-4.1-0.5-5.8,0.7c-1.5,1.2-3,4.6-2.7,6.5c0.8,4.1,1.3,6.5,2.3,10.3v0.2h0.2c0.2,0,0.3,0.1,0.4,0.2
	c0.1,0.1,0.2,0.1,0.4,0.2c0,0,0.1,0,0.1,0c0.2-0.1,0.3-0.2,0.3-0.4c0.1-0.3,0.1-0.6,0.1-0.9c0-0.3,0-0.7,0.1-1
	c0.5-0.9,2.3-0.9,3.6-0.9h0.6c1.1-0.2,2.2,0,3.2,0.6l0.2,0.1c0.4,0.3,1,0.7,1.5,0.4c0.2-0.1,0.3-0.2,0.4-0.4l2.5-3.2
	c0.3-0.3,0.5-0.7,0.6-1.2C65,114.7,65,114.4,64.9,114.2z"/>
<path class="st7" d="M60.6,116.2c-0.1-0.2-0.3-0.3-0.5-0.5c-0.2-0.1-0.3-0.2-0.5-0.2h-0.1c-0.4,0.1-0.6,0.5-0.6,0.8
	c0,0.1,0,0.3,0,0.4c0,0.1,0,0.3,0,0.4c0,0.1,0,0.1,0,0.2c0,0.1-0.1,0.3-0.1,0.4c0,0.5,0.3,1,0.7,1.2c0.3,0.2,0.6,0.3,1,0.3
	c0.2,0,0.4-0.1,0.5-0.2c0.3-0.3,0.4-0.8,0.4-1.2v-0.1C61.2,117.2,60.9,116.7,60.6,116.2z"/>
<path class="st7" d="M51,117.3c-0.1-0.1-0.3,0-0.4,0.1c0,0.1,0,0.1,0,0.2c0,0,0.2,2.5,0.9,2.5h0.1l0.1-0.1c0.3-0.3,0.5-0.7,0.5-1.1
	c0.1-0.4,0-0.8-0.2-1.2C51.7,117.5,51.4,117.4,51,117.3z"/>
<path class="st8" d="M66.2,121.3c-0.2-1-0.6-2-1.2-2.9c0.1-0.9,0.3-1.9,0.5-2.8c0.1-0.5-0.1-1-0.5-1.3c-0.2-0.1-0.4,0-0.5,0.2
	l-0.3,0.6l-1.5,2.5c-0.3,0.4-0.7,0.7-1.1,1c-0.5,0-1,0-1.5-0.2l-0.2-0.1c-0.7-0.4-1.5-0.5-2.2-0.3l-3.7,0.4l-1.3-0.2l0,0
	c-0.9,0.1-1.3,0.7-1.7,1.5c-0.3,0.5-0.9,1.6-0.2,2c1.4,0.5,2.8,0.8,4.2,0.9h0.3c1.1-0.2,2.3-0.5,3.3-0.9l1-0.3
	c0.8-0.3,1.7-0.3,2.5,0.2c0,0,1,0.5,1.5,0.3c0.1,0,0.2-0.1,0.2-0.2c0.1-0.2-0.1-0.5-0.2-0.7c-0.1-0.1-0.2-0.3-0.2-0.4
	c0.1-0.1,0.3-0.1,0.5-0.1c0.2,0.1,0.3,0.2,0.4,0.3l0.2,0.2c0.1,0.1,0.3,0.2,0.4,0.4c0.2,0.2,0.4,0.4,0.6,0.6c0.1,0.1,0.3,0.1,0.5,0
	C66.2,121.8,66.2,121.5,66.2,121.3z"/>
<path class="st7" d="M61,108.4c-0.1-0.1-0.1-0.2-0.2-0.3c0,0-0.1-0.1-0.1-0.2c-0.8-1.3-1.8-2.4-3.1-3.1c-1.6-0.7-4.1-1-5.6-0.1
	c-0.4,0.3-0.9,0.6-1.3,1l-0.2,0.1c-0.4,0.3-0.3,1.1-0.3,1.3s-0.1,0.3-0.2,0.5c-0.1,0.1-0.1,0.2-0.2,0.3c-0.3,0.5-0.6,1-0.8,1.5
	c-0.1,0.2-0.1,2.3,0.3,2.6c0.1,0.1,0.3,0.1,0.4,0c0.6-0.7,1.1-1.5,1.4-2.4v-0.1c0-0.1,0.1-0.2,0.1-0.2c0.3-0.3,0.4-0.8,0.4-1.2
	c-0.1-0.6-0.1-1.2,0-1.8c0.2-0.3,0.5-0.6,0.8-0.8c1.1-0.5,2.4-0.7,3.6-0.5c0.8,0.4,1.6,0.8,2.4,1.2l0.1,0.1c0.2,0.1,0.3,0.3,0.4,0.5
	l0.1,0.2c0.2,0.5,0.4,1.1,0.4,1.6v0.1c0.3,1.7,0.3,1.8,0.4,1.8c0.1,0.1,0.2,0.1,0.4,0.1c0.2-0.1,0.4-0.2,0.5-0.5
	c0.1-0.1,0.1-0.3,0.1-0.5c0-0.1,0-0.2,0.1-0.3C61.1,109,61.1,108.7,61,108.4z"/>
<path class="st2" d="M58.2,97.4c-0.1-0.1-0.1-0.3-0.2-0.4l-0.1-0.4c0-0.2-0.1-0.4-0.2-0.6c0-0.1-0.1-0.1-0.1-0.2
	c0-0.1-0.1-0.1-0.1-0.2c-0.2-0.3-0.5-0.5-0.8-0.6c-0.9-0.6-1.9-0.9-3-0.8c-0.7,0.1-1.4,0.4-2,0.7c-0.3,0.1-0.5,0.3-0.8,0.5l-0.2,0.3
	l-0.1,0.1c0,0.1-0.1,0.1-0.1,0.2s-0.1,0.1-0.2,0.2c-0.3,0.4-0.4,1-0.3,1.5c0.1,0.4,0.2,0.8,0.3,1.3l0.2,0.4c0,0.1,0.1,0.3,0.1,0.4
	c0.1,0.3,0.2,0.6,0.4,0.9c0.2,0.4,0.6,0.7,1.1,0.7c0.3,0.1,0.5,0.1,0.7,0.4c0,0.1,0.1,0.1,0.1,0.2c0.1,0.3,0.2,0.5,0.3,0.6l0.3,0.2
	v-0.4c0-0.4,0.1-0.7,0.3-1c0.2-0.1,0.3-0.2,0.5-0.2l0.2-0.1h0.1c0.4-0.1,0.7-0.2,1-0.4c0.3-0.2,0.6-0.4,0.8-0.7l0.2-0.1
	c0.4-0.3,0.6-0.5,0.5-1c0-0.1-0.1-0.2-0.2-0.3c0.1,0,1.2,0,1.5,0.1l0,0v-0.2l0,0L58.2,97.4z"/>
<path class="st6" d="M57.4,95.6l-0.2-0.3c-0.3-0.7-0.9-1.2-1.5-1.5c-0.1-0.1-0.3-0.1-0.4-0.2c-0.3-0.2-0.6-0.3-0.9-0.4
	c-0.9,0-1.8,0.2-2.5,0.8l-0.4,0.5c-0.1,0.2-0.3,0.3-0.4,0.5c-0.5,0.4-0.8,0.9-0.9,1.4c0,0.5,0.3,1,0.8,1.2c0.3,0.1,0.6,0.1,0.8-0.1
	c0.2-0.2,0.2-0.6,0-0.8c-0.2-0.2-0.2-0.5-0.1-0.8c0.2-0.4,0.3-0.3,0.4-0.3c0.4,0.2,0.7,0.6,0.7,1.1c-0.2,0.5-0.5,1-1,1.3
	c-0.2,0.1-0.3,0.2-0.4,0.4c-0.1,0-0.1,0.2-0.2,0.3c0,0.1,0,0.1,0,0.2c0,0,0,0.1,0,0.1c0,0,0,0.1,0,0.1c0,0.4,0.3,0.8,0.7,1
	c0.1,0,0.1,0,0.2,0c0.5-0.1,0.9-0.3,1.2-0.6l0.2-0.1c0.1,0.4,0.4,0.6,0.8,0.6c0.4,0,0.9-0.1,1.3-0.3l0.3-0.1c0.5-0.1,0.8-0.5,0.8-1
	v-0.1c0-0.4-0.5-0.6-1.2-0.8c-0.3-0.1-0.6-0.2-0.8-0.3c-0.1-0.1-0.3-0.2-0.4-0.3c-0.2-0.2-0.1-0.6,0-1l0.1-0.3
	c0.3-0.1,0.6-0.2,0.9-0.2c0.3,0,0.6,0.2,0.6,0.5c0,0.1,0,0.2-0.1,0.3c-0.1,0.2-0.2,0.6,0.2,0.8c0.3,0.2,0.7,0.3,1,0.2
	c0.2,0,0.5-0.2,0.6-0.4C57.9,96.5,57.8,96,57.4,95.6z"/>
<path class="st9" d="M65.4,103.5c0.7-0.2,1.5-0.2,2.2,0.2c1.2,0.5,2,1.7,2,3c0,0.2,0,0.3-0.1,0.4c-0.1,0.1-0.1,0.1-0.2,0.1
	c0.2-0.1-1.2,1.2-3.7,0c-0.6-0.3-0.8-0.3-0.9-1.6C64.6,104.2,64.2,104,65.4,103.5z"/>
<path class="st2" d="M70.1,106.7c0-1.5-0.9-2.8-2.3-3.4c-0.8-0.4-1.8-0.5-2.7-0.2c-1.2,0.5-1.2,1-1.1,2c0,0.2,0.1,0.5,0.1,0.8
	c0.1,1.3,0.4,1.6,1.1,1.9l0.1,0.1c0.7,0.4,1.5,0.5,2.2,0.6c0.7,0,1.4-0.2,2-0.6c0.1-0.1,0.2-0.1,0.2-0.2
	C70.1,107.3,70.2,107,70.1,106.7z M69.1,106.9L69.1,106.9L69,107c-0.2,0.1-0.5,0.3-0.7,0.3c0-0.3-0.1-0.5-0.2-0.7
	c-0.2-0.4-0.4-0.8-0.7-1.1l0,0c-0.7-0.4-1.4-0.7-2.2-0.8c-0.1-0.5,0-0.5,0.5-0.8c0.6-0.2,1.2-0.1,1.8,0.2
	C68.4,104.6,69.1,105.7,69.1,106.9L69.1,106.9L69.1,106.9z"/>
<path class="st10" d="M70.3,155L70.3,155c0.2,0.4,0.5,0.7,0.9,0.8c0.6,0.1,1-0.6,1.3-1.1c1.3-2.4,3.4-4.2,4.9-6.5
	c0.1-0.1,0.1-0.2,0.1-0.3s-0.2-0.1-0.2-0.1h-1.3c-0.1,0-0.1,0-0.2,0c-0.1,0.1-0.1,0.1-0.1,0.2c-0.5,1.7-1.5,3.2-3,4.1
	c-0.7,0.5-1.5,0.8-2.3,1c-0.4,0.1-0.9,0-1,0.4S70.1,154.7,70.3,155z"/>
<path class="st11" d="M71.3,156h-0.1c-0.5-0.1-0.9-0.5-1.1-0.9l0,0c0-0.1-0.1-0.2-0.2-0.3c-0.5-0.7-0.8-1-0.7-1.3
	c0.1-0.5,0.6-0.6,0.9-0.6h0.3c0.8-0.2,1.6-0.5,2.3-1c1.4-0.9,2.4-2.3,2.8-3.9c0-0.3,0.3-0.5,0.5-0.4c0,0,0,0,0,0h1.3
	c0.2,0,0.3,0.1,0.4,0.2c0.1,0.1,0.2,0.3,0,0.6c-0.7,1-1.4,2-2.2,2.9c-1,1.1-1.9,2.3-2.6,3.6C72.5,155.2,72,156,71.3,156z
	 M70.5,154.8c0.2,0.3,0.4,0.6,0.7,0.7s0.8-0.4,1-0.9c0.8-1.3,1.7-2.5,2.7-3.7c0.8-0.9,1.5-1.9,2.2-2.8l0,0h-1.2h-0.1c0,0,0,0,0,0.1
	c-0.5,1.7-1.6,3.3-3.1,4.2c-0.7,0.5-1.6,0.9-2.4,1.1c-0.1,0-0.2,0-0.3,0c-0.3,0-0.4,0.1-0.4,0.1c0.2,0.3,0.4,0.7,0.6,0.9
	C70.3,154.6,70.4,154.8,70.5,154.8L70.5,154.8z"/>
<path class="st12" d="M78.3,114.3c0.4,0.2,0.8,0.2,1.2,0.4c0.7,0.5,1.1,1.3,0.9,2.2c-0.1,0.8-0.5,1.6-0.7,2.4
	c-0.1,0.7-0.1,1.3-0.2,2c-0.3,2-1.5,3.7-3.2,4.8l1.4-3.1c0.5-0.9,0.8-1.9,0.8-2.9c0-1.3-0.5-2.6-1.3-3.6l0,0c-0.6-0.8-2.6-4-1.4-5.1
	C76.8,110.4,77.5,114,78.3,114.3z"/>
<path class="st2" d="M85,144.6c-0.1-0.4-0.4-0.8-0.8-0.9c-0.2-0.1-0.3-0.2-0.4-0.3c-0.2-0.2-0.2-0.2,0.2-0.5
	c0.2-0.2,0.4-0.5,0.6-0.8l0.2-0.5l-0.6,0.2c-1.2,0.4-2.5,0.6-3.8,0.6c-0.5,0-0.9,0.1-1.4,0.2l-1.4,0.2l0.3-0.3
	c0.6-0.5,1.1-1.2,1.3-2c0-0.7-0.2-1.4-0.6-2c-0.5-0.9-0.3-2,0.5-2.6c0.4-0.3,0.8-0.7,1.2-1.2c0.6-0.9,0.2-2.2-0.1-3.4
	c-0.3-0.8-0.4-1.7-0.3-2.5c0.4-1.5,0.6-3,0.6-4.5c0-0.2,0-0.3,0-0.5c0-0.4,0-0.7,0-1.1c0-0.3,0.1-0.7,0.2-1l0,0l0.1-0.2
	c0,0,0-0.1,0-0.1v-0.1l0.2-0.8l-0.6,0.6c-0.3,0.2-0.5,0.5-0.6,0.8c0,0.1-0.1,0.2-0.1,0.4l-1.1,2.8c-0.2,0.4-0.3,0.9-0.3,1.4
	c0,0.2-0.1,0.4-0.2,0.6c-0.1,0.3-0.2,0.7-0.2,1c0,0.2,0,0.4,0,0.6s0,0.5,0.1,0.8v0.3c0.2,1.2,0.3,1.8-0.4,2.5
	c-0.2,0.3-0.4,0.6-0.6,0.9c-0.2,0.3-0.5,0.7-0.7,1c-0.2,0.2-0.5,0.3-0.7,0.4c-0.8,0.4-1.5,0.8-1.4,1.2c0.1,0.6,0.4,1.2,0.7,1.7
	c0.2,0.3,0.5,0.6,0.8,0.8c0.5,0.3,0.7,0.9,0.7,1.4c-0.1,0.6-0.3,1.1-0.7,1.6c-0.5,0.6-0.8,1.5-0.7,2.3c0.1,1,0.4,2,0.8,2.9
	c0.1,0.5,0.6,0.8,1.1,0.8c0.3,0,0.6-0.1,0.8-0.2l0.2-0.1c0.5-0.2,1-0.3,1.5-0.4c1-0.1,2-0.1,3,0.1c0.5,0.1,0.9,0.1,1.4,0.1
	C84.8,146.6,85,145.1,85,144.6z"/>
<path class="st3" d="M254,137.7c-1-0.3-2.3,0.2-3.6,1.5l-1,0.9c-0.8,0.6-1.6,1.1-2.6,1.5c-7.7,3.2-15.2,6.9-22.5,10.9
	c-0.4,0.2-0.8,0.5-1.1,0.9c-0.5,0.5-0.6,1.3-0.4,2c0.1,0.2,0.1,0.5,0.1,0.7c0,0.6,0,1.2,0,1.9s0,1.3,0,1.9c0.1,1.7,0.6,5.7,2.4,5.9
	h0.1l0.1-0.1c0.6-0.8,1-1.8,1.3-2.7c0.2-0.7,0.5-1.3,0.8-1.9c3.2-3.9,7.3-7.1,11.8-9.3c0.4-0.2,0.8-0.4,1.2-0.5
	c1.1-0.5,2.2-1,3.2-1.6c1.2-0.9,2.4-1.9,3.4-3c0.4-0.4,0.9-0.9,1.4-1.4c2.2-2,4.9-4.5,5.4-7.3v-0.2L254,137.7z"/>
<path class="st1" d="M254.6,139.9c-0.5-0.9-1.6-1.3-2.6-1c-0.8,0.3-1.6,0.7-2.2,1.3l-0.2,0.1c-2.7,1.9-5.5,3.6-8.4,5.1
	c-1.6,0.8-3.2,1.7-4.8,2.6c-5.5,3.3-8.9,6.9-10.3,11.1c-0.8,2.4-1.6,6.1-1,6.8l0.1,0.2l0.1-0.2c0.3-0.7,4-3.5,8.3-6.8
	c3.8-2.9,8-6.1,11.2-8.8c1.1-1,2.3-1.9,3.4-2.9c1.7-1.4,3.4-2.8,5.1-4.3C254.5,141.9,255,140.8,254.6,139.9z"/>
<path class="st4" d="M263.5,119.2c-0.3-1.3-0.7-2.5-1.2-3.7c-0.2-0.5-0.4-1-0.7-1.6c-1.2-2.4-2.7-3.5-4.4-3.2
	c-1.3,0.3-2.3,1.3-2.5,2.6c-0.5,2,0.2,3.7,0.9,5.4c0.2,0.4,0.3,0.8,0.5,1.2c1.9,5.6,1,14-3,16.7c-0.5,0.3-0.7,0.9-0.6,1.4
	c0.1,0.3,0.2,0.7,0.3,1c0.2,0.6,0.3,1.1,0.3,1.7c0,1,0.3,1.6,0.9,1.8c0.1,0,6.5-4.2,8-7.5C264.1,130.1,264.6,124.6,263.5,119.2z"/>
<path class="st4" d="M71.6,211c-0.8,2.4-1.4,4.9-1.9,7.4c-0.5,2.5-1.1,4.9-1.9,7.3l-0.2,0.7l-0.2,0.4c-0.5,1.2-0.8,2-2,2.4
	c-0.7,0.1-1.5,0.1-2.2,0c-0.8-0.1-1.6-0.1-2.4,0c-0.9,0.4-1.7,1.1-2.1,2.1c-0.2,0.3-0.3,0.6-0.6,0.9c-0.5,0.9-0.5,2.1,0.1,3l0.1,0.1
	h0.2c0.2,0,0.5-0.1,0.7-0.2c0.3-0.1,0.6-0.2,0.8-0.1c0.3,0.1,0.6,0.3,0.8,0.5c0.3,0.2,0.6,0.4,0.9,0.6c0.3,0.1,0.6,0.1,0.9,0.1
	c0.6,0,1.2-0.3,1.6-0.9c0.5-0.6,0.9-1,1.1-1.2c0.4-0.3,0.6-0.7,0.8-1.2l0.1-0.1c0.8-1.9,1.4-3.6,2.1-5.5c0.3-0.8,0.6-1.5,0.9-2.3
	c0.7-2,2.8-11.9,2.8-13.9v-1.3L71.6,211z"/>
<path class="st4" d="M186.6,224.4c-0.2-0.5-0.5-0.9-0.8-1.2c-2.3-2.3-4.8-4.4-7.5-6.3c-0.9-0.6-1.5-1-2-0.8s-0.6,0.9-0.8,2.2
	l-0.7,5.5c-0.3,2.7-0.7,5.7-2.2,8.1c-1.3,1.9-2.8,3.5-4.6,4.8c-0.6,0.5-1.2,1-1.8,1.5l-0.2,0.2c-0.4,0.4-0.9,0.8-1.5,1.2
	c-1.1,0.6-2.3,0.8-3.5,0.8c-1.1,0-2.2,0-3.2-0.2h-0.2c-0.5-0.1-1.1-0.1-1.6,0c-0.4,0.1-0.9,0.3-1.2,0.6l-3.6,2.2
	c-1.2,0.8-1.8,1.7-1.4,2.5c0.1,0.3,0.4,0.6,0.8,0.7c0.5,0.2,1.1,0.2,1.6-0.1c0.5-0.2,0.9-0.6,1.3-0.9c0.2-0.2,0.4-0.3,0.6-0.5
	c0.8-0.6,1.8-1,2.8-1c-1.2,0.5-2.2,1.1-3.2,1.9c-0.6,0.5-1.1,1.2-0.7,1.8c0.2,0.3,0.5,0.5,0.8,0.6l2.7,1l-0.2-0.6
	c-0.3-0.9,0-1.9,0.8-2.4c0.8-0.6,1.7-0.9,2.7-1.1c0.3-0.1,0.6-0.1,0.9-0.1c0.1,0,0.2,0.1,0.3,0.2c0,0.1,0,0.1,0,0.2
	c-0.1,0.1-0.1,0.1-0.2,0.2l-0.6,0.4c-1,0.6-2.1,1.2-2.1,2.4c0,0.5,0.3,1,0.8,1.3c0.5,0.3,1,0.5,1.6,0.5c0.3,0,0.5,0,0.8-0.1
	c0.8-0.3,1.5-0.8,2.2-1.4c0.3-0.2,0.6-0.5,0.9-0.7c1.6-0.9,3.3-1.6,5.1-1.9c1.8-0.3,3.6-1,5.1-1.9c1.7-1.3,3.1-2.9,4.1-4.8
	c0.8-1.5,1.9-2.8,3.1-4c0.4-0.3,0.8-0.6,1.1-0.9c0.6-0.5,1.2-1,1.8-1.6c1.8-2.1,2.1-5.1,2.3-7.4
	C186.7,225.2,186.7,224.8,186.6,224.4z"/>
<path class="st4" d="M232.9,87.5c-20.4,12.8-93.6,21.1-118,15.4c-16.2-3.8-46.6-46.2-36.4-55.7c14.9-13.9,166.1-12.5,172.4,0
	C257,59.7,244.7,80.1,232.9,87.5z"/>
<polygon class="st4" points="100,89.4 96.3,107.3 115.6,98.5 "/>
<path class="st2" d="M100.8,61.5c1.4-0.1,2.9,0.5,3.9,1.5l-0.9,1.4c-0.8-0.7-1.8-1.1-2.9-1.1c-1.9-0.1-3.5,1.4-3.6,3.4
	c0,0.1,0,0.2,0,0.3c-0.1,2,1.4,3.7,3.4,3.8c0.1,0,0.1,0,0.2,0c1.2,0,2.2-0.5,3.1-1.3l1,1.4c-1.1,1.1-2.6,1.8-4.2,1.7
	c-3-0.2-5.4-2.8-5.2-5.8C95.8,63.9,98,61.6,100.8,61.5L100.8,61.5z"/>
<path class="st2" d="M110.6,67.5h0.3v-0.1c0-1-0.6-1.3-1.5-1.3c-0.8,0-1.5,0.3-2.1,0.7l-0.7-1.4c0.9-0.6,1.9-0.9,3-0.9
	c1.6-0.2,3,0.9,3.2,2.5c0,0.2,0,0.4,0,0.5v4.8H111v-0.6c0-0.2,0-0.4,0-0.5l0,0c-0.4,0.9-1.3,1.4-2.3,1.3c-1.3,0.1-2.5-0.9-2.6-2.2
	c0-0.1,0-0.1,0-0.2C106,67.7,109.3,67.5,110.6,67.5z M109.1,71c1-0.1,1.7-1,1.7-2v-0.2h-0.3c-1,0-2.6,0.1-2.6,1.2c0,0.6,0.4,1,1,1
	C109,71,109.1,71,109.1,71z"/>
<path class="st2" d="M114.8,64.7h1.8v0.9c0,0.2,0,0.4,0,0.5l0,0c0.5-0.9,1.4-1.6,2.5-1.6c1-0.1,2,0.5,2.2,1.5l0,0
	c0.5-0.9,1.5-1.5,2.6-1.5c1.6,0,2.5,0.9,2.5,2.9v4.9h-1.9v-4.6c0-0.9-0.2-1.5-1-1.5c-1,0.1-1.8,0.8-1.8,1.8c-0.1,0.3-0.1,0.7-0.1,1
	v3.3h-1.9v-4.6c0-0.8-0.1-1.5-1-1.5c-1,0-1.8,0.8-1.9,1.8c-0.1,0.3-0.1,0.7-0.1,1v3.3h-1.9V64.7z"/>
<path class="st2" d="M132,64.5c1.8-0.1,3.4,1.4,3.4,3.2c0,0.1,0,0.3,0,0.4c0,0.2-0.1,0.7-0.1,0.7h-5.2c0.1,1.2,1.1,2.1,2.3,2
	c0.8,0,1.6-0.3,2.2-0.8l0.7,1.4c-0.9,0.7-2,1.1-3.1,1.1c-2.2,0.1-4-1.6-4.1-3.7c0-0.1,0-0.2,0-0.3c-0.1-2.1,1.5-3.9,3.6-4
	C131.8,64.5,131.9,64.5,132,64.5z M133.5,67.5c0.1-0.8-0.6-1.5-1.4-1.6c0,0-0.1,0-0.1,0c-0.9,0-1.7,0.7-1.8,1.6H133.5z"/>
<path class="st2" d="M137.1,61.7h1.9v8c0,0.8,0.3,1.1,0.8,1.1c0.1,0,0.2,0,0.3,0v1.7c-0.2,0-0.4,0-0.6,0c-1.1,0-2.4-0.3-2.4-2.5
	L137.1,61.7z"/>
<path class="st2" d="M145.2,64.5c2.2,0.1,3.9,2,3.8,4.2s-2,3.9-4.2,3.8c-2.1-0.1-3.8-1.9-3.8-4c0-2.2,1.8-4,4-4
	C145.1,64.5,145.1,64.5,145.2,64.5z M145.2,70.9c1.3,0.1,2.4-1,2.5-2.3c0.1-1.3-1-2.4-2.3-2.5s-2.4,1-2.5,2.3c0,0,0,0.1,0,0.1
	c-0.1,1.3,0.9,2.3,2.1,2.4C145.1,70.9,145.2,70.9,145.2,70.9L145.2,70.9z"/>
<path class="st2" d="M151.4,66.3h-1v-1.5h1v-2.2h1.9v2.2h1.7v1.5h-1.7v3c0,0.7,0.5,1.4,1.3,1.4c0.1,0,0.2,0,0.3,0c0.1,0,0.2,0,0.3,0
	v1.7c-0.2,0-0.4,0-0.6,0c-1.1,0-3.2-0.3-3.2-2.9L151.4,66.3z"/>
<path class="st2" d="M165.7,61.5c1.4-0.1,2.9,0.5,3.9,1.5l-0.9,1.4c-0.8-0.7-1.8-1.1-2.9-1.1c-1.9-0.1-3.5,1.4-3.6,3.4
	c0,0.1,0,0.2,0,0.3c-0.1,2,1.4,3.7,3.4,3.8c0.1,0,0.1,0,0.2,0c1.2,0,2.3-0.5,3.1-1.3l1,1.4c-1.1,1.1-2.6,1.8-4.2,1.7
	c-3-0.2-5.4-2.8-5.2-5.8C160.7,63.9,163,61.6,165.7,61.5L165.7,61.5z"/>
<path class="st2" d="M175.2,64.5c2.2,0.1,3.9,2,3.8,4.2s-2,3.9-4.2,3.8c-2.1-0.1-3.8-1.9-3.8-4c0-2.2,1.8-4,4-4
	C175.1,64.5,175.1,64.5,175.2,64.5z M175.2,70.9c1.3,0.1,2.4-1,2.5-2.3c0.1-1.3-1-2.4-2.3-2.5s-2.4,1-2.5,2.3c0,0,0,0.1,0,0.1
	c-0.1,1.3,0.9,2.3,2.2,2.4C175.1,70.9,175.2,70.9,175.2,70.9L175.2,70.9z"/>
<path class="st2" d="M181,61.7h1.9v8c0,0.8,0.3,1.1,0.8,1.1c0.1,0,0.2,0,0.3,0v1.7c-0.2,0-0.4,0-0.6,0c-1,0-2.4-0.3-2.4-2.5
	L181,61.7z"/>
<path class="st2" d="M185.4,61.7h1.9v8c0,0.8,0.3,1.1,0.8,1.1c0.1,0,0.2,0,0.3,0v1.7c-0.2,0-0.4,0-0.6,0c-1,0-2.4-0.3-2.4-2.5
	L185.4,61.7z"/>
<path class="st2" d="M193.3,64.5c1.8-0.1,3.4,1.4,3.4,3.2c0,0.1,0,0.3,0,0.4c0,0.2,0,0.7,0,0.7h-5.3c0.1,1.2,1.1,2.1,2.3,2
	c0.8,0,1.6-0.3,2.2-0.8l0.7,1.4c-0.9,0.7-1.9,1.1-3.1,1.1c-2.2,0.1-4-1.6-4.1-3.7c0-0.1,0-0.2,0-0.3c-0.1-2.1,1.5-3.9,3.6-4
	C193.1,64.5,193.2,64.5,193.3,64.5z M194.7,67.5c0.1-0.8-0.6-1.5-1.4-1.6c-0.1,0-0.1,0-0.2,0c-0.9,0-1.7,0.7-1.8,1.6H194.7z"/>
<path class="st2" d="M202,64.5c1.1-0.1,2.2,0.4,2.9,1.1l-0.8,1.3c-0.5-0.5-1.3-0.8-2-0.8c-1.3,0-2.3,1-2.3,2.2c0,0.1,0,0.1,0,0.2
	c0,1.3,1,2.4,2.3,2.4c0,0,0.1,0,0.1,0c0.8-0.1,1.6-0.4,2.2-1l0.7,1.3c-0.8,0.8-2,1.3-3.1,1.3c-2.2,0-4-1.8-4-4S199.8,64.5,202,64.5
	L202,64.5z"/>
<path class="st2" d="M207,66.3h-1v-1.5h1v-2.2h1.9v2.2h1.7v1.5h-1.7v3c0,0.7,0.5,1.4,1.3,1.4c0.1,0,0.2,0,0.3,0c0.1,0,0.2,0,0.3,0
	v1.7c-0.2,0-0.4,0-0.6,0c-1.1,0-3.2-0.3-3.2-2.9L207,66.3z"/>
<path class="st2" d="M212.5,61.7h1.9v1.7h-1.9V61.7z M212.5,64.7h1.9v7.7h-1.9V64.7z"/>
<path class="st2" d="M215.6,64.7h2l1.6,4.7c0.1,0.4,0.2,1.2,0.3,1.2l0,0c0,0,0.1-0.7,0.3-1.2l1.6-4.7h2l-2.8,7.7h-2.2L215.6,64.7z"
	/>
<path class="st2" d="M227.9,64.5c1.8-0.1,3.4,1.4,3.4,3.2c0,0.1,0,0.3,0,0.4c0,0.2-0.1,0.7-0.1,0.7H226c0.1,1.2,1.1,2.1,2.3,2
	c0.8,0,1.6-0.3,2.2-0.8l0.7,1.4c-0.9,0.7-1.9,1.1-3.1,1.1c-2.2,0.1-4-1.6-4.1-3.7c0-0.1,0-0.2,0-0.3c-0.1-2.1,1.5-3.9,3.6-4
	C227.7,64.5,227.8,64.5,227.9,64.5z M229.4,67.5c0.1-0.8-0.6-1.5-1.4-1.6c-0.1,0-0.1,0-0.2,0c-0.9,0-1.7,0.7-1.8,1.6H229.4z"/>
<path class="st2" d="M233.5,61.7h2l-0.1,7.6h-1.7L233.5,61.7z M233.6,70.5h1.8v1.8h-1.8V70.5z"/>
</svg>
