<svg id="Chipper_vectorizer_Image" data-name="Chipper_vectorizer Image" xmlns="http://www.w3.org/2000/svg" viewBox="0 0 300 300"><defs><style>.cls-1,.cls-11{fill:#fac5d2;}.cls-1{stroke:#fac4d2;}.cls-1,.cls-13{stroke-miterlimit:10;}.cls-13,.cls-2{fill:#d1904c;}.cls-3{fill:#282525;}.cls-4{fill:#8a7f6d;}.cls-5{fill:#fcf5db;}.cls-6{fill:#df2541;}.cls-7{fill:#b9b7ba;}.cls-8{fill:#e4e2e3;}.cls-9{fill:#505362;}.cls-10{fill:#fff;}.cls-12{fill:#fac4d2;}.cls-13{stroke:#d1904c;}</style></defs><rect class="cls-1" width="300" height="300"/><path class="cls-2" d="M223.33,168.28A6.34,6.34,0,0,0,222,166.1l-4.76-6c-1.71-2.15-3.64-4.58-6.4-5.72-3.2-1.31-6.65-.65-10.51.28a15,15,0,0,0-5.83,2.31,14.85,14.85,0,0,0-2.06,2.06c-.33.38-.67.77-1,1.14a26.73,26.73,0,0,1-6,4.18,27,27,0,0,0-5.93,4.1c-3.07,3-3.25,7-3.43,10.88-.05,1.17-.1,2.37-.24,3.53-.19,1.74-.23,3.55-.27,5.3,0,1.41-.07,2.86-.18,4.25-.32,3.83-.5,7.59.75,11.54.84,2.66,1.79,5.66,3.85,7.87,2.32,2.49,5.38,4.23,8.34,5.91a46.08,46.08,0,0,1,6.29,4,20.2,20.2,0,0,0,4.13,2.41,30.37,30.37,0,0,1,3,1.56,6.57,6.57,0,0,0,3.42.95,5.66,5.66,0,0,0,2-.34,3.51,3.51,0,0,0,2.24-2.28l0-.15-.11-.1a34.29,34.29,0,0,1-7.3-10.31,3.6,3.6,0,0,1-.45-1.78,3.82,3.82,0,0,1,1.29-2.08L217.06,195c1.76-1.81,3.76-3.87,4.54-6.51a27.69,27.69,0,0,0,1.05-6.57c0-1.54.16-2.93.28-4.28a29.68,29.68,0,0,0,.15-6.17,4.43,4.43,0,0,1,.15-1.38A3.86,3.86,0,0,0,223.33,168.28Z"/><path class="cls-3" d="M224.14,159.77a39.53,39.53,0,0,1-.73-5.86c0-1.57-1.42-2-2.79-2.43a7.85,7.85,0,0,1-2.21-.95,33.89,33.89,0,0,0-5.94-3.53,57.41,57.41,0,0,0-6.18-2.39l-2.07-.72c-14.15-5-28-9.57-42.14-9.57H162c-13.35,0-26.66,2.16-37.49,6-1,.38-3.53.23-6.16.08-3.57-.2-7.25-.41-8.53.58a1,1,0,0,0-.39.67c-.09.81.73,1.83,1.61,2.9.7.87,1.5,1.86,1.4,2.36,0,.08-.05.18-.23.28a5.69,5.69,0,0,1-2.71.59,9.36,9.36,0,0,0-2,.24c-4.95,1.29-5.75,7-6.28,10.81a195.25,195.25,0,0,1-5.45,26c-.06.18-4,19-1.7,20.11a13.89,13.89,0,0,0,4.66.49c11.63,0,40.75-4.15,53.18-16.25a38,38,0,0,0,2.87-3.26c.47-.58.95-1.17,1.45-1.75,2.12-2.45,5.66-.4,9.4,1.78s7.55,4.38,10.38,2.32c1.78-1.3,2.8-5.66,3.88-10.27,1.14-4.86,2.32-9.89,4.35-10.78a16.84,16.84,0,0,1,2.91-.87,9.95,9.95,0,0,0,7-4.46c.42-.51.85-1,1.29-1.51A14.87,14.87,0,0,1,214.93,159c4.4,3.49,6.32,9,8.22,15.28l.26.84.22-.85a34.89,34.89,0,0,0,1.21-8.76A34.36,34.36,0,0,0,224.14,159.77Z"/><path class="cls-4" d="M115.34,142.14a1.61,1.61,0,0,0-.67-.35,18.85,18.85,0,0,0-2.85-.55c-.61-.09-1.23-.18-1.83-.3a20.58,20.58,0,0,1-2.34-.63l-1.35-.41-.46-.15c-.91-.3-2.14-.71-2.93-.38a1.58,1.58,0,0,0-.87,1,5.53,5.53,0,0,0,2.37,6.45l2.93,2.26a3.81,3.81,0,0,0,1.32.76,2.1,2.1,0,0,0,.56.08,3,3,0,0,0,1.69-.59,7.81,7.81,0,0,0,1.52-1.63l2.6-3.43C115.71,143.4,115.83,142.62,115.34,142.14Z"/><path class="cls-4" d="M102.51,142.23a3.66,3.66,0,0,0-1.22-1.16c-1.52-.76-3.17.51-3.81,1.09a23.72,23.72,0,0,0-3.55,4.4c-1.24,1.83-2.43,3.81-2.14,5.95a3.27,3.27,0,0,0,.86,1.86,2.5,2.5,0,0,0,2.58.54,3.23,3.23,0,0,1,1.41-.08.68.68,0,0,1,.43.29c.29.48.05,1.44-.14,2.22-.06.25-.12.49-.16.71-.38,2-.92,4.06-1.44,6-.33,1.24-.67,2.52-1,3.79-.85,3.62-1.78,9-.08,13.82a6.31,6.31,0,0,0,1.43,2.47c1.07,1,2.38,2.2,3.3,2.2a.91.91,0,0,0,.23,0c1.23-.29,1.37-2.28,1.47-3.73,0-.24,0-.46,0-.65a11.34,11.34,0,0,0-.31-3.88,10.41,10.41,0,0,0-.5-1.42,6.13,6.13,0,0,1-.61-3.07,8.86,8.86,0,0,1,.78-2.56c.33-.81.79-1.9,1.42-3.78a14.65,14.65,0,0,0,.55-2.64,14.92,14.92,0,0,1,.69-3.09c.25-.66.57-1.32.88-1.95s.51-1.06.73-1.61A16.38,16.38,0,0,0,102.51,142.23Z"/><path class="cls-4" d="M96.09,136.56a5.26,5.26,0,0,0-1.93-3h0s-1.48-.84-2.13-.53a.54.54,0,0,0-.31.42c-.09.49.4,1.29,1.05,2.28.17.25.31.47.39.61a2.6,2.6,0,0,1,.32.85,2.39,2.39,0,0,1-.16.94,10.54,10.54,0,0,1-1.78,3.79l0,.05a1.45,1.45,0,0,0-.49,1l0,.45.37-.25a16,16,0,0,0,4.46-4.45,2.28,2.28,0,0,0,.45-1A2.52,2.52,0,0,0,96.09,136.56Z"/><path class="cls-3" d="M108.3,147.88c-.58-.66-1.78-2-1.9-2.1l-.07,0a11.83,11.83,0,0,1-1-.84,3,3,0,0,1-1.18-1.84c0-.33,0-.67-.06-1a7.53,7.53,0,0,0-.15-1.49,5.09,5.09,0,0,0-2.81-3.23c-1.3-.65-2.92-1.48-4.15-1.13-2.26.63-5.3,6.26-9.17,8.67a5.37,5.37,0,0,0-1.08,2.1,2,2,0,0,0,0,.95l.7,5.25,1.85-1.24a4.94,4.94,0,0,1,.22.9,7.49,7.49,0,0,0,.18.79A1.79,1.79,0,0,0,91.13,155l.22,0a2,2,0,0,0,1.26-1.26l.63-1.3c1.25-2.59,2.54-5.28,4.74-7.09l.58-.46a11.43,11.43,0,0,0,1.43-1.25h0a3.57,3.57,0,0,0,.65-1,4.67,4.67,0,0,1,.29,1.45c0,.28.06.55.11.82.28,1.55,1.57,6.08,2.79,7.82a2.46,2.46,0,0,0,2.15,1.24c1.89-.1,3.57-2.83,4-3.67C110.13,150.08,110.16,150,108.3,147.88Z"/><path class="cls-4" d="M88.42,148.8a3.26,3.26,0,0,1-.22-.34,2.12,2.12,0,0,0-1.89-1.11,16.32,16.32,0,0,0-2.78.39l-.08,0v.08c0,.28-.09.56-.13.83a11.88,11.88,0,0,1-1.12,4,13.58,13.58,0,0,1-.75,1.19A5.86,5.86,0,0,0,80,157.51a2.41,2.41,0,0,0,.54,1.33,1.42,1.42,0,0,1,.08.34c.06.35.11.68.34.7h0c.15,0,.28-.18.48-.5a1.74,1.74,0,0,1,.18-.27c.41-.28,1-.64,1.8-1.05l1-.56c1.47-.84,3-1.81,3.53-2.68a4,4,0,0,0,.36-2.59,3.78,3.78,0,0,1,.33-2.44C88.87,149.45,88.63,149.11,88.42,148.8Z"/><path class="cls-5" d="M93.09,208a.48.48,0,0,0-.49,0c-1.38.68-3.26,1-4.14.23-.53-.49-.26-1.17.05-2a2.58,2.58,0,0,0,.23-2.2c-.1-.18-.21-.4-.32-.64a5,5,0,0,0-1.49-2.17l-1.39-.75c-2.57-1.36-4.61-2.44-6.41-6a5.1,5.1,0,0,1-.25-3.69,10.65,10.65,0,0,0,0-2.42c0-.49-.08-1-.08-1.27a2.61,2.61,0,0,0-.61-1.45,3.16,3.16,0,0,1-.55-1.08c-1.16-5,.74-10.45,2.27-14.79a24.59,24.59,0,0,0,1.65-6.14.22.22,0,0,0,0-.08,43.76,43.76,0,0,0-1.18-6.11s0-.05,0-.08c-.81-1.32-.37-2.1.22-3.17a9.87,9.87,0,0,0,.88-1.92c.14-.45.3-.89.44-1.27.36-1,.61-1.67.4-2.1a.69.69,0,0,0-.42-.34,3.14,3.14,0,0,0-2.34.19,12.07,12.07,0,0,0-3.2,3.44c-.39.54-.8,1.11-1.29,1.72a17.93,17.93,0,0,0-1.41,2.18,13.39,13.39,0,0,1-2,2.83,19.27,19.27,0,0,1-6.14,3.6c-2.47,1.07-5,2.18-6.71,4.22-1.25,1.5-1.36,3-1.15,5a28.23,28.23,0,0,1,.05,4.47,11,11,0,0,0,0,2.21,6.26,6.26,0,0,1-.11,1.72,22.21,22.21,0,0,0-.8,2.25,4.17,4.17,0,0,0,.1,1.75c.59,1.95,1.42,2.76,3.08,4.26,1,.95,2.14,1.78,3.19,2.59a33.23,33.23,0,0,1,4.57,4,39.9,39.9,0,0,1,4.72,7c1.14,2,2.44,4.27,2.69,6.71a16,16,0,0,1-.53,5.18c-2.08,9.21-4,16.39-9.17,24.88-.16.26-.39.68-.65,1.17a18.54,18.54,0,0,1-1.87,3,6,6,0,0,1-1.46.71,22.57,22.57,0,0,0-2.15.94,4.35,4.35,0,0,1-1.62.35,4,4,0,0,0-1.91.49c-1.33.89-3.28,3.7-3.44,5.36a1,1,0,0,0,.24.85c.44.42,1.36.29,2.33.15.35-.05.7-.1,1-.13a.45.45,0,0,0,.27-.1l1.05-.85a.21.21,0,0,1,.26,0,.22.22,0,0,1,.1.25,3.13,3.13,0,0,0,0,1.39.5.5,0,0,0,.16.28,3.61,3.61,0,0,0,1.87.6,6.23,6.23,0,0,1,1,.18,3.13,3.13,0,0,0,.84.13,1.75,1.75,0,0,0,1.29-.49,1.54,1.54,0,0,1,.44-.31,13,13,0,0,1,2.35-.67l.39-.08a3.5,3.5,0,0,0,2.69-2.15c.25-.43.54-.92,1-1.52,2-2.94,2.53-3.63,4.08-3.93a1.37,1.37,0,0,0,.63-.33c.81-.8.8-1.06.63-1.85a9.89,9.89,0,0,1-.25-2.33,5,5,0,0,1,.38-1.75,70.43,70.43,0,0,1,7.35-11.93,80.65,80.65,0,0,0,6.77-10.64,28,28,0,0,1,2.47-4,7.48,7.48,0,0,0,1.62-3.2A.51.51,0,0,0,93.09,208Z"/><path class="cls-2" d="M100,185.11a6.87,6.87,0,0,0-1.88-3.26,7.56,7.56,0,0,1-1.79-2.9,7.41,7.41,0,0,1,0-2.53l2.08-18.76c0-.41.12-.89.21-1.39.29-1.78.62-3.79-.11-4.67a4,4,0,0,0-4.27.61c-.51.42-.94.65-1.26.95a2.08,2.08,0,0,1-1.72.76,24.83,24.83,0,0,0,.26-4.39,1.34,1.34,0,0,0-.45-1.12c-.58-.37-1.24.22-1.63.83l-5.09,8a2.18,2.18,0,0,1-1.56.79c-.7.15-1.42.31-1.69,1.08a20.44,20.44,0,0,0-.67,3.74c-.11.92-.21,1.78-.35,2.39-.1.45-.2,1-.31,1.5a32,32,0,0,1-1,4.13c-.39,1.07-.81,2-1.21,2.87s-.82,1.81-1.22,2.89a13.25,13.25,0,0,0,.3,8.5,7.56,7.56,0,0,1,.48,2.31,9.27,9.27,0,0,0,.59,7.48,13.67,13.67,0,0,0,5.38,5.4l.84.48c1.93,1.08,3.93,2.2,4.29,4.23a6.76,6.76,0,0,1,0,1.15,3.9,3.9,0,0,0,.14,2.12,2,2,0,0,0,1.38.69,3.64,3.64,0,0,0,.48,0,5.06,5.06,0,0,0,2.91-.92c.6-.48.64-1.59.69-3a17.22,17.22,0,0,1,.44-3.94l.06-.27a8.32,8.32,0,0,1,1.83-3.5,16.37,16.37,0,0,1,1.65-1.94,3.59,3.59,0,0,0,1.07-1.64,8.52,8.52,0,0,0,.33-2.77,8.9,8.9,0,0,1,.31-2.7A6.81,6.81,0,0,0,100,185.11Z"/><path class="cls-2" d="M173.27,181.45a23.1,23.1,0,0,1-.35-4.15v-.1l-.07-.07c-2.64-2.84-4.51-2.26-6.53-1.62a55.94,55.94,0,0,0-7.36,3.23c-2.4,1.27-3.34,2.52-4.64,5a9.79,9.79,0,0,0-.55,1.37c-.36,1.06-.71,2.07-1.64,2.25a3,3,0,0,1-1.55-.32,21.21,21.21,0,0,0-7.61-1.94,23.69,23.69,0,0,0-6.74,1.25,60.78,60.78,0,0,0-10.63,3.81l-.89.46a12.22,12.22,0,0,1-4.68,1.71,12.4,12.4,0,0,1-4.92-1.08l-.65-.24a43.2,43.2,0,0,0-13.82-2.55,2.57,2.57,0,0,0-1.41.25,2.68,2.68,0,0,0-1,1.94L97,197.18c-.05.26-.14.59-.23.93-.35,1.33-.84,3.16.08,4.11,1.33,1.38,4.33,1.63,7.06,1.63.9,0,1.77,0,2.54,0l1.46,0a4.42,4.42,0,0,0,1.76-.53,4.57,4.57,0,0,1,1.44-.47,9.85,9.85,0,0,0,2.81-.72,75.64,75.64,0,0,0,14.28-7.35l.17-.1a9.61,9.61,0,0,1,6.34-2l5.39-.23a4.11,4.11,0,0,1,2.14.29c1.14.62,1.37,2.2,1.44,3.65l0,.5.38-.31A28.87,28.87,0,0,1,162,190.13a1.47,1.47,0,0,0,1.25-.45c.4-.55,0-1.27-.56-1.74A8.26,8.26,0,0,0,160,186.5c-.24-.08-.5-.16-.6-.33a.3.3,0,0,1,0-.29,1.61,1.61,0,0,1,.92-.78c1-.44,2-1,3.14-1.61,3.21-1.78,6.53-3.62,9.45-1.78l.48.3Z"/><path class="cls-5" d="M144.18,193.57a3.76,3.76,0,0,0-1.41-2.16,3.64,3.64,0,0,0-1.86-.32l-5.59,0c-1.95,0-4.38,0-6.31,1.18a11.93,11.93,0,0,0-2.13,1.73c-.37.36-.76.72-1.16,1a21,21,0,0,1-3.18,2c-5.39,2.94-12.09,6.6-19,5.91-.8-.08-1.61-.22-2.4-.36-.49-.08-1-.17-1.48-.24l-.71-.13c-1.12-.2-2.65-.49-3.54-.07-.63.29-1.65,2.63-1.58,3.36a.41.41,0,0,0,.31.4l5.38,1.28a33.61,33.61,0,0,0,5.33,1c.46,0,.93,0,1.4,0,1.08,0,2.17-.07,3.34-.17a95.81,95.81,0,0,0,17.72-2.7,41.9,41.9,0,0,0,16-7.91,3.49,3.49,0,0,0,1.05-1.21A3.74,3.74,0,0,0,144.18,193.57Z"/><path class="cls-4" d="M93,139.44c-.37-1.65-.46-2.21-.51-2.48a3.92,3.92,0,0,0-.23-.85,17.07,17.07,0,0,0-1-2.19l-.13-.26c-.24-.48-.38-.73-.48-.92A7.44,7.44,0,0,1,90,131.4a13.07,13.07,0,0,1-.36-1.32,8.94,8.94,0,0,0-.75-2.28,17.06,17.06,0,0,0-3.56-4.33c-.28-.23-.57-.45-.85-.66a10.9,10.9,0,0,1-1.54-1.3,3,3,0,0,1-.93-2.61l-.48-.14a16.73,16.73,0,0,1-1.45,3.14l-.28.5a1.53,1.53,0,0,1-.67.78,5.83,5.83,0,0,0-.64.44.68.68,0,0,0-.21.25,13.37,13.37,0,0,1-.88,1.3,2.19,2.19,0,0,1-.15.22,6.19,6.19,0,0,1-.86,1.1,4.23,4.23,0,0,0-2.07,3c0,.46,0,1,0,1.53a25.13,25.13,0,0,1-.26,3.59c-.17.91.8,1.54,1.74,2.14s1.72,1.11,1.7,1.8a3.39,3.39,0,0,1-1,1.92,7,7,0,0,0-.91,1.31,6.4,6.4,0,0,0-.14,3.86,1.46,1.46,0,0,0,.66.82,2.28,2.28,0,0,1,.36.3.61.61,0,0,0,.47.23,2.1,2.1,0,0,0,1-.4,2.21,2.21,0,0,1,.68-.33,16.31,16.31,0,0,1,2.78-.12,9.49,9.49,0,0,1,2,.37,5.31,5.31,0,0,0,3,.17,6.43,6.43,0,0,0,4.26-2.48,11.43,11.43,0,0,1,.9-.94A11.5,11.5,0,0,0,92.63,142,5.29,5.29,0,0,0,93,139.44Z"/><path class="cls-2" d="M77.43,117.17c-.21-.3-.44-.58-.67-.85s-.42-.49-.6-.75a11.92,11.92,0,0,1-1.32-3,9,9,0,0,0-2-3.81l-.27-.24a4.35,4.35,0,0,1-.48-.48,4,4,0,0,1-.66-1.75A7.66,7.66,0,0,0,71,105a6.92,6.92,0,0,0-3.07-3,10.54,10.54,0,0,0-2.44-1.23c-.2-.06-2-.58-2.74.16s-.28,1.9,0,2.71l.08.25a34.81,34.81,0,0,1,1.53,11.33v.43a13.5,13.5,0,0,0,0,2.2,11.55,11.55,0,0,0,.24,1.33c.06.3.12.61.17.92a19.64,19.64,0,0,1,0,4.47c0,.44,0,.87-.07,1.3a11.25,11.25,0,0,0,1,5.82c.14.27.3.52.46.78a9.85,9.85,0,0,1,.55.93,10.2,10.2,0,0,1,.69,2.34l.07.34a37.77,37.77,0,0,0,1.51,5.1,2.78,2.78,0,0,0,.59,1,2.41,2.41,0,0,0,1.15.55,6.78,6.78,0,0,0,1.6.2,5,5,0,0,0,2.12-.45,3.69,3.69,0,0,0,2.2-3,6.08,6.08,0,0,0-1.3-3.52,1.09,1.09,0,0,0-.72-.41c-.18-.05-.36-.09-.41-.17a7.88,7.88,0,0,1-.08-1c0-.11,0-.2,0-.24s0-.18.39-.73a10.16,10.16,0,0,0,1.7-3.73,2.15,2.15,0,0,0-.06-1,2.45,2.45,0,0,1-.08-.52,3.92,3.92,0,0,1,.83-1.78,7.17,7.17,0,0,0,1.21-3.34c0-.25.1-.51.16-.78A6.92,6.92,0,0,0,77.43,117.17Z"/><path class="cls-5" d="M172.72,181.42c-.74-.72-2.08-.72-3.16-.64a20,20,0,0,0-4.08.88l-2.85.82A5.63,5.63,0,0,0,160,183.8a5.33,5.33,0,0,0-1,1.83,1.44,1.44,0,0,0-.14.61c0,.68.79,1,1.2,1.17a3,3,0,0,1,2,1.84l0,.13a1.21,1.21,0,0,0,.21.57,1.15,1.15,0,0,0,.84.41l.51,0a8.69,8.69,0,0,0,2-.3,6.51,6.51,0,0,1,2.25-.26,4.61,4.61,0,0,1,.5.07,2.33,2.33,0,0,0,2-.24,2.13,2.13,0,0,0,.46-.65c.12-.2.24-.42.37-.65.91-1.65,2.06-3.7,2.12-5.42A1.87,1.87,0,0,0,172.72,181.42Z"/><path class="cls-5" d="M212.75,227.55a11.68,11.68,0,0,0-4.11-3.82l-.13-.06-.11.08c-1.53,1.08-3.77,2.41-5.67,1.55a12.43,12.43,0,0,1-2.66-1.85l-.3-.25a53.81,53.81,0,0,0-15-8.69l-.34-.13a10.62,10.62,0,0,1-4-2.24,10.32,10.32,0,0,1-2-3.82,24.12,24.12,0,0,1-.61-3.13c-.64-3.93-1.21-7-2.31-7.54l-.23-.12-.11.24c-.91,2.1-1,8-.28,10.12,1.26,4.07,4.46,7.15,7.29,9.87l5,4.84a60.86,60.86,0,0,0,5.27,4.7c2.72,2.07,5.53,4.64,5.75,8a6.93,6.93,0,0,1-.41,3.63,85.81,85.81,0,0,1-6.48,12.48c-.82,1.31-1.85,2.66-3.28,2.8a4.91,4.91,0,0,1-1.2-.08,6.78,6.78,0,0,0-1-.1h0c-1.68,0-2.67,1.23-3.72,2.53a19,19,0,0,1-1.33,1.52,2.1,2.1,0,0,0-.6,1.63,1.57,1.57,0,0,0,.59,1.2,2.51,2.51,0,0,0,3.23,0,8.19,8.19,0,0,0,.91-1.3,4.84,4.84,0,0,1,1.38-1.71,2.06,2.06,0,0,1,1.53-.25.53.53,0,0,1,.34.33c.1.28,0,.63-.35,1.08a7.72,7.72,0,0,1-3.73,2.66l-.3.1.16.27a1.44,1.44,0,0,0,1.29.65,2.25,2.25,0,0,0,.64-.1,5.52,5.52,0,0,0,.9-.38,4.91,4.91,0,0,1,.78-.35,6.58,6.58,0,0,1,2.76,0c1.36.19,2.78.39,3.73-.66a6.64,6.64,0,0,0,.45-.55c.52-.67.88-1.1,1.28-.87a1,1,0,0,1,.22.2,1.25,1.25,0,0,0,.5.35c.5.16,1-.2,1.33-1,.42-1,.84-2,1.27-3a77.65,77.65,0,0,1,5.34-11,20.09,20.09,0,0,1,2.32-2.85c.36-.4.73-.8,1.08-1.21a4.09,4.09,0,0,0,.79-2.48,4.21,4.21,0,0,1,.49-2,6.7,6.7,0,0,1,1.74-1.65A5.64,5.64,0,0,0,213,233,6,6,0,0,0,212.75,227.55Z"/><path class="cls-6" d="M70.53,157.15a1.21,1.21,0,0,0-.42-.56l-.07-.05a7,7,0,0,1-.9-1.11,3.56,3.56,0,0,0-1.85-1.66c-1.13-.31-2.18.39-3.16,1.19L61,157.53a6.84,6.84,0,0,1-2.09,1.34,3.45,3.45,0,0,1-.43.12,4.46,4.46,0,0,0-.78.26,3.87,3.87,0,0,0-1.91,2.86,11.2,11.2,0,0,0,1.49,3.55.46.46,0,0,0,.32.17h.08l2.54-2.05A17.56,17.56,0,0,1,62.77,162a17.51,17.51,0,0,1,2.4-1c.54-.2,1.1-.41,1.64-.65a14.32,14.32,0,0,0,3.16-2C70.45,157.92,70.64,157.53,70.53,157.15Zm-2.38.3a.35.35,0,0,1-.14.13c-.35.23-.71.45-1.08.65a.92.92,0,0,1-.63.19,1,1,0,0,1-.55-.35c-1.25-1.25-.73-2.17.72-2.89a.6.6,0,0,1,.53-.06.63.63,0,0,1,.23.28l.87,1.72A.39.39,0,0,1,68.15,157.45Z"/><path class="cls-3" d="M68.39,157.1c-.15-.2-.27-.33-.38-.51a4.17,4.17,0,0,1-.45-1.14,2.66,2.66,0,0,0-.09-.32.71.71,0,0,0-.37-.41.89.89,0,0,0-.57,0,2,2,0,0,0-.37.13,2.91,2.91,0,0,0-1.16.77,1.68,1.68,0,0,0-.38.74,1.2,1.2,0,0,0,.15.82,5.46,5.46,0,0,0,.94,1,2.16,2.16,0,0,0,.5.43,1.18,1.18,0,0,0,.76,0,2.58,2.58,0,0,0,1.12-.56,2.33,2.33,0,0,0,.3-.29.59.59,0,0,0,.1-.38A.65.65,0,0,0,68.39,157.1Zm-.74.21a2.42,2.42,0,0,0-1,.7c-.13.14-.24.27-.41.28a.65.65,0,0,1-.49-.26,1.28,1.28,0,0,1-.37-1.06.84.84,0,0,1,.15-.37,1.9,1.9,0,0,1,.23-.31,5.87,5.87,0,0,1,.81-.64l.28-.18a2.59,2.59,0,0,1,.19.23,3.88,3.88,0,0,1,.65,1l.13.53S67.73,157.28,67.65,157.31Z"/><path class="cls-5" d="M75.76,141c-1.38.69-2.81,1.25-4,.63a3.88,3.88,0,0,1-1.47-1.89,15.12,15.12,0,0,1-1-2.94c-.1-.42-.17-.84-.25-1.26A10.55,10.55,0,0,0,68,131.77a10.8,10.8,0,0,0-1.09-1.41,5.84,5.84,0,0,1-1.45-2.31,5.91,5.91,0,0,1,.29-2.92A6.5,6.5,0,0,0,66,122c-.19-.81-1-2.5-2-2.58a1.65,1.65,0,0,0-1.09.71.53.53,0,0,0,0,.6,2.88,2.88,0,0,1,.39,1.76,4.07,4.07,0,0,0,.1.87,2.18,2.18,0,0,1,0,1.16l-.35.9c-.12.29-.23.57-.36.92,0,.09-.06.18-.09.26a1.15,1.15,0,0,1-.43.68,2.4,2.4,0,0,1-1.68.14l-.23,0a20.25,20.25,0,0,0-2.29-.11,19,19,0,0,1-2.23-.1,1.88,1.88,0,0,1-1-.3,21.91,21.91,0,0,1-1.72-2.34c-.36-.94-.4-1.06-.43-1.17a3.45,3.45,0,0,0-.15-.45c-.09-.24-2.16-2.79-3-2.7a.46.46,0,0,0-.41.43c-.4,2.58,2.92,6.62,5.3,8.17l.08.05a1.69,1.69,0,0,1,.55.46,1.79,1.79,0,0,1,.09,1.14c0,.16,0,.32,0,.47a5.55,5.55,0,0,0,.32,1.91,7.22,7.22,0,0,1,.3,1.39,6.69,6.69,0,0,1-.3,2.19,7.18,7.18,0,0,0-.29,2.48c0,.18.06.36.09.54a3.25,3.25,0,0,1,.09,1,1,1,0,0,1-.41.65.46.46,0,0,1-.37.07,1.28,1.28,0,0,1-.45-.35,1.41,1.41,0,0,0-.77-.49c-.57-.09-1.07.39-1.34,1.3l-1.11,3.73a9.27,9.27,0,0,0-.57,3.84,6.88,6.88,0,0,0,.15.79,5.4,5.4,0,0,1,.17,1,5.3,5.3,0,0,1-.07,1l-.06.59a12.8,12.8,0,0,0,1.39,5.68l.26.61a5.52,5.52,0,0,0,.88,1.47h0a3.12,3.12,0,0,0,1.41,1,1.92,1.92,0,0,0,.49.1c.16,0,.27-.07.4-.27a1.29,1.29,0,0,1,.13-.18,5.59,5.59,0,0,0,.55-.9,3.44,3.44,0,0,1,1-1.29,5.27,5.27,0,0,1,1.62-.61,5.57,5.57,0,0,0,1.83-.73c.74-.55,1.46-1.21,2.16-1.84,2-1.82,4.05-3.7,7-3.7h.12a4.12,4.12,0,0,0,2.35-1.26c.23-.19.44-.37.65-.52a5.43,5.43,0,0,0,2.24-4.11,7.93,7.93,0,0,0,.06-1c0-1.17.08-3,1-3.7L78,139.88Z"/><path class="cls-3" d="M48.4,144.8a3.33,3.33,0,0,0-1.26-1.21l-.14-.07a1.42,1.42,0,0,1-.43-.3,1.23,1.23,0,0,1-.16-.35,3.1,3.1,0,0,1,.29-2.38c.09-.15.19-.29.29-.43a4.32,4.32,0,0,0,.46-.78,2.29,2.29,0,0,0-1.68-3.14.74.74,0,0,0-.88,1v.08a.73.73,0,0,1,0,.52.36.36,0,0,1-.33.09,1.48,1.48,0,0,1-.46-.25l-.19-.16a3.23,3.23,0,0,0-.72-.48,1.17,1.17,0,0,0-1.28.13,1.24,1.24,0,0,0-.33.93v.26a.57.57,0,0,1-.16.54,1.14,1.14,0,0,0-.26,1.16,2.25,2.25,0,0,0,.19.38,1.55,1.55,0,0,1,.15.28,1.61,1.61,0,0,1,.07.53c0,.44,0,.9-.05,1.34a14.85,14.85,0,0,0,0,1.64,3.52,3.52,0,0,0,.25,1.29,1.87,1.87,0,0,0,1,1,2.82,2.82,0,0,0,1.47,0l.19,0a1.43,1.43,0,0,1,1.25.19l.12.13a1,1,0,0,0,.52.37l.16,0,.18,0a4.2,4.2,0,0,0,1.2-.33,1.4,1.4,0,0,0,.85-.77A1.34,1.34,0,0,0,48.4,144.8Z"/><path class="cls-2" d="M56.57,136.84a6,6,0,0,0-.29-2c-.08-.32-.17-.65-.22-1a11.89,11.89,0,0,1-.13-1.59,5.83,5.83,0,0,0-.74-3.24,5.76,5.76,0,0,0-1.7-1.45l-.59-.4a6.71,6.71,0,0,1-2.87-3.7A12.19,12.19,0,0,1,50,119a13.38,13.38,0,0,0-.19-5.38c-.14-.72-.45-1.73-.75-2.7-.23-.73-.44-1.42-.58-2a.45.45,0,0,0-.33-.31c-.45-.12-1.36.19-2.31,1.17-3.49,3.55-3.57,10.56-3.62,15.2v.81a1.86,1.86,0,0,1-.21,1,1.66,1.66,0,0,1-.47.38l-.23.17a5.15,5.15,0,0,0-1.63,3.08l-1.45,5.65c-.73,2.81-1.55,6-1.18,9.12l.08.67.37-.56a9.1,9.1,0,0,0,1-2.5,14.6,14.6,0,0,1,.55-1.57c.56-1.26,1.78-2.38,3-2.08l.43.1-.13-.42a1.55,1.55,0,0,1,0-1.33.41.41,0,0,1,.53-.15,1.35,1.35,0,0,1,.5.71q.51,1.23,1.26,1.32a1.1,1.1,0,0,0,1-.52,3.58,3.58,0,0,0,.25-2,1.27,1.27,0,0,0,0-.2,3.34,3.34,0,0,0,.48.45,1.2,1.2,0,0,1,.56.66.91.91,0,0,1-.07.68,3.81,3.81,0,0,0-.22.71,2.71,2.71,0,0,1-.42.64c-.35.46-.69.9-.57,1.28,0,.09.06.45.1.76.15,1.52.25,2.05.52,2.2s.51.25.73.35c.76.33,1.14.5,1,1.29a.76.76,0,0,0-.61,0,.44.44,0,0,0-.2.35c0,.21.25,2.16,1.2,2.7a1.14,1.14,0,0,0,.52.13,1.51,1.51,0,0,0,.93-.37,4.52,4.52,0,0,0,.85-2.23c.07-.29.13-.55.18-.7l1.06-3.21h0c.19-.56.41-.85.67-.87s.48.17.74.38a1.44,1.44,0,0,0,1.06.46,1.37,1.37,0,0,0,.9-.63l.35-1.27v0a4.49,4.49,0,0,1,.44-1.82A6,6,0,0,0,56.57,136.84Z"/><path class="cls-5" d="M64.78,109.4a6.43,6.43,0,0,1-.17-.66,16.59,16.59,0,0,1-.26-2c0-.6-.11-1.22-.23-1.9a6.47,6.47,0,0,1-.09-.93,5.84,5.84,0,0,0-.12-1.1A5.36,5.36,0,0,0,62,100.27l-.31-.27c-.16-.14-.32-.28-.49-.41s-.58-.5-.86-.77a4.2,4.2,0,0,1-.5-.63,4.32,4.32,0,0,0-.63-.77s-1-.77-1.43-.59a.37.37,0,0,0-.24.31c0,.2.13.43.64,1.08l.23.29a3.91,3.91,0,0,1,.3.83c.44,1.57.9,3.2,1.23,4.83l0,.15a7.58,7.58,0,0,0,.5,1.71,7,7,0,0,0,1.4,1.75,6.45,6.45,0,0,1,1.27,1.57,8.36,8.36,0,0,1,.36.87,3.76,3.76,0,0,0,1,1.69l.21.18.16-.22C65.28,111.2,65,110.24,64.78,109.4Z"/><path class="cls-5" d="M52,99.83c-.1-.79-.44-1.33-.91-1.42s-.88.22-1.21.84-.55.93-.82,1.35a18.63,18.63,0,0,0-1,1.68l-.12.24a4.55,4.55,0,0,0-.47,1.15,7.88,7.88,0,0,0,.08,2.64l.56,4.17c.07.52.33.83.67.83h0c.42,0,.57-.48.62-.64l1.32-3.93C51.5,104.63,52.3,102.24,52,99.83Z"/><path class="cls-7" d="M61.77,106.68a2.9,2.9,0,0,0-.83-1.58,5.06,5.06,0,0,1-.57-.79,4.35,4.35,0,0,1-.36-1.56l0-.25a10.09,10.09,0,0,0-.75-2.89l-.09-.24a3.83,3.83,0,0,0-1-1.85,2.7,2.7,0,0,0-1-.31,9.84,9.84,0,0,0-3.53,0c-2.46.5-3,2.18-3.66,4-.17.48-.34,1-.54,1.45a11.48,11.48,0,0,0-.94,4.77c0,.88.37,1.18.67,1.28a.77.77,0,0,0,.25,0c.65,0,1-.86,1.22-1.29A4.63,4.63,0,0,1,55.21,105a12,12,0,0,1,5.26,2.15,1.23,1.23,0,0,0,.88.21.52.52,0,0,0,.35-.28A.68.68,0,0,0,61.77,106.68Z"/><path class="cls-4" d="M46.27,151.61l-.1-5.72-.16-.06a4.44,4.44,0,0,0-1.67-.15c-.79,0-1.46,0-1.81-.47a2,2,0,0,1-.2-1.22l.12-3.34a2,2,0,0,0-.12-.91,1.18,1.18,0,0,0-.69-.62,1.7,1.7,0,0,0-1.27.07A3.72,3.72,0,0,0,39,140.6l-1.8,2.66a6.82,6.82,0,0,0-.79,1.39,7.13,7.13,0,0,0-.35,2.29,49.19,49.19,0,0,0,.14,8.57c0,.11,0,.26.05.44.16,1.64.41,3.41,1.13,3.74a.58.58,0,0,0,.26.05c.53,0,1.21-.57,1.93-1.17a6.2,6.2,0,0,1,1-.73c.5-.25,1.06-.47,1.59-.68,1.47-.56,3-1.15,3.71-2.57A6.17,6.17,0,0,0,46.27,151.61Z"/><path class="cls-7" d="M64,122.17a5.06,5.06,0,0,0-1.55-1.7.52.52,0,0,0-.25-.1,1.07,1.07,0,0,0-.18,0,5.79,5.79,0,0,1-.68-.13,5,5,0,0,0-.87-.16,5.59,5.59,0,0,0-2.57.61,7.6,7.6,0,0,1-1.81.57,7.3,7.3,0,0,1-2.27-.22l-.5-.1c-.22,0-.72-.57-1.12-1-.82-.86-1.58-1.66-2.13-1.17-.75.67,0,4.55.48,5.14h0a.71.71,0,0,0,.61.32.8.8,0,0,0,.34-.12l.12-.05a.82.82,0,0,1,.1.28l.05.21a3.91,3.91,0,0,0,.89,2,18.83,18.83,0,0,0,2,1.23L55,128a2,2,0,0,0,1.23.2h.17a10.32,10.32,0,0,1,2,.21c.39.07.79.14,1.2.18.22,0,.45,0,.7,0a3.66,3.66,0,0,0,2.6-.89A5,5,0,0,0,64.1,125c.13-.61.13-.61.23-1A1.77,1.77,0,0,0,64,122.17Z"/><path class="cls-3" d="M64.86,114.16a1.84,1.84,0,0,0,0-.25,7.42,7.42,0,0,1,0-1.5,6.78,6.78,0,0,0-.06-1.68c-.32-1.56-1.56-2.66-2.92-3.74a17.63,17.63,0,0,0-5-3.11,6.1,6.1,0,0,0-5.79.73c-1.46,1.21-3,4.56-2.66,6.46.76,4.05,1.27,6.49,2.29,10.3l0,.17.18,0a.86.86,0,0,1,.43.2.66.66,0,0,0,.36.16.23.23,0,0,0,.11,0,.51.51,0,0,0,.29-.4,3.29,3.29,0,0,0,.1-.89,2.5,2.5,0,0,1,.14-1c.45-.91,2.28-.93,3.61-.94l.63,0a5.24,5.24,0,0,1,3.21.57l.16.11c.42.3.95.67,1.48.39a1.57,1.57,0,0,0,.42-.38l2.52-3.16A2.53,2.53,0,0,0,65,115,2.71,2.71,0,0,0,64.86,114.16Z"/><path class="cls-8" d="M60.61,116.21a2.16,2.16,0,0,0-.45-.46,1.75,1.75,0,0,0-.54-.23H59.5a.89.89,0,0,0-.61.85,2.54,2.54,0,0,0,0,.39,2.6,2.6,0,0,1,0,.4,1.6,1.6,0,0,1-.05.21,1.42,1.42,0,0,0-.08.38,1.28,1.28,0,0,0,.73,1.17,2.45,2.45,0,0,0,1,.3.72.72,0,0,0,.5-.17,1.68,1.68,0,0,0,.38-1.21v-.07A6.29,6.29,0,0,0,60.61,116.21Z"/><path class="cls-8" d="M51,117.27a.32.32,0,0,0-.42.12.27.27,0,0,0,0,.2s.25,2.49.91,2.49h.08l.07-.06a1.56,1.56,0,0,0,.46-1.07,2,2,0,0,0-.16-1.16A2,2,0,0,0,51,117.27Z"/><path class="cls-9" d="M66.16,121.32A6.89,6.89,0,0,0,65,118.44a20.94,20.94,0,0,1,.47-2.8,1.29,1.29,0,0,0-.48-1.26.4.4,0,0,0-.52.2l-.35.59-1.47,2.49a4.16,4.16,0,0,1-1.06,1,4.48,4.48,0,0,1-1.45-.19l-.24-.11a3.21,3.21,0,0,0-2.2-.28l-3.7.36-1.29-.2h0c-.89.07-1.31.72-1.73,1.5-.26.48-.88,1.61-.19,2a13.33,13.33,0,0,0,4.25.87l.34,0a21.76,21.76,0,0,0,3.35-.93l1-.32a2.76,2.76,0,0,1,2.47.18s1.05.53,1.45.32a.4.4,0,0,0,.2-.24c.07-.23-.08-.47-.23-.72a1.65,1.65,0,0,1-.21-.43c.07-.12.3-.14.46-.06a1.83,1.83,0,0,1,.43.33l.2.18a2.69,2.69,0,0,1,.37.38,2.48,2.48,0,0,0,.63.58.44.44,0,0,0,.49,0A.49.49,0,0,0,66.16,121.32Z"/><path class="cls-8" d="M61.05,108.38a1.49,1.49,0,0,0-.2-.31.72.72,0,0,1-.11-.15,9.2,9.2,0,0,0-3.08-3.14c-1.6-.74-4.13-1-5.6-.12a9.83,9.83,0,0,0-1.26,1l-.17.14c-.37.32-.33,1.11-.31,1.26s-.07.3-.23.51a3.16,3.16,0,0,0-.18.27,12.78,12.78,0,0,0-.78,1.52c-.07.22-.09,2.32.28,2.6a.3.3,0,0,0,.36,0,6.69,6.69,0,0,0,1.42-2.43l0-.08a2.38,2.38,0,0,1,.14-.23,1.75,1.75,0,0,0,.42-1.19,4.73,4.73,0,0,1,.05-1.81,2.75,2.75,0,0,1,.84-.76,5.91,5.91,0,0,1,3.58-.47,22.41,22.41,0,0,1,2.36,1.24l.06.05a1,1,0,0,1,.38.5l.07.16a5,5,0,0,1,.43,1.61v.06c.28,1.73.32,1.77.41,1.85a.46.46,0,0,0,.36.09.87.87,0,0,0,.52-.47,1.55,1.55,0,0,0,.12-.47,1.63,1.63,0,0,1,.07-.3A1.29,1.29,0,0,0,61.05,108.38Z"/><path class="cls-3" d="M58.15,97.44a3.68,3.68,0,0,0-.18-.38l-.11-.36a2.19,2.19,0,0,0-.23-.63.76.76,0,0,1-.09-.18,1.13,1.13,0,0,0-.09-.2,1.79,1.79,0,0,0-.78-.64,5.43,5.43,0,0,0-3-.84,5.67,5.67,0,0,0-2,.72,3.32,3.32,0,0,0-.76.52l-.22.27-.09.12c0,.06-.09.11-.13.16s-.12.13-.17.2A1.79,1.79,0,0,0,50,97.74,8.12,8.12,0,0,0,50.3,99l.15.43c0,.13.1.26.14.39a6.07,6.07,0,0,0,.38.93,1.35,1.35,0,0,0,1.06.73c.35.1.5.14.66.37a1.21,1.21,0,0,1,.1.2c.13.32.21.49.34.56l.32.2,0-.37a2.6,2.6,0,0,1,.32-1,1.56,1.56,0,0,1,.53-.18l.21-.06.08,0a3.39,3.39,0,0,0,1-.42,5.45,5.45,0,0,0,.8-.69l.15-.14c.36-.35.57-.54.48-1a.73.73,0,0,0-.15-.27c.06,0,1.23,0,1.47.06h0v-.25h0Z"/><path class="cls-7" d="M57.43,95.6l-.17-.28a3,3,0,0,0-1.55-1.46,2.72,2.72,0,0,1-.37-.2,2.29,2.29,0,0,0-.93-.38,4.49,4.49,0,0,0-2.55.75l-.37.51a5.61,5.61,0,0,1-.43.47,2.34,2.34,0,0,0-.87,1.43,1.25,1.25,0,0,0,.8,1.24.74.74,0,0,0,.83-.13.62.62,0,0,0,0-.81.76.76,0,0,1-.07-.81c.16-.38.34-.33.4-.31a1.12,1.12,0,0,1,.66,1.06,2.63,2.63,0,0,1-1,1.34,1.46,1.46,0,0,0-.42.37c-.08,0-.11.16-.15.34a.75.75,0,0,0,0,.16s0,.07,0,.11a.65.65,0,0,0,0,.14,1.19,1.19,0,0,0,.74,1,.42.42,0,0,0,.22,0,2.67,2.67,0,0,0,1.25-.63l.21-.14a.84.84,0,0,0,.82.6,3.89,3.89,0,0,0,1.28-.32l.32-.14a1.17,1.17,0,0,0,.85-1v-.06c0-.41-.51-.57-1.18-.77a4.14,4.14,0,0,1-.83-.29,1.21,1.21,0,0,1-.38-.28c-.19-.24-.11-.6,0-1l.06-.32a2.07,2.07,0,0,1,.91-.17.66.66,0,0,1,.62.51.93.93,0,0,1-.06.29c-.06.21-.18.62.18.77a1.33,1.33,0,0,0,1,.18.76.76,0,0,0,.57-.38A1.77,1.77,0,0,0,57.43,95.6Z"/><path class="cls-10" d="M65.38,103.52a2.85,2.85,0,0,1,2.21.2,3.45,3.45,0,0,1,2,3,.61.61,0,0,1-.08.44.64.64,0,0,1-.21.14c.19-.09-1.19,1.24-3.69,0-.6-.3-.83-.3-.93-1.56C64.57,104.21,64.17,104,65.38,103.52Z"/><path class="cls-3" d="M70.12,106.71a3.9,3.9,0,0,0-2.28-3.42,3.39,3.39,0,0,0-2.66-.24c-1.18.5-1.23,1-1.08,2,0,.22.08.5.11.85.11,1.31.4,1.57,1.08,1.89l.13.07a5.06,5.06,0,0,0,2.24.56,3.14,3.14,0,0,0,2-.64.86.86,0,0,0,.25-.22A1.09,1.09,0,0,0,70.12,106.71Zm-1,.18h0L69,107a2,2,0,0,1-.74.3,2,2,0,0,0-.22-.73,3,3,0,0,0-.72-1.06h0a4.73,4.73,0,0,0-2.22-.78c-.08-.51,0-.53.49-.76a2.36,2.36,0,0,1,1.79.19,3,3,0,0,1,1.76,2.65v.07Z"/><path class="cls-11" d="M70.28,155h0c.23.35.5.74.92.79.59.07,1-.55,1.29-1.07,1.33-2.36,3.4-4.22,4.88-6.49.07-.1.13-.24.06-.33s-.15-.07-.23-.08l-1.26,0a.37.37,0,0,0-.21,0,.42.42,0,0,0-.11.22,7,7,0,0,1-3,4.1,7.15,7.15,0,0,1-2.35,1c-.38.08-.91,0-1,.4S70.12,154.71,70.28,155Z"/><path class="cls-12" d="M71.29,156h-.12a1.71,1.71,0,0,1-1.1-.9h0c0-.07-.13-.18-.23-.31-.54-.69-.77-1-.74-1.3.06-.5.55-.55.87-.59l.28,0a6.94,6.94,0,0,0,2.28-1,6.86,6.86,0,0,0,2.85-3.95.49.49,0,0,1,.57-.44l1.26,0a.54.54,0,0,1,.41.17c.08.1.18.3,0,.63a31.69,31.69,0,0,1-2.23,2.89,25.61,25.61,0,0,0-2.64,3.58C72.48,155.21,72,156,71.29,156Zm-.8-1.18c.2.3.43.63.74.67s.76-.45,1-.94a24.52,24.52,0,0,1,2.7-3.66,31.56,31.56,0,0,0,2.19-2.84l0,0-1.25,0h-.06s0,0,0,.06a7.36,7.36,0,0,1-3.07,4.25,7.12,7.12,0,0,1-2.44,1.05,1.74,1.74,0,0,1-.34,0c-.35,0-.41.07-.42.14a4.48,4.48,0,0,0,.64.94c.11.15.2.27.25.35Z"/><path class="cls-13" d="M78.32,114.33c.39.18.85.18,1.24.37a2.07,2.07,0,0,1,.89,2.17c-.11.82-.48,1.59-.65,2.41-.13.66-.13,1.35-.22,2a6.87,6.87,0,0,1-3.17,4.81L77.78,123a8,8,0,0,0,.85-2.92,6.14,6.14,0,0,0-1.33-3.64h0c-.56-.78-2.64-4-1.43-5.11C76.81,110.45,77.46,114,78.32,114.33Z"/><path class="cls-3" d="M85,144.57a1.3,1.3,0,0,0-.81-.93,1.63,1.63,0,0,1-.42-.31c-.15-.18-.15-.22.19-.54a2.26,2.26,0,0,0,.58-.77l.19-.47-.62.17a12.62,12.62,0,0,1-3.85.61,8,8,0,0,0-1.39.17l-1.36.21.29-.34a4.74,4.74,0,0,0,1.34-2,3.33,3.33,0,0,0-.56-2,2,2,0,0,1,.53-2.59,6,6,0,0,0,1.15-1.2c.57-.9.23-2.18-.09-3.41a5.8,5.8,0,0,1-.32-2.54,15.19,15.19,0,0,0,.59-4.51c0-.16,0-.31,0-.46a6.38,6.38,0,0,1,0-1.06,5.06,5.06,0,0,1,.22-1h0l.07-.24s0-.06,0-.09l0-.1.18-.81-.6.57a1.59,1.59,0,0,0-.59.84c0,.09-.07.21-.13.37l-1.08,2.77a4.37,4.37,0,0,0-.32,1.4,2.94,2.94,0,0,1-.17.62,2.55,2.55,0,0,0-.21,1c0,.22,0,.43,0,.63s0,.52.08.82l0,.31c.19,1.23.28,1.79-.36,2.52a9.1,9.1,0,0,0-.63.9,8.9,8.9,0,0,1-.72,1,4.35,4.35,0,0,1-.7.42c-.75.39-1.46.77-1.39,1.25a5.09,5.09,0,0,0,.71,1.69,5.7,5.7,0,0,0,.77.82,1.48,1.48,0,0,1,.66,1.41,3,3,0,0,1-.66,1.55,3.18,3.18,0,0,0-.73,2.31,11.5,11.5,0,0,0,.78,2.89,1.17,1.17,0,0,0,1.08.82,2.07,2.07,0,0,0,.83-.22l.25-.09a11.24,11.24,0,0,1,1.5-.4,9.13,9.13,0,0,1,3,.11,5.41,5.41,0,0,0,1.41.11C84.82,146.61,85,145.1,85,144.57Z"/><path class="cls-4" d="M254,137.73c-1-.28-2.29.25-3.61,1.52l-1,.87a11,11,0,0,1-2.55,1.5,240,240,0,0,0-22.49,10.89,3.76,3.76,0,0,0-1.12.9,2,2,0,0,0-.41,2,5.2,5.2,0,0,1,.12.74c0,.55,0,1.22,0,1.86s0,1.33,0,1.9c.11,1.71.58,5.72,2.38,5.92h.14l.08-.1a8.24,8.24,0,0,0,1.31-2.74,5.87,5.87,0,0,1,.84-1.86,35.34,35.34,0,0,1,11.84-9.31c.41-.19.82-.36,1.23-.54a23.45,23.45,0,0,0,3.24-1.64,22.86,22.86,0,0,0,3.44-3c.43-.44.92-.89,1.44-1.37,2.18-2,4.9-4.53,5.35-7.32l0-.22Z"/><path class="cls-2" d="M254.61,139.91a2.2,2.2,0,0,0-2.57-1,6.4,6.4,0,0,0-2.25,1.31l-.19.15a58.53,58.53,0,0,1-8.43,5.1c-1.59.84-3.24,1.71-4.8,2.64-5.52,3.3-8.88,6.93-10.27,11.1-.8,2.39-1.61,6.07-1,6.77l.13.17.08-.2c.27-.73,4-3.53,8.26-6.78,3.77-2.85,8-6.09,11.2-8.82,1.12-1,2.29-1.94,3.42-2.88,1.68-1.39,3.42-2.83,5.06-4.33C254.54,141.92,255,140.83,254.61,139.91Z"/><path class="cls-5" d="M263.55,119.25a21.56,21.56,0,0,0-1.18-3.69q-.31-.78-.72-1.59c-1.19-2.42-2.7-3.53-4.37-3.22a3.33,3.33,0,0,0-2.54,2.55c-.49,2,.2,3.74.87,5.45.17.41.33.83.48,1.25,1.93,5.55,1,14-3,16.67a1.39,1.39,0,0,0-.61,1.41,8.55,8.55,0,0,0,.26,1,5.86,5.86,0,0,1,.32,1.73c0,1,.34,1.64.93,1.81.09,0,6.51-4.2,8.05-7.54a28.1,28.1,0,0,0,1.51-15.83Z"/><path class="cls-5" d="M71.58,211a61.76,61.76,0,0,0-1.91,7.4,58,58,0,0,1-1.88,7.31l-.25.69-.15.37c-.48,1.18-.8,2-2,2.43a9.55,9.55,0,0,1-2.21,0,7.4,7.4,0,0,0-2.43,0,3.9,3.9,0,0,0-2.07,2.06c-.17.3-.35.62-.57.94a3,3,0,0,0,.1,3l.08.15.18,0a3.43,3.43,0,0,0,.72-.19,1.52,1.52,0,0,1,.85-.14,2.7,2.7,0,0,1,.85.51,3.56,3.56,0,0,0,.91.56,3.24,3.24,0,0,0,.9.15,2.06,2.06,0,0,0,1.62-.88c.54-.61.88-1,1.1-1.2a2.61,2.61,0,0,0,.77-1.17l.06-.12c.79-1.86,1.43-3.61,2.11-5.46.28-.76.56-1.54.86-2.33.74-2,2.81-11.9,2.81-13.94v-1.27Z"/><path class="cls-5" d="M186.63,224.41a3.11,3.11,0,0,0-.84-1.2,54.64,54.64,0,0,0-7.54-6.32c-.93-.65-1.53-1-2-.76s-.6.94-.76,2.2l-.68,5.49c-.33,2.66-.7,5.67-2.18,8.11a20.25,20.25,0,0,1-4.65,4.82c-.58.49-1.19,1-1.76,1.5l-.22.2a9.41,9.41,0,0,1-1.46,1.16,7.27,7.27,0,0,1-3.48.83,18.36,18.36,0,0,1-3.23-.16l-.16,0a4.36,4.36,0,0,0-1.65,0,4.14,4.14,0,0,0-1.23.6l-3.59,2.25c-1.24.79-1.75,1.66-1.43,2.46a1.27,1.27,0,0,0,.75.72,2,2,0,0,0,1.58-.05,5.37,5.37,0,0,0,1.3-.95c.18-.17.37-.34.56-.49a4.79,4.79,0,0,1,2.81-1,15.61,15.61,0,0,0-3.25,1.9c-.6.47-1.12,1.19-.73,1.84a1.52,1.52,0,0,0,.84.57l2.73,1-.23-.55a2.17,2.17,0,0,1,.8-2.41,6.85,6.85,0,0,1,2.71-1.12,1.51,1.51,0,0,1,.85-.07.45.45,0,0,1,.27.25.25.25,0,0,1,0,.19.77.77,0,0,1-.23.2l-.6.36c-1,.57-2.1,1.22-2.08,2.41a1.68,1.68,0,0,0,.75,1.34,2.72,2.72,0,0,0,1.57.47,2.67,2.67,0,0,0,.8-.12,7.07,7.07,0,0,0,2.19-1.36c.29-.24.59-.48.9-.7a15,15,0,0,1,5.09-1.87,15.44,15.44,0,0,0,5.14-1.88,15.26,15.26,0,0,0,4.11-4.78,19.52,19.52,0,0,1,3.07-4c.36-.32.75-.63,1.13-.92a11.84,11.84,0,0,0,1.77-1.56c1.83-2.07,2.1-5.15,2.3-7.4A3.09,3.09,0,0,0,186.63,224.41Z"/><path class="cls-5" d="M232.92,87.48c-20.45,12.77-93.59,21.06-118,15.36-16.2-3.77-46.62-46.17-36.44-55.66,14.88-13.89,166.13-12.54,172.35,0S244.73,80.11,232.92,87.48Z"/><polygon class="cls-5" points="100.03 89.42 96.31 107.31 115.64 98.5 100.03 89.42"/><path d="M100.84,61.47a5.53,5.53,0,0,1,3.93,1.45l-.93,1.44a4.72,4.72,0,0,0-2.91-1.12,3.47,3.47,0,0,0-3.57,3.66,3.6,3.6,0,0,0,3.58,3.81A4.57,4.57,0,0,0,104,69.36l1,1.39a5.72,5.72,0,0,1-4.18,1.73,5.51,5.51,0,0,1,0-11Z"/><path d="M110.57,67.5h.26v-.11c0-1-.63-1.35-1.47-1.35a4.06,4.06,0,0,0-2.1.74l-.72-1.37a5.16,5.16,0,0,1,3-.94,2.84,2.84,0,0,1,3.18,3V72.3H111v-.63a4.85,4.85,0,0,1,0-.54h0a2.46,2.46,0,0,1-2.32,1.35,2.41,2.41,0,0,1-2.6-2.39C106,67.66,109.33,67.5,110.57,67.5ZM109.12,71a2,2,0,0,0,1.72-2V68.8h-.33c-1,0-2.55.14-2.55,1.2A1,1,0,0,0,109.12,71Z"/><path d="M114.85,64.65h1.83v.88a4.78,4.78,0,0,1,0,.53h0a2.89,2.89,0,0,1,2.49-1.59A2.1,2.1,0,0,1,121.4,66h0A3,3,0,0,1,124,64.47c1.59,0,2.51.9,2.51,2.91V72.3h-1.91V67.74c0-.87-.16-1.53-1-1.53A2,2,0,0,0,121.75,68a3.88,3.88,0,0,0-.09,1V72.3h-1.91V67.74c0-.83-.13-1.53-1-1.53A2,2,0,0,0,116.84,68a4.3,4.3,0,0,0-.09,1V72.3h-1.9Z"/><path d="M132,64.47a3.31,3.31,0,0,1,3.39,3.63c0,.22-.05.73-.05.73H130.1a2.18,2.18,0,0,0,2.3,2,3.76,3.76,0,0,0,2.2-.84l.74,1.36a4.77,4.77,0,0,1-3.08,1.1,3.92,3.92,0,0,1-4.11-4A3.78,3.78,0,0,1,132,64.47Zm1.47,3.06A1.48,1.48,0,0,0,132,65.94a1.79,1.79,0,0,0-1.83,1.59Z"/><path d="M137.05,61.65h1.89v8c0,.84.28,1.05.78,1.05a2.07,2.07,0,0,0,.28,0v1.67a4.77,4.77,0,0,1-.6,0c-1.05,0-2.35-.27-2.35-2.46Z"/><path d="M145.19,64.47a4,4,0,1,1-4.2,4A4,4,0,0,1,145.19,64.47Zm0,6.39a2.39,2.39,0,1,0-2.28-2.39A2.27,2.27,0,0,0,145.21,70.86Z"/><path d="M151.42,66.28h-1V64.77h1V62.56h1.86v2.21h1.74v1.51h-1.74v3a1.36,1.36,0,0,0,1.52,1.44,1.66,1.66,0,0,0,.34,0v1.67a3.58,3.58,0,0,1-.58,0c-1.07,0-3.18-.31-3.18-2.88Z"/><path d="M165.73,61.47a5.53,5.53,0,0,1,3.93,1.45l-.93,1.44a4.72,4.72,0,0,0-2.91-1.12,3.47,3.47,0,0,0-3.57,3.66,3.6,3.6,0,0,0,3.58,3.81,4.57,4.57,0,0,0,3.09-1.35l1,1.39a5.72,5.72,0,0,1-4.18,1.73,5.51,5.51,0,0,1,0-11Z"/><path d="M175.21,64.47a4,4,0,1,1-4.2,4A4,4,0,0,1,175.21,64.47Zm0,6.39a2.39,2.39,0,1,0-2.28-2.39A2.28,2.28,0,0,0,175.22,70.86Z"/><path d="M181,61.65h1.89v8c0,.84.28,1.05.78,1.05a2.27,2.27,0,0,0,.28,0v1.67a4.77,4.77,0,0,1-.6,0c-1,0-2.35-.27-2.35-2.46Z"/><path d="M185.41,61.65h1.89v8c0,.84.28,1.05.78,1.05a2.07,2.07,0,0,0,.28,0v1.67a4.77,4.77,0,0,1-.6,0c-1,0-2.35-.27-2.35-2.46Z"/><path d="M193.27,64.47a3.31,3.31,0,0,1,3.39,3.63c0,.22,0,.73,0,.73h-5.28a2.18,2.18,0,0,0,2.3,2,3.76,3.76,0,0,0,2.2-.84l.73,1.36a4.73,4.73,0,0,1-3.07,1.1,3.92,3.92,0,0,1-4.11-4A3.78,3.78,0,0,1,193.27,64.47Zm1.47,3.06a1.48,1.48,0,0,0-1.52-1.59,1.79,1.79,0,0,0-1.83,1.59Z"/><path d="M202,64.47a3.88,3.88,0,0,1,2.94,1.14l-.84,1.3a3,3,0,0,0-2-.82,2.27,2.27,0,0,0-2.33,2.37,2.33,2.33,0,0,0,2.39,2.4,3.51,3.51,0,0,0,2.25-1l.73,1.35A4.34,4.34,0,0,1,202,72.48a4,4,0,1,1,0-8Z"/><path d="M207,66.28h-1V64.77h1V62.56h1.86v2.21h1.74v1.51h-1.74v3a1.36,1.36,0,0,0,1.52,1.44,1.66,1.66,0,0,0,.34,0v1.67a3.58,3.58,0,0,1-.58,0c-1.07,0-3.18-.31-3.18-2.88Z"/><path d="M212.51,61.65h1.89v1.69h-1.89Zm0,3h1.91V72.3h-1.91Z"/><path d="M215.62,64.65h2l1.59,4.74c.15.45.25,1.15.27,1.15h0s.12-.7.27-1.15l1.59-4.74h2l-2.75,7.65h-2.25Z"/><path d="M227.94,64.47a3.31,3.31,0,0,1,3.4,3.63c0,.22-.05.73-.05.73H226a2.18,2.18,0,0,0,2.3,2,3.79,3.79,0,0,0,2.2-.84l.73,1.36a4.76,4.76,0,0,1-3.07,1.1,3.92,3.92,0,0,1-4.11-4A3.78,3.78,0,0,1,227.94,64.47Zm1.48,3.06a1.48,1.48,0,0,0-1.52-1.59,1.79,1.79,0,0,0-1.83,1.59Z"/><path d="M233.48,61.65h2l-.15,7.57h-1.66Zm.08,8.88h1.84V72.3h-1.84Z"/></svg>