<svg xmlns="http://www.w3.org/2000/svg" viewBox="0 0 350 350"><title>dolla_dolla_biel</title><path d="M82.11,291a12.08,12.08,0,0,1-2.55.58h-.08a.57.57,0,0,1-.51-.27l-2,5.28a.56.56,0,0,1-.54.39.64.64,0,0,1-.66-.6.67.67,0,0,1,0-.24l3.75-9.76a.56.56,0,0,1,.54-.39.66.66,0,0,1,.66.6.69.69,0,0,1-.06.24l-1.35,3.54h.08c2-.39,4.38-.9,5.1-3a1.46,1.46,0,0,0,.08-.45c0-.94-1-1.5-1.83-1.63a9.44,9.44,0,0,0-1.45-.09,13.77,13.77,0,0,0-4,.52h-.22a.62.62,0,0,1-.6-.64h0a.58.58,0,0,1,.41-.56,15.85,15.85,0,0,1,4.38-.58,10.28,10.28,0,0,1,1.65.11,3,3,0,0,1,2.87,2.79C85.82,288.88,83.85,290.34,82.11,291Z" style="fill:#141414"/><path d="M89.85,295.88a.65.65,0,0,1-.66.57.57.57,0,0,1-.54-.37l-1-2.36H87L86.46,296a.59.59,0,0,1-.6.5.57.57,0,0,1-.6-.54s0,0,0,0v-.13l1.41-6.39c.08-.36.33-.29.63-.29h1.89A1.78,1.78,0,0,1,90.83,291v.09A3,3,0,0,1,89,293.63,17.46,17.46,0,0,1,89.85,295.88Zm-2.13-5.61-.48,2.25h1.29c.54,0,1.08-1,1.1-1.48,0-.27-.14-.77-.47-.77Z" style="fill:#141414"/><path d="M92.52,293.4c.07-2,1.68-4.4,3.82-4.4,1.68,0,2.46,1.5,2.4,3-.06,2-1.67,4.4-3.79,4.4C93.26,296.42,92.46,294.92,92.52,293.4Zm1.21.06c0,.76.33,1.75,1.25,1.75,1.47,0,2.53-2,2.56-3.25,0-.76-.33-1.75-1.25-1.75-1.46,0-2.51,2-2.55,3.25Z" style="fill:#141414"/><path d="M100.67,294.48a4.62,4.62,0,0,1,.1-.79l.95-4.21a.61.61,0,0,1,.62-.48.56.56,0,0,1,.6.52s0,0,0,.05v.12l-.86,3.77a5.19,5.19,0,0,0-.15.94c0,.56.1.81.69.81,1.07,0,1.56-.27,1.84-1.35.39-1.44.62-2.94,1.05-4.38a.57.57,0,0,1,.6-.48.56.56,0,0,1,.58.54s0,0,0,0v.12a37.1,37.1,0,0,1-1,4.38,2.71,2.71,0,0,1-2.91,2.34C101.46,296.4,100.62,295.84,100.67,294.48Z" style="fill:#141414"/><path d="M108.5,296.34c-.24,0-.44-.06-.42-.32s1.44-6.33,1.56-6.61a.48.48,0,0,1,.54-.34h1.65c1.68,0,2.4,1.3,2.35,2.85-.08,2-1.48,4.42-3.73,4.42Zm1.08-1.2h.92c1.5,0,2.44-2,2.49-3.24,0-.83-.27-1.64-1.2-1.64h-1.14Z" style="fill:#141414"/><path d="M116,295.93a1.13,1.13,0,0,1,0-.21c.22-1.21.51-2.4.76-3.61.18-.84.33-1.71.55-2.54a.6.6,0,0,1,.6-.51.57.57,0,0,1,.6.54s0,0,0,0v.12l-1.17,5.37H120a.57.57,0,0,1,.59.55s0,0,0,.05a.61.61,0,0,1-.62.6h-3.59C116.1,296.34,116,296.22,116,295.93Z" style="fill:#141414"/><path d="M125.46,296a.64.64,0,0,1-.61.51.58.58,0,0,1-.6-.56v0a16.59,16.59,0,0,1,.53-2.47c-.15-.51-1-3.45-1-3.76a.65.65,0,0,1,.66-.58.56.56,0,0,1,.54.43l.71,2.52,1.93-2.67a.58.58,0,0,1,.5-.29.61.61,0,0,1,.62.6h0c0,.43-2.35,3.43-2.75,4Z" style="fill:#141414"/><path d="M136.88,296.34a.58.58,0,0,1-.64-.58v-.12l1.33-6.06a.65.65,0,0,1,.67-.51H140a1.63,1.63,0,0,1,1.77,1.8,2.5,2.5,0,0,1-.9,1.88,1.67,1.67,0,0,1,.4,1.18,2.63,2.63,0,0,1-2.5,2.42Zm.72-1.2h1.17A1.23,1.23,0,0,0,140,294a.57.57,0,0,0-.48-.64H138Zm.66-3h1a1.33,1.33,0,0,0,1.25-1.23.57.57,0,0,0-.51-.62h-1.37Z" style="fill:#141414"/><path d="M144.83,295.2a12.09,12.09,0,0,0-.6,1.14.65.65,0,0,1-.63.51.6.6,0,0,1-.62-.58h0c0-.39,3.29-6.21,3.67-6.93a.73.73,0,0,1,.6-.42c.33,0,.51.3.54.62l.66,6.19v.11a.6.6,0,0,1-.62.58h0c-.68,0-.6-.74-.65-1.21Zm.66-1.2H147l-.27-2.38Z" style="fill:#141414"/><path d="M153.93,290.1a1.35,1.35,0,0,0-1.39,1.23c0,1,2.79.38,2.71,2.46a2.79,2.79,0,0,1-2.82,2.75c-.58,0-1.95-.42-1.92-1.19a.68.68,0,0,1,.65-.61c.45,0,.52.57,1.32.57a1.64,1.64,0,0,0,1.54-1.37c0-1-2.82-.49-2.74-2.53a2.66,2.66,0,0,1,2.7-2.55c.71,0,1.92.5,1.89,1.36a.68.68,0,0,1-.68.62C154.55,290.83,154.85,290.1,153.93,290.1Z" style="fill:#141414"/><path d="M159.3,292.26h2.12a.56.56,0,0,1,.6.6.62.62,0,0,1-.64.6H159l-.36,1.68h2.63a.56.56,0,0,1,.58.6.6.6,0,0,1-.6.6h-3.39c-.29,0-.64-.12-.63-.43v-.11a26.14,26.14,0,0,1,.62-2.8c.25-1.14.45-2.31.75-3.42a.74.74,0,0,1,.63-.51h3.32a.56.56,0,0,1,.58.6.6.6,0,0,1-.6.6h-2.85Z" style="fill:#141414"/><path d="M164.75,296.34c-.24,0-.44-.06-.42-.32s1.44-6.33,1.56-6.61a.48.48,0,0,1,.54-.34h1.65c1.68,0,2.4,1.3,2.35,2.85-.08,2-1.48,4.42-3.73,4.42Zm1.08-1.2h.92c1.5,0,2.44-2,2.49-3.24,0-.83-.27-1.64-1.2-1.64H166.9Z" style="fill:#141414"/><path d="M178.52,295.91v-.14l1.37-6.28a.63.63,0,0,1,.62-.5.57.57,0,0,1,.6.54s0,0,0,0v.12L179.73,296a.61.61,0,0,1-.6.51.6.6,0,0,1-.61-.59Z" style="fill:#141414"/><path d="M186.44,295.77c-.57-1.35-1.05-2.76-1.58-4.14l-.93,4.23a.57.57,0,0,1-.6.48.56.56,0,0,1-.6-.52s0,0,0-.05v-.13l1.33-6.06a.72.72,0,0,1,.71-.51.75.75,0,0,1,.57.39,8.37,8.37,0,0,1,.4,1.14c.39,1.07.77,2.16,1.11,3.25l.95-4.27a.62.62,0,0,1,.6-.51.58.58,0,0,1,.62.54s0,0,0,0v.13l-1.36,6.13a.68.68,0,0,1-.53.51C186.74,296.43,186.57,296.08,186.44,295.77Z" style="fill:#141414"/><path d="M207.26,285.83l-4.38,10.36a.57.57,0,0,1-.54.36.66.66,0,0,1-.66-.6.87.87,0,0,1,.06-.27l1.27-3-2.29.15c-.63,1.11-1.25,2.23-1.9,3.33a25.29,25.29,0,0,1-1.59,2.38c-.89,1.11-2.39,2.33-3.89,2.33s-1.86-.85-2.17-2.13a.57.57,0,0,1,0-.17.58.58,0,0,1,.58-.58h0c1,0,.24,1.65,1.56,1.65a4.58,4.58,0,0,0,2.92-1.87c2.54-3.24,5.71-11.12,8.85-13a4.74,4.74,0,0,1,2.22-.51.61.61,0,0,1,.65.57s0,0,0,.05C208,285.51,207.48,285.29,207.26,285.83Zm-2.62.93a25.13,25.13,0,0,0-3.18,4.77l2.1-.14,2.4-5.64a5.06,5.06,0,0,0-1.33,1Z" style="fill:#141414"/><path d="M211.7,295.67a.65.65,0,0,1-.55.67.59.59,0,0,1-.63-.36l-1.2-3-.57.45-.54,2.4a.6.6,0,0,1-.6.5.58.58,0,0,1-.61-.55s0,0,0,0a16.91,16.91,0,0,1,.51-2.33l.84-3.87a.61.61,0,0,1,.6-.5.58.58,0,0,1,.62.54v0a11.23,11.23,0,0,1-.41,1.85l2.6-2.07a.82.82,0,0,1,.45-.21.61.61,0,0,1,.62.6h0a.49.49,0,0,1-.17.39l-2.5,2C210.26,292.65,211.65,295.37,211.7,295.67Z" style="fill:#141414"/><path d="M218.27,295.88a.65.65,0,0,1-.66.57.57.57,0,0,1-.54-.37l-1-2.36h-.71l-.51,2.24a.59.59,0,0,1-.6.5.57.57,0,0,1-.6-.54s0,0,0,0v-.13l1.41-6.39c.08-.36.33-.29.63-.29h1.89a1.78,1.78,0,0,1,1.64,1.91v.09a3,3,0,0,1-1.87,2.58A17.46,17.46,0,0,1,218.27,295.88Zm-2.13-5.61-.48,2.25h1.29c.54,0,1.08-1,1.1-1.48,0-.27-.14-.77-.47-.77Z" style="fill:#141414"/><path d="M220.94,293.4c.07-2,1.68-4.4,3.82-4.4,1.68,0,2.46,1.5,2.4,3-.06,2-1.67,4.4-3.79,4.4C221.67,296.42,220.88,294.92,220.94,293.4Zm1.21.06c0,.76.33,1.75,1.25,1.75,1.47,0,2.53-2,2.56-3.25,0-.76-.33-1.75-1.25-1.75-1.46,0-2.51,2-2.56,3.25Z" style="fill:#141414"/><path d="M232.43,295.77c-.57-1.35-1.05-2.76-1.58-4.14l-.93,4.23a.57.57,0,0,1-.6.48.56.56,0,0,1-.6-.52s0,0,0-.05v-.13l1.33-6.06a.72.72,0,0,1,.71-.51.75.75,0,0,1,.57.39,8.37,8.37,0,0,1,.4,1.14c.39,1.07.77,2.16,1.11,3.25l.95-4.27a.62.62,0,0,1,.6-.51.58.58,0,0,1,.62.54s0,0,0,0v.13l-1.36,6.13a.68.68,0,0,1-.53.51C232.73,296.43,232.56,296.08,232.43,295.77Z" style="fill:#141414"/><path d="M236.76,295.71a.88.88,0,0,1,.84-.92h0c.54,0,.75.43.75.93a3,3,0,0,1-1.77,2.55,1,1,0,0,1-.3.08.6.6,0,0,1-.57-.58c0-.41,1.13-.83,1.42-1.42A.84.84,0,0,1,236.76,295.71Z" style="fill:#141414"/><path d="M255.28,289.35c-.74,2-2.66,7.3-5.22,7.33a3.17,3.17,0,0,1-3.08-3v-.46c0-3,2.66-9.27,6.1-9.3a2.44,2.44,0,0,1,2.63,2.23s0,.09,0,.13A6.72,6.72,0,0,1,255.28,289.35Zm-2.07-4.17c-1.65,0-3.18,2.5-3.79,3.76a14,14,0,0,0-.85,2.21,7.17,7.17,0,0,0-.3,2.65c.12,1,.62,1.67,1.65,1.65a1.54,1.54,0,0,0,.87-.42c1.48-1.19,4-6.78,3.71-8.79a1.11,1.11,0,0,0-1.14-1.07h-.15Z" style="fill:#141414"/><path d="M259.2,295.83a21.65,21.65,0,0,1,.51-2.45h-2.28l-.54,2.52a.6.6,0,0,1-.6.51.58.58,0,0,1-.58-.72l1.33-6.12a.61.61,0,0,1,.6-.51.58.58,0,0,1,.62.54s0,0,0,0a21.07,21.07,0,0,1-.56,2.55H260l.57-2.62a.61.61,0,0,1,.6-.51.59.59,0,0,1,.62.56v0a28.6,28.6,0,0,1-.69,3.21l-.66,3a.62.62,0,0,1-.6.51.57.57,0,0,1-.64-.49Z" style="fill:#141414"/><path d="M263.58,295.91v-.14l1.37-6.28a.63.63,0,0,1,.62-.5.57.57,0,0,1,.6.54s0,0,0,0v.12L264.79,296a.61.61,0,0,1-.6.51.6.6,0,0,1-.61-.59Z" style="fill:#141414"/><path d="M267.71,293.4c.07-2,1.68-4.4,3.82-4.4,1.68,0,2.46,1.5,2.4,3-.06,2-1.67,4.4-3.79,4.4C268.44,296.42,267.64,294.92,267.71,293.4Zm1.21.06c0,.76.33,1.75,1.25,1.75,1.47,0,2.53-2,2.56-3.25,0-.76-.33-1.75-1.25-1.75-1.48,0-2.48,2-2.56,3.25Z" style="fill:#141414"/><path d="M58.17,220.13l-4.7,24.51c7.86,1.5,11.8,2.2,19.7,3.46" style="fill:none;stroke:#141414;stroke-linecap:round;stroke-linejoin:round;stroke-width:3px"/><path d="M277,249l1.83,12.18c7-6,10.49-9.12,17.22-15.35C288.44,247.17,284.63,247.81,277,249Z" style="fill:none;stroke:#141414;stroke-linecap:round;stroke-linejoin:round;stroke-width:3px"/><path d="M322,213.8c-10,2.35-20.09,4.44-30.19,6.25,1.78,10.28,2.66,15.42,4.43,25.7-6.82,6.25-10.31,9.33-17.45,15.39,10.43-1.58,15.63-2.47,26-4.46s15.55-3.08,25.87-5.48c-7.3-6.18-10.88-9.33-17.89-15.7C316.68,226.84,318.52,222.5,322,213.8Z" style="fill:none;stroke:#141414;stroke-linecap:round;stroke-linejoin:round;stroke-width:3px"/><path d="M72.73,248.3,70.9,260.48c-7-6-10.47-9.12-17.2-15.34C61.3,246.51,65.1,247.15,72.73,248.3Z" style="fill:none;stroke:#141414;stroke-linecap:round;stroke-linejoin:round;stroke-width:3px"/><path d="M27.74,213.15q15,3.53,30.16,6.25c-1.78,10.28-2.66,15.42-4.43,25.7,6.81,6.24,10.3,9.32,17.43,15.38C60.48,258.9,55.28,258,44.9,256s-15.54-3.08-25.85-5.48c7.3-6.19,10.87-9.33,17.87-15.7C33.09,226.19,31.25,221.85,27.74,213.15Z" style="fill:none;stroke:#141414;stroke-linecap:round;stroke-linejoin:round;stroke-width:3px"/><path d="M73.17,248.1A703.25,703.25,0,0,0,277,249" style="fill:none;stroke:#141414;stroke-linecap:round;stroke-linejoin:round;stroke-width:3px"/><path d="M291.84,220.06l-2.2-12.12a657.19,657.19,0,0,1-228.95-1l-2.52,13.19" style="fill:none;stroke:#141414;stroke-linecap:round;stroke-linejoin:round;stroke-width:3px"/><path d="M70.43,221.5l4.55.76a18.87,18.87,0,0,1,4.61,1.18,7.32,7.32,0,0,1,.69,12.89,8.64,8.64,0,0,1-4.68,1.22,28.36,28.36,0,0,1-4-.43l-3.79-.64Zm3.29,15.05.32.06h.26a7.84,7.84,0,0,0,5.46-1,6.26,6.26,0,0,0,3-4.68,6.69,6.69,0,0,0-.45-3.71,6.21,6.21,0,0,0-4.06-3.49,18.22,18.22,0,0,0-2.4-.57Z" style="fill:#141414;stroke:#141414;stroke-miterlimit:10;stroke-width:0.5px"/><path d="M87,233.61a5.54,5.54,0,0,1,.81-2.26,5.81,5.81,0,0,1,1.58-1.64,6.62,6.62,0,0,1,4.78-1A6.38,6.38,0,0,1,98.55,231a5.93,5.93,0,0,1-1.08,8.31,6.41,6.41,0,0,1-4.86,1.14,6.5,6.5,0,0,1-4.34-2.27A5.61,5.61,0,0,1,87,233.61Zm5.37,6h.34a5.6,5.6,0,0,0,4-.84,4.79,4.79,0,0,0,2.11-3.57,4.89,4.89,0,0,0-1.06-3.89,5.52,5.52,0,0,0-3.69-1.9h-.33Z" style="fill:#141414;stroke:#141414;stroke-miterlimit:10;stroke-width:0.5px"/><path d="M105.39,226.49l4.74.52-1.62,15.11-4.85-.54Z" style="fill:#141414;stroke:#141414;stroke-miterlimit:10;stroke-width:0.5px"/><path d="M115.42,227.56l4.74.45-1.38,15.14-4.86-.46Z" style="fill:#141414;stroke:#141414;stroke-miterlimit:10;stroke-width:0.5px"/><path d="M131.82,243.49a6.46,6.46,0,0,1-6.94-.73,3.82,3.82,0,0,1-1.2-3.3,3.64,3.64,0,0,1,1.69-2.83,6.13,6.13,0,0,1,4-.86,7.84,7.84,0,0,1,3,.81l.21-2.95a6.94,6.94,0,0,0-1.77-.41,11.58,11.58,0,0,0-1.31,0,7.32,7.32,0,0,0-1,.12,3.92,3.92,0,0,0-1.63.63.9.9,0,0,1-.59.23.55.55,0,0,1-.38-.16.36.36,0,0,1-.11-.28.66.66,0,0,1,.08-.27.74.74,0,0,1,.23-.23,3.86,3.86,0,0,1,1.16-.47,9.52,9.52,0,0,1,3.28-.34c3.29.24,5.34,1.13,6.15,2.71a5.13,5.13,0,0,1,.43,2.69l-.43,6.72-4.84-.32Zm.43-6.09a6.7,6.7,0,0,0-2.76-.86,2.6,2.6,0,0,0-.43,0l-.52,6.81h.26a5.11,5.11,0,0,0,3.08-.82Z" style="fill:#141414;stroke:#141414;stroke-miterlimit:10;stroke-width:0.5px"/><path d="M149.53,230l4.6.19a18.77,18.77,0,0,1,4.71.6,7.28,7.28,0,0,1,2.62,1.39,7.45,7.45,0,0,1-.33,11.31,8.61,8.61,0,0,1-4.48,1.79,28.24,28.24,0,0,1-4,.06l-3.83-.16C149.12,239.11,149.26,236.07,149.53,230Zm5.13,14.53h.59a7.82,7.82,0,0,0,5.29-1.65,6.26,6.26,0,0,0,2.41-5,6.7,6.7,0,0,0-.91-3.62,6.2,6.2,0,0,0-4.45-3,18,18,0,0,0-2.44-.26c-.2,5.43-.3,8.13-.5,13.52Z" style="fill:#141414;stroke:#141414;stroke-miterlimit:10;stroke-width:0.5px"/><path d="M167.47,239.94a5.55,5.55,0,0,1,.53-2.34,5.82,5.82,0,0,1,1.36-1.82,6.61,6.61,0,0,1,4.61-1.63,6.36,6.36,0,0,1,4.59,1.75,5.94,5.94,0,0,1,0,8.38,6.4,6.4,0,0,1-4.67,1.74,6.49,6.49,0,0,1-4.58-1.71A5.62,5.62,0,0,1,167.47,239.94Zm6.06,5.27h.34a5.59,5.59,0,0,0,3.84-1.33,4.8,4.8,0,0,0,1.64-3.8,4.89,4.89,0,0,0-1.54-3.73,5.51,5.51,0,0,0-3.89-1.43h-.32c0,4.08,0,6.18-.06,10.29Z" style="fill:#141414;stroke:#141414;stroke-miterlimit:10;stroke-width:0.5px"/><path d="M184.77,230.59l4.76-.07c.11,6.08.17,9.12.27,15.2l-4.87.07C184.87,239.71,184.84,236.67,184.77,230.59Z" style="fill:#141414;stroke:#141414;stroke-miterlimit:10;stroke-width:0.5px"/><path d="M194.85,230.4l4.76-.15c.21,6.08.31,9.11.51,15.19l-4.87.15C195.1,239.51,195,236.47,194.85,230.4Z" style="fill:#141414;stroke:#141414;stroke-miterlimit:10;stroke-width:0.5px"/><path d="M213.12,244.16a6.47,6.47,0,0,1-7,.14,3.82,3.82,0,0,1-1.6-3.13,3.64,3.64,0,0,1,1.33-3,6.13,6.13,0,0,1,3.83-1.35,7.86,7.86,0,0,1,3.05.43l-.16-2.95a6.9,6.9,0,0,0-1.8-.18,11.38,11.38,0,0,0-1.3.13,7.47,7.47,0,0,0-1,.24,3.93,3.93,0,0,0-1.54.83.9.9,0,0,1-.56.3.56.56,0,0,1-.4-.11.37.37,0,0,1-.15-.27.65.65,0,0,1,0-.28.75.75,0,0,1,.2-.26,3.87,3.87,0,0,1,1.09-.61,9.56,9.56,0,0,1,3.21-.75c3.29-.17,5.44.46,6.44,1.92a5.13,5.13,0,0,1,.77,2.61l.41,6.72-4.85.28Zm-.33-6.09a6.72,6.72,0,0,0-2.85-.51,2.61,2.61,0,0,0-.42.05l.33,6.82h.26a5.11,5.11,0,0,0,3-1.2Z" style="fill:#141414;stroke:#141414;stroke-miterlimit:10;stroke-width:0.5px"/><path d="M229,228.56l4.75-.4,2.14-.18a7,7,0,0,1,2.34.15,3.93,3.93,0,0,1,1.14.55,2.63,2.63,0,0,1,1,1.88,2.82,2.82,0,0,1-.64,2.09,2.61,2.61,0,0,1-.55.52,5.54,5.54,0,0,1,3.12,1.17,4.11,4.11,0,0,1,1.57,2.9,4.54,4.54,0,0,1-.86,3.25,7.07,7.07,0,0,1-4.93,2.49q-.88.12-1.74.2c-2.47.22-3.7.33-6.16.53C229.75,237.65,229.5,234.62,229,228.56Zm7.73,4.64h.75a2.13,2.13,0,0,0,1.47-.76,2.17,2.17,0,0,0,.53-1.69,2,2,0,0,0-1.23-1.71,2.62,2.62,0,0,0-1.09-.28h-.83a10.2,10.2,0,0,0-1.63.1l1.21,13.58,1.25-.11a9.55,9.55,0,0,0,3.08-.74,5,5,0,0,0,2.14-1.74,3.29,3.29,0,0,0,.59-2.16,4.51,4.51,0,0,0-.52-1.8,3.48,3.48,0,0,0-1.1-1.18,5.53,5.53,0,0,0-3.71-.73l-.76.14a.81.81,0,0,1-.54-.09.41.41,0,0,1-.2-.3q0-.47.61-.53Z" style="fill:#141414;stroke:#141414;stroke-miterlimit:10;stroke-width:0.5px"/><path d="M249.78,228.4a2.87,2.87,0,0,1-1.83-.29,1.55,1.55,0,0,1-.78-1.22,1.4,1.4,0,0,1,.58-1.23,2.8,2.8,0,0,1,1.53-.69,4.12,4.12,0,0,1,1.31,0,2.62,2.62,0,0,1,.82.33,1.55,1.55,0,0,1,.78,1.14,1.4,1.4,0,0,1-.59,1.26A3.34,3.34,0,0,1,249.78,228.4Zm-2.12,2.13,4.77-.54,1.33,11.4-4.85.55Z" style="fill:#141414;stroke:#141414;stroke-miterlimit:10;stroke-width:0.5px"/><path d="M269.28,236.74q.44-.06.49.32a1.08,1.08,0,0,1-.3.74,6.7,6.7,0,0,1-4.63,2.4,7,7,0,0,1-4.89-1,5.24,5.24,0,0,1-2.49-3.93,5.67,5.67,0,0,1,1.23-4.46,7,7,0,0,1,4.69-2.41,6.24,6.24,0,0,1,4.33.87,5.14,5.14,0,0,1,2.39,3.79,7.61,7.61,0,0,0,.09.77c-3,.43-4.42.63-7.37,1l.6,4.57a9,9,0,0,0,1.74-.08,5,5,0,0,0,3.28-1.74,4.21,4.21,0,0,0,.35-.49A.73.73,0,0,1,269.28,236.74Zm-4.09-7.57a6.13,6.13,0,0,0-1.66,0,7.14,7.14,0,0,0-1.43.31l.61,4.59,3.09-.42Z" style="fill:#141414;stroke:#141414;stroke-miterlimit:10;stroke-width:0.5px"/><path d="M273.29,223.43l4.72-.73,2.39,15-4.84.75Z" style="fill:#141414;stroke:#141414;stroke-miterlimit:10;stroke-width:0.5px"/><path d="M221.27,131.07c0,3.85-4.39,3.87-5.62,5.87h3.49a.71.71,0,0,1,.74.68s0,0,0,0a.72.72,0,0,1-.68.76h-4.74c-.4,0-.74-.16-.74-.61a5.26,5.26,0,0,1,1.51-2.65c1.48-1.21,4.57-1.71,4.57-4.09,0-.86-.67-1.1-1.4-1.1-1.35,0-2.32.92-2.74.92a.77.77,0,0,1-.74-.76c0-1,2.67-1.62,3.48-1.62C220,128.51,221.27,129.34,221.27,131.07Z" style="fill:#141414"/><path d="M231,132.15c0,2.61-1.66,6.46-4.68,6.46-2.07,0-2.9-1.82-2.9-3.62,0-2.56,1.71-6.48,4.72-6.48C230.27,128.51,231,130.31,231,132.15Zm-4.68,5c2.13,0,3.24-3.31,3.24-5.06,0-.9-.29-2.12-1.42-2.12-2.12,0-3.28,3.42-3.28,5.1,0,.93.41,2.08,1.5,2.08Z" style="fill:#141414"/><path d="M235.51,133.16a.72.72,0,0,1-.68-.76h0a.7.7,0,0,1,.45-.65,17,17,0,0,0,1.93-2.81.83.83,0,0,1,.7-.45.69.69,0,0,1,.67.71v0c0,.67-1.58,7.47-1.8,8.59a.73.73,0,0,1-1.44-.13c0-.5.86-4.21,1-5A1.29,1.29,0,0,1,235.51,133.16Z" style="fill:#141414"/><path d="M249,132.15c0,2.61-1.66,6.46-4.68,6.46-2.07,0-2.9-1.82-2.9-3.62,0-2.56,1.71-6.48,4.72-6.48C248.27,128.51,249,130.31,249,132.15Zm-4.68,5c2.13,0,3.24-3.31,3.24-5.06,0-.9-.29-2.12-1.42-2.12-2.12,0-3.28,3.42-3.28,5.1,0,.93.41,2.08,1.5,2.08Z" style="fill:#141414"/><path d="M115.24,126c-.81,0-.79-1.53-2.68-1.53-1.66,0-4.66,1.1-4.63,3.11a2.14,2.14,0,0,0,.09.58,5.1,5.1,0,0,1,2.05-.47c1.15,0,2.74.47,2.75,1.87s-1.22,1.84-2.36,1.84a4.16,4.16,0,0,1-2.88-1.22,5.56,5.56,0,0,0-2.2,4.16,2.78,2.78,0,0,0,2.71,2.85l.39,0a3.51,3.51,0,0,0,2.47-.67l.52-.45a.72.72,0,0,1,.49-.22.82.82,0,0,1,.77.77.69.69,0,0,1-.25.52,4.45,4.45,0,0,1-.52.47,4.86,4.86,0,0,1-3.46,1,4.26,4.26,0,0,1-4.58-3.92q0-.19,0-.38a7.12,7.12,0,0,1,2.83-5.4,3.5,3.5,0,0,1-.29-1.35c-.05-2.93,3.53-4.59,6.09-4.59a3.77,3.77,0,0,1,3.31,1.85.68.68,0,0,1,.14.41.77.77,0,0,1-.75.79Zm-5.13,3.17a3.33,3.33,0,0,0-1.19.23,2.57,2.57,0,0,0,1.53.52c.22,0,.9-.05.9-.36s-1-.42-1.24-.42Z" style="fill:#141414"/><path d="M119.92,130.51a1.62,1.62,0,0,0-1.67,1.48c-.05,1.26,3.35.45,3.26,3a3.35,3.35,0,0,1-3.39,3.29c-.7,0-2.34-.5-2.3-1.42a.81.81,0,0,1,.77-.74c.54,0,.63.68,1.58.68a2,2,0,0,0,1.85-1.64c.05-1.26-3.39-.59-3.29-3a3.19,3.19,0,0,1,3.22-3.16H120c.85,0,2.3.59,2.27,1.64a.82.82,0,0,1-.81.74C120.66,131.39,121,130.51,119.92,130.51Z" style="fill:#141414"/><path d="M127.75,137.5a.73.73,0,0,1-.72.61.71.71,0,0,1-.74-.68v-.18l1.42-6.54H125.8a.59.59,0,0,1-.59-.59s0,0,0,0a.78.78,0,0,1,.75-.81h5.48c.36,0,.52.31.52.63a.76.76,0,0,1-.68.81h-2.05Z" style="fill:#141414"/><path d="M134.82,135.84a.81.81,0,0,1,.85.88,1.37,1.37,0,0,1-1.3,1.31.79.79,0,0,1-.86-.81A1.38,1.38,0,0,1,134.82,135.84Z" style="fill:#141414"/><path d="M76.73,114.21c3.22,3,4.08,5.4,3.36,7.51a3.09,3.09,0,0,1-2.15,2,9.93,9.93,0,0,1,.8,4l.13-.06c1.8-.8,3-1.31,2.43-3.74a1.1,1.1,0,0,1,.83-1.32l.17,0a1.21,1.21,0,0,1,1.38,1,6.08,6.08,0,0,1-.09,3.05c-.62,1.83-2.31,2.6-3.62,3.19a6.59,6.59,0,0,0-2,1,6.28,6.28,0,0,1-.52.91,5.4,5.4,0,0,0,.46,2.86,1.12,1.12,0,0,1-.66,1.44l-.08,0a1.26,1.26,0,0,1-1.54-.75,10.22,10.22,0,0,1-.51-1.61,8.28,8.28,0,0,1-6-.1,22,22,0,0,1-9.54-7.11,15.08,15.08,0,0,1-3.12-6.44,7.6,7.6,0,0,1,.24-4.29c1.21-3.58,4.59-4.81,9-3.31A24.73,24.73,0,0,1,76,120.38c.18.24.33.49.52.73a.73.73,0,0,0,1-.51c.34-1-.21-2.12-2.62-4.48a1.32,1.32,0,0,1,1.82-1.91ZM70,131.36c2.39.81,4.15.6,5.23-.65a3.42,3.42,0,0,1,.7-1.2l.09-.27a7.42,7.42,0,0,0-.59-5.63,3.09,3.09,0,0,1-1.22-.77,2,2,0,0,1-.72-2.16A20.26,20.26,0,0,0,65,114.75c-3.1-1.05-5.08-.44-5.85,1.85a6.33,6.33,0,0,0-.1,3.4,17.53,17.53,0,0,0,3.64,6.39A19.23,19.23,0,0,0,70,131.36Z" style="fill:#141414"/><path d="M84.35,101.41c3.13,3.83,3.4,7.19,2.37,9.15a3.58,3.58,0,0,1-3.17,2,6.06,6.06,0,0,1-.23,4.47c-1.41,2.69-4.87,2.66-6.94,0l-5.05-6.46c-1.08-1.38.93-2.75,2-1.5l5.09,6.34c.73.92,1.94,1.31,2.58.08s.34-3-2.11-6h0l-4.16-5.31c-1.08-1.38.93-2.75,2-1.5L81.84,109c.73.92,1.94,1.31,2.58.08s.34-3-2.11-6a1.32,1.32,0,1,1,2-1.67Z" style="fill:#141414"/><path d="M94.27,88.26c2.54,4.24,2.32,7.6,1,9.4a3.51,3.51,0,0,1-3.5,1.5,8.55,8.55,0,0,1,0,1.91,5.21,5.21,0,0,1-.52,1.9,4.26,4.26,0,0,1-1.91,2,5,5,0,0,1-4.65-.54A10.33,10.33,0,0,1,80,95.14a4.49,4.49,0,0,1,2.44-3.82A4.34,4.34,0,0,1,85.2,91l-.85-1.47c-.92-1.5,1.29-2.58,2.19-1.19l4.11,7c.59,1,1.76,1.57,2.58.45S94,93,92,89.56a1.31,1.31,0,1,1,2.27-1.3ZM85.92,94a2.27,2.27,0,0,0-2.17-.37,2.69,2.69,0,0,0-.78.82,2.79,2.79,0,0,0-.26,1.08,7.65,7.65,0,0,0,3.39,6.72,2.25,2.25,0,0,0,2.11.32,2,2,0,0,0,1.06-1.89A7.69,7.69,0,0,0,85.92,94Z" style="fill:#141414"/><path d="M93,90.74,85.68,74.32c-.75-1.59,1.6-2.42,2.34-.94L95.41,89.7c.47,1.08,1.54,1.76,2.48.74s1.07-2.77-.51-6.38a1.29,1.29,0,0,1,2.37-1c2.07,4.48,1.47,7.81,0,9.46C97.68,94.71,94.39,93.79,93,90.74Z" style="fill:#141414"/><path d="M93.78,73.84a1.41,1.41,0,1,1,2,.09A1.45,1.45,0,0,1,93.78,73.84ZM98,85.24,95.27,77.5c-.59-1.65,1.76-2.31,2.4-.77l2.8,7.64c.4,1.11,1.42,1.86,2.42.91s1.26-2.69-.07-6.41a1.3,1.3,0,0,1,2.44-.88c1.74,4.63.93,7.9-.68,9.43C102.38,89.52,99.12,88.39,98,85.24Z" style="fill:#141414"/><path d="M111.09,73.36c1.44,4.72.38,7.94-1.33,9.36-2.33,1.94-5.46.57-6.42-2.63l-1.73-6-.35.29a1.29,1.29,0,0,1-1.81-.2h0a1.27,1.27,0,0,1,.09-1.79l0,0,1.25-1-1-3.62c-.52-1.68,1.92-2.18,2.45-.61l.73,2.45.18-.15a1.27,1.27,0,0,1,1.78.2l0,0a1.29,1.29,0,0,1-.11,1.81l-1.07.89,2.1,7.13c.32,1.13,1.28,2,2.35,1.07s1.45-2.6.37-6.39a1.3,1.3,0,0,1,2.47-.78Z" style="fill:#141414"/><path d="M122.71,65.52c.78,4.24-1.26,8.27-3.24,12.26,1.2,6,2.08,10.3-.89,12.31-1.8,1.22-4.42-.21-4.77-3.17-.25-2.12.94-5.83,2.9-9.59l-.16-.88a4.52,4.52,0,0,1-1.25,1.27,3.8,3.8,0,0,1-1.66.67c-1.94.25-4.26-1-4.8-4.11l-1.5-7.94a1.27,1.27,0,0,1,1-1.51h0a1.4,1.4,0,0,1,1.53,1.11l1.5,7.94c.19,1.26.89,2,1.76,1.92,1.19-.17,2.69-2.18,2-6.71l-1.28-7a1.29,1.29,0,0,1,1-1.53h.07a1.4,1.4,0,0,1,1.54,1.13c.15.17,1.17,6,2.17,11.5a11.22,11.22,0,0,0,1.52-7.24,1.3,1.3,0,1,1,2.56-.42Zm-5,15.82c-1.51,2.47-2,6.14-.58,6.28,1.23.11,1.11-3.49.77-5.4-.08-.22-.1-.5-.21-.88Z" style="fill:#141414"/><path d="M146.62,61.6c-1.62-7.18-5-21.62-8.73-20.51-1.49.44-2.67,2.61-2.85,4.88a4.86,4.86,0,0,0,1.12,3.29,1.36,1.36,0,0,1,.6,1.7,1.19,1.19,0,0,1-1.53.7l-.12-.05c-1.6-.68-2.68-3.85-2.56-5.89.15-2.88,1.88-6,4.38-6.79,5.71-1.69,8.06,5.85,10.19,14.32.15-1.43.37-3,.64-4.51,1.42-9,3.34-13.6,7.15-14.8a1.35,1.35,0,0,1,1.66.94l0,.06a1.38,1.38,0,0,1-.9,1.7c-2.16.64-4.13,5.26-5.34,12.65a107.44,107.44,0,0,0-1.13,12,1.34,1.34,0,0,1-.92,1.26,1.36,1.36,0,0,1-1.68-.94Z" style="fill:#141414"/><path d="M152.82,55l2.07-8c.44-1.7,2.75-.93,2.42.7l-2,7.89c-.29,1.14.13,2.34,1.5,2.1s2.55-1.53,3.53-5.35a1.3,1.3,0,0,1,2.51.64c-1.14,4.81-3.65,7.06-5.84,7.44C154.07,61,152,58.2,152.82,55Zm2.88-11.8a1.41,1.41,0,1,1,1.64,1.22,1.45,1.45,0,0,1-1.63-1.25h0Z" style="fill:#141414"/><path d="M176.94,52.13c-1.62,4.67-4.33,6.66-6.55,6.82-2.89.2-3.66-2.7-2.77-5.7a3.18,3.18,0,0,1,.14-.44c1-2.8,1.62-3.57,1.53-4.94a.79.79,0,0,0-.82-.75c-1.79.12-4.69,4.61-6.55,9.35l-.8,2.31a1.27,1.27,0,0,1-1.09.88,1.32,1.32,0,0,1-1.36-1.58l.06-.23L163,45.46a1.29,1.29,0,0,1,2.47.71h0a5.56,5.56,0,0,1,3.13-1.62,3,3,0,0,1,3.24,2.74q0,.13,0,.26c.1,1.47-.23,1.84-1.73,6.16a5.78,5.78,0,0,0-.25.92c-.11.83,0,1.63.61,1.59h.07c1.29-.14,2.64-1.33,4-5a1.3,1.3,0,0,1,2.39.91Z" style="fill:#141414"/><path d="M184.46,52.76c-2,4.49-5,6.21-7.2,6.14-3-.09-4.48-3.19-3.07-6.22L176.91,47h-.45a1.29,1.29,0,0,1-1.23-1.35h0a1.28,1.28,0,0,1,1.27-1.29h1.67l1.61-3.4c.72-1.6,2.88-.36,2.24,1.17L181,44.44h.24a1.27,1.27,0,0,1,1.2,1.33v0a1.29,1.29,0,0,1-1.28,1.29h-1.39l-3.15,6.73c-.51,1.06-.33,2.32,1.05,2.36s2.81-1,4.52-4.54a1.3,1.3,0,0,1,2.32,1.12Z" style="fill:#141414"/><path d="M200.63,55.06c-2.55,4.23-5.62,5.62-7.82,5.31a3.51,3.51,0,0,1-3-2.39,8.56,8.56,0,0,1-1.68.93,5.2,5.2,0,0,1-1.92.44,4.25,4.25,0,0,1-2.62-.77,5,5,0,0,1-1.71-4.35,10.34,10.34,0,0,1,6-8.5,4.49,4.49,0,0,1,4.51.36,4.34,4.34,0,0,1,1.49,2.28l.9-1.44c.89-1.52,2.88-.07,2.08,1.38l-4.26,6.92c-.62,1-.56,2.29.81,2.49s2.9-.68,5-4a1.3,1.3,0,0,1,2.22,1.34Zm-9-4.67a2.26,2.26,0,0,0-.7-2.09,2.68,2.68,0,0,0-1.09-.31,2.78,2.78,0,0,0-1.08.28,7.65,7.65,0,0,0-4.34,6.15,2.26,2.26,0,0,0,.71,2,2,2,0,0,0,2.17,0,7.7,7.7,0,0,0,4.33-6.09Z" style="fill:#141414"/><path d="M215,59.64c-2.77,3.3-7.18,4.29-11.52,5.31-3.87,4.75-6.62,8.16-10.06,7.14-2.09-.62-2.64-3.54-.59-5.7,1.48-1.54,5.09-3,9.24-3.87l.23-.27a5.48,5.48,0,0,1-.89,0,4.3,4.3,0,0,1-2.5-1.15,5,5,0,0,1-1-4.58,10.39,10.39,0,0,1,7.22-7.57,4.53,4.53,0,0,1,4.44,1,4.27,4.27,0,0,1,1.11,2.33c.77-.92,1.28-1.55,1.38-1.65a1.29,1.29,0,0,1,1.81-.2l.06,0a1.4,1.4,0,0,1,.11,1.91c0,.22-3.89,4.72-7.49,9a11.22,11.22,0,0,0,6.55-3.44,1.29,1.29,0,1,1,1.9,1.69Zm-15.4,6.19c-2.86.41-6,2.34-5.21,3.55.7,1,3.4-1.37,4.66-2.85C199.17,66.36,199.38,66.16,199.6,65.83Zm3.34-6.31a7.7,7.7,0,0,0,5.19-5.4,1.89,1.89,0,0,0-2.52-2.52,7.66,7.66,0,0,0-5.2,5.45,2.22,2.22,0,0,0,.4,2.1A2,2,0,0,0,202.94,59.52Z" style="fill:#141414"/><path d="M211.68,63.92a5.28,5.28,0,0,1,.64-4.22c1.88-3.35,6.83-6.43,10.35-4.87,3.13,1.39,2.35,5.14-.79,6.64a6,6,0,0,1-6.27-.47c-.47-.42-.92-.16-1.22.4-.68,1.26-.11,2.65,1.57,3.39,2.52,1.1,5.56.19,8.21-2.23a1.3,1.3,0,1,1,1.76,1.89c-3.16,3-7,4.39-11,2.64A5.55,5.55,0,0,1,211.68,63.92Zm9.21-4.47c1.52-.73,1.73-2,.7-2.45-1.29-.56-3.58.78-4.42,1.45-.2.16-.51.38.08.77a3.53,3.53,0,0,0,3.64.24Z" style="fill:#141414"/><path d="M253.32,85.44c-3.87,1.89-8.3,1-12.67.16-5.47,2.76-9.37,4.75-12.1,2.43-1.65-1.41-1-4.31,1.78-5.44,2-.81,5.86-.65,10,.23.5-.26,1-.5,1.45-.7a6.71,6.71,0,0,1-2-1.17A4.57,4.57,0,0,1,238,77a6.91,6.91,0,0,1,1.79-3.86,22.57,22.57,0,0,1,7.81-5.36,8.65,8.65,0,0,1,2-6.07,1.39,1.39,0,0,1,1.95-.18,1.35,1.35,0,0,1,.1,1.91h0a6,6,0,0,0-1.37,3.27c4.85-1.52,8.55-1.44,10.57.28a4.27,4.27,0,0,1,1.63,3,4.1,4.1,0,0,1-1.1,2.91,7.74,7.74,0,0,1-10.59.52,9.87,9.87,0,0,1-2.39-3,18.77,18.77,0,0,0-6.53,4.52,4.33,4.33,0,0,0-1.12,2.2,2,2,0,0,0,.88,1.7c1.33,1.13,4.11,1.15,6.49.09a1.32,1.32,0,0,1,1-.12,1.36,1.36,0,0,1,.21,2.55c-.05,0-.18.11-.39.2l-4.14,2.05a11.22,11.22,0,0,0,7.38-.47,1.29,1.29,0,1,1,1.15,2.29Zm-16.58-.61c-2.78-.79-6.46-.32-6.2,1.12.23,1.21,3.66.13,5.41-.71l.79-.4ZM251,69.41a7.06,7.06,0,0,0,1.59,1.85,5,5,0,0,0,6.78-.1,1.42,1.42,0,0,0,.41-.93,1.89,1.89,0,0,0-.7-1.13C257.81,68,254.67,68.13,251,69.41Z" style="fill:#141414"/><path d="M262,95.81c-4.17,1.31-6.72.84-8.18-.83a2.82,2.82,0,0,1-.72-1.73,6.12,6.12,0,0,1-1.38-.32A5.2,5.2,0,0,1,250,92a4.3,4.3,0,0,1-1.5-2.31,5,5,0,0,1,1.56-4.43,10.39,10.39,0,0,1,10.14-2.55A4.53,4.53,0,0,1,263.43,86a5.09,5.09,0,0,1-1.54,4.42,10.1,10.1,0,0,1-5.9,2.9l.09.11c.7.79,1.94.88,5.19,0a1.3,1.3,0,0,1,.73,2.38Zm-9.31-5.29a4.53,4.53,0,0,0,1.11.24,3.45,3.45,0,0,1,2-1.46,1.93,1.93,0,0,1,2.39.67A5.7,5.7,0,0,0,260,88.72a1.89,1.89,0,0,0-.79-3.48,7.65,7.65,0,0,0-7.3,1.84,2.22,2.22,0,0,0-.78,2c.11.66.66,1.13,1.61,1.45Z" style="fill:#141414"/><path d="M269.34,107.09c-4.3.79-6.77,0-8-1.83a2.82,2.82,0,0,1-.5-1.8,6.14,6.14,0,0,1-1.33-.48,5.21,5.21,0,0,1-1.62-1.13,4.3,4.3,0,0,1-1.2-2.48,5,5,0,0,1,2.1-4.21,10.4,10.4,0,0,1,10.38-1.28,4.53,4.53,0,0,1,2.78,3.6,5.09,5.09,0,0,1-2.08,4.19,10.11,10.11,0,0,1-6.22,2.15l.08.12c.59.87,1.81,1.11,5.16.6a1.3,1.3,0,0,1,.45,2.55Zm-8.59-6.4a4.55,4.55,0,0,0,1.07.37,3.45,3.45,0,0,1,2.15-1.2,1.93,1.93,0,0,1,2.29,1,5.7,5.7,0,0,0,1.93-1c.81-.67,1.17-1.35,1.08-1.92a2.25,2.25,0,0,0-1.44-1.62,7.66,7.66,0,0,0-7.48.92,2.22,2.22,0,0,0-1,1.88c0,.61.51,1.15,1.41,1.58Z" style="fill:#141414"/><path d="M276.1,121.92c-4.94.28-7.81-1.47-8.8-3.47a3.8,3.8,0,0,1,.29-3.82,7.82,7.82,0,0,1-1.63-.82,5.22,5.22,0,0,1-1.44-1.34,4.25,4.25,0,0,1-.84-2.6A5,5,0,0,1,266.3,106a10.34,10.34,0,0,1,10.4.17,4.49,4.49,0,0,1,2.25,3.93,4.26,4.26,0,0,1-1,2.4l11.32-.52c1.75-.12,1.69,2.34,0,2.49l-17.89.94c-1.18,0-2.21.83-1.6,2.07s2.19,2,6.13,1.85a1.3,1.3,0,0,1,.19,2.59ZM275,111.87c.9-.55,1.35-1.17,1.34-1.75a2.28,2.28,0,0,0-1.2-1.81,7.66,7.66,0,0,0-7.53-.12,2.25,2.25,0,0,0-1.27,1.72c-.06.67.35,1.27,1.18,1.82A7.7,7.7,0,0,0,275,111.87Z" style="fill:#141414"/><path d="M279.87,133.66c-4.36-.4-6.52-1.81-7.23-3.92a3.06,3.06,0,0,1-.16-1.08,5.31,5.31,0,0,1-2.29-2.94,5.1,5.1,0,0,1,1.16-4.61,1.18,1.18,0,0,1,1.18-2l.91.35a3.91,3.91,0,0,1,2.69-.33,1.62,1.62,0,0,1,1.22,1.18c3.31.75,6.83,1.55,7.9,1.75a1.34,1.34,0,1,1-.38,2.63,1.27,1.27,0,0,0-.69.13c-1.15.64-2.81,3.15-6.7,4.39a7.76,7.76,0,0,1-2,.32c.47.77,1.71,1.24,4.63,1.59a1.3,1.3,0,0,1-.24,2.54Zm-7.3-8.72a2.85,2.85,0,0,0,1,1.43,3.7,3.7,0,0,1,3.06-1.11,2.09,2.09,0,0,1,1.83,1.12,9.64,9.64,0,0,0,2.92-2.22c.19-.22.07-.4-.21-.46l-7.47-1.56a2.8,2.8,0,0,0-1.14,2.8Z" style="fill:#141414"/><polygon points="130.11 63.21 132.09 62.19 134.06 63.24 133.7 61.04 135.3 59.5 133.1 59.16 132.13 57.16 131.13 59.15 128.92 59.45 130.5 61.02 130.11 63.21" style="fill:#141414"/><polygon points="230.76 70.73 232.74 69.71 234.71 70.76 234.35 68.56 235.95 67.02 233.75 66.68 232.78 64.68 231.78 66.67 229.57 66.97 231.15 68.54 230.76 70.73" style="fill:#141414"/><path d="M224.35,187.18l-5.68-11.5h0l-4.7-9.52h0l-6.73-13.62h0l-9.9-20L189.71,117l-6.47-13.11h0l-6.9-14a1.5,1.5,0,0,0-2.69,0l-7,14.17h0L160.3,117h0l-7.59,15.38-9.87,20L136,166.22h0l-4.67,9.46h0l-5.68,11.51a1.5,1.5,0,0,0,1.35,2.16h96a1.5,1.5,0,0,0,1.35-2.16Zm-10-9.93-.92.88-.7.65-1,.85-.71.6-1.06.85-.68.54-1.24.91-.55.4q-.92.64-1.86,1.25h0q-.93.59-1.88,1.15l-.59.33-1.21.67H148.1l-1.17-.65-.63-.35q-.92-.54-1.82-1.11l-.09-.05q-.94-.6-1.86-1.24l-.57-.41c-.41-.3-.83-.59-1.23-.9l-.69-.54-1.05-.84-.72-.62-1-.84-.73-.67-.9-.85-.72-.72-.48-.49,3.37-6.82.29.22.94.71,1.11.82,1,.68,1.13.76,1,.64,1.15.7,1.05.6,1.17.64,1.08.56,1.2.59,1.1.51,1.22.54,1.12.47,1.25.49,1.14.42L156,179l1.15.37,1.31.38,1.15.32,1.34.33,1.15.27,1.38.28,1.14.22,1.44.22,1.11.16,1.53.17,1,.11c.57,0,1.14.08,1.72.11l.87.05q1.29.06,2.59.06h0q1.31,0,2.61-.06l.86-.05c.58,0,1.16-.06,1.73-.11l1-.11,1.56-.17,1.07-.16,1.49-.23,1.09-.21,1.43-.29,1.1-.26,1.4-.34,1.1-.31,1.37-.4,1.09-.35,1.34-.45,1.08-.4,1.31-.51,1.07-.45,1.28-.57,1-.49,1.25-.62,1-.54,1.22-.68,1-.58,1.2-.73,1-.62,1.17-.79.94-.66,1.14-.85.9-.69.3-.23,3.39,6.87-.5.51Zm-70-21.1A36.34,36.34,0,0,0,175,172.46a37.07,37.07,0,0,0,30.76-16.16l5,10.12-.53.43-.93.73-1,.76-1,.69-1,.71-1,.64-1.07.66-1,.6-1.1.61-1,.56-1.12.56-1.07.51-1.15.51-1.09.46-1.18.46-1.1.42-1.21.41-1.11.37-1.24.36-1.12.32-1.27.31-1.12.27L186,178l-1.11.21-1.37.21-1.07.16-1.45.16-1,.11c-.54,0-1.08.07-1.62.11l-.86.06q-1.24.05-2.48.05h0q-1.25,0-2.49-.05l-.79-.05c-.56,0-1.12-.06-1.68-.11l-1-.1-1.49-.16-1-.15-1.41-.22L164,178l-1.36-.27-1.06-.25-1.32-.32-1.07-.3-1.29-.37-1.06-.35-1.26-.43-1.05-.4-1.23-.48-1-.44-1.2-.53-1-.49-1.17-.58-1-.53-1.14-.63-1-.58-1.11-.68-1-.62-1.07-.72-.94-.67-1-.77-.91-.71-.54-.44ZM175,94l4.3,8.7H179c-.47,0-.94-.08-1.41-.1H175a15,15,0,0,0-2,.09l-.64.05-1.38.14h-.3Zm-6,12.12.55-.1.67-.11,1-.13.64-.08,1-.09h.55c.53,0,1.06-.05,1.58-.06h2.14l1,.06.64.06.93.1.65.09.51.08,4.52,9.16-.21-.05c-.67-.19-1.35-.35-2-.51l-.6-.13c-.76-.16-1.52-.29-2.29-.4h-.16c-.73-.1-1.46-.17-2.2-.23h-.61c-.79,0-1.58-.08-2.37-.08a23,23,0,0,0-2.35.08H172c-.73.06-1.45.13-2.18.22h-.16c-.76.11-1.52.24-2.28.4l-.58.12c-.67.15-1.34.31-2,.49l-.22.05Zm-6.29,12.74.53-.19.71-.25.82-.26.7-.21.85-.22.69-.17.88-.19.68-.14.91-.15.66-.1,1-.11.62-.07,1.07-.07h4.3l1.08.08.64.07,1,.11.68.11.9.15.7.14.87.19.71.18.84.22.72.22.81.26.72.26.53.2,5.05,10.23-.17-.08q-.87-.45-1.76-.85l-.32-.14q-.79-.35-1.6-.66l-.37-.14q-.92-.34-1.85-.63l-.39-.12q-.84-.25-1.68-.46l-.32-.08c-.64-.15-1.28-.29-1.93-.41l-.45-.08c-.6-.1-1.21-.2-1.82-.27h-.21c-.66-.08-1.33-.13-2-.18H177c-.68,0-1.36-.06-2-.06a23.74,23.74,0,0,0-2.67.1l-.81.07q-.95.09-1.89.22l-.84.13q-1,.17-2.07.4l-.53.11q-1.27.3-2.51.69l-.64.22c-.62.21-1.24.43-1.85.67l-.8.32q-.88.37-1.74.79L158,129l-.26.13Zm-7.51,15.21,1-.68c.31-.22.68-.46,1-.66s.84-.46,1.26-.69l1.05-.57c.35-.18.88-.4,1.32-.6s.71-.33,1.07-.47.93-.34,1.4-.5.71-.27,1.07-.38,1-.28,1.48-.41.7-.2,1.05-.28c.53-.12,1.06-.21,1.6-.31.33-.06.66-.14,1-.19.59-.09,1.19-.14,1.79-.2a8.39,8.39,0,0,0,.86-.1q1.34-.1,2.69-.1t2.71.1a8.58,8.58,0,0,1,.87.1c.6.06,1.2.12,1.8.21.35.05.68.13,1,.2.53.1,1.07.19,1.59.31.36.08.71.2,1.07.29s1,.26,1.49.41.72.26,1.08.39.95.33,1.41.51.72.32,1.07.48.9.39,1.34.61.7.38,1.06.57.85.45,1.27.7.69.45,1,.67.71.46,1.06.7l6.24,12.63a36.76,36.76,0,0,0-14.47-8.7,1.5,1.5,0,0,0-.92,2.86h0a33.32,33.32,0,0,1,17.73,13.4A34,34,0,0,1,175,169.46a33.35,33.35,0,0,1-28.32-15.21,33.32,33.32,0,0,1,17.75-13.31,1.5,1.5,0,1,0-.91-2.86,36.75,36.75,0,0,0-14.59,8.74Zm-25.81,52.28,3.67-7.43.1.1q1,1,2,1.86l.5.43c.52.46,1,.91,1.57,1.35l.75.6,1.43,1.1.81.59q.74.53,1.5,1l.53.36Zm78.37,0,.51-.35,1.53-1.06.79-.58,1.45-1.12.73-.58c.55-.45,1.09-.92,1.62-1.39l.45-.39q1-.92,2-1.88l.08-.08,3.67,7.43Z" style="fill:#141414"/><path d="M175,159.45c7.38,0,13.36-5.72,13.36-12.78a12.34,12.34,0,0,0-2.27-7.12,36.42,36.42,0,0,0-22.17,0,12.34,12.34,0,0,0-2.29,7.16C161.68,153.72,167.66,159.45,175,159.45Z" style="fill:#141414;stroke:#141414;stroke-linecap:round;stroke-linejoin:round;stroke-width:3px"/><ellipse cx="172.52" cy="146.81" rx="5.1" ry="4.88" style="fill:#fff"/></svg>