<svg width="417" height="417" viewBox="0 0 417 417" fill="none" xmlns="http://www.w3.org/2000/svg">
<rect width="417" height="417" fill="#BDBDBD"/>
<path d="M220 286L100 109L240 39L367 201L220 286Z" fill="#828282"/>
<path d="M358 223L218 305V320.5L373 231L358 223Z" fill="#333333"/>
<path d="M93 142C90 129 101 109 101 109L219 285V320.5C219 320.5 96 155 93 142Z" fill="#4F4F4F"/>
<path d="M358 232V207L220 286C220 286 214.637 295 213.5 302.5C212.363 310 222 313.5 222 313.5L358 232Z" fill="#F2F2F2"/>
<path d="M149.37 115.5H157.44V116.37H150.36V128.61H156.27V129.48H150.36V137.13H157.44V138H149.37V115.5ZM164.041 116.37H158.851V115.5H170.161V116.37H165.031V138H164.041V116.37ZM173.309 115.5H174.299V138H173.309V115.5ZM201.694 126.66C201.694 128.54 201.294 130.3 200.494 131.94C199.694 133.58 198.594 134.96 197.194 136.08L199.504 138.36H198.184L196.444 136.62C194.504 137.94 192.354 138.6 189.994 138.6C187.894 138.6 185.944 138.05 184.144 136.95C182.344 135.85 180.914 134.39 179.854 132.57C178.814 130.73 178.294 128.76 178.294 126.66C178.294 124.58 178.824 122.64 179.884 120.84C180.944 119.02 182.374 117.58 184.174 116.52C185.974 115.44 187.924 114.9 190.024 114.9C192.144 114.9 194.094 115.43 195.874 116.49C197.654 117.55 199.064 118.99 200.104 120.81C201.164 122.61 201.694 124.56 201.694 126.66ZM189.994 137.73C192.074 137.73 194.004 137.14 195.784 135.96L190.474 130.71H191.764L196.534 135.42C197.814 134.38 198.824 133.1 199.564 131.58C200.324 130.06 200.704 128.44 200.704 126.72C200.704 124.76 200.224 122.94 199.264 121.26C198.304 119.58 197.004 118.25 195.364 117.27C193.724 116.27 191.944 115.77 190.024 115.77C188.084 115.77 186.294 116.27 184.654 117.27C183.014 118.25 181.704 119.58 180.724 121.26C179.764 122.94 179.284 124.76 179.284 126.72C179.284 128.7 179.764 130.54 180.724 132.24C181.704 133.92 183.014 135.26 184.654 136.26C186.294 137.24 188.074 137.73 189.994 137.73ZM212.165 138.6C210.865 138.6 209.705 138.33 208.685 137.79C207.665 137.23 206.865 136.44 206.285 135.42C205.705 134.4 205.415 133.21 205.415 131.85V115.5H206.405V131.82C206.405 133.02 206.655 134.07 207.155 134.97C207.655 135.85 208.335 136.53 209.195 137.01C210.075 137.49 211.055 137.73 212.135 137.73C213.215 137.73 214.185 137.5 215.045 137.04C215.925 136.56 216.605 135.88 217.085 135C217.585 134.1 217.835 133.04 217.835 131.82V115.5H218.825V131.79C218.825 133.17 218.545 134.38 217.985 135.42C217.425 136.44 216.635 137.23 215.615 137.79C214.615 138.33 213.465 138.6 212.165 138.6ZM223.579 115.5H231.649V116.37H224.569V128.61H230.479V129.48H224.569V137.13H231.649V138H223.579V115.5ZM238.25 116.37H233.06V115.5H244.37V116.37H239.24V138H238.25V116.37ZM250.818 116.37H245.628V115.5H256.938V116.37H251.808V138H250.818V116.37ZM259.936 115.5H268.006V116.37H260.926V128.61H266.836V129.48H260.926V137.13H268.006V138H259.936V115.5Z" fill="black"/>
<path d="M300.106 177.5H303.872V177.906H300.568V183.618H303.326V184.024H300.568V187.594H303.872V188H300.106V177.5ZM316.108 177.5V188H315.646V178.172L310.69 188.196L305.762 178.046V188H305.3V177.5H305.958L310.69 187.244L315.464 177.5H316.108ZM318.387 177.5H318.849V188H318.387V177.5ZM321.133 177.5H321.595V187.594H324.843V188H321.133V177.5ZM330.96 177.5L327.838 183.8V188H327.376V183.8L324.184 177.5H324.688L327.614 183.254L330.484 177.5H330.96ZM300.092 193.5H300.554C301.655 193.5 302.514 193.794 303.13 194.382C303.746 194.961 304.054 195.74 304.054 196.72C304.054 197.401 303.905 198.008 303.606 198.54C303.307 199.063 302.901 199.469 302.388 199.758C301.875 200.038 301.301 200.178 300.666 200.178H300.554V204H300.092V193.5ZM300.694 199.772C301.543 199.772 302.239 199.511 302.78 198.988C303.321 198.456 303.592 197.709 303.592 196.748C303.592 195.833 303.335 195.133 302.822 194.648C302.318 194.153 301.599 193.906 300.666 193.906H300.554V199.772H300.694ZM310.669 204.28C309.689 204.28 308.779 204.023 307.939 203.51C307.099 202.997 306.431 202.315 305.937 201.466C305.451 200.607 305.209 199.688 305.209 198.708C305.209 197.737 305.456 196.832 305.951 195.992C306.445 195.143 307.113 194.471 307.953 193.976C308.793 193.472 309.703 193.22 310.683 193.22C311.672 193.22 312.582 193.467 313.413 193.962C314.243 194.457 314.901 195.129 315.387 195.978C315.881 196.818 316.129 197.728 316.129 198.708C316.129 199.716 315.881 200.649 315.387 201.508C314.901 202.357 314.239 203.034 313.399 203.538C312.568 204.033 311.658 204.28 310.669 204.28ZM310.669 203.874C311.565 203.874 312.395 203.645 313.161 203.188C313.926 202.721 314.533 202.096 314.981 201.312C315.438 200.519 315.667 199.66 315.667 198.736C315.667 197.821 315.443 196.972 314.995 196.188C314.547 195.404 313.94 194.783 313.175 194.326C312.409 193.859 311.579 193.626 310.683 193.626C309.777 193.626 308.942 193.859 308.177 194.326C307.411 194.783 306.8 195.404 306.343 196.188C305.895 196.972 305.671 197.821 305.671 198.736C305.671 199.66 305.895 200.519 306.343 201.312C306.8 202.096 307.411 202.721 308.177 203.188C308.942 203.645 309.773 203.874 310.669 203.874ZM320.091 204.196C318.924 204.196 318.019 203.715 317.375 202.754V201.998C317.627 202.558 317.991 202.997 318.467 203.314C318.952 203.631 319.531 203.79 320.203 203.79C320.67 203.79 321.099 203.687 321.491 203.482C321.892 203.277 322.21 202.987 322.443 202.614C322.676 202.241 322.793 201.811 322.793 201.326C322.793 200.887 322.718 200.509 322.569 200.192C322.42 199.875 322.172 199.571 321.827 199.282C321.482 198.983 320.982 198.633 320.329 198.232L319.881 197.952C319.47 197.7 319.139 197.476 318.887 197.28C318.635 197.084 318.416 196.855 318.229 196.594C317.986 196.23 317.865 195.81 317.865 195.334C317.865 194.699 318.07 194.205 318.481 193.85C318.892 193.495 319.414 193.318 320.049 193.318C320.908 193.318 321.589 193.635 322.093 194.27V194.984C321.878 194.592 321.584 194.284 321.211 194.06C320.838 193.836 320.427 193.724 319.979 193.724C319.512 193.724 319.12 193.869 318.803 194.158C318.486 194.447 318.327 194.835 318.327 195.32C318.327 195.796 318.472 196.207 318.761 196.552C319.06 196.888 319.559 197.257 320.259 197.658C321.118 198.162 321.785 198.619 322.261 199.03C322.597 199.338 322.84 199.679 322.989 200.052C323.148 200.425 323.227 200.841 323.227 201.298C323.227 201.877 323.092 202.385 322.821 202.824C322.55 203.263 322.177 203.603 321.701 203.846C321.225 204.079 320.688 204.196 320.091 204.196ZM325.696 193.906H323.274V193.5H328.552V193.906H326.158V204H325.696V193.906Z" fill="black"/>
<path d="M63 343L38 296L115 291L120 343H63Z" fill="#828282"/>
<ellipse cx="75" cy="293" rx="39" ry="21" fill="#C4C4C4"/>
</svg>
