<?xml version="1.0" encoding="utf-8"?>
<!-- Generator: Adobe Illustrator 24.1.2, SVG Export Plug-In . SVG Version: 6.00 Build 0)  -->
<svg version="1.1" id="Layer_1" xmlns="http://www.w3.org/2000/svg" xmlns:xlink="http://www.w3.org/1999/xlink" x="0px" y="0px"
	 viewBox="0 0 370 370" style="enable-background:new 0 0 370 370;" xml:space="preserve">
<style type="text/css">
	.st0{fill:#D1D9EE;}
	.st1{fill:#7A79BC;}
	.st2{fill:#2F245B;}
	.st3{fill:#4B4089;}
	.st4{fill:#D4D4FC;}
	.st5{fill:#9393D8;}
	.st6{fill:#655CBC;}
	.st7{fill:#BAB8FF;}
</style>
<rect class="st0" width="370" height="370"/>
<path class="st1" d="M172.3,291.2l-120-177l140-70l127,162L172.3,291.2z"/>
<path class="st2" d="M310.3,228.2l-140,82v15.5l155-89.5L310.3,228.2z"/>
<path class="st3" d="M45.3,147.2c-3-13,8-33,8-33l118,176v35.5C171.3,325.8,48.3,160.2,45.3,147.2z"/>
<path class="st4" d="M310.3,237.2v-25l-138,79c0,0-5.4,9-6.5,16.5s8.5,11,8.5,11L310.3,237.2z"/>
<path class="st2" d="M101.6,120.8h8.1v0.9h-7.1v12.2h5.9v0.9h-5.9v7.7h7.1v0.9h-8.1V120.8z M116.3,121.6h-5.2v-0.9h11.3v0.9h-5.1
	v21.6h-1V121.6z M125.6,120.8h1v22.5h-1V120.8z M154,131.9c0,1.9-0.4,3.6-1.2,5.3s-1.9,3-3.3,4.1l2.3,2.3h-1.3l-1.7-1.7
	c-1.9,1.3-4.1,2-6.4,2c-2.1,0-4.1-0.6-5.9-1.7c-1.8-1.1-3.2-2.6-4.3-4.4c-1-1.8-1.6-3.8-1.6-5.9c0-2.1,0.5-4,1.6-5.8
	c1.1-1.8,2.5-3.3,4.3-4.3c1.8-1.1,3.8-1.6,5.9-1.6c2.1,0,4.1,0.5,5.8,1.6c1.8,1.1,3.2,2.5,4.2,4.3C153.4,127.9,154,129.8,154,131.9z
	 M142.3,143c2.1,0,4-0.6,5.8-1.8l-5.3-5.2h1.3l4.8,4.7c1.3-1,2.3-2.3,3-3.8c0.8-1.5,1.1-3.1,1.1-4.9c0-2-0.5-3.8-1.4-5.5
	c-1-1.7-2.3-3-3.9-4c-1.6-1-3.4-1.5-5.3-1.5c-1.9,0-3.7,0.5-5.4,1.5c-1.6,1-3,2.3-3.9,4c-1,1.7-1.4,3.5-1.4,5.5c0,2,0.5,3.8,1.4,5.5
	c1,1.7,2.3,3,3.9,4C138.6,142.5,140.3,143,142.3,143z M164.4,143.9c-1.3,0-2.5-0.3-3.5-0.8c-1-0.6-1.8-1.3-2.4-2.4s-0.9-2.2-0.9-3.6
	v-16.4h1v16.3c0,1.2,0.2,2.2,0.8,3.1c0.5,0.9,1.2,1.6,2,2c0.9,0.5,1.9,0.7,2.9,0.7s2.1-0.2,2.9-0.7c0.9-0.5,1.6-1.2,2-2
	c0.5-0.9,0.8-2,0.8-3.2v-16.3h1V137c0,1.4-0.3,2.6-0.8,3.6c-0.6,1-1.4,1.8-2.4,2.4C166.9,143.6,165.7,143.9,164.4,143.9z
	 M175.8,120.8h8.1v0.9h-7.1v12.2h5.9v0.9h-5.9v7.7h7.1v0.9h-8.1V120.8z M190.5,121.6h-5.2v-0.9h11.3v0.9h-5.1v21.6h-1V121.6z
	 M203.1,121.6h-5.2v-0.9h11.3v0.9h-5.1v21.6h-1V121.6z M212.2,120.8h8.1v0.9h-7.1v12.2h5.9v0.9h-5.9v7.7h7.1v0.9h-8.1V120.8z"/>
<path class="st2" d="M252.4,182.8h3.8v0.4h-3.3v5.7h2.8v0.4h-2.8v3.6h3.3v0.4h-3.8V182.8z M268.4,182.8v10.5h-0.5v-9.8l-5,10
	l-4.9-10.1v10h-0.5v-10.5h0.7l4.7,9.7l4.8-9.7H268.4z M270.6,182.8h0.5v10.5h-0.5V182.8z M273.4,182.8h0.5v10.1h3.2v0.4h-3.7V182.8z
	 M283.2,182.8l-3.1,6.3v4.2h-0.5v-4.2l-3.2-6.3h0.5l2.9,5.8l2.9-5.8H283.2z M252.4,198.8h0.5c1.1,0,2,0.3,2.6,0.9
	c0.6,0.6,0.9,1.4,0.9,2.3c0,0.7-0.1,1.3-0.4,1.8c-0.3,0.5-0.7,0.9-1.2,1.2c-0.5,0.3-1.1,0.4-1.7,0.4h-0.1v3.8h-0.5V198.8z M253,205
	c0.8,0,1.5-0.3,2.1-0.8c0.5-0.5,0.8-1.3,0.8-2.2c0-0.9-0.3-1.6-0.8-2.1c-0.5-0.5-1.2-0.7-2.2-0.7h-0.1v5.9H253z M262.9,209.5
	c-1,0-1.9-0.3-2.7-0.8s-1.5-1.2-2-2c-0.5-0.9-0.7-1.8-0.7-2.8c0-1,0.2-1.9,0.7-2.7c0.5-0.8,1.2-1.5,2-2c0.8-0.5,1.8-0.8,2.7-0.8
	c1,0,1.9,0.2,2.7,0.7c0.8,0.5,1.5,1.2,2,2c0.5,0.8,0.7,1.8,0.7,2.7c0,1-0.2,1.9-0.7,2.8c-0.5,0.8-1.1,1.5-2,2
	C264.8,209.3,263.9,209.5,262.9,209.5z M262.9,209.1c0.9,0,1.7-0.2,2.5-0.7c0.8-0.5,1.4-1.1,1.8-1.9c0.5-0.8,0.7-1.7,0.7-2.6
	c0-0.9-0.2-1.8-0.7-2.5s-1.1-1.4-1.8-1.9c-0.8-0.5-1.6-0.7-2.5-0.7c-0.9,0-1.7,0.2-2.5,0.7c-0.8,0.5-1.4,1.1-1.8,1.9
	c-0.4,0.8-0.7,1.6-0.7,2.5c0,0.9,0.2,1.8,0.7,2.6c0.5,0.8,1.1,1.4,1.8,1.9C261.2,208.9,262,209.1,262.9,209.1z M272.4,209.4
	c-1.2,0-2.1-0.5-2.7-1.4v-0.8c0.3,0.6,0.6,1,1.1,1.3c0.5,0.3,1.1,0.5,1.7,0.5c0.5,0,0.9-0.1,1.3-0.3c0.4-0.2,0.7-0.5,1-0.9
	s0.4-0.8,0.4-1.3c0-0.4-0.1-0.8-0.2-1.1s-0.4-0.6-0.7-0.9c-0.3-0.3-0.8-0.6-1.5-1.1l-0.4-0.3c-0.4-0.3-0.7-0.5-1-0.7
	c-0.3-0.2-0.5-0.4-0.7-0.7c-0.2-0.4-0.4-0.8-0.4-1.3c0-0.6,0.2-1.1,0.6-1.5c0.4-0.4,0.9-0.5,1.6-0.5c0.9,0,1.5,0.3,2,1v0.7
	c-0.2-0.4-0.5-0.7-0.9-0.9c-0.4-0.2-0.8-0.3-1.2-0.3c-0.5,0-0.9,0.1-1.2,0.4c-0.3,0.3-0.5,0.7-0.5,1.2c0,0.5,0.1,0.9,0.4,1.2
	c0.3,0.3,0.8,0.7,1.5,1.1c0.9,0.5,1.5,1,2,1.4c0.3,0.3,0.6,0.6,0.7,1c0.2,0.4,0.2,0.8,0.2,1.2c0,0.6-0.1,1.1-0.4,1.5
	c-0.3,0.4-0.6,0.8-1.1,1C273.5,209.3,272.9,209.4,272.4,209.4z M278,199.2h-2.4v-0.4h5.3v0.4h-2.4v10.1H278V199.2z"/>
<path class="st2" d="M115.5,216.4c0,0,19.1,21.9,51,23c38.6,1.4,57-21.3,57-21.3L115.5,216.4z"/>
<ellipse class="st5" cx="170.3" cy="207.7" rx="58.5" ry="24.9"/>
<ellipse class="st2" cx="173" cy="220.7" rx="26" ry="7.2"/>
<path class="st1" d="M154.1,224c-6.8-3.7-14.6-7.4-20.6-16.8c-3.8-5.9-1.4-33-1.4-33l78,0.3c0,0,2.3,22.4,1.1,30.1
	c-1.1,7.5-14.4,19.1-22.5,20.5C183.8,225.9,158.9,226.6,154.1,224z"/>
<ellipse class="st4" cx="171.1" cy="176.4" rx="39" ry="17.6"/>
<path class="st4" d="M209,179.3c0,0,9.8-2,15,1.5c2.7,1.8,6.2,5.7,6.2,9.8c0,7.8-2.9,10.2-6.4,13.3c-6.8,6.1-18.9,9.6-18.9,9.6
	l5.1-8.2c0,0,19.8-7.2,14-17.4c-2.2-3.8-7.2-3.7-9.6-1.7c-1.7,1.4-1.9,10.6-4.7,10.4C209.1,190.6,209,179.3,209,179.3z"/>
<rect x="453.6" y="52.1" class="st2" width="26.1" height="26.1"/>
<rect x="454.7" y="169.3" class="st6" width="26.1" height="26.1"/>
<rect x="446.5" y="107.7" class="st3" width="26.1" height="26.1"/>
<rect x="459.6" y="219.5" class="st7" width="26.1" height="26.1"/>
</svg>
