<?xml version="1.0" encoding="utf-8"?>
<!-- Generator: Adobe Illustrator 24.1.2, SVG Export Plug-In . SVG Version: 6.00 Build 0)  -->
<svg version="1.1" id="Layer_1" xmlns="http://www.w3.org/2000/svg" xmlns:xlink="http://www.w3.org/1999/xlink" x="0px" y="0px"
	 viewBox="0 0 300 300" style="enable-background:new 0 0 300 300;" xml:space="preserve">
<style type="text/css">
	.st0{fill:#B3B3C6;}
	.st1{fill:#A5A5DB;}
	.st2{fill:#2F245B;}
	.st3{fill:#655CBC;}
	.st4{fill:#D9D9FF;}
	.st5{fill:#F2F2F2;}
	.st6{fill:#303077;}
	.st7{fill:#BAB8FF;}
</style>
<rect class="st0" width="300" height="300"/>
<path class="st1" d="M137.3,256.2l-120-177l140-70l127,162L137.3,256.2z"/>
<path class="st2" d="M275.3,193.2l-138,82v15.5l151-87.5L275.3,193.2z"/>
<path class="st3" d="M12.3,107.2c-3-13,6-28,6-28l119,177v34.5C137.3,290.8,15.3,120.2,12.3,107.2z"/>
<path class="st4" d="M275.3,202.2v-25l-138,79c0,0-5.4,9-6.5,16.5s8.5,11,8.5,11L275.3,202.2z"/>
<path class="st5" d="M66.6,85.8h8.1v0.9h-7.1v12.2h5.9v0.9h-5.9v7.7h7.1v0.9h-8.1V85.8z M81.3,86.6h-5.2v-0.9h11.3v0.9h-5.1v21.6h-1
	L81.3,86.6z M90.6,85.8h1v22.5h-1V85.8z M119,96.9c0,1.8-0.4,3.6-1.2,5.3c-0.8,1.6-1.9,3-3.3,4.1l2.3,2.3h-1.3l-1.7-1.7
	c-3.7,2.6-8.5,2.7-12.3,0.3c-1.8-1.1-3.2-2.6-4.3-4.4c-1-1.8-1.6-3.8-1.6-5.9c0-2,0.5-4.1,1.6-5.8c1-1.8,2.5-3.3,4.3-4.3
	c1.8-1.1,3.8-1.6,5.9-1.6c2,0,4.1,0.5,5.8,1.6c1.8,1,3.2,2.5,4.2,4.3C118.4,92.9,119,94.9,119,96.9z M107.3,108
	c2.1,0,4.1-0.6,5.8-1.8l-5.3-5.2h1.3l4.8,4.7c2.6-2.1,4.1-5.3,4.1-8.7c0.1-3.9-2-7.5-5.3-9.5c-1.6-1-3.4-1.5-5.3-1.5
	c-1.9,0-3.8,0.5-5.4,1.5c-1.6,1-3,2.3-3.9,4c-1,1.7-1.4,3.6-1.4,5.5c-0.1,3.9,2,7.5,5.3,9.5C103.6,107.5,105.4,108,107.3,108z
	 M129.4,108.9c-1.2,0-2.4-0.3-3.5-0.8c-1-0.6-1.8-1.4-2.4-2.4c-0.6-1.1-0.9-2.3-0.9-3.6V85.7h1V102c-0.1,1.1,0.2,2.2,0.8,3.1
	c0.5,0.9,1.1,1.5,2,2c0.9,0.5,1.9,0.7,2.9,0.7c1,0,2-0.2,2.9-0.7c0.9-0.5,1.5-1.1,2-2c0.5-1,0.8-2.1,0.8-3.2V85.6h1V102
	c0,1.2-0.3,2.5-0.8,3.6c-0.6,1-1.4,1.8-2.4,2.4C131.8,108.6,130.6,108.9,129.4,108.9L129.4,108.9z M140.8,85.8h8.1v0.9h-7.1v12.2
	h5.9v0.9h-5.9v7.7h7.1v0.9h-8.1V85.8z M155.5,86.6h-5.2v-0.9h11.3v0.9h-5.1v21.6h-1V86.6z M168.1,86.6h-5.2v-0.9h11.3v0.9h-5.1v21.6
	h-1V86.6z M177.2,85.8h8.1v0.9h-7.1v12.2h5.9v0.9h-5.9v7.7h7.1v0.9h-8.1V85.8z"/>
<path class="st5" d="M217.4,147.8h3.8v0.4h-3.3v5.7h2.8v0.4h-2.8v3.6h3.3v0.4h-3.8V147.8z M233.4,147.8v10.5h-0.5v-9.8l-5,10
	l-4.9-10.1v10h-0.5v-10.5h0.7l4.7,9.7l4.8-9.7L233.4,147.8L233.4,147.8z M235.6,147.8h0.5v10.5h-0.5V147.8z M238.4,147.8h0.5v10.1
	h3.2v0.4h-3.7V147.8z M248.2,147.8l-3.1,6.3v4.2h-0.5v-4.2l-3.2-6.3h0.5l2.9,5.8l2.9-5.8H248.2z M217.4,163.8h0.5
	c1-0.1,1.9,0.3,2.6,0.9c0.6,0.6,0.9,1.4,0.9,2.3c0.1,1.2-0.5,2.4-1.6,3c-0.5,0.3-1.1,0.4-1.7,0.4H218v3.8h-0.5v-10.4H217.4z
	 M218,170c0.8,0,1.5-0.3,2.1-0.8c0.5-0.6,0.8-1.4,0.8-2.2c0-0.8-0.3-1.5-0.8-2.1c-0.6-0.5-1.4-0.8-2.2-0.7h-0.1v5.9L218,170L218,170
	z M227.9,174.5c-1,0-1.9-0.3-2.7-0.8c-0.8-0.5-1.5-1.2-2-2c-0.5-0.9-0.7-1.8-0.7-2.8c0-0.9,0.2-1.9,0.7-2.7c0.5-0.8,1.2-1.5,2-2
	c0.8-0.5,1.7-0.8,2.7-0.8c0.9,0,1.9,0.2,2.7,0.7c0.8,0.5,1.5,1.2,2,2c0.5,0.8,0.7,1.8,0.7,2.7c0,1-0.2,1.9-0.7,2.8
	c-0.5,0.8-1.2,1.5-2,2C229.8,174.2,228.9,174.6,227.9,174.5z M227.9,174.1c0.9,0,1.8-0.2,2.5-0.7c0.8-0.4,1.4-1.1,1.8-1.9
	c0.5-0.8,0.7-1.7,0.7-2.6c0-0.9-0.2-1.8-0.7-2.5c-0.5-0.7-1.1-1.4-1.8-1.9c-1.5-0.9-3.5-0.9-5,0c-0.8,0.4-1.4,1.1-1.8,1.9
	c-0.4,0.8-0.7,1.6-0.7,2.5c0,0.9,0.2,1.8,0.7,2.6c0.5,0.7,1.1,1.4,1.8,1.9C226.1,173.9,227,174.1,227.9,174.1z M237.4,174.4
	c-1.1,0-2.1-0.5-2.7-1.4v-0.8c0.2,0.5,0.6,1,1.1,1.3c0.5,0.3,1.1,0.5,1.7,0.5c0.5,0,0.9-0.1,1.3-0.3c0.4-0.2,0.7-0.5,1-0.9
	c0.3-0.4,0.4-0.8,0.4-1.3c0-0.4-0.1-0.7-0.2-1.1c-0.2-0.3-0.4-0.7-0.7-0.9c-0.5-0.4-1-0.8-1.5-1.1l-0.4-0.3c-0.4-0.3-0.7-0.5-1-0.7
	c-0.3-0.2-0.5-0.4-0.7-0.7c-0.2-0.4-0.4-0.8-0.4-1.3c0-0.6,0.2-1.1,0.6-1.5c0.4-0.4,1-0.6,1.6-0.5c0.8-0.1,1.6,0.3,2,1v0.7
	c-0.2-0.4-0.5-0.7-0.9-0.9c-0.4-0.2-0.8-0.3-1.2-0.3c-0.4,0-0.9,0.1-1.2,0.4c-0.3,0.3-0.5,0.7-0.5,1.2c0,0.4,0.1,0.9,0.4,1.2
	c0.5,0.4,1,0.8,1.5,1.1c0.7,0.4,1.4,0.9,2,1.4c0.3,0.3,0.6,0.6,0.7,1c0.2,0.4,0.2,0.8,0.2,1.2c0,0.5-0.1,1.1-0.4,1.5
	c-0.3,0.4-0.6,0.8-1.1,1C238.5,174.2,238,174.4,237.4,174.4L237.4,174.4z M243,164.2h-2.4v-0.4h5.3v0.4h-2.4v10.1H243V164.2z"/>
<path class="st6" d="M80.5,181.4c0,0,19.1,21.9,51,23c38.6,1.4,57-21.3,57-21.3L80.5,181.4z"/>
<ellipse class="st7" cx="135.3" cy="172.7" rx="58.5" ry="24.9"/>
<ellipse class="st6" cx="138" cy="185.7" rx="26" ry="7.2"/>
<path class="st3" d="M119.1,188c-6.8-3.7-14.6-6.4-20.6-15.8c-3.8-5.9-1.4-30.8-1.4-30.8h78c0,0,2,22-0.9,29.2
	c-4.1,10.1-10.2,15.1-22.5,18.5C144.3,191.2,123.9,190.6,119.1,188z"/>
<ellipse class="st4" cx="136.1" cy="141.4" rx="39" ry="17.6"/>
<path class="st2" d="M174.2,145.3c0,0-18.2-8.3-36.2-8.2c-19,0.2-38.2,10.7-38.2,10.7s7.6,11.2,36.3,11.2
	C169.9,159,174.2,145.3,174.2,145.3z"/>
<path class="st4" d="M175.1,141.4c0,0,8.7,0.9,13.9,4.4c2.7,1.8,6.2,5.7,6.2,9.8c0,7.8-2.9,10.2-6.4,13.3
	c-6.8,6.1-18.9,9.6-18.9,9.6l4.4-8.2c0,0,20.5-7.2,14.7-17.4c-2.2-3.8-7.2-3.7-9.6-1.7c-1.7,1.4-0.9,8.6-3.7,8.4
	C175.1,153.6,175.1,141.4,175.1,141.4z"/>
</svg>
