<svg id="Layer_1" data-name="Layer 1" xmlns="http://www.w3.org/2000/svg" viewBox="0 0 565 382"><defs><style>.cls-1{fill:#b3b3c6;}.cls-2{fill:#a5a5db;}.cls-3{fill:#2f245b;}.cls-4{fill:#655cbc;}.cls-5{fill:#d9d9ff;}.cls-6{fill:#f2f2f2;}.cls-7{fill:#303077;}.cls-8{fill:#bab8ff;}</style></defs><rect class="cls-1" width="565" height="382"/><path class="cls-2" d="M269.8,297.2l-120-177,140-70,127,162Z"/><path class="cls-3" d="M407.8,234.2l-140,82v15.5l155-89.5Z"/><path class="cls-4" d="M142.8,153.2c-3-13,8-33,8-33l118,176v35.5C268.8,331.8,145.8,166.2,142.8,153.2Z"/><path class="cls-5" d="M407.8,243.2v-25l-138,79s-5.4,9-6.5,16.5,8.5,11,8.5,11Z"/><path class="cls-6" d="M199.1,126.8h8.1v.9h-7.1v12.2H206v.9h-5.9v7.7h7.1v.9h-8.1Zm14.7.8h-5.2v-.9h11.3v.9h-5.1v21.6h-1Zm9.3-.8h1v22.5h-1Zm28.4,11.1a12.09,12.09,0,0,1-1.2,5.3,11.1,11.1,0,0,1-3.3,4.1l2.3,2.3H248l-1.7-1.7a11.17,11.17,0,0,1-12.3.3,12.93,12.93,0,0,1-4.3-4.4,12.13,12.13,0,0,1-1.6-5.9,10.8,10.8,0,0,1,1.6-5.8,11.82,11.82,0,0,1,4.3-4.3,11.14,11.14,0,0,1,5.9-1.6,10.56,10.56,0,0,1,5.8,1.6,11.54,11.54,0,0,1,4.2,4.3A11.76,11.76,0,0,1,251.5,137.9ZM239.8,149a10.19,10.19,0,0,0,5.8-1.8l-5.3-5.2h1.3l4.8,4.7a11.11,11.11,0,0,0,4.1-8.7,10.88,10.88,0,0,0-5.3-9.5,9.88,9.88,0,0,0-5.3-1.5,10.48,10.48,0,0,0-5.4,1.5,10.7,10.7,0,0,0-3.9,4,10.49,10.49,0,0,0-1.4,5.5,10.88,10.88,0,0,0,5.3,9.5A9.64,9.64,0,0,0,239.8,149Zm22.1.9a7.84,7.84,0,0,1-3.5-.8,6.15,6.15,0,0,1-2.4-2.4,7.13,7.13,0,0,1-.9-3.6V126.7h1V143a5.33,5.33,0,0,0,.8,3.1,4.81,4.81,0,0,0,2,2,5.92,5.92,0,0,0,2.9.7,5.66,5.66,0,0,0,2.9-.7,4.81,4.81,0,0,0,2-2,6.6,6.6,0,0,0,.8-3.2V126.6h1V143a8,8,0,0,1-.8,3.6,6.89,6.89,0,0,1-2.4,2.4A6.16,6.16,0,0,1,261.9,149.9Zm11.4-23.1h8.1v.9h-7.1v12.2h5.9v.9h-5.9v7.7h7.1v.9h-8.1Zm14.7.8h-5.2v-.9h11.3v.9H289v21.6h-1Zm12.6,0h-5.2v-.9h11.3v.9h-5.1v21.6h-1Zm9.1-.8h8.1v.9h-7.1v12.2h5.9v.9h-5.9v7.7h7.1v.9h-8.1Z"/><path class="cls-6" d="M349.9,188.8h3.8v.4h-3.3v5.7h2.8v.4h-2.8v3.6h3.3v.4h-3.8V188.8Zm16,0v10.5h-.5v-9.8l-5,10-4.9-10.1v10H355V188.9h.7l4.7,9.7,4.8-9.7h.7Zm2.2,0h.5v10.5h-.5Zm2.8,0h.5v10.1h3.2v.4h-3.7Zm9.8,0-3.1,6.3v4.2h-.5v-4.2l-3.2-6.3h.5l2.9,5.8,2.9-5.8Zm-30.8,16h.5a3.57,3.57,0,0,1,2.6.9,3.17,3.17,0,0,1,.9,2.3,3.17,3.17,0,0,1-1.6,3,3.29,3.29,0,0,1-1.7.4h-.1v3.8H350V204.8Zm.6,6.2a3.23,3.23,0,0,0,2.1-.8,3.11,3.11,0,0,0,.8-2.2,2.86,2.86,0,0,0-.8-2.1,2.92,2.92,0,0,0-2.2-.7h-.1v5.9h.2Zm9.9,4.5a5,5,0,0,1-2.7-.8,6.36,6.36,0,0,1-2-2,5.55,5.55,0,0,1-.7-2.8,5,5,0,0,1,.7-2.7,6.36,6.36,0,0,1,2-2,5.3,5.3,0,0,1,2.7-.8,5,5,0,0,1,2.7.7,6.36,6.36,0,0,1,2,2,5.19,5.19,0,0,1,.7,2.7,5.55,5.55,0,0,1-.7,2.8,5.48,5.48,0,0,1-2,2A3.85,3.85,0,0,1,360.4,215.5Zm0-.4a4.51,4.51,0,0,0,2.5-.7,4.69,4.69,0,0,0,1.8-1.9,4.84,4.84,0,0,0,.7-2.6,4.3,4.3,0,0,0-.7-2.5,8.13,8.13,0,0,0-1.8-1.9,4.81,4.81,0,0,0-5,0,4.69,4.69,0,0,0-1.8,1.9,5.53,5.53,0,0,0-.7,2.5,4.84,4.84,0,0,0,.7,2.6,6.56,6.56,0,0,0,1.8,1.9A4.51,4.51,0,0,0,360.4,215.1Zm9.5.3a3.07,3.07,0,0,1-2.7-1.4v-.8a2.85,2.85,0,0,0,1.1,1.3,3.37,3.37,0,0,0,1.7.5,2.77,2.77,0,0,0,1.3-.3,2.84,2.84,0,0,0,1-.9,2,2,0,0,0,.4-1.3,3.59,3.59,0,0,0-.2-1.1,2.76,2.76,0,0,0-.7-.9,14.85,14.85,0,0,0-1.5-1.1l-.4-.3c-.4-.3-.7-.5-1-.7a2.34,2.34,0,0,1-.7-.7,2.84,2.84,0,0,1-.4-1.3,2,2,0,0,1,.6-1.5,2.07,2.07,0,0,1,1.6-.5,2.22,2.22,0,0,1,2,1v.7a2,2,0,0,0-.9-.9,2.66,2.66,0,0,0-1.2-.3,1.59,1.59,0,0,0-1.2.4,1.66,1.66,0,0,0-.5,1.2,1.59,1.59,0,0,0,.4,1.2,7.25,7.25,0,0,0,1.5,1.1,13.31,13.31,0,0,1,2,1.4,2.29,2.29,0,0,1,.7,1,2.54,2.54,0,0,1,.2,1.2,2.41,2.41,0,0,1-.4,1.5,2.66,2.66,0,0,1-1.1,1A2.52,2.52,0,0,1,369.9,215.4Zm5.6-10.2h-2.4v-.4h5.3v.4H376v10.1h-.5Z"/><path class="cls-7" d="M213,222.4s19.1,21.9,51,23c38.6,1.4,57-21.3,57-21.3Z"/><ellipse class="cls-8" cx="267.8" cy="213.7" rx="58.5" ry="24.9"/><ellipse class="cls-7" cx="270.5" cy="226.7" rx="26" ry="7.2"/><path class="cls-4" d="M251.6,230c-6.8-3.7-14.6-7.4-20.6-16.8-3.8-5.9-1.4-33-1.4-33l78,.3s2.3,22.4,1.1,30.1c-1.1,7.5-14.4,19.1-22.5,20.5C281.3,231.9,256.4,232.6,251.6,230Z"/><ellipse class="cls-5" cx="268.6" cy="182.4" rx="39" ry="17.6"/><path class="cls-3" d="M306.5,186.3s-18.05-8.32-36-8.15c-19,.18-38.23,10.65-38.23,10.65s6.58,11.2,39,11.2C300.05,200,306.5,186.3,306.5,186.3Z"/><path class="cls-5" d="M306.5,185.3s9.8-2,15,1.5c2.7,1.8,6.2,5.7,6.2,9.8,0,7.8-2.9,10.2-6.4,13.3-6.8,6.1-18.9,9.6-18.9,9.6l5.1-8.2s19.8-7.2,14-17.4c-2.2-3.8-7.2-3.7-9.6-1.7-1.7,1.4-1.9,10.6-4.7,10.4C306.6,196.6,306.5,185.3,306.5,185.3Z"/></svg>