<svg xmlns="http://www.w3.org/2000/svg" xmlns:xlink="http://www.w3.org/1999/xlink" viewBox="0 0 800 800"><defs><clipPath id="a"><rect x="-1128.85" y="176.37" width="827.64" height="278.24" style="fill:none"/></clipPath><clipPath id="b"><rect x="-321.26" y="-194.89" width="481.83" height="549.4" style="fill:none"/></clipPath><clipPath id="c"><rect x="-321.26" y="354.51" width="481.83" height="549.4" style="fill:none"/></clipPath><linearGradient id="d" x1="-23.96" y1="797.08" x2="-23.39" y2="797.08" gradientTransform="matrix(1440, 0, 0, -842, 34606.84, 671502.28)" gradientUnits="userSpaceOnUse"><stop offset="0" stop-color="#56cee2"/><stop offset="0.2" stop-color="#52aed2"/><stop offset="0.4" stop-color="#4c8ec3"/><stop offset="0.6" stop-color="#436fb3"/><stop offset="0.8" stop-color="#3651a4"/><stop offset="1" stop-color="#253494"/></linearGradient><mask id="e" x="100.46" y="53.51" width="821.45" height="35.51" maskUnits="userSpaceOnUse"><path d="M101.26,62.81a8.24,8.24,0,0,1,8-8.45H913.1a8.24,8.24,0,0,1,8,8.45V88.17H101.26Z" style="fill:#fff"/></mask></defs><title>hackathon</title><g style="clip-path:url(#a)"><g style="clip-path:url(#b)"><path d="M129,275.28c-2,4.08-1.77,9.55,1.62,12.57,3,2.63,7.51,2.72,11.22,1.35s6.83-4,10-6.33a111.24,111.24,0,0,1,20.53-12.19c2.91-1.33,6-2.56,9.18-2.52s10.84,1.92,12.1,4.86c1.64,3.82-18.69,21.06-24.7,25.47C154.7,308.93,138.14,316,126.5,329.24c-5.2,5.94-8.72,15.4-3.55,21.37,4.93,5.69,14,4.14,21.14,1.74,2.33-.79,4.74-1.67,6.37-3.5s2.15-4.89.48-6.67c-4-4.31-18.76,6.51-22.85,2.26-3-3.13,7.1-10.54,10.65-13l28.18-19.59c13.28-9.24,27.72-20.29,30-36.3.58-4.07.23-8.45-2-11.91-2.87-4.5-8.48-6.7-13.82-6.67s-10.48,2-15.31,4.25c-10.87,5.12-23.41,15.88-32,24.25-1.39-.31.12-4.65,4.24-10.27,8-10.88,32.64-34.68,36.93-34.19,23.44,2.67,46.71-11.33,41.38-21-10.9-19.68-48.82,12-61.53,24.11C145.65,252.85,134.68,263.49,129,275.28Z" style="fill:#f49392"/><path d="M154.18,337.87c0-.74-.21-1.66.39-2.09s1.83,1.11,2.28.44c3.66-5.48,9.47-6.79,11.92-1.73,1.94,4-2.29,11.74-9.45,8.46-2.11-1-6.78,2.39-8.46,2.64a1.24,1.24,0,0,1-.74-.06,1.28,1.28,0,0,1-.49-1C149.14,340.73,154.18,341.65,154.18,337.87Z" style="fill:none;stroke:#f49392;stroke-miterlimit:10;stroke-width:3px"/><path d="M155.61,336c1.1,1,3.76,3.58,5.7,3.58a3.56,3.56,0,0,0,3.37-3.09c0-2.29-4.17-2.93-7.83-.25" style="fill:none;stroke:#f49392;stroke-linecap:round;stroke-linejoin:round;stroke-width:3px"/><circle cx="159.42" cy="196.7" r="15.83" style="fill:#d5c429"/><path d="M143.83,195.76c3.27-.78,5-3.87,7.33-6.29,8.26-8.59,16.14-2.17,18.27.5,3.72,4.65,2.59,9.72-1.54,13.14s-10,4.38-13.51,8.57" style="fill:none;stroke:#fff;stroke-linecap:round;stroke-linejoin:round;stroke-width:3px"/><path d="M-4.35,262.24c-4.84-.2-6.91,5-8.62,8.15-.94,1.69-5.48,5.62-3.16,9.93a4.75,4.75,0,0,0,5.43,2.59c2.23-.6,3.62-2.38,5.87-1.93s5.13,2.08,6.57,2.12c2.57.06,3.66-.51,4.82-2.81,1.67-3.3-1.18-7.93-3.22-10.18C.51,267,1.3,262.48-4.35,262.24Z" style="fill:#f4c6c6"/><path d="M.82,249.83c-3.47-.05-6.24,4.71-3.8,9.55.54,1.07,3.43,2,5,.61C5,257.38,4.83,249.88.82,249.83Z" style="fill:#f4c6c6"/><path d="M3.89,265.19c0,2.18,1.25,3.39,3,3.1,5.69-.92,5.71-7.38,2.51-8.64C7.73,259,3.91,262.76,3.89,265.19Z" style="fill:#f4c6c6"/><path d="M42.71,290c4.33-3.38,18.94.83,17,23.08-.4,4.49-1.42,7.08-.15,11.4,1,3.53-9.92,5-11.36,4.33C44.53,327.1,30.91,299.2,42.71,290Z" style="fill:#f4c6c6"/><path d="M61.22,330.68c1.36,1,4.84,12.57.14,14.74-7.08,3.26-11-4.11-11.62-11.19C49.59,332.52,60,329.81,61.22,330.68Z" style="fill:#f4c6c6"/><path d="M-43.9,325c-2.66.27-7.5,7.5-.54,12.33,11.39,7.9,51.08,9.12,64.08-.77,8.85-6.73,1.2-14.79-2.13-14.36" style="fill:#a3d9d0"/><path d="M-43.29,329.33C-37,338,10,341.36,18.9,327.49c.84-1.31-5.38-13-7.55-16.93-4.37-7.95-44.4-8.5-49.48.87C-39.52,314-44.77,327.49-43.29,329.33Z" style="fill:#fff;stroke:#a3d9d0;stroke-linecap:round;stroke-linejoin:round;stroke-width:3px"/><path d="M-33,312.63c3.86,4,13.35,4.51,21.64,4.51,6.82,0,15.84-1.81,18.39-5.71" style="fill:#a3d9d0;stroke:#a3d9d0;stroke-linecap:round;stroke-linejoin:round;stroke-width:3px"/><circle cx="98.82" cy="308.95" r="15.83" style="fill:#d5c429"/><path d="M88.33,320.74c2.2-3.62,10.88-9.3,18.6-8.05a7.25,7.25,0,0,1,5.59,4.67" style="fill:none;stroke:#fff;stroke-linecap:round;stroke-linejoin:round;stroke-width:3px"/><path d="M84.91,299.83c9.24-4.5,15.87-1.71,22-4.5" style="fill:none;stroke:#fff;stroke-linecap:round;stroke-linejoin:round;stroke-width:3px"/><circle cx="47.86" cy="243.15" r="15.83" style="fill:#d5c429"/><path d="M60.58,232.43c-2.08-.82-5.74,1.64-7.25,8.33C51.69,248.07,56,255.33,57.46,256" style="fill:none;stroke:#fff;stroke-linecap:round;stroke-linejoin:round;stroke-width:3px"/><path d="M40.82,227.94c-6.83,2.7-7.47,25.54-3.83,27.61" style="fill:none;stroke:#fff;stroke-linecap:round;stroke-linejoin:round;stroke-width:3px"/><path d="M62.51,203.4a13.21,13.21,0,0,1-5.69-2,5.47,5.47,0,0,1-2.46-5.2c.42-2.22,2.6-3.72,4.8-4.24a23.07,23.07,0,0,1,6.74-.41c5,.34,30.06-7.42,33-9.45,2.48-1.7,2.15-9.63,7.32-9.57,2.26,0,4.62.92,5.59,3,.83,1.75.86,5.26.65,7.18" style="fill:none;stroke:#a3d9d0;stroke-linecap:round;stroke-linejoin:round;stroke-width:3px"/><path d="M58.44,203.56c-2.33,3.43.12,8.19,4.94,7.71,5.44-.54,7.1-7.23,8.73-9.47s27-11.29,36.72-10.41c3.18.29,6.92,1,9.13-1.32a5.42,5.42,0,0,0,.47-6.35,8.73,8.73,0,0,0-5.49-3.78" style="fill:none;stroke:#a3d9d0;stroke-linecap:round;stroke-linejoin:round;stroke-width:3px"/><path d="M13.27,196.69c-4.73-.19-6.75,4.93-8.42,8-.92,1.66-5.36,5.49-3.09,9.71a4.66,4.66,0,0,0,5.31,2.53c2.17-.59,3.53-2.32,5.74-1.88s5,2,6.41,2.06c2.51.06,3.58-.49,4.71-2.74,1.64-3.23-1.15-7.75-3.14-10C18,201.31,18.79,196.93,13.27,196.69Z" style="fill:#f4c6c6"/><path d="M18.33,184.56c-3.39-.05-6.1,4.61-3.72,9.34.53,1,3.35,2,4.89.59C22.36,191.94,22.24,184.62,18.33,184.56Z" style="fill:#f4c6c6"/><path d="M21.33,199.57c0,2.13,1.21,3.32,3,3,5.55-.91,5.58-7.22,2.45-8.45C25.07,193.51,21.35,197.2,21.33,199.57Z" style="fill:#f4c6c6"/><path d="M4.14,186.66c-2.65,1.42-1.29,8.46,1.19,9.62a4.08,4.08,0,0,0,5.08-1.49C11.77,192.4,7.85,184.69,4.14,186.66Z" style="fill:#f4c6c6"/><path d="M-3,196.28c-1.68,2-.45,5,.37,6a3.67,3.67,0,0,0,3.36,1.31,2.76,2.76,0,0,0,2.15-2.68C2.83,197.15-2,195-3,196.28Z" style="fill:#f4c6c6"/><path d="M107,220.67c-4.33-3.38-18.94.83-17,23.07.4,4.5,1.42,7.09.15,11.41-1,3.53,9.92,5,11.36,4.32C105.16,257.79,118.78,229.88,107,220.67Z" style="fill:#f4c6c6"/><path d="M88.47,261.36c-1.36,1-4.84,12.58-.14,14.75,7.08,3.26,11-4.12,11.62-11.19C100.1,263.21,89.66,260.5,88.47,261.36Z" style="fill:#f4c6c6"/><path d="M156.26,79.11c-4.84-.2-6.91,5-8.62,8.15-.94,1.69-5.48,5.61-3.16,9.93a4.77,4.77,0,0,0,5.43,2.59c2.23-.6,3.62-2.38,5.87-1.93s5.13,2.08,6.57,2.11c2.57.06,3.66-.51,4.82-2.8C168.84,93.86,166,89.23,164,87,161.12,83.83,161.91,79.35,156.26,79.11Z" style="fill:#f4c6c6"/><path d="M161.43,66.69c-3.47,0-6.24,4.72-3.8,9.56.54,1.07,3.43,2,5,.61C165.56,74.25,165.44,66.75,161.43,66.69Z" style="fill:#f4c6c6"/><path d="M146.92,68.85c-2.71,1.44-1.32,8.65,1.21,9.84a4.18,4.18,0,0,0,5.2-1.53C154.72,74.72,150.71,66.82,146.92,68.85Z" style="fill:#f4c6c6"/><path d="M139.56,78.69c-1.73,2.08-.46,5.14.38,6.12a3.75,3.75,0,0,0,3.43,1.35,2.83,2.83,0,0,0,2.2-2.74C145.57,79.58,140.61,77.42,139.56,78.69Z" style="fill:#f4c6c6"/><path d="M116.71,141.81c-2.66.27-7.5,7.51-.54,12.34,11.39,7.9,51.08,9.12,64.08-.77,8.85-6.73,1.19-14.79-2.13-14.36" style="fill:#a3d9d0"/><path d="M117.32,146.2c6.26,8.66,53.32,12,62.19-1.84.84-1.32-5.38-13-7.55-16.94-4.37-7.94-44.4-8.5-49.48.88C121.09,130.86,115.84,144.36,117.32,146.2Z" style="fill:#fff;stroke:#a3d9d0;stroke-linecap:round;stroke-linejoin:round;stroke-width:3px"/><path d="M127.56,129.5c3.86,4,13.35,4.5,21.64,4.5,6.82,0,15.84-1.81,18.39-5.7" style="fill:#a3d9d0;stroke:#a3d9d0;stroke-linecap:round;stroke-linejoin:round;stroke-width:3px"/><path d="M48.68,92.14c-2,4.09-1.77,9.56,1.61,12.57,3,2.64,7.51,2.73,11.23,1.36s6.82-4,10-6.33A111.57,111.57,0,0,1,92,87.55C95,86.21,98,85,101.22,85s10.84,1.91,12.11,4.85C115,93.71,94.63,111,88.62,115.36,74.4,125.8,57.83,132.84,46.2,146.11c-5.21,5.94-8.73,15.4-3.56,21.37,4.93,5.68,14,4.13,21.15,1.73,2.32-.78,4.73-1.67,6.37-3.5s2.15-4.88.47-6.67c-4-4.31-18.76,6.52-22.85,2.26-3-3.12,7.1-10.53,10.66-13l28.17-19.59c13.28-9.24,27.73-20.29,30-36.31.57-4.07.22-8.44-2-11.9-2.87-4.51-8.48-6.71-13.82-6.68s-10.47,2-15.31,4.26c-10.87,5.12-23.4,15.88-32,24.25-1.4-.31.11-4.65,4.23-10.28,8-10.87,32.65-34.67,36.94-34.18,23.43,2.66,46.7-11.34,41.37-21-10.89-19.68-48.81,12-61.53,24.1C65.35,69.71,54.37,80.36,48.68,92.14Z" style="fill:#f49392"/><path d="M73.88,154.74c0-.74-.22-1.66.38-2.09s1.83,1.11,2.28.43c3.66-5.48,9.47-6.79,11.92-1.72,2,4-2.28,11.74-9.44,8.46-2.12-1-6.78,2.39-8.47,2.63a1.14,1.14,0,0,1-.73-.06c-.35-.18-.44-.63-.49-1C68.83,157.59,73.87,158.51,73.88,154.74Z" style="fill:none;stroke:#f49392;stroke-miterlimit:10;stroke-width:3px"/><path d="M75.31,152.84c1.09,1,3.75,3.58,5.69,3.58a3.55,3.55,0,0,0,3.38-3.09c0-2.29-4.18-2.92-7.84-.25" style="fill:none;stroke:#f49392;stroke-linecap:round;stroke-linejoin:round;stroke-width:3px"/><path d="M119.44,35c-5.52,1.75-15.07,9.19-19.72,13.79,5.3,1.36,28.2.48,32.79-9.94C135.18,32.75,124.86,33.24,119.44,35Z" style="fill:#fff;stroke:#f49392;stroke-miterlimit:10;stroke-width:3px"/><circle cx="79.11" cy="13.57" r="15.83" style="fill:#d5c429"/><path d="M63.52,12.63c3.27-.79,5-3.87,7.34-6.3,8.25-8.59,16.14-2.16,18.27.5,3.72,4.66,2.59,9.72-1.54,13.15s-10,4.38-13.51,8.56" style="fill:none;stroke:#fff;stroke-linecap:round;stroke-linejoin:round;stroke-width:3px"/><path d="M157.56,13.15c-1.68,2-.45,5,.37,6a3.68,3.68,0,0,0,3.36,1.32,2.76,2.76,0,0,0,2.15-2.68C163.44,14,158.59,11.91,157.56,13.15Z" style="fill:#f4c6c6"/><circle cx="18.52" cy="125.81" r="15.83" style="fill:#d5c429"/><path d="M8,137.6c2.21-3.61,10.88-9.29,18.61-8a7.25,7.25,0,0,1,5.59,4.67" style="fill:none;stroke:#fff;stroke-linecap:round;stroke-linejoin:round;stroke-width:3px"/><path d="M4.6,116.7c9.25-4.5,15.87-1.72,22-4.5" style="fill:none;stroke:#fff;stroke-linecap:round;stroke-linejoin:round;stroke-width:3px"/><path d="M-17.8,20.27a13.48,13.48,0,0,1-5.69-2,5.5,5.5,0,0,1-2.45-5.2c.41-2.22,2.59-3.73,4.79-4.24a22.82,22.82,0,0,1,6.75-.41c5,.33,30.06-7.42,33-9.46,2.48-1.69,2.14-9.62,7.31-9.56,2.26,0,4.63.92,5.59,3,.83,1.75.86,5.25.65,7.18" style="fill:none;stroke:#a3d9d0;stroke-linecap:round;stroke-linejoin:round;stroke-width:3px"/><path d="M-21.86,20.42c-2.34,3.43.12,8.19,4.94,7.71,5.44-.54,7.09-7.23,8.73-9.46s27-11.29,36.71-10.41c3.19.29,6.92,1,9.14-1.32A5.47,5.47,0,0,0,38.13.58a8.76,8.76,0,0,0-5.49-3.77" style="fill:none;stroke:#a3d9d0;stroke-linecap:round;stroke-linejoin:round;stroke-width:3px"/><path d="M26.67,37.53c-4.32-3.37-18.94.84-17,23.08.4,4.5,1.41,7.08.15,11.41-1,3.53,9.92,5,11.35,4.32C24.86,74.65,38.48,46.75,26.67,37.53Z" style="fill:#f4c6c6"/><path d="M8.17,78.23C6.81,79.22,3.32,90.81,8,93c7.07,3.25,11-4.12,11.62-11.2C19.79,80.07,9.35,77.37,8.17,78.23Z" style="fill:#f4c6c6"/></g><g style="clip-path:url(#c)"><path d="M129,824.68c-2,4.08-1.77,9.55,1.62,12.57,3,2.63,7.51,2.72,11.22,1.35s6.83-4,10-6.33a111.79,111.79,0,0,1,20.53-12.19c2.91-1.33,6-2.56,9.18-2.52s10.84,1.92,12.1,4.86c1.64,3.82-18.69,21.06-24.7,25.47-14.23,10.44-30.79,17.49-42.43,30.75-5.2,5.94-8.72,15.41-3.55,21.37,4.93,5.69,14,4.14,21.14,1.74,2.33-.79,4.74-1.67,6.37-3.5s2.15-4.89.48-6.67c-4-4.31-18.76,6.52-22.85,2.26-3-3.13,7.1-10.54,10.65-13l28.18-19.59c13.28-9.24,27.72-20.28,30-36.3.58-4.07.23-8.44-2-11.91-2.87-4.5-8.48-6.7-13.82-6.67s-10.48,2-15.31,4.25c-10.87,5.12-23.41,15.89-32,24.26-1.39-.32.12-4.66,4.24-10.28,8-10.88,32.64-34.68,36.93-34.19,23.44,2.67,46.71-11.33,41.38-21-10.9-19.67-48.82,12-61.53,24.11C145.65,802.25,134.68,812.89,129,824.68Z" style="fill:#f49392"/><circle cx="159.42" cy="746.1" r="15.83" style="fill:#d5c429"/><path d="M143.83,745.16c3.27-.78,5-3.87,7.33-6.29,8.26-8.59,16.14-2.16,18.27.5,3.72,4.65,2.59,9.72-1.54,13.14s-10,4.38-13.51,8.57" style="fill:none;stroke:#fff;stroke-linecap:round;stroke-linejoin:round;stroke-width:3px"/><path d="M.82,799.23c-3.47-.05-6.24,4.72-3.8,9.55.54,1.07,3.43,2,5,.61C5,806.78,4.83,799.28.82,799.23Z" style="fill:#f4c6c6"/><circle cx="47.86" cy="792.55" r="15.83" style="fill:#d5c429"/><path d="M60.58,781.83c-2.08-.82-5.74,1.64-7.25,8.33-1.64,7.31,2.63,14.57,4.13,15.24" style="fill:none;stroke:#fff;stroke-linecap:round;stroke-linejoin:round;stroke-width:3px"/><path d="M40.82,777.34C34,780,33.35,802.88,37,805" style="fill:none;stroke:#fff;stroke-linecap:round;stroke-linejoin:round;stroke-width:3px"/><path d="M62.51,752.8a13.21,13.21,0,0,1-5.69-2,5.47,5.47,0,0,1-2.46-5.2c.42-2.22,2.6-3.72,4.8-4.24a23.06,23.06,0,0,1,6.74-.4c5,.33,30.06-7.43,33-9.46,2.48-1.7,2.15-9.62,7.32-9.57,2.26,0,4.62.93,5.59,3,.83,1.76.86,5.26.65,7.19" style="fill:none;stroke:#a3d9d0;stroke-linecap:round;stroke-linejoin:round;stroke-width:3px"/><path d="M58.44,753c-2.33,3.43.12,8.19,4.94,7.71,5.44-.54,7.1-7.23,8.73-9.47s27-11.29,36.72-10.41c3.18.29,6.92,1,9.13-1.32a5.42,5.42,0,0,0,.47-6.35,8.72,8.72,0,0,0-5.49-3.77" style="fill:none;stroke:#a3d9d0;stroke-linecap:round;stroke-linejoin:round;stroke-width:3px"/><path d="M13.27,746.1c-4.73-.2-6.75,4.92-8.42,8-.92,1.65-5.36,5.49-3.09,9.7a4.66,4.66,0,0,0,5.31,2.53c2.17-.58,3.53-2.32,5.74-1.88s5,2,6.41,2.06c2.51.06,3.58-.49,4.71-2.74,1.64-3.22-1.15-7.75-3.14-10C18,750.71,18.79,746.33,13.27,746.1Z" style="fill:#f4c6c6"/><path d="M18.33,734c-3.39,0-6.1,4.61-3.72,9.34.53,1.05,3.35,2,4.89.59C22.36,741.35,22.24,734,18.33,734Z" style="fill:#f4c6c6"/><path d="M21.33,749c0,2.13,1.21,3.32,3,3,5.55-.91,5.58-7.22,2.45-8.45C25.07,742.91,21.35,746.6,21.33,749Z" style="fill:#f4c6c6"/><path d="M4.14,736.07c-2.65,1.41-1.29,8.45,1.19,9.61a4.08,4.08,0,0,0,5.08-1.49C11.77,741.8,7.85,734.09,4.14,736.07Z" style="fill:#f4c6c6"/><path d="M-3,745.68c-1.68,2-.45,5,.37,6A3.67,3.67,0,0,0,.68,753a2.75,2.75,0,0,0,2.15-2.68C2.83,746.55-2,744.44-3,745.68Z" style="fill:#f4c6c6"/><path d="M107,770.07c-4.33-3.38-18.94.83-17,23.07.4,4.5,1.42,7.09.15,11.41-1,3.53,9.92,5,11.36,4.33C105.16,807.19,118.78,779.28,107,770.07Z" style="fill:#f4c6c6"/><path d="M156.26,628.51c-4.84-.2-6.91,5-8.62,8.15-.94,1.69-5.48,5.61-3.16,9.93a4.77,4.77,0,0,0,5.43,2.59c2.23-.6,3.62-2.38,5.87-1.93s5.13,2.08,6.57,2.11c2.57.06,3.66-.5,4.82-2.8,1.67-3.3-1.18-7.93-3.22-10.18C161.12,633.23,161.91,628.75,156.26,628.51Z" style="fill:#f4c6c6"/><path d="M161.43,616.09c-3.47,0-6.24,4.72-3.8,9.56.54,1.07,3.43,2,5,.61C165.56,623.65,165.44,616.15,161.43,616.09Z" style="fill:#f4c6c6"/><path d="M146.92,618.25c-2.71,1.44-1.32,8.65,1.21,9.84a4.18,4.18,0,0,0,5.2-1.53C154.72,624.12,150.71,616.22,146.92,618.25Z" style="fill:#f4c6c6"/><path d="M139.56,628.09c-1.73,2.08-.46,5.14.38,6.12a3.75,3.75,0,0,0,3.43,1.35,2.83,2.83,0,0,0,2.2-2.74C145.57,629,140.61,626.82,139.56,628.09Z" style="fill:#f4c6c6"/><path d="M116.71,691.21c-2.66.27-7.5,7.51-.54,12.34,11.39,7.9,51.08,9.12,64.08-.77,8.85-6.73,1.19-14.79-2.13-14.36" style="fill:#a3d9d0"/><path d="M117.32,695.6c6.26,8.66,53.32,12,62.19-1.84.84-1.32-5.38-13-7.55-16.94-4.37-7.94-44.4-8.5-49.48.88C121.09,680.26,115.84,693.76,117.32,695.6Z" style="fill:#fff;stroke:#a3d9d0;stroke-linecap:round;stroke-linejoin:round;stroke-width:3px"/><path d="M127.56,678.9c3.86,4,13.35,4.51,21.64,4.51,6.82,0,15.84-1.82,18.39-5.71" style="fill:#a3d9d0;stroke:#a3d9d0;stroke-linecap:round;stroke-linejoin:round;stroke-width:3px"/><path d="M48.68,641.54c-2,4.09-1.77,9.56,1.61,12.57,3,2.64,7.51,2.73,11.23,1.36s6.82-4,10-6.33A111.57,111.57,0,0,1,92,637c2.91-1.33,6-2.56,9.18-2.52s10.84,1.91,12.11,4.86c1.63,3.82-18.7,21.06-24.71,25.47C74.4,675.2,57.83,682.24,46.2,695.51c-5.21,5.94-8.73,15.4-3.56,21.37,4.93,5.69,14,4.13,21.15,1.73,2.32-.78,4.73-1.67,6.37-3.49s2.15-4.89.47-6.68c-4-4.3-18.76,6.52-22.85,2.26-3-3.12,7.1-10.53,10.66-13l28.17-19.59c13.28-9.24,27.73-20.29,30-36.31.57-4.07.22-8.44-2-11.9-2.87-4.5-8.48-6.71-13.82-6.68s-10.47,2-15.31,4.26c-10.87,5.12-23.4,15.88-32,24.25-1.4-.31.11-4.65,4.23-10.27,8-10.88,32.65-34.68,36.94-34.19,23.43,2.67,46.7-11.33,41.37-21-10.89-19.68-48.81,12-61.53,24.1C65.35,619.12,54.37,629.76,48.68,641.54Z" style="fill:#f49392"/><path d="M73.88,704.14c0-.74-.22-1.66.38-2.09s1.83,1.11,2.28.43c3.66-5.48,9.47-6.79,11.92-1.72,2,4-2.28,11.74-9.44,8.46-2.12-1-6.78,2.39-8.47,2.63a1.21,1.21,0,0,1-.73-.05,1.29,1.29,0,0,1-.49-1C68.83,707,73.87,707.92,73.88,704.14Z" style="fill:none;stroke:#f49392;stroke-miterlimit:10;stroke-width:3px"/><path d="M75.31,702.24c1.09,1,3.75,3.58,5.69,3.58a3.55,3.55,0,0,0,3.38-3.09c0-2.29-4.18-2.92-7.84-.25" style="fill:none;stroke:#f49392;stroke-linecap:round;stroke-linejoin:round;stroke-width:3px"/><path d="M119.44,584.36c-5.52,1.75-15.07,9.19-19.72,13.79,5.3,1.36,28.2.48,32.79-9.94C135.18,582.16,124.86,582.64,119.44,584.36Z" style="fill:#fff;stroke:#f49392;stroke-miterlimit:10;stroke-width:3px"/><circle cx="79.11" cy="562.97" r="15.83" style="fill:#d5c429"/><path d="M63.52,562c3.27-.78,5-3.87,7.34-6.3,8.25-8.59,16.14-2.16,18.27.51,3.72,4.65,2.59,9.71-1.54,13.14s-10,4.38-13.51,8.56" style="fill:none;stroke:#fff;stroke-linecap:round;stroke-linejoin:round;stroke-width:3px"/><path d="M157.56,562.55c-1.68,2-.45,5,.37,6a3.68,3.68,0,0,0,3.36,1.32,2.76,2.76,0,0,0,2.15-2.68C163.44,563.42,158.59,561.31,157.56,562.55Z" style="fill:#f4c6c6"/><circle cx="18.52" cy="675.21" r="15.83" style="fill:#d5c429"/><path d="M8,687c2.21-3.61,10.88-9.29,18.61-8a7.26,7.26,0,0,1,5.59,4.67" style="fill:none;stroke:#fff;stroke-linecap:round;stroke-linejoin:round;stroke-width:3px"/><path d="M4.6,666.1c9.25-4.5,15.87-1.72,22-4.5" style="fill:none;stroke:#fff;stroke-linecap:round;stroke-linejoin:round;stroke-width:3px"/><path d="M-17.8,569.67a13.48,13.48,0,0,1-5.69-2,5.5,5.5,0,0,1-2.45-5.2c.41-2.22,2.59-3.73,4.79-4.24a22.82,22.82,0,0,1,6.75-.41c5,.33,30.06-7.42,33-9.46,2.48-1.69,2.14-9.62,7.31-9.56,2.26,0,4.63.92,5.59,3,.83,1.75.86,5.25.65,7.18" style="fill:none;stroke:#a3d9d0;stroke-linecap:round;stroke-linejoin:round;stroke-width:3px"/><path d="M-21.86,569.83c-2.34,3.42.12,8.18,4.94,7.7,5.44-.53,7.09-7.23,8.73-9.46s27-11.29,36.71-10.41c3.19.29,6.92,1,9.14-1.32a5.45,5.45,0,0,0,.47-6.35,8.73,8.73,0,0,0-5.49-3.78" style="fill:none;stroke:#a3d9d0;stroke-linecap:round;stroke-linejoin:round;stroke-width:3px"/><path d="M26.67,586.93c-4.32-3.37-18.94.84-17,23.08.4,4.5,1.41,7.08.15,11.41-1,3.53,9.92,5,11.35,4.32C24.86,624.05,38.48,596.15,26.67,586.93Z" style="fill:#f4c6c6"/><path d="M8.17,627.63c-1.36,1-4.85,12.58-.14,14.75,7.07,3.26,11-4.12,11.62-11.2C19.79,629.48,9.35,626.77,8.17,627.63Z" style="fill:#f4c6c6"/><path d="M76,445.38c-4.83-.21-6.9,5-8.62,8.14-.94,1.7-5.48,5.62-3.15,9.94A4.75,4.75,0,0,0,69.61,466c2.22-.6,3.61-2.37,5.87-1.92s5.12,2.07,6.56,2.11c2.57.06,3.66-.51,4.83-2.8,1.67-3.31-1.19-7.93-3.22-10.19C80.81,450.1,81.6,445.61,76,445.38Z" style="fill:#f4c6c6"/><path d="M81.13,433c-3.47,0-6.24,4.72-3.81,9.56.54,1.07,3.43,2,5,.6C85.26,440.52,85.14,433,81.13,433Z" style="fill:#f4c6c6"/><path d="M84.2,448.32c0,2.18,1.24,3.4,3,3.11,5.68-.93,5.71-7.39,2.5-8.64C88,442.11,84.22,445.89,84.2,448.32Z" style="fill:#f4c6c6"/><path d="M66.61,435.11c-2.71,1.45-1.32,8.66,1.22,9.84A4.16,4.16,0,0,0,73,443.43C74.42,441,70.41,433.09,66.61,435.11Z" style="fill:#f4c6c6"/><path d="M59.25,445c-1.72,2.07-.46,5.14.38,6.12a3.77,3.77,0,0,0,3.43,1.34,2.82,2.82,0,0,0,2.21-2.74C65.27,445.84,60.31,443.69,59.25,445Z" style="fill:#f4c6c6"/><path d="M123,473.11c4.32-3.37,18.94.84,17,23.08-.4,4.49-1.41,7.08-.15,11.41,1,3.53-9.92,5-11.35,4.32C124.83,510.23,111.21,482.33,123,473.11Z" style="fill:#f4c6c6"/><path d="M141.52,513.81c1.36,1,4.85,12.58.14,14.75-7.07,3.25-11-4.12-11.62-11.2C129.9,515.65,140.34,513,141.52,513.81Z" style="fill:#f4c6c6"/><path d="M36.41,508.08c-2.66.27-7.51,7.51-.55,12.33,11.4,7.9,51.08,9.13,64.08-.76,8.85-6.74,1.2-14.79-2.12-14.37" style="fill:#a3d9d0"/><path d="M37,512.47c6.27,8.66,53.33,12,62.19-1.85.84-1.31-5.37-13-7.55-16.93-4.36-7.95-44.39-8.5-49.48.87C40.78,497.13,35.54,510.62,37,512.47Z" style="fill:#fff;stroke:#a3d9d0;stroke-linecap:round;stroke-linejoin:round;stroke-width:3px"/><path d="M47.26,495.77c3.86,4,13.34,4.5,21.63,4.5,6.82,0,15.85-1.81,18.4-5.71" style="fill:#a3d9d0;stroke:#a3d9d0;stroke-linecap:round;stroke-linejoin:round;stroke-width:3px"/><path d="M-31.63,458.41C-33.6,462.49-33.4,468-30,471c3,2.64,7.51,2.72,11.22,1.35s6.83-3.95,10-6.33a111.79,111.79,0,0,1,20.53-12.19c2.91-1.33,6-2.55,9.18-2.51s10.84,1.91,12.1,4.85c1.64,3.82-18.69,21.06-24.7,25.47-14.23,10.44-30.79,17.49-42.42,30.75-5.21,5.94-8.73,15.41-3.56,21.38,4.93,5.68,14,4.13,21.14,1.73,2.33-.78,4.74-1.67,6.37-3.5s2.16-4.88.48-6.67c-4-4.31-18.76,6.52-22.85,2.26-3-3.12,7.1-10.53,10.65-13L6.31,495c13.28-9.23,27.73-20.28,30-36.3.58-4.07.23-8.44-2-11.91-2.87-4.5-8.48-6.7-13.82-6.67s-10.48,2-15.31,4.26c-10.87,5.11-23.41,15.88-32,24.25-1.39-.32.12-4.65,4.24-10.28,8-10.87,32.64-34.68,36.94-34.19,23.43,2.67,46.7-11.33,41.37-21-10.9-19.67-48.82,12-61.53,24.11C-15,436-25.93,446.63-31.63,458.41Z" style="fill:#f49392"/><path d="M-6.43,521c0-.74-.21-1.65.39-2.08s1.83,1.1,2.28.43c3.66-5.48,9.47-6.79,11.92-1.72,1.94,4-2.29,11.74-9.45,8.46-2.11-1-6.78,2.39-8.46,2.63a1.17,1.17,0,0,1-.74-.06c-.35-.18-.44-.64-.49-1C-11.47,523.86-6.43,524.78-6.43,521Z" style="fill:none;stroke:#f49392;stroke-miterlimit:10;stroke-width:3px"/><path d="M-5,519.11c1.1,1,3.76,3.58,5.7,3.58a3.54,3.54,0,0,0,3.37-3.09c0-2.29-4.17-2.93-7.83-.25" style="fill:none;stroke:#f49392;stroke-linecap:round;stroke-linejoin:round;stroke-width:3px"/><path d="M39.14,401.22c-5.53,1.75-15.07,9.2-19.73,13.8,5.3,1.36,28.21.48,32.79-9.94C54.87,399,44.55,399.51,39.14,401.22Z" style="fill:#fff;stroke:#f49392;stroke-miterlimit:10;stroke-width:3px"/><circle cx="-1.19" cy="379.84" r="15.83" style="fill:#d5c429"/><path d="M-16.78,378.89c3.27-.78,5-3.86,7.34-6.29,8.25-8.59,16.13-2.16,18.26.5,3.72,4.65,2.59,9.72-1.54,13.14s-10,4.39-13.51,8.57" style="fill:none;stroke:#fff;stroke-linecap:round;stroke-linejoin:round;stroke-width:3px"/><circle cx="128.17" cy="426.28" r="15.83" style="fill:#d5c429"/><path d="M140.89,415.57c-2.08-.82-5.75,1.64-7.25,8.33-1.64,7.3,2.62,14.56,4.12,15.24" style="fill:none;stroke:#fff;stroke-linecap:round;stroke-linejoin:round;stroke-width:3px"/><path d="M121.12,411.08c-6.82,2.69-7.46,25.53-3.82,27.61" style="fill:none;stroke:#fff;stroke-linecap:round;stroke-linejoin:round;stroke-width:3px"/><path d="M142.81,386.54a13.35,13.35,0,0,1-5.69-2,5.47,5.47,0,0,1-2.45-5.2c.41-2.22,2.59-3.72,4.79-4.23a22.82,22.82,0,0,1,6.75-.41c5,.33,30.06-7.42,33-9.46,2.48-1.7,2.14-9.62,7.31-9.57,2.26,0,4.63.93,5.59,3,.83,1.76.86,5.26.65,7.19" style="fill:none;stroke:#a3d9d0;stroke-linecap:round;stroke-linejoin:round;stroke-width:3px"/><path d="M138.75,386.69c-2.34,3.43.12,8.19,4.94,7.71,5.44-.54,7.09-7.23,8.73-9.47s27-11.29,36.71-10.4c3.19.29,6.92,1,9.13-1.32a5.45,5.45,0,0,0,.48-6.36,8.72,8.72,0,0,0-5.49-3.77" style="fill:none;stroke:#a3d9d0;stroke-linecap:round;stroke-linejoin:round;stroke-width:3px"/><path d="M93.57,379.83c-4.72-.2-6.74,4.92-8.42,8-.92,1.66-5.35,5.49-3.08,9.7a4.62,4.62,0,0,0,5.3,2.53c2.18-.58,3.53-2.32,5.74-1.88s5,2,6.41,2.06c2.52.06,3.58-.49,4.72-2.73,1.63-3.23-1.16-7.75-3.15-10C98.32,384.44,99.1,380.06,93.57,379.83Z" style="fill:#f4c6c6"/><path d="M98.63,367.7c-3.39-.05-6.1,4.61-3.72,9.33.53,1.05,3.36,2,4.89.6C102.67,375.08,102.55,367.75,98.63,367.7Z" style="fill:#f4c6c6"/><path d="M101.63,382.71c0,2.13,1.22,3.32,3,3,5.56-.91,5.58-7.22,2.45-8.44C105.38,376.64,101.65,380.33,101.63,382.71Z" style="fill:#f4c6c6"/><path d="M84.45,369.8c-2.65,1.41-1.29,8.45,1.19,9.62a4.07,4.07,0,0,0,5.07-1.49C92.07,375.54,88.16,367.82,84.45,369.8Z" style="fill:#f4c6c6"/><path d="M77.26,379.42c-1.69,2-.45,5,.37,6A3.66,3.66,0,0,0,81,386.71,2.74,2.74,0,0,0,83.13,384C83.13,380.29,78.29,378.18,77.26,379.42Z" style="fill:#f4c6c6"/></g></g><rect width="800" height="800" style="fill:#ce4db4;opacity:0.35000000000000003"/><polygon points="104.87 56.69 68.08 103.99 68.08 892.63 104.87 892.63 104.87 56.69" style="fill:#ce4db4;opacity:0.7000000000000001"/><rect x="101.07" y="534.37" width="818.04" height="933.44" style="fill:#fff"/><rect x="100.96" y="596.54" width="818.18" height="443.75" style="fill:none"/><rect x="646.98" y="719.27" width="147.16" height="136.93" style="fill:#e1e4f0"/><polygon points="735.87 788.59 720.97 796.54 706.07 788.59 706.07 772.68 720.97 764.73 735.87 772.68 735.87 788.59" style="fill:#fff"/><polygon points="732.32 786.81 720.97 793.07 709.62 786.81 706.07 788.55 720.97 796.54 735.87 788.55 732.32 786.81" style="fill:#cce7ff"/><polyline points="714.48 784.19 717.36 786.81 724.58 786.81 727.46 784.19" style="fill:none;stroke:#253494;stroke-linecap:round;stroke-linejoin:round;stroke-width:2px"/><polyline points="712.57 777.45 715.43 775.21 718.29 777.45" style="fill:none;stroke:#253494;stroke-linecap:round;stroke-linejoin:round;stroke-width:2px"/><polyline points="723.64 777.45 726.51 775.21 729.37 777.45" style="fill:none;stroke:#253494;stroke-linecap:round;stroke-linejoin:round;stroke-width:2px"/><polygon points="735.87 788.59 720.97 796.54 706.07 788.59 706.07 772.68 720.97 764.73 735.87 772.68 735.87 788.59" style="fill:none;stroke:#253494;stroke-linecap:round;stroke-linejoin:round;stroke-width:2px"/><polygon points="714.26 809.84 701.93 816.16 689.59 809.84 689.59 797.19 701.93 790.86 714.26 797.19 714.26 809.84" style="fill:#fff"/><polyline points="694.98 800.98 697.44 799.3 699.91 800.98" style="fill:none;stroke:#253494;stroke-linecap:round;stroke-linejoin:round;stroke-width:2px"/><polyline points="703.95 800.98 706.41 799.3 708.88 800.98" style="fill:none;stroke:#253494;stroke-linecap:round;stroke-linejoin:round;stroke-width:2px"/><polygon points="714.26 809.84 701.93 816.16 689.59 809.84 689.59 797.19 701.93 790.86 714.26 797.19 714.26 809.84" style="fill:none;stroke:#253494;stroke-linecap:round;stroke-linejoin:round;stroke-width:2px"/><polygon points="751.77 809.84 739.71 816.16 727.66 809.84 727.66 797.19 739.71 790.86 751.77 797.19 751.77 809.84" style="fill:#fff"/><polyline points="732.91 800.98 735.23 799.2 737.55 800.98" style="fill:none;stroke:#253494;stroke-linecap:round;stroke-linejoin:round;stroke-width:2px"/><polyline points="741.88 800.98 744.2 799.2 746.51 800.98" style="fill:none;stroke:#253494;stroke-linecap:round;stroke-linejoin:round;stroke-width:2px"/><polygon points="751.77 809.84 739.71 816.16 727.66 809.84 727.66 797.19 739.71 790.86 751.77 797.19 751.77 809.84" style="fill:none;stroke:#253494;stroke-linecap:round;stroke-linejoin:round;stroke-width:2px"/><polygon points="715.4 759.37 703.06 765.73 690.73 759.37 690.73 746.65 703.06 740.29 715.4 746.65 715.4 759.37" style="fill:#fff"/><polygon points="712.46 757.82 703.06 762.9 693.67 757.82 690.73 759.23 703.06 765.73 715.4 759.23 712.46 757.82" style="fill:#cce7ff"/><polyline points="697.78 756.12 700.13 758.38 706 758.38 708.35 756.12" style="fill:none;stroke:#253494;stroke-linecap:round;stroke-linejoin:round;stroke-width:2px"/><polyline points="696.01 750.47 698.36 748.77 700.71 750.47" style="fill:none;stroke:#253494;stroke-linecap:round;stroke-linejoin:round;stroke-width:2px"/><polyline points="705.41 750.47 707.76 748.77 710.11 750.47" style="fill:none;stroke:#253494;stroke-linecap:round;stroke-linejoin:round;stroke-width:2px"/><polygon points="715.4 759.37 703.06 765.73 690.73 759.37 690.73 746.65 703.06 740.29 715.4 746.65 715.4 759.37" style="fill:none;stroke:#253494;stroke-linecap:round;stroke-linejoin:round;stroke-width:2px"/><polygon points="751.77 759.37 739.71 765.73 727.66 759.37 727.66 746.65 739.71 740.29 751.77 746.65 751.77 759.37" style="fill:#fff"/><polygon points="748.9 757.95 739.71 762.95 730.53 757.95 727.66 759.34 739.71 765.73 751.77 759.34 748.9 757.95" style="fill:#cce7ff"/><polyline points="734.46 755.86 736.79 757.95 742.63 757.95 744.97 755.86" style="fill:none;stroke:#253494;stroke-linecap:round;stroke-linejoin:round;stroke-width:2px"/><polyline points="732.91 750.47 735.23 748.67 737.55 750.47" style="fill:none;stroke:#253494;stroke-linecap:round;stroke-linejoin:round;stroke-width:2px"/><polyline points="741.88 750.47 744.2 748.67 746.51 750.47" style="fill:none;stroke:#253494;stroke-linecap:round;stroke-linejoin:round;stroke-width:2px"/><polygon points="751.77 759.37 739.71 765.73 727.66 759.37 727.66 746.65 739.71 740.29 751.77 746.65 751.77 759.37" style="fill:none;stroke:#253494;stroke-linecap:round;stroke-linejoin:round;stroke-width:2px"/><path d="M675.88,777.07l2.18-1.07v2.15c1.31-.74,1.17-.49,2.18-1.08v2.16h2.19c-.81,3-4.81,5.51-7.19,7.06,3.13-.12,12.26.77,15.44-2.53s.86-7.61,4-8.53a25.7,25.7,0,0,1,2.9.08c-.86-.85-.62-1.86-.86-2.54-.87-3.66-5.83-2.5-7.67.45l-1.24-2.32c-3.33-6.21-12.87-.55-16.37,3.14.51,0,1.2-.2,2.29-.2V776l2.18-1.08v2.15" style="fill:#cce7ff;stroke:#253494;stroke-linecap:round;stroke-linejoin:round;stroke-width:2px"/><path d="M765.24,777.07,763.06,776v2.15c-1.31-.74-1.17-.49-2.19-1.08v2.16h-2.18c.81,3,4.8,5.51,7.19,7.06-3.13-.12-12.26.77-15.44-2.53s-.86-7.61-4-8.53a25.65,25.65,0,0,0-2.9.08c.86-.85.62-1.86.86-2.54.87-3.66,5.83-2.5,7.67.45l1.24-2.32c3.32-6.21,12.87-.55,16.37,3.14-.52,0-1.2-.2-2.29-.2V776l-2.18-1.08v2.15" style="fill:#cce7ff;stroke:#253494;stroke-linecap:round;stroke-linejoin:round;stroke-width:2px"/><rect x="437.32" y="719.27" width="147.16" height="137.5" style="fill:#e1e4f0"/><polygon points="522.77 749.95 522.77 782.95 509.53 769.75 496.29 782.94 496.29 796.15 479.74 796.15 473.12 806.04 476.43 806.04 476.43 822.53 496.29 822.53 522.77 822.53 549.25 822.53 549.25 749.95 522.77 749.95" style="fill:#fff"/><path d="M516.52,789.8l-13.52,10h13.52Z" style="fill:#cce7ff"/><polygon points="549.25 749.95 522.93 822.53 549.25 822.53 549.25 749.95" style="fill:#cce7ff"/><polygon points="479.83 796.2 473.12 806.17 496.6 806.17 496.6 796.2 479.83 796.2" style="fill:none;stroke:#253494;stroke-linecap:round;stroke-linejoin:round;stroke-width:2px"/><polyline points="496.6 822.53 496.6 783.04 509.76 769.88 522.93 783.05 522.93 822.53" style="fill:none;stroke:#253494;stroke-linecap:round;stroke-linejoin:round;stroke-width:2px"/><polyline points="522.93 782.94 522.93 749.95 549.25 749.95 549.25 822.53" style="fill:none;stroke:#253494;stroke-linecap:round;stroke-linejoin:round;stroke-width:2px"/><path d="M496.6,783.4h26.33" style="fill:none;stroke:#253494;stroke-linecap:round;stroke-linejoin:round;stroke-width:2px"/><path d="M532.89,756.36v6.4" style="fill:none;stroke:#253494;stroke-linecap:round;stroke-linejoin:round;stroke-width:2px"/><path d="M539.29,756.36v6.4" style="fill:none;stroke:#253494;stroke-linecap:round;stroke-linejoin:round;stroke-width:2px"/><path d="M532.89,769.88v6.4" style="fill:none;stroke:#253494;stroke-linecap:round;stroke-linejoin:round;stroke-width:2px"/><path d="M539.29,769.88v6.4" style="fill:none;stroke:#253494;stroke-linecap:round;stroke-linejoin:round;stroke-width:2px"/><path d="M532.89,783.4v6.4" style="fill:none;stroke:#253494;stroke-linecap:round;stroke-linejoin:round;stroke-width:2px"/><path d="M539.29,783.4v6.4" style="fill:none;stroke:#253494;stroke-linecap:round;stroke-linejoin:round;stroke-width:2px"/><path d="M532.89,796.2v6.41" style="fill:none;stroke:#253494;stroke-linecap:round;stroke-linejoin:round;stroke-width:2px"/><path d="M539.29,796.2v6.41" style="fill:none;stroke:#253494;stroke-linecap:round;stroke-linejoin:round;stroke-width:2px"/><polygon points="503 799.76 516.52 799.76 516.52 789.8 503 789.8 503 799.76" style="fill:none;stroke:#253494;stroke-linecap:round;stroke-linejoin:round;stroke-width:2px"/><rect x="226.53" y="719.27" width="147.16" height="137.5" style="fill:#e1e4f0"/><polygon points="324.5 769.18 321.32 759.61 299.09 759.61 295.91 769.18 265.73 769.18 265.73 817 335.62 817 335.62 769.18 324.5 769.18" style="fill:#fff"/><polygon points="322.55 782.34 297.55 796.73 310.05 803.93 322.55 796.73 322.55 782.34" style="fill:#cce7ff"/><polygon points="277.38 777.23 272.55 782.05 277.38 786.88 282.21 782.05 277.38 777.23" style="fill:#cce7ff"/><polygon points="324.5 769.18 321.32 759.61 299.09 759.61 295.91 769.18 265.73 769.18 265.73 817 335.62 817 335.62 769.18 324.5 769.18" style="fill:none;stroke:#253494;stroke-linecap:round;stroke-linejoin:round;stroke-width:2px"/><polygon points="277.38 777.23 272.55 782.05 277.38 786.88 282.21 782.05 277.38 777.23" style="fill:none;stroke:#253494;stroke-linecap:round;stroke-linejoin:round;stroke-width:2px"/><path d="M272.55,762.45h6.82" style="fill:none;stroke:#253494;stroke-linecap:round;stroke-linejoin:round;stroke-width:2px"/><polygon points="322.55 796.12 310.05 803.36 297.55 796.12 297.55 781.63 310.05 774.38 322.55 781.63 322.55 796.12" style="fill:none;stroke:#253494;stroke-linecap:round;stroke-linejoin:round;stroke-width:2px"/><polygon points="328.8 798.99 309.77 810.18 290.73 798.99 290.73 778.19 309.77 767 328.8 778.19 328.8 798.99" style="fill:none;stroke:#253494;stroke-linecap:round;stroke-linejoin:round;stroke-width:2px"/><g style="isolation:isolate"><text transform="translate(439.71 652.79)" style="isolation:isolate;font-size:20.454421997070312px;fill:#0e122e;font-family:Montserrat-Medium, Montserrat">GET S<tspan x="58.68" y="0" style="letter-spacing:-0.07104209545535588em">T</tspan><tspan x="69.26" y="0">ARTED</tspan></text></g><g style="isolation:isolate"><text transform="translate(388.79 674.34)" style="isolation:isolate;font-size:9.09085464477539px;fill:#0e122e;font-family:AvenirNext-Regular, Avenir Next"><tspan style="letter-spacing:-0.09002007038692668em">Y</tspan><tspan x="4.65" y="0">ou can help the</tspan><tspan x="68.94" y="0" style="letter-spacing:-0.01804698308472993em"> </tspan><tspan x="71.04" y="0" style="letter-spacing:0.00010742251836148769em">Atlanta</tspan><tspan x="100.45" y="0" style="letter-spacing:-0.01804698308472993em"> </tspan><tspan x="102.56" y="0" style="letter-spacing:0.00010742251836148769em">Audubon Society ma</tspan><tspan x="189.35" y="0" style="letter-spacing:-0.01804698308472993em">k</tspan><tspan x="193.82" y="0" style="letter-spacing:-0.00010742251836148769em">e a critical </tspan></text><text transform="translate(402.94 686.28)" style="isolation:isolate;font-size:9.09085464477539px;fill:#0e122e;font-family:AvenirNext-Regular, Avenir Next">di<tspan x="8.06" y="0" style="letter-spacing:-0.017939560566368442em">f</tspan><tspan x="10.58" y="0">fe</tspan><tspan x="18.46" y="0" style="letter-spacing:-0.01804698308472993em">r</tspan><tspan x="21.57" y="0">ence for our city</tspan><tspan x="88.37" y="0" style="letter-spacing:-0.04791044318922351em">’</tspan><tspan x="89.95" y="0">s n</tspan><tspan x="101.54" y="0" style="letter-spacing:-0.009990294207618355em">a</tspan><tspan x="106.31" y="0">tive and mig</tspan><tspan x="157.62" y="0" style="letter-spacing:-0.012031322056486621em">r</tspan><tspan x="160.78" y="0" style="letter-spacing:-0.009990294207618355em">a</tspan><tspan x="165.54" y="0">tory bi</tspan><tspan x="192.02" y="0" style="letter-spacing:-0.017939560566368442em">r</tspan><tspan x="195.13" y="0" style="letter-spacing:-0.00010742251836148769em">ds</tspan><tspan x="204.96" y="0" style="letter-spacing:-0.029970882622855063em">.</tspan></text></g><rect x="100.96" y="121.55" width="818.18" height="478.41" style="fill:url(#d)"/><path d="M256.93,302.8a.86.86,0,0,1-.86-.86V283.77a.86.86,0,1,1,1.71,0v18.17A.86.86,0,0,1,256.93,302.8Z" style="fill:#2c7fb8"/><path d="M424,272.68a.85.85,0,0,1-.85-.84V248a.85.85,0,0,1,1.7,0v23.88A.85.85,0,0,1,424,272.68Z" style="fill:#2c7fb8"/><path d="M102.39,598.82a.86.86,0,0,1-.86-.87V564.44a.87.87,0,0,1,.4-.73l18.82-11.93V491.32a.87.87,0,0,1,.86-.86H135V438.52a.86.86,0,0,1,.86-.87h11.32v-7.26a.87.87,0,0,1,.86-.87h11.41l.91-6.36a.87.87,0,0,1,.85-.75h9.27v-23.5a.86.86,0,0,1,.86-.87h32.41a.86.86,0,0,1,.86.87v15.38H215V364.36a.88.88,0,0,1,.25-.61l26.09-26.15v-3.7a.86.86,0,0,1,.25-.61l7.91-7.93,4-22.08a.86.86,0,0,1,.85-.71h4.05a.86.86,0,0,1,.85.79l2,22,7.84,7.91a.79.79,0,0,1,.25.61v7.79l24.1,26.15a.85.85,0,0,1,.23.58v17.35l25.41-2a.57.57,0,0,1,.26,0l34.43,8.12a.86.86,0,0,1,.66.82l2,104.77h10.45V492.3a.86.86,0,0,1,.86-.86h11.3V338a.86.86,0,0,1,.69-.84l9.43-1.9V317.66a.88.88,0,0,1,.7-.84l9.44-1.9V299.36a.86.86,0,0,1,.65-.83l7.46-1.87V283.13a.88.88,0,0,1,.57-.82l5.49-1.83V275a.87.87,0,0,1,.69-.85l10.13-2a1,1,0,0,1,.34,0l10.13,2a.87.87,0,0,1,.69.85v5.47l5.49,1.83a.88.88,0,0,1,.57.82v13.55l7.46,1.87a.83.83,0,0,1,.67.81v17.58l9.44,1.89a.86.86,0,0,1,.69.84v17.66l7.46,1.87a.85.85,0,0,1,.65.83v39.76h15.35a.86.86,0,0,1,.86.86v43.83h11.28a.86.86,0,0,1,.86.86V459h6.38V348.13a.88.88,0,0,1,.48-.78l3.57-1.78V340a.85.85,0,0,1,.66-.83l7.45-1.87V323.75a.87.87,0,0,1,.75-.85l14.17-2a1,1,0,0,1,.51.08l8.1,4.06a.86.86,0,0,1,.48.78v11.65l7.65,3.82a.86.86,0,0,1,.48.77v5.48l5.49,1.83a.86.86,0,0,1,.58.82v5.23h16.51V346.1a.85.85,0,0,1,.86-.86h5.21V338a.87.87,0,0,1,.86-.86h7.25V325.79a.86.86,0,0,1,.75-.86l16.21-2a.89.89,0,0,1,.57.14l6.08,4.06a.86.86,0,0,1,.38.72v9.51l5.49,1.83a.85.85,0,0,1,.57.82v7.59l7.63,3.83a.86.86,0,0,1,.48.77v70.24H632.3v-5.22a.87.87,0,0,1,.86-.87h7.24V394.85a.86.86,0,0,1,.86-.86H667.6a.85.85,0,0,1,.86.86v13.36h7.25a.86.86,0,0,1,.86.86v13.35h11.29a.87.87,0,0,1,.86.86V476l8.41-8.42V403a.87.87,0,0,1,.86-.87h13.32V374.53a.87.87,0,0,1,.86-.86h50.65a.86.86,0,0,1,.86.86v49.92H773a.87.87,0,0,1,.52.17l8.1,6.1a.81.81,0,0,1,.34.69v44.32l4.36,4.37V352.19a.87.87,0,0,1,.65-.84l15.56-3.89v-3.4a.86.86,0,0,1,.65-.83l7.64-1.92,3.91-11.74a.86.86,0,0,1,1.63,0l3.9,11.74,7.65,1.92a.86.86,0,0,1,.65.83v5.51l9.59,3.85a.86.86,0,0,1,.54.8v31.64h70.05a.87.87,0,0,1,.86.86v58.75l10.06,24.21a.86.86,0,1,1-1.58.66L907.94,446a.72.72,0,0,1-.07-.33v-58H837.8a.86.86,0,0,1-.86-.86V354.81L827.36,351a.87.87,0,0,1-.58-.8v-5.42l-7.46-1.87a.86.86,0,0,1-.6-.57l-3.24-9.73-3.24,9.73a.86.86,0,0,1-.61.57l-7.45,1.87v3.39a.87.87,0,0,1-.65.83L788,352.86V482.18a.85.85,0,0,1-.52.8.86.86,0,0,1-.94-.19l-6.08-6.09a.86.86,0,0,1-.25-.61V431.84l-7.53-5.66h-9.85a.87.87,0,0,1-.86-.87V375.4H713.07V403a.87.87,0,0,1-.86.86H698.89V468a.91.91,0,0,1-.26.61L688.5,478.73a.86.86,0,0,1-.94.19.87.87,0,0,1-.53-.8v-54H675.74a.87.87,0,0,1-.86-.86V409.93h-7.26a.87.87,0,0,1-.86-.87V395.71H642.15v21.48a.87.87,0,0,1-.86.86h-7.24v5.23a.87.87,0,0,1-.86.86H621a.86.86,0,0,1-.86-.86V352.73l-7.63-3.83a.86.86,0,0,1-.47-.77v-7.48l-5.49-1.83A.86.86,0,0,1,606,338v-9.72l-5.44-3.61-15.14,1.9V338a.86.86,0,0,1-.86.86h-7.24v7.26a.87.87,0,0,1-.86.87h-5.22v9.26a.86.86,0,0,1-.86.87H552.15a.86.86,0,0,1-.86-.87v-5.47L545.8,349a.86.86,0,0,1-.58-.82v-5.56l-7.62-3.83a.86.86,0,0,1-.48-.77V326.32l-7.39-3.71-13.19,1.9V338a.87.87,0,0,1-.66.84l-7.46,1.87v5.42a.86.86,0,0,1-.47.77l-3.58,1.79V459.85a.85.85,0,0,1-.86.86h-8.1a.86.86,0,0,1-.86-.86V426.18H483.26a.87.87,0,0,1-.86-.87V381.49H467.06a.86.86,0,0,1-.86-.87V340.68l-7.46-1.87a.87.87,0,0,1-.66-.84V320.4l-9.44-1.89a.87.87,0,0,1-.69-.85V300.05l-7.46-1.86a.87.87,0,0,1-.65-.84V283.76l-5.49-1.84a.86.86,0,0,1-.58-.82v-5.38l-9.27-1.86-9.27,1.86v5.38a.85.85,0,0,1-.57.82l-5.49,1.84v13.59a.87.87,0,0,1-.65.84l-7.46,1.86v15.58a.87.87,0,0,1-.69.85l-9.44,1.87v17.57a.86.86,0,0,1-.69.84l-9.44,1.9V492.34a.85.85,0,0,1-.86.86H368.65v5.23a.86.86,0,0,1-.87.86H355.63a.85.85,0,0,1-.86-.84l-2-104.95-33.66-7.94-26.22,2a.82.82,0,0,1-.65-.23.84.84,0,0,1-.28-.63V368.78l-24.1-26.16a.93.93,0,0,1-.23-.58v-7.76l-7.82-7.88a.82.82,0,0,1-.24-.54l-2-21.56h-2.55l-3.92,21.64a.93.93,0,0,1-.24.46L243,334.27V338a.86.86,0,0,1-.25.61L216.7,364.74v50.42a.86.86,0,0,1-.86.86H203.69a.87.87,0,0,1-.87-.86V399.77H172.13v23.51a.87.87,0,0,1-.86.86h-9.38l-.91,6.37a.86.86,0,0,1-.85.74H148.86v7.27a.86.86,0,0,1-.86.86H136.68v51.94a.86.86,0,0,1-.86.86H122.47v60.07a.85.85,0,0,1-.4.73l-18.82,11.94v33a.86.86,0,0,1-.25.61A.83.83,0,0,1,102.39,598.82Z" style="fill:#56cee2"/><path d="M387,493.7a.85.85,0,0,1-.85-.86V344.57a.85.85,0,1,1,1.7,0V492.84A.85.85,0,0,1,387,493.7Z" style="fill:#56cee2"/><path d="M393.29,493.7a.85.85,0,0,1-.85-.86V344.57a.85.85,0,1,1,1.7,0V492.84A.85.85,0,0,1,393.29,493.7Z" style="fill:#56cee2"/><path d="M399,493.7a.85.85,0,0,1-.85-.86V344.57a.85.85,0,1,1,1.7,0V492.84A.85.85,0,0,1,399,493.7Z" style="fill:#56cee2"/><path d="M405.22,503.93a.85.85,0,0,1-.85-.86V344.57a.85.85,0,1,1,1.7,0v158.5A.85.85,0,0,1,405.22,503.93Z" style="fill:#56cee2"/><path d="M410.9,503.93a.85.85,0,0,1-.85-.86V344.57a.85.85,0,1,1,1.7,0v158.5A.85.85,0,0,1,410.9,503.93Z" style="fill:#56cee2"/><path d="M434.2,554.5a.87.87,0,0,1-.86-.86V344.57a.86.86,0,1,1,1.71,0V553.64A.86.86,0,0,1,434.2,554.5Z" style="fill:#56cee2"/><path d="M440.45,554.5a.87.87,0,0,1-.86-.86V344.57a.86.86,0,1,1,1.71,0V553.64A.86.86,0,0,1,440.45,554.5Z" style="fill:#56cee2"/><path d="M446.13,530.07a.86.86,0,0,1-.85-.86V344.57a.85.85,0,1,1,1.7,0V529.21A.86.86,0,0,1,446.13,530.07Z" style="fill:#56cee2"/><path d="M453,530.07a.87.87,0,0,1-.86-.86V344.57a.86.86,0,1,1,1.71,0V529.21A.86.86,0,0,1,453,530.07Z" style="fill:#56cee2"/><path d="M458.63,530.07a.86.86,0,0,1-.85-.86V344.57a.85.85,0,1,1,1.7,0V529.21A.86.86,0,0,1,458.63,530.07Z" style="fill:#56cee2"/><path d="M397.83,336.89A.86.86,0,0,1,397,336V321.84a.86.86,0,1,1,1.71,0V336A.87.87,0,0,1,397.83,336.89Z" style="fill:#56cee2"/><path d="M404.08,336.89a.86.86,0,0,1-.85-.86V321.84a.86.86,0,1,1,1.71,0V336A.87.87,0,0,1,404.08,336.89Z" style="fill:#56cee2"/><path d="M410.33,336.89a.86.86,0,0,1-.85-.86V321.84a.86.86,0,1,1,1.71,0V336A.87.87,0,0,1,410.33,336.89Z" style="fill:#56cee2"/><path d="M416,336.89a.86.86,0,0,1-.86-.86V321.84a.86.86,0,1,1,1.71,0V336A.86.86,0,0,1,416,336.89Z" style="fill:#56cee2"/><path d="M431.92,337.46a.86.86,0,0,1-.85-.87V322.41a.86.86,0,1,1,1.71,0v14.18A.88.88,0,0,1,431.92,337.46Z" style="fill:#56cee2"/><path d="M438.17,337.46a.86.86,0,0,1-.85-.87V322.41a.86.86,0,1,1,1.71,0v14.18A.86.86,0,0,1,438.17,337.46Z" style="fill:#56cee2"/><path d="M444.42,337.46a.86.86,0,0,1-.85-.87V322.41a.86.86,0,1,1,1.71,0v14.18A.87.87,0,0,1,444.42,337.46Z" style="fill:#56cee2"/><path d="M450.67,337.46a.87.87,0,0,1-.85-.87V322.41a.86.86,0,1,1,1.71,0v14.18A.87.87,0,0,1,450.67,337.46Z" style="fill:#56cee2"/><path d="M406.36,317a.86.86,0,0,1-.86-.86V302a.86.86,0,1,1,1.71,0v14.19a.85.85,0,0,1-.85.86Z" style="fill:#56cee2"/><path d="M412,317a.85.85,0,0,1-.85-.86V302a.85.85,0,1,1,1.7,0v14.19A.86.86,0,0,1,412,317Z" style="fill:#56cee2"/><path d="M418.29,317a.85.85,0,0,1-.85-.86V302a.85.85,0,1,1,1.7,0v14.19a.85.85,0,0,1-.85.86Z" style="fill:#56cee2"/><path d="M428,317a.87.87,0,0,1-.86-.86V302a.86.86,0,1,1,1.71,0v14.19a.85.85,0,0,1-.85.86Z" style="fill:#56cee2"/><path d="M434.2,317a.86.86,0,0,1-.86-.86V302a.86.86,0,1,1,1.71,0v14.19a.85.85,0,0,1-.85.86Z" style="fill:#56cee2"/><path d="M440.45,317a.86.86,0,0,1-.86-.86V302a.86.86,0,1,1,1.71,0v14.19a.85.85,0,0,1-.85.86Z" style="fill:#56cee2"/><rect x="412.32" y="285.75" width="1.7" height="10.23" style="fill:#56cee2"/><rect x="416.3" y="285.75" width="1.7" height="10.23" style="fill:#56cee2"/><rect x="428.23" y="285.75" width="1.7" height="10.23" style="fill:#56cee2"/><rect x="432.21" y="285.75" width="1.7" height="10.23" style="fill:#56cee2"/><path d="M537.65,367.57a.9.9,0,0,1-.9-.89.91.91,0,0,1,.85-.94l32.88-2.15a.89.89,0,0,1,.79.41,1,1,0,0,1,.05.91.87.87,0,0,1-.73.51l-32.88,2.15Z" style="fill:#56cee2"/><path d="M620.54,359.61a.88.88,0,0,1-.33-.06l-15.88-6.77a.88.88,0,0,1-.47-.48.87.87,0,0,1,0-.67.87.87,0,0,1,1.13-.47l15.89,6.77a.87.87,0,0,1,.51,1,.85.85,0,0,1-.84.69Z" style="fill:#56cee2"/><path d="M620.57,365.86a.77.77,0,0,1-.33-.06L604.34,359a.83.83,0,0,1-.53-.68.86.86,0,0,1,.32-.81.82.82,0,0,1,.85-.1l15.92,6.78a.89.89,0,0,1,.5,1A.85.85,0,0,1,620.57,365.86Z" style="fill:#56cee2"/><path d="M620.57,372.11a.77.77,0,0,1-.33-.06l-15.9-6.79a.83.83,0,0,1-.53-.68.86.86,0,0,1,.32-.81.82.82,0,0,1,.85-.1l15.92,6.78a.89.89,0,0,1,.5,1A.85.85,0,0,1,620.57,372.11Z" style="fill:#56cee2"/><path d="M620.56,378.36a.92.92,0,0,1-.33-.06l-15.9-6.77a.88.88,0,0,1-.47-.48.87.87,0,0,1,0-.67.87.87,0,0,1,1.13-.47l15.88,6.79a.88.88,0,0,1,.52,1A.85.85,0,0,1,620.56,378.36Z" style="fill:#56cee2"/><path d="M620.57,384.05a1.3,1.3,0,0,1-.33-.07l-15.9-6.79a.83.83,0,0,1-.53-.68.86.86,0,0,1,.32-.81.82.82,0,0,1,.85-.1l15.92,6.79a.87.87,0,0,1-.33,1.66Z" style="fill:#56cee2"/><path d="M620.57,390.3a.78.78,0,0,1-.33-.07l-15.9-6.79a.83.83,0,0,1-.53-.68.86.86,0,0,1,.32-.81.82.82,0,0,1,.85-.1l15.92,6.79a.87.87,0,0,1-.33,1.66Z" style="fill:#56cee2"/><path d="M620.56,396a1,1,0,0,1-.33-.07l-15.89-6.78a.88.88,0,0,1-.21-1.5.82.82,0,0,1,.85-.1l15.9,6.78a.88.88,0,0,1,.52,1A.86.86,0,0,1,620.56,396Z" style="fill:#56cee2"/><path d="M620.56,402.23a1,1,0,0,1-.33-.07l-15.89-6.78a.88.88,0,0,1-.21-1.5.82.82,0,0,1,.85-.1l15.91,6.79a.86.86,0,0,1-.33,1.66Z" style="fill:#56cee2"/><path d="M620.57,408.46a1,1,0,0,1-.33-.06l-15.9-6.77a.88.88,0,0,1-.21-1.5.82.82,0,0,1,.85-.1l15.92,6.79a.87.87,0,0,1,.5,1,.85.85,0,0,1-.83.7Z" style="fill:#56cee2"/><path d="M620.56,414.16a.78.78,0,0,1-.33-.07l-15.89-6.78a.88.88,0,0,1-.21-1.5.82.82,0,0,1,.85-.1l15.9,6.78a.88.88,0,0,1,.52,1A.87.87,0,0,1,620.56,414.16Z" style="fill:#56cee2"/><path d="M620.54,421a.88.88,0,0,1-.33-.07l-15.88-6.77a.87.87,0,0,1-.47-.47.89.89,0,0,1,0-.68.9.9,0,0,1,.47-.47.8.8,0,0,1,.66,0l15.89,6.76a.88.88,0,0,1,.51,1,.85.85,0,0,1-.84.69Z" style="fill:#56cee2"/><path d="M796.13,585.18a.86.86,0,0,1-.86-.86V357.07a.86.86,0,1,1,1.71,0V584.32A.85.85,0,0,1,796.13,585.18Z" style="fill:#56cee2"/><path d="M537.65,375.52a.91.91,0,0,1,0-1.82l32.88-2.15a.84.84,0,0,1,.64.22.93.93,0,0,1,.29.63.9.9,0,0,1-.81,1l-32.89,2.15Z" style="fill:#56cee2"/><path d="M537.65,383.48a.9.9,0,0,1-.9-.89.91.91,0,0,1,.85-.94l32.88-2.15a.89.89,0,0,1,.79.41,1,1,0,0,1,.05.91.87.87,0,0,1-.73.51l-32.88,2.15Z" style="fill:#56cee2"/><path d="M537.65,391.43a.91.91,0,0,1,0-1.82l32.88-2.15a.88.88,0,0,1,.79.4,1,1,0,0,1,.05.92.88.88,0,0,1-.73.5l-32.88,2.15Z" style="fill:#56cee2"/><path d="M537.63,400a.91.91,0,0,1-.88-.85.92.92,0,0,1,.83-1l32.9-2.15a.91.91,0,0,1,.11,1.82l-32.91,2.14Z" style="fill:#56cee2"/><path d="M537.65,407.91a.9.9,0,0,1-.9-.89.91.91,0,0,1,.85-.94l32.88-2.15a.89.89,0,0,1,.79.41,1,1,0,0,1,.05.91.87.87,0,0,1-.73.51l-32.88,2.15Z" style="fill:#56cee2"/><path d="M537.65,416.43a.91.91,0,0,1,0-1.82l32.88-2.15a.88.88,0,0,1,.79.4,1,1,0,0,1,.05.92.88.88,0,0,1-.73.5l-32.88,2.15Z" style="fill:#56cee2"/><path d="M537.65,424.39a.9.9,0,0,1-.9-.89.91.91,0,0,1,.85-.94l32.88-2.15a.89.89,0,0,1,.79.41,1,1,0,0,1,.05.91.89.89,0,0,1-.73.51l-32.88,2.15Z" style="fill:#56cee2"/><path d="M537.65,432.34a.92.92,0,0,1,0-1.83l32.88-2.14a.88.88,0,0,1,.79.4,1,1,0,0,1,.05.91.87.87,0,0,1-.73.51l-32.88,2.15Z" style="fill:#56cee2"/><path d="M537.65,440.3a.92.92,0,0,1,0-1.83l32.88-2.15a.91.91,0,0,1,.11,1.82l-32.88,2.15Z" style="fill:#56cee2"/><path d="M537.65,448.25a.89.89,0,0,1-.9-.89.91.91,0,0,1,.85-.94l32.88-2.14a.86.86,0,0,1,.79.4,1,1,0,0,1,.05.91.87.87,0,0,1-.73.51l-32.88,2.15Z" style="fill:#56cee2"/><path d="M537.65,456.77a.91.91,0,0,1,0-1.82l32.88-2.15a.88.88,0,0,1,.79.4,1,1,0,0,1,.05.92.88.88,0,0,1-.73.5l-32.88,2.15Z" style="fill:#56cee2"/><path d="M537.65,464.73a.9.9,0,0,1-.9-.89.91.91,0,0,1,.85-.94l32.88-2.15a.89.89,0,0,1,.93.86.91.91,0,0,1-.82,1l-32.88,2.14Z" style="fill:#56cee2"/><path d="M537.65,473.24a.89.89,0,0,1-.9-.88.91.91,0,0,1,.85-.94l32.88-2.15a.89.89,0,0,1,.79.41,1,1,0,0,1,.05.91.89.89,0,0,1-.73.51l-32.88,2.15Z" style="fill:#56cee2"/><path d="M537.65,481.2a.89.89,0,0,1-.9-.88.91.91,0,0,1,.85-.94l32.88-2.15a.87.87,0,0,1,.79.41,1,1,0,0,1,.05.91.88.88,0,0,1-.73.5l-32.88,2.15Z" style="fill:#56cee2"/><path d="M537.65,489.16a.9.9,0,0,1-.9-.89.91.91,0,0,1,.85-.94l32.88-2.15a.89.89,0,0,1,.79.41,1,1,0,0,1,.05.91.87.87,0,0,1-.73.51l-32.88,2.15Z" style="fill:#56cee2"/><path d="M537.65,497.11a.91.91,0,0,1,0-1.82l32.88-2.15a.88.88,0,0,1,.79.4,1,1,0,0,1,.05.92.88.88,0,0,1-.73.5l-32.88,2.15Z" style="fill:#56cee2"/><path d="M537.65,505.07a.9.9,0,0,1-.9-.89.91.91,0,0,1,.85-.94l32.88-2.15a.89.89,0,0,1,.79.41,1,1,0,0,1,.05.91.87.87,0,0,1-.73.51l-32.88,2.15Z" style="fill:#56cee2"/><path d="M537.65,513.58a.89.89,0,0,1-.9-.88.91.91,0,0,1,.85-.94l32.88-2.14a.86.86,0,0,1,.79.4,1,1,0,0,1,.05.91.87.87,0,0,1-.73.51l-32.88,2.15Z" style="fill:#56cee2"/><path d="M537.65,521.55a.92.92,0,0,1,0-1.83l32.88-2.15a.87.87,0,0,1,.79.41,1,1,0,0,1,.05.91.88.88,0,0,1-.73.5l-32.88,2.15Z" style="fill:#56cee2"/><path d="M537.65,530.07a.9.9,0,0,1-.9-.89.91.91,0,0,1,.85-.94l32.88-2.15a.89.89,0,0,1,.93.86.91.91,0,0,1-.82,1l-32.88,2.14Z" style="fill:#56cee2"/><path d="M537.65,538a.91.91,0,0,1,0-1.82l32.88-2.15a.88.88,0,0,1,.79.4,1,1,0,0,1,.05.92.88.88,0,0,1-.73.5L537.71,538Z" style="fill:#56cee2"/><path d="M537.65,546a.9.9,0,0,1-.9-.89.91.91,0,0,1,.85-.94L570.48,542a.89.89,0,0,1,.79.41,1,1,0,0,1,.05.91.89.89,0,0,1-.73.51L537.71,546Z" style="fill:#56cee2"/><path d="M773.38,467H740.47a.87.87,0,0,1-.88-.87V425.26a.87.87,0,0,1,.88-.87h32.91a.87.87,0,0,1,.87.87v40.89A.87.87,0,0,1,773.38,467Zm-32-1.74H772.5V426.1H741.34Z" style="fill:#56cee2"/><path d="M247.83,507.91H225.68a.87.87,0,0,1-.86-.87V372.74a.86.86,0,0,1,.78-.86l22.16-2a.91.91,0,0,1,.65.23.86.86,0,0,1,.28.64V507A.87.87,0,0,1,247.83,507.91Zm-21.3-1.73H247V371.65l-20.45,1.88Z" style="fill:#56cee2"/><path d="M164.89,485.18H145a.86.86,0,0,1-.85-.87V447.42a.86.86,0,0,1,.85-.87h19.9a.86.86,0,0,1,.84.87v36.89a.94.94,0,0,1-.24.62A.86.86,0,0,1,164.89,485.18Zm-19.06-1.74h18.23V448.29H145.83Z" style="fill:#56cee2"/><path d="M308.64,538h-19.9a.85.85,0,0,1-.85-.86V396.61a.88.88,0,0,1,.76-.88l19.9-2a.81.81,0,0,1,.66.22.89.89,0,0,1,.27.64V537.16A.85.85,0,0,1,308.64,538Zm-19.06-1.73H307.8V395.53l-18.22,1.87Z" style="fill:#56cee2"/><path d="M130.22,527.8a.88.88,0,0,1-.85-.88V500.26a.85.85,0,1,1,1.7,0v26.67A.86.86,0,0,1,130.22,527.8Z" style="fill:#56cee2"/><path d="M137,527.8a.86.86,0,0,1-.85-.88V500.26a.85.85,0,1,1,1.7,0v26.67A.86.86,0,0,1,137,527.8Z" style="fill:#56cee2"/><path d="M142.72,527.8a.86.86,0,0,1-.85-.88V500.26a.85.85,0,1,1,1.7,0v26.67A.86.86,0,0,1,142.72,527.8Z" style="fill:#56cee2"/><path d="M149,527.8a.86.86,0,0,1-.85-.88V500.26a.85.85,0,1,1,1.7,0v26.67A.86.86,0,0,1,149,527.8Z" style="fill:#56cee2"/><path d="M154.65,527.8a.86.86,0,0,1-.85-.88V500.26a.86.86,0,1,1,1.71,0v26.67A.88.88,0,0,1,154.65,527.8Z" style="fill:#56cee2"/><path d="M160.9,534.05a.87.87,0,0,1-.85-.88V500.26a.86.86,0,1,1,1.71,0v32.91A.88.88,0,0,1,160.9,534.05Z" style="fill:#56cee2"/><path d="M167.15,534.05a.87.87,0,0,1-.85-.88V500.26a.86.86,0,1,1,1.71,0v32.91A.88.88,0,0,1,167.15,534.05Z" style="fill:#56cee2"/><path d="M172.84,534.05a.87.87,0,0,1-.86-.88V500.26a.86.86,0,1,1,1.71,0v32.91A.87.87,0,0,1,172.84,534.05Z" style="fill:#56cee2"/><path d="M179.08,542a.86.86,0,0,1-.85-.87V500.25a.86.86,0,1,1,1.71,0v40.88A.86.86,0,0,1,179.08,542Z" style="fill:#56cee2"/><path d="M184.77,542a.87.87,0,0,1-.86-.87V500.25a.86.86,0,1,1,1.71,0v40.88A.86.86,0,0,1,184.77,542Z" style="fill:#56cee2"/><path d="M191,542a.87.87,0,0,1-.86-.87V500.25a.86.86,0,1,1,1.71,0v40.88A.86.86,0,0,1,191,542Z" style="fill:#56cee2"/><path d="M197.83,527.8a.86.86,0,0,1-.85-.88V500.26a.86.86,0,1,1,1.71,0v26.67A.88.88,0,0,1,197.83,527.8Z" style="fill:#56cee2"/><path d="M203.52,527.8a.87.87,0,0,1-.86-.88V500.26a.86.86,0,1,1,1.71,0v26.67A.86.86,0,0,1,203.52,527.8Z" style="fill:#56cee2"/><path d="M353.51,403.36h-.21l-32.9-8a.85.85,0,0,1-.65-.58A.82.82,0,0,1,320,394a.87.87,0,0,1,.86-.22l32.9,8a.84.84,0,0,1,.64.92.86.86,0,0,1-.85.74Z" style="fill:#56cee2"/><path d="M353.38,413.56h-.2l-32.78-8a.84.84,0,0,1-.65-.58.82.82,0,0,1,.21-.84.87.87,0,0,1,.86-.21l32.78,7.93a.85.85,0,0,1,.76.94.88.88,0,0,1-1,.75Z" style="fill:#56cee2"/><path d="M353.51,423.8h-.21l-32.9-8a.85.85,0,0,1-.65-.58.82.82,0,0,1,.21-.84.9.9,0,0,1,.86-.22l32.9,8a.84.84,0,0,1-.21,1.66Z" style="fill:#56cee2"/><path d="M353.38,434a.64.64,0,0,1-.2,0l-32.78-7.93a.87.87,0,0,1-.65-.59.81.81,0,0,1,.21-.83.87.87,0,0,1,.86-.22l32.78,7.93a.85.85,0,0,1,.76.95.87.87,0,0,1-1,.74Z" style="fill:#56cee2"/><path d="M353.38,444.24h-.2l-32.78-8a.84.84,0,0,1-.65-.58.82.82,0,0,1,.21-.84.87.87,0,0,1,.86-.21l32.78,7.93a.85.85,0,0,1,.76.95.88.88,0,0,1-1,.74Z" style="fill:#56cee2"/><path d="M353.38,453.9a.67.67,0,0,1-.2,0l-32.78-8a.84.84,0,0,1-.65-.58.82.82,0,0,1,.21-.84.87.87,0,0,1,.86-.21l32.78,7.93a.85.85,0,0,1,.76.94.88.88,0,0,1-1,.75Z" style="fill:#56cee2"/><path d="M353.51,464.15a.74.74,0,0,1-.21,0l-32.9-8a.84.84,0,0,1-.65-.58.82.82,0,0,1,.21-.84.9.9,0,0,1,.86-.22l32.9,8a.84.84,0,0,1-.21,1.66Z" style="fill:#56cee2"/><path d="M353.38,474.94h-.2l-32.78-8a.84.84,0,0,1-.65-.58.81.81,0,0,1,.21-.83.87.87,0,0,1,.86-.22l32.78,7.93a.85.85,0,0,1,.76.95.88.88,0,0,1-1,.74Z" style="fill:#56cee2"/><path d="M262.73,515.29a.87.87,0,0,1-1-.76.85.85,0,0,1,.76-1l15.63-3.9v-121a.86.86,0,0,1,.75-.85l14.24-2a.87.87,0,0,1,1,.74.86.86,0,0,1-.74,1l-13.54,1.91v121a.85.85,0,0,1-.65.83l-16.29,4.07Z" style="fill:#56cee2"/><path d="M327.37,545.41a.86.86,0,0,1-.84-.86V498a.86.86,0,0,1,.84-.86h27.86a.86.86,0,0,1,0,1.72h-27v45.72A.86.86,0,0,1,327.37,545.41Z" style="fill:#56cee2"/><path d="M637,472.68H618.86a.87.87,0,0,1-.86-.86V437.18a.87.87,0,0,1,.86-.86H637a.86.86,0,0,1,.86.86v34.64A.86.86,0,0,1,637,472.68ZM619.72,471h16.45v-32.9H619.72Z" style="fill:#56cee2"/><path d="M770.55,567.57H701.82a.86.86,0,0,1-.86-.87V480.36a.86.86,0,0,1,.86-.86h68.73a.86.86,0,0,1,.86.86V566.7A.86.86,0,0,1,770.55,567.57Zm-67.88-1.73h67V481.23h-67Z" style="fill:#56cee2"/><path d="M618.86,573.82A.86.86,0,0,1,618,573V487.19a.86.86,0,1,1,1.71,0V573A.87.87,0,0,1,618.86,573.82Z" style="fill:#56cee2"/><path d="M624.54,573.82a.87.87,0,0,1-.86-.87V487.19a.86.86,0,1,1,1.71,0V573A.86.86,0,0,1,624.54,573.82Z" style="fill:#56cee2"/><path d="M630.79,573.82a.87.87,0,0,1-.86-.87V487.19a.86.86,0,1,1,1.71,0V573A.86.86,0,0,1,630.79,573.82Z" style="fill:#56cee2"/><path d="M636.47,573.82a.86.86,0,0,1-.85-.87V487.19a.85.85,0,1,1,1.7,0V573A.85.85,0,0,1,636.47,573.82Z" style="fill:#56cee2"/><path d="M643.29,573.82a.87.87,0,0,1-.86-.87V487.19a.86.86,0,1,1,1.71,0V573A.86.86,0,0,1,643.29,573.82Z" style="fill:#56cee2"/><path d="M649.54,573.82a.87.87,0,0,1-.86-.87V487.19a.86.86,0,1,1,1.71,0V573A.86.86,0,0,1,649.54,573.82Z" style="fill:#56cee2"/><path d="M655.22,573.82a.86.86,0,0,1-.85-.87V487.19a.85.85,0,1,1,1.7,0V573A.85.85,0,0,1,655.22,573.82Z" style="fill:#56cee2"/><path d="M661.47,573.82a.86.86,0,0,1-.85-.87V487.19a.85.85,0,1,1,1.7,0V573A.85.85,0,0,1,661.47,573.82Z" style="fill:#56cee2"/><path d="M608.62,477.23a.85.85,0,0,1-.84-.87V431.67a.85.85,0,0,1,.84-.86h5.13v-7.26a.86.86,0,0,1,.85-.87h6a.87.87,0,0,1,0,1.73h-5.13v7.26a.86.86,0,0,1-.84.87h-5.13v43.82A.86.86,0,0,1,608.62,477.23Z" style="fill:#56cee2"/><path d="M521.14,538a.85.85,0,0,1-.85-.86V515.65H505.21a.85.85,0,0,1-.84-.86V474.11a.85.85,0,1,1,1.69,0v39.81h15.08a.86.86,0,0,1,.84.87v22.37A.85.85,0,0,1,521.14,538Z" style="fill:#56cee2"/><ellipse cx="805.22" cy="221.55" rx="29.26" ry="29.55" style="fill:#253494"/><path d="M776,221.56c0,16.31,13,29.53,29,29.53,0,0-10.83-11.46-10.75-28.52A49.2,49.2,0,0,1,804.93,192a28.69,28.69,0,0,0-20.49,8.66A29.78,29.78,0,0,0,776,221.56Z" style="fill:#56cee2"/><circle cx="657.49" cy="214.44" r="3.12" style="fill:#41b6c4"/><circle cx="701.81" cy="171.26" r="3.12" style="fill:#2c7fb8"/><circle cx="699.54" cy="287.17" r="3.12" style="fill:#2c7fb8"/><circle cx="768.85" cy="313.88" r="3.12" style="fill:#56cee2"/><circle cx="738.17" cy="238.31" r="3.12" style="fill:#56cee2"/><circle cx="602.38" cy="272.97" r="3.12" style="fill:#41b6c4"/><circle cx="539.88" cy="172.97" r="3.12" style="fill:#56cee2"/><path d="M222.77,220.47c1.15-18.81-43.09-26.21-47.11-4-15.52-14.82-67.23,26.78-2.88,31.91,16.09,1.28,54.59,7.4,65.51-4.56C249.53,231.51,237.71,219.9,222.77,220.47Z" style="fill:#f2f2f2;fill-opacity:0.8999999761581421"/><circle cx="212.61" cy="216.72" r="25.28" style="fill:#f8be4b"/><g style="opacity:0.6000000238418579"><path d="M291.64,211.51c1.15-18.92-43.09-26.37-47.11-4-15.52-14.91-67.23,26.94-2.88,32.1,16.09,1.29,54.59,7.46,65.51-4.58C318.4,222.62,306.58,210.94,291.64,211.51Z" style="fill:#f2f2f2"/></g><path d="M676.48,324.91c-.62-1.42.49-3.12-.52-4.29s-12.36-6.06-16.89-6.46c1.45,3.19,6.08,4.56,6.32,8.06.06,1.09-.34,2.16-.37,3.26s.57,2.38,1.63,2.46a19.62,19.62,0,0,1-11.15,3,17.35,17.35,0,0,1,1.3,5.95,20.89,20.89,0,0,1,8-3.93A59.45,59.45,0,0,0,676,333a9.25,9.25,0,0,0,3.7-.77c1.11-.63,1.89-1.84,2.91-2.68s2.69-1.24,3.56-.24C684.93,325.88,680.22,323.34,676.48,324.91Z" style="fill:#fefefe;fill-opacity:0.699999988079071"/><path d="M708.91,234.44c.5-.22,1-.44,1.51-.68a69.67,69.67,0,0,0,10.42,3.49c-1.33-1-2-1.94-2.88-2.67a32.65,32.65,0,0,0-3.3-2.32h0a5.28,5.28,0,0,1,3.26.28c-.52-3.39-2.64-4.65-6-5.14-3.83-.54-8.25.17-11.36,2.5s-6.43,5.67-10.3,5.85c-.39,2-.79,4.82-1.18,6.83,0,0,4.68-3.49,6.28-4.61.69-.47,2.18-.94,2.93-1.35a7.84,7.84,0,0,0,.17,6,24.64,24.64,0,0,0,4.16,5.29c2,2.12,4.8,5,6.81,7.15,1.36-.3.93-7.84,1-9.61C710.36,241.73,710.35,237.83,708.91,234.44Z" style="fill:#fefefe;fill-opacity:0.699999988079071"/><path d="M194.14,283.52c-10.72-.82-14,11.05-13.6,17.57,2.87-1.6,7.83-2,12-1.31C192.49,298.62,192.49,288.44,194.14,283.52Z" style="fill:#fefefe;fill-opacity:0.699999988079071"/><path d="M199.82,306.66c0-4.19-5-5.34-6.62-5.87-2.48-.83-9.1-.83-13.22,1.68-4.14.83-7.47-2.51-10.75-2.51-2.88,2.81,0,13.39,1.65,15.08,1.65-1.67,6.76-7.21,9.1-5.87.83,5.87.83,24.32,14.89,21.8,0-6.71-4.7-17.6-1.65-22.63C194.23,306.64,198.17,306.66,199.82,306.66Z" style="fill:#fefefe;fill-opacity:0.699999988079071"/><path d="M262.89,348.63c1.66-.8,5.82,0,8.32,0,3.32-1.61,12.47-5.62,20.79-4.82,1.78.17,3.32,1.61,5,4.82-1.66,0-3.18-.35-4.16,0-1.67.62-4.92,3.56-6.64,4-2.81.76-10.43-1.28-13.29-.81-2,.34-4.15,3.22-5.82,3.22v-4C265.39,350.24,264.55,350.24,262.89,348.63Z" style="fill:#fefefe;fill-opacity:0.699999988079071"/><path d="M363.28,222.68c4.07,5,.82,15.84.82,15.84s5.69-.83,7.31,4.17c-2.43,0-3.25,0-4.87.84-2.08,2.12-5.72,5.26-8.14,5.83s-7.34-1.13-9.76-.83c-2,.24-4.88,5-7.34,4.17,0-2.5,1.63-5,2.44-6.67,1.52-1.13,5.84-.49,7.35-1.67C353.53,238.52,357.59,226,363.28,222.68Z" style="fill:#fefefe;fill-opacity:0.699999988079071"/><path d="M351.43,226.66c1.75,0,4,3.93,4.07,5.65-1.62,2.43-4.07,6.46-4.07,9.69-2.44-.81-3.58-7-3.26-9.69C348.33,231,349.82,226.66,351.43,226.66Z" style="fill:#fefefe;fill-opacity:0.699999988079071"/><rect x="323.12" y="261.32" width="374.43" height="256.25" rx="3.41" ry="3.41" style="fill:#56cee2;fill-opacity:0.699999988079071"/><path d="M448.12,456.2H572a20.45,20.45,0,0,1,20.45,20.46h0A20.44,20.44,0,0,1,572,497.11H448.12a20.45,20.45,0,0,1-20.46-20.45h0A20.46,20.46,0,0,1,448.12,456.2Z"/><path d="M448.12,456.2H572a20.45,20.45,0,0,1,20.45,20.46h0A20.44,20.44,0,0,1,572,497.11H448.12a20.45,20.45,0,0,1-20.46-20.45h0A20.46,20.46,0,0,1,448.12,456.2Z" style="fill:#ce4db4"/><g style="isolation:isolate"><text transform="translate(449.12 480.92)" style="isolation:isolate;font-size:11.363568305969238px;fill:#f0f3f5;font-family:Montserrat-Medium, Montserrat">S<tspan x="7.14" y="0" style="letter-spacing:-0.07098480013327106em">T</tspan><tspan x="13.01" y="0" style="letter-spacing:0.00008593801468919015em">ART </tspan><tspan x="39.18" y="0" style="letter-spacing:-0.004984404851973028em">S</tspan><tspan x="46.26" y="0" style="letter-spacing:-0.05096124271068976em">A</tspan><tspan x="54.17" y="0">VING BIRDS</tspan></text></g><g style="isolation:isolate"><text transform="translate(363.46 317.57)" style="isolation:isolate;font-size:36.36341857910156px;fill:#fefefe;font-family:Montserrat-Medium, Montserrat">#<tspan x="26.47" y="0" style="letter-spacing:-0.07100628463694336em">A</tspan><tspan x="51.05" y="0">TLS</tspan><tspan x="114.94" y="0" style="letter-spacing:-0.013991783016583772em">a</tspan><tspan x="135.89" y="0" style="letter-spacing:-0.018986930120392948em">v</tspan><tspan x="154.72" y="0">esBirds</tspan></text></g><g style="isolation:isolate"><text transform="translate(363.46 357.34)" style="isolation:isolate;font-size:13.636281967163086px;fill:#fefefe;font-family:AvenirNext-Medium, Avenir Next;letter-spacing:0.0409637870018473em">Up to a billion bi<tspan x="113.53" y="0" style="letter-spacing:0.022988418929358365em">r</tspan><tspan x="118.78" y="0" style="letter-spacing:0.0410354020140883em">ds perish </tspan><tspan x="184.85" y="0" style="letter-spacing:0.03501974098584498em">e</tspan><tspan x="193.14" y="0">ach y</tspan><tspan x="228.31" y="0" style="letter-spacing:0.03501974098584498em">e</tspan><tspan x="236.6" y="0" style="letter-spacing:0.0410354020140883em">ar f</tspan><tspan x="258.8" y="0" style="letter-spacing:0.023060033941599355em">r</tspan><tspan x="264.05" y="0">om </tspan></text><text transform="translate(363.46 375.52)" style="isolation:isolate;font-size:13.636281967163086px;fill:#fefefe;font-family:AvenirNext-Medium, Avenir Next;letter-spacing:0.0409637870018473em">colliding with buildings in the United </text><text transform="translate(363.46 393.71)" style="isolation:isolate;font-size:13.636281967163086px;fill:#fefefe;font-family:AvenirNext-Medium, Avenir Next;letter-spacing:0.03501974098584498em">S<tspan x="8.24" y="0" style="letter-spacing:0.0409637870018473em">t</tspan><tspan x="13.28" y="0" style="letter-spacing:0.031009300300349443em">a</tspan><tspan x="21.09" y="0" style="letter-spacing:0.0410354020140883em">tes</tspan><tspan x="41.13" y="0" style="letter-spacing:0.011100326897353727em">.</tspan><tspan x="44.82" y="0" style="letter-spacing:0.0409637870018473em"> </tspan><tspan x="48.79" y="0" style="letter-spacing:0.022988418929358365em">F</tspan><tspan x="56.85" y="0" style="letter-spacing:0.0410354020140883em">ind out how you can help by </tspan></text><text transform="translate(363.46 411.89)" style="isolation:isolate;font-size:13.636281967163086px;fill:#fefefe;font-family:AvenirNext-Medium, Avenir Next;letter-spacing:0.022988418929358365em">r<tspan x="5.25" y="0" style="letter-spacing:0.0410354020140883em">epo</tspan><tspan x="31.7" y="0" style="letter-spacing:0.029004079957601674em">r</tspan><tspan x="37.04" y="0" style="letter-spacing:0.0409637870018473em">ting collision victims or becoming a </tspan></text><text transform="translate(363.46 430.07)" style="isolation:isolate;font-size:13.636281967163086px;fill:#fefefe;font-family:AvenirNext-Medium, Avenir Next;letter-spacing:0.0409637870018473em">volunteer monito<tspan x="116.7" y="0" style="letter-spacing:-0.007018271199617196em">r</tspan><tspan x="121.54" y="0" style="letter-spacing:0.011028711885112735em">.</tspan></text></g><rect x="100.96" y="121.55" width="818.18" height="77.84" style="fill:none"/><path d="M157.37,155.35h-3.18l-.76,2.38H152.1l3-9.29h1.32l3,9.29h-1.34Zm-.42-1.29-1.17-3.65-1.17,3.65Zm4.54-4.27h-2.43v-1.35h6.19v1.35H162.8v7.94h-1.31Zm4.89-1.35h1.32v8h3.71v1.3h-5Zm10.43,6.91h-3.18l-.76,2.38h-1.33l3-9.29h1.32l3,9.29h-1.34Zm-.41-1.29-1.17-3.65-1.17,3.65Zm3.53-5.62h1.35l3.94,6.54v-6.54h1.33v9.29h-1.11l-4.19-6.93v6.93h-1.32Zm10.17,1.35h-2.42v-1.35h6.18v1.35h-2.44v7.94H190.1Zm8.62,5.56h-3.18l-.76,2.38h-1.33l3-9.29h1.32l3,9.29h-1.34Zm-.41-1.29-1.17-3.65L196,154.06Zm10.62,1.29h-3.17l-.77,2.38h-1.33l3-9.29H208l3,9.29h-1.35Zm-.41-1.29-1.17-3.65-1.17,3.65Zm6.75,3.85a3.18,3.18,0,0,1-2.63-1.09,4.79,4.79,0,0,1-.88-3v-5.33h1.32v4.95a4.84,4.84,0,0,0,.46,2.33,2.19,2.19,0,0,0,3.45,0,4.84,4.84,0,0,0,.46-2.33v-4.95h1.32v5.33a4.73,4.73,0,0,1-.88,3A3.16,3.16,0,0,1,215.27,157.91Zm5.3-9.47h3.14a4.17,4.17,0,0,1,2.18.56,3.79,3.79,0,0,1,1.49,1.6,6.07,6.07,0,0,1,0,5,3.81,3.81,0,0,1-1.49,1.61,4.26,4.26,0,0,1-2.18.56h-3.14Zm3.14,8a2.44,2.44,0,0,0,2-.9,4.58,4.58,0,0,0,0-4.9,2.46,2.46,0,0,0-2-.89h-1.82v6.69Zm9,1.48a3.15,3.15,0,0,1-2.62-1.09,4.74,4.74,0,0,1-.89-3v-5.33h1.32v4.95a4.84,4.84,0,0,0,.46,2.33,2.2,2.2,0,0,0,3.46,0,5,5,0,0,0,.46-2.33v-4.95h1.31v5.33a4.73,4.73,0,0,1-.88,3A3.16,3.16,0,0,1,232.73,157.91Zm9.73-5.25a2.16,2.16,0,0,1,1.21.85,2.68,2.68,0,0,1,.42,1.56,2.6,2.6,0,0,1-.73,2,2.72,2.72,0,0,1-2,.71H238v-9.29h2.89a2.6,2.6,0,0,1,1.81.57,2.18,2.18,0,0,1,.62,1.68,2.7,2.7,0,0,1-.23,1.18A1.77,1.77,0,0,1,242.46,152.66Zm-3.11-.45h1.39a1.48,1.48,0,0,0,1-.28,1.6,1.6,0,0,0,0-1.92,1.43,1.43,0,0,0-1-.29h-1.39Zm1.86,4.22a1.54,1.54,0,0,0,1.09-.36,1.39,1.39,0,0,0,.39-1.09,1.3,1.3,0,0,0-1.48-1.47h-1.86v2.92Zm7.86,1.48a3.91,3.91,0,0,1-2.15-.6,4,4,0,0,1-1.48-1.69,6.24,6.24,0,0,1,0-5.08,4.08,4.08,0,0,1,1.48-1.69,4.15,4.15,0,0,1,4.3,0,4.08,4.08,0,0,1,1.48,1.69,6.24,6.24,0,0,1,0,5.08,4,4,0,0,1-1.48,1.69A3.93,3.93,0,0,1,249.07,157.91Zm0-1.41a2.55,2.55,0,0,0,1.52-.44,2.74,2.74,0,0,0,.93-1.22,5,5,0,0,0,0-3.52,2.79,2.79,0,0,0-.93-1.22,2.85,2.85,0,0,0-3,0,2.81,2.81,0,0,0-.94,1.22,5,5,0,0,0,0,3.52,2.75,2.75,0,0,0,.94,1.22A2.53,2.53,0,0,0,249.07,156.5Zm5.58-8.06H256L260,155v-6.54h1.32v9.29h-1.11L256,150.8v6.93h-1.32Zm13.67,9.47a6.4,6.4,0,0,1-1.53-.19,5.2,5.2,0,0,1-1.25-.45l.17-1.52a9,9,0,0,0,1.39.58,4.93,4.93,0,0,0,1.45.23,1.93,1.93,0,0,0,1.18-.31,1,1,0,0,0,.43-.93,1.23,1.23,0,0,0-.23-.76,1.76,1.76,0,0,0-.64-.51,11.48,11.48,0,0,0-1.24-.5,8.4,8.4,0,0,1-1.32-.59,2.47,2.47,0,0,1-.84-.83,2.64,2.64,0,0,1,.47-3.17,3.26,3.26,0,0,1,2.25-.71,5.8,5.8,0,0,1,1.44.18,6.18,6.18,0,0,1,1.24.45l-.14,1.5a7,7,0,0,0-1.34-.6,4.54,4.54,0,0,0-1.27-.19,2.05,2.05,0,0,0-1.16.29,1,1,0,0,0-.43.88,1.08,1.08,0,0,0,.21.68,1.65,1.65,0,0,0,.57.46,10.23,10.23,0,0,0,1.06.43,5.41,5.41,0,0,1,2.13,1.14,2.37,2.37,0,0,1,.69,1.8,2.52,2.52,0,0,1-.78,1.9A3.58,3.58,0,0,1,268.32,157.91Zm8.28,0a3.91,3.91,0,0,1-2.15-.6,4,4,0,0,1-1.48-1.69,6.24,6.24,0,0,1,0-5.08,4.08,4.08,0,0,1,1.48-1.69,4.15,4.15,0,0,1,4.3,0,4.08,4.08,0,0,1,1.48,1.69,6.24,6.24,0,0,1,0,5.08,4,4,0,0,1-1.48,1.69A3.93,3.93,0,0,1,276.6,157.91Zm0-1.41a2.55,2.55,0,0,0,1.52-.44,2.74,2.74,0,0,0,.93-1.22,5,5,0,0,0,0-3.52,2.79,2.79,0,0,0-.93-1.22,2.85,2.85,0,0,0-3,0,2.81,2.81,0,0,0-.94,1.22,5,5,0,0,0,0,3.52,2.75,2.75,0,0,0,.94,1.22A2.53,2.53,0,0,0,276.6,156.5Zm9.38,1.41a4.21,4.21,0,0,1-2.23-.6,4.06,4.06,0,0,1-1.53-1.69,5.66,5.66,0,0,1-.55-2.54,5.43,5.43,0,0,1,.57-2.54,4.14,4.14,0,0,1,1.54-1.69,4.25,4.25,0,0,1,2.25-.6,4.75,4.75,0,0,1,1.2.15,4.25,4.25,0,0,1,1,.4l-.13,1.35a4.82,4.82,0,0,0-2.11-.54,2.67,2.67,0,0,0-1.57.45,2.79,2.79,0,0,0-1,1.23,4.95,4.95,0,0,0,0,3.58,2.8,2.8,0,0,0,1,1.24,2.62,2.62,0,0,0,1.56.45,4.3,4.3,0,0,0,1.1-.14,5.46,5.46,0,0,0,1-.41l.13,1.37A5.14,5.14,0,0,1,286,157.91Zm3.61-9.47h1.32v9.29h-1.32Zm3.22,0h5.26v1.35h-3.94v2.4h3.1v1.36h-3.1v2.82h4.05v1.36h-5.37Zm8.42,1.35H298.8v-1.35H305v1.35h-2.44v7.94h-1.32Zm11.09-1.35-3,5.37v3.92H308v-3.92l-3-5.37h1.47l2.17,4,2.16-4Z" style="fill:#f0f3f5"/><polygon points="139.85 146.79 139.51 150.8 134.02 157.64 131.1 157.64 129.99 161.33 129.99 166.43 126.04 165.02 130.59 154.71 118.57 146.13 127.58 147.65 123.21 139.73 135.13 147.87 138.65 142.88 140.28 142.88 144.14 145.05 139.85 146.79" style="fill:none;stroke:#fff;stroke-width:2px"/><path d="M771.47,169.84c10.29,0,15.92-8.74,15.92-16.32,0-.25,0-.5,0-.75a11.45,11.45,0,0,0,2.79-3,10.91,10.91,0,0,1-3.21.91,5.73,5.73,0,0,0,2.46-3.18,10.92,10.92,0,0,1-3.56,1.39,5.49,5.49,0,0,0-7.91-.24,5.83,5.83,0,0,0-1.62,5.48,15.73,15.73,0,0,1-11.53-6,5.83,5.83,0,0,0,1.73,7.66,5.42,5.42,0,0,1-2.54-.71v.07a5.7,5.7,0,0,0,4.49,5.62,5.42,5.42,0,0,1-2.53.1,5.64,5.64,0,0,0,5.23,4,11.06,11.06,0,0,1-8.28,2.38,15.66,15.66,0,0,0,8.58,2.57" style="fill:#fff"/><path d="M101.26,62.81a8.24,8.24,0,0,1,8-8.45H913.1a8.24,8.24,0,0,1,8,8.45V88.17H101.26Z" style="fill:#bdbdbd"/><g style="mask:url(#e)"><path d="M921.11,88.17V89h.8v-.85Zm-819.85,0h-.8V89h.8Zm8-33H913.1V53.51H109.27Zm811,7.61V88.17h1.6V62.81Zm.8,24.52H101.26V89H921.11Zm-819,.84V62.81h-1.6V88.17Zm811-33a7.42,7.42,0,0,1,7.21,7.61h1.6a9.07,9.07,0,0,0-8.81-9.3ZM109.27,53.51a9.07,9.07,0,0,0-8.81,9.3h1.6a7.42,7.42,0,0,1,7.21-7.61Z" style="fill:#bdbdbd"/></g><path d="M101.26,88.17V122H921.11V88.17Z" style="fill:#f2f2f2"/><path d="M187.73,95.78a1.65,1.65,0,0,0-1.6,1.69v16.06a1.65,1.65,0,0,0,1.6,1.7H861.06a1.65,1.65,0,0,0,1.6-1.7V97.47a1.64,1.64,0,0,0-1.6-1.69Z" style="fill:#fff"/><path d="M178,65.7a4,4,0,0,1,3.8-2.89H288.13a4,4,0,0,1,3.79,2.89L299,88.17H170.92Z" style="fill:#f2f2f2"/><path d="M279.8,80.57a5.08,5.08,0,1,0-4.8-5.08A5,5,0,0,0,279.8,80.57Z" style="fill:#e0e0e0"/><path d="M117.28,76.34a5.08,5.08,0,1,0-4.81-5.07A4.94,4.94,0,0,0,117.28,76.34Z" style="fill:#e96e4c"/><path d="M134.05,76.34a5.08,5.08,0,1,0-4.8-5.07A4.95,4.95,0,0,0,134.05,76.34Z" style="fill:#e6a935"/><path d="M150.83,76.34A5.08,5.08,0,1,0,146,71.27,4.94,4.94,0,0,0,150.83,76.34Z" style="fill:#85c33d"/><g style="opacity:0.540000021457672"><path d="M123.68,104.24h-9.77l4.49-4.74-1.12-1.18-6.41,6.76,6.41,6.76,1.12-1.18-4.49-4.73h9.77Z" style="fill:#333"/></g><g style="opacity:0.540000021457672"><path d="M143.7,98.32l-1.12,1.18,4.48,4.74h-9.77v1.69h9.77l-4.48,4.73,1.12,1.18,6.4-6.76Z" style="fill:#bdbdbd"/></g><g style="opacity:0.540000021457672"><path d="M169.32,98.32a6.77,6.77,0,0,0,0,13.52,7,7,0,0,0,6.4-5.07h-1.6a5.55,5.55,0,0,1-4.8,3.38,5.08,5.08,0,0,1,0-10.14,3.67,3.67,0,0,1,3.2,1.69l-2.4,2.54h5.6V98.32l-1.6,1.69A9.68,9.68,0,0,0,169.32,98.32Z" style="fill:#333"/></g></svg>