<svg id="Layer_1" data-name="Layer 1" xmlns="http://www.w3.org/2000/svg" viewBox="0 0 500 500"><defs><style>.cls-1{fill:#ede5d1;}.cls-2{fill:#f7c841;}.cls-3{fill:#fbb03b;}.cls-4{fill:#f7931e;}.cls-5{fill:#f15a24;}.cls-6{fill:#1a1a1a;}</style></defs><rect class="cls-1" width="500" height="500"/><path class="cls-2" d="M453.19,364.23c-8.34-8.62-50-17-58-23-4-3-21.08-26.94-24.19-30.91-6.34-8.13-39.25-10.09-36.81-32.09,1-9,22-38,28-51,7.33-15.88,20-48,33-62-23-3-44,4-65.45,27.81-3.33,3.7-23.92,22.27-27.43,25.45-8.41,7.65-39.63,18.36-46.51,21.84-14.22,7.19-17.61,6.61-23.57,5.95,10-11.39,13.72-28.29,13-35.05-1.39-12.57-38-47-47.08-58.81-7.23-9.39-11.92-44.19-10.2-55.33.61-4,1.17-13.83-2.72-14.86s-12,7-12.74,11.39L162.19,219.23l35.6,22.09,51.07,75.75c6.34,1.68,23.32,17.33,38.62,29.8-9.46,2.39-43.15,14-57.37,8l-18.92,20.34a.66.66,0,0,1,0,.14l-48,2.86c-1.53,7.76,9.36,34.9,17.26,34.42,6.74-.42,11.91-4,12.64-5.44,1.72-3.39,1.75-6.11,2-9.9,5.64,4.46,10.1,17.91,16.07,21.92,2.12,1.42,7.95-5.77,13.74-14.83a39.26,39.26,0,0,0,12.89,7c21.37,5.86,48.37-7.14,62.86-12.64,14.87-5.64,35.51-30.5,47.52-37.58a19.94,19.94,0,0,0-1.81-1.12C383,360.22,436.9,364.23,453.19,364.23Z"/><path class="cls-3" d="M454.26,363.17c-5.34-5.18-13.73-7.53-20.57-9.87-9.67-3.29-19.56-5.95-29.17-9.42-2.94-1.06-6.25-2.09-8.72-4.09s-4.58-5.13-6.6-7.69c-5.54-7-10.67-14.38-16.1-21.49-8.87-11.6-29-9.15-36-23.29-4.23-8.52,1.41-16.95,5.62-24.21,5.55-9.58,11.72-18.79,17.2-28.41,12.7-22.28,18.74-49,36.31-68.41a1.53,1.53,0,0,0-1.07-2.56c-19.09-2.33-36.92,2.86-52.09,14.67-6.59,5.13-12,11.37-18,17.1C319.65,200.75,314,205.84,308.4,211c-4,3.62-7.76,7.4-12.44,10.11-7.14,4.14-14.88,7.27-22.5,10.38-6,2.44-12.13,4.61-18,7.38-6.55,3.09-13,6.62-20.34,6.23a58.16,58.16,0,0,0,10.77-24.34c.9-4.57,1.45-9.21-.39-13.6-2.28-5.46-6.18-10.28-9.85-14.86-9.87-12.31-21.12-23.41-31.64-35.15-4.33-4.84-7.27-9.3-9.21-15.59a136.73,136.73,0,0,1-4.89-24.8,90.68,90.68,0,0,1-.45-20.23c.46-4.13,1.71-14.11-3.9-15.7-5.29-1.49-11.77,6-13.72,10.07a13.55,13.55,0,0,0-1.13,5.29l-.08,1c-4.68,14.82-9.91,56.41-10.52,61.25a440.63,440.63,0,0,1-10.33,57.2c-4.62,18.68-28.62,45.68-34.32,66.59-5.39,19.71-2.3,59.09,12,74.46,15.08,16.23,43.56,30.63,65.71,30.63,4.95,0,10.87-3.16,16.7-7.85a38.94,38.94,0,0,0,34.49,34.7c14.36,1.5,28.86-3.1,42.12-8.15,11-4.17,20.93-8.17,30.11-15.66,10.89-8.9,20.29-20.46,32.35-27.82a1.53,1.53,0,0,0,.68-.9h.84c18.38.22,36.75,1.12,55.1,2.05,15.84.8,31.74,2.08,47.61,2.12A1.52,1.52,0,0,0,454.26,363.17ZM377.8,321.74c.88,1.32,1.75,2.61,2.63,3.78,2.87,3.84,5.81,8.61,9.25,12.55-37.89-5.78-73.85-19.09-110.2-30.9,32.32,5.43,64.74,10.3,97.2,14.83A1.6,1.6,0,0,0,377.8,321.74Zm-8.67-11.12a42.77,42.77,0,0,1,6.78,8.26c-39.46-5.51-78.84-11.54-118.07-18.47q-4.71-1.4-9.44-2.71a29.78,29.78,0,0,0-1.81-4.22c40.33,8.43,82.7,3.9,122.14,17.06A1.49,1.49,0,0,0,369.13,310.62Zm-95.94-58.39c30.39-2.2,73.5-13.9,85.8-22-3.8,7.25-8.3,14.15-12.65,21.1a610.59,610.59,0,0,0-94.91,19.74C255,262,261.16,253.1,273.19,252.23Zm-23,22.38a607.78,607.78,0,0,1,94.16-20c-.21.35-.43.7-.64,1.06-2.1,3.45-4.73,7.27-6.91,11.26a1.46,1.46,0,0,0-.4.07,232.85,232.85,0,0,1-86.62,8.84C249.88,275.45,250,275,250.16,274.61Zm-1.27,4.18a235.48,235.48,0,0,0,86.1-8.25,26.48,26.48,0,0,0-2.34,8.23,20.52,20.52,0,0,0,.09,4.73q-42.56.92-85.12.06C248,282.09,248.41,280.48,248.89,278.79Zm-2.06,7.75q43.29.88,86.6-.05c3,9,13.12,13.38,22.53,17.32-35.75-8.51-73.36-5.7-109.35-13.38a1.46,1.46,0,0,0-1.51.55.21.21,0,0,0,0-.06C245.69,290.27,246.24,288.69,246.83,286.54Zm-11.64,58.69c5.6-11.57,12-18.89,13.79-26.54,5.12,1.72,9.81,6.28,13.88,9.58,6.71,5.44,13.23,11.11,19.88,16.63l1.42,1.17c-6.94,1.73-13.76,4.14-20.7,5.76-9.79,2.29-22,5.32-31.9,2C233.36,350.59,234.12,347.45,235.19,345.23Zm6.24-139.64c-7.67.84-15.43,1.54-23.05,2.9a122.13,122.13,0,0,0,17.11-11.88A71.89,71.89,0,0,1,241.43,205.59Zm-54.16-86.12a34.77,34.77,0,0,0-11.76,9.28,113,113,0,0,1,11.08-16c.09,1.29.2,2.59.35,3.91ZM173.34,101c.19-2.33.06-5,.59-7.22.7-3,3.36-5.72,5.66-7.61s5-3.92,6.63-.44a7.44,7.44,0,0,1,.56,2A66.82,66.82,0,0,0,173.26,102C173.29,101.66,173.32,101.33,173.34,101Zm-.61,7.48a62.8,62.8,0,0,1,14.16-17c0,.81-.09,1.6-.14,2.29-.1,1.59-.19,3.15-.26,4.7a2.1,2.1,0,0,0-.3.15,42.74,42.74,0,0,0-13.55,12.78c0-.57,0-1.14,0-1.7C172.67,109.3,172.7,108.89,172.73,108.48Zm-.08,8.08a1.35,1.35,0,0,0,.66-.6,39.85,39.85,0,0,1,13.05-13.88c-.05,2.11-.05,4.21,0,6.32a119,119,0,0,0-13.77,19.43C172.63,124,172.65,120.16,172.65,116.56Zm-.19,22.07c3.79-6.79,8.33-12.39,15.23-16,.4,2.83.86,5.65,1.41,8.45a104.79,104.79,0,0,0-16.8,15.69C172.36,144.06,172.41,141.35,172.46,138.63Zm-.27,12.86a99.53,99.53,0,0,1,17.6-17.2,95.62,95.62,0,0,0,2.8,10l0,.06-.12.07A74.84,74.84,0,0,0,177,159.26c-1.8,2.19-3.66,4.35-5.22,6.64C171.92,161.45,172.07,156.57,172.19,151.49Zm-1,26.74c.1-1.59.19-3.36.28-5.25,1.54-5.35,6.16-9.93,9.64-14a66.63,66.63,0,0,1,12.64-11.73,44.92,44.92,0,0,0,7.72,11.46c-10.39,7.65-22.94,15.06-30.25,26A54,54,0,0,1,171.19,178.23Zm.59,11.36,0-.05c6.66-12.56,20.56-20.37,31.66-28.61,3.39,3.74,6.84,7.43,10.29,11.13-7.18,6.15-14.5,11.95-23.09,16-5.91,2.81-11.9,5.29-16.89,9.48A52.48,52.48,0,0,1,171.78,189.59Zm7.33,20.23c-1.59-3.11-3-6.14-4.23-9.21,5.77-5.25,13.18-7.71,20-11.26,7.68-4,14.36-9.5,20.89-15.1,2.52,2.71,5,5.43,7.51,8.18a1.75,1.75,0,0,0-.49.31c-6.27,5.77-12.33,11.95-19.63,16.43s-15.22,7.43-23.27,10A1.41,1.41,0,0,0,179.11,209.82Zm8.14,8.58c-1.9-1.42-3.82-2.8-5.79-4.11l-1.13-2.13a1.5,1.5,0,0,0,.39-.08c8.29-2.67,16.54-5.75,24-10.32s13.78-10.95,20.24-16.9a1.58,1.58,0,0,0,.27-.32c2.84,3.16,5.72,6.38,8.43,9.73a125.81,125.81,0,0,1-46,23.91A1.51,1.51,0,0,0,187.25,218.4Zm7.26,5.67q-2.19-1.77-4.41-3.49a138.36,138.36,0,0,0,17.41-6.51,1.59,1.59,0,0,0,.3-.06c11.33-3.36,23.23-4.25,34.92-5.56a19,19,0,0,1,.94,7.31,1.72,1.72,0,0,0-.42.08A151.75,151.75,0,0,1,195,224,1.38,1.38,0,0,0,194.51,224.07Zm13.85,10.53a1.63,1.63,0,0,0-.46.1c-3.36-2.52-6.63-5.15-9.89-7.8A153.39,153.39,0,0,0,243.3,219a57.45,57.45,0,0,1-2.45,8.92c-.5,1.46-1.07,2.91-1.69,4.34a1.25,1.25,0,0,0-.77-.12Q223.44,234.1,208.36,234.6Zm29.42.6a46.85,46.85,0,0,1-6.39,9.61,46,46,0,0,1-6.74-.79c-4.71-1-9-3.78-13-6.57C220.4,237.06,229.1,236.33,237.78,235.2ZM212.73,377c.69-.62,1.39-1.27,2.08-1.93.63,5.6,3.59,11.62,5.59,16.47a117.17,117.17,0,0,0,5,11.32A34.74,34.74,0,0,1,212.73,377Zm19.8,30.56a1.78,1.78,0,0,0-.27-.36c-4.55-4.37-7.09-11.86-9.41-17.54-2.07-5.09-5.42-11.75-5.16-17.4,0,0,0,0,0-.07.49-.51,1-1,1.46-1.56,2.14,9.07,8.29,17.46,13.8,24.66,4.2,5.49,8.91,11.77,14.58,16.19A38.17,38.17,0,0,1,232.53,407.53Zm20.16,4a1.51,1.51,0,0,0-.43-.4c-7-4.21-12.68-12-17.49-18.35-5.47-7.26-11.6-15.74-13.13-24.91v0l.63-.74c7.19,8.12,13.77,17,21.71,24.38a61.7,61.7,0,0,0,31.3,15.41A85.34,85.34,0,0,1,252.69,411.49Zm43.44-12.58c-4.59,1.84-9.53,3.87-14.65,5.77a1.66,1.66,0,0,0-.51-.13,58.52,58.52,0,0,1-36.73-17.06c-7.08-7.24-13.33-15.24-20.07-22.79l.16-.2c23.35,18.29,51.24,29.23,80.92,29.9A65,65,0,0,1,296.13,398.91Zm13.34-7.21a1.44,1.44,0,0,0-.86-.26c-30.23.1-58.83-10.68-82.48-29.31l.09-.13c12.95,7.94,28.73,11.23,43.48,13.83a486.57,486.57,0,0,0,52.23,5.88A124.73,124.73,0,0,1,309.47,391.7ZM325,378.94a1,1,0,0,0-.25,0c-18.15-1.16-36.31-2.8-54.23-6-14.4-2.55-29.84-5.7-42.52-13.39l.5-.74c14.95,5.87,31.4,4.43,47.2,5.23,19.56,1,39,3.65,58.36,6.36C331,373.23,328,376.15,325,378.94Zm11.95-11.14c-18.42-2.58-36.86-5.17-55.42-6.41-15.58-1.05-32.62.77-47.79-3.88,8.32,1.78,17.7-.07,25.73-1.72l.34-.08a1.38,1.38,0,0,0,.41,0,207.39,207.39,0,0,1,36-.13q3,.24,6,.54c7,.72,14.05,1.73,21.06,2.93,4.44.76,8.89,1.61,13.33,2.51q3.16.65,6.34,1.33C340.87,364.44,338.87,366.09,336.92,367.8Zm-1.26-9.47a335.71,335.71,0,0,0-38.42-5.65c-1.8-.15-3.61-.28-5.41-.39-5.68-.34-11.38-.47-17.1-.36,4.1-1.16,8.19-2.34,12.33-3.4l.06,0a34.64,34.64,0,0,1,3.81-.74c9.41-1.31,19.41,1,28.37,3.47A131.31,131.31,0,0,1,340,358.31c1.09.51,2.16,1,3.2,1.59Q339.44,359.09,335.66,358.33Zm21.45.34c-3.45-.07-6.95-.18-10.48-.26-7.28-4.32-16-7-24-9.34-10.66-3.13-23-6.15-34.12-4l-.71.15-2.11-1.75c-7.19-5.95-14.22-12.1-21.49-17.95-4.33-3.5-9.22-8.08-14.66-9.81a45.83,45.83,0,0,0,.62-7.5v-.48c29.22,15.65,58.91,31,90.93,40.12,17.08,4.86,34.62,7.3,52.18,9.71q18.29,2.51,36.63,4.6C405.65,361.2,381.38,359.19,357.11,358.67Zm35.05-4.25c-16.92-2.34-33.79-4.76-50.24-9.44-32.43-9.22-62.43-24.91-92-40.77-.09-.74-.22-1.49-.37-2.25L257,303.3c44.65,13.25,88,31.4,134.35,38a1.55,1.55,0,0,0,1.2-.31,22,22,0,0,0,2.25,1.78c7.74,5.35,18.83,7.25,27.66,10,5.65,1.77,11.31,3.56,16.84,5.68,1.88.72,3.87,1.48,5.82,2.37Q418.61,358,392.16,354.42Z"/><path class="cls-4" d="M220.46,255.08c-11.66-13.13-26.71-17.83-35-33.33s-15.29-26.52-14.29-43.52c1.24-21,2-70,1-85-5,9-11.38,59.74-12.05,65.12-2.39,19.09-2.95,36.88-1.95,58.88.44,9.55,6,29.14-9,40-21.45,15.53-26.53,53.53-15,68,4.42,5.57,14.54,17.51,21.06,16.78,11.44-1.28,23.39-27.5,39.94-26.78,19.8.86,27.5,22.5,43,24,12-15,11-21.38,11-31,0-7.44-2-19-11.77-24.38C228.7,279,227.11,262.58,220.46,255.08Z"/><path class="cls-1" d="M127.48,356.6c15.08,16.23,44.56,22.63,66.71,22.63,15,0,36-16,39-29-9.5-1.5-19.4-42.5-39.5-42.5-15.92,0-20,19-21,26s-1,25-10,20C142.72,342.64,128.54,347.06,127.48,356.6Z"/><path class="cls-2" d="M140.54,352.67c-5.35-3.44-11,7.68-20.07,8.54s-27.21-.77-36.28,0c-16.47,1.41-29,3-36.69,14.52-5,7.49,13.11,15.67,35.14,18.61,21.55,2.88,50.55-13.12,56.11-20.83,2.1-2.92,13.94,4.87,16.44-1.29-3.7-3.7-8.9-6.4-10.66-9.67C142.48,358.78,143.18,354.38,140.54,352.67Z"/><path class="cls-3" d="M156.26,371.17a55.26,55.26,0,0,0-4.77-3.74,1.86,1.86,0,0,0-.23-.26,18,18,0,0,0-2.47-1.9,14.26,14.26,0,0,1-3-3.46c-1.87-3.25-1.24-7.25-4-10a1.45,1.45,0,0,0-.54-.46c-5.79-3-10.82,3.78-15.38,6.35-7.55,4.25-18.87,2.14-27.21,1.91-15.33-.42-36.11-1-48.16,10.2-3.67,3.41-7.29,7.87-3.82,12.62,4.3,5.87,13.43,8.42,20,10.24,9.26,2.56,18.88,4.25,28.47,3a86.7,86.7,0,0,0,26-8.19,80.82,80.82,0,0,0,12.42-7.27c2-1.44,4-4.41,6.07-5.47,2.61-1.36,7.19,1.15,10,1.35s5.39-.4,6.81-3.11A1.56,1.56,0,0,0,156.26,371.17Zm-40.18,15.49s0,0,0,.06a75.33,75.33,0,0,1-20.38,6c6.44-8.25,15.51-11.51,24.83-15.69,8.42-3.78,15.31-10.35,21.8-16.79a13.48,13.48,0,0,0,1.53,4,8.23,8.23,0,0,0-3,1.37c-2.57,1.79-5.16,3.62-7.67,5.52-3.7,2.81-7.36,5.71-10.87,8.77C120.19,381.71,117.1,383.9,116.08,386.66ZM52.66,372c10.9-10.07,30-9.72,43.89-9.39,8,.19,16.38,1.18,24.31.07.28,0,.56-.09.83-.14-1.13.7-2.27,1.39-3.43,2-.54.14-1.08.26-1.63.35-5,.85-10.53.41-15.65.6s-10.08.42-15.11.81a130,130,0,0,0-28.29,4.94c-3.13,1-6.25,2.31-8.37,4.52A19.42,19.42,0,0,1,52.66,372Zm-3,9.33c.94-8.12,17.44-9.48,23.5-10.49A216.41,216.41,0,0,1,101,368.5c2.57-.09,5.23,0,7.91,0a98.32,98.32,0,0,1-14.33,2.6,178,178,0,0,0-24.51,5c-6.12,1.7-12.28,3.49-16.89,8.05A14.12,14.12,0,0,1,49.63,381.3ZM56,385.59c5.47-4.87,13.52-6.41,20.43-8.1,8.59-2.09,17.2-3.09,25.93-4.33A49.62,49.62,0,0,0,119,367.41l1-.29a57.7,57.7,0,0,1-15.56,7,191.63,191.63,0,0,0-37.07,15.46,1.46,1.46,0,0,0-.34.26,67.67,67.67,0,0,1-10.74-4.08Zm28,7.41a95.36,95.36,0,0,1-12.8-2.11c12.55-6.71,25.78-11.1,39.3-15.5,10.19-3.31,17.74-10.87,25.4-18,1.36-1,2.72-2,4.11-2.84l.15-.12a8.06,8.06,0,0,1,1.31,2.54,1.79,1.79,0,0,0-.28.22A123.76,123.76,0,0,1,128,369c-4.52,3.37-9.3,5.44-14.48,7.58-8.38,3.45-15.94,8.23-21.27,15.69a1.37,1.37,0,0,0-.27.79A49.14,49.14,0,0,1,83.94,393Zm55.21-21.47c-1.44.52-2.18,1.88-3.23,2.93a42.63,42.63,0,0,1-6.95,5.29c-2,1.29-4.14,2.53-6.33,3.72.52-.42,1-.8,1.41-1.15,2.87-2.52,5.85-4.91,8.86-7.25,2.06-1.6,4.14-3.2,6.31-4.65,3.17-2.13,5.14-4.36,8.48-2.24,1.8,1.46,3.74,2.8,5.47,4.26C150.05,375.32,142.87,370.16,139.15,371.53Z"/><path class="cls-3" d="M161.51,300.44c-1.51-3.3-3.72-6.1-5.51-9.22-1.15-2-1.25-4.64-2.66-6.45-2.55-3.29-7.84-2.13-10.93-.39-8,4.52-14.07,16.29-10.66,25.25.68,1.79,3.58,1,2.89-.8-2.83-7.44,1.9-16.72,8.12-21.09,2.25-1.58,4.81-2.69,7.21-1,1.7,1.18,1.64,2.43,2.47,4.2,1.82,3.86,4.7,7.12,6.48,11C159.73,303.7,162.31,302.18,161.51,300.44Z"/><path class="cls-1" d="M155.41,314.87c.19-6.64-7.17-19.69-13.74-18.8-2.68.36-9.19,4.18-9.94,15.2-.54,8,9,18.46,16.76,17.35C151.2,328.24,155.19,322.23,155.41,314.87Z"/><path class="cls-3" d="M184.36,354.39c8.54-.92,17.51,1.42,25.54-2.55,1.73-.85.21-3.44-1.52-2.59-7.39,3.66-16.14,1.29-24,2.14-1.9.21-1.92,3.21,0,3Z"/><path class="cls-4" d="M210,323.75c-1.55-1.85-8.39-5.7-16.47-9.32-6.95,4-13.65,8.63-15,10.62-1.44,2.18,9.18,9.33,16.35,8.67C200.9,333.17,211.21,325.19,210,323.75Z"/><path class="cls-5" d="M210,323.75c-1.55-1.85-8.31,0-16-3.34-7.3,4.32-14.11,2.65-15.42,4.64-1.44,2.18,1.15,18.1,7.92,20.57,5.19,1.89,13.32,2.29,17.63-1.17C210.5,339.32,211.21,325.19,210,323.75Z"/><path class="cls-3" d="M226.92,278.7c-4.77-1-5.89,1.39-5.46,6,.41,4.28,1.31,7.15-.69,11.37-1.67,3.54-3.52,6.57-3.62,10.59-.05,1.93,2.95,1.93,3,0,.15-6.13,5.9-10.75,5.26-17-.19-1.84-.85-3.6-1-5.47-.23-2.74-.26-3,2.4-2.4,10.17,2.45,19.55,11.8,19.88,22.48.06,1.93,3.06,1.94,3,0C249.32,292.05,238.71,281.15,226.92,278.7Z"/><path class="cls-6" d="M149,323c2.24-2.69,2.57-11.15.05-15.32-2.36-3.91-5.79-8.19-10.52-6.93-3.84,1-8,7.61-5.84,13C136.69,323.73,146.69,325.73,149,323Z"/><path class="cls-1" d="M237.93,294.2c-10.61,1.95-11.74,18-9.12,25,1.5,4,4.41,8.61,7.24,9.61,6.75,2.39,13.07-8.41,14.18-18.13C251.19,302.23,243.19,293.23,237.93,294.2Z"/><path class="cls-6" d="M247.17,319c-2,2.27-4.81,4.55-7.81,4.25-4.67-.48-6.51-8.26-6.79-12a15.92,15.92,0,0,1,3.27-10.48c3.35-4.52,11.35-1.52,13.35,5.48C250.07,309.3,249.28,316.53,247.17,319Z"/><circle class="cls-1" cx="138.02" cy="308.98" r="2.75"/><circle class="cls-1" cx="239.02" cy="306.98" r="2.75"/></svg>