<svg id="Layer_1" data-name="Layer 1" xmlns="http://www.w3.org/2000/svg" viewBox="0 0 565 382"><defs><style>.cls-1{fill:#b3b3c6;}.cls-2{fill:#bab8ff;}.cls-3{fill:#655cbc;}.cls-4{fill:#f2f2f2;}.cls-5{fill:#303077;}.cls-6{fill:#a5a5db;}.cls-7{fill:#2f245b;}.cls-8{fill:#bdbdbd;}.cls-11,.cls-9{fill:#d9d9ff;}.cls-10,.cls-9{stroke:#f2f2f2;stroke-width:2px;}.cls-10{fill:none;}</style></defs><rect class="cls-1" width="565" height="382"/><path class="cls-2" d="M66,98l120.61-6L219,113,88,117Z"/><path class="cls-3" d="M495.89,236.55l-1.78.9c.12.25,6.85,13.79,12.34,28.91a8.34,8.34,0,0,0-1.45-1.89c-3.75-3.59-9.92-2.5-10.18-2.45l.36,2c.06,0,5.42-1,8.43,1.94,1.81,1.74,2.45,4.58,1.9,8.44a10.61,10.61,0,0,1-.53,2.12c-.14-.22-.27-.45-.43-.67C501.72,272,496.23,272,496,272v2s4.74.05,6.95,3a5.5,5.5,0,0,1,.86,1.73c-5.56,8.07-22,6.77-22.22,6.75l-.12,1.33-.55-.24-.84,1.82c.41.19,8,3.66,14.87,3.66a13.79,13.79,0,0,0,5.68-1.07,8.65,8.65,0,0,0,4.83-5.72,13.25,13.25,0,0,0,.5-6.17,12.29,12.29,0,0,0,1.53-4.47,16.16,16.16,0,0,0-.06-5.54c4.13,11.89,7.24,24.29,5.59,31.68-.56,2.55-1.72,4.06-3.53,4.6-7.58,2.27-24.8-12.29-30.79-18.1l-1.4,1.44a138.91,138.91,0,0,0,12.32,10.36c7.7,5.67,13.78,8.54,18.13,8.54a8.06,8.06,0,0,0,2.31-.32c2.53-.76,4.19-2.81,4.92-6.08C519,283.08,496.84,238.44,495.89,236.55Zm7.65,48.17a6.62,6.62,0,0,1-3.74,4.46c-4.81,2.18-12.51-.13-16.42-1.59h1.06a45.4,45.4,0,0,0,9-.87c4.69-1,8.27-2.73,10.66-5.19A14.18,14.18,0,0,1,503.54,284.72Z"/><rect class="cls-4" x="100.93" y="249" width="132.64" height="2" transform="matrix(1, -0.05, 0.05, 1, -11.14, 7.82)"/><rect class="cls-4" x="96.41" y="240.5" width="130.69" height="2" transform="translate(-12.7 9.01) rotate(-3.07)"/><rect class="cls-4" x="92.44" y="231.25" width="128.62" height="2" transform="translate(-9.79 6.92) rotate(-2.45)"/><path class="cls-3" d="M68,185l37,75v11L68,221Z"/><polygon class="cls-5" points="215.3 219.9 213.7 221.1 239.45 255.11 105 260 105 271 242 265 242 255 215.3 219.9"/><path class="cls-6" d="M88,116l131-4,7.5,109L88,227Z"/><rect class="cls-5" x="102.43" y="126.35" width="102.66" height="84.76" rx="5" transform="translate(-5.73 5.41) rotate(-1.98)"/><rect class="cls-3" x="113.18" y="135.45" width="83.5" height="67.95" rx="9" transform="translate(-5.76 5.45) rotate(-1.98)"/><path class="cls-7" d="M123.05,205.52a10,10,0,0,1-10-9.65L111.35,146A10,10,0,0,1,121,135.61l65.46-2.26A10,10,0,0,1,196.79,143l1.73,49.93a10,10,0,0,1-9.65,10.34l-65.46,2.26Zm-2-67.92a8,8,0,0,0-7.72,8.28l1.73,49.92a8,8,0,0,0,8.27,7.72l65.46-2.26a8,8,0,0,0,7.72-8.27l-1.73-49.93a8,8,0,0,0-8.27-7.72Z"/><path class="cls-5" d="M238,277.19l-2-.38a8.53,8.53,0,0,1,3.5-5.7c4.53-3.08,12-1.65,18.64-.39,4.29.82,9.16,1.74,10,.4.41-.61.49-2.54-3.53-8.56-12.09-18.08-31.45-30.75-40-29.57l-.28-2c5.35-.72,13,2.49,21.66,9.08a95.11,95.11,0,0,1,20.31,21.35c3.76,5.63,4.82,8.86,3.54,10.79-1.62,2.45-6.24,1.57-12.08.45s-13.3-2.53-17.14.08A6.49,6.49,0,0,0,238,277.19Z"/><path class="cls-3" d="M236,278c-4.55.27-8.47,4.22-10.51,10H236Z"/><path class="cls-3" d="M247.51,288c-1.89-5.32-5.39-9.1-9.51-9.85V288Z"/><path class="cls-3" d="M236,290H224.89a27.61,27.61,0,0,0-.89,7c0,10.49,5.6,19,12.5,19s12.5-8.51,12.5-19a27.61,27.61,0,0,0-.89-7H236Z"/><path class="cls-8" d="M249,288h-1.49c.23.64.42,1.31.6,2H249Z"/><path class="cls-8" d="M224,288v2h.89c.18-.69.37-1.36.6-2Z"/><path class="cls-9" d="M381,288V86.86l49-13.55V306.55Z"/><path class="cls-10" d="M431,73l63,15.67V281.45L431,306"/><rect class="cls-6" x="419" y="174" width="7" height="28"/><path class="cls-5" d="M420,182h0a2,2,0,0,1,2,2v9a2,2,0,0,1-2,2h0a2,2,0,0,1-2-2v-9A2,2,0,0,1,420,182Z"/><path class="cls-7" d="M466.27,111.9c-1-.46-9.52-4.65-11-9.12a3.86,3.86,0,0,1,.17-3.08A3,3,0,0,1,457.66,98c4.26-.67,12.16,7.14,13,8l-1.42,1.41c-3.07-3.09-8.89-7.84-11.32-7.46a1,1,0,0,0-.78.59,1.92,1.92,0,0,0-.06,1.53c1.05,3.11,7.58,6.8,10,8Z"/><path class="cls-7" d="M461.36,118.64c-4.29,0-11.43-7.24-12.26-8.09l1.44-1.39c3,3.06,8.55,7.79,11,7.46a.92.92,0,0,0,.77-.53,1.7,1.7,0,0,0,.1-1.42c-.94-3-7.31-6.73-9.69-7.91l.89-1.8c.95.48,9.35,4.74,10.71,9.12a3.71,3.71,0,0,1-.26,3,3,3,0,0,1-2.25,1.55A3.44,3.44,0,0,1,461.36,118.64Z"/><path class="cls-7" d="M472.27,136.9c-1-.46-9.52-4.65-11-9.12a3.86,3.86,0,0,1,.17-3.08,3,3,0,0,1,2.25-1.66c4.24-.64,12.16,7.14,13,8l-1.42,1.41c-3.07-3.09-8.87-7.84-11.32-7.46a1,1,0,0,0-.78.59,1.92,1.92,0,0,0-.06,1.53c1.05,3.11,7.58,6.8,10,8Z"/><path class="cls-7" d="M466.13,144.11c-4.3,0-11.44-7.23-12.26-8.08l1.43-1.4c3,3.06,8.6,7.79,11,7.47a1,1,0,0,0,.77-.54,1.67,1.67,0,0,0,.1-1.41c-.94-3-7.31-6.74-9.69-7.92l.89-1.79c.95.47,9.35,4.74,10.71,9.11a3.7,3.7,0,0,1-.26,3,2.92,2.92,0,0,1-2.25,1.55A3.44,3.44,0,0,1,466.13,144.11Z"/><path class="cls-7" d="M468.43,123.21a3.54,3.54,0,0,1-1.83-.51,2.92,2.92,0,0,1-1.48-2.3c-.45-4.24,7.5-11.65,8.41-12.48l1.35,1.47c-3.14,2.88-8,8.36-7.78,10.81a1,1,0,0,0,.52.78,1.71,1.71,0,0,0,1.41.14c3-.86,6.94-7.12,8.19-9.47l1.76.94c-.5.94-5,9.21-9.41,10.45A4.2,4.2,0,0,1,468.43,123.21Z"/><path class="cls-7" d="M477.12,129.2l-1.32-1.51c3.21-2.8,8.23-8.16,8-10.61a.93.93,0,0,0-.49-.8,1.74,1.74,0,0,0-1.41-.17c-3.07.78-7.11,7-8.41,9.27l-1.74-1c.52-.92,5.22-9.08,9.65-10.22a3.72,3.72,0,0,1,3,.42,2.92,2.92,0,0,1,1.43,2.33C486.17,121.17,478.05,128.39,477.12,129.2Z"/><path class="cls-7" d="M443,127.84a3.51,3.51,0,0,1-1.83-.51,2.93,2.93,0,0,1-1.49-2.29c-.44-4.24,7.5-11.66,8.41-12.49L449.4,114c-3.14,2.88-8,8.36-7.77,10.81a.94.94,0,0,0,.52.78,1.7,1.7,0,0,0,1.41.14c3-.85,6.94-7.12,8.18-9.47l1.77.94c-.5.94-5,9.22-9.41,10.45A4.2,4.2,0,0,1,443,127.84Z"/><path class="cls-7" d="M451.64,135l-1.31-1.51c3.21-2.8,8.23-8.16,8-10.62a1,1,0,0,0-.5-.79,1.68,1.68,0,0,0-1.4-.17c-3.07.78-7.12,6.95-8.42,9.26l-1.74-1c.52-.92,5.23-9.09,9.66-10.22a3.63,3.63,0,0,1,3,.42,2.9,2.9,0,0,1,1.43,2.33C460.69,127,452.57,134.18,451.64,135Z"/><path class="cls-11" d="M66.5,98.5l21,17V224l-27-48Z"/><path class="cls-5" d="M255.7,159.38v1.19H257v-1.19Zm.12-3v2.3h1v-1.93h1l1.16-.17.67-.66.18-1v-2.06l-.18-1-.67-.67-1.14-.17h-2.41l-1.14.17-.67.67-.2,1.09,1,.1c0-.13,0-.27.06-.44s0-.32.07-.46l3.23-.13.89.13.13.79v1.83l-.13.78-2.38.13Zm1.92-6.46a6.1,6.1,0,0,1,2.15.35,4.79,4.79,0,0,1,1.63,1,4.09,4.09,0,0,1,1,1.43,4.18,4.18,0,0,1,.36,1.72v7.13a4.16,4.16,0,0,1-1.4,3.15,5.13,5.13,0,0,1-1.63,1,6.34,6.34,0,0,1-2.15.35h-3.61a6.28,6.28,0,0,1-2.14-.35,5.18,5.18,0,0,1-1.64-1,4.21,4.21,0,0,1-1-1.42,4.11,4.11,0,0,1-.37-1.73v-7.13a4.3,4.3,0,0,1,1.4-3.15,4.83,4.83,0,0,1,1.64-1,6,6,0,0,1,2.14-.35Zm13.74,0a6,6,0,0,1,2.09.38,5,5,0,0,1,1.62,1,3.93,3.93,0,0,1,1,1.41,4.1,4.1,0,0,1,.36,1.71v7.13a4.16,4.16,0,0,1-1.4,3.15,5.29,5.29,0,0,1-1.64,1,6.3,6.3,0,0,1-2.15.35,6.1,6.1,0,0,1-2.11-.35,5.11,5.11,0,0,1-1.6-1,4.47,4.47,0,0,1-1-1.43,4.16,4.16,0,0,1-.35-1.71v-7.13a4.24,4.24,0,0,1,1.39-3.15,4.83,4.83,0,0,1,1.64-1A6.1,6.1,0,0,1,271.48,150Zm-.79,1.05.48,7.65h.69l.48-7.65Zm.21,9.87h1.44l-.18-1.26H270.9ZM281.67,150a6,6,0,0,1,2.1.38,5.19,5.19,0,0,1,1.62,1,4.18,4.18,0,0,1,1,1.41,4.1,4.1,0,0,1,.36,1.71v7.13a4.13,4.13,0,0,1-1.41,3.15,5.18,5.18,0,0,1-1.64,1,6.2,6.2,0,0,1-2.14.35,6.06,6.06,0,0,1-2.11-.35,5.16,5.16,0,0,1-1.61-1,4.8,4.8,0,0,1-1-1.43,4.32,4.32,0,0,1-.35-1.71v-7.13a4.3,4.3,0,0,1,1.4-3.15,4.83,4.83,0,0,1,1.64-1A6,6,0,0,1,281.67,150Zm-.78,1.05.48,7.65h.69l.48-7.65Zm.21,9.87h1.44l-.19-1.26H281.1ZM291.87,150a6,6,0,0,1,2.09.38,5,5,0,0,1,1.62,1,3.93,3.93,0,0,1,1,1.41,4.1,4.1,0,0,1,.36,1.71v7.13a4.16,4.16,0,0,1-1.4,3.15,5.18,5.18,0,0,1-1.64,1,6.25,6.25,0,0,1-2.15.35,6.1,6.1,0,0,1-2.11-.35,5.11,5.11,0,0,1-1.6-1,4.47,4.47,0,0,1-1-1.43,4.16,4.16,0,0,1-.35-1.71v-7.13a4.24,4.24,0,0,1,1.39-3.15,4.93,4.93,0,0,1,1.64-1A6.1,6.1,0,0,1,291.87,150Zm-.79,1.05.48,7.65h.69l.48-7.65Zm.21,9.87h1.44l-.18-1.26h-1.26Zm15-.18v-1.51h-1.53v1.51Zm-.77,5.31a6.28,6.28,0,0,1-2.14-.35,5.18,5.18,0,0,1-1.64-1,4.38,4.38,0,0,1-1-1.42,4.26,4.26,0,0,1-.36-1.73v-7.13a4.2,4.2,0,0,1,1.4-3.15,4.83,4.83,0,0,1,1.64-1,6.75,6.75,0,0,1,4.29,0,4.93,4.93,0,0,1,1.64,1,4.09,4.09,0,0,1,1,1.43,4.18,4.18,0,0,1,.36,1.72v7.13a4.16,4.16,0,0,1-1.4,3.15,5.29,5.29,0,0,1-1.64,1A6.3,6.3,0,0,1,305.53,166Zm11.06-5.31v-1.51h-1.53v1.51Zm-.77,5.31a6.28,6.28,0,0,1-2.14-.35,5.18,5.18,0,0,1-1.64-1,4.38,4.38,0,0,1-1-1.42,4.26,4.26,0,0,1-.36-1.73v-7.13a4.2,4.2,0,0,1,1.4-3.15,4.83,4.83,0,0,1,1.64-1,6,6,0,0,1,2.14-.35,6,6,0,0,1,2.14.35,4.88,4.88,0,0,1,1.65,1,4.09,4.09,0,0,1,1,1.43,4.18,4.18,0,0,1,.36,1.72v7.13a4.16,4.16,0,0,1-1.4,3.15,5.23,5.23,0,0,1-1.65,1A6.2,6.2,0,0,1,315.82,166Zm11.06-5.31v-1.51h-1.53v1.51Zm-.77,5.31a6.38,6.38,0,0,1-2.15-.35,5.29,5.29,0,0,1-1.64-1,4.5,4.5,0,0,1-1-1.42,4.26,4.26,0,0,1-.36-1.73v-7.13a4.18,4.18,0,0,1,.36-1.72,4.33,4.33,0,0,1,1-1.43,4.93,4.93,0,0,1,1.64-1,6.14,6.14,0,0,1,2.15-.35,6,6,0,0,1,2.14.35,4.83,4.83,0,0,1,1.64,1,4,4,0,0,1,1.05,1.43,4.18,4.18,0,0,1,.36,1.72v7.13a4.26,4.26,0,0,1-.36,1.73,4.14,4.14,0,0,1-1.05,1.42,5.18,5.18,0,0,1-1.64,1A6.2,6.2,0,0,1,326.11,166ZM338,159.38v1.19h1.24v-1.19Zm.12-3v2.3h1v-1.93h1l1.16-.17.67-.66.17-1v-2.06l-.17-1-.67-.67-1.15-.17h-2.4l-1.15.17-.67.67-.2,1.09,1,.1a2.6,2.6,0,0,0,.06-.44c0-.17.05-.32.07-.46l3.24-.13.89.13.13.79v1.83l-.13.78-2.38.13ZM340,150a6,6,0,0,1,2.14.35,4.69,4.69,0,0,1,1.63,1,4.09,4.09,0,0,1,1,1.43,4,4,0,0,1,.37,1.72v7.13a4.11,4.11,0,0,1-.37,1.73,4.24,4.24,0,0,1-1,1.42,5,5,0,0,1-1.63,1A6.28,6.28,0,0,1,340,166H336.4a6.34,6.34,0,0,1-2.15-.35,5.29,5.29,0,0,1-1.64-1,4.35,4.35,0,0,1-1-1.42,4.26,4.26,0,0,1-.36-1.73v-7.13a4.24,4.24,0,0,1,1.39-3.15,4.93,4.93,0,0,1,1.64-1,6.1,6.1,0,0,1,2.15-.35Z"/></svg>