<svg width="565" height="382" viewBox="0 0 565 382" fill="none" xmlns="http://www.w3.org/2000/svg">
<rect width="565" height="382" fill="#BDBDBD"/>
<path d="M66 98L186.612 92L219 113L88 117L66 98Z" fill="#E0E0E0"/>
<path d="M495 263C495 263 508.5 260.5 506.5 274.5C504.5 288.5 481.5 286.5 481.5 286.5" stroke="black"/>
<path d="M495 237C495 237 518 283 514 301C510 319 478 288 478 288" stroke="black"/>
<path d="M496 273C496 273 508 273 504.5 285C501 297 480.5 287.5 480.5 287.5" stroke="black"/>
<path d="M68 185L105 260V271L68 221V185Z" fill="#828282"/>
<path d="M241 255.5L214.5 220.5" stroke="#4F4F4F" stroke-width="2"/>
<path d="M88 116L219 112L226.5 221L88 227V116Z" fill="#ACAAAA"/>
<rect x="101" y="128.143" width="102.656" height="84.762" rx="5" transform="rotate(-1.97809 101 128.143)" fill="#333333"/>
<rect x="112.034" y="136.916" width="83.4991" height="67.9538" rx="9" transform="rotate(-1.97809 112.034 136.916)" fill="#6D6A6A" stroke="black" stroke-width="2"/>
<path d="M101 253L232.5 247" stroke="black"/>
<path d="M96.5 245L227 238" stroke="black"/>
<path d="M92.5 235L220 229.5" stroke="black"/>
<path d="M224.5 232C235.5 230.5 255.6 247.189 265.5 262C282.06 286.774 240.5 258.5 237 277" stroke="black"/>
<ellipse cx="236.5" cy="297" rx="12.5" ry="19" fill="#828282"/>
<line x1="224" y1="289" x2="249" y2="289" stroke="#BDBDBD" stroke-width="2"/>
<line x1="237" y1="275" x2="237" y2="290" stroke="#BDBDBD" stroke-width="2"/>
<path d="M381 287.991V86.8584L430 73.3139V306.552L381 287.991Z" fill="#E0E0E0" stroke="#F2F2F2" stroke-width="2"/>
<path d="M431 73L494 88.6726V281.446L431 306" stroke="#F2F2F2" stroke-width="2"/>
<rect x="419" y="174" width="7" height="28" fill="#828282"/>
<rect x="418" y="182" width="4" height="13" rx="2" fill="#4F4F4F"/>
<path d="M470 106.777C470 106.777 458.72 95.4222 456.303 100.153C453.886 104.884 466.703 111 466.703 111" stroke="#333333" stroke-width="2"/>
<path d="M449.817 109.856C449.817 109.856 460.697 121.078 463.195 116.572C465.694 112.066 453.173 105.861 453.173 105.861" stroke="#333333" stroke-width="2"/>
<path d="M476 131.777C476 131.777 464.72 120.422 462.303 125.153C459.886 129.884 472.703 136 472.703 136" stroke="#333333" stroke-width="2"/>
<path d="M454.586 135.33C454.586 135.33 465.466 146.552 467.965 142.046C470.463 137.54 457.942 131.334 457.942 131.334" stroke="#333333" stroke-width="2"/>
<path d="M474.201 108.655C474.201 108.655 462.677 119.215 467.111 121.84C471.545 124.464 478.1 112.122 478.1 112.122" stroke="#333333" stroke-width="2"/>
<path d="M476.461 128.445C476.461 128.445 488.237 118.167 483.868 115.436C479.498 112.705 472.647 124.885 472.647 124.885" stroke="#333333" stroke-width="2"/>
<path d="M448.727 113.287C448.727 113.287 437.203 123.847 441.637 126.471C446.071 129.096 452.626 116.754 452.626 116.754" stroke="#333333" stroke-width="2"/>
<path d="M450.987 134.233C450.987 134.233 462.763 123.954 458.394 121.223C454.025 118.493 447.173 130.673 447.173 130.673" stroke="#333333" stroke-width="2"/>
<path d="M66.5 98.5L87.5 115.5V224L60.5 176L66.5 98.5Z" fill="#F2F2F2"/>
<path d="M105 261L242 255V265L105 271V261Z" fill="#4F4F4F"/>
<path d="M255.703 159.379V160.574H256.945V159.379H255.703ZM255.82 156.414V158.711H256.828V156.777H257.824L258.984 156.613L259.652 155.945L259.828 154.984V152.922L259.652 151.961L258.984 151.293L257.836 151.117H255.434L254.285 151.293L253.617 151.961L253.418 153.051L254.438 153.145C254.461 153.02 254.48 152.875 254.496 152.711C254.52 152.539 254.543 152.387 254.566 152.254L257.801 152.125L258.691 152.254L258.82 153.039V154.867L258.691 155.652L256.312 155.781L255.82 156.414ZM257.742 149.945C258.531 149.945 259.246 150.062 259.887 150.297C260.527 150.531 261.07 150.852 261.516 151.258C261.969 151.664 262.316 152.141 262.559 152.688C262.801 153.227 262.922 153.801 262.922 154.41V161.535C262.922 162.145 262.801 162.723 262.559 163.27C262.316 163.809 261.969 164.281 261.516 164.688C261.07 165.094 260.527 165.414 259.887 165.648C259.246 165.883 258.531 166 257.742 166H254.133C253.344 166 252.629 165.883 251.988 165.648C251.348 165.414 250.801 165.094 250.348 164.688C249.902 164.281 249.559 163.809 249.316 163.27C249.074 162.723 248.953 162.145 248.953 161.535V154.41C248.953 153.801 249.074 153.227 249.316 152.688C249.559 152.141 249.902 151.664 250.348 151.258C250.801 150.852 251.348 150.531 251.988 150.297C252.629 150.062 253.344 149.945 254.133 149.945H257.742ZM271.477 149.945C272.25 149.961 272.949 150.09 273.574 150.332C274.207 150.566 274.746 150.887 275.191 151.293C275.637 151.691 275.977 152.16 276.211 152.699C276.453 153.23 276.574 153.801 276.574 154.41V161.535C276.574 162.145 276.453 162.723 276.211 163.27C275.969 163.809 275.621 164.281 275.168 164.688C274.715 165.094 274.168 165.414 273.527 165.648C272.895 165.883 272.18 166 271.383 166C270.602 166 269.898 165.883 269.273 165.648C268.648 165.406 268.113 165.082 267.668 164.676C267.23 164.262 266.891 163.785 266.648 163.246C266.414 162.707 266.297 162.137 266.297 161.535V154.41C266.297 153.801 266.418 153.227 266.66 152.688C266.902 152.141 267.246 151.664 267.691 151.258C268.145 150.852 268.691 150.531 269.332 150.297C269.973 150.062 270.688 149.945 271.477 149.945ZM270.691 151L271.172 158.652H271.863L272.344 151H270.691ZM270.902 160.867H272.344L272.156 159.613H270.902V160.867ZM281.672 149.945C282.445 149.961 283.145 150.09 283.77 150.332C284.402 150.566 284.941 150.887 285.387 151.293C285.832 151.691 286.172 152.16 286.406 152.699C286.648 153.23 286.77 153.801 286.77 154.41V161.535C286.77 162.145 286.648 162.723 286.406 163.27C286.164 163.809 285.816 164.281 285.363 164.688C284.91 165.094 284.363 165.414 283.723 165.648C283.09 165.883 282.375 166 281.578 166C280.797 166 280.094 165.883 279.469 165.648C278.844 165.406 278.309 165.082 277.863 164.676C277.426 164.262 277.086 163.785 276.844 163.246C276.609 162.707 276.492 162.137 276.492 161.535V154.41C276.492 153.801 276.613 153.227 276.855 152.688C277.098 152.141 277.441 151.664 277.887 151.258C278.34 150.852 278.887 150.531 279.527 150.297C280.168 150.062 280.883 149.945 281.672 149.945ZM280.887 151L281.367 158.652H282.059L282.539 151H280.887ZM281.098 160.867H282.539L282.352 159.613H281.098V160.867ZM291.867 149.945C292.641 149.961 293.34 150.09 293.965 150.332C294.598 150.566 295.137 150.887 295.582 151.293C296.027 151.691 296.367 152.16 296.602 152.699C296.844 153.23 296.965 153.801 296.965 154.41V161.535C296.965 162.145 296.844 162.723 296.602 163.27C296.359 163.809 296.012 164.281 295.559 164.688C295.105 165.094 294.559 165.414 293.918 165.648C293.285 165.883 292.57 166 291.773 166C290.992 166 290.289 165.883 289.664 165.648C289.039 165.406 288.504 165.082 288.059 164.676C287.621 164.262 287.281 163.785 287.039 163.246C286.805 162.707 286.688 162.137 286.688 161.535V154.41C286.688 153.801 286.809 153.227 287.051 152.688C287.293 152.141 287.637 151.664 288.082 151.258C288.535 150.852 289.082 150.531 289.723 150.297C290.363 150.062 291.078 149.945 291.867 149.945ZM291.082 151L291.562 158.652H292.254L292.734 151H291.082ZM291.293 160.867H292.734L292.547 159.613H291.293V160.867ZM306.305 160.691V159.18H304.77V160.691H306.305ZM305.531 166C304.742 166 304.027 165.883 303.387 165.648C302.746 165.414 302.199 165.094 301.746 164.688C301.301 164.281 300.957 163.809 300.715 163.27C300.473 162.723 300.352 162.145 300.352 161.535V154.41C300.352 153.801 300.473 153.227 300.715 152.688C300.957 152.141 301.301 151.664 301.746 151.258C302.199 150.852 302.746 150.531 303.387 150.297C304.027 150.062 304.742 149.945 305.531 149.945C306.328 149.945 307.043 150.062 307.676 150.297C308.316 150.531 308.863 150.852 309.316 151.258C309.77 151.664 310.117 152.141 310.359 152.688C310.602 153.227 310.723 153.801 310.723 154.41V161.535C310.723 162.145 310.602 162.723 310.359 163.27C310.117 163.809 309.77 164.281 309.316 164.688C308.863 165.094 308.316 165.414 307.676 165.648C307.043 165.883 306.328 166 305.531 166ZM316.594 160.691V159.18H315.059V160.691H316.594ZM315.82 166C315.031 166 314.316 165.883 313.676 165.648C313.035 165.414 312.488 165.094 312.035 164.688C311.59 164.281 311.246 163.809 311.004 163.27C310.762 162.723 310.641 162.145 310.641 161.535V154.41C310.641 153.801 310.762 153.227 311.004 152.688C311.246 152.141 311.59 151.664 312.035 151.258C312.488 150.852 313.035 150.531 313.676 150.297C314.316 150.062 315.031 149.945 315.82 149.945C316.617 149.945 317.332 150.062 317.965 150.297C318.605 150.531 319.152 150.852 319.605 151.258C320.059 151.664 320.406 152.141 320.648 152.688C320.891 153.227 321.012 153.801 321.012 154.41V161.535C321.012 162.145 320.891 162.723 320.648 163.27C320.406 163.809 320.059 164.281 319.605 164.688C319.152 165.094 318.605 165.414 317.965 165.648C317.332 165.883 316.617 166 315.82 166ZM326.883 160.691V159.18H325.348V160.691H326.883ZM326.109 166C325.32 166 324.605 165.883 323.965 165.648C323.324 165.414 322.777 165.094 322.324 164.688C321.879 164.281 321.535 163.809 321.293 163.27C321.051 162.723 320.93 162.145 320.93 161.535V154.41C320.93 153.801 321.051 153.227 321.293 152.688C321.535 152.141 321.879 151.664 322.324 151.258C322.777 150.852 323.324 150.531 323.965 150.297C324.605 150.062 325.32 149.945 326.109 149.945C326.906 149.945 327.621 150.062 328.254 150.297C328.895 150.531 329.441 150.852 329.895 151.258C330.348 151.664 330.695 152.141 330.938 152.688C331.18 153.227 331.301 153.801 331.301 154.41V161.535C331.301 162.145 331.18 162.723 330.938 163.27C330.695 163.809 330.348 164.281 329.895 164.688C329.441 165.094 328.895 165.414 328.254 165.648C327.621 165.883 326.906 166 326.109 166ZM337.969 159.379V160.574H339.211V159.379H337.969ZM338.086 156.414V158.711H339.094V156.777H340.09L341.25 156.613L341.918 155.945L342.094 154.984V152.922L341.918 151.961L341.25 151.293L340.102 151.117H337.699L336.551 151.293L335.883 151.961L335.684 153.051L336.703 153.145C336.727 153.02 336.746 152.875 336.762 152.711C336.785 152.539 336.809 152.387 336.832 152.254L340.066 152.125L340.957 152.254L341.086 153.039V154.867L340.957 155.652L338.578 155.781L338.086 156.414ZM340.008 149.945C340.797 149.945 341.512 150.062 342.152 150.297C342.793 150.531 343.336 150.852 343.781 151.258C344.234 151.664 344.582 152.141 344.824 152.688C345.066 153.227 345.188 153.801 345.188 154.41V161.535C345.188 162.145 345.066 162.723 344.824 163.27C344.582 163.809 344.234 164.281 343.781 164.688C343.336 165.094 342.793 165.414 342.152 165.648C341.512 165.883 340.797 166 340.008 166H336.398C335.609 166 334.895 165.883 334.254 165.648C333.613 165.414 333.066 165.094 332.613 164.688C332.168 164.281 331.824 163.809 331.582 163.27C331.34 162.723 331.219 162.145 331.219 161.535V154.41C331.219 153.801 331.34 153.227 331.582 152.688C331.824 152.141 332.168 151.664 332.613 151.258C333.066 150.852 333.613 150.531 334.254 150.297C334.895 150.062 335.609 149.945 336.398 149.945H340.008Z" fill="#333333"/>
</svg>
