<svg xmlns="http://www.w3.org/2000/svg" xmlns:xlink="http://www.w3.org/1999/xlink" viewBox="0 0 800 800"><defs><clipPath id="a"><rect x="219.23" y="39.92" width="475.01" height="844.89" style="fill:none"/></clipPath><mask id="b" x="277.49" y="489.6" width="357.21" height="62.07" maskUnits="userSpaceOnUse"><path d="M278.76,493.4a2.53,2.53,0,0,1,2.53-2.53H630.9a2.54,2.54,0,0,1,2.54,2.53v54.47a2.54,2.54,0,0,1-2.54,2.53H281.29a2.53,2.53,0,0,1-2.53-2.53Z" style="fill:#fff"/></mask><mask id="c" x="277.49" y="611.2" width="357.21" height="62.07" maskUnits="userSpaceOnUse"><path d="M278.76,615a2.53,2.53,0,0,1,2.53-2.53H630.9a2.54,2.54,0,0,1,2.54,2.53v54.47A2.54,2.54,0,0,1,630.9,672H281.29a2.53,2.53,0,0,1-2.53-2.53Z" style="fill:#fff"/></mask><clipPath id="d"><rect x="219.23" y="39.92" width="475.01" height="25.33" style="fill:none"/></clipPath><mask id="e" x="217.96" y="120.99" width="477.55" height="89.94" maskUnits="userSpaceOnUse"><rect x="217.96" y="120.99" width="477.55" height="89.94" style="fill:#fff"/><path d="M219.23,122.25h475v87.41h-475Z"/></mask><mask id="f" x="602.4" y="138.09" width="64.6" height="54.47" maskUnits="userSpaceOnUse"><path d="M604.3,145.06a5.07,5.07,0,0,1,5.07-5.07H660a5.07,5.07,0,0,1,5.07,5.07v40.53a5.07,5.07,0,0,1-5.07,5.07H609.37a5.07,5.07,0,0,1-5.07-5.07Z" style="fill:#fff"/></mask></defs><title>link_explorer</title><rect width="800" height="800" style="fill:#00b9ee;opacity:0.53"/><polygon points="153.59 800 219.23 800 219.23 39.92 153.59 109.09 153.59 800" style="fill:#00b9ee"/><rect x="219.23" y="39.92" width="475.01" height="844.89" style="fill:#e5e5e5"/><g style="clip-path:url(#a)"><path d="M219.23,39.92h475V884.81h-475Z" style="fill:#fff"/><g style="mask:url(#b)"><path d="M281.29,492.13H630.9V489.6H281.29Zm350.88,1.27v54.47h2.53V493.4Zm-1.27,55.73H281.29v2.54H630.9ZM280,547.87V493.4h-2.54v54.47Zm1.26,1.26a1.26,1.26,0,0,1-1.26-1.26h-2.54a3.8,3.8,0,0,0,3.8,3.8Zm350.88-1.26a1.26,1.26,0,0,1-1.27,1.26v2.54a3.8,3.8,0,0,0,3.8-3.8Zm-1.27-55.74a1.27,1.27,0,0,1,1.27,1.27h2.53a3.8,3.8,0,0,0-3.8-3.8ZM281.29,489.6a3.8,3.8,0,0,0-3.8,3.8H280a1.27,1.27,0,0,1,1.26-1.27Z" style="fill:#bdbdbd"/></g><g style="mask:url(#c)"><path d="M281.29,613.74H630.9V611.2H281.29ZM632.17,615v54.47h2.53V615Zm-1.27,55.74H281.29v2.53H630.9ZM280,669.47V615h-2.54v54.47Zm1.26,1.27a1.27,1.27,0,0,1-1.26-1.27h-2.54a3.8,3.8,0,0,0,3.8,3.8Zm350.88-1.27a1.27,1.27,0,0,1-1.27,1.27v2.53a3.8,3.8,0,0,0,3.8-3.8Zm-1.27-55.73a1.26,1.26,0,0,1,1.27,1.26h2.53a3.8,3.8,0,0,0-3.8-3.8ZM281.29,611.2a3.8,3.8,0,0,0-3.8,3.8H280a1.26,1.26,0,0,1,1.26-1.26Z" style="fill:#bdbdbd"/></g><path d="M346,650.47h-1.69v-13h-4.58V636h10.85v1.5H346Zm11.47-11a7.13,7.13,0,0,1,1.29.11l-.23,1.53a5.44,5.44,0,0,0-1.18-.15A2.92,2.92,0,0,0,355.1,642a3.9,3.9,0,0,0-.93,2.66v5.82h-1.64V639.62h1.35l.19,2h.08A4.83,4.83,0,0,1,355.6,640,3.33,3.33,0,0,1,357.48,639.43Zm1.6.19h1.76l2.37,6.19a21.26,21.26,0,0,1,1,3.06h.08c.09-.34.27-.91.54-1.73s1.17-3.32,2.69-7.52h1.76L364.59,652a6.12,6.12,0,0,1-1.62,2.6,3.45,3.45,0,0,1-2.27.77,6.65,6.65,0,0,1-1.48-.17v-1.32a5.64,5.64,0,0,0,1.21.12,2.51,2.51,0,0,0,2.42-1.9l.6-1.54ZM378.55,641l-.14-.22a27.38,27.38,0,0,1,1.76-4.74h1.21c-.19.76-.39,1.62-.59,2.57s-.33,1.75-.42,2.39Zm-3.65,0-.12-.22a21.49,21.49,0,0,1,.71-2.21c.32-.89.67-1.73,1-2.53h1.21c-.43,1.68-.77,3.33-1,5Zm17.83,9.51-1.81-4.6h-5.8l-1.78,4.6h-1.7l5.72-14.53h1.42l5.69,14.53Zm-2.33-6.12-1.68-4.48c-.22-.57-.44-1.26-.68-2.09a17.47,17.47,0,0,1-.62,2.09l-1.7,4.48Zm7.45,6.12h-1.64v-15.4h1.64Zm8.53-11a4,4,0,0,1,3.32,1.46,7.82,7.82,0,0,1,0,8.28,4,4,0,0,1-3.31,1.48,4.77,4.77,0,0,1-1.94-.39,3.54,3.54,0,0,1-1.46-1.21h-.12l-.35,1.4h-1.18v-15.4H403v3.74c0,.84,0,1.59-.08,2.26H403A3.89,3.89,0,0,1,406.38,639.45Zm-.24,1.37a2.84,2.84,0,0,0-2.42,1,7.46,7.46,0,0,0,0,6.52,2.88,2.88,0,0,0,2.44,1,2.52,2.52,0,0,0,2.26-1.1,5.71,5.71,0,0,0,.74-3.17,5.5,5.5,0,0,0-.74-3.16A2.63,2.63,0,0,0,406.14,640.82Zm14.29,9.65-.32-1.54H420a4.53,4.53,0,0,1-1.62,1.38,5,5,0,0,1-2,.36,3.68,3.68,0,0,1-2.54-.83,3.09,3.09,0,0,1-.91-2.37q0-3.29,5.26-3.44l1.84-.06v-.68a2.72,2.72,0,0,0-.56-1.88,2.25,2.25,0,0,0-1.75-.61,7.27,7.27,0,0,0-3.07.83l-.5-1.25a8,8,0,0,1,1.75-.69,7.89,7.89,0,0,1,1.92-.24,4.09,4.09,0,0,1,2.87.86,3.56,3.56,0,0,1,.94,2.76v7.4Zm-3.71-1.16a3.32,3.32,0,0,0,2.41-.84,3.13,3.13,0,0,0,.88-2.35v-1l-1.64.07a5.91,5.91,0,0,0-2.83.61,1.81,1.81,0,0,0-.87,1.67,1.71,1.71,0,0,0,.54,1.36A2.25,2.25,0,0,0,416.72,649.31Zm15.75,1.16v-7a2.81,2.81,0,0,0-.61-2,2.47,2.47,0,0,0-1.89-.65,3.13,3.13,0,0,0-2.49.92,4.64,4.64,0,0,0-.79,3v5.69h-1.64V639.62h1.33l.27,1.49h.08a3.28,3.28,0,0,1,1.41-1.24,4.54,4.54,0,0,1,2-.44,4.07,4.07,0,0,1,2.95,1,4,4,0,0,1,1,3v7.08Zm6.67,0H437.5V639.62h1.64Zm-1.78-13.79a1.09,1.09,0,0,1,.27-.82,1,1,0,0,1,.7-.26,1,1,0,0,1,.68.26,1.08,1.08,0,0,1,.29.82,1.14,1.14,0,0,1-.29.84,1,1,0,0,1-.68.26,1,1,0,0,1-.7-.26A1.18,1.18,0,0,1,437.36,636.68Zm11.93,13.79-.33-1.54h-.07a4.63,4.63,0,0,1-1.63,1.38,4.89,4.89,0,0,1-2,.36,3.65,3.65,0,0,1-2.53-.83,3.05,3.05,0,0,1-.91-2.37q0-3.29,5.25-3.44l1.85-.06v-.68a2.72,2.72,0,0,0-.56-1.88,2.26,2.26,0,0,0-1.75-.61,7.23,7.23,0,0,0-3.07.83l-.5-1.25a8,8,0,0,1,1.75-.69,7.89,7.89,0,0,1,1.92-.24,4.09,4.09,0,0,1,2.87.86,3.56,3.56,0,0,1,.94,2.76v7.4Zm-3.71-1.16a3.35,3.35,0,0,0,2.41-.84,3.13,3.13,0,0,0,.88-2.35v-1l-1.65.07a5.94,5.94,0,0,0-2.83.61,1.82,1.82,0,0,0-.86,1.67,1.71,1.71,0,0,0,.54,1.36A2.23,2.23,0,0,0,445.58,649.31ZM455.22,636l.15.22c-.17.66-.42,1.43-.74,2.31s-.66,1.68-1,2.43h-1.21c.46-1.88.8-3.53,1-5Zm3.65,0,.14.22c-.16.6-.4,1.34-.71,2.22s-.66,1.71-1,2.52H456c.17-.66.37-1.5.58-2.51s.37-1.83.46-2.45Z" style="fill:#828282"/><path d="M301.67,528.87H300v-13h-4.58V514.4h10.84v1.49h-4.58Zm11.47-11a6.46,6.46,0,0,1,1.3.12l-.23,1.52a6.23,6.23,0,0,0-1.19-.14,2.86,2.86,0,0,0-2.25,1.07,3.9,3.9,0,0,0-.93,2.66v5.82h-1.65V518h1.36l.19,2h.08a4.64,4.64,0,0,1,1.45-1.63A3.23,3.23,0,0,1,313.14,517.82Zm1.6.2h1.77l2.37,6.19a24.77,24.77,0,0,1,1,3h.08c.08-.33.26-.91.53-1.72s1.18-3.32,2.7-7.52h1.76l-4.66,12.35a6.11,6.11,0,0,1-1.63,2.59,3.38,3.38,0,0,1-2.26.78,6.81,6.81,0,0,1-1.49-.17v-1.32a5.73,5.73,0,0,0,1.22.12,2.5,2.5,0,0,0,2.41-1.9l.61-1.54Zm19.48,1.34-.15-.22a29.14,29.14,0,0,1,1.76-4.74h1.22c-.2.76-.4,1.61-.59,2.57s-.33,1.75-.42,2.39Zm-3.65,0-.12-.22a21.16,21.16,0,0,1,.7-2.22c.32-.88.67-1.72,1-2.52h1.22a45.53,45.53,0,0,0-1,5Zm13.06,9.7a5,5,0,0,1-3.8-1.46,5.71,5.71,0,0,1-1.39-4.07,6.27,6.27,0,0,1,1.29-4.16,4.31,4.31,0,0,1,3.47-1.55,4.08,4.08,0,0,1,3.23,1.35,5.13,5.13,0,0,1,1.19,3.53v1h-7.47a4.29,4.29,0,0,0,1,2.9,3.34,3.34,0,0,0,2.58,1,8.67,8.67,0,0,0,3.46-.73v1.46a8.79,8.79,0,0,1-1.65.54A9.11,9.11,0,0,1,343.63,529.06Zm-.44-9.86a2.68,2.68,0,0,0-2.09.85,3.89,3.89,0,0,0-.91,2.35h5.67a3.55,3.55,0,0,0-.7-2.37A2.4,2.4,0,0,0,343.19,519.2Zm9.85,4.11L349.27,518h1.87l2.86,4.16,2.85-4.16h1.85l-3.77,5.29,4,5.56H357l-3-4.4-3.07,4.4h-1.86Zm17.38.12a6,6,0,0,1-1.34,4.15,4.71,4.71,0,0,1-3.69,1.48,4.83,4.83,0,0,1-2.58-.68,4.5,4.5,0,0,1-1.74-2,6.82,6.82,0,0,1-.62-3,6,6,0,0,1,1.33-4.12,4.68,4.68,0,0,1,3.68-1.49,4.57,4.57,0,0,1,3.61,1.52A5.92,5.92,0,0,1,370.42,523.43Zm-8.26,0a5.12,5.12,0,0,0,.83,3.17,2.87,2.87,0,0,0,2.44,1.09,2.91,2.91,0,0,0,2.45-1.08,5.13,5.13,0,0,0,.84-3.18,5,5,0,0,0-.84-3.13,2.93,2.93,0,0,0-2.47-1.08,2.87,2.87,0,0,0-2.43,1.06A5,5,0,0,0,362.16,523.43Zm14.65,4.28a5.73,5.73,0,0,0,.84-.06,6.27,6.27,0,0,0,.65-.14v1.26a3.58,3.58,0,0,1-.8.21,6.49,6.49,0,0,1-.93.08q-3.13,0-3.14-3.31V519.3h-1.56v-.8l1.56-.68.69-2.31h.95V518h3.15v1.28h-3.15v6.38a2.19,2.19,0,0,0,.47,1.5A1.61,1.61,0,0,0,376.81,527.71Zm5.31,1.16h-1.65V518h1.65Zm-1.78-13.79a1.08,1.08,0,0,1,.27-.82,1,1,0,0,1,1.38,0,1.07,1.07,0,0,1,.28.82,1.1,1.1,0,0,1-.28.83,1,1,0,0,1-1.38,0A1.14,1.14,0,0,1,380.34,515.08Zm9.59,14a4.67,4.67,0,0,1-3.65-1.44,6,6,0,0,1-1.28-4.11,6.16,6.16,0,0,1,1.3-4.2,4.75,4.75,0,0,1,3.74-1.49,7.62,7.62,0,0,1,1.57.17,4.57,4.57,0,0,1,1.22.4l-.5,1.39a7.58,7.58,0,0,0-1.19-.35,5.11,5.11,0,0,0-1.14-.15q-3.3,0-3.3,4.21a5.06,5.06,0,0,0,.8,3.07,2.82,2.82,0,0,0,2.39,1.07,7.5,7.5,0,0,0,2.79-.58v1.45A5.91,5.91,0,0,1,389.93,529.06Zm10.22-9.76h-2.76v9.57h-1.65V519.3H393.8v-.75l1.94-.59v-.6q0-4,3.5-4a7,7,0,0,1,2,.35l-.43,1.31a5.55,5.55,0,0,0-1.62-.31,1.58,1.58,0,0,0-1.38.63,3.41,3.41,0,0,0-.44,2v.7h2.76Zm3.62,9.57h-1.64V518h1.64ZM402,515.08a1.08,1.08,0,0,1,.27-.82,1,1,0,0,1,.7-.27,1,1,0,0,1,.68.27,1.08,1.08,0,0,1,.29.82,1.1,1.1,0,0,1-.29.83,1,1,0,0,1-.68.27,1,1,0,0,1-.7-.27A1.14,1.14,0,0,1,402,515.08Zm12.26,10.83a2.7,2.7,0,0,1-1.13,2.33,5.29,5.29,0,0,1-3.17.82,6.82,6.82,0,0,1-3.36-.68v-1.52a8.32,8.32,0,0,0,1.67.62,7.16,7.16,0,0,0,1.73.23,4,4,0,0,0,2-.41,1.36,1.36,0,0,0,.7-1.25,1.33,1.33,0,0,0-.56-1.08A8,8,0,0,0,410,523.9a12.07,12.07,0,0,1-2.15-1,3.09,3.09,0,0,1-.95-1,2.48,2.48,0,0,1-.31-1.28,2.43,2.43,0,0,1,1.08-2.09,5,5,0,0,1,3-.77,8.7,8.7,0,0,1,3.42.71l-.58,1.34a7.85,7.85,0,0,0-3-.67,3.43,3.43,0,0,0-1.76.36,1.14,1.14,0,0,0-.6,1,1.33,1.33,0,0,0,.22.75,2.36,2.36,0,0,0,.72.58,17.67,17.67,0,0,0,1.9.8,7,7,0,0,1,2.61,1.42A2.49,2.49,0,0,1,414.25,525.91Zm10.1,3v-7a2.86,2.86,0,0,0-.6-2,2.47,2.47,0,0,0-1.89-.65,3.1,3.1,0,0,0-2.5.93,4.67,4.67,0,0,0-.79,3.05v5.67h-1.64v-15.4h1.64v4.66a9,9,0,0,1-.08,1.39h.1A3.35,3.35,0,0,1,420,518.3a4.39,4.39,0,0,1,2-.46,4.18,4.18,0,0,1,3,.95,4,4,0,0,1,1,3v7.08Zm9.92-9.57h-2.76v9.57h-1.64V519.3h-1.94v-.75l1.94-.59v-.6q0-4,3.49-4a6.91,6.91,0,0,1,2,.35L435,515a5.55,5.55,0,0,0-1.62-.31,1.58,1.58,0,0,0-1.38.63,3.49,3.49,0,0,0-.44,2v.7h2.76Zm11.34,4.13a6,6,0,0,1-1.34,4.15,4.71,4.71,0,0,1-3.69,1.48,4.83,4.83,0,0,1-2.58-.68,4.5,4.5,0,0,1-1.74-2,6.82,6.82,0,0,1-.61-3,6,6,0,0,1,1.32-4.12,4.68,4.68,0,0,1,3.68-1.49,4.57,4.57,0,0,1,3.61,1.52A5.92,5.92,0,0,1,445.61,523.43Zm-8.26,0a5.12,5.12,0,0,0,.83,3.17,2.87,2.87,0,0,0,2.44,1.09,2.91,2.91,0,0,0,2.45-1.08,5.13,5.13,0,0,0,.84-3.18,5,5,0,0,0-.84-3.13,2.93,2.93,0,0,0-2.47-1.08,2.88,2.88,0,0,0-2.43,1.06A5,5,0,0,0,437.35,523.43Zm20.51,0a6,6,0,0,1-1.33,4.15,4.74,4.74,0,0,1-3.7,1.48,4.83,4.83,0,0,1-2.58-.68,4.5,4.5,0,0,1-1.74-2,6.82,6.82,0,0,1-.61-3,6,6,0,0,1,1.32-4.12,4.69,4.69,0,0,1,3.68-1.49,4.6,4.6,0,0,1,3.62,1.52A6,6,0,0,1,457.86,523.43Zm-8.26,0a5.19,5.19,0,0,0,.83,3.17,2.87,2.87,0,0,0,2.44,1.09,2.91,2.91,0,0,0,2.45-1.08,5.13,5.13,0,0,0,.84-3.18,5,5,0,0,0-.84-3.13,2.93,2.93,0,0,0-2.47-1.08,2.88,2.88,0,0,0-2.43,1.06A5,5,0,0,0,449.6,523.43Zm18.53,4H468a3.85,3.85,0,0,1-3.4,1.65,4.06,4.06,0,0,1-3.32-1.45,7.89,7.89,0,0,1,0-8.3,4,4,0,0,1,3.3-1.49,3.93,3.93,0,0,1,3.38,1.61h.13l-.07-.79,0-.76v-4.41h1.65v15.4h-1.34Zm-3.28.28a3,3,0,0,0,2.43-.91,4.63,4.63,0,0,0,.76-3v-.35a5.34,5.34,0,0,0-.77-3.28,2.89,2.89,0,0,0-2.44-1,2.51,2.51,0,0,0-2.22,1.13,5.55,5.55,0,0,0-.76,3.16,5.35,5.35,0,0,0,.76,3.14A2.57,2.57,0,0,0,464.85,527.69Zm8.09.13a1.46,1.46,0,0,1,.3-1,1.09,1.09,0,0,1,.87-.35,1.15,1.15,0,0,1,.89.35,1.67,1.67,0,0,1,0,2,1.16,1.16,0,0,1-.89.34,1.2,1.2,0,0,1-.84-.3A1.38,1.38,0,0,1,472.94,527.82Zm10,1.24a4.65,4.65,0,0,1-3.65-1.44,6,6,0,0,1-1.29-4.11,6.16,6.16,0,0,1,1.31-4.2,4.72,4.72,0,0,1,3.74-1.49,7.53,7.53,0,0,1,1.56.17,4.79,4.79,0,0,1,1.23.4l-.51,1.39a7.78,7.78,0,0,0-1.18-.35,5.11,5.11,0,0,0-1.14-.15q-3.32,0-3.31,4.21a5.06,5.06,0,0,0,.8,3.07,2.83,2.83,0,0,0,2.4,1.07,7.49,7.49,0,0,0,2.78-.58v1.45A5.89,5.89,0,0,1,482.92,529.06Zm14.68-5.63a6,6,0,0,1-1.33,4.15,4.71,4.71,0,0,1-3.69,1.48,4.89,4.89,0,0,1-2.59-.68,4.5,4.5,0,0,1-1.74-2,6.82,6.82,0,0,1-.61-3,6,6,0,0,1,1.32-4.12,4.71,4.71,0,0,1,3.69-1.49,4.58,4.58,0,0,1,3.61,1.52A6,6,0,0,1,497.6,523.43Zm-8.26,0a5.19,5.19,0,0,0,.83,3.17,3.3,3.3,0,0,0,4.89,0,5.13,5.13,0,0,0,.84-3.18,5,5,0,0,0-.84-3.13,3.34,3.34,0,0,0-4.9,0A5,5,0,0,0,489.34,523.43Zm25,5.44v-7.06a2.92,2.92,0,0,0-.56-1.94,2.13,2.13,0,0,0-1.72-.65,2.75,2.75,0,0,0-2.26.88,4.18,4.18,0,0,0-.74,2.71v6.06H507.4v-7.06a2.92,2.92,0,0,0-.55-1.94,2.18,2.18,0,0,0-1.74-.65,2.69,2.69,0,0,0-2.26.93,5,5,0,0,0-.71,3v5.69h-1.65V518h1.34l.27,1.48h.08a3.21,3.21,0,0,1,1.3-1.23,4,4,0,0,1,1.9-.45c1.7,0,2.81.62,3.33,1.84h.08a3.48,3.48,0,0,1,1.4-1.34,4.4,4.4,0,0,1,2.1-.5,3.65,3.65,0,0,1,2.75.95,4.18,4.18,0,0,1,.92,3v7.08Zm6.35-14.47.15.22c-.17.66-.42,1.42-.74,2.3s-.66,1.68-1,2.44h-1.21c.46-1.88.8-3.54,1-5Zm3.65,0,.14.22c-.16.6-.39,1.34-.71,2.21s-.66,1.72-1,2.53h-1.24c.18-.66.37-1.5.59-2.52s.37-1.83.45-2.44Z" style="fill:#828282"/><path d="M278.76,718.87a3.8,3.8,0,0,1,3.8-3.8H629.64a3.8,3.8,0,0,1,3.8,3.8v51.94a3.8,3.8,0,0,1-3.8,3.8H282.56a3.8,3.8,0,0,1-3.8-3.8Z" style="fill:#96ce63"/><path d="M445.91,744.24h6v8.18a18,18,0,0,1-2.83.67,19,19,0,0,1-2.92.21,7.35,7.35,0,0,1-5.7-2.19,8.8,8.8,0,0,1-2-6.18,8.19,8.19,0,0,1,2.26-6.14,8.45,8.45,0,0,1,6.22-2.23,12.16,12.16,0,0,1,4.83,1l-.93,2.22a9.42,9.42,0,0,0-4-.92,5.36,5.36,0,0,0-4.12,1.64,6.33,6.33,0,0,0-1.51,4.48,6.69,6.69,0,0,0,1.36,4.54,5,5,0,0,0,3.93,1.55,12.63,12.63,0,0,0,2.76-.33v-4.19h-3.37Zm20.55,2.65a6.72,6.72,0,0,1-1.55,4.71,5.54,5.54,0,0,1-4.31,1.7,5.89,5.89,0,0,1-3.05-.78,5.22,5.22,0,0,1-2-2.24,7.69,7.69,0,0,1-.71-3.39,6.64,6.64,0,0,1,1.54-4.67,5.57,5.57,0,0,1,4.33-1.68,5.42,5.42,0,0,1,4.23,1.72A6.64,6.64,0,0,1,466.46,746.89Zm-9,0q0,4.27,3.15,4.27t3.11-4.27c0-2.81-1-4.22-3.14-4.22a2.7,2.7,0,0,0-2.39,1.1A5.56,5.56,0,0,0,457.5,746.89Zm14.23,1.24H469.8l-.58-11.33h3.08Zm-2.65,3.55a1.68,1.68,0,0,1,.44-1.25,1.66,1.66,0,0,1,1.23-.43,1.59,1.59,0,0,1,1.22.45,1.7,1.7,0,0,1,.42,1.23,1.77,1.77,0,0,1-.43,1.26,1.59,1.59,0,0,1-1.21.46,1.66,1.66,0,0,1-1.23-.45A1.75,1.75,0,0,1,469.08,751.68Z" style="fill:#fff"/><path d="M287.24,479.46V463.19h2.66v14h6.9v2.28Zm14.7,0h-2.62V467.15h2.62Zm-2.77-15.57a1.42,1.42,0,0,1,.38-1.08,1.51,1.51,0,0,1,1.1-.38,1.47,1.47,0,0,1,1.07.38,1.66,1.66,0,0,1,0,2.14,1.47,1.47,0,0,1-1.07.38,1.51,1.51,0,0,1-1.1-.38A1.44,1.44,0,0,1,299.17,463.89Zm17.35,15.57H313.9v-7.57a3.31,3.31,0,0,0-.58-2.12,2.21,2.21,0,0,0-1.82-.7,2.87,2.87,0,0,0-2.42,1,5.32,5.32,0,0,0-.77,3.28v6.13h-2.62V467.15h2.05l.37,1.62h.13a3.64,3.64,0,0,1,1.58-1.36,5.28,5.28,0,0,1,2.27-.48c3,0,4.43,1.5,4.43,4.51Zm6.17-6.5,1.48-1.85,3.72-4h3l-5,5.29,5.27,7h-3.07l-4-5.39-1.43,1.18v4.21h-2.6V462.14h2.6v8.45l-.14,2.37Z" style="fill:#00b9ee"/><path d="M314.77,642.33a7.6,7.6,0,1,1-7.6-7.6A7.61,7.61,0,0,1,314.77,642.33Zm8.69,14.11a2.19,2.19,0,0,0-.63-1.53L317,649.1a11.93,11.93,0,1,0-3.07,3.07l5.82,5.8a2.11,2.11,0,0,0,1.53.64A2.19,2.19,0,0,0,323.46,656.44Z" style="fill:#bdbdbd"/><path d="M294.17,586.84a4.38,4.38,0,0,0-3.61,1.63,8.54,8.54,0,0,0-.05,9,4.45,4.45,0,0,0,3.66,1.54,10,10,0,0,0,2-.2c.65-.14,1.32-.32,2-.54v2.29a12.31,12.31,0,0,1-4.34.72,6.93,6.93,0,0,1-5.49-2.16,9.06,9.06,0,0,1-1.92-6.2,10,10,0,0,1,.93-4.44,6.68,6.68,0,0,1,2.69-2.92,8.18,8.18,0,0,1,4.13-1,10.36,10.36,0,0,1,4.61,1l-1,2.22a13,13,0,0,0-1.75-.68A6.08,6.08,0,0,0,294.17,586.84Zm18.17,8a6.74,6.74,0,0,1-1.55,4.71,5.54,5.54,0,0,1-4.31,1.69,5.89,5.89,0,0,1-3.05-.78,5.17,5.17,0,0,1-2-2.24,7.68,7.68,0,0,1-.71-3.38,6.65,6.65,0,0,1,1.54-4.68,5.57,5.57,0,0,1,4.33-1.68,5.42,5.42,0,0,1,4.23,1.73A6.6,6.6,0,0,1,312.34,594.89Zm-9,0q0,4.26,3.15,4.26t3.11-4.26c0-2.81-1-4.22-3.14-4.22a2.69,2.69,0,0,0-2.39,1.09A5.59,5.59,0,0,0,303.38,594.89ZM324,601.07l-.37-1.62h-.13A3.75,3.75,0,0,1,322,600.8a5.1,5.1,0,0,1-2.29.49,4.5,4.5,0,0,1-3.34-1.11,4.6,4.6,0,0,1-1.11-3.38v-8h2.64v7.59a3.27,3.27,0,0,0,.58,2.12,2.22,2.22,0,0,0,1.82.71,2.89,2.89,0,0,0,2.41-1,5.44,5.44,0,0,0,.78-3.31v-6.13h2.63v12.31Zm16.62,0H338V593.5a3.28,3.28,0,0,0-.58-2.13,2.17,2.17,0,0,0-1.81-.7,2.9,2.9,0,0,0-2.43,1,5.41,5.41,0,0,0-.77,3.28v6.14h-2.61V588.76h2.05l.36,1.61h.14A3.64,3.64,0,0,1,334,589a5.28,5.28,0,0,1,2.27-.48c2.95,0,4.43,1.51,4.43,4.51Zm8.23-1.89a6.34,6.34,0,0,0,1.91-.3v2a5.33,5.33,0,0,1-1.12.31,7.28,7.28,0,0,1-1.42.13q-3.7,0-3.71-3.92v-6.63h-1.69v-1.16l1.81-1,.89-2.6h1.61v2.74h3.51v2h-3.51v6.59a1.88,1.88,0,0,0,.47,1.4A1.76,1.76,0,0,0,348.89,599.18Zm10.63-10.65a6.56,6.56,0,0,1,1.3.11l-.25,2.44a4.91,4.91,0,0,0-1.16-.13,3.37,3.37,0,0,0-2.55,1,3.71,3.71,0,0,0-1,2.66v6.44h-2.62V588.76h2.05l.35,2.17h.13a4.9,4.9,0,0,1,1.59-1.75A3.84,3.84,0,0,1,359.52,588.53Zm1.73.23h2.85l2.5,7a13.38,13.38,0,0,1,.76,2.8h.09a11.5,11.5,0,0,1,.36-1.48c.18-.59,1.12-3.35,2.83-8.3h2.83L368.2,602.7c-.95,2.57-2.55,3.85-4.78,3.85a8,8,0,0,1-1.7-.19v-2.07a6.87,6.87,0,0,0,1.35.13,2.76,2.76,0,0,0,2.66-2.19l.46-1.16Zm33.85,12.31h-3.26l-8-13h-.08l.05.72c.11,1.38.16,2.64.16,3.79v8.46h-2.42V584.79h3.23l8,12.9h.07c0-.17-.05-.79-.09-1.85s-.07-1.92-.07-2.52v-8.53h2.44Zm11.72,0-.52-1.72h-.09a5,5,0,0,1-1.79,1.54,5.69,5.69,0,0,1-2.32.4,3.93,3.93,0,0,1-2.83-1,3.66,3.66,0,0,1-1-2.77,3.23,3.23,0,0,1,1.42-2.87,8.08,8.08,0,0,1,4.3-1.06l2.13-.07v-.65a2.4,2.4,0,0,0-.56-1.76,2.18,2.18,0,0,0-1.7-.59,6.06,6.06,0,0,0-1.81.27,14.5,14.5,0,0,0-1.67.66l-.85-1.87a9,9,0,0,1,2.19-.79,10.32,10.32,0,0,1,2.25-.28,5.25,5.25,0,0,1,3.54,1,4,4,0,0,1,1.2,3.21v8.3Zm-3.89-1.78a3.26,3.26,0,0,0,2.28-.79,2.9,2.9,0,0,0,.87-2.24v-1.07l-1.58.07a5.41,5.41,0,0,0-2.7.62,1.87,1.87,0,0,0-.83,1.68,1.64,1.64,0,0,0,.49,1.28A2.09,2.09,0,0,0,402.93,599.29Zm19.79,1.78h-2.63v-7.59a3.4,3.4,0,0,0-.53-2.11,2,2,0,0,0-1.67-.7,2.57,2.57,0,0,0-2.23,1,5.83,5.83,0,0,0-.7,3.27v6.14h-2.61V588.76h2l.37,1.61h.14a3.37,3.37,0,0,1,1.48-1.36,4.81,4.81,0,0,1,2.15-.48c1.89,0,3.14.65,3.76,1.94h.18A3.78,3.78,0,0,1,424,589a4.9,4.9,0,0,1,2.27-.51,4.1,4.1,0,0,1,3.21,1.12,4.87,4.87,0,0,1,1,3.39v8h-2.61v-7.59a3.33,3.33,0,0,0-.55-2.11,2,2,0,0,0-1.67-.7,2.61,2.61,0,0,0-2.24,1,5,5,0,0,0-.7,2.91Zm16.8.22a6,6,0,0,1-4.5-1.67,6.42,6.42,0,0,1-1.61-4.62,7,7,0,0,1,1.5-4.74,5.19,5.19,0,0,1,4.13-1.73A5.12,5.12,0,0,1,442.9,590a5.68,5.68,0,0,1,1.41,4.08v1.41H436.1a4.05,4.05,0,0,0,1,2.76,3.39,3.39,0,0,0,2.58,1,9.88,9.88,0,0,0,2-.2,10.83,10.83,0,0,0,2-.69v2.13a8,8,0,0,1-1.94.64A11.56,11.56,0,0,1,439.52,601.29ZM439,590.51a2.67,2.67,0,0,0-2,.79,3.81,3.81,0,0,0-.89,2.31h5.59a3.4,3.4,0,0,0-.74-2.31A2.52,2.52,0,0,0,439,590.51Z" style="fill:#00b9ee"/><path d="M219.23,65.25h475V121h-475Z" style="fill:#f8f8f8;fill-opacity:0.800000011920929"/><path d="M229.36,80.45a5.07,5.07,0,0,1,5.07-5.06H679a5.07,5.07,0,0,1,5.07,5.06v25.34a5.06,5.06,0,0,1-5.07,5.06H234.43a5.06,5.06,0,0,1-5.07-5.06Z" style="fill-opacity:0.10000000149011612"/><path d="M346.31,98.19V92.05a2.47,2.47,0,0,0-.52-1.73,2.19,2.19,0,0,0-1.66-.58,2.73,2.73,0,0,0-2.19.82,4.18,4.18,0,0,0-.68,2.67v5h-1.44V84.71h1.44v4.08a9.92,9.92,0,0,1-.07,1.22h.09a2.91,2.91,0,0,1,1.2-1.07,3.84,3.84,0,0,1,1.79-.4,3.67,3.67,0,0,1,2.61.83,3.49,3.49,0,0,1,.87,2.63v6.19Zm7.33-1a4.53,4.53,0,0,0,.74,0,5.72,5.72,0,0,0,.56-.12v1.1a2.26,2.26,0,0,1-.69.18,5.14,5.14,0,0,1-.82.08c-1.83,0-2.75-1-2.75-2.9V89.81h-1.36v-.69l1.36-.6.6-2h.84v2.2h2.75v1.11h-2.75V95.4a2,2,0,0,0,.4,1.32A1.44,1.44,0,0,0,353.64,97.17Zm6.13,0a4.53,4.53,0,0,0,.74,0,5.72,5.72,0,0,0,.56-.12v1.1a2.26,2.26,0,0,1-.69.18,5.14,5.14,0,0,1-.82.08c-1.83,0-2.75-1-2.75-2.9V89.81h-1.36v-.69l1.36-.6.6-2h.84v2.2H361v1.11h-2.75V95.4a2,2,0,0,0,.4,1.32A1.44,1.44,0,0,0,359.77,97.17Zm7.48,1.19a4.13,4.13,0,0,1-1.7-.34,3.24,3.24,0,0,1-1.28-1h-.1a12.49,12.49,0,0,1,.1,1.57v3.91h-1.44V88.7H364l.2,1.3h.07a3.35,3.35,0,0,1,1.29-1.13,4,4,0,0,1,1.69-.35,3.49,3.49,0,0,1,2.91,1.29,6.86,6.86,0,0,1,0,7.26A3.49,3.49,0,0,1,367.25,98.36ZM367,89.74a2.53,2.53,0,0,0-2.1.81,4.15,4.15,0,0,0-.67,2.56v.32a4.73,4.73,0,0,0,.67,2.87,2.55,2.55,0,0,0,2.14.86,2.2,2.2,0,0,0,1.92-1,4.67,4.67,0,0,0,.7-2.74,4.48,4.48,0,0,0-.7-2.72A2.27,2.27,0,0,0,367,89.74Zm6.32,7.53a1.32,1.32,0,0,1,.26-.88,1,1,0,0,1,.76-.3,1,1,0,0,1,.78.3,1.23,1.23,0,0,1,.29.88,1.25,1.25,0,0,1-.29.87,1.14,1.14,0,0,1-1.51,0A1.2,1.2,0,0,1,373.36,97.27Zm0-7.65q0-1.17,1-1.17c.71,0,1.07.39,1.07,1.17a1.22,1.22,0,0,1-.29.87,1.14,1.14,0,0,1-1.51,0A1.2,1.2,0,0,1,373.36,89.62Zm9.6-4.09-4.71,12.66h-1.44l4.72-12.66Zm6.38,0-4.72,12.66h-1.44l4.72-12.66Zm9.31,12.66-1.74-5.57c-.11-.34-.31-1.11-.61-2.32h-.07c-.23,1-.43,1.79-.61,2.34l-1.79,5.55h-1.66l-2.59-9.49h1.51c.61,2.38,1.07,4.2,1.39,5.44a21.08,21.08,0,0,1,.55,2.52h.07c.07-.33.17-.75.31-1.27s.26-.94.37-1.25l1.74-5.44h1.56l1.69,5.44a16.92,16.92,0,0,1,.66,2.51h.07c0-.21.09-.53.18-1s.71-2.76,1.81-7H403l-2.62,9.49Zm13.67,0-1.74-5.57c-.11-.34-.32-1.11-.62-2.32h-.07q-.34,1.52-.6,2.34l-1.8,5.55h-1.66l-2.59-9.49h1.51c.61,2.38,1.08,4.2,1.39,5.44a21.84,21.84,0,0,1,.56,2.52h.07c.06-.33.16-.75.3-1.27s.27-.94.37-1.25l1.74-5.44h1.56l1.7,5.44a19.84,19.84,0,0,1,.66,2.51h.07a8.55,8.55,0,0,1,.18-1q.15-.65,1.81-7h1.49L414,98.19Zm13.66,0-1.74-5.57c-.11-.34-.32-1.11-.62-2.32h-.06c-.24,1-.44,1.79-.61,2.34l-1.79,5.55h-1.67l-2.58-9.49h1.5l1.4,5.44a23.4,23.4,0,0,1,.55,2.52h.07c.06-.33.16-.75.3-1.27s.27-.94.37-1.25l1.75-5.44h1.55l1.7,5.44a19.84,19.84,0,0,1,.66,2.51h.07a8.55,8.55,0,0,1,.18-1c.1-.43.71-2.76,1.81-7h1.49l-2.62,9.49Zm5.71-.92a1.27,1.27,0,0,1,.26-.88,1,1,0,0,1,.76-.3,1,1,0,0,1,.78.3,1.22,1.22,0,0,1,.28.88,1.25,1.25,0,0,1-.28.87,1,1,0,0,1-.78.3,1.05,1.05,0,0,1-.74-.27A1.2,1.2,0,0,1,431.69,97.27Zm6.23.92h-1.44V84.71h1.44Zm4.35,0h-1.44V88.7h1.44Zm-1.56-12.06a1,1,0,0,1,.24-.72.82.82,0,0,1,.61-.24.81.81,0,0,1,.59.24.91.91,0,0,1,.25.72.94.94,0,0,1-.25.72.81.81,0,0,1-.59.24.82.82,0,0,1-.61-.24A1,1,0,0,1,440.71,86.13Zm11,12.06V92.05a2.47,2.47,0,0,0-.53-1.73,2.15,2.15,0,0,0-1.65-.58,2.74,2.74,0,0,0-2.19.81,4.08,4.08,0,0,0-.69,2.66v5h-1.44V88.7h1.17l.24,1.3h.07a2.9,2.9,0,0,1,1.23-1.09,4,4,0,0,1,1.78-.39,3.58,3.58,0,0,1,2.58.84,3.47,3.47,0,0,1,.87,2.64v6.19Zm5.68-4.86c.25-.35.62-.81,1.13-1.39l3.07-3.24h1.7l-3.84,4,4.11,5.45h-1.74l-3.35-4.49-1.08.94v3.55h-1.42V84.71h1.42v7.15c0,.32,0,.81-.07,1.47Zm11.77,5a4.38,4.38,0,0,1-3.33-1.28,5,5,0,0,1-1.21-3.56,5.55,5.55,0,0,1,1.12-3.65,3.77,3.77,0,0,1,3-1.35,3.58,3.58,0,0,1,2.82,1.18,4.45,4.45,0,0,1,1,3.09v.91h-6.53a3.79,3.79,0,0,0,.84,2.54,2.91,2.91,0,0,0,2.26.86,7.6,7.6,0,0,0,3-.64v1.29a7.1,7.1,0,0,1-1.45.46A7.6,7.6,0,0,1,469.12,98.36Zm-.4-8.63a2.36,2.36,0,0,0-1.82.74,3.47,3.47,0,0,0-.8,2.06h5a3.18,3.18,0,0,0-.6-2.08A2.15,2.15,0,0,0,468.72,89.73Zm8.49,3.6-3.3-4.63h1.64l2.5,3.63,2.49-3.63h1.62l-3.3,4.63,3.48,4.86h-1.63l-2.66-3.85-2.68,3.85h-1.63Zm11.29,5a4.13,4.13,0,0,1-1.7-.34,3.31,3.31,0,0,1-1.28-1h-.1a12.49,12.49,0,0,1,.1,1.57v3.91h-1.43V88.7h1.16l.2,1.3h.07a3.35,3.35,0,0,1,1.29-1.13,4,4,0,0,1,1.69-.35,3.49,3.49,0,0,1,2.91,1.29,6.86,6.86,0,0,1,0,7.26A3.49,3.49,0,0,1,488.5,98.36Zm-.21-8.62a2.53,2.53,0,0,0-2.1.81,4.15,4.15,0,0,0-.67,2.56v.32a4.73,4.73,0,0,0,.67,2.87,2.55,2.55,0,0,0,2.14.86,2.2,2.2,0,0,0,1.92-1,4.67,4.67,0,0,0,.7-2.74,4.48,4.48,0,0,0-.7-2.72A2.27,2.27,0,0,0,488.29,89.74Zm8,8.45h-1.44V84.71h1.44Zm11.1-4.76a5.25,5.25,0,0,1-1.17,3.63,4.12,4.12,0,0,1-3.23,1.3,4.27,4.27,0,0,1-2.26-.6,3.9,3.9,0,0,1-1.52-1.71,6,6,0,0,1-.54-2.62,5.24,5.24,0,0,1,1.16-3.61,4.12,4.12,0,0,1,3.22-1.3,4,4,0,0,1,3.16,1.33A5.17,5.17,0,0,1,507.36,93.43Zm-7.23,0a4.44,4.44,0,0,0,.73,2.77,2.49,2.49,0,0,0,2.13,1,2.52,2.52,0,0,0,2.14-1,4.47,4.47,0,0,0,.74-2.78,4.37,4.37,0,0,0-.74-2.74,2.91,2.91,0,0,0-4.28,0A4.46,4.46,0,0,0,500.13,93.43Zm14-4.91a5.48,5.48,0,0,1,1.13.11L515,90a4.68,4.68,0,0,0-1-.13,2.53,2.53,0,0,0-2,.94,3.43,3.43,0,0,0-.81,2.33v5.09h-1.44V88.7h1.18l.17,1.75h.07A4.1,4.1,0,0,1,512.44,89,2.84,2.84,0,0,1,514.08,88.52Zm6.78,9.84a4.4,4.4,0,0,1-3.33-1.28,5,5,0,0,1-1.21-3.56,5.6,5.6,0,0,1,1.12-3.65,3.77,3.77,0,0,1,3-1.35,3.62,3.62,0,0,1,2.83,1.18,4.49,4.49,0,0,1,1,3.09v.91h-6.54a3.79,3.79,0,0,0,.84,2.54,2.93,2.93,0,0,0,2.26.86,7.6,7.6,0,0,0,3-.64v1.29a7.1,7.1,0,0,1-1.45.46A7.6,7.6,0,0,1,520.86,98.36Zm-.39-8.63a2.38,2.38,0,0,0-1.83.74,3.47,3.47,0,0,0-.8,2.06h5a3.18,3.18,0,0,0-.61-2.08A2.14,2.14,0,0,0,520.47,89.73ZM531,88.52a5.48,5.48,0,0,1,1.13.11l-.2,1.33a4.68,4.68,0,0,0-1-.13,2.52,2.52,0,0,0-2,.94,3.43,3.43,0,0,0-.82,2.33v5.09h-1.43V88.7h1.18l.17,1.75h.07A4.1,4.1,0,0,1,529.36,89,2.84,2.84,0,0,1,531,88.52Zm2.56,8.75a1.27,1.27,0,0,1,.26-.88,1,1,0,0,1,.76-.3,1,1,0,0,1,.78.3,1.22,1.22,0,0,1,.28.88,1.25,1.25,0,0,1-.28.87,1,1,0,0,1-.78.3,1.07,1.07,0,0,1-.74-.27A1.2,1.2,0,0,1,533.56,97.27Zm8.59,1.09A4.09,4.09,0,0,1,539,97.1a5.26,5.26,0,0,1-1.12-3.6A5.42,5.42,0,0,1,539,89.82a4.17,4.17,0,0,1,3.27-1.3,6.32,6.32,0,0,1,1.37.15,4.18,4.18,0,0,1,1.07.35l-.44,1.22a5.79,5.79,0,0,0-1-.31,4.21,4.21,0,0,0-1-.13q-2.9,0-2.89,3.69a4.39,4.39,0,0,0,.7,2.68,2.46,2.46,0,0,0,2.09.93,6.43,6.43,0,0,0,2.44-.51v1.28A5.21,5.21,0,0,1,542.15,98.36Zm12.71-4.93a5.25,5.25,0,0,1-1.17,3.63,4.12,4.12,0,0,1-3.23,1.3,4.27,4.27,0,0,1-2.26-.6,3.9,3.9,0,0,1-1.52-1.71,6,6,0,0,1-.54-2.62,5.19,5.19,0,0,1,1.16-3.61,4.12,4.12,0,0,1,3.22-1.3,4,4,0,0,1,3.16,1.33A5.17,5.17,0,0,1,554.86,93.43Zm-7.23,0a4.51,4.51,0,0,0,.72,2.77,2.88,2.88,0,0,0,4.28,0,4.47,4.47,0,0,0,.74-2.78,4.37,4.37,0,0,0-.74-2.74,2.91,2.91,0,0,0-4.28,0A4.46,4.46,0,0,0,547.63,93.43Zm21.71,4.76V92a2.54,2.54,0,0,0-.48-1.69,1.88,1.88,0,0,0-1.51-.58,2.42,2.42,0,0,0-2,.78,3.63,3.63,0,0,0-.64,2.37v5.3h-1.44V92a2.54,2.54,0,0,0-.48-1.69,1.9,1.9,0,0,0-1.52-.58,2.36,2.36,0,0,0-2,.82,4.36,4.36,0,0,0-.63,2.65v5h-1.43V88.7h1.17l.23,1.3h.07a2.79,2.79,0,0,1,1.14-1.09,3.53,3.53,0,0,1,1.66-.39,2.81,2.81,0,0,1,2.91,1.61h.07A3.15,3.15,0,0,1,565.73,89a3.82,3.82,0,0,1,1.84-.44,3.19,3.19,0,0,1,2.41.84,3.67,3.67,0,0,1,.8,2.64v6.19Z" style="fill:#8e8e93"/><path d="M219.23,121h475v1.26h-475Z" style="fill-opacity:0.30000001192092896"/><g style="clip-path:url(#d)"><path d="M219.23,39.92h475V65.25h-475Z" style="fill:#e3e4e4"/><path d="M625.53,49.49l-1.91.56-.24-.59,2.47-1.29h.75v9.48h-1.07Zm7.91-1.37a2.39,2.39,0,0,1,2.16,1.29,7,7,0,0,1,.77,3.56,7,7,0,0,1-.76,3.59,2.39,2.39,0,0,1-2.17,1.26,2.42,2.42,0,0,1-2.18-1.26A7.08,7.08,0,0,1,630.5,53a7.13,7.13,0,0,1,.76-3.56A2.43,2.43,0,0,1,633.44,48.12Zm0,.93a1.49,1.49,0,0,0-1.35,1.06A6.84,6.84,0,0,0,631.6,53a9.19,9.19,0,0,0,.14,1.75L635,50.55a2.57,2.57,0,0,0-.63-1.11A1.2,1.2,0,0,0,633.44,49.05Zm0,7.84a1.49,1.49,0,0,0,1.35-1,6.76,6.76,0,0,0,.49-2.9,9.48,9.48,0,0,0-.11-1.52L632,55.56C632.27,56.45,632.77,56.89,633.44,56.89Zm7.6-8.77a2.39,2.39,0,0,1,2.16,1.29A7,7,0,0,1,644,53a7,7,0,0,1-.76,3.59A2.39,2.39,0,0,1,641,57.82a2.42,2.42,0,0,1-2.18-1.26A7.08,7.08,0,0,1,638.1,53a7.13,7.13,0,0,1,.76-3.56A2.43,2.43,0,0,1,641,48.12Zm0,.93a1.49,1.49,0,0,0-1.35,1.06A6.84,6.84,0,0,0,639.2,53a9.19,9.19,0,0,0,.14,1.75l3.22-4.17a2.67,2.67,0,0,0-.62-1.11A1.24,1.24,0,0,0,641,49.05Zm0,7.84a1.49,1.49,0,0,0,1.35-1,6.76,6.76,0,0,0,.49-2.9,9.48,9.48,0,0,0-.11-1.52l-3.22,4.11C639.87,56.45,640.37,56.89,641,56.89ZM647,52a1.45,1.45,0,0,1-.85-.26,1.74,1.74,0,0,1-.63-.71,2.25,2.25,0,0,1-.23-1,2.19,2.19,0,0,1,.23-1,1.74,1.74,0,0,1,.63-.71A1.46,1.46,0,0,1,647,48a1.5,1.5,0,0,1,.85.27,1.79,1.79,0,0,1,.62.71,2.27,2.27,0,0,1,.23,1,2.11,2.11,0,0,1-.49,1.43A1.56,1.56,0,0,1,647,52Zm3.81-3.8h.87l-5.29,9.47h-.82Zm-3.81,3a.64.64,0,0,0,.53-.29,1.53,1.53,0,0,0,.21-.9,1.37,1.37,0,0,0-.23-.89.65.65,0,0,0-.54-.29.66.66,0,0,0-.54.29,1.52,1.52,0,0,0-.21.89,1.49,1.49,0,0,0,.23.9A.68.68,0,0,0,647,51.18Zm3.51,6.62a1.51,1.51,0,0,1-.85-.25,1.93,1.93,0,0,1-.63-.7,2.26,2.26,0,0,1-.22-1,2.11,2.11,0,0,1,.22-1,1.78,1.78,0,0,1,.63-.72,1.46,1.46,0,0,1,.85-.27,1.48,1.48,0,0,1,1.18.58,2,2,0,0,1,.51,1.39,2.27,2.27,0,0,1-.23,1,1.85,1.85,0,0,1-.63.7A1.45,1.45,0,0,1,650.48,57.8Zm0-.76a.64.64,0,0,0,.55-.3,1.46,1.46,0,0,0,.23-.88A1.54,1.54,0,0,0,651,55a.65.65,0,0,0-.58-.35.67.67,0,0,0-.56.31,1.79,1.79,0,0,0,0,1.79A.71.71,0,0,0,650.49,57Z"/><path d="M656.87,56.4a1.9,1.9,0,0,0,1.9,1.89h23.44a1.9,1.9,0,0,0,1.9-1.89v-7a1.9,1.9,0,0,0-1.9-1.89H658.77a1.9,1.9,0,0,0-1.9,1.89Zm1.9-9.51h23.44a2.52,2.52,0,0,1,2.53,2.52v7a2.53,2.53,0,0,1-2.53,2.52H658.77a2.52,2.52,0,0,1-2.53-2.52v-7A2.52,2.52,0,0,1,658.77,46.89Zm-1.26,2.53a1.26,1.26,0,0,1,1.26-1.27h23.44a1.26,1.26,0,0,1,1.26,1.27v7a1.25,1.25,0,0,1-1.26,1.26H658.77a1.25,1.25,0,0,1-1.26-1.26ZM686,50.69h-.64v4.43H686a1.26,1.26,0,0,0,1.26-1.27V52A1.25,1.25,0,0,0,686,50.69Z"/><g style="opacity:0.4000000059604645"><path d="M605.52,49l-5.32-5.24h-.33v7.22l-3.41-3.78-1,1.09,4.34,4.34-4.34,4.33,1,1.09,3.41-3.78v7.22h.43l5.27-5.25L602,52.59Zm-4.38,2V47l2.24,2Zm0,3.29,2.27,2-2.27,2Z"/></g><path d="M339.56,48.8A9.76,9.76,0,0,1,346,51.18l1.19-1.31a11.2,11.2,0,0,0-15.2,0l1.19,1.31A9.82,9.82,0,0,1,339.56,48.8Zm-.1,5.65a4.13,4.13,0,0,0-2.6,1l2.6,2.86,2.59-2.86A4.1,4.1,0,0,0,339.46,54.45Zm3.92-.46a6,6,0,0,0-7.71,0l-1.26-1.39a7.73,7.73,0,0,1,10.23,0Z"/><path d="M433.31,51.38l-1.63.49-.4-1,2.56-1.38H435v9.47h-1.67Zm8,3a1.21,1.21,0,0,1-.55-.14,1.15,1.15,0,0,1-.41-.38.93.93,0,0,1-.16-.52.86.86,0,0,1,.16-.51,1.07,1.07,0,0,1,.41-.38,1.1,1.1,0,0,1,.55-.14,1.23,1.23,0,0,1,1,.5.93.93,0,0,1,.17.53,1,1,0,0,1-.16.52,1.11,1.11,0,0,1-.42.38A1.23,1.23,0,0,1,441.27,54.38Zm0,4.74a1.19,1.19,0,0,1-.56-.14,1,1,0,0,1-.41-.37,1,1,0,0,1-.15-.51.87.87,0,0,1,.16-.52,1,1,0,0,1,.41-.39,1.21,1.21,0,0,1,.55-.14,1.14,1.14,0,0,1,.54.14,1.16,1.16,0,0,1,.44.38.9.9,0,0,1,.17.53,1,1,0,0,1-.16.51,1.17,1.17,0,0,1-.42.37A1.2,1.2,0,0,1,441.27,59.12Zm4.93-1.45c1.22-1.17,2.1-2,2.63-2.6a8.44,8.44,0,0,0,1.22-1.55,3,3,0,0,0,.42-1.49,1.23,1.23,0,0,0-.38-1,1.41,1.41,0,0,0-1-.35,2,2,0,0,0-1.53.59,1.16,1.16,0,0,0-.19.24.54.54,0,0,0-.05.21v.08l-.11.14-.1-.08L446,51.06a4,4,0,0,1,1.34-1.35,3.45,3.45,0,0,1,1.79-.48,3.16,3.16,0,0,1,1.52.36,2.57,2.57,0,0,1,1.06,1,2.68,2.68,0,0,1,.38,1.45,3.29,3.29,0,0,1-.38,1.55,7.19,7.19,0,0,1-1,1.44c-.41.46-1,1.1-1.82,1.9l-.61.6h3.09l.36,0a.53.53,0,0,0,.21-.11h.17v1.54H446.2Zm10.53-8.4a2.76,2.76,0,0,1,1.77.59,3.65,3.65,0,0,1,1.12,1.7,9.4,9.4,0,0,1,0,5.36,3.65,3.65,0,0,1-1.12,1.7,2.94,2.94,0,0,1-3.53,0,3.66,3.66,0,0,1-1.13-1.7,9.4,9.4,0,0,1,0-5.36,3.66,3.66,0,0,1,1.13-1.7A2.75,2.75,0,0,1,456.73,49.27Zm0,1.37a1.14,1.14,0,0,0-.89.43,2.94,2.94,0,0,0-.57,1.23,8.37,8.37,0,0,0-.19,1.94,10.55,10.55,0,0,0,.06,1.13l2.93-3.48a2.32,2.32,0,0,0-.55-.93A1.14,1.14,0,0,0,456.73,50.64Zm0,7.2a1.11,1.11,0,0,0,.89-.43,2.86,2.86,0,0,0,.57-1.24,8.29,8.29,0,0,0,.2-1.93,8.87,8.87,0,0,0-.07-1.21l-2.95,3.5a2.52,2.52,0,0,0,.55,1A1.17,1.17,0,0,0,456.73,57.84Zm12.16-8.39h3.21a3.81,3.81,0,0,1,1.8.38,2.36,2.36,0,0,1,1.05,1,3.16,3.16,0,0,1,0,2.87,2.39,2.39,0,0,1-1,1,3.81,3.81,0,0,1-1.75.36h-1.55v3.83h-1.74Zm3.16,4.19a1.57,1.57,0,0,0,1.12-.35,1.26,1.26,0,0,0,.37-.95,1.38,1.38,0,0,0-.37-1,1.49,1.49,0,0,0-1.1-.37h-1.44v2.68Zm4.14-4.19H478l1.6,4.45,1.58-4.47H483v9.49h-1.54V52.05l-1.32,3.57H479l-1.27-3.57v6.87h-1.52Z"/><path d="M234.43,52.9a3.49,3.49,0,1,1-3.49-3.48A3.49,3.49,0,0,1,234.43,52.9Zm5.38,3.49a3.49,3.49,0,1,0-3.48-3.49A3.48,3.48,0,0,0,239.81,56.39Zm12.35-3.49a3.49,3.49,0,1,1-3.48-3.48A3.48,3.48,0,0,1,252.16,52.9Zm5.38,3.49a3.49,3.49,0,1,0-3.48-3.49A3.49,3.49,0,0,0,257.54,56.39Zm11.72-3.49a2.85,2.85,0,1,0-2.85,2.85A2.85,2.85,0,0,0,269.26,52.9Zm-6.33,0a3.48,3.48,0,1,1,3.48,3.49A3.48,3.48,0,0,1,262.93,52.9Z"/></g><path d="M293.66,292l-6.53-21.28H287q.36,6.5.36,8.67V292h-5.14V264.87H290l6.42,20.74h.11l6.81-20.74h7.83V292h-5.37V279.15c0-.6,0-1.3,0-2.09s.11-2.9.26-6.31h-.16l-7,21.24Zm37.09,0-1.09-2.82h-.15a8.46,8.46,0,0,1-2.95,2.51,9.5,9.5,0,0,1-3.93.68,6.44,6.44,0,0,1-4.72-1.7,6.57,6.57,0,0,1-1.7-4.86,5.45,5.45,0,0,1,2.3-4.87c1.54-1.05,3.87-1.63,7-1.74l3.6-.11v-.91c0-2.1-1.07-3.16-3.23-3.16a14.79,14.79,0,0,0-5.84,1.51l-1.87-3.82a16.82,16.82,0,0,1,7.94-1.88,9.92,9.92,0,0,1,6.4,1.82,6.74,6.74,0,0,1,2.23,5.53V292Zm-1.67-9.61-2.19.08a6.86,6.86,0,0,0-3.67.89,2.8,2.8,0,0,0-1.21,2.48c0,1.6.92,2.4,2.75,2.4a4.31,4.31,0,0,0,3.14-1.14,3.94,3.94,0,0,0,1.18-3Zm22.86,10a6.88,6.88,0,0,1-5.73-2.65h-.3c.2,1.73.3,2.73.3,3v8.4h-5.66V271.25h4.6l.8,2.69h.26a6.54,6.54,0,0,1,5.88-3.08,6.7,6.7,0,0,1,5.75,2.84q2.09,2.83,2.08,7.88a15.52,15.52,0,0,1-1,5.77,8,8,0,0,1-2.77,3.73A7.06,7.06,0,0,1,351.94,292.36Zm-1.67-17a3.58,3.58,0,0,0-3.06,1.29,7.36,7.36,0,0,0-1,4.25v.62a8.84,8.84,0,0,0,1,4.78,3.56,3.56,0,0,0,3.16,1.45q3.79,0,3.8-6.27a8.71,8.71,0,0,0-.95-4.58A3.15,3.15,0,0,0,350.27,275.39ZM387.64,292l-1.09-2.82h-.15a8.46,8.46,0,0,1-2.95,2.51,9.5,9.5,0,0,1-3.93.68,6.44,6.44,0,0,1-4.72-1.7,6.61,6.61,0,0,1-1.7-4.86,5.45,5.45,0,0,1,2.3-4.87c1.54-1.05,3.87-1.63,7-1.74l3.6-.11v-.91c0-2.1-1.07-3.16-3.23-3.16a14.79,14.79,0,0,0-5.84,1.51L375,272.7a16.82,16.82,0,0,1,7.94-1.88,9.92,9.92,0,0,1,6.4,1.82,6.74,6.74,0,0,1,2.23,5.53V292ZM386,282.38l-2.19.08a6.86,6.86,0,0,0-3.67.89,2.8,2.8,0,0,0-1.21,2.48c0,1.6.92,2.4,2.75,2.4a4.31,4.31,0,0,0,3.14-1.14,3.94,3.94,0,0,0,1.18-3Zm35.81,3.45a5.7,5.7,0,0,1-2.22,4.86c-1.47,1.12-3.68,1.67-6.63,1.67a20.35,20.35,0,0,1-3.86-.31,14.74,14.74,0,0,1-3-.89v-4.68a19.8,19.8,0,0,0,3.54,1.25,14.7,14.7,0,0,0,3.49.5c2.05,0,3.08-.6,3.08-1.79a1.46,1.46,0,0,0-.41-1.07,5.44,5.44,0,0,0-1.41-.95c-.67-.36-1.56-.77-2.67-1.24a17.18,17.18,0,0,1-3.53-1.86,5.4,5.4,0,0,1-1.63-1.94,6.76,6.76,0,0,1-.5-2.73,4.91,4.91,0,0,1,2.13-4.27,10.5,10.5,0,0,1,6.09-1.52,17.2,17.2,0,0,1,7.29,1.63l-1.7,4.08a31,31,0,0,0-2.92-1.09,8.94,8.94,0,0,0-2.76-.43c-1.67,0-2.51.45-2.51,1.36a1.6,1.6,0,0,0,.8,1.31,22.45,22.45,0,0,0,3.54,1.66,16.16,16.16,0,0,1,3.57,1.83,5.53,5.53,0,0,1,1.67,2A6,6,0,0,1,421.78,285.83ZM445.35,292h-5.66V279.88c0-3-1.11-4.49-3.34-4.49a3.78,3.78,0,0,0-3.43,1.61,9.81,9.81,0,0,0-1.06,5.23V292H426.2V263.12h5.66V269c0,.46,0,1.54-.13,3.23l-.13,1.67h.3a6.54,6.54,0,0,1,6-3,7.32,7.32,0,0,1,5.55,2,7.82,7.82,0,0,1,1.89,5.64Zm10.34-10.41a8.75,8.75,0,0,0,1,4.66,3.64,3.64,0,0,0,3.3,1.58,3.55,3.55,0,0,0,3.25-1.56,8.8,8.8,0,0,0,1-4.68,8.57,8.57,0,0,0-1-4.62,3.65,3.65,0,0,0-3.29-1.54,3.61,3.61,0,0,0-3.26,1.54A8.52,8.52,0,0,0,455.69,281.58Zm14.34,0q0,5.07-2.67,7.93a9.73,9.73,0,0,1-7.44,2.85,10.5,10.5,0,0,1-5.27-1.29,8.77,8.77,0,0,1-3.51-3.77,12.58,12.58,0,0,1-1.23-5.72q0-5.08,2.66-7.9a9.74,9.74,0,0,1,7.46-2.82,10.43,10.43,0,0,1,5.27,1.3,8.6,8.6,0,0,1,3.5,3.73A12.46,12.46,0,0,1,470,281.58Zm16.25-10.72a8.48,8.48,0,0,1,1.91.17l-.42,5.3a6.72,6.72,0,0,0-1.67-.18,6,6,0,0,0-4.23,1.39,5,5,0,0,0-1.51,3.89V292h-5.65V271.25H479l.84,3.49h.27a7.81,7.81,0,0,1,2.6-2.81A6.5,6.5,0,0,1,486.28,270.86Zm14.42,17a12.32,12.32,0,0,0,3.56-.65v4.21a12.7,12.7,0,0,1-5.19.94q-3.4,0-5-1.7a7.57,7.57,0,0,1-1.54-5.16v-10h-2.71v-2.4l3.12-1.89,1.63-4.38h3.62v4.42H504v4.25h-5.81v10a2.24,2.24,0,0,0,.67,1.78A2.74,2.74,0,0,0,500.7,287.86ZM524,292h-5.66V263.12H524Zm5.71-26.1c0-1.85,1-2.77,3.08-2.77s3.08.92,3.08,2.77a2.73,2.73,0,0,1-.78,2.06,3.24,3.24,0,0,1-2.3.72C530.75,268.67,529.72,267.74,529.72,265.89Zm5.9,26.1H530V271.25h5.66Zm25.11,0h-5.66V279.88a5.78,5.78,0,0,0-.8-3.36,2.88,2.88,0,0,0-2.54-1.13,3.83,3.83,0,0,0-3.44,1.59q-1,1.57-1,5.25V292h-5.66V271.25h4.32l.76,2.65H547a5.93,5.93,0,0,1,2.59-2.26,8.89,8.89,0,0,1,3.79-.78,7.2,7.2,0,0,1,5.49,2,7.79,7.79,0,0,1,1.88,5.64ZM572,280.71l2.47-3.15,5.8-6.31h6.39l-8.24,9L587.15,292h-6.53l-6-8.4-2.43,2V292h-5.66V263.12h5.66V276l-.29,4.71Z" style="fill:#00b9ee"/><path d="M290.18,344.66a4,4,0,0,1-1.55,3.35,6.72,6.72,0,0,1-4.24,1.21,10.56,10.56,0,0,1-4.45-.75v-1.82a11.81,11.81,0,0,0,2.18.66,11.09,11.09,0,0,0,2.34.25,4.79,4.79,0,0,0,2.85-.71,2.38,2.38,0,0,0,1-2,2.52,2.52,0,0,0-.35-1.38,3.05,3.05,0,0,0-1.13-1,16.33,16.33,0,0,0-2.42-1,7.78,7.78,0,0,1-3.25-1.92,4.3,4.3,0,0,1-1-2.91,3.59,3.59,0,0,1,1.42-3,5.89,5.89,0,0,1,3.74-1.12,11.07,11.07,0,0,1,4.46.89l-.59,1.65a10.14,10.14,0,0,0-3.92-.84,3.81,3.81,0,0,0-2.35.64,2.13,2.13,0,0,0-.84,1.79,2.79,2.79,0,0,0,.31,1.4,3.15,3.15,0,0,0,1.05,1,14.42,14.42,0,0,0,2.27,1,9,9,0,0,1,3.52,2A3.84,3.84,0,0,1,290.18,344.66Zm8.21,4.56a5.64,5.64,0,0,1-4.28-1.65,6.39,6.39,0,0,1-1.55-4.58,7.09,7.09,0,0,1,1.44-4.68,4.84,4.84,0,0,1,3.91-1.74,4.59,4.59,0,0,1,3.63,1.51,5.79,5.79,0,0,1,1.34,4v1.17h-8.41a4.88,4.88,0,0,0,1.08,3.26,3.78,3.78,0,0,0,2.91,1.11,9.78,9.78,0,0,0,3.89-.82v1.65a9.52,9.52,0,0,1-1.86.6A10.46,10.46,0,0,1,298.39,349.22Zm-.5-11.1a3.07,3.07,0,0,0-2.35.95,4.5,4.5,0,0,0-1,2.65h6.38a4,4,0,0,0-.78-2.67A2.72,2.72,0,0,0,297.89,338.12Zm13.3,11.1a5.6,5.6,0,0,1-4.27-1.65,6.39,6.39,0,0,1-1.56-4.58,7,7,0,0,1,1.45-4.68,4.82,4.82,0,0,1,3.9-1.74,4.59,4.59,0,0,1,3.63,1.51,5.79,5.79,0,0,1,1.34,4v1.17h-8.41a4.88,4.88,0,0,0,1.08,3.26,3.78,3.78,0,0,0,2.91,1.11,9.86,9.86,0,0,0,3.9-.82v1.65a10,10,0,0,1-1.86.6A10.49,10.49,0,0,1,311.19,349.22Zm-.5-11.1a3.07,3.07,0,0,0-2.35.95,4.43,4.43,0,0,0-1,2.65h6.38a4,4,0,0,0-.78-2.67A2.74,2.74,0,0,0,310.69,338.12Zm24,10.87-2.24-7.15c-.14-.44-.4-1.44-.79-3h-.09c-.3,1.3-.56,2.3-.78,3l-2.3,7.13h-2.14l-3.33-12.2H325c.78,3.07,1.38,5.4,1.79,7a26.71,26.71,0,0,1,.71,3.24h.09c.08-.43.21-1,.39-1.64s.35-1.21.48-1.6l2.24-7h2l2.18,7a23,23,0,0,1,.85,3.21h.09c0-.26.11-.68.23-1.23s.91-3.55,2.33-9h1.91L336.92,349Zm16.13,0V341.1a3.22,3.22,0,0,0-.68-2.23,2.76,2.76,0,0,0-2.13-.73,3.48,3.48,0,0,0-2.81,1.05,5.29,5.29,0,0,0-.88,3.43V349h-1.85V331.67h1.85v5.25a11.11,11.11,0,0,1-.09,1.56h.11a3.79,3.79,0,0,1,1.55-1.38,5,5,0,0,1,2.3-.51,4.68,4.68,0,0,1,3.35,1.07,4.45,4.45,0,0,1,1.13,3.37v8Zm10.81.23a5.64,5.64,0,0,1-4.28-1.65,6.43,6.43,0,0,1-1.55-4.58,7.09,7.09,0,0,1,1.44-4.68,4.86,4.86,0,0,1,3.91-1.74,4.59,4.59,0,0,1,3.63,1.51,5.79,5.79,0,0,1,1.34,4v1.17h-8.41a4.88,4.88,0,0,0,1.08,3.26,3.78,3.78,0,0,0,2.91,1.11,9.78,9.78,0,0,0,3.89-.82v1.65a9.52,9.52,0,0,1-1.86.6A10.46,10.46,0,0,1,361.67,349.22Zm-.5-11.1a3.07,3.07,0,0,0-2.35.95,4.43,4.43,0,0,0-1,2.65h6.37a4.1,4.1,0,0,0-.77-2.67A2.76,2.76,0,0,0,361.17,338.12Zm13.71-1.55a7.14,7.14,0,0,1,1.46.13l-.25,1.72a6.45,6.45,0,0,0-1.34-.17,3.28,3.28,0,0,0-2.54,1.2,4.43,4.43,0,0,0-1,3V349h-1.85v-12.2h1.52l.21,2.26h.09a5.44,5.44,0,0,1,1.64-1.83A3.69,3.69,0,0,1,374.88,336.57Zm8.9,12.65a5.6,5.6,0,0,1-4.27-1.65A6.39,6.39,0,0,1,378,343a7.09,7.09,0,0,1,1.44-4.68,4.86,4.86,0,0,1,3.91-1.74,4.59,4.59,0,0,1,3.63,1.51,5.79,5.79,0,0,1,1.34,4v1.17h-8.41a4.88,4.88,0,0,0,1.08,3.26,3.78,3.78,0,0,0,2.91,1.11,9.78,9.78,0,0,0,3.89-.82v1.65a9.52,9.52,0,0,1-1.86.6A10.39,10.39,0,0,1,383.78,349.22Zm-.5-11.1a3.07,3.07,0,0,0-2.35.95,4.43,4.43,0,0,0-1,2.65h6.38a4,4,0,0,0-.78-2.67A2.76,2.76,0,0,0,383.28,338.12ZM404.86,349l-.37-1.73h-.09a5.3,5.3,0,0,1-1.83,1.56,5.68,5.68,0,0,1-2.26.4,4.07,4.07,0,0,1-2.85-.94,3.42,3.42,0,0,1-1-2.66q0-3.69,5.91-3.87l2.07-.07v-.76a3.07,3.07,0,0,0-.62-2.11,2.52,2.52,0,0,0-2-.69,8.06,8.06,0,0,0-3.45.93l-.57-1.41a8.78,8.78,0,0,1,2-.77,8.43,8.43,0,0,1,2.16-.28,4.67,4.67,0,0,1,3.23,1,4.06,4.06,0,0,1,1.05,3.11V349Zm-4.18-1.3a3.76,3.76,0,0,0,2.71-.94,3.51,3.51,0,0,0,1-2.65V343l-1.85.08a6.71,6.71,0,0,0-3.19.69,2.06,2.06,0,0,0-1,1.88,1.92,1.92,0,0,0,.6,1.53A2.52,2.52,0,0,0,400.68,347.69Zm17.71,1.3V341.1a3.17,3.17,0,0,0-.68-2.23,2.75,2.75,0,0,0-2.12-.73,3.52,3.52,0,0,0-2.81,1,5.27,5.27,0,0,0-.89,3.42V349H410v-12.2h1.51l.3,1.67h.09a3.73,3.73,0,0,1,1.59-1.39,5.16,5.16,0,0,1,2.28-.5,4.63,4.63,0,0,1,3.32,1.07,4.5,4.5,0,0,1,1.11,3.39v8Zm13.43,0H430v-12.2h1.85Zm-2-15.5a1.2,1.2,0,0,1,.31-.93,1.07,1.07,0,0,1,.78-.3,1.11,1.11,0,0,1,.77.3,1.23,1.23,0,0,1,.32.93,1.26,1.26,0,0,1-.32.93,1.11,1.11,0,0,1-.77.3,1.07,1.07,0,0,1-.78-.3A1.26,1.26,0,0,1,429.82,333.49ZM444.09,349V341.1a3.22,3.22,0,0,0-.68-2.23,2.76,2.76,0,0,0-2.13-.73,3.5,3.5,0,0,0-2.8,1,5.21,5.21,0,0,0-.89,3.42V349h-1.85v-12.2h1.5l.3,1.67h.09a3.78,3.78,0,0,1,1.59-1.39,5.23,5.23,0,0,1,2.29-.5,4.61,4.61,0,0,1,3.31,1.07,4.47,4.47,0,0,1,1.12,3.39v8Zm9.6-1.3a7.19,7.19,0,0,0,.94-.06c.31-.06.55-.11.72-.16v1.41a3.07,3.07,0,0,1-.89.24,6.85,6.85,0,0,1-1,.1c-2.36,0-3.54-1.25-3.54-3.73v-7.26h-1.75v-.89l1.75-.77.78-2.61h1.07v2.83h3.54v1.44h-3.54v7.18a2.46,2.46,0,0,0,.52,1.69A1.81,1.81,0,0,0,453.69,347.69Zm9.27,1.53a5.64,5.64,0,0,1-4.28-1.65,6.43,6.43,0,0,1-1.55-4.58,7.09,7.09,0,0,1,1.44-4.68,4.86,4.86,0,0,1,3.91-1.74,4.59,4.59,0,0,1,3.63,1.51,5.79,5.79,0,0,1,1.34,4v1.17H459a4.88,4.88,0,0,0,1.08,3.26A3.78,3.78,0,0,0,463,347.6a9.78,9.78,0,0,0,3.89-.82v1.65a9.52,9.52,0,0,1-1.86.6A10.46,10.46,0,0,1,463,349.22Zm-.5-11.1a3.07,3.07,0,0,0-2.35.95,4.5,4.5,0,0,0-1,2.65h6.38a4,4,0,0,0-.78-2.67A2.74,2.74,0,0,0,462.46,338.12Zm10,10.87h-1.85V331.67h1.85Zm5.76,0h-1.85V331.67h1.85Zm5.77,0h-1.85v-12.2H484Zm-2-15.5a1.2,1.2,0,0,1,.31-.93,1.09,1.09,0,0,1,.78-.3,1.07,1.07,0,0,1,.76.3,1.2,1.2,0,0,1,.33.93,1.23,1.23,0,0,1-.33.93,1.07,1.07,0,0,1-.76.3,1.09,1.09,0,0,1-.78-.3A1.26,1.26,0,0,1,482,333.49Zm15.9,3.3V338l-2.26.27a3.74,3.74,0,0,1,.56,1,4,4,0,0,1,.25,1.42,3.6,3.6,0,0,1-1.23,2.86,5,5,0,0,1-3.36,1.07,5.45,5.45,0,0,1-1-.09,1.82,1.82,0,0,0-1.19,1.57.8.8,0,0,0,.42.74,3,3,0,0,0,1.41.24h2.16a4.85,4.85,0,0,1,3,.83,2.91,2.91,0,0,1,1.07,2.43,3.43,3.43,0,0,1-1.63,3.08,8.57,8.57,0,0,1-4.74,1.07,6.49,6.49,0,0,1-3.7-.89,2.87,2.87,0,0,1-1.29-2.51,2.8,2.8,0,0,1,.72-1.93,3.59,3.59,0,0,1,2-1.1,1.92,1.92,0,0,1-.79-.66,1.75,1.75,0,0,1-.31-1,2,2,0,0,1,.35-1.16,3.73,3.73,0,0,1,1.13-1,3.31,3.31,0,0,1-1.55-1.33,4.4,4.4,0,0,1,.61-5.22,4.89,4.89,0,0,1,3.41-1.09,6.2,6.2,0,0,1,1.73.22ZM488.16,351a1.67,1.67,0,0,0,.84,1.51,4.62,4.62,0,0,0,2.39.51,6.68,6.68,0,0,0,3.44-.7,2.12,2.12,0,0,0,1.13-1.88,1.51,1.51,0,0,0-.62-1.39,4.82,4.82,0,0,0-2.3-.37h-2.21a2.91,2.91,0,0,0-2,.6A2.13,2.13,0,0,0,488.16,351Zm1-10.34a2.51,2.51,0,0,0,.72,1.94,2.87,2.87,0,0,0,2,.65c1.8,0,2.7-.87,2.7-2.62a2.42,2.42,0,0,0-2.74-2.75,2.68,2.68,0,0,0-2,.7A2.81,2.81,0,0,0,489.17,340.7Zm16.38,8.52a5.62,5.62,0,0,1-4.27-1.65,6.39,6.39,0,0,1-1.56-4.58,7,7,0,0,1,1.45-4.68,4.83,4.83,0,0,1,3.91-1.74,4.58,4.58,0,0,1,3.62,1.51,5.74,5.74,0,0,1,1.34,4v1.17h-8.4a4.78,4.78,0,0,0,1.08,3.26,3.76,3.76,0,0,0,2.9,1.11,9.82,9.82,0,0,0,3.9-.82v1.65a10,10,0,0,1-1.86.6A10.49,10.49,0,0,1,505.55,349.22Zm-.5-11.1a3.07,3.07,0,0,0-2.35.95,4.49,4.49,0,0,0-1,2.65h6.38a4,4,0,0,0-.78-2.67A2.74,2.74,0,0,0,505.05,338.12ZM521.55,349V341.1a3.17,3.17,0,0,0-.68-2.23,2.75,2.75,0,0,0-2.12-.73,3.52,3.52,0,0,0-2.81,1,5.27,5.27,0,0,0-.89,3.42V349H513.2v-12.2h1.51l.3,1.67h.09a3.67,3.67,0,0,1,1.59-1.39,5.16,5.16,0,0,1,2.28-.5,4.63,4.63,0,0,1,3.32,1.07A4.5,4.5,0,0,1,523.4,341v8Zm9.6-1.3a7.34,7.34,0,0,0,1-.06l.72-.16v1.41a3.17,3.17,0,0,1-.89.24,7.1,7.1,0,0,1-1,.1c-2.36,0-3.54-1.25-3.54-3.73v-7.26h-1.75v-.89l1.75-.77.78-2.61h1.07v2.83h3.54v1.44h-3.54v7.18a2.46,2.46,0,0,0,.52,1.69A1.81,1.81,0,0,0,531.15,347.69ZM543,349h-1.85V331.67H543Zm5.77,0H547v-12.2h1.85Zm-2-15.5a1.24,1.24,0,0,1,.31-.93,1.15,1.15,0,0,1,1.55,0,1.19,1.19,0,0,1,.32.93,1.22,1.22,0,0,1-.32.93,1.15,1.15,0,0,1-1.55,0A1.3,1.3,0,0,1,546.8,333.49ZM561.08,349V341.1a3.22,3.22,0,0,0-.68-2.23,2.79,2.79,0,0,0-2.13-.73,3.52,3.52,0,0,0-2.81,1,5.27,5.27,0,0,0-.89,3.42V349h-1.84v-12.2h1.5l.3,1.67h.09a3.78,3.78,0,0,1,1.59-1.39,5.16,5.16,0,0,1,2.28-.5,4.63,4.63,0,0,1,3.32,1.07,4.5,4.5,0,0,1,1.11,3.39v8Zm7.48-6.24A20.31,20.31,0,0,1,570,341l3.94-4.18h2.19l-4.94,5.2,5.28,7h-2.23L570,343.23l-1.39,1.2V349h-1.83V331.67h1.83v9.19c0,.4,0,1-.09,1.89Zm-280,34.58a3.05,3.05,0,0,1-1.27,2.63,5.91,5.91,0,0,1-3.56.92,7.81,7.81,0,0,1-3.79-.76V378.4a9.07,9.07,0,0,0,1.89.7,7.91,7.91,0,0,0,1.94.26,4.39,4.39,0,0,0,2.23-.46,1.53,1.53,0,0,0,.78-1.41,1.5,1.5,0,0,0-.62-1.21,9.1,9.1,0,0,0-2.41-1.21,13.53,13.53,0,0,1-2.42-1.1,3.33,3.33,0,0,1-1.07-1.08,2.84,2.84,0,0,1-.35-1.44,2.72,2.72,0,0,1,1.22-2.34,5.57,5.57,0,0,1,3.32-.87,9.68,9.68,0,0,1,3.86.8l-.66,1.5a9,9,0,0,0-3.33-.76,3.74,3.74,0,0,0-2,.42,1.26,1.26,0,0,0-.67,1.13,1.37,1.37,0,0,0,.25.84,2.42,2.42,0,0,0,.81.65,18,18,0,0,0,2.14.91,7.72,7.72,0,0,1,2.92,1.59A2.74,2.74,0,0,1,288.59,377.33Zm8.17,3.55a5.61,5.61,0,0,1-4.27-1.64,6.41,6.41,0,0,1-1.56-4.58,7.07,7.07,0,0,1,1.45-4.69,4.85,4.85,0,0,1,3.9-1.73,4.59,4.59,0,0,1,3.63,1.51,5.77,5.77,0,0,1,1.34,4v1.17h-8.41a4.9,4.9,0,0,0,1.08,3.26,3.78,3.78,0,0,0,2.91,1.11,9.86,9.86,0,0,0,3.9-.82v1.64a9.35,9.35,0,0,1-1.86.61A10.57,10.57,0,0,1,296.76,380.88Zm-.5-11.1a3,3,0,0,0-2.35,1,4.4,4.4,0,0,0-1,2.65h6.38a4,4,0,0,0-.78-2.67A2.75,2.75,0,0,0,296.26,369.78Zm16.5,10.88v-7.89a3.15,3.15,0,0,0-.68-2.23,2.75,2.75,0,0,0-2.12-.73,3.51,3.51,0,0,0-2.81,1,5.25,5.25,0,0,0-.89,3.42v6.4h-1.85v-12.2h1.51l.3,1.67h.08a3.69,3.69,0,0,1,1.6-1.39,5,5,0,0,1,2.28-.5,4.6,4.6,0,0,1,3.32,1.07,4.49,4.49,0,0,1,1.11,3.39v8Zm14-1.63h-.1a4.35,4.35,0,0,1-3.83,1.85,4.55,4.55,0,0,1-3.73-1.63,8.89,8.89,0,0,1,0-9.34,4.49,4.49,0,0,1,3.72-1.67,4.43,4.43,0,0,1,3.81,1.8h.15l-.08-.88-.05-.86v-5h1.85v17.32H327Zm-3.69.31a3.35,3.35,0,0,0,2.74-1,5.22,5.22,0,0,0,.85-3.33v-.39a6,6,0,0,0-.87-3.69,3.25,3.25,0,0,0-2.75-1.12,2.85,2.85,0,0,0-2.49,1.27,6.32,6.32,0,0,0-.86,3.57,6,6,0,0,0,.86,3.53A2.91,2.91,0,0,0,323,379.34Zm17.24-2A3.05,3.05,0,0,1,339,380a5.91,5.91,0,0,1-3.56.92,7.81,7.81,0,0,1-3.79-.76V378.4a9.07,9.07,0,0,0,1.89.7,7.91,7.91,0,0,0,1.94.26,4.39,4.39,0,0,0,2.23-.46,1.53,1.53,0,0,0,.78-1.41,1.5,1.5,0,0,0-.62-1.21,9.1,9.1,0,0,0-2.41-1.21A13.53,13.53,0,0,1,333,374a3.33,3.33,0,0,1-1.07-1.08,2.84,2.84,0,0,1-.35-1.44,2.72,2.72,0,0,1,1.22-2.34,5.57,5.57,0,0,1,3.32-.87,9.68,9.68,0,0,1,3.86.8l-.66,1.5a9,9,0,0,0-3.33-.76,3.74,3.74,0,0,0-2,.42,1.26,1.26,0,0,0-.67,1.13,1.37,1.37,0,0,0,.25.84,2.42,2.42,0,0,0,.81.65,18,18,0,0,0,2.14.91,7.72,7.72,0,0,1,2.92,1.59A2.74,2.74,0,0,1,340.27,377.33Zm11.61,3.33-4.63-12.2h2l2.63,7.24c.6,1.69.94,2.79,1.05,3.29H353a23.15,23.15,0,0,1,.77-2.44c.43-1.24,1.41-3.93,2.92-8.09h2L354,380.66Zm10.6,0h-1.85v-12.2h1.85Zm-2-15.51a1.19,1.19,0,0,1,.31-.92,1.15,1.15,0,0,1,1.55,0,1.22,1.22,0,0,1,.32.92,1.27,1.27,0,0,1-.32.94,1.15,1.15,0,0,1-1.55,0A1.27,1.27,0,0,1,360.48,365.15Zm13.79,12.18A3.05,3.05,0,0,1,373,380a5.91,5.91,0,0,1-3.56.92,7.74,7.74,0,0,1-3.78-.76V378.4a8.78,8.78,0,0,0,1.88.7,7.93,7.93,0,0,0,1.95.26,4.37,4.37,0,0,0,2.22-.46,1.53,1.53,0,0,0,.78-1.41,1.5,1.5,0,0,0-.62-1.21,9.1,9.1,0,0,0-2.41-1.21A13.53,13.53,0,0,1,367,374a3.33,3.33,0,0,1-1.07-1.08,2.84,2.84,0,0,1-.35-1.44,2.72,2.72,0,0,1,1.22-2.34,5.57,5.57,0,0,1,3.32-.87,9.68,9.68,0,0,1,3.86.8l-.66,1.5a9,9,0,0,0-3.33-.76,3.74,3.74,0,0,0-2,.42,1.26,1.26,0,0,0-.67,1.13,1.37,1.37,0,0,0,.25.84,2.42,2.42,0,0,0,.81.65,18,18,0,0,0,2.14.91,7.72,7.72,0,0,1,2.92,1.59A2.74,2.74,0,0,1,374.27,377.33Zm4.87,3.33h-1.85v-12.2h1.85Zm-2-15.51a1.19,1.19,0,0,1,.32-.92,1,1,0,0,1,.77-.3,1.08,1.08,0,0,1,.77.3,1.19,1.19,0,0,1,.33.92,1.24,1.24,0,0,1-.33.94,1.08,1.08,0,0,1-.77.3,1,1,0,0,1-.77-.3A1.27,1.27,0,0,1,377.13,365.15ZM387,379.36a5.78,5.78,0,0,0,.94-.07,7,7,0,0,0,.73-.15v1.41a2.9,2.9,0,0,1-.89.23,6,6,0,0,1-1,.1q-3.54,0-3.54-3.72V369.9h-1.75V369l1.75-.77.78-2.61H385v2.83h3.54v1.44H385v7.18a2.46,2.46,0,0,0,.52,1.69A1.84,1.84,0,0,0,387,379.36Zm14.65-4.81a6.75,6.75,0,0,1-1.5,4.66,5.3,5.3,0,0,1-4.16,1.67,5.48,5.48,0,0,1-2.9-.76,5.09,5.09,0,0,1-2-2.21,7.7,7.7,0,0,1-.69-3.36,6.7,6.7,0,0,1,1.49-4.64,5.23,5.23,0,0,1,4.14-1.67,5.15,5.15,0,0,1,4.06,1.7A6.69,6.69,0,0,1,401.65,374.55Zm-9.3,0a5.72,5.72,0,0,0,.94,3.56,3.7,3.7,0,0,0,5.5,0,5.74,5.74,0,0,0,.94-3.57,5.63,5.63,0,0,0-.94-3.53,3.29,3.29,0,0,0-2.77-1.21,3.23,3.23,0,0,0-2.74,1.19A5.7,5.7,0,0,0,392.35,374.55Zm18.12-6.31a7.1,7.1,0,0,1,1.45.13l-.25,1.72a5.84,5.84,0,0,0-1.34-.17,3.29,3.29,0,0,0-2.54,1.2,4.43,4.43,0,0,0-1,3v6.54H404.9v-12.2h1.52l.22,2.26h.08a5.48,5.48,0,0,1,1.64-1.84A3.69,3.69,0,0,1,410.47,368.24Zm11.61,9.09a3.05,3.05,0,0,1-1.27,2.63,5.94,5.94,0,0,1-3.56.92,7.81,7.81,0,0,1-3.79-.76V378.4a9,9,0,0,0,1.88.7,8.06,8.06,0,0,0,2,.26,4.39,4.39,0,0,0,2.23-.46,1.53,1.53,0,0,0,.78-1.41,1.49,1.49,0,0,0-.63-1.21,9,9,0,0,0-2.4-1.21,13.37,13.37,0,0,1-2.43-1.1,3.54,3.54,0,0,1-1.07-1.08,2.84,2.84,0,0,1-.34-1.44,2.71,2.71,0,0,1,1.21-2.34,5.63,5.63,0,0,1,3.33-.87,9.63,9.63,0,0,1,3.85.8l-.65,1.5a9,9,0,0,0-3.33-.76,3.74,3.74,0,0,0-2,.42,1.26,1.26,0,0,0-.67,1.13,1.43,1.43,0,0,0,.24.84,2.42,2.42,0,0,0,.81.65,19.63,19.63,0,0,0,2.14.91,7.69,7.69,0,0,1,2.93,1.59A2.79,2.79,0,0,1,422.08,377.33Zm14.44-7.43h-3.11v10.76h-1.85V369.9h-2.18v-.84l2.18-.67v-.68q0-4.48,3.93-4.49a8,8,0,0,1,2.27.39l-.47,1.48a6.24,6.24,0,0,0-1.83-.35,1.8,1.8,0,0,0-1.55.7,3.91,3.91,0,0,0-.5,2.23v.79h3.11Zm7.79-1.66a7.2,7.2,0,0,1,1.46.13l-.26,1.72a5.76,5.76,0,0,0-1.33-.17,3.26,3.26,0,0,0-2.54,1.2,4.39,4.39,0,0,0-1.05,3v6.54h-1.85v-12.2h1.53l.21,2.26h.09a5.37,5.37,0,0,1,1.64-1.84A3.66,3.66,0,0,1,444.31,368.24Zm14.27,6.31a6.75,6.75,0,0,1-1.5,4.66,5.28,5.28,0,0,1-4.15,1.67,5.54,5.54,0,0,1-2.91-.76,5.15,5.15,0,0,1-2-2.21,7.7,7.7,0,0,1-.69-3.36,6.7,6.7,0,0,1,1.49-4.64,5.27,5.27,0,0,1,4.15-1.67,5.16,5.16,0,0,1,4.06,1.7A6.69,6.69,0,0,1,458.58,374.55Zm-9.29,0a5.79,5.79,0,0,0,.93,3.56,3.7,3.7,0,0,0,5.5,0,5.73,5.73,0,0,0,.95-3.57,5.63,5.63,0,0,0-.95-3.53,3.76,3.76,0,0,0-5.51,0A5.77,5.77,0,0,0,449.29,374.55Zm28.1,6.11v-7.94a3.24,3.24,0,0,0-.63-2.18,2.38,2.38,0,0,0-1.93-.73,3.13,3.13,0,0,0-2.55,1,4.71,4.71,0,0,0-.83,3.05v6.81h-1.84v-7.94a3.24,3.24,0,0,0-.63-2.18,2.4,2.4,0,0,0-2-.73,3.07,3.07,0,0,0-2.55,1,5.68,5.68,0,0,0-.8,3.41v6.4h-1.85v-12.2h1.51l.3,1.67h.09a3.65,3.65,0,0,1,1.47-1.39,4.46,4.46,0,0,1,2.13-.5c1.91,0,3.16.69,3.74,2.07h.09a4,4,0,0,1,1.59-1.52,4.89,4.89,0,0,1,2.36-.55,4.06,4.06,0,0,1,3.09,1.07,4.69,4.69,0,0,1,1,3.39v8Zm19.09,0-.37-1.73H496a5,5,0,0,1-1.82,1.55,5.54,5.54,0,0,1-2.26.4,4.11,4.11,0,0,1-2.85-.93,3.43,3.43,0,0,1-1-2.66q0-3.71,5.92-3.88l2.07-.06v-.76a3,3,0,0,0-.63-2.11,2.49,2.49,0,0,0-2-.7,8.12,8.12,0,0,0-3.45.94l-.57-1.41a8.33,8.33,0,0,1,2-.77,8.43,8.43,0,0,1,2.16-.28,4.6,4.6,0,0,1,3.23,1,4,4,0,0,1,1.06,3.1v8.33Zm-4.17-1.3a3.72,3.72,0,0,0,2.7-.95,3.48,3.48,0,0,0,1-2.65v-1.1l-1.85.08a6.63,6.63,0,0,0-3.18.69,2,2,0,0,0-1,1.88,1.92,1.92,0,0,0,.6,1.53A2.55,2.55,0,0,0,492.31,379.36Zm14.93-11.12a7.1,7.1,0,0,1,1.45.13l-.25,1.72a5.84,5.84,0,0,0-1.34-.17,3.28,3.28,0,0,0-2.54,1.2,4.43,4.43,0,0,0-1,3v6.54h-1.85v-12.2h1.52l.22,2.26h.08a5.48,5.48,0,0,1,1.64-1.84A3.69,3.69,0,0,1,507.24,368.24Zm14.27,6.31a6.7,6.7,0,0,1-1.51,4.66,5.27,5.27,0,0,1-4.15,1.67,5.48,5.48,0,0,1-2.9-.76,5.09,5.09,0,0,1-2-2.21,7.7,7.7,0,0,1-.69-3.36,6.65,6.65,0,0,1,1.49-4.64,5.23,5.23,0,0,1,4.14-1.67,5.15,5.15,0,0,1,4.06,1.7A6.69,6.69,0,0,1,521.51,374.55Zm-9.3,0a5.72,5.72,0,0,0,.94,3.56,3.7,3.7,0,0,0,5.5,0,5.74,5.74,0,0,0,.94-3.57,5.63,5.63,0,0,0-.94-3.53,3.3,3.3,0,0,0-2.78-1.21,3.21,3.21,0,0,0-2.73,1.19A5.7,5.7,0,0,0,512.21,374.55Zm14.29-6.09v7.92a3.19,3.19,0,0,0,.67,2.22,2.79,2.79,0,0,0,2.13.74,3.46,3.46,0,0,0,2.8-1,5.29,5.29,0,0,0,.89-3.42v-6.41h1.84v12.2h-1.52L533,379h-.1a3.67,3.67,0,0,1-1.58,1.38,5.24,5.24,0,0,1-2.29.47,4.69,4.69,0,0,1-3.34-1.05,4.52,4.52,0,0,1-1.1-3.39v-8Zm20.61,12.2v-7.89a3.15,3.15,0,0,0-.68-2.23,2.75,2.75,0,0,0-2.12-.73,3.52,3.52,0,0,0-2.81,1,5.25,5.25,0,0,0-.89,3.42v6.4h-1.85v-12.2h1.51l.3,1.67h.09a3.72,3.72,0,0,1,1.59-1.39,5,5,0,0,1,2.28-.5,4.59,4.59,0,0,1,3.32,1.07A4.49,4.49,0,0,1,549,372.7v8Zm14-1.63H561a4.38,4.38,0,0,1-3.83,1.85,4.54,4.54,0,0,1-3.73-1.63,7.19,7.19,0,0,1-1.33-4.66,7.3,7.3,0,0,1,1.34-4.68,4.48,4.48,0,0,1,3.72-1.67A4.43,4.43,0,0,1,561,370h.15l-.08-.88,0-.86v-5h1.84v17.32h-1.5Zm-3.7.31a3.35,3.35,0,0,0,2.74-1A5.21,5.21,0,0,0,561,375v-.39a6,6,0,0,0-.87-3.69,3.28,3.28,0,0,0-2.75-1.12,2.86,2.86,0,0,0-2.5,1.27,6.32,6.32,0,0,0-.85,3.57,6.05,6.05,0,0,0,.85,3.53A2.91,2.91,0,0,0,557.38,379.34Zm19.24,0a5.78,5.78,0,0,0,.94-.07,7,7,0,0,0,.73-.15v1.41a2.9,2.9,0,0,1-.89.23,6,6,0,0,1-1,.1q-3.54,0-3.54-3.72V369.9h-1.75V369l1.75-.77.78-2.61h1.07v2.83h3.54v1.44h-3.54v7.18a2.46,2.46,0,0,0,.52,1.69A1.84,1.84,0,0,0,576.62,379.36Zm12.47,1.3v-7.89a3.2,3.2,0,0,0-.68-2.23,2.78,2.78,0,0,0-2.13-.73,3.55,3.55,0,0,0-2.82,1,5.37,5.37,0,0,0-.87,3.43v6.38h-1.85V363.34h1.85v5.24a13.06,13.06,0,0,1-.09,1.57h.11a3.83,3.83,0,0,1,1.54-1.38,5.09,5.09,0,0,1,2.31-.51,4.68,4.68,0,0,1,3.35,1.07,4.43,4.43,0,0,1,1.12,3.37v8Zm10.81.22a5.62,5.62,0,0,1-4.28-1.64,6.41,6.41,0,0,1-1.56-4.58,7.13,7.13,0,0,1,1.45-4.69,4.87,4.87,0,0,1,3.91-1.73,4.59,4.59,0,0,1,3.63,1.51,5.77,5.77,0,0,1,1.33,4v1.17H596a4.8,4.8,0,0,0,1.08,3.26,3.78,3.78,0,0,0,2.9,1.11,9.79,9.79,0,0,0,3.9-.82v1.64a9,9,0,0,1-1.86.61A10.53,10.53,0,0,1,599.9,380.88Zm-.5-11.1a3,3,0,0,0-2.35,1,4.47,4.47,0,0,0-1,2.65h6.38a4,4,0,0,0-.78-2.67A2.74,2.74,0,0,0,599.4,369.78ZM290.68,411.06l-2.23-7.16c-.14-.43-.41-1.43-.79-3h-.09c-.3,1.3-.56,2.3-.78,3l-2.31,7.13h-2.13L279,398.86H281l1.8,7a29.91,29.91,0,0,1,.71,3.24h.09c.08-.42.21-1,.39-1.63s.34-1.21.48-1.61l2.23-7h2l2.18,7a23.41,23.41,0,0,1,.85,3.22h.09a10.81,10.81,0,0,1,.23-1.23q.19-.84,2.33-9h1.91l-3.37,12.2ZM309,405a6.79,6.79,0,0,1-1.5,4.67,5.34,5.34,0,0,1-4.16,1.67,5.49,5.49,0,0,1-2.9-.77,5,5,0,0,1-2-2.21,7.66,7.66,0,0,1-.69-3.36,6.7,6.7,0,0,1,1.49-4.64,5.26,5.26,0,0,1,4.14-1.67,5.15,5.15,0,0,1,4.06,1.7A6.69,6.69,0,0,1,309,405Zm-9.3,0a5.72,5.72,0,0,0,.94,3.56,3.7,3.7,0,0,0,5.5,0,5.74,5.74,0,0,0,.94-3.57,5.63,5.63,0,0,0-.94-3.53,3.76,3.76,0,0,0-5.51,0A5.7,5.7,0,0,0,299.7,405Zm18.12-6.31a7.1,7.1,0,0,1,1.45.13l-.25,1.72a6.45,6.45,0,0,0-1.34-.17,3.29,3.29,0,0,0-2.54,1.2,4.43,4.43,0,0,0-1,3v6.54h-1.85v-12.2h1.53l.21,2.26h.09a5.35,5.35,0,0,1,1.63-1.84A3.69,3.69,0,0,1,317.82,398.64Zm5.59,12.42h-1.85V393.74h1.85Zm12.22-1.63h-.1a4.34,4.34,0,0,1-3.83,1.86,4.55,4.55,0,0,1-3.73-1.64,7.23,7.23,0,0,1-1.32-4.65,7.32,7.32,0,0,1,1.33-4.69,4.5,4.5,0,0,1,3.72-1.67,4.46,4.46,0,0,1,3.81,1.8h.14l-.08-.88,0-.85v-5h1.85v17.32h-1.51Zm-3.7.31a3.32,3.32,0,0,0,2.74-1,5.2,5.2,0,0,0,.86-3.32V405a6.06,6.06,0,0,0-.87-3.7,3.26,3.26,0,0,0-2.75-1.11,2.84,2.84,0,0,0-2.49,1.26,6.32,6.32,0,0,0-.86,3.57,6,6,0,0,0,.86,3.53A2.91,2.91,0,0,0,331.93,409.74Zm9.11.14a1.66,1.66,0,0,1,.33-1.12,1.24,1.24,0,0,1,1-.39,1.31,1.31,0,0,1,1,.39,1.57,1.57,0,0,1,.36,1.12,1.59,1.59,0,0,1-.36,1.12,1.33,1.33,0,0,1-1,.39,1.35,1.35,0,0,1-.94-.35A1.54,1.54,0,0,1,341,409.88Zm0-9.83c0-1,.44-1.5,1.31-1.5s1.37.5,1.37,1.5a1.6,1.6,0,0,1-.36,1.12,1.33,1.33,0,0,1-1,.39,1.35,1.35,0,0,1-.94-.35A1.54,1.54,0,0,1,341,400.05Z" style="fill:#616161"/><path d="M219.23,122.25h475v87.41h-475Z" style="fill:#e0e0e0"/><g style="mask:url(#e)"><path d="M219.23,122.25v-.63h-.64v.63Zm475,0h.63v-.63h-.63Zm0,87.41v.63h.63v-.63Zm-475,0h-.64v.63h.64Zm0-86.77h475v-1.27h-475Zm474.38-.64v87.41h1.26V122.25Zm.63,86.77h-475v1.27h475Zm-474.38.64V122.25h-1.27v87.41Z" style="fill:#828282"/></g><path d="M235.69,143.79h41.8v41.8h-41.8Z" style="fill:none"/><g style="mask:url(#f)"><path d="M609.37,141.89H660v-3.8H609.37Zm53.84,3.17v40.53H667V145.06ZM660,188.76H609.37v3.8H660Zm-53.84-3.17V145.06h-3.8v40.53Zm3.17,3.17a3.17,3.17,0,0,1-3.17-3.17h-3.8a7,7,0,0,0,7,7Zm53.84-3.17a3.17,3.17,0,0,1-3.17,3.17v3.8a7,7,0,0,0,7-7ZM660,141.89a3.17,3.17,0,0,1,3.17,3.17H667a7,7,0,0,0-7-7Zm-50.67-3.8a7,7,0,0,0-7,7h3.8a3.17,3.17,0,0,1,3.17-3.17Z" style="fill:#bdbdbd"/></g><path d="M618.9,156.46h31.61v-2.54H618.9Z" style="fill:#828282"/><path d="M618.9,165.32h31.61v-2.53H618.9Z" style="fill:#828282"/><path d="M618.9,174.19h31.61v-2.53H618.9Z" style="fill:#828282"/><path d="M302.76,179.26V152.13h3.15V176.4h12v2.86Zm22.36,0H322V158.92h3.08Zm-3.34-25.85a2,2,0,0,1,.52-1.54,1.76,1.76,0,0,1,1.3-.5,1.8,1.8,0,0,1,1.28.5,2,2,0,0,1,.53,1.54,2.12,2.12,0,0,1-.53,1.56,1.84,1.84,0,0,1-1.28.5,1.8,1.8,0,0,1-1.3-.5A2.12,2.12,0,0,1,321.78,153.41Zm23.79,25.85V166.1a5.28,5.28,0,0,0-1.14-3.71,4.58,4.58,0,0,0-3.54-1.22,5.85,5.85,0,0,0-4.68,1.72q-1.48,1.73-1.48,5.7v10.67h-3.08V158.92h2.5l.5,2.78h.15a6.28,6.28,0,0,1,2.66-2.32,8.58,8.58,0,0,1,3.8-.83,7.69,7.69,0,0,1,5.53,1.78c1.24,1.18,1.86,3.06,1.86,5.66v13.27ZM358,168.85a38.06,38.06,0,0,1,2.43-3l6.57-7h3.66l-8.24,8.67,8.81,11.67h-3.73l-7.18-9.62-2.32,2v7.61h-3V150.38h3v15.31c0,.68,0,1.73-.14,3.16Zm42.38,10.41H385.29V152.13h15.12v2.8h-12v8.74h11.24v2.78H388.45v10h12Zm10.47-10.41-7.07-9.93h3.51l5.36,7.79,5.34-7.79h3.47l-7.07,9.93,7.44,10.41h-3.48l-5.7-8.24-5.75,8.24h-3.49Zm24.49,10.78a8.82,8.82,0,0,1-3.63-.73,6.88,6.88,0,0,1-2.75-2.26h-.22A27,27,0,0,1,429,180v8.37h-3.08V158.92h2.5l.43,2.78H429a7.2,7.2,0,0,1,2.76-2.41,8.51,8.51,0,0,1,3.62-.74,7.5,7.5,0,0,1,6.24,2.76c1.47,1.85,2.21,4.43,2.21,7.76s-.75,5.94-2.25,7.79A7.51,7.51,0,0,1,435.37,179.63Zm-.44-18.46q-3.12,0-4.51,1.72T429,168.38v.69c0,2.86.48,4.9,1.43,6.14a5.43,5.43,0,0,0,4.58,1.84,4.73,4.73,0,0,0,4.12-2.14,10.07,10.07,0,0,0,1.5-5.88,9.64,9.64,0,0,0-1.5-5.82A4.88,4.88,0,0,0,434.93,161.17Zm17.36,18.09h-3.08V150.38h3.08Zm24.09-10.19c0,3.31-.84,5.91-2.51,7.77a8.82,8.82,0,0,1-6.92,2.79,9.21,9.21,0,0,1-4.84-1.28,8.51,8.51,0,0,1-3.27-3.68,12.87,12.87,0,0,1-1.15-5.6c0-3.32.83-5.89,2.49-7.74a8.8,8.8,0,0,1,6.9-2.78,8.56,8.56,0,0,1,6.78,2.84A11.14,11.14,0,0,1,476.38,169.07Zm-15.49,0a9.65,9.65,0,0,0,1.55,5.94,6.19,6.19,0,0,0,9.17,0,9.64,9.64,0,0,0,1.58-6,9.35,9.35,0,0,0-1.58-5.88,5.47,5.47,0,0,0-4.62-2,5.41,5.41,0,0,0-4.56,2C461.4,164.47,460.89,166.45,460.89,169.07Zm30.18-10.52a12,12,0,0,1,2.44.22l-.43,2.86a10.19,10.19,0,0,0-2.23-.28,5.48,5.48,0,0,0-4.23,2,7.36,7.36,0,0,0-1.74,5v10.91H481.8V158.92h2.54l.35,3.77h.15a8.83,8.83,0,0,1,2.73-3.07A6.17,6.17,0,0,1,491.07,158.55Zm14.83,21.08a9.39,9.39,0,0,1-7.13-2.75q-2.59-2.74-2.59-7.62a11.83,11.83,0,0,1,2.41-7.82,8.06,8.06,0,0,1,6.51-2.89,7.65,7.65,0,0,1,6,2.52,9.58,9.58,0,0,1,2.23,6.63v1.94h-14a8.08,8.08,0,0,0,1.8,5.44,6.27,6.27,0,0,0,4.84,1.86,16.33,16.33,0,0,0,6.5-1.38v2.75a16.08,16.08,0,0,1-3.1,1A16.81,16.81,0,0,1,505.9,179.63Zm-.83-18.5a5.07,5.07,0,0,0-3.92,1.59,7.49,7.49,0,0,0-1.71,4.42h10.64a6.75,6.75,0,0,0-1.3-4.45A4.57,4.57,0,0,0,505.07,161.13Zm22.86-2.58a12,12,0,0,1,2.43.22l-.43,2.86a10.19,10.19,0,0,0-2.23-.28,5.48,5.48,0,0,0-4.23,2,7.36,7.36,0,0,0-1.74,5v10.91h-3.08V158.92h2.54l.35,3.77h.15a9,9,0,0,1,2.73-3.07A6.18,6.18,0,0,1,527.93,158.55Z" style="fill:#616161"/><path d="M612.7,523.53a1.2,1.2,0,0,1-.36.85l-1.87,1.86a1.31,1.31,0,0,1-.87.33,1.26,1.26,0,0,1-.86-.34l-2.62-2.64a1.24,1.24,0,0,1-.36-.86,1.2,1.2,0,0,1,.42-.93c.42.42.78.91,1.43.91a1.22,1.22,0,0,0,1.22-1.22c0-.65-.5-1-.92-1.42a1.22,1.22,0,0,1,1.78-.05l2.65,2.64A1.23,1.23,0,0,1,612.7,523.53Zm-9-9a1.23,1.23,0,0,1-.42.93c-.42-.42-.77-.92-1.42-.92a1.23,1.23,0,0,0-1.23,1.22c0,.65.5,1,.92,1.43a1.27,1.27,0,0,1-1.78,0l-2.65-2.65a1.19,1.19,0,0,1-.35-.86,1.21,1.21,0,0,1,.35-.86l1.87-1.85a1.28,1.28,0,0,1,.87-.35,1.22,1.22,0,0,1,.86.36l2.62,2.63A1.24,1.24,0,0,1,603.75,514.56Zm11.39,9a3.64,3.64,0,0,0-1.07-2.6l-2.65-2.64a3.68,3.68,0,0,0-5.24.05l-1.12-1.12a3.75,3.75,0,0,0,1.12-2.66,3.68,3.68,0,0,0-1-2.59l-2.63-2.63a3.66,3.66,0,0,0-5.17,0l-1.87,1.85a3.66,3.66,0,0,0-1.09,2.59,3.61,3.61,0,0,0,1.07,2.59l2.65,2.65a3.68,3.68,0,0,0,5.24,0l1.12,1.12a3.73,3.73,0,0,0-1.12,2.66,3.64,3.64,0,0,0,1.06,2.58l2.62,2.63a3.68,3.68,0,0,0,5.18,0l1.87-1.86A3.67,3.67,0,0,0,615.14,523.53Z" style="fill:#bdbdbd"/><path d="M612.81,640.34a3.26,3.26,0,1,1-3.26-3.26A3.26,3.26,0,0,1,612.81,640.34Zm3.26,0a6.52,6.52,0,1,0-13,0,5.33,5.33,0,0,0,.42,2.27l4.64,9.85a1.63,1.63,0,0,0,2.91,0l4.64-9.85A5.33,5.33,0,0,0,616.07,640.34Z" style="fill:#bdbdbd"/></g></svg>