<svg xmlns="http://www.w3.org/2000/svg" viewBox="0 0 500 500"><title>link_explorer</title><path d="M53.82,148.81V103.89h7.34v38.62h19v6.3Z" style="fill:#00b9ee"/><path d="M86.73,105.82a4,4,0,0,1,1.06-3,4.17,4.17,0,0,1,3-1,4.06,4.06,0,0,1,3,1,4,4,0,0,1,1.06,3,3.93,3.93,0,0,1-1.06,2.91,4,4,0,0,1-3,1.06,4.1,4.1,0,0,1-3-1.06A3.93,3.93,0,0,1,86.73,105.82Zm7.65,43H87.16v-34h7.22Z" style="fill:#00b9ee"/><path d="M134.6,148.81h-7.25V127.92q0-3.93-1.58-5.87t-5-1.94q-4.59,0-6.7,2.71c-1.42,1.8-2.12,4.82-2.12,9.06v16.93h-7.22v-34h5.65l1,4.45h.37a10.13,10.13,0,0,1,4.37-3.75,14.6,14.6,0,0,1,6.26-1.32q12.24,0,12.23,12.45Z" style="fill:#00b9ee"/><path d="M151.63,130.87l4.08-5.1L166,114.83h8.32l-13.67,14.59,14.53,19.39h-8.48l-10.91-14.9-4,3.26v11.64h-7.16V101h7.16v23.32l-.37,6.55Z" style="fill:#00b9ee"/><path d="M223.16,148.81H197.75V103.89h25.41v6.21H205.09v12.22H222v6.15H205.09v14.1h18.07Z" style="fill:#00b9ee"/><path d="M239.66,131.45l-11.4-16.62h8.24l7.74,11.89,7.8-11.89h8.18l-11.43,16.62,12,17.36h-8.17l-8.39-12.72-8.36,12.72h-8.17Z" style="fill:#00b9ee"/><path d="M284,149.43a11.92,11.92,0,0,1-10-4.64h-.43c.29,2.87.43,4.61.43,5.22v13.92h-7.22v-49.1h5.84c.16.63.5,2.15,1,4.54H274q3.39-5.16,10.14-5.16a11.8,11.8,0,0,1,9.91,4.61q3.56,4.61,3.55,12.94t-3.61,13A11.91,11.91,0,0,1,284,149.43Zm-1.75-29.32q-4.31,0-6.28,2.52c-1.33,1.68-2,4.37-2,8.05v1.08c0,4.14.66,7.13,2,9s3.45,2.78,6.42,2.78a6.52,6.52,0,0,0,5.78-3.08q2-3.06,2-8.75c0-3.81-.68-6.7-2-8.65A6.7,6.7,0,0,0,282.25,120.11Z" style="fill:#00b9ee"/><path d="M313.19,148.81H306V101h7.22Z" style="fill:#00b9ee"/><path d="M353.66,131.76q0,8.33-4.27,13t-11.89,4.67a16.3,16.3,0,0,1-8.42-2.15,14.26,14.26,0,0,1-5.63-6.18,21,21,0,0,1-2-9.34q0-8.26,4.24-12.91t11.95-4.64q7.38,0,11.68,4.75T353.66,131.76Zm-24.74,0q0,11.76,8.7,11.77t8.6-11.77q0-11.64-8.66-11.65c-3,0-5.23,1-6.59,3S328.92,128,328.92,131.76Z" style="fill:#00b9ee"/><path d="M379.19,114.21a17.7,17.7,0,0,1,3.6.31l-.71,6.73a13.39,13.39,0,0,0-3.19-.37,9.26,9.26,0,0,0-7,2.83,10.21,10.21,0,0,0-2.68,7.34v17.76H362v-34h5.65l.95,6h.37a13.54,13.54,0,0,1,4.41-4.83A10.52,10.52,0,0,1,379.19,114.21Z" style="fill:#00b9ee"/><path d="M403.93,149.43q-7.94,0-12.4-4.63t-4.47-12.73q0-8.34,4.15-13.09t11.4-4.77q6.72,0,10.63,4.09t3.9,11.25v3.9H394.5q.15,5,2.67,7.6a9.28,9.28,0,0,0,7.1,2.66,26.1,26.1,0,0,0,5.6-.57,29.41,29.41,0,0,0,5.58-1.89v5.87a21.77,21.77,0,0,1-5.34,1.78A32.73,32.73,0,0,1,403.93,149.43Zm-1.32-29.75a7.28,7.28,0,0,0-5.52,2.18,10.4,10.4,0,0,0-2.47,6.36H410c0-2.8-.71-4.93-2-6.37A6.94,6.94,0,0,0,402.61,119.68Z" style="fill:#00b9ee"/><path d="M442.58,114.21a17.7,17.7,0,0,1,3.6.31l-.71,6.73a13.39,13.39,0,0,0-3.19-.37,9.26,9.26,0,0,0-7,2.83,10.21,10.21,0,0,0-2.68,7.34v17.76h-7.22v-34H431l.95,6h.37a13.54,13.54,0,0,1,4.41-4.83A10.52,10.52,0,0,1,442.58,114.21Z" style="fill:#00b9ee"/><text transform="translate(50.75 286.97)" style="font-size:36px;fill:#616161;font-family:OpenSans-Light, Open Sans">Trace the path of an <tspan x="0" y="50">intelligent link anywhere </tspan><tspan x="0" y="100">in the world.</tspan></text><line x1="50" y1="204" x2="441" y2="204" style="fill:none;stroke:#616161;stroke-miterlimit:10;stroke-width:3px"/><circle cx="57" cy="204" r="10" style="fill:#fff;stroke:#616161;stroke-miterlimit:10;stroke-width:2px"/><circle cx="207" cy="204" r="10" style="fill:#fff;stroke:#616161;stroke-miterlimit:10;stroke-width:2px"/><circle cx="443" cy="204" r="10" style="fill:#616161"/></svg>