<?xml version="1.0" encoding="utf-8"?>
<!-- Generator: Adobe Illustrator 24.1.2, SVG Export Plug-In . SVG Version: 6.00 Build 0)  -->
<svg version="1.1" id="Layer_1" xmlns="http://www.w3.org/2000/svg" xmlns:xlink="http://www.w3.org/1999/xlink" x="0px" y="0px"
	 viewBox="0 0 471 471" style="enable-background:new 0 0 471 471;" xml:space="preserve">
<style type="text/css">
	.st0{fill:#E5E5E5;}
	.st1{fill:#2A77BE;}
	.st2{fill:none;stroke:#FF9191;stroke-width:8;stroke-linecap:round;stroke-linejoin:round;}
	.st3{fill:#FF9191;}
	.st4{fill:#F3B5B5;}
	.st5{fill:#A372D4;}
	.st6{fill:none;stroke:#C49BF8;stroke-width:3;stroke-linecap:round;stroke-linejoin:round;}
	.st7{fill:#E4C524;}
	.st8{fill:#C4C4C4;}
	.st9{fill:#FF069B;}
	.st10{fill:none;stroke:#484646;stroke-width:4;stroke-linecap:round;stroke-linejoin:bevel;}
	.st11{fill:#FFFFFF;}
	.st12{fill:#484646;}
	.st13{fill:none;stroke:#A34908;stroke-width:8;stroke-linecap:round;stroke-linejoin:round;}
	.st14{fill:#F98633;}
	.st15{fill:#4B3220;}
	.st16{fill:none;stroke:#A34908;stroke-width:8;stroke-linecap:round;}
	.st17{fill:none;stroke:#484646;stroke-width:3;}
	.st18{fill:none;stroke:#484646;stroke-width:5;stroke-linecap:round;stroke-linejoin:round;}
	.st19{fill:none;stroke:#FF9191;stroke-width:7;stroke-linecap:round;stroke-linejoin:bevel;}
	.st20{fill:#FCF4CE;}
	.st21{fill:#C49BF8;}
	.st22{fill:#C4AA24;}
	.st23{fill:#DFC53C;}
	.st24{fill:#FFDD2D;}
	.st25{fill:none;stroke:#2A77BE;stroke-width:10;stroke-linecap:round;stroke-linejoin:round;}
	.st26{fill:none;stroke:#484646;stroke-width:4;stroke-linecap:round;stroke-linejoin:round;}
</style>
<path class="st0" d="M237,49h122c5.5,0,10,4.5,10,10v49c0,5.5-4.5,10-10,10H237c-5.5,0-10-4.5-10-10V59C227,53.5,231.5,49,237,49z"
	/>
<path class="st1" d="M78.8,238.7l-43.2,53c-1.9,2.3-1.3,5.8,1.2,7.4l118.4,75.5c2.2,1.4,5,0.9,6.6-1.1l63.8-80.9
	c2.1-2.7,1-6.7-2.3-7.8l-139-47.6C82.3,236.4,80.1,237.1,78.8,238.7z"/>
<path class="st2" d="M141,233c0,0-21.3,12.8-26,28c-5.7,18.5,5,33,5,33"/>
<path class="st3" d="M119.8,136.9l24.3,59.8c0.5,1.3,1.9,2.1,3.3,1.8l59.8-11.4c0.5-0.1,1-0.3,1.4-0.7l19.6-17.2
	c1.7-1.5,1.2-4.3-0.9-5.1l-16.5-6.2c-1.6-0.6-2.3-2.3-1.8-3.9l7.7-20.5c1-2.7-2-5.2-4.5-3.6l-22.4,15c-1.5,1-3.5,0.5-4.3-1.2
	l-18.6-37.2c-1.3-2.5-5-2.1-5.6,0.7l-9.2,44.4c-0.5,2.3-3.2,3.2-4.9,1.6l-22.5-20C122.2,131.4,118.6,134,119.8,136.9z"/>
<path class="st4" d="M114.6,318.1l41.5-156c4.8-18,29.5-20.3,37.4-3.3L261.6,304c1.5,3.1,1.2,6.8-0.9,9.5
	c-7.1,9.1-25.5,29.5-50.7,34.5c-27.9,5.5-69.9-8.9-88.6-16.1C115.9,329.7,113.1,323.8,114.6,318.1z"/>
<path class="st2" d="M159,320l6.9,36.4c0.1,0.4,0.2,0.7,0.3,1.1l14.9,33.5c0.6,1.2,0.6,2.7,0.1,3.9l-8.2,20 M226,314
	c0,0,30.2,27.1,24.5,45.5c-5.2,16.9-8.8,33.8-10,39.7c-0.3,1.4,0.1,2.9,1,4.1L255,420"/>
<path class="st5" d="M92.8,278.9l45.8,3.3c2.8,0.2,4.8,2.6,4.6,5.3l-2.1,29.1c-0.2,2.8-2.6,4.8-5.3,4.6L90,317.9
	c-2.8-0.2-4.8-2.6-4.6-5.3l2.1-29.1C87.7,280.8,90.1,278.7,92.8,278.9z"/>
<path class="st6" d="M97.2,279l-22.6,27.1c-1.9,2.3,0.3,5.7,3.2,4.8l53.4-16.9"/>
<circle class="st7" cx="111.7" cy="299.5" r="4.5"/>
<path class="st8" d="M198.1,259.4l11.3,4.2c1.6,0.6,2.3,2.3,1.8,3.9l-9.4,25.3c-0.6,1.6-2.3,2.3-3.9,1.8l-11.3-4.2
	c-1.6-0.6-2.3-2.3-1.8-3.9l9.4-25.3C194.8,259.6,196.6,258.8,198.1,259.4z"/>
<circle class="st9" cx="160.5" cy="224.5" r="6.5"/>
<circle class="st9" cx="200.5" cy="224.5" r="6.5"/>
<path class="st10" d="M171.1,229.5l5,2.1c2.6,1.1,5.6,1,8.1-0.2l5-2.4"/>
<circle class="st11" cx="167" cy="201" r="11"/>
<circle class="st11" cx="191" cy="201" r="11"/>
<circle class="st12" cx="193.5" cy="201.5" r="5.5"/>
<circle class="st12" cx="169.5" cy="201.5" r="5.5"/>
<path class="st13" d="M382,266.5l25,59.5 M279,270c0,0-10.5,20.4-4,31c6,9.8,25,9,25,9"/>
<path class="st14" d="M309.7,141.1l14.2,12c3.1,2.6,7.5,3.1,11.1,1.2l39.3-20.5c10.4-5.4,22.7,2.6,21.9,14.3l-2.6,39.3
	c-0.4,5.4,1.5,10.8,5.2,14.8l18.6,20.4c6,6.6,5,16.9-2.2,22.1l-26.3,19.5c-1.8,1.4-3.1,3.3-3.7,5.5l-14,53.3
	c-0.6,2.5-3.1,4.1-5.6,3.7l-55.1-8.3c-2.1-0.3-3.8-2-4.2-4.1l-4.6-26.7c-0.7-4.1-3.8-7.3-7.9-8.1l-20.6-4.2
	c-5.8-1.2-9.4-7.2-7.6-12.8l8.4-26.4c1.1-3.4,0.2-7.2-2.2-9.8L254,207c-7-7.6-4.4-19.9,5.1-24l19.2-8.2c3.5-1.5,5.9-4.9,6.1-8.7
	l0.7-14.4C285.6,139.4,300.2,133.1,309.7,141.1z"/>
<circle class="st11" cx="303" cy="214" r="15"/>
<circle class="st11" cx="338" cy="214" r="15"/>
<circle class="st12" cx="297.5" cy="214.5" r="5.5"/>
<circle class="st12" cx="332.5" cy="214.5" r="5.5"/>
<path class="st13" d="M360.1,333.3l9.5,30.4l-9.5,56.3H377 M330.5,326c0,0-18.3,29.9-10.6,47.7c5.7,12.9,28,25.9,28,25.9l-9,20.4"/>
<path class="st0" d="M310.8,279.3l-27.4-11.9c-1.2-0.5-2.5-0.2-3.4,0.7l-13.5,14.3c-1.6,1.7-0.8,4.4,1.4,5l21.8,5.6
	c1.3,0.3,2.2,1.5,2.2,2.9V336c0,1,0.5,2,1.4,2.5l18.2,11.9c2.1,1.3,4.8-0.2,4.6-2.7l-3.6-65.7C312.5,280.7,311.8,279.7,310.8,279.3z
	"/>
<rect x="303" y="279" transform="matrix(0.9746 -0.2241 0.2241 0.9746 -61.793 80.5553)" class="st15" width="42" height="67"/>
<path class="st0" d="M385.1,264.2l-21.3-3.9c-1.1-0.2-2.3,0.2-3,1.2l-6.8,9.2c-0.4,0.5-0.6,1.1-0.6,1.8v79.4c0,2.5,2.8,3.9,4.8,2.4
	l13.2-10.1c0.6-0.5,1-1.2,1.1-1.9l6-39.7c0.3-2.3,3-3.3,4.8-1.9l1.5,1.2c0.9,0.7,2.1,0.8,3.1,0.4l12.8-5.9c1.6-0.7,2.2-2.7,1.4-4.2
	l-15.2-26.4C386.8,264.9,386,264.4,385.1,264.2z"/>
<path class="st16" d="M327,311l16-7.5l63.5,23.5"/>
<path class="st17" d="M364,294.5l18-30.5"/>
<circle class="st12" cx="363" cy="295" r="4"/>
<path class="st18" d="M289,188.5c0,0,18,7.8,29,7s19-13.5,33-5"/>
<path class="st0" d="M335,137l-2.5-23.5H349L335,137z"/>
<path class="st14" d="M242,72h12c1.1,0,2,0.9,2,2v22c0,1.1-0.9,2-2,2h-12c-1.1,0-2-0.9-2-2V74C240,72.9,240.9,72,242,72z"/>
<path class="st19" d="M232.5,241.5c0,0,10.3,39.8-6.5,44c-9.5,2.4-24-7.5-24-7.5"/>
<ellipse class="st20" cx="248" cy="76" rx="10" ry="4"/>
<ellipse class="st20" cx="248" cy="73" rx="8" ry="4"/>
<ellipse class="st14" cx="248" cy="96" rx="8" ry="4"/>
<path class="st21" d="M293,82.1c1.7,4.2-3.7,7.5-10.9,10.4c-7.2,2.9-13.3,4.4-15,0.2c-1.9-4.8,3.7-7.5,10.9-10.4
	C285.1,79.4,291.3,77.9,293,82.1z"/>
<path class="st21" d="M293,82.1c1.7,4.2-3.7,7.5-10.9,10.4c-7.2,2.9-13.3,4.4-15,0.2c-1.9-4.8,3.7-7.5,10.9-10.4
	C285.1,79.4,291.3,77.9,293,82.1z"/>
<path class="st5" d="M282.1,92.5c7.2-2.9,12.6-6.1,10.9-10.4c-1.7-4.2-7.9-2.7-15,0.2L282.1,92.5z"/>
<path class="st22" d="M333.2,80.4c11.8,2.6,22.8-16.5,24-7.2c-2.8,12.8-14.6,21.1-26.5,18.6c-11.8-2.6-19.2-15.1-16.4-27.9
	C317.2,51,321.4,77.8,333.2,80.4z"/>
<path class="st23" d="M331.5,88.5c13.4,6.4,36.7-10.5,30,3.5s-21.5,14.5-34.9,8.1s-18.8-23-12.1-37C321.2,49,318.1,82.1,331.5,88.5z
	"/>
<path class="st24" d="M321.4,91.6c10.1,10.9,40.3-0.5,28.8,10.1c-11.5,10.5-28.9,10.2-39-0.7s-8.9-28.4,2.5-38.9
	C325.2,51.5,311.3,80.6,321.4,91.6z"/>
<path class="st25" d="M39,295l6,46"/>
<path class="st25" d="M157,359v48"/>
<path class="st25" d="M89.5,343L89,327"/>
<path class="st26" d="M337.2,242.6c-12.3,11.5-20.3,13.6-38.8-1.6"/>
</svg>
