<?xml version="1.0" encoding="utf-8"?>
<!-- Generator: Adobe Illustrator 24.1.2, SVG Export Plug-In . SVG Version: 6.00 Build 0)  -->
<svg version="1.1" id="Layer_1" xmlns="http://www.w3.org/2000/svg" xmlns:xlink="http://www.w3.org/1999/xlink" x="0px" y="0px"
	 viewBox="0 0 471 471" style="enable-background:new 0 0 471 471;" xml:space="preserve">
<style type="text/css">
	.st0{fill:#813E0E;}
	.st1{fill:#A34908;}
	.st2{fill:#FF9191;}
	.st3{fill:#F3B5B5;}
	.st4{fill:#A372D4;}
	.st5{fill:none;stroke:#C49BF8;stroke-width:3;stroke-linecap:round;stroke-linejoin:round;}
	.st6{fill:#E4C524;}
	.st7{fill:none;stroke:#FF9191;stroke-width:7;stroke-linecap:round;stroke-linejoin:round;}
	.st8{fill:#C4C4C4;}
	.st9{fill:none;stroke:#FF9191;stroke-width:7;stroke-linecap:round;stroke-linejoin:bevel;}
	.st10{fill:none;stroke:#484646;stroke-width:4;stroke-linecap:round;stroke-linejoin:round;}
	.st11{fill:#FF069B;}
	.st12{fill:none;stroke:#FF9191;stroke-width:8;stroke-linecap:round;stroke-linejoin:round;}
	.st13{fill:#4B3220;}
	.st14{fill:#C4AA24;}
	.st15{fill:none;stroke:#000000;stroke-width:4;stroke-linecap:round;stroke-linejoin:round;}
	.st16{fill:none;stroke:#A3A0A0;stroke-width:2;stroke-linecap:round;stroke-linejoin:round;}
	.st17{fill:#F5A4A4;}
	.st18{fill:#D7752F;}
	.st19{fill:#E5E5E5;}
	.st20{fill:#FFDD2D;}
	.st21{fill:#484646;}
</style>
<path class="st0" d="M76,171.5c0-3,2.6-5.3,5.5-5l301.3,29.9c2.8,0.3,4.9,2.9,4.4,5.7l-9,59.5c-0.4,2.4-2.5,4.2-4.9,4.2H81
	c-2.8,0-5-2.2-5-5V171.5z"/>
<path class="st0" d="M77.7,280.3c0.3-2.5,2.3-4.2,4.8-4.2c36.8,0.7,303.6,6.8,313.5,31.8c9.2,23.1,1.9,53-0.8,62.1
	c-0.5,1.7-1.9,3-3.7,3.3c-28.6,5.2-263.7,47.3-299.9,21.3C66.1,376.3,75,299.3,77.7,280.3z"/>
<path class="st1" d="M89.3,267.7c-1.1-3.3,1.3-6.7,4.7-6.7h284.9c2.5,0,4.6,1.8,4.9,4.2l7.3,47.5c0.4,2.9-1.6,5.5-4.5,5.7
	l-267.3,23.2c-2.3,0.2-4.4-1.2-5.1-3.3L89.3,267.7z"/>
<path class="st2" d="M127.8,145.9l24.3,59.8c0.5,1.3,1.9,2.1,3.3,1.8l59.8-11.4c0.5-0.1,1-0.3,1.4-0.7l19.6-17.2
	c1.7-1.5,1.2-4.3-0.9-5.1l-16.5-6.2c-1.6-0.6-2.3-2.3-1.8-3.9l7.7-20.5c1-2.7-2-5.2-4.5-3.6l-22.4,15c-1.5,1-3.5,0.5-4.3-1.2
	l-18.6-37.2c-1.3-2.5-5-2.1-5.6,0.7l-9.2,44.4c-0.5,2.3-3.2,3.2-4.9,1.6l-22.5-20C130.2,140.4,126.6,143,127.8,145.9z"/>
<path class="st3" d="M115.8,299.6l47.9-132.5c6.1-16.9,29.6-17.8,37-1.5l76.9,168.3c3,6.6-1.8,14.2-9.1,14.2h-60.4
	c-8.6,0-17.1-1.9-25-5.4l-61.1-28C116.4,312,113.6,305.5,115.8,299.6z"/>
<path class="st4" d="M64.6,365.4l45,9c2.7,0.5,4.5,3.2,3.9,5.9l-5.7,28.6c-0.5,2.7-3.2,4.5-5.9,3.9l-45-9c-2.7-0.5-4.5-3.2-3.9-5.9
	l5.7-28.6C59.3,366.6,61.9,364.9,64.6,365.4z"/>
<path class="st5" d="M69,366l28.7,38.7c1.8,2.5,5.8,0.9,5.4-2.2l-2.3-17.4"/>
<circle class="st6" cx="79" cy="388" r="4.5"/>
<path class="st7" d="M227.5,239.5l0.8,17.9c0.1,2.6-1.8,4.8-4.3,5.2l-33,4.4"/>
<path class="st8" d="M171.7,258.3l10.9-5c1.5-0.7,3.3,0,4,1.5l11.3,24.5c0.7,1.5,0,3.3-1.5,4l-10.9,5c-1.5,0.7-3.3,0-4-1.5
	l-11.3-24.5C169.6,260.8,170.2,259,171.7,258.3z"/>
<path class="st9" d="M136,251c0,0,2.1,19.9,13,25.5c13,6.7,33-3,33-3"/>
<path class="st10" d="M202.2,229.6c-12.3,11.5-20.3,14.6-38.8-0.6"/>
<circle class="st11" cx="162.5" cy="228.5" r="6.5"/>
<circle class="st11" cx="202.5" cy="228.5" r="6.5"/>
<path class="st10" d="M160,212.6c5.5-5.5,9.1-6.7,18,0"/>
<path class="st10" d="M187,212.6c5.5-5.5,9.1-6.7,18,0"/>
<path class="st12" d="M146,306c0,0-16,37.5-10,54s118-41,118-41l9,20"/>
<path class="st12" d="M229,313l16.5,25.5L243,403l16,11"/>
<path class="st13" d="M308,206c29.9-2.2,30.1,65.8,29.7,84c-0.1,2.5-2.1,4.5-4.6,4.7l-51,2.9c-2.8,0.2-5.2-2-5.2-4.8
	C276.8,274,278.5,208.2,308,206z"/>
<path class="st13" d="M320,189.2l-9.5,22.2c-0.3,0.7-0.2,1.5,0.3,2.1l13.1,14.8c1.3,1.5,3.7,0.4,3.5-1.5l-3.6-37.1
	C323.6,187.7,320.8,187.3,320,189.2z"/>
<path class="st13" d="M290,200l11.9,11.9c0.7,0.7,0.8,1.7,0.3,2.5l-9.1,14.7c-1,1.6-3.5,1.1-3.7-0.8l-2.8-26.6
	C286.4,199.7,288.7,198.7,290,200z"/>
<path class="st14" d="M310,230.5c0,0-4,5.5-9,5.5s-9-5.5-9-5.5s4-5.5,9-5.5S310,230.5,310,230.5z"/>
<path class="st14" d="M326,230.5c0,0-4,5.5-9,5.5s-9-5.5-9-5.5s4-5.5,9-5.5S326,230.5,326,230.5z"/>
<path class="st15" d="M297,225v12"/>
<path class="st15" d="M314,225v12"/>
<path class="st16" d="M322,242.5l31-12 M323.5,246.5L346,249"/>
<path class="st16" d="M323,250.5l15,6"/>
<path class="st16" d="M295,247l-18.5-3"/>
<path class="st16" d="M298,244l-27.5-12.5"/>
<path class="st16" d="M295.5,252l-20,3"/>
<path class="st17" d="M307.6,244.8c0.4-0.7,1.4-0.7,1.8,0l3.2,6.5c0.3,0.7-0.2,1.4-0.9,1.4h-6.3c-0.7,0-1.2-0.8-0.9-1.4L307.6,244.8
	z"/>
<path class="st13" d="M353.5,292.5c0,12.7-11.4,23-25.5,23s15-14.3,15-27s-29.1-19-15-19S353.5,279.8,353.5,292.5z"/>
<path class="st18" d="M90.3,339c-7.8-6-25.1-77-20.8-91.3c4.4-14.3,13-4.2,13-4.2s47.7,72.9,43.2,83
	C121.2,336.7,101.9,347.9,90.3,339z"/>
<path class="st18" d="M383.7,309c-5.8-4.5-19.1-49.9-15.2-59.7c3.8-9.9,11.4-2.9,11.4-2.9s23.2,43.1,23.2,52.1
	S389.5,313.5,383.7,309z"/>
<path class="st19" d="M259.2,57.8c0,0-33.1-1-37.9,22.5c-4,19.6,37.9,23,37.9,23s4.3,22.8,43.8,26.1c23,1.9,36.6-15.6,36.6-15.6
	s39.2,14.5,50-7c11.2-22.4-17.1-32.1-17.1-32.1s11.7-23.4-6.5-32.1c-24.3-11.5-47.5,8.5-47.5,8.5s-15.7-32.1-42.1-22.5
	C251.2,37.9,259.2,57.8,259.2,57.8z"/>
<circle class="st19" cx="260.5" cy="127.5" r="6.5"/>
<circle class="st19" cx="245" cy="139" r="5"/>
<path class="st6" d="M254.1,67.5l2.4,8.8l9.1,0.4l-7.6,5l2.4,8.8l-7.1-5.7l-7.6,5l3.2-8.5l-7.1-5.7l9.1,0.4L254.1,67.5z"/>
<path class="st6" d="M283.1,68.8l2.4,8.8l9.1,0.4l-7.6,5l2.4,8.8l-7.1-5.7l-7.6,5l3.2-8.5l-7.1-5.7l9.1,0.4L283.1,68.8z"/>
<path class="st6" d="M310.1,70l2.4,8.8l9.1,0.4l-7.6,5l2.4,8.8l-7.1-5.7l-7.6,5l3.2-8.5l-7.1-5.7l9.1,0.4L310.1,70z"/>
<circle class="st20" cx="343.5" cy="76.5" r="17.5"/>
<path class="st10" d="M354.2,80.4c-6.2,6.7-14.7,7.1-21.3-0.2"/>
<ellipse class="st21" cx="338" cy="72.5" rx="3" ry="2.5"/>
<circle class="st21" cx="348.5" cy="72.5" r="2.5"/>
<path class="st11" d="M302,51.4c0,6.1-11,13.6-11,13.6s-11-7.5-11-13.6c0-6.1,6.2-11,11-3.7C296.1,40.3,302,45.3,302,51.4z"/>
</svg>
