<?xml version="1.0" encoding="utf-8"?>
<!-- Generator: Adobe Illustrator 24.1.2, SVG Export Plug-In . SVG Version: 6.00 Build 0)  -->
<svg version="1.1" id="Layer_1" xmlns="http://www.w3.org/2000/svg" xmlns:xlink="http://www.w3.org/1999/xlink" x="0px" y="0px"
	 viewBox="0 0 471 471" style="enable-background:new 0 0 471 471;" xml:space="preserve">
<style type="text/css">
	.st0{fill:#F7F5F7;}
	.st1{fill:#39BBC3;}
	.st2{fill:#1E7D83;}
	.st3{fill:none;stroke:#484646;stroke-width:5;stroke-linecap:round;}
	.st4{fill:#D7EDF9;}
	.st5{fill:#FF9191;}
	.st6{fill:#F3B5B5;}
	.st7{fill:none;stroke:#FF9191;stroke-width:8;stroke-linecap:round;stroke-linejoin:round;}
	.st8{fill:#A372D4;}
	.st9{fill:none;stroke:#C49BF8;stroke-width:3;stroke-linecap:round;stroke-linejoin:round;}
	.st10{fill:none;stroke:#FF9191;stroke-width:7;stroke-linecap:round;stroke-linejoin:bevel;}
	.st11{fill:#E4C524;}
	.st12{fill:#FFDD2D;}
	.st13{fill:none;stroke:#484646;stroke-width:4;stroke-linecap:round;stroke-linejoin:round;}
	.st14{fill:#C4C4C4;}
	.st15{fill:#FF0606;stroke:#FF0606;stroke-width:3;}
	.st16{fill:#A3A0A0;}
	.st17{fill:#FFFFFF;}
	.st18{fill:#FF069B;}
	.st19{fill:none;stroke:#484646;stroke-width:4;stroke-linecap:round;stroke-linejoin:bevel;}
	.st20{fill:none;stroke:#484646;stroke-width:3;stroke-linecap:round;stroke-dasharray:7,7;}
</style>
<rect class="st0" width="471" height="471"/>
<path class="st1" d="M385.9,101h-35.9c-2.7,0-5,2.2-5,4.9l-3.9,233.9c-0.1,3.5,3.4,6,6.7,4.8l43.8-15.5c2-0.7,3.4-2.7,3.3-4.8
	l-4-218.4C390.9,103.2,388.7,101,385.9,101z"/>
<path class="st2" d="M145,176h203.5l0.5,166c0,2.6-2.4,4.5-4.9,3.9l-136.8-31.6L145,176z"/>
<path class="st3" d="M298,253l7.4,3.5c6.3,2.9,13.3,3.6,20,1.9l5.6-1.4"/>
<path class="st1" d="M92.2,140.4c0.3-2.5,2.4-4.4,5-4.4H227c2.8,0,5,2.2,5,5v158.9c0,2.5-1.9,4.7-4.4,5l-131,14.7
	c-2.2,0.3-4.4-1-5.2-3.1l-15.9-40c-0.3-0.8-0.4-1.6-0.3-2.5L92.2,140.4z"/>
<path class="st4" d="M209,102.4L360,92l-11.5,136L209,206.2V102.4z"/>
<path class="st5" d="M123.8,111l25.3,62.7c0.5,1.3,1.9,2.1,3.3,1.8l61.9-11.9c0.5-0.1,1-0.3,1.4-0.7l20.5-18
	c1.7-1.5,1.2-4.3-0.9-5.1l-17.4-6.5c-1.5-0.6-2.3-2.3-1.8-3.9l8.1-21.8c1-2.7-2.1-5.2-4.5-3.5L196.3,120c-1.5,1-3.6,0.5-4.4-1.2
	l-19.4-39.1c-1.3-2.6-5.1-2.1-5.6,0.7l-9.6,46.7c-0.5,2.3-3.2,3.2-4.9,1.6l-23.8-21.2C126.2,105.5,122.6,108,123.8,111z"/>
<path class="st6" d="M111.8,275.1L162.4,135c6.1-16.8,29.5-17.8,37-1.5l81.1,177.3c3,6.6-1.8,14.2-9.1,14.2h-64
	c-8.6,0-17.1-1.9-25-5.4l-64.4-29.5C112.4,287.5,109.6,281,111.8,275.1z"/>
<path class="st7" d="M159.1,283.1c0,0,32.8,28.2,26.1,48.7c-5.6,17-17.5,40.3-23.9,52.2c-1.8,3.4,0.8,7.6,4.7,7.5l18.2-0.7
	 M238.3,279l16.7,26.4c0.7,1,0.9,2.3,0.7,3.5l-10.8,67.6c-0.2,1.3,0.1,2.6,0.8,3.6L256,395"/>
<path class="st8" d="M97.2,247.5l48,3.5c2.8,0.2,4.8,2.6,4.6,5.3l-2.2,30.6c-0.2,2.8-2.6,4.8-5.3,4.6l-48-3.5
	c-2.8-0.2-4.8-2.6-4.6-5.3l2.2-30.6C92,249.4,94.4,247.3,97.2,247.5z"/>
<path class="st9" d="M102,247.6l33.8-45.3c1.8-2.4,5.6-1,5.4,2l-4.4,58.7"/>
<path class="st10" d="M234,209l-5.1,29.8c-0.7,3.9-5.5,5.5-8.4,2.8L203,225.1"/>
<circle class="st11" cx="117" cy="269" r="5"/>
<ellipse class="st12" cx="319" cy="111.5" rx="7" ry="7.5"/>
<path class="st13" d="M162,178L162,178c4.9,6.1,14.1,6.1,19,0l0,0"/>
<path class="st14" d="M261,152h59v72l-59-9.4V152z"/>
<path class="st15" d="M294.5,169c0-0.6-0.4-1-1-1h-6.2c-0.6,0-1,0.4-1,1v13.6c0,0.6-0.4,1-1,1H272c-0.6,0-1,0.4-1,1v6.1
	c0,0.6,0.4,1,1,1h13.8c0.6,0,1,0.4,1,1V206c0,0.6,0.4,1,1,1h5.6c0.6,0,1-0.4,1-1v-13.6c0-0.6,0.4-1,1-1H309c0.6,0,1-0.4,1-1v-5.8
	c0-0.6-0.4-1-1-1h-13.5c-0.6,0-1-0.4-1-1V169z"/>
<path class="st13" d="M190.3,178.1L190.3,178.1c6.5,4.3,15.3,1.1,17.6-6.3l0,0"/>
<path class="st14" d="M193.6,212.9l12.5,2.4c1.6,0.3,2.7,1.9,2.4,3.5l-5.4,27.8c-0.3,1.6-1.9,2.7-3.5,2.4l-12.5-2.4
	c-1.6-0.3-2.7-1.9-2.4-3.5l5.4-27.8C190.4,213.6,191.9,212.5,193.6,212.9z"/>
<path class="st10" d="M134,212c0,0,6.3,22.3,17.6,28c13.4,6.8,41.4-5.6,41.4-5.6"/>
<path class="st16" d="M242,175h19v39l-19-2.6V175z"/>
<path class="st16" d="M319,180h19v47l-19-3.1V180z"/>
<path class="st17" d="M262.5,111c3.4-0.4,7.3,3.6,9.6,6.3c1.2,1.4,3.1,2,4.9,1.6c4.2-1.1,11.8-2.5,14.8,0.9
	c3.7,4.1-2.3,10.4-6.3,13.4c-6.6,5-31.2,1.8-32.9,1.6c-0.1,0-0.1,0-0.2,0c-1.4-0.1-18.2-1.9-15.1-10.8c1.6-4.5,9.4-5.4,13.1-5.6
	c1.3-0.1,2.5-0.7,3.4-1.6C255.7,114.7,259.1,111.5,262.5,111z"/>
<path class="st17" d="M340,119c3.5-0.5,7.6,2.7,9.8,4.7c1,0.9,2.4,1.4,3.7,1.2c3.9-0.4,12.2-0.8,15.4,2.9c3.6,4.1-2.2,10.4-6.2,13.4
	c-6.4,4.9-30.2,1.9-32.3,1.6c-0.1,0-0.2,0-0.3-0.1c-1.8-0.4-17-4.4-14.8-10.8c1.4-4.1,8.6-4.3,12.8-4c1.8,0.1,3.5-0.8,4.5-2.3
	C334.1,123.1,336.8,119.5,340,119z"/>
<ellipse class="st18" cx="168" cy="207.5" rx="7" ry="6.5"/>
<circle class="st18" cx="208.5" cy="200.5" r="6.5"/>
<path class="st19" d="M182,207l13-3"/>
<path class="st1" d="M355,148l2.1-25l16.9-1v26H355z"/>
<path class="st20" d="M182.5,377l-7.5-31 M194.5,381.5l18-39.5 M198.5,389.5L228,379"/>
</svg>
