<svg xmlns="http://www.w3.org/2000/svg" viewBox="0 0 350 350"><title>nina_karma</title><polygon points="103.96 94.13 103.96 94.12 97.78 87.05 103.96 94.13" style="fill:none"/><path d="M272.47,93.69,253,116a4.5,4.5,0,0,0,.22,6.16l19.27,19.17a100.8,100.8,0,0,0,0-47.6Z" style="fill:#cb9932"/><polygon points="245.46 94.19 264.59 72.33 264.59 72.33 245.46 94.19 245.46 94.19" style="fill:#fff"/><path d="M96.5,116,77.42,94.16a100.91,100.91,0,0,0,0,46.71l18.86-18.75A4.5,4.5,0,0,0,96.5,116Z" style="fill:#cb9932"/><polygon points="104.42 142.23 85.27 161.27 104.42 142.23 104.42 142.23" style="fill:#fff"/><polygon points="97.78 87.05 85.22 72.71 85.22 72.71 97.78 87.05" style="fill:#fff"/><path d="M224.75,121.44a4.46,4.46,0,0,0,1,1.63L245,142.17h0l-19.21-19.1A4.47,4.47,0,0,1,224.75,121.44Z" style="fill:#ffcd34"/><path d="M123.9,116.91a4.49,4.49,0,0,1,0,5.87,4.49,4.49,0,0,0,0-5.87L104,94.12h0Z" style="fill:#ffcd34"/><path d="M225.57,116.91a4.49,4.49,0,0,0-.82,4.53,4.49,4.49,0,0,1,.82-4.53l19.88-22.72h0Z" style="fill:#ffcd34"/><path d="M104.42,142.23h0l19.27-19.16c.09-.09.16-.2.24-.29a3.36,3.36,0,0,1-.24.29Z" style="fill:#ffcd34"/><path d="M175,17.18A100.31,100.31,0,0,0,85.22,72.71L97.78,87.05,104,94.12a74.53,74.53,0,0,1,86.33-49.48V18.35A101,101,0,0,0,175,17.18Z" style="fill:#f8f3e9"/><path d="M245.46,94.19l19.13-21.86a100.66,100.66,0,0,0-54.27-48.74V52.06A74.73,74.73,0,0,1,245.46,94.19Z" style="fill:#f8f3e9"/><path d="M104.42,142.23l-19.15,19-.37.37a100.66,100.66,0,0,0,55.3,50V183.53A74.75,74.75,0,0,1,104.42,142.23Z" style="fill:#f8f3e9"/><path d="M245,142.17a74.55,74.55,0,0,1-84.8,48.41v26.15A100.43,100.43,0,0,0,264.93,162Z" style="fill:#f8f3e9"/><path d="M224.75,121.44a4.49,4.49,0,0,1,.82-4.53l19.89-22.73a74.71,74.71,0,0,0-35.17-42.13l-.11,115.27a2.66,2.66,0,0,1-4.66,1.73L172,130.3l-11.79,46.1v14.19A74.55,74.55,0,0,0,245,142.17l-19.21-19.1A4.46,4.46,0,0,1,224.75,121.44Z" style="fill:#ffcd34"/><path d="M144.86,68.36,178,106.7l12.26-48V44.65A74.53,74.53,0,0,0,104,94.12l19.94,22.79a4.49,4.49,0,0,1,0,5.87,3.36,3.36,0,0,1-.24.29l-19.27,19.16a74.75,74.75,0,0,0,35.78,41.3V70.1a2.66,2.66,0,0,1,4.65-1.74Z" style="fill:#ffcd34"/><path d="M185.57,115.42a2.66,2.66,0,0,0,4.66-1.73l.05-54.94L178,106.7Z" style="fill:#cb9932"/><path d="M160.2,123.8v52.6L172,130.3l-7.12-8.24a2.66,2.66,0,0,0-4.68,1.74Z" style="fill:#cb9932"/><path d="M85.88,276.83a1.31,1.31,0,0,1-.67-.41,1.39,1.39,0,0,1-.32-.63.88.88,0,0,1,0-.36,1.85,1.85,0,0,1,0-.5V247.1a1.59,1.59,0,0,1,.18-.5.6.6,0,0,1,.27-.31.75.75,0,0,1,.45,0,1.51,1.51,0,0,1,.5.4,5.82,5.82,0,0,1,.63.95,6.94,6.94,0,0,1,.45.76l.54.95c.18.27.31.54.49.85l.41.68a7.38,7.38,0,0,0,.45.81,6.64,6.64,0,0,0,.45.76l.4.67.27.54.41.72a4.73,4.73,0,0,1,.31.49,4.63,4.63,0,0,0,.27.5,5.08,5.08,0,0,0,.31.58l.27.45a2.52,2.52,0,0,0,.22.36l.31.58a4.27,4.27,0,0,0,.36.58,7.51,7.51,0,0,0,.81,1.26,1.28,1.28,0,0,0,.45.41.33.33,0,0,0,.27.09.16.16,0,0,0,.21-.07v0a.6.6,0,0,0,.27-.45,4.87,4.87,0,0,0,.13-.86V247.67a7,7,0,0,1,0-1,1.52,1.52,0,0,1,.41-.85,2.14,2.14,0,0,1,.72-.36,1.63,1.63,0,0,0,.63-.09h.63a7.49,7.49,0,0,1,1,.13,1,1,0,0,1,.72.45,2.16,2.16,0,0,1,.23.45,2.83,2.83,0,0,1,.13.85v27a8.1,8.1,0,0,1-.09,1,2.76,2.76,0,0,1-.23.54.57.57,0,0,1-.67.13,1.75,1.75,0,0,1-.45-.36c-.22-.27-.4-.58-.63-.9A4.19,4.19,0,0,0,97,274l-.36-.68-.41-.67a5,5,0,0,0-.27-.5,3.25,3.25,0,0,1-.32-.54,3.29,3.29,0,0,0-.32-.54,5,5,0,0,1-.27-.5,2.52,2.52,0,0,1-.22-.36l-.27-.54a3,3,0,0,1-.31-.5l-.32-.54-.27-.54a3,3,0,0,1-.32-.49A3.76,3.76,0,0,1,93,267a2.84,2.84,0,0,1-.36-.63l-.41-.67a3.4,3.4,0,0,0-.31-.54l-.32-.58c-.18-.31-.41-.63-.58-.94a3.58,3.58,0,0,0-.63-.81.87.87,0,0,0-.41-.22.3.3,0,0,0-.31.09.8.8,0,0,0-.23.32l-.13.72v10.67a11,11,0,0,1,0,1.21,1.56,1.56,0,0,1-.45.9,2.45,2.45,0,0,1-.58.32,3.5,3.5,0,0,1-.72.09h-.41a1.51,1.51,0,0,1-.45,0A4,4,0,0,1,85.88,276.83Z" style="fill:#cb9932"/><path d="M104.87,277a1.22,1.22,0,0,1-.72-.76,1.44,1.44,0,0,1-.13-.63,5.17,5.17,0,0,1,0-.85V247.85a6.72,6.72,0,0,1,.09-.94,2.13,2.13,0,0,1,.27-.68,1.16,1.16,0,0,1,.58-.36,1.59,1.59,0,0,1,.63-.13h1.13a3.55,3.55,0,0,1,.95.18,1.21,1.21,0,0,1,.72.76,2.6,2.6,0,0,1,.13.63V275a6.66,6.66,0,0,1,0,1,1.53,1.53,0,0,1-.31.67,1.22,1.22,0,0,1-.54.41,3.53,3.53,0,0,1-.63.09,1.85,1.85,0,0,1-.5,0h-.63A2.36,2.36,0,0,1,104.87,277Z" style="fill:#cb9932"/><path d="M114.09,276.83a1.31,1.31,0,0,1-.67-.41,1.39,1.39,0,0,1-.32-.63.88.88,0,0,1,0-.36,1.85,1.85,0,0,1,0-.5V247.1a1.59,1.59,0,0,1,.18-.5.6.6,0,0,1,.27-.31.75.75,0,0,1,.45,0,1.51,1.51,0,0,1,.5.4,5.82,5.82,0,0,1,.63.95,6.94,6.94,0,0,1,.45.76l.54.95c.18.27.31.54.49.85l.41.68a7.38,7.38,0,0,0,.45.81,6.64,6.64,0,0,0,.45.76l.4.67.27.54.41.72a4.73,4.73,0,0,1,.31.49,4.63,4.63,0,0,0,.27.5,5.08,5.08,0,0,0,.31.58l.27.45a2.52,2.52,0,0,0,.22.36l.31.58a4.27,4.27,0,0,0,.36.58,7.45,7.45,0,0,0,.81,1.26,1.28,1.28,0,0,0,.45.41.33.33,0,0,0,.27.09.16.16,0,0,0,.21-.07v0a.6.6,0,0,0,.27-.45,4.87,4.87,0,0,0,.13-.86V247.67a7,7,0,0,1,0-1,1.52,1.52,0,0,1,.41-.85,2.15,2.15,0,0,1,.72-.36,1.63,1.63,0,0,0,.63-.09h.63a7.49,7.49,0,0,1,1,.13,1,1,0,0,1,.72.45,2.16,2.16,0,0,1,.23.45,2.83,2.83,0,0,1,.13.85v27a8.1,8.1,0,0,1-.09,1,2.76,2.76,0,0,1-.23.54.57.57,0,0,1-.67.13,1.75,1.75,0,0,1-.45-.36c-.22-.27-.4-.58-.63-.9a4.19,4.19,0,0,0-.45-.76l-.36-.68-.41-.67a5,5,0,0,0-.27-.5,3.25,3.25,0,0,1-.32-.54,3.29,3.29,0,0,0-.32-.54,5,5,0,0,1-.27-.5,2.52,2.52,0,0,1-.22-.36l-.27-.54a3,3,0,0,1-.31-.5l-.32-.54-.27-.54a3,3,0,0,1-.32-.49,3.86,3.86,0,0,1-.32-.58,2.88,2.88,0,0,1-.36-.63l-.41-.67a3.4,3.4,0,0,0-.31-.54l-.32-.58c-.18-.31-.41-.63-.58-.94a3.58,3.58,0,0,0-.63-.81.87.87,0,0,0-.41-.22.3.3,0,0,0-.31.09.8.8,0,0,0-.23.32l-.13.72v10.67a11,11,0,0,1,0,1.21,1.56,1.56,0,0,1-.45.9,2.45,2.45,0,0,1-.58.32,3.5,3.5,0,0,1-.72.09h-.41a1.51,1.51,0,0,1-.45,0A4,4,0,0,1,114.09,276.83Z" style="fill:#cb9932"/><path d="M132.18,277.1a2.73,2.73,0,0,1-.54-.22.88.88,0,0,1-.41-.58,1.38,1.38,0,0,1,0-.86,9.09,9.09,0,0,1,.41-1.48c.09-.41.22-.77.31-1.17a5.11,5.11,0,0,1,.32-1c.14-.32.18-.72.31-1.12s.18-.67.32-1a11,11,0,0,1,.32-1.17l.27-1c.13-.36.22-.76.36-1.12l.27-1c.13-.36.23-.76.36-1.12l.27-1.08c.13-.36.23-.77.36-1.17l.27-1c.14-.41.23-.81.36-1.17s.22-.81.31-1.17c.18-.58.36-1.17.5-1.8s.45-1.44.63-2.16.45-1.44.63-2.16.45-1.48.63-2.21l.4-1.44c.09-.32.18-.63.27-.9a3.49,3.49,0,0,1,.31-.72,1.28,1.28,0,0,1,.36-.5.55.55,0,0,1,.72-.09,2.44,2.44,0,0,1,.32.41,2.06,2.06,0,0,1,.31.72l.27.81a2.29,2.29,0,0,0,.18.54,8.9,8.9,0,0,0,.32,1,4.43,4.43,0,0,0,.22.72l.27,1c.09.27.13.5.22.76s.22.63.31,1a6.64,6.64,0,0,0,.23.72l.27,1c.09.22.14.5.23.72l.31,1a3.32,3.32,0,0,0,.23.72l.27,1c.09.22.13.5.22.72l.32,1a3.38,3.38,0,0,0,.22.72l.27,1c.09.22.13.45.22.67s.23.72.32,1a4.43,4.43,0,0,0,.22.72l.27,1a4.92,4.92,0,0,1,.22.76c.09.32.22.63.32,1a5.4,5.4,0,0,0,.22.72l.27,1a4.34,4.34,0,0,1,.23.72c.09.36.22.67.31,1s.14.45.23.72l.27,1a4.43,4.43,0,0,1,.23.72c.13.36.22.67.31,1s.27.85.36,1.26V276a1.16,1.16,0,0,1-.22.81,1.62,1.62,0,0,1-.45.32,2,2,0,0,1-.72.13,2.58,2.58,0,0,0-.59,0H147a2.19,2.19,0,0,1-.54,0,2.52,2.52,0,0,1-.54-.18,1.92,1.92,0,0,1-.54-.5,3.38,3.38,0,0,1-.41-.81c-.13-.31-.18-.63-.32-.94a6.39,6.39,0,0,0-.36-.81,2.13,2.13,0,0,0-.45-.45,1.63,1.63,0,0,0-.76-.32,3,3,0,0,0-.63,0h-4.14a6.65,6.65,0,0,0-.94,0,2.72,2.72,0,0,0-.81.41,3.7,3.7,0,0,0-.36.54,8.12,8.12,0,0,0-.41,1.13,7.75,7.75,0,0,1-.31.94,1.61,1.61,0,0,1-.95.86,3.75,3.75,0,0,1-.67.18h-.68A4.17,4.17,0,0,0,132.18,277.1Zm8.68-8.14a1.39,1.39,0,0,0,.45,0,1.88,1.88,0,0,0,.72-.18c.09-.09.18-.13.22-.22a1,1,0,0,0,.23-.81,3.87,3.87,0,0,0-.09-.72c-.09-.22-.13-.45-.22-.67l-.27-.94-.41-1.22-.27-.94a6.11,6.11,0,0,0-.45-1,1.23,1.23,0,0,0-.32-.36.41.41,0,0,0-.5,0,.7.7,0,0,0-.18.18,2.45,2.45,0,0,0-.27.45,2.86,2.86,0,0,0-.27.81,15.21,15.21,0,0,0-.45,1.53,10.31,10.31,0,0,0-.36,1.26l-.27.86a4.43,4.43,0,0,0-.09.76.57.57,0,0,0,0,.27,1,1,0,0,0,.22.5,1.21,1.21,0,0,0,.63.32,3.38,3.38,0,0,0,.95.09,6.64,6.64,0,0,0,1,0Z" style="fill:#cb9932"/><path d="M165.8,277.1a2.78,2.78,0,0,1-.54-.22,1,1,0,0,1-.54-.68,2.23,2.23,0,0,1-.13-.58V248.23a6.16,6.16,0,0,1,.09-1.26,1.34,1.34,0,0,1,.36-.81,1.14,1.14,0,0,1,.45-.36,2,2,0,0,1,.72-.14,4.89,4.89,0,0,1,.81,0,8,8,0,0,1,1,.14,1.23,1.23,0,0,1,.72.45,1.65,1.65,0,0,1,.23.5,1.43,1.43,0,0,1,.09.63,7.31,7.31,0,0,1,0,1v5.2a3,3,0,0,0,.22.86v.09a.38.38,0,0,0,.52.14h0a1,1,0,0,0,.41-.36,4.57,4.57,0,0,0,.63-1,2.73,2.73,0,0,0,.27-.5,1.83,1.83,0,0,0,.22-.41,2.6,2.6,0,0,0,.23-.36,1,1,0,0,1,.13-.23,5.41,5.41,0,0,1,.22-.5h0a1.76,1.76,0,0,1,.27-.5,1.74,1.74,0,0,1,.27-.49v-.14a.16.16,0,0,1,0-.09,4.63,4.63,0,0,0,.27-.5,4.82,4.82,0,0,0,.27-.5,2.69,2.69,0,0,1,.27-.49v-.22a4.82,4.82,0,0,0,.27-.5l.23-.4a1,1,0,0,1,.13-.23,4.37,4.37,0,0,1,.41-.67,2.19,2.19,0,0,1,1.53-.9h.54a8.6,8.6,0,0,1,1.62.09,1.66,1.66,0,0,1,.63.31.86.86,0,0,1,.23.45,1.73,1.73,0,0,1-.09.67,5.37,5.37,0,0,1-.36.72,3.61,3.61,0,0,1-.32.58,1.68,1.68,0,0,0-.22.5l-.09.13v.09a2.69,2.69,0,0,1-.27.49,4.28,4.28,0,0,1-.27.5,2.09,2.09,0,0,1-.23.45l-.09.13a.26.26,0,0,1-.09.23l-.09.13v.09c0,.09-.18.32-.23.45a5,5,0,0,1-.27.5h0a1.74,1.74,0,0,1-.27.5,1.76,1.76,0,0,1-.27.5v.22l-.54,1q-.12.25-.27.49V255a.17.17,0,0,1,0,.13l-.27.45a.27.27,0,0,0,0,.18,1.73,1.73,0,0,0-.27.5,4.82,4.82,0,0,0-.27.5.28.28,0,0,1-.09.18h0a2.69,2.69,0,0,1-.27.5,2.42,2.42,0,0,1-.27.45V258a4.63,4.63,0,0,0-.27.5,1.76,1.76,0,0,0-.13.22l-.41.9a2.47,2.47,0,0,0-.18,1.13,3.37,3.37,0,0,0,.18.72l.13.41a1.11,1.11,0,0,1,.18.31c0,.18.18.32.22.5s0,.09,0,.13,0,.09.09.09c0,.23.18.41.23.58s0,.09.09.18,0,.09.09.18,0,.13.09.22h0c.09.23.18.41.27.63a3.36,3.36,0,0,1,.27.58l.09.13v.09c.14.18.18.41.32.58s0,.09,0,.13.09.13.09.23a.23.23,0,0,1,.09.18,1,1,0,0,1,.13.22h0a2.31,2.31,0,0,1,.27.58l.09.14v.09a6.16,6.16,0,0,0,.27.58v.13h0l.27.63a.15.15,0,0,0,.09.13h0a5,5,0,0,0,.32.58h0c.09.18.18.4.27.58a.16.16,0,0,1,0,.13l.13.22h0a2.31,2.31,0,0,0,.27.58.24.24,0,0,0,.09.18l.27.63v.22a2.37,2.37,0,0,1,.27.58.34.34,0,0,1,.09.18l.31.58v.18a.23.23,0,0,1,.09.18l.13.27a.15.15,0,0,0,.09.13c.09,0,0,.09,0,.09a4.8,4.8,0,0,1,.41,1.13.9.9,0,0,1-.09.67.88.88,0,0,1-.45.45l-.72.13h-.9a4.54,4.54,0,0,1-1.08-.09,1.6,1.6,0,0,1-.95-.5,2.18,2.18,0,0,1-.54-.72,10.16,10.16,0,0,1-.49-1l-.27-.58a.15.15,0,0,0-.09-.13.23.23,0,0,0-.09-.18.65.65,0,0,1-.09-.27h0a3.33,3.33,0,0,1-.27-.58l-.27-.54h0a6,6,0,0,0-.32-.58v-.18a.34.34,0,0,1-.09-.18h0c-.09-.22-.18-.4-.27-.58s0-.13-.09-.18h0a6.26,6.26,0,0,1-.27-.58h0c-.09-.18-.18-.41-.27-.63A2.32,2.32,0,0,0,171,269l-.09-.13a4.55,4.55,0,0,0-.32-.67,10.56,10.56,0,0,0-.58-1,1.21,1.21,0,0,0-.31-.36.43.43,0,0,0-.61,0l0,0a1.33,1.33,0,0,0-.18.45,5,5,0,0,0-.09.81,7.64,7.64,0,0,0,0,1v5.27a11,11,0,0,1,0,1.21,1.56,1.56,0,0,1-.45.9,2.15,2.15,0,0,1-.72.36,2.77,2.77,0,0,1-.63,0,.67.67,0,0,0-.32,0h0C166.52,277.15,166.16,277.15,165.8,277.1Z" style="fill:#cb9932"/><path d="M183.08,277.1a2.73,2.73,0,0,1-.54-.22.88.88,0,0,1-.41-.58,1.38,1.38,0,0,1,0-.86,9.09,9.09,0,0,1,.41-1.48c.09-.41.22-.77.31-1.17a5.11,5.11,0,0,1,.32-1c.14-.32.18-.72.31-1.12s.18-.67.32-1a11,11,0,0,1,.32-1.17l.27-1c.13-.36.22-.76.36-1.12l.27-1c.13-.36.23-.76.36-1.12l.27-1.08c.13-.36.23-.77.36-1.17l.27-1c.14-.41.23-.81.36-1.17s.22-.81.31-1.17c.18-.58.36-1.17.5-1.8s.45-1.44.63-2.16.45-1.44.63-2.16.45-1.48.63-2.21l.4-1.44c.09-.32.18-.63.27-.9a3.49,3.49,0,0,1,.31-.72,1.28,1.28,0,0,1,.36-.5.55.55,0,0,1,.72-.09,2.44,2.44,0,0,1,.32.41,2.06,2.06,0,0,1,.31.72l.27.81a2.29,2.29,0,0,0,.18.54,8.9,8.9,0,0,0,.32,1,4.43,4.43,0,0,0,.22.72l.27,1c.09.27.13.5.22.76s.22.63.31,1a6.64,6.64,0,0,0,.23.72l.27,1c.09.22.14.5.23.72l.31,1a3.32,3.32,0,0,0,.23.72l.27,1c.09.22.13.5.22.72l.32,1a3.38,3.38,0,0,0,.22.72l.27,1c.09.22.13.45.22.67s.23.72.32,1a4.43,4.43,0,0,0,.22.72l.27,1a4.92,4.92,0,0,1,.22.76c.09.32.22.63.32,1a5.4,5.4,0,0,0,.22.72l.27,1a4.34,4.34,0,0,1,.23.72c.09.36.22.67.31,1s.14.45.23.72l.27,1a4.43,4.43,0,0,1,.23.72c.13.36.22.67.31,1s.27.85.36,1.26V276a1.16,1.16,0,0,1-.22.81,1.62,1.62,0,0,1-.45.32,2,2,0,0,1-.72.13,2.58,2.58,0,0,0-.59,0h-.54a2.19,2.19,0,0,1-.54,0,2.52,2.52,0,0,1-.54-.18,1.92,1.92,0,0,1-.54-.5,3.38,3.38,0,0,1-.41-.81c-.13-.31-.18-.63-.32-.94a6.39,6.39,0,0,0-.36-.81,2.13,2.13,0,0,0-.45-.45,1.63,1.63,0,0,0-.76-.32,3,3,0,0,0-.63,0h-4.14a6.65,6.65,0,0,0-.94,0,2.72,2.72,0,0,0-.81.41,3.7,3.7,0,0,0-.36.54,8.12,8.12,0,0,0-.41,1.13,7.75,7.75,0,0,1-.31.94,1.61,1.61,0,0,1-.95.86,3.75,3.75,0,0,1-.67.18h-.68A4.17,4.17,0,0,0,183.08,277.1Zm8.68-8.14a1.39,1.39,0,0,0,.45,0,1.88,1.88,0,0,0,.72-.18c.09-.09.18-.13.22-.22a1,1,0,0,0,.23-.81,3.87,3.87,0,0,0-.09-.72c-.09-.22-.13-.45-.22-.67l-.27-.94-.41-1.22-.27-.94a6.11,6.11,0,0,0-.45-1,1.23,1.23,0,0,0-.32-.36.41.41,0,0,0-.5,0,.7.7,0,0,0-.18.18,2.45,2.45,0,0,0-.27.45,2.86,2.86,0,0,0-.27.81,15.21,15.21,0,0,0-.45,1.53,10.31,10.31,0,0,0-.36,1.26L189,267a4.43,4.43,0,0,0-.09.76.57.57,0,0,0,0,.27,1,1,0,0,0,.22.5,1.21,1.21,0,0,0,.63.32,3.38,3.38,0,0,0,.95.09,6.64,6.64,0,0,0,1,0Z" style="fill:#cb9932"/><path d="M205.58,277.19a2.57,2.57,0,0,1-.58,0,1.34,1.34,0,0,1-1.08-1.08.88.88,0,0,1,0-.36,1.7,1.7,0,0,1,0-.45v-27a11,11,0,0,1,0-1.21,1.47,1.47,0,0,1,.36-.86.76.76,0,0,1,.45-.31,1.59,1.59,0,0,1,.76-.18h3.46a3.66,3.66,0,0,1,1,.09,9.37,9.37,0,0,1,1,.18,4.71,4.71,0,0,1,.81.18l.76.27a1.56,1.56,0,0,1,.5.18l.36.13a4.81,4.81,0,0,0,.5.27l.22.13a7.73,7.73,0,0,1,.81.5l.63.5a2.91,2.91,0,0,1,.4.36c.14.09.23.23.36.32l.27.31a6.29,6.29,0,0,1,.68.86c.22.32.45.63.63.95s.27.49.4.76a7.61,7.61,0,0,1,.45,1.08,9.7,9.7,0,0,1,.58,2.25l.13.94a4.38,4.38,0,0,0,0,.77v.45a2,2,0,0,1,0,.5,4.91,4.91,0,0,1,0,.81,12.92,12.92,0,0,1-.22,1.39c-.09.36-.18.72-.32,1.13a8.13,8.13,0,0,1-.36,1l-.41.81a8.93,8.93,0,0,1-1.12,1.75,3,3,0,0,1-.5.58,4.08,4.08,0,0,1-.45.45c0,.09-.13.13-.22.22-.27.23-.54.45-.76.68a1.52,1.52,0,0,0-.58,1,2,2,0,0,0,0,.72c0,.13.13.27.18.4a5.18,5.18,0,0,0,.22.5,3.29,3.29,0,0,1,.32.54l.27.54v.13h0a4.82,4.82,0,0,0,.27.5,4.73,4.73,0,0,0,.27.5.17.17,0,0,1,0,.13l.09.13c.09.14.13.32.22.45a3.07,3.07,0,0,1,.27.54l.09.13h0a1.74,1.74,0,0,0,.27.49,1.76,1.76,0,0,0,.27.5V274a1.76,1.76,0,0,1,.27.5,4.51,4.51,0,0,1,.4.81,2.76,2.76,0,0,1,.23.54,1,1,0,0,1,0,.63.59.59,0,0,1-.41.45,2.16,2.16,0,0,1-.76.22h-.9a11.71,11.71,0,0,1-1.17-.13,1.56,1.56,0,0,1-.9-.45,2.19,2.19,0,0,1-.58-.72,4,4,0,0,0-.27-.45c0-.13-.13-.27-.18-.41h0a4.71,4.71,0,0,1-.27-.49,5,5,0,0,1-.27-.5.17.17,0,0,0-.09-.14v-.09a4.82,4.82,0,0,1-.27-.5,4.9,4.9,0,0,1-.27-.49l-.09-.14v-.09a4.82,4.82,0,0,1-.27-.5,2.4,2.4,0,0,1-.23-.5l-.09-.13v-.09l-.27-.5a4.28,4.28,0,0,0-.23-.45.94.94,0,0,0-.18-.27,3.47,3.47,0,0,0-.63-1,1,1,0,0,0-.63-.31.58.58,0,0,0-.54.18c-.23.13-.27.36-.36.58a3.48,3.48,0,0,0-.09.67v.36a1,1,0,0,0,0,.36v3.55a11.4,11.4,0,0,1,0,1.26,1.33,1.33,0,0,1-.45.9,1.22,1.22,0,0,1-.58.32,1.87,1.87,0,0,1-.72.09H206C205.94,277.24,205.76,277.19,205.58,277.19ZM210.84,264a5.38,5.38,0,0,0,.72-.36l.31-.14.41-.27a6.59,6.59,0,0,0,.58-.41,4.06,4.06,0,0,0,.45-.4,4.9,4.9,0,0,0,.4-.5,2.73,2.73,0,0,0,.54-.72l.32-.54a1,1,0,0,1,.13-.31,2.82,2.82,0,0,0,.23-.54,7.37,7.37,0,0,0,.31-1.26,7.82,7.82,0,0,0,.13-1.44v-.4l-.13-1.21a7.63,7.63,0,0,0-.41-1.35l-.18-.45-.13-.27c-.13-.18-.23-.41-.36-.58a5,5,0,0,0-.85-1.08l-.54-.5a6.52,6.52,0,0,0-1.53-.9,3.91,3.91,0,0,0-1-.32,1.83,1.83,0,0,0-1,0,1.12,1.12,0,0,0-.63.5.93.93,0,0,0-.18.5,4.21,4.21,0,0,0-.09,1v10.3a2.19,2.19,0,0,0,0,.54,1.44,1.44,0,0,0,.13.63,1.63,1.63,0,0,0,.32.45,1,1,0,0,0,.81.23h.18A8.52,8.52,0,0,0,210.84,264Z" style="fill:#cb9932"/><path d="M224.75,277.1a1.75,1.75,0,0,1-.67-.09,1.23,1.23,0,0,1-.67-.36,1.2,1.2,0,0,1-.32-.63.7.7,0,0,0-.09-.41V248.17a5.53,5.53,0,0,1,0-1.17,1.46,1.46,0,0,1,.36-.81.9.9,0,0,1,.45-.36,2.26,2.26,0,0,1,.54-.09,4.29,4.29,0,0,1,1.3,0h.63a1.93,1.93,0,0,1,.72.23,1.6,1.6,0,0,1,.63.45,5.67,5.67,0,0,1,.67,1.13,2.75,2.75,0,0,0,.23.54,2.44,2.44,0,0,1,.22.5,1.68,1.68,0,0,1,.23.5l.27.45v.18s0,.09.09.18,0,.09.09.18h0a1.21,1.21,0,0,1,.23.5,2.08,2.08,0,0,1,.22.45l.09.13v.13a2.47,2.47,0,0,0,.23.5,4.25,4.25,0,0,0,.22.45l.23.5a2.41,2.41,0,0,0,.22.49v.23a1.66,1.66,0,0,1,.23.5l.27.5h0c.13.22.22.49.36.76a4.64,4.64,0,0,0,.4.63,1.57,1.57,0,0,0,.41.36.72.72,0,0,0,.67,0,1.43,1.43,0,0,0,.5-.54l.27-.5c.13-.27.27-.54.4-.86a3.34,3.34,0,0,1,.32-.63l.13-.27a5.27,5.27,0,0,1,.32-.63l.27-.58V252a1,1,0,0,0,.13-.22v-.09a2.45,2.45,0,0,1,.32-.63V251l.13-.32a.34.34,0,0,1,.09-.22.14.14,0,0,1,0-.09c.13-.18.18-.4.31-.58a.17.17,0,0,1,0-.13l.13-.31a.17.17,0,0,1,.09-.14V249c.13-.22.22-.45.36-.67h0c.09-.22.23-.41.32-.63v-.09a9.34,9.34,0,0,1,.5-.95,2.55,2.55,0,0,1,.58-.63,2.1,2.1,0,0,1,.45-.22,3.4,3.4,0,0,1,.95-.14,9.88,9.88,0,0,1,1.89.09,1.39,1.39,0,0,1,.68.45,1.08,1.08,0,0,1,.27.5,2.66,2.66,0,0,1,.09.63,6.66,6.66,0,0,1,0,.95v26.32a5.54,5.54,0,0,1-.09,1.21,1.29,1.29,0,0,1-.41.9,1.47,1.47,0,0,1-.58.32,2,2,0,0,1-.72.09,1.25,1.25,0,0,0-.41,0H240a2,2,0,0,1-.72-.09,1.23,1.23,0,0,1-.67-.36,1.2,1.2,0,0,1-.31-.63,1.31,1.31,0,0,1-.09-.41V260.75a4.38,4.38,0,0,1,0-.77v-.72a1.71,1.71,0,0,0-.22-.67.17.17,0,0,0,0-.13.48.48,0,0,0-.5-.14.92.92,0,0,0-.27.18c-.09.13-.23.22-.32.36a10.21,10.21,0,0,0-.58.9l-.45.81c-.13.18-.22.41-.36.58s-.14.32-.23.45a1.83,1.83,0,0,0-.22.41l-.27.5-.27.4a2,2,0,0,1-.23.45,3.72,3.72,0,0,0-.31.58,6.81,6.81,0,0,1-.67.9.7.7,0,0,1-.36.27.67.67,0,0,1-.58,0,1.1,1.1,0,0,1-.36-.27,4.1,4.1,0,0,1-.63-.9l-.27-.41a5.27,5.27,0,0,0-.22-.49.94.94,0,0,1-.18-.27l-.13-.31a1.76,1.76,0,0,0-.13-.18l-.27-.5c-.09-.13-.13-.27-.22-.4l-.27-.5a4.92,4.92,0,0,1-.27-.5l-.41-.72c-.13-.18-.27-.41-.4-.58a1.87,1.87,0,0,0-.5-.54l-.18-.14c-.27-.09-.4,0-.54.23a2.23,2.23,0,0,0-.18.58,2.87,2.87,0,0,1-.09.85v14.63a4.76,4.76,0,0,1-.09,1.13,1.29,1.29,0,0,1-.41.9,1.47,1.47,0,0,1-.58.32,2,2,0,0,1-.72.09h-.5C224.65,277.13,224.93,277.1,224.75,277.1Z" style="fill:#cb9932"/><path d="M247.74,277.1a2.73,2.73,0,0,1-.54-.22.88.88,0,0,1-.41-.58,1.38,1.38,0,0,1,0-.86,9.09,9.09,0,0,1,.41-1.48c.09-.41.22-.77.31-1.17a5.11,5.11,0,0,1,.32-1c.14-.32.18-.72.31-1.12s.18-.67.32-1a11,11,0,0,1,.32-1.17l.27-1c.13-.36.22-.76.36-1.12l.27-1c.13-.36.23-.76.36-1.12l.27-1.08c.13-.36.23-.77.36-1.17l.27-1c.14-.41.23-.81.36-1.17s.22-.81.31-1.17c.18-.58.36-1.17.5-1.8s.45-1.44.63-2.16.45-1.44.63-2.16.45-1.48.63-2.21l.4-1.44c.09-.32.18-.63.27-.9a3.49,3.49,0,0,1,.31-.72,1.29,1.29,0,0,1,.36-.5.55.55,0,0,1,.72-.09,2.44,2.44,0,0,1,.32.41,2.06,2.06,0,0,1,.31.72l.27.81a2.29,2.29,0,0,0,.18.54,8.9,8.9,0,0,0,.32,1,4.43,4.43,0,0,0,.22.72l.27,1c.09.27.14.5.23.76s.22.63.31,1a6.64,6.64,0,0,0,.23.72l.27,1c.09.22.14.5.23.72l.31,1a3.32,3.32,0,0,0,.23.72l.27,1c.09.22.13.5.22.72l.32,1a3.38,3.38,0,0,0,.22.72l.27,1c.09.22.13.45.22.67s.23.72.32,1a4.43,4.43,0,0,0,.22.72l.27,1a4.92,4.92,0,0,1,.22.76c.09.32.22.63.32,1a5.4,5.4,0,0,0,.22.72l.27,1a4.34,4.34,0,0,1,.23.72c.09.36.22.67.31,1s.14.45.23.72l.27,1a4.43,4.43,0,0,1,.23.72c.13.36.22.67.31,1s.27.85.36,1.26V276a1.16,1.16,0,0,1-.22.81,1.62,1.62,0,0,1-.45.32,2,2,0,0,1-.72.13,2.57,2.57,0,0,0-.58,0h-.54a2.19,2.19,0,0,1-.54,0,2.52,2.52,0,0,1-.54-.18,1.92,1.92,0,0,1-.54-.5,3.38,3.38,0,0,1-.41-.81c-.13-.31-.18-.63-.32-.94a6.39,6.39,0,0,0-.36-.81,2.13,2.13,0,0,0-.45-.45,1.63,1.63,0,0,0-.76-.32,3,3,0,0,0-.63,0h-4.14a6.65,6.65,0,0,0-.94,0,2.72,2.72,0,0,0-.81.41,3.7,3.7,0,0,0-.36.54,8.12,8.12,0,0,0-.41,1.13,7.75,7.75,0,0,1-.31.94,1.61,1.61,0,0,1-.95.86,3.75,3.75,0,0,1-.67.18h-.59A6.7,6.7,0,0,0,247.74,277.1Zm8.68-8.14a1.39,1.39,0,0,0,.45,0,1.88,1.88,0,0,0,.72-.18c.09-.09.18-.13.22-.22a1,1,0,0,0,.23-.81,4,4,0,0,0,0-.75c-.09-.22-.13-.45-.22-.67l-.27-.94-.41-1.22-.27-.94a6.11,6.11,0,0,0-.45-1,1.23,1.23,0,0,0-.32-.36.41.41,0,0,0-.5,0,.7.7,0,0,0-.18.18,2.45,2.45,0,0,0-.27.45,2.86,2.86,0,0,0-.27.81,15.21,15.21,0,0,0-.45,1.53,10.31,10.31,0,0,0-.36,1.26l-.27.86a4.43,4.43,0,0,0-.09.76.57.57,0,0,0,0,.27,1,1,0,0,0,.22.5,1.21,1.21,0,0,0,.63.32,3.38,3.38,0,0,0,.95.09,6.64,6.64,0,0,0,1,.05Z" style="fill:#cb9932"/><path d="M123.23,314.07,122,318c-.3.93-.66,2,.24,2.61,2.82,1.86,6.3,2.52,9-.12a.79.79,0,0,1,1.14,1.08c-3.06,3-7.29,2.61-10.62.57-1.17-.72-1.29-.72-2.34.06a4.91,4.91,0,0,1-3.69.9c-3.24-.63-2.73-4.65.51-5a6,6,0,0,1,2.19.3c.78.24,1.53.45,1.92-.63a37.9,37.9,0,0,0,1.14-3.9c.15-.84-.66-1.44-1.35-1.71a6,6,0,0,1-3.57-4.53.73.73,0,0,1,1.41-.39,4.65,4.65,0,0,0,3,3.63,7.6,7.6,0,0,0,6.15-1c2.28-1.32,4.44-4.2,4.53-6.57,0-1-.45-1.89-1.53-1.89-1.71,0-3.18,2-4.26,4.11a23.56,23.56,0,0,0-1.62,4.38c-.3,1.11-1.83.81-1.65-.21a23.44,23.44,0,0,1,1.83-4.92c1.38-2.79,3.42-5.25,5.91-5.13a3.1,3.1,0,0,1,2.79,3.21c.12,3.18-2.52,6.87-5.46,8.52a10.49,10.49,0,0,1-1.44.66C125.09,312.51,123.62,312.81,123.23,314.07Zm-6.3,5.31c-2.43-.33-2.4,2.88,0,2.34a4.8,4.8,0,0,0,1.62-.72c.51-.48.57-.81.12-1A5.37,5.37,0,0,0,116.93,319.38Z" style="fill:#ffcd34"/><path d="M127.13,323.85a10.59,10.59,0,0,1-5.41-1.63c-1.13-.7-1.19-.69-2.2,0a5.09,5.09,0,0,1-3.79.92,2.53,2.53,0,0,1-2.29-2.56,2.93,2.93,0,0,1,2.81-2.69,6.09,6.09,0,0,1,2.24.3c.88.27,1.43.37,1.76-.55a37.59,37.59,0,0,0,1.14-3.88c.17-1-1-1.47-1.27-1.57a6.12,6.12,0,0,1-3.65-4.62.9.9,0,0,1,.23-.91.89.89,0,0,1,.86-.21.84.84,0,0,1,.56.67,4.52,4.52,0,0,0,2.95,3.54,7.41,7.41,0,0,0,6-1c2.38-1.38,4.38-4.28,4.47-6.47a1.88,1.88,0,0,0-.45-1.38,1.28,1.28,0,0,0-1-.38c-1.77,0-3.24,2.21-4.15,4a23.47,23.47,0,0,0-1.61,4.35,1,1,0,0,1-1.17.79h0a.87.87,0,0,1-.69-1,23.44,23.44,0,0,1,1.84-5c1-2,3.08-5.35,6-5.2a3.23,3.23,0,0,1,2.91,3.33c.13,3.39-2.71,7-5.52,8.63a10.62,10.62,0,0,1-1.46.67l-.63.24c-1,.36-2,.74-2.35,1.72l-1.08,4c-.3.93-.61,1.9.2,2.44,1.57,1,5.57,3.1,8.84-.11a.91.91,0,0,1,1.33,1.24A7.44,7.44,0,0,1,127.13,323.85Zm-6.54-2.39a2.69,2.69,0,0,1,1.26.55c3,1.81,7.26,2.62,10.47-.55a.67.67,0,0,0-1-.9c-2.39,2.34-5.73,2.39-9.15.13-1-.65-.6-1.8-.3-2.72l1.21-3.93c.34-1.1,1.44-1.5,2.51-1.89l.63-.23a10.44,10.44,0,0,0,1.43-.65c3.5-2,5.49-5.82,5.39-8.4a3,3,0,0,0-2.67-3.09h-.17c-2.71,0-4.68,3.16-5.62,5.06a23.21,23.21,0,0,0-1.82,4.89.62.62,0,0,0,.48.74h0a.76.76,0,0,0,.91-.58h0a23.7,23.7,0,0,1,1.63-4.4c.94-1.89,2.47-4.15,4.37-4.18a1.54,1.54,0,0,1,1.14.45,2.13,2.13,0,0,1,.52,1.57c-.09,2.26-2.15,5.26-4.59,6.67a7.66,7.66,0,0,1-6.26,1,4.77,4.77,0,0,1-3.11-3.73.59.59,0,0,0-.39-.48.63.63,0,0,0-.62.15.65.65,0,0,0-.16.67,5.88,5.88,0,0,0,3.5,4.45c.79.31,1.58,1,1.43,1.85a37.89,37.89,0,0,1-1.14,3.91c-.44,1.23-1.35,1-2.08.72a5.89,5.89,0,0,0-2.14-.29,2.69,2.69,0,0,0-2.58,2.45,2.29,2.29,0,0,0,2.09,2.31,4.82,4.82,0,0,0,3.59-.88C119.93,321.66,120.25,321.46,120.59,321.46Zm-4.15.45a1.42,1.42,0,0,1-1.21-.55,1.29,1.29,0,0,1,0-1.42,1.67,1.67,0,0,1,1.76-.68,5.42,5.42,0,0,1,1.81.61.56.56,0,0,1,.36.4,1.15,1.15,0,0,1-.46.82,4.94,4.94,0,0,1-1.68.75A2.53,2.53,0,0,1,116.44,321.91Zm.15-2.42a1.32,1.32,0,0,0-1.19.58,1.06,1.06,0,0,0,0,1.15,1.39,1.39,0,0,0,1.5.39,4.68,4.68,0,0,0,1.57-.7c.33-.31.38-.49.37-.58s-.09-.15-.23-.22a5.17,5.17,0,0,0-1.73-.59h0Z" style="fill:#ffcd34"/><path d="M135.35,309.69a.72.72,0,0,1,.48,1c-.42,1.11-1,2.52-1.38,3.93-.27,1-.78,2.88-.45,3.78.27.72,1,.54,1.56,0a8.1,8.1,0,0,0,1.47-1.77,18.12,18.12,0,0,0,1.17-2.07.51.51,0,0,1,.93.39A20.07,20.07,0,0,1,138,317.1a8.82,8.82,0,0,1-1.8,2.22c-1.26,1-2.85,1.11-3.42-.33s0-3.51.39-4.89.93-2.94,1.29-3.87A.75.75,0,0,1,135.35,309.69ZM137,307a.93.93,0,1,1-.93-.93.93.93,0,0,1,.93.93Z" style="fill:#ffcd34"/><path d="M134.28,320.21a1.9,1.9,0,0,1-.48-.06,1.73,1.73,0,0,1-1.18-1.11c-.55-1.39.08-3.81.38-5,.49-1.75,1.07-3.3,1.29-3.88a.87.87,0,0,1,1.07-.61h0a.83.83,0,0,1,.5.38.94.94,0,0,1,.06.73l-.07.18c-.41,1.08-.92,2.42-1.31,3.75-.25.92-.77,2.83-.45,3.7a.55.55,0,0,0,.36.38,1.25,1.25,0,0,0,1-.4,7.85,7.85,0,0,0,1.45-1.74,15.63,15.63,0,0,0,1-1.81l.13-.25a.63.63,0,0,1,.84-.28h0a.58.58,0,0,1,.32.75v0a20.23,20.23,0,0,1-1.18,2.18,8.76,8.76,0,0,1-1.83,2.25A3.22,3.22,0,0,1,134.28,320.21Zm.85-10.43a.7.7,0,0,0-.6.5c-.23.58-.8,2.12-1.29,3.86-.3,1.13-.91,3.5-.39,4.81a1.49,1.49,0,0,0,1,1,2.64,2.64,0,0,0,2.22-.68,8.54,8.54,0,0,0,1.77-2.19,20.1,20.1,0,0,0,1.16-2.15.33.33,0,0,0-.16-.44h0a.38.38,0,0,0-.51.16h0l-.13.25c-.24.45-.6,1.13-1,1.83a8.08,8.08,0,0,1-1.5,1.8,1.47,1.47,0,0,1-1.23.45.79.79,0,0,1-.53-.54c-.35-.94.17-2.84.45-3.86.4-1.35.91-2.69,1.32-3.77l.06-.17a.69.69,0,0,0,0-.53.58.58,0,0,0-.35-.27h0A.53.53,0,0,0,135.13,309.78Zm1-1.67a1.05,1.05,0,1,1,1.05-1.05A1.06,1.06,0,0,1,136.13,308.11Zm0-1.86a.8.8,0,1,0,.8.8A.81.81,0,0,0,136.13,306.25Z" style="fill:#ffcd34"/><path d="M145.64,305.31c.72,2.76-1.71,8.61-5.55,9.6a.9.9,0,0,0-.47,1.18l0,0a2.83,2.83,0,0,0,3.71,1.5h0c1.35-.69,1.77-2,2.49-3.15a.52.52,0,1,1,.87.57h0c-.81,1.41-1.29,2.64-2.82,3.54a3.75,3.75,0,0,1-2.46.45c-.57-.06-.84-.3-.72.63a8.85,8.85,0,0,1-.54,4.92,2.53,2.53,0,0,1-2.1,1.59c-1.71.06-2.25-2-2-3.36a84.07,84.07,0,0,1,2-8.19c1.17-3.84,2.28-7.83,3.69-9.6C143,303.6,145.1,303.24,145.64,305.31Zm-6.33,17.91a9.08,9.08,0,0,0-.09-4.11c-.3-1.11-.66-.84-.9.06-.3,1.14-.54,2.37-.81,3.51C136.85,325.35,138.95,325.38,139.31,323.22Zm1.26-11.34c-.15.54-.69,2,.84.81,2-1.62,3.36-5.16,3-6.66-.27-1.2-1-.51-1.5.09-1,1.14-1.71,3.6-2.34,5.76Z" style="fill:#ffcd34"/><path d="M138,326.32a1.81,1.81,0,0,1-1.42-.65,3.59,3.59,0,0,1-.61-2.86,83.43,83.43,0,0,1,2-8.2l.34-1.13c1.07-3.54,2.08-6.89,3.37-8.51a2.85,2.85,0,0,1,2.64-1.19,1.88,1.88,0,0,1,1.39,1.51h0c.41,1.56-.15,4-1.38,6.11a7.39,7.39,0,0,1-4.26,3.64.72.72,0,0,0-.41.44.76.76,0,0,0,0,.61,2.72,2.72,0,0,0,3.56,1.45,4.89,4.89,0,0,0,2-2.33l.43-.77a.65.65,0,0,1,1.09.69l-.36.65a6.59,6.59,0,0,1-2.5,2.93,3.86,3.86,0,0,1-2.55.46h-.56s-.07.13,0,.55a8.82,8.82,0,0,1-.55,5,2.68,2.68,0,0,1-2.21,1.66ZM144,304a2.78,2.78,0,0,0-2.06,1.13c-1.26,1.58-2.26,4.9-3.32,8.42l-.34,1.13a83.09,83.09,0,0,0-2,8.18,3.38,3.38,0,0,0,.56,2.65,1.54,1.54,0,0,0,1.3.56,2.4,2.4,0,0,0,2-1.52,8.58,8.58,0,0,0,.53-4.85c-.06-.44,0-.65.09-.76s.3-.09.51,0h.26a3.61,3.61,0,0,0,2.39-.44,6.4,6.4,0,0,0,2.4-2.84l.37-.66a.4.4,0,0,0-.66-.44c-.15.25-.29.5-.42.76a5.09,5.09,0,0,1-2.11,2.44,3,3,0,0,1-3.89-1.56,1.09,1.09,0,0,1,.57-1.4,7.16,7.16,0,0,0,4.12-3.53c1.18-2,1.74-4.44,1.35-5.92h0a1.63,1.63,0,0,0-1.2-1.32A1.6,1.6,0,0,0,144,304Zm-5.87,20.91a.72.72,0,0,1-.49-.19,2.14,2.14,0,0,1-.24-2c.1-.43.2-.88.3-1.33.16-.72.32-1.47.51-2.18s.35-.88.59-.88h0c.23,0,.4.26.56.82a9.26,9.26,0,0,1,.09,4.17,1.91,1.91,0,0,1-1,1.6.82.82,0,0,1-.33,0Zm.67-6.39s-.19.13-.35.7-.35,1.45-.51,2.17l-.3,1.34c-.21.85-.15,1.52.16,1.81a.49.49,0,0,0,.51.09,1.7,1.7,0,0,0,.88-1.41h0a9,9,0,0,0-.09-4c-.1-.55-.28-.66-.31-.66Zm1.77-5.22a.31.31,0,0,1-.18,0c-.26-.18-.14-.67,0-1.25v-.14c.68-2.32,1.42-4.68,2.4-5.81.48-.6.87-.85,1.19-.78s.42.31.52.75c.35,1.58-1.08,5.15-3.07,6.78a1.8,1.8,0,0,1-.87.49Zm.13-1.37v.14c-.06.22-.26.88-.13,1s.17.08.81-.44c1.9-1.55,3.31-5,3-6.54-.05-.23-.15-.51-.33-.56s-.55.21-.95.7c-.95,1.09-1.68,3.42-2.35,5.72Z" style="fill:#ffcd34"/><path d="M145.76,314.19c.78-2.34,2.55-4.56,4.56-4.56a2,2,0,0,1,2.07,2.88c-.69,2.25-2.79,3.3-5,3.69a1,1,0,0,0-.72.81,2.36,2.36,0,0,0,.27,1,1.71,1.71,0,0,0,1.8.9c2.28-.15,3.93-2.79,4.92-4.47a.52.52,0,1,1,.87.57h0c-1.17,2-3,4.86-5.73,5.1a3.14,3.14,0,0,1-3-1.35A5.81,5.81,0,0,1,145.76,314.19Zm2.13.66c1.44-.36,2.91-1,3.36-2.61.21-.69,0-1.41-.84-1.32-1.26.15-2.37,1.5-3.06,3.06C147.17,314.46,147.23,314.94,147.89,314.85Z" style="fill:#ffcd34"/><path d="M148.46,320.31a3.22,3.22,0,0,1-2.75-1.43,5.85,5.85,0,0,1-.07-4.73h0c.75-2.24,2.53-4.65,4.68-4.65a2.26,2.26,0,0,1,1.95.84,2.39,2.39,0,0,1,.24,2.21c-.77,2.51-3.17,3.44-5,3.77a.88.88,0,0,0-.62.69,2.22,2.22,0,0,0,.25,1,1.6,1.6,0,0,0,1.68.83c2.32-.15,4-3,4.82-4.41a.65.65,0,0,1,1.09.69c-1.31,2.28-3.15,4.93-5.83,5.16Zm1.91-10.55h-.05c-2,0-3.73,2.32-4.44,4.47h0a5.69,5.69,0,0,0,0,4.51,3,3,0,0,0,2.91,1.29c2.56-.23,4.36-2.81,5.63-5a.4.4,0,0,0-.66-.44c-.83,1.42-2.57,4.37-5,4.53a1.82,1.82,0,0,1-1.92-1,2.48,2.48,0,0,1-.28-1.1,1.13,1.13,0,0,1,.83-.94c1.81-.33,4.12-1.22,4.85-3.6a2.15,2.15,0,0,0-.21-2,2,2,0,0,0-1.66-.72ZM147.74,315a.58.58,0,0,1-.48-.2.87.87,0,0,1,0-.85c.81-1.83,2-3,3.16-3.14a.9.9,0,0,1,.85.28,1.31,1.31,0,0,1,.12,1.2c-.38,1.33-1.51,2.21-3.45,2.69h-.18Zm2.82-4h-.13c-1.08.13-2.19,1.25-3,3a.67.67,0,0,0,0,.6c.07.09.21.12.41.09,1.84-.46,2.91-1.29,3.26-2.52a1.07,1.07,0,0,0-.07-1,.61.61,0,0,0-.48-.22Z" style="fill:#ffcd34"/><path d="M171.11,324.84c8.37.78,19.68-4.2,26-2.4a5.77,5.77,0,0,1,3.87,3.15c.69,1.71-1,1.89-1.29,1a4.3,4.3,0,0,0-3-2.61c-5.16-1.8-17.94,3.12-25.56,2.52-8.94-.69-12.33-7.8-9.3-15.63a2,2,0,0,0-.87-2.49,6.23,6.23,0,0,1-2.61-5.46.75.75,0,0,1,1.47-.27v.15a4.68,4.68,0,0,0,.81,3.09c1.44,2.19,4.38,2.67,6.78,2.16a10.78,10.78,0,0,0,3.78-1.62,6.73,6.73,0,0,0,2.88-3.57A1.62,1.62,0,0,0,173,300.6c-2.85-.66-6.24,4.26-7.44,6.39-.57,1.26-2.16.39-1.62-.57,1.65-3,5.76-8.7,9.69-7.53a3.11,3.11,0,0,1,2,3.81,8.1,8.1,0,0,1-3.57,5,12,12,0,0,1-6.63,2.19,2,2,0,0,0-1.77,1.35C160.73,317.88,163.25,324.12,171.11,324.84Z" style="fill:#ffcd34"/><path d="M200.47,327.23h-.19a.88.88,0,0,1-.68-.63,4.2,4.2,0,0,0-2.95-2.53c-2.74-1-7.66,0-12.86,1-4.49.88-9.12,1.78-12.67,1.5-4.11-.32-7.22-2-9-4.78-1.87-3-2-6.88-.42-11a1.89,1.89,0,0,0-.83-2.35,6.35,6.35,0,0,1-2.66-5.56,1,1,0,0,1,.29-.71.87.87,0,0,1,.65-.23.9.9,0,0,1,.77.64v.17a4.59,4.59,0,0,0,.79,3c1.5,2.28,4.52,2.56,6.65,2.11a10.63,10.63,0,0,0,3.73-1.6,6.67,6.67,0,0,0,2.83-3.5,1.89,1.89,0,0,0-.11-1.47,1.29,1.29,0,0,0-.87-.6c-2.6-.6-5.82,3.69-7.3,6.33a1.06,1.06,0,0,1-.9.69,1,1,0,0,1-.93-.47.87.87,0,0,1,0-.91c.51-.92,5.15-9,9.83-7.59a3.23,3.23,0,0,1,2.07,4,8.2,8.2,0,0,1-3.62,5A12.21,12.21,0,0,1,165.6,310h-.19a1.91,1.91,0,0,0-1.65,1.27c-1.52,3.49-1.54,6.92-.06,9.41s4,3.75,7.43,4.07h0c3.93.37,8.51-.54,12.94-1.42,5-1,9.73-1.93,13.12-1a5.84,5.84,0,0,1,4,3.22,1.44,1.44,0,0,1,0,1.41A.81.81,0,0,1,200.47,327.23Zm-6.7-3.82a9.17,9.17,0,0,1,3,.41,4.43,4.43,0,0,1,3.11,2.69.64.64,0,0,0,.49.45.59.59,0,0,0,.57-.18,1.15,1.15,0,0,0,0-1.15,5.59,5.59,0,0,0-3.79-3.08c-3.33-.94-8,0-13,1-4.45.88-9,1.8-13,1.43h0c-3.55-.33-6.19-1.78-7.62-4.19s-1.5-6.07,0-9.63a2.15,2.15,0,0,1,1.87-1.42,11.78,11.78,0,0,0,6.57-2.17,8,8,0,0,0,3.52-4.87A3,3,0,0,0,173.6,299c-1.68-.5-3.55.24-5.58,2.18a24.29,24.29,0,0,0-4,5.29.62.62,0,0,0,0,.66.8.8,0,0,0,.7.35.84.84,0,0,0,.69-.55c1.52-2.71,4.84-7.1,7.58-6.46a1.55,1.55,0,0,1,1,.71,2.14,2.14,0,0,1,.14,1.66,6.91,6.91,0,0,1-2.93,3.64,10.89,10.89,0,0,1-3.82,1.64c-2.21.47-5.34.17-6.91-2.21a4.83,4.83,0,0,1-.83-3.17v-.14a.66.66,0,0,0-.55-.42.62.62,0,0,0-.45.16.72.72,0,0,0-.22.52,6.12,6.12,0,0,0,2.55,5.36,2.13,2.13,0,0,1,.92,2.64c-1.57,4.06-1.43,7.89.4,10.79,1.73,2.74,4.77,4.35,8.8,4.66,3.51.28,8.13-.63,12.6-1.5a58.22,58.22,0,0,1,10.08-1.42Z" style="fill:#ffcd34"/><path d="M177.56,309.36c2.61.3,2.91,3.63,1.89,6.51-.15.48-.06,1.08.39,1.08a2.29,2.29,0,0,0,1-.24,4.61,4.61,0,0,0,1.56-2c.15-.21.24-.42.36-.6.27-.48,1.2,0,.84.57a2.81,2.81,0,0,1-.27.51,5.28,5.28,0,0,1-2.16,2.52,3.15,3.15,0,0,1-2,.36,1.31,1.31,0,0,0-1.17.48,3.67,3.67,0,0,1-3,1.56C170,319.74,173,308.82,177.56,309.36Zm.66,5.76c.6-2,.51-4.2-.69-4.38-2.94-.45-5.28,8-2.4,8a2.45,2.45,0,0,0,1.83-1,.58.58,0,0,0,0-.66,1.66,1.66,0,0,1-.24-.78.88.88,0,0,1,.57-.81,1,1,0,0,1,.42,0C178.13,315.51,178.16,315.33,178.22,315.12Z" style="fill:#ffcd34"/><path d="M175.18,320.29H175a2.64,2.64,0,0,1-2.29-1.62c-.87-1.91-.26-5.27,1.36-7.49a3.92,3.92,0,0,1,3.54-1.94h0a2.54,2.54,0,0,1,2,1.21c.78,1.25.79,3.34,0,5.46a1,1,0,0,0,0,.8.26.26,0,0,0,.23.11,2.15,2.15,0,0,0,.93-.23,4.21,4.21,0,0,0,1.44-1.77l.07-.13a3.75,3.75,0,0,0,.21-.35l.15-.26a.51.51,0,0,1,.45-.25h0a.74.74,0,0,1,.62.37.56.56,0,0,1,0,.59,2.68,2.68,0,0,1-.27.51,5.39,5.39,0,0,1-2.21,2.56,3.29,3.29,0,0,1-2.09.37,1.19,1.19,0,0,0-1.06.45A3.89,3.89,0,0,1,175.18,320.29Zm2.06-10.83a3.87,3.87,0,0,0-3,1.86c-1.57,2.15-2.17,5.4-1.33,7.24A2.38,2.38,0,0,0,175,320a3.56,3.56,0,0,0,2.89-1.52,1.44,1.44,0,0,1,1.28-.52,3.05,3.05,0,0,0,1.94-.35,5.21,5.21,0,0,0,2.11-2.47,2.72,2.72,0,0,0,.26-.5.34.34,0,0,0,0-.36.49.49,0,0,0-.41-.24h0a.26.26,0,0,0-.24.13c-.06.08-.1.17-.15.25a3.67,3.67,0,0,1-.22.36l-.07.12a4.38,4.38,0,0,1-1.54,1.87,2.42,2.42,0,0,1-1,.26.51.51,0,0,1-.43-.21,1.21,1.21,0,0,1-.08-1c.72-2,.71-4.08,0-5.25a2.3,2.3,0,0,0-1.77-1.1h-.33Zm-2.11,9.44a1.26,1.26,0,0,1-1.16-.75c-.68-1.35-.06-4.38,1.28-6.22a2.49,2.49,0,0,1,2.3-1.32,1.11,1.11,0,0,1,.79.54c.49.77.49,2.34,0,4h-.12l.11.06c-.07.25-.17.46-.66.42a.9.9,0,0,0-.38,0,.76.76,0,0,0-.48.7,1.55,1.55,0,0,0,.23.71h0a.68.68,0,0,1,0,.76,2.56,2.56,0,0,1-1.91,1.11Zm2.17-8.06a2.55,2.55,0,0,0-1.85,1.24c-1.27,1.75-1.89,4.7-1.26,6a1,1,0,0,0,.94.61,2.37,2.37,0,0,0,1.73-1c.12-.19.05-.33,0-.5a1.83,1.83,0,0,1-.27-.86,1,1,0,0,1,.67-.93,1.12,1.12,0,0,1,.47,0c.31,0,.33-.06.39-.24h0a5.27,5.27,0,0,0,0-3.8.87.87,0,0,0-.62-.42Zm1,4.31h0Z" style="fill:#ffcd34"/><path d="M187.43,309.63a3.5,3.5,0,0,1,1.23.42.8.8,0,0,0,1-.06c.51-.39,1.5,0,1.11,1-.21.57-.93,2.49-1.41,4.32a17.77,17.77,0,0,0-.45,2.37c0,.87.24,1.29.78,1.26,1.44-.12,2.85-3.15,3.6-4.41.27-.45,1.2,0,.84.57-.9,1.59-2.31,4.68-4.38,5a1.66,1.66,0,0,1-1.77-.72c-.42-.66-.75-.54-1.23-.18a4.07,4.07,0,0,1-1.59.84,2.16,2.16,0,0,1-2.37-1c-.72-1.14-.66-3-.12-4.71s1.62-3.63,2.85-4.29A3.45,3.45,0,0,1,187.43,309.63Zm0,1.44a1.56,1.56,0,0,0-1.56.33,6.79,6.79,0,0,0-1.74,3.06,5.91,5.91,0,0,0-.24,3.81.94.94,0,0,0,1.21.55l.14-.07a5.79,5.79,0,0,0,2.52-3.57,6.37,6.37,0,0,0,.33-3.39A1.21,1.21,0,0,0,187.43,311.07Z" style="fill:#ffcd34"/><path d="M189.33,320.29a1.72,1.72,0,0,1-1.5-.81c-.16-.25-.31-.39-.45-.41a1,1,0,0,0-.6.26,4.16,4.16,0,0,1-1.63.86,2.29,2.29,0,0,1-2.51-1.1,6.08,6.08,0,0,1-.13-4.81,7.4,7.4,0,0,1,2.91-4.36,3.57,3.57,0,0,1,2-.4h0a3.59,3.59,0,0,1,1.27.43.68.68,0,0,0,.82,0,.93.93,0,0,1,1.08,0,.9.9,0,0,1,.22,1.14v.1c-.25.68-.92,2.48-1.37,4.21a18,18,0,0,0-.45,2.35,1.34,1.34,0,0,0,.24,1,.51.51,0,0,0,.41.13c1.14-.09,2.31-2.21,3.08-3.61.15-.28.29-.53.42-.74a.5.5,0,0,1,.47-.24.75.75,0,0,1,.62.37.56.56,0,0,1,0,.58l-.36.65c-.89,1.64-2.24,4.12-4.11,4.45A2.42,2.42,0,0,1,189.33,320.29Zm-2-1.48h.1a1,1,0,0,1,.61.52,1.52,1.52,0,0,0,1.64.66c1.75-.3,3.06-2.72,3.93-4.32L194,315a.31.31,0,0,0,0-.33.49.49,0,0,0-.4-.23.29.29,0,0,0-.25.12c-.12.2-.26.45-.41.73-.8,1.45-2,3.63-3.28,3.74a.77.77,0,0,1-.6-.2,1.56,1.56,0,0,1-.31-1.19,18.22,18.22,0,0,1,.45-2.39c.46-1.75,1.13-3.56,1.38-4.24v-.1a.69.69,0,0,0-.14-.85.67.67,0,0,0-.78,0,.93.93,0,0,1-1.1.07,3,3,0,0,0-3.06,0,7.16,7.16,0,0,0-2.79,4.21,5.84,5.84,0,0,0,.11,4.61,2,2,0,0,0,2.24,1,3.92,3.92,0,0,0,1.54-.81A1.25,1.25,0,0,1,187.33,318.81Zm-2.6.18a1.05,1.05,0,0,1-1-.67,5.92,5.92,0,0,1,.23-3.91,6.84,6.84,0,0,1,1.78-3.12,1.7,1.7,0,0,1,1.69-.35,1.33,1.33,0,0,1,.73.79,6.64,6.64,0,0,1-.33,3.47,5.85,5.85,0,0,1-2.59,3.65,1.41,1.41,0,0,1-.51.15ZM187,311.1a1.86,1.86,0,0,0-1,.4,6.61,6.61,0,0,0-1.69,3,5.78,5.78,0,0,0-.25,3.72.81.81,0,0,0,1,.5l.16-.08a5.68,5.68,0,0,0,2.45-3.49,6.11,6.11,0,0,0,.33-3.31,1.09,1.09,0,0,0-.59-.64h0A.93.93,0,0,0,187,311.1Z" style="fill:#ffcd34"/><path d="M193.37,314.16c.78-2.34,2.55-4.56,4.56-4.56a2.1,2.1,0,0,1,2,1,2.73,2.73,0,0,1-.18,2.52c-.33.84-1.59.54-1.14-.36a2,2,0,0,0,.27-1.47.77.77,0,0,0-.87-.45c-1.38.15-2.64,1.8-3.24,3.57a5,5,0,0,0-.18,3.57,1.71,1.71,0,0,0,1.8.9c2.28-.15,3.93-2.79,4.92-4.47a.52.52,0,0,1,.87.57h0c-1.17,2-3,4.86-5.73,5.1a3.14,3.14,0,0,1-3-1.35A5.81,5.81,0,0,1,193.37,314.16Z" style="fill:#ffcd34"/><path d="M196.07,320.28a3.22,3.22,0,0,1-2.75-1.43,5.85,5.85,0,0,1-.07-4.73h0c.75-2.24,2.53-4.65,4.68-4.65a2.2,2.2,0,0,1,2.12,1.12,2.87,2.87,0,0,1-.18,2.63.87.87,0,0,1-.7.56.7.7,0,0,1-.66-.27.71.71,0,0,1,0-.77,1.86,1.86,0,0,0,.26-1.37c-.11-.28-.35-.4-.74-.37-1.39.15-2.6,1.91-3.13,3.49a4.82,4.82,0,0,0-.19,3.47,1.59,1.59,0,0,0,1.68.83c2.31-.15,4-3,4.82-4.41a.65.65,0,0,1,1.09.69c-1.31,2.28-3.15,4.93-5.83,5.16Zm-2.58-6.08a5.69,5.69,0,0,0,0,4.51A3,3,0,0,0,196.4,320c2.56-.23,4.36-2.81,5.63-5a.4.4,0,0,0-.66-.44c-.83,1.42-2.57,4.37-5,4.53a1.82,1.82,0,0,1-1.92-1,5,5,0,0,1,.17-3.67c.58-1.7,1.83-3.49,3.34-3.65a.9.9,0,0,1,1,.53,2.06,2.06,0,0,1-.27,1.57.49.49,0,0,0,0,.51.45.45,0,0,0,.43.16.61.61,0,0,0,.5-.41,2.64,2.64,0,0,0,.19-2.41,2,2,0,0,0-1.9-1c-2,0-3.73,2.32-4.45,4.47Z" style="fill:#ffcd34"/><path d="M205.88,303.51l-1.65,5.79c0,.06-.39,1.2.24.87a4.52,4.52,0,0,1,2.28-.57c1,.06,2.22.72,1.74,2.7-.48,1.8-1.38,3.39-1.71,5.46-.18,1,.21,1.26.81,1a6.09,6.09,0,0,0,2-2.25c.54-.84,1-1.71,1.32-2.19a.51.51,0,0,1,.84.57c-.42.75-1,1.74-1.62,2.7A6.08,6.08,0,0,1,207.7,320c-1.26.45-2.67-.12-2.4-2.19.33-2.25,1.17-3.75,1.71-5.67a.72.72,0,0,0-.63-1c-1-.18-3.12,1.17-3.57,2.94l-1.53,5.46c-.24.93-1.65.6-1.5-.24l4.62-16.08C204.83,302.31,206.06,302.82,205.88,303.51Z" style="fill:#ffcd34"/><path d="M206.94,320.28a1.75,1.75,0,0,1-1.11-.37,2.15,2.15,0,0,1-.61-2.11,17.64,17.64,0,0,1,1-3.7c.23-.63.48-1.29.67-2a.65.65,0,0,0-.06-.53.68.68,0,0,0-.47-.27c-.93-.18-3,1.19-3.43,2.85l-1.53,5.46a.86.86,0,0,1-1,.64h0a.81.81,0,0,1-.68-.92l4.62-16.09a.88.88,0,0,1,1.1-.58h0a.75.75,0,0,1,.55.88h0l-1.65,5.78v.09c-.15.58-.08.67-.07.68h.15a4.72,4.72,0,0,1,2.35-.58,2.16,2.16,0,0,1,1.6.8,2.4,2.4,0,0,1,.26,2.06,22.19,22.19,0,0,1-.72,2.11,16.68,16.68,0,0,0-1,3.34c-.1.6,0,.82.1.91s.29.09.54,0a6.21,6.21,0,0,0,2-2.2c.33-.51.64-1,.89-1.47l.43-.72a.58.58,0,0,1,.81-.15h0a.59.59,0,0,1,.27.79l0,0-.12.21c-.4.72-.91,1.62-1.51,2.5a6.26,6.26,0,0,1-2.49,2.42A2.51,2.51,0,0,1,206.94,320.28Zm-.7-9.23h.2a.92.92,0,0,1,.63.38.9.9,0,0,1,.09.73c-.2.71-.44,1.37-.68,2a17.41,17.41,0,0,0-1,3.65,2,2,0,0,0,.52,1.88,1.77,1.77,0,0,0,1.71.17,6.06,6.06,0,0,0,2.37-2.32c.6-.87,1.1-1.76,1.5-2.48l.12-.21a.35.35,0,0,0-.12-.48l0,0a.34.34,0,0,0-.48,0h0l-.43.71c-.25.43-.57,1-.9,1.48a6.19,6.19,0,0,1-2.1,2.3.78.78,0,0,1-.79,0c-.22-.19-.28-.56-.18-1.14a16.9,16.9,0,0,1,1-3.39,21.92,21.92,0,0,0,.71-2.09,2.17,2.17,0,0,0-.22-1.85,1.92,1.92,0,0,0-1.41-.7,4.47,4.47,0,0,0-2.21.55c-.18.09-.32.1-.42,0a1.31,1.31,0,0,1,0-.94v-.07l1.65-5.81a.51.51,0,0,0-.39-.58.63.63,0,0,0-.8.39v0L200,319.36a.56.56,0,0,0,.49.62.61.61,0,0,0,.76-.41v0l1.53-5.46A4.49,4.49,0,0,1,206.24,311Z" style="fill:#ffcd34"/><path d="M213.23,309.69a.72.72,0,0,1,.48,1c-.42,1.11-1,2.52-1.38,3.93-.27,1-.78,2.88-.45,3.78.27.72,1,.54,1.56,0a8.1,8.1,0,0,0,1.47-1.77,18.12,18.12,0,0,0,1.17-2.07.51.51,0,0,1,.93.39,20.07,20.07,0,0,1-1.17,2.16,8.82,8.82,0,0,1-1.8,2.22c-1.26,1-2.85,1.11-3.42-.33s0-3.51.39-4.89.93-2.94,1.29-3.87a.75.75,0,0,1,.9-.56Zm1.68-2.64a.93.93,0,1,1-.93-.93.93.93,0,0,1,.93.93h0Z" style="fill:#ffcd34"/><path d="M212.16,320.21a1.9,1.9,0,0,1-.48-.06A1.73,1.73,0,0,1,210.5,319c-.55-1.39.08-3.81.38-5,.49-1.75,1.07-3.3,1.29-3.88a.87.87,0,0,1,1.07-.61h0a.83.83,0,0,1,.5.38.94.94,0,0,1,.06.73l-.07.18c-.41,1.08-.92,2.42-1.31,3.75-.25.92-.77,2.83-.45,3.7a.55.55,0,0,0,.36.38,1.25,1.25,0,0,0,1-.4,7.85,7.85,0,0,0,1.45-1.74,15.63,15.63,0,0,0,1-1.81l.13-.25a.63.63,0,0,1,.84-.28h0a.58.58,0,0,1,.32.75v0a20.23,20.23,0,0,1-1.18,2.18,8.76,8.76,0,0,1-1.83,2.25A3.22,3.22,0,0,1,212.16,320.21Zm.85-10.43a.7.7,0,0,0-.6.5c-.23.58-.8,2.12-1.29,3.86-.3,1.13-.91,3.5-.39,4.81a1.49,1.49,0,0,0,1,1,2.64,2.64,0,0,0,2.22-.68,8.54,8.54,0,0,0,1.77-2.19,20.1,20.1,0,0,0,1.16-2.15.33.33,0,0,0-.16-.44h0a.38.38,0,0,0-.51.16h0l-.13.25c-.24.45-.6,1.13-1,1.83a8.08,8.08,0,0,1-1.5,1.8,1.47,1.47,0,0,1-1.23.45.79.79,0,0,1-.53-.54c-.35-.94.17-2.84.45-3.86.4-1.35.91-2.69,1.32-3.77l.06-.17a.69.69,0,0,0,0-.53.58.58,0,0,0-.35-.27h0a.53.53,0,0,0-.26-.06Zm1-1.67a1.05,1.05,0,1,1,1.05-1.05A1.06,1.06,0,0,1,214,308.11Zm0-1.86a.8.8,0,1,0,.8.8A.81.81,0,0,0,214,306.25Z" style="fill:#ffcd34"/><path d="M218.81,310.08a.38.38,0,0,0,.51.16l.06,0a3.59,3.59,0,0,1,2.22-.66c.93.06,2.22.75,1.71,2.7a50,50,0,0,0-1.56,5.34c-.18,1,.21,1.29.81,1a6,6,0,0,0,2-2.22c.54-.87,1-1.74,1.32-2.22a.52.52,0,0,1,.84.6c-.36.6-1,1.74-1.62,2.67a6.08,6.08,0,0,1-2.43,2.37c-1.26.45-2.67-.09-2.4-2.19a37.54,37.54,0,0,1,1.59-5.52.76.76,0,0,0-.47-1l-.16,0c-2-.33-3.6,3.09-4,4.59l-1,3.69a.75.75,0,0,1-1.47-.24l2.58-8.94a.82.82,0,0,1,1.47-.09Z" style="fill:#ffcd34"/><path d="M221.9,320.1a1.74,1.74,0,0,1-1.1-.36,2.16,2.16,0,0,1-.61-2.12,18.34,18.34,0,0,1,1-3.68c.21-.59.42-1.19.61-1.86a.67.67,0,0,0-.05-.52.77.77,0,0,0-.48-.31c-1.91-.33-3.5,3.19-3.87,4.5l-1.05,3.69a.85.85,0,0,1-1,.63.81.81,0,0,1-.67-.92l2.58-9a1,1,0,0,1,.91-.66h0a.88.88,0,0,1,.82.49.26.26,0,0,0,.14.12.32.32,0,0,0,.25,0,3.74,3.74,0,0,1,2.29-.68,2.13,2.13,0,0,1,1.59.82,2.35,2.35,0,0,1,.23,2c-.19.76-.43,1.46-.67,2.14a17.72,17.72,0,0,0-.89,3.19,1.22,1.22,0,0,0,.11.93c.11.12.36,0,.53,0a6.13,6.13,0,0,0,2-2.17c.3-.48.58-1,.83-1.39s.36-.61.49-.83a.51.51,0,0,1,.45-.24h0a.74.74,0,0,1,.62.36.59.59,0,0,1,0,.61l-.3.53a25,25,0,0,1-1.32,2.15,6.25,6.25,0,0,1-2.49,2.41A2.55,2.55,0,0,1,221.9,320.1ZM221,311h.29a1,1,0,0,1,.65.43.91.91,0,0,1,.08.72c-.19.68-.41,1.29-.61,1.88a18.11,18.11,0,0,0-1,3.63,2,2,0,0,0,.52,1.89,1.77,1.77,0,0,0,1.72.17A6.06,6.06,0,0,0,225,317.4a16.89,16.89,0,0,0,1.31-2.13l.3-.53a.34.34,0,0,0,0-.36.5.5,0,0,0-.41-.23h0a.26.26,0,0,0-.24.12l-.49.82c-.19.32-.53.91-.83,1.4-.89,1.36-1.54,2.06-2.1,2.27a.74.74,0,0,1-.78,0c-.23-.19-.3-.58-.2-1.16a17.94,17.94,0,0,1,.9-3.23,20.28,20.28,0,0,0,.66-2.12,2.11,2.11,0,0,0-.19-1.83,1.87,1.87,0,0,0-1.4-.72,3.49,3.49,0,0,0-2.14.64.57.57,0,0,1-.46.08.51.51,0,0,1-.29-.25h0a.63.63,0,0,0-.59-.34.71.71,0,0,0-.68.49l-2.58,8.93a.56.56,0,0,0,.48.62.6.6,0,0,0,.74-.41v0l1.05-3.69C217.55,314.15,219.09,311,221,311Z" style="fill:#ffcd34"/><path d="M231.77,310.14a.62.62,0,0,0,.81-.12c.51-.39,1.5,0,1.08,1-1,3-1.65,5.64-2.52,8.52-.3,1,.69.27,1-.06a22.19,22.19,0,0,0,3.39-5.1c.27-.48,1.23,0,.87.57-2.88,5.58-3.45,5.73-8.31,8.25a11.62,11.62,0,0,0-2.64,2c-.81.9-.42,2,.48,2,1.29,0,2.34-2.22,2.82-3.63.33-.81,1.59-.84,1.41-.18-.72,2.1-1.83,4.77-4.17,5-2,.15-3-2.1-1.62-3.81a11.53,11.53,0,0,1,4-2.85c.69-.42.72-.57.87-.93l.12-.42c.18-.6-.15-.72-.66-.48a2.94,2.94,0,0,1-.66.24,2.14,2.14,0,0,1-2.37-1c-.72-1.14-.66-3-.15-4.71s1.65-3.63,2.88-4.26A3.3,3.3,0,0,1,231.77,310.14Zm-1.38,1a1.64,1.64,0,0,0-1.56.33,6.54,6.54,0,0,0-1.77,3.06,6.08,6.08,0,0,0-.21,3.81.91.91,0,0,0,1.16.55l.16-.07a5.71,5.71,0,0,0,2.55-3.57,6,6,0,0,0,.3-3.39,1.17,1.17,0,0,0-.63-.7Z" style="fill:#ffcd34"/><path d="M225.82,328.54a2.1,2.1,0,0,1-1.9-1.13,2.64,2.64,0,0,1,.37-2.89,11.61,11.61,0,0,1,4.06-2.88c.6-.37.66-.51.78-.81v-.06l.12-.41c.06-.2.06-.35,0-.4s-.21-.06-.48.07a2.71,2.71,0,0,1-.61.23h-.07a2.25,2.25,0,0,1-2.51-1.1,6.14,6.14,0,0,1-.16-4.81,7.42,7.42,0,0,1,2.94-4.34,3.42,3.42,0,0,1,3.45,0,.49.49,0,0,0,.66-.1.89.89,0,0,1,1.07,0,1,1,0,0,1,.21,1.19c-.61,1.83-1.1,3.58-1.58,5.27-.3,1-.6,2.13-.93,3.23-.08.29,0,.35,0,.35a3,3,0,0,0,.85-.54A18.31,18.31,0,0,0,235,315.2l.46-.83a.53.53,0,0,1,.47-.27h0a.76.76,0,0,1,.63.36.58.58,0,0,1,0,.6c-2.8,5.42-3.47,5.77-7.88,8l-.48.25a11.46,11.46,0,0,0-2.61,2,1.26,1.26,0,0,0-.33,1.34.75.75,0,0,0,.72.45c1.1,0,2.12-1.83,2.7-3.54a1.16,1.16,0,0,1,1.34-.69.45.45,0,0,1,.32.55v0c-.82,2.4-2,4.86-4.28,5Zm3.33-8.86a.41.41,0,0,1,.28.09c.15.13.17.35.08.66l-.15.49c-.15.36-.24.53-.9.93a11.42,11.42,0,0,0-4,2.82,2.39,2.39,0,0,0-.34,2.62,1.87,1.87,0,0,0,1.85,1c2.17-.17,3.27-2.55,4.06-4.87a.2.2,0,0,0-.11-.26h0a.92.92,0,0,0-1,.54c-.29.86-1.38,3.71-2.94,3.71a1,1,0,0,1-.95-.6,1.52,1.52,0,0,1,.37-1.62,11.74,11.74,0,0,1,2.67-2l.49-.25c4.44-2.3,5-2.59,7.77-7.94a.34.34,0,0,0,0-.36.5.5,0,0,0-.42-.23h0a.28.28,0,0,0-.26.14l-.46.83a18.49,18.49,0,0,1-2.95,4.3s-.79.79-1.15.58-.11-.51-.08-.64c.33-1.1.64-2.18.93-3.23.48-1.7,1-3.45,1.59-5.29a.72.72,0,0,0-.13-.9.64.64,0,0,0-.76,0,.73.73,0,0,1-1,.13h0a3.17,3.17,0,0,0-3.2,0,7.14,7.14,0,0,0-2.82,4.19,6,6,0,0,0,.14,4.61,2,2,0,0,0,2.24,1H228a2.53,2.53,0,0,0,.56-.21,1.16,1.16,0,0,1,.58-.23Zm-1.49-.59a1,1,0,0,1-.93-.67,6.12,6.12,0,0,1,.2-3.9,6.53,6.53,0,0,1,1.82-3.12,1.78,1.78,0,0,1,1.68-.34,1.28,1.28,0,0,1,.7.79,5.93,5.93,0,0,1-.3,3.47,5.79,5.79,0,0,1-2.62,3.65,1.33,1.33,0,0,1-.54.12Zm2.3-7.89a2,2,0,0,0-1.07.4,6.41,6.41,0,0,0-1.72,3,5.89,5.89,0,0,0-.22,3.72.79.79,0,0,0,1,.49l.16-.07a5.62,5.62,0,0,0,2.48-3.49,5.8,5.8,0,0,0,.3-3.31,1,1,0,0,0-.56-.65h0a.88.88,0,0,0-.33-.09Z" style="fill:#ffcd34"/></svg>