<svg xmlns="http://www.w3.org/2000/svg" viewBox="0 0 714.05 696.47"><title>nk_branding</title><rect x="587.09" width="63.42" height="263.36" style="fill:#def0ef"/><rect x="523.32" width="63.42" height="263.36" style="fill:#ade9e8"/><rect x="650.86" y="87.79" width="63.18" height="87.79" style="fill:#ffcfd8"/><rect x="650.86" width="63.18" height="87.79" style="fill:#faeaee"/><rect x="650.86" y="175.58" width="63.18" height="87.79" style="fill:#afdcf0"/><polygon points="0 263.36 0 696.36 438.37 696.36 438.37 633.36 438.37 363.36 438.37 263.36 0 263.36" style="fill:#f8f3e9"/><path d="M142.7,469.29c.86-1.58.24-2.88-1-2.92-2.69-.15-4.27,4.7-5,6.77-.58,1.44-3,1.63-2.6.38,1.2-3.51,3.17-9.65,7.68-9.65,2.74,0,4.61,2.93,3,6.24-1.54,3.12-5.33,5.67-7.92,7.15a6.36,6.36,0,0,0-2.45,3c-.72,2.35-1.68,5.76-2.4,9.12-.86,4.08-1.29,8.11-.43,10.18.43,1.24-1.78,2.49-2.59.43-.77-2.64-.39-6.63.38-10.52a69.71,69.71,0,0,1,2.16-8.2c.24-.77-.62-1.25-1.2-1.06-5.33,2.21-12.05,4.56-16.42,7.06-7.29,4.12-8.73,9.6-7,11,2,1.68,8.55-1.44,12.77-12.39.58-1.44,3.17-1.58,2.55.19-5,13.64-13.54,17.48-17.43,14.26-3-2.45-1.73-9.84,8.31-15.46,2-1.15,4.08-1.82,5.9-2.78a6.61,6.61,0,0,0,2.83-3.7c.92-3.21,1.35-5.18,2.35-8.3.53-1.49.2-2-1.53-2.16-2.55-.24-5.43-1.25-7.73-1.44a5.35,5.35,0,0,0-5.67,4.42c-.81,3.74,2.69,6,5.86,3.55a1.07,1.07,0,0,1,1.25,1.73c-4.56,3.55-10.42.19-9.46-5.48a7.58,7.58,0,0,1,8.07-6.33c3.6.14,7.39,1.92,10.56,1,1.44-.43,2.3-1.48,3.55-2.06a1.24,1.24,0,0,1,1.49,2c-1.34,1.1-2.74,2.06-3.31,3.74-1.35,3-1.87,5.91-2.74,9-.19,1,.39,1.73,1.49,1.39C131.66,477.5,140.59,473.23,142.7,469.29Z" style="fill:#333"/><path d="M138,487.15c1.25-3.74,4.08-7.29,7.3-7.29,2.78-.05,4.13,2.06,3.31,4.6-1.1,3.6-4.46,5.28-7.92,5.91a1.61,1.61,0,0,0-1.15,1.29,3.73,3.73,0,0,0,.43,1.68,2.75,2.75,0,0,0,2.88,1.45c3.65-.25,6.29-4.47,7.87-7.16a.83.83,0,0,1,1.39.91c-1.87,3.27-4.84,7.78-9.17,8.17a5,5,0,0,1-4.84-2.17C137,492.77,137.08,489.89,138,487.15Zm3.41,1.06c2.3-.58,4.66-1.68,5.38-4.18.33-1.1,0-2.25-1.35-2.11-2,.24-3.79,2.4-4.89,4.9C140.25,487.58,140.34,488.35,141.4,488.21Z" style="fill:#333"/><path d="M158.49,479.86a5.51,5.51,0,0,1,2,.67,1.29,1.29,0,0,0,1.53-.1c.82-.62,2.4-.05,1.78,1.59-.34.91-1.49,4-2.26,6.91a28.37,28.37,0,0,0-.72,3.79c0,1.39.38,2.07,1.25,2,2.3-.2,4.56-5,5.76-7.06.43-.72,1.92,0,1.34.91-1.44,2.55-3.69,7.49-7,8.07a2.67,2.67,0,0,1-2.84-1.16c-.67-1.05-1.2-.86-2-.28a6.55,6.55,0,0,1-2.54,1.34,3.43,3.43,0,0,1-3.79-1.68c-1.15-1.82-1.06-4.75-.19-7.54.86-3,2.59-5.8,4.56-6.86A5.44,5.44,0,0,1,158.49,479.86Zm0,2.3a2.5,2.5,0,0,0-2.5.53c-1.06.81-2.11,2.78-2.78,4.89-.77,2.31-1,4.76-.39,6.1a1.5,1.5,0,0,0,2.16.77c1.59-.67,3.27-3.07,4-5.71.63-2.07,1-4.13.53-5.43A1.9,1.9,0,0,0,158.49,482.16Z" style="fill:#333"/><path d="M178.41,480.05c1.1-3.7,2.44-8,3.07-10.18a1.39,1.39,0,0,1,1.68-1,1.18,1.18,0,0,1,.82,1.34c-.82,3-2.12,6.92-3.32,10.9-.76,2.64-1.53,5.28-2.16,7.63-.38,1.49-.72,2.88-1,4.08s.24,2,1.06,1.93c2.3-.15,4.56-5.05,5.76-7,.43-.77,1.92,0,1.39.91-1.44,2.54-3.69,7.49-7,8a2.67,2.67,0,0,1-2.92-1.35c-.53-1-1.25-.72-1.93-.09a8,8,0,0,1-1.48,1,3.45,3.45,0,0,1-4.85-1.25c-1.15-1.83-1-4.8-.19-7.59.91-3,2.59-5.76,4.56-6.81,1.34-.72,3.55-1,4.8,0C177.64,481.39,178.07,481,178.41,480.05Zm-3.36,2.16a2.56,2.56,0,0,0-2.45.57c-1.1.77-2.16,2.74-2.83,4.9s-1,4.75-.34,6.1a1.46,1.46,0,0,0,2.11.76c1.59-.67,3.46-3,4.23-5.61.62-2.11,1-4.18.52-5.47A2.24,2.24,0,0,0,175.05,482.21Z" style="fill:#333"/><path d="M188.05,480a1.16,1.16,0,0,1,.77,1.54c-.67,1.77-1.54,4-2.21,6.29-.43,1.58-1.25,4.6-.72,6,.44,1.16,1.54.87,2.5.05a13.14,13.14,0,0,0,2.35-2.83c.86-1.34,1.54-2.69,1.87-3.31.48-.91,1.88-.29,1.49.62a31.81,31.81,0,0,1-1.87,3.46,14.35,14.35,0,0,1-2.88,3.55c-2,1.63-4.56,1.78-5.47-.53-.82-2.06,0-5.61.62-7.82.67-2.4,1.49-4.71,2.07-6.19A1.2,1.2,0,0,1,188.05,480Zm2.69-4.22a1.5,1.5,0,0,1-1.49,1.49,1.49,1.49,0,0,1,0-3A1.49,1.49,0,0,1,190.74,475.73Z" style="fill:#333"/><path d="M197,480.58a.61.61,0,0,0,.91.19,5.75,5.75,0,0,1,3.55-1.06c1.49.1,3.56,1.2,2.74,4.32-.72,2.93-2,5.23-2.5,8.55-.28,1.68.34,2.06,1.3,1.68s2.16-1.88,3.27-3.56c.86-1.39,1.63-2.78,2.11-3.55s1.92,0,1.34,1c-.67,1.15-1.54,2.79-2.59,4.27-1.15,1.68-2.4,3.22-3.89,3.8-2,.72-4.27-.15-3.84-3.51.53-3.6,1.68-5.76,2.54-8.83a1.21,1.21,0,0,0-1-1.58c-3.12-.53-5.76,4.94-6.43,7.34l-1.69,5.9a1.19,1.19,0,0,1-2.35-.38l4.13-14.3A1.31,1.31,0,0,1,197,480.58Z" style="fill:#333"/><path d="M217.72,480.67a1,1,0,0,0,1.29-.19c.82-.62,2.4,0,1.73,1.68-1.58,4.75-2.64,9-4,13.63-.48,1.64,1.1.44,1.63-.09,2.45-2.5,3.74-5.19,5.42-8.16.44-.77,2-.05,1.4.91-4.61,8.93-5.52,9.17-13.3,13.2a18.41,18.41,0,0,0-4.22,3.22c-1.3,1.44-.68,3.21.76,3.21,2.07,0,3.75-3.55,4.52-5.81.52-1.29,2.54-1.34,2.25-.28-1.15,3.36-2.92,7.63-6.67,7.92-3.12.24-4.75-3.36-2.59-6.1a18.44,18.44,0,0,1,6.43-4.56c1.1-.67,1.15-.91,1.39-1.49l.19-.67c.29-1-.24-1.15-1-.77a5,5,0,0,1-1.06.39A3.42,3.42,0,0,1,208,495c-1.15-1.82-1.06-4.75-.24-7.53.91-3,2.64-5.81,4.61-6.82A5.29,5.29,0,0,1,217.72,480.67Zm-2.21,1.63a2.66,2.66,0,0,0-2.5.53c-1.1.82-2.16,2.79-2.83,4.9-.72,2.3-1,4.75-.34,6.09a1.47,1.47,0,0,0,2.12.77c1.63-.67,3.31-3.07,4.08-5.71.62-2.06,1-4.13.48-5.42A1.89,1.89,0,0,0,215.51,482.3Z" style="fill:#333"/><path d="M247.19,496.61c-4.42.38-4.9-3.27-11.67-1.54a8.25,8.25,0,0,0-2.69,1.25,1.48,1.48,0,0,1-1.1.24,1.2,1.2,0,0,1-.72-1.34c.29-2.64,2.21-4.85,4-6.68s4.28-4.08,6.15-5.66c2.25-2,6.86-6.05,8.16-10.13s-2.59-6.58-6.34-5.42c-2,.62-3.26,2.3-4.22,4.56a1.22,1.22,0,0,1-1.15.86,1.21,1.21,0,0,1-1-1.58c1.25-2.93,3.12-5.09,5.62-6,5.18-1.77,10.94,2,9.4,7.64-1.24,4.75-6,9.12-9,11.71-1.73,1.49-4,3.74-5.67,5.33-.38.38-.67.67-1.05,1.1s-.58,1.78.62,1.59c5.23-1.35,8.74,2.3,10.66,1.68a4.69,4.69,0,0,0,2.4-2.12,1.91,1.91,0,0,1,.91-.91c.91-.24,1.92.91,1.3,1.73C250.41,495.41,249,496.47,247.19,496.61Z" style="fill:#333"/><path d="M107.19,399.52a3.5,3.5,0,0,1-.67,0,1.3,1.3,0,0,1-.58-.24,1.12,1.12,0,0,1-.57-.68,3.23,3.23,0,0,1-.15-.67v-.62c0-1.87,0-3.79,0-5.67v-23a11.24,11.24,0,0,1,.1-1.25,1.55,1.55,0,0,1,.38-.86,1.12,1.12,0,0,1,.48-.34,2.78,2.78,0,0,1,.77-.19,5.06,5.06,0,0,1,.87,0,4.54,4.54,0,0,1,1.1.09,1.63,1.63,0,0,1,.77.48,2.14,2.14,0,0,1,.24.53,3.6,3.6,0,0,1,.14,1v13.11a3.92,3.92,0,0,0,.1,1.1,1.46,1.46,0,0,0,.72.91l.53.15a2.81,2.81,0,0,0,.62.05c1.25,0,2.5,0,3.75,0a5.32,5.32,0,0,0,.91-.05,2,2,0,0,0,.86-.48c.1-.15.19-.34.29-.53a3.57,3.57,0,0,0,.1-.72,1.36,1.36,0,0,1,0-.38v-.1a1.57,1.57,0,0,1,0-.43V368.61a5.18,5.18,0,0,1,.09-1.2,1.56,1.56,0,0,1,.38-.91,1.09,1.09,0,0,1,.49-.34,1.2,1.2,0,0,1,.57-.14,1.91,1.91,0,0,1,.53,0h.53a4.54,4.54,0,0,1,1.1.09,1.63,1.63,0,0,1,.77.48,1.83,1.83,0,0,1,.24.53,1.56,1.56,0,0,1,.1.67,8.61,8.61,0,0,1,0,1v28.09c0,.43,0,.86,0,1.29a1.72,1.72,0,0,1-.48,1,2.83,2.83,0,0,1-.72.39,4.35,4.35,0,0,1-.72,0c-.1.05-.24,0-.39.05a6.29,6.29,0,0,1-1.29-.14,1.34,1.34,0,0,1-.73-.39,1.29,1.29,0,0,1-.33-.67A1,1,0,0,1,118,398a1.45,1.45,0,0,1,0-.48c0-2.4,0-4.85,0-7.25a.73.73,0,0,1,0-.29v-.05a6.23,6.23,0,0,0-.14-1.1,1.32,1.32,0,0,0-.72-.87,1.12,1.12,0,0,0-.67-.19,3.26,3.26,0,0,0-.67-.05h-3.51a3,3,0,0,0-1,.1,1.64,1.64,0,0,0-.82.38,1.62,1.62,0,0,0-.28.58,2.64,2.64,0,0,0-.15.86v7.3a10.45,10.45,0,0,1,0,1.25,1.62,1.62,0,0,1-.48.91,1.16,1.16,0,0,1-.62.34,2.26,2.26,0,0,1-.77.09c-.14.05-.29,0-.43.05S107.38,399.52,107.19,399.52Z" style="fill:#333"/><path d="M127.83,399.57a1.54,1.54,0,0,1-.67-.24,1.33,1.33,0,0,1-.63-.72,3.31,3.31,0,0,1-.09-.62,3,3,0,0,1,0-.67c0-1.68,0-3.36,0-5.05V368.75a11.13,11.13,0,0,1,0-1.29,2.25,2.25,0,0,1,.38-.92,1.78,1.78,0,0,1,.48-.33,2.37,2.37,0,0,1,.82-.15c.57,0,1.1,0,1.68,0h8a3.8,3.8,0,0,1,1,.09,2,2,0,0,1,.82.43,2.69,2.69,0,0,1,.33.63,3.57,3.57,0,0,1,.1.72v.77c0,.19,0,.38-.1.57a1.53,1.53,0,0,1-1.1,1,5.16,5.16,0,0,1-.86.1c-1.25,0-2.45,0-3.65,0h-.67a5.35,5.35,0,0,0-1.2.09,1.12,1.12,0,0,0-.53.2,1.46,1.46,0,0,0-.58.62,3.27,3.27,0,0,0-.14,1,.42.42,0,0,0-.05.24v.14a1.88,1.88,0,0,1,0,.53v8.11a10.52,10.52,0,0,0,.14,1.11,1.37,1.37,0,0,0,.68.86,1,1,0,0,0,.52.15,4,4,0,0,0,.68.09h2a3.81,3.81,0,0,1,1.06.1,1.6,1.6,0,0,1,.77.48,1.32,1.32,0,0,1,.24.53,1.88,1.88,0,0,1,.14.52v.72c0,.2-.05.39-.05.63a2.29,2.29,0,0,1-.24.62,1.33,1.33,0,0,1-.62.53,4.86,4.86,0,0,1-.82.19c-.77.05-1.53,0-2.25,0a6.78,6.78,0,0,0-1,.1,1.25,1.25,0,0,0-.77.43,2.19,2.19,0,0,0-.34.53,2.26,2.26,0,0,0-.09.77c-.05.09,0,.24-.05.33v3.31a1.6,1.6,0,0,1,.05.48,2.83,2.83,0,0,0,.24.87,1.36,1.36,0,0,0,.72.53,2,2,0,0,0,.72.14c.19.05.38,0,.53.05h3.93a7.53,7.53,0,0,1,1.06.05,1.59,1.59,0,0,1,.81.19,1.37,1.37,0,0,1,.68.86,4.57,4.57,0,0,1,.14.72v.29a2.28,2.28,0,0,1,0,.58,2.09,2.09,0,0,1-.09.53,1.34,1.34,0,0,1-1.06,1,5.16,5.16,0,0,1-.86.1c-1.59.05-3.22,0-4.47,0h-4.37A11.57,11.57,0,0,1,127.83,399.57Z" style="fill:#333"/><path d="M144.05,399.52a2.31,2.31,0,0,1-.57-.24.9.9,0,0,1-.43-.62,1.47,1.47,0,0,1,0-.91,9.43,9.43,0,0,1,.44-1.59c.09-.43.24-.81.33-1.24s.19-.73.34-1.11.19-.77.33-1.2.2-.72.34-1.1a11,11,0,0,1,.34-1.25l.28-1.11c.15-.38.24-.81.39-1.2l.29-1.1c.14-.38.24-.82.38-1.2l.29-1.15c.14-.39.24-.82.38-1.25l.29-1.06c.14-.43.24-.86.38-1.24s.24-.87.34-1.25c.19-.63.38-1.25.53-1.92s.48-1.54.67-2.31.48-1.53.67-2.3.48-1.58.67-2.35l.44-1.54c.09-.34.19-.67.29-1a3.57,3.57,0,0,1,.33-.77,1.49,1.49,0,0,1,.38-.53.58.58,0,0,1,.77-.09,2.56,2.56,0,0,1,.34.43,2.32,2.32,0,0,1,.34.77l.28.86c.05.2.15.39.19.58.1.38.2.72.34,1.1a5.68,5.68,0,0,0,.24.77l.29,1.06c.09.29.14.52.24.81s.24.68.34,1.06a5.1,5.1,0,0,0,.24.77l.28,1.05c.1.24.15.53.24.77l.34,1.06a3.47,3.47,0,0,0,.24.77l.29,1.1c.09.24.14.53.24.77l.33,1a4.09,4.09,0,0,0,.24.77l.29,1.11c.1.24.15.48.24.72s.24.76.34,1.1a4.55,4.55,0,0,0,.24.77l.28,1.05a5.13,5.13,0,0,1,.25.82c.09.34.24.67.33,1.06s.15.52.24.76l.29,1.06a4.55,4.55,0,0,1,.24.77c.1.38.24.72.34,1.1s.14.48.24.77l.28,1.06a3.8,3.8,0,0,1,.24.77c.15.38.24.72.34,1.05.14.48.29.91.38,1.35,0,.19,0,.33,0,.43a1.24,1.24,0,0,1-.24.86,1.67,1.67,0,0,1-.48.34,2.32,2.32,0,0,1-.77.14,2.6,2.6,0,0,0-.62.05c-.19,0-.38-.05-.58-.05a2.59,2.59,0,0,1-1.15-.24,2,2,0,0,1-.58-.53,3.64,3.64,0,0,1-.43-.86c-.14-.34-.19-.67-.33-1a6.53,6.53,0,0,0-.39-.86,2,2,0,0,0-.48-.48,1.81,1.81,0,0,0-.81-.34,3.12,3.12,0,0,0-.68-.05c-1.43,0-2.92,0-4.41,0a6.84,6.84,0,0,0-1,.05,3,3,0,0,0-.86.43,4.53,4.53,0,0,0-.39.58,8.48,8.48,0,0,0-.43,1.2,8,8,0,0,1-.34,1,1.69,1.69,0,0,1-1,.91,3.83,3.83,0,0,1-.72.19h-.53c-.1,0-.15.05-.19.05C144.82,399.57,144.44,399.57,144.05,399.52Zm9.27-8.69a1.76,1.76,0,0,0,.48,0,2,2,0,0,0,.77-.2c.09-.09.19-.14.24-.24a1.12,1.12,0,0,0,.24-.86,4.06,4.06,0,0,0-.1-.77c-.09-.24-.14-.48-.24-.72l-.29-1c-.14-.43-.29-.86-.43-1.29l-.29-1a6.27,6.27,0,0,0-.48-1,1.21,1.21,0,0,0-.33-.38.42.42,0,0,0-.53.05c-.05,0-.15.09-.19.19a1.86,1.86,0,0,0-.29.48,2.91,2.91,0,0,0-.29.86,16.25,16.25,0,0,0-.48,1.63,11.13,11.13,0,0,0-.38,1.35l-.29.91a4.59,4.59,0,0,0-.1.82.56.56,0,0,0,0,.28,1.08,1.08,0,0,0,.24.53,1.3,1.3,0,0,0,.67.34,3.84,3.84,0,0,0,1,.09A6.81,6.81,0,0,0,153.32,390.83Z" style="fill:#333"/><path d="M167.62,399.48a1.72,1.72,0,0,1-.67-.2,1.39,1.39,0,0,1-.58-.72,1.76,1.76,0,0,1-.14-.62c0-.19,0-.34,0-.53V368.7a11.13,11.13,0,0,1,0-1.29,2,2,0,0,1,.38-.91,1.27,1.27,0,0,1,.53-.34A1.63,1.63,0,0,1,168,366c.91-.05,1.82,0,2.73,0,.72-.05,1.44,0,2.12,0h.28a4.52,4.52,0,0,1,1.16,0,4.33,4.33,0,0,1,.91.14,6.28,6.28,0,0,1,1.39.34c.29.09.58.24.86.33l.44.24a1.51,1.51,0,0,1,.52.29,4.23,4.23,0,0,0,.49.29,6.28,6.28,0,0,1,.72.53,5.37,5.37,0,0,1,.57.52c.29.29.58.53.82.82a12.09,12.09,0,0,1,1.15,1.54l.43.67c.1.19.19.33.29.53a.76.76,0,0,1,.14.24c.1.29.24.52.34.77a7.09,7.09,0,0,1,.38,1l.29.67c.15.43.24.81.39,1.25a15,15,0,0,1,.43,2.06,9,9,0,0,1,.19,1c.05.29.05.57.1.81,0,.44.09.92.09,1.35a2.6,2.6,0,0,0,.05.62v1.11a1.3,1.3,0,0,1-.05.43v.29a6.7,6.7,0,0,1-.05,1c0,.24,0,.53,0,.77l-.15,1c0,.34-.09.67-.14,1s-.15.58-.19.86-.15.63-.24.92-.15.48-.2.72a3.69,3.69,0,0,1-.19.48,9,9,0,0,1-.43,1.2l-.29.67c-.09.24-.24.43-.33.67s-.24.43-.34.67-.29.43-.43.68-.48.72-.77,1.05-.43.53-.62.77a5.19,5.19,0,0,1-.48.43,2.87,2.87,0,0,0-.39.39c-.24.19-.53.43-.81.62a5.24,5.24,0,0,1-.82.53l-.53.29a3.23,3.23,0,0,1-.58.24l-.67.28c-.57.15-1.15.29-1.77.39-.34.05-.68.05-1,.09h-.87c-1.29.05-2.59.05-3.88.05A6.76,6.76,0,0,1,167.62,399.48Zm5.47-4.28h.29a3.08,3.08,0,0,0,.67-.09,2.67,2.67,0,0,0,.63-.1l.91-.29a5.82,5.82,0,0,0,.82-.48,8.84,8.84,0,0,0,1-.81,2.22,2.22,0,0,0,.44-.48,10.57,10.57,0,0,0,.86-1.11,5.09,5.09,0,0,0,.39-.72l.43-.91a8.3,8.3,0,0,0,.38-1,10,10,0,0,0,.34-1.15l.29-1.2c0-.38.14-.82.19-1.25a11.18,11.18,0,0,0,.09-1.29,4.52,4.52,0,0,0,.05-1.16v-.09a.51.51,0,0,0,0-.24c0-.15,0-.29,0-.39v-.38c0-.48-.05-1-.09-1.49a3.81,3.81,0,0,0-.15-1.05,10.47,10.47,0,0,0-.19-1.25l-.29-1.06a8.85,8.85,0,0,0-.38-1.2,10.72,10.72,0,0,0-.48-1.2,5.09,5.09,0,0,0-.39-.72,3.5,3.5,0,0,0-.33-.53,5.91,5.91,0,0,0-1.11-1.39,2.72,2.72,0,0,0-.38-.38,6.37,6.37,0,0,0-1.15-.82l-.72-.29a9.58,9.58,0,0,0-1-.29,12.24,12.24,0,0,0-1.25-.09,2.93,2.93,0,0,0-.86.09,1.5,1.5,0,0,0-.63.39,1.31,1.31,0,0,0-.38.77c-.05.33-.05.62-.1.91v.09a.61.61,0,0,1,.05.29v19.73a1.24,1.24,0,0,1-.05.43v.1a.51.51,0,0,1,.05.24,1.8,1.8,0,0,0,.1.72,1.39,1.39,0,0,0,.48.82l.33.19.72.14Z" style="fill:#333"/><path d="M189.94,399.43a1.33,1.33,0,0,1-.77-.82,1.6,1.6,0,0,1-.14-.67A5.32,5.32,0,0,1,189,397V368.32a6.91,6.91,0,0,1,.1-1,2,2,0,0,1,.29-.72,1.24,1.24,0,0,1,.62-.38,1.63,1.63,0,0,1,.67-.15c.19,0,.34,0,.53,0h.67a3.28,3.28,0,0,1,1,.19,1.32,1.32,0,0,1,.77.81,3.41,3.41,0,0,1,.14.68v29.62a6.7,6.7,0,0,1-.05,1,1.55,1.55,0,0,1-.33.72,1.34,1.34,0,0,1-.58.44,4.61,4.61,0,0,1-.67.09,1.91,1.91,0,0,1-.53.05H191A2.58,2.58,0,0,1,189.94,399.43Z" style="fill:#333"/><path d="M199.78,399.24a1.42,1.42,0,0,1-.72-.44,1.52,1.52,0,0,1-.34-.67,1.08,1.08,0,0,1,0-.38,1.91,1.91,0,0,1-.05-.53c0-4.66,0-9.31,0-13.06,0-5.42,0-9.93,0-14.4v-1.25c0-.33.05-.62.05-1a1.52,1.52,0,0,1,.19-.53.61.61,0,0,1,.29-.33.78.78,0,0,1,.48,0,1.5,1.5,0,0,1,.52.43,6.63,6.63,0,0,1,.68,1c.19.29.33.53.48.81l.57,1c.19.29.34.58.53.91l.43.73c.15.28.29.57.48.86a8.72,8.72,0,0,0,.48.82l.44.72.28.57.43.77a3.73,3.73,0,0,1,.34.53c.1.19.19.38.29.53a7,7,0,0,0,.33.62l.29.48a3.67,3.67,0,0,0,.24.38l.34.63a4.14,4.14,0,0,0,.38.62,8.15,8.15,0,0,0,.87,1.35,1.4,1.4,0,0,0,.48.43.36.36,0,0,0,.29.09.16.16,0,0,0,.23-.09.61.61,0,0,0,.29-.48,5.08,5.08,0,0,0,.15-.91v-.44c0-.24.05-.52.05-.76-.05-3.36-.05-6.77,0-10.13a9,9,0,0,1,0-1.06,1.68,1.68,0,0,1,.43-.91,2.66,2.66,0,0,1,.77-.39c.2,0,.44,0,.68-.09h.67a9.44,9.44,0,0,1,1,.14,1.12,1.12,0,0,1,.77.48,2.39,2.39,0,0,1,.24.48,2.94,2.94,0,0,1,.15.91c0,2.07,0,4.18,0,6.25V396.6a8.23,8.23,0,0,1-.1,1,2.85,2.85,0,0,1-.24.58.6.6,0,0,1-.72.14,1.79,1.79,0,0,1-.48-.38c-.24-.29-.43-.63-.67-1a5,5,0,0,0-.48-.82l-.39-.72c-.14-.24-.28-.48-.43-.72a4.35,4.35,0,0,0-.29-.53,3.35,3.35,0,0,1-.33-.57,4.37,4.37,0,0,0-.34-.58c-.09-.14-.19-.34-.29-.53a3.67,3.67,0,0,1-.24-.38l-.29-.58a3.32,3.32,0,0,1-.33-.53l-.34-.57-.29-.58a2.73,2.73,0,0,1-.33-.53,4.76,4.76,0,0,1-.34-.62,2.91,2.91,0,0,1-.38-.67l-.43-.72a3.5,3.5,0,0,0-.34-.58l-.34-.62c-.19-.34-.43-.67-.62-1a3.63,3.63,0,0,0-.67-.86.85.85,0,0,0-.43-.24.33.33,0,0,0-.34.09.84.84,0,0,0-.24.34l-.14.77c0,.33,0,.72,0,1.05v.39c0,3.31,0,6.62,0,9.93a11.21,11.21,0,0,1-.05,1.3,1.66,1.66,0,0,1-.48,1,2.83,2.83,0,0,1-.62.34,4.4,4.4,0,0,1-.77.09h-.43a1.55,1.55,0,0,1-.48,0A5,5,0,0,1,199.78,399.24Z" style="fill:#333"/><path d="M229.49,399.81l-1.05-.14-1.3-.29c-.33-.14-.72-.24-1.06-.38l-.62-.29c-.34-.15-.62-.34-1-.53a6.31,6.31,0,0,1-1-.72c-.33-.24-.62-.48-.91-.72a3.62,3.62,0,0,0-.48-.48,11.12,11.12,0,0,1-1-1.1c-.24-.29-.43-.58-.67-.92s-.34-.53-.48-.81a1.91,1.91,0,0,1-.24-.44,3.55,3.55,0,0,1-.43-.76c0-.05,0-.1,0-.1a4.68,4.68,0,0,0-.34-.72c-.14-.34-.24-.67-.38-1a3.18,3.18,0,0,0-.19-.57c-.2-.68-.39-1.35-.53-2.07a11.48,11.48,0,0,1-.24-1.39l-.15-1c0-.29,0-.62-.09-.91a4.25,4.25,0,0,0,0-.82v-1.29c0-.44,0-.87,0-1.3.05-.67.14-1.39.24-2.06l.33-1.64c.1-.33.2-.67.29-1a29.74,29.74,0,0,1,.72-2l.29-.72a5.06,5.06,0,0,0,.29-.53c.09-.24.24-.43.33-.67l.39-.58c.29-.48.57-.86.86-1.29l.58-.68c.29-.28.58-.62.91-.91s.67-.57,1.06-.86.62-.43,1-.67l.86-.44a4.29,4.29,0,0,1,1.06-.43,7,7,0,0,1,1.39-.43,13.47,13.47,0,0,1,1.39-.24c.29,0,.58-.05.86-.05a9,9,0,0,1,1.16,0h.57a12,12,0,0,1,1.2.19,10.71,10.71,0,0,1,1.73.44,7.09,7.09,0,0,1,1,.38,3.77,3.77,0,0,1,.72.38,1.63,1.63,0,0,1,.72,1,.7.7,0,0,1-.05.34,3,3,0,0,1-.24.67,6.57,6.57,0,0,1-.67,1,2.16,2.16,0,0,1-.81.67.81.81,0,0,1-.48.15,1.57,1.57,0,0,1-.68-.05,5.07,5.07,0,0,1-.72-.24,6.81,6.81,0,0,0-1.68-.43,5.87,5.87,0,0,0-1.63,0,4.89,4.89,0,0,0-1.49.24,6.1,6.1,0,0,0-.91.33,7.64,7.64,0,0,0-1.78,1.11,6.15,6.15,0,0,0-.76.77,9.62,9.62,0,0,0-1.06,1.34l-.43.77-.15.29a8.07,8.07,0,0,0-.57,1.29c-.1.2-.15.39-.24.58a25.92,25.92,0,0,0-.67,2.83,6.94,6.94,0,0,0-.1,1.06l-.1,1v1.58a8.77,8.77,0,0,0,.1,1.15,5.7,5.7,0,0,0,.15,1.3l.14.86c.09.34.14.68.24,1l.29,1c.09.24.19.48.29.77a1.35,1.35,0,0,0,.19.43,2.78,2.78,0,0,0,.19.48l.24.43c0,.1.09.2.14.29l.53.82a7.9,7.9,0,0,0,.77,1,2.12,2.12,0,0,0,.53.58,9.15,9.15,0,0,0,1.34,1,6.49,6.49,0,0,0,2.26.87,7.93,7.93,0,0,0,1.49.14,3.34,3.34,0,0,0,1.15-.19,1.69,1.69,0,0,0,.91-.63,1.72,1.72,0,0,0,.34-.81,6.33,6.33,0,0,0,0-.87v-3.16a3.44,3.44,0,0,0-.09-1,1.54,1.54,0,0,0-.24-.48,1.26,1.26,0,0,0-.67-.53,3.69,3.69,0,0,0-.72-.15,3.06,3.06,0,0,1-.72-.14,1.35,1.35,0,0,1-.73-.53,2.64,2.64,0,0,1-.23-.67,3,3,0,0,1,.09-1.3,1.06,1.06,0,0,1,.72-.76,1.31,1.31,0,0,1,.72-.2,2.16,2.16,0,0,1,.48,0c.63-.05,1.25,0,1.73,0h1.63a4.92,4.92,0,0,1,1.15.09,1.4,1.4,0,0,1,1.11,1.11,1.28,1.28,0,0,1,.09.38v.53c0,3,0,5.95,0,8.93a8.85,8.85,0,0,1,0,1.15,2.56,2.56,0,0,1-.28,1,1.92,1.92,0,0,1-.29.48,4.28,4.28,0,0,1-1.06.77l-.19.14c-.38.19-.82.34-1.2.53l-1.44.43a12.27,12.27,0,0,1-1.25.19,8.35,8.35,0,0,1-1.58.05A5.08,5.08,0,0,1,229.49,399.81Z" style="fill:#333"/><path d="M255.84,399.33a1.58,1.58,0,0,1-.76-.81,3.19,3.19,0,0,1-.1-.68,8.1,8.1,0,0,1,0-1.1V373.51a4.74,4.74,0,0,1,.15-1.45,2.84,2.84,0,0,1,.28-.91c.2-.43.48-.81.72-1.25s.63-1,1-1.48a5.82,5.82,0,0,1,.72-1.06,1.36,1.36,0,0,1,.53-.48.55.55,0,0,1,.53-.14.53.53,0,0,1,.34.24,1.16,1.16,0,0,1,.24.67,4.43,4.43,0,0,1,.09.72v28.8a5.87,5.87,0,0,1-.05,1,1.51,1.51,0,0,1-.33.77,1.48,1.48,0,0,1-.63.43,2.64,2.64,0,0,1-.67.15,7.68,7.68,0,0,1-1,0A3.58,3.58,0,0,1,255.84,399.33Z" style="fill:#333"/><polyline points="0.37 0 523.37 0 523.37 313.36 0.37 313.36" style="fill:#ca9831"/><path d="M350.74,177.38c-5.87-6.75-6.63,4.53-14.92,7.9-7.7,3.13-11.41,8.78-28.1,13.17-5.74,1.51-22,21.07-28.09,16.68-2.64-14.92-4.39-28.09,2.63-41.26,4.86-9.11,6.15-31.61,14.05-40.39C303,126,307.4,126.9,306,121.19c-1.76-7-9.66-8.78-20.2-17.56C269.07,89.71,232,85.12,221.68,87.82c-11.34,3-27,7.12-42,14.38-3-.89-10.18-6.22-11.55-7.37-5-4.2-12.38-4-18.66-2.25-3.63,1-14.76,7-17.18,7.74-1.85.57-6.43.74-8.28,1.3-5.76,1.76-7.47,9.39-6.89,15.53-16.4-8-33.35-17-43.82-17-14,0-33.36,16.68-34.24,23.7-1.06,8.45,2.56,23.12,8.07,29.61.84,1,9.48,6.16,13.14,7.08,22.89,5.75,69.62,3.77,69.62,3.77,2.82,2.59,6.73,5.57,10.91,8.72-6.88,1.7-22.16,5.7-23.53,6.87-1.11,1-6.73,12.76-5.64,17.06.71,2.76,8,10.63,10.15,11.65,3,1.36,6.34,1.18,9.58,1,6.09-.39,9.54-.78,15.62-1.17,8.07-.52,17.88-1.85,25.54-4.95,19.5,19.7,50,41.9,72.85,47.25,27.2.75,57.59-8,82.55-18.87,8.13-3.53,9.49-12.3,14.92-19.31C349.7,203.65,358.09,185.83,350.74,177.38Z" style="fill:#e2f2e8"/><path d="M351.68,176.45c-3.71-3.93-6.49-2.28-9.44,1.44-2.06,2.61-4,4.79-7.09,6.25a68.27,68.27,0,0,0-6.77,3.69c-2.53,1.58-5,3.17-7.7,4.5-4.31,2.16-8.83,3.21-13.31,4.85-4.1,1.5-7.47,5-10.74,7.75-2.47,2.11-4.93,4.24-7.59,6.11-1.51,1.07-5.43,4.22-7.5,3.41S279.2,204,279,201.69a57.43,57.43,0,0,1,.31-15.16c1.35-7.71,5.63-14.43,7.58-22,1.82-7.07,3.1-14.3,5.58-21.18a27.17,27.17,0,0,1,5.34-9.51c2.48-2.7,6-4.4,8.34-7.15,2.8-3.29.91-8-1.65-10.9a34,34,0,0,0-7-5.4c-4.08-2.68-7.94-5.51-11.8-8.5a63.75,63.75,0,0,0-17.32-9,112.85,112.85,0,0,0-39.8-7c-5.93.11-11.45,1.84-17.14,3.44A213.56,213.56,0,0,0,185,98.32c-2.65,1.14-4.85,2.93-7.57,1.38-1.51-.86-3-1.83-4.38-2.82-2.57-1.79-5-4.1-7.86-5.33-7.09-3-15-1-21.64,2-3.32,1.53-6.54,3.25-9.88,4.72s-6.73,1-10.05,2c-6.9,2.11-8.3,10.62-7.86,16.8l2-1.14c-10-4.89-20-10.2-30.48-14.05-7.47-2.75-14.69-4.24-22.4-1.62a55.1,55.1,0,0,0-19.65,12.32c-4.24,4-7.65,8.17-7.7,14.19a48.83,48.83,0,0,0,6.12,23.87c3,5.21,8.61,8.09,14,10.28,6.32,2.54,13.84,3,20.56,3.62,8.25.77,16.55,1.1,24.83,1.24Q114,166,125,165.75c1.26,0,3.41-.55,4.59-.14.7.24,1.73,1.63,2.56,2.31,2.62,2.15,5.33,4.18,8,6.21l.31-2.4c-5.16,1.28-10.31,2.62-15.42,4.08-2.64.76-6.8,1.3-8.86,3.31-2.27,2.22-3.52,6.67-4.52,9.59-1.11,3.26-2.29,7-.55,10.22a33.63,33.63,0,0,0,8.38,9.63c4.2,3.33,10,2.46,15,2.1,7-.52,14.07-.87,21-1.79a89,89,0,0,0,9.15-1.63c1.65-.39,3.3-.83,4.92-1.35,2.12-.69,2.7-.84,4.33.75,18.41,18,41,35.68,65.73,43.78,6.09,2,12,1.73,18.33,1.28a168.27,168.27,0,0,0,21.54-3,239,239,0,0,0,43.35-13.35c6.15-2.51,10.86-4.91,14.4-10.75,1.65-2.73,3-5.65,4.63-8.37s3.79-5.24,5.49-8c5.31-8.66,11.61-22.56,4.32-31.79-1.05-1.33-2.91.54-1.87,1.86,4.4,5.56,2.17,13.67-.19,19.62-2.5,6.31-6.53,11.29-10,17-3.6,5.89-5.74,12.53-12.34,15.76-7.51,3.67-15.73,6.38-23.67,9-16,5.17-32.57,8.91-49.37,9.64-3.75.17-7.5.38-11.16-.57A70.47,70.47,0,0,1,232.71,245a144.24,144.24,0,0,1-19-10.18,228.23,228.23,0,0,1-40.28-32.3,1.29,1.29,0,0,0-1.28-.34c-10.79,4.16-22.26,4.62-33.65,5.54-5.2.42-12.64,2.17-17.17-1a29.92,29.92,0,0,1-7.59-8.46c-1.89-3.19-.27-7.05.95-10.27.88-2.32,1.93-5.94,4.06-7.39,2.63-1.8,7.15-2.3,10.19-3.13,4-1.12,8.11-2.17,12.19-3.18a1.34,1.34,0,0,0,.32-2.41c-2.52-1.9-5.05-3.8-7.5-5.8-1-.85-2.46-2.62-3.73-3.05a6.33,6.33,0,0,0-2,0c-4.06.1-8.13.22-12.2.25a336.88,336.88,0,0,1-42.14-1.74c-6.7-.78-13.22-1.71-19.22-4.92-2.14-1.14-4.89-2.36-6.63-4.11-2.92-2.94-4.49-7.82-5.64-11.66-1.86-6.18-4.16-14.87-.28-20.66,4-6,10.38-10.7,16.56-14.15,8.48-4.73,16.17-5.46,25.36-2.43,11.24,3.71,21.78,9.52,32.4,14.69a1.33,1.33,0,0,0,2-1.14c-.27-3.72,0-7.9,2-11.13,2.68-4.13,7.18-3.25,11.35-4.23,4.87-1.15,9.45-4.3,14-6.34,7.37-3.32,15.58-4.09,22.28,1,3,2.28,8.31,7.41,12.25,6.87,1.87-.26,4.27-2,6-2.74,2.86-1.23,5.77-2.36,8.7-3.42,4.28-1.55,8.62-3,13-4.24,6.14-1.82,12.55-4.18,19-4.48,12.66-.6,25.93,2,37.89,6,6.55,2.17,13.08,5,18.63,9.13,3.33,2.5,6.51,5.1,10,7.4,3,2,6.32,3.74,8.75,6.37,1.93,2.08,3.73,5.53,1.48,8-2.51,2.71-5.94,4.43-8.42,7.27-3.79,4.33-5.65,10.07-7.18,15.52-1.91,6.84-3.07,13.91-5.27,20.67-2.27,6.94-5.8,12.75-6.62,20.21a63.07,63.07,0,0,0,0,12.74c.38,4.1.54,9.13,1.87,13,1.23,3.57,5.54,2.36,8.25,1,5.42-2.69,9.95-7.21,14.53-11.07,2-1.71,4.18-3.77,6.67-4.81,3.66-1.53,7.65-2.25,11.33-3.85,5.67-2.46,10.51-6.26,16-8.95a21,21,0,0,0,7.36-5.16c2.16-2.48,4-7.16,7.41-3.58C351,179.55,352.84,177.68,351.68,176.45Z" style="fill:#ca9831"/><path d="M346.22,174.5c-.36-.74-.74-1.46-1.14-2.17,0-.17-3.16-11.73-6.48-16.49a27.13,27.13,0,0,0-13.37-10.38,1.34,1.34,0,0,0-1.49,1.94c2.56,3.77,5.87,7.16,7.73,11.33-.32-.18-.63-.38-1-.55-1.26-.66-2.78,1-1.59,2.07a23.36,23.36,0,0,1,7.48,11.41c.35,1.23.66,2.4,1,3.53a43.38,43.38,0,0,0-6.14-3.17c-1.07-.45-2.09,1-1.49,1.93.72,1.08,5.15,9.6,2.45,9.89-.83.09-3.43-2.43-4.1-2.91-4.16-3-8.37-6-13-8.25a1.33,1.33,0,0,0-1.8,1.8c1.49,2.53,3.82,4.22,5.41,6.63,2.74,4.14,1.31,7.75-2.59,9.68a14.76,14.76,0,0,0-9.24-10.58,1.32,1.32,0,0,0-1.62,1.62c.84,2.24,1.82,4.43,2.6,6.69a11.7,11.7,0,0,1,.87,3.77,6.64,6.64,0,0,0-.07,2.07c-1.15-.8-3.3-3.08-4.16-3.33a1.33,1.33,0,0,0-1.62.92c-.18,1.3.23,3.52.14,5.25-2-2.46-5.06-4.44-7.39-6.08-.89-.62-1.91.23-2,1.14a13.33,13.33,0,0,0,1.18,5.65,11.11,11.11,0,0,1,1.1,4c-.08,1.45-1.11,3.11-2,4.51-2.13-1.19-3.9-3.24-6.15-4a1.34,1.34,0,0,0-1.62.92c-.58,1.88.39,4.38.69,6.52-1.88.41-3.27,2.05-4.7,3.45a10.58,10.58,0,0,0,0-3.42c-.28-1.72-1.17-2,.28-4,.44-.59,1.11-.56,1.5-1.29.62-1.2.1-2.19-.6-3.22-1.06-1.53-2.48-2.11-.45-3.4,1.12-.72,3.89-.36,5.11-.07a1.32,1.32,0,0,0,1.66-1.27c.08-2.08-1.6-3.44-3.42-4.57a15,15,0,0,1,3-.25,1.33,1.33,0,0,0,1.13-2c-1.42-2.68-3.93-4.57-5.78-6.93,3.61.31,7.56,3,10.34,4.68a1.33,1.33,0,0,0,1.8-1.8,103.47,103.47,0,0,0-7.91-11.3c.82.08,1.64.14,2.49.15a1.34,1.34,0,0,0,1.14-2,31.74,31.74,0,0,0-4.13-6.51c-2.34-3.11.76-3.64,3.19-2,3,2,5.23,5,8.27,7,.89.59,2.37-.41,1.93-1.48a115.81,115.81,0,0,0-5.11-11.22c4.12,2,9,4.09,12.62,1.6a1.34,1.34,0,0,0,.26-2.07c-4.12-4-7.06-8.92-11.46-12.42,5.31.9,9,6.07,13.47,9.39,1,.71,2.2-.47,1.93-1.49a63.34,63.34,0,0,0-4.54-12.91c2.39,1.9,4.62,4.27,6.64,6.12a1.33,1.33,0,0,0,2.2-1.28,47.88,47.88,0,0,0-1.85-6,30.86,30.86,0,0,0,7.61,2.42c1.28.16,1.53-1.48.93-2.25-4.8-6.15-10.24-12.43-17.61-15.48-.62-.26-15.26,15.25-14.63,16l-9.66,33.37s-5.27,16.68-5.27,21.07c0,3.51.88,16.68,2.3,18.73-.66.67,2.8,3.51,3.6,2.83,1.31-1.1,3.25-3.84,5.17-3.6l5.84-4c.52.21,10.89-9.26,10.89-9.26l10.41-3.57s20.68-9.56,21.37-11.28C336.87,184.39,346.94,176,346.22,174.5Z" style="fill:#faeaee"/><path d="M137.08,125.93c-20.9-7.38-49-25.81-63.92-25.81-14,0-33.36,16.68-34.24,23.7-1.06,8.45,2.56,23.12,8.07,29.61.84,1,9.48,6.16,13.14,7.08,22.89,5.75,46,4.93,69.56,4.06" style="fill:#afdcf0"/><path d="M137.43,124.66c-16-5.75-30.59-14.68-46.28-21.14-5.62-2.32-11.8-4.73-18-4.72-6.75,0-13.36,3.18-18.93,6.75-5.24,3.37-10.39,7.54-14,12.64-3.25,4.53-3.06,9.35-2.32,14.75,1,6.9,3,15.17,7.58,20.67,3,3.66,8.89,6.33,13.31,7.84,10.4,3.58,22.5,4.29,33.41,4.79,12.5.57,25,.11,37.52-.35,1.69-.06,1.7-2.7,0-2.63-19.51.71-39.23,1.47-58.57-1.8-7.37-1.25-13.7-3-20.1-6.86-5.66-3.43-7.85-10-9.42-16.21-1.37-5.46-3.07-12.81.18-17.88s8.67-9.4,13.78-12.68c5.4-3.47,11.81-6.61,18.39-6.38,5.85.21,11.72,2.61,17,4.84,15.48,6.46,29.93,15.22,45.73,20.91,1.6.58,2.29-2,.7-2.54Z" style="fill:#ca9831"/><path d="M142.92,172.87c-6.62,1.63-24.39,5.8-25.79,7-1.11,1-6.74,12.76-5.64,17.06.71,2.76,8,10.63,10.15,11.65,3,1.36,6.34,1.18,9.58,1,6.09-.39,9.54-.78,15.62-1.17,8.6-.55,18.29-1.15,26.14-4.71" style="fill:#ade9e8"/><path d="M142.57,171.6c-4.95,1.22-9.91,2.39-14.85,3.66-3.27.84-7.93,1.34-10.81,3.21-2.16,1.42-3.19,4.67-4.14,6.94-1.43,3.44-3.63,8.29-2.47,12.1s5.08,7.44,7.84,10c3.76,3.47,8.09,3.66,13.08,3.37,13.88-.81,29.47-.53,42.43-6.06,1.55-.66.21-2.93-1.33-2.27-11.34,4.83-24.5,4.45-36.6,5.38-5.33.41-11.44,1.63-15.71-2.28-2.57-2.35-6.66-6-7.3-9.53s1.94-8.67,3.42-11.81c1.31-2.78,1.79-3.53,4.69-4.42,7.37-2.27,15-3.9,22.45-5.74,1.64-.4.95-2.94-.7-2.54Z" style="fill:#ca9831"/><path d="M350.6,177.38c-5.87-6.75-6.63,4.53-14.92,7.9-7.7,3.13-11.42,8.78-28.1,13.17-5.74,1.51-21.95,21.07-28.09,16.68-2.64-14.92-4.39-28.09,2.63-41.26,4.86-9.11,6.15-31.61,14.05-40.39,6.7-7.44,11.09-6.58,9.66-12.29-1.76-7-9.66-8.78-20.2-17.56-16.7-13.92-53.81-18.51-64.09-15.81-15.49,4.08-39,10.26-57.95,23.71-6.62,4.71-30.94,15.57-31.6,20.19-.88,6.15-7.3,18.62-6.6,26.6.56,6.44,26.79,20.81,35.57,32.23,16.59,21.57,56.19,53.56,84.27,60.13,27.2.75,57.59-8,82.55-18.87,8.13-3.53,9.49-12.3,14.92-19.31C349.56,203.65,358,185.83,350.6,177.38Z" style="fill:#def0ef"/><path d="M351.54,176.45c-2.45-2.6-5-3.35-7.7-.67-1.63,1.63-2.79,3.68-4.43,5.32-2.13,2.11-4.64,3-7.21,4.37-4,2.12-7.62,4.84-11.66,6.86-5.25,2.63-11.67,3.24-16.5,6.5-3.75,2.53-7.05,5.74-10.53,8.62-1.87,1.55-9.49,8.72-12.44,6.93-1.82-1.09-1.94-9.89-2.15-12a65,65,0,0,1-.25-12.08c.62-7.4,4-13.2,6.36-20,3.88-11.15,3.93-25.08,11.17-34.82,2.16-2.9,5.06-5,7.89-7.21a8.05,8.05,0,0,0,3-3.49c1.31-3.69-1.42-7.92-4-10.29-5-4.5-11.24-7.68-16.52-11.83a60,60,0,0,0-13.95-8.15,117.53,117.53,0,0,0-34.77-8.35A65.27,65.27,0,0,0,224.22,86c-4.7.55-9.36,2.17-13.89,3.46-14.29,4.06-28.47,9.13-41.23,16.85-4.65,2.82-9,5.94-13.82,8.55-4.94,2.69-9.95,5.27-14.79,8.15-3,1.75-7,3.75-9,6.68-.89,1.3-1,2.72-1.38,4.23-.85,3.2-2.07,6.3-3.12,9.43-1.51,4.5-4.28,11.21-2.74,16.06,1,3.15,4.31,5.67,6.72,7.69,9,7.54,19.42,13.61,27.33,22.35,3.75,4.14,7.07,8.61,10.95,12.66C174,207,178.88,211.63,184,216a221.74,221.74,0,0,0,33.8,24.35,128.16,128.16,0,0,0,17,8.34,78.55,78.55,0,0,0,8.14,2.73c3.37.91,6.93.62,10.4.49,16.25-.62,32.36-4,47.86-8.84q12-3.72,23.56-8.59c5.91-2.47,9.72-5.29,12.93-10.9s6.88-10.84,10.14-16.39,5.9-11.55,6.71-17.86c.61-4.68,0-9.15-3-12.92-1.05-1.33-2.91.54-1.87,1.86,4.14,5.23,2.35,12.75.25,18.46-2.26,6.15-5.8,11.24-9.46,16.59-3.47,5.1-5.34,11.74-10.41,15.58-3.14,2.37-7.19,3.57-10.82,5s-7.57,2.9-11.4,4.22c-15,5.15-30.49,9.07-46.27,10.59-6.95.67-14.19,1.42-20.93-.73a103.09,103.09,0,0,1-17.14-7.48,201.87,201.87,0,0,1-59.17-47.9c-6.8-8.19-14.63-14.48-23.12-20.88-4-3-8.21-6-11.75-9.6-4-4.1-2.75-8.57-1.24-13.8.82-2.85,1.83-5.64,2.79-8.44.85-2.48,1.22-5.5,2.26-7.86,1.36-3.1,5.78-5.11,8.56-6.76,8.47-5,17.25-9.32,25.49-14.73,12.28-8,26.13-13.35,40.14-17.51,9.14-2.71,17.44-5.09,27-4.51a118.2,118.2,0,0,1,33.6,7,60.1,60.1,0,0,1,15.37,8c5.18,3.89,10.57,7.42,15.77,11.24,2.12,1.56,4.19,3.34,5.1,5.89,1.18,3.31-.58,4.58-3,6.43-4.1,3.13-7.57,6.55-9.79,11.26-4.73,10-5.38,21.35-9.18,31.69-2.19,6-5.09,11-6,17.49-.94,6.78-.36,13.61.62,20.35.56,3.8-.07,9.31,5,9.17,3.43-.1,6.78-2.63,9.4-4.57,3.78-2.81,7.25-6,10.89-9,4.25-3.48,8.33-4.32,13.44-6.23a73,73,0,0,0,13.23-6.76c3.35-2.11,7.37-3.54,10.49-5.9a26.78,26.78,0,0,0,4.58-4.87c1.81-2.29,3.07-4.24,5.7-1.45C350.84,179.55,352.7,177.68,351.54,176.45Z" style="fill:#ca9831"/><path d="M261.65,165.89c6.42,2.71,8.18-9.58,9.15-15.72,1-6.34-.44-9.41-6.43-10.86-2.41-.59-5,.38-7.17,1.58-2.87,1.59-3.88,4.57-4.85,7.7C251.48,151.42,256.07,163.54,261.65,165.89Z" style="fill:#afdcf0"/><path d="M261.3,167.16c6.82,2.29,9-6.88,9.93-11.7,1.23-6.22,2.88-13.85-4.35-16.75-7.41-3-15.63,2.95-15.95,10.81-.24,6,4.69,14.83,10.05,17.51,1.51.75,2.85-1.52,1.33-2.28-4.25-2.12-6.81-7.52-8.09-11.88-1.91-6.49,3.58-14.28,10.94-12,6.25,2,4.58,8.36,3.63,13.38-.62,3.23-1.89,12-6.79,10.35C260.39,164.08,259.7,166.62,261.3,167.16Z" style="fill:#ca9831"/><path d="M197.64,130.92c-2.36-1.68,4.59-18.51-.72-23.1-11-9.48-28.57-5.83-39.47,3.71-14,12.29-5.27,27.22-.12,31,4,3,18,4.83,22.95,5.89" style="fill:#ade9e8"/><path d="M198.57,130c-1.37-1.41,1.12-9.24,1.35-11.06.42-3.2.86-7-.61-10-1.71-3.51-6.36-5.58-9.88-6.7a30.14,30.14,0,0,0-15.06-.52c-9.76,2-20.62,8.32-24.47,17.93-2.94,7.37-.8,16.12,4.45,21.92,5.92,6.55,17.51,6.47,25.58,8.15,1.65.34,2.36-2.2.7-2.54-8-1.68-20-1.5-25.39-8.65-8.07-10.8-2.69-23,7.92-29.53a34.63,34.63,0,0,1,18.27-5.36c5,.05,14.26,1.87,15.89,7.51,1.22,4.22-.29,9.28-1,13.47-.34,2.09-1.36,5.51.35,7.27,1.18,1.22,3-.64,1.86-1.86Z" style="fill:#ca9831"/><path d="M213.64,138.75c-6.19-4.33-10.54-3.51-17.32-8.25-6.5-4.54-14.95,3.2-17.44,7.09-3,4.67.62,10.2,1.68,10.52,4.34,1.31,9,3.14,11.14,7.14,2.46,4.59.69,6.75,1.55,11.89a15.27,15.27,0,0,0,9.64,11.57C198.27,171.73,222.42,144.89,213.64,138.75Z" style="fill:#ffcfd8"/><path d="M214.3,137.61c-4.23-2.79-9-3.78-13.5-6-3.64-1.79-6.17-4.32-10.47-3.67-6.2,1-14.35,7.55-13.9,14.37.16,2.28,1.24,5.52,3.31,6.83,1.75,1.11,4.15,1.35,6,2.36,3.3,1.8,5.69,4.51,6,8.43.35,4.42-.28,8.32,2,12.42a17.27,17.27,0,0,0,8.84,7.62c1.12.46,2-1,1.49-1.94-1.63-2.85,1.23-7.74,2.44-10.26,2-4.16,4.3-8.17,6.33-12.31,2.24-4.56,7.11-13.47,1.77-17.65-1.32-1-3.2.81-1.86,1.86,5.41,4.25-3.76,17.55-5.93,21.7-2.32,4.42-8,12.76-5,18l1.48-1.93a14.09,14.09,0,0,1-8.66-10.61c-.54-3.12.25-6.35-.58-9.42a12.57,12.57,0,0,0-4.7-6.77c-2.4-1.79-6.4-2.15-8.51-4-6.72-6,4.76-15.77,10.59-16.11,3.75-.21,7.26,3.18,10.72,4.55,3.76,1.49,7.46,2.58,10.87,4.83C214.39,140.82,215.71,138.54,214.3,137.61Z" style="fill:#ca9831"/><path d="M309.19,48.42a8.42,8.42,0,0,0-7.13-.32c-3.53,1.37-8,6-8.22,9.84s.79,7.53,1,11.32c.5,8.87-2.35,17.43-4.7,26-1.56,5.67-7.07,15.42-9.29,22.39a11.28,11.28,0,0,0,.15,7.85c1.25,2.4,8.26,2.53,9.75-2.9,1.41-5.14,6.29-26.71,9.13-40.67,1.2-5.9,4.89-9.59,7.24-14.16C311.42,59.43,313.2,50.78,309.19,48.42Z" style="fill:#ade9e8"/><path d="M309.85,47.28c-5.23-2.44-10.45-.25-14.08,3.9-5.39,6.16-2.12,13.2-2.19,20.57-.08,8.73-2.68,18.36-5.85,26.48-2.63,6.74-7.11,13.33-8.51,20.5-.66,3.35-.56,8.13,3.28,9.36a7.71,7.71,0,0,0,9.19-4.18c1.94-4.34,2.51-9.8,3.56-14.4q2.43-10.67,4.7-21.38c1-4.64,1.78-9,4.27-13.11a84.38,84.38,0,0,0,5.58-9.84c2.15-5,5.53-13.83.05-17.9-1.36-1-2.68,1.28-1.33,2.28,3.37,2.49,1,8.92-.09,12a56.68,56.68,0,0,1-5.79,11c-3.65,5.8-4.62,12-6,18.6s-2.9,13.28-4.42,19.9c-.82,3.55-1.35,11.82-4.77,14s-5.79.07-5.85-3.38c-.07-3.91,2.1-7.92,3.65-11.38,2.66-5.93,5.34-11.61,7.1-17.87,2.25-8.07,4.55-16.3,3.71-24.76-.42-4.26-2-9,.38-13s7.38-7.32,12.11-5.11C310.05,50.27,311.39,48,309.85,47.28Z" style="fill:#ca9831"/><path d="M267.09,145.62c-.4-1.7-2.09-4.68-6.81-3.64a4.76,4.76,0,0,0-3.49,2.71,5.7,5.7,0,0,0-.33,4c1.11,3.08,5.73,5,8.61,2.5A5.84,5.84,0,0,0,267.09,145.62Z" style="fill:#ca9831"/><path d="M306,55.17c-.28-.85-1.37-3.06-3.74-2s-5.09,5.08-5.49,7.51a3.68,3.68,0,0,0,.62,2.59,5.81,5.81,0,0,0,6.83.56C306.08,62.55,306.73,57.26,306,55.17Z" style="fill:#ca9831"/><path d="M158,111.94c-1.29-1.08-3.16.77-1.86,1.86,7.56,6.3,16.25,12.1,22.37,19.92-8.82-4-17.73-7.81-26.69-11.51-1.56-.65-2.24,1.9-.7,2.54,9.42,3.89,18.79,7.89,28,12.14a1.44,1.44,0,0,0,2-1.33,1.15,1.15,0,0,0,.64-1.81C175.47,125,166.18,118.78,158,111.94Z" style="fill:#ca9831"/><path d="M185.26,130a1.13,1.13,0,0,0,.4-1.32c-2.65-8.36-4.81-16.86-6.85-25.39-.39-1.65-2.93-1-2.54.7,1.87,7.82,3.86,15.6,6.21,23.28-6.06-6.5-10.31-14.51-16-21.32-1.09-1.3-2.94.57-1.86,1.86,6.68,8,11.35,17.65,19.34,24.56,1.27,1.1,3.15-.75,1.86-1.87Z" style="fill:#ca9831"/><path d="M186.37,104.07q-.1,13.17-.19,26.33a1.32,1.32,0,0,0,2.63,0q.1-13.16.19-26.33A1.32,1.32,0,0,0,186.37,104.07Z" style="fill:#ca9831"/><path d="M194.58,107.61a103.72,103.72,0,0,1-4.33,20.63c-.52,1.62,2,2.31,2.54.7a107.81,107.81,0,0,0,4.42-21.33C197.4,105.92,194.76,105.94,194.58,107.61Z" style="fill:#ca9831"/><path d="M178,137.52A152,152,0,0,0,151.71,131c-1.65-.29-2.37,2.25-.7,2.54a152,152,0,0,1,26.27,6.54C178.87,140.65,179.56,138.1,178,137.52Z" style="fill:#ca9831"/><path d="M176.34,140.75c-6.44-.4-12.89,0-19.32-.4-1.69-.11-1.69,2.52,0,2.63,6.43.4,12.88,0,19.32.4C178,143.49,178,140.86,176.34,140.75Z" style="fill:#ca9831"/><path d="M168.25,103.66c-4.45-1.92-6.93-7.92-8.7-12.06-.66-1.56-2.93-.22-2.27,1.33,1.94,4.54,4.76,10.89,9.64,13C168.46,106.6,169.8,104.33,168.25,103.66Z" style="fill:#ca9831"/><path d="M150.53,92.93a1.32,1.32,0,0,0-2.54.7c1.88,6.52,6.39,11.05,10.73,16,1.12,1.28,3-.59,1.87-1.86C156.56,103.18,152.27,99,150.53,92.93Z" style="fill:#ca9831"/><path d="M140.4,97.55c-1.22-1.17-3.09.69-1.86,1.86,5.2,5,9.67,10.62,14.87,15.58,1.23,1.17,3.09-.69,1.86-1.87C150.07,108.16,145.61,102.51,140.4,97.55Z" style="fill:#ca9831"/><path d="M143.71,110.26a66.74,66.74,0,0,0-10.81-10.1c-1.34-1-2.66,1.26-1.33,2.28a63.8,63.8,0,0,1,10.7,10.2,54.79,54.79,0,0,0,6,6.86c1.27,1.11,3.14-.74,1.86-1.86A62.15,62.15,0,0,1,143.71,110.26Z" style="fill:#ca9831"/><path d="M123.53,101.71c-1-1.37-3.26-.06-2.27,1.33,6,8.4,14.17,13.81,21.79,20.56,1.26,1.12,3.13-.73,1.86-1.86C137.48,115.15,129.4,109.91,123.53,101.71Z" style="fill:#ca9831"/><path d="M140.27,123.11c-6.1-2.36-11.55-6.43-16.79-10.27-1.41-1-4.29-4.25-6.24-2.74-1.34,1,.51,1.66.81,2a14.54,14.54,0,0,0,2.27,1.66c1.88,1.38,3.76,2.77,5.68,4.11a65,65,0,0,0,13.57,7.77C141.16,126.26,141.84,123.71,140.27,123.11Z" style="fill:#ca9831"/><path d="M117.36,111.59c-.24-.06-.27.08,0,0Z" style="fill:#ca9831"/><path d="M114.63,187.6l31.07-4.4c1.67-.23,1-2.77-.7-2.54l-31.07,4.4C112.26,185.3,113,187.84,114.63,187.6Z" style="fill:#ca9831"/><path d="M151.75,190.92c-12.45,1.11-27.76.25-37.64,9.23-1.26,1.14.61,3,1.86,1.86,9.25-8.4,24.14-7.42,35.78-8.45C153.42,193.41,153.44,190.77,151.75,190.92Z" style="fill:#ca9831"/><path d="M156.22,198.94c-9.42,1.56-20.21,1.15-26.92,9.12-1.09,1.28.77,3.16,1.86,1.86,6.35-7.53,16.86-7,25.76-8.44C158.59,201.2,157.88,198.66,156.22,198.94Z" style="fill:#ca9831"/><path d="M61.63,103.89c14.59,8.23,29.3,15.86,45.58,20.18a1.32,1.32,0,0,0,.7-2.54c-16.06-4.27-30.56-11.8-44.95-19.92A1.32,1.32,0,0,0,61.63,103.89Z" style="fill:#ca9831"/><path d="M116.93,131.69A252.22,252.22,0,0,1,51,108.79c-1.5-.78-2.84,1.49-1.33,2.27a254.33,254.33,0,0,0,66.57,23.17C117.88,134.56,118.59,132,116.93,131.69Z" style="fill:#ca9831"/><path d="M115.17,138.58a193.34,193.34,0,0,1-72.92-20.5c-1.51-.76-2.84,1.51-1.33,2.27a196.57,196.57,0,0,0,74.25,20.86C116.86,141.34,116.85,138.7,115.17,138.58Z" style="fill:#ca9831"/><path d="M94.58,150.65c-17.82-2.59-35.23-7.31-53.06-9.89-1.66-.25-2.37,2.29-.7,2.53,17.83,2.59,35.24,7.31,53.06,9.9C95.54,153.43,96.26,150.89,94.58,150.65Z" style="fill:#ca9831"/><path d="M85.8,156.79c-12.67-1.7-25.31-3.77-38.1-4.43-1.69-.09-1.69,2.54,0,2.63,12.55.66,25,2.67,37.4,4.34C86.76,159.56,87.48,157,85.8,156.79Z" style="fill:#ca9831"/><path d="M100.52,142.69c-21.09,0-40.18-11.25-61.24-11.7a1.32,1.32,0,0,0,0,2.63c21,.46,40.12,11.67,61.24,11.7A1.32,1.32,0,0,0,100.52,142.69Z" style="fill:#ca9831"/><path d="M241.64,231.71c-10.06-7-22.18-13-28.36-24.06-2.7-4.86-2.94-10.69-4.58-15.93-1.54-4.89-1.91-10.23-5.17-14.34-1.06-1.33-2.91.55-1.87,1.86,2.32,2.92,2.6,6.52,3.51,10,.73,2.81,1.67,5.49,2.3,8.33,1.21,5.5,2.4,10.24,5.78,14.85,6.94,9.48,17.6,15,27.06,21.59C241.71,235,243,232.67,241.64,231.71Z" style="fill:#ca9831"/><path d="M285,146.86a71.39,71.39,0,0,0-10.87-17.35c-4.81-5.5-10-6-17-7.3-8.29-1.48-13.95-5.29-19.44-11.5-3.6-4.08-6.95-8.48-12.14-10.55-1.57-.63-2.26,1.91-.7,2.54,5.31,2.12,8.7,7.45,12.44,11.5,4.13,4.46,8.83,8,14.78,9.62,6.91,1.86,14.26,1.14,19.46,6.72a66.5,66.5,0,0,1,11.21,17.65C283.44,149.73,285.71,148.4,285,146.86Z" style="fill:#ca9831"/><path d="M247.5,107.37c2.74,1.48,6.51,1.76,9.5,2.57a44.09,44.09,0,0,1,12.37,5.48c1.44.92,2.76-1.36,1.33-2.27a47.82,47.82,0,0,0-14.21-6.07c-2.29-.58-5.88-.82-7.88-2.09-.74-.47-3.83-3.74-3.18-4.63,1-1.37-1.28-2.68-2.27-1.33C241.29,101.56,245.39,106.23,247.5,107.37Z" style="fill:#ca9831"/><path d="M280.35,238.24c-6.65,2.55-19.38,6.33-25.35.86-4.55-4.18-5.74-9.43-8-14.83-1.53-3.63-3.8-6.49-7.63-7.72-1.62-.52-2.31,2-.7,2.54,6.47,2.08,6.51,10.11,9.39,15.19,1.94,3.44,4.68,7.42,8.49,8.89,7.33,2.83,17.51.3,24.52-2.39C282.62,240.18,281.94,237.64,280.35,238.24Z" style="fill:#ca9831"/><path d="M217.47,227c-4.39-1.95-6.65-5.91-9.32-9.68a57,57,0,0,0-7-8A107.84,107.84,0,0,0,183,194.88c-1.45-.89-2.78,1.39-1.33,2.27A103.43,103.43,0,0,1,201,212.88c5.14,5.2,8.22,13.31,15.18,16.4C217.68,230,219,227.7,217.47,227Z" style="fill:#ca9831"/><path d="M211.11,47.38a3.07,3.07,0,0,0-1.61-.85c-9.55-2.83-13.61-3.61-23.19-.85-6,1.72-11.68,5.4-17.86,4.73a2.87,2.87,0,0,0-1.57.1c-1.46.75-.28,3.05-.78,4.61a32.88,32.88,0,0,1,1.48,8.05A15.23,15.23,0,0,0,169,68.46c.76,1,5.07-2.35,6.21-2.93,5.57-2.8,12.21-2.32,18.28-.93s13.25,3,14.63,2.38c1.83-.86,2.41-3.14,2.65-5.15q.73-6.15.85-12.34A3.17,3.17,0,0,0,211.11,47.38Z" style="fill:#ade9e8"/><path d="M450.63,146.94c-1.47-2.54-14.23-4.5-19.74-3.63-4.76.75-21.93,5.73-26.67-.2-1.34,2.66-3.25,12.09-3,15.58s2,7.85,5.49,8.05c1.83.11,4.34-1.47,6-2.13a35.65,35.65,0,0,1,27.05.71c3.1,1.39,6.11,3.26,9.49,3.55C450.34,162.64,452.29,149.79,450.63,146.94Z" style="fill:#ade9e8"/><path d="M392.11,239.37c-7.72-2.29-16.41,1.08-23.93-1.79-3.84-1.47-7.22-4.52-11.34-4.62a43,43,0,0,1,.22,5.36c-.8,7.28-4.33,10.65-5.85,17.8,3.3.24,6.65-1,9.9-.33a21.12,21.12,0,0,1,5.78,2.6,50.69,50.69,0,0,0,21.36,6.11,2.48,2.48,0,0,0,1.64-.29c.82-.6.64-1.83.49-2.83-1-6.69,2.7-13.18,3.14-19.93A3.62,3.62,0,0,0,392.11,239.37Z" style="fill:#ade9e8"/><path d="M384.38,57.27A5.13,5.13,0,0,0,382,55.74c-7.74-2.93-16.39-2.87-24.05-6-2.5-1-4.88-2.39-7.52-2.94s-5.71-.13-7.46,1.93a36.87,36.87,0,0,1,.84,4.9c-1,6-6.33,8.23-7.72,14.19,3.16-.17,12-.93,15.89-.11,2.73.58,4.78,2.84,7.2,4.24,4.11,2.39,14.47,5,16.94,3.35.75-.5,7.16-9.13,8.47-13.4C385,60.36,385.34,58.55,384.38,57.27Z" style="fill:#ade9e8"/><path d="M77.64,252.11c-4.47-1.69-8.94-3.79-13.72-3.84,0,0-7.63,10.5-11.68,15.88a2.88,2.88,0,0,0-.81,2.09,2,2,0,0,0,2.11,1.43,9.69,9.69,0,0,0,2.67-.67c3.8-1.18,7.94-.11,11.54,1.57s6.91,4,10.6,5.45a26.52,26.52,0,0,0,11.45,1.85,3.61,3.61,0,0,0,1.94-.54c.42-.33,6.57-12.34,9.19-18A85.84,85.84,0,0,1,77.64,252.11Z" style="fill:#ade9e8"/><path d="M173.62,55.94c-.05-.46-.11-.91-.19-1.37l.09,0c1.36.58,2.55-1.42,1.17-2a8.56,8.56,0,0,0-1.85-.55l0-.11a1.17,1.17,0,0,0-2.28.22,4.23,4.23,0,0,0-1.22.61,3.35,3.35,0,0,0-.95,4.38c.71,1.17,1.91,1.21,3.11,1.12a19.94,19.94,0,0,1-.12,2.44,5.63,5.63,0,0,1-.69-.12,1.16,1.16,0,0,0-.62,2.23A9,9,0,0,0,171,63c-.06.27-.11.53-.18.79a1.16,1.16,0,0,0,2.24.62c.12-.47.22-.94.31-1.41a4.7,4.7,0,0,0,2.59-1.29,3.23,3.23,0,0,0,.12-4.31A3.5,3.5,0,0,0,173.62,55.94Zm-3.37-.71a1.15,1.15,0,0,1,.78-.82c.11.54.2,1.07.27,1.6C170.68,56.08,170.07,56,170.25,55.23Zm3.43,5.32c.07-.73.1-1.45.1-2.17a1.14,1.14,0,0,1,.65.82A1.07,1.07,0,0,1,173.68,60.55Z" style="fill:#ca9831"/><path d="M202.91,47.87c.08-.17.15-.33.23-.49.71-1.31-1.29-2.49-2-1.17a10.81,10.81,0,0,0-.51,1.09c-1.85-.07-3.43.93-3.55,3.67a3.85,3.85,0,0,0,2,3.92,25,25,0,0,1-.62,3.28,12.49,12.49,0,0,1-1.95-1.49c-1.1-1-2.74.63-1.64,1.64a14.41,14.41,0,0,0,2.8,2.07,9.72,9.72,0,0,1-1.1,1.78c-.92,1.16.71,2.81,1.64,1.64a11.55,11.55,0,0,0,1.54-2.66,4.31,4.31,0,0,0,5.06-5.07c-.32-2-1.71-2.58-3.41-3a23.49,23.49,0,0,1,.68-3.21,7.28,7.28,0,0,1,2,1.8c.91,1.18,2.54-.47,1.64-1.64A7.55,7.55,0,0,0,202.91,47.87Zm-3,2c-.16.76-.29,1.52-.39,2.3A2.07,2.07,0,0,1,199.87,49.88ZM202.29,58a1.87,1.87,0,0,1-1.77.94c.27-1.13.44-2.3.6-3.47C202.3,55.73,203.36,56.3,202.29,58Z" style="fill:#ca9831"/><path d="M374.16,62.79l-.05-.06a31,31,0,0,1,2.58-2.42,7,7,0,0,1,.49,1.85c.21,1.47,2.45.85,2.24-.62a8.08,8.08,0,0,0-.83-2.64c.43-.27.86-.53,1.32-.77,1.32-.7.15-2.7-1.17-2A17.11,17.11,0,0,0,377,57.17a4.31,4.31,0,0,0-2.15-.61c-2.38-.07-5.24,1.11-4.77,3.91a4.94,4.94,0,0,0,1,2.14c-1,1.07-2,2.14-3,3.14a3.15,3.15,0,0,1-1.06-2c-.12-1.48-2.44-1.49-2.32,0a6.13,6.13,0,0,0,1.68,3.42A18.47,18.47,0,0,1,363.76,69c-1.32.71-.15,2.71,1.17,2a19.16,19.16,0,0,0,3.25-2.25c2.28,1.5,5.12,1.82,6.62-.88A5,5,0,0,0,374.16,62.79Zm-1.25-3.08a2.05,2.05,0,0,1,2-.85q-1.12,1-2.16,2.1A1.35,1.35,0,0,1,372.91,59.71ZM370.07,67c.82-.82,1.62-1.68,2.41-2.53a3.28,3.28,0,0,1,.37,1C373.17,67.35,371.64,67.59,370.07,67Z" style="fill:#ca9831"/><path d="M352.84,50l-.59.86a3.12,3.12,0,0,0-.87-.4c-1.95-.54-3.63,1.07-4,2.89a3.72,3.72,0,0,0,.86,3.32L346.67,59c-.17-.17-.33-.33-.45-.47-1-1.11-2.64.54-1.64,1.64.23.26.49.52.76.77-.46.67-.92,1.33-1.37,2-.85,1.24,1.16,2.4,2,1.17l1.25-1.82a4.06,4.06,0,0,0,3.28.28,3.85,3.85,0,0,0,2.42-3.62,2.88,2.88,0,0,0-1.54-2.73l1.15-1.67.29.47c.83,1.24,2.84.08,2-1.17-.29-.42-.59-.88-.91-1.32l.92-1.35C355.69,49.93,353.68,48.77,352.84,50Zm-1.95,2.84-1.12,1.63C349.58,53.55,350,52.53,350.89,52.83Zm-.47,6.85a1.34,1.34,0,0,1-1.87.65l1.56-2.28A1.11,1.11,0,0,1,350.42,59.68Z" style="fill:#ca9831"/><path d="M411.18,152.82c0-.5.05-1,.07-1.49.84,1.15,2.78,0,2-1.22a4.61,4.61,0,0,0-1.91-1.62v-.23A1.17,1.17,0,0,0,409,148a4.78,4.78,0,0,0-.76.08,3.44,3.44,0,0,0-2.56,4.72,3.59,3.59,0,0,0,2.15,1.89,4.81,4.81,0,0,0,.92.17c-.07.9-.16,1.8-.26,2.7l-.89-.4c-1.35-.62-2.53,1.37-1.18,2,.55.25,1.15.51,1.77.73-.08.57-.15,1.14-.25,1.7-.24,1.46,2,2.09,2.24.62.1-.61.18-1.21.26-1.82a4.42,4.42,0,0,0,2.15-.37,3.84,3.84,0,0,0,1.81-4.58A4.41,4.41,0,0,0,411.18,152.82Zm-3.17-.66a1.13,1.13,0,0,1,.38-1.73,1.7,1.7,0,0,1,.56-.13c0,.74,0,1.49-.07,2.23A1.33,1.33,0,0,1,408,152.16Zm3.69,5.69a1.64,1.64,0,0,1-.94.26c.11-1,.21-1.94.29-2.92a2.61,2.61,0,0,1,.57.3A1.44,1.44,0,0,1,411.7,157.85Z" style="fill:#ca9831"/><path d="M445.13,148.17a9.45,9.45,0,0,0-2.56-1.09l.12-.4c.45-1.42-1.79-2-2.23-.61l-.2.6a7.53,7.53,0,0,0-3.36.44,4,4,0,0,0-2.19,5.27,3.74,3.74,0,0,0,2.88,2.24c-.32.91-.64,1.82-1,2.73a21.25,21.25,0,0,1-3.24-1.87c-1.25-.82-2.42,1.19-1.17,2a22.59,22.59,0,0,0,3.62,2c-.13.34-.25.68-.38,1-.53,1.39,1.71,2,2.24.61l.36-1a6.94,6.94,0,0,0,3.88-.38c2.09-.86,3.81-3.21,2.75-5.5-.77-1.67-2.33-1.78-3.9-1.76.36-1.07.72-2.13,1.07-3.2a7.69,7.69,0,0,1,2.11.87C445.22,151,446.39,149,445.13,148.17Zm-8.41,3a1.75,1.75,0,0,1,1.37-2,5.36,5.36,0,0,1,1.42-.18c-.37,1.16-.76,2.31-1.16,3.46A1.6,1.6,0,0,1,436.72,151.18Zm3.54,3.64c.45,0,1.54-.2,1.94.05,1.84,1.18-1.09,2.82-1.88,3a4.77,4.77,0,0,1-1.45.09l1.11-3.12Z" style="fill:#ca9831"/><path d="M362.6,242.77c.06-.24.11-.47.17-.7a2.8,2.8,0,0,1,.59.07c1.46.32,2.08-1.92.62-2.24a6.6,6.6,0,0,0-.68-.09c.11-.47.23-.93.33-1.4.33-1.45-1.91-2.07-2.24-.61-.17.78-.37,1.56-.55,2.35a2.44,2.44,0,0,0-1.8,2.15,2.23,2.23,0,0,0,.86,1.81l-.48,1.83a9.73,9.73,0,0,1-1.06-.17c-1.46-.31-2.08,1.92-.62,2.24.36.08.73.14,1.09.19l-.44,1.7a1.16,1.16,0,0,0,2.23.62c.2-.73.38-1.46.57-2.19a13.49,13.49,0,0,0,2.95-.39,1.14,1.14,0,0,0,.81-.81,3.74,3.74,0,0,0-1.09-3.68A3.6,3.6,0,0,0,362.6,242.77Zm-.56,2.31a1.17,1.17,0,0,1,.69.77c-.31.05-.61.09-.92.12C361.88,245.67,362,245.38,362,245.08Z" style="fill:#ca9831"/><path d="M385.14,244.68c1.49.09,1.49-2.23,0-2.32-.67,0-1.48-.09-2.33-.1.09-.4.17-.79.24-1.18.26-1.46-2-2.09-2.24-.62-.11.63-.25,1.26-.41,1.89a7.36,7.36,0,0,0-3.84,1.25,3.89,3.89,0,0,0-.66,4.8,2.45,2.45,0,0,0,2,.83c-.59,1.35-1.2,2.68-1.8,4a9.67,9.67,0,0,1-2.45-1,1.16,1.16,0,0,0-1.17,2,11,11,0,0,0,2.7,1q-.58,1.31-1.11,2.58c-.56,1.38,1.68,2,2.24.62.37-.92.78-1.85,1.2-2.79,3.93.38,8.2-.7,8.42-4.89.14-2.53-2-3.77-4.23-4h-.32c.28-.75.54-1.5.78-2.24C383.26,244.53,384.32,244.63,385.14,244.68Zm-7.48,2.11a2.27,2.27,0,0,1,1.08-1.64,4.18,4.18,0,0,1,.92-.35c-.22.65-.46,1.31-.72,2Zm5,2.51c2.81,1.53-.49,3.37-1.37,3.71a8.16,8.16,0,0,1-2.58.51h-.23c.68-1.48,1.37-3,2-4.51A4,4,0,0,1,382.69,249.3Z" style="fill:#ca9831"/><path d="M90.07,257.07c-.35.35-.69.71-1,1.06a2.93,2.93,0,0,0-.43-.23c-2.14-.89-5.14-.34-6.4,1.76-1,1.68,0,3.39,1,4.82-.82,1-1.62,1.94-2.41,2.94a8,8,0,0,1-1-1.52c-.65-1.34-2.65-.17-2,1.17a8.55,8.55,0,0,0,1.54,2.21c-.07.09-.15.18-.22.28-.9,1.19,1.11,2.35,2,1.17l0,0a5.71,5.71,0,0,0,2.54.78c1.86.09,3.91-1.15,4.08-3.13a5.58,5.58,0,0,0-1.6-3.8c.9-1,1.83-2,2.77-3a5,5,0,0,1,.25,1.64,1.16,1.16,0,0,0,2.32,0,6.79,6.79,0,0,0-.84-3.41l1-1C92.77,257.67,91.13,256,90.07,257.07Zm-5.86,3.76c.28-.77,1.66-1.05,2.38-1a3.12,3.12,0,0,1,.71.1c-.86.91-1.7,1.84-2.52,2.77A2.11,2.11,0,0,1,84.21,260.83Zm.24,8.27a2.54,2.54,0,0,1-1.85-.22c.67-.85,1.36-1.7,2.06-2.53C85.4,267.38,86,268.65,84.45,269.1Z" style="fill:#ca9831"/><path d="M69.94,252.1l-.2.28c-1.57-1.7-4.19-2.08-5.49.9-.7,1.6.22,3.14,1,4.55-.68.77-1.37,1.62-2.1,2.42a8.17,8.17,0,0,1-.58-1.38,1.16,1.16,0,0,0-2.23.62,8.08,8.08,0,0,0,1.18,2.35c-.23.2-.46.39-.7.56-1.21.85-.06,2.86,1.17,2a12.21,12.21,0,0,0,1.07-.86c1.5,1.27,3.32,1.73,4.7-.26a5.07,5.07,0,0,0,.52-4.58c-.07-.18-.15-.36-.23-.54.41-.46.82-.94,1.23-1.42.63.41,1.54.31,1.66-.61a4.16,4.16,0,0,0,0-1.41c.36-.47.7-.95,1-1.45C72.74,252,70.74,250.84,69.94,252.1Zm-4.7,10.13a1.11,1.11,0,0,1-.62-.18c.56-.6,1.1-1.22,1.63-1.82C66.44,261.19,66.35,262.18,65.24,262.23Zm1.59-6.34c-.45-.91-.89-1.87.43-2.13a1.13,1.13,0,0,1,1.17.4c-.5.63-1,1.24-1.54,1.84Z" style="fill:#ca9831"/><polygon points="513.74 457.74 513.74 457.74 507.36 450.45 513.74 457.74" style="fill:none"/><path d="M687.59,457.3l-20.11,23a4.66,4.66,0,0,0,.23,6.36l19.88,19.78a104,104,0,0,0,0-49.11Z" style="fill:#cb9932"/><polygon points="659.72 457.81 679.46 435.25 679.46 435.25 659.72 457.81 659.72 457.81" style="fill:#fff"/><path d="M506,480.27l-19.68-22.49a104,104,0,0,0,0,48.19l19.46-19.34A4.66,4.66,0,0,0,506,480.27Z" style="fill:#cb9932"/><polygon points="514.22 507.38 494.46 527.02 514.22 507.38 514.22 507.38" style="fill:#fff"/><polygon points="507.36 450.45 494.41 435.64 494.41 435.65 507.36 450.45" style="fill:#fff"/><path d="M638.36,485.92a4.67,4.67,0,0,0,1.07,1.69l19.82,19.71h0l-19.82-19.7A4.67,4.67,0,0,1,638.36,485.92Z" style="fill:#ffcd34"/><path d="M534.31,481.25a4.63,4.63,0,0,1,0,6.06,4.64,4.64,0,0,0,0-6.06l-20.58-23.51h0Z" style="fill:#ffcd34"/><path d="M639.2,481.25a4.66,4.66,0,0,0-.84,4.67,4.63,4.63,0,0,1,.85-4.67l20.51-23.44h0Z" style="fill:#ffcd34"/><path d="M514.21,507.37h0l19.88-19.77a3.31,3.31,0,0,0,.25-.3,3.31,3.31,0,0,1-.25.3Z" style="fill:#ffcd34"/><path d="M587,378.36a103.5,103.5,0,0,0-92.62,57.28l12.95,14.81,6.38,7.29a76.88,76.88,0,0,1,89.07-51l0-27.12A104.32,104.32,0,0,0,587,378.36Z" style="fill:#f8f3e9"/><path d="M659.72,457.81l19.74-22.56a103.84,103.84,0,0,0-56-50.28l0,29.37A77.07,77.07,0,0,1,659.72,457.81Z" style="fill:#f8f3e9"/><path d="M514.21,507.38,494.46,527l-.39.38A103.9,103.9,0,0,0,551.13,579V550A77.17,77.17,0,0,1,514.21,507.38Z" style="fill:#f8f3e9"/><path d="M659.25,507.32a76.93,76.93,0,0,1-87.49,49.94v27A105.35,105.35,0,0,0,587,585.36a103.49,103.49,0,0,0,92.78-57.6Z" style="fill:#f8f3e9"/><path d="M623.35,414.29l.09,0h0Z" style="fill:#ffcd34"/><path d="M638.36,485.92a4.66,4.66,0,0,1,.84-4.67l20.52-23.44a77.07,77.07,0,0,0-36.28-43.47l-.11,118.93a2.74,2.74,0,0,1-4.81,1.79l-34.6-40-12.16,47.56v14.64a76.93,76.93,0,0,0,87.49-49.94l-19.82-19.71A4.67,4.67,0,0,1,638.36,485.92Z" style="fill:#ffcd34"/><path d="M555.94,431.16l34.21,39.56,12.65-49.47V406.7a76.88,76.88,0,0,0-89.07,51l20.58,23.51a4.64,4.64,0,0,1,0,6.06,3.31,3.31,0,0,1-.25.3l-19.88,19.77A77.17,77.17,0,0,0,551.13,550V433A2.74,2.74,0,0,1,555.94,431.16Z" style="fill:#ffcd34"/><path d="M597.93,479.72a2.75,2.75,0,0,0,4.82-1.79l0-56.68-12.65,49.47Z" style="fill:#cb9932"/><path d="M571.76,488.36v54.26l12.16-47.56-7.34-8.5A2.75,2.75,0,0,0,571.76,488.36Z" style="fill:#cb9932"/><polygon points="571.76 557.26 571.76 557.26 571.76 557.26 571.76 557.26" style="fill:#fff"/><polygon points="602.81 406.7 602.81 406.7 602.81 406.7 602.81 406.7" style="fill:#fff"/><path d="M114.52,576.86h-1.08l-7.36-11v11H105V564.07h1.09l7.36,11v-11h1.08Z" style="fill:#333"/><path d="M117.91,564.61a.76.76,0,0,1,.19-.51.73.73,0,0,1,1.26.51.68.68,0,0,1-.2.49.77.77,0,0,1-1.06,0A.71.71,0,0,1,117.91,564.61Zm1.24,12.25H118.1v-9.51h1.05Z" style="fill:#333"/><path d="M123.46,567.35l0,1.63a3.82,3.82,0,0,1,1.34-1.34,3.44,3.44,0,0,1,1.77-.46,2.82,2.82,0,0,1,2.27.86,3.87,3.87,0,0,1,.76,2.58v6.24h-1v-6.25a2.81,2.81,0,0,0-.54-1.89,2.1,2.1,0,0,0-1.7-.63,2.68,2.68,0,0,0-1.72.61,3.55,3.55,0,0,0-1.12,1.65v6.51h-1v-9.51Z" style="fill:#333"/><path d="M138.8,576.86a4.76,4.76,0,0,1-.21-1.32,3.6,3.6,0,0,1-1.41,1.11,4.3,4.3,0,0,1-1.81.39,3.19,3.19,0,0,1-2.22-.77,2.47,2.47,0,0,1-.85-1.93,2.56,2.56,0,0,1,1.16-2.2,5.54,5.54,0,0,1,3.22-.8h1.91v-1.09a2.07,2.07,0,0,0-.63-1.6,2.6,2.6,0,0,0-1.84-.58,2.81,2.81,0,0,0-1.81.56,1.67,1.67,0,0,0-.73,1.35h-1.05a2.44,2.44,0,0,1,1.05-2,4.11,4.11,0,0,1,2.6-.83,3.72,3.72,0,0,1,2.51.79,2.87,2.87,0,0,1,.94,2.22v4.5a5.69,5.69,0,0,0,.29,2.07v.1Zm-3.31-.75a3.54,3.54,0,0,0,1.89-.51,3.11,3.11,0,0,0,1.21-1.36v-2.1h-1.88a4.87,4.87,0,0,0-2.47.58,1.72,1.72,0,0,0-.88,1.53,1.68,1.68,0,0,0,.59,1.33A2.23,2.23,0,0,0,135.49,576.11Z" style="fill:#333"/><path d="M148.76,569a3.66,3.66,0,0,1,1.33-1.32,3.43,3.43,0,0,1,1.76-.46,2.84,2.84,0,0,1,2.28.86,3.82,3.82,0,0,1,.75,2.58v6.24h-1v-6.25a2.92,2.92,0,0,0-.54-1.89,2.11,2.11,0,0,0-1.7-.63,2.71,2.71,0,0,0-1.73.61,3.61,3.61,0,0,0-1.11,1.65v6.51h-1v-13.5h1Z" style="fill:#333"/><path d="M161.72,577a4.12,4.12,0,0,1-2.19-.6,4.07,4.07,0,0,1-1.52-1.66,5.14,5.14,0,0,1-.55-2.4V572a5.7,5.7,0,0,1,.53-2.47,4.29,4.29,0,0,1,1.48-1.72,3.67,3.67,0,0,1,2.06-.63,3.43,3.43,0,0,1,2.75,1.18,4.82,4.82,0,0,1,1,3.23v.59h-6.78v.2a4,4,0,0,0,.92,2.69,3,3,0,0,0,2.34,1.08,3.36,3.36,0,0,0,1.49-.31,3.23,3.23,0,0,0,1.17-1l.66.5A3.83,3.83,0,0,1,161.72,577Zm-.19-9a2.63,2.63,0,0,0-2,.87,4.05,4.05,0,0,0-1,2.34h5.71v-.11a3.43,3.43,0,0,0-.79-2.23A2.4,2.4,0,0,0,161.53,568.07Z" style="fill:#333"/><path d="M169,576.86h-1.06v-13.5H169Z" style="fill:#333"/><path d="M179.92,572.21a5.74,5.74,0,0,1-1,3.52A3.15,3.15,0,0,1,176.3,577a3.53,3.53,0,0,1-3-1.37v4.85h-1V567.35h1l0,1.35a3.37,3.37,0,0,1,3-1.52,3.17,3.17,0,0,1,2.68,1.29,5.85,5.85,0,0,1,1,3.59Zm-1-.19a4.86,4.86,0,0,0-.75-2.87,2.4,2.4,0,0,0-2.08-1.06,2.78,2.78,0,0,0-2.73,1.82v4.56a2.77,2.77,0,0,0,1.08,1.25,3.09,3.09,0,0,0,1.66.43,2.37,2.37,0,0,0,2.07-1.06A5.27,5.27,0,0,0,178.87,572Z" style="fill:#333"/><path d="M186.38,577a4.09,4.09,0,0,1-2.19-.6,4.16,4.16,0,0,1-1.53-1.66,5.26,5.26,0,0,1-.54-2.4V572a5.7,5.7,0,0,1,.53-2.47,4.29,4.29,0,0,1,1.48-1.72,3.67,3.67,0,0,1,2.06-.63,3.44,3.44,0,0,1,2.75,1.18,4.82,4.82,0,0,1,1,3.23v.59h-6.78v.2a3.94,3.94,0,0,0,.92,2.69,3,3,0,0,0,2.34,1.08,3.36,3.36,0,0,0,1.49-.31,3.23,3.23,0,0,0,1.17-1l.66.5A3.84,3.84,0,0,1,186.38,577Zm-.19-9a2.63,2.63,0,0,0-2,.87,4.05,4.05,0,0,0-1,2.34h5.71v-.11a3.43,3.43,0,0,0-.79-2.23A2.4,2.4,0,0,0,186.19,568.07Z" style="fill:#333"/><path d="M192,572a5.73,5.73,0,0,1,1-3.53,3.19,3.19,0,0,1,2.68-1.31,3.31,3.31,0,0,1,2.94,1.52v-5.34h1v13.5h-1l0-1.26a3.39,3.39,0,0,1-3,1.44,3.18,3.18,0,0,1-2.65-1.32,5.79,5.79,0,0,1-1-3.58Zm1.06.19a4.88,4.88,0,0,0,.73,2.86,2.35,2.35,0,0,0,2.06,1.06,2.85,2.85,0,0,0,2.76-1.72V570a2.82,2.82,0,0,0-2.75-1.86,2.39,2.39,0,0,0-2.06,1A5.34,5.34,0,0,0,193.09,572.21Z" style="fill:#333"/><path d="M208.69,567.35l0,1.55a3.54,3.54,0,0,1,1.32-1.29,3.58,3.58,0,0,1,1.76-.43,2.65,2.65,0,0,1,2.85,1.84,3.58,3.58,0,0,1,1.37-1.36,3.73,3.73,0,0,1,1.88-.48q3.06,0,3.12,3.34v6.34H220V570.6a2.81,2.81,0,0,0-.55-1.89,2.22,2.22,0,0,0-1.76-.62,2.78,2.78,0,0,0-1.91.74,2.49,2.49,0,0,0-.87,1.74v6.29h-1.06v-6.34a2.64,2.64,0,0,0-.58-1.83,2.27,2.27,0,0,0-1.74-.6,2.62,2.62,0,0,0-1.7.57,3.32,3.32,0,0,0-1.06,1.68v6.52h-1v-9.51Z" style="fill:#333"/><path d="M227.81,577a4.09,4.09,0,0,1-2.19-.6,4.16,4.16,0,0,1-1.53-1.66,5.26,5.26,0,0,1-.54-2.4V572a5.7,5.7,0,0,1,.53-2.47,4.29,4.29,0,0,1,1.48-1.72,3.67,3.67,0,0,1,2.06-.63,3.44,3.44,0,0,1,2.75,1.18,4.82,4.82,0,0,1,1,3.23v.59H224.6v.2a3.94,3.94,0,0,0,.92,2.69,3,3,0,0,0,2.34,1.08,3.39,3.39,0,0,0,1.49-.31,3.23,3.23,0,0,0,1.17-1l.66.5A3.84,3.84,0,0,1,227.81,577Zm-.19-9a2.63,2.63,0,0,0-2,.87,4.05,4.05,0,0,0-1,2.34h5.7v-.11a3.42,3.42,0,0,0-.78-2.23A2.4,2.4,0,0,0,227.62,568.07Z" style="fill:#333"/><path d="M239.46,576.86v-8.65h-1.57v-.86h1.57V566.2a3.15,3.15,0,0,1,.74-2.24,2.74,2.74,0,0,1,2.07-.78,4,4,0,0,1,1.12.15l-.08.87a4.08,4.08,0,0,0-1-.11,1.71,1.71,0,0,0-1.35.54,2.27,2.27,0,0,0-.48,1.54v1.18h2.26v.86h-2.26v8.65Z" style="fill:#333"/><path d="M251.12,576.86a4.82,4.82,0,0,1-.2-1.32,3.67,3.67,0,0,1-1.41,1.11,4.38,4.38,0,0,1-1.82.39,3.21,3.21,0,0,1-2.22-.77,2.5,2.5,0,0,1-.85-1.93,2.56,2.56,0,0,1,1.16-2.2,5.54,5.54,0,0,1,3.22-.8h1.91v-1.09a2.07,2.07,0,0,0-.63-1.6,2.59,2.59,0,0,0-1.83-.58,2.82,2.82,0,0,0-1.82.56,1.66,1.66,0,0,0-.72,1.35h-1.06a2.43,2.43,0,0,1,1.06-2,4.06,4.06,0,0,1,2.59-.83A3.7,3.7,0,0,1,251,568a2.83,2.83,0,0,1,.94,2.22v4.5a5.69,5.69,0,0,0,.29,2.07v.1Zm-3.31-.75a3.54,3.54,0,0,0,1.89-.51,3.05,3.05,0,0,0,1.21-1.36v-2.1H249a4.8,4.8,0,0,0-2.46.58,1.71,1.71,0,0,0-.89,1.53,1.68,1.68,0,0,0,.59,1.33A2.25,2.25,0,0,0,247.81,576.11Z" style="fill:#333"/><path d="M256.38,576.86h-1v-13.5h1Z" style="fill:#333"/><path d="M260.87,576.86h-1.06v-13.5h1.06Z" style="fill:#333"/><path d="M268.94,564.61a.74.74,0,0,1,1.25-.51.73.73,0,0,1,.2.51.68.68,0,0,1-.2.49.77.77,0,0,1-1.06,0A.67.67,0,0,1,268.94,564.61Zm1.24,12.25h-1.06v-9.51h1.06Z" style="fill:#333"/><path d="M274.49,567.35l0,1.63a3.82,3.82,0,0,1,1.34-1.34,3.44,3.44,0,0,1,1.77-.46,2.82,2.82,0,0,1,2.27.86,3.87,3.87,0,0,1,.76,2.58v6.24h-1.05v-6.25a2.81,2.81,0,0,0-.54-1.89,2.1,2.1,0,0,0-1.7-.63,2.71,2.71,0,0,0-1.73.61,3.61,3.61,0,0,0-1.11,1.65v6.51h-1v-9.51Z" style="fill:#333"/><path d="M289.83,576.86h-1.06v-13.5h1.06Z" style="fill:#333"/><path d="M292.55,572a5.5,5.5,0,0,1,.54-2.47,4,4,0,0,1,3.7-2.32,3.91,3.91,0,0,1,3.08,1.33A5.15,5.15,0,0,1,301,572v.22a5.54,5.54,0,0,1-.53,2.48,3.89,3.89,0,0,1-1.5,1.7,4.08,4.08,0,0,1-2.2.6,3.89,3.89,0,0,1-3.07-1.33,5.13,5.13,0,0,1-1.19-3.53Zm1.06.29a4.32,4.32,0,0,0,.88,2.8,3,3,0,0,0,4.63,0,4.45,4.45,0,0,0,.88-2.89V572a4.87,4.87,0,0,0-.41-2,3.16,3.16,0,0,0-1.13-1.4,2.91,2.91,0,0,0-1.67-.5,2.79,2.79,0,0,0-2.29,1.11,4.46,4.46,0,0,0-.89,2.88Z" style="fill:#333"/><path d="M306.5,575.41l2.89-8.06h1.08l-3.55,9.51h-.85l-3.57-9.51h1.08Z" style="fill:#333"/><path d="M316.32,577a4.12,4.12,0,0,1-2.19-.6,4.07,4.07,0,0,1-1.52-1.66,5.14,5.14,0,0,1-.55-2.4V572a5.7,5.7,0,0,1,.53-2.47,4.29,4.29,0,0,1,1.48-1.72,3.67,3.67,0,0,1,2.06-.63,3.43,3.43,0,0,1,2.75,1.18,4.82,4.82,0,0,1,1,3.23v.59h-6.78v.2a4,4,0,0,0,.92,2.69,3,3,0,0,0,2.34,1.08,3.36,3.36,0,0,0,1.49-.31,3.23,3.23,0,0,0,1.17-1l.66.5A3.84,3.84,0,0,1,316.32,577Zm-.19-9a2.63,2.63,0,0,0-2,.87,4.05,4.05,0,0,0-1,2.34h5.71v-.11a3.43,3.43,0,0,0-.79-2.23A2.4,2.4,0,0,0,316.13,568.07Z" style="fill:#333"/><path d="M329.49,574.67l.16.82.21-.86,2.29-7.28H333l2.26,7.22.25,1,.2-.92,1.95-7.3h1.09L336,576.86h-.89l-2.45-7.54-.11-.52-.11.53-2.4,7.53h-.9l-2.76-9.51h1.08Z" style="fill:#333"/><path d="M341.18,564.61a.72.72,0,0,1,.19-.51.71.71,0,0,1,.53-.2.69.69,0,0,1,.73.71.68.68,0,0,1-.2.49.69.69,0,0,1-.53.21.68.68,0,0,1-.53-.21A.67.67,0,0,1,341.18,564.61Zm1.23,12.25h-1.05v-9.51h1.05Z" style="fill:#333"/><path d="M347.36,564.92v2.43h2v.86h-2v6.35a2,2,0,0,0,.28,1.18,1.11,1.11,0,0,0,1,.39,6.42,6.42,0,0,0,.85-.09l0,.85a3.36,3.36,0,0,1-1.12.15,1.89,1.89,0,0,1-1.58-.63,3,3,0,0,1-.49-1.85v-6.35h-1.75v-.86h1.75v-2.43Z" style="fill:#333"/><path d="M353,569a3.73,3.73,0,0,1,1.33-1.32,3.48,3.48,0,0,1,1.76-.46,2.84,2.84,0,0,1,2.28.86,3.87,3.87,0,0,1,.76,2.58v6.24h-1.05v-6.25a2.86,2.86,0,0,0-.54-1.89,2.1,2.1,0,0,0-1.7-.63,2.71,2.71,0,0,0-1.73.61,3.61,3.61,0,0,0-1.11,1.65v6.51h-1v-13.5h1Z" style="fill:#333"/><path d="M105.7,589l0,1.55a3.43,3.43,0,0,1,3.07-1.72,2.67,2.67,0,0,1,2.86,1.84,3.55,3.55,0,0,1,1.36-1.36,3.78,3.78,0,0,1,1.88-.48q3.06,0,3.12,3.34v6.34h-1V592.2a2.86,2.86,0,0,0-.55-1.89,2.24,2.24,0,0,0-1.76-.62,2.79,2.79,0,0,0-1.92.74,2.57,2.57,0,0,0-.87,1.74v6.29h-1v-6.34a2.64,2.64,0,0,0-.58-1.83,2.3,2.3,0,0,0-1.75-.6,2.62,2.62,0,0,0-1.7.57,3.31,3.31,0,0,0-1,1.68v6.52h-1.06V589Z" style="fill:#333"/><path d="M124.16,597l2.78-8h1.13L124,600.08l-.21.49a2.55,2.55,0,0,1-2.42,1.73,3.06,3.06,0,0,1-.81-.12v-.87l.54.05a1.9,1.9,0,0,0,1.25-.38,2.92,2.92,0,0,0,.82-1.31l.46-1.29L120.06,589h1.15Z" style="fill:#333"/><path d="M135.84,596.05a1.5,1.5,0,0,0-.63-1.26,4.82,4.82,0,0,0-1.89-.74,8.57,8.57,0,0,1-2-.62,2.51,2.51,0,0,1-1-.85,2.08,2.08,0,0,1-.34-1.21,2.26,2.26,0,0,1,.94-1.86,3.8,3.8,0,0,1,2.41-.73,3.92,3.92,0,0,1,2.55.78,2.54,2.54,0,0,1,1,2.06h-1.05a1.69,1.69,0,0,0-.7-1.39,2.73,2.73,0,0,0-1.76-.56,2.82,2.82,0,0,0-1.67.46,1.42,1.42,0,0,0-.62,1.21,1.29,1.29,0,0,0,.52,1.1,5.4,5.4,0,0,0,1.91.71,8.9,8.9,0,0,1,2.07.7,2.57,2.57,0,0,1,1,.89,2.18,2.18,0,0,1,.34,1.25,2.29,2.29,0,0,1-1,1.93,4.86,4.86,0,0,1-5.23-.09,2.46,2.46,0,0,1-1-2h1.06a1.83,1.83,0,0,0,.78,1.44,3.18,3.18,0,0,0,1.89.51,3,3,0,0,0,1.78-.48A1.44,1.44,0,0,0,135.84,596.05Z" style="fill:#333"/><path d="M143.39,598.64a4.08,4.08,0,0,1-3.71-2.26,5.14,5.14,0,0,1-.55-2.4v-.38a5.7,5.7,0,0,1,.53-2.47,4.29,4.29,0,0,1,1.48-1.72,3.67,3.67,0,0,1,2.06-.63A3.44,3.44,0,0,1,146,590a4.82,4.82,0,0,1,1,3.23v.59h-6.78v.2a4,4,0,0,0,.92,2.69,3,3,0,0,0,2.34,1.08,3.36,3.36,0,0,0,1.49-.31,3.23,3.23,0,0,0,1.17-1l.66.5A3.84,3.84,0,0,1,143.39,598.64Zm-.19-9a2.63,2.63,0,0,0-2,.87,4.05,4.05,0,0,0-1,2.34h5.71v-.11a3.43,3.43,0,0,0-.79-2.23A2.4,2.4,0,0,0,143.2,589.67Z" style="fill:#333"/><path d="M150.64,598.46h-1.06V585h1.06Z" style="fill:#333"/><path d="M154.7,598.46v-8.65h-1.57V589h1.57V587.8a3.15,3.15,0,0,1,.74-2.24,2.74,2.74,0,0,1,2.07-.78,4,4,0,0,1,1.12.15l-.08.87a4.08,4.08,0,0,0-1-.11,1.71,1.71,0,0,0-1.35.54,2.28,2.28,0,0,0-.49,1.54V589H158v.86h-2.27v8.65Z" style="fill:#333"/><path d="M171.18,598.46a5.25,5.25,0,0,1-.2-1.32,3.67,3.67,0,0,1-1.41,1.11,4.33,4.33,0,0,1-1.81.39,3.17,3.17,0,0,1-2.22-.77,2.47,2.47,0,0,1-.85-1.93,2.54,2.54,0,0,1,1.15-2.2,5.57,5.57,0,0,1,3.23-.81H171v-1.08a2.07,2.07,0,0,0-.63-1.6,2.59,2.59,0,0,0-1.83-.58,2.84,2.84,0,0,0-1.82.56,1.66,1.66,0,0,0-.72,1.35h-1.05a2.44,2.44,0,0,1,1.05-2,4,4,0,0,1,2.59-.83,3.7,3.7,0,0,1,2.51.79,2.84,2.84,0,0,1,1,2.22v4.5a5.69,5.69,0,0,0,.29,2.07v.1Zm-3.3-.75a3.51,3.51,0,0,0,1.88-.51,3,3,0,0,0,1.21-1.36v-2.1h-1.88a4.7,4.7,0,0,0-2.46.58,1.73,1.73,0,0,0-.89,1.53,1.69,1.69,0,0,0,.6,1.33A2.23,2.23,0,0,0,167.88,597.71Z" style="fill:#333"/><path d="M176.45,598.46h-1.06V585h1.06Z" style="fill:#333"/><path d="M180.93,598.46h-1.05V585h1.05Z" style="fill:#333"/><path d="M188.49,593.57a5.5,5.5,0,0,1,.53-2.47,4,4,0,0,1,3.7-2.32,3.91,3.91,0,0,1,3.08,1.33,5.16,5.16,0,0,1,1.18,3.53v.22a5.68,5.68,0,0,1-.53,2.48A4,4,0,0,1,195,598a4.11,4.11,0,0,1-2.21.6,3.91,3.91,0,0,1-3.07-1.33,5.12,5.12,0,0,1-1.18-3.53Zm1,.29a4.38,4.38,0,0,0,.88,2.8,3,3,0,0,0,4.63,0,4.47,4.47,0,0,0,.88-2.89v-.2a4.86,4.86,0,0,0-.4-2,3.25,3.25,0,0,0-1.14-1.4,2.89,2.89,0,0,0-1.67-.5,2.8,2.8,0,0,0-2.29,1.11,4.44,4.44,0,0,0-.89,2.88Z" style="fill:#333"/><path d="M202.43,597l2.89-8.06h1.08l-3.55,9.51H202L198.43,589h1.08Z" style="fill:#333"/><path d="M212.26,598.64a4.15,4.15,0,0,1-2.2-.6,4.07,4.07,0,0,1-1.52-1.66A5.14,5.14,0,0,1,208,594v-.38a5.7,5.7,0,0,1,.53-2.47,4.24,4.24,0,0,1,1.49-1.72,3.62,3.62,0,0,1,2.05-.63,3.43,3.43,0,0,1,2.75,1.18,4.77,4.77,0,0,1,1,3.23v.59H209v.2a4,4,0,0,0,.93,2.69,2.92,2.92,0,0,0,2.33,1.08,3.36,3.36,0,0,0,1.49-.31,3.23,3.23,0,0,0,1.17-1l.66.5A3.82,3.82,0,0,1,212.26,598.64Zm-.2-9a2.63,2.63,0,0,0-2,.87,4.05,4.05,0,0,0-1,2.34h5.71v-.11a3.48,3.48,0,0,0-.78-2.23A2.43,2.43,0,0,0,212.06,589.67Z" style="fill:#333"/><path d="M222.72,589.85a4.11,4.11,0,0,0-.72-.06,2.54,2.54,0,0,0-1.66.55,2.94,2.94,0,0,0-1,1.59v6.53h-1.05V589h1l0,1.51a2.79,2.79,0,0,1,2.68-1.68,1.84,1.84,0,0,1,.69.11Z" style="fill:#333"/><path d="M235.66,598.46a4.82,4.82,0,0,1-.2-1.32,3.67,3.67,0,0,1-1.41,1.11,4.38,4.38,0,0,1-1.82.39,3.21,3.21,0,0,1-2.22-.77,2.5,2.5,0,0,1-.85-1.93,2.55,2.55,0,0,1,1.16-2.2,5.53,5.53,0,0,1,3.22-.81h1.91v-1.08a2.07,2.07,0,0,0-.63-1.6,2.59,2.59,0,0,0-1.83-.58,2.82,2.82,0,0,0-1.82.56,1.66,1.66,0,0,0-.72,1.35h-1.06a2.43,2.43,0,0,1,1.06-2,4,4,0,0,1,2.59-.83,3.7,3.7,0,0,1,2.51.79,2.83,2.83,0,0,1,.94,2.22v4.5a5.69,5.69,0,0,0,.29,2.07v.1Zm-3.31-.75a3.54,3.54,0,0,0,1.89-.51,3.05,3.05,0,0,0,1.21-1.36v-2.1h-1.88a4.7,4.7,0,0,0-2.46.58,1.71,1.71,0,0,0-.89,1.53,1.68,1.68,0,0,0,.59,1.33A2.25,2.25,0,0,0,232.35,597.71Z" style="fill:#333"/><path d="M239.33,593.62a5.79,5.79,0,0,1,1-3.54,3.2,3.2,0,0,1,2.69-1.3,3.3,3.3,0,0,1,2.95,1.54L246,589h1v9.32a4,4,0,0,1-1,2.91,3.68,3.68,0,0,1-2.79,1.07,4.3,4.3,0,0,1-1.89-.44,3.77,3.77,0,0,1-1.42-1.18l.59-.64a3.31,3.31,0,0,0,2.65,1.37,2.73,2.73,0,0,0,2.06-.77,3.13,3.13,0,0,0,.77-2.16v-1.2a3.41,3.41,0,0,1-3,1.41,3.17,3.17,0,0,1-2.65-1.32,5.74,5.74,0,0,1-1-3.56Zm1.06.18a4.92,4.92,0,0,0,.73,2.87,2.32,2.32,0,0,0,2,1.05,2.82,2.82,0,0,0,2.76-1.74v-4.42a3,3,0,0,0-1.07-1.39,2.86,2.86,0,0,0-1.67-.48,2.39,2.39,0,0,0-2.06,1A5.25,5.25,0,0,0,240.39,593.8Z" style="fill:#333"/><path d="M256.18,598.46a5.25,5.25,0,0,1-.2-1.32,3.67,3.67,0,0,1-1.41,1.11,4.33,4.33,0,0,1-1.81.39,3.17,3.17,0,0,1-2.22-.77,2.47,2.47,0,0,1-.85-1.93,2.54,2.54,0,0,1,1.15-2.2,5.57,5.57,0,0,1,3.23-.81H256v-1.08a2.07,2.07,0,0,0-.63-1.6,2.59,2.59,0,0,0-1.83-.58,2.84,2.84,0,0,0-1.82.56,1.66,1.66,0,0,0-.72,1.35h-1.05a2.44,2.44,0,0,1,1.05-2,4,4,0,0,1,2.59-.83,3.7,3.7,0,0,1,2.51.79,2.84,2.84,0,0,1,.95,2.22v4.5a5.69,5.69,0,0,0,.29,2.07v.1Zm-3.3-.75a3.51,3.51,0,0,0,1.88-.51,3,3,0,0,0,1.21-1.36v-2.1h-1.88a4.7,4.7,0,0,0-2.46.58,1.73,1.73,0,0,0-.89,1.53,1.69,1.69,0,0,0,.6,1.33A2.23,2.23,0,0,0,252.88,597.71Z" style="fill:#333"/><path d="M260.21,586.21a.76.76,0,0,1,.19-.51.73.73,0,0,1,1.26.51.68.68,0,0,1-.2.49.77.77,0,0,1-1.06,0A.71.71,0,0,1,260.21,586.21Zm1.24,12.25H260.4V589h1.05Z" style="fill:#333"/><path d="M265.76,589l0,1.63a3.82,3.82,0,0,1,1.34-1.34,3.44,3.44,0,0,1,1.77-.46,2.82,2.82,0,0,1,2.27.86,3.87,3.87,0,0,1,.76,2.58v6.24h-1.05v-6.25a2.81,2.81,0,0,0-.54-1.89,2.1,2.1,0,0,0-1.7-.63,2.71,2.71,0,0,0-1.73.61A3.61,3.61,0,0,0,265.8,592v6.51h-1V589Z" style="fill:#333"/><path d="M275,597.83a.71.71,0,0,1,.2-.52.68.68,0,0,1,.55-.22.71.71,0,0,1,.55.22.75.75,0,0,1,.2.52.71.71,0,0,1-.2.51.77.77,0,0,1-.55.19.74.74,0,0,1-.55-.19A.67.67,0,0,1,275,597.83Z" style="fill:#333"/><path d="M294.4,598.46h-1.09v-6.13H286v6.13h-1.09V585.67H286v5.74h7.31v-5.74h1.09Z" style="fill:#333"/><path d="M301.54,598.64a4.15,4.15,0,0,1-2.2-.6,4.07,4.07,0,0,1-1.52-1.66,5.27,5.27,0,0,1-.55-2.4v-.38a5.56,5.56,0,0,1,.54-2.47,4.15,4.15,0,0,1,1.48-1.72,3.64,3.64,0,0,1,2-.63,3.43,3.43,0,0,1,2.75,1.18,4.77,4.77,0,0,1,1,3.23v.59h-6.79v.2a4,4,0,0,0,.93,2.69,2.94,2.94,0,0,0,2.33,1.08,3.36,3.36,0,0,0,1.49-.31,3.23,3.23,0,0,0,1.17-1l.66.5A3.82,3.82,0,0,1,301.54,598.64Zm-.2-9a2.64,2.64,0,0,0-2,.87,4,4,0,0,0-1,2.34h5.7v-.11a3.48,3.48,0,0,0-.78-2.23A2.42,2.42,0,0,0,301.34,589.67Z" style="fill:#333"/><path d="M312,589.85a4,4,0,0,0-.71-.06,2.55,2.55,0,0,0-1.67.55,3,3,0,0,0-1,1.59v6.53h-1V589h1l0,1.51a2.8,2.8,0,0,1,2.68-1.68,1.84,1.84,0,0,1,.69.11Z" style="fill:#333"/><path d="M324.63,596.05a1.5,1.5,0,0,0-.63-1.26,4.82,4.82,0,0,0-1.89-.74,8.57,8.57,0,0,1-2-.62,2.51,2.51,0,0,1-1-.85,2.08,2.08,0,0,1-.34-1.21,2.26,2.26,0,0,1,.94-1.86,3.8,3.8,0,0,1,2.41-.73,3.92,3.92,0,0,1,2.55.78,2.54,2.54,0,0,1,1,2.06h-1.05a1.69,1.69,0,0,0-.7-1.39,2.75,2.75,0,0,0-1.76-.56,2.82,2.82,0,0,0-1.67.46,1.43,1.43,0,0,0-.63,1.21,1.3,1.3,0,0,0,.53,1.1,5.41,5.41,0,0,0,1.9.71,8.84,8.84,0,0,1,2.08.7,2.57,2.57,0,0,1,1,.89,2.18,2.18,0,0,1,.34,1.25,2.29,2.29,0,0,1-1,1.93,4.86,4.86,0,0,1-5.23-.09,2.46,2.46,0,0,1-1-2h1.06a1.83,1.83,0,0,0,.78,1.44,3.16,3.16,0,0,0,1.89.51,3,3,0,0,0,1.78-.48A1.44,1.44,0,0,0,324.63,596.05Z" style="fill:#333"/><path d="M327.92,593.57a5.63,5.63,0,0,1,.53-2.47,4.12,4.12,0,0,1,1.51-1.71,4,4,0,0,1,2.2-.61,3.89,3.89,0,0,1,3.07,1.33,5.11,5.11,0,0,1,1.18,3.53v.22a5.68,5.68,0,0,1-.53,2.48,4,4,0,0,1-1.5,1.7,4.09,4.09,0,0,1-2.21.6,3.91,3.91,0,0,1-3.07-1.33,5.12,5.12,0,0,1-1.18-3.53Zm1.05.29a4.33,4.33,0,0,0,.89,2.8,3,3,0,0,0,4.62,0,4.47,4.47,0,0,0,.88-2.89v-.2a4.86,4.86,0,0,0-.4-2,3.3,3.3,0,0,0-1.13-1.4,2.93,2.93,0,0,0-1.67-.5,2.81,2.81,0,0,0-2.3,1.11,4.44,4.44,0,0,0-.89,2.88Z" style="fill:#333"/><path d="M338.45,593.57a5.63,5.63,0,0,1,.53-2.47,4.12,4.12,0,0,1,1.51-1.71,4,4,0,0,1,2.2-.61,3.89,3.89,0,0,1,3.07,1.33,5.11,5.11,0,0,1,1.18,3.53v.22a5.68,5.68,0,0,1-.53,2.48,4,4,0,0,1-1.5,1.7,4.08,4.08,0,0,1-2.2.6,3.93,3.93,0,0,1-3.08-1.33,5.12,5.12,0,0,1-1.18-3.53Zm1.06.29a4.32,4.32,0,0,0,.88,2.8,3,3,0,0,0,4.62,0,4.47,4.47,0,0,0,.89-2.89v-.2a4.87,4.87,0,0,0-.41-2,3.3,3.3,0,0,0-1.13-1.4,2.93,2.93,0,0,0-1.67-.5,2.82,2.82,0,0,0-2.3,1.11,4.44,4.44,0,0,0-.88,2.88Z" style="fill:#333"/><path d="M351.2,586.52V589h2v.86h-2v6.35a2,2,0,0,0,.28,1.18,1.11,1.11,0,0,0,1,.38,6,6,0,0,0,.85-.08l0,.85a3.36,3.36,0,0,1-1.12.15,1.89,1.89,0,0,1-1.58-.63,3,3,0,0,1-.49-1.85v-6.35h-1.75V589h1.75v-2.43Z" style="fill:#333"/><path d="M356.84,590.56a3.73,3.73,0,0,1,1.33-1.32,3.49,3.49,0,0,1,1.77-.46,2.82,2.82,0,0,1,2.27.86,3.87,3.87,0,0,1,.76,2.58v6.24h-1.05v-6.25a2.81,2.81,0,0,0-.54-1.89,2.1,2.1,0,0,0-1.7-.63,2.71,2.71,0,0,0-1.73.61,3.61,3.61,0,0,0-1.11,1.65v6.51h-1V585h1Z" style="fill:#333"/><path d="M366.06,586.21a.73.73,0,0,1,.2-.51.7.7,0,0,1,.52-.2.75.75,0,0,1,.54.2.72.72,0,0,1,.19.51.67.67,0,0,1-.19.49.72.72,0,0,1-.54.21.67.67,0,0,1-.52-.21A.68.68,0,0,1,366.06,586.21Zm1.24,12.25h-1.05V589h1.05Z" style="fill:#333"/><path d="M371.61,589l0,1.63a3.71,3.71,0,0,1,1.33-1.34,3.44,3.44,0,0,1,1.77-.46,2.81,2.81,0,0,1,2.27.86,3.87,3.87,0,0,1,.76,2.58v6.24h-1v-6.25a2.81,2.81,0,0,0-.54-1.89,2.1,2.1,0,0,0-1.7-.63,2.68,2.68,0,0,0-1.72.61,3.55,3.55,0,0,0-1.12,1.65v6.51h-1V589Z" style="fill:#333"/><path d="M380.52,593.62a5.72,5.72,0,0,1,1-3.54,3.2,3.2,0,0,1,2.69-1.3,3.3,3.3,0,0,1,2.95,1.54l.05-1.37h1v9.32a4,4,0,0,1-1,2.91,3.7,3.7,0,0,1-2.79,1.07,4.3,4.3,0,0,1-1.89-.44,3.77,3.77,0,0,1-1.42-1.18l.59-.64a3.31,3.31,0,0,0,2.65,1.37,2.73,2.73,0,0,0,2.06-.77,3.08,3.08,0,0,0,.76-2.16v-1.2a3.38,3.38,0,0,1-2.94,1.41,3.15,3.15,0,0,1-2.65-1.32,5.74,5.74,0,0,1-1-3.56Zm1.07.18a4.92,4.92,0,0,0,.73,2.87,2.32,2.32,0,0,0,2.05,1.05,2.8,2.8,0,0,0,2.75-1.74v-4.42a3,3,0,0,0-1.06-1.39,2.86,2.86,0,0,0-1.67-.48,2.39,2.39,0,0,0-2.06,1A5.25,5.25,0,0,0,381.59,593.8Z" style="fill:#333"/><path d="M107.71,618.61l2.89-8.06h1.08l-3.55,9.51h-.86l-3.56-9.51h1.08Z" style="fill:#333"/><path d="M113.14,615.17a5.63,5.63,0,0,1,.53-2.47,4.1,4.1,0,0,1,1.5-1.71,4,4,0,0,1,2.2-.61,3.9,3.9,0,0,1,3.08,1.33,5.11,5.11,0,0,1,1.18,3.53v.22a5.68,5.68,0,0,1-.53,2.48,4,4,0,0,1-1.5,1.7,4.11,4.11,0,0,1-2.21.6,3.91,3.91,0,0,1-3.07-1.33,5.12,5.12,0,0,1-1.18-3.53Zm1,.29a4.33,4.33,0,0,0,.89,2.8,3,3,0,0,0,4.62,0,4.45,4.45,0,0,0,.88-2.89v-.2a4.86,4.86,0,0,0-.4-2,3.25,3.25,0,0,0-1.14-1.4,2.89,2.89,0,0,0-1.67-.5,2.8,2.8,0,0,0-2.29,1.11,4.46,4.46,0,0,0-.89,2.88Z" style="fill:#333"/><path d="M124.19,607.81a.74.74,0,0,1,1.25-.51.73.73,0,0,1,.2.51.68.68,0,0,1-.2.49.77.77,0,0,1-1.06,0A.67.67,0,0,1,124.19,607.81Zm1.24,12.25h-1.06v-9.51h1.06Z" style="fill:#333"/><path d="M132.25,619.35a2.75,2.75,0,0,0,1.84-.62,2.19,2.19,0,0,0,.8-1.6h1a3,3,0,0,1-.55,1.58,3.41,3.41,0,0,1-1.33,1.13,4.14,4.14,0,0,1-1.78.4,3.67,3.67,0,0,1-3-1.3,5.26,5.26,0,0,1-1.09-3.5v-.32a5.9,5.9,0,0,1,.49-2.48,3.72,3.72,0,0,1,3.56-2.26,3.68,3.68,0,0,1,2.58.93,3.4,3.4,0,0,1,1.09,2.45h-1a2.56,2.56,0,0,0-.8-1.8,2.6,2.6,0,0,0-1.85-.69,2.63,2.63,0,0,0-2.21,1,4.64,4.64,0,0,0-.79,2.89v.3a4.5,4.5,0,0,0,.79,2.84A2.63,2.63,0,0,0,132.25,619.35Z" style="fill:#333"/><path d="M142.14,620.24a4.09,4.09,0,0,1-2.19-.6,4,4,0,0,1-1.53-1.66,5.26,5.26,0,0,1-.54-2.4v-.38a5.56,5.56,0,0,1,.53-2.47,4.22,4.22,0,0,1,1.48-1.72,3.65,3.65,0,0,1,2.06-.63,3.42,3.42,0,0,1,2.74,1.18,4.77,4.77,0,0,1,1,3.23v.59h-6.79v.2a4,4,0,0,0,.93,2.69,3,3,0,0,0,2.33,1.08,3.16,3.16,0,0,0,2.67-1.29l.65.5A3.82,3.82,0,0,1,142.14,620.24Zm-.19-9a2.61,2.61,0,0,0-2,.87,3.93,3.93,0,0,0-1,2.34h5.7v-.11a3.48,3.48,0,0,0-.78-2.23A2.41,2.41,0,0,0,142,611.27Z" style="fill:#333"/><path d="M153,607.81a.76.76,0,0,1,.19-.51.73.73,0,0,1,1.26.51.68.68,0,0,1-.2.49.77.77,0,0,1-1.06,0A.71.71,0,0,1,153,607.81Zm1.24,12.25h-1.05v-9.51h1.05Z" style="fill:#333"/><path d="M163.21,617.65a1.51,1.51,0,0,0-.63-1.26,4.82,4.82,0,0,0-1.89-.74,8.57,8.57,0,0,1-2-.62,2.51,2.51,0,0,1-1-.85,2.05,2.05,0,0,1-.34-1.21,2.26,2.26,0,0,1,.94-1.86,3.8,3.8,0,0,1,2.41-.73,3.87,3.87,0,0,1,2.55.79,2.51,2.51,0,0,1,1,2.05h-1.05a1.69,1.69,0,0,0-.7-1.39,3.12,3.12,0,0,0-3.43-.09,1.4,1.4,0,0,0-.63,1.2,1.3,1.3,0,0,0,.53,1.1,5.41,5.41,0,0,0,1.9.71,8.84,8.84,0,0,1,2.08.7,2.65,2.65,0,0,1,1,.89,2.18,2.18,0,0,1,.34,1.25,2.29,2.29,0,0,1-1,1.93,4.86,4.86,0,0,1-5.23-.09,2.46,2.46,0,0,1-1-2h1.06a1.82,1.82,0,0,0,.78,1.44,3.16,3.16,0,0,0,1.89.51,3,3,0,0,0,1.78-.48A1.44,1.44,0,0,0,163.21,617.65Z" style="fill:#333"/><path d="M173.54,608.12v2.43h2v.87h-2v6.34a2,2,0,0,0,.29,1.18,1.1,1.1,0,0,0,.95.39,6.26,6.26,0,0,0,.85-.09l.05.85a3.43,3.43,0,0,1-1.13.15,1.87,1.87,0,0,1-1.57-.63,2.94,2.94,0,0,1-.49-1.85v-6.34h-1.75v-.87h1.75v-2.43Z" style="fill:#333"/><path d="M179.19,612.16a3.63,3.63,0,0,1,1.32-1.32,3.49,3.49,0,0,1,1.77-.46,2.88,2.88,0,0,1,2.28.86,3.87,3.87,0,0,1,.75,2.58v6.24h-1v-6.25a2.92,2.92,0,0,0-.54-1.89,2.13,2.13,0,0,0-1.7-.63,2.69,2.69,0,0,0-1.73.61,3.61,3.61,0,0,0-1.11,1.65v6.51h-1.05v-13.5h1.05Z" style="fill:#333"/><path d="M192.15,620.24a4.09,4.09,0,0,1-2.19-.6,4.16,4.16,0,0,1-1.53-1.66,5.26,5.26,0,0,1-.54-2.4v-.38a5.7,5.7,0,0,1,.53-2.47A4.29,4.29,0,0,1,189.9,611a3.67,3.67,0,0,1,2.06-.63,3.44,3.44,0,0,1,2.75,1.18,4.82,4.82,0,0,1,1,3.23v.59h-6.78v.2a3.94,3.94,0,0,0,.92,2.69,3,3,0,0,0,2.34,1.08,3.39,3.39,0,0,0,1.49-.31,3.23,3.23,0,0,0,1.17-1l.66.5A3.84,3.84,0,0,1,192.15,620.24Zm-.19-9a2.63,2.63,0,0,0-2,.87,4.05,4.05,0,0,0-1,2.34h5.7v-.11a3.42,3.42,0,0,0-.78-2.23A2.4,2.4,0,0,0,192,611.27Z" style="fill:#333"/><path d="M210.69,615.41a5.74,5.74,0,0,1-1,3.52,3.15,3.15,0,0,1-2.64,1.31,3.53,3.53,0,0,1-3-1.37v4.85h-1V610.55h1l.05,1.35a3.37,3.37,0,0,1,3-1.52,3.17,3.17,0,0,1,2.68,1.29,5.85,5.85,0,0,1,1,3.59Zm-1.05-.19a4.86,4.86,0,0,0-.75-2.87,2.4,2.4,0,0,0-2.08-1.06,2.81,2.81,0,0,0-2.73,1.82v4.56a2.77,2.77,0,0,0,1.08,1.25,3.11,3.11,0,0,0,1.66.43,2.37,2.37,0,0,0,2.07-1.06A5.27,5.27,0,0,0,209.64,615.22Z" style="fill:#333"/><path d="M217.15,620.24a4.08,4.08,0,0,1-3.71-2.26,5.14,5.14,0,0,1-.55-2.4v-.38a5.7,5.7,0,0,1,.53-2.47A4.29,4.29,0,0,1,214.9,611a3.67,3.67,0,0,1,2.06-.63,3.44,3.44,0,0,1,2.75,1.18,4.82,4.82,0,0,1,1,3.23v.59h-6.78v.2a4,4,0,0,0,.92,2.69,3,3,0,0,0,2.34,1.08,3.36,3.36,0,0,0,1.49-.31,3.23,3.23,0,0,0,1.17-1l.66.5A3.84,3.84,0,0,1,217.15,620.24Zm-.19-9a2.63,2.63,0,0,0-2,.87,4.05,4.05,0,0,0-1,2.34h5.71v-.11a3.43,3.43,0,0,0-.79-2.23A2.4,2.4,0,0,0,217,611.27Z" style="fill:#333"/><path d="M227.61,611.45a4,4,0,0,0-.71-.06,2.54,2.54,0,0,0-1.66.55,2.94,2.94,0,0,0-1,1.59v6.53h-1.05v-9.51h1l0,1.52a2.78,2.78,0,0,1,2.68-1.69,1.84,1.84,0,0,1,.69.11Z" style="fill:#333"/><path d="M230.61,620.06v-8.64H229v-.87h1.57V609.4a3.11,3.11,0,0,1,.75-2.24,2.71,2.71,0,0,1,2.07-.78,4,4,0,0,1,1.11.15l-.08.87a4.08,4.08,0,0,0-1-.11,1.69,1.69,0,0,0-1.35.55,2.23,2.23,0,0,0-.48,1.53v1.18h2.27v.87h-2.27v8.64Z" style="fill:#333"/><path d="M240,620.24a4.09,4.09,0,0,1-2.19-.6,4,4,0,0,1-1.53-1.66,5.26,5.26,0,0,1-.54-2.4v-.38a5.56,5.56,0,0,1,.53-2.47A4.22,4.22,0,0,1,237.7,611a3.65,3.65,0,0,1,2.06-.63,3.41,3.41,0,0,1,2.74,1.18,4.77,4.77,0,0,1,1,3.23v.59h-6.79v.2a4,4,0,0,0,.93,2.69,3,3,0,0,0,2.33,1.08,3.16,3.16,0,0,0,2.67-1.29l.66.5A3.85,3.85,0,0,1,240,620.24Zm-.19-9a2.61,2.61,0,0,0-2,.87,3.93,3.93,0,0,0-1,2.34h5.7v-.11a3.48,3.48,0,0,0-.78-2.23A2.41,2.41,0,0,0,239.76,611.27Z" style="fill:#333"/><path d="M249.53,619.35a2.73,2.73,0,0,0,1.84-.62,2.2,2.2,0,0,0,.81-1.6h1a2.9,2.9,0,0,1-.55,1.58,3.41,3.41,0,0,1-1.33,1.13,4.14,4.14,0,0,1-1.78.4,3.67,3.67,0,0,1-3-1.3,5.26,5.26,0,0,1-1.09-3.5v-.32a5.9,5.9,0,0,1,.49-2.48,3.72,3.72,0,0,1,3.56-2.26,3.68,3.68,0,0,1,2.58.93,3.4,3.4,0,0,1,1.09,2.45h-1a2.74,2.74,0,0,0-4.87-1.46,4.71,4.71,0,0,0-.79,2.89v.3a4.57,4.57,0,0,0,.79,2.84A2.64,2.64,0,0,0,249.53,619.35Z" style="fill:#333"/><path d="M257.37,608.12v2.43h2v.87h-2v6.34a2,2,0,0,0,.29,1.18,1.1,1.1,0,0,0,.95.39,6.26,6.26,0,0,0,.85-.09l.05.85a3.43,3.43,0,0,1-1.13.15,1.87,1.87,0,0,1-1.57-.63,2.94,2.94,0,0,1-.49-1.85v-6.34h-1.75v-.87h1.75v-2.43Z" style="fill:#333"/><path d="M274.44,615.41a5.68,5.68,0,0,1-1,3.52,3.15,3.15,0,0,1-2.64,1.31,3.54,3.54,0,0,1-3-1.37v4.85h-1V610.55h1l.06,1.35a3.36,3.36,0,0,1,3-1.52,3.15,3.15,0,0,1,2.67,1.29,5.85,5.85,0,0,1,1,3.59Zm-1.05-.19a4.86,4.86,0,0,0-.75-2.87,2.4,2.4,0,0,0-2.08-1.06,2.9,2.9,0,0,0-1.66.47,3,3,0,0,0-1.07,1.35v4.56a2.85,2.85,0,0,0,1.09,1.25,3.06,3.06,0,0,0,1.66.43,2.39,2.39,0,0,0,2.07-1.06A5.35,5.35,0,0,0,273.39,615.22Z" style="fill:#333"/><path d="M280.91,620.24a4.15,4.15,0,0,1-2.2-.6,4.07,4.07,0,0,1-1.52-1.66,5.27,5.27,0,0,1-.55-2.4v-.38a5.7,5.7,0,0,1,.53-2.47,4.24,4.24,0,0,1,1.49-1.72,3.62,3.62,0,0,1,2-.63,3.43,3.43,0,0,1,2.75,1.18,4.77,4.77,0,0,1,1,3.23v.59h-6.78v.2a4,4,0,0,0,.93,2.69,2.92,2.92,0,0,0,2.33,1.08,3.36,3.36,0,0,0,1.49-.31,3.23,3.23,0,0,0,1.17-1l.66.5A3.82,3.82,0,0,1,280.91,620.24Zm-.2-9a2.63,2.63,0,0,0-2,.87,4.05,4.05,0,0,0-1,2.34h5.71v-.11a3.48,3.48,0,0,0-.78-2.23A2.43,2.43,0,0,0,280.71,611.27Z" style="fill:#333"/><path d="M291.37,611.45a4.11,4.11,0,0,0-.72-.06,2.54,2.54,0,0,0-1.66.55,2.94,2.94,0,0,0-1,1.59v6.53h-1v-9.51h1l0,1.52a2.78,2.78,0,0,1,2.68-1.69,1.84,1.84,0,0,1,.69.11Z" style="fill:#333"/><path d="M299.17,617.65a1.51,1.51,0,0,0-.63-1.26,4.82,4.82,0,0,0-1.89-.74,8.57,8.57,0,0,1-2-.62,2.51,2.51,0,0,1-1-.85,2.05,2.05,0,0,1-.34-1.21,2.26,2.26,0,0,1,.94-1.86,3.8,3.8,0,0,1,2.41-.73,3.87,3.87,0,0,1,2.55.79,2.51,2.51,0,0,1,1,2.05h-1.05a1.69,1.69,0,0,0-.7-1.39,3.12,3.12,0,0,0-3.43-.09,1.4,1.4,0,0,0-.62,1.2,1.29,1.29,0,0,0,.52,1.1,5.4,5.4,0,0,0,1.91.71,8.9,8.9,0,0,1,2.07.7,2.65,2.65,0,0,1,1,.89,2.18,2.18,0,0,1,.34,1.25,2.29,2.29,0,0,1-1,1.93,4.86,4.86,0,0,1-5.23-.09,2.46,2.46,0,0,1-1-2h1.06a1.82,1.82,0,0,0,.78,1.44,3.18,3.18,0,0,0,1.89.51,3,3,0,0,0,1.78-.48A1.44,1.44,0,0,0,299.17,617.65Z" style="fill:#333"/><path d="M306.56,619.35a2.75,2.75,0,0,0,1.84-.62,2.19,2.19,0,0,0,.8-1.6h1a3,3,0,0,1-.54,1.58,3.49,3.49,0,0,1-1.33,1.13,4.17,4.17,0,0,1-1.78.4,3.67,3.67,0,0,1-3-1.3,5.26,5.26,0,0,1-1.09-3.5v-.32a5.9,5.9,0,0,1,.49-2.48,3.72,3.72,0,0,1,3.56-2.26,3.68,3.68,0,0,1,2.58.93,3.35,3.35,0,0,1,1.08,2.45h-1a2.56,2.56,0,0,0-.8-1.8,2.6,2.6,0,0,0-1.85-.69,2.63,2.63,0,0,0-2.21,1,4.64,4.64,0,0,0-.79,2.89v.3a4.5,4.5,0,0,0,.79,2.84A2.63,2.63,0,0,0,306.56,619.35Z" style="fill:#333"/><path d="M317.16,611.45a4,4,0,0,0-.71-.06,2.56,2.56,0,0,0-1.67.55,3,3,0,0,0-1,1.59v6.53h-1.05v-9.51h1l0,1.52a2.79,2.79,0,0,1,2.68-1.69,1.9,1.9,0,0,1,.7.11Z" style="fill:#333"/><path d="M319.21,607.81a.74.74,0,0,1,1.25-.51.73.73,0,0,1,.2.51.68.68,0,0,1-.2.49.77.77,0,0,1-1.06,0A.67.67,0,0,1,319.21,607.81Zm1.24,12.25h-1.06v-9.51h1.06Z" style="fill:#333"/><path d="M331.4,615.41a5.74,5.74,0,0,1-1,3.52,3.15,3.15,0,0,1-2.64,1.31,3.53,3.53,0,0,1-3-1.37v4.85h-1V610.55h1l0,1.35a3.37,3.37,0,0,1,3-1.52,3.17,3.17,0,0,1,2.68,1.29,5.85,5.85,0,0,1,1,3.59Zm-1-.19a4.86,4.86,0,0,0-.75-2.87,2.4,2.4,0,0,0-2.08-1.06,2.78,2.78,0,0,0-2.73,1.82v4.56a2.77,2.77,0,0,0,1.08,1.25,3.09,3.09,0,0,0,1.66.43,2.37,2.37,0,0,0,2.07-1.06A5.27,5.27,0,0,0,330.35,615.22Z" style="fill:#333"/><path d="M335.81,608.12v2.43h2v.87h-2v6.34a2,2,0,0,0,.29,1.18,1.1,1.1,0,0,0,.95.39,6.53,6.53,0,0,0,.86-.09l0,.85a3.4,3.4,0,0,1-1.12.15,1.88,1.88,0,0,1-1.58-.63,2.94,2.94,0,0,1-.49-1.85v-6.34H333v-.87h1.75v-2.43Z" style="fill:#333"/><path d="M340.35,607.81a.76.76,0,0,1,.19-.51.8.8,0,0,1,1.06,0,.69.69,0,0,1,.2.51.64.64,0,0,1-.2.49.77.77,0,0,1-1.06,0A.71.71,0,0,1,340.35,607.81Zm1.24,12.25h-1v-9.51h1Z" style="fill:#333"/><path d="M344.32,615.17a5.5,5.5,0,0,1,.53-2.47,4,4,0,0,1,3.7-2.32,3.91,3.91,0,0,1,3.08,1.33,5.16,5.16,0,0,1,1.18,3.53v.22a5.68,5.68,0,0,1-.53,2.48,4,4,0,0,1-1.5,1.7,4.11,4.11,0,0,1-2.21.6,3.91,3.91,0,0,1-3.07-1.33,5.12,5.12,0,0,1-1.18-3.53Zm1.05.29a4.38,4.38,0,0,0,.88,2.8,3,3,0,0,0,4.63,0,4.45,4.45,0,0,0,.88-2.89v-.2a4.86,4.86,0,0,0-.4-2,3.25,3.25,0,0,0-1.14-1.4,2.89,2.89,0,0,0-1.67-.5,2.8,2.8,0,0,0-2.29,1.11,4.46,4.46,0,0,0-.89,2.88Z" style="fill:#333"/><path d="M356.43,610.55l0,1.63a3.71,3.71,0,0,1,1.33-1.34,3.44,3.44,0,0,1,1.77-.46,2.84,2.84,0,0,1,2.27.86,3.87,3.87,0,0,1,.76,2.58v6.24h-1.05v-6.25a2.81,2.81,0,0,0-.54-1.89,2.1,2.1,0,0,0-1.7-.63,2.68,2.68,0,0,0-1.72.61,3.55,3.55,0,0,0-1.12,1.65v6.51h-1v-9.51Z" style="fill:#333"/><path d="M365.67,619.43a.71.71,0,0,1,.2-.52.68.68,0,0,1,.55-.22.71.71,0,0,1,.55.22.75.75,0,0,1,.2.52.71.71,0,0,1-.2.51.77.77,0,0,1-.55.19.74.74,0,0,1-.55-.19A.67.67,0,0,1,365.67,619.43Z" style="fill:#333"/><path d="M106.79,417.29a3.33,3.33,0,0,0,.56-.05,1.76,1.76,0,0,0,.49-.16,1.24,1.24,0,0,0,.38-.29.82.82,0,0,0,.2-.43h.75V422h-1V418h-1.38Z" style="fill:#333"/><path d="M111.86,419.35h5.92v.86h-5.92Z" style="fill:#333"/><path d="M119.41,416.25h1.41l1.57,4.47h0l1.54-4.47h1.39V422h-1v-4.41h0L122.79,422H122l-1.58-4.41h0V422h-1Z" style="fill:#333"/><path d="M129,416.11a2.57,2.57,0,0,1,2,.89,3.05,3.05,0,0,1,.54.95,3.61,3.61,0,0,1,0,2.31,2.94,2.94,0,0,1-.54.95,2.51,2.51,0,0,1-.86.65,3,3,0,0,1-2.3,0,2.51,2.51,0,0,1-.86-.65,2.94,2.94,0,0,1-.54-.95,3.61,3.61,0,0,1,0-2.31A3.05,3.05,0,0,1,127,417a2.57,2.57,0,0,1,2-.89Zm0,.82a1.62,1.62,0,0,0-.79.18,1.59,1.59,0,0,0-.54.49,2.33,2.33,0,0,0-.31.7,3.25,3.25,0,0,0,0,1.6,2.23,2.23,0,0,0,.31.7,1.49,1.49,0,0,0,.54.49,1.52,1.52,0,0,0,.79.19,1.54,1.54,0,0,0,.79-.19,1.49,1.49,0,0,0,.54-.49,2,2,0,0,0,.3-.7,3,3,0,0,0,0-1.6,2.09,2.09,0,0,0-.3-.7,1.59,1.59,0,0,0-.54-.49A1.65,1.65,0,0,0,129,416.93Z" style="fill:#333"/><path d="M132.58,416.25h1l2.61,4.2h0v-4.2h1V422h-1.06l-2.6-4.2h0V422h-.95Z" style="fill:#333"/><path d="M137.85,416.25h4.62v.86h-1.81V422h-1v-4.85h-1.81Z" style="fill:#333"/><path d="M143.14,416.25h4.11v.86h-3.11v1.5H147v.81h-2.88v1.67h3.16V422h-4.16Z" style="fill:#333"/><path d="M148.18,416.25H151a2,2,0,0,1,1.23.35,1.24,1.24,0,0,1,.47,1.06,1.27,1.27,0,0,1-.21.74,1.4,1.4,0,0,1-.61.48h0a1.31,1.31,0,0,1,.8.5,1.69,1.69,0,0,1,.27,1,1.59,1.59,0,0,1-.12.62,1.24,1.24,0,0,1-.37.51,1.86,1.86,0,0,1-.66.33,3,3,0,0,1-.95.13h-2.62Zm1,2.39h1.63a.88.88,0,0,0,.6-.21.71.71,0,0,0,.24-.58.73.73,0,0,0-.22-.61.94.94,0,0,0-.62-.18h-1.63Zm0,2.5h1.76a1,1,0,0,0,.71-.23.87.87,0,0,0,.25-.67.82.82,0,0,0-.25-.65,1,1,0,0,0-.71-.23h-1.76Z" style="fill:#333"/><path d="M153.81,416.25h4.11v.86h-3.11v1.5h2.88v.81h-2.88v1.67H158V422h-4.17Z" style="fill:#333"/><path d="M158.85,416.25h1v4.84h2.9V422h-3.9Z" style="fill:#333"/><path d="M163.44,416.25h1v4.84h2.9V422h-3.9Z" style="fill:#333"/><path d="M170.46,416.11a2.66,2.66,0,0,1,1.15.24,2.54,2.54,0,0,1,.86.65,2.7,2.7,0,0,1,.54.95,3.61,3.61,0,0,1,0,2.31,2.62,2.62,0,0,1-.54.95,2.42,2.42,0,0,1-.86.65,3,3,0,0,1-2.29,0,2.42,2.42,0,0,1-.86-.65,2.62,2.62,0,0,1-.54-.95,3.61,3.61,0,0,1,0-2.31,2.7,2.7,0,0,1,.54-.95,2.54,2.54,0,0,1,.86-.65A2.64,2.64,0,0,1,170.46,416.11Zm0,.82a1.52,1.52,0,0,0-1.32.67,2.33,2.33,0,0,0-.31.7,3.25,3.25,0,0,0,0,1.6,2.23,2.23,0,0,0,.31.7,1.55,1.55,0,0,0,1.32.68,1.52,1.52,0,0,0,.79-.19,1.49,1.49,0,0,0,.54-.49,2.23,2.23,0,0,0,.31-.7,3.25,3.25,0,0,0,0-1.6,2.33,2.33,0,0,0-.31-.7,1.59,1.59,0,0,0-.54-.49A1.62,1.62,0,0,0,170.46,416.93Z" style="fill:#333"/><path d="M107.5,523h-3.82a2.32,2.32,0,0,1,.34-1.22,3,3,0,0,1,.89-.9c.18-.14.37-.26.57-.39a6,6,0,0,0,.55-.4,2.17,2.17,0,0,0,.4-.47,1,1,0,0,0,.17-.58,2,2,0,0,0,0-.33,1,1,0,0,0-.15-.32.74.74,0,0,0-.28-.24,1,1,0,0,0-.48-.1.88.88,0,0,0-.45.1.76.76,0,0,0-.29.3,1.21,1.21,0,0,0-.16.44,2.47,2.47,0,0,0-.06.56h-.91a2.93,2.93,0,0,1,.12-.86,1.78,1.78,0,0,1,1-1.14,2.31,2.31,0,0,1,1.69,0,1.73,1.73,0,0,1,.55.43,1.3,1.3,0,0,1,.3.55,2,2,0,0,1,.09.58,1.64,1.64,0,0,1-.1.6,1.74,1.74,0,0,1-.28.5,2.28,2.28,0,0,1-.4.42c-.15.13-.31.25-.46.36s-.32.22-.48.32l-.45.31a2.67,2.67,0,0,0-.35.31.76.76,0,0,0-.21.35h2.72Z" style="fill:#333"/><path d="M108.86,520.35h5.92v.86h-5.92Z" style="fill:#333"/><path d="M116.4,517.25h1v2.27H120v-2.27h1V523h-1v-2.58h-2.6V523h-1Z" style="fill:#333"/><path d="M122.2,517.25h4.11v.86H123.2v1.5h2.88v.81H123.2v1.67h3.17V523H122.2Z" style="fill:#333"/><path d="M127.24,517.25H130a2.1,2.1,0,0,1,1.41.4,1.42,1.42,0,0,1,.48,1.14,1.69,1.69,0,0,1-.12.68,1.78,1.78,0,0,1-.28.43.92.92,0,0,1-.32.23l-.23.1v0a.8.8,0,0,1,.28.08.73.73,0,0,1,.27.2,1,1,0,0,1,.22.36,1.79,1.79,0,0,1,.08.56,5.08,5.08,0,0,0,.08.92,1.31,1.31,0,0,0,.23.59H131a.94.94,0,0,1-.13-.41c0-.15,0-.29,0-.43a4.4,4.4,0,0,0,0-.68,1.1,1.1,0,0,0-.18-.47.72.72,0,0,0-.34-.28,1.82,1.82,0,0,0-.57-.08h-1.47V523h-1Zm1,2.6h1.64a1.06,1.06,0,0,0,.73-.23.91.91,0,0,0,.25-.69,1.12,1.12,0,0,0-.08-.44.84.84,0,0,0-.22-.27,1.13,1.13,0,0,0-.32-.13,2.31,2.31,0,0,0-.37,0h-1.63Z" style="fill:#333"/><path d="M132.87,517.25h1V523h-1Z" style="fill:#333"/><path d="M134.55,517.25h4.63v.86h-1.82V523h-1v-4.85h-1.81Z" style="fill:#333"/><path d="M140.63,517.25h1.07l2.2,5.71h-1.07l-.54-1.51H140l-.54,1.51h-1Zm-.35,3.44H142l-.86-2.46h0Z" style="fill:#333"/><path d="M149.42,523h-.63l-.16-.67a2.36,2.36,0,0,1-.8.63,2.19,2.19,0,0,1-.92.17,2.69,2.69,0,0,1-1.15-.23,2.47,2.47,0,0,1-.85-.65,2.62,2.62,0,0,1-.54-1,3.61,3.61,0,0,1,0-2.31,2.7,2.7,0,0,1,.54-1,2.6,2.6,0,0,1,.85-.65,2.69,2.69,0,0,1,1.15-.24,3.24,3.24,0,0,1,.89.12,2.45,2.45,0,0,1,.74.37,2,2,0,0,1,.55.61,2.3,2.3,0,0,1,.27.85h-1a1.15,1.15,0,0,0-.17-.49,1.42,1.42,0,0,0-.33-.36,1.55,1.55,0,0,0-.45-.21,1.77,1.77,0,0,0-.52-.07,1.67,1.67,0,0,0-.79.18,1.59,1.59,0,0,0-.54.49,2.32,2.32,0,0,0-.3.7,3.25,3.25,0,0,0,0,1.6,2.21,2.21,0,0,0,.3.7,1.49,1.49,0,0,0,.54.49,1.57,1.57,0,0,0,.79.19,2,2,0,0,0,.68-.1,1.33,1.33,0,0,0,.5-.31,1.36,1.36,0,0,0,.31-.5,2,2,0,0,0,.11-.66H147V520h2.43Z" style="fill:#333"/><path d="M150.51,517.25h4.11v.86h-3.11v1.5h2.88v.81h-2.88v1.67h3.17V523h-4.17Z" style="fill:#333"/><text transform="translate(103.37 643.96)" style="font-size:8px;fill:#333;font-family:HelveticaNeue-Medium, Helvetica Neue">3ROBOTO</text><path d="M573,47.5v.76l1.67.24v.64L573,48.91v.88l1.67.24v.64L573,50.43v.76h-.6v-.84l-1-.15V51h-.6v-.83l-1.68-.23v-.65l1.68.24v-.89l-1.68-.23v-.65l1.68.24v-.68h.6V48l1,.15V47.5Zm-1.64,2.06,1,.15v-.89l-1-.15Z" style="fill:#231f20"/><path d="M569,44.87V43.81l5.71-2.2v1.07l-1.51.54V45.5l1.51.53v1Zm3.44.36V43.48l-2.45.86v0Z" style="fill:#231f20"/><path d="M569,41.07V38.7a2.66,2.66,0,0,1,.23-1.14,2.06,2.06,0,0,1,.61-.78,2.51,2.51,0,0,1,.91-.45,3.92,3.92,0,0,1,1.11-.15,4,4,0,0,1,1.11.15,2.51,2.51,0,0,1,.91.45,2.06,2.06,0,0,1,.61.78,2.67,2.67,0,0,1,.22,1.14v2.37Zm4.9-1v-1a2.32,2.32,0,0,0-.16-.95,1.32,1.32,0,0,0-.43-.59,1.54,1.54,0,0,0-.65-.29,4,4,0,0,0-.8-.07,4.14,4.14,0,0,0-.81.07,1.56,1.56,0,0,0-.64.29,1.41,1.41,0,0,0-.44.59,2.52,2.52,0,0,0-.15.95v1Z" style="fill:#231f20"/><path d="M569,35.29V31.18h.87v3.11h1.49V31.41h.82v2.88h1.67V31.12h.86v4.17Z" style="fill:#231f20"/><path d="M573.25,29.57a.9.9,0,0,0,.56-.24.79.79,0,0,0,.21-.58.83.83,0,0,0-.2-.58,1.23,1.23,0,0,0-.49-.34,2.46,2.46,0,0,0-.62-.17l-.61-.07,0,0a1.2,1.2,0,0,1,.5.5,1.43,1.43,0,0,1,.17.71,1.81,1.81,0,0,1-.13.72,1.68,1.68,0,0,1-.38.56,1.83,1.83,0,0,1-.59.36,2.45,2.45,0,0,1-.78.13,2.28,2.28,0,0,1-.76-.13,1.75,1.75,0,0,1-.61-.38,1.62,1.62,0,0,1-.4-.61,2.09,2.09,0,0,1-.15-.81,1.92,1.92,0,0,1,.23-1,1.65,1.65,0,0,1,.63-.6,2.75,2.75,0,0,1,.93-.31,6.84,6.84,0,0,1,1.14-.09,5.05,5.05,0,0,1,1,.11,2.91,2.91,0,0,1,.93.36,1.93,1.93,0,0,1,.68.65,1.74,1.74,0,0,1,.27,1,1.69,1.69,0,0,1-.12.64,1.53,1.53,0,0,1-.31.52,1.47,1.47,0,0,1-.48.37,1.39,1.39,0,0,1-.62.16Zm-3.54-.87a.85.85,0,0,0,.1.43.81.81,0,0,0,.25.3,1.11,1.11,0,0,0,.36.18,1.64,1.64,0,0,0,.88,0,1.06,1.06,0,0,0,.37-.18.83.83,0,0,0,.26-.3.85.85,0,0,0,.1-.43,1.06,1.06,0,0,0-.09-.45,1,1,0,0,0-.26-.32,1.21,1.21,0,0,0-.38-.18,1.42,1.42,0,0,0-.88,0,1.11,1.11,0,0,0-.36.18,1,1,0,0,0-.25.32A1.06,1.06,0,0,0,569.71,28.7Z" style="fill:#231f20"/><path d="M569,25.8V21.69h.87V24.8h1.49V21.92h.82V24.8h1.67V21.63h.86V25.8Z" style="fill:#231f20"/><path d="M574.78,19.15a2.45,2.45,0,0,1-.12.78,1.75,1.75,0,0,1-.35.63,1.43,1.43,0,0,1-.56.41,1.73,1.73,0,0,1-.73.15,1.43,1.43,0,0,1-.89-.27,1.36,1.36,0,0,1-.48-.75h0a1.2,1.2,0,0,1-.44.59,1.28,1.28,0,0,1-.71.2,1.43,1.43,0,0,1-1.12-.45,1.87,1.87,0,0,1-.41-1.29,1.91,1.91,0,0,1,.41-1.3,1.43,1.43,0,0,1,1.12-.45,1.21,1.21,0,0,1,.71.21,1.13,1.13,0,0,1,.44.58h0a1.3,1.3,0,0,1,.48-.74,1.37,1.37,0,0,1,.89-.28,1.73,1.73,0,0,1,.73.15,1.54,1.54,0,0,1,.56.41,1.93,1.93,0,0,1,.35.63A2.47,2.47,0,0,1,574.78,19.15Zm-5.11,0a1,1,0,0,0,.22.62.81.81,0,0,0,.64.26.77.77,0,0,0,.61-.25,1.07,1.07,0,0,0,0-1.27.76.76,0,0,0-.61-.24.8.8,0,0,0-.64.25A1,1,0,0,0,569.67,19.15Zm4.39,0a1.09,1.09,0,0,0-.27-.76,1,1,0,0,0-.77-.31.9.9,0,0,0-.73.31,1.13,1.13,0,0,0-.26.76,1.17,1.17,0,0,0,.26.76.93.93,0,0,0,.73.3,1,1,0,0,0,.77-.3A1.12,1.12,0,0,0,574.06,19.15Z" style="fill:#231f20"/><path d="M636.37,48.28V49l1.68.24v.64l-1.68-.23v.88l1.68.24v.64l-1.68-.24V52h-.6v-.83l-1-.15v.75h-.6V50.9l-1.68-.23V50l1.68.24v-.89l-1.68-.23v-.65l1.68.24V48h.6v.77l1,.15v-.68Zm-1.64,2.06,1,.15V49.6l-1-.15Z" style="fill:#231f20"/><path d="M632.34,47.18V44.81a2.65,2.65,0,0,1,.23-1.13,2.18,2.18,0,0,1,.61-.79,2.67,2.67,0,0,1,.91-.45,3.92,3.92,0,0,1,1.11-.15,4,4,0,0,1,1.11.15,2.67,2.67,0,0,1,.91.45,2.18,2.18,0,0,1,.61.79,2.65,2.65,0,0,1,.22,1.13v2.37Zm4.9-1v-1a2.41,2.41,0,0,0-.16-1,1.36,1.36,0,0,0-.43-.58,1.54,1.54,0,0,0-.65-.29,4,4,0,0,0-.8-.08,4.12,4.12,0,0,0-.81.08,1.56,1.56,0,0,0-.64.29,1.38,1.38,0,0,0-.44.58,2.61,2.61,0,0,0-.15,1v1Z" style="fill:#231f20"/><path d="M632.34,41.41V37.29h.87v3.12h1.49V37.53h.82v2.88h1.67V37.24h.86v4.17Z" style="fill:#231f20"/><path d="M632.34,36.37V32.42h.87v2.95h1.49V32.78h.82v2.59h2.53v1Z" style="fill:#231f20"/><path d="M632.34,30a1.58,1.58,0,0,1,.28-1,1.93,1.93,0,0,1,.7-.6,3.21,3.21,0,0,1,.94-.28,5.66,5.66,0,0,1,1-.08,5.77,5.77,0,0,1,1,.08,3.21,3.21,0,0,1,.94.28,1.93,1.93,0,0,1,.7.6,1.65,1.65,0,0,1,.28,1,1.67,1.67,0,0,1-.28,1,1.91,1.91,0,0,1-.7.59,3.55,3.55,0,0,1-.94.29,6.92,6.92,0,0,1-1,.07,6.78,6.78,0,0,1-1-.07,3.55,3.55,0,0,1-.94-.29,1.91,1.91,0,0,1-.7-.59A1.6,1.6,0,0,1,632.34,30Zm5.07,0a.71.71,0,0,0-.18-.5,1.22,1.22,0,0,0-.46-.32,3,3,0,0,0-.68-.16,7.3,7.3,0,0,0-.84-.05,7,7,0,0,0-.82.05,3.19,3.19,0,0,0-.69.16,1.26,1.26,0,0,0-.47.32.82.82,0,0,0,0,1,1.24,1.24,0,0,0,.47.31,3.19,3.19,0,0,0,.69.16,7,7,0,0,0,.82.05,7.3,7.3,0,0,0,.84-.05,3,3,0,0,0,.68-.16,1.2,1.2,0,0,0,.46-.31A.71.71,0,0,0,637.41,30Z" style="fill:#231f20"/><path d="M632.34,27.17V23.06h.87v3.11h1.49V23.29h.82v2.88h1.67V23h.86v4.17Z" style="fill:#231f20"/><path d="M632.34,22.13V18.19h.87v2.94h1.49V18.55h.82v2.58h2.53v1Z" style="fill:#231f20"/><path d="M699.76,48.28V49l1.68.24v.64l-1.68-.23v.88l1.68.24v.64l-1.68-.24V52h-.6v-.83l-1-.15v.75h-.6V50.9l-1.68-.23V50l1.68.24v-.89l-1.68-.23v-.65l1.68.24V48h.6v.77l1,.15v-.68Zm-1.64,2.06,1,.15V49.6l-1-.15Z" style="fill:#231f20"/><path d="M695.73,47.18V43.24h.86v2.94h1.5V43.6h.82v2.58h2.53v1Z" style="fill:#231f20"/><path d="M695.73,41.35V40.29l5.71-2.2v1.07l-1.51.53V42l1.51.54v1Zm3.44.35V40l-2.45.85v0Z" style="fill:#231f20"/><path d="M695.73,37.54V33.43h.86v3.11h1.5V33.66h.82v2.88h1.67V33.37h.86v4.17Z" style="fill:#231f20"/><path d="M695.73,31V29.91l5.71-2.2v1.07l-1.51.54V31.6l1.51.53v1Zm3.44.36V29.58l-2.45.86v0Z" style="fill:#231f20"/><path d="M695.73,27.17V23.05h.86v3.12h1.5V23.29h.82v2.88h1.67V23h.86v4.17Z" style="fill:#231f20"/><path d="M695.73,22.13V18h.86v3.12h1.5V18.25h.82v2.88h1.67V18h.86v4.17Z" style="fill:#231f20"/><path d="M699.76,135.66v.76l1.68.24v.64l-1.68-.23V138l1.68.24v.64l-1.68-.23v.75h-.6v-.84l-1-.14v.75h-.6v-.83l-1.68-.23v-.65l1.68.24v-.89l-1.68-.23v-.65l1.68.24v-.69h.6v.77l1,.14v-.68Zm-1.64,2.07,1,.14V137l-1-.14Z" style="fill:#231f20"/><path d="M695.73,134.57v-3.95h.86v2.95h1.5V131h.82v2.59h2.53v1Z" style="fill:#231f20"/><path d="M695.73,129.82v-3.94h.86v2.94h1.5v-2.58h.82v2.58h2.53v1Z" style="fill:#231f20"/><path d="M697.55,121.22a2.75,2.75,0,0,0-.46.18,1.28,1.28,0,0,0-.36.29,1.18,1.18,0,0,0-.23.41,1.55,1.55,0,0,0-.09.55,1.67,1.67,0,0,0,.18.79,1.62,1.62,0,0,0,.5.54,2,2,0,0,0,.7.3,3.25,3.25,0,0,0,1.6,0,2.09,2.09,0,0,0,.7-.3,1.59,1.59,0,0,0,.49-.54,1.67,1.67,0,0,0,.18-.79,1.51,1.51,0,0,0-.11-.59,1.43,1.43,0,0,0-.32-.44,1.47,1.47,0,0,0-.48-.29,2.14,2.14,0,0,0-.58-.14v-1a2.54,2.54,0,0,1,.93.22,2.25,2.25,0,0,1,.74.5,2.37,2.37,0,0,1,.47.76,2.59,2.59,0,0,1,.17,1,2.66,2.66,0,0,1-.24,1.15,2.58,2.58,0,0,1-.64.86,3.05,3.05,0,0,1-1,.54,3.71,3.71,0,0,1-1.16.18,3.6,3.6,0,0,1-1.15-.18,3,3,0,0,1-1-.54,2.91,2.91,0,0,1-.65-.86,2.66,2.66,0,0,1-.24-1.15,3,3,0,0,1,.14-.91,2.25,2.25,0,0,1,.38-.74,2.07,2.07,0,0,1,.61-.53,2.37,2.37,0,0,1,.83-.25Z" style="fill:#231f20"/><path d="M695.73,119.3v-3.94h.86v2.94h1.5v-2.58h.82v2.58h2.53v1Z" style="fill:#231f20"/><path d="M695.73,114.56v-2.37a2.62,2.62,0,0,1,.23-1.13,2,2,0,0,1,.61-.79,2.67,2.67,0,0,1,.91-.45,3.92,3.92,0,0,1,1.11-.15,4,4,0,0,1,1.11.15,2.67,2.67,0,0,1,.91.45,2.1,2.1,0,0,1,.61.79,2.62,2.62,0,0,1,.22,1.13v2.37Zm4.9-1v-1a2.41,2.41,0,0,0-.16-1A1.36,1.36,0,0,0,700,111a1.43,1.43,0,0,0-.65-.29,4,4,0,0,0-.8-.08,4.12,4.12,0,0,0-.81.08,1.44,1.44,0,0,0-.64.29,1.38,1.38,0,0,0-.44.58,2.61,2.61,0,0,0-.15,1v1Z" style="fill:#231f20"/><path d="M701.56,107.17a2.9,2.9,0,0,1-.12.79,1.93,1.93,0,0,1-.35.63,1.66,1.66,0,0,1-.56.41,1.73,1.73,0,0,1-.73.14,1.43,1.43,0,0,1-.89-.27,1.33,1.33,0,0,1-.48-.75h0a1.16,1.16,0,0,1-.44.59,1.28,1.28,0,0,1-.71.2,1.43,1.43,0,0,1-1.12-.45,2.23,2.23,0,0,1,0-2.58,1.43,1.43,0,0,1,1.12-.46,1.21,1.21,0,0,1,.71.21,1.12,1.12,0,0,1,.44.59h0a1.3,1.3,0,0,1,.48-.75,1.37,1.37,0,0,1,.89-.28,1.73,1.73,0,0,1,.73.15,1.66,1.66,0,0,1,.56.41,1.93,1.93,0,0,1,.35.63A2.84,2.84,0,0,1,701.56,107.17Zm-5.11,0a.91.91,0,0,0,.22.62.81.81,0,0,0,.64.26.75.75,0,0,0,.61-.25.94.94,0,0,0,.21-.63.92.92,0,0,0-.21-.63.75.75,0,0,0-.61-.25.8.8,0,0,0-.64.25A.91.91,0,0,0,696.45,107.17Zm4.38,0a1,1,0,0,0-.27-.76,1,1,0,0,0-.76-.31.94.94,0,0,0-.73.31,1.13,1.13,0,0,0-.26.76,1.15,1.15,0,0,0,.26.76.93.93,0,0,0,.73.3,1,1,0,0,0,.76-.3A1.06,1.06,0,0,0,700.83,107.17Z" style="fill:#231f20"/><path d="M699.76,223.28V224l1.68.24v.64l-1.68-.23v.88l1.68.24v.64l-1.68-.24V227h-.6v-.83l-1-.15v.75h-.6v-.83l-1.68-.23V225l1.68.24v-.89l-1.68-.23v-.65l1.68.24V223h.6v.77l1,.15v-.68Zm-1.64,2.06,1,.15v-.89l-1-.15Z" style="fill:#231f20"/><path d="M695.73,220.65v-1.06l5.71-2.2v1.07l-1.51.54v2.28l1.51.53v1Zm3.44.35v-1.74l-2.45.86v0Z" style="fill:#231f20"/><path d="M695.73,216.84V212.9h.86v2.94h1.5v-2.58h.82v2.58h2.53v1Z" style="fill:#231f20"/><path d="M695.73,212.1v-2.37a2.65,2.65,0,0,1,.23-1.13,2.08,2.08,0,0,1,.61-.79,2.67,2.67,0,0,1,.91-.45,3.92,3.92,0,0,1,1.11-.15,4,4,0,0,1,1.11.15,2.67,2.67,0,0,1,.91.45,2.18,2.18,0,0,1,.61.79,2.65,2.65,0,0,1,.22,1.13v2.37Zm4.9-1v-1a2.41,2.41,0,0,0-.16-1,1.36,1.36,0,0,0-.43-.58,1.54,1.54,0,0,0-.65-.29,4,4,0,0,0-.8-.08,4.12,4.12,0,0,0-.81.08,1.56,1.56,0,0,0-.64.29,1.38,1.38,0,0,0-.44.58,2.61,2.61,0,0,0-.15,1v1Z" style="fill:#231f20"/><path d="M697.55,202.47a1.7,1.7,0,0,0-.46.18,1.25,1.25,0,0,0-.36.28,1.22,1.22,0,0,0-.23.42,1.49,1.49,0,0,0-.09.54,1.5,1.5,0,0,0,.68,1.33,2.23,2.23,0,0,0,.7.31,3.25,3.25,0,0,0,1.6,0,2.33,2.33,0,0,0,.7-.31,1.59,1.59,0,0,0,.49-.54,1.62,1.62,0,0,0,.18-.79,1.55,1.55,0,0,0-.11-.59,1.43,1.43,0,0,0-.32-.44,1.66,1.66,0,0,0-.48-.29,2.14,2.14,0,0,0-.58-.13v-1a2.76,2.76,0,0,1,.93.22,2.44,2.44,0,0,1,.74.51,2.22,2.22,0,0,1,.47.75,2.81,2.81,0,0,1-.07,2.1,2.4,2.4,0,0,1-.64.86,2.7,2.7,0,0,1-1,.54,3.44,3.44,0,0,1-1.16.19,3.34,3.34,0,0,1-1.15-.19,2.61,2.61,0,0,1-1.85-2.55,2.93,2.93,0,0,1,.14-.9,2.41,2.41,0,0,1,.38-.75,2,2,0,0,1,1.44-.77Z" style="fill:#231f20"/><path d="M695.73,200.55v-3.94h.86v2.94h1.5V197h.82v2.58h2.53v1Z" style="fill:#231f20"/><path d="M695.73,194.19a1.58,1.58,0,0,1,.28-1,1.91,1.91,0,0,1,.7-.59,3.22,3.22,0,0,1,.94-.29,6.83,6.83,0,0,1,1-.08,7.07,7.07,0,0,1,1,.08,3.22,3.22,0,0,1,.94.29,2,2,0,0,1,.7.59,1.86,1.86,0,0,1,0,2,2,2,0,0,1-.7.59,3.22,3.22,0,0,1-.94.29,7.07,7.07,0,0,1-1,.08,6.83,6.83,0,0,1-1-.08,3.22,3.22,0,0,1-.94-.29,1.91,1.91,0,0,1-.7-.59A1.58,1.58,0,0,1,695.73,194.19Zm5.07,0a.73.73,0,0,0-.18-.5,1.2,1.2,0,0,0-.46-.31,3.07,3.07,0,0,0-.68-.17,7.51,7.51,0,0,0-.84,0,7,7,0,0,0-.82,0,3.17,3.17,0,0,0-.69.17,1.24,1.24,0,0,0-.47.31.78.78,0,0,0-.17.5.76.76,0,0,0,.17.5,1.24,1.24,0,0,0,.47.31,3.17,3.17,0,0,0,.69.17,7,7,0,0,0,.82,0,7.51,7.51,0,0,0,.84,0,3.07,3.07,0,0,0,.68-.17,1.2,1.2,0,0,0,.46-.31A.71.71,0,0,0,700.8,194.19Z" style="fill:#231f20"/><path d="M507.76,46.28V47l1.68.24v.64l-1.68-.23v.88l1.68.24v.64l-1.68-.24V50h-.6v-.83l-1-.15v.75h-.6V48.9l-1.68-.23V48l1.68.24v-.89l-1.68-.23v-.65l1.68.24V46h.6v.77l1,.15v-.68Zm-1.64,2.06,1,.15V47.6l-1-.15Z" style="fill:#fff"/><path d="M505.55,41.33a2.09,2.09,0,0,0-.46.17,1.28,1.28,0,0,0-.36.29,1.18,1.18,0,0,0-.23.41,1.55,1.55,0,0,0-.09.55,1.65,1.65,0,0,0,.18.79,1.62,1.62,0,0,0,.5.54,2,2,0,0,0,.7.3,3,3,0,0,0,1.6,0,2.09,2.09,0,0,0,.7-.3,1.59,1.59,0,0,0,.49-.54,1.65,1.65,0,0,0,.18-.79,1.55,1.55,0,0,0-.11-.59,1.43,1.43,0,0,0-.32-.44,1.47,1.47,0,0,0-.48-.29,2.14,2.14,0,0,0-.58-.14v-1a2.54,2.54,0,0,1,.93.22,2.25,2.25,0,0,1,.74.5,2.37,2.37,0,0,1,.47.76,2.81,2.81,0,0,1-.07,2.1,2.49,2.49,0,0,1-.64.86,3.05,3.05,0,0,1-.95.54,3.71,3.71,0,0,1-1.16.19,3.6,3.6,0,0,1-1.15-.19,3,3,0,0,1-1-.54,2.79,2.79,0,0,1-.65-.86,2.66,2.66,0,0,1-.24-1.15,3,3,0,0,1,.14-.91,2.25,2.25,0,0,1,.38-.74,2.07,2.07,0,0,1,.61-.53,2.17,2.17,0,0,1,.83-.24Z" style="fill:#fff"/><path d="M503.73,37.88V36.81l5.71-2.2v1.08l-1.51.53V38.5l1.51.54v1Zm3.44.35V36.49l-2.45.85v0Z" style="fill:#fff"/><path d="M508,33.39a.85.85,0,0,0,.55-.24.82.82,0,0,0,.22-.58.83.83,0,0,0-.2-.58,1.23,1.23,0,0,0-.49-.34,2.46,2.46,0,0,0-.62-.17l-.61-.07,0,0a1.2,1.2,0,0,1,.5.5,1.55,1.55,0,0,1,.17.71,1.85,1.85,0,0,1-.13.72,1.71,1.71,0,0,1-.39.56,1.73,1.73,0,0,1-.59.36,2.36,2.36,0,0,1-.78.13,2.27,2.27,0,0,1-.75-.13,1.75,1.75,0,0,1-.61-.38,1.62,1.62,0,0,1-.4-.61,2.09,2.09,0,0,1-.15-.81,1.92,1.92,0,0,1,.23-1,1.62,1.62,0,0,1,.62-.6,2.91,2.91,0,0,1,.93-.31,7,7,0,0,1,1.15-.09,5,5,0,0,1,1,.11,2.87,2.87,0,0,1,.94.36,1.93,1.93,0,0,1,.68.65,1.74,1.74,0,0,1,.27,1,1.79,1.79,0,0,1-.43,1.16,1.47,1.47,0,0,1-.48.37,1.42,1.42,0,0,1-.62.16Zm-3.54-.87a1,1,0,0,0,.09.43.91.91,0,0,0,.25.3,1.27,1.27,0,0,0,.37.18,1.64,1.64,0,0,0,.88,0,1.16,1.16,0,0,0,.37-.18.94.94,0,0,0,.26-.3.85.85,0,0,0,.1-.43,1.06,1.06,0,0,0-.09-.45,1,1,0,0,0-.26-.32,1.21,1.21,0,0,0-.38-.18,1.42,1.42,0,0,0-.88,0,1.11,1.11,0,0,0-.36.18,1,1,0,0,0-.25.32A.93.93,0,0,0,504.49,32.52Z" style="fill:#fff"/><path d="M509.56,28a2.77,2.77,0,0,1-.12.78,1.75,1.75,0,0,1-.35.63,1.43,1.43,0,0,1-.56.41,1.73,1.73,0,0,1-.73.15,1.43,1.43,0,0,1-.89-.27,1.36,1.36,0,0,1-.48-.75h0a1.2,1.2,0,0,1-.44.59,1.28,1.28,0,0,1-.71.2,1.43,1.43,0,0,1-1.12-.45,1.87,1.87,0,0,1-.41-1.29,1.89,1.89,0,0,1,.41-1.3,1.43,1.43,0,0,1,1.12-.45,1.21,1.21,0,0,1,.71.21,1.13,1.13,0,0,1,.44.58h0a1.3,1.3,0,0,1,.48-.74,1.37,1.37,0,0,1,.89-.28,1.73,1.73,0,0,1,.73.15,1.54,1.54,0,0,1,.56.41,1.84,1.84,0,0,1,.35.63A2.79,2.79,0,0,1,509.56,28Zm-5.11,0a.91.91,0,0,0,.22.62.81.81,0,0,0,.64.26.78.78,0,0,0,.61-.25,1.07,1.07,0,0,0,0-1.27.78.78,0,0,0-.61-.24.8.8,0,0,0-.64.25A.91.91,0,0,0,504.45,28Zm4.38,0a1,1,0,0,0-.27-.76.94.94,0,0,0-.76-.31.9.9,0,0,0-.73.31,1.13,1.13,0,0,0-.26.76,1.17,1.17,0,0,0,.26.76.93.93,0,0,0,.73.3,1,1,0,0,0,.76-.3A1.08,1.08,0,0,0,508.83,28Z" style="fill:#fff"/><path d="M506.16,24a1.71,1.71,0,0,0,0-.45,1.26,1.26,0,0,0-.14-.4.81.81,0,0,0-.27-.28.78.78,0,0,0-.44-.11.72.72,0,0,0-.57.24.88.88,0,0,0-.22.63.76.76,0,0,0,.1.41.83.83,0,0,0,.26.3,1.14,1.14,0,0,0,.37.17,1.42,1.42,0,0,0,.42.05v.91a2.28,2.28,0,0,1-.76-.15,2,2,0,0,1-.6-.37,1.47,1.47,0,0,1-.4-.58,1.81,1.81,0,0,1-.15-.76,2,2,0,0,1,.1-.64,1.89,1.89,0,0,1,.28-.57,1.31,1.31,0,0,1,.47-.4,1.33,1.33,0,0,1,.65-.15A1.38,1.38,0,0,1,506,22a1.14,1.14,0,0,1,.46.6h0a1.21,1.21,0,0,1,.48-.75,1.7,1.7,0,0,1,1.64-.11,1.6,1.6,0,0,1,.53.43,2,2,0,0,1,.35.64,2.63,2.63,0,0,1,.12.76,2.26,2.26,0,0,1-.15.85A1.68,1.68,0,0,1,509,25a1.83,1.83,0,0,1-.62.37,2.48,2.48,0,0,1-.8.13v-.91a1.29,1.29,0,0,0,.86-.25,1,1,0,0,0,.34-.8,1.18,1.18,0,0,0-.26-.77,1.06,1.06,0,0,0-1.26-.18.89.89,0,0,0-.3.34,1.64,1.64,0,0,0-.12.46,4.87,4.87,0,0,0,0,.54Z" style="fill:#fff"/><path d="M504.77,20.91a3.43,3.43,0,0,0,0-.56,1.49,1.49,0,0,0-.16-.49,1.34,1.34,0,0,0-.28-.38.94.94,0,0,0-.44-.2v-.75h5.6v1h-3.95v1.38Z" style="fill:#fff"/><text transform="translate(483.37 639.96)" style="font-size:8px;fill:#333;font-family:HelveticaNeue-Medium, Helvetica Neue">0BRAND MARK</text><rect x="0.32" y="313" width="63.42" height="263.36" style="fill:#ffcd34"/><path d="M50.2,365.36v.76l1.68.24V367l-1.68-.23v.88l1.68.24v.64l-1.68-.23v.75h-.6v-.84l-1-.14v.75H48V368l-1.68-.23v-.65l1.68.24v-.89l-1.68-.23v-.65l1.68.24v-.69h.6v.77l1,.14v-.68Zm-1.64,2.07,1,.14v-.89l-1-.14Z" style="fill:#fff"/><path d="M46.17,364.27v-3.95H47v2.95h1.49v-2.59h.82v2.59h2.53v1Z" style="fill:#fff"/><path d="M51.88,356v3.82a2.2,2.2,0,0,1-1.21-.34,3,3,0,0,1-.91-.89c-.13-.18-.26-.37-.38-.57a3.83,3.83,0,0,0-.41-.54,2,2,0,0,0-.47-.41,1.1,1.1,0,0,0-.58-.17,1.22,1.22,0,0,0-.32,0,.83.83,0,0,0-.32.14.8.8,0,0,0-.25.29,1.06,1.06,0,0,0-.1.47.89.89,0,0,0,.11.46.84.84,0,0,0,.3.29,1.62,1.62,0,0,0,.44.16,3.12,3.12,0,0,0,.55.05v.92a2.67,2.67,0,0,1-.86-.13,1.79,1.79,0,0,1-1.13-1,2.18,2.18,0,0,1,0-1.69,1.58,1.58,0,0,1,.42-.55,1.6,1.6,0,0,1,.56-.3,2,2,0,0,1,.57-.09,1.66,1.66,0,0,1,.61.1,2.22,2.22,0,0,1,.5.28,3.16,3.16,0,0,1,.42.4,5.32,5.32,0,0,1,.36.47l.32.48c.1.16.2.3.3.44a2.91,2.91,0,0,0,.32.36.83.83,0,0,0,.35.2V356Z" style="fill:#fff"/><path d="M46.17,355.08V351H47v3.12h1.49V351.2h.82v2.88H51v-3.17h.86v4.17Z" style="fill:#fff"/><path d="M46.17,350v-4.12H47V349h1.49v-2.88h.82V349H51v-3.17h.86V350Z" style="fill:#fff"/><path d="M46.17,345v-4.12H47V344h1.49v-2.88h.82V344H51v-3.17h.86V345Z" style="fill:#fff"/><path d="M46.28,340.28v-3.83H47a9.51,9.51,0,0,0,1,.8,7.77,7.77,0,0,0,1.13.63,8.51,8.51,0,0,0,1.26.44,8.79,8.79,0,0,0,1.42.22v1a6.54,6.54,0,0,1-1.31-.23,7.79,7.79,0,0,1-1.25-.46,8.38,8.38,0,0,1-1.17-.66,9.43,9.43,0,0,1-1-.81v2.9Z" style="fill:#fff"/></svg>