<svg xmlns="http://www.w3.org/2000/svg" viewBox="0 0 714.05 696.47"><defs><style>.cls-1{fill:#def0ef;}.cls-2{fill:#ade9e8;}.cls-3{fill:#ffcfd8;}.cls-4{fill:#faeaee;}.cls-5{fill:#afdcf0;}.cls-6{fill:#f8f3e9;}.cls-14,.cls-7{font-size:48px;}.cls-14,.cls-24,.cls-29,.cls-7{fill:#333;}.cls-7{font-family:Heritage, Heritage;}.cls-8{letter-spacing:0em;}.cls-9{letter-spacing:0.01em;}.cls-10{letter-spacing:0.01em;}.cls-11{letter-spacing:-0.01em;}.cls-12{letter-spacing:0em;}.cls-13{letter-spacing:0em;}.cls-14{font-family:Montebello-Rounded, Montebello;}.cls-15{letter-spacing:-0.02em;}.cls-16{letter-spacing:-0.01em;}.cls-17{letter-spacing:0em;}.cls-18{fill:#ca9831;}.cls-19{fill:#e2f2e8;}.cls-20{fill:none;}.cls-21{fill:#cb9932;}.cls-22,.cls-33{fill:#fff;}.cls-23{fill:#ffcd34;}.cls-24{font-size:18px;font-family:Roboto-Light, Roboto;}.cls-24,.cls-27{letter-spacing:0.03em;}.cls-25{letter-spacing:0.02em;}.cls-26{letter-spacing:0.02em;}.cls-28{letter-spacing:0.03em;}.cls-29,.cls-31,.cls-33{font-size:8px;font-family:HelveticaNeue-Medium, Helvetica Neue;}.cls-30{letter-spacing:-0.09em;}.cls-31{fill:#231f20;}.cls-32{letter-spacing:-0.06em;}</style></defs><title>nk_typography_colors2</title><g id="Layer_3" data-name="Layer 3"><rect class="cls-1" x="587.09" width="63.42" height="263.36"/><rect class="cls-2" x="523.32" width="63.42" height="263.36"/><rect class="cls-3" x="650.86" y="87.79" width="63.18" height="87.79"/><rect class="cls-4" x="650.86" width="63.18" height="87.79"/><rect class="cls-5" x="650.86" y="175.58" width="63.18" height="87.79"/><polygon class="cls-6" points="0 263.36 0 696.36 438.37 696.36 438.37 633.36 438.37 363.36 438.37 263.36 0 263.36"/><text class="cls-7" transform="translate(103.43 501.46)"><tspan class="cls-8">H</tspan><tspan class="cls-9" x="33.84" y="0">e</tspan><tspan x="46.7" y="0">a</tspan><tspan class="cls-10" x="63.26" y="0">d</tspan><tspan class="cls-11" x="80.11" y="0">i</tspan><tspan class="cls-12" x="87.5" y="0">n</tspan><tspan class="cls-13" x="103.72" y="0">g 2</tspan></text><text class="cls-14" transform="translate(103.25 399.52)">H<tspan class="cls-15" x="21.36" y="0">e</tspan><tspan class="cls-16" x="37.92" y="0">a</tspan><tspan class="cls-17" x="60.91" y="0">ding 1</tspan></text><polyline class="cls-18" points="0.37 0 523.37 0 523.37 313.36 0.37 313.36"/><path class="cls-19" d="M350.74,177.38c-5.87-6.75-6.63,4.53-14.92,7.9-7.7,3.13-11.41,8.78-28.1,13.17-5.74,1.51-22,21.07-28.09,16.68-2.64-14.92-4.39-28.09,2.63-41.26,4.86-9.11,6.15-31.61,14.05-40.39C303,126,307.4,126.9,306,121.19c-1.76-7-9.66-8.78-20.2-17.56C269.07,89.71,232,85.12,221.68,87.82c-11.34,3-27,7.12-42,14.38-3-.89-10.18-6.22-11.55-7.37-5-4.2-12.38-4-18.66-2.25-3.63,1-14.76,7-17.18,7.74-1.85.57-6.43.74-8.28,1.3-5.76,1.76-7.47,9.39-6.89,15.53-16.4-8-33.35-17-43.82-17-14,0-33.36,16.68-34.24,23.7-1.06,8.45,2.56,23.12,8.07,29.61.84,1,9.48,6.16,13.14,7.08,22.89,5.75,69.62,3.77,69.62,3.77,2.82,2.59,6.73,5.57,10.91,8.72-6.88,1.7-22.16,5.7-23.53,6.87-1.11,1-6.73,12.76-5.64,17.06.71,2.76,8,10.63,10.15,11.65,3,1.36,6.34,1.18,9.58,1,6.09-.39,9.54-.78,15.62-1.17,8.07-.52,17.88-1.85,25.54-4.95,19.5,19.7,50,41.9,72.85,47.25,27.2.75,57.59-8,82.55-18.87,8.13-3.53,9.49-12.3,14.92-19.31C349.7,203.65,358.09,185.83,350.74,177.38Z"/><path class="cls-18" d="M351.68,176.45c-3.71-3.93-6.49-2.28-9.44,1.44-2.06,2.61-4,4.79-7.09,6.25a68.27,68.27,0,0,0-6.77,3.69c-2.53,1.58-5,3.17-7.7,4.5-4.31,2.16-8.83,3.21-13.31,4.85-4.1,1.5-7.47,5-10.74,7.75-2.47,2.11-4.93,4.24-7.59,6.11-1.51,1.07-5.43,4.22-7.5,3.41S279.2,204,279,201.69a57.43,57.43,0,0,1,.31-15.16c1.35-7.71,5.63-14.43,7.58-22,1.82-7.07,3.1-14.3,5.58-21.18a27.17,27.17,0,0,1,5.34-9.51c2.48-2.7,6-4.4,8.34-7.15,2.8-3.29.91-8-1.65-10.9a34,34,0,0,0-7-5.4c-4.08-2.68-7.94-5.51-11.8-8.5a63.75,63.75,0,0,0-17.32-9,112.85,112.85,0,0,0-39.8-7c-5.93.11-11.45,1.84-17.14,3.44A213.56,213.56,0,0,0,185,98.32c-2.65,1.14-4.85,2.93-7.57,1.38-1.51-.86-3-1.83-4.38-2.82-2.57-1.79-5-4.1-7.86-5.33-7.09-3-15-1-21.64,2-3.32,1.53-6.54,3.25-9.88,4.72s-6.73,1-10.05,2c-6.9,2.11-8.3,10.62-7.86,16.8l2-1.14c-10-4.89-20-10.2-30.48-14.05-7.47-2.75-14.69-4.24-22.4-1.62a55.1,55.1,0,0,0-19.65,12.32c-4.24,4-7.65,8.17-7.7,14.19a48.83,48.83,0,0,0,6.12,23.87c3,5.21,8.61,8.09,14,10.28,6.32,2.54,13.84,3,20.56,3.62,8.25.77,16.55,1.1,24.83,1.24Q114,166,125,165.75c1.26,0,3.41-.55,4.59-.14.7.24,1.73,1.63,2.56,2.31,2.62,2.15,5.33,4.18,8,6.21l.31-2.4c-5.16,1.28-10.31,2.62-15.42,4.08-2.64.76-6.8,1.3-8.86,3.31-2.27,2.22-3.52,6.67-4.52,9.59-1.11,3.26-2.29,7-.55,10.22a33.63,33.63,0,0,0,8.38,9.63c4.2,3.33,10,2.46,15,2.1,7-.52,14.07-.87,21-1.79a89,89,0,0,0,9.15-1.63c1.65-.39,3.3-.83,4.92-1.35,2.12-.69,2.7-.84,4.33.75,18.41,18,41,35.68,65.73,43.78,6.09,2,12,1.73,18.33,1.28a168.27,168.27,0,0,0,21.54-3,239,239,0,0,0,43.35-13.35c6.15-2.51,10.86-4.91,14.4-10.75,1.65-2.73,3-5.65,4.63-8.37s3.79-5.24,5.49-8c5.31-8.66,11.61-22.56,4.32-31.79-1.05-1.33-2.91.54-1.87,1.86,4.4,5.56,2.17,13.67-.19,19.62-2.5,6.31-6.53,11.29-10,17-3.6,5.89-5.74,12.53-12.34,15.76-7.51,3.67-15.73,6.38-23.67,9-16,5.17-32.57,8.91-49.37,9.64-3.75.17-7.5.38-11.16-.57A70.47,70.47,0,0,1,232.71,245a144.24,144.24,0,0,1-19-10.18,228.23,228.23,0,0,1-40.28-32.3,1.29,1.29,0,0,0-1.28-.34c-10.79,4.16-22.26,4.62-33.65,5.54-5.2.42-12.64,2.17-17.17-1a29.92,29.92,0,0,1-7.59-8.46c-1.89-3.19-.27-7.05.95-10.27.88-2.32,1.93-5.94,4.06-7.39,2.63-1.8,7.15-2.3,10.19-3.13,4-1.12,8.11-2.17,12.19-3.18a1.34,1.34,0,0,0,.32-2.41c-2.52-1.9-5.05-3.8-7.5-5.8-1-.85-2.46-2.62-3.73-3.05a6.33,6.33,0,0,0-2,0c-4.06.1-8.13.22-12.2.25a336.88,336.88,0,0,1-42.14-1.74c-6.7-.78-13.22-1.71-19.22-4.92-2.14-1.14-4.89-2.36-6.63-4.11-2.92-2.94-4.49-7.82-5.64-11.66-1.86-6.18-4.16-14.87-.28-20.66,4-6,10.38-10.7,16.56-14.15,8.48-4.73,16.17-5.46,25.36-2.43,11.24,3.71,21.78,9.52,32.4,14.69a1.33,1.33,0,0,0,2-1.14c-.27-3.72,0-7.9,2-11.13,2.68-4.13,7.18-3.25,11.35-4.23,4.87-1.15,9.45-4.3,14-6.34,7.37-3.32,15.58-4.09,22.28,1,3,2.28,8.31,7.41,12.25,6.87,1.87-.26,4.27-2,6-2.74,2.86-1.23,5.77-2.36,8.7-3.42,4.28-1.55,8.62-3,13-4.24,6.14-1.82,12.55-4.18,19-4.48,12.66-.6,25.93,2,37.89,6,6.55,2.17,13.08,5,18.63,9.13,3.33,2.5,6.51,5.1,10,7.4,3,2,6.32,3.74,8.75,6.37,1.93,2.08,3.73,5.53,1.48,8-2.51,2.71-5.94,4.43-8.42,7.27-3.79,4.33-5.65,10.07-7.18,15.52-1.91,6.84-3.07,13.91-5.27,20.67-2.27,6.94-5.8,12.75-6.62,20.21a63.07,63.07,0,0,0,0,12.74c.38,4.1.54,9.13,1.87,13,1.23,3.57,5.54,2.36,8.25,1,5.42-2.69,9.95-7.21,14.53-11.07,2-1.71,4.18-3.77,6.67-4.81,3.66-1.53,7.65-2.25,11.33-3.85,5.67-2.46,10.51-6.26,16-8.95a21,21,0,0,0,7.36-5.16c2.16-2.48,4-7.16,7.41-3.58C351,179.55,352.84,177.68,351.68,176.45Z"/><path class="cls-4" d="M346.22,174.5c-.36-.74-.74-1.46-1.14-2.17,0-.17-3.16-11.73-6.48-16.49a27.13,27.13,0,0,0-13.37-10.38,1.34,1.34,0,0,0-1.49,1.94c2.56,3.77,5.87,7.16,7.73,11.33-.32-.18-.63-.38-1-.55-1.26-.66-2.78,1-1.59,2.07a23.36,23.36,0,0,1,7.48,11.41c.35,1.23.66,2.4,1,3.53a43.38,43.38,0,0,0-6.14-3.17c-1.07-.45-2.09,1-1.49,1.93.72,1.08,5.15,9.6,2.45,9.89-.83.09-3.43-2.43-4.1-2.91-4.16-3-8.37-6-13-8.25a1.33,1.33,0,0,0-1.8,1.8c1.49,2.53,3.82,4.22,5.41,6.63,2.74,4.14,1.31,7.75-2.59,9.68a14.76,14.76,0,0,0-9.24-10.58,1.32,1.32,0,0,0-1.62,1.62c.84,2.24,1.82,4.43,2.6,6.69a11.7,11.7,0,0,1,.87,3.77,6.64,6.64,0,0,0-.07,2.07c-1.15-.8-3.3-3.08-4.16-3.33a1.33,1.33,0,0,0-1.62.92c-.18,1.3.23,3.52.14,5.25-2-2.46-5.06-4.44-7.39-6.08-.89-.62-1.91.23-2,1.14a13.33,13.33,0,0,0,1.18,5.65,11.11,11.11,0,0,1,1.1,4c-.08,1.45-1.11,3.11-2,4.51-2.13-1.19-3.9-3.24-6.15-4a1.34,1.34,0,0,0-1.62.92c-.58,1.88.39,4.38.69,6.52-1.88.41-3.27,2.05-4.7,3.45a10.58,10.58,0,0,0,0-3.42c-.28-1.72-1.17-2,.28-4,.44-.59,1.11-.56,1.5-1.29.62-1.2.1-2.19-.6-3.22-1.06-1.53-2.48-2.11-.45-3.4,1.12-.72,3.89-.36,5.11-.07a1.32,1.32,0,0,0,1.66-1.27c.08-2.08-1.6-3.44-3.42-4.57a15,15,0,0,1,3-.25,1.33,1.33,0,0,0,1.13-2c-1.42-2.68-3.93-4.57-5.78-6.93,3.61.31,7.56,3,10.34,4.68a1.33,1.33,0,0,0,1.8-1.8,103.47,103.47,0,0,0-7.91-11.3c.82.08,1.64.14,2.49.15a1.34,1.34,0,0,0,1.14-2,31.74,31.74,0,0,0-4.13-6.51c-2.34-3.11.76-3.64,3.19-2,3,2,5.23,5,8.27,7,.89.59,2.37-.41,1.93-1.48a115.81,115.81,0,0,0-5.11-11.22c4.12,2,9,4.09,12.62,1.6a1.34,1.34,0,0,0,.26-2.07c-4.12-4-7.06-8.92-11.46-12.42,5.31.9,9,6.07,13.47,9.39,1,.71,2.2-.47,1.93-1.49a63.34,63.34,0,0,0-4.54-12.91c2.39,1.9,4.62,4.27,6.64,6.12a1.33,1.33,0,0,0,2.2-1.28,47.88,47.88,0,0,0-1.85-6,30.86,30.86,0,0,0,7.61,2.42c1.28.16,1.53-1.48.93-2.25-4.8-6.15-10.24-12.43-17.61-15.48-.62-.26-15.26,15.25-14.63,16l-9.66,33.37s-5.27,16.68-5.27,21.07c0,3.51.88,16.68,2.3,18.73-.66.67,2.8,3.51,3.6,2.83,1.31-1.1,3.25-3.84,5.17-3.6l5.84-4c.52.21,10.89-9.26,10.89-9.26l10.41-3.57s20.68-9.56,21.37-11.28C336.87,184.39,346.94,176,346.22,174.5Z"/><path class="cls-5" d="M137.08,125.93c-20.9-7.38-49-25.81-63.92-25.81-14,0-33.36,16.68-34.24,23.7-1.06,8.45,2.56,23.12,8.07,29.61.84,1,9.48,6.16,13.14,7.08,22.89,5.75,46,4.93,69.56,4.06"/><path class="cls-18" d="M137.43,124.66c-16-5.75-30.59-14.68-46.28-21.14-5.62-2.32-11.8-4.73-18-4.72-6.75,0-13.36,3.18-18.93,6.75-5.24,3.37-10.39,7.54-14,12.64-3.25,4.53-3.06,9.35-2.32,14.75,1,6.9,3,15.17,7.58,20.67,3,3.66,8.89,6.33,13.31,7.84,10.4,3.58,22.5,4.29,33.41,4.79,12.5.57,25,.11,37.52-.35,1.69-.06,1.7-2.7,0-2.63-19.51.71-39.23,1.47-58.57-1.8-7.37-1.25-13.7-3-20.1-6.86-5.66-3.43-7.85-10-9.42-16.21-1.37-5.46-3.07-12.81.18-17.88s8.67-9.4,13.78-12.68c5.4-3.47,11.81-6.61,18.39-6.38,5.85.21,11.72,2.61,17,4.84,15.48,6.46,29.93,15.22,45.73,20.91,1.6.58,2.29-2,.7-2.54Z"/><path class="cls-2" d="M142.92,172.87c-6.62,1.63-24.39,5.8-25.79,7-1.11,1-6.74,12.76-5.64,17.06.71,2.76,8,10.63,10.15,11.65,3,1.36,6.34,1.18,9.58,1,6.09-.39,9.54-.78,15.62-1.17,8.6-.55,18.29-1.15,26.14-4.71"/><path class="cls-18" d="M142.57,171.6c-4.95,1.22-9.91,2.39-14.85,3.66-3.27.84-7.93,1.34-10.81,3.21-2.16,1.42-3.19,4.67-4.14,6.94-1.43,3.44-3.63,8.29-2.47,12.1s5.08,7.44,7.84,10c3.76,3.47,8.09,3.66,13.08,3.37,13.88-.81,29.47-.53,42.43-6.06,1.55-.66.21-2.93-1.33-2.27-11.34,4.83-24.5,4.45-36.6,5.38-5.33.41-11.44,1.63-15.71-2.28-2.57-2.35-6.66-6-7.3-9.53s1.94-8.67,3.42-11.81c1.31-2.78,1.79-3.53,4.69-4.42,7.37-2.27,15-3.9,22.45-5.74,1.64-.4.95-2.94-.7-2.54Z"/><path class="cls-1" d="M350.6,177.38c-5.87-6.75-6.63,4.53-14.92,7.9-7.7,3.13-11.42,8.78-28.1,13.17-5.74,1.51-21.95,21.07-28.09,16.68-2.64-14.92-4.39-28.09,2.63-41.26,4.86-9.11,6.15-31.61,14.05-40.39,6.7-7.44,11.09-6.58,9.66-12.29-1.76-7-9.66-8.78-20.2-17.56-16.7-13.92-53.81-18.51-64.09-15.81-15.49,4.08-39,10.26-57.95,23.71-6.62,4.71-30.94,15.57-31.6,20.19-.88,6.15-7.3,18.62-6.6,26.6.56,6.44,26.79,20.81,35.57,32.23,16.59,21.57,56.19,53.56,84.27,60.13,27.2.75,57.59-8,82.55-18.87,8.13-3.53,9.49-12.3,14.92-19.31C349.56,203.65,358,185.83,350.6,177.38Z"/><path class="cls-18" d="M351.54,176.45c-2.45-2.6-5-3.35-7.7-.67-1.63,1.63-2.79,3.68-4.43,5.32-2.13,2.11-4.64,3-7.21,4.37-4,2.12-7.62,4.84-11.66,6.86-5.25,2.63-11.67,3.24-16.5,6.5-3.75,2.53-7.05,5.74-10.53,8.62-1.87,1.55-9.49,8.72-12.44,6.93-1.82-1.09-1.94-9.89-2.15-12a65,65,0,0,1-.25-12.08c.62-7.4,4-13.2,6.36-20,3.88-11.15,3.93-25.08,11.17-34.82,2.16-2.9,5.06-5,7.89-7.21a8.05,8.05,0,0,0,3-3.49c1.31-3.69-1.42-7.92-4-10.29-5-4.5-11.24-7.68-16.52-11.83a60,60,0,0,0-13.95-8.15,117.53,117.53,0,0,0-34.77-8.35A65.27,65.27,0,0,0,224.22,86c-4.7.55-9.36,2.17-13.89,3.46-14.29,4.06-28.47,9.13-41.23,16.85-4.65,2.82-9,5.94-13.82,8.55-4.94,2.69-9.95,5.27-14.79,8.15-3,1.75-7,3.75-9,6.68-.89,1.3-1,2.72-1.38,4.23-.85,3.2-2.07,6.3-3.12,9.43-1.51,4.5-4.28,11.21-2.74,16.06,1,3.15,4.31,5.67,6.72,7.69,9,7.54,19.42,13.61,27.33,22.35,3.75,4.14,7.07,8.61,10.95,12.66C174,207,178.88,211.63,184,216a221.74,221.74,0,0,0,33.8,24.35,128.16,128.16,0,0,0,17,8.34,78.55,78.55,0,0,0,8.14,2.73c3.37.91,6.93.62,10.4.49,16.25-.62,32.36-4,47.86-8.84q12-3.72,23.56-8.59c5.91-2.47,9.72-5.29,12.93-10.9s6.88-10.84,10.14-16.39,5.9-11.55,6.71-17.86c.61-4.68,0-9.15-3-12.92-1.05-1.33-2.91.54-1.87,1.86,4.14,5.23,2.35,12.75.25,18.46-2.26,6.15-5.8,11.24-9.46,16.59-3.47,5.1-5.34,11.74-10.41,15.58-3.14,2.37-7.19,3.57-10.82,5s-7.57,2.9-11.4,4.22c-15,5.15-30.49,9.07-46.27,10.59-6.95.67-14.19,1.42-20.93-.73a103.09,103.09,0,0,1-17.14-7.48,201.87,201.87,0,0,1-59.17-47.9c-6.8-8.19-14.63-14.48-23.12-20.88-4-3-8.21-6-11.75-9.6-4-4.1-2.75-8.57-1.24-13.8.82-2.85,1.83-5.64,2.79-8.44.85-2.48,1.22-5.5,2.26-7.86,1.36-3.1,5.78-5.11,8.56-6.76,8.47-5,17.25-9.32,25.49-14.73,12.28-8,26.13-13.35,40.14-17.51,9.14-2.71,17.44-5.09,27-4.51a118.2,118.2,0,0,1,33.6,7,60.1,60.1,0,0,1,15.37,8c5.18,3.89,10.57,7.42,15.77,11.24,2.12,1.56,4.19,3.34,5.1,5.89,1.18,3.31-.58,4.58-3,6.43-4.1,3.13-7.57,6.55-9.79,11.26-4.73,10-5.38,21.35-9.18,31.69-2.19,6-5.09,11-6,17.49-.94,6.78-.36,13.61.62,20.35.56,3.8-.07,9.31,5,9.17,3.43-.1,6.78-2.63,9.4-4.57,3.78-2.81,7.25-6,10.89-9,4.25-3.48,8.33-4.32,13.44-6.23a73,73,0,0,0,13.23-6.76c3.35-2.11,7.37-3.54,10.49-5.9a26.78,26.78,0,0,0,4.58-4.87c1.81-2.29,3.07-4.24,5.7-1.45C350.84,179.55,352.7,177.68,351.54,176.45Z"/><path class="cls-5" d="M261.65,165.89c6.42,2.71,8.18-9.58,9.15-15.72,1-6.34-.44-9.41-6.43-10.86-2.41-.59-5,.38-7.17,1.58-2.87,1.59-3.88,4.57-4.85,7.7C251.48,151.42,256.07,163.54,261.65,165.89Z"/><path class="cls-18" d="M261.3,167.16c6.82,2.29,9-6.88,9.93-11.7,1.23-6.22,2.88-13.85-4.35-16.75-7.41-3-15.63,2.95-15.95,10.81-.24,6,4.69,14.83,10.05,17.51,1.51.75,2.85-1.52,1.33-2.28-4.25-2.12-6.81-7.52-8.09-11.88-1.91-6.49,3.58-14.28,10.94-12,6.25,2,4.58,8.36,3.63,13.38-.62,3.23-1.89,12-6.79,10.35C260.39,164.08,259.7,166.62,261.3,167.16Z"/><path class="cls-2" d="M197.64,130.92c-2.36-1.68,4.59-18.51-.72-23.1-11-9.48-28.57-5.83-39.47,3.71-14,12.29-5.27,27.22-.12,31,4,3,18,4.83,22.95,5.89"/><path class="cls-18" d="M198.57,130c-1.37-1.41,1.12-9.24,1.35-11.06.42-3.2.86-7-.61-10-1.71-3.51-6.36-5.58-9.88-6.7a30.14,30.14,0,0,0-15.06-.52c-9.76,2-20.62,8.32-24.47,17.93-2.94,7.37-.8,16.12,4.45,21.92,5.92,6.55,17.51,6.47,25.58,8.15,1.65.34,2.36-2.2.7-2.54-8-1.68-20-1.5-25.39-8.65-8.07-10.8-2.69-23,7.92-29.53a34.63,34.63,0,0,1,18.27-5.36c5,.05,14.26,1.87,15.89,7.51,1.22,4.22-.29,9.28-1,13.47-.34,2.09-1.36,5.51.35,7.27,1.18,1.22,3-.64,1.86-1.86Z"/><path class="cls-3" d="M213.64,138.75c-6.19-4.33-10.54-3.51-17.32-8.25-6.5-4.54-14.95,3.2-17.44,7.09-3,4.67.62,10.2,1.68,10.52,4.34,1.31,9,3.14,11.14,7.14,2.46,4.59.69,6.75,1.55,11.89a15.27,15.27,0,0,0,9.64,11.57C198.27,171.73,222.42,144.89,213.64,138.75Z"/><path class="cls-18" d="M214.3,137.61c-4.23-2.79-9-3.78-13.5-6-3.64-1.79-6.17-4.32-10.47-3.67-6.2,1-14.35,7.55-13.9,14.37.16,2.28,1.24,5.52,3.31,6.83,1.75,1.11,4.15,1.35,6,2.36,3.3,1.8,5.69,4.51,6,8.43.35,4.42-.28,8.32,2,12.42a17.27,17.27,0,0,0,8.84,7.62c1.12.46,2-1,1.49-1.94-1.63-2.85,1.23-7.74,2.44-10.26,2-4.16,4.3-8.17,6.33-12.31,2.24-4.56,7.11-13.47,1.77-17.65-1.32-1-3.2.81-1.86,1.86,5.41,4.25-3.76,17.55-5.93,21.7-2.32,4.42-8,12.76-5,18l1.48-1.93a14.09,14.09,0,0,1-8.66-10.61c-.54-3.12.25-6.35-.58-9.42a12.57,12.57,0,0,0-4.7-6.77c-2.4-1.79-6.4-2.15-8.51-4-6.72-6,4.76-15.77,10.59-16.11,3.75-.21,7.26,3.18,10.72,4.55,3.76,1.49,7.46,2.58,10.87,4.83C214.39,140.82,215.71,138.54,214.3,137.61Z"/><path class="cls-2" d="M309.19,48.42a8.42,8.42,0,0,0-7.13-.32c-3.53,1.37-8,6-8.22,9.84s.79,7.53,1,11.32c.5,8.87-2.35,17.43-4.7,26-1.56,5.67-7.07,15.42-9.29,22.39a11.28,11.28,0,0,0,.15,7.85c1.25,2.4,8.26,2.53,9.75-2.9,1.41-5.14,6.29-26.71,9.13-40.67,1.2-5.9,4.89-9.59,7.24-14.16C311.42,59.43,313.2,50.78,309.19,48.42Z"/><path class="cls-18" d="M309.85,47.28c-5.23-2.44-10.45-.25-14.08,3.9-5.39,6.16-2.12,13.2-2.19,20.57-.08,8.73-2.68,18.36-5.85,26.48-2.63,6.74-7.11,13.33-8.51,20.5-.66,3.35-.56,8.13,3.28,9.36a7.71,7.71,0,0,0,9.19-4.18c1.94-4.34,2.51-9.8,3.56-14.4q2.43-10.67,4.7-21.38c1-4.64,1.78-9,4.27-13.11a84.38,84.38,0,0,0,5.58-9.84c2.15-5,5.53-13.83.05-17.9-1.36-1-2.68,1.28-1.33,2.28,3.37,2.49,1,8.92-.09,12a56.68,56.68,0,0,1-5.79,11c-3.65,5.8-4.62,12-6,18.6s-2.9,13.28-4.42,19.9c-.82,3.55-1.35,11.82-4.77,14s-5.79.07-5.85-3.38c-.07-3.91,2.1-7.92,3.65-11.38,2.66-5.93,5.34-11.61,7.1-17.87,2.25-8.07,4.55-16.3,3.71-24.76-.42-4.26-2-9,.38-13s7.38-7.32,12.11-5.11C310.05,50.27,311.39,48,309.85,47.28Z"/><path class="cls-18" d="M267.09,145.62c-.4-1.7-2.09-4.68-6.81-3.64a4.76,4.76,0,0,0-3.49,2.71,5.7,5.7,0,0,0-.33,4c1.11,3.08,5.73,5,8.61,2.5A5.84,5.84,0,0,0,267.09,145.62Z"/><path class="cls-18" d="M306,55.17c-.28-.85-1.37-3.06-3.74-2s-5.09,5.08-5.49,7.51a3.68,3.68,0,0,0,.62,2.59,5.81,5.81,0,0,0,6.83.56C306.08,62.55,306.73,57.26,306,55.17Z"/><path class="cls-18" d="M158,111.94c-1.29-1.08-3.16.77-1.86,1.86,7.56,6.3,16.25,12.1,22.37,19.92-8.82-4-17.73-7.81-26.69-11.51-1.56-.65-2.24,1.9-.7,2.54,9.42,3.89,18.79,7.89,28,12.14a1.44,1.44,0,0,0,2-1.33,1.15,1.15,0,0,0,.64-1.81C175.47,125,166.18,118.78,158,111.94Z"/><path class="cls-18" d="M185.26,130a1.13,1.13,0,0,0,.4-1.32c-2.65-8.36-4.81-16.86-6.85-25.39-.39-1.65-2.93-1-2.54.7,1.87,7.82,3.86,15.6,6.21,23.28-6.06-6.5-10.31-14.51-16-21.32-1.09-1.3-2.94.57-1.86,1.86,6.68,8,11.35,17.65,19.34,24.56,1.27,1.1,3.15-.75,1.86-1.87Z"/><path class="cls-18" d="M186.37,104.07q-.1,13.17-.19,26.33a1.32,1.32,0,0,0,2.63,0q.1-13.16.19-26.33A1.32,1.32,0,0,0,186.37,104.07Z"/><path class="cls-18" d="M194.58,107.61a103.72,103.72,0,0,1-4.33,20.63c-.52,1.62,2,2.31,2.54.7a107.81,107.81,0,0,0,4.42-21.33C197.4,105.92,194.76,105.94,194.58,107.61Z"/><path class="cls-18" d="M178,137.52A152,152,0,0,0,151.71,131c-1.65-.29-2.37,2.25-.7,2.54a152,152,0,0,1,26.27,6.54C178.87,140.65,179.56,138.1,178,137.52Z"/><path class="cls-18" d="M176.34,140.75c-6.44-.4-12.89,0-19.32-.4-1.69-.11-1.69,2.52,0,2.63,6.43.4,12.88,0,19.32.4C178,143.49,178,140.86,176.34,140.75Z"/><path class="cls-18" d="M168.25,103.66c-4.45-1.92-6.93-7.92-8.7-12.06-.66-1.56-2.93-.22-2.27,1.33,1.94,4.54,4.76,10.89,9.64,13C168.46,106.6,169.8,104.33,168.25,103.66Z"/><path class="cls-18" d="M150.53,92.93a1.32,1.32,0,0,0-2.54.7c1.88,6.52,6.39,11.05,10.73,16,1.12,1.28,3-.59,1.87-1.86C156.56,103.18,152.27,99,150.53,92.93Z"/><path class="cls-18" d="M140.4,97.55c-1.22-1.17-3.09.69-1.86,1.86,5.2,5,9.67,10.62,14.87,15.58,1.23,1.17,3.09-.69,1.86-1.87C150.07,108.16,145.61,102.51,140.4,97.55Z"/><path class="cls-18" d="M143.71,110.26a66.74,66.74,0,0,0-10.81-10.1c-1.34-1-2.66,1.26-1.33,2.28a63.8,63.8,0,0,1,10.7,10.2,54.79,54.79,0,0,0,6,6.86c1.27,1.11,3.14-.74,1.86-1.86A62.15,62.15,0,0,1,143.71,110.26Z"/><path class="cls-18" d="M123.53,101.71c-1-1.37-3.26-.06-2.27,1.33,6,8.4,14.17,13.81,21.79,20.56,1.26,1.12,3.13-.73,1.86-1.86C137.48,115.15,129.4,109.91,123.53,101.71Z"/><path class="cls-18" d="M140.27,123.11c-6.1-2.36-11.55-6.43-16.79-10.27-1.41-1-4.29-4.25-6.24-2.74-1.34,1,.51,1.66.81,2a14.54,14.54,0,0,0,2.27,1.66c1.88,1.38,3.76,2.77,5.68,4.11a65,65,0,0,0,13.57,7.77C141.16,126.26,141.84,123.71,140.27,123.11Z"/><path class="cls-18" d="M117.36,111.59c-.24-.06-.27.08,0,0Z"/><path class="cls-18" d="M114.63,187.6l31.07-4.4c1.67-.23,1-2.77-.7-2.54l-31.07,4.4C112.26,185.3,113,187.84,114.63,187.6Z"/><path class="cls-18" d="M151.75,190.92c-12.45,1.11-27.76.25-37.64,9.23-1.26,1.14.61,3,1.86,1.86,9.25-8.4,24.14-7.42,35.78-8.45C153.42,193.41,153.44,190.77,151.75,190.92Z"/><path class="cls-18" d="M156.22,198.94c-9.42,1.56-20.21,1.15-26.92,9.12-1.09,1.28.77,3.16,1.86,1.86,6.35-7.53,16.86-7,25.76-8.44C158.59,201.2,157.88,198.66,156.22,198.94Z"/><path class="cls-18" d="M61.63,103.89c14.59,8.23,29.3,15.86,45.58,20.18a1.32,1.32,0,0,0,.7-2.54c-16.06-4.27-30.56-11.8-44.95-19.92A1.32,1.32,0,0,0,61.63,103.89Z"/><path class="cls-18" d="M116.93,131.69A252.22,252.22,0,0,1,51,108.79c-1.5-.78-2.84,1.49-1.33,2.27a254.33,254.33,0,0,0,66.57,23.17C117.88,134.56,118.59,132,116.93,131.69Z"/><path class="cls-18" d="M115.17,138.58a193.34,193.34,0,0,1-72.92-20.5c-1.51-.76-2.84,1.51-1.33,2.27a196.57,196.57,0,0,0,74.25,20.86C116.86,141.34,116.85,138.7,115.17,138.58Z"/><path class="cls-18" d="M94.58,150.65c-17.82-2.59-35.23-7.31-53.06-9.89-1.66-.25-2.37,2.29-.7,2.53,17.83,2.59,35.24,7.31,53.06,9.9C95.54,153.43,96.26,150.89,94.58,150.65Z"/><path class="cls-18" d="M85.8,156.79c-12.67-1.7-25.31-3.77-38.1-4.43-1.69-.09-1.69,2.54,0,2.63,12.55.66,25,2.67,37.4,4.34C86.76,159.56,87.48,157,85.8,156.79Z"/><path class="cls-18" d="M100.52,142.69c-21.09,0-40.18-11.25-61.24-11.7a1.32,1.32,0,0,0,0,2.63c21,.46,40.12,11.67,61.24,11.7A1.32,1.32,0,0,0,100.52,142.69Z"/><path class="cls-18" d="M241.64,231.71c-10.06-7-22.18-13-28.36-24.06-2.7-4.86-2.94-10.69-4.58-15.93-1.54-4.89-1.91-10.23-5.17-14.34-1.06-1.33-2.91.55-1.87,1.86,2.32,2.92,2.6,6.52,3.51,10,.73,2.81,1.67,5.49,2.3,8.33,1.21,5.5,2.4,10.24,5.78,14.85,6.94,9.48,17.6,15,27.06,21.59C241.71,235,243,232.67,241.64,231.71Z"/><path class="cls-18" d="M285,146.86a71.39,71.39,0,0,0-10.87-17.35c-4.81-5.5-10-6-17-7.3-8.29-1.48-13.95-5.29-19.44-11.5-3.6-4.08-6.95-8.48-12.14-10.55-1.57-.63-2.26,1.91-.7,2.54,5.31,2.12,8.7,7.45,12.44,11.5,4.13,4.46,8.83,8,14.78,9.62,6.91,1.86,14.26,1.14,19.46,6.72a66.5,66.5,0,0,1,11.21,17.65C283.44,149.73,285.71,148.4,285,146.86Z"/><path class="cls-18" d="M247.5,107.37c2.74,1.48,6.51,1.76,9.5,2.57a44.09,44.09,0,0,1,12.37,5.48c1.44.92,2.76-1.36,1.33-2.27a47.82,47.82,0,0,0-14.21-6.07c-2.29-.58-5.88-.82-7.88-2.09-.74-.47-3.83-3.74-3.18-4.63,1-1.37-1.28-2.68-2.27-1.33C241.29,101.56,245.39,106.23,247.5,107.37Z"/><path class="cls-18" d="M280.35,238.24c-6.65,2.55-19.38,6.33-25.35.86-4.55-4.18-5.74-9.43-8-14.83-1.53-3.63-3.8-6.49-7.63-7.72-1.62-.52-2.31,2-.7,2.54,6.47,2.08,6.51,10.11,9.39,15.19,1.94,3.44,4.68,7.42,8.49,8.89,7.33,2.83,17.51.3,24.52-2.39C282.62,240.18,281.94,237.64,280.35,238.24Z"/><path class="cls-18" d="M217.47,227c-4.39-1.95-6.65-5.91-9.32-9.68a57,57,0,0,0-7-8A107.84,107.84,0,0,0,183,194.88c-1.45-.89-2.78,1.39-1.33,2.27A103.43,103.43,0,0,1,201,212.88c5.14,5.2,8.22,13.31,15.18,16.4C217.68,230,219,227.7,217.47,227Z"/><path class="cls-2" d="M211.11,47.38a3.07,3.07,0,0,0-1.61-.85c-9.55-2.83-13.61-3.61-23.19-.85-6,1.72-11.68,5.4-17.86,4.73a2.87,2.87,0,0,0-1.57.1c-1.46.75-.28,3.05-.78,4.61a32.88,32.88,0,0,1,1.48,8.05A15.23,15.23,0,0,0,169,68.46c.76,1,5.07-2.35,6.21-2.93,5.57-2.8,12.21-2.32,18.28-.93s13.25,3,14.63,2.38c1.83-.86,2.41-3.14,2.65-5.15q.73-6.15.85-12.34A3.17,3.17,0,0,0,211.11,47.38Z"/><path class="cls-2" d="M450.63,146.94c-1.47-2.54-14.23-4.5-19.74-3.63-4.76.75-21.93,5.73-26.67-.2-1.34,2.66-3.25,12.09-3,15.58s2,7.85,5.49,8.05c1.83.11,4.34-1.47,6-2.13a35.65,35.65,0,0,1,27.05.71c3.1,1.39,6.11,3.26,9.49,3.55C450.34,162.64,452.29,149.79,450.63,146.94Z"/><path class="cls-2" d="M392.11,239.37c-7.72-2.29-16.41,1.08-23.93-1.79-3.84-1.47-7.22-4.52-11.34-4.62a43,43,0,0,1,.22,5.36c-.8,7.28-4.33,10.65-5.85,17.8,3.3.24,6.65-1,9.9-.33a21.12,21.12,0,0,1,5.78,2.6,50.69,50.69,0,0,0,21.36,6.11,2.48,2.48,0,0,0,1.64-.29c.82-.6.64-1.83.49-2.83-1-6.69,2.7-13.18,3.14-19.93A3.62,3.62,0,0,0,392.11,239.37Z"/><path class="cls-2" d="M384.38,57.27A5.13,5.13,0,0,0,382,55.74c-7.74-2.93-16.39-2.87-24.05-6-2.5-1-4.88-2.39-7.52-2.94s-5.71-.13-7.46,1.93a36.87,36.87,0,0,1,.84,4.9c-1,6-6.33,8.23-7.72,14.19,3.16-.17,12-.93,15.89-.11,2.73.58,4.78,2.84,7.2,4.24,4.11,2.39,14.47,5,16.94,3.35.75-.5,7.16-9.13,8.47-13.4C385,60.36,385.34,58.55,384.38,57.27Z"/><path class="cls-2" d="M77.64,252.11c-4.47-1.69-8.94-3.79-13.72-3.84,0,0-7.63,10.5-11.68,15.88a2.88,2.88,0,0,0-.81,2.09,2,2,0,0,0,2.11,1.43,9.69,9.69,0,0,0,2.67-.67c3.8-1.18,7.94-.11,11.54,1.57s6.91,4,10.6,5.45a26.52,26.52,0,0,0,11.45,1.85,3.61,3.61,0,0,0,1.94-.54c.42-.33,6.57-12.34,9.19-18A85.84,85.84,0,0,1,77.64,252.11Z"/><path class="cls-18" d="M173.62,55.94c-.05-.46-.11-.91-.19-1.37l.09,0c1.36.58,2.55-1.42,1.17-2a8.56,8.56,0,0,0-1.85-.55l0-.11a1.17,1.17,0,0,0-2.28.22,4.23,4.23,0,0,0-1.22.61,3.35,3.35,0,0,0-.95,4.38c.71,1.17,1.91,1.21,3.11,1.12a19.94,19.94,0,0,1-.12,2.44,5.63,5.63,0,0,1-.69-.12,1.16,1.16,0,0,0-.62,2.23A9,9,0,0,0,171,63c-.06.27-.11.53-.18.79a1.16,1.16,0,0,0,2.24.62c.12-.47.22-.94.31-1.41a4.7,4.7,0,0,0,2.59-1.29,3.23,3.23,0,0,0,.12-4.31A3.5,3.5,0,0,0,173.62,55.94Zm-3.37-.71a1.15,1.15,0,0,1,.78-.82c.11.54.2,1.07.27,1.6C170.68,56.08,170.07,56,170.25,55.23Zm3.43,5.32c.07-.73.1-1.45.1-2.17a1.14,1.14,0,0,1,.65.82A1.07,1.07,0,0,1,173.68,60.55Z"/><path class="cls-18" d="M202.91,47.87c.08-.17.15-.33.23-.49.71-1.31-1.29-2.49-2-1.17a10.81,10.81,0,0,0-.51,1.09c-1.85-.07-3.43.93-3.55,3.67a3.85,3.85,0,0,0,2,3.92,25,25,0,0,1-.62,3.28,12.49,12.49,0,0,1-1.95-1.49c-1.1-1-2.74.63-1.64,1.64a14.41,14.41,0,0,0,2.8,2.07,9.72,9.72,0,0,1-1.1,1.78c-.92,1.16.71,2.81,1.64,1.64a11.55,11.55,0,0,0,1.54-2.66,4.31,4.31,0,0,0,5.06-5.07c-.32-2-1.71-2.58-3.41-3a23.49,23.49,0,0,1,.68-3.21,7.28,7.28,0,0,1,2,1.8c.91,1.18,2.54-.47,1.64-1.64A7.55,7.55,0,0,0,202.91,47.87Zm-3,2c-.16.76-.29,1.52-.39,2.3A2.07,2.07,0,0,1,199.87,49.88ZM202.29,58a1.87,1.87,0,0,1-1.77.94c.27-1.13.44-2.3.6-3.47C202.3,55.73,203.36,56.3,202.29,58Z"/><path class="cls-18" d="M374.16,62.79l-.05-.06a31,31,0,0,1,2.58-2.42,7,7,0,0,1,.49,1.85c.21,1.47,2.45.85,2.24-.62a8.08,8.08,0,0,0-.83-2.64c.43-.27.86-.53,1.32-.77,1.32-.7.15-2.7-1.17-2A17.11,17.11,0,0,0,377,57.17a4.31,4.31,0,0,0-2.15-.61c-2.38-.07-5.24,1.11-4.77,3.91a4.94,4.94,0,0,0,1,2.14c-1,1.07-2,2.14-3,3.14a3.15,3.15,0,0,1-1.06-2c-.12-1.48-2.44-1.49-2.32,0a6.13,6.13,0,0,0,1.68,3.42A18.47,18.47,0,0,1,363.76,69c-1.32.71-.15,2.71,1.17,2a19.16,19.16,0,0,0,3.25-2.25c2.28,1.5,5.12,1.82,6.62-.88A5,5,0,0,0,374.16,62.79Zm-1.25-3.08a2.05,2.05,0,0,1,2-.85q-1.12,1-2.16,2.1A1.35,1.35,0,0,1,372.91,59.71ZM370.07,67c.82-.82,1.62-1.68,2.41-2.53a3.28,3.28,0,0,1,.37,1C373.17,67.35,371.64,67.59,370.07,67Z"/><path class="cls-18" d="M352.84,50l-.59.86a3.12,3.12,0,0,0-.87-.4c-1.95-.54-3.63,1.07-4,2.89a3.72,3.72,0,0,0,.86,3.32L346.67,59c-.17-.17-.33-.33-.45-.47-1-1.11-2.64.54-1.64,1.64.23.26.49.52.76.77-.46.67-.92,1.33-1.37,2-.85,1.24,1.16,2.4,2,1.17l1.25-1.82a4.06,4.06,0,0,0,3.28.28,3.85,3.85,0,0,0,2.42-3.62,2.88,2.88,0,0,0-1.54-2.73l1.15-1.67.29.47c.83,1.24,2.84.08,2-1.17-.29-.42-.59-.88-.91-1.32l.92-1.35C355.69,49.93,353.68,48.77,352.84,50Zm-1.95,2.84-1.12,1.63C349.58,53.55,350,52.53,350.89,52.83Zm-.47,6.85a1.34,1.34,0,0,1-1.87.65l1.56-2.28A1.11,1.11,0,0,1,350.42,59.68Z"/><path class="cls-18" d="M411.18,152.82c0-.5.05-1,.07-1.49.84,1.15,2.78,0,2-1.22a4.61,4.61,0,0,0-1.91-1.62v-.23A1.17,1.17,0,0,0,409,148a4.78,4.78,0,0,0-.76.08,3.44,3.44,0,0,0-2.56,4.72,3.59,3.59,0,0,0,2.15,1.89,4.81,4.81,0,0,0,.92.17c-.07.9-.16,1.8-.26,2.7l-.89-.4c-1.35-.62-2.53,1.37-1.18,2,.55.25,1.15.51,1.77.73-.08.57-.15,1.14-.25,1.7-.24,1.46,2,2.09,2.24.62.1-.61.18-1.21.26-1.82a4.42,4.42,0,0,0,2.15-.37,3.84,3.84,0,0,0,1.81-4.58A4.41,4.41,0,0,0,411.18,152.82Zm-3.17-.66a1.13,1.13,0,0,1,.38-1.73,1.7,1.7,0,0,1,.56-.13c0,.74,0,1.49-.07,2.23A1.33,1.33,0,0,1,408,152.16Zm3.69,5.69a1.64,1.64,0,0,1-.94.26c.11-1,.21-1.94.29-2.92a2.61,2.61,0,0,1,.57.3A1.44,1.44,0,0,1,411.7,157.85Z"/><path class="cls-18" d="M445.13,148.17a9.45,9.45,0,0,0-2.56-1.09l.12-.4c.45-1.42-1.79-2-2.23-.61l-.2.6a7.53,7.53,0,0,0-3.36.44,4,4,0,0,0-2.19,5.27,3.74,3.74,0,0,0,2.88,2.24c-.32.91-.64,1.82-1,2.73a21.25,21.25,0,0,1-3.24-1.87c-1.25-.82-2.42,1.19-1.17,2a22.59,22.59,0,0,0,3.62,2c-.13.34-.25.68-.38,1-.53,1.39,1.71,2,2.24.61l.36-1a6.94,6.94,0,0,0,3.88-.38c2.09-.86,3.81-3.21,2.75-5.5-.77-1.67-2.33-1.78-3.9-1.76.36-1.07.72-2.13,1.07-3.2a7.69,7.69,0,0,1,2.11.87C445.22,151,446.39,149,445.13,148.17Zm-8.41,3a1.75,1.75,0,0,1,1.37-2,5.36,5.36,0,0,1,1.42-.18c-.37,1.16-.76,2.31-1.16,3.46A1.6,1.6,0,0,1,436.72,151.18Zm3.54,3.64c.45,0,1.54-.2,1.94.05,1.84,1.18-1.09,2.82-1.88,3a4.77,4.77,0,0,1-1.45.09l1.11-3.12Z"/><path class="cls-18" d="M362.6,242.77c.06-.24.11-.47.17-.7a2.8,2.8,0,0,1,.59.07c1.46.32,2.08-1.92.62-2.24a6.6,6.6,0,0,0-.68-.09c.11-.47.23-.93.33-1.4.33-1.45-1.91-2.07-2.24-.61-.17.78-.37,1.56-.55,2.35a2.44,2.44,0,0,0-1.8,2.15,2.23,2.23,0,0,0,.86,1.81l-.48,1.83a9.73,9.73,0,0,1-1.06-.17c-1.46-.31-2.08,1.92-.62,2.24.36.08.73.14,1.09.19l-.44,1.7a1.16,1.16,0,0,0,2.23.62c.2-.73.38-1.46.57-2.19a13.49,13.49,0,0,0,2.95-.39,1.14,1.14,0,0,0,.81-.81,3.74,3.74,0,0,0-1.09-3.68A3.6,3.6,0,0,0,362.6,242.77Zm-.56,2.31a1.17,1.17,0,0,1,.69.77c-.31.05-.61.09-.92.12C361.88,245.67,362,245.38,362,245.08Z"/><path class="cls-18" d="M385.14,244.68c1.49.09,1.49-2.23,0-2.32-.67,0-1.48-.09-2.33-.1.09-.4.17-.79.24-1.18.26-1.46-2-2.09-2.24-.62-.11.63-.25,1.26-.41,1.89a7.36,7.36,0,0,0-3.84,1.25,3.89,3.89,0,0,0-.66,4.8,2.45,2.45,0,0,0,2,.83c-.59,1.35-1.2,2.68-1.8,4a9.67,9.67,0,0,1-2.45-1,1.16,1.16,0,0,0-1.17,2,11,11,0,0,0,2.7,1q-.58,1.31-1.11,2.58c-.56,1.38,1.68,2,2.24.62.37-.92.78-1.85,1.2-2.79,3.93.38,8.2-.7,8.42-4.89.14-2.53-2-3.77-4.23-4h-.32c.28-.75.54-1.5.78-2.24C383.26,244.53,384.32,244.63,385.14,244.68Zm-7.48,2.11a2.27,2.27,0,0,1,1.08-1.64,4.18,4.18,0,0,1,.92-.35c-.22.65-.46,1.31-.72,2Zm5,2.51c2.81,1.53-.49,3.37-1.37,3.71a8.16,8.16,0,0,1-2.58.51h-.23c.68-1.48,1.37-3,2-4.51A4,4,0,0,1,382.69,249.3Z"/><path class="cls-18" d="M90.07,257.07c-.35.35-.69.71-1,1.06a2.93,2.93,0,0,0-.43-.23c-2.14-.89-5.14-.34-6.4,1.76-1,1.68,0,3.39,1,4.82-.82,1-1.62,1.94-2.41,2.94a8,8,0,0,1-1-1.52c-.65-1.34-2.65-.17-2,1.17a8.55,8.55,0,0,0,1.54,2.21c-.07.09-.15.18-.22.28-.9,1.19,1.11,2.35,2,1.17l0,0a5.71,5.71,0,0,0,2.54.78c1.86.09,3.91-1.15,4.08-3.13a5.58,5.58,0,0,0-1.6-3.8c.9-1,1.83-2,2.77-3a5,5,0,0,1,.25,1.64,1.16,1.16,0,0,0,2.32,0,6.79,6.79,0,0,0-.84-3.41l1-1C92.77,257.67,91.13,256,90.07,257.07Zm-5.86,3.76c.28-.77,1.66-1.05,2.38-1a3.12,3.12,0,0,1,.71.1c-.86.91-1.7,1.84-2.52,2.77A2.11,2.11,0,0,1,84.21,260.83Zm.24,8.27a2.54,2.54,0,0,1-1.85-.22c.67-.85,1.36-1.7,2.06-2.53C85.4,267.38,86,268.65,84.45,269.1Z"/><path class="cls-18" d="M69.94,252.1l-.2.28c-1.57-1.7-4.19-2.08-5.49.9-.7,1.6.22,3.14,1,4.55-.68.77-1.37,1.62-2.1,2.42a8.17,8.17,0,0,1-.58-1.38,1.16,1.16,0,0,0-2.23.62,8.08,8.08,0,0,0,1.18,2.35c-.23.2-.46.39-.7.56-1.21.85-.06,2.86,1.17,2a12.21,12.21,0,0,0,1.07-.86c1.5,1.27,3.32,1.73,4.7-.26a5.07,5.07,0,0,0,.52-4.58c-.07-.18-.15-.36-.23-.54.41-.46.82-.94,1.23-1.42.63.41,1.54.31,1.66-.61a4.16,4.16,0,0,0,0-1.41c.36-.47.7-.95,1-1.45C72.74,252,70.74,250.84,69.94,252.1Zm-4.7,10.13a1.11,1.11,0,0,1-.62-.18c.56-.6,1.1-1.22,1.63-1.82C66.44,261.19,66.35,262.18,65.24,262.23Zm1.59-6.34c-.45-.91-.89-1.87.43-2.13a1.13,1.13,0,0,1,1.17.4c-.5.63-1,1.24-1.54,1.84Z"/><polygon class="cls-20" points="513.74 457.74 513.74 457.74 507.36 450.45 513.74 457.74"/><path class="cls-21" d="M687.59,457.3l-20.11,23a4.66,4.66,0,0,0,.23,6.36l19.88,19.78a104,104,0,0,0,0-49.11Z"/><polygon class="cls-22" points="659.72 457.81 679.46 435.25 679.46 435.25 659.72 457.81 659.72 457.81"/><path class="cls-21" d="M506,480.27l-19.68-22.49a104,104,0,0,0,0,48.19l19.46-19.34A4.66,4.66,0,0,0,506,480.27Z"/><polygon class="cls-22" points="514.22 507.38 494.46 527.02 514.22 507.38 514.22 507.38"/><polygon class="cls-22" points="507.36 450.45 494.41 435.64 494.41 435.65 507.36 450.45"/><path class="cls-23" d="M638.36,485.92a4.67,4.67,0,0,0,1.07,1.69l19.82,19.71h0l-19.82-19.7A4.67,4.67,0,0,1,638.36,485.92Z"/><path class="cls-23" d="M534.31,481.25a4.63,4.63,0,0,1,0,6.06,4.64,4.64,0,0,0,0-6.06l-20.58-23.51h0Z"/><path class="cls-23" d="M639.2,481.25a4.66,4.66,0,0,0-.84,4.67,4.63,4.63,0,0,1,.85-4.67l20.51-23.44h0Z"/><path class="cls-23" d="M514.21,507.37h0l19.88-19.77a3.31,3.31,0,0,0,.25-.3,3.31,3.31,0,0,1-.25.3Z"/><path class="cls-6" d="M587,378.36a103.5,103.5,0,0,0-92.62,57.28l12.95,14.81,6.38,7.29a76.88,76.88,0,0,1,89.07-51l0-27.12A104.32,104.32,0,0,0,587,378.36Z"/><path class="cls-6" d="M659.72,457.81l19.74-22.56a103.84,103.84,0,0,0-56-50.28l0,29.37A77.07,77.07,0,0,1,659.72,457.81Z"/><path class="cls-6" d="M514.21,507.38,494.46,527l-.39.38A103.9,103.9,0,0,0,551.13,579V550A77.17,77.17,0,0,1,514.21,507.38Z"/><path class="cls-6" d="M659.25,507.32a76.93,76.93,0,0,1-87.49,49.94v27A105.35,105.35,0,0,0,587,585.36a103.49,103.49,0,0,0,92.78-57.6Z"/><path class="cls-23" d="M623.35,414.29l.09,0h0Z"/><path class="cls-23" d="M638.36,485.92a4.66,4.66,0,0,1,.84-4.67l20.52-23.44a77.07,77.07,0,0,0-36.28-43.47l-.11,118.93a2.74,2.74,0,0,1-4.81,1.79l-34.6-40-12.16,47.56v14.64a76.93,76.93,0,0,0,87.49-49.94l-19.82-19.71A4.67,4.67,0,0,1,638.36,485.92Z"/><path class="cls-23" d="M555.94,431.16l34.21,39.56,12.65-49.47V406.7a76.88,76.88,0,0,0-89.07,51l20.58,23.51a4.64,4.64,0,0,1,0,6.06,3.31,3.31,0,0,1-.25.3l-19.88,19.77A77.17,77.17,0,0,0,551.13,550V433A2.74,2.74,0,0,1,555.94,431.16Z"/><path class="cls-21" d="M597.93,479.72a2.75,2.75,0,0,0,4.82-1.79l0-56.68-12.65,49.47Z"/><path class="cls-21" d="M571.76,488.36v54.26l12.16-47.56-7.34-8.5A2.75,2.75,0,0,0,571.76,488.36Z"/><polygon class="cls-22" points="571.76 557.26 571.76 557.26 571.76 557.26 571.76 557.26"/><polygon class="cls-22" points="602.81 406.7 602.81 406.7 602.81 406.7 602.81 406.7"/><text class="cls-24" transform="translate(103.37 576.86)">Nina helped me fall in l<tspan class="cls-25" x="188.39" y="0">o</tspan><tspan x="198.79" y="0">ve with </tspan><tspan x="0" y="21.6">myself all </tspan><tspan class="cls-25" x="84.32" y="21.6">o</tspan><tspan class="cls-26" x="94.72" y="21.6">ver again. Her soothing </tspan><tspan class="cls-25"><tspan x="0" y="43.2">v</tspan><tspan class="cls-27" x="8.98" y="43.2">oice is the pe</tspan><tspan class="cls-28" x="118.48" y="43.2">r</tspan><tspan class="cls-27" x="125.11" y="43.2">fect perscription.</tspan></tspan></text><text class="cls-29" transform="translate(106.37 421.96)">1—MONTEBELLO</text><text class="cls-29" transform="translate(103.37 522.96)">2—HERI<tspan class="cls-30" x="31.12" y="0">T</tspan><tspan x="35.13" y="0">AGE</tspan></text><text class="cls-29" transform="translate(103.37 643.96)">3—ROBOTO</text><text class="cls-31" transform="translate(574.67 51.46) rotate(-90)">#ADE9E8</text><text class="cls-31" transform="translate(638.05 52.24) rotate(-90)">#DEF0EF</text><text class="cls-31" transform="translate(701.44 52.24) rotate(-90)">#<tspan class="cls-32" x="4.45" y="0">F</tspan><tspan x="8.75" y="0">AEAEE</tspan></text><text class="cls-31" transform="translate(701.44 139.62) rotate(-90)">#FFCFD8</text><text class="cls-31" transform="translate(701.44 227.24) rotate(-90)">#AFDCF0</text><text class="cls-33" transform="translate(509.44 50.24) rotate(-90)">#CA9831</text><text class="cls-29" transform="translate(483.37 639.96)">0—BRAND MARK</text><rect class="cls-23" x="0.32" y="313" width="63.42" height="263.36"/><text class="cls-33" transform="translate(51.88 369.32) rotate(-90)">#F2EEE7</text></g></svg>