<?xml version="1.0" encoding="utf-8"?>
<!-- Generator: Adobe Illustrator 23.1.1, SVG Export Plug-In . SVG Version: 6.00 Build 0)  -->
<svg version="1.1" id="Layer_1" xmlns="http://www.w3.org/2000/svg" xmlns:xlink="http://www.w3.org/1999/xlink" x="0px" y="0px"
	 viewBox="0 0 800 800" style="enable-background:new 0 0 800 800;" xml:space="preserve">
<style type="text/css">
	.st0{fill:#F4F3F3;}
	.st1{opacity:0.75;}
	.st2{fill:#3FAAAC;}
	.st3{fill-rule:evenodd;clip-rule:evenodd;fill:#005573;}
	.st4{fill:#D4A446;}
	.st5{fill:#828282;}
	.st6{fill:#F2F2F2;}
	.st7{fill:#005573;}
	.st8{fill:#D5C52A;}
	.st9{fill:#B8AA22;}
	.st10{fill:#F5BE51;}
	.st11{fill:#333333;}
	.st12{fill:#4F4F4F;}
	.st13{fill:#F59493;}
</style>
<g>
	<rect class="st0" width="800" height="800"/>
</g>
<g>
	<g class="st1">
		<path class="st2" d="M307,310c0-29.3-47.7-53-106.5-53S94,280.7,94,310v221.1h0.1c0.5,8.3,3.9,15.8,9.1,22.4
			c5.6,7.2,13.6,13.4,23.2,18.6c19.2,10.3,45.4,16.6,74.2,16.6s55-6.3,74.2-16.6c9.6-5.2,17.6-11.4,23.2-18.6
			c5.2-6.6,8.5-14.2,9.1-22.4h0.1V310z"/>
	</g>
	<g>
		<path class="st3" d="M307,311.3c0-30-47.7-54.3-106.5-54.3S94,281.3,94,311.3v226.5h0.1c0.5,8.5,3.9,16.2,9.1,23
			c5.6,7.4,13.6,13.8,23.2,19c19.2,10.6,45.4,17,74.2,17s55-6.4,74.2-17c9.6-5.3,17.6-11.7,23.2-19c5.2-6.8,8.5-14.5,9.1-23h0.1
			V311.3z M299.5,384.4v-53.1c-15.6,20.1-54.1,34.3-99,34.3s-83.4-14.2-99-34.3v53.1c0,5.9,2.2,11.9,7,17.8
			c4.7,5.9,11.8,11.5,20.8,16.2c18,9.5,43.2,15.5,71.2,15.5s53.2-6,71.2-15.5c9-4.8,16.1-10.3,20.8-16.2
			C297.3,396.3,299.5,390.3,299.5,384.4z M299.5,406.6v50.9c0,5.9-2.2,11.9-7,17.8c-4.7,5.9-11.8,11.5-20.8,16.2
			c-18,9.5-43.2,15.5-71.2,15.5s-53.2-6-71.2-15.5c-9-4.8-16.1-10.3-20.8-16.2c-4.7-5.9-7-11.9-7-17.8v-50.9
			c0.5,0.8,1.1,1.5,1.7,2.3c5.7,7.1,13.6,13.2,23.2,18.2c19.2,10.1,45.4,16.3,74.1,16.3s55-6.1,74.1-16.3
			c9.6-5.1,17.6-11.2,23.2-18.2C298.4,408.1,299,407.4,299.5,406.6z M299.5,479.8c-0.5,0.8-1.1,1.5-1.7,2.3
			c-5.7,7.1-13.6,13.2-23.2,18.2c-19.2,10.1-45.4,16.3-74.1,16.3s-55-6.1-74.1-16.3c-9.6-5.1-17.6-11.2-23.2-18.2
			c-0.6-0.7-1.2-1.5-1.7-2.3v55.6c0,6.3,2.3,12.6,7,18.8c4.8,6.2,11.8,12,20.8,17c18,9.9,43.2,16.2,71.2,16.2s53.1-6.3,71.2-16.2
			c9-5,16.1-10.8,20.8-17c4.7-6.2,7-12.5,7-18.8V479.8z"/>
	</g>
	<g>
		<path class="st4" d="M433.7,625.5c-26.7-12.4,4.6-76.3,4.6-76.3l57.4-17.2l29.6,40.1c0,0-12.8,32.5-35.2,46.7l-0.1,0
			C472.9,629.9,460.3,637.9,433.7,625.5z"/>
	</g>
	<g>
		<path class="st5" d="M561.9,575.2c0,0,55.8-43.1,10.2-50.6c-45.6-7.5-54.9,0-54.9,0L561.9,575.2z"/>
	</g>
	<g>
		<path class="st6" d="M590.1,583.8l-27.2-30.2l-37.5,22.6l37.5,34L590.1,583.8z"/>
	</g>
	<g>
		<path class="st5" d="M606.3,604.9c0-10.3-5.5-16.9-21.9-24.4c-3.7,18.7-14.6,18.7-14.6,18.7s-14.6-20.6-24.7-15
			c-10.1,5.6-7.9,22.9-16.5,35.6c-9.9,14.7-27.4,20.6-27.4,36.5c0,15.9,30.2,18.7,47.5,13.1C566,663.9,593.5,632.1,606.3,604.9z"/>
	</g>
	<g>
		<path class="st7" d="M421.4,570.5l46.2-119.1L572.8,501l-83.5,83.5L421.4,570.5z"/>
	</g>
	<g>
		<path class="st7" d="M525.4,442.6l31.8,97.7c0,0,43.6,9.5,73,2.8c30.9-7.1,75.8-34.7,75.8-61.4c0-52.1-114.2-52.1-114.2-52.1
			L525.4,442.6z"/>
	</g>
	<g>
		<path class="st8" d="M652.1,389c-25.8-25.7-88.4-54.3-140.4-56.1c-45.5-1.5-87.4-1.5-120.9,34c-25.3,26.8-32.5,88.2-32.5,88.2
			l60.4,20.2l8.4-41.3l31.6,24.8l27-6.4l71.6-4.6l148.8,23C706,470.8,687.1,423.9,652.1,389z"/>
	</g>
	<g>
		<path class="st9" d="M441,453.8l-28.8-32.4c0,0,23.8,11.3,42.8,14.4c18.1,2.9,65.1,9,65.1,9l-38.1,7.2L441,453.8z"/>
	</g>
	<g>
		<path class="st4" d="M439.1,466.2c-0.9-41.2,100.1-7.3,100.1-7.3l14.8,73.2h-14.8l23.9,23.8l-29.4,22
			C533.7,577.9,440,507.3,439.1,466.2z"/>
	</g>
	<g>
		<path class="st10" d="M518,629.1c-10.2-16.7-4.7-154.1-4.7-154.1h36.3l-11.2,133.6l38.2,13c0,0,27,31.6,20.5,40.8
			c-6.5,9.3-58.7-24.1-58.7-24.1s7.4,16.7,0,24.1C531.1,669.9,528.3,645.8,518,629.1z"/>
	</g>
	<g>
		<path class="st10" d="M342.9,372.9l23.4,84.5l36.3,12.1c0,0,9.3-4.6-14.9,30.6c-24.2,35.3-54.5-20.4-58.7-34.3
			c-12.1-40.8-14-78-14-78C331.8,379.4,342.9,372.9,342.9,372.9z"/>
	</g>
	<g>
		<path class="st10" d="M315.1,374.3c0,0-26.8,1.2-39-16.2c0,0-16-16.4-11.3-32c1.5-5,3.8-10,16-11.7c7.5-15.7,25.5-6.6,27.3-2.9
			c17-8.2,21.7,9.1,21.7,9.1l13.1,52.3C336.4,385.2,315.1,374.3,315.1,374.3z"/>
	</g>
	<g>
		<path class="st4" d="M304.3,375.6c0,0-16-0.2-28.3-17.5c0,0-16-16.4-11.3-32c1.5-5,3.8-10,16-11.7c7.5-15.7,25.5-6.6,27.3-2.9
			c17-8.2,21.7,9.1,21.7,9.1l-13.2,41.5C305.6,368.9,304.3,375.6,304.3,375.6z"/>
	</g>
	<g>
		<path class="st10" d="M493.3,332.8c0,30.1,8.2,40.7-7.4,51.5c-20.5,5.7-37.7,0-56.1-22.5c-36.8,0-52.4-30.9-55.2-73.1
			c-3-45.9,25.8-73.1,74.5-65.6c26.7,4.1,47.8,26.8,53.5,54.4C507.3,300,496.9,321.6,493.3,332.8z"/>
	</g>
	<g>
		<path class="st11" d="M446.4,394.4c-20.4,0-32.9-24-36.8-38.2l5.2-1.5c0.1,0.4,11.7,40.5,37.7,33.4l1.4,5.2
			C451.2,394.1,448.8,394.4,446.4,394.4z"/>
	</g>
	<g>
		<path class="st10" d="M493.3,332.8c0,30.1,8.2,40.7-7.4,51.5c-20.5,5.7-37.7,0-56.1-22.5c-36.8,0-52.4-30.9-55.2-73.1
			c-3-45.9,25.8-73.1,74.5-65.6c26.7,4.1,47.8,26.8,53.5,54.4C507.3,300,496.9,321.6,493.3,332.8z"/>
	</g>
	<g>
		<path class="st11" d="M495.4,309.6c-5.4,0-13.7-7.7-14.6-8.6c-0.5-0.5-0.6-1.4-0.1-1.9c0.5-0.5,1.4-0.6,1.9-0.1
			c2.3,2.2,9.1,7.9,12.7,7.9c0.8,0,1.6-0.7,2.3-1.9c3.7-7,2.3-28.3-3.8-37.3c-1.9-2.8-4-4.1-6.3-3.8c-7.5,0.8-14.9,12.1-15,12.2
			c-0.4,0.6-1.2,0.8-1.9,0.4c-0.6-0.4-0.8-1.2-0.4-1.9c0.3-0.5,8.2-12.5,16.9-13.4c2.3-0.3,5.7,0.4,8.8,5c6.8,10.1,8.2,32.1,4,40.1
			C498.6,309,496.7,309.6,495.4,309.6z"/>
	</g>
	<g>
		<path class="st11" d="M168.4,473.6c0-1.1,0.1-2.1,0.4-3c0.3-0.9,0.6-1.7,1.1-2.3c0.5-0.6,1.1-1.1,1.8-1.5c0.7-0.4,1.5-0.5,2.4-0.5
			c0.8,0,1.5,0.1,2.1,0.4c0.6,0.3,1.1,0.6,1.6,1.1v-7.3h3.2v20.2H178l-0.2-1.4c-0.4,0.6-1,1-1.6,1.3c-0.6,0.3-1.4,0.4-2.2,0.4
			c-0.9,0-1.6-0.2-2.3-0.5c-0.7-0.4-1.3-0.9-1.8-1.5c-0.5-0.6-0.9-1.4-1.1-2.3c-0.3-0.9-0.4-1.8-0.4-2.9V473.6z M171.5,473.8
			c0,0.6,0.1,1.2,0.2,1.8c0.1,0.6,0.3,1.1,0.6,1.5c0.3,0.4,0.6,0.8,1,1c0.4,0.2,0.9,0.4,1.5,0.4c0.7,0,1.3-0.2,1.8-0.5
			c0.5-0.3,0.8-0.7,1.1-1.3v-6.2c-0.3-0.5-0.6-0.9-1.1-1.2c-0.5-0.3-1-0.5-1.7-0.5c-0.6,0-1.1,0.1-1.5,0.4c-0.4,0.2-0.8,0.6-1,1
			c-0.3,0.4-0.5,0.9-0.6,1.5c-0.1,0.6-0.2,1.2-0.2,1.8V473.8z M194.1,480.8c-0.1-0.2-0.2-0.4-0.2-0.6c-0.1-0.2-0.1-0.5-0.1-0.8
			c-0.2,0.2-0.5,0.4-0.8,0.6c-0.3,0.2-0.6,0.4-0.9,0.5c-0.3,0.1-0.7,0.3-1.1,0.4c-0.4,0.1-0.8,0.1-1.3,0.1c-0.8,0-1.4-0.1-2.1-0.3
			c-0.6-0.2-1.1-0.5-1.6-0.9c-0.4-0.4-0.8-0.8-1-1.4c-0.2-0.5-0.4-1.1-0.4-1.7c0-1.5,0.6-2.7,1.7-3.5c1.1-0.8,2.8-1.2,4.9-1.2h2.3
			v-0.9c0-0.8-0.3-1.4-0.8-1.8c-0.5-0.4-1.2-0.7-2.2-0.7c-0.4,0-0.8,0.1-1.1,0.2c-0.3,0.1-0.6,0.2-0.8,0.4c-0.2,0.2-0.4,0.4-0.5,0.6
			c-0.1,0.2-0.2,0.5-0.2,0.8H185c0-0.6,0.1-1.1,0.4-1.6c0.3-0.5,0.6-1,1.1-1.4c0.5-0.4,1.1-0.7,1.8-1c0.7-0.2,1.6-0.4,2.5-0.4
			c0.8,0,1.6,0.1,2.3,0.3c0.7,0.2,1.3,0.5,1.9,0.9c0.5,0.4,0.9,0.9,1.2,1.5c0.3,0.6,0.4,1.3,0.4,2.1v6.3c0,0.6,0,1.2,0.1,1.7
			c0.1,0.5,0.2,1,0.4,1.3v0.2H194.1z M190.3,478.5c0.4,0,0.8,0,1.1-0.1c0.4-0.1,0.7-0.2,1-0.4c0.3-0.2,0.5-0.4,0.7-0.6
			c0.2-0.2,0.4-0.4,0.5-0.6v-2.7h-2c-1.3,0-2.2,0.2-2.8,0.6c-0.6,0.4-0.9,1-0.9,1.8c0,0.3,0,0.6,0.1,0.8c0.1,0.2,0.2,0.5,0.4,0.6
			c0.2,0.2,0.5,0.3,0.8,0.4C189.5,478.5,189.9,478.5,190.3,478.5z M207.5,463.1v3.4h5.4v2.3h-5.4v6.8c0,0.5,0.1,1,0.2,1.3
			c0.1,0.4,0.3,0.6,0.5,0.8c0.2,0.2,0.5,0.4,0.8,0.4c0.3,0.1,0.6,0.1,1,0.1c0.3,0,0.6,0,0.8,0c0.3,0,0.6-0.1,0.9-0.1
			c0.3,0,0.5-0.1,0.8-0.1c0.2-0.1,0.4-0.1,0.6-0.1l0.4,2.2c-0.2,0.1-0.5,0.3-0.8,0.4c-0.3,0.1-0.7,0.2-1,0.3
			c-0.4,0.1-0.8,0.1-1.2,0.2c-0.4,0-0.8,0.1-1.2,0.1c-0.7,0-1.4-0.1-2-0.3c-0.6-0.2-1.1-0.5-1.5-0.9c-0.4-0.4-0.8-1-1-1.6
			c-0.2-0.7-0.4-1.4-0.4-2.4v-7h-3.5v-2.3h3.5v-3.4H207.5z M226.5,480.8c-0.1-0.2-0.2-0.4-0.2-0.6c-0.1-0.2-0.1-0.5-0.1-0.8
			c-0.2,0.2-0.5,0.4-0.8,0.6c-0.3,0.2-0.6,0.4-0.9,0.5c-0.3,0.1-0.7,0.3-1.1,0.4c-0.4,0.1-0.8,0.1-1.3,0.1c-0.8,0-1.4-0.1-2.1-0.3
			c-0.6-0.2-1.1-0.5-1.6-0.9c-0.4-0.4-0.8-0.8-1-1.4c-0.2-0.5-0.4-1.1-0.4-1.7c0-1.5,0.6-2.7,1.7-3.5c1.1-0.8,2.8-1.2,4.9-1.2h2.3
			v-0.9c0-0.8-0.3-1.4-0.8-1.8c-0.5-0.4-1.2-0.7-2.2-0.7c-0.4,0-0.8,0.1-1.1,0.2c-0.3,0.1-0.6,0.2-0.8,0.4c-0.2,0.2-0.4,0.4-0.5,0.6
			c-0.1,0.2-0.2,0.5-0.2,0.8h-3.1c0-0.6,0.1-1.1,0.4-1.6c0.3-0.5,0.6-1,1.1-1.4c0.5-0.4,1.1-0.7,1.8-1c0.7-0.2,1.6-0.4,2.5-0.4
			c0.8,0,1.6,0.1,2.3,0.3c0.7,0.2,1.3,0.5,1.9,0.9c0.5,0.4,0.9,0.9,1.2,1.5c0.3,0.6,0.4,1.3,0.4,2.1v6.3c0,0.6,0,1.2,0.1,1.7
			c0.1,0.5,0.2,1,0.4,1.3v0.2H226.5z M222.7,478.5c0.4,0,0.8,0,1.1-0.1c0.4-0.1,0.7-0.2,1-0.4c0.3-0.2,0.5-0.4,0.7-0.6
			c0.2-0.2,0.4-0.4,0.5-0.6v-2.7h-2c-1.3,0-2.2,0.2-2.8,0.6c-0.6,0.4-0.9,1-0.9,1.8c0,0.3,0,0.6,0.1,0.8c0.1,0.2,0.2,0.5,0.4,0.6
			c0.2,0.2,0.5,0.3,0.8,0.4C221.9,478.5,222.3,478.5,222.7,478.5z"/>
	</g>
	<g>
		<path class="st11" d="M163.8,391.5h11.4v2.6H171v13.9h4.1v2.6h-11.4v-2.6h4.1v-13.9h-4.1V391.5z"/>
	</g>
	<g>
		<path class="st8" d="M409.4,472.7l-43.1-13.5l2.9-2.7l40.3,9V472.7z"/>
	</g>
	<g>
		<path class="st8" d="M503.1,478.1l-4.7-80.9l62,26.7v54.2H503.1z"/>
	</g>
	<g>
		<path class="st11" d="M373.4,282.6l-10.2-2.8l0.7-2.6l10.2,2.8L373.4,282.6z M376.4,268.3l-9.2-11.1l2.1-1.7l9.2,11.1L376.4,268.3
			z M485,256.8l-2.5-0.9c2-5.5,5.4-9.5,8.4-13l1.1-1.3l2.1,1.7l-1.1,1.3C490.1,248,486.9,251.8,485,256.8z M474,254.6l-2.7-0.2
			l0.9-12l2.7,0.2L474,254.6z M383,253.6l-7.4-7.4l1.9-1.9l7.4,7.4L383,253.6z M479.5,249.4l-2.6-0.9l5.5-16.6l2.6,0.9L479.5,249.4z
			 M458.2,243.1l-2.5-1.1l9.2-20.3l2.5,1.1L458.2,243.1z M399.3,242.9l-4.6-13.8l2.6-0.9l4.6,13.8L399.3,242.9z M421.4,239
			l-2.8-16.6l2.7-0.4l2.8,16.6L421.4,239z M409.7,233.1l-7.4-10.2l2.2-1.6l7.4,10.2L409.7,233.1z M444.5,232.3h-2.7v-18.5h2.7V232.3
			z M427.9,224.4l-2.8-10.2l2.6-0.7l2.8,10.2L427.9,224.4z"/>
	</g>
	<g>
		<rect x="453.9" y="219.3" class="st11" width="2.7" height="8.1"/>
	</g>
	<g>
		<path class="st4" d="M492.5,332.5c0,0-40.9,34.4-64.2,28.8c18.9,27.8,54.8,30.7,65,21.4C503.6,373.4,492.5,332.5,492.5,332.5z"/>
	</g>
	<g>
		<path class="st9" d="M560.4,458.2v-34.1l34.5,14.4l62.5,26c-19.1-1.1-37.4,3.6-52.3,2.7C605.2,467.2,579.1,461.8,560.4,458.2z"/>
	</g>
	<g>
		<path class="st11" d="M453.9,393.4l-1.4-5.2c22.2-6,31-71.6,32.5-96.3l5.4,0.3c0,0.2-1.5,23.2-6.5,46.8
			C477,371.6,466.9,389.9,453.9,393.4z"/>
	</g>
	<g>
		<path class="st12" d="M309.7,350.4c0,0-29-16.3-32.7-11.7c-6.7,8.5-6.7,20.1,0,28.6C288,370.1,309.7,350.4,309.7,350.4z"/>
		<path class="st11" d="M279.2,370.2c-1,0-2-0.1-2.9-0.3l-0.9-0.2l-0.6-0.7c-7.4-9.4-7.4-22.5,0-31.9c3.4-4.3,15.6-0.6,36.2,11
			l3.3,1.8l-2.8,2.5C309.3,354.3,291.4,370.2,279.2,370.2z M278.5,364.8c6.5,0.7,18.5-7.3,26.5-13.9c-12-6.5-23.4-11-26.1-10.3
			C273.3,347.9,273.2,357.4,278.5,364.8z"/>
	</g>
	<g>
		<ellipse class="st5" cx="276" cy="354.1" rx="4" ry="10.8"/>
	</g>
	<g>
		<path class="st10" d="M307.1,310.5c16.9-8.4,22.7,10.2,22.7,10.2s2.3,42.6-5.3,37.5c-4.4-3-11.8-30.3-11.8-30.3
			c-10.3,18.7-17.9,21.5-23.5,14.9C283.6,336.3,300.4,313.8,307.1,310.5z"/>
	</g>
	<g>
		<path class="st11" d="M278.9,338.6c-0.3-0.4-6.4-9.9-0.1-25.5l2.5,1c-5.7,14.2-0.4,22.7-0.1,23L278.9,338.6z"/>
	</g>
	<g>
		<path class="st11" d="M452.6,435.4l-5.3-0.8c0-0.3,4.2-26.2,13.6-51.7l5.1,1.9C456.7,409.7,452.6,435.1,452.6,435.4z"/>
	</g>
	<g>
		<path class="st11" d="M295,347.3c-1.7,0-3.3-0.5-4.8-1.4c-2.1-1.3-3.3-3.3-3.5-5.8c-0.7-10.3,16-27.4,19.6-30.3l1.7,2.1
			c-4.8,3.8-19.1,19.9-18.6,28c0.1,1.6,0.8,2.8,2.2,3.7c1.6,1,3.3,1.2,5.3,0.7c8-2.1,15.8-15.7,15.8-15.8l1.5-2.7l4.8,14.8l-2.6,0.8
			l-2.9-9.1c-2.8,4.3-9.1,12.8-16,14.6C296.7,347.2,295.9,347.3,295,347.3z"/>
	</g>
	<g>
		<path class="st10" d="M298.7,354.1c16.7-0.3,42.7,19.3,42.7,19.3s-8.7,17.1-25.1,14.9c-6.6-0.9-13.2-10.9-17.6-14.9
			c-6.5-5.9-12.8-9-12.8-9S282.1,354.3,298.7,354.1z"/>
	</g>
	<g>
		<path class="st11" d="M417.2,518.6c-0.6,0-1.2,0-1.8-0.1c-48.9-2.9-59.8-52-69.4-95.4c-3.3-15.1-6.5-29.3-11-41
			c-10.5-27.3-25.2-28-25.4-28l0-5.4c0.7,0,18.4,0.4,30.4,31.5c4.6,12.1,7.8,26.5,11.2,41.8c9.6,43.5,19.6,88.6,64.4,91.2
			c7.2,0.4,13.4-2.3,18.5-8.2c14.3-16.6,16.2-53.9,13.1-68.5c-4.2-19.9-18.5-49.2-18.7-49.5l4.8-2.4c0.6,1.2,14.8,30.2,19.1,50.8
			c3.3,15.9,1.4,54.9-14.3,73.1C432.4,515.2,425.4,518.6,417.2,518.6z"/>
	</g>
	<g>
		<path class="st4" d="M405,323c-4.4-3.5,7.5-36.4,7.5-36.4l9.6,22.2c0,0,10.5,0,8.7,7.1C429.1,323,409.4,326.6,405,323z"/>
	</g>
	<g>
		<path class="st11" d="M424.6,341.9c-7.2,0-12.9-3.6-13.2-3.7c-0.6-0.4-0.8-1.2-0.4-1.9c0.4-0.6,1.2-0.8,1.9-0.4
			c0.1,0.1,8.5,5.2,17,2.5c5.7-1.8,10.2-6.7,13.4-14.5c0.3-0.7,1.1-1,1.8-0.7c0.7,0.3,1,1.1,0.7,1.8c-3.5,8.6-8.6,14-15.1,16.1
			C428.6,341.7,426.5,341.9,424.6,341.9z"/>
	</g>
	<g>
		<circle class="st11" cx="487.6" cy="289.4" r="5.4"/>
	</g>
	<g>
		<path class="st11" d="M389.5,247l-8.1-11.1l2.2-1.6l8.1,11.1L389.5,247z M392.1,235.7l-2.7-5.1l2.4-1.3l2.7,5.1L392.1,235.7z"/>
	</g>
	<g>
		<rect x="470.1" y="227.4" class="st11" width="2.7" height="8.1"/>
	</g>
	<g>
		
			<rect x="412.1" y="218.9" transform="matrix(0.8944 -0.4472 0.4472 0.8944 -55.6122 208.3475)" class="st11" width="2.7" height="6"/>
	</g>
	<g>
		
			<rect x="491.9" y="250.3" transform="matrix(0.7071 -0.7071 0.7071 0.7071 -32.7309 424.2215)" class="st11" width="7.6" height="2.7"/>
	</g>
	<g>
		
			<rect x="429.5" y="223.3" transform="matrix(0.2421 -0.9703 0.9703 0.2421 111.7588 592.385)" class="st11" width="11.1" height="2.7"/>
	</g>
	<g>
		<path class="st11" d="M390.2,304.2c-0.1,0-0.2,0-0.4,0c-3.3-0.1-6.1-1.7-8.4-4.6c-0.5-0.6-0.4-1.4,0.2-1.9
			c0.6-0.5,1.4-0.3,1.9,0.2c1.8,2.3,3.9,3.5,6.3,3.6c0.1,0,0.2,0,0.3,0c6.6,0,13.4-7.6,13.4-7.6l0.6-0.7l5.7,1.9
			c0.7,0.2,1.1,1,0.9,1.7c-0.2,0.7-1,1.1-1.7,0.9l-4-1.3C403,298.3,396.7,304.2,390.2,304.2z"/>
	</g>
	<g>
		<path class="st11" d="M428.1,296.1c-2.6,0-5.5-0.6-8.5-2.3c-0.7-0.3-0.9-1.2-0.6-1.8c0.3-0.7,1.2-0.9,1.8-0.6
			c13.6,7.1,22.1-7.5,22.5-8.2c0.4-0.7,1.2-0.9,1.8-0.5c0.6,0.4,0.9,1.2,0.5,1.8C445.6,284.8,439,296.1,428.1,296.1z"/>
	</g>
	<g>
		<path class="st13" d="M193.1,384.2c-10.3,10.5,21.8,37.2,21.8,37.2s30.9-29.1,19.4-37.2c-11.5-8.1-19.4,8.1-19.4,8.1
			S203.4,373.8,193.1,384.2z"/>
	</g>
	<g>
		<path class="st13" d="M475.5,186.4c-7.1,6.7,15,22.1,15,22.1s23.9-15.1,13.3-22.1c-10.6-7-13.3,5.2-13.3,5.2
			S482.6,179.7,475.5,186.4z"/>
	</g>
	<g>
		<path class="st13" d="M530.2,252.3c-10.9,10.9,23.1,42.5,23.1,42.5s32.7-34,20.5-42.5c-12.2-8.5-20.5,8.5-20.5,8.5
			S541.1,241.3,530.2,252.3z"/>
	</g>
	<g>
		<path class="st13" d="M350,152.3c-11.7,12.9,21.1,40,21.1,40s35.1-35.7,22-45.7c-13.1-10-22,10-22,10S361.6,139.4,350,152.3z"/>
	</g>
	<g>
		<path class="st11" d="M597.7,657.3l-40.4-15.7l1-2.5l40.4,15.7L597.7,657.3z M592.1,644.4l-25.4-8.3l0.8-2.6l25.4,8.3L592.1,644.4
			z M584.1,632.4l-26.7-7.4l0.7-2.6l26.7,7.4L584.1,632.4z"/>
	</g>
</g>
</svg>
