<svg id="Layer_1" data-name="Layer 1" xmlns="http://www.w3.org/2000/svg" viewBox="0 0 800 800"><defs><style>.cls-1{fill:#f26337;}.cls-2{fill:#fbb03b;}.cls-3{fill:#facc4b;}.cls-4{fill:#169246;}.cls-5{fill:#f7eed8;}.cls-6{fill:#f79756;}.cls-7{fill:#fab280;}.cls-8{fill:#ffe784;}</style></defs><title>peachmotions</title><rect class="cls-1" width="800" height="800"/><path class="cls-2" d="M635.58,420.08l2.1,3.61a64.9,64.9,0,0,0-10.5-7.68c-21-12.22-71.41,4.07-91.27,51.13-31.68,75.07,28.11,136.53,49,141.24,67.5,15.24,128,8.92,160.89-64.42C770.16,489.6,723.79,395.65,635.58,420.08Z"/><path class="cls-1" d="M666,454.31c.34-6.44,8.94-12.53,15.08-15s16.06.8,19.87,4.26c6.1,5.54-18.53,14.23-19.87,21.08"/><path class="cls-1" d="M621,499.71a2,2,0,0,1-.47-.06,1.83,1.83,0,0,1-1.38-2.24c2.36-9.16-2.69-20-11.72-25.14-8.54-4.89-20-5.07-29.86-.46a1.94,1.94,0,0,1-2.54-.87,1.81,1.81,0,0,1,.89-2.46c11-5.13,23.83-4.9,33.44.61,10.61,6.07,16.28,18.36,13.48,29.22A1.89,1.89,0,0,1,621,499.71Z"/><path class="cls-1" d="M702.79,540a1.9,1.9,0,0,1-1.84-1.36,19.22,19.22,0,0,1-.4-2.54c-.54-4.72-1.67-14.54-11.42-20.84-12.06-7.78-25.14-2.4-32.17.48a1.92,1.92,0,0,1-2.5-1,1.82,1.82,0,0,1,1-2.42c7.14-2.94,22-9.06,35.78-.16,11.22,7.25,12.49,18.23,13.09,23.5a15,15,0,0,0,.29,2,1.84,1.84,0,0,1-1.34,2.27A2.2,2.2,0,0,1,702.79,540Z"/><path class="cls-3" d="M637.68,510.9s5.63,56.22-4.32,60.58S592,542.4,594.08,532"/><path class="cls-1" d="M631.31,573.72c-3.58,0-8.28-2.22-14-6.63-11.39-8.76-26.82-26.92-25.08-35.43a1.91,1.91,0,0,1,2.24-1.45,1.85,1.85,0,0,1,1.5,2.17c-1.14,5.59,11.27,22.24,23.71,31.81,6.88,5.29,11.18,6.38,12.91,5.6,6-2.62,5.49-35.91,3.21-58.71a1.87,1.87,0,0,1,1.71-2,1.9,1.9,0,0,1,2.09,1.66c1,9.61,5.22,57.78-5.44,62.44A7,7,0,0,1,631.31,573.72Z"/><path class="cls-1" d="M631.31,573.72c-3.58,0-8.28-2.22-14-6.63-11.39-8.76-26.82-26.92-25.08-35.43.91-4.47,14.2-10.2,19.87-12.46a1.93,1.93,0,0,1,2.43.88l7.63,14.78a1.84,1.84,0,0,1-.86,2.48,1.94,1.94,0,0,1-2.56-.83l-6.82-13.23c-8.2,3.41-15.47,7.53-16,9.11-1.13,5.58,11.28,22.23,23.72,31.8,6.88,5.29,11.18,6.38,12.91,5.6,6-2.62,5.49-35.91,3.21-58.71a1.87,1.87,0,0,1,1.71-2,1.9,1.9,0,0,1,2.09,1.66c1,9.61,5.22,57.78-5.44,62.44A7,7,0,0,1,631.31,573.72Z"/><path class="cls-1" d="M638.68,590.44c-15.37,0-31.63-3.84-43.15-10.62-17.82-10.48-25-28.09-29.24-42.27a1.85,1.85,0,0,1,1.3-2.29,1.91,1.91,0,0,1,2.36,1.26c6,20.1,14.53,32.48,27.56,40.15,14.7,8.65,37.56,12.25,55.6,8.77a1.9,1.9,0,0,1,2.25,1.45,1.85,1.85,0,0,1-1.5,2.17A80.33,80.33,0,0,1,638.68,590.44Z"/><path class="cls-1" d="M731.24,572a1.88,1.88,0,0,0-1.36-1.27c-11.21-2.72-24.81.34-35.48,8-10.33,7.43-16.34,17.94-16.9,29.6a1.81,1.81,0,0,0,.84,1.61,1.91,1.91,0,0,0,1.06.32,2.05,2.05,0,0,0,.8-.17c.84-.38,20.75-9.29,27.14-13.86s22.78-21.75,23.47-22.47A1.81,1.81,0,0,0,731.24,572Z"/><path class="cls-2" d="M637.86,617c-18.73,0-37.12-3.11-53.42-6.79A1.85,1.85,0,0,1,583,608a1.89,1.89,0,0,1,2.29-1.38C667.12,625,716.06,605.5,744,543.22c13.3-29.64,5.2-70.79-19.26-97.85-22.41-24.79-53.91-33.14-88.66-23.51a1.94,1.94,0,0,1-2.36-1.27,1.85,1.85,0,0,1,1.31-2.29c36.26-10,69.14-1.29,92.57,24.64C753,471,761.37,513.81,747.51,544.69,721.83,601.91,679,617,637.86,617Z"/><path class="cls-2" d="M584.88,610.23a2.28,2.28,0,0,1-.44-.05c-13-2.93-38.92-25.66-51.83-59.08a1.83,1.83,0,0,1,1.11-2.38,1.94,1.94,0,0,1,2.46,1.08c12.87,33.33,38.44,54.36,49.13,56.78a1.84,1.84,0,0,1,1.42,2.22A1.9,1.9,0,0,1,584.88,610.23Z"/><path class="cls-3" d="M739.94,552.41c-1.56-.38-3.15-.67-4.76-.91l4.3-16.17-3.7-.92-4.42,16.66a63.45,63.45,0,0,0-13.18.34c-.65-5-3.66-14.13-3.79-14.52l-.58-1.75-3.63,1.12.58,1.77c0,.08,3,9.24,3.64,13.88l0,.09a76.25,76.25,0,0,0-21.15,7.27c-5.17-5.49-14-17.16-14.12-17.29L678,540.49,675,542.68l1.13,1.49c.38.5,8.46,11.14,13.8,17-2.13,1.24-4.21,2.58-6.22,4A70.74,70.74,0,0,0,672,575.67l-16.65-13.22-2.42,2.85,16.67,13.24a59.19,59.19,0,0,0-10.68,20.88l-24.36-.75-.12,3.7,23.59.72a58,58,0,0,0-1.16,9,1.87,1.87,0,0,0,1.81,1.93h.09a1.87,1.87,0,0,0,1.9-1.76,54.31,54.31,0,0,1,1.22-9l.36,0,0-1.7c3.32-13,11.45-24.63,23.64-33.4a73.5,73.5,0,0,1,6.63-4.23l.27.27,1-1C708.35,555.34,725,552.57,739,556a1.9,1.9,0,0,0,2.31-1.34A1.84,1.84,0,0,0,739.94,552.41Z"/><path class="cls-3" d="M559.13,502.57c.09-1.32.14-2.65.16-4a72.11,72.11,0,0,0-.48-8.92c7.37-.55,22.14-2.81,22.81-2.91l1.88-.29-.6-3.65-1.88.29c-.16,0-15.51,2.37-22.66,2.89a54.89,54.89,0,0,0-6.81-19c6.16-4.33,19.55-9.72,19.69-9.77l1.76-.71-1.45-3.42-1.76.71c-.58.23-13.58,5.46-20.22,10a44,44,0,0,0-7.42-8.16,1.93,1.93,0,0,0-2.68.16,1.79,1.79,0,0,0,.17,2.6c10.45,8.94,16.08,23.19,15.84,40.13-.29,20.09-8.9,39.87-21.94,50.4a1.81,1.81,0,0,0-.24,2.6,1.95,1.95,0,0,0,2.68.23,51.08,51.08,0,0,0,7.6-7.67l.27.19c7.2,4.94,18.07,14.94,18.18,15l1.38,1.27,2.63-2.67-1.38-1.28c-.46-.41-11.18-10.28-18.61-15.37l-.22-.16A70.13,70.13,0,0,0,554,525.77l1.22.39c4.85,1.57,14.4,5.5,14.5,5.54l1.75.72L573,529l-1.76-.72c-.4-.16-9.79-4-14.79-5.64l-1.17-.38a80,80,0,0,0,3.54-16c8.71,1.95,23.65,6.48,23.81,6.52l1.82.56,1.14-3.53-1.82-.55C583.07,509.09,567.89,504.49,559.13,502.57Z"/><path class="cls-1" d="M533.92,476.16a1.93,1.93,0,0,0-2-.44,1.83,1.83,0,0,0-1.24,1.61l-3.26,49.76a1.85,1.85,0,0,0,1.16,1.82,1.87,1.87,0,0,0,.74.14,2,2,0,0,0,1.41-.59C543.24,515.2,547.37,489.47,533.92,476.16Z"/><path class="cls-3" d="M534.39,552.3a1.9,1.9,0,0,1-1.78-1.2c-10.69-27.68-10.16-57,1.53-84.66,10.6-25.12,31.68-44.87,56.37-52.83,14.6-4.71,28.68-4.4,37.65.81,11.09,6.45,18.75,15.67,26.15,24.59,12.67,15.25,24.63,29.66,52.85,32.15a1.85,1.85,0,0,1,1.72,2,1.89,1.89,0,0,1-2.06,1.67C677,472.21,664,456.51,651.34,441.32c-7.53-9.06-14.63-17.62-25.15-23.73-8-4.67-20.92-4.85-34.48-.47-23.65,7.62-43.85,26.58-54,50.72-11.32,26.83-11.84,55.17-1.49,82a1.83,1.83,0,0,1-1.12,2.38A2,2,0,0,1,534.39,552.3Z"/><path class="cls-4" d="M736.54,513.65c4.28-4.29,5.49-29.65-.28-35.25-9.13-8.84-41.62-22.3-46.12-21.12.82,6.36,1,17.6,4.63,24.83C706.81,506.12,728.67,521.56,736.54,513.65Z"/><path class="cls-2" d="M502.53,350.41c-4.94-40.5-26.85-71.72-60.1-85.65-39.19-16.42-85.52-2.92-94.4-.05l-1.44.45c-35.54,11-76,39.27-66.77,111,6.69,52.1,38,75.34,63,85.65,16.71,6.89,34.85,9.87,52.45,9.87,29.54,0,57.55-8.4,74.69-20.86C493.83,433.51,507.52,391.27,502.53,350.41Z"/><path class="cls-1" d="M415.32,285.92c-4.7,0-10.84,1.84-16.92,4-2.41-4.52-.26-11.71-4.58-15-1.72-1.29-10.11-2.52-10.67,1.22-.11.74-3.7,16.5-4.54,20.15-.74,0-2.81-1.92-4.32-3.27-6.47-5.8-17.3-15.5-37.18-9.08a1.83,1.83,0,0,0-1.2,2.34,1.92,1.92,0,0,0,2.41,1.17c17.74-5.74,27.15,2.7,33.38,8.28,2.76,2.47,4.77,4.26,7,4.26h.13c3.26-.1,8.6-2.09,14.78-4.4,7.56-2.82,16.13-6,21.73-6a1.85,1.85,0,1,0,0-3.69Z"/><path class="cls-3" d="M398.41,411.17c9.77,0,17.72,7.7,17.72,17.17a16.86,16.86,0,0,1-.68,4.68l68.79-5c-5.45-15.46-26-38.3-92.41-60.2l-1.19-.39c-9.31,4.49-64.86,32.81-74.5,72.9l66.17-4.85a16.43,16.43,0,0,1-1.61-7.1C380.7,418.87,388.65,411.17,398.41,411.17Z"/><path class="cls-1" d="M416.13,428.34c0-9.47-7.95-17.17-17.72-17.17s-17.71,7.7-17.71,17.17a16.43,16.43,0,0,0,1.61,7.1A17.89,17.89,0,0,0,415.45,433,16.86,16.86,0,0,0,416.13,428.34Zm-17.72,13.47a14,14,0,0,1-11.93-6.67,13,13,0,0,1-2-6.8,13.91,13.91,0,0,1,27.81,0,13.14,13.14,0,0,1-1,5A13.9,13.9,0,0,1,398.41,441.81Z"/><path class="cls-1" d="M399.14,455.82c-4.51,0-8.38-1.1-11.11-3.24a1.82,1.82,0,0,1-.28-2.6,1.94,1.94,0,0,1,2.68-.27c3.14,2.46,8.78,3.08,15.11,1.66,7.49-1.69,13.94-5.78,16-10.18a1.94,1.94,0,0,1,2.54-.9,1.83,1.83,0,0,1,.92,2.45c-2.62,5.47-9.94,10.27-18.65,12.23A33.3,33.3,0,0,1,399.14,455.82Z"/><path class="cls-1" d="M345.13,361c-.69,0-1.38,0-2.07-.07-10.46-.7-20.12-6.74-26.5-16.56a1.82,1.82,0,0,1,.6-2.55,2,2,0,0,1,2.63.58c5.72,8.82,14.3,14.23,23.54,14.84s18.88-3.7,26.1-11.55a2,2,0,0,1,2.7-.15,1.81,1.81,0,0,1,.15,2.61C364.69,356.42,354.89,361,345.13,361Z"/><path class="cls-1" d="M367.7,330.37a2.1,2.1,0,0,1-.43-.05l-42.51-9.48a1.83,1.83,0,0,1-1.43-2.21,1.91,1.91,0,0,1,2.28-1.39l42.51,9.48a1.84,1.84,0,0,1,1.43,2.21A1.88,1.88,0,0,1,367.7,330.37Z"/><path class="cls-1" d="M428.62,361c-9.77,0-19.56-4.61-27.15-12.85a1.81,1.81,0,0,1,.15-2.61,2,2,0,0,1,2.69.15c7.23,7.85,17,12.18,26.11,11.55s17.82-6,23.54-14.84a2,2,0,0,1,2.62-.58,1.81,1.81,0,0,1,.6,2.55c-6.37,9.82-16,15.86-26.5,16.56C430,361,429.31,361,428.62,361Z"/><path class="cls-1" d="M406.05,330.37a1.9,1.9,0,0,1-1.86-1.44,1.85,1.85,0,0,1,1.43-2.21l42.52-9.48a1.91,1.91,0,0,1,2.28,1.39,1.83,1.83,0,0,1-1.43,2.21l-42.51,9.48A2.18,2.18,0,0,1,406.05,330.37Z"/><path class="cls-1" d="M393.06,364.28l-1.93-.64a1.94,1.94,0,0,0-1.46.09c-6.77,3.2-65.52,32.11-76.84,74.26,1,1,2.07,2,3.13,2.94l0-.09c0-.18.1-.36.14-.55,7.61-31.62,43.76-55.91,63.27-67-6.17,9.8-6.2,27.07-6.2,27.07L408,399.16s-2.84-22.29-11.79-29.9c62.95,21.44,82.71,43.61,88,58.72.05.14.11.29.15.43s.07.09.09.14c.82-1.39,1.62-2.81,2.38-4.29C479.86,408.13,457.51,385.53,393.06,364.28Z"/><path class="cls-4" d="M440,280.48c-9.55-7-23.12-13.23-27.9-8-9.59,10.47,34.87,66.37,9.66,103.28,19.94-1.16,44.77-33.48,44.15-51.53C465.38,309.63,442.12,282.05,440,280.48Z"/><path class="cls-3" d="M304.19,406.74,335,374.51s-30.4-13.42-37.22-7C290.4,374.37,304.19,406.74,304.19,406.74Z"/><path class="cls-1" d="M304.19,408.58l-.33,0a1.94,1.94,0,0,1-1.43-1.12c-2.38-5.6-13.89-33.9-6-41.3,7.37-6.9,34.06,4.36,39.33,6.69a1.87,1.87,0,0,1,1.08,1.32,1.83,1.83,0,0,1-.47,1.62L305.59,408A1.93,1.93,0,0,1,304.19,408.58Zm-.39-41c-2.15,0-3.79.37-4.7,1.22-4.36,4.08.86,22.3,5.74,34.54l27-28.18C322.58,371.33,310.65,367.58,303.8,367.58Z"/><path class="cls-3" d="M453.12,366.5l32.74,30.38s11.77-33.11,4-39.57C482.63,351.34,453.12,366.5,453.12,366.5Z"/><path class="cls-1" d="M485.86,398.73a2,2,0,0,1-1.32-.51L451.8,367.84a1.78,1.78,0,0,1-.57-1.59,1.84,1.84,0,0,1,1-1.38c5.12-2.63,31-15.42,38.85-9,8.36,6.92-1.37,35.84-3.41,41.57a1.88,1.88,0,0,1-1.35,1.2A2.3,2.3,0,0,1,485.86,398.73ZM456.36,367,485,393.53c4.12-12.51,8.2-31,3.59-34.82C484.57,355.39,468.11,361.24,456.36,367Z"/><line class="cls-5" x1="402.48" y1="282.93" x2="413.91" y2="273.32"/><path class="cls-4" d="M402.48,284.78a2,2,0,0,1-1.45-.64,1.82,1.82,0,0,1,.2-2.61l11.43-9.6a2,2,0,0,1,2.69.18,1.81,1.81,0,0,1-.19,2.61l-11.44,9.61A1.93,1.93,0,0,1,402.48,284.78Z"/><path class="cls-6" d="M269,438.68c-15.43-61.49-63.54-86.78-139.13-73.15-27.39,4.94-95.58,36-82.32,119.53,9.13,57.55,44.54,87.5,102.88,87.5a196.56,196.56,0,0,0,20.39-1.13c29.95-3.17,61.84-22.55,81.26-49.39C264.88,504.33,278.22,475.49,269,438.68Z"/><path class="cls-1" d="M208.9,381.46c-11.83,0-16.33,4.41-21.1,9.09a41.92,41.92,0,0,1-10.91,8.36,15.61,15.61,0,0,1-6.94,1.18c0-4.11-.39-9.95-1.42-11.21-2.32-2.82-7.12-2.63-10.06-.42-2.73,2.07-4.12,5.35-4.95,8.64-8.73-2.73-17-7-19.92-11.24a1.94,1.94,0,0,0-2.64-.53,1.8,1.8,0,0,0-.54,2.55c5.58,8.25,26.65,15.8,40,15.8a18.5,18.5,0,0,0,8.21-1.51,45.8,45.8,0,0,0,11.85-9c4.72-4.63,8.14-8,18.38-8a1.85,1.85,0,1,0,0-3.69Z"/><path class="cls-4" d="M112.44,384.78c-22.64,8.66-49.56,2.14-64-12.54C62.88,360.82,67,352.52,78.73,350.57c7.12-1.19,35-4.69,40.94-.67,12.32,8.38,37.2,28.69,35,38.05C152.32,397.73,125.72,379.71,112.44,384.78Z"/><ellipse class="cls-1" cx="115.54" cy="465.17" rx="8.89" ry="8.62"/><ellipse class="cls-1" cx="193.34" cy="467.32" rx="8.89" ry="8.62"/><path class="cls-1" d="M116.68,523.43c-1.48,7.73,10,16.29,25.73,19.11s29.62-1.17,31.1-8.91Z"/><path class="cls-3" d="M268.17,461.61a1.92,1.92,0,0,0-1.79,0c-13.52,7.17-25-3.75-37.07-15.31-10-9.51-20.25-19.34-31.81-17.39-9.82,1.67-18.78,11.33-28.18,30.41-3.22,6.52-1,15.9,1.16,25,.46,2,.92,3.93,1.33,5.86-8,2.31-12.21,4.81-14.29,8.53-1.76,3.17-1.8,7.19-.22,12.52a54.33,54.33,0,0,1-14.84-1.2c1.45-4.48,3.71-12.4.12-17.13a9.11,9.11,0,0,0-6.28-3.39c5.67-11.42,12.46-25.4,7.58-33.82-10.1-17.39-19.94-26.44-30.08-27.66-12.83-1.53-23.7,9.53-34.19,20.24-10,10.24-19.48,19.94-29.55,18a2,2,0,0,0-.34,0c0,1.22,0,2.43.07,3.68,11.91,1.92,22.43-8.76,32.59-19.14,9.83-10,20-20.44,31-19.11,8.86,1.06,17.76,9.5,27.22,25.8,4,6.89-2.93,20.85-8,31-3.1,6.24-5.55,11.17-5.53,14.15,0,2.75,1.7,6.63,9.63,9.51A54.54,54.54,0,0,0,154.42,515c8.16,0,15.84-1.73,19.31-5.55,5.26-5.78,2.93-15.6.46-26-2-8.45-4.08-17.19-1.43-22.55,8.7-17.66,17-26.93,25.4-28.36,9.61-1.63,18.77,7.12,28.47,16.38,12,11.44,25.58,24.42,41.58,15.92h0C268.23,463.78,268.19,462.69,268.17,461.61Zm-137.34,41c0-1.73,1.66-5.42,3.72-9.61,2.35.14,4,.76,5,2,2.49,3.29.48,10.21-.71,13.91l-.81-.26C133.45,507,130.85,504.83,130.83,502.62Zm40,4.38c-1.71,1.88-5.32,3.16-9.75,3.8-1.49-4.7-1.57-8-.25-10.38,1.5-2.69,5-4.69,11.63-6.63C173.4,499.31,173.42,504.19,170.87,507Z"/><path class="cls-3" d="M141.17,524.55a23.36,23.36,0,0,0,8.83,1.74c.5,0,1,0,1.51-.06a1.85,1.85,0,0,0,1.77-2,1.88,1.88,0,0,0-2-1.72,19.23,19.23,0,0,1-8.59-1.4,1.92,1.92,0,0,0-2.5,1A1.83,1.83,0,0,0,141.17,524.55Z"/><path class="cls-3" d="M144.38,548.75c-5.57-1.31-10.72-.29-13.76,2.73a1.8,1.8,0,0,0,0,2.61,1.94,1.94,0,0,0,2.69,0c2.09-2.08,5.87-2.72,10.13-1.72s6.94,3.13,7.42,4.65a1.89,1.89,0,0,0,1.82,1.3,1.87,1.87,0,0,0,1.82-2.38C153.55,552.78,149.57,550,144.38,548.75Z"/><path class="cls-3" d="M101.71,453.54a14.14,14.14,0,0,0-6.44,9A13.75,13.75,0,0,0,97,473.31a1.93,1.93,0,0,0,1.61.85,2,2,0,0,0,1-.3,1.82,1.82,0,0,0,.56-2.56,10.2,10.2,0,0,1-1.26-8,10.48,10.48,0,0,1,4.71-6.64,1.81,1.81,0,0,0,.64-2.54A1.93,1.93,0,0,0,101.71,453.54Z"/><path class="cls-3" d="M208,458a1.82,1.82,0,0,0,.19,2.61,10.69,10.69,0,0,1,.9,15,1.81,1.81,0,0,0,.11,2.61,2,2,0,0,0,1.29.48,1.93,1.93,0,0,0,1.41-.6,14.32,14.32,0,0,0-1.21-20.25A2,2,0,0,0,208,458Z"/><path class="cls-7" d="M334.68,97.49c-14.22-16.28-41.51-30-77.8-23.75-21.12-23.26-63.58-6.44-83.39,7.1-42.05,28.75-53.84,77.93-33.2,138.47,9.49,27.85,50.88,64.1,92.32,64.1a67.37,67.37,0,0,0,9.92-.72c52.93-7.79,90.94-35,107-76.65C364,168.68,357.9,124,334.68,97.49Zm-47.48,23a7.39,7.39,0,0,1-3-.74Z"/><path class="cls-1" d="M288.07,118.83a66.32,66.32,0,0,1-7.35-4.21c1-1.12,2.21-2.48,3.57-4,8.64-9.51,14.73-16.53,14.44-20.31a5.51,5.51,0,0,0-3.26-4.47c-4.14-2.26-11.61-2.19-14.12-1h0c-1.33.67-6.89,4.1-16.44,10.17-1-2.7-1.85-5.44-2.68-8.22a89.15,89.15,0,0,0-3.94-11.36,1.94,1.94,0,0,0-2.51-1,1.83,1.83,0,0,0-1,2.43,86.57,86.57,0,0,1,3.78,10.91c3.53,11.84,7.18,24.09,27.77,34.25a2,2,0,0,0,.86.2,1.91,1.91,0,0,0,1.7-1A1.82,1.82,0,0,0,288.07,118.83Z"/><path class="cls-1" d="M337,140.76a2,2,0,0,0-2.68-.2L327,146.61a52.72,52.72,0,0,0-8.9-6.39l4.25-6.59a1.81,1.81,0,0,0-.6-2.54,2,2,0,0,0-2.63.58l-4.41,6.84a34,34,0,0,0-9.87-2.79l-.91-8.4a1.91,1.91,0,0,0-3.79.38l.85,7.81a36.15,36.15,0,0,0-11,1.9l-3.56-8.24a1.93,1.93,0,0,0-2.5-1,1.84,1.84,0,0,0-1,2.42l3.53,8.15a59.69,59.69,0,0,0-9.31,5l-7.93-6.11a1.94,1.94,0,0,0-2.68.3,1.79,1.79,0,0,0,.31,2.59l7.07,5.46a63.93,63.93,0,0,0-6.45,5.39,1.82,1.82,0,0,0-.41,1.94,1.91,1.91,0,0,0,1.63,1.19L300.57,157a15.8,15.8,0,0,0,14.34,12.74,16,16,0,0,0,16.43-10.37l3.14.24h.15a1.92,1.92,0,0,0,1.65-.91,1.79,1.79,0,0,0-.07-2,59.08,59.08,0,0,0-6.46-7.5l7-5.82A1.81,1.81,0,0,0,337,140.76Z"/><path class="cls-1" d="M220.45,133.22l-8.21,4.49a50,50,0,0,0-8.77-6.38l4.58-7.15a1.81,1.81,0,0,0-.62-2.54,1.94,1.94,0,0,0-2.62.59l-4.74,7.4a34.94,34.94,0,0,0-7.66-2.43l-.83-9.15a1.88,1.88,0,0,0-2.06-1.68,1.86,1.86,0,0,0-1.73,2l.74,8.33a37.57,37.57,0,0,0-9.39.63l-3.2-7.33a1.94,1.94,0,0,0-2.5-1,1.84,1.84,0,0,0-1,2.43l2.95,6.74a59,59,0,0,0-11,4.3,1.88,1.88,0,0,0-.4-.89l-4.49-5.14a2,2,0,0,0-2.69-.21,1.81,1.81,0,0,0-.22,2.6L161.1,134c.07.07.15.1.22.16a63.8,63.8,0,0,0-7.13,4.7,1.82,1.82,0,0,0-.63,1.91,1.89,1.89,0,0,0,1.55,1.34l32.4,5a15.64,15.64,0,0,0,12.7,13.73,16.14,16.14,0,0,0,17.85-9l2.31.35.3,0a1.94,1.94,0,0,0,1.58-.82,1.82,1.82,0,0,0,.05-2,59.57,59.57,0,0,0-7.24-8.93l7.26-4a1.81,1.81,0,0,0,.72-2.51A1.94,1.94,0,0,0,220.45,133.22Z"/><path class="cls-1" d="M223.6,217.08c5,0,10.31,3.56,12.93,9.89,4.39-4.93,12.77-7.57,17.22-5.43,6.84,3.29,11.07,11.64,23.06,17-23.42,9.44-69.17,2.05-84-13.85C207.64,222.09,215.45,217.08,223.6,217.08Z"/><path class="cls-8" d="M336.42,157.1v0s0,0-.05-.06a1.73,1.73,0,0,0-.51-.66l-.18-.15a2,2,0,0,0-.9-.33L269,150.82a1.68,1.68,0,0,0-.59,0c-2.27.52-9.84,2.45-11.66,5.19-3.51,5.29-1.43,14.33.76,23.9,2.11,9.16,4.28,18.63.52,22.07-2.74,2.51-9.94,3.78-17.93,3.16s-14.89-3-17.19-5.86c-3.11-3.91.59-12.85,4.17-21.49,3.84-9.28,7.47-18,4.53-23.79-1.37-2.68-7.72-4.75-10.63-5.57l-65.27-10a1.82,1.82,0,0,0-.93.12,1,1,0,0,0-.24.11,1.85,1.85,0,0,0-.62.49s-.06,0-.08.07a0,0,0,0,0,0,0,1.65,1.65,0,0,0-.3.72.66.66,0,0,0,0,.14,1,1,0,0,0,0,.24,1.61,1.61,0,0,0,.19.72s0,.09,0,.13c.52.84,12.82,20.58,31.3,23.54a30.63,30.63,0,0,0,4.84.38c14.65,0,27.8-10,31.21-12.77,3.39,1.07,6.62,2.57,7.08,3.31,2.18,4.27-1.3,12.66-4.66,20.77-4.16,10.05-8.09,19.54-3.65,25.13,3.59,4.52,12.64,6.72,19.9,7.28,1.35.1,2.75.16,4.19.16,6.34,0,13.17-1.12,16.66-4.31,5.34-4.88,3-14.93.6-25.56-1.93-8.41-3.93-17.11-1.28-21.1.54-.82,4.22-2.28,8.17-3.3,3.26,3.86,16,17.7,32.4,19,.83.06,1.65.09,2.47.09,17.22,0,31.67-13.51,32.89-14.69h0L336,159s0-.06,0-.08a1.7,1.7,0,0,0,.4-.72l.06-.2a.94.94,0,0,0,0-.16A1.76,1.76,0,0,0,336.42,157.1Zm-150.74,4c-12.29-2-21.92-12.72-26.21-18.35l56.66,8.7C210.42,155.59,198,163.11,185.68,161.12ZM300.82,170c-12.24-.95-22.65-10.12-27.51-15.18L330,159.21C324.54,163.47,313.05,171,300.82,170Z"/><path class="cls-8" d="M294.4,226.05a2,2,0,0,0-2.62.63c-4.47,7.22-12.54,9.42-14.71,9.9-6.32-2.93-10.38-6.74-14-10.12-2.76-2.6-5.36-5.06-8.51-6.57-4.59-2.21-12.32-.33-17.5,4-3.06-5.3-8.14-8.6-13.5-8.6-4.55,0-9,1.44-14.07,3.11A116.53,116.53,0,0,1,193,222.74c-1.57-.67-7.23-3.63-10.22-12.32a1.91,1.91,0,0,0-2.41-1.16,1.82,1.82,0,0,0-1.2,2.33c3.44,10,10.15,13.61,12.34,14.55,11.32,19,23.66,29.42,37.71,31.91a38.25,38.25,0,0,0,6.62.57c12.57,0,26.33-6.07,41.8-18.38,2.32-.45,12-2.83,17.43-11.66A1.81,1.81,0,0,0,294.4,226.05Zm-64.51,28.36c-10.74-1.9-20.49-9.06-29.65-21.77,12.86,7.42,32.69,11.88,50.7,11.88a88.55,88.55,0,0,0,16.6-1.47C253.46,252.65,241.07,256.39,229.89,254.41Zm-33.14-28.62a130.71,130.71,0,0,0,14-3.94c5-1.63,8.93-2.92,12.85-2.92,4.51,0,9,3.51,11.17,8.73a1.85,1.85,0,0,0,1.45,1.13,1.9,1.9,0,0,0,1.76-.61c4.08-4.59,11.61-6.58,14.92-5,2.61,1.25,4.9,3.41,7.55,5.91a59.15,59.15,0,0,0,11.61,9.08C249.83,244.68,212.13,238.48,196.75,225.79Z"/><path class="cls-1" d="M318.55,197.08h-.11l-42.33-2.4a1.87,1.87,0,0,1-1.79-2,1.85,1.85,0,0,1,2-1.74l42.33,2.4a1.85,1.85,0,1,1-.11,3.69Z"/><path class="cls-1" d="M312.4,210.74h-.12l-28.8-1.85a1.85,1.85,0,1,1,.25-3.69l28.8,1.85a1.85,1.85,0,0,1-.13,3.69Z"/><path class="cls-1" d="M202.12,189.68a1.84,1.84,0,0,1-.41-.05l-41.41-8.88a1.85,1.85,0,0,1-1.45-2.2,1.9,1.9,0,0,1,2.28-1.4l41.4,8.88a1.84,1.84,0,0,1,1.45,2.2A1.91,1.91,0,0,1,202.12,189.68Z"/><path class="cls-1" d="M191,201.4a2.85,2.85,0,0,1-.4,0l-28.22-5.84a1.85,1.85,0,0,1-1.47-2.19,1.91,1.91,0,0,1,2.26-1.42l28.23,5.83a1.85,1.85,0,0,1,1.47,2.19A1.91,1.91,0,0,1,191,201.4Z"/><path class="cls-7" d="M337.58,534c-25.82,10-87.69,45.76-60.71,124.21,39.22,114,188.88,98.07,222.61,0,11.49-33.4,6.75-111.14-54-137.29C395.82,499.48,371.31,520.88,337.58,534Z"/><path class="cls-1" d="M415.85,526c-22.41,2.71-32.6,9.9-41.93,18.65-6-6.74-21.58-19.6-24.39-22.3-10.16-9.75-13.67,11.67-11.95,19.48,1.58,7.16,10.55,16,15.61,20.87-12.69,6.3-34.66,6.72-42.64,4.88a1.92,1.92,0,0,0-2.29,1.38,1.84,1.84,0,0,0,1.41,2.22,60.24,60.24,0,0,0,12.19,1c12.55,0,29.77-2.36,38.57-9.72,4.37-3.66,7.94-7.17,11.39-10.57,10.91-10.73,19.53-19.22,44.5-22.24a1.85,1.85,0,0,0,1.65-2.06A1.9,1.9,0,0,0,415.85,526Z"/><ellipse class="cls-1" cx="342.74" cy="623.94" rx="13.49" ry="13.08"/><ellipse class="cls-1" cx="435.4" cy="622.22" rx="13.49" ry="13.08"/><path class="cls-8" d="M435.4,579.72c-13,0-23.61,19-23.61,42.5H459C459,598.75,448.44,579.72,435.4,579.72Z"/><path class="cls-8" d="M342.74,581.45c-13,0-23.61,19-23.61,42.49h47.22C366.35,600.47,355.78,581.45,342.74,581.45Z"/><path class="cls-1" d="M487.78,598.69a1.94,1.94,0,0,0-2.46-1.09L459.4,607c-.39-1.9-.83-3.74-1.36-5.51l19.13-17.16a1.82,1.82,0,0,0,.1-2.62,2,2,0,0,0-2.69-.1l-17.83,16c-4.52-12-12.31-19.77-21.35-19.77-14.31,0-25.52,19.48-25.52,44.35a1.88,1.88,0,0,0,1.91,1.84H459a1.88,1.88,0,0,0,1.91-1.84c0-.48,0-1,0-1.42h21.74a1.85,1.85,0,1,0,0-3.7H460.74c-.14-2.18-.38-4.3-.69-6.37l26.61-9.66A1.83,1.83,0,0,0,487.78,598.69Zm-74.06,21.68c.53-21.22,10.25-38.8,21.68-38.8s21.15,17.58,21.68,38.8Z"/><path class="cls-1" d="M342.74,579.6c-9.22,0-17.13,8.11-21.61,20.52l-18.67-16.76a2,2,0,0,0-2.69.1,1.83,1.83,0,0,0,.1,2.62l20,17.95c-.47,1.64-.87,3.34-1.22,5.09l-26.94-9.79a1.93,1.93,0,0,0-2.45,1.08,1.83,1.83,0,0,0,1.11,2.38l27,9.81a1.93,1.93,0,0,0,.67.12h0c-.29,2-.52,4-.65,6.12h-23a1.85,1.85,0,1,0,0,3.69h22.84c0,.48,0,.94,0,1.42a1.88,1.88,0,0,0,1.91,1.85h47.22a1.88,1.88,0,0,0,1.91-1.85C368.26,599.08,357.05,579.6,342.74,579.6Zm-21.68,42.5c.54-21.22,10.24-38.8,21.68-38.8s21.14,17.58,21.68,38.8Z"/><path class="cls-8" d="M411.3,672.5l-42.59-.35s8.48-53.11,21.75-53"/><path class="cls-1" d="M411.3,674.34h0l-42.6-.34a2,2,0,0,1-1.44-.65,1.82,1.82,0,0,1-.43-1.48c1.46-9.12,9.43-54.57,23.6-54.57h.06a1.85,1.85,0,1,1,0,3.7h0c-7.75,0-15.87,28.13-19.48,49.32l40.38.33a1.85,1.85,0,1,1,0,3.69Z"/><ellipse class="cls-1" cx="327.21" cy="675.3" rx="4.96" ry="4.81"/><ellipse class="cls-1" cx="456.23" cy="670.49" rx="4.96" ry="4.81"/><path class="cls-1" d="M389.91,683.46c-20.28,0-41.83,5.49-41.83,15.67s21.55,15.66,41.83,15.66,41.84-5.49,41.84-15.66S410.19,683.46,389.91,683.46Zm-25.19,24.46c-8-2.35-12.83-5.67-12.83-8.79,0-3.42,5.7-7,15.11-9.41ZM371,688.84c2.74-.53,5.74-.94,8.93-1.23v23a88.48,88.48,0,0,1-11.44-1.73Zm12.74,22.08V687.34c2-.11,4.08-.19,6.22-.19s4.22.08,6.24.19v23.58c-2,.11-4.09.18-6.24.18S385.7,711,383.69,710.92Zm16.27-.3v-23c3.19.29,6.18.7,8.92,1.23l2.5,20A87.88,87.88,0,0,1,400,710.62Zm15.14-2.7-2.28-18.2c9.41,2.36,15.11,6,15.11,9.41C427.93,702.25,423.15,705.57,415.1,707.92Z"/><path class="cls-1" d="M324.73,651.81c-12,0-21.76,9.46-21.76,21.09S312.73,694,324.73,694s21.75-9.46,21.75-21.08S336.72,651.81,324.73,651.81Zm0,38.47c-9.9,0-18-7.79-18-17.38s8.05-17.39,18-17.39,17.94,7.8,17.94,17.39S334.62,690.28,324.73,690.28Z"/><path class="cls-1" d="M453.75,647c-12,0-21.76,9.46-21.76,21.09s9.76,21.08,21.76,21.08,21.75-9.46,21.75-21.08S465.74,647,453.75,647Zm0,38.48c-9.9,0-17.95-7.81-17.95-17.39s8.05-17.39,17.95-17.39,17.94,7.8,17.94,17.39S463.64,685.48,453.75,685.48Z"/><path class="cls-6" d="M703.69,242.4c-18.3,80.48-80,92-121.13,87.49-51.83-5.67-113.85-63.28-96.5-134.6,14.27-58.66,58.2-88.67,136.88-74C650.44,126.38,722.54,159.57,703.69,242.4Z"/><path class="cls-1" d="M629.26,128.14a1.9,1.9,0,0,0-2.35,1.32c-4.32,15.43-16.47,22.88-24.46,26.21-1.51-5.61-3.5-9.73-6.05-12.54-2.36-2.61-5.45-4-8.29-3.6a6.53,6.53,0,0,0-5.05,3.58c-1.51,2.85-1,11.79-.5,16.25a13.45,13.45,0,0,1-6.13-1.63,43.42,43.42,0,0,1-8.11-7.34c-5.42-5.87-10.1-10.94-24.57-6.87a1.9,1.9,0,1,0,1,3.66c12.22-3.44,15.61.24,20.74,5.8a47.18,47.18,0,0,0,8.8,7.92c2.38,1.59,6.09,2.37,10.45,2.37A50.79,50.79,0,0,0,601.9,160c8.51-3.16,23.55-11.19,28.68-29.5A1.9,1.9,0,0,0,629.26,128.14Z"/><path class="cls-4" d="M640.69,135.44c22.63,8.93,48.51-3.11,56.4-20.56,2.24-4.94-18.72-19.9-30.32-22.35-46.17-9.74-70.5,40.34-68.27,50C600.82,152.61,627.41,130.2,640.69,135.44Z"/><path class="cls-3" d="M510.09,200.93c-3.81-15.24,41.92-26.68,76.22-3.81,34.29-22.87,83.83-11.43,80,3.81-22.86,0-80,11.43-80,11.43s35.3,44.42,26.67,57.16c-6.94,10.26-42.3,10.05-49.54,0-8.81-12.22,22.87-57.16,22.87-57.16S525.33,197.12,510.09,200.93Z"/><path class="cls-1" d="M555.82,231.41a1.92,1.92,0,0,0-1.91,1.91,17.36,17.36,0,0,1-4.38,11.91,9.39,9.39,0,0,0,.57-3.14,9.52,9.52,0,0,0-18.33-3.62,19.53,19.53,0,0,1-.72-5.15c0-8.4,5.38-19,11.43-19a1.91,1.91,0,1,0,0-3.81c-8.58,0-15.24,12.29-15.24,22.86s6.83,19.06,15.24,19.06,15.24-8.55,15.24-19.06A1.91,1.91,0,0,0,555.82,231.41Z"/><path class="cls-1" d="M647.28,232.18a1.91,1.91,0,0,0-1.91,1.9A17.33,17.33,0,0,1,641,246a9.35,9.35,0,0,0,.57-3.14,9.52,9.52,0,0,0-18.33-3.62,19.47,19.47,0,0,1-.72-5.15c0-8.39,5.38-19.05,11.43-19.05a1.91,1.91,0,1,0,0-3.81c-8.58,0-15.24,12.29-15.24,22.86s6.84,19.06,15.24,19.06,15.25-8.55,15.25-19.06A1.91,1.91,0,0,0,647.28,232.18Z"/><path class="cls-1" d="M662.55,189.91c-13.8-9.72-49.21-12.41-76.24,4.93-26.95-17.32-59.71-14.27-72.3-5.39-4.8,3.38-6.85,7.62-5.77,11.94a1.91,1.91,0,0,0,2.31,1.39c12.83-3.21,60.72,7.92,72.61,10.78-6.88,10.09-29.71,45.36-21.27,57.08,4.49,6.22,16.94,8.4,26.66,8.4h.94c4.59-.07,20-.88,25.07-8.45,8.23-12.15-17-46.72-24.84-56.95,12.11-2.35,57.2-10.8,76.61-10.8a1.9,1.9,0,0,0,1.85-1.45C669.21,197.27,667.21,193.2,662.55,189.91ZM611.4,268.46a10.45,10.45,0,0,1-3.85,3.1,7.6,7.6,0,0,0-14.34,3.5c-1.22.09-2.48.15-3.78.17a63.16,63.16,0,0,1-8-.4,7.57,7.57,0,0,0-13.77-4.13,9.53,9.53,0,0,1-2.65-2.29c-5.6-7.77,9.62-35.63,21.41-52.84C599.57,232.59,616.89,260.34,611.4,268.46Zm-25-58c-5.16-1.28-49-12-69.68-12a39.22,39.22,0,0,0-4.87.26c.23-2.62,2.41-4.73,4.4-6.13,12.15-8.56,44.29-10.36,69,6.14a1.89,1.89,0,0,0,2.11,0c25.42-16.94,60.21-14.68,73-5.67,2,1.38,4.14,3.48,4.28,6C641.73,199.53,591.86,209.32,586.35,210.41Z"/><path class="cls-3" d="M621.88,290.18s-3.73-3.76-4.07-6.89c-1-9.28,14.23-13.77,22.36-6.23,3,2.81,4.85,10.58,6.13,15.09"/><path class="cls-1" d="M655,290.49c-.5,0-3.21-.2-7.33-.35a1.88,1.88,0,0,0,.45-1.78c-1.72-6-3.84-10.06-6.68-12.69-5.6-5.2-13.94-5.21-19.27-2.53-4.4,2.21-6.74,6.08-6.27,10.35.27,2.56,2.16,5.19,3.45,6.73-17.27.8-35.78,3.31-43,10.07a9.85,9.85,0,0,0-3.42,7.34,1.91,1.91,0,1,0,3.81,0,6.14,6.14,0,0,1,2.21-4.57c13.45-12.6,75.17-8.81,75.79-8.77a1.88,1.88,0,0,0,2-1.78A1.9,1.9,0,0,0,655,290.49Zm-31.78-1.65c-1.26-1.28-3.34-4-3.54-5.76-.41-3.78,2.8-5.83,4.21-6.54,4.14-2.09,10.62-2.11,15,1.92,2.27,2.11,4.11,5.69,5.6,10.94a1.84,1.84,0,0,0,.34.65c-2.87-.08-6.2-.14-9.84-.15a53.38,53.38,0,0,1-3.86-7.8,1.9,1.9,0,1,0-3.54,1.4,57.15,57.15,0,0,0,3.06,6.41c-2.23,0-4.52.07-6.87.14A1.89,1.89,0,0,0,623.24,288.84Z"/><path class="cls-3" d="M512,214.35a1.77,1.77,0,0,1-.67-.13,159.36,159.36,0,0,1-18.85-8.53,1.9,1.9,0,1,1,1.79-3.36,155.75,155.75,0,0,0,18.4,8.33,1.91,1.91,0,0,1-.67,3.69Z"/><path class="cls-3" d="M493.76,230a1.9,1.9,0,0,1-.3-3.78l18.1-2.92a1.9,1.9,0,1,1,.61,3.76L494.06,230Z"/><path class="cls-3" d="M504.28,247.12a1.88,1.88,0,0,1-1.5-.73,1.91,1.91,0,0,1,.32-2.68l11.28-8.84a1.9,1.9,0,1,1,2.35,3l-11.28,8.85A1.84,1.84,0,0,1,504.28,247.12Z"/><path class="cls-3" d="M659.62,227.25a1.91,1.91,0,0,1-.67-3.69,158.44,158.44,0,0,0,18.41-8.33,1.9,1.9,0,0,1,1.79,3.36,161.36,161.36,0,0,1-18.86,8.54A2,2,0,0,1,659.62,227.25Z"/><path class="cls-3" d="M677.87,242.87a1.56,1.56,0,0,1-.31,0l-18.1-2.91a1.9,1.9,0,1,1,.6-3.76l18.11,2.91a1.9,1.9,0,0,1-.3,3.78Z"/><path class="cls-3" d="M667.35,260a1.86,1.86,0,0,1-1.18-.41l-11.28-8.84a1.91,1.91,0,0,1,2.36-3l11.27,8.85a1.9,1.9,0,0,1-1.17,3.4Z"/></svg>