<svg id="Layer_1" data-name="Layer 1" xmlns="http://www.w3.org/2000/svg" viewBox="0 0 500 350"><defs><style>.cls-1{fill:#ffeded;}.cls-2{fill:#838383;}.cls-3{fill:#27b4bd;}.cls-4{fill:#177379;fill-rule:evenodd;}.cls-5{fill:#fb9494;}.cls-6{fill:#200101;}.cls-7{fill:#e13e3e;}.cls-8{fill:#86c128;}.cls-9{fill:#b7ea63;}.cls-10{fill:#fff;}.cls-11{fill:#e7e5e5;}.cls-12{fill:#dad9d9;}.cls-13{fill:#c4c4c4;}.cls-14{fill:#f9f9f9;}.cls-15{fill:#291a1a;}.cls-16{fill:#4a67fd;}.cls-17{fill:#e0afe8;}.cls-18{fill:#c61a1a;}.cls-19{fill:#ec873e;}.cls-20{fill:#ec863c;}.cls-21{fill:#ffebeb;}.cls-22{fill:#cb5b0b;}</style></defs><rect class="cls-1" width="500" height="350"/><path class="cls-2" d="M205.48,196.19a.48.48,0,0,0-.21-.65l-3.89-2a.49.49,0,0,0-.44.87l3.46,1.74-1.74,3.45a.49.49,0,0,0,.21.65.48.48,0,0,0,.65-.21Zm-37.38,12.5,37.1-12.26-.3-.92-37.11,12.26Z"/><path class="cls-2" d="M181.87,141a.49.49,0,0,0-.53.43l-.48,4.33a.49.49,0,0,0,.43.54.5.5,0,0,0,.53-.43l.43-3.85,3.85.43a.48.48,0,0,0,.53-.43.47.47,0,0,0-.43-.53ZM208,173.41,182.2,141.14l-.76.61L207.25,174Z"/><path class="cls-2" d="M245,160.74a.48.48,0,0,0,.66.15l3.71-2.28a.49.49,0,0,0,.16-.67.48.48,0,0,0-.66-.16l-3.3,2-2-3.3a.49.49,0,0,0-.83.51Zm12.2-52-12.26,51.62.94.22L258.11,109Z"/><path class="cls-3" d="M269.26,270.51c0-5.35-10.77-9.69-24-9.69s-24,4.34-24,9.69V311h0a6.71,6.71,0,0,0,2,4.1,16.73,16.73,0,0,0,5.24,3.4,47.76,47.76,0,0,0,33.48,0,16.73,16.73,0,0,0,5.24-3.4,6.71,6.71,0,0,0,2-4.1h0Z"/><path class="cls-4" d="M269.26,270.19c0-5.35-10.77-9.69-24-9.69s-24,4.34-24,9.69v40.44h0a6.71,6.71,0,0,0,2,4.1,16.54,16.54,0,0,0,5.24,3.39,47.61,47.61,0,0,0,33.48,0,16.54,16.54,0,0,0,5.24-3.39,6.71,6.71,0,0,0,2-4.1h0Zm-1.69,13.06v-9.49c-3.53,3.58-12.21,6.12-22.35,6.12s-18.82-2.54-22.35-6.12v9.49a4.52,4.52,0,0,0,1.57,3.17,14.88,14.88,0,0,0,4.7,2.9,48,48,0,0,0,32.15,0,14.83,14.83,0,0,0,4.71-2.9A4.52,4.52,0,0,0,267.57,283.25Zm0,4v9.09a4.53,4.53,0,0,1-1.57,3.18,15,15,0,0,1-4.71,2.9,48,48,0,0,1-32.15,0,15.06,15.06,0,0,1-4.7-2.9,4.53,4.53,0,0,1-1.57-3.18v-9.09c.12.14.25.27.39.41a16.37,16.37,0,0,0,5.23,3.25,49.55,49.55,0,0,0,33.46,0,16.48,16.48,0,0,0,5.23-3.25C267.32,287.48,267.45,287.35,267.57,287.21Zm0,13.06a4.89,4.89,0,0,1-.39.4,16.49,16.49,0,0,1-5.23,3.26,49.71,49.71,0,0,1-33.46,0,16.38,16.38,0,0,1-5.23-3.26,4.89,4.89,0,0,1-.39-.4v9.93a4.83,4.83,0,0,0,1.58,3.35,14.85,14.85,0,0,0,4.71,3,46.07,46.07,0,0,0,32.12,0,14.68,14.68,0,0,0,4.7-3,4.85,4.85,0,0,0,1.59-3.35Z"/><path class="cls-5" d="M245.75,170.9c-13.05,0-16.88,10-17.82,16.74s-12,4.68-12,0c0-6.33,19.48-30.62,15.79-40-2.1-5.32-7.46-9.2-13.13-8.76-4.68.35-9.64,4.27-12.5,7.27-3.88,4.07,0,8.77,0,8.77s-2.65,5.16,0,9.23a7.34,7.34,0,0,0,8.36,3.37l-3.05-10s7.19-19.87,12.35-5.4c2.87,8.06-20.4,31.61-13.13,43.35,4.87,7.86,18.68-1.8,23.52,2.42s8.91,7.44,8.91,7.44h2.66V201l34.15-8.92S258.8,170.9,245.75,170.9Z"/><path class="cls-1" d="M211.42,157.45s1.08-1.94-1.26-5-1.15-5-3.95-2.07c-1.56,1.64,0,4.57,0,4.57s-2.6,5.08,0,9.08a7.18,7.18,0,0,0,8.2,3.31Z"/><path class="cls-5" d="M212.44,168.05a7.69,7.69,0,0,1-6.64-3.79c-2.44-3.76-.62-8.29-.13-9.35-.35-.77-1.33-3.3.18-4.9,1.15-1.2,1.71-1.72,2.29-1.62s.73.58,1,1.25a10.89,10.89,0,0,0,1.39,2.47c2.1,2.78,1.63,4.75,1.39,5.37L215,167.61l-.45.15A7.2,7.2,0,0,1,212.44,168.05ZM208,149.37a9.32,9.32,0,0,0-1.39,1.31c-1.29,1.36.06,4,.07,4l.12.22-.11.23c0,.05-2.44,4.88,0,8.6A6.69,6.69,0,0,0,213.8,167l-2.9-9.57.09-.17c0-.09.86-1.77-1.22-4.52a11.82,11.82,0,0,1-1.5-2.68A5.65,5.65,0,0,0,208,149.37Z"/><path class="cls-6" d="M214.41,167.61l-1.83-5.72s-9-1.92-6.41,2.26C209.43,169.38,214.41,167.61,214.41,167.61Z"/><path class="cls-7" d="M245.79,246.29v17.92s-4.56,6.83-1.71,9.2c3,2.51,3.88-9.2,3.88-9.2s.34-6.67,1-16.51c.14-2.3,1.31-4.55,1.29-6.58-.06-5.32-4.43-35.79-4.43-35.79h-1.71l2.8,32.42s-2.38,1.71-2.8,3.37C243.1,245,245.79,246.29,245.79,246.29Z"/><path class="cls-7" d="M272,219.81,256.47,198l3.24-1.09,17.93,24.61s-35.65,2.83-37.16,2.83c-3.84,0-1.72,12.92-3.24,9.37-3.46-8.06,0-11.11,0-11.11Z"/><circle class="cls-6" cx="207.79" cy="154.19" r="0.81"/><path class="cls-8" d="M152.3,96.31,161.49,86,168,91.76,171.5,91l3.87,6.78h3.55l1.45,6.75h3.87l1.13,5.61h4.52l-1.43,5.54,3,2.26-5,6.44,2.58,1.14-5.75,3.23.91,2.64-5.32,1.86s.5,1.94-1,2.44c-9.9,3.36-11.62-1.29-14.68-1.29-4.36,0-11,7.58-24-1.15-1.5-1,4.2-1.86,4.2-1.86l-7-5.14,2.8-1.87-4.2-7.7h3v-6.54h2.8l1.17-7,4,1.4,2.57-8.17Z"/><path class="cls-9" d="M163,153.73,160.85,86l1.29,0,1.42,45.85c3.37-2.06,15-9.79,19.44-20.74l1.19.48c-5,12.29-18.21,20.37-20.59,21.74l.64,20.43Z"/><path class="cls-9" d="M163,118.07l-.81-1c3.93-3.19,14.23-12.24,14.6-15.86l1.29.13c-.22,2.1-2.84,5.57-7.8,10.3C166.68,115.11,163.07,118,163,118.07Z"/><path class="cls-9" d="M162.22,104.5l-.16-1.28c.2,0,4.92-.76,6.87-9.19l1.26.29C168,103.69,162.45,104.47,162.22,104.5Z"/><path class="cls-9" d="M162.49,133.53c-.42-.09-10.38-2.34-20.26-18l1.1-.68c9.55,15.18,19.33,17.43,19.43,17.45Z"/><path class="cls-9" d="M162,115.78c-.39-.09-9.52-2.25-14-9.82l1.11-.65c4.16,7.08,13.05,9.19,13.14,9.21Z"/><path class="cls-9" d="M161.47,106.41c-8.06-2.4-6.11-12.11-6.09-12.2l1.26.26a14,14,0,0,0,0,4.67,7.13,7.13,0,0,0,5.21,6Z"/><path class="cls-10" d="M178,38c2.66-15.6,25.08-2.28,25.08-2.28s13.3-17.51,28.12,2.28c9.87,13.17,11.78-3.24,20.9,10.46,5.73,8.61-14.78,27-29.64,25.88-8.67-.65-21.28-9.71-21.28-9.71s-24.45,9.56-28.88,1.15c-4.32-8.21,9.31-18.46,9.31-18.46S177.37,41.89,178,38Z"/><path class="cls-11" d="M327.31,188.07c2.48-15.61,23.4-2.28,23.4-2.28s19.58-12.64,26.24,2.28c4.16,9.33,16.2,1.87,16.2,20,0,10.61-12.18,9.22-24.36,16.42-9.36,5.54-19.85-9.71-19.85-9.71s-22.82,9.57-26.95,1.14c-4-8.21,8.69-18.47,8.69-18.47S326.68,192,327.31,188.07Z"/><path class="cls-12" d="M210.35,61.43a31.6,31.6,0,0,1-13.62-3c-3.69-1.85-6.11-4.36-7-7.27a3,3,0,0,1,.49-2.87c1.4-1.78,5.14-2.86,11.12-3.21a79.12,79.12,0,0,1,8.42,0l-.08,1.29c-4.33-.26-16.09-.27-18.45,2.73a1.71,1.71,0,0,0-.27,1.69c.79,2.56,3,4.81,6.35,6.49,6,3,14.85,3.76,20.55,1.72,4.6-1.64,9.53-8.34,9.58-8.4l1,.76c-.21.28-5.21,7.08-10.18,8.86A24.31,24.31,0,0,1,210.35,61.43Z"/><path class="cls-13" d="M364,211.78a24.27,24.27,0,0,1-8-1.21c-5-1.78-10-8.57-10.18-8.86l1-.76c.05.06,5,6.76,9.57,8.4,5.71,2,14.54,1.3,20.56-1.71,3.36-1.69,5.56-3.94,6.35-6.5a1.72,1.72,0,0,0-.28-1.69c-2.36-3-14.12-3-18.45-2.73l-.07-1.29a82.11,82.11,0,0,1,8.41,0c6,.35,9.73,1.43,11.13,3.21a3,3,0,0,1,.49,2.87c-.9,2.91-3.32,5.42-7,7.27A31.63,31.63,0,0,1,364,211.78Z"/><path class="cls-2" d="M216.18,80a.48.48,0,0,0-.42-.54l-4.32-.57a.48.48,0,0,0-.54.41.47.47,0,0,0,.42.54l3.83.51-.5,3.84a.47.47,0,0,0,.41.54.49.49,0,0,0,.55-.41ZM187,102.56,216,80.3l-.59-.77-29,22.26Z"/><path class="cls-2" d="M299.75,140.5a.5.5,0,0,0-.46-.51l-4.35-.24a.48.48,0,0,0-.51.45.49.49,0,0,0,.46.52l3.86.21-.22,3.87a.49.49,0,1,0,1,0Zm-33.4,30,33.23-29.68-.64-.72L265.71,169.8Z"/><rect class="cls-14" x="305.39" y="116.92" width="12.58" height="24.2" rx="0.65"/><path class="cls-15" d="M317.33,141.77H306a1.29,1.29,0,0,1-1.29-1.29V117.57a1.29,1.29,0,0,1,1.29-1.29h11.29a1.29,1.29,0,0,1,1.29,1.29v22.91A1.29,1.29,0,0,1,317.33,141.77ZM306,117.57h0v22.91h11.29V117.57Z"/><rect class="cls-12" x="307.65" y="120.8" width="6.78" height="1.61" rx="0.65"/><rect class="cls-12" x="307.65" y="123.05" width="8.71" height="2.26" rx="0.65"/><circle class="cls-16" cx="307.01" cy="125.31" r="0.65"/><path class="cls-13" d="M306,137.57h11.29v2.91H306Z"/><path class="cls-13" d="M267.48,100.31,266,88.69l2.26-4.84,14.51-4,1.62,2.36-10,8.29-4.36,10.81Z"/><path class="cls-13" d="M232.55,77.24s-1.32-12.25.73-13.84,14.84-4.87,14.84-4.87L246.83,56l2.55-1.77,2.92,2.93,5-2L256,52.42l2.42-1,3.06,1.93,14.06-3.87,1.75,2.93L245.54,72.88l-7.74,31.78-3.39-2.09-1.86-10.91-3.66-.88-.73-3.66,3.8,1v-7l-3.8-1.77.73-3.39Z"/><path class="cls-2" d="M258.61,86.43c-3.87-1.12-20.13-11.67-20.13-11.67s-28.14-19.24-25.14-23.14c3.89-5,31.56,14.4,31.56,14.4S261,76.27,263.77,79.18c4.11,4.34,15.42,11.18,14.05,12.93S263.42,87.84,258.61,86.43Z"/><polygon class="cls-17" points="106.85 235.53 117.89 222.76 118.63 223.39 109.02 234.5 163.23 232.92 174.07 222.72 174.73 223.43 163.63 233.88 106.85 235.53"/><rect class="cls-17" x="117.94" y="177.58" width="56.46" height="45.82"/><path class="cls-18" d="M146.35,214.36C137.26,214.25,135,212,135,212V199.52H157.3v13S155.44,214.46,146.35,214.36Z"/><path class="cls-15" d="M147,228.72h-.7c-9.27-.2-11.64-4.53-11.73-4.72l-.06-.1V199.68h23.23v25.13l-.05.1C157.65,225.07,155.73,228.72,147,228.72Zm-11.52-5.09c.39.6,2.93,3.94,10.84,4.11s10.11-2.64,10.46-3.17V200.65h-21.3Z"/><path class="cls-13" d="M157.14,199.68c0,.09-.09.33-.66.65a9.4,9.4,0,0,1-2.33.82,40.75,40.75,0,0,1-16,0,9.72,9.72,0,0,1-2.33-.82c-.56-.32-.65-.56-.65-.65s.09-.33.65-.64a9.67,9.67,0,0,1,2.33-.83,40.75,40.75,0,0,1,16,0,9.35,9.35,0,0,1,2.33.83C157.05,199.35,157.14,199.59,157.14,199.68Z"/><path d="M146.17,202.42a36.34,36.34,0,0,1-8.1-.8,9.68,9.68,0,0,1-2.46-.87c-.59-.34-.9-.7-.9-1.07s.31-.73.9-1.07a10.09,10.09,0,0,1,2.46-.87,41.41,41.41,0,0,1,16.2,0,9.84,9.84,0,0,1,2.45.87c.6.34.9.7.9,1.07s-.3.73-.9,1.07a9.45,9.45,0,0,1-2.45.87A36.4,36.4,0,0,1,146.17,202.42Zm-10.41-2.74a2.13,2.13,0,0,0,.33.23,9,9,0,0,0,2.2.77,40.14,40.14,0,0,0,15.75,0,9.23,9.23,0,0,0,2.21-.77,2.8,2.8,0,0,0,.33-.23,3,3,0,0,0-.33-.22,9.18,9.18,0,0,0-2.21-.78,40.65,40.65,0,0,0-15.75,0,8.92,8.92,0,0,0-2.2.78A2.27,2.27,0,0,0,135.76,199.68Z"/><circle class="cls-19" cx="146.33" cy="214.36" r="3.87"/><path d="M153.2,199.3l-.87-.25a8.82,8.82,0,0,0-1.07-.21,34.21,34.21,0,0,0-8.89,0,8.82,8.82,0,0,0-1.07.21l-.87.25-.8.22.8.22.87.25c.29.08.65.15,1.07.22a35.42,35.42,0,0,0,8.89,0c.42-.07.78-.14,1.07-.22l.86-.24.81-.23Z"/><path class="cls-14" d="M145,207.75a10.09,10.09,0,0,1-1.39-.1,5.43,5.43,0,0,1-4.45-3.09l.89-.4c1.5,3.38,6.31,2.52,6.36,2.51l6.33-1.19.18,1-6.33,1.19A8.77,8.77,0,0,1,145,207.75Z"/><path class="cls-2" d="M228.26,247.94a.49.49,0,0,0,.69,0l3.08-3.08a.51.51,0,0,0,0-.69.49.49,0,0,0-.69,0l-2.74,2.74-2.73-2.74a.49.49,0,1,0-.69.69Zm-.14-44.55v44.2h1v-44.2Z"/><path class="cls-2" d="M258,224a.48.48,0,0,0-.68,0l-3.08,3.08a.49.49,0,0,0,0,.69.48.48,0,0,0,.68,0l2.74-2.74,2.74,2.74a.48.48,0,0,0,.68,0,.49.49,0,0,0,0-.69Zm.15,23.57V224.36h-1v23.23Z"/><path class="cls-10" d="M341,187.24s-2.2,7.13-.66,9.12c2.12,2.71,21.39,0,21.39,0v-9.12Z"/><path class="cls-10" d="M334.11,174c0,6.27,6.7,13.23,6.7,13.23h21.32s14-5.07,11.94-10.82c-.74-2.08-3.57-4.41-3.57-4.41l-4-9.72s-7-4.62-11.39-5.52c-6.85-1.4-12.27,6.59-12.27,6.59S334.11,166.59,334.11,174Z"/><path class="cls-12" d="M344.94,188c-6.83-3.54-7-12-7-12.32h1.29c0,.08.13,8,6.27,11.19Zm3.24-.91-5.12-21.85,1.26-.3,5.11,21.86Zm9.28-.14h-1.29a55.33,55.33,0,0,1,1-9.45c1.29-6.73,3.63-11.1,6.94-13l.63,1.12C357.55,169.67,357.46,186.74,357.46,186.92Zm4.08-2.77c-.7-5.06,8.41-12.06,8.8-12.36l.78,1c-2.48,1.89-8.8,7.57-8.3,11.15ZM353.13,181l-1.24-.37c0-.13,3.87-13.46,1-19.21l1.16-.57C357.14,167,353.3,180.4,353.13,181Z"/><rect class="cls-12" x="340.88" y="186.78" width="20.33" height="1.29"/><path class="cls-2" d="M314.8,207.58a.5.5,0,0,0-.06-.69l-3.33-2.8a.48.48,0,0,0-.68,0,.49.49,0,0,0,0,.69l3,2.49-2.49,3a.49.49,0,0,0,.74.63Zm-30.66,2.75,30.33-2.58-.09-1-30.32,2.58Z"/><path class="cls-2" d="M276.9,198.31a.49.49,0,0,0,.18.66l3.76,2.19a.49.49,0,0,0,.67-.17.5.5,0,0,0-.18-.67L278,198.38l1.95-3.35a.48.48,0,0,0-.17-.66.5.5,0,0,0-.67.17Zm39.34-10.55-39,10.33.25.93,39-10.32Z"/><path class="cls-20" d="M371.69,103.37l5.63,10-3.85,16.57-8.23-10.23L359,122.41s1.2-15.27-1-10.33c-2.9,6.62-9.52,11.51-9.52,11.51l-2.74-6.5S334,136,325.55,129.9s7.61-25.59,7.61-25.59-5.09-15.8,0-25.46c5.56-10.54,11.24-12.52,22.89-10C373.33,72.59,371.69,103.37,371.69,103.37Z"/><circle class="cls-14" cx="338.79" cy="98.37" r="4.03"/><path class="cls-21" d="M359.54,93.68l-.23-.94c.75-.18,2.94-.94,3.11-1.95.09-.57-.47-1.26-1.64-2-1.57-1-2-3-2.39-4.72s-.78-3.48-2.27-3.76a1.88,1.88,0,0,0-1.86.43c-1.35,1.49-.46,5.92,0,7.51l-.93.26a23.52,23.52,0,0,1-.64-3.3c-.28-2.45,0-4.17.87-5.12a2.76,2.76,0,0,1,2.75-.73c2.12.39,2.58,2.48,3,4.5.37,1.63.74,3.32,2,4.11,1.54,1,2.24,2,2.07,3C363.07,92.77,359.9,93.59,359.54,93.68Z"/><circle cx="337.49" cy="99.66" r="1.45"/><path class="cls-22" d="M334.43,97.24c2.32,0,4.19.81,8.39,0a4.2,4.2,0,0,0-8.39,0Z"/><path class="cls-2" d="M197.94,138.06a.5.5,0,0,0,.5-.48l.09-4.35a.5.5,0,0,0-.48-.5.48.48,0,0,0-.49.48l-.08,3.87-3.87-.08a.49.49,0,1,0,0,1Zm-8.08-8.22,7.74,8.07.7-.67-7.74-8.07Z"/></svg>