<svg id="Layer_1" data-name="Layer 1" xmlns="http://www.w3.org/2000/svg" viewBox="0 0 495.92 495.92"><defs><style>.cls-1{fill:#ffeded;}.cls-2{fill:#838383;}.cls-3{fill:#27b4bd;}.cls-4{fill:#177379;fill-rule:evenodd;}.cls-5{fill:#fb9494;}.cls-6{fill:#200101;}.cls-7{fill:#e13e3e;}.cls-8{fill:#86c128;}.cls-9{fill:#b7ea63;}.cls-10{fill:#fff;}.cls-11{fill:#e7e5e5;}.cls-12{fill:#dad9d9;}.cls-13{fill:#c4c4c4;}.cls-14{fill:#f9f9f9;}.cls-15{fill:#291a1a;}.cls-16{fill:#4a67fd;}.cls-17{fill:#e0afe8;}.cls-18{fill:#c61a1a;}.cls-19{fill:#ec873e;}.cls-20{fill:#ec863c;}.cls-21{fill:#ffebeb;}.cls-22{fill:#cb5b0b;}</style></defs><rect class="cls-1" width="495.92" height="495.92"/><path class="cls-2" d="M188.78,282.79a.67.67,0,0,0-.3-.89l-5.34-2.69a.67.67,0,0,0-.6,1.19l4.75,2.39-2.39,4.75a.66.66,0,0,0,1.19.59ZM137.47,300l50.92-16.82-.42-1.26-50.92,16.82Z"/><path class="cls-2" d="M156.38,207a.66.66,0,0,0-.74.58l-.66,5.94a.66.66,0,1,0,1.32.15l.59-5.28,5.28.59a.67.67,0,0,0,.73-.59.66.66,0,0,0-.58-.73Zm35.86,44.52-35.42-44.28-1,.83,35.43,44.28Z"/><path class="cls-2" d="M243,234.14a.65.65,0,0,0,.91.21l5.09-3.13a.66.66,0,1,0-.7-1.13l-4.52,2.79L241,228.35a.66.66,0,0,0-1.13.7Zm16.74-71.35-16.83,70.85,1.3.3L261,163.1Z"/><path class="cls-3" d="M276.3,384.79c0-7.34-14.77-13.3-33-13.3s-33,6-33,13.3v55.5h0a9.19,9.19,0,0,0,2.81,5.62,22.54,22.54,0,0,0,7.19,4.67c5.94,2.59,14.06,4.16,23,4.16s17-1.57,23-4.16a22.54,22.54,0,0,0,7.19-4.67,9.17,9.17,0,0,0,2.8-5.62h0Z"/><path class="cls-4" d="M276.3,384.35c0-7.35-14.77-13.3-33-13.3s-33,5.95-33,13.3v55.49h0a9.21,9.21,0,0,0,2.81,5.63,22.53,22.53,0,0,0,7.19,4.66c5.94,2.59,14.06,4.17,23,4.17s17-1.58,23-4.17a22.53,22.53,0,0,0,7.19-4.66,9.2,9.2,0,0,0,2.8-5.63h0ZM274,402.27v-13c-4.84,4.92-16.75,8.39-30.67,8.39s-25.83-3.47-30.67-8.39v13a6.22,6.22,0,0,0,2.15,4.35,20.42,20.42,0,0,0,6.46,4c5.59,2.34,13.38,3.81,22.06,3.81s16.47-1.47,22.06-3.81a20.25,20.25,0,0,0,6.45-4A6.2,6.2,0,0,0,274,402.27Zm0,5.44v12.48a6.2,6.2,0,0,1-2.16,4.35,20.25,20.25,0,0,1-6.45,4c-5.59,2.34-13.39,3.81-22.06,3.81s-16.47-1.47-22.06-3.81a20.42,20.42,0,0,1-6.46-4,6.22,6.22,0,0,1-2.15-4.35V407.71c.17.19.34.37.53.56a22.81,22.81,0,0,0,7.19,4.47c5.93,2.47,14,4,22.95,4s17-1.51,22.95-4a22.81,22.81,0,0,0,7.19-4.47C273.64,408.08,273.81,407.9,274,407.71Zm0,17.92c-.17.19-.34.37-.53.56a22.63,22.63,0,0,1-7.19,4.47c-5.93,2.48-14,4-22.95,4s-17-1.5-22.95-4a22.63,22.63,0,0,1-7.19-4.47c-.19-.19-.36-.37-.53-.56v13.64a6.63,6.63,0,0,0,2.17,4.59,20.31,20.31,0,0,0,6.45,4.16c5.59,2.43,13.38,4,22.05,4s16.46-1.53,22-4a20.36,20.36,0,0,0,6.46-4.16,6.67,6.67,0,0,0,2.17-4.59Z"/><path class="cls-5" d="M244,248.09c-17.91,0-23.17,13.74-24.46,23s-16.41,6.41-16.41,0c0-8.7,26.74-42,21.67-54.87-2.88-7.3-10.24-12.63-18-12-6.42.49-13.23,5.86-17.16,10-5.32,5.59,0,12,0,12s-3.64,7.09,0,12.67a10.08,10.08,0,0,0,11.48,4.62L197,229.73s9.87-27.28,17-7.41c3.94,11.06-28,43.38-18,59.49,6.68,10.78,25.63-2.47,32.28,3.33s12.23,10.2,12.23,10.2H244v-5.91l46.87-12.24S262,248.09,244,248.09Z"/><path class="cls-1" d="M196.92,229.63s1.48-2.67-1.73-6.92-1.57-6.89-5.42-2.83c-2.13,2.24,0,6.26,0,6.26s-3.57,7,0,12.47A9.85,9.85,0,0,0,201,243.15Z"/><path class="cls-5" d="M198.33,244.18a10.56,10.56,0,0,1-9.12-5.21c-3.34-5.15-.84-11.37-.18-12.83-.48-1-1.83-4.52.26-6.72,1.56-1.65,2.33-2.36,3.14-2.22s1,.79,1.38,1.71a15.07,15.07,0,0,0,1.91,3.4c2.87,3.8,2.23,6.51,1.91,7.36l4.22,13.9-.61.21A10,10,0,0,1,198.33,244.18Zm-6.16-25.64a13.7,13.7,0,0,0-1.92,1.79c-1.77,1.87.09,5.46.11,5.5l.16.3-.16.31c0,.07-3.35,6.71,0,11.81s8.16,4.79,9.86,4.43l-4-13.13.14-.24c.06-.12,1.18-2.42-1.68-6.2a17,17,0,0,1-2.07-3.67A9,9,0,0,0,192.17,218.54Z"/><path class="cls-6" d="M201,243.58l-2.5-7.86s-12.38-2.64-8.8,3.11C194.2,246,201,243.58,201,243.58Z"/><path class="cls-7" d="M244.09,351.55v24.59s-6.26,9.38-2.34,12.62c4.17,3.45,5.32-12.62,5.32-12.62s.47-9.15,1.33-22.65c.2-3.17,1.8-6.25,1.77-9-.08-7.31-6.08-49.12-6.08-49.12h-2.34l3.84,44.5s-3.27,2.34-3.84,4.62C240.4,349.83,244.09,351.55,244.09,351.55Z"/><path class="cls-7" d="M280.1,315.21l-21.35-29.89,4.45-1.5,24.61,33.78s-48.93,3.88-51,3.88c-5.27,0-2.35,17.74-4.44,12.86-4.75-11.06,0-15.25,0-15.25Z"/><circle class="cls-6" cx="191.95" cy="225.16" r="1.11"/><path class="cls-8" d="M115.79,145.72l12.62-14.21,8.85,8,4.87-1.11,5.32,9.3h4.87l2,9.27h5.31l1.55,7.69h6.2l-2,7.61,4.16,3.1-6.85,8.84,3.55,1.57-7.9,4.43,1.25,3.61-7.3,2.57S153,199,151,199.7c-13.58,4.61-15.94-1.78-20.15-1.78-6,0-15,10.41-33-1.56-2-1.37,5.76-2.57,5.76-2.57l-9.6-7,3.84-2.56L92.1,173.6h4.16v-9h3.84l1.6-9.61,5.45,1.92,3.52-11.22Z"/><path class="cls-9" d="M130.4,224.52l-2.88-93,1.77-.05,2,62.93c4.62-2.83,20.6-13.44,26.68-28.48l1.64.67c-6.82,16.86-25,28-28.26,29.84l.87,28Z"/><path class="cls-9" d="M130.51,175.59l-1.11-1.38c5.4-4.37,19.53-16.8,20-21.76l1.77.18c-.3,2.88-3.9,7.63-10.71,14.14C135.53,171.52,130.56,175.55,130.51,175.59Z"/><path class="cls-9" d="M129.4,157l-.21-1.76c.26,0,6.74-1,9.42-12.6l1.73.4C137.36,155.85,129.72,156.92,129.4,157Z"/><path class="cls-9" d="M129.77,196.8c-.57-.12-14.24-3.2-27.79-24.75l1.5-.94c13.1,20.84,26.53,23.93,26.66,24Z"/><path class="cls-9" d="M129.1,172.44c-.53-.12-13.07-3.08-19.17-13.48l1.53-.89c5.71,9.72,17.91,12.62,18,12.65Z"/><path class="cls-9" d="M128.38,159.59c-11.06-3.3-8.4-16.62-8.37-16.75l1.74.36a18.63,18.63,0,0,0,0,6.41c.79,4.32,3.2,7.1,7.15,8.28Z"/><path class="cls-10" d="M151.12,65.63c3.65-21.41,34.41-3.13,34.41-3.13s18.26-24,38.59,3.13c13.55,18.08,16.17-4.44,28.69,14.36,7.86,11.81-20.29,37-40.68,35.51-11.9-.89-29.2-13.32-29.2-13.32s-33.56,13.12-39.64,1.57c-5.92-11.27,12.78-25.33,12.78-25.33S150.19,71,151.12,65.63Z"/><path class="cls-11" d="M356,271.65c3.4-21.43,32.11-3.13,32.11-3.13s26.87-17.35,36,3.13c5.71,12.81,22.24,2.56,22.24,27.38,0,14.56-16.73,12.65-33.44,22.54-12.84,7.6-27.24-13.33-27.24-13.33s-31.32,13.13-37,1.57c-5.53-11.28,11.92-25.35,11.92-25.35S355.1,277.07,356,271.65Z"/><path class="cls-12" d="M195.46,97.85a43.33,43.33,0,0,1-18.7-4.1c-5-2.53-8.38-6-9.61-10a4.16,4.16,0,0,1,.67-3.93c1.92-2.45,7.06-3.93,15.27-4.4a113.33,113.33,0,0,1,11.55,0l-.1,1.77c-5.95-.35-22.09-.37-25.32,3.75a2.39,2.39,0,0,0-.38,2.32c1.09,3.52,4.1,6.6,8.71,8.92,8.26,4.13,20.39,5.15,28.22,2.35,6.31-2.25,13.07-11.44,13.13-11.53l1.44,1c-.29.4-7.15,9.72-14,12.16A33.05,33.05,0,0,1,195.46,97.85Z"/><path class="cls-13" d="M406.29,304.19a33.11,33.11,0,0,1-10.91-1.66c-6.83-2.44-13.69-11.77-14-12.16l1.43-1.05c.06.1,6.83,9.29,13.14,11.54,7.83,2.79,19.95,1.78,28.21-2.36,4.61-2.31,7.62-5.39,8.71-8.92a2.32,2.32,0,0,0-.38-2.31c-3.23-4.12-19.37-4.11-25.32-3.75l-.1-1.77a115,115,0,0,1,11.55,0c8.21.48,13.35,2,15.27,4.41a4.13,4.13,0,0,1,.67,3.93c-1.23,4-4.55,7.44-9.61,10A43.43,43.43,0,0,1,406.29,304.19Z"/><path class="cls-2" d="M203.45,123.31a.65.65,0,0,0-.57-.74l-5.92-.79a.67.67,0,0,0-.18,1.32l5.27.7-.7,5.26a.67.67,0,0,0,.58.75.66.66,0,0,0,.74-.57Zm-40.1,31,39.85-30.55-.81-1-39.85,30.55Z"/><path class="cls-2" d="M318.14,206.37a.67.67,0,0,0-.63-.7l-6-.33a.66.66,0,1,0-.07,1.32l5.3.3-.29,5.31a.66.66,0,1,0,1.32.07Zm-45.83,41.2,45.61-40.74-.89-1-45.6,40.74Z"/><rect class="cls-14" x="325.89" y="174.01" width="17.27" height="33.21" rx="0.89"/><path class="cls-15" d="M342.27,208.11h-15.5a1.78,1.78,0,0,1-1.77-1.77V174.9a1.77,1.77,0,0,1,1.77-1.77h15.5A1.77,1.77,0,0,1,344,174.9v31.44A1.77,1.77,0,0,1,342.27,208.11Zm-15.5-33.21h0v31.44h15.5V174.9Z"/><rect class="cls-12" x="328.99" y="179.33" width="9.3" height="2.21" rx="0.89"/><rect class="cls-12" x="328.99" y="182.43" width="11.96" height="3.1" rx="0.89"/><circle class="cls-16" cx="328.1" cy="185.53" r="0.89"/><path class="cls-13" d="M326.77,202.35h15.5v4h-15.5Z"/><path class="cls-13" d="M273.86,151.21l-2-15.94,3.1-6.64,19.92-5.54,2.22,3.25-13.73,11.37-6,14.83Z"/><path class="cls-13" d="M225.92,119.55s-1.8-16.82,1-19,20.36-6.69,20.36-6.69l-1.77-3.54L249,87.9l4,4,6.88-2.7-1.77-3.73,3.32-1.36,4.21,2.66L285,81.47l2.41,4-43.62,28.08-10.62,43.62-4.65-2.88-2.56-15-5-1.2-1-5,5.22,1.41v-9.66l-5.22-2.43,1-4.65Z"/><path class="cls-2" d="M261.68,132.17c-5.31-1.55-27.62-16-27.62-16s-38.62-26.4-34.5-31.76c5.33-6.93,43.31,19.76,43.31,19.76s22.14,14.07,25.9,18.06c5.63,6,21.15,15.35,19.28,17.75S268.29,134.1,261.68,132.17Z"/><polygon class="cls-17" points="53.41 336.78 68.57 319.25 69.58 320.12 56.4 335.36 130.79 333.2 145.66 319.2 146.57 320.17 131.34 334.51 53.41 336.78"/><rect class="cls-17" x="68.63" y="257.26" width="77.49" height="62.88"/><path class="cls-18" d="M107.63,307.73c-12.48-.14-15.53-3.24-15.53-3.24V287.37h30.55v17.8S120.1,307.87,107.63,307.73Z"/><path class="cls-15" d="M108.57,327.44h-.95c-12.73-.28-16-6.23-16.11-6.48l-.08-.14V287.59h31.89v34.48l-.07.14C123.14,322.43,120.5,327.44,108.57,327.44Zm-15.81-7c.54.81,4,5.4,14.88,5.64s13.88-3.63,14.35-4.36V288.92H92.76Z"/><path class="cls-13" d="M122.43,287.59c0,.12-.13.45-.9.88a12.59,12.59,0,0,1-3.19,1.13,49.26,49.26,0,0,1-11,1.09,49.23,49.23,0,0,1-11-1.09,12.59,12.59,0,0,1-3.19-1.13c-.77-.43-.9-.76-.9-.88s.13-.45.9-.89a13,13,0,0,1,3.19-1.13,49.9,49.9,0,0,1,11-1.08,49.93,49.93,0,0,1,11,1.08,13,13,0,0,1,3.19,1.13C122.3,287.14,122.43,287.46,122.43,287.59Z"/><path d="M107.37,291.35a50.11,50.11,0,0,1-11.11-1.1,13.52,13.52,0,0,1-3.37-1.2c-.82-.46-1.23-.95-1.23-1.46s.41-1,1.23-1.47a13.17,13.17,0,0,1,3.37-1.19,50.06,50.06,0,0,1,11.11-1.11,50.09,50.09,0,0,1,11.12,1.11,13.17,13.17,0,0,1,3.37,1.19q1.23.7,1.23,1.47c0,.51-.41,1-1.23,1.46a13.52,13.52,0,0,1-3.37,1.2A50.15,50.15,0,0,1,107.37,291.35Zm-14.28-3.76a3.46,3.46,0,0,0,.46.31,12.53,12.53,0,0,0,3,1.06,49.16,49.16,0,0,0,10.8,1.06A49.19,49.19,0,0,0,118.18,289a12.69,12.69,0,0,0,3-1.06,3.46,3.46,0,0,0,.46-.31,2.69,2.69,0,0,0-.46-.31,12.26,12.26,0,0,0-3-1.06,48.54,48.54,0,0,0-10.81-1.07,48.5,48.5,0,0,0-10.8,1.07,12.11,12.11,0,0,0-3,1.06A2.69,2.69,0,0,0,93.09,287.59Z"/><circle class="cls-19" cx="107.6" cy="307.73" r="5.31"/><path d="M117,287.06l-1.19-.33a11.58,11.58,0,0,0-1.46-.3,48,48,0,0,0-12.21,0,11.4,11.4,0,0,0-1.47.3l-1.19.33-1.1.31,1.1.3,1.19.34a13.41,13.41,0,0,0,1.47.3,49.23,49.23,0,0,0,12.21,0,13.68,13.68,0,0,0,1.46-.3l1.19-.34,1.1-.3Z"/><path class="cls-14" d="M105.7,298.66a13.42,13.42,0,0,1-1.91-.14,7.4,7.4,0,0,1-6.1-4.24l1.21-.54c2.06,4.64,8.67,3.45,8.73,3.44l8.7-1.64.24,1.3-8.69,1.64A12.24,12.24,0,0,1,105.7,298.66Z"/><path class="cls-2" d="M220,353.81a.66.66,0,0,0,.94,0l4.22-4.23a.66.66,0,0,0,0-.94.68.68,0,0,0-.94,0l-3.75,3.76-3.76-3.76a.68.68,0,0,0-.94,0,.66.66,0,0,0,0,.94Zm-.2-61.13v60.66h1.33V292.68Z"/><path class="cls-2" d="M260.83,321a.66.66,0,0,0-.94,0l-4.23,4.23a.66.66,0,1,0,.94.94l3.76-3.76,3.75,3.76a.66.66,0,1,0,.94-.94Zm.19,32.35V321.46h-1.33v31.88Z"/><path class="cls-10" d="M374.71,270.51s-3,9.79-.91,12.51c2.9,3.73,29.35,0,29.35,0V270.51Z"/><path class="cls-10" d="M365.3,252.36c0,8.6,9.19,18.15,9.19,18.15h29.26s19.2-6.95,16.39-14.84c-1-2.86-4.9-6.06-4.9-6.06l-5.52-13.33s-9.63-6.35-15.62-7.58c-9.41-1.92-16.85,9-16.85,9S365.3,242.17,365.3,252.36Z"/><path class="cls-12" d="M380.16,271.52c-9.37-4.87-9.55-16.42-9.55-16.91h1.77c0,.1.18,11,8.6,15.34Zm4.45-1.25-7-30,1.73-.4,7,30Zm12.74-.2h-1.77a76,76,0,0,1,1.31-13c1.78-9.25,5-15.24,9.52-17.81l.87,1.54C397.47,246.4,397.35,269.83,397.35,270.07Zm5.59-3.8c-1-6.94,11.54-16.55,12.08-17l1.07,1.41c-3.4,2.6-12.07,10.4-11.39,15.31ZM391.4,261.9l-1.7-.49c.06-.19,5.31-18.49,1.39-26.37l1.59-.79C396.9,242.75,391.63,261.12,391.4,261.9Z"/><rect class="cls-12" x="374.59" y="269.88" width="27.9" height="1.77"/><path class="cls-2" d="M338.79,298.42a.65.65,0,0,0-.08-.93l-4.57-3.86a.66.66,0,0,0-.85,1l4.06,3.42-3.42,4.06a.66.66,0,1,0,1,.86Zm-42.07,3.78,41.62-3.55-.11-1.32-41.62,3.54Z"/><path class="cls-2" d="M286.79,285.7a.67.67,0,0,0,.24.91l5.17,3a.67.67,0,0,0,.67-1.15l-4.6-2.67,2.68-4.6a.67.67,0,0,0-.24-.9.66.66,0,0,0-.91.24Zm54-14.47L287.2,285.4l.34,1.28,53.57-14.17Z"/><path class="cls-20" d="M416.88,155.42l7.72,13.66-5.28,22.74-11.3-14-8.63,3.76s1.65-21-1.33-14.17c-4,9.08-13.06,15.79-13.06,15.79l-3.76-8.92s-16.15,26-27.69,17.58S364,156.71,364,156.71s-7-21.69,0-34.94c7.63-14.48,15.42-17.19,31.41-13.73C419.12,113.17,416.88,155.42,416.88,155.42Z"/><circle class="cls-14" cx="371.72" cy="148.55" r="5.53"/><path class="cls-21" d="M400.2,142.11l-.31-1.29c1-.25,4-1.28,4.26-2.68.13-.77-.65-1.72-2.25-2.75-2.15-1.39-2.75-4.1-3.28-6.48-.57-2.57-1.06-4.78-3.12-5.16a2.54,2.54,0,0,0-2.54.6c-1.86,2-.64,8.12,0,10.29l-1.27.37a29.89,29.89,0,0,1-.89-4.53c-.38-3.37,0-5.73,1.2-7a3.81,3.81,0,0,1,3.77-1c2.91.55,3.55,3.41,4.16,6.18.5,2.24,1,4.56,2.71,5.65,2.11,1.36,3.07,2.74,2.84,4.09C405,140.87,400.7,142,400.2,142.11Z"/><circle cx="369.95" cy="150.32" r="1.99"/><path class="cls-22" d="M365.74,147c3.18,0,5.75,1.11,11.51,0a5.76,5.76,0,0,0-11.51,0Z"/><path class="cls-2" d="M178.43,203a.68.68,0,0,0,.68-.65l.12-6a.67.67,0,0,0-1.33,0l-.11,5.31-5.31-.1a.66.66,0,0,0-.68.65.65.65,0,0,0,.65.67Zm-11.09-11.28L178,202.81l1-.92-10.63-11.07Z"/></svg>