<svg xmlns="http://www.w3.org/2000/svg" viewBox="0 0 800 800"><title>goodnight_my_sweet_color_1</title><rect width="800" height="800" style="fill:#1b1464"/><polygon points="667.76 125.62 498.5 133.52 501.85 401.55 672.51 419.91 667.76 125.62" style="fill:#009245;stroke:#000;stroke-miterlimit:10"/><path d="M691.45,103.05c-13.54-7.89-214.39,6.77-225.67,6.77-3.39,7.9.56,23.14.56,23.14,3.39,1.12,172.08-10.72,189.57-7.9,4.29,9,.23,181.89-.65,293-.39,49.72-.14,87.07,1.78,91.78,2.63,2.62,8.74,3.35,15,3.31a122.88,122.88,0,0,0,17.74-1.62S697.1,117.72,691.45,103.05Z" style="fill:#006837;stroke:#000;stroke-miterlimit:10"/><path d="M350.33,577c17.14-3.39,144.36-67.71,148.64-75.6,1.07-21.44-3-369-3-369S366.4,85,346.05,85C339.62,108.7,349.26,535.23,350.33,577Z" style="fill:#d9e021;stroke:#000;stroke-miterlimit:10"/><polygon points="408.23 381.77 410.49 497.99 376.63 510.4 373.25 385.15 408.23 381.77" style="fill:none;stroke:#000;stroke-miterlimit:10"/><polygon points="410.49 330.99 408.75 188.81 370.99 180.91 371.38 329.86 410.49 330.99" style="fill:none;stroke:#000;stroke-miterlimit:10"/><polygon points="609.14 398.69 501.05 290.93 501.28 319.82 584.82 398.13 609.14 398.69" style="fill:#1b1464"/><line x1="596.67" y1="231.69" x2="597.66" y2="237.33" style="stroke:#000;stroke-miterlimit:10"/><path d="M602.37,239.19s5.58-7.5,5.58-16.53c1.24-1.08,5.35-2.1,5.65-4.51.32-2.64-4.53-6.6-4.52-9,0-2.27,4.12-4.53,4.52-6.77.6-3.38-2.26-13.54-2.26-13.54" style="fill:none;stroke:#000;stroke-miterlimit:10"/><ellipse cx="366.48" cy="359.2" rx="6.77" ry="12.41" style="fill:#fcee21;stroke:#000;stroke-miterlimit:10"/><circle cx="374.38" cy="359.2" r="6.77" style="fill:#fcee21;stroke:#000;stroke-miterlimit:10"/><polyline points="401.46 493.48 382.28 500.25 380.02 394.18" style="fill:none;stroke:#000;stroke-miterlimit:10"/><polygon points="369.86 114.34 409.36 126.75 409.36 167.37 369.86 158.34 369.86 114.34" style="fill:none;stroke:#000;stroke-miterlimit:10"/><polygon points="473.68 374.43 475.93 477.4 442.08 488.4 438.7 377.43 473.68 374.43" style="fill:none;stroke:#000;stroke-miterlimit:10"/><polyline points="466.91 473.4 447.72 479.4 445.47 385.43" style="fill:none;stroke:#000;stroke-miterlimit:10"/><polygon points="477.06 330.42 475.33 203.21 437.57 196.15 437.96 329.42 477.06 330.42" style="fill:none;stroke:#000;stroke-miterlimit:10"/><polygon points="438.7 136.34 475.37 147.43 475.37 183.73 438.7 175.67 438.7 136.34" style="fill:none;stroke:#000;stroke-miterlimit:10"/><polyline points="401.46 196.71 377.76 193.32 378.89 319.7 401.46 320.83" style="fill:#fcee21;stroke:#000;stroke-miterlimit:10"/><path d="M399.2,131.26l-22.57-6.77v27.08s22.57,5.65,21.44,5.65" style="fill:#fcee21;stroke:#000;stroke-miterlimit:10"/><polyline points="468.03 210.28 444.34 207.25 445.47 320.33 468.03 321.34" style="fill:#fcee21;stroke:#000;stroke-miterlimit:10"/><path d="M465.94,151.47l-21-6.05v24.2s21,5,19.91,5" style="fill:#fcee21;stroke:#000;stroke-miterlimit:10"/><polygon points="408.23 188.81 403.72 193.32 404.84 326.48 410.49 330.99 408.23 188.81" style="fill:#1b1464"/><polygon points="408.79 381.77 403.15 386.63 404.28 492.75 409.92 497.43 408.79 381.77" style="fill:#1b1464"/><polygon points="474.24 374.43 468.6 378.74 469.73 472.76 475.37 476.9 474.24 374.43" style="fill:#1b1464"/><polygon points="408.79 126.75 408.79 167.37 404.28 162.86 404.28 129.01 408.79 126.75" style="fill:#1b1464"/><polygon points="474.8 203.21 470.29 207.25 471.42 326.39 477.06 330.42 474.8 203.21" style="fill:#1b1464"/><polygon points="474.85 147.43 474.85 183.73 470.65 179.7 470.65 149.45 474.85 147.43" style="fill:#1b1464"/><polygon points="580.87 385.15 501.16 310.11 501.28 319.7 580.87 395.31 580.87 385.15" style="fill:#fcee21"/><path d="M512.61,402.64s-1.7-57-1.58-73.5c6.65-2.67,5.92,6.36,5.92,6.36l1.8,68.27" style="fill:#fcee21;stroke:#000;stroke-miterlimit:10"/><path d="M534,404.94s-1.69-47.22-1.57-55.5c6.65-2.57,6.67,6.11,6.67,6.11L540.25,406" style="fill:#fcee21;stroke:#000;stroke-miterlimit:10"/><path d="M657,509.84c-1.92-4.71-2.17-42.06-1.78-91.78L501.85,401.55,503,494.6S403.78,540.82,349.55,577c-6.77-2.26-12.41-4.52-18.1-6.21-34.93,10.72-169.21,42.32-220,63.75-19.08,8.06,10.06,33.45,42.39,35.24,56.91,3.13,171.75,28.39,210.37,31.34C407.91,704.43,472,715.59,512,697.71c50.11-22.39,145.24-162.52,160-184.56C665.78,513.19,659.67,512.46,657,509.84Z" style="fill:#8cc63f;stroke:#1b1464;stroke-miterlimit:10"/><path d="M534.61,534.1c-29.9,16.36-81.07,51.24-113.4,66.65C394.12,613.65,273,680.59,291.44,709.56c20,31.54,42-28.28,68.83-2.25,9.51,9.22,40.62,10.15,63.49-8,26.55-21.07,60.64-39.4,85.46-56.32,31.89-21.75,116.77-71.68,121.3-96.48-46.83,1.69-159.33,85.58-173.21,80.68-1.12-11.28,88-60.93,106.43-76C571.69,544.7,558.06,535.33,534.61,534.1Z" style="fill:#1b1464"/><path d="M567.33,538s1.8,10,0,12.13c-3.19,3.82-13.54,2.7-18.05-1.35-2.26-2.69-3.39-5.67-9-8.09-1.88-.8-6.28-7.13-5.64-9.44,1.13-4,10.15-1.35,13.36-5.17C553.45,527.34,567.33,538,567.33,538Z" style="fill:#d9e021"/><path d="M631.65,544.54c-2.26-2.54-6.77-1.41-13.54-2.48-2.44-.38-9-4-9-4l-25.5,10.14c-1.58,3.56-1.82,11.79.68,14.35,11.28,6.57,19.57,1.4,27.08-2.92C620.37,554.41,633.91,551.28,631.65,544.54Z" style="fill:#d9e021"/><path d="M624.88,356c4.51,21.58-7.33,71.59-7.9,95.75-.48,20.57-1.13,69.91-4.51,88.79-4.52,6-8.67,9.92-13.54,11.23-3.67,1-13.74-.39-15.8-4.26-2.26-10.79,3.38-28.32,3.38-40.46,3.39-13.49,5.82-46.13,5.65-60.69-.13-11.21-4.52-44.5-4.52-44.5s-7.9,33.13-7.9,44.5c0,20.23-11.28,50.43-7.89,67.43,2.25,11.33,3.38,23.74-3.39,28.32-3.38-.06-6.88-5.36-13.54-6.74-11.28-2.35-7.72-8.81-7.9-12.14-1.13-21.58,3.39-60.69,6.77-85-2.26-17.53,1.13-74.18,1.13-74.18s9,2.7,14.67-1.34C582.17,353.68,613.6,354.6,624.88,356Z" style="fill:#1b1464"/><path d="M633.91,258.77c-6.77-7.9-29.53-13.37-29.53-13.37s-1.39-5.74-3.2-6.94c-3.38-2.26-30.46,0-30.46,0s-1.21,7-3.39,9c-4.42,4-18.34,5.93-22.57,10.15-4.51,4.52-2.25,47.4,10.16,62.06h0c.06,9.26-2.18,24.15,0,35,.49,2.48-4.71,5.75-3.39,7.9,9,14.67,74.48-4.51,74.48-4.51a24.77,24.77,0,0,0,1.13-4.51c0-7.9-5.65-10.16-3.39-15.8,1.65-4.13-4.51-10.92-6.3-16.73h.06s6.24.93,9.63-3.58S632.78,305,635,296C637.37,286.66,635,266.67,633.91,258.77Z" style="fill:#d9e021"/><path d="M547,266.67c0,13.17,5.64,38.37,7.9,51.91.27,9.13-2.26,24.82,0,36.1.49,2.48-4.71,5.75-3.39,7.9,9,14.67,74.48-4.51,74.48-4.51a24.77,24.77,0,0,0,1.13-4.51c0-7.9-5.65-10.16-3.39-15.8,1.89-4.72-6.46-12.95-6.77-19.18s4.51-24.83,4.51-24.83" style="fill:none;stroke:#000;stroke-linecap:round;stroke-linejoin:round"/><path d="M554.92,319.7c-12.41-14.66-14.67-57.54-10.16-62.06,4.23-4.22,18.15-6.13,22.57-10.15,2.18-2,3.39-9,3.39-9s27.08-2.26,30.46,0c1.81,1.2,3.2,6.94,3.2,6.94s22.76,5.47,29.53,13.37c1.13,7.9,3.46,27.89,1.13,37.24-2.26,9-4.52,16.92-7.9,21.44s-9.63,3.58-9.63,3.58" style="fill:none"/><path d="M619.24,228.31l7.9,1.12s7.82-7.38,10.15-5.64c2.09,1.56-2.25,11.29-2.25,11.29s-2.5,7.33-2.26,10.15c2.26,3.39,4.18,9.21,3.38,12.41-.91,3.69-6.33,8-7.9,11.29-1.69,3.54-2.25,14.67-6.77,14.67-3,0-4.26-3.8-4.11-7.32.25-6.14,4.11-8.48,4.11-14.12a60.63,60.63,0,0,1-9-1.13s.79,15.86-3.39,16.92c-2.13.55-4.51-4.51-4.51-10.15,0-9.1-4.45-15.55-3.39-21.44.83-4.55,9-13.54,9-13.54s.52-8.06,2.26-9C614.39,222.72,619.24,228.31,619.24,228.31Z" style="stroke:#000;stroke-miterlimit:10"/><path d="M613.6,235.08c1.64-.11,4.51,2.25,5.64,3.38-.09,1.44-4.52,5.64-7.9,1.13C609.83,237.57,612.34,235.16,613.6,235.08Z" style="fill:#fcee21;stroke:#000;stroke-miterlimit:10"/><path d="M622.62,239.59s5.33-.89,6.77,0a2.37,2.37,0,0,1,0,3.38c-1.13,1.13-4.51,2.26-6.77,0A2.47,2.47,0,0,1,622.62,239.59Z" style="fill:#fcee21;stroke:#000;stroke-miterlimit:10"/><line x1="616.38" y1="236.15" x2="613.6" y2="240.72" style="fill:none;stroke:#000;stroke-miterlimit:10"/><line x1="626.01" y1="239.59" x2="626.01" y2="244.27" style="fill:none;stroke:#000;stroke-miterlimit:10"/><path d="M636,277.77c4.64.18,8.23,6.89,9.15,10.34,4.51,16.93-4.51,13.54-5.48,11.39-1.44-3.19-.16-8-3.55-12.52C635.84,284.7,636.16,281.34,636,277.77Z" style="stroke:#000;stroke-miterlimit:10"/><path d="M571.85,226.05c.78.41,2-1.06,3.38-1.13,2.67-.13,10.16,2.26,11.28,1.13,2.26-2.26,1.13-5.64,0-7.9-.76-1.54,2.87-5.17,2.26-6.77-.78-2.06-5.64-4.57-5.64-6.77,0-3.39,1.16-8.67,3.38-10.16,10.16-6.77,7.9,11.29,7.9,11.29s3.66.73,4.52,0c2.81-2.42,2.25-14.67,2.25-14.67s4.14-2.46,5.65-2.26c2.23.3,5.64,3.39,9,0,1.13-3.38-1.47-8.28-3.38-10.15-5.58-5.46-22.67-7-30.47-6.77-6,.2-16.32,4.36-19.18,15.79-2.26,9,2.78,18.5,4.51,23.7C569.59,218.15,569.59,222.66,571.85,226.05Z" style="stroke:#000;stroke-miterlimit:10"/><line x1="574.57" y1="238.18" x2="572.97" y2="226.05" style="stroke:#000;stroke-miterlimit:10"/></svg>