<svg xmlns="http://www.w3.org/2000/svg" viewBox="0 0 500 500"><title>octapus_barista_final</title><polyline points="57.63 297.58 57.63 35.59 498.2 35.59 498.2 464.41 57.63 464.41" style="fill:#f1f4f2"/><path d="M498.2,465H57.63a.59.59,0,0,1,0-1.17h440V36.17H58.22V297.58a.59.59,0,1,1-1.17,0v-262a.58.58,0,0,1,.58-.59H498.2a.58.58,0,0,1,.59.59V464.41A.58.58,0,0,1,498.2,465Z" style="fill:#891b1b"/><polygon points="377.78 462.65 497.61 462.65 497.61 325.19 377.78 321.67 377.78 462.65" style="fill:#fca7a7"/><rect x="387.47" y="147.44" width="1.18" height="220.36" transform="translate(120.24 638.72) rotate(-88.48)" style="fill:#891b1b"/><polyline points="102.57 464.41 1.11 464.41 1.11 315.8 87.97 290.14 113.01 294.06" style="fill:#f1f4f2"/><polygon points="102.57 465 0.52 465 0.52 315.36 87.92 289.54 88.06 289.56 113.1 293.48 112.92 294.64 88.01 290.74 1.69 316.23 1.69 463.82 102.57 463.82 102.57 465" style="fill:#891b1b"/><polyline points="498.2 204.77 204.48 203.27 191.63 208.99 109.14 245.65 113.38 298.62 121.85 298.62 117.61 245.65 204.48 209.63 204.49 203.6" style="fill:#f5cece"/><path d="M121.85,299.21h-8.47a.59.59,0,0,1-.59-.54l-4.24-53a.59.59,0,0,1,.35-.59l95.35-42.38a1.29,1.29,0,0,1,.24,0l293.71,1.5a.6.6,0,0,1,.59.59.59.59,0,0,1-.59.59h0l-293.12-1.5v5.77a.58.58,0,0,1-.36.54L118.23,246l4.21,52.54a.62.62,0,0,1-.16.45A.59.59,0,0,1,121.85,299.21ZM113.92,298h7.29L117,245.7a.57.57,0,0,1,.36-.59l86.51-35.87v-5.07L109.76,246Z" style="fill:#891b1b"/><polygon points="278.5 254.12 214.74 253 121.85 298.62 179.03 270.55 218.68 264.84 276.15 270.56 278.5 254.12" style="fill:#f5cece"/><path d="M121.85,299.21a.59.59,0,0,1-.26-1.12h0l92.88-45.62a.63.63,0,0,1,.27-.06l63.77,1.12a.6.6,0,0,1,.43.2.61.61,0,0,1,.14.47l-2.35,16.45a.61.61,0,0,1-.64.5l-57.4-5.72-39.5,5.69-57.09,28A.58.58,0,0,1,121.85,299.21Zm96.83-35h.06l56.91,5.67,2.18-15.23-63-1.1-32.28,15.85,36-5.18Z" style="fill:#891b1b"/><path d="M167.61,133.37c4-3.2,45.11-2.86,46.41,1,1.73,5.21,3.94,26.86,0,33.9a55.08,55.08,0,0,1-8.48,10.6c-4.08,4.08-2.12,8.47-.93,12,4.7.08,18.13-1.14,20,.74,4.24,4.24,2.17,23,2.12,25.42-.06,3.41-5.69,16.14-6.35,17a6.27,6.27,0,0,1-7.69,1.41c-2.54-1.34-4.32,4.72-6,2.4-1.5,5.86,10.52,16.32,11.58,21.62.83,4.16-.55,10-1.39,10.37-10.33,4.72-27,8.94-37.81,5.52-3.37-1.06-7-65.48-11.94-85.8C165.71,183.7,165.61,135,167.61,133.37Z" style="fill:#fca7a7"/><path d="M188.18,277.12a31.24,31.24,0,0,1-9.3-1.25c-1.93-.61-3.18-11-6-38.31-1.86-17.89-4-38.17-6.31-47.91-1.15-4.75-1.83-54.75.69-56.74h0c4-3.14,36.26-2.89,44.73-.36,1.55.46,2.38,1,2.61,1.68,1.67,5,4.08,27-.05,34.37A55.4,55.4,0,0,1,206,179.32c-3.53,3.53-2.22,7.28-1.07,10.58l.14.4c1.25,0,2.89-.06,4.79-.14,7.73-.29,13.77-.4,15.21,1,3.39,3.39,3.07,14.59,2.4,24-.06.9-.11,1.56-.11,1.9-.07,3.57-5.71,16.36-6.49,17.31a6.88,6.88,0,0,1-8.42,1.55c-.8-.43-1.55.29-2.6,1.43-.77.84-1.51,1.59-2.36,1.57l-.31,0c0,3.16,3.38,7.67,6.39,11.68,2.49,3.31,4.84,6.44,5.3,8.76.81,4-.38,10.4-1.72,11C209,274,197.76,277.12,188.18,277.12ZM168,133.81c-1.62,2.5-1.89,49-.31,55.57,2.37,9.81,4.48,30.13,6.34,48.06,1.76,16.93,3.75,36.12,5.26,37.34,10.26,3.22,26.56-.6,37.33-5.52.55-.51,1.85-5.81,1.06-9.72-.41-2.06-2.68-5.08-5.09-8.28-3.65-4.87-7.43-9.89-6.48-13.61a.59.59,0,0,1,.46-.43.61.61,0,0,1,.59.23c.08.11.23.29.35.3.31.06,1-.68,1.43-1.19,1-1.08,2.36-2.56,4-1.68a5.67,5.67,0,0,0,7-1.26c.6-.76,6.16-13.32,6.22-16.59,0-.34.06-1,.12-1.95.35-4.85,1.38-19.6-2.06-23.05-1.2-1.19-9.42-.88-14.33-.69-2.15.08-4,.15-5.27.13a.58.58,0,0,1-.55-.4l-.26-.78c-1.21-3.45-2.71-7.75,1.34-11.8A54.67,54.67,0,0,0,213.51,168c3.82-6.82,1.66-28.27,0-33.42,0,0-.16-.43-1.83-.93C203.1,131.13,171.43,131.23,168,133.81Zm-.4-.44h0Z" style="fill:#891b1b"/><path d="M140.92,220.22h6.36c-.54-2.1.58-4.82,2.12-6.35,2.11-2.12,6.35-2.12,9.53-3.18-3.18-5.3-19.07-14.83-21.19-21.19-1.5-4.49.75-26.72,0-33.9,10.6-4.24,49.84-3.13,53,0,2.12,2.12,1.16,34.44-.1,36.44-2.5,4-10.49,13.13-13.06,17,3.2,1.61,8.32-1.07,10.07,2.06.29.5,4.25,5.9,5.21,5.9,5.7,0,14-.84,18,3.18,2.12,2.12,2.12,19.07,0,23.31s-6.58,17.85-7.42,18a24.54,24.54,0,0,1-6.35,0c-2.12-2.12-7.42-13.77-9.54-18-4.23,4.24-6.83,5.77-4.23,8.47s8.27,13.41,10.59,17c2.85,4.36,9.4,19.71-2.12,31.78-7.24,7.59-50.49,9.69-53,4.24C128.21,281.67,140.92,220.22,140.92,220.22Z" style="fill:#fca7a7"/><path d="M155,308.61a68.51,68.51,0,0,1-10.79-.72c-3.43-.58-5.36-1.45-5.91-2.67-4.44-9.76-5.44-27.06-3-51.42,1.84-18.1,5-33.54,5-33.7a.59.59,0,0,1,.58-.46h5.66a8.23,8.23,0,0,1,2.4-6.19c1.54-1.54,4-2,6.42-2.51.87-.18,1.77-.36,2.6-.58-1.59-2.14-5-4.94-8.57-7.87-5.4-4.45-11-9-12.25-12.8-.87-2.62-.55-10.42-.2-18.67.24-6,.5-12.24.18-15.36a.59.59,0,0,1,.36-.61c10.64-4.25,50.14-3.33,53.61.13,2.26,2.27,1.42,34.88,0,37.18-1.32,2.09-4.15,5.62-6.89,9-2.29,2.85-4.47,5.56-5.77,7.41a11.64,11.64,0,0,0,3.81.2c2.31-.13,4.71-.26,5.89,1.85.41.74,4,5.35,4.76,5.61l2.61,0c5.42-.1,12.14-.23,15.75,3.38,2.45,2.45,2.14,19.92.11,24-1,1.89-2.36,5.67-3.73,9.33-3,8.09-3.46,8.88-4.11,9a19.58,19.58,0,0,1-5.17.1c-.43,0-.87-.07-1.33-.09a.59.59,0,0,1-.38-.18c-1.73-1.73-5.3-9.15-7.9-14.57l-1.38-2.86-1.28,1.23a15.64,15.64,0,0,0-3,3.42c-.33.69-.35,1.37.67,2.43,1.77,1.85,4.8,7.06,7.46,11.66,1.31,2.25,2.43,4.2,3.2,5.37.12.18,11.56,18.11-2.18,32.51C187.62,305.94,169,308.61,155,308.61Zm-13.57-87.8c-1.14,5.74-12,62.12-2.06,83.92.16.38,1,1.32,5,2,12.3,2.08,41.24-.4,47-6.4,13.1-13.74,2.16-30.88,2.05-31.05-.79-1.2-1.92-3.16-3.24-5.43-2.5-4.32-5.61-9.69-7.29-11.44-1.22-1.27-1.5-2.46-.88-3.75a15.66,15.66,0,0,1,3.29-3.76c.57-.54,1.18-1.13,1.84-1.79a.59.59,0,0,1,.51-.16.61.61,0,0,1,.43.32c.46.91,1.06,2.17,1.75,3.6,2.35,4.89,5.87,12.21,7.53,14.1l1.11.08a18.65,18.65,0,0,0,4.72-.06,80.18,80.18,0,0,0,3.37-8.28c1.38-3.69,2.8-7.5,3.78-9.44,2.16-4.34,1.87-20.87.11-22.63-3.26-3.25-9.71-3.14-14.9-3l-2.7,0c-1.48,0-5.68-6.14-5.72-6.2-.82-1.48-2.66-1.38-4.79-1.26a10,10,0,0,1-5-.56.58.58,0,0,1-.3-.38.56.56,0,0,1,.08-.47c1.24-1.89,3.66-4.91,6.23-8.11,2.72-3.38,5.53-6.88,6.82-8.92,1-1.62,2.1-33.77.19-35.72-2.78-2.78-40.5-4.2-51.93,0,.27,3.29,0,9-.22,15.08-.32,7.78-.66,15.83.15,18.24,1.15,3.45,6.85,8.13,11.88,12.27,4,3.3,7.83,6.43,9.25,8.81a.55.55,0,0,1,0,.5.61.61,0,0,1-.36.36,31.75,31.75,0,0,1-3.49.84c-2.23.44-4.53.9-5.82,2.19s-2.46,3.89-2,5.8a.6.6,0,0,1-.11.5.56.56,0,0,1-.46.23Z" style="fill:#891b1b"/><path d="M478.75,278.41c.18-2.53,12.4-29-5.6-37l-4.32,5.66,5,7.69c.44,2-3.75,9.47-5,10.42Z" style="fill:#fca7a7"/><path d="M478.75,279a.61.61,0,0,1-.47-.24l-9.94-13.23a.58.58,0,0,1,.11-.81c1.06-.83,5-7.87,4.78-9.75l-4.89-7.59a.57.57,0,0,1,0-.67l4.32-5.66a.59.59,0,0,1,.71-.18c15.78,7,9.16,27.43,6.67,35.11a20.91,20.91,0,0,0-.72,2.47.59.59,0,0,1-.42.52A.51.51,0,0,1,478.75,279Zm-9.17-13.77,8.9,11.84c.12-.39.27-.86.46-1.45,2.38-7.34,8.67-26.71-5.61-33.48l-3.78,5,4.73,7.35a.64.64,0,0,1,.08.19C474.84,256.81,471.21,263.33,469.58,265.23Z" style="fill:#891b1b"/><path d="M466.37,233.27c1.72.17,6.32.31,7.28,2.16,1.42,2.73-3.15,12.28-4.91,13.18-1.17.59-1.73.23-3-.09" style="fill:#f1f4f2"/><path d="M467.57,249.51a5.08,5.08,0,0,1-1.36-.25l-.61-.17a.59.59,0,1,1,.28-1.14l.64.18a2.21,2.21,0,0,0,2,0c.79-.4,3-4,4.17-7.76.7-2.18.87-3.87.48-4.62-.7-1.34-4.33-1.64-6.07-1.78l-.75-.07a.58.58,0,0,1-.52-.64.6.6,0,0,1,.64-.53l.73.07c2.25.18,6,.5,7,2.4.56,1.08.42,2.94-.41,5.53-1.09,3.4-3.35,7.74-4.75,8.45A3.13,3.13,0,0,1,467.57,249.51Z" style="fill:#891b1b"/><path d="M466.38,245.81a2.44,2.44,0,0,1-1.21-.32.59.59,0,1,1,.57-1c1.17.65,2.32-.7,2.9-1.56,1.78-2.64,2.69-7.4,1.16-8.65a.58.58,0,0,1-.08-.82.6.6,0,0,1,.83-.09c2.31,1.89,1,7.41-.94,10.22C468.61,245,467.48,245.81,466.38,245.81Z" style="fill:#891b1b"/><path d="M448.85,227.43c.69,3.21-7.41,19.47-3.55,23.66,3.46,3.74,13.9,6.12,18.14,2.16,2.71-2.54,2.92-19.66,3-22.62" style="fill:#f1f4f2"/><path d="M457,255.88h-.64c-4.45-.17-9.27-2-11.47-4.39-2.69-2.91-.27-10.58,1.68-16.75,1-3.16,1.95-6.16,1.73-7.17a.59.59,0,0,1,1.15-.25c.28,1.32-.62,4.17-1.76,7.78-1.76,5.56-4.16,13.19-1.94,15.6,2,2.13,6.55,3.85,10.65,4,2.89.12,5.25-.56,6.66-1.87.73-.69,2.46-4.18,2.79-21.84v-.36a.63.63,0,0,1,.6-.58.59.59,0,0,1,.58.6V231c-.24,13.31-1.3,20.94-3.16,22.68S459.17,255.88,457,255.88Z" style="fill:#891b1b"/><path d="M449.11,226.86c-1.11.76,2.65,1.54,3.66,2.43,1.83,1.61,11.57,4.6,13.38,1.92C468.56,227.64,453.79,223.68,449.11,226.86Z" style="fill:#f5cece"/><path d="M463,232.87c-3.68,0-9.18-1.85-10.65-3.14a7.81,7.81,0,0,0-1.79-.88c-1.28-.52-2.19-.9-2.27-1.61a.9.9,0,0,1,.45-.86h0c4.13-2.81,14.52-.57,17.36,2.27a2.1,2.1,0,0,1,.49,2.89,3.38,3.38,0,0,1-2.51,1.27A9.3,9.3,0,0,1,463,232.87Zm-13.31-5.7c.34.19.9.42,1.31.59a8.22,8.22,0,0,1,2.13,1.09c1.3,1.14,7.48,3.22,10.81,2.79a2.46,2.46,0,0,0,1.69-.75c.13-.19.43-.64-.35-1.41C462.9,227.06,453.52,225,449.72,227.17Zm-.61-.31.3.5h0l-.32-.49.32.49Z" style="fill:#891b1b"/><path d="M470.12,240c-2.12-1.23-4.82,0-5.39,3.11-1.35,7.39,3.61,10.32,7.24,11.35,2.52.72,15.43-1.28,15.43-3.85-5.14,0-18,0-18.84-7.29" style="fill:#fca7a7"/><path d="M473.57,255.22a7.16,7.16,0,0,1-1.76-.17c-2.82-.8-9.21-3.58-7.65-12a4.9,4.9,0,0,1,2.62-3.7,3.92,3.92,0,0,1,3.64.19.59.59,0,0,1-.59,1,2.72,2.72,0,0,0-2.55-.14,3.74,3.74,0,0,0-2,2.85c-1.33,7.22,3.71,9.79,6.82,10.68,2.07.59,11.68-.85,14.2-2.71-6,0-17.51-.46-18.35-7.8a.58.58,0,1,1,1.16-.14c.78,6.77,13.48,6.77,18.26,6.77a.59.59,0,0,1,.59.59,1.94,1.94,0,0,1-.92,1.5C484.75,253.88,477.36,255.22,473.57,255.22Z" style="fill:#891b1b"/><path d="M425.26,200.37s16.8,8.38,19.73,10.52c3.27,2.38,4.27,13,6.58,17.11.81,1.44,7.3,4.06,6.58,2.63-2.63-5.26-5.26-19.74-7.89-22.37-1.19-1.19-14.48-7.89-14.48-7.89" style="fill:#f5cece"/><path d="M457.81,231.62c-1.83,0-6.09-2.15-6.75-3.34a36,36,0,0,1-2.46-7.36c-1-3.87-2.18-8.26-4-9.55-2.86-2.09-19.49-10.4-19.65-10.48a.6.6,0,0,1-.27-.79.59.59,0,0,1,.79-.26c.69.34,16.88,8.43,19.82,10.58,2.11,1.54,3.27,5.94,4.4,10.2a34.6,34.6,0,0,0,2.35,7.09c.5.9,3.93,2.41,5.31,2.7a84,84,0,0,1-3.27-10c-1.43-5.07-2.92-10.31-4.29-11.68-.82-.83-9-5.11-14.32-7.79a.59.59,0,0,1,.53-1c1.37.69,13.4,6.78,14.62,8,1.59,1.59,3.05,6.74,4.59,12.2a72.62,72.62,0,0,0,3.42,10.33.8.8,0,0,1-.3,1.14A1.35,1.35,0,0,1,457.81,231.62Z" style="fill:#891b1b"/><path d="M273.19,262.89c-.61,7.1-2,19.44,1.7,19,4.53-.52,8.66-14.47,11.4-18.59" style="fill:#891b1b"/><path d="M274.71,282.51a1.93,1.93,0,0,1-1.38-.57c-2.06-2-1.61-9.14-.87-17.54l.14-1.56a.59.59,0,0,1,.64-.53.58.58,0,0,1,.53.63l-.14,1.56c-.49,5.54-1.31,14.81.52,16.6a.78.78,0,0,0,.67.23c2.76-.31,5.75-7.11,7.93-12.07A47.06,47.06,0,0,1,285.8,263a.59.59,0,1,1,1,.65,47.53,47.53,0,0,0-3,6.07c-2.55,5.8-5.44,12.38-8.86,12.77Z" style="fill:#891b1b"/><polyline points="262.64 243.53 262.64 262.6 446.6 270.33 446.6 248.39" style="fill:#f5cece"/><path d="M446.6,270.91h0l-184-7.72a.6.6,0,0,1-.56-.59V243.53a.59.59,0,1,1,1.17,0V262L446,269.71V248.39a.6.6,0,0,1,.59-.59.59.59,0,0,1,.59.59v21.94a.6.6,0,0,1-.18.42A.57.57,0,0,1,446.6,270.91Z" style="fill:#891b1b"/><polyline points="275.35 230.82 262.64 243.53 446.6 248.39 433.26 232.94" style="fill:#fca7a7"/><path d="M446.6,249h0l-184-4.86a.62.62,0,0,1-.53-.37.59.59,0,0,1,.13-.64l12.71-12.71a.59.59,0,1,1,.83.83L264,243l181.27,4.79-12.47-14.45a.59.59,0,0,1,.06-.83.6.6,0,0,1,.83.06L447.05,248a.59.59,0,0,1-.45,1Z" style="fill:#891b1b"/><polyline points="268.98 198.85 275.71 230.63 432.12 232.75 440.04 200.22" style="fill:#f1f4f2"/><path d="M432.12,233.33h0l-156.4-2.11a.6.6,0,0,1-.57-.47L268.4,199a.59.59,0,0,1,.45-.7.61.61,0,0,1,.7.45l6.64,31.33,155.47,2.1,7.81-32.07a.59.59,0,0,1,1.14.28l-7.92,32.53A.58.58,0,0,1,432.12,233.33Z" style="fill:#891b1b"/><path d="M309.17,199.75c-1,4.56,4.25,7.19,6.88,7.19.65,1,0,6.44,2.63,6.44,3.62,0,4.1,3.05,2.63,4.09s-3.94,2.63-3.94,5.26c3.94-3.94,7.48-2.06,14.47,0-.41-3.37-3.86-5.77-4.49-6.34-1.28-1.16-1.81-3,.54-4.18,2.63-1.32,1.6-3.08,1.39-5.24,2.81-1,6.51-1.34,6.51-6.6" style="fill:#fca7a7"/><path d="M317.37,223.32a.57.57,0,0,1-.59-.59c0-2.79,2.37-4.46,3.94-5.56L321,217a1.39,1.39,0,0,0,.46-1.56c-.3-.92-1.32-1.46-2.75-1.46-2.33,0-2.64-3-2.84-5a12,12,0,0,0-.2-1.43,9.16,9.16,0,0,1-5.91-3.14,5.5,5.5,0,0,1-1.13-4.76.59.59,0,0,1,.7-.45.6.6,0,0,1,.45.71,4.24,4.24,0,0,0,.9,3.76,7.78,7.78,0,0,0,5.4,2.72.59.59,0,0,1,.49.26,5.51,5.51,0,0,1,.47,2.21c.21,2.09.49,4,1.67,4,2,0,3.41.85,3.87,2.27a2.55,2.55,0,0,1-.9,2.88l-.25.18a8.86,8.86,0,0,0-3.07,3c3.2-2.23,6.46-1.21,11.1.23l1.63.51c-.72-2.3-2.87-4-3.75-4.77l-.35-.29a3.34,3.34,0,0,1-1.27-2.85,3.1,3.1,0,0,1,1.94-2.3c1.71-.85,1.54-1.8,1.26-3.36-.07-.42-.15-.85-.19-1.3a.58.58,0,0,1,.39-.61l1.12-.36c2.57-.78,5-1.52,5-5.68a.59.59,0,1,1,1.17,0c0,5-3.22,6-5.82,6.81l-.63.19c0,.25.09.5.13.74.28,1.58.6,3.37-1.9,4.62-.78.4-1.22.87-1.29,1.41a2.19,2.19,0,0,0,.89,1.81,3.29,3.29,0,0,0,.3.26c1.09.89,4,3.24,4.37,6.45a.57.57,0,0,1-.2.52.6.6,0,0,1-.55.12c-.92-.27-1.78-.54-2.59-.8-5.24-1.63-8.12-2.53-11.3.65A.58.58,0,0,1,317.37,223.32Z" style="fill:#891b1b"/><path d="M378.91,199.75c-1,4.56,4.24,7.19,6.87,7.19.66,1,1.32,6.58,4,6.58,3.62,0,2.79,2.91,1.32,3.95s-3.95,2.63-3.95,5.26c2.63-1.31,7.9-5.26,14.47,0-.41-3.37-3.86-5.77-4.48-6.34-1.28-1.16-1.82-3,.54-4.18,2.63-1.32,1.6-3.08,1.39-5.24,2.8-1,6.5-1.34,6.5-6.6" style="fill:#fca7a7"/><path d="M401.57,223.32a.53.53,0,0,1-.36-.13c-5.58-4.45-10.16-1.94-12.89-.44-.35.19-.67.37-1,.51a.59.59,0,0,1-.85-.53c0-2.79,2.38-4.46,3.95-5.56l.25-.18a2.19,2.19,0,0,0,1-2.07c-.23-.7-1.31-.81-1.94-.81-2.36,0-3.31-3.24-3.94-5.39-.13-.45-.27-.91-.38-1.2a9.11,9.11,0,0,1-5.94-3.14,5.47,5.47,0,0,1-1.14-4.76.59.59,0,1,1,1.15.26,4.3,4.3,0,0,0,.9,3.76,7.82,7.82,0,0,0,5.41,2.72.61.61,0,0,1,.49.26,7.74,7.74,0,0,1,.64,1.77c.5,1.7,1.33,4.55,2.81,4.55,2.21,0,2.86,1,3.06,1.62a3.33,3.33,0,0,1-1.4,3.39l-.26.18c-1.2.84-2.76,2-3.27,3.53,2.61-1.43,7.21-3.86,12.71-.37a11.93,11.93,0,0,0-3.52-4.17l-.36-.29a3.35,3.35,0,0,1-1.26-2.85,3.1,3.1,0,0,1,1.93-2.3c1.72-.85,1.55-1.8,1.27-3.36-.08-.42-.15-.85-.2-1.3a.6.6,0,0,1,.4-.61l1.12-.36c2.56-.78,5-1.52,5-5.68a.59.59,0,0,1,.59-.59.58.58,0,0,1,.59.59c0,5-3.23,6-5.82,6.81l-.63.19.12.74c.29,1.58.61,3.37-1.89,4.62-.79.4-1.22.87-1.3,1.41a2.25,2.25,0,0,0,.89,1.81c.07.07.18.15.31.26,1.09.89,4,3.24,4.37,6.45a.58.58,0,0,1-.59.66Z" style="fill:#891b1b"/><path d="M362,219.29c-.74,3.05,3.09,5.31,7.4,3.41,5.24-2.31,20.07-11.56,21.67-14.15.91-1.46-.69-5.22-5-3.32C384.23,206,362.55,217,362,219.29Z" style="fill:#f5cece"/><path d="M366.25,224a5.56,5.56,0,0,1-3.61-1.19,3.52,3.52,0,0,1-1.22-3.64h0c.69-2.86,24.18-14.36,24.41-14.46,3-1.34,4.65,0,5.2.63a3.13,3.13,0,0,1,.53,3.54c-1.78,2.88-17,12.21-21.94,14.38A8.49,8.49,0,0,1,366.25,224Zm-3.69-4.55a2.35,2.35,0,0,0,.84,2.46c1,.85,3.12,1.43,5.75.27,5.6-2.47,20-11.62,21.41-13.92a2,2,0,0,0-.42-2.15c-.82-.94-2.18-1.05-3.84-.32C383.13,207.16,363.25,217.45,362.56,219.43Z" style="fill:#891b1b"/><polyline points="259.71 173.05 280.85 164.83 439.46 162.48 454.73 173.05" style="fill:#fca7a7"/><path d="M259.71,173.64a.58.58,0,0,1-.55-.38.59.59,0,0,1,.33-.76l21.15-8.22a.52.52,0,0,1,.21,0l158.6-2.35a.56.56,0,0,1,.34.1l15.28,10.58a.59.59,0,0,1,.14.82.58.58,0,0,1-.81.14l-15.12-10.46L281,165.41l-21.05,8.19A.52.52,0,0,1,259.71,173.64Z" style="fill:#891b1b"/><polygon points="259.71 173.05 454.73 173.05 454.57 200.41 259.57 199.03 259.71 173.05" style="fill:#f5cece"/><path d="M454.57,201h0l-195-1.37A.58.58,0,0,1,259,199l.13-26a.58.58,0,0,1,.59-.59h195a.6.6,0,0,1,.42.18.58.58,0,0,1,.17.41l-.17,27.36a.58.58,0,0,1-.58.58Zm-194.41-2.54L454,199.81l.16-26.17H260.29Z" style="fill:#891b1b"/><rect x="259.57" y="173.61" width="5.3" height="25.43" style="fill:#891b1b"/><rect x="449.58" y="172.86" width="5.3" height="27.54" style="fill:#891b1b"/><circle cx="272.29" cy="187.12" r="4.24" style="fill:#f1f4f2"/><path d="M272.29,192a4.83,4.83,0,1,1,4.82-4.83A4.83,4.83,0,0,1,272.29,192Zm0-8.48a3.65,3.65,0,1,0,3.65,3.65A3.65,3.65,0,0,0,272.29,183.47Z" style="fill:#891b1b"/><circle cx="440.8" cy="187.69" r="4.24" style="fill:#f1f4f2"/><path d="M440.8,192.52a4.83,4.83,0,1,1,4.82-4.83A4.83,4.83,0,0,1,440.8,192.52Zm0-8.48a3.65,3.65,0,1,0,3.65,3.65A3.65,3.65,0,0,0,440.8,184Z" style="fill:#891b1b"/><path d="M279.09,365.14s-18.65,31.51-21.15,43.47c-2.82,13.54,2.35,55.22,2.35,55.22h7l12.93-30.55Z" style="fill:#fca7a7"/><path d="M199.58,464.32s.21-53.25-2.56-64.43L258.63,406c-3.62,8.63,1.17,58.35,1.17,58.35Z" style="fill:#f5cece"/><path d="M259.8,464.9H199.58a.58.58,0,0,1-.59-.59c0-.53.18-53.29-2.54-64.28a.55.55,0,0,1,.13-.52.56.56,0,0,1,.5-.2l61.6,6.08a.58.58,0,0,1,.45.28.58.58,0,0,1,0,.53c-3.52,8.39,1.17,57.56,1.22,58.06a.58.58,0,0,1-.59.64Zm-59.63-1.17h59c-.55-6-4.31-47.44-1.33-57.25l-60-5.92C200.22,412.56,200.18,457.72,200.17,463.73Z" style="fill:#891b1b"/><path d="M227.26,346.43s52.15,2.86,52.15,9.56c0,10.59-16.24,48.25-22.6,52.48s-58.91-2.06-61.9-11.05c-2.12-6.36,14.49-32.82,14.49-32.82" style="fill:#f1f4f2"/><path d="M246.81,410.44c-12.13,0-31.39-2.69-42.81-6.61-5.68-1.94-8.92-4-9.65-6.23-2.18-6.54,13.87-32.22,14.55-33.31a.59.59,0,0,1,.81-.18.58.58,0,0,1,.18.81c-4.57,7.29-16.09,27.31-14.43,32.31.42,1.26,2.31,3.22,8.92,5.49,16.32,5.6,47.7,8.21,52.11,5.27,6.26-4.18,22.33-41.6,22.33-52,0-2.38-14-6.91-51.6-9a.58.58,0,0,1-.55-.62.56.56,0,0,1,.62-.55c8.8.48,52.7,3.23,52.7,10.14,0,10.93-16.23,48.56-22.85,53C255.61,410,251.82,410.44,246.81,410.44Z" style="fill:#891b1b"/><path d="M267.51,464.72a.69.69,0,0,1-.24-.05.59.59,0,0,1-.3-.78c3.37-7.7,12.13-28.33,12.12-31.2-.08-24.3-.66-68.24-.78-77.25l-35.77,44.72a.58.58,0,1,1-.91-.73l36.79-46a.58.58,0,0,1,.65-.19.61.61,0,0,1,.4.55c0,.51.71,51.86.8,78.9,0,3.69-11.73,30.53-12.23,31.68A.57.57,0,0,1,267.51,464.72Z" style="fill:#891b1b"/><path d="M232.83,401.4c-13.69,0-30.9-2.72-32.42-7.29a.6.6,0,0,1,.37-.75.59.59,0,0,1,.74.38c1.43,4.27,24.37,7.79,39.6,6.07,6.58-.74,10.47-2.41,10.68-4.59a.59.59,0,0,1,1.17.11c-.28,2.91-4.23,4.81-11.72,5.65A76.91,76.91,0,0,1,232.83,401.4Z" style="fill:#891b1b"/><path d="M216.24,425.64c-.78,1,5.47,3.31,6.69,2.93.79-.24,3.88-4.1,6.47-4.72a13.25,13.25,0,0,1,3,3c-.92,1.09-.92,1.09-3.86,3.06,4.92.69,5.18,1.13,10.15,1.33,1-4.47,1-5.65,2.19-9.17a23.37,23.37,0,0,0-3.3,1.81C233.86,417.42,228,410.37,216.24,425.64Z" style="fill:#fca7a7"/><path d="M238.72,431.88h0a36.62,36.62,0,0,1-6.32-.7c-1-.19-2.15-.4-3.9-.64a.59.59,0,0,1-.49-.45.6.6,0,0,1,.25-.62c2.5-1.67,2.83-1.89,3.43-2.59a12.8,12.8,0,0,0-2.38-2.39c-1.5.48-3.26,2.14-4.45,3.26a5.79,5.79,0,0,1-1.74,1.38c-1.38.43-6.43-1.43-7.31-2.68a1,1,0,0,1,0-1.17h0c5-6.55,9.44-9.61,13.4-9.35s6.68,3.87,8.65,7.18L238,423a18,18,0,0,1,2-1.11l.67-.33a.6.6,0,0,1,.64.08.61.61,0,0,1,.18.63,40,40,0,0,0-1.42,5.53c-.19,1-.41,2.1-.75,3.59A.59.59,0,0,1,238.72,431.88Zm-8.56-2.28,2.43.42a33.9,33.9,0,0,0,5.67.66c.27-1.25.47-2.23.64-3.08.32-1.58.55-2.72,1-4.34a12.69,12.69,0,0,0-1.36.77l-.65.4a.58.58,0,0,1-.45.07.59.59,0,0,1-.36-.28c-2-3.39-4.44-6.88-8-7.12s-7.6,2.71-12.28,8.76c.69.81,5.07,2.43,5.94,2.15a9.4,9.4,0,0,0,1.29-1.12c1.42-1.34,3.37-3.17,5.22-3.61a.58.58,0,0,1,.46.08,13.52,13.52,0,0,1,3.18,3.19.59.59,0,0,1,0,.72A9.24,9.24,0,0,1,230.16,429.6ZM216.7,426Zm-.46-.36h0Z" style="fill:#891b1b"/><path d="M243.69,434.72c-.58-1.14-6.12,1.86-6.66,3-.34.75,1.53,5.53,1.53,7.88a21.38,21.38,0,0,1-5.45.31c-.2-1.42-.2-1.42.3-4.92-3.8,3.21-4.31,3.1-7.78,6.67,2.65,3.74,3.53,4.52,5.37,7.75a24.64,24.64,0,0,0,.85-3.66c5.67,1.2,10.23.89,13.76-7.33C246.62,442.09,245.61,438.57,243.69,434.72Z" style="fill:#fca7a7"/><path d="M231,456a.57.57,0,0,1-.51-.3,39.28,39.28,0,0,0-3.17-4.74c-.59-.79-1.28-1.71-2.17-3a.59.59,0,0,1,.06-.75A37,37,0,0,1,230,443c.82-.62,1.73-1.33,3.08-2.47a.59.59,0,0,1,.67-.06.57.57,0,0,1,.29.59c-.43,3-.48,3.37-.36,4.29a22.78,22.78,0,0,0,4.32-.24,26.72,26.72,0,0,0-.9-4.08c-.59-2.23-.78-3.05-.55-3.56.58-1.26,4.81-3.59,6.56-3.62a1.08,1.08,0,0,1,1.15.58h0c2.29,4.57,2.92,7.91,1.94,10.21-3.4,7.93-7.83,8.95-13.83,7.8l0,.15a18.72,18.72,0,0,1-.54,2.26l-.2.71a.59.59,0,0,1-.49.43Zm-4.6-8.28c.74,1,1.34,1.84,1.86,2.53a44,44,0,0,1,2.54,3.67,14.34,14.34,0,0,0,.34-1.52l.13-.75a.59.59,0,0,1,.7-.47c6,1.27,9.88.53,13.1-7,.82-1.92.19-5-1.87-9.15-.89-.23-5.21,2-5.63,2.93a16.61,16.61,0,0,0,.62,2.76,22.28,22.28,0,0,1,1,4.87.59.59,0,0,1-.44.56,21.45,21.45,0,0,1-5.66.33.57.57,0,0,1-.52-.5,9.31,9.31,0,0,1,.09-3.58c-.77.63-1.39,1.1-2,1.53A34.15,34.15,0,0,0,226.4,447.74Zm16.84-12.67h0Zm-.08-.08Z" style="fill:#891b1b"/><path d="M221.21,453.12c1.27,0,.7-6.36-.16-7.31-.56-.61-6.54-1.79-8.18-3.87.16-1.12,1.91-2.68,2.66-4,1.38.36.2.36,3.23,2.21-.17-1.55-.17-5.08-.72-9.78a93.32,93.32,0,0,1-10.42,1.88,24,24,0,0,0,3,2.23C204.49,440.92,206.84,452.66,221.21,453.12Z" style="fill:#fca7a7"/><path d="M221.22,453.7h0c-6.73-.21-11.67-3-13.55-7.55a11.34,11.34,0,0,1,2.12-11.59l-.07,0a15.58,15.58,0,0,1-1.87-1.39l-.57-.45a.59.59,0,0,1,.3-1,88.44,88.44,0,0,0,10-1.79l.38-.08a.6.6,0,0,1,.47.09.62.62,0,0,1,.24.41c.36,3.09.49,5.65.58,7.52.05,1,.08,1.73.14,2.26a.59.59,0,0,1-.27.56.6.6,0,0,1-.62,0,9.9,9.9,0,0,1-2.4-1.81.71.71,0,0,0-.26-.21c-.3.46-.67.92-1,1.38a8.22,8.22,0,0,0-1.24,1.8c1.11,1.13,3.79,2,5.6,2.62a6.52,6.52,0,0,1,2.36,1c.94,1,1.41,6.05.72,7.56A1.07,1.07,0,0,1,221.22,453.7Zm0-1.17Zm-12.15-19.89a13.15,13.15,0,0,0,1.25.9l.64.42a.58.58,0,0,1,.26.42.6.6,0,0,1-.15.47,10.24,10.24,0,0,0-2.35,10.86c1.69,4.11,6.2,6.59,12.39,6.81.53-.8.16-5.58-.51-6.31a14.33,14.33,0,0,0-1.86-.69c-2.18-.73-5.16-1.72-6.34-3.22a.57.57,0,0,1-.12-.45,6.4,6.4,0,0,1,1.55-2.61,12.52,12.52,0,0,0,1.17-1.62.6.6,0,0,1,.67-.28,2,2,0,0,1,1.23.67,6.2,6.2,0,0,0,1.17,1c0-.35,0-.73-.06-1.15-.08-1.72-.19-4-.49-6.79C214.06,431.8,211.89,432.26,209.08,432.64Z" style="fill:#891b1b"/><polygon points="498.2 311.68 274.4 296.5 114.03 464.41 98.75 464.41 272.29 288.02 498.2 299.93 498.2 311.68" style="fill:#f5cece"/><path d="M114,465H98.75a.59.59,0,0,1-.54-.36.6.6,0,0,1,.12-.64L271.87,287.61a.6.6,0,0,1,.45-.17l225.91,11.91a.58.58,0,0,1,.56.58v11.75a.57.57,0,0,1-.19.43.59.59,0,0,1-.44.16L274.64,297.1,114.45,464.82A.6.6,0,0,1,114,465Zm-13.87-1.17h13.62L274,296.09a.66.66,0,0,1,.47-.18l223.16,15.14V300.49L272.52,288.63Z" style="fill:#891b1b"/><polygon points="442.39 463.82 497.61 463.82 497.61 365.14 445.92 358.09 442.39 463.82" style="fill:#f5cece"/><polyline points="304.65 298.69 293.47 321.93 448.15 338.88 443.93 308.3" style="fill:#f5cece"/><path d="M448.15,339.46h-.07L293.41,322.51a.58.58,0,0,1-.46-.84l11.17-23.23a.59.59,0,0,1,.79-.27.58.58,0,0,1,.27.78l-10.82,22.48,153.1,16.78-4.11-29.83a.58.58,0,0,1,.5-.66.59.59,0,0,1,.66.5l4.22,30.58a.56.56,0,0,1-.16.49A.59.59,0,0,1,448.15,339.46Z" style="fill:#891b1b"/><polyline points="293.99 463.29 298.23 328.28 446.54 345.23 442.3 463.64" style="fill:#f5cece"/><path d="M442.3,464.23h0a.58.58,0,0,1-.56-.61l4.22-117.87L298.79,328.94l-4.22,134.37a.6.6,0,0,1-.6.57.58.58,0,0,1-.57-.6l4.24-135a.58.58,0,0,1,.65-.56l148.32,16.95a.59.59,0,0,1,.52.6l-4.24,118.41A.59.59,0,0,1,442.3,464.23Z" style="fill:#891b1b"/><path d="M498.2,366.31h-.08l-52-7.31a.59.59,0,1,1,.16-1.16l52,7.3a.59.59,0,0,1,.5.67A.58.58,0,0,1,498.2,366.31Z" style="fill:#891b1b"/><path d="M245.43,299.27a48,48,0,0,0-16.37-1.12c-3.83.34-8.25,1.55-9.65,5.13-.68,1.76-.48,3.81-1.34,5.49-1.92,3.73-9,3.41-9.76,7.54-1.71,9.85,13.12,16.21,19.48,16.21l8.1-7.5" style="fill:#f5cece"/><path d="M227.79,333.11c-4.28,0-12.95-2.95-17.43-8.27a10.28,10.28,0,0,1-2.63-8.63c.43-2.52,2.86-3.55,5.21-4.55,1.87-.79,3.81-1.61,4.61-3.16a9.16,9.16,0,0,0,.72-2.79,12.26,12.26,0,0,1,.59-2.64c1.22-3.11,4.73-5,10.15-5.5a48.91,48.91,0,0,1,16.55,1.12.6.6,0,0,1,.45.71.59.59,0,0,1-.71.44,47.81,47.81,0,0,0-16.19-1.1c-3.45.31-7.84,1.38-9.15,4.76a10.35,10.35,0,0,0-.53,2.38,9.94,9.94,0,0,1-.84,3.16c-1,1.92-3.13,2.83-5.19,3.7s-4.19,1.78-4.51,3.67a9.17,9.17,0,0,0,2.37,7.68c4.18,5,12.18,7.74,16.3,7.84l7.93-7.34a.59.59,0,0,1,.83,0,.59.59,0,0,1,0,.83l-8.1,7.5A.59.59,0,0,1,227.79,333.11Z" style="fill:#891b1b"/><polygon points="181.66 464.41 181.27 394.03 114.03 464.41 181.66 464.41" style="fill:#fca7a7"/><path d="M181.66,465H114a.58.58,0,0,1-.54-.36.57.57,0,0,1,.11-.63l67.25-70.39a.59.59,0,0,1,1,.4l.39,70.39a.58.58,0,0,1-.59.59Zm-66.26-1.17h65.67l-.38-68.35Z" style="fill:#891b1b"/><path d="M76.66,298c-.73-5.21-13.3-7.93-26.63-6.07s-22.36,7.6-21.63,12.82,12.12,7.93,25.45,6.07S77.39,303.18,76.66,298Z" style="fill:#f1f4f2"/><path d="M45.63,312a41.26,41.26,0,0,1-9.37-1c-5.06-1.21-8.06-3.4-8.45-6.18s1.68-5.74,5.83-8.25,9.88-4.33,16.31-5.23a53.7,53.7,0,0,1,18.25.39c5.44,1.22,8.65,3.41,9,6.18h0c.39,2.78-1.89,5.71-6.43,8.26a49.57,49.57,0,0,1-16.88,5.22A59.86,59.86,0,0,1,45.63,312ZM58.37,291.9a61.23,61.23,0,0,0-8.26.57c-6.27.88-11.91,2.68-15.86,5.08-3.67,2.22-5.59,4.8-5.27,7.08s3.06,4.13,7.55,5.2a48.4,48.4,0,0,0,17.24.37,48.49,48.49,0,0,0,16.47-5.09c4-2.26,6.15-4.83,5.84-7.07h0c-.31-2.21-3.28-4.1-8.14-5.19A44,44,0,0,0,58.37,291.9Z" style="fill:#891b1b"/><path d="M79,345.69s-.23-35.18-2.12-46.36C67,291.71,33,296.41,29.34,306.86c-.08,7.17.94,31.3.94,31.3" style="fill:#fca7a7"/><path d="M79,346.28a.58.58,0,0,1-.58-.58c0-.35-.25-34.79-2.08-46-6.38-4.69-22.51-4.3-33.74-1-7,2.08-11.5,5-12.69,8.26-.06,7.19.94,30.93.95,31.17a.59.59,0,0,1-.56.61h0a.6.6,0,0,1-.59-.56c0-.24-1-24.23-.94-31.33a.58.58,0,0,1,0-.19c1.27-3.64,6.06-6.87,13.5-9.09,11.56-3.44,28.22-3.93,35,1.29a.55.55,0,0,1,.22.36c1.88,11.1,2.13,46.11,2.13,46.46a.59.59,0,0,1-.58.59Z" style="fill:#891b1b"/><path d="M45.63,312a41.26,41.26,0,0,1-9.37-1c-5.06-1.21-8.06-3.4-8.45-6.18s1.68-5.74,5.83-8.25,9.88-4.33,16.31-5.23a53.7,53.7,0,0,1,18.25.39c5.44,1.22,8.65,3.41,9,6.18h0c.39,2.78-1.89,5.71-6.43,8.26a49.57,49.57,0,0,1-16.88,5.22A59.86,59.86,0,0,1,45.63,312ZM58.37,291.9a61.23,61.23,0,0,0-8.26.57c-6.27.88-11.91,2.68-15.86,5.08-3.67,2.22-5.59,4.8-5.27,7.08s3.06,4.13,7.55,5.2a48.4,48.4,0,0,0,17.24.37,48.49,48.49,0,0,0,16.47-5.09c4-2.26,6.15-4.83,5.84-7.07h0c-.31-2.21-3.28-4.1-8.14-5.19A44,44,0,0,0,58.37,291.9Z" style="fill:#891b1b"/><path d="M32.65,321.22a.59.59,0,0,1-.06-1.17,96.67,96.67,0,0,1,12.73-.42.59.59,0,0,1,0,1.17h0a95.91,95.91,0,0,0-12.57.42Z" style="fill:#891b1b"/><path d="M38.84,332.24a.39.39,0,0,1-.15,0,.58.58,0,0,1-.42-.71,17.19,17.19,0,0,0,.25-7.09,24.55,24.55,0,0,1-.27-3.34.59.59,0,1,1,1.17,0,25,25,0,0,0,.26,3.19,18.34,18.34,0,0,1-.27,7.53A.6.6,0,0,1,38.84,332.24Z" style="fill:#891b1b"/><path d="M49.15,332.84h-.06a.59.59,0,0,1-.52-.65c.08-.79.06-3.45,0-6,0-2.27,0-4.61,0-6a.58.58,0,0,1,.61-.56.58.58,0,0,1,.57.6c0,1.35,0,3.67,0,5.93,0,2.71,0,5.28,0,6.14A.6.6,0,0,1,49.15,332.84Z" style="fill:#891b1b"/><path d="M55.58,334.87a.59.59,0,0,1-.59-.55,65.31,65.31,0,0,1,.73-14.45.58.58,0,0,1,.44-.48A5.68,5.68,0,0,1,61,321.18a4.4,4.4,0,0,1,1.21,4.3c-.48,1.81-4.38,1.72-6,1.59a66.14,66.14,0,0,0,0,7.18.59.59,0,0,1-.55.62Zm.62-9c2.2.16,4.66-.1,4.82-.72a3.23,3.23,0,0,0-.91-3.18,4.88,4.88,0,0,0-3.3-1.51C56.53,322.28,56.33,324.09,56.2,325.9Z" style="fill:#891b1b"/><path d="M68.38,333.63a9.92,9.92,0,0,1-1.48-.12.59.59,0,0,1,.18-1.16c3.22.49,4.66-.8,4.93-2.17a3.42,3.42,0,0,0-2.77-3.83,4.1,4.1,0,0,1-3.43-4.5,4.22,4.22,0,0,1,4.38-3.63h.1a.58.58,0,0,1,.57.6.57.57,0,0,1-.59.57h-.08A3.07,3.07,0,0,0,67,322a2.93,2.93,0,0,0,2.54,3.21,4.6,4.6,0,0,1,3.65,5.2C72.85,332,71.41,333.63,68.38,333.63Z" style="fill:#891b1b"/><polyline points="129.74 351.59 132.44 377.01 28.96 432.57 26.57 398.62" style="fill:#fca7a7"/><path d="M29,433.15a.55.55,0,0,1-.28-.07.56.56,0,0,1-.3-.47L26,398.66a.58.58,0,0,1,.54-.62.6.6,0,0,1,.63.54l2.32,33,102.34-54.94-2.66-25a.58.58,0,0,1,.52-.64.59.59,0,0,1,.65.52L133,377a.6.6,0,0,1-.31.58L29.24,433.08A.55.55,0,0,1,29,433.15Z" style="fill:#891b1b"/><line x1="28.96" y1="432.57" x2="1.11" y2="426.82" style="fill:#fff"/><path d="M29,433.15h-.12L1,427.39a.58.58,0,0,1-.46-.69.6.6,0,0,1,.69-.46L29.08,432a.59.59,0,0,1-.12,1.16Z" style="fill:#891b1b"/><polygon points="1.18 333.72 1.11 393.92 27.08 398.2 129.74 351.59 1.18 333.72" style="fill:#f5cece"/><path d="M27.08,398.79H27L1,394.5a.59.59,0,0,1-.49-.58l.07-60.2a.58.58,0,0,1,.21-.44.58.58,0,0,1,.46-.14L129.82,351a.59.59,0,0,1,.51.49.6.6,0,0,1-.34.62L27.33,398.74A.7.7,0,0,1,27.08,398.79ZM1.69,393.42,27,397.59l100.66-45.7L1.77,334.4Z" style="fill:#891b1b"/><path d="M374.46,450.66a26.08,26.08,0,0,1-9.49-2.15c-7.44-3.26-24.74-13-27.66-15.43-2.19-1.79-2.89-6.08-3.57-10.23-.73-4.47-1.49-9.1-4.18-11.12-1.72-1.29-2.6-2.59-2.7-4-.17-2.35,1.92-4.8,4-6.9a5.33,5.33,0,0,1,1.08-.07c.94,0,2.25.08,3.51.15s2.39.13,3.22.13a2.85,2.85,0,0,0,1.31-.17c1.46-.75,2.8-1.51,4.07-2.22,4.12-2.31,7.37-4.14,11.16-4.14a14.42,14.42,0,0,1,5.34,1.12c1,.4,2,.76,2.93,1.12,5.46,2,10.61,3.93,13.87,10.44,1.51,3,4.14,4.8,6.93,6.68a26.45,26.45,0,0,1,6.29,5.27c4.9,6.13-3,22.05-10.78,29.78-1.15,1.15-2.95,1.73-5.35,1.73Z" style="fill:#f1f4f2"/><path d="M355.22,395.11a13.66,13.66,0,0,1,5.13,1.08c1,.4,2,.76,2.95,1.12,5.57,2.06,10.39,3.85,13.54,10.16,1.58,3.16,4.4,5.06,7.13,6.89a26.39,26.39,0,0,1,6.16,5.16c4.64,5.79-3.32,21.59-10.74,29-1,1-2.69,1.55-4.93,1.55a26.08,26.08,0,0,1-9.26-2.1c-7.4-3.25-24.62-13-27.52-15.34-2-1.66-2.7-5.84-3.36-9.88-.75-4.58-1.53-9.33-4.41-11.49-1.57-1.18-2.38-2.35-2.47-3.57-.14-2.06,1.76-4.33,3.72-6.3.13,0,.38,0,.8,0,.93,0,2.22.07,3.47.14s2.41.14,3.26.14a3.2,3.2,0,0,0,1.58-.24c1.47-.76,2.8-1.5,4.09-2.23,4-2.27,7.23-4.06,10.86-4.06m0-1.18c-5.14,0-9.26,3.19-15.5,6.43a3.13,3.13,0,0,1-1,.1c-1.67,0-4.86-.27-6.73-.27a3.16,3.16,0,0,0-1.44.17c-3.94,3.95-6.58,7.9-1.31,11.84,4.94,3.71,2.94,17.42,7.73,21.34,3,2.42,20.17,12.16,27.79,15.51a27,27,0,0,0,9.73,2.19,8,8,0,0,0,5.76-1.89c7.58-7.58,16.09-24,10.83-30.57-4.11-5.13-10.53-6.58-13.16-11.84-3.95-7.89-10.53-9.21-17.1-11.84a14.8,14.8,0,0,0-5.56-1.17Z" style="fill:#891b1b"/><path d="M367.35,403.68c1.21,1.58,2.12,4.06,1.76,5.13-4.15,1.19-23-5.95-17.2-9.05C355,398.1,365,400.63,367.35,403.68Z" style="fill:#f5cece"/><path d="M368,409.52c-4.92,0-16.22-4.31-17.55-7.59-.26-.62-.43-1.79,1.24-2.69,3.36-1.8,13.65.78,16.17,4.08h0c1.27,1.65,2.31,4.33,1.85,5.68a.58.58,0,0,1-.39.37A5,5,0,0,1,368,409.52Zm-13.22-9.7a5.57,5.57,0,0,0-2.54.46c-1,.53-.8,1-.71,1.21,1.23,3,13.41,7.37,17.12,6.82a8.27,8.27,0,0,0-1.72-4.28h0C365.2,401.84,358.75,399.82,354.73,399.82Z" style="fill:#891b1b"/><path d="M372.63,379.31c1.31-5.26,12.23-5.65,17.1-5.26.45,1.65-7.46,5.12-9.21,7.89-3,4.76-3.95,15.79-10.52,17.11" style="fill:#fca7a7"/><path d="M370,399.63a.59.59,0,0,1-.11-1.16c4.15-.83,6-6.11,7.59-10.77a31.23,31.23,0,0,1,2.55-6.07c.9-1.43,3.14-2.91,5.3-4.34a23.6,23.6,0,0,0,3.62-2.71c-6-.36-14.68.63-15.74,4.87a.59.59,0,1,1-1.14-.28c1.73-6.91,17.07-5.76,17.72-5.71a.59.59,0,0,1,.52.43c.33,1.22-1.35,2.4-4.33,4.37-2,1.31-4.19,2.78-5,4a31,31,0,0,0-2.44,5.84c-1.72,5-3.66,10.57-8.47,11.53Z" style="fill:#891b1b"/><path d="M307.51,430.78c-6.68,1.91-5.15,13-1.2,11.69l.26,3.43c-1.31.09-3.11.34-4.15-.45-1.56-1.2-4.35-11.42-2.45-13.85,1.27-1.64,5.82-1,7.54-.82" style="fill:#f1f4f2"/><path d="M304.68,446.6a4.27,4.27,0,0,1-2.62-.69c-1.24-1-2.69-5.62-3.15-9.16-.35-2.7-.15-4.55.59-5.51,1.32-1.7,5.08-1.33,7.33-1.11l.73.07a.59.59,0,0,1,.54.53.59.59,0,0,1-.43.62,5.73,5.73,0,0,0-3.94,4.43c-.59,2.51.07,4.93,1,5.82a1.25,1.25,0,0,0,1.35.31.59.59,0,0,1,.77.51l.26,3.44a.6.6,0,0,1-.14.43.58.58,0,0,1-.41.2l-.49,0C305.66,446.56,305.17,446.6,304.68,446.6Zm-1-15.49c-1.4,0-2.76.18-3.28.85s-.66,2.36-.36,4.64c.51,3.87,2,7.84,2.71,8.38s2.05.46,3.16.38l-.17-2.2a2.52,2.52,0,0,1-1.79-.69c-1.42-1.3-2-4.29-1.39-7a7.11,7.11,0,0,1,2.75-4.33C304.82,431.14,304.26,431.11,303.71,431.11Z" style="fill:#891b1b"/><path d="M307.94,428.18c-.48,2.93-3.35,19.81-1.14,22.79,3.46,4.65,14.15,4.19,18.23,1.14,4.56-3.42-.49-20.88.76-23.91Z" style="fill:#f1f4f2"/><path d="M316.15,455a19.18,19.18,0,0,1-2.84-.2c-2.24-.33-5.27-1.2-7-3.5-1.51-2-1.19-9.74,1-22.88l.06-.36a.59.59,0,0,1,.58-.49h0l17.85,0a.59.59,0,0,1,.49.26.6.6,0,0,1,.06.55c-.4,1,0,4.08.41,7.38.8,6.41,1.8,14.4-1.37,16.78C323.34,454.11,319.74,455,316.15,455Zm-7.71-26.25c-2.84,17.31-1.76,21-1.17,21.85,1.15,1.54,3.36,2.62,6.21,3,4.06.59,8.87-.28,11.2-2,2.62-2,1.63-9.91.9-15.7a36,36,0,0,1-.52-7.15Z" style="fill:#891b1b"/><path d="M325.65,427.6c1,.94-2.89,1-4,1.72-2.09,1.26-12.21,2.44-13.51-.51C306.37,424.86,321.61,423.62,325.65,427.6Z" style="fill:#f5cece"/><path d="M313.89,431.23a14.17,14.17,0,0,1-4.08-.49,3.36,3.36,0,0,1-2.24-1.7,2.12,2.12,0,0,1,1-2.76c3.31-2.28,13.93-2.61,17.49.9h0a.91.91,0,0,1,.3.92c-.21.69-1.18.9-2.52,1.18a8.25,8.25,0,0,0-1.93.54C320.65,430.58,317.11,431.23,313.89,431.23Zm2.81-5.49c-3.1,0-6.09.56-7.46,1.51-.91.62-.69,1.11-.6,1.32a2.46,2.46,0,0,0,1.53,1.05c3.19,1,9.65.09,11.14-.8a8.13,8.13,0,0,1,2.28-.69c.44-.09,1-.22,1.4-.34C323.28,426.35,319.93,425.74,316.7,425.74Zm8.54,2.27,0,0,.39-.44Z" style="fill:#891b1b"/><path d="M250.39,331.46c1.08.87,2,3.28,1.19,4.43-1.05-1.71-8.32-4.23-11.84,6.58-1.59-.23-2.11-6.51-1.32-7.9,1-1.69-4.84-1.1-5.26-1.31-.84-.42.6-4.59.12-5.4l10.4-3.81Z" style="fill:#fca7a7"/><path d="M239.74,343.06h-.09a1.84,1.84,0,0,1-1.3-1.18c-.95-1.93-1.2-6.25-.44-7.59-.29-.37-2.74-.38-3.55-.38a3.69,3.69,0,0,1-1.46-.12c-.86-.42-.63-1.79-.34-3.53a8.43,8.43,0,0,0,.21-2.11.58.58,0,0,1-.05-.48.59.59,0,0,1,.36-.35l10.4-3.81a.57.57,0,0,1,.64.15l6.67,7.38c1.22,1,2.27,3.72,1.27,5.19a.65.65,0,0,1-.5.26.58.58,0,0,1-.48-.28A4.49,4.49,0,0,0,247.2,335c-2.95.35-5.41,3.07-6.91,7.67A.59.59,0,0,1,239.74,343.06ZM234,332.73h.41c2.29,0,4.08.07,4.6,1a1.09,1.09,0,0,1,0,1.15c-.48.85-.39,4.73.47,6.5l.06.11c2.24-6.13,5.69-7.43,7.6-7.66a6.35,6.35,0,0,1,4.23,1,4.22,4.22,0,0,0-1.27-2.87l-.07-.06-6.44-7.11-9.55,3.5a11.39,11.39,0,0,1-.24,2.2,10.42,10.42,0,0,0-.23,2.29Z" style="fill:#891b1b"/><path d="M224,312.21v7.23c0,4.73,5.89,8.55,13.15,8.55s13.16-3.82,13.16-8.55v-7.23" style="fill:#fca7a7"/><path d="M237.1,328.58c-7.1,0-13-3.6-13.67-8.2a.53.53,0,0,1-.07-.28v-7.89a.59.59,0,1,1,1.17,0v7.23c0,4.39,5.64,8,12.57,8s12.57-3.58,12.57-8v-7.23a.59.59,0,0,1,.59-.59.58.58,0,0,1,.59.59v7.89a.64.64,0,0,1-.07.28C250.07,325,244.2,328.58,237.1,328.58Z" style="fill:#891b1b"/><ellipse cx="237.1" cy="311.55" rx="13.16" ry="8.55" style="fill:#fca7a7"/><path d="M237.1,320.69c-7.58,0-13.74-4.1-13.74-9.14s6.16-9.14,13.74-9.14,13.75,4.1,13.75,9.14S244.68,320.69,237.1,320.69Zm0-17.11c-6.93,0-12.57,3.58-12.57,8s5.64,8,12.57,8,12.57-3.57,12.57-8S244,303.58,237.1,303.58Z" style="fill:#891b1b"/><path d="M240.91,324.26s25.14,18.21,29.09,18.21c3.38,0,9.21-1.32,6.58-9.21-1.32-3.95-28.95-12.17-28.95-12.17Z" style="fill:#f5cece"/><path d="M270,343.06c-4,0-26.84-16.44-29.43-18.32a.58.58,0,0,1-.24-.53.58.58,0,0,1,.33-.48l6.72-3.17a.56.56,0,0,1,.42,0c.07,0,7,2.09,14,4.62,12.92,4.66,14.93,6.76,15.32,7.93,1,3.08.92,5.53-.34,7.26C275.09,342.7,271.8,343.06,270,343.06Zm-27.94-18.69c10.07,7.25,25.25,17.51,27.94,17.51,1.27,0,4.39-.22,5.84-2.23,1-1.42,1.08-3.5.18-6.21s-17.76-8.56-28.34-11.73Z" style="fill:#891b1b"/><path d="M268.68,335.89c-1.1,2.69-1.1,5.77,1.32,6.58,3.94,1.31,9.21-4,6.58-9.21C275.44,331,269.79,333.2,268.68,335.89Z" style="fill:#f5cece"/><path d="M271.29,343.26a4.68,4.68,0,0,1-1.48-.24,3.31,3.31,0,0,1-2-1.8,7.2,7.2,0,0,1,.35-5.55h0c.88-2.16,4.08-3.86,6.34-3.94A2.61,2.61,0,0,1,277.1,333a7.06,7.06,0,0,1-1,7.87A6.49,6.49,0,0,1,271.29,343.26Zm-2.06-7.15a6.15,6.15,0,0,0-.37,4.62,2.12,2.12,0,0,0,1.32,1.18,4.9,4.9,0,0,0,5-1.81,5.81,5.81,0,0,0,.87-6.58c-.27-.55-1-.64-1.53-.62-2,.08-4.66,1.67-5.29,3.21Z" style="fill:#891b1b"/><path d="M231.56,301.12c-5.92,0-15.37-6.58-14-18.18,1.4.48,12.74,11.12,16.45,6.62" style="fill:#fca7a7"/><path d="M231.56,301.7h0c-3.53,0-7.67-2.1-10.53-5.33a16.71,16.71,0,0,1-4-13.5.57.57,0,0,1,.27-.43.59.59,0,0,1,.5-.06,13,13,0,0,1,2.34,1.61c3.55,2.68,10.92,8.27,13.47,5.19a.59.59,0,1,1,.9.75c-3.26,4-10.95-1.88-15.08-5l-1.32-1a15.41,15.41,0,0,0,3.81,11.65c2.65,3,6.44,4.93,9.65,4.94a.59.59,0,1,1,0,1.17Z" style="fill:#891b1b"/><path d="M237.1,317.47c6.71,0,11.85-4,11.85-7.9,0-3.36-4.17-5.33-5.27-6.43-2.63-2.64,1.43-14.17,0-19.88-1.31-5.26-7.89-7.9-11.86-2-3.38,5,4.06,17.58-1.48,22.19-1.52,1.26-4.34,3.57-4.65,5.75C225.26,312.21,229.21,317.47,237.1,317.47Z" style="fill:#f5cece"/><path d="M237.1,318.06a13.33,13.33,0,0,1-10.18-4.13,6.41,6.41,0,0,1-1.81-4.81c.34-2.36,3.12-4.67,4.78-6.05,2.85-2.38,2-7.13,1.19-11.73-.72-4.08-1.4-7.93.25-10.4,1.83-2.72,4.42-4,7.11-3.53a7.58,7.58,0,0,1,5.81,5.71c.69,2.74.18,6.62-.32,10.38-.51,3.94-1.05,8,.17,9.22a10.71,10.71,0,0,0,1.1.86c1.73,1.24,4.33,3.11,4.33,6C249.53,314.09,243.72,318.06,237.1,318.06Zm.23-39.57a6.13,6.13,0,0,0-5,3.11c-1.4,2.07-.75,5.69-.07,9.53.87,4.93,1.78,10-1.53,12.78-1.5,1.25-4.17,3.47-4.44,5.38a5.31,5.31,0,0,0,1.54,3.87,12.13,12.13,0,0,0,9.29,3.72c6.64,0,11.26-3.85,11.26-7.31,0-2.28-2.31-3.94-3.85-5a11.19,11.19,0,0,1-1.24-1c-1.63-1.62-1.1-5.6-.5-10.2.48-3.65,1-7.43.34-10a6.39,6.39,0,0,0-4.88-4.83A4.56,4.56,0,0,0,237.33,278.49Z" style="fill:#891b1b"/><path d="M298.48,312.86c-4.47.08-13.87-4.95-20.59-9.86-4.43-3.25-20.44-20.19-35.24-10.53l2.49,8.83c10.53-4.88,29.7,14.52,31,19.78" style="fill:#fca7a7"/><path d="M276.16,321.67a.58.58,0,0,1-.57-.45c-.86-3.41-10.16-13.76-19.39-18.16-4.4-2.1-8-2.52-10.81-1.23a.6.6,0,0,1-.49,0,.59.59,0,0,1-.32-.37l-2.5-8.83a.58.58,0,0,1,.25-.65c13.21-8.63,27.51,3.49,33.62,8.66,1,.82,1.72,1.47,2.29,1.88,6.49,4.75,15.7,9.75,20.12,9.75h.12a.58.58,0,0,1,.58.58.59.59,0,0,1-.57.6h-.12c-4.67,0-14.18-5.12-20.82-10-.61-.44-1.38-1.1-2.36-1.93-6.35-5.38-19.48-16.51-31.86-8.81l2.2,7.77c3-1.11,6.76-.61,11.18,1.5,9.24,4.41,19,14.93,20,18.94a.6.6,0,0,1-.43.71Z" style="fill:#891b1b"/><path d="M246.48,294c-.87-2.27-5.57-3.44-8.19-3.76-3.34-.39-6.78.32-7.72,3.67-1.68,6-2.58,11.92,6.53,11.74C248.72,305.4,250,303.17,246.48,294Z" style="fill:#fca7a7"/><path d="M236.7,306.22c-3.23,0-5.41-.78-6.64-2.38-2-2.52-1.05-6.54-.05-10.11.87-3.13,3.93-4.61,8.35-4.09,2.76.33,7.69,1.57,8.67,4.13h0c1.67,4.38,2.43,7.5,1,9.56s-4.38,2.75-11,2.88Zm0-15.51c-2.17,0-4.78.61-5.54,3.33-.93,3.3-1.78,7-.15,9.09,1,1.34,3,2,6.1,1.91,6-.12,8.95-.81,10-2.37s.62-3.79-1.17-8.48c-.73-1.9-5-3.06-7.7-3.38A12.11,12.11,0,0,0,236.68,290.71Z" style="fill:#891b1b"/><path d="M295.8,218.5c.79.85,4.46,9.5,5.79,10.25,1.3-.75,3-4.13,2.62-5.88" style="fill:#fca7a7"/><path d="M301.59,229.33a.59.59,0,0,1-.29-.07c-.91-.51-2.23-3.09-4.14-7a31.76,31.76,0,0,0-1.79-3.39.59.59,0,0,1,0-.83.58.58,0,0,1,.83,0,23.11,23.11,0,0,1,2,3.68,48,48,0,0,0,3.4,6.21c1.06-1,2.29-3.67,2-5a.6.6,0,0,1,.46-.7.58.58,0,0,1,.69.45c.42,2-1.4,5.64-2.9,6.51A.59.59,0,0,1,301.59,229.33Z" style="fill:#891b1b"/><path d="M289.62,219.29c-.74,3.05,3.09,5.31,7.4,3.41,5.24-2.31,22.7-11.56,24.31-14.15.9-1.46-.69-5.22-5-3.32C314.5,206,290.18,217,289.62,219.29Z" style="fill:#f5cece"/><path d="M293.88,224a5.52,5.52,0,0,1-3.6-1.19,3.51,3.51,0,0,1-1.23-3.64c.68-2.82,26.78-14.34,27.05-14.46,3-1.34,4.64,0,5.19.63a3.15,3.15,0,0,1,.54,3.54c-1.74,2.8-19.53,12.15-24.57,14.38A8.57,8.57,0,0,1,293.88,224Zm-3.69-4.55a2.35,2.35,0,0,0,.84,2.46c1,.85,3.12,1.43,5.75.27,5.78-2.54,22.59-11.57,24.05-13.92a2,2,0,0,0-.42-2.15c-.82-.94-2.18-1.05-3.84-.32C307.48,209.77,290.9,217.76,290.19,219.43Z" style="fill:#891b1b"/><path d="M339.71,245c-4.24-2.9-13.69-1.64-18.4-5.17-5.26-4-6.58-35.53-21.05-30.26,0,0-6.58,2.63-6.58,6.57,5.26,5.27,13.16,6.58,13.16,14.48,0,17.3,10.71,29.61,15.79,28.94" style="fill:#fca7a7"/><path d="M322.23,260.19c-1.55,0-3.42-.91-5.36-2.61-5.28-4.64-10.62-14.77-10.62-26.95,0-5-3.37-7.2-7.27-9.73a33.57,33.57,0,0,1-5.71-4.33.6.6,0,0,1-.18-.42c0-4.29,6.67-7,7-7.12a8.26,8.26,0,0,1,6.75.18c5.46,2.75,8.12,11.7,10.48,19.6,1.43,4.81,2.78,9.35,4.39,10.56,2.36,1.77,6.08,2.29,9.67,2.79,3.39.47,6.59.92,8.72,2.37a.59.59,0,1,1-.67,1c-1.89-1.3-5-1.73-8.21-2.18-3.74-.52-7.61-1.06-10.21-3-1.92-1.44-3.2-5.73-4.82-11.17-2.17-7.29-4.88-16.36-9.88-18.88a7,7,0,0,0-5.8-.13s-5.92,2.41-6.18,5.79a33.73,33.73,0,0,0,5.34,4c4,2.61,7.81,5.08,7.81,10.72,0,11.81,5.13,21.6,10.22,26.07,1.85,1.62,3.62,2.46,4.9,2.29a.6.6,0,0,1,.66.51.59.59,0,0,1-.51.66A3.59,3.59,0,0,1,322.23,260.19Z" style="fill:#891b1b"/><path d="M498.2,325.19h0L458.24,324a.59.59,0,0,1,0-1.18l40,1.18a.59.59,0,0,1,0,1.17Z" style="fill:#891b1b"/><path d="M150.78,362.43c9.73,7.68,22.59,10.15,35,10.84s24.9-.15,37.11,2c13.47,2.38,26.82,8.39,40.28,6,8.26-1.48,16.11-11.38,24.45-10.54,9,.92.14,21.57,7.41,27,11.41,8.54,6.58,28.95,8.63,34.91,2,5.78,22.95,13.77,26.89,9.83-2.63-5.27-21-10.24-19.73-15.79,3-13.16,9.08-21.6,0-31.58-6.45-7.08,2.63-18.42,2.63-31.58,16-6,25.89-.38,40.79,7.89,11.84,6.58,5.5,22.52,4.9,24.92-.73,2.89,2.8,7.61,5.62,6.66,7.9-2.63,11.37-25,5.24-32.78s-25.05-18.07-26.29-21.16,2.63-6.58,15.79-6.58c47.66,0,53.95,35.52,57.89,50,2.74,10,17.53,17.09,27.66,19.38,2.65-.78,2.2-5,0-6.73s-5.14-2-7.53-3.42c-6.59-3.83-6.15-13.2-6.71-20.81a47.44,47.44,0,0,0-18.21-33.73C407.18,343,388.42,328,389,317.3c12.56-5.53,64.41,28.42,85,21.22,26.32-9.21,14.91-45.39,9.21-56.58S449,226.68,409.47,226.68c-18.42,0-86.84,10.53-89.47,43.42-7.9-1.31-16,2-17.11,14.47-3.95,43.42-26.31,31.58-43.61,36.21-4.22,1.13-7.71,5-9.07,9.11-2.15,6.52,6,13.42,11.89,9.95,0,0,.94-11.18,6.82-11.31,5.47-.12,10.29,3.41,16.87,13.94,2.3,3.68-22.69,24.58-53,17.1C222,356.89,150.78,362.43,150.78,362.43Z" style="fill:#fca7a7"/><path d="M326.8,444.11a24,24,0,0,1-5.16-.68c-7.66-1.77-17.17-6.56-18.56-10.59-.65-1.87-.65-4.88-.65-8.68,0-8.5,0-20.14-7.78-26-3.7-2.77-3.5-8.89-3.31-14.81.21-6.26.39-11.66-3.8-12.08-4.48-.45-9,2.44-13.35,5.24-3.54,2.27-7.2,4.61-10.94,5.29-9.53,1.71-19.11-.77-28.37-3.17-4-1-8.08-2.09-12.12-2.81-8-1.42-16.41-1.54-24.48-1.65-4.12-.06-8.38-.12-12.56-.36-15.72-.87-26.94-4.35-35.31-11a.58.58,0,0,1-.19-.63.59.59,0,0,1,.51-.42c2.91-.22,71.41-5.51,82.24-2.84,25,6.17,46.63-7.34,51.47-14,.88-1.22,1-1.95.85-2.21-6.14-9.82-10.86-13.76-16.36-13.66-5.29.12-6.23,10.66-6.24,10.77a.56.56,0,0,1-.29.45c-2.88,1.69-6.51,1.26-9.47-1.14s-4.36-6.2-3.28-9.49c1.5-4.56,5.31-8.38,9.48-9.5a60.46,60.46,0,0,1,12.55-1.47c14.21-.65,27.63-1.27,30.63-34.22.52-5.71,2.48-9.92,5.85-12.51a14.93,14.93,0,0,1,11.31-2.58c3.47-32.94,71-43.34,90-43.34,37.66,0,66.33,40.13,74.2,55.59,3.54,6.93,11.36,28.3,5.2,43.64a23.44,23.44,0,0,1-14.74,13.76c-11.46,4-32.32-4.47-50.72-12-14.49-5.89-28.19-11.45-33.86-9.42-.09,9.88,16.29,23.53,23.4,29a48.15,48.15,0,0,1,18.44,34.16c.07,1,.13,2,.19,3.07.38,6.93.77,14.1,6.22,17.27a18.62,18.62,0,0,0,3.22,1.35,14.85,14.85,0,0,1,4.39,2.12,5.65,5.65,0,0,1,1.94,5.23,3.07,3.07,0,0,1-2.17,2.52.57.57,0,0,1-.29,0c-9.72-2.2-25.23-9.29-28.09-19.8-.23-.85-.47-1.76-.73-2.74-3.95-15.2-12.18-46.82-56.6-46.82-11.35,0-14.29,2.53-15,3.62a2.15,2.15,0,0,0-.22,2.15c.48,1.2,4.69,4.12,9.16,7.21,6,4.18,13.56,9.39,17,13.81,4.12,5.23,3.93,16.1,1.66,23.67-1.64,5.47-4.19,9-7.17,10a4.1,4.1,0,0,1-4-1.25c-1.57-1.46-2.89-4-2.36-6.11.06-.23.16-.57.3-1,1.34-4.33,5.43-17.5-4.92-23.25l-.27-.15c-14.58-8.1-24.26-13.48-39.65-7.85-.07,5.23-1.53,10.2-2.83,14.6-1.92,6.54-3.58,12.19.05,16.17,7.27,8,5.13,15,2.41,23.92-.79,2.58-1.6,5.25-2.27,8.19-.61,2.67,4.94,5.65,9.84,8.28,4.42,2.38,8.61,4.63,9.85,7.11a.59.59,0,0,1-.11.68A5.83,5.83,0,0,1,326.8,444.11Zm-40.21-74a9.4,9.4,0,0,1,1.06.05c5.29.53,5.07,7,4.87,13.29-.19,5.62-.38,11.43,2.83,13.83,8.25,6.17,8.25,18.15,8.25,26.9,0,3.55,0,6.61.59,8.29,1.21,3.52,10.52,8.17,17.72,9.83,3.74.86,6.55.87,7.85.05-1.36-2-5.3-4.15-9.12-6.2-5.78-3.11-11.23-6-10.43-9.58.68-3,1.5-5.67,2.3-8.27,2.71-8.88,4.66-15.29-2.16-22.79-4.07-4.47-2.32-10.41-.3-17.29,1.3-4.44,2.78-9.47,2.78-14.68a.59.59,0,0,1,.38-.55c16.12-6.05,26-.55,41,7.78l.26.15c7.42,4.12,9.26,12.41,5.47,24.63-.13.41-.23.73-.28.94-.36,1.4.53,3.58,2,5a3,3,0,0,0,2.85,1c2.57-.86,4.91-4.23,6.41-9.25,2.22-7.39,2.28-17.87-1.46-22.61-3.36-4.29-10.8-9.44-16.78-13.57-5.73-4-9-6.29-9.58-7.74a3.34,3.34,0,0,1,.33-3.25c1.81-2.67,7.49-4.14,16-4.14,45.33,0,53.71,32.22,57.74,47.7q.38,1.47.72,2.73c2.72,10,17.6,16.75,27.06,18.93a2,2,0,0,0,1.21-1.57,4.55,4.55,0,0,0-1.52-4.09,13.67,13.67,0,0,0-4.05-1.93,19.6,19.6,0,0,1-3.42-1.45c-6-3.48-6.43-11.31-6.81-18.22,0-1-.11-2.05-.18-3a47,47,0,0,0-18-33.32c-7.36-5.64-24.4-19.89-23.86-30.35a.62.62,0,0,1,.35-.51c5.91-2.6,19.45,2.9,35.12,9.28,18.21,7.4,38.85,15.79,49.9,11.93a22.35,22.35,0,0,0,14-13.08c6-14.94-1.69-35.88-5.15-42.68-7.78-15.28-36.09-54.94-73.16-54.94-18.1,0-86.32,10.72-88.89,42.88a.56.56,0,0,1-.22.41.55.55,0,0,1-.46.12c-3-.51-7.42-.52-11,2.26-3.09,2.39-4.91,6.32-5.39,11.69-3.09,34-17.66,34.64-31.75,35.29a58.27,58.27,0,0,0-12.3,1.43c-3.8,1-7.29,4.52-8.67,8.73-.92,2.82.22,6,2.9,8.21,2,1.58,5,2.69,7.89,1.18.21-1.9,1.53-11.4,7.36-11.52s11,4,17.37,14.21c.51.81.21,2-.89,3.52-5,6.86-27.2,20.76-52.7,14.46-9.76-2.41-69.87,2-80.32,2.76,8,5.85,18.71,9,33.41,9.78,4.16.23,8.41.29,12.51.35,8.13.12,16.53.24,24.67,1.68,4.09.72,8.22,1.79,12.21,2.82,9.14,2.37,18.6,4.82,27.87,3.15,3.51-.63,7.07-2.91,10.52-5.12C277.75,372.87,282.09,370.09,286.59,370.09Z" style="fill:#891b1b"/><circle cx="323.94" cy="300.36" r="7.89" style="fill:#891b1b"/><path d="M323.94,284.57c-6.54,0-11.84,6.19-11.84,13.82h23.69C335.79,290.76,330.48,284.57,323.94,284.57Z" style="fill:#f5cece"/><path d="M336.37,299H311.51v-.59c0-7.94,5.58-14.4,12.43-14.4s12.43,6.46,12.43,14.4ZM312.7,297.8h22.49c-.26-7-5.21-12.64-11.25-12.64S313,290.78,312.7,297.8Z" style="fill:#891b1b"/><path d="M144.17,360.6c10,5.55,36.07,2.23,42.93-12.87,6.58-14.47-16.82-12.9-21.62-12.07C157.55,337,127.63,351.45,144.17,360.6Z" style="fill:#f5cece"/><path d="M156.48,363.7c-5,0-9.48-.87-12.6-2.59-3.91-2.16-5.63-4.8-5.12-7.84,1.44-8.52,20.39-17.12,26.62-18.19,3.55-.61,17.71-1.72,22.13,4,1.74,2.26,1.78,5.24.13,8.88-2.71,6-8.71,10.74-16.9,13.45A46.49,46.49,0,0,1,156.48,363.7Zm16-27.95a45.25,45.25,0,0,0-6.94.49c-5.66,1-24.35,9.5-25.66,17.22-.42,2.5,1.1,4.72,4.53,6.62h0c5.76,3.19,16.66,3.28,25.92.22,7.87-2.6,13.63-7.15,16.2-12.81,1.46-3.22,1.47-5.8,0-7.68C184.06,336.54,177.7,335.75,172.52,335.75Z" style="fill:#891b1b"/><path d="M168.77,344.05c3.49-.27,7.52-6.52,7.52-11.22,0-2.55-4.29-5.14-10.1-.7L167,334s4.58-2.35,5.76-1.18-.51,5.87-4,7.39A7.78,7.78,0,0,0,168.77,344.05Z" style="fill:#f1f4f2"/><path d="M168.77,344.64a.6.6,0,0,1-.56-.41,8.45,8.45,0,0,1,0-4.15.6.6,0,0,1,.34-.4,7.26,7.26,0,0,0,4-5,1.75,1.75,0,0,0-.16-1.45c-.51-.52-3.08.26-5.07,1.28a.55.55,0,0,1-.47,0,.61.61,0,0,1-.34-.31l-.82-1.89a.59.59,0,0,1,.18-.7c3.16-2.42,6.48-3.15,8.87-2a3.64,3.64,0,0,1,2.18,3.14c0,4.68-4.06,11.5-8.06,11.81Zm.51-4a7.52,7.52,0,0,0-.05,2.75c3-.78,6.48-6.35,6.48-10.55a2.49,2.49,0,0,0-1.53-2.09c-1.89-.93-4.59-.34-7.27,1.58l.39.89c1.55-.74,4.69-2,5.88-.8a2.74,2.74,0,0,1,.49,2.51A8.63,8.63,0,0,1,169.28,340.63Z" style="fill:#891b1b"/><path d="M157.73,351.82c4.47,1,10.34-2.54,11.51-6.07s0-9.4-2.48-14.93c-5.74-5-19.84,2-20.21,8.7C146.92,344.58,154.17,351,157.73,351.82Z" style="fill:#f1f4f2"/><path d="M159.33,352.57a7.55,7.55,0,0,1-1.72-.18h0c-3.9-.86-11.26-7.65-11.65-12.83.23-4.12,4.72-7.78,9.08-9.6,4.93-2.07,9.45-1.91,12.11.42a.75.75,0,0,1,.15.2c2.7,6,3.66,11.9,2.5,15.36C168.71,349.23,163.79,352.57,159.33,352.57Zm-1.47-1.32c4.21.92,9.76-2.47,10.83-5.68s.13-8.68-2.41-14.39c-2.73-2.29-7.35-1.58-10.78-.14-4.76,2-8.2,5.49-8.37,8.51.35,4.57,7.23,10.92,10.73,11.7Z" style="fill:#891b1b"/><path d="M166.31,331.07c0-2.05-7-3-10.58-1.18-7,3.53-7.88,7.34-9.16,10.07-.24.51,4.92,2.43,8.84,1.76C162.78,340.47,166.31,332.24,166.31,331.07Z" style="fill:#fca7a7"/><path d="M159.33,352.57a7.55,7.55,0,0,1-1.72-.18h0c-3.9-.86-11.26-7.65-11.65-12.83.23-4.12,4.72-7.78,9.08-9.6,4.93-2.07,9.45-1.91,12.11.42a.75.75,0,0,1,.15.2c2.7,6,3.66,11.9,2.5,15.36C168.71,349.23,163.79,352.57,159.33,352.57Zm-1.47-1.32c4.21.92,9.76-2.47,10.83-5.68s.13-8.68-2.41-14.39c-2.73-2.29-7.35-1.58-10.78-.14-4.76,2-8.2,5.49-8.37,8.51.35,4.57,7.23,10.92,10.73,11.7Z" style="fill:#891b1b"/><path d="M153.05,343a9,9,0,0,1-6.54-2.67.59.59,0,0,1,.83-.83c3.83,3.84,8.85,2,10.83,1,4.5-2.19,7.7-6.5,7.3-9.8a.59.59,0,0,1,1.17-.15c.46,3.84-3,8.57-8,11A13,13,0,0,1,153.05,343Z" style="fill:#891b1b"/><path d="M272.23,139.32c-2.39-3.81-6.82-7.66-6.94-8.07-.27-.91,1.72-2.86,3.35-2,1,.5,5.46,7.32,7.08,9.8" style="fill:#f1f4f2"/><path d="M272.23,139.91a.59.59,0,0,1-.5-.28,43.16,43.16,0,0,0-5.67-6.68c-1-1-1.25-1.28-1.33-1.54a2.33,2.33,0,0,1,1-2.17,2.92,2.92,0,0,1,3.17-.54c.53.27,1.84,1.65,7.3,10a.58.58,0,0,1-.17.81.6.6,0,0,1-.82-.17c-5.33-8.17-6.57-9.44-6.85-9.6a1.8,1.8,0,0,0-1.78.32c-.57.44-.76.91-.73,1l1,1a43.74,43.74,0,0,1,5.84,6.89.59.59,0,0,1-.19.81A.56.56,0,0,1,272.23,139.91Z" style="fill:#891b1b"/><path d="M284.34,139.45A37.43,37.43,0,0,1,289,132.2c1.5-1.93,3,2.12,2.43,3.26a22,22,0,0,1-3.53,4.7" style="fill:#f1f4f2"/><path d="M287.9,140.74a.54.54,0,0,1-.41-.17.59.59,0,0,1,0-.83,21.17,21.17,0,0,0,3.41-4.55,3.46,3.46,0,0,0-.94-2.86c-.09-.06-.21-.14-.5.24a39.08,39.08,0,0,0-4.59,7.11.58.58,0,1,1-1.07-.46,37.79,37.79,0,0,1,4.73-7.38,1.49,1.49,0,0,1,2.06-.51c1.14.72,1.93,3.26,1.36,4.39a22.07,22.07,0,0,1-3.63,4.85A.58.58,0,0,1,287.9,140.74Z" style="fill:#891b1b"/><path d="M278.8,138.49s2.67-8.67,4.83-12.7c.6-1.11,1.45-2.34,2.71-2.37,1,0,1.43,1.8.82,4.07-.69,2.54-6,10.93-6,10.93" style="fill:#f1f4f2"/><path d="M278.8,139.08a.47.47,0,0,1-.17,0,.58.58,0,0,1-.39-.73c.11-.36,2.71-8.77,4.88-12.81.6-1.13,1.6-2.64,3.21-2.67a1.3,1.3,0,0,1,1.14.56c.64.82.74,2.44.25,4.24-.69,2.59-5.82,10.75-6,11.1a.6.6,0,0,1-.81.18.58.58,0,0,1-.19-.81c.05-.08,5.25-8.35,5.9-10.77a4.41,4.41,0,0,0,0-3.21c-.1-.12-.16-.12-.2-.12-.75,0-1.45.67-2.2,2.06-2.11,3.93-4.76,12.51-4.79,12.59A.6.6,0,0,1,278.8,139.08Z" style="fill:#891b1b"/><path d="M270.28,142.51c0,4.69,1.18,22.32,2.35,25.84,1.11,3.35,13.24,3.42,14.1,0,1.17-4.7,3.52-22.32,3.52-25.84C290.25,137.81,270.28,137.81,270.28,142.51Z" style="fill:#fca7a7"/><path d="M279.84,171.48c-3.4,0-7.08-.89-7.77-2.94-1.25-3.77-2.38-21.68-2.38-26,0-2.85,5.31-4.12,10.58-4.12s10.57,1.27,10.57,4.12c0,3.43-2.32,21.11-3.54,26-.64,2.54-5.31,2.92-6.72,3Zm.43-31.91c-5.27,0-9.4,1.29-9.4,2.94,0,4.81,1.18,22.24,2.32,25.66.44,1.33,3.67,2.26,7.34,2.12,3-.12,5.35-1,5.63-2.08,1.2-4.82,3.51-22.31,3.51-25.7,0-1.08-1.7-1.77-2.71-2.09A23.42,23.42,0,0,0,280.27,139.57Z" style="fill:#891b1b"/><path d="M228,234.14s1.17,15.28,3.52,22.33c1.49,4.45,15,5.63,16.45,1.17,2.35-7,3.52-23.5,3.52-23.5" style="fill:#f1f4f2"/><path d="M241.18,261h0c-4.35,0-9.27-1.51-10.23-4.39-2.34-7-3.5-21.84-3.55-22.46a.59.59,0,0,1,.54-.63.6.6,0,0,1,.63.54c0,.15,1.2,15.28,3.5,22.18.75,2.24,5.22,3.59,9.11,3.59h0c3.34,0,5.73-.93,6.22-2.42,2.3-6.89,3.49-23.19,3.5-23.35a.59.59,0,0,1,.62-.54.58.58,0,0,1,.55.62c0,.68-1.21,16.61-3.55,23.65C247.84,259.84,245.1,261,241.18,261Z" style="fill:#891b1b"/><path d="M251.48,233.56c0,2.27-8.22,2.93-12.33,2.93-2.94,0-11.16-.66-11.16-2.93,0-2.94,7-4.12,11.16-4.12S251.48,230.62,251.48,233.56Z" style="fill:#f5cece"/><path d="M239.15,237.08c-.12,0-11.75-.1-11.75-3.52,0-3.84,8.7-4.7,11.75-4.7,2.73,0,12.92.79,12.92,4.7C252.07,237,240.47,237.08,239.15,237.08Zm0-7.05c-4.32,0-10.58,1.26-10.58,3.53,0,1.26,5.82,2.35,10.58,2.35,6.15,0,11.75-1.12,11.75-2.35C250.9,231.4,243.94,230,239.15,230Z" style="fill:#891b1b"/><path d="M244.43,257.64c4.7-2.35,3.53-4.7,3.53-9.4,0-2.35-4.7-8.22-4.7-8.22l5.21-.84s4.19,5.77,4.19,7.89C252.66,251.77,253.83,260,244.43,257.64Z" style="fill:#f1f4f2"/><path d="M247.41,258.64a13,13,0,0,1-3.12-.43.59.59,0,0,1-.12-1.1c3.51-1.75,3.43-3.34,3.27-6.51,0-.72-.07-1.5-.07-2.36,0-1.76-3.3-6.27-4.57-7.86a.58.58,0,0,1,.37-.94l5.21-.84a.58.58,0,0,1,.57.24c.44.6,4.3,6,4.3,8.23,0,.44,0,.92,0,1.42.07,3.17.16,7.11-2.26,9A5.59,5.59,0,0,1,247.41,258.64Zm-1.33-1.27a5.42,5.42,0,0,0,4.19-.75c2-1.58,1.89-5.2,1.82-8.1,0-.51,0-1,0-1.45,0-1.35-2.28-5-3.86-7.25l-3.88.62c1.33,1.75,4.22,5.78,4.22,7.8,0,.84,0,1.6.07,2.3C248.76,253.35,248.86,255.47,246.08,257.37Z" style="fill:#891b1b"/><polygon points="421.8 124.62 421.8 162.5 439.39 162.5 439.39 123.27 438.03 116.5 423.15 116.5 421.8 124.62" style="fill:#fca7a7"/><path d="M439.39,163.09H421.8a.58.58,0,0,1-.59-.58V124.62a.34.34,0,0,1,0-.1l1.35-8.12a.59.59,0,0,1,.58-.49H438a.6.6,0,0,1,.58.47l1.35,6.77v39.36A.58.58,0,0,1,439.39,163.09Zm-17-1.17H438.8V123.27l-1.25-6.18h-13.9l-1.27,7.58Z" style="fill:#891b1b"/><polygon points="428.11 116.5 429.91 104.32 432.62 104.32 433.97 116.5 428.11 116.5" style="fill:#fca7a7"/><path d="M434,117.09h-5.86a.62.62,0,0,1-.45-.21.57.57,0,0,1-.13-.47l1.8-12.17a.59.59,0,0,1,.58-.5h2.71a.58.58,0,0,1,.58.52l1.36,12.18a.58.58,0,0,1-.15.45A.57.57,0,0,1,434,117.09Zm-5.18-1.18h4.53l-1.22-11h-1.68Z" style="fill:#891b1b"/><path d="M417.65,131.54s-.93,24,0,32.62c.41,3.76,15.15,3.78,15.15,0V130.37l-1.17-5.82H420Z" style="fill:#fca7a7"/><path d="M425.44,167.57c-3.58,0-8.1-.83-8.37-3.35-.93-8.6,0-32.47,0-32.71a.45.45,0,0,1,0-.16l2.34-7a.58.58,0,0,1,.55-.4h11.64a.6.6,0,0,1,.58.47l1.16,5.83,0,33.9c0,1.89-2.54,3.15-6.79,3.38C426.23,167.56,425.84,167.57,425.44,167.57Zm-7.2-35.93c-.06,1.57-.89,24.19,0,32.45.15,1.45,4,2.51,8.29,2.28,3.29-.18,5.68-1.11,5.68-2.21V130.37l-1.06-5.24H420.42Z" style="fill:#891b1b"/><polygon points="424.26 124.52 425.82 114.03 428.15 114.03 429.31 124.52 424.26 124.52" style="fill:#fca7a7"/><path d="M429.31,125.1h-5.05a.57.57,0,0,1-.44-.2.61.61,0,0,1-.14-.47L425.24,114a.59.59,0,0,1,.58-.51h2.33a.59.59,0,0,1,.58.53l1.17,10.48a.59.59,0,0,1-.59.65ZM425,123.93h3.71l-1-9.31h-1.29Z" style="fill:#891b1b"/><path d="M430.09,130v37.89c0,4.39,17.59,4.39,17.59,0V128.68l-1.35-6.77H431.45Z" style="fill:#fca7a7"/><path d="M438.89,171.8c-4.67,0-9.39-1.2-9.39-3.88V130s0-.06,0-.1l1.36-8.11a.57.57,0,0,1,.58-.49h14.88a.57.57,0,0,1,.57.47l1.36,6.76v39.36C448.27,170.6,443.56,171.8,438.89,171.8Zm-8.21-41.72v37.84c0,1.52,3.6,2.71,8.21,2.71s8.21-1.19,8.21-2.71V128.68l-1.25-6.18H431.94Z" style="fill:#891b1b"/><polygon points="436.41 121.91 438.21 109.73 440.92 109.73 442.27 121.91 436.41 121.91" style="fill:#fca7a7"/><path d="M442.27,122.5h-5.86a.59.59,0,0,1-.45-.2.57.57,0,0,1-.13-.47l1.8-12.18a.58.58,0,0,1,.58-.5h2.71a.58.58,0,0,1,.58.52l1.35,12.18a.58.58,0,0,1-.58.65Zm-5.18-1.17h4.52l-1.22-11h-1.67Z" style="fill:#891b1b"/><path d="M313.75,163.65c0,4.85,20,4.7,20,0,0-3.52-1.23-14.28-2.35-17.62-1.17-3.52-12.92-3.52-15.27,0C314.64,148.22,313.75,161.3,313.75,163.65Z" style="fill:#f5cece"/><path d="M323.62,167.82a23.79,23.79,0,0,1-7-.92c-2.88-.92-3.49-2.28-3.49-3.25,0-1.65.79-15.45,2.45-18s6.88-3.3,11-2.74c1.7.22,4.64.9,5.3,2.88,1.12,3.36,2.38,14.1,2.38,17.81C334.31,166.53,328.94,167.82,323.62,167.82Zm.56-23.85c-3.2,0-6.54.82-7.59,2.39-1.29,1.94-2.25,14.38-2.25,17.29,0,1.71,4,3,9.28,3s9.52-1.31,9.52-3c0-3.55-1.26-14.23-2.32-17.43-.34-1-2-1.78-4.35-2.1A16.94,16.94,0,0,0,324.18,144Z" style="fill:#891b1b"/><path d="M297.3,166c0,7.05,20,5.88,20,1.18,0-3.53-.06-14.28-1.17-17.63-1.18-3.52-12.92-3.52-15.27,0C299.37,151.74,297.3,163.65,297.3,166Z" style="fill:#f5cece"/><path d="M307.29,171.58a18.57,18.57,0,0,1-7.1-1.22c-2.27-1-3.47-2.49-3.47-4.36,0-2.36,2.07-14.44,3.62-16.77s6.88-3.3,11-2.75c1.69.23,4.64.91,5.3,2.89,1,3.15,1.2,12.51,1.2,17.81C317.86,170.07,312.54,171.58,307.29,171.58Zm1.62-24.08c-3.21,0-6.55.81-7.59,2.38-1.31,2-3.43,13.62-3.43,16.12,0,3.05,4.72,4.41,9.4,4.41,5,0,9.4-1.51,9.4-3.23,0-8.9-.42-15.26-1.15-17.44-.33-1-2-1.77-4.34-2.09A17.05,17.05,0,0,0,308.91,147.5Z" style="fill:#891b1b"/><path d="M337.25,167.18c0,4.84,21.14,4.7,21.14,0,0-3.53-2.41-14.28-3.52-17.63-1.18-3.52-11.75-3.52-14.1,0C339.31,151.74,337.25,164.83,337.25,167.18Z" style="fill:#f5cece"/><path d="M347.7,171.34a26.44,26.44,0,0,1-7.36-.91c-3-.92-3.68-2.28-3.68-3.25,0-2.16,2-15.58,3.62-18s6.41-3.26,10.06-2.77c2.74.36,4.59,1.43,5.09,2.91,1.11,3.33,3.55,14.12,3.55,17.81C359,170.05,353.32,171.34,347.7,171.34Zm.58-23.84c-2.88,0-6,.79-7,2.38-1.36,2-3.43,15.08-3.43,17.3,0,1.67,4.34,3,9.87,3s10.11-1.34,10.11-3c0-3.46-2.4-14.14-3.5-17.44-.34-1-1.88-1.82-4.13-2.12A14.57,14.57,0,0,0,348.28,147.5Z" style="fill:#891b1b"/><path d="M313.75,151.9c0,4.85,20,3.53,20-1.17,0-3.53-1.23-13.11-2.35-16.45-1.17-3.52-12.92-3.52-15.27,0C314.64,136.47,313.75,149.55,313.75,151.9Z" style="fill:#f5cece"/><path d="M321.83,155.54a19,19,0,0,1-5.83-.76c-2.35-.79-2.84-2-2.84-2.88,0-1.65.79-15.45,2.45-17.94s6.88-3.31,11-2.75c1.7.23,4.64.9,5.3,2.89,1.18,3.54,2.38,13.23,2.38,16.63S326.65,155.54,321.83,155.54Zm2.35-23.31c-3.2,0-6.54.81-7.59,2.38-1.29,1.94-2.25,14.38-2.25,17.29,0,.89,1.1,1.45,2,1.76a17.9,17.9,0,0,0,5.46.71c5.91,0,11.31-1.74,11.31-3.64,0-3.59-1.27-13.1-2.32-16.26-.34-1-2-1.78-4.35-2.1A17,17,0,0,0,324.18,132.23Z" style="fill:#891b1b"/><path d="M313.75,140.16c0,4.84,20,5.87,20,1.17,0-3.52-.06-14.28-1.17-17.62-1.18-3.53-12.93-3.53-15.28,0C315.82,125.89,313.75,137.81,313.75,140.16Z" style="fill:#f5cece"/><path d="M325.44,145a27.56,27.56,0,0,1-8.08-1.13c-3.47-1.11-4.2-2.61-4.2-3.67,0-2.36,2.07-14.45,3.63-16.78s6.88-3.3,11-2.75c1.7.23,4.64.91,5.31,2.89,1,3.15,1.2,12.51,1.2,17.81C334.31,144.69,327.52,145,325.44,145Zm-.08-23.31c-3.21,0-6.55.81-7.6,2.38-1.3,2-3.42,13.63-3.42,16.13,0,1.93,5.19,3.62,11.1,3.62,4.46,0,7.7-1,7.7-2.45,0-8.9-.42-15.25-1.15-17.44-.33-1-1.95-1.77-4.34-2.09A17.05,17.05,0,0,0,325.36,121.65Z" style="fill:#891b1b"/><path d="M297.3,156.6c0,4.85,21.15,4.7,21.15,0,0-3.52-1.24-14.28-2.35-17.62-1.18-3.52-12.92-3.52-15.27,0C299.37,141.17,297.3,154.25,297.3,156.6Z" style="fill:#f5cece"/><path d="M307.76,160.77a26.52,26.52,0,0,1-7.37-.91c-3-.93-3.67-2.28-3.67-3.26,0-2.16,2-15.57,3.62-17.95s6.88-3.3,11-2.74c1.69.22,4.64.9,5.3,2.88,1.12,3.36,2.38,14.11,2.38,17.81C319,159.48,313.37,160.77,307.76,160.77Zm1.15-23.84c-3.21,0-6.55.81-7.59,2.38-1.36,2-3.43,15.08-3.43,17.29,0,1.68,4.33,3,9.87,3s10.1-1.34,10.1-3c0-3.55-1.25-14.23-2.32-17.43-.33-1-2-1.78-4.34-2.1A17.07,17.07,0,0,0,308.91,136.93Z" style="fill:#891b1b"/><path d="M71.34,112.37c-5.69-3.86-1.46-27.44,10.88-32.08,11.86-4.46,39.18-4.58,44,3.55" style="fill:#fca7a7"/><path d="M71,112.85c-2.26-1.53-3.21-5.77-2.55-11.34,1-8.41,5.67-18.81,13.55-21.77,12.44-4.68,39.76-4.55,44.75,3.8l-1,.6c-4.64-7.78-31.51-7.75-43.32-3.3-7.43,2.79-11.84,12.74-12.8,20.8-.6,5.06.18,9,2,10.24Z" style="fill:#891b1b"/><path d="M74.75,122.58c-2.24.88-6,6.29-2.53,11.41,11.89,17.64,35.29,13.62,56.07-5.58" style="fill:#fca7a7"/><path d="M93.11,145.84a29,29,0,0,1-3.26-.19,24.87,24.87,0,0,1-18.12-11.33A8.31,8.31,0,0,1,70.62,127a8,8,0,0,1,3.92-5l.43,1.09a7.11,7.11,0,0,0-3.23,4.23,7.19,7.19,0,0,0,1,6.32C77,140,82.79,143.65,90,144.48c11.32,1.32,25.14-4.7,37.91-16.5l.8.86C116.85,139.78,104.09,145.84,93.11,145.84Z" style="fill:#891b1b"/><path d="M48.06,110c-9.47-3.35.63,32.89,8.76,28,3.61-2.16,8-10.73,16.15-15.59,11.75-.22,14.24,14,44.84,9.71,18.54-2.6,23.29-20.9,28.94-21.7,6.05-.87,10.5-3.73,10.41-8.43s-11.41-.66-15.34-4.4c-5.14-4.91-10.93-18.6-32-15.84-28.05,3.67-33.37,29.34-37,30.13C66.94,113.23,56,112.82,48.06,110Z" style="fill:#f5cece"/><path d="M55.26,139.1a5.38,5.38,0,0,1-3.79-2C46,131.42,41.71,115,44.59,110.54a2.87,2.87,0,0,1,3.66-1.07c7.84,2.77,18.78,3.14,24.42,1.9.68-.15,1.87-2.28,3.14-4.53,4.48-8,12.83-22.86,33.91-25.61,17.54-2.3,24.78,6.67,29.56,12.6a37.15,37.15,0,0,0,2.95,3.39c1.68,1.6,5.09,1.64,8.1,1.67,3.62,0,7.36.09,7.42,3.15.09,4.65-4,8-10.92,9-1.77.25-3.62,2.69-6,5.77-4.55,6-10.79,14.23-23,15.94-19.74,2.77-27.84-2.05-34.34-5.93-3.55-2.11-6.36-3.78-10.3-3.78h-.11c-4.73,2.86-8.18,7-11,10.36-2,2.36-3.53,4.23-5.06,5.14A3.61,3.61,0,0,1,55.26,139.1Zm-8.34-28.7a1.51,1.51,0,0,0-1.34.77c-2.55,4,1.72,20,6.74,25.12,1.53,1.59,3,2,4.2,1.26s2.93-2.7,4.75-4.89c2.87-3.44,6.44-7.73,11.4-10.69l.14-.08H73c4.42-.09,7.55,1.79,11.19,4,6.35,3.78,14.24,8.49,33.58,5.77,11.71-1.64,17.78-9.64,22.21-15.48,2.5-3.3,4.48-5.9,6.72-6.23,6.29-.9,10-3.82,9.91-7.83,0-1.79-2.38-2-6.25-2-3.23,0-6.89-.08-8.9-2a36.22,36.22,0,0,1-3-3.5c-4.9-6.07-11.61-14.39-28.5-12.18-20.49,2.68-28.65,17.22-33,25-1.69,3-2.71,4.84-3.91,5.1-5.93,1.3-16.92.93-25.06-1.94A2.84,2.84,0,0,0,46.92,110.4Z" style="fill:#891b1b"/><circle cx="130.64" cy="98.46" r="5.28" style="fill:#f1f4f2"/><path d="M130.64,104.32a5.86,5.86,0,0,1-.11-11.72,5.75,5.75,0,0,1,4.18,1.63,5.83,5.83,0,0,1,1.79,4.12h0a5.86,5.86,0,0,1-5.74,6Zm0-10.55h-.1a4.69,4.69,0,1,0,4.78,4.6,4.69,4.69,0,0,0-4.68-4.6Z" style="fill:#891b1b"/><circle cx="130.08" cy="99.05" r="1.76" style="fill:#891b1b"/><path d="M125.37,98.56a5.28,5.28,0,1,1,10.55-.2" style="fill:#fca7a7"/><path d="M124.78,98.57a5.87,5.87,0,0,1,5.75-6,5.75,5.75,0,0,1,4.18,1.63,5.83,5.83,0,0,1,1.79,4.12l-1.17,0a4.62,4.62,0,0,0-1.44-3.29A4.68,4.68,0,0,0,126,98.55Z" style="fill:#891b1b"/><path d="M114.19,121.57c-3.72,0-8.8-2.73-12-6.18-4.27-4.57-4.72-9.43-1.24-13.34,1.8-2,6.88-.07,12.1,2.35.65.3,1.14.53,1.41.63h0a22.3,22.3,0,0,0,3.51.69c2.76.42,5.61.85,6.68,2,1.9,2.11,0,3.89-1.45,5.19a6.71,6.71,0,0,0-1.73,2,12.69,12.69,0,0,1-4.24,5.7A4.89,4.89,0,0,1,114.19,121.57Zm-10.92-19.21a1.91,1.91,0,0,0-1.47.48c-4.3,4.82-.57,9.82,1.23,11.75,4.18,4.48,11,7.08,13.46,5.16a11.46,11.46,0,0,0,3.85-5.18,7.47,7.47,0,0,1,2-2.49c1.73-1.59,2.39-2.41,1.37-3.53-.79-.88-3.67-1.32-6-1.67a22.44,22.44,0,0,1-3.73-.75h0c-.29-.11-.82-.35-1.5-.67C110.52,104.53,105.83,102.36,103.27,102.36Z" style="fill:#891b1b"/><path d="M151.05,106.38a.59.59,0,0,1-.38-.14.59.59,0,0,1-.07-.83c1.92-2.25,5.5-2.06,5.65-2a.58.58,0,0,1,.55.62.6.6,0,0,1-.62.55s-3.15-.16-4.68,1.64A.58.58,0,0,1,151.05,106.38Z" style="fill:#891b1b"/><line x1="125.77" y1="99.04" x2="136.35" y2="97.86" style="fill:#efefef"/><rect x="125.74" y="97.86" width="10.64" height="1.18" transform="translate(-10.14 15.2) rotate(-6.39)" style="fill:#891b1b"/></svg>