<svg xmlns="http://www.w3.org/2000/svg" viewBox="0 0 350 350"><title>bug_bath_1</title><rect width="350" height="350" style="fill:#f2d6d6"/><path d="M100.09,194.45V61.19L67.41,41.78l1.28,194.29s-1.71,26.29-.44,42.85c.92,12,208.51,13.95,209.1,2.76.92-17.5-.33-41-.33-41l8.56-200.8L259.9,61.19,257,196.28" style="fill:#ebebff"/><path d="M188.74,289.53c-26.28,0-53.34-.77-74.81-2.15-30.33-2-45.85-4.79-46.13-8.43-1.26-16.4.43-42.64.44-42.91L67,41.78a.46.46,0,0,1,.68-.39L100.32,60.8a.47.47,0,0,1,.22.39V194.45a.45.45,0,0,1-.45.45.46.46,0,0,1-.46-.45v-133L67.87,42.58l1.28,193.49c0,.29-1.7,26.48-.45,42.81.09,1.1,3.6,4.91,45.29,7.6,25.73,1.66,59.49,2.42,90.33,2,53.34-.64,72.43-4.1,72.58-6.87.91-17.28-.32-40.71-.33-40.94l8.52-199.84L260.35,61.4,257.5,196.29a.44.44,0,0,1-.46.44.46.46,0,0,1-.45-.46l2.86-135.09a.46.46,0,0,1,.16-.34l25.68-21.3a.48.48,0,0,1,.49-.06.46.46,0,0,1,.25.43l-8.56,200.8c0,.19,1.24,23.67.33,41-.33,6.18-51.49,7.46-73.47,7.73C199.2,289.5,194,289.53,188.74,289.53Z" style="fill:#030389"/><path d="M68.69,236.72c-.6-8.73,31.4-41.62,31.4-41.62l157,1.83s19.57,35.66,20,44.4C277.35,248.24,69.17,243.64,68.69,236.72Z" style="fill:#ebebff"/><path d="M218.71,245.19c-21.43,0-46.63-.42-71.26-1.24-22.27-.75-41.35-1.73-55.18-2.84-23.86-1.92-24-3.57-24-4.36-.61-8.83,30.21-40.62,31.52-42a.37.37,0,0,1,.33-.13l157,1.82a.49.49,0,0,1,.39.24c.8,1.46,19.62,35.85,20,44.6,0,.73.1,2.09-15.58,3C251.78,244.9,236.55,245.19,218.71,245.19ZM69.14,236.67c1,2.1,30.27,5.11,92.27,6.8s113.71.72,115.17-2.16c-.39-8.14-18.12-40.85-19.8-43.94l-156.5-1.82C98,197.88,68.61,228.5,69.14,236.67Zm0,0Zm0,0Z" style="fill:#030389"/><path d="M259.9,61.64H100.09a.45.45,0,1,1,0-.9H259.9a.45.45,0,1,1,0,.9Z" style="fill:#030389"/><path d="M188.52,234.41c-5.11,0-9.94-.07-14.25-.18-35.81-.9-73.47-3.21-81.23-13.47a7,7,0,0,1-1.25-6.2c3.87-15.14,40-15.47,83.22-14.38,48.84,1.22,81.56,4.7,82.5,17.68a7.18,7.18,0,0,1-2.2,5.6C246.66,232.53,214.08,234.41,188.52,234.41ZM152,200.75c-35.66,0-56.57,3.09-59.37,14a6,6,0,0,0,1.1,5.43c7.58,10,47,12.27,80.53,13.12,44.31,1.11,72.85-2.61,80.37-10.49a6.34,6.34,0,0,0,2-4.91h0c-.94-13-39.79-15.8-81.62-16.85Q162.66,200.77,152,200.75Z" style="fill:#030389"/><path d="M192.3,275.53c-56,0-120.34-5.08-124.9-13.37a.46.46,0,0,1,.17-.62.46.46,0,0,1,.62.18c2.74,5,32.73,9.6,76.41,11.77,43.26,2.15,87,1.35,111.32-2,16.78-2.33,20.87-5.3,21.36-7.38a.44.44,0,0,1,.54-.34.46.46,0,0,1,.34.54c-.81,3.48-8,6.12-22.11,8.08C240.42,274.52,217.18,275.53,192.3,275.53Z" style="fill:#030389"/><path d="M92.2,161.71c0,8.26-2.47,15-5.53,15s-4.6-6.7-4.6-15,2.47-15,5.53-15S92.2,153.44,92.2,161.71Z" style="fill:#f1f4f2"/><path d="M86.67,177.12c-3.72,0-5-8-5-15.42,0-8.64,2.62-15.41,6-15.41,3.72,0,5.05,8,5.05,15.41C92.65,170.35,90,177.12,86.67,177.12Zm.93-29.93c-2.46,0-5.08,5.83-5.08,14.51s1.67,14.52,4.15,14.52,5.08-5.83,5.08-14.52S90.08,147.19,87.6,147.19Z" style="fill:#030389"/><path d="M86.67,168.83a.45.45,0,0,1-.37-.2c-2.56-3.84-1.74-11.17-.07-14.34.58-1.11,1.25-1.68,2-1.68s1.24.44,1.75,1.35a.45.45,0,1,1-.78.44c-.33-.57-.67-.89-1-.89h0c-.35,0-.79.45-1.18,1.2-1.59,3-2.28,10,0,13.42a.45.45,0,0,1-.13.63A.43.43,0,0,1,86.67,168.83Z" style="fill:#030389"/><path d="M91.28,166.26c2,0,3.68-2.33,3.68-5.21s-1.64-5.2-3.68-5.2c0,0-4.62-.21-5.53,1.3s-1,6.45,0,7.81S91.28,166.26,91.28,166.26Z" style="fill:#f1f4f2"/><path d="M91.08,166.71c-1,0-4.67-.09-5.69-1.48-1.13-1.55-1-6.71,0-8.31s5.43-1.54,5.93-1.52h0c2.26,0,4.12,2.54,4.12,5.65s-1.86,5.66-4.14,5.66Zm-.44-10.42c-1.7,0-4,.27-4.5,1.09-.84,1.4-.85,6.18,0,7.31.63.87,3.49,1.13,5.15,1.12h0c1.78,0,3.23-2.13,3.23-4.76s-1.45-4.75-3.23-4.75Z" style="fill:#030389"/><path d="M260.77,102.06c.92-.92,0-10.13,0-10.13-1.2-1.28-6.1,1.69-5.53,3.68C255.53,96.63,259.85,103,260.77,102.06Z" style="fill:#fff"/><path d="M260.54,102.6l-.25,0c-1.62-.42-5.2-5.84-5.48-6.83-.39-1.37,1.06-2.9,2.67-3.8,1.24-.7,2.84-1.15,3.62-.32a.52.52,0,0,1,.12.26c.28,2.84.83,9.53-.13,10.5h0A.81.81,0,0,1,260.54,102.6Zm-.65-10.53a4.29,4.29,0,0,0-2,.65c-1.47.83-2.46,2-2.26,2.77.31,1.09,3.84,6,4.81,6.2.42-.76.26-5.43-.14-9.53A1,1,0,0,0,259.89,92.07Z" style="fill:#030389"/><path d="M265.79,88c4.19,1.15,2.62,65.42.64,67.12-7.51,1.27-6.21-11-6.07-13.13.32-4.6,2.47-45.69,2.27-54.3" style="fill:#a2a2f4"/><path d="M265.39,155.69a4.47,4.47,0,0,1-3.13-1.17c-3.1-2.83-2.55-9.89-2.37-12.21l0-.33c.29-4.15,2.48-45.52,2.27-54.26a.45.45,0,1,1,.9,0c.21,8.76-2,50.19-2.27,54.34l0,.34c-.46,5.93.24,9.79,2.07,11.47a3.84,3.84,0,0,0,3.32.88c1.53-3.06,3.19-56.18,0-65.34-.29-.85-.52-.93-.52-.93a.47.47,0,0,1-.32-.56.45.45,0,0,1,.56-.31c.63.17,1.09,1,1.49,2.78,1.39,6.2,1.64,22.84,1.41,36.35,0,1.12-.48,27.39-2.09,28.77a.44.44,0,0,1-.22.1A7.15,7.15,0,0,1,265.39,155.69Zm1-.55h0Z" style="fill:#030389"/><path d="M265.37,91c.92-2.76,2.3-1.62,2.77-1.84,2.14-1,1.84-3.69,3.68-3.69.92,0,.94,13.61.28,13.66-2.12.16-2.32-4.35-4-3.53-1.85.93-2.07-.84-3.22-.77-2.58.14-5.63,2.21-7.35,2.41-2.07.23-4.19-1.86-1.65-2.87C256.79,94,265.37,91,265.37,91Z" style="fill:#f1f4f2"/><path d="M272,99.6c-1.27,0-1.93-1.28-2.46-2.31-.62-1.19-.85-1.44-1.18-1.27a2.09,2.09,0,0,1-2.63-.34c-.31-.26-.51-.41-.76-.39a14.21,14.21,0,0,0-4.39,1.38,11.48,11.48,0,0,1-2.94,1c-1.44.16-3-.67-3.27-1.76-.1-.38-.16-1.35,1.4-2,.81-.33,7.93-2.83,9.27-3.3.72-2,1.72-2.1,2.71-1.94l.25,0a4,4,0,0,0,1.67-1.93c.47-.88,1-1.79,2.17-1.79.44,0,.94,0,1.13,5.09.13,3.5.2,9.39-.82,9.47Zm-3.44-4.55c.84,0,1.35,1,1.78,1.83s.92,1.69,1.52,1.8c.45-1.71.29-11.31-.21-12.73-.52.08-.78.52-1.18,1.29a4.7,4.7,0,0,1-2.12,2.34,1.25,1.25,0,0,1-.74,0c-.57-.09-1.21-.19-1.79,1.54a.43.43,0,0,1-.28.28c-.08,0-8.58,3-9.44,3.37-.37.14-1,.46-.85.91a2.22,2.22,0,0,0,2.29,1.09,11.77,11.77,0,0,0,2.68-1,14.56,14.56,0,0,1,4.69-1.45,2,2,0,0,1,1.4.59,1.2,1.2,0,0,0,1.64.23A1.35,1.35,0,0,1,268.54,95.05Zm-3.17-4h0Z" style="fill:#030389"/><path d="M262.61,91c-.86,9.42,1.54,57.51-1.7,66.49-2.48,1-10.07-3.28-11.2-5.7s3.69-55.71,3.69-57.11c0-2.76,6.45-10.13,12.39-6.67" style="fill:#a2a2f4"/><path d="M260.06,158.08c-3.27,0-9.65-3.71-10.76-6.09-.8-1.73,1-24.82,3-49.5.36-4.35.62-7.5.62-7.8,0-1.77,2.27-5,5.32-6.8a7.48,7.48,0,0,1,7.74-.26.46.46,0,0,1,.17.62.45.45,0,0,1-.62.16,6.61,6.61,0,0,0-6.84.26c-3,1.71-4.87,4.71-4.87,6,0,.33-.2,2.79-.62,7.87-1.07,12.91-3.92,47.19-3.11,49.05,1,2.15,8,6.11,10.44,5.53,2-6.07,1.73-27.82,1.51-45.34-.11-9.39-.21-17.51.09-20.83a.45.45,0,0,1,.9.08c-.3,3.28-.2,11.37-.08,20.74.22,17.8.49,40-1.64,45.86a.49.49,0,0,1-.26.27A2.88,2.88,0,0,1,260.06,158.08Z" style="fill:#030389"/><path d="M88.52,27.45c-3.69,3.69-2.77,12,2.76,13.82,1.84-.92,4.22-5.4,7.37-6.45,2.76-.92,6.73-1.53,9.21,0,2.22,1.37,6.45,6.45,9.21,9.21.92,4.61,1,9.44,2.77,10.13,4.6,1.85,12-4.6,11-8.29-.5-2-6.45-3.68-10.13-4.6-2.77-1.84-6.94-6-10.14-9.21-3.68-3.69-11.76-.65-13.81-.92S91.28,27.45,88.52,27.45Z" style="fill:#f1f4f2"/><path d="M121.6,54.94a5.12,5.12,0,0,1-1.93-.36c-1.51-.6-1.91-3.3-2.42-6.73-.18-1.17-.36-2.39-.59-3.6-.88-.88-1.88-2-2.93-3.1-2.18-2.37-4.66-5-6.11-5.95-2.24-1.38-6-.88-8.83,0-1.75.58-3.29,2.35-4.65,3.9a10.59,10.59,0,0,1-2.66,2.52.45.45,0,0,1-.34,0,7.8,7.8,0,0,1-5-5.9,9.37,9.37,0,0,1,2.06-8.67.46.46,0,0,1,.32-.13c1.68,0,3.53,1.14,5.16,2.14a10.26,10.26,0,0,0,3.19,1.55,12.85,12.85,0,0,0,2.71-.32c3.4-.58,8.53-1.47,11.36,1.37,3.07,3.07,7.27,7.27,10,9.11,6.67,1.67,10,3.23,10.39,4.91.53,2.15-1.28,4.66-3.16,6.3A10.85,10.85,0,0,1,121.6,54.94ZM104,33.44a7.83,7.83,0,0,1,4.13,1c1.55,1,4,3.57,6.29,6.1,1.09,1.18,2.12,2.29,3,3.17a.4.4,0,0,1,.12.23c.26,1.28.45,2.55.63,3.78.43,2.89.84,5.61,1.86,6,2.47,1,5.62-.66,7.58-2.37s3.23-4,2.87-5.4c-.18-.72-1.7-2.25-9.8-4.27a.61.61,0,0,1-.14-.07c-2.81-1.87-7.08-6.14-10.2-9.26-2.51-2.51-7.36-1.67-10.58-1.12a11.86,11.86,0,0,1-3,.32,10.5,10.5,0,0,1-3.54-1.67c-1.46-.9-3.12-1.92-4.51-2A8.64,8.64,0,0,0,87,35.59a7,7,0,0,0,4.23,5.19,12.43,12.43,0,0,0,2.22-2.22c1.44-1.64,3.06-3.51,5.05-4.17A18.34,18.34,0,0,1,104,33.44Z" style="fill:#030389"/><path d="M123.44,47.78c-2.5,2-4.31,4.86-3.33,6.11s5-.27,7.46-2.24,3.75-4.57,2.76-5.82S126,45.82,123.44,47.78Z" style="fill:#030389"/><rect x="171.71" y="77.37" width="12.15" height="12.15" transform="translate(-6.94 150.16) rotate(-45)" style="fill:#3939e5"/><path d="M177.79,92.68l-9.23-9.23,9.23-9.23L187,83.45Zm-8-9.23,8,8,8-8-8-8Z" style="fill:#030389"/><rect x="214.24" y="77.19" width="12.15" height="12.15" transform="translate(5.65 180.17) rotate(-45)" style="fill:#3939e5"/><path d="M220.31,92.49l-9.23-9.23L220.31,74l9.23,9.23Zm-7.95-9.23,7.95,8,8-8-8-8Z" style="fill:#030389"/><rect x="128.44" y="77.02" width="12.15" height="12.15" transform="translate(-19.36 119.45) rotate(-45)" style="fill:#3939e5"/><path d="M134.51,92.32l-9.23-9.23,9.23-9.23,9.23,9.23Zm-7.95-9.23,7.95,8,8-8-8-8Z" style="fill:#030389"/><path d="M246.65,172.36c.74-2.52,10.47-4.2,12.71-.84,1,1.5,1.5,17.61,0,21.8-.39,1.1-3,3.36-3,3.36v5s-1.5,1.68-3,1.68a8.93,8.93,0,0,1-4.59-1.85l.27-3.86s-3-3.49-3.16-4.36C245.15,189.13,245.79,175.23,246.65,172.36Z" style="fill:#f1f4f2"/><path d="M253.38,203.84a9.29,9.29,0,0,1-4.87-1.94.48.48,0,0,1-.17-.39l.26-3.68c-.84-1-3-3.55-3.15-4.43-.75-4.21-.11-18.22.76-21.17.47-1.56,3.28-2.52,5.55-2.86,3-.44,6.59-.18,8,1.9,1.16,1.74,1.48,18.19.05,22.2-.38,1.06-2.36,2.87-3,3.41v4.83a.46.46,0,0,1-.11.3C256.64,202.08,255.06,203.84,253.38,203.84Zm-4.12-2.51a8.19,8.19,0,0,0,4.12,1.61,4.36,4.36,0,0,0,2.54-1.41v-4.85a.43.43,0,0,1,.15-.34,13.83,13.83,0,0,0,2.87-3.17c1.45-4.08,1-20,.05-21.4-1.09-1.62-4.34-1.92-7.09-1.51-2.48.38-4.56,1.33-4.82,2.23h0c-.83,2.78-1.46,16.71-.74,20.75a23.15,23.15,0,0,0,3.06,4.15.42.42,0,0,1,.11.32Zm-2.61-29h0Z" style="fill:#030389"/><path d="M253.4,204.31c.67,2.68,6.45,5.52,10.13,2.76s1.84-12.9,1.84-19.34c0-3.69-3.68-5.53-3.68-5.53v-4.61h-4.61v4.61s-3.68,1.84-3.68,5.53S252.48,200.62,253.4,204.31Z" style="fill:#a2a2f4"/><path d="M260,208.65a8.43,8.43,0,0,1-2.81-.5c-2.14-.76-3.83-2.26-4.2-3.73h0c-.67-2.68-.4-8-.18-12.37.09-1.75.17-3.26.17-4.32,0-3.39,2.81-5.29,3.68-5.8v-4.34a.45.45,0,0,1,.45-.45h4.61a.45.45,0,0,1,.45.45v4.34c.87.51,3.68,2.41,3.68,5.8,0,1.54.11,3.29.22,5.13.37,6.06.75,12.33-2.24,14.57A6.3,6.3,0,0,1,260,208.65Zm-2.44-30.6v4.15a.43.43,0,0,1-.25.4s-3.43,1.77-3.43,5.13c0,1.08-.08,2.6-.17,4.37-.21,4.25-.48,9.55.16,12.1h0c.29,1.17,1.78,2.44,3.63,3.1a6.1,6.1,0,0,0,5.79-.59c2.6-2,2.22-8.24,1.88-13.79-.11-1.86-.22-3.62-.22-5.19,0-3.36-3.4-5.11-3.43-5.13a.43.43,0,0,1-.25-.4v-4.15Z" style="fill:#030389"/><path d="M82.07,274.31s14.22,3.43,18.42,5.53c1.84.92,1.84,3.68,1.84,3.68s7.37,3.69,8.14,4.61-.68,3.68-1.69,3.68c-1.84,0-8.66-1.84-8.66-1.84a5.64,5.64,0,0,1-4.23,1.84c-4.14,0-16.94-5.12-16.94-5.12Z" style="fill:#f1f4f2"/><path d="M108.78,292.27c-1.69,0-7.21-1.45-8.51-1.79a6.14,6.14,0,0,1-4.38,1.79c-4.18,0-16.58-4.95-17.11-5.17a.45.45,0,0,1-.27-.52l3.12-12.38a.46.46,0,0,1,.54-.33c.59.14,14.32,3.47,18.52,5.57,1.72.85,2,3,2.08,3.8,1.65.83,7.3,3.71,8,4.6.5.6.23,1.77-.18,2.66C110.44,290.91,109.74,292.27,108.78,292.27Zm-8.66-2.75.12,0c.07,0,6.78,1.82,8.54,1.82.19,0,.66-.43,1-1.24s.44-1.54.3-1.7c-.51-.62-5.17-3.08-8-4.49a.47.47,0,0,1-.25-.41s0-2.49-1.59-3.28c-3.7-1.85-15.48-4.79-17.89-5.38l-2.91,11.55c2.11.83,12.78,4.95,16.4,4.95a5.15,5.15,0,0,0,3.88-1.67A.46.46,0,0,1,100.12,289.52Z" style="fill:#030389"/><path d="M98.9,289.05a.45.45,0,0,1-.45-.4c-.2-1.71.14-3.95,1.68-5.12a.45.45,0,0,1,.54.72c-1.24.94-1.49,2.84-1.32,4.29a.45.45,0,0,1-.4.5Z" style="fill:#030389"/><path d="M93.25,291.42a.44.44,0,0,1-.4-.24c-1.07-2.05-.91-5.28.42-8.24,1.08-2.41,2.66-4,4.35-4.46a.46.46,0,0,1,.55.33.46.46,0,0,1-.33.55c-1.4.34-2.8,1.82-3.75,3.95-1.2,2.67-1.37,5.67-.44,7.45a.45.45,0,0,1-.19.61A.38.38,0,0,1,93.25,291.42Z" style="fill:#030389"/><path d="M107.94,291.63a2.32,2.32,0,0,0,2.36-1c.57-1,.8-2.18.6-2.31C108.32,286.75,106.48,290.43,107.94,291.63Z" style="fill:#030389"/><path d="M105.72,290.56h0a.44.44,0,0,1-.42-.47V290a3.12,3.12,0,0,1,1.54-3.05.45.45,0,0,1,.49.76c-1,.68-1.06,1.13-1.12,2.34v.11A.44.44,0,0,1,105.72,290.56Z" style="fill:#030389"/><path d="M75.16,292.74c-.92-3.69-1.38-20.27-.46-27.64.34-2.74,3.68-4.6,3.68-4.6V247.6c0-1.15,4.61-1.15,4.61,0v12.9a5.57,5.57,0,0,1,3.87,4.6c.8,6.42,1.38,22.11,0,27.64C86.27,295.08,75.75,295.08,75.16,292.74Z" style="fill:#f1f4f2"/><path d="M81,295c-1,0-5.79-.11-6.29-2.11-1-3.8-1.38-20.5-.47-27.79.32-2.53,2.88-4.31,3.68-4.81V247.6c0-1,1.43-1.31,2.76-1.31s2.75.34,2.75,1.31v12.57a5.94,5.94,0,0,1,3.87,4.88c.79,6.35,1.41,22.12,0,27.79C86.8,294.84,82,295,81,295Zm-.32-47.76c-1.19,0-1.8.3-1.86.42V260.5a.44.44,0,0,1-.24.39s-3.14,1.79-3.45,4.27c-.91,7.22-.49,23.72.45,27.47.17.69,2.24,1.41,5.41,1.41s5.24-.72,5.41-1.41c1.34-5.37.8-21,0-27.47a5.08,5.08,0,0,0-3.54-4.23.45.45,0,0,1-.33-.43V247.6A2.87,2.87,0,0,0,80.69,247.19Z" style="fill:#030389"/><path d="M79.66,271.42c-2.39,0-4.61-.21-5.42-.85a.45.45,0,0,1-.08-.63.46.46,0,0,1,.63-.08c1.45,1.14,10.54.59,12,.08a.45.45,0,0,1,.58.27.47.47,0,0,1-.28.58A38.75,38.75,0,0,1,79.66,271.42Z" style="fill:#030389"/><path d="M85.18,268.13a.45.45,0,0,1-.45-.4c-.34-3.46-.5-4-2.47-5.07a.47.47,0,0,1-.17-.62.46.46,0,0,1,.62-.17c2.39,1.35,2.58,2.31,2.92,5.77a.45.45,0,0,1-.41.49Z" style="fill:#030389"/><path d="M87.48,283.69H74.36a54.76,54.76,0,0,0,.83,8.68c.6,2.33,11.41,2.33,12,0a13.61,13.61,0,0,0,.28-1.39Z" style="fill:#030389"/><path d="M81.06,284.66c-2.89,0-5.77-.24-6.75-.73a.45.45,0,0,1,.41-.81c1.71.86,11,.86,12.67,0a.45.45,0,1,1,.41.81C86.82,284.42,83.94,284.66,81.06,284.66Z" style="fill:#030389"/><path d="M107.16,183.52c-.22-2.24-1.14-4.08-2.41-3.92-.1,1.08.8,2.64-.37,3.2-5-.94-9.89-1.7-14.75-1.15s-6.5,6.36-4.8,9.76c1.84,3.69,18.32-2.37,18.42-1.84.93,4.6,6.45,1.84,6.57,1.29C110.06,189.71,111.54,185,107.16,183.52Z" style="fill:#f1f4f2"/><path d="M88.18,193.05c-1.87,0-3.23-.4-3.75-1.44a7.94,7.94,0,0,1,.29-7,6.22,6.22,0,0,1,4.86-3.37c5-.58,10.22.27,14.72,1.12.31-.23.27-.66.12-1.49a4.7,4.7,0,0,1-.12-1.28.46.46,0,0,1,.39-.41,1.77,1.77,0,0,1,1.32.39,5.71,5.71,0,0,1,1.57,3.65c4.14,1.56,3.09,6,2.75,7.48l-.07.29c-.14.66-2.31,1.68-4,1.68h0A3.27,3.27,0,0,1,102.9,190c-.5.1-1.53.38-2.53.66C96,191.89,91.35,193.05,88.18,193.05ZM93,181.92a31.19,31.19,0,0,0-3.35.18A5.38,5.38,0,0,0,85.51,185a7,7,0,0,0-.27,6.2c1.18,2.37,10.79-.27,14.89-1.4,2.78-.76,3.06-.82,3.35-.64a.54.54,0,0,1,.22.31,2.43,2.43,0,0,0,1.82,2.17,5.43,5.43,0,0,0,3.87-1l.06-.24C110,188,110.28,185,107,184a.47.47,0,0,1-.31-.39,5.12,5.12,0,0,0-1.27-3.31.9.9,0,0,0-.22-.14c0,.18,0,.37.09.56.15.85.37,2-.73,2.54a.55.55,0,0,1-.28,0A60.92,60.92,0,0,0,93,181.92Zm16.35,8.84h0Zm0-.09Z" style="fill:#030389"/><path d="M87.6,187.26a.44.44,0,0,1-.25-.08.44.44,0,0,1-.13-.62c1.67-2.52,5.86-2.26,9.55-2,.71,0,1.4.09,2,.11a.44.44,0,0,1,.43.46.43.43,0,0,1-.46.44c-.65,0-1.35-.06-2.08-.11-3.45-.21-7.35-.44-8.74,1.64A.45.45,0,0,1,87.6,187.26Z" style="fill:#030389"/><path d="M261.78,274.66a1.76,1.76,0,0,1,.3-1.28,1.69,1.69,0,0,1,.84-.4,20.74,20.74,0,0,1,8.19-.36,1.79,1.79,0,0,1,1.2.54,1.82,1.82,0,0,1,.27,1.11l.4,11.39c0,1,1.6,5.23-5.76,5.23C258,290.89,262,280.66,261.78,274.66Z" style="fill:#a2a2f4"/><path d="M267.22,291.34c-2.29,0-3.94-.59-5-1.81-2.07-2.32-1.62-6.33-1.19-10.2a35.11,35.11,0,0,0,.33-4.66h0a2.17,2.17,0,0,1,.42-1.6,2.05,2.05,0,0,1,1.06-.53,21.27,21.27,0,0,1,8.37-.36,2.21,2.21,0,0,1,1.49.7,2.3,2.3,0,0,1,.36,1.37l.4,11.4c0,.1,0,.24.05.41a4.23,4.23,0,0,1-.69,3.58C271.8,290.79,270,291.34,267.22,291.34Zm.69-18.51a20,20,0,0,0-4.88.59,1.31,1.31,0,0,0-.62.27,1.4,1.4,0,0,0-.18.95h0a36.63,36.63,0,0,1-.33,4.79c-.41,3.67-.84,7.48,1,9.49.92,1,2.34,1.52,4.36,1.52,2.44,0,4.09-.47,4.89-1.39a3.4,3.4,0,0,0,.48-2.85c0-.21,0-.39-.06-.52l-.4-11.4a1.49,1.49,0,0,0-.18-.85,1.46,1.46,0,0,0-.91-.36A20.43,20.43,0,0,0,267.91,272.83Z" style="fill:#030389"/><path d="M267.46,276.38a8.21,8.21,0,0,1-3.95-1,.45.45,0,0,1,.44-.79,7.4,7.4,0,0,0,6.3.33.46.46,0,0,1,.59.24.45.45,0,0,1-.24.59A8,8,0,0,1,267.46,276.38Z" style="fill:#030389"/><path d="M266.91,273.52c-.23-1.13-.9-2.13-1.19-3.25s0-2.56,1-3c.63,1.21,1.64,2.27,1.86,3.61s-1,3-2.26,2.46" style="fill:#ebebff"/><path d="M266.91,274a.46.46,0,0,1-.23-.06,1.5,1.5,0,0,1-.5-.14.45.45,0,0,1,.09-.85c-.11-.32-.26-.64-.4-1a10,10,0,0,1-.59-1.56c-.35-1.32,0-3,1.32-3.52a.46.46,0,0,1,.57.21,11.4,11.4,0,0,0,.68,1.14,7,7,0,0,1,1.22,2.61A3,3,0,0,1,268,273.5a1.92,1.92,0,0,1-.85.39.36.36,0,0,1-.17.07Zm-.31-6.05a2.34,2.34,0,0,0-.45,2.24,10.3,10.3,0,0,0,.54,1.42,10.1,10.1,0,0,1,.53,1.36l.24-.15a2,2,0,0,0,.72-1.81,6.55,6.55,0,0,0-1.08-2.27C266.93,268.45,266.76,268.19,266.6,267.92Z" style="fill:#030389"/><path d="M215.65,291.74l22.09.07,17.8,17.54a7.93,7.93,0,0,1-5.46,1.3c-1.65-.15-9.55-3.58-12.66-6.68-1.64-1.64-2.07-6.53-2.38-7-.59,2-1.37,5.38-3.34,6-2.56.76-12.57-2.86-16.56-4.69a7.77,7.77,0,0,0,1.51-1.16,9.58,9.58,0,0,1-3-.82,11.39,11.39,0,0,1-.33-3.24l2.36-1.25" style="fill:#f1f4f2"/><path d="M251,311.15c-.32,0-.65,0-1,0-1.78-.16-9.82-3.69-12.94-6.81-1.18-1.19-1.76-3.81-2.11-5.58-.6,1.94-1.46,4.12-3.16,4.62-2.84.84-13.22-3-16.88-4.71a.46.46,0,0,1-.26-.38.47.47,0,0,1,.22-.42,6.93,6.93,0,0,0,.72-.48c-.94-.19-2.2-.53-2.41-.89a11,11,0,0,1-.38-3.5.48.48,0,0,1,.24-.36l2.36-1.24a.42.42,0,0,1,.21-.06h0l22.08.07a.48.48,0,0,1,.32.13L255.86,309a.45.45,0,0,1,.13.35.41.41,0,0,1-.18.33A8,8,0,0,1,251,311.15Zm-16-14.66a.46.46,0,0,1,.39.21,5.83,5.83,0,0,1,.37,1.47c.32,1.65.86,4.4,1.94,5.48,3.08,3.08,10.94,6.42,12.38,6.55a7.82,7.82,0,0,0,4.71-.92l-17.28-17-21.79-.06-2,1.07A12.06,12.06,0,0,0,214,296a11.46,11.46,0,0,0,2.68.64.46.46,0,0,1,.39.29.47.47,0,0,1-.1.49,8.22,8.22,0,0,1-.9.76c4.67,2,13.32,5,15.5,4.34,1.53-.45,2.32-3.19,2.84-5l.2-.66a.45.45,0,0,1,.38-.32Zm-21.11-.58Z" style="fill:#030389"/><path d="M229.7,301.47a15.64,15.64,0,0,1-3.92-.75.45.45,0,0,1-.29-.57.44.44,0,0,1,.56-.29c.86.28,3.31.93,4.28.64.48-.14,1.33-1.53,1.89-2.94a13.64,13.64,0,0,1-5.57,1.37,34.18,34.18,0,0,1-5.89-1,.46.46,0,0,1-.34-.55A.45.45,0,0,1,221,297h0a30,30,0,0,0,5.69,1c2,0,5.37-1,6.06-1.92a.45.45,0,0,1,.55-.13.46.46,0,0,1,.24.52c-.36,1.5-1.68,4.5-2.92,4.87A3.41,3.41,0,0,1,229.7,301.47Z" style="fill:#030389"/><path d="M239.76,296.15c-3.38,2.33-4.78,1.19-6.9-2.76-1.57,4.87-15.11.95-19-.4L235,285.37l4.78,10.78" style="fill:#3939e5"/><path d="M236.85,297.8a3,3,0,0,1-.67-.08c-1.28-.31-2.25-1.51-3.31-3.36a3.49,3.49,0,0,1-1.36,1.13c-4.85,2.41-17.22-1.89-17.74-2.07a.46.46,0,0,1-.31-.43.44.44,0,0,1,.3-.42l21.06-7.63a.47.47,0,0,1,.57.24L240.17,296a.46.46,0,0,1-.16.56A5.78,5.78,0,0,1,236.85,297.8Zm-4-4.86a.44.44,0,0,1,.39.24c1.08,2,2,3.4,3.14,3.66a3.72,3.72,0,0,0,2.8-.86l-4.46-10.05-19.45,7c4.63,1.49,12.53,3.35,15.83,1.71a2.4,2.4,0,0,0,1.32-1.42.44.44,0,0,1,.39-.32Z" style="fill:#030389"/><path d="M246.74,307.21a.39.39,0,0,1-.15,0c-.05,0-5.43-1.9-7.16-4.13a12.89,12.89,0,0,1-1.86-4.25.45.45,0,0,1,.31-.56.45.45,0,0,1,.56.3,11.79,11.79,0,0,0,1.71,4c1.29,1.67,5.4,3.36,6.74,3.83a.45.45,0,0,1-.15.87Z" style="fill:#030389"/><polygon points="212.57 291.23 233.28 279.84 250.88 281.91 231.21 294.34 212.57 291.23" style="fill:#3939e5"/><path d="M231.21,294.79h-.08l-18.64-3.11a.45.45,0,0,1-.37-.36.47.47,0,0,1,.23-.48l20.71-11.39a.5.5,0,0,1,.27-.05l17.6,2.07a.46.46,0,0,1,.39.35.45.45,0,0,1-.2.48l-19.67,12.43A.51.51,0,0,1,231.21,294.79ZM213.92,291l17.19,2.86,18.45-11.65-16.19-1.91Z" style="fill:#030389"/><path d="M257.09,284s16.57,10.36,16.57,11.39-16.57,14.5-16.57,14.5l-16.56-11.39v-2.07Z" style="fill:#3939e5"/><path d="M257.09,310.32a.49.49,0,0,1-.25-.08l-16.57-11.39a.44.44,0,0,1-.19-.37v-2.07a.43.43,0,0,1,.18-.36l16.56-12.43a.45.45,0,0,1,.51,0c11.14,7,16.78,10.92,16.78,11.77,0,1-9.1,8.65-16.73,14.85A.43.43,0,0,1,257.09,310.32ZM241,298.24l16.09,11.07c5.93-4.83,15.11-12.52,16.09-13.92-1-1.25-10.17-7.18-16-10.86L241,296.63Z" style="fill:#030389"/><polygon points="251.56 279.84 258.13 282.95 240.53 296.41 232.24 292.27 251.56 279.84" style="fill:#3939e5"/><path d="M240.53,296.86a.46.46,0,0,1-.2-.05L232,292.67a.47.47,0,0,1-.25-.38.43.43,0,0,1,.21-.4l19.31-12.43a.46.46,0,0,1,.44,0l6.57,3.11a.45.45,0,0,1,.26.36.42.42,0,0,1-.18.4l-17.6,13.47A.46.46,0,0,1,240.53,296.86Zm-7.38-4.64,7.33,3.66L257.27,283l-5.68-2.69Z" style="fill:#030389"/><line x1="232.24" y1="292.27" x2="231.21" y2="294.34" style="fill:#3535c9"/><path d="M231.21,294.79a.46.46,0,0,1-.41-.66l1-2.07a.45.45,0,0,1,.81.41l-1,2.07A.45.45,0,0,1,231.21,294.79Z" style="fill:#030389"/><path d="M225.76,220c1.21,3.6,11,9,13.91,9.47,3.48.53,13.62-1.65,17.41-6.71,1.13-1.51,2.77-7.37-1.84-11C244.54,203.11,223,211.68,225.76,220Z" style="fill:#3939e5"/><path d="M240.78,230a6.64,6.64,0,0,1-1.17-.08c-2.91-.44-13-5.93-14.27-9.77h0c-.92-2.74.58-5.72,4.09-8.18,6-4.19,18.43-6.74,26.09-.61,4.69,3.75,3.28,9.88,1.92,11.68C253.87,227.77,245,230,240.78,230Zm-14.59-10.14c1.11,3.33,10.51,8.71,13.55,9.17,3.22.5,13.22-1.51,17-6.53.9-1.19,2.73-6.84-1.76-10.43-7.32-5.86-19.23-3.39-25,.64-3.17,2.21-4.54,4.82-3.76,7.15Z" style="fill:#030389"/><path d="M258,220.89c1.52-9.09-18.42,2.76-14.73,8.29C243.27,229.18,257.08,226.41,258,220.89Z" style="fill:#f1f4f2"/><path d="M243.27,229.63a.48.48,0,0,1-.38-.2c-1-1.57-.53-3.72,1.47-6,3.23-3.76,9.89-7.33,12.76-6,.81.38,1.7,1.31,1.33,3.55l-.45-.07.45.07c-1,5.77-14.52,8.54-15.1,8.66ZM255.62,218c-2.76,0-7.8,2.73-10.58,6-.93,1.09-2.33,3.1-1.55,4.69,2-.45,13.28-3.14,14.07-7.86h0c.22-1.35-.05-2.22-.82-2.58A2.7,2.7,0,0,0,255.62,218Z" style="fill:#030389"/><path d="M254.52,211.86c1.29,2.24-20.29,2.81-13.1-3C244,206.82,252.84,209,254.52,211.86Z" style="fill:#f1f4f2"/><path d="M247.71,213.91c-3.37,0-6.88-.54-7.9-2-.48-.67-.65-1.81,1.33-3.39,1.72-1.38,5.14-.91,6.53-.65,2.84.54,6.19,1.9,7.24,3.73h0a.87.87,0,0,1-.42,1.23C253.54,213.49,250.68,213.91,247.71,213.91Zm-2.92-5.39a5.12,5.12,0,0,0-3.08.75c-1,.76-1.42,1.45-1.28,1.92.2.73,1.74,1.34,4.11,1.63,4.4.54,9-.18,9.56-.77-.8-1.34-3.5-2.67-6.6-3.25A14.26,14.26,0,0,0,244.79,208.52Z" style="fill:#030389"/><path d="M268.14,239.76a.47.47,0,0,1-.28-.09.46.46,0,0,1-.08-.64c.06-.08,6.32-8.24,5.43-16.25,0-.15-.46-.69-2.29-1.33-4.51-1.58-14.7-2.74-18.12.68a.47.47,0,0,1-.64,0,.45.45,0,0,1,0-.64c3.73-3.74,14.23-2.59,19-.89,1.87.65,2.82,1.33,2.9,2.08.93,8.38-5.35,16.56-5.62,16.91A.46.46,0,0,1,268.14,239.76Z" style="fill:#030389"/><path d="M250.94,212.57a.47.47,0,0,1-.32-.14.46.46,0,0,1,0-.64,2.57,2.57,0,0,0,.72-2.24c-.46-5.24-10-14.3-13.86-16.84-1.36-.91-3.31-.56-6.27,0a55,55,0,0,1-10.06,1,.45.45,0,1,1,0-.9,53.59,53.59,0,0,0,9.9-1c3.18-.57,5.27-.94,6.93.17,4,2.69,13.76,11.9,14.26,17.51a3.51,3.51,0,0,1-1,3A.47.47,0,0,1,250.94,212.57Z" style="fill:#030389"/><path d="M232.75,210.57c-8.34-5.62-34.05-1.56-37.6-.9-5.84,1.09-35.47-6.28-44.75-.76-3.39,2-22.56,2.77-28.06,2.77-6.34,0-21.79,5.89-17.26,15.1,0,0,24,7.92,88.42,7.15,11-.13,49.12-3.4,46.08-4.75C231.29,225.49,232.75,210.57,232.75,210.57Z" style="fill:#a2a2f4"/><path d="M184.85,234.43c-57.37,0-79.68-7.14-79.91-7.22a.47.47,0,0,1-.27-.23,7.2,7.2,0,0,1,.32-7.39c3.18-5.11,12.4-8.37,17.35-8.37,6.41,0,24.68-.83,27.82-2.69,6.23-3.71,21.34-1.75,32.38-.32,5.68.74,10.59,1.37,12.53,1,.28-.05,28.84-5.15,37.94,1a.45.45,0,0,1,.19.42c0,.14-1.33,14.64,6.56,18.15a.59.59,0,0,1,.43.68c-.09.46-.27,1.33-19.68,3.13-10.55,1-21.91,1.74-27,1.8C190.54,234.42,187.65,234.43,184.85,234.43Zm-79.45-8c2.34.71,27.35,7.81,88.09,7.07,10.52-.13,40.75-2.8,45.37-4.15-7.39-3.9-6.74-16.44-6.58-18.53-7.6-4.77-29.8-2-37.05-.69-2.07.39-6.81-.23-12.8-1-10.91-1.42-25.85-3.35-31.8.19-3.57,2.12-23.31,2.83-28.29,2.83-4.63,0-13.61,3.16-16.59,7.93A6.35,6.35,0,0,0,105.4,226.41Z" style="fill:#030389"/><path d="M214.51,226a7,7,0,0,0-3-.7c-2.64.15-4.36,2.77-5.52,5.14-.34.69-.63,1.62-.06,2.14a1.82,1.82,0,0,0,1.19.34c3.17.11,12.61,1.62,15.17-.25C225.08,230.59,216.76,226.89,214.51,226Z" style="fill:#3939e5"/><path d="M217.13,234c-2.31,0-4.9-.24-7.09-.45-1.2-.11-2.24-.21-2.95-.23a2.19,2.19,0,0,1-1.48-.45c-.43-.39-.79-1.17,0-2.68,1.09-2.23,2.89-5.22,5.89-5.39a7.48,7.48,0,0,1,3.23.73c2.49,1,8.32,3.68,8.6,6a1.6,1.6,0,0,1-.75,1.5C221.48,233.77,219.44,234,217.13,234Zm-5.41-8.3h-.21c-1.92.11-3.55,1.66-5.13,4.88-.23.46-.55,1.27-.17,1.62a1.52,1.52,0,0,0,.91.22c.73,0,1.79.12,3,.24,3.75.35,10,.94,11.88-.4.38-.28.4-.52.38-.67-.16-1.38-4.16-3.62-8-5.22h0A7,7,0,0,0,211.72,225.71Z" style="fill:#030389"/><path d="M207.88,235.59c4.15,3.32,9.81,3.81,15.11,4.16a3.26,3.26,0,0,0,1.73-.22,1.08,1.08,0,0,0,.49-1.48c-.91-1.26-4.87-2.33-6.32-3.12-2.2-1.21-4.21-2.78-6.38-4C208.87,228.92,203.58,232.14,207.88,235.59Z" style="fill:#3939e5"/><path d="M223.57,240.22l-.61,0c-6-.4-11.28-1-15.36-4.26h0c-1.73-1.39-2.23-3-1.34-4.35,1.07-1.6,4.06-2.38,6.47-1,1.07.6,2.12,1.29,3.13,2s2.14,1.41,3.25,2a21.39,21.39,0,0,0,2,.87c1.75.68,3.74,1.44,4.42,2.39a1.23,1.23,0,0,1,.19,1,1.73,1.73,0,0,1-.83,1.11A2.8,2.8,0,0,1,223.57,240.22Zm-13.52-9.45a3.7,3.7,0,0,0-3,1.32c-.62.93-.21,2,1.16,3.15h0c3.87,3.1,9,3.67,14.85,4a2.75,2.75,0,0,0,1.48-.15.82.82,0,0,0,.39-.52.36.36,0,0,0,0-.31c-.53-.72-2.46-1.47-4-2.07a22.15,22.15,0,0,1-2.17-.92c-1.14-.62-2.24-1.35-3.3-2s-2-1.35-3.08-1.93A4.58,4.58,0,0,0,210.05,230.77Z" style="fill:#030389"/><ellipse cx="227.15" cy="266.02" rx="7.83" ry="3.68" style="fill:#f1f4f2"/><path d="M227.15,270.16c-4.65,0-8.28-1.82-8.28-4.14s3.63-4.13,8.28-4.13,8.28,1.81,8.28,4.13S231.79,270.16,227.15,270.16Zm0-7.37c-4.42,0-7.38,1.67-7.38,3.23s3,3.24,7.38,3.24,7.37-1.68,7.37-3.24S231.56,262.79,227.15,262.79Z" style="fill:#030389"/><path d="M229.45,265.1c-1.84-2.76-1.41-11.5-1.41-11.5l-2,.1s.65,8.64-1.2,11.4A2.62,2.62,0,0,0,229.45,265.1Z" style="fill:#f1f4f2"/><path d="M227.15,266.93a3,3,0,0,1-2.71-1.63.45.45,0,0,1,0-.45c1.73-2.6,1.13-11,1.12-11.11a.45.45,0,0,1,.43-.49l2-.1a.43.43,0,0,1,.34.13.44.44,0,0,1,.13.34c0,.09-.4,8.62,1.33,11.23a.45.45,0,0,1,0,.45A3,3,0,0,1,227.15,266.93Zm-1.78-1.82a2.17,2.17,0,0,0,3.55,0c-1.5-2.67-1.41-9.17-1.35-11l-1,0C226.62,255.93,226.88,262.42,225.37,265.11Z" style="fill:#030389"/><path d="M230.37,248.52c0,3.8-4.61,5.53-4.61,1.84,0-.65,1-1.87,1.85-1.84-4.61-1.84-4.89,4.33-3.69,5.53a6.16,6.16,0,0,0,9.21-.92c4.37-6.55-6.61-12.52-8-13.37C223.42,242.44,230.37,246.68,230.37,248.52Z" style="fill:#3939e5"/><path d="M228,256.17a6.17,6.17,0,0,1-4.41-1.8c-.9-.9-1-3.7,0-5.32.51-.77,1.72-1.92,4.15-1a.46.46,0,0,1,.28.52.47.47,0,0,1-.46.35h0a1.27,1.27,0,0,0-.78.41,1.82,1.82,0,0,0-.57,1,2,2,0,0,0,.34,1.27.93.93,0,0,0,.74.32c1.07,0,2.62-1.33,2.62-3.43,0-.54-1.13-1.69-2.13-2.71-2-2-4.26-4.36-3-6.3a.46.46,0,0,1,.62-.13l.34.21c5.11,3,8,6.1,8.71,9.07a5.93,5.93,0,0,1-1,4.72,6.53,6.53,0,0,1-4.81,2.75A5.32,5.32,0,0,1,228,256.17Zm-2-7.54a1.91,1.91,0,0,0-1.67.91c-.92,1.4-.65,3.67-.13,4.19a5.33,5.33,0,0,0,4.37,1.51,5.69,5.69,0,0,0,4.15-2.36,5.07,5.07,0,0,0,.82-4c-.61-2.7-3.37-5.54-8.2-8.45-.3,1.33,1.55,3.22,3.06,4.77,1.33,1.36,2.38,2.44,2.38,3.34,0,2.48-1.86,4.33-3.52,4.33a1.83,1.83,0,0,1-1.43-.64,2.8,2.8,0,0,1-.56-1.85,2.55,2.55,0,0,1,.86-1.63l.1-.09Z" style="fill:#030389"/><path d="M228.07,251.47a15.14,15.14,0,0,1,.46-3.87c.89-2.47,5.83-5.74,6.45-8.29.56-2.34-1.11-8.75-1.11-8.75H218.58s-1,6.55-.18,8.75c1,2.75,6.24,5.58,7.36,8.29a12.38,12.38,0,0,1,.28,3.87" style="fill:#f1f4f2"/><path d="M226,251.92h0a.45.45,0,0,1-.42-.48,11.85,11.85,0,0,0-.24-3.67c-.51-1.23-2-2.58-3.52-3.89s-3.3-2.91-3.86-4.41c-.85-2.29.12-8.71.16-9a.46.46,0,0,1,.45-.38h15.29a.45.45,0,0,1,.44.34c.07.26,1.68,6.55,1.1,9-.35,1.46-1.93,3.06-3.46,4.61a13.8,13.8,0,0,0-3,3.72,15.13,15.13,0,0,0-.43,3.72.45.45,0,0,1-.45.45h0a.45.45,0,0,1-.45-.45,15.25,15.25,0,0,1,.48-4c.46-1.27,1.8-2.62,3.21-4s2.93-3,3.23-4.19c.45-1.91-.69-6.86-1-8.2H219c-.19,1.42-.81,6.37-.15,8.14.48,1.3,2.07,2.7,3.61,4.06s3.16,2.79,3.75,4.22a12.32,12.32,0,0,1,.31,4.07A.45.45,0,0,1,226,251.92Z" style="fill:#030389"/><path d="M233.87,230.47c.18,1.47-3.42,2.76-7.64,2.76s-7.83-1.29-7.65-2.76c.16-1.3,3.42-2.77,7.65-2.77S233.71,229.17,233.87,230.47Z" style="fill:#f1f4f2"/><path d="M226.23,233.68c-3.45,0-6.6-.85-7.67-2.07a1.51,1.51,0,0,1-.43-1.2c.22-1.71,3.92-3.16,8.1-3.16s7.87,1.45,8.09,3.16h0a1.51,1.51,0,0,1-.43,1.2C232.82,232.83,229.67,233.68,226.23,233.68Zm0-5.53c-4.15,0-7.08,1.43-7.2,2.37,0,.06,0,.23.2.5.76.85,3.46,1.76,7,1.76s6.23-.91,7-1.76c.23-.27.21-.44.2-.5C233.3,229.58,230.37,228.15,226.23,228.15Z" style="fill:#030389"/><path d="M235.08,237.75a1.51,1.51,0,0,0-.1-.28c-1.39-2.31-15.58-1.68-16.58,0a2.12,2.12,0,0,0-.25.67,4.77,4.77,0,0,0,.25,1.17c1,2.75,6.24,5.58,7.36,8.29a2,2,0,0,1,.12.37,8.73,8.73,0,0,0,1.27.09,6.61,6.61,0,0,0,1.28-.13,2.58,2.58,0,0,1,.1-.33c.89-2.47,5.83-5.74,6.45-8.29A6.61,6.61,0,0,0,235.08,237.75Z" style="fill:#030389"/><path d="M73.53,221.05c-6.51,7.34,1.15,11.51,2.54,12.21,3.29,1.64,9.35,1.84,12.52-.7,7-5.56-2.78-9-3.19-10.86C85,220.06,90,219.34,90,218.05a9.19,9.19,0,0,1-2.06-.1c1.54-.75,1.54-2.59.62-4.43,0,0-1.85,1.84-2.77,1.84,0-.92-2.53-4-4.81-3-7.65,3.48-2.78,9.05-.8,10.35-1.29.09-2,.9-2.86,1.29A32.22,32.22,0,0,0,73.53,221.05Z" style="fill:#a2a2f4"/><path d="M81.94,234.94a14,14,0,0,1-6.07-1.28c-1.38-.68-4.64-2.63-5.27-5.92-.43-2.21.44-4.56,2.59-7a.45.45,0,0,1,.6-.06l.76.55a26.35,26.35,0,0,1,2.81,2.23l.46-.29a6.42,6.42,0,0,1,1.28-.68c-1.38-1.22-2.93-3.35-2.76-5.59.16-2,1.64-3.68,4.41-4.94a3.25,3.25,0,0,1,3.19.42,5.92,5.92,0,0,1,2.14,2.43,9,9,0,0,0,2.12-1.62.46.46,0,0,1,.39-.13.47.47,0,0,1,.33.25,4.78,4.78,0,0,1,.52,3.54,2.48,2.48,0,0,1-.41.75H90a.46.46,0,0,1,.45.44c0,.89-1.09,1.4-2.38,2-1,.44-2.31,1-2.19,1.58.08.34.94,1,1.7,1.59,1.68,1.3,4,3.08,4,5.39,0,1.47-.86,2.89-2.67,4.34A11.32,11.32,0,0,1,81.94,234.94ZM73.6,221.66c-1.76,2.09-2.47,4.08-2.12,5.91.58,3,3.81,4.8,4.79,5.29,3.26,1.63,9.11,1.7,12-.65,1.56-1.24,2.34-2.46,2.33-3.62,0-1.88-2-3.43-3.65-4.69-1.1-.84-1.88-1.45-2-2.1-.28-1.25,1.3-2,2.7-2.6.38-.18,1-.44,1.37-.69a6.1,6.1,0,0,1-1.25-.12.46.46,0,0,1-.08-.85,1.64,1.64,0,0,0,.88-1,3.45,3.45,0,0,0-.22-2.29,5.25,5.25,0,0,1-2.61,1.53.45.45,0,0,1-.45-.45,4.42,4.42,0,0,0-1.85-2.21,2.43,2.43,0,0,0-2.32-.36c-2.45,1.12-3.76,2.53-3.89,4.19-.18,2.38,2,4.65,3.15,5.37a.46.46,0,0,1,.19.49.45.45,0,0,1-.41.34,3.74,3.74,0,0,0-1.86.76,7.84,7.84,0,0,1-.85.49.44.44,0,0,1-.5-.09A22.78,22.78,0,0,0,74,222Z" style="fill:#030389"/><circle cx="82.53" cy="216.74" r="1.38" style="fill:#f1f4f2"/><path d="M82.53,218.57a1.83,1.83,0,1,1,1.83-1.83A1.83,1.83,0,0,1,82.53,218.57Zm0-2.76a.93.93,0,1,0,.93.93A.93.93,0,0,0,82.53,215.81Z" style="fill:#030389"/><circle cx="82.99" cy="217.2" r="0.69" style="fill:#030389"/><polygon points="90.51 91.16 94.5 82.64 90.51 73.98 86.52 82.5 90.51 91.16" style="fill:#3939e5"/><path d="M90.51,92.23,86,82.49l4.49-9.59L95,82.64ZM87,82.5l3.49,7.59L94,82.64l-3.49-7.59Z" style="fill:#030389"/><polygon points="77.33 90.37 81.19 81.78 77.06 73.18 73.2 81.77 77.33 90.37" style="fill:#3939e5"/><path d="M77.35,91.44l-4.64-9.67L77,72.11l4.64,9.66ZM73.7,81.76l3.62,7.53,3.37-7.5-3.62-7.54Z" style="fill:#030389"/><path d="M220.84,217.14c.2,1.2-3.12.66-4.29,1-6.43,1.81-12.48-.67-15.17-6.78-1.58-3.59-1.58-7.65-1.51-11.57C199.89,198.64,219.32,208,220.84,217.14Z" style="fill:#3939e5"/><path d="M212.48,219.16A12.25,12.25,0,0,1,201,211.52c-1.56-3.56-1.63-7.43-1.55-11.76a.55.55,0,0,1,.55-.53H200c2.2,0,19.8,9.06,21.27,17.84h0a.91.91,0,0,1-.2.75c-.47.57-1.62.6-2.84.62a7.34,7.34,0,0,0-1.57.12A15.72,15.72,0,0,1,212.48,219.16Zm-12.17-19c-.06,4.07,0,7.71,1.48,11,2.54,5.75,8.28,8.32,14.64,6.53a7.7,7.7,0,0,1,1.8-.15c.65,0,2,0,2.17-.3v0C219.06,209.17,203,200.78,200.31,200.16Z" style="fill:#030389"/><path d="M202.51,193.53c1.5-1.47,12.2-9.49,13.59-8.17s-4.35,10.84-5.43,12-6.09,5.07-8.44,4.57C197.19,200.89,200.47,195.51,202.51,193.53Z" style="fill:#3939e5"/><path d="M202.66,202.46a3.07,3.07,0,0,1-.53-.05,3.42,3.42,0,0,1-2.89-2.28c-.67-2.3,1.46-5.47,3-6.93h0c.58-.56,12.29-10,14.21-8.17s-4.7,11.88-5.41,12.66C210,198.75,205.43,202.46,202.66,202.46Zm.16-8.61c-1.4,1.37-3.24,4.23-2.72,6a2.59,2.59,0,0,0,2.22,1.64c2,.44,6.81-3.11,8-4.44,1.44-1.58,6.46-10.44,5.45-11.4-1.13-.74-10.88,6.14-13,8.17Z" style="fill:#030389"/><path d="M215.92,174.94c-1.21.81-2.13,4.5-4.2,3.9s-1.51-4-3.46-4.93c-.64,1.52-2.57,5.28.92,6.45,2.77.92,3.84,4.58,7.37,4.6C216.27,182.58,217.31,174,215.92,174.94Z" style="fill:#3939e5"/><path d="M216.55,185.42h0c-2.23,0-3.53-1.33-4.79-2.6a7.17,7.17,0,0,0-2.72-2,3.22,3.22,0,0,1-2.07-1.72c-.74-1.66.19-3.77.74-5l.14-.31a.45.45,0,0,1,.25-.24.43.43,0,0,1,.35,0,4.36,4.36,0,0,1,1.94,2.79c.36,1,.68,1.89,1.46,2.12.93.27,1.61-.7,2.45-2.09a5.58,5.58,0,0,1,1.37-1.75.72.72,0,0,1,.77-.06c.74.41.75,2.28.59,6.44a35.5,35.5,0,0,0,0,4,.41.41,0,0,1-.11.35A.46.46,0,0,1,216.55,185.42Zm-8.09-10.84c-.49,1.13-1.21,2.89-.67,4.12a2.35,2.35,0,0,0,1.54,1.23,8.08,8.08,0,0,1,3.07,2.25c1.08,1.08,2.09,2.11,3.66,2.3,0-.9,0-2.2.07-3.56a27.86,27.86,0,0,0-.09-5.5,7,7,0,0,0-1,1.37c-.8,1.32-1.8,3-3.47,2.48-1.22-.35-1.65-1.53-2.06-2.68A4.76,4.76,0,0,0,208.46,174.58Zm7.46.36h0Z" style="fill:#030389"/><path d="M188.71,205c-9-10.83-11.2,4.17-10.84,6.68.92,6.44,12,6.44,15.39,5.47C198.6,215.62,190.22,206.81,188.71,205Z" style="fill:#3939e5"/><path d="M189,218.06c-2.92,0-6.38-.52-8.74-2.05a6,6,0,0,1-2.86-4.27c-.23-1.6.6-9.18,4.19-10.78,2.1-.93,4.6.33,7.45,3.75h0l.58.68c3.26,3.73,6.48,7.89,5.72,10.45a2.6,2.6,0,0,1-2,1.74A17.1,17.1,0,0,1,189,218.06Zm-6-16.49a2.49,2.49,0,0,0-1,.22c-3,1.32-3.89,8.23-3.66,9.82a5.1,5.1,0,0,0,2.47,3.64c3.55,2.31,9.84,2.18,12.36,1.46a1.74,1.74,0,0,0,1.36-1.13c.72-2.43-3.82-7.64-5.54-9.6l-.6-.7h0C186.31,202.81,184.51,201.57,183,201.57Z" style="fill:#030389"/><path d="M151.27,201.49c-.14,1.66,3.71-1.73,9.58-4.14,8.64-3.56,11.22-10.09,12.13-15.24C173.73,177.87,151.62,197.36,151.27,201.49Z" style="fill:#3939e5"/><path d="M151.59,202.38a.76.76,0,0,1-.77-.93c.33-3.78,16.23-18.16,20.77-20.13.47-.2,1.13-.43,1.56-.09a.93.93,0,0,1,.28,1c-1.34,7.6-5.4,12.69-12.41,15.57a56.26,56.26,0,0,0-6.27,3.17C153.13,201.85,152.2,202.38,151.59,202.38Zm.13-.77h0Zm-.45-.12h0ZM172.55,182c-.24,0-1.05.24-3.3,1.83-6.52,4.64-17.14,15-17.52,17.67a17.27,17.27,0,0,0,2.58-1.31,53.86,53.86,0,0,1,6.37-3.22c6.7-2.75,10.58-7.63,11.86-14.9C172.54,182,172.55,182,172.55,182Z" style="fill:#030389"/><path d="M171.42,180.36c1.07-.8,14.74,16.4,14.74,20.26,0,4.61-2.77,1.84-4.61,6.45C178.4,215,167.73,183.12,171.42,180.36Z" style="fill:#3939e5"/><path d="M180.27,208.77h-.06c-3.32-.13-7.22-12.32-7.65-13.71-.68-2.19-3.94-13.16-1.41-15.06h0a.7.7,0,0,1,.79,0c2.28,1.14,14.67,16.62,14.67,20.62,0,2.71-1,3.2-2,3.71a4.64,4.64,0,0,0-2.62,2.91C181.56,208.26,181,208.77,180.27,208.77Zm-8.69-28c-1.07,1.19-.3,7.09,1.84,14,2.27,7.27,5.27,13,6.83,13.08.4,0,.7-.52.88-1a5.5,5.5,0,0,1,3.06-3.38c.95-.47,1.52-.75,1.52-2.9C185.71,197.09,173.49,181.77,171.58,180.82Z" style="fill:#030389"/><path d="M126.13,218.8c1.6.91,4.48.67,5.27-1s.77-3.57,1-5.4c.74-5.54,14.48-18.64,10-25.66C135.32,188.43,127.56,213.57,126.13,218.8Z" style="fill:#3939e5"/><path d="M128.32,219.77a5.06,5.06,0,0,1-2.42-.58.45.45,0,0,1-.21-.51c.09-.31,8.43-30.43,16.66-32.37a.44.44,0,0,1,.48.2c3,4.73-1.58,11.68-5.62,17.82-2.11,3.21-4.1,6.24-4.35,8.14-.06.45-.1.9-.15,1.35a12.2,12.2,0,0,1-.9,4.19,3.1,3.1,0,0,1-1.93,1.54A5.35,5.35,0,0,1,128.32,219.77Zm-1.66-1.21a4.51,4.51,0,0,0,3,.12,2.19,2.19,0,0,0,1.39-1.06,11.62,11.62,0,0,0,.82-3.88c0-.47.08-.93.14-1.39.28-2.1,2.24-5.07,4.5-8.52,3.61-5.49,8.08-12.29,5.78-16.55C136,189.4,128.87,210.63,126.66,218.56Z" style="fill:#030389"/><path d="M148.39,188.65c-4.42-.68-8.29-5.53-9.21-3.69-3,6,9.21,19.35,13.82,26.72,2.18,3.49,12,3.68,12.89.92C167.38,208.14,153.56,189.44,148.39,188.65Z" style="fill:#3939e5"/><path d="M160.63,215c-3.24,0-6.75-1-8-3.05-1.13-1.8-2.74-4-4.44-6.32-5.52-7.53-11.78-16.07-9.39-20.83a1.14,1.14,0,0,1,.72-.62c.82-.22,1.88.47,3.35,1.43a15.11,15.11,0,0,0,5.61,2.63h0c3.46.53,10.32,8.33,14.57,15.28,1.88,3.08,4,7.19,3.29,9.26-.37,1.1-1.79,1.86-4,2.12A15.35,15.35,0,0,1,160.63,215Zm-20.79-30h-.1s-.09,0-.16.16c-2.13,4.27,4.22,12.93,9.32,19.88,1.71,2.34,3.33,4.55,4.48,6.39,1.24,2,5.57,2.91,8.84,2.52,1.76-.21,3-.78,3.24-1.51.44-1.31-.76-4.5-3.2-8.5-4-6.63-10.87-14.38-13.94-14.86h0a15.86,15.86,0,0,1-6-2.77A7.59,7.59,0,0,0,139.84,185Z" style="fill:#030389"/><path d="M144.82,219.78c-.17-.76-.11-2.58-1.76-1.19a98.07,98.07,0,0,0-7.5,10.11c1.78,1.4,7.07.09,7.83-1C143.6,227.45,145.27,221.85,144.82,219.78Z" style="fill:#3939e5"/><path d="M138,229.76a4.53,4.53,0,0,1-2.73-.71.45.45,0,0,1-.11-.57,97.12,97.12,0,0,1,7.55-10.18c.46-.4,1.07-.83,1.65-.61s.74,1,.83,1.63c0,.13,0,.26.06.36h0c.49,2.23-1.22,7.94-1.5,8.32-.57.78-2.59,1.42-4.29,1.65A10,10,0,0,1,138,229.76Zm-1.84-1.22a6.06,6.06,0,0,0,3.18.22,7.26,7.26,0,0,0,3.68-1.29c.21-.42,1.77-5.69,1.35-7.59a4.3,4.3,0,0,1-.07-.43c0-.23-.13-.84-.26-.92h0s-.18,0-.69.4A107.31,107.31,0,0,0,136.17,228.54Z" style="fill:#030389"/><path d="M144.28,216c3-.72,11.1,5.81,14.79,9.74,2.76,2.93-6.86,4.63-9.49,2.82C147.2,227,141.4,216.73,144.28,216Z" style="fill:#3939e5"/><path d="M153.09,229.8a7.09,7.09,0,0,1-3.76-.82c-2.25-1.54-6.77-9.3-6.24-12.15a1.44,1.44,0,0,1,1.08-1.23h0c3.46-.83,12.18,6.62,15.23,9.87a1.67,1.67,0,0,1,.18,2.41C158.55,229.08,155.65,229.8,153.09,229.8Zm-8.71-13.32c-.16,0-.33.13-.41.52-.45,2.43,4,9.93,5.87,11.23s7.72.62,9.06-.94c.23-.27.39-.62-.16-1.2-4-4.24-11.75-10.24-14.36-9.61Z" style="fill:#030389"/><path d="M228.53,210.76a3,3,0,0,0-2.77,2.76c0,1.54,2.12,3.77,2.36,3.75,1.33-.07.35-2.46.37-3.42C228.53,211.68,234.05,210.76,228.53,210.76Z" style="fill:#3939e5"/><path d="M228.11,217.72c-.19,0-.38-.11-.71-.42-.58-.56-2.1-2.34-2.09-3.79a3.41,3.41,0,0,1,3.22-3.21c2.16,0,2.73.12,2.88.61s-.29.77-.89,1.18-1.57,1.06-1.58,1.77a4.69,4.69,0,0,0,.14,1c.18.94.36,1.91-.1,2.49a1.05,1.05,0,0,1-.84.41Zm.42-6.51a2.52,2.52,0,0,0-2.31,2.31c0,1.16,1.52,2.92,2,3.28.05,0,.07,0,.07,0,.21-.26,0-1.2-.08-1.77a6.05,6.05,0,0,1-.15-1.15c0-1.17,1.2-2,2-2.5l.12-.09C229.82,211.23,229.32,211.21,228.53,211.21Zm2.14.13h0Z" style="fill:#030389"/><path d="M227.34,224.3c.4,1,3,2.11,3.55,1.08.13-.27-.57-1.22-.79-1.43-.77-.75-.56-3.42-1.34-3.78C227.62,219.64,226.69,222.73,227.34,224.3Z" style="fill:#3939e5"/><path d="M230.06,226.24H230a4,4,0,0,1-3-1.76h0a4.85,4.85,0,0,1,.74-4.46,1.12,1.12,0,0,1,1.28-.26c.61.28.76,1.14.94,2.14a4.11,4.11,0,0,0,.53,1.73s1.21,1.28.87,2A1.27,1.27,0,0,1,230.06,226.24Zm-1.56-5.68a.3.3,0,0,0-.2.11,4,4,0,0,0-.54,3.46h0a3.2,3.2,0,0,0,2.25,1.21.74.74,0,0,0,.43-.1,3.86,3.86,0,0,0-.65-1,4.25,4.25,0,0,1-.79-2.23c-.09-.48-.24-1.37-.43-1.47Z" style="fill:#030389"/><path d="M157.6,172.07c-5.53.92-15.66.92-23,0-4.57-.57-3.65-17.92.92-18.42,8.29-.93,15.66,0,22.11,0C161.29,153.65,162.14,171.31,157.6,172.07Z" style="fill:#ebebff"/><path d="M146.78,173.21a103.5,103.5,0,0,1-12.26-.69c-2.55-.32-3.43-4.62-3.4-8.54,0-5.12,1.53-10.47,4.32-10.78a100.84,100.84,0,0,1,15.73-.2c2.26.1,4.39.19,6.43.19s3.14,3.94,3.44,7.63c.37,4.41-.23,11.17-3.36,11.69h0A70.83,70.83,0,0,1,146.78,173.21Zm-3.29-19.52a72.84,72.84,0,0,0-8,.4c-1.9.22-3.48,4.66-3.52,9.9,0,4.37,1,7.43,2.61,7.63,7.34.92,17.4.92,22.9,0l.07.45-.07-.45c2.13-.35,3-5.84,2.62-10.73-.33-3.94-1.4-6.79-2.55-6.79-2.06,0-4.2-.1-6.47-.2S146.18,153.69,143.49,153.69Z" style="fill:#030389"/><path d="M135.77,156.8c.92-1.25,19.07-1.31,20.3.18,1.66,2-.13,9.56-1,10.48-1.84,1.84-16.76,1.84-18.6,0C135.49,166.54,134.19,159,135.77,156.8Z" style="fill:#f1f4f2"/><path d="M145.72,169.3c-1.36,0-8.18-.08-9.62-1.52-1.1-1.1-2.37-9-.7-11.25h0c.17-.22.66-.9,7.37-1.09,3.43-.09,12.57-.06,13.64,1.25,1.82,2.21,0,10-1.07,11.09C153.9,169.22,147.07,169.3,145.72,169.3Zm-9.6-12.22c-1.45,2-.11,9.34.61,10.06,1.68,1.68,16.29,1.68,18,0,.79-.78,2.48-8.1,1-9.88C154.66,156.12,137.5,156,136.12,157.08Zm-.35-.28h0Z" style="fill:#030389"/><path d="M135.69,165.64a.45.45,0,0,1-.42-.29.45.45,0,0,1,.25-.58c5.92-2.38,12.12-2.47,20.1-.3a.44.44,0,0,1,.32.55.46.46,0,0,1-.55.32c-7.78-2.11-13.81-2-19.53.26A.38.38,0,0,1,135.69,165.64Z" style="fill:#030389"/><polygon points="110.62 297.34 98.65 312.08 213.79 313 206.42 298.26 110.62 297.34" style="fill:#a2a2f4;stroke:#030389;stroke-linecap:round;stroke-linejoin:round"/><polygon points="114.78 300.56 108.32 308.75 205.5 309.31 202.38 301.13 114.78 300.56" style="fill:#ebebff;stroke:#030389;stroke-linecap:round;stroke-linejoin:round"/><path d="M247.4,213.9a.46.46,0,0,1-.46-.45v-5.13a.46.46,0,0,1,.91,0v5.13A.45.45,0,0,1,247.4,213.9Z" style="fill:#030389"/><path d="M252.48,226.61a.46.46,0,0,1-.4-.23l-3.22-5.73a.45.45,0,1,1,.79-.44l3.22,5.73a.46.46,0,0,1-.17.62A.44.44,0,0,1,252.48,226.61Z" style="fill:#030389"/><path d="M223,157.33s7.37-4.15,11.05-4.15c-2.76,7.37-11.05,18.89-11.05,18.89Z" style="fill:#f1f4f2"/><path d="M223,172.52l-.14,0a.46.46,0,0,1-.31-.43V157.33a.45.45,0,0,1,.23-.39c.31-.18,7.52-4.21,11.27-4.21a.48.48,0,0,1,.38.2.46.46,0,0,1,0,.41c-2.76,7.34-11,18.88-11.11,19A.47.47,0,0,1,223,172.52Zm.45-14.92v13c2.08-3,7.56-11.12,9.93-17C230.08,154.06,224.63,157,223.45,157.6Z" style="fill:#030389"/><path d="M214.71,188.65,229,174.37s-.46-13.36-5.07-17.5a24.14,24.14,0,0,0,10.13-3.69,2,2,0,0,1,0-3.22s-9.21,3.69-12,4.61c-.67.67-.72,3.27-.92,3.68-3.44,6.88-5.53,29.48-5.53,29.48" style="fill:#ebebff"/><path d="M214.71,189.1a.5.5,0,0,1-.32-.13.47.47,0,0,1,0-.64l.81-.81c.21-2.21,2.24-22.83,5.56-29.47,0-.1.09-.52.13-.86a5.72,5.72,0,0,1,.87-2.94.42.42,0,0,1,.18-.11c2.72-.91,11.86-4.56,11.95-4.6a.45.45,0,0,1,.44.78,1.7,1.7,0,0,0-.64,1.13,1.91,1.91,0,0,0,.68,1.42.41.41,0,0,1,.13.36.42.42,0,0,1-.2.33,24.6,24.6,0,0,1-9.44,3.63c4.1,4.77,4.56,16.64,4.58,17.17a.46.46,0,0,1-.13.33L216,188l0,0L215,189A.48.48,0,0,1,214.71,189.1ZM222.34,155a7.45,7.45,0,0,0-.55,2.36,3.93,3.93,0,0,1-.23,1.14c-2.9,5.8-4.86,23.23-5.35,28.06l12.32-12.32c-.08-1.65-.79-13.28-4.91-17a.48.48,0,0,1-.13-.48.46.46,0,0,1,.38-.31,24,24,0,0,0,9.5-3.33,2.47,2.47,0,0,1-.58-1.71,2.21,2.21,0,0,1,.08-.46C230.25,152,224.57,154.2,222.34,155Z" style="fill:#030389"/><path d="M208.26,173.91a6,6,0,0,1,0-2.76c1.85-3.69,13.82-16.58,13.82-16.58l-.92,3.68" style="fill:#a2a2f4"/><path d="M208.26,174.36a.45.45,0,0,1-.44-.36,6.14,6.14,0,0,1,0-3.06c1.85-3.69,13.4-16.15,13.89-16.68a.44.44,0,0,1,.54-.09.45.45,0,0,1,.23.51l-.92,3.68a.47.47,0,0,1-.55.33.46.46,0,0,1-.33-.55l.49-2c-3.07,3.36-11.09,12.27-12.54,15.17a5.3,5.3,0,0,0,0,2.47.44.44,0,0,1-.34.53Z" style="fill:#030389"/><path d="M208.26,173.91l6.45,14.74s8.29-10.13,12-14.74c-.93-6.45-5.53-15.66-5.53-15.66Z" style="fill:#a2a2f4"/><path d="M214.71,189.1h-.06a.44.44,0,0,1-.35-.26l-6.45-14.74a.47.47,0,0,1,.06-.47L220.81,158a.47.47,0,0,1,.4-.16.45.45,0,0,1,.35.25c.19.38,4.65,9.35,5.57,15.8a.42.42,0,0,1-.09.34c-3.65,4.56-11.9,14.64-12,14.74A.44.44,0,0,1,214.71,189.1ZM208.79,174l6,13.81c1.78-2.18,8.2-10,11.38-14-.81-5.32-4.12-12.55-5.15-14.7Z" style="fill:#030389"/><path d="M208,174.55c1.1-.78,4.83-2.48,5-.62s-2.82,5.1-2.57,6.49" style="fill:#3939e5"/><path d="M210.48,180.87a.45.45,0,0,1-.44-.37c-.15-.82.47-1.89,1.2-3.14s1.45-2.5,1.36-3.39a.36.36,0,0,0-.22-.35c-.81-.37-3.13.62-4.07,1.3a.45.45,0,1,1-.53-.73c.69-.49,3.57-2,5-1.4a1.25,1.25,0,0,1,.75,1.09c.11,1.18-.7,2.58-1.48,3.94a5.94,5.94,0,0,0-1.09,2.52.46.46,0,0,1-.37.53Z" style="fill:#030389"/><path d="M195.64,228.27c-2.35-3.52-13.88-7.4-17-4.58-1.84,1.63-2,3.86-2.36,6.29-.79,4.72,11,3.8,12.59,3.8C190.76,232.86,197.21,230.64,195.64,228.27Z" style="fill:#3939e5"/><path d="M185.58,234.31c-3.17,0-7.56-.31-9.18-2.15a2.64,2.64,0,0,1-.62-2.25q.08-.47.15-.9c.32-2.12.63-4.12,2.36-5.66,1.37-1.22,3.86-1.19,5.7-.95,4.28.55,10.27,3,12,5.62h0a1.74,1.74,0,0,1,.25,1.51c-.53,1.78-3.91,3.22-6.14,4.18-.44.18-.82.35-1.1.48a2.79,2.79,0,0,1-.92.06C187.47,234.28,186.59,234.31,185.58,234.31Zm-3.49-11.14a4.88,4.88,0,0,0-3.2.85c-1.49,1.33-1.76,3.09-2.07,5.12,0,.3-.09.61-.15.92a1.74,1.74,0,0,0,.41,1.5c1.85,2.11,8.73,1.87,11,1.79l.65,0c.28-.13.64-.28,1.05-.45,1.82-.78,5.21-2.23,5.62-3.61a.82.82,0,0,0-.13-.75h0c-1.43-2.15-6.86-4.64-11.39-5.23A14.37,14.37,0,0,0,182.09,223.17Z" style="fill:#030389"/><path d="M184.31,225.49c-2.09-4.18-14.24,8.18-12,8.29,1.89.1,9.45.14,9.45.14C184.47,230.4,186.16,229.18,184.31,225.49Z" style="fill:#3939e5"/><path d="M181.74,234.37h0c-.31,0-7.59,0-9.47-.14a.69.69,0,0,1-.69-.61c-.21-1.69,6.49-8.16,10.11-9.25,1.84-.56,2.66.19,3,.92,1.74,3.48.46,5.06-1.65,7.68l-1,1.22A.44.44,0,0,1,181.74,234.37Zm-9.23-1c1.93.08,7.79.12,9,.12l.85-1.06c2.14-2.65,3-3.75,1.54-6.71-.18-.36-.55-.8-1.72-.52C178.74,226,173,231.89,172.51,233.34Z" style="fill:#030389"/><path d="M117.07,218.12c-1.48-3-8.29-4.6-11.57-7.52a27.58,27.58,0,0,0,6,8.67c-1.71,1.29-3.55,1.5-5.47,2.45,3.65.09,5.36,2.81,8,2.14C116.18,223.33,118,220,117.07,218.12Z" style="fill:#3939e5"/><path d="M113.23,224.42a7.11,7.11,0,0,1-3.13-1,9,9,0,0,0-4.06-1.25.45.45,0,0,1-.19-.85,19.3,19.3,0,0,1,2.25-.91,12.44,12.44,0,0,0,2.72-1.2,28.39,28.39,0,0,1-5.74-8.43.46.46,0,0,1,.72-.52,24.56,24.56,0,0,0,5.42,3.21c2.75,1.35,5.34,2.63,6.26,4.45a4.11,4.11,0,0,1-.22,3.46,5,5,0,0,1-3.08,2.92A4,4,0,0,1,113.23,224.42Zm-5.48-2.92a12.92,12.92,0,0,1,2.76,1.11c1.25.63,2.24,1.12,3.45.82a4.29,4.29,0,0,0,2.49-2.43,3.26,3.26,0,0,0,.22-2.67c-.78-1.55-3.24-2.76-5.85-4.05a41.12,41.12,0,0,1-4.12-2.21,27.55,27.55,0,0,0,5.14,6.88.45.45,0,0,1,.13.35.44.44,0,0,1-.18.33,11.58,11.58,0,0,1-3.39,1.63Z" style="fill:#030389"/><path d="M247.23,208.5c-1.27,0-2.33.65-2.35,1.52s1,1.63,2.25,1.67Z" style="fill:#030389"/><path d="M249.09,221c-1.32.78-2,2.14-1.42,3s2,1,3.35.25Z" style="fill:#030389"/></svg>