<svg xmlns="http://www.w3.org/2000/svg" viewBox="0 0 320 320.64"><title>christmas_cactus</title><path d="M104.89,25.27a10.68,10.68,0,0,1,1-.65c2.61-1.43,2.9-3.19,2.37-6.25-.2-1.13-.63-2.23-.84-3.36-.08-.45,0-1.2.31-1.39a1.87,1.87,0,0,1,1.54,0,14.81,14.81,0,0,1,6.17,5c2.4,3.38,4.62,6.89,6.89,10.37a11,11,0,0,0,3.31,3.74c.26-1.06.43-2,.75-3s1.07-1,1.77-.34C130.1,31.29,132,33.24,134,35a31.1,31.1,0,0,1,6.33,8.66c2.85,5.21,5.72,10.41,8.42,15.69a40.91,40.91,0,0,1,3.55,12.38,36.66,36.66,0,0,0,2.87,10.58c.71,1.45,1.16,1.73,2.72,1.37a7.86,7.86,0,0,0,4.4-2.94c.73-.89,1.3-1.92,2.06-2.79a2.62,2.62,0,0,1,1.54-.85c.23,0,.73.76.82,1.23.64,3.29,1,6.63,2.33,9.75.48,1.12,1.19,1.52,2.79,1.42,1.07-.07.91-1,1.12-1.58a4.57,4.57,0,0,0-.74-4.29c-.93-1.36-1.68-2.86-2.5-4.3a2.86,2.86,0,0,1,3-.3l7.63,2.74a5,5,0,0,0-.1-1.6c-2.11-4.16-4.52-8.1-8.62-10.65a14.26,14.26,0,0,1-4.81-5.39c-2.65-4.75-4.15-9.93-5.76-15.06-1.1-3.5-2.16-7-3.3-10.5-.33-1,.15-1.48,1-1.38a16.44,16.44,0,0,1,3.43.87A4.14,4.14,0,0,0,166,38a8.5,8.5,0,0,0,1.49-1.75l1.36,1.62c-1.51,2.1-4.56,2.75-7.49,1.62-.53-.2-1.09-.32-1.9-.56.5,1.65.86,3,1.31,4.29,2.06,6,4.05,12.1,6.28,18.07a15.44,15.44,0,0,0,5.09,6.82,35.32,35.32,0,0,1,5.16,4.76c2,2.29,3.86,4.69,4.63,7.74.24,1,1.11.73,1.8.73s1.66.13,1.88-.85c.25-1.15.5-2.34-.54-3.34-2.44-2.34-4.8-4.77-7.28-7.07a18.36,18.36,0,0,1-4.28-5.25,1.46,1.46,0,0,1,.38-2,6.89,6.89,0,0,1,6.33-1.66c1.58.4,3.18.76,4.77,1.11,1.27.28,1.62-.06,1.43-1.36-.13-.87-.37-1.72-.45-2.59a50.11,50.11,0,0,0-3.36-13.4c-.72-1.84-1.15-3.8-1.71-5.7,4.69-1.07,7.43-4.18,8.78-8.6a16.29,16.29,0,0,0,.37-9,18.23,18.23,0,0,1,2.89,2.12,42,42,0,0,1,2.45,3.54,13.06,13.06,0,0,1,2.55,8,2.45,2.45,0,0,0,1.39,2.42A4,4,0,0,1,201.76,42c-.54,5.07-.68,10.17-1.8,15.19a29.63,29.63,0,0,0-.55,7.23,3.35,3.35,0,0,0,3.25,3.48,7.8,7.8,0,0,1,2.25,1.13l-3.07.5c-.34-.22-.67-.6-1-.61a7.93,7.93,0,0,1-5.42-2.73c-1.38-1.44-2.61-3-3.89-4.54-.88-1-1.18-1-2,0a5.1,5.1,0,0,1-5.61,2c-1.59-.37-3.17-.78-4.77-1.14a3.39,3.39,0,0,0-3.24.67c2.23.71,4.42,1.3,6.52,2.11a14.3,14.3,0,0,1,3.23,2c1,.71,1.76,1.63,2.68,2.39,1.83,1.51,3.44,3.38,6,3.76a12.55,12.55,0,0,0-.86,2,20.18,20.18,0,0,0,.4,12.46c1.14,3,3,5.31,6.34,5.89.94.17,1.9.24,2.85.35a3.83,3.83,0,0,0-1.59,2.78,19.35,19.35,0,0,1-4.32,8.43c-1.43,1.82-2.79,3.7-4.17,5.55-.54.72-.15,1.28.37,1.78.74.72,1.52,1.41,2.26,2.14a3.11,3.11,0,0,1,.66,4.13,12.43,12.43,0,0,1-1.26,1.89c-.46.6-1,1.14-1.63,1.89a9.55,9.55,0,0,0,1.56,1.23c1.57.79,2.1.46,2-1.29-.18-2.54.78-4.77,1.73-7,1.09-2.57,2.22-5.12,2.23-8a1.75,1.75,0,0,1,.77-1.32c.27-.14.94.28,1.31.59,1.12,1,2.23,1.94,3.27,3a2.76,2.76,0,0,0,2.85.76c.58-.15,1.18-.23,1.75-.42a16.61,16.61,0,0,1,9.09,0,7,7,0,0,0,6-1.07,11,11,0,0,1,1.16-.58,7.44,7.44,0,0,1,.26,1.84c-.35,2.69-.76,5.36-1.17,8-.17,1.06.34,1.43,1.29,1.26a39.49,39.49,0,0,0,4.32-.92,3.11,3.11,0,0,1,3.27.9,1.43,1.43,0,0,1-.52,2.47c-2.06.78-3.38,2.49-4.6,4.09-2.31,3-4.32,6.3-6.37,9.52-2.35,3.72-4.6,7.49-6.87,11.24a14.79,14.79,0,0,0-.71,1.55c1.14.1,2.12.2,3.1.27a1.38,1.38,0,0,1,1.43,1.43,5.19,5.19,0,0,1-1.45,3.92c-4.43,5.53-9.77,9.74-16.71,11.67a12,12,0,0,0-2.8,1,3,3,0,0,0-1.32,1.66c-.09.4.49,1.16,1,1.46a6.06,6.06,0,0,0,6.56.28,5.8,5.8,0,0,1,1.86-.31l.28.4c-.51.86-1.06,1.7-1.51,2.59a5.34,5.34,0,0,0-1,2.37c.15,3.71-1.33,6.94-2.63,10.24-.69,1.75-1.41,3.48-2.1,5.22a8.69,8.69,0,0,0-.26,1.05c1.75-.92,3.52-1.24,4.22-3.25a33.11,33.11,0,0,1,2.15-4.4,3.31,3.31,0,0,1,3.53-1.95c1.08.14,1.53-.32,1.67-1.3a32.13,32.13,0,0,1,.59-3.42c.77-3,2.06-5.6,4.76-7.35a14.2,14.2,0,0,0,2.28-2.11c.83-.84,1.25-.77,1.69.36a2,2,0,0,1,.12.34c.44,2.71,2.29,4.07,4.7,4.88.46.74,1,1.45,1.36,2.22a6.62,6.62,0,0,0,4.57,3.79c-.65,2,.8,5,2.79,5.86,1.35.58,1.58,1,.83,2.27-.65,1.08-1.54,2-2.28,3.05-1,1.4-2,2.82-3.06,4.4a8.35,8.35,0,0,0,5.85-.76c3.22-1.9,6.38-3.93,9.56-5.91,0,0,0-.14,0-.22-1.29-.35-2.6-.66-3.87-1.08s-1.62-1.3-.9-2.52a4.55,4.55,0,0,1,.93-1.08,23.19,23.19,0,0,1,12.11-5.57c2.61-.38,5.09-1,7.07-2.92a8.72,8.72,0,0,0,.64-.71l-.17-.34c-1.65.18-3.3.46-5,.52-4.67.14-5.69.28-7.53-3.45a11.16,11.16,0,0,0-6.61-5.83,4.61,4.61,0,0,1-3.12-3.48c-.38-1.55-1-3-1.47-4.58l-.41,0-.75,4.88-1.87-.39c.47-1.84.93-3.69,1.4-5.53.16-.61.34-1.2.51-1.8A2.13,2.13,0,0,1,239,156c.54,1.54,1.11,3.07,1.59,4.63a5.22,5.22,0,0,0,3,3.47c1.16.5,2.27,1.11,3.47,1.72.33-1.18.62-2.25,1-3.32a13.51,13.51,0,0,1,9.19-9.3q7-2.3,13.86-4.89a13.69,13.69,0,0,0,3.12-2.28c.31-.24.54-.59.86-.83.76-.56,1.33-.39,1.64.53.24.68.34,1.4.57,2.07.62,1.83,1.67,2.39,3.5,1.9.53-.15,1.06-.34,1.59-.51a3.18,3.18,0,0,1,4.35,2.16,24.88,24.88,0,0,0,1.15,3.38,11.44,11.44,0,0,0,2.13,3c1.6,1.54,1.92,2.26,1.12,4.31a1.93,1.93,0,0,0,.6,2.43,9.07,9.07,0,0,1,1.69,2.14,2.43,2.43,0,0,1-.1,2.91,2.63,2.63,0,0,0-.21,2.93c1.22,2.51,2.39,5,3.57,7.57a4,4,0,0,1,.38,1.12c.12.75-.19,1.11-1,1a4.5,4.5,0,0,1-3.23-1.57,6,6,0,0,0-1.69-1.23c-1.73-1-3.55-1.78-5.2-2.86a7.49,7.49,0,0,0-3.76-1.33c-.84-.06-1.18.26-1.18,1.05,0,.16,0,.32,0,.48,0,2.08,0,2-2,2.1-3.63.16-7.25.55-10.87.63a14.67,14.67,0,0,1-7.76-1.62,1.36,1.36,0,0,0-.87,0c-1.59.46-3.16,1-4.76,1.42-2,.57-4.21.8-6.07,1.7a36,36,0,0,0-5.65,3.93c-.71.53-.4,1.07.33,1.29,1.34.41,2.72.67,4,1.13.56.2,1.44.77,1.42,1.13,0,.9-.93,1.07-1.77,1.23a6.64,6.64,0,0,0-2.31.89c-2.5,1.57-5,3.21-7.41,4.83a9,9,0,0,1-5.92,1.47,4.4,4.4,0,0,0-1.46.43c.32.55.64,1.11,1,1.66.06.08.22.09.31.16l1.25.92c-.37.42-.65,1-1.12,1.24A18.39,18.39,0,0,0,224,207c-1.87,2.38-4.5,3.17-7.3,3.69-1.56.3-3.12.68-4.69,1-.88.16-1.26.49-1,1.46a2.16,2.16,0,0,1-1.43,2.69c-1.8.74-3.63,1.39-5.45,2.09-1.5.47-3,.9-4.49,1.43-.8.29-.74.93-.17,1.4a12.6,12.6,0,0,0,2.18,1.43c1.82.91,2.13,2,.82,3.59s-2.73,3-4.07,4.52a3.08,3.08,0,0,0-.67,3.42,2.35,2.35,0,0,1-.5,2.67,7.13,7.13,0,0,1-2.38,1.73c-2.39.88-4.9,1.42-7.25,2.35-3,1.21-3.62.4-2.21,4.34.54,1.51.34,1.9-1.18,2.72-.52-1.47-1.09-2.91-1.56-4.39-.33-1-.94-1.32-2-1.5-2.39-.42-4.93-.66-6.55-2.9a1.17,1.17,0,0,0-.84-.41c-2.17-.06-4.34-.11-6.52-.09-1.46,0-2.91.13-4.37.22a5.26,5.26,0,0,0-2,.23,6.5,6.5,0,0,1-6.09.12c-1.45-.66-3-1.11-4.51-1.65l-.24.22q2.34,5.1,4.66,10.2c-1.21-.87-2.91-1.48-3.52-2.65a41.52,41.52,0,0,1-2.59-7.55,2.44,2.44,0,0,1,.58-1.9c.23-.26,1.1-.12,1.61,0a20.61,20.61,0,0,1,2.31,1l.35-.41a13.44,13.44,0,0,0-1.84-2.63c-3.23-2.83-6.19-6-9.79-8.37a44.93,44.93,0,0,1-4.78-3.95,1.9,1.9,0,0,1-.26-2.6c.82-1.38.7-1.78-.76-2.61-2.91-2.18-5.78-4.4-8.73-6.52a22.89,22.89,0,0,1-5.46-5.82,1.55,1.55,0,0,1-.15-.94,2.87,2.87,0,0,1,1.34-.22c.66.09,1.28.42,1.94.54a4.36,4.36,0,0,0,5-2.48c-.68-.26-1.38-.78-2-.73a36.11,36.11,0,0,0-5.87.85,16.84,16.84,0,0,1-9,.16,13.62,13.62,0,0,0-8-.1c-.41.13-.95-.12-1.42-.2a8,8,0,0,0,.56-1.09c.47-1.33,1-2.66,1.31-4,.06-.23-.38-.77-.7-.9a5,5,0,0,0-1.65-.25c-4.52-.12-7.3-2.76-9.36-6.44-.47-.83-.28-1.35.67-1.54.55-.12,1.1-.21,1.64-.34a5.37,5.37,0,0,0,3.89-3.25c1-2.46,2-4.94,3.09-7.4.7-1.66-.08-3.22-.29-4.82-.14-1.06-.46-2.1-.6-3.17,0-.42.05-1.11.32-1.27a1.59,1.59,0,0,1,1.41,0c2.13,1.46,4.19,3,6.45,4.66.34-.27,1-.74,1.56-1.25a2,2,0,0,1,2.8-.06c2.09,1.46,4.28,2.78,6.41,4.17a1.45,1.45,0,0,0,2.3-.47c2.16-2.91,2.48-2.89,4.78-.12a31.72,31.72,0,0,0,2.27,2.63c3.32,3.23,4.45,7.24,4.45,11.72a14.67,14.67,0,0,0,2.24,8.19c1.69-.37,3.3-.66,4.86-1.1.45-.13.84-.66,1.14-1.09.8-1.18,1.51-2.42,2.34-3.58.21-.3.88-.63,1-.52a2.41,2.41,0,0,1,.94,1.28c.19,1.05.1,2.15.25,3.22.45,3.23,1.56,6.13,4.23,8.17l.48,0a14.25,14.25,0,0,0,.28-3.53c-.86-4.71-1.88-9.39-2.84-14.08a51.93,51.93,0,0,0-4-12.51,1.87,1.87,0,0,1-.06-1.61,1.74,1.74,0,0,1,1.59-.24,9.84,9.84,0,0,1,2.86,1.57c1.39,1.15,2.49,1.45,4,.64-2.33-3.31-3.79-7.21-7.27-9.66-1.46-1-2.82-2.23-4.22-3.36a20.86,20.86,0,0,1-6.11-8.16,3.65,3.65,0,0,0-3.22-2.45,31.23,31.23,0,0,1-5.54-1,26,26,0,0,1-5.12-2.19c-1.59-.89-3-2.18-4.53-3.12-3.93-2.32-6.24-6.25-9.42-9.31a.78.78,0,0,1-.16-.72,1.33,1.33,0,0,1,.74-.5c.25-.05.54.16.81.15.5,0,1-.13,1.49-.2-.11-.58,0-1.33-.37-1.73-.88-1-2-1.87-2.93-2.83-1.89-1.89-3.89-3.7-5.6-5.75a30.82,30.82,0,0,1-3.32-5.2c-.44-.81-.8-1.18-1.72-.89-2.76.9-5.54,1.74-8.31,2.64-1.24.4-2.46.87-3.69,1.32l1.56-2.45c1.65-.17,2.64-1.44,3.93-2.26a34.33,34.33,0,0,1,13.83-4.71c3.54-.52,7.16-.63,10.67-1.31,3.11-.61,6.12-1.77,9.19-2.66a11.93,11.93,0,0,1,10.14,1.16,9.07,9.07,0,0,0,2.18,1c.41.12,1.13.15,1.32-.09.62-.82,1.49-1.76,1.49-2.67a2.8,2.8,0,0,0-2.22-2.93,36.76,36.76,0,0,0-7.24-.51c-3.5.22-7,1.09-10.45,1.26a99.11,99.11,0,0,0-15.83,2.35,62.82,62.82,0,0,1-13,1.87,65.55,65.55,0,0,0-7.28.44,46.46,46.46,0,0,0-5.13,1.2l.1.48,2.7-.47-2.57,2.17a15,15,0,0,1-2.46-1.62c-.93-.91-.69-1.45.54-1.82a48.14,48.14,0,0,1,13.45-1.9c3,0,6-.44,8.94-.7a13.89,13.89,0,0,0,1.53-.37,14.9,14.9,0,0,0-1.53-1.07q-6.39-3.52-12.79-7c-2.11-1.15-2.13-1.8-.11-3.12.26-.17.51-.36.92-.66a10.39,10.39,0,0,0-1-.72c-5.09-2.81-10.18-5.63-15.29-8.4-.69-.37-.63-.8-.48-1.37l2.32.1a7,7,0,0,0,1,.84c2.74,1.56,5.47,3.12,8.24,4.63,2,1.09,4,2.09,6,3.16,1.36.72,1.46,1.36.44,2.52L87.2,94.87c.29.21.47.36.67.48,3.75,2.11,7.48,4.27,11.29,6.3a12.18,12.18,0,0,0,7.47,1.57c2.76-.37,5.53-.68,8.29-1,1.11-.14,2.2-.36,3.31-.55l.3-.62a5.34,5.34,0,0,1-1.06-.56c-3.58-2.87-7.16-5.74-10.69-8.66-1.17-1-2.21-2.09-3.31-3.14l.26-.39c2.1-.68,3.64,1.86,6.06,1.09a10.06,10.06,0,0,0-.9-1.83c-3.27-4.31-7.51-7.58-11.7-10.91a2.47,2.47,0,0,0-2.46-.36,5,5,0,0,1-2.45.21c-3.76-.9-7.46-2-11.22-2.88a48.32,48.32,0,0,0-5.75-.86c-.39,0-.83.31-1.24.48L70.62,72a20.74,20.74,0,0,1,13.6-.6c2.26.67,4.54,1.25,6.82,1.84,1.39.37,2,0,2-1.48,0-1.22-.33-2.43-.44-3.64a5.79,5.79,0,0,1,.17-1.29c.4.1.91.07,1.17.31,1.77,1.71,3.58,3.4,5.21,5.24a29.31,29.31,0,0,0,8.93,7.12c2.14,1.05,4.4,1.84,6.64,2.69a32.08,32.08,0,0,1,9.85,6.21c.93.82,1.75,1.76,2.72,2.53a9.91,9.91,0,0,1,4.24,8.82c1.3-.11,2.59-.22,3.88-.35,3.46-.36,5.49,1.65,7.09,4.3.42.69.79,1.3,1.68,1.31l-.93,2.13c-1.23.66-2.47,1.29-3.67,2a2.79,2.79,0,0,1-2.94.21c-1-.52-2.07-.89-3.11-1.33l-.31.37c.83,1,1.7,2,2.5,3.08s1.87,2,2.12,3.09c.52,2.32.54,4.74.83,7.12.41,3.4.73,6.82,1.36,10.18.9,4.81,1.89,9.62,3.11,14.36,1,4,2.43,7.92,3.74,11.84a13.66,13.66,0,0,0,1.55,3.22c2,3,4,5.92,6.05,8.9a1.74,1.74,0,0,0,1.86,1c1.79-.28,3.58-.51,5.22-.74-.59-.41-.59-1.15-.26-2.08,1.17-3.26,2.47-6.49,3.34-9.84a79.35,79.35,0,0,0,2.06-11c.57-5.16-.73-10.16-2-15.12-.62-2.51-1-4.94.72-7.19.08-.1,0-.29.06-.56-.32.12-.53.18-.73.27-3,1.3-5.44.72-7.16-2a52.49,52.49,0,0,1-2.65-5.62l1.89-.08c.1,2.64,2.3,6.13,4.36,6.7a11.09,11.09,0,0,0,.21-1.37c0-1.87,0-3.75,0-5.62,0-1.53.64-1.93,2.06-1.34.77.32,1.49.76,2.25,1.09,1.59.67,2.39.36,3.19-1.2,1.13-2.2,2.28-4.39,3.34-6.61a2,2,0,0,0-.15-1.4,4.84,4.84,0,0,0-.91-1.09c-.06-.58-.13-1.16-.18-1.74-.08-.92-.15-1.85-.22-2.78l-.67-.73-1.52-1c-1.09-2.64-2.61-4.91-5.38-6-1.18-.47-2.44-.74-3.64-1.17-.32-.11-.78-.49-.77-.73s.4-.64.7-.85a2.83,2.83,0,0,1,1-.36c1.94-.45,3.88-.87,5.82-1.32.36-.08.71-.21,1.09-.33-.77-3.23-1.5-6.3-2.27-9.57-.52.56-.92,1-1.26,1.37a10.65,10.65,0,0,1-6.26,4.11,2.64,2.64,0,0,0-1.52,1.3c-1,1.79-1.86,3.61-3.61,4.83a1.44,1.44,0,0,0-.48,1.09,11.29,11.29,0,0,1-1.48,6,22.2,22.2,0,0,0-.88,2.32l-1.91.76c.65-1.62,1.24-3.26,1.94-4.86,1.61-3.69,1.38-4.34-2.27-6-3.12-1.42-6.44-2.53-9.27-4.38a92.63,92.63,0,0,1-9.38-7.59c-3.58-3-7.12-6.17-10.62-9.32-1.09-1-2-2.15-3-3.24a2.28,2.28,0,0,1-.29-3.22c1.12-1.78,1.13-1.8-.68-3.06A194.18,194.18,0,0,1,93.9,43.5,66.69,66.69,0,0,1,88.05,37a5.82,5.82,0,0,1-.61-2.15,9.3,9.3,0,0,1,2.33.37c1.63.7,3.16,1.63,4.78,2.36,1.39.63,1.85.43,2.56-1S98.4,33.89,99,32.51l.94-2,1.5-2.08,1.21-1.44Zm22.92,6.65c0,.84,0,1.31,0,1.78-.07,1.32-.94,1.84-2,1.09a11.62,11.62,0,0,1-2.93-2.6c-1.77-2.46-3.34-5.07-5-7.63-2.12-3.35-4.38-6.58-7.77-8.81-.27-.18-.57-.3-1.08-.57.1.68.15,1.07.22,1.45.22,1.09.36,2.21.68,3.27.88,2.82-.66,4.38-2.82,5.65l-.1.07A15,15,0,0,0,100.44,33c-.7,1.57-1.42,3.13-2.22,4.65A2.73,2.73,0,0,1,94.87,39a21.07,21.07,0,0,1-2.07-.92c-.38-.16-.79-.25-1.34-.42a3.64,3.64,0,0,0,.13.62,2.12,2.12,0,0,0,.35.48C96.38,42.6,100.36,47,105.45,50c.92.55,1.7,1.32,2.57,2,3.13,2.29,6.18,4.69,9.43,6.78a6,6,0,0,1,3,4.23,4.23,4.23,0,0,0,.59,1.55c1.71,2.4,3.38,4.86,5.25,7.13,4.91,5.95,11.17,10.22,17.81,14,2.59,1.46,5.2,2.88,7.84,4.34a6.57,6.57,0,0,0,2.78-3.93,3.31,3.31,0,0,0-.13-1.81c-1-2.82-2.34-5.54-2.89-8.43-1.26-6.68-2.49-13.28-6.09-19.25-3.24-5.36-6-11-9.14-16.42C134.44,36.74,131.05,34.66,127.81,31.92Zm106.11,88.7c-1-.67-.94-.59-2.55-.22a38.86,38.86,0,0,1-4.93.76,1.64,1.64,0,0,1-1.87-1.61,5.66,5.66,0,0,1,0-1.88c.38-1.75.89-3.48,1.32-5.22.25-1,0-1.17-1-1a10,10,0,0,1-2.71.27c-1.51-.1-3-.36-4.5-.6-1.87-.29-2.24-.06-2.71,1.76a33.64,33.64,0,0,1-5.06,10.77c-3.93,5.61-8.06,11.14-9.88,17.94a8.78,8.78,0,0,1-.68,1.66,49.31,49.31,0,0,0-4.68,14.4,17.49,17.49,0,0,0,.75,8.49c.42,1.27,1,1.32,1.94.44a7.48,7.48,0,0,1,2.15-1.43c2.12-.82,4.3-1.48,6.45-2.24a17.8,17.8,0,0,0,7.25-4.52c1.84-1.94,3.76-3.8,5.46-5.86,1.09-1.32.42-2.44-1.31-2.55h-.72c-2.87,0-3.29-.68-1.77-3.14,3.45-5.57,7.07-11,10.43-16.66A28.51,28.51,0,0,1,233.92,120.62Zm41.76,26.7a48.43,48.43,0,0,1-5.92,3.21c-3.53,1.33-7.18,2.4-10.81,3.47-5.7,1.67-9,5.44-10.24,11.19-.41,2,1.7,6.63,3.49,7.58a3.36,3.36,0,0,0,1.47.45c1.32,0,2.63-.07,4-.07,2.42,0,4.85,0,7.27,0,.34,0,.67.52,1,.8-.36.24-.71.68-1.07.69-1.64,0-2.55,1-3.63,2.26a19.74,19.74,0,0,0,2.48.88c4.7,1,9.36.47,14-.32,1.33-.23,1.89-.7,1.84-2,0-.81.26-1.76,1.29-1.67,1.53.12,3.35,0,4.51.82,3,2,6.64,3,9.28,5.55,0,0,.14,0,.35-.09-.24-.51-.49-1-.7-1.49-1-2.26-2-4.52-3-6.78a1.91,1.91,0,0,1,.46-2.48,1.51,1.51,0,0,0,.16-2.16,7.22,7.22,0,0,0-1.14-1.38,3.31,3.31,0,0,1-.93-4.2,1.73,1.73,0,0,0-.67-2.38,7.09,7.09,0,0,1-2.83-4.3,21.66,21.66,0,0,0-1.24-3.11,1.68,1.68,0,0,0-2.05-1c-1,.18-2,.34-3.07.49a2.85,2.85,0,0,1-3.34-1.7C276.26,148.77,276,148,275.68,147.32ZM135.21,196c-1.73-2.39-2-5-2.17-7.8a32.11,32.11,0,0,0-.77-5.79c-.78-3.21-3-5.57-5.13-8-1.93-2.21-2-2.21-3.58.21a1.54,1.54,0,0,1-2.14.67,26,26,0,0,1-3.24-1.54c-1.4-.84-2.71-1.83-4.05-2.77s-2.39-.77-3.19.79c-.09.17-.15.37-.24.55-.49,1-.93,1.07-1.69.25-.93-1-1.77-2.07-2.77-3a20.36,20.36,0,0,0-2.57-1.75l-.44.31c.23,1.18.38,2.39.7,3.56a5.81,5.81,0,0,1-.33,4.49,43.75,43.75,0,0,0-2.57,5.92c-.82,2.34-2.14,4.07-4.62,4.74a7.53,7.53,0,0,0-.88.38c-.56.25-.71.63-.3,1.12A31.55,31.55,0,0,0,97.51,191c1.93,1.81,4.41,2.08,6.9,2.24,1.78.11,2.25.71,1.9,2.47-.21,1.08-.49,2.14-.75,3.23a18.15,18.15,0,0,1,4,0,26.63,26.63,0,0,0,14.28-.2,8.24,8.24,0,0,1,6.31.29,1.42,1.42,0,0,0,1.19-.1C132.6,198,133.81,197.06,135.21,196Zm42.66-3.79-.45-.19c-.54.45-1.11.88-1.63,1.37-1.39,1.28-2.52,1.09-3.28-.6a5,5,0,0,1-.46-1.36,64.56,64.56,0,0,1-.13-12.89c.19-2.25.49-4.49.74-6.73a2.21,2.21,0,0,0-1.17,1.05,3.57,3.57,0,0,1-5.15,1.71l-2.18-1.25A8.11,8.11,0,0,0,159.5,172c-2.33.13-3.19,1.1-2.81,3.39.2,1.22.47,2.42.66,3.65.77,5.2,1.5,10.4,2.3,15.6.56,3.65,1.22,7.29,1.78,10.94.66,4.29,1.32,8.59,1.86,12.89.44,3.48.67,7,1.07,10.46a48.34,48.34,0,0,0,.89,5,1.88,1.88,0,0,0,2,1.45,2.76,2.76,0,0,0,3.12-2.7,17.21,17.21,0,0,1,1.95-7,25.09,25.09,0,0,0,3.33-12.22c0-3,0-6.06,0-9.08.07-3.4.24-6.78,1.68-10A11.31,11.31,0,0,0,177.87,192.19Zm-21.56,10.34c-.88.33-1.67.6-2.44.9a3.54,3.54,0,0,1-4.13-.88c-1.5-1.41-2.13-3.24-3-5a6.71,6.71,0,0,1-.88-3.67,15.59,15.59,0,0,0-.24-2.61,10.51,10.51,0,0,0-.8,1.06,10.59,10.59,0,0,1-4.17,4.64,16.14,16.14,0,0,0-1.49,1,15.83,15.83,0,0,0-6.36,7.88,7,7,0,0,0,2.33,7.8,19.65,19.65,0,0,1,3.32,3,2.26,2.26,0,0,1,.24,2.08c-.75,1.16-.21,1.62.67,2.14a19.22,19.22,0,0,1,1.69,1.14c2,1.44,4.08,2.79,6,4.38,2.46,2.08,4.74,4.38,7.14,6.53a6.87,6.87,0,0,0,4.89,1.94c1,0,2.07-.28,2.17-1.46a21.88,21.88,0,0,0,.07-5.36c-.61-3.73-1.48-7.42-2.3-11.11-1-4.39-2.53-8.67-2.35-13.27A5.38,5.38,0,0,0,156.31,202.53Zm-26.57-95.8a5.1,5.1,0,0,0-1.31-.12,42.9,42.9,0,0,0-6.13,1.52c-5.94,2.32-11.67,5.21-18.16,5.79a37.52,37.52,0,0,0-3.76.71,3.55,3.55,0,0,0,.24.88,48.08,48.08,0,0,0,3.61,5.16c2.24,2.49,4.71,4.77,7.08,7.14a4.27,4.27,0,0,1,.88,5.15,1.57,1.57,0,0,0,.14,1.39,32.06,32.06,0,0,0,4.31,4.76c4.54,3.6,9.19,7.12,15.31,7.54.57,0,1.48,0,1.66-.34a2.24,2.24,0,0,0-.25-1.73,21.81,21.81,0,0,0-8.49-9.06,14.72,14.72,0,0,1-1.72-1.45,9.09,9.09,0,0,1,2-.57,41.28,41.28,0,0,1,4.31.1c1.51.11,2-.16,2.55-1.55a5.2,5.2,0,0,0-.39-4.5c-1.94-3.58-3.88-7.14-4.84-11.17a9.26,9.26,0,0,0-2-3.37c-.74-.92-1.78-1.59-2.62-2.44a3.84,3.84,0,0,1-.52-1.22c.39-.08.84-.32,1.18-.21,2.21.69,4.07-.09,5.83-1.33A10.07,10.07,0,0,0,129.74,106.73Zm74.46,65.81c-.6,0-1.07,0-1.54,0a6.91,6.91,0,0,1-5.55-2.3,43.34,43.34,0,0,0-3.65-3.08c-.61-.53-1.1-.42-1.48.2a22.53,22.53,0,0,0-2.62,4.5,63.33,63.33,0,0,0-2.05,8.47,57.88,57.88,0,0,1-3.92,12.91c-2.76,6.3-3.63,12.9-4.28,19.63a23.71,23.71,0,0,1-2.5,8.29c-2,3.94-4.3,7.72-4.36,12.33a8.07,8.07,0,0,0,.26,1.44,10.49,10.49,0,0,0,1.51-.58,1.46,1.46,0,0,0,.54-.77c1.25-3.36,2.55-6.7,3.68-10.1,1.2-3.63,2.22-7.32,3.32-11,.38-1.26.71-1.42,1.9-.93l1.66.69a1.26,1.26,0,0,0,1.85-.74c.37-.84.76-1.67,1.14-2.51s1-1.12,1.81-.59c.3.19.62.36.93.55a1.1,1.1,0,0,0,1.75-.55c.36-.71.73-1.42,1.15-2.1a1.68,1.68,0,0,0,0-1.88,3.83,3.83,0,0,1-.49-2.24,14.06,14.06,0,0,1,1.23-3.6c2-3.92,4-7.8,6-11.71C202.72,182.43,203.13,177.5,204.2,172.54Zm-1.73-50-.23-.15c-.63.6-1.25,1.2-1.9,1.78a5,5,0,0,1-6.67.49,8.91,8.91,0,0,0-3.93-1.74,28,28,0,0,1-5.47-2c-2-.84-2.55-.7-3.46,1.18q-2.55,5.3-5.09,10.57c-1.42,3-3,5.83-4.23,8.84a27.79,27.79,0,0,0-2.36,11.15c.05,3,1.74,5,4.22,5.28a5.68,5.68,0,0,0,5.11-1.77c1.66-1.77,3.36-3.53,4.93-5.39a9.33,9.33,0,0,1,6.33-3.67,12.67,12.67,0,0,0,2.1-.45,10.13,10.13,0,0,0,1.35-.64,15.33,15.33,0,0,0-1.89-.56c-1.5-.21-3-.39-4.5-.51s-1.87-.53-1.23-1.84a10.59,10.59,0,0,1,1.89-2.87,45,45,0,0,1,5.59-5,25,25,0,0,0,8.49-10.44c.1-.22.24-.42.33-.64C202.07,123.6,202.26,123.06,202.47,122.52Zm-6.22,112.92c-.24-.95-.49-1.78-.65-2.63a2.77,2.77,0,0,1,.86-3c1.74-1.51,3.28-3.26,4.9-4.91.85-.87.8-1.59-.22-1.78-3.09-.55-4.08-2.8-4.8-5.44a12.41,12.41,0,0,0-1.65-3.67c-1.29-1.84-2.88-3.41-5.31-3.76l-.37.68c-1.62,3.15-1.24,3.38-5.07,2.5-.73-.16-.92.21-1.1.73-1.11,3.21-2.26,6.4-3.3,9.62-1.38,4.25-2.65,8.52-4,12.78a1.7,1.7,0,0,0,.71,2.09,4.8,4.8,0,0,0,2,1,21,21,0,0,0,5.2,0C187.9,239,192,237.09,196.25,235.44Zm-5.22-127,.38.07a2.86,2.86,0,0,1,.24-.42c1.17-1.44,1-3.18,1.31-4.88A24.4,24.4,0,0,0,190.7,89a2.25,2.25,0,0,0-.67-.8c-1.41-1-2.81-2.11-4.31-3a16.49,16.49,0,0,0-3.52-1.62c-1.2-.39-2.5-.41-3.71-.75-1.38-.38-2.71-1-4.08-1.4-.5-.17-1-.24-1.76-.4a4.29,4.29,0,0,0,.39,1,6.85,6.85,0,0,1,1.16,6.94c-.23.7,0,1.12.82,1.42a7.43,7.43,0,0,1,2.76,1.59c1.68,1.75,3.17,3.69,4.75,5.55a8.17,8.17,0,0,0,4,2.93c2.9.82,3.78,2.11,4,5.18A27.39,27.39,0,0,0,191,108.42Zm.14,13.31a20.07,20.07,0,0,0,2.14-1.45,6.93,6.93,0,0,0,1.11-1.55c.93-1.45.91-2.06-.55-3s-3.09-1.48-4.58-2.31c-1-.57-2.41-1.12-2.85-2-1.05-2.26-2.85-3.69-4.54-5.33a19.31,19.31,0,0,0-8.06-4.5c-.64-.2-1,0-1.15.77a4.89,4.89,0,0,0,.79,4.69,11.22,11.22,0,0,1,1.13,1.84c1,1.87,2.39,3.07,4.66,2.91a1,1,0,0,1,1.19,1c0,1.23.2,2.47.12,3.7-.11,1.6-.08,1.61,1.48,2.07s3.18,1.18,4.79,1.74C188.19,120.81,189.55,121.21,191.17,121.73Zm26.46,76.33a2.07,2.07,0,0,0-.52,0c-3,1.55-6,3-8.89,4.69a20.64,20.64,0,0,0-8.18,7.71,34,34,0,0,0-2.08,4.93c-.35,1,.14,1.42,1.18,1.28.51-.06,1-.15,1.54-.17a16.64,16.64,0,0,0,7.16-1.61c1.8-1,1.86-.86,1.45-2.85a2.29,2.29,0,0,1,.8-2.44,58.71,58.71,0,0,0,5.14-4.83C216.92,202.92,217.44,200.55,217.63,198.06Zm-41-37.79-1.09.41L164.92,165a2.8,2.8,0,0,0-1.82,2.06c-.3,1.23-.66,2.45-.95,3.5l4.25,2.5c1.69,1,2.22.93,3.52-.48,1-1,1.87-2.09,2.85-3.09a6.84,6.84,0,0,1,1.51-.79c-.24,2.93-.44,5.43-.65,8C176.77,174.67,178.48,165,176.62,160.27Zm14.21-11.7a5.31,5.31,0,0,0-4.32,1.51c-2.35,2.4-4.59,4.89-6.83,7.37a1.39,1.39,0,0,0-.26,1.16c1,2.74,2.81,3.9,5.65,3.57a7.94,7.94,0,0,1,4.73.92c.74.4,1.53.73,2.21,1.05-.4-2.65-.94-5.17-1.13-7.73S190.83,151.26,190.83,148.57Zm-7.58-47.72c-.94-1.31-1.82-2.58-2.74-3.83-3-4.12-6.88-6.62-12.23-6-1.47.16-2.93.46-4.4.69l-.08.4,1.5,1.28c1,.86,2,1.66,2.9,2.6.71.75,1.17,1.72,1.85,2.49a3.67,3.67,0,0,0,1.63,1.1c1.29.38,2.67.47,3.95.87A13.28,13.28,0,0,0,183.25,100.85Zm18.24,29.28a13.74,13.74,0,0,0,3.72-4.51c1.6-3.44,2.06-7.1,2.75-10.73a2.75,2.75,0,0,0-1-2.68c-.91-.83-1.8-1.7-2.74-2.5-.53-.47-1.14-.86-1.72-1.28-.38,1.71-.62,3.21-1.07,4.65a40.31,40.31,0,0,1-1.76,4.32,12.92,12.92,0,0,0-1,6.18,3.51,3.51,0,0,0,.74-.38c1.07-1,2.12-2.06,3.21-3a1.34,1.34,0,0,1,1-.39c.24.08.41.61.46,1A2.56,2.56,0,0,1,204,122c-.82,1.89-1.69,3.77-2.59,5.63A2.09,2.09,0,0,0,201.49,130.13Zm-6.22,81.5A154.15,154.15,0,0,0,202.19,193c-1.75,1-3.66,1.8-4.66,3.6a33.13,33.13,0,0,0-2.26,5.14,3.07,3.07,0,0,0,.3,2.31c1.12,1.78,1.21,2.24.05,4-.28.43-.57.86-.86,1.29C193.88,210.68,193.88,210.68,195.27,211.63ZM190,86.31l.4-.24c0-.44.07-.87.06-1.31-.05-1.43-.22-2.86-.16-4.29a4.69,4.69,0,0,0-3.61-4.17,1.55,1.55,0,0,0,.05.23,17.78,17.78,0,0,1,2.34,8.55C189.08,85.48,189.69,85.9,190,86.31Zm-2.71,56.93,4.27.49v-5.41C189.76,139.85,188,141,187.3,143.24Z" style="fill:#297235"/><path d="M184.22,247.49c1.52-.82,1.72-1.21,1.18-2.72-1.41-3.94-.83-3.13,2.21-4.34,2.35-.93,4.86-1.47,7.25-2.35a7.13,7.13,0,0,0,2.38-1.73,2.35,2.35,0,0,0,.5-2.67,3.08,3.08,0,0,1,.67-3.42c1.34-1.52,2.75-3,4.07-4.52s1-2.68-.82-3.59a12.6,12.6,0,0,1-2.18-1.43c-.57-.47-.63-1.11.17-1.4,1.48-.53,3-1,4.49-1.43.15.4.19.91.47,1.19,3.1,3.09,3.93,7.15,5.14,11.14a16.82,16.82,0,0,1-1.18,12.65c-1.67,3.46-2.14,7.16-2.92,10.81-.67,3.21-1.42,6.4-3.8,8.9a2.51,2.51,0,0,0-.49,1.21q-2.7,15.57-5.37,31.14c-.46,2.68-.84,5.37-1.46,8a10.08,10.08,0,0,1-6.49,7.53,66.54,66.54,0,0,1-16,4.48A30.56,30.56,0,0,1,155,312.63a31.92,31.92,0,0,1-12.59-10.47c-1.56-2.21-2.06-4.85-2.49-7.43-1.59-9.57-3.07-19.16-4.59-28.73-.3-1.86-.63-3.7-.91-5.56a5.09,5.09,0,0,0-2.07-3.51c-3.08-2.28-4-5.42-3.69-9.08.12-1.39.31-2.78.36-4.18a3.51,3.51,0,0,0-.4-1.81c-2.88-4.83-2.73-9.76-.8-14.86a32.57,32.57,0,0,1,5.84-9.54,11.63,11.63,0,0,1,1.94-1.52c1.46.83,1.58,1.23.76,2.61a1.9,1.9,0,0,0,.26,2.6,44.93,44.93,0,0,0,4.78,3.95c3.6,2.4,6.56,5.54,9.79,8.37A13.44,13.44,0,0,1,153,236.1l-.35.41a20.61,20.61,0,0,0-2.31-1c-.51-.16-1.38-.3-1.61,0a2.44,2.44,0,0,0-.58,1.9,41.52,41.52,0,0,0,2.59,7.55c.61,1.17,2.31,1.78,3.52,2.65a4.14,4.14,0,0,0,.46.37,32.93,32.93,0,0,0,14.58,4.87,14,14,0,0,0,6.21-.67,41.63,41.63,0,0,0,4.32-2.06C181.31,249.25,182.75,248.35,184.22,247.49Zm-50.39,8.18,7.93,7.13c2.23,1.37,4.37,2.91,6.7,4.07,2.56,1.28,5.29,2.21,7.95,3.27.82.32,1.46.7,1.16,1.74a5.49,5.49,0,0,1-1.57,0c-1.16-.32-2.29-.77-3.43-1.17l-9.14-4.27-3.8-2.68c.54,4.26,1,8.12,1.51,12,.34,2.56.76,5.11,1.09,7.67.51,3.86.85,7.75,1.5,11.58a13.08,13.08,0,0,0,3.77,7.46,39.68,39.68,0,0,0,3.58,2.92c2.14,1.37,4.39,2.57,6.62,3.81A21.69,21.69,0,0,0,168.17,312c3.24-.32,6.5-.49,9.71-1a46.14,46.14,0,0,0,6.44-1.83c3.63-1.15,6.28-3.39,7.08-7.21.75-3.58,1.11-7.24,1.77-10.83,1.4-7.55,2.89-15.09,4.34-22.63.08-.43.1-.87.18-1.5a15.37,15.37,0,0,0-1.9.73,12.86,12.86,0,0,1-6.84,1.36c-.77,0-1.21-.26-1.27-1.22a18.52,18.52,0,0,0,2.09-.73,34.57,34.57,0,0,0,5.48-2.83,40.4,40.4,0,0,0,5.12-4.85,6.34,6.34,0,0,0,1.59-2.61c.91-3.59,1.65-7.22,2.45-10.83l2.75-6-.29-.15a18.1,18.1,0,0,1-1.24,1.39A45.58,45.58,0,0,1,190.85,251a64.41,64.41,0,0,1-9.39,3c-2.94.63-6,.54-9,.92a41.37,41.37,0,0,1-14-.94A57.36,57.36,0,0,1,141.76,247a30.66,30.66,0,0,1-8-6.26c-1.78-2.06-3.5-4.18-4.08-6.92-.31-1.44-.4-2.92-.62-4.67a12.63,12.63,0,0,0-.3,6.7c.52,2.12,1.28,4.18,1.94,6.28.08,2.54,0,5.09.27,7.61A8.88,8.88,0,0,0,133.83,255.67Z" style="fill:#931702"/><path d="M78.75,110.94l2.57-2.17c3.1-.32,6,0,8.44,2.31l-2.83,5.57-1.56,2.45c-.39.74-.8,1.46-1.15,2.22-1.86,4-4.72,7.3-7.58,10.58a1.84,1.84,0,0,0-.51,1.92,4.83,4.83,0,0,1,0,2.36,67,67,0,0,1-2,6.88c-1.26,3.4-2.67,6.75-4.12,10.07a10,10,0,0,0-.62,5.51,13,13,0,0,1-.8,6.82,7,7,0,0,1-1.66,1.87c-.22.22-.6.3-.79.53-1.93,2.3-4.67,2.82-7.38,3.38-1,.22-1.87-.26-1.89-1.3,0-2,.17-4,.29-6.05,0-.43.12-.86.19-1.33a3.35,3.35,0,0,0-2.5,3.5,28.36,28.36,0,0,0,1,9.49,43.67,43.67,0,0,0,2,4.85c1.69,3.61.59,6.66-1.79,9.49a1,1,0,0,1-.26.25c-1.93,1.1-2.38,2.87-2.39,4.94,0,3.19-.15,6.37-.32,9.55a2.5,2.5,0,0,1-.81,1.69c-1.24.93-2.61,1.69-3.93,2.51-.67.41-1,.07-1.27-.55-.52-1.29-1.06-2.58-1.59-3.87-.15-.37-.32-.72-.58-1.31-1,1.55-1.93,2.9-2.71,4.34a4.87,4.87,0,0,1-4.2,2.55,7.53,7.53,0,0,0-.83.08c-2,.36-2,.31-3-1.37-2.81-4.38-3-9.07-1.76-13.94A36.47,36.47,0,0,0,34,184.61c0-.39,0-.77-.06-1.16l-.3-.14c-.55.87-1.07,1.76-1.66,2.61a5.74,5.74,0,0,1-1.32,1.49c-.85.59-1.54.22-1.7-.81a17.67,17.67,0,0,1,2.65-12.72c1.37-2.11,2.89-4.13,4.17-6.3s2.26-4.28,3.28-6.48c1.18-2.53,2.24-5.11,3.36-7.67l.48-1.06-.18-.31c-1.15.35-2.29.75-3.45,1.05a4.65,4.65,0,0,1-1.33-.07,3.5,3.5,0,0,1,.16-1.32,69.71,69.71,0,0,1,15-17.59,46.55,46.55,0,0,1,5.76-3.62c.92-.56,1.91-1,2.82-1.59a4,4,0,0,0,2.15-3.12,1.36,1.36,0,0,1,.24-.67c2.42-3.46,4.87-6.89,8.53-9.23,1.58-1,3.06-2.17,4.54-3.33A15.06,15.06,0,0,0,78.75,110.94Zm-9.21,13.63-.23.29a9.9,9.9,0,0,1-3.61,3.37c-2.05,1.12-4,2.34-6.06,3.52A38.76,38.76,0,0,0,55.71,134a44.67,44.67,0,0,0-4,3.45c-1.09,1-2.12,2.09-3.17,3.13l.24.33a4.39,4.39,0,0,0,1.1-.49c1.31-1.1,2.52-2.33,3.89-3.34a11.11,11.11,0,0,1,3.25-1.66c1-.32,1.48.39,1.19,1.44a30.87,30.87,0,0,0-1.16,5c-.16,1.5.75,2.29,2.19,2.37.17.09.38.29.52.25,2-.55,4.12-.47,5.76-2a26,26,0,0,1,2.74-2.13,10.28,10.28,0,0,1,1.27-.69l.39.3c-.18.49-.21,1.19-.56,1.42-2.23,1.52-4.54,2.94-6.82,4.39a10.9,10.9,0,0,0-1.88.72c-.35.21-.8.77-.74,1.06.5,2.1.13,4.33,1.19,6.36a5.78,5.78,0,0,1,.32,3,12.82,12.82,0,0,1-.76,2.87c-.41,1.24-.83,2.47-1.33,3.67-.38.92.13,3.56.93,4.12a1.67,1.67,0,0,0,1,.24c.86-.05,3.44-2.24,3.59-3.1.37-2.15.67-4.31,1-6.47.68-4.12,1.21-8.3,4.19-11.6a4.74,4.74,0,0,0,.58-1c1.88-3.55,2.76-7.44,3.71-11.3l.07-.18-.17.08c-1.07.68-2.12,1.41-3.24,2a1.63,1.63,0,0,1-1.39.07,1.71,1.71,0,0,1-.43-1.43c.67-2.5,1.43-5,2.22-7.45.14-.43.59-.77.89-1.15l.32.16c.06.54.1,1.09.2,1.63a9.08,9.08,0,0,0,.54,2.17c.63,1.4,1.74,1.56,2.68.37a86.35,86.35,0,0,0,6-8c1.23-2,1.78-4.39,2.63-6.62a22.21,22.21,0,0,0,.58-2.54c.26-2.35-.37-3-2.75-2.67a2.71,2.71,0,0,0-1.28.55c-1.83,1.41-3.61,2.88-5.44,4.29a20.25,20.25,0,0,0-6.33,9.08ZM52.9,148.85c-1.38-.39-.61-1.45-.59-2.19a23.59,23.59,0,0,1,.49-3.2l-.42-.24c-1,1.07-1.92,2.17-2.93,3.21a21.53,21.53,0,0,0-5.85,11.62c-.33,1.91-1,3.76-1.5,5.63-.73,1-1.42,2.11-2.19,3.11-1.39,1.79-1.51,4-.3,5.4a1.35,1.35,0,0,0,.29-.16c1.51-1.41,3-2.81,4.5-4.25a43.74,43.74,0,0,0,4.44-4.49c1.34-1.71,2.3-3.72,3.47-5.57,1.29-2.06,2.71-4,3.9-6.15a35.21,35.21,0,0,0,1.69-4.21l-.37-.37a20.27,20.27,0,0,0-2.31.65C54.42,148,53.67,148.44,52.9,148.85Zm-2.6,27c1.46-3.16,1.92-6.55,2.49-10a2.84,2.84,0,0,0-.57.1c-1.91,1.14-3.85,2.25-5.72,3.47a2,2,0,0,0-.73,1.37c-.15,2-.19,4.05-.26,6.08-.36,1.13-.74,2.26-1.08,3.4-1.06,3.62-2.18,7.24-3.13,10.9-.52,2-.81,4.12-2.11,5.9a4.06,4.06,0,0,0,.86,5.37c.23.18,1,.12,1,0a21.27,21.27,0,0,0,1.73-5,13.35,13.35,0,0,1,2-6.06c1-1.46,2-2.89,2.9-4.39C49.74,183.56,49.41,179.57,50.3,175.89Z" style="fill:#fb2076"/><path d="M210.3,72.75c.69,0,1.38.14,2.07.12a7.67,7.67,0,0,0,2-.27,30.31,30.31,0,0,0,10.15-5.95c.61-.5,1.28-1,1.91-1.44s1.26-.34,1.32.49a3.47,3.47,0,0,1-.45,2c-.7,1.06-1.61,2-2.41,3-.42.51-.78,1.07-1.17,1.6l.21.35a17.13,17.13,0,0,0,2.82-1c1.31-.75,2.48-1.75,3.77-2.54,2.16-1.32,4.51-1.31,7.26-.9a20,20,0,0,1-1.16,2,34.21,34.21,0,0,0-2.46,3.08,12.34,12.34,0,0,0-1.41,3.63,6.48,6.48,0,0,1-1.64,3.23c-1.68,1.79-3.3,3.63-6.3,4a7,7,0,0,0,1,.63,13.63,13.63,0,0,0,5.78.69c.41-.06,1,.41,1.32.8a5,5,0,0,1,.56,1.44c.43,1.19.15,1.76-1.08,1.68-2.06-.13-4.1-.49-6.15-.67-.88-.07-2-.27-2.64.15-3.19,2.12-6.69,1.84-10.2,1.62a31.33,31.33,0,0,1-3.15-.52c.38-.6.74-1.21,1.13-1.8A15.59,15.59,0,0,0,213,85.72c.62-1.41,1-2.9,1.55-4.36a33.63,33.63,0,0,1,4.73,1.14c4.85,1.89,9.06-.24,11.62-4.48-1.88-.78-3.74-1.59-5.87-.94a12.2,12.2,0,0,1-3.05.53,2.93,2.93,0,0,1-2-.61c-.28-.29,0-1.23.19-1.85a7.88,7.88,0,0,1,.78-1.46,4.13,4.13,0,0,0-.9,0c-2.3.7-4.47,1.91-7,1.81-.07,0-.14.08-.2.12Z" style="fill:#2a7236"/><path d="M72.81,82.28l-2.32-.1c-1.8-1.16-3.73-1-5.63-.41s-3.72,1.45-5.65,1.86a19.9,19.9,0,0,1-14.1-2.18,17.67,17.67,0,0,1-4.25-4,2.1,2.1,0,0,1,0-2A14.38,14.38,0,0,1,44.41,72,27.65,27.65,0,0,1,54.5,68.88c3-.45,5.69.78,8,2.56,1.67,1.29,3.41,1.06,5.21,1A29,29,0,0,0,70.62,72l3.45,1.23c1.1.63,2.22,1.23,3.3,1.92a13.39,13.39,0,0,1,2.46,1.82c1.15,1.17,1,1.93-.55,2.63-1.31.59-2.67,1.06-4,1.61C74.45,81.51,73.64,81.91,72.81,82.28ZM53.47,70.59l-.52.23a.22.22,0,0,1-.16,0A24.36,24.36,0,0,0,48.56,72a5.12,5.12,0,0,0-3.22,4.67A4.92,4.92,0,0,0,48.57,81a17,17,0,0,0,5.78,1.21,30.6,30.6,0,0,0,5.43-.65c1.83-.23,2.54-.87,3-2.69.77-1.3.85-4.13-.08-5C60.11,71.54,57.24,69.78,53.47,70.59Z" style="fill:#f6298a"/><path d="M100,30.46l-.94,2c-2.58-2.27-5.13-4.59-8.68-5.25a8.42,8.42,0,0,0-2.12-.2,17.06,17.06,0,0,1-10.69-2.43,17.79,17.79,0,0,1-4.77-4.93,31.39,31.39,0,0,1-3-6.23A3.1,3.1,0,0,1,71.1,9.29a8.62,8.62,0,0,1,3.74-1.73,58.23,58.23,0,0,1,9.15,0c3.62.27,6.3,2.77,9.25,4.55A5,5,0,0,1,94.65,14a25.5,25.5,0,0,0,6.25,7.5c1.42,1.16,2.66,2.52,4,3.8l-2.2,1.67c0-.47.11-1.12-.15-1.4a16.16,16.16,0,0,0-6.12-4.66c-1.93-.74-2.71-.44-3.48,1.49a4.83,4.83,0,0,0-.21.93c.18.58.2,1.35.59,1.72,1.78,1.7,3.66,3.3,5.53,4.9A4.71,4.71,0,0,0,100,30.46ZM84,9.15A12.6,12.6,0,0,0,77,9c-1.63.47-3.29,1.39-3.56,3.23A10.76,10.76,0,0,0,76,21.17a12.91,12.91,0,0,0,8.33,4.26c2.94.38,5-.49,5.73-2.63.31-.9.45-1.86.67-2.78a21.8,21.8,0,0,0,1-2.41c.62-2.2-.29-5.33-1.88-6.26A13.89,13.89,0,0,0,84,9.15Z" style="fill:#fb2377"/><path d="M214.52,81.36c-.51,1.46-.93,3-1.55,4.36a15.59,15.59,0,0,1-1.58,2.35c-.39.59-.75,1.2-1.13,1.8-.44.23-.91.43-1.34.69-2,1.16-3.91,2.34-5.87,3.52-1-.11-1.91-.18-2.85-.35-3.38-.58-5.2-2.94-6.34-5.89a20.18,20.18,0,0,1-.4-12.46,12.55,12.55,0,0,1,.86-2c2.38-1.52,4.72-3.13,7.52-3.86l3.07-.5a6.63,6.63,0,0,1,4,2.54,9.92,9.92,0,0,0,1.35,1.14c.84,1,1.69,1.93,2.54,2.89A8.27,8.27,0,0,1,214.52,81.36ZM197,74.15l-1.81,1.13a36.3,36.3,0,0,1,2.73,5.43,17.36,17.36,0,0,1,.12,8.94,1.68,1.68,0,0,0,1.41,2.28l.92.22c1.34-.11,2.87.15,4-.41,3.87-2,7.15-4.6,7.28-9.51a12.8,12.8,0,0,0,0-3.65c-.93-3.33-3.35-5.52-6.23-7.24a1.64,1.64,0,0,0-.92-.21A15.63,15.63,0,0,0,197,74.15Z" style="fill:#f92375"/><path d="M168.64,100l1.52,1c-.78.27-1.56.56-2.34.82-2.14.69-2.42,1.15-2,3.35.06.31.13.62.19.93.2,1,.85,1.36,1.61.68,1.54-1.35,3.09-2.77,3.21-5,.07.93.14,1.86.22,2.78,0,.58.12,1.16.18,1.74-1.61,1.39-3.31,2.69-4.83,4.18-2.82,2.77-5.49,5.7-9.56,6.66l-1.89.08c-1.43.28-2.88.49-4.31.83-2.54.6-4.87.42-6.92-1.43a3.78,3.78,0,0,1-1.4-3.71c.33-1.91.61-3.84.91-5.76l.93-2.13a6.86,6.86,0,0,0,3.64-3.62l1.91-.76a4.56,4.56,0,0,0,1.29-.14,16.32,16.32,0,0,1,10.86-.22A9.73,9.73,0,0,0,168.64,100Zm-5.5,4a7.15,7.15,0,0,0-1.64-1.45,13.51,13.51,0,0,0-8.22-.51c-2.5.54-4.91,1.18-6.5,3.42a22.49,22.49,0,0,0-2,4.34,5.67,5.67,0,0,0,5.56,6.7,20.89,20.89,0,0,0,8.55-2c2.49-1.13,4.57-2.68,4.66-5.79,0-1.35.07-2.71.06-4.07C163.57,104.35,163.29,104.13,163.14,103.9Z" style="fill:#f92375"/><path d="M190,21.58a16.29,16.29,0,0,1-.37,9.05c-1.35,4.42-4.09,7.53-8.78,8.6a39.66,39.66,0,0,1-4.41.91,9,9,0,0,1-3.59-.25,27.18,27.18,0,0,1-4.05-2l-1.36-1.62a11.18,11.18,0,0,1-1.21-7.64c.1-.5.3-1,.45-1.47a7,7,0,0,0,.75-.9c1.77-2.8,4-5,7.42-5.64a3.81,3.81,0,0,0,.75-.33c.84-.23,1.7-.41,2.51-.71a11.3,11.3,0,0,1,8.46,0,29.65,29.65,0,0,1,3.19,1.81l.25.2Zm-13.69.49a4.86,4.86,0,0,0-1.43.52,21.69,21.69,0,0,0-4,3.5c-2.74,3.63-2.11,7,.9,9.93,1.85,1.83,6.47,1.73,9.09.08.63-.14,1.25-.26,1.87-.42a8.76,8.76,0,0,0,6.35-8.8c-.12-2.12-.64-4.18-2.68-5.15A10.06,10.06,0,0,0,176.32,22.07Z" style="fill:#f92375"/><path d="M234.89,161.79l1.87.39c.9.88,2.17,1.43,2.37,2.89.23,1.66.57,3.3.73,5,.26,2.8-2.25,7-4.68,8.11-1.05.46-2.09,1-3.13,1.47a6.62,6.62,0,0,1-4.57-3.79c-.4-.77-.9-1.48-1.36-2.22a27,27,0,0,1,3-8.65,6.14,6.14,0,0,1,4.94-3.08Zm3.33,10.75a17,17,0,0,0,.23-2.56c0-1-.34-2-.44-3-.23-2.41-2.34-3.41-4.18-3.43s-2.27.62-2.29,2.32a13.66,13.66,0,0,1-2,7.29,2.45,2.45,0,0,0,.22,3.11,3.27,3.27,0,0,0,3.54,1.07A8.19,8.19,0,0,0,238.22,172.54Z" style="fill:#f92375"/><path d="M175.61,20.29a3.81,3.81,0,0,1-.75.33c-3.41.65-5.65,2.84-7.42,5.64a7,7,0,0,1-.75.9,7.88,7.88,0,0,0,.2-3.39,44,44,0,0,1,.12-5.25c.06-2.26.25-4.54-.71-6.71-.12-.27.09-.69.15-1.05.38.12,1,.13,1.09.37,1.46,2.89,3.75,5,6.09,7.15C174.32,18.91,175,19.62,175.61,20.29Z" style="fill:#2d7338"/><path d="M190,21.6l-.25-.2Z" style="fill:#297235"/><path d="M127.81,31.92c3.24,2.74,6.63,4.82,8.62,8.24,3.15,5.41,5.9,11.06,9.14,16.42,3.6,6,4.83,12.57,6.09,19.25.55,2.89,1.94,5.61,2.89,8.43a3.31,3.31,0,0,1,.13,1.81A6.57,6.57,0,0,1,151.9,90c-2.64-1.46-5.25-2.88-7.84-4.34-6.64-3.76-12.9-8-17.81-14-1.87-2.27-3.54-4.73-5.25-7.13a4.23,4.23,0,0,1-.59-1.55,6,6,0,0,0-3-4.23c-3.25-2.09-6.3-4.49-9.43-6.78-.87-.63-1.65-1.4-2.57-2C100.36,47,96.38,42.6,91.94,38.78a2.12,2.12,0,0,1-.35-.48,3.64,3.64,0,0,1-.13-.62c.55.17,1,.26,1.34.42a21.07,21.07,0,0,0,2.07.92,2.73,2.73,0,0,0,3.35-1.39c.8-1.52,1.52-3.08,2.22-4.65A15,15,0,0,1,107,25.62l.1-.07c2.16-1.27,3.7-2.83,2.82-5.65-.32-1.06-.46-2.18-.68-3.27-.07-.38-.12-.77-.22-1.45.51.27.81.39,1.08.57,3.39,2.23,5.65,5.46,7.77,8.81,1.63,2.56,3.2,5.17,5,7.63a11.62,11.62,0,0,0,2.93,2.6c1.07.75,1.94.23,2-1.09C127.83,33.23,127.81,32.76,127.81,31.92Z" style="fill:#bfe749"/><path d="M143.23,107.1c-.3,1.92-.58,3.85-.91,5.76a3.78,3.78,0,0,0,1.4,3.71c2.05,1.85,4.38,2,6.92,1.43,1.43-.34,2.88-.55,4.31-.83a52.49,52.49,0,0,0,2.65,5.62c1.72,2.77,4.11,3.35,7.16,2,.2-.09.41-.15.73-.27,0,.27,0,.46-.06.56-1.75,2.25-1.34,4.68-.72,7.19,1.24,5,2.54,10,2,15.12a79.35,79.35,0,0,1-2.06,11c-.87,3.35-2.17,6.58-3.34,9.84-.33.93-.33,1.67.26,2.08-1.64.23-3.43.46-5.22.74a1.74,1.74,0,0,1-1.86-1c-2-3-4.08-5.9-6.05-8.9a13.66,13.66,0,0,1-1.55-3.22c-1.31-3.92-2.7-7.84-3.74-11.84-1.22-4.74-2.21-9.55-3.11-14.36-.63-3.36-.95-6.78-1.36-10.18-.29-2.38-.31-4.8-.83-7.12-.25-1.13-1.35-2.09-2.12-3.09s-1.67-2.06-2.5-3.08l.31-.37c1,.44,2.11.81,3.11,1.33a2.79,2.79,0,0,0,2.94-.21C140.76,108.39,142,107.76,143.23,107.1Z" style="fill:#86cc4c"/><path d="M233.92,120.62a28.51,28.51,0,0,0-8.65,9.61c-3.36,5.62-7,11.09-10.43,16.66-1.52,2.46-1.1,3.13,1.77,3.14h.72c1.73.11,2.4,1.23,1.31,2.55-1.7,2.06-3.62,3.92-5.46,5.86a17.8,17.8,0,0,1-7.25,4.52c-2.15.76-4.33,1.42-6.45,2.24a7.48,7.48,0,0,0-2.15,1.43c-1,.88-1.52.83-1.94-.44a17.49,17.49,0,0,1-.75-8.49,49.31,49.31,0,0,1,4.68-14.4,8.78,8.78,0,0,0,.68-1.66c1.82-6.8,5.95-12.33,9.88-17.94a33.64,33.64,0,0,0,5.06-10.77c.47-1.82.84-2.05,2.71-1.76,1.49.24,3,.5,4.5.6a10,10,0,0,0,2.71-.27c1-.22,1.25-.07,1,1-.43,1.74-.94,3.47-1.32,5.22a5.66,5.66,0,0,0,0,1.88,1.64,1.64,0,0,0,1.87,1.61,38.86,38.86,0,0,0,4.93-.76C233,120,233,120,233.92,120.62Z" style="fill:#bee749"/><path d="M275.68,147.32c.27.63.58,1.45,1,2.23a2.85,2.85,0,0,0,3.34,1.7c1-.15,2.05-.31,3.07-.49a1.68,1.68,0,0,1,2.05,1,21.66,21.66,0,0,1,1.24,3.11,7.09,7.09,0,0,0,2.83,4.3,1.73,1.73,0,0,1,.67,2.38,3.31,3.31,0,0,0,.93,4.2,7.22,7.22,0,0,1,1.14,1.38,1.51,1.51,0,0,1-.16,2.16,1.91,1.91,0,0,0-.46,2.48c1,2.26,2,4.52,3,6.78.21.49.46,1,.7,1.49-.21.06-.32.11-.35.09-2.64-2.59-6.28-3.53-9.28-5.55-1.16-.79-3-.7-4.51-.82-1-.09-1.32.86-1.29,1.67.05,1.35-.51,1.82-1.84,2-4.67.79-9.33,1.34-14,.32a19.74,19.74,0,0,1-2.48-.88c1.08-1.22,2-2.26,3.63-2.26.36,0,.71-.45,1.07-.69-.34-.28-.67-.79-1-.8-2.42-.08-4.85-.06-7.27,0-1.32,0-2.63.1-4,.07a3.36,3.36,0,0,1-1.47-.45c-1.79-1-3.9-5.58-3.49-7.58,1.2-5.75,4.54-9.52,10.24-11.19,3.63-1.07,7.28-2.14,10.81-3.47A48.43,48.43,0,0,0,275.68,147.32Z" style="fill:#bee749"/><path d="M135.21,196c-1.4,1.08-2.61,2.06-3.89,3a1.42,1.42,0,0,1-1.19.1,8.24,8.24,0,0,0-6.31-.29,26.63,26.63,0,0,1-14.28.2,18.15,18.15,0,0,0-4,0c.26-1.09.54-2.15.75-3.23.35-1.76-.12-2.36-1.9-2.47-2.49-.16-5-.43-6.9-2.24a31.55,31.55,0,0,1-2.28-2.61c-.41-.49-.26-.87.3-1.12a7.53,7.53,0,0,1,.88-.38c2.48-.67,3.8-2.4,4.62-4.74a43.75,43.75,0,0,1,2.57-5.92,5.81,5.81,0,0,0,.33-4.49c-.32-1.17-.47-2.38-.7-3.56l.44-.31a20.36,20.36,0,0,1,2.57,1.75c1,.92,1.84,2,2.77,3,.76.82,1.2.74,1.69-.25.09-.18.15-.38.24-.55.8-1.56,1.78-1.79,3.19-.79s2.65,1.93,4.05,2.77a26,26,0,0,0,3.24,1.54,1.54,1.54,0,0,0,2.14-.67c1.61-2.42,1.65-2.42,3.58-.21,2.11,2.41,4.35,4.77,5.13,8a32.11,32.11,0,0,1,.77,5.79C133.18,190.93,133.48,193.59,135.21,196Z" style="fill:#bee749"/><path d="M177.87,192.19a11.31,11.31,0,0,1-.53,2.35c-1.44,3.17-1.61,6.55-1.68,10-.07,3,0,6,0,9.08a25.09,25.09,0,0,1-3.33,12.22,17.21,17.21,0,0,0-1.95,7,2.76,2.76,0,0,1-3.12,2.7,1.88,1.88,0,0,1-2-1.45,48.34,48.34,0,0,1-.89-5c-.4-3.48-.63-7-1.07-10.46-.54-4.3-1.2-8.6-1.86-12.89-.56-3.65-1.22-7.29-1.78-10.94-.8-5.2-1.53-10.4-2.3-15.6-.19-1.23-.46-2.43-.66-3.65-.38-2.29.48-3.26,2.81-3.39a8.11,8.11,0,0,1,4.66,1.26l2.18,1.25a3.57,3.57,0,0,0,5.15-1.71,2.21,2.21,0,0,1,1.17-1.05c-.25,2.24-.55,4.48-.74,6.73a64.56,64.56,0,0,0,.13,12.89,5,5,0,0,0,.46,1.36c.76,1.69,1.89,1.88,3.28.6.52-.49,1.09-.92,1.63-1.37Z" style="fill:#86cc4c"/><path d="M156.31,202.53a5.38,5.38,0,0,1,.29,1.21c-.18,4.6,1.37,8.88,2.35,13.27.82,3.69,1.69,7.38,2.3,11.11a21.88,21.88,0,0,1-.07,5.36c-.1,1.18-1.18,1.43-2.17,1.46a6.87,6.87,0,0,1-4.89-1.94c-2.4-2.15-4.68-4.45-7.14-6.53-1.88-1.59-4-2.94-6-4.38a19.22,19.22,0,0,0-1.69-1.14c-.88-.52-1.42-1-.67-2.14a2.26,2.26,0,0,0-.24-2.08,19.65,19.65,0,0,0-3.32-3,7,7,0,0,1-2.33-7.8,15.83,15.83,0,0,1,6.36-7.88,16.14,16.14,0,0,1,1.49-1,10.59,10.59,0,0,0,4.17-4.64,10.51,10.51,0,0,1,.8-1.06,15.59,15.59,0,0,1,.24,2.61,6.71,6.71,0,0,0,.88,3.67c.9,1.73,1.53,3.56,3,5a3.54,3.54,0,0,0,4.13.88C154.64,203.13,155.43,202.86,156.31,202.53Z" style="fill:#86cc4c"/><path d="M129.74,106.73a10.07,10.07,0,0,1-1.05,1.08c-1.76,1.24-3.62,2-5.83,1.33-.34-.11-.79.13-1.18.21a3.84,3.84,0,0,0,.52,1.22c.84.85,1.88,1.52,2.62,2.44a9.26,9.26,0,0,1,2,3.37c1,4,2.9,7.59,4.84,11.17a5.2,5.2,0,0,1,.39,4.5c-.53,1.39-1,1.66-2.55,1.55a41.28,41.28,0,0,0-4.31-.1,9.09,9.09,0,0,0-2,.57,14.72,14.72,0,0,0,1.72,1.45,21.81,21.81,0,0,1,8.49,9.06,2.24,2.24,0,0,1,.25,1.73c-.18.33-1.09.38-1.66.34-6.12-.42-10.77-3.94-15.31-7.54a32.06,32.06,0,0,1-4.31-4.76,1.57,1.57,0,0,1-.14-1.39,4.27,4.27,0,0,0-.88-5.15c-2.37-2.37-4.84-4.65-7.08-7.14a48.08,48.08,0,0,1-3.61-5.16,3.55,3.55,0,0,1-.24-.88,37.52,37.52,0,0,1,3.76-.71c6.49-.58,12.22-3.47,18.16-5.79a42.9,42.9,0,0,1,6.13-1.52A5.1,5.1,0,0,1,129.74,106.73Z" style="fill:#bee649"/><path d="M204.2,172.54c-1.07,5-1.48,9.89-3.74,14.34-2,3.91-4.05,7.79-6,11.71a14.06,14.06,0,0,0-1.23,3.6,3.83,3.83,0,0,0,.49,2.24,1.68,1.68,0,0,1,0,1.88c-.42.68-.79,1.39-1.15,2.1a1.1,1.1,0,0,1-1.75.55c-.31-.19-.63-.36-.93-.55-.85-.53-1.43-.28-1.81.59s-.77,1.67-1.14,2.51a1.26,1.26,0,0,1-1.85.74l-1.66-.69c-1.19-.49-1.52-.33-1.9.93-1.1,3.67-2.12,7.36-3.32,11-1.13,3.4-2.43,6.74-3.68,10.1a1.46,1.46,0,0,1-.54.77,10.49,10.49,0,0,1-1.51.58,8.07,8.07,0,0,1-.26-1.44c.06-4.61,2.32-8.39,4.36-12.33a23.71,23.71,0,0,0,2.5-8.29c.65-6.73,1.52-13.33,4.28-19.63a57.88,57.88,0,0,0,3.92-12.91,63.33,63.33,0,0,1,2.05-8.47,22.53,22.53,0,0,1,2.62-4.5c.38-.62.87-.73,1.48-.2a43.34,43.34,0,0,1,3.65,3.08,6.91,6.91,0,0,0,5.55,2.3C203.13,172.52,203.6,172.54,204.2,172.54Z" style="fill:#86cc4c"/><path d="M72.81,82.28c.83-.37,1.64-.77,2.48-1.11,1.32-.55,2.68-1,4-1.61,1.52-.7,1.7-1.46.55-2.63a13.39,13.39,0,0,0-2.46-1.82c-1.08-.69-2.2-1.29-3.3-1.92.41-.17.85-.52,1.24-.48a48.32,48.32,0,0,1,5.75.86c3.76.89,7.46,2,11.22,2.88a5,5,0,0,0,2.45-.21,2.47,2.47,0,0,1,2.46.36c4.19,3.33,8.43,6.6,11.7,10.91a10.06,10.06,0,0,1,.9,1.83c-2.42.77-4-1.77-6.06-1.09l-.26.39c1.1,1,2.14,2.17,3.31,3.14,3.53,2.92,7.11,5.79,10.69,8.66a5.34,5.34,0,0,0,1.06.56l-.3.62c-1.11.19-2.2.41-3.31.55-2.76.37-5.53.68-8.29,1a12.18,12.18,0,0,1-7.47-1.57c-3.81-2-7.54-4.19-11.29-6.3-.2-.12-.38-.27-.67-.48l1.31-1.44c1-1.16.92-1.8-.44-2.52-2-1.07-4-2.07-6-3.16-2.77-1.51-5.5-3.07-8.24-4.63A7,7,0,0,1,72.81,82.28Z" style="fill:#86cc4c"/><path d="M202.47,122.52c-.21.54-.4,1.08-.62,1.61-.09.22-.23.42-.33.64A25,25,0,0,1,193,135.21a45,45,0,0,0-5.59,5,10.59,10.59,0,0,0-1.89,2.87c-.64,1.31-.29,1.72,1.23,1.84s3,.3,4.5.51a15.33,15.33,0,0,1,1.89.56,10.13,10.13,0,0,1-1.35.64,12.67,12.67,0,0,1-2.1.45,9.33,9.33,0,0,0-6.33,3.67c-1.57,1.86-3.27,3.62-4.93,5.39a5.68,5.68,0,0,1-5.11,1.77c-2.48-.29-4.17-2.28-4.22-5.28a27.79,27.79,0,0,1,2.36-11.15c1.25-3,2.81-5.89,4.23-8.84q2.55-5.28,5.09-10.57c.91-1.88,1.48-2,3.46-1.18a28,28,0,0,0,5.47,2,8.91,8.91,0,0,1,3.93,1.74,5,5,0,0,0,6.67-.49c.65-.58,1.27-1.18,1.9-1.78Z" style="fill:#86cc4c"/><path d="M168.81,37.89a27.18,27.18,0,0,0,4.05,2,9,9,0,0,0,3.59.25,39.66,39.66,0,0,0,4.41-.91c.56,1.9,1,3.86,1.71,5.7a50.11,50.11,0,0,1,3.36,13.4c.08.87.32,1.72.45,2.59.19,1.3-.16,1.64-1.43,1.36-1.59-.35-3.19-.71-4.77-1.11a6.89,6.89,0,0,0-6.33,1.66,1.46,1.46,0,0,0-.38,2,18.36,18.36,0,0,0,4.28,5.25c2.48,2.3,4.84,4.73,7.28,7.07,1,1,.79,2.19.54,3.34-.22,1-1.13.86-1.88.85s-1.56.24-1.8-.73c-.77-3-2.68-5.45-4.63-7.74a35.32,35.32,0,0,0-5.16-4.76A15.44,15.44,0,0,1,167,61.31c-2.23-6-4.22-12-6.28-18.07-.45-1.31-.81-2.64-1.31-4.29.81.24,1.37.36,1.9.56C164.25,40.64,167.3,40,168.81,37.89Z" style="fill:#86cc4c"/><path d="M196.25,235.44c-4.25,1.65-8.35,3.55-12.83,4.28a21,21,0,0,1-5.2,0,4.8,4.8,0,0,1-2-1,1.7,1.7,0,0,1-.71-2.09c1.35-4.26,2.62-8.53,4-12.78,1-3.22,2.19-6.41,3.3-9.62.18-.52.37-.89,1.1-.73,3.83.88,3.45.65,5.07-2.5l.37-.68c2.43.35,4,1.92,5.31,3.76a12.41,12.41,0,0,1,1.65,3.67c.72,2.64,1.71,4.89,4.8,5.44,1,.19,1.07.91.22,1.78-1.62,1.65-3.16,3.4-4.9,4.91a2.77,2.77,0,0,0-.86,3C195.76,233.66,196,234.49,196.25,235.44Z" style="fill:#bee749"/><path d="M184.22,247.49c-1.47.86-2.91,1.76-4.41,2.56a41.63,41.63,0,0,1-4.32,2.06,14,14,0,0,1-6.21.67,32.93,32.93,0,0,1-14.58-4.87,4.14,4.14,0,0,1-.46-.37q-2.33-5.1-4.66-10.2l.24-.22c1.51.54,3.06,1,4.51,1.65a6.5,6.5,0,0,0,6.09-.12,5.26,5.26,0,0,1,2-.23c1.46-.09,2.91-.21,4.37-.22,2.18,0,4.35,0,6.52.09a1.17,1.17,0,0,1,.84.41c1.62,2.24,4.16,2.48,6.55,2.9,1.05.18,1.66.48,2,1.5C183.13,244.58,183.7,246,184.22,247.49Z" style="fill:#bee648"/><path d="M232.05,179.62c1-.49,2.08-1,3.13-1.47,2.43-1.07,4.94-5.31,4.68-8.11-.16-1.67-.5-3.31-.73-5-.2-1.46-1.47-2-2.37-2.89l.75-4.88.41,0c.5,1.53,1.09,3,1.47,4.58a4.61,4.61,0,0,0,3.12,3.48,11.16,11.16,0,0,1,6.61,5.83c1.84,3.73,2.86,3.59,7.53,3.45,1.65-.06,3.3-.34,5-.52l.17.34a8.72,8.72,0,0,1-.64.71c-2,1.88-4.46,2.54-7.07,2.92A23.19,23.19,0,0,0,242,183.63a4.55,4.55,0,0,0-.93,1.08c-.72,1.22-.44,2.07.9,2.52s2.58.73,3.87,1.08c0,.08,0,.19,0,.22-3.18,2-6.34,4-9.56,5.91a8.35,8.35,0,0,1-5.85.76c1.09-1.58,2.06-3,3.06-4.4.74-1,1.63-2,2.28-3.05.75-1.24.52-1.69-.83-2.27C232.85,184.64,231.4,181.59,232.05,179.62Z" style="fill:#bee649"/><path d="M86.93,116.65l2.83-5.57c-2.4-2.35-5.34-2.63-8.44-2.31l-2.7.47-.1-.48a46.46,46.46,0,0,1,5.13-1.2,65.55,65.55,0,0,1,7.28-.44,62.82,62.82,0,0,0,13-1.87,99.11,99.11,0,0,1,15.83-2.35c3.5-.17,7-1,10.45-1.26a36.76,36.76,0,0,1,7.24.51,2.8,2.8,0,0,1,2.22,2.93c0,.91-.87,1.85-1.49,2.67-.19.24-.91.21-1.32.09a9.07,9.07,0,0,1-2.18-1,11.93,11.93,0,0,0-10.14-1.16c-3.07.89-6.08,2.05-9.19,2.66-3.51.68-7.13.79-10.67,1.31a34.33,34.33,0,0,0-13.83,4.71C89.57,115.21,88.58,116.48,86.93,116.65Z" style="fill:#bde548"/><path d="M191,108.42a27.39,27.39,0,0,1-.52-2.82c-.24-3.07-1.12-4.36-4-5.18a8.17,8.17,0,0,1-4-2.93c-1.58-1.86-3.07-3.8-4.75-5.55A7.43,7.43,0,0,0,175,90.35c-.79-.3-1.05-.72-.82-1.42A6.85,6.85,0,0,0,173,82a4.29,4.29,0,0,1-.39-1c.72.16,1.26.23,1.76.4,1.37.45,2.7,1,4.08,1.4,1.21.34,2.51.36,3.71.75a16.49,16.49,0,0,1,3.52,1.62c1.5.92,2.9,2,4.31,3a2.25,2.25,0,0,1,.67.8A24.4,24.4,0,0,1,193,103.19c-.26,1.7-.14,3.44-1.31,4.88a2.86,2.86,0,0,0-.24.42Z" style="fill:#86cc4c"/><path d="M168.64,100a9.73,9.73,0,0,1-6.78.28,16.32,16.32,0,0,0-10.86.22,4.56,4.56,0,0,1-1.29.14,22.2,22.2,0,0,1,.88-2.32,11.29,11.29,0,0,0,1.48-6,1.44,1.44,0,0,1,.48-1.09c1.75-1.22,2.64-3,3.61-4.83a2.64,2.64,0,0,1,1.52-1.3A10.65,10.65,0,0,0,163.94,81c.34-.42.74-.81,1.26-1.37.77,3.27,1.5,6.34,2.27,9.57-.38.12-.73.25-1.09.33-1.94.45-3.88.87-5.82,1.32a2.83,2.83,0,0,0-1,.36c-.3.21-.69.55-.7.85s.45.62.77.73c1.2.43,2.46.7,3.64,1.17C166,95,167.55,97.31,168.64,100Z" style="fill:#86cc4c"/><path d="M191.17,121.73c-1.62-.52-3-.92-4.32-1.4-1.61-.56-3.16-1.26-4.79-1.74s-1.59-.47-1.48-2.07c.08-1.23-.08-2.47-.12-3.7a1,1,0,0,0-1.19-1c-2.27.16-3.66-1-4.66-2.91a11.22,11.22,0,0,0-1.13-1.84,4.89,4.89,0,0,1-.79-4.69c.2-.74.51-1,1.15-.77a19.31,19.31,0,0,1,8.06,4.5c1.69,1.64,3.49,3.07,4.54,5.33.44.92,1.82,1.47,2.85,2,1.49.83,3.13,1.41,4.58,2.31s1.48,1.52.55,3a6.93,6.93,0,0,1-1.11,1.55A20.07,20.07,0,0,1,191.17,121.73Z" style="fill:#bee649"/><path d="M217.63,198.06c-.19,2.49-.71,4.86-2.4,6.71a58.71,58.71,0,0,1-5.14,4.83,2.29,2.29,0,0,0-.8,2.44c.41,2,.35,1.89-1.45,2.85a16.64,16.64,0,0,1-7.16,1.61c-.51,0-1,.11-1.54.17-1,.14-1.53-.32-1.18-1.28a34,34,0,0,1,2.08-4.93,20.64,20.64,0,0,1,8.18-7.71c2.9-1.67,5.92-3.14,8.89-4.69A2.07,2.07,0,0,1,217.63,198.06Z" style="fill:#86cc4c"/><path d="M201.84,69.56c-2.8.73-5.14,2.34-7.52,3.86-2.55-.38-4.16-2.25-6-3.76-.92-.76-1.72-1.68-2.68-2.39a14.3,14.3,0,0,0-3.23-2c-2.1-.81-4.29-1.4-6.52-2.11a3.39,3.39,0,0,1,3.24-.67c1.6.36,3.18.77,4.77,1.14a5.1,5.1,0,0,0,5.61-2c.81-1,1.11-1,2,0,1.28,1.52,2.51,3.1,3.89,4.54A7.93,7.93,0,0,0,200.82,69C201.17,69,201.5,69.34,201.84,69.56Z" style="fill:#bde548"/><path d="M183.25,100.85a13.28,13.28,0,0,1-7.62-.45c-1.28-.4-2.66-.49-3.95-.87a3.67,3.67,0,0,1-1.63-1.1c-.68-.77-1.14-1.74-1.85-2.49-.89-.94-1.93-1.74-2.9-2.6l-1.5-1.28.08-.4c1.47-.23,2.93-.53,4.4-.69,5.35-.57,9.2,1.93,12.23,6C181.43,98.27,182.31,99.54,183.25,100.85Z" style="fill:#bde548"/><path d="M201.49,130.13a2.09,2.09,0,0,1-.08-2.47c.9-1.86,1.77-3.74,2.59-5.63a2.56,2.56,0,0,0,.14-1.29c0-.36-.22-.89-.46-1a1.34,1.34,0,0,0-1,.39c-1.09,1-2.14,2-3.21,3a3.51,3.51,0,0,1-.74.38,12.92,12.92,0,0,1,1-6.18,40.31,40.31,0,0,0,1.76-4.32c.45-1.44.69-2.94,1.07-4.65.58.42,1.19.81,1.72,1.28.94.8,1.83,1.67,2.74,2.5a2.75,2.75,0,0,1,1,2.68c-.69,3.63-1.15,7.29-2.75,10.73A13.74,13.74,0,0,1,201.49,130.13Z" style="fill:#bde548"/><path d="M156.84,117.09c4.07-1,6.74-3.89,9.56-6.66,1.52-1.49,3.22-2.79,4.83-4.18a4.84,4.84,0,0,1,.91,1.09,2,2,0,0,1,.15,1.4c-1.06,2.22-2.21,4.41-3.34,6.61-.8,1.56-1.6,1.87-3.19,1.2-.76-.33-1.48-.77-2.25-1.09-1.42-.59-2-.19-2.06,1.34,0,1.87,0,3.75,0,5.62a11.09,11.09,0,0,1-.21,1.37C159.14,123.22,156.94,119.73,156.84,117.09Z" style="fill:#86cc4c"/><path d="M195.27,211.63c-1.39-.95-1.39-.95-.51-2.28.29-.43.58-.86.86-1.29,1.16-1.75,1.07-2.21-.05-4a3.07,3.07,0,0,1-.3-2.31,33.13,33.13,0,0,1,2.26-5.14c1-1.8,2.91-2.58,4.66-3.6A154.15,154.15,0,0,1,195.27,211.63Z" style="fill:#86cc4c"/><path d="M92.73,23.3a4.83,4.83,0,0,1,.21-.93c.77-1.93,1.55-2.23,3.48-1.49a16.16,16.16,0,0,1,6.12,4.66c.26.28.11.93.15,1.4l-1.21,1.44A8.16,8.16,0,0,0,97,24.53C95.56,24.09,94.14,23.71,92.73,23.3Z" style="fill:#fda0d9"/><path d="M92.73,23.3c1.41.41,2.83.79,4.23,1.23a8.16,8.16,0,0,1,4.52,3.85L100,30.46a4.71,4.71,0,0,1-1.13-.54c-1.87-1.6-3.75-3.2-5.53-4.9C92.93,24.65,92.91,23.88,92.73,23.3Z" style="fill:#ee39b3"/><path d="M170.83,101.73c-.12,2.28-1.67,3.7-3.21,5-.76.68-1.41.31-1.61-.68-.06-.31-.13-.62-.19-.93-.42-2.2-.14-2.66,2-3.35.78-.26,1.56-.55,2.34-.82Z" style="fill:#ee39b3"/><path d="M190,86.31c-.32-.41-.93-.83-.92-1.23a17.78,17.78,0,0,0-2.34-8.55,1.55,1.55,0,0,1-.05-.23,4.69,4.69,0,0,1,3.61,4.17c-.06,1.43.11,2.86.16,4.29,0,.44,0,.87-.06,1.31Z" style="fill:#bde548"/><path d="M204.41,246c-.8,3.61-1.54,7.24-2.45,10.83a6.34,6.34,0,0,1-1.59,2.61,40.4,40.4,0,0,1-5.12,4.85,34.57,34.57,0,0,1-5.48,2.83,18.52,18.52,0,0,1-2.09.73c.06,1,.5,1.19,1.27,1.22a12.86,12.86,0,0,0,6.84-1.36,15.37,15.37,0,0,1,1.9-.73c-.08.63-.1,1.07-.18,1.5-1.45,7.54-2.94,15.08-4.34,22.63-.66,3.59-1,7.25-1.77,10.83-.8,3.82-3.45,6.06-7.08,7.21a46.14,46.14,0,0,1-6.44,1.83c-3.21.52-6.47.69-9.71,1,0-1.24-1-1.93-1.64-2.8a46.15,46.15,0,0,1-6.37-12.7c-1.57-4.37-1.74-9-2.34-13.53-.08-3.69-.17-7.39-.25-11.08.3-1-.34-1.42-1.16-1.74-2.66-1.06-5.39-2-7.95-3.27-2.33-1.16-4.47-2.7-6.7-4.07-.22-4.39-.68-8.78.11-13.21,2.82,1.26,5.43,2.53,8.11,3.61a77,77,0,0,0,7.66,2.65,36.28,36.28,0,0,0,6.77,1.29,93.89,93.89,0,0,0,10.87.29c2.8-.1,5.57-.87,8.37-1.06a22.81,22.81,0,0,0,9.91-3.23C197.3,251,200.8,248.4,204.41,246Z" style="fill:#e56a1f"/><path d="M157.82,283c.6,4.54.77,9.16,2.34,13.53a46.15,46.15,0,0,0,6.37,12.7c.66.87,1.61,1.56,1.64,2.8a21.69,21.69,0,0,1-10.47-2.83c-2.23-1.24-4.48-2.44-6.62-3.81a38.15,38.15,0,0,1-3.58-2.93,4.9,4.9,0,0,0,.24-1.11c0-1.31-.22-2.61-.2-3.92a45.1,45.1,0,0,0-1.15-9.75c-.55-2.67-.68-5.41-1-8.12s-.74-5.31-1.13-8c-.25-1.72-.53-3.42-.8-5.13l9.14,4.27a1.32,1.32,0,0,1-.14.45c-1.63,2.41-1.47,3.35.89,5.13a1,1,0,0,1,.4.54,34.2,34.2,0,0,1,.5,3.89c.08,2.56,1,3.22,3.37,2.29A.85.85,0,0,1,157.82,283Z" style="fill:#cd4d1b"/><path d="M204.41,246c-3.61,2.4-7.11,5-10.85,7.14a22.81,22.81,0,0,1-9.91,3.23c-2.8.19-5.57,1-8.37,1.06a93.89,93.89,0,0,1-10.87-.29,36.28,36.28,0,0,1-6.77-1.29A77,77,0,0,1,150,253.2c-2.68-1.08-5.29-2.35-8.11-3.61-.79,4.43-.33,8.82-.11,13.21l-7.93-7.13c.08-2.89-.21-5.8.68-8.63a2.07,2.07,0,0,0-.14-1.71c-1.12-1.14-2.41-2.12-3.64-3.16-.66-2.1-1.42-4.16-1.94-6.28a12.63,12.63,0,0,1,.3-6.7c.22,1.75.31,3.23.62,4.67.58,2.74,2.3,4.86,4.08,6.92a30.66,30.66,0,0,0,8,6.26A57.36,57.36,0,0,0,158.47,254a41.37,41.37,0,0,0,14,.94c3-.38,6.06-.29,9-.92a64.41,64.41,0,0,0,9.39-3,45.58,45.58,0,0,0,14.78-9.74,18.1,18.1,0,0,0,1.24-1.39l.29.15Z" style="fill:#cd4c1b"/><path d="M143.43,266.43c.27,1.71.55,3.41.8,5.13.39,2.65.78,5.3,1.13,8s.48,5.45,1,8.12a45.1,45.1,0,0,1,1.15,9.75c0,1.31.16,2.61.2,3.92a4.9,4.9,0,0,1-.24,1.11,13,13,0,0,1-3.77-7.45c-.65-3.83-1-7.72-1.5-11.58-.33-2.56-.75-5.11-1.09-7.67-.5-3.85-1-7.71-1.51-12Z" style="fill:#e4691e"/><path d="M157.82,283a.85.85,0,0,0-.23,0c-2.37.93-3.29.27-3.37-2.29a34.2,34.2,0,0,0-.5-3.89,1,1,0,0,0-.4-.54c-2.36-1.78-2.52-2.72-.89-5.13a1.32,1.32,0,0,0,.14-.45c1.14.4,2.27.85,3.43,1.17a5.49,5.49,0,0,0,1.57,0C157.65,275.57,157.74,279.27,157.82,283Z" style="fill:#cc4b10"/><path d="M130.73,242.17c1.23,1,2.52,2,3.64,3.16a2.07,2.07,0,0,1,.14,1.71c-.89,2.83-.6,5.74-.68,8.63a8.88,8.88,0,0,1-2.83-5.89C130.76,247.26,130.81,244.71,130.73,242.17Z" style="fill:#e4691e"/><path d="M62.58,145.7c2.28-1.45,4.59-2.87,6.82-4.39.35-.23.38-.93.56-1.42l-.39-.3a10.28,10.28,0,0,0-1.27.69,26,26,0,0,0-2.74,2.13c-1.64,1.56-3.8,1.48-5.76,2-.14,0-.35-.16-.52-.25a20.24,20.24,0,0,1-.54-2.4,12.23,12.23,0,0,1,1.63-6.6c.85-1.73.72-2.3-.73-3.44,2-1.18,4-2.4,6.06-3.52a9.9,9.9,0,0,0,3.61-3.37l.23-.29h0a2,2,0,0,0,.53-.23c1.57-1.57,3.28-3,5-4.37a17.6,17.6,0,0,1,9.7-4.11c-.85,2.23-1.4,4.63-2.63,6.62a86.35,86.35,0,0,1-6,8c-.94,1.19-2,1-2.68-.37a9.08,9.08,0,0,1-.54-2.17c-.1-.54-.14-1.09-.2-1.63l-.32-.16c-.3.38-.75.72-.89,1.15-.79,2.47-1.55,5-2.22,7.45a1.71,1.71,0,0,0,.43,1.43,1.63,1.63,0,0,0,1.39-.07c1.12-.6,2.17-1.33,3.24-2l.1.1c-1,3.86-1.83,7.75-3.71,11.3a4.74,4.74,0,0,1-.58,1c-3,3.3-3.51,7.48-4.19,11.6-2.52-.75-3-1.31-2.84-3.86a50.75,50.75,0,0,1,1-6,1.82,1.82,0,0,0-.87-2.12C63,146.06,62.79,145.87,62.58,145.7Z" style="fill:#fda2da"/><path d="M50.3,175.89c-.89,3.68-.56,7.67-2.63,11.06-.91,1.5-1.93,2.93-2.9,4.39a13.35,13.35,0,0,0-2,6.06,21.27,21.27,0,0,1-1.73,5c0,.13-.8.19-1,0a4.06,4.06,0,0,1-.86-5.37c1.3-1.78,1.59-3.86,2.11-5.9,1-3.66,2.07-7.28,3.13-10.9.34-1.14.72-2.27,1.08-3.4a17.34,17.34,0,0,0,.05,1.91c.08.59.28,1.17.42,1.76a5.25,5.25,0,0,0,1.64-.94C48.59,178.43,49.42,177.14,50.3,175.89Z" style="fill:#ee39b3"/><path d="M42.1,163.68c.51-1.87,1.17-3.72,1.5-5.63a21.53,21.53,0,0,1,5.85-11.62c1-1,2-2.14,2.93-3.21l.42.24a23.59,23.59,0,0,0-.49,3.2c0,.74-.79,1.8.59,2.19-.94,6.07-3.69,11-9,14.34A6.26,6.26,0,0,1,42.1,163.68Z" style="fill:#fda2da"/><path d="M42.1,163.68a6.26,6.26,0,0,0,1.82-.49c5.29-3.33,8-8.27,9-14.34.77-.41,1.52-.88,2.32-1.21a20.27,20.27,0,0,1,2.31-.65l.37.37a35.21,35.21,0,0,1-1.69,4.21c-1.19,2.11-2.61,4.09-3.9,6.15-1.17,1.85-2.13,3.86-3.47,5.57a43.74,43.74,0,0,1-4.44,4.49c-1.48,1.44-3,2.84-4.5,4.25a1.35,1.35,0,0,1-.29.16c-1.21-1.36-1.09-3.61.3-5.4C40.68,165.79,41.37,164.72,42.1,163.68Z" style="fill:#ee39b3"/><path d="M62.58,145.7c.21.17.4.36.62.51a1.82,1.82,0,0,1,.87,2.12,50.75,50.75,0,0,0-1,6c-.2,2.55.32,3.11,2.84,3.86-.33,2.16-.63,4.32-1,6.47-.15.86-2.73,3.05-3.59,3.1a1.67,1.67,0,0,1-1-.24c-.8-.56-1.31-3.2-.93-4.12.5-1.2.92-2.43,1.33-3.67a12.82,12.82,0,0,0,.76-2.87,5.78,5.78,0,0,0-.32-3c-1.06-2-.69-4.26-1.19-6.36-.06-.29.39-.85.74-1.06A10.9,10.9,0,0,1,62.58,145.7Z" style="fill:#ee39b3"/><path d="M50.3,175.89c-.88,1.25-1.71,2.54-2.68,3.71a5.25,5.25,0,0,1-1.64.94c-.14-.59-.34-1.17-.42-1.76a17.34,17.34,0,0,1-.05-1.91c.07-2,.11-4.06.26-6.08a2,2,0,0,1,.73-1.37c1.87-1.22,3.81-2.33,5.72-3.47a2.84,2.84,0,0,1,.57-.1C52.22,169.34,51.76,172.73,50.3,175.89Z" style="fill:#fda2da"/><path d="M84.76,115.87a17.6,17.6,0,0,0-9.7,4.11c-1.71,1.41-3.42,2.8-5,4.37a2,2,0,0,1-.53.23,20.25,20.25,0,0,1,6.33-9.08c1.83-1.41,3.61-2.88,5.44-4.29a2.71,2.71,0,0,1,1.28-.55c2.38-.28,3,.32,2.75,2.67A22.21,22.21,0,0,1,84.76,115.87Z" style="fill:#ee39b3"/><path d="M59.64,131.75c1.45,1.14,1.58,1.71.73,3.44a12.23,12.23,0,0,0-1.63,6.6,20.24,20.24,0,0,0,.54,2.4c-1.44-.08-2.35-.87-2.19-2.37a30.87,30.87,0,0,1,1.16-5c.29-1-.14-1.76-1.19-1.44a11.11,11.11,0,0,0-3.25,1.66c-1.37,1-2.58,2.24-3.89,3.34a4.39,4.39,0,0,1-1.1.49l-.24-.33c1.05-1,2.08-2.12,3.17-3.13a44.67,44.67,0,0,1,4-3.45A38.76,38.76,0,0,1,59.64,131.75Z" style="fill:#ee39b3"/><path d="M74.29,134.13l.17-.08-.07.18Z" style="fill:#fda2da"/><path d="M69.54,124.57l-.23.29Z" style="fill:#ee39b3"/><path d="M214.52,81.36a8.27,8.27,0,0,0-1.68-5.73c.06,0,.13-.12.2-.12,2.51.1,4.68-1.11,7-1.81a4.13,4.13,0,0,1,.9,0,7.88,7.88,0,0,0-.78,1.46c-.17.62-.47,1.56-.19,1.85a2.93,2.93,0,0,0,2,.61,12.2,12.2,0,0,0,3.05-.53c2.13-.65,4,.16,5.87.94-2.56,4.24-6.77,6.37-11.62,4.48A33.63,33.63,0,0,0,214.52,81.36Z" style="fill:#bde548"/><path d="M52.79,70.85a.22.22,0,0,0,.16,0l.52-.23c3.77-.81,6.64,1,9.22,3.34.93.85.85,3.68.08,5-1.05.56-2.05,1.5-3.15,1.63-3.18.36-6.38.27-9.25-1.55-1.11-.71-1.95-2.79-1.22-3.85A51,51,0,0,1,52.79,70.85Z" style="fill:#fda3db"/><path d="M52.79,70.85a51,51,0,0,0-3.64,4.29c-.73,1.06.11,3.14,1.22,3.85,2.87,1.82,6.07,1.91,9.25,1.55,1.1-.13,2.1-1.07,3.15-1.63-.45,1.82-1.16,2.46-3,2.69a30.6,30.6,0,0,1-5.43.65A17,17,0,0,1,48.57,81a4.92,4.92,0,0,1-3.23-4.39A5.12,5.12,0,0,1,48.56,72,24.36,24.36,0,0,1,52.79,70.85Z" style="fill:#ee39b3"/><path d="M53.47,70.59l-.52.23Z" style="fill:#ee39b3"/><path d="M84,9.15a13.89,13.89,0,0,1,5.84,2.2c1.59.93,2.5,4.06,1.88,6.26a21.8,21.8,0,0,1-1,2.41,5.23,5.23,0,0,0-1.88-.37c-1.91.37-3.77,1-5.68,1.35A11.14,11.14,0,0,1,79,21c-1.33-.3-2.84-.65-3.62-2.07a5.21,5.21,0,0,1,2-6.95C79.44,10.73,81.46,9.43,84,9.15Z" style="fill:#fda3db"/><path d="M84,9.15c-2.49.28-4.51,1.58-6.57,2.87a5.21,5.21,0,0,0-2,7c.78,1.42,2.29,1.77,3.62,2.07a11.14,11.14,0,0,0,4.11,0c1.91-.33,3.77-1,5.68-1.35a5.23,5.23,0,0,1,1.88.37c-.22.92-.36,1.88-.67,2.78-.75,2.14-2.79,3-5.73,2.63A12.91,12.91,0,0,1,76,21.17a10.76,10.76,0,0,1-2.5-8.91C73.72,10.42,75.38,9.5,77,9A12.6,12.6,0,0,1,84,9.15Z" style="fill:#ee39b3"/><path d="M200.32,92.15l-.92-.22A1.68,1.68,0,0,1,198,89.65a17.36,17.36,0,0,0-.12-8.94,36.3,36.3,0,0,0-2.73-5.43L197,74.15a19,19,0,0,0,2.25.73c1.91.37,3.84.62,5.75,1s3.81,1.28,4.14,3.28a8.86,8.86,0,0,1-2,7.25A41.27,41.27,0,0,1,202,90.73Z" style="fill:#ee39b3"/><path d="M200.32,92.15,202,90.73a41.27,41.27,0,0,0,5.05-4.33,8.86,8.86,0,0,0,2-7.25c-.33-2-2.2-2.91-4.14-3.28s-3.84-.62-5.75-1a19,19,0,0,1-2.25-.73,15.63,15.63,0,0,1,7.53-3,1.64,1.64,0,0,1,.92.21c2.88,1.72,5.3,3.91,6.23,7.24a12.8,12.8,0,0,1,0,3.65c-.13,4.91-3.41,7.53-7.28,9.51C203.19,92.3,201.66,92,200.32,92.15Z" style="fill:#fda0d9"/><path d="M146.78,105.36c1.59-2.24,4-2.88,6.5-3.42a13.51,13.51,0,0,1,8.22.51,7.15,7.15,0,0,1,1.64,1.45c-.09.22-.18.44-.28.66-1.47,3.26-2.71,6.66-6.36,8.3a12.92,12.92,0,0,1-4.27,1c-1,.08-1.78-.11-2.14-.87a3.42,3.42,0,0,1,0-2.1c.24-1,.78-2,1-3.06a1.87,1.87,0,0,0-2-2.42Z" style="fill:#fda2da"/><path d="M146.78,105.36h2.27a1.87,1.87,0,0,1,2,2.42c-.21,1-.75,2-1,3.06a3.42,3.42,0,0,0,0,2.1c.36.76,1.18,1,2.14.87a12.92,12.92,0,0,0,4.27-1c3.65-1.64,4.89-5,6.36-8.3.1-.22.19-.44.28-.66.15.23.43.45.43.67,0,1.36,0,2.72-.06,4.07-.09,3.11-2.17,4.66-4.66,5.79a20.89,20.89,0,0,1-8.55,2,5.67,5.67,0,0,1-5.56-6.7A22.49,22.49,0,0,1,146.78,105.36Z" style="fill:#ee39b3"/><path d="M176.32,22.07a10.06,10.06,0,0,1,10.06-.34c2,1,2.56,3,2.68,5.15a8.76,8.76,0,0,1-6.35,8.8c-.62.16-1.24.28-1.87.42A43.32,43.32,0,0,0,184,33a5.81,5.81,0,0,0,0-6.63c-2,1.62-3.9,3.24-5.87,4.82a2.74,2.74,0,0,1-1.42.71c-2.68.13-2.86-.65-3.15-3.12S174.47,23.93,176.32,22.07Z" style="fill:#fda2da"/><path d="M176.32,22.07c-1.85,1.86-3.09,4.1-2.78,6.71S174,32,176.69,31.9a2.74,2.74,0,0,0,1.42-.71c2-1.58,3.91-3.2,5.87-4.82A5.81,5.81,0,0,1,184,33a43.32,43.32,0,0,1-3.11,3.1c-2.62,1.65-7.24,1.75-9.09-.08-3-3-3.64-6.3-.9-9.93a21.69,21.69,0,0,1,4-3.5A4.86,4.86,0,0,1,176.32,22.07Z" style="fill:#ee39b3"/><path d="M238.22,172.54a8.19,8.19,0,0,1-4.89,4.75,3.27,3.27,0,0,1-3.54-1.07,2.45,2.45,0,0,1-.22-3.11,13.66,13.66,0,0,0,2-7.29,4.8,4.8,0,0,0,3.79,2.78,2.6,2.6,0,0,1,2.12,1.48A12.37,12.37,0,0,1,238.22,172.54Z" style="fill:#ee39b3"/><path d="M238.22,172.54a12.37,12.37,0,0,0-.77-2.46,2.6,2.6,0,0,0-2.12-1.48,4.8,4.8,0,0,1-3.79-2.78c0-1.7.53-2.33,2.29-2.32s3.95,1,4.18,3.43c.1,1,.39,2,.44,3A17,17,0,0,1,238.22,172.54Z" style="fill:#fda0d9"/></svg>