<svg xmlns="http://www.w3.org/2000/svg" viewBox="0 0 700 700"><title>dolores_huerta</title><circle cx="350" cy="350" r="306.75" style="fill:#e5a980;stroke:#e5a980;stroke-miterlimit:10;stroke-width:5px"/><path d="M114,524.92c-1.78-2.35-3.67-4.64-5.32-7.08-3.88-5.78-7.63-11.63-11.44-17.44a184.78,184.78,0,0,1-12.49-22.11c-3.19-6.7-6.75-13.24-9.73-20a216.21,216.21,0,0,1-15.3-50.05,9.07,9.07,0,0,0-.18-1.18c-.65-2.07,0-3.78,1-5.63,1.45-2.55,2.45-5.36,3.71-8,1.76-3.76,3.43-7.57,5.43-11.2a5.08,5.08,0,0,0-.16-5.59c-1.12-1.84-2.47-3.52-3.62-5.34-1.4-2.23-2.54-4.62-4.05-6.76-3.82-5.44-5-11.88-7-18-1.92-5.75-3.75-11.54-5.37-17.39A95.74,95.74,0,0,1,47.4,318.3c-.85-5.61-1.58-11.24-2.27-16.87a95.27,95.27,0,0,1,.2-20.81A127.23,127.23,0,0,1,50,255c2.72-8.77,5.57-17.55,10.07-25.59,6.28-11.22,12.77-22.33,19.36-33.37a110.35,110.35,0,0,1,8.1-11.59c5.38-6.85,10.79-13.7,16.56-20.22,3.81-4.29,8.32-8,12.42-12a98.75,98.75,0,0,1,20.82-15.27,47.9,47.9,0,0,0,7.17-4.75,101.38,101.38,0,0,1,22.41-13.75,219.73,219.73,0,0,1,24-9.63c4.08-1.35,8.31-1.5,12.48-2.14,2.39-.37,4.76-.56,6.68-2.26a5.49,5.49,0,0,1,1.27-.67c8.75-4.27,17.53-8.48,26.26-12.81,7.57-3.75,15-7.74,22.65-11.42,5.46-2.64,11.05-5,16.65-7.34a85.92,85.92,0,0,1,24.38-5.74,104.38,104.38,0,0,1,27.7.83c8.72,1.41,16.76,4.65,23,11.31,2.18,2.32,4.55,4.45,6.76,6.74a11.64,11.64,0,0,1,1.76,2.56c5,9.21,8.25,19.14,12.15,28.81,3.53,8.74,7,17.5,10,26.42a16.07,16.07,0,0,0,.8,1.74c1.91,3.9,1.94,3.76,6.23,4.56,8.36,1.57,16.81,2,25.27,2.42a1.93,1.93,0,0,0,.24,0,16.37,16.37,0,0,1,11,2.39c1.11.72,2.27.42,3.48.17,4.37-.93,8.73-2,13.15-2.59a129.57,129.57,0,0,1,21.3-1.05,90.8,90.8,0,0,1,13.35,1.16c5.35,1,10.2,3.16,15,5.4a19.77,19.77,0,0,1,7.08,5.62,4.71,4.71,0,0,1,.91,4.5,57.44,57.44,0,0,1-6.79,15C488.31,191.1,483,199.81,476.82,208c-7.69,10.31-15,20.91-22.47,31.39-.23.32-.46.65-.7,1q-7.33,9.48-14.65,19c-1.07,1.39-2,2.86-3.07,4.26-.82,1.12-.51,2.23-.15,3.42a164,164,0,0,0,11.63,29.34c2.51,4.8,4.92,9.61,8.2,14,2.44,3.24,4.33,6.9,6.49,10.35s4.49,7,6.69,10.52a5.73,5.73,0,0,0,3.14,2.41c1.78.66,3.46,1.57,5.18,2.39.71.34,1.39.77,2.11,1.11q10.26,4.89,20.54,9.77a14.12,14.12,0,0,1,1.75,1.18,2.22,2.22,0,0,1-2.47.11c-3.71-1.66-7.48-3.19-11.17-4.91q-14.75-6.92-29.44-14c-3.67-1.76-7.28-3.63-10.92-5.45-3.93-2-8-3.26-12.46-2.63a42.41,42.41,0,0,0-9.52,2.14c-4.65,1.85-9.13,4.18-13.59,6.49A50.45,50.45,0,0,0,397.66,341q-3.53,3.9-7,7.9a52,52,0,0,0-4.6,5.8,70.65,70.65,0,0,0-9,19.73,93.17,93.17,0,0,0-2.59,13.82c-.31,3-.42,6-.48,9.06-.12,6.07-.25,12.14,1.41,18.06,1.12,4,1.71,8.12,3.77,11.81,1.64,2.93,3,6,4.73,8.88,2.06,3.51,4.31,6.84,8,9,4.61,2.7,9,5.71,13.58,8.53,2.57,1.6,5.15,3.22,7.84,4.6,3.12,1.59,6.43,2.83,9.56,4.41s5.83,3.3,8.78,4.9q8.64,4.68,17.31,9.27a7.24,7.24,0,0,0,1.71.37c-.15-2-.3-3.71-.41-5.44-.19-2.86-.33-5.72-.54-8.58-.27-3.49-.82-7-.84-10.45a6.34,6.34,0,0,0-3.05-5.8,10.31,10.31,0,0,1-4.69-6.93c-.2-1.09-.61-2.15-.77-3.25-.54-3.8-.51-7.53,2.13-10.69a24.76,24.76,0,0,1,8.08-6.19,4.15,4.15,0,0,0,2.43-2.95c.56-2.16,1.12-4.31,1.57-6.49a88.18,88.18,0,0,1,12.19-29.45A93.66,93.66,0,0,1,480,365.15a73.44,73.44,0,0,1,20.88-15,24,24,0,0,0,2.22-1.36c2.26-.95,4.59-1.76,6.76-2.89a6.55,6.55,0,0,1,5-.84c4.09,1.05,8.22,1.91,12.36,2.77,6.09,1.25,12.17,2.64,18.31,3.6,7.5,1.17,15.05,2,22.59,2.87,2.37.29,4.77.39,7.16.56,7,.5,13.86-.85,20.76-1.64,7.86-.91,15.73-1.69,23.57-2.77,5.69-.78,11.32-1.94,17-3a20.45,20.45,0,0,0,3.27-1.2c.06.78.13,1.56.19,2.34-1.54.41-3.06.9-4.61,1.2-5.49,1.07-10.95,2.32-16.49,3-8.79,1.12-17.65,1.7-26.45,2.83a104.47,104.47,0,0,1-21.27,1c-5.42-.4-10.83-1-16.23-1.62-4.51-.55-9-1.18-13.48-2.1-8.44-1.75-16.83-3.73-25.24-5.63a9.12,9.12,0,0,0-5.63.18,97.08,97.08,0,0,0-20.12,11,79.89,79.89,0,0,0-12.1,10.87,109.61,109.61,0,0,0-13.67,18.47c-4.86,8.15-7.31,17.14-9.18,26.33-.35,1.69-.38,3.45-.56,5.14a11.77,11.77,0,0,0,1.82.73c3.68.79,5.43,3.4,6.39,6.74a23.7,23.7,0,0,1,.61,9.49c-.75,6.33-4.05,10.41-10.12,12.29a10.54,10.54,0,0,0-1.33.63c0,.5-.08,1-.09,1.45-.22,9.38.91,18.66,2.1,27.94a19.27,19.27,0,0,0,4.53,10.34c3.36,4,6.57,8.06,10,12,6,6.94,12.14,13.8,18.24,20.67,2.55,2.86,5.39,5.5,7.7,8.54,2.7,3.56,4.92,7.47,7.43,11.17,4,6,6.67,12.72,9.62,19.27,2.52,5.6,4.88,11.28,7.29,16.93,2.31,5.43,5,10.73,6.49,16.48a12.05,12.05,0,0,0,.88,1.9c-.36,1.22-.85,2.31-2.37,2.36a6,6,0,0,0,0-1.84c-1-3.13-2.07-6.23-3.11-9.34-2.18-6-4.94-11.71-7.74-17.79-1.44,1.17-2.62,2.22-3.89,3.15-5.33,3.92-10.44,8.23-16.12,11.58s-10.77,7.14-16.22,10.59a10.51,10.51,0,0,0-1.55,1.44l0,0-.7.68a11.86,11.86,0,0,0-1.32,1.94q-3.24,7.53-6.4,15.13c-2.09,5-4.14,10.14-6.2,15.21l-3.37,1.74a18.18,18.18,0,0,1,.58-1.81c4.1-9.75,8.19-19.5,12.36-29.22,1.58-3.69,3.66-7.06,7.19-9.28,4.43-2.51,8.88-5,13.29-7.56a4.56,4.56,0,0,0,1.88-1.72,26.92,26.92,0,0,0,1.6-5c1.07-4.64,1.77-9.38,3.12-13.93.87-2.94-.35-4.76-2.17-6.45-1.57-1.45-3.44-2.57-5.15-3.88-3-2.28-5.92-4.57-8.85-6.9-2.67-2.13-5.28-4.34-7.92-6.51-.8-.78-1.54-1.62-2.4-2.31q-11-8.89-22.12-17.74c-3-2.57-5.93-5.25-9-7.68-4-3.15-8.26-6.11-12.4-9.16l-1.58-1.43L424,498.25l-3.4-2.85c-2.09-1.82-4.12-3.7-6.27-5.43a35.13,35.13,0,0,0-3.82-2.34c-.74-.88-1.39-1.9-2.76-1.83l-4.14-4.3a3.59,3.59,0,0,1-1-3.93,31.45,31.45,0,0,0,1-4.18,9.74,9.74,0,0,0-2.68-9.26c-2.17-2.07-4.87-3.58-7.3-5.39-1.14-.84-2.2-1.79-3.3-2.68a6.38,6.38,0,0,0-4-3.7L380.72,457l-2.28.93c-.92.25-1.85.48-2.76.75-1.83.55-3.64,1.19-5.48,1.68-1.61.43-3.26.71-4.9,1.05-.32,0-.64,0-.95,0-5.57.57-11.17,1.1-16.74.42-5.31-.65-10.62-1.45-15.86-2.53-6.49-1.32-13-2.74-19.12-5.42-11.34-5-22.61-10.14-33.84-15.37a55.18,55.18,0,0,1-8.9-5.17c-9.81-7.09-17.65-16.21-25.44-25.33a139.74,139.74,0,0,1-20.78-33,21.51,21.51,0,0,0-5.42-7.83c-.87-.74-1.89-1.31-3.09-2.14a9.64,9.64,0,0,0-.43,1.95c.15,3.12.46,6.23.51,9.34.12,6.71.14,13.43.16,20.14,0,4.23-.1,8.47,0,12.7.19,9.43.92,18.86-.37,28.26a63.2,63.2,0,0,1-5.31,19.07,5,5,0,0,0-1.76.51c-2.29,1.86-4.51,3.82-6.76,5.74a14.53,14.53,0,0,0-2.55,1.1,29.48,29.48,0,0,0-8.34,8.78c-3.13,5-6.15,10.08-9.32,15.05-2.56,4-5.26,8-8,11.92-.93,1.37-2,2.62-3.06,3.93l-3,3.77A24.09,24.09,0,0,0,156.2,510a31.91,31.91,0,0,1-3.32,1.33c-3.59,1.3-7.25,2.43-10.77,3.9-3.89,1.64-7.64,3.61-11.47,5.39a34.76,34.76,0,0,1-10.94,3.22,4.75,4.75,0,0,0-1.26.54Zm55.41-223a31.58,31.58,0,0,0-2.72,2.95,2.06,2.06,0,0,0,1.47,3.48,11.63,11.63,0,0,0,8.68-2.47,1.26,1.26,0,0,0,.09-2.19c-.3-.26-.62-.49-.93-.73l-4.48-3.27Zm-8.57,21.23-3.75-.59a14.93,14.93,0,0,0,1.08,2.11c2.85,3.63,5.69,7.26,8.62,10.81,1.74,2.09,3.87,1.9,6-.35-.31-.7-.57-1.43-.92-2.11-1.47-2.89-3.06-5.73-4.44-8.66-1.18-2.51-1.59-2.87-4.27-2.23A14.76,14.76,0,0,0,160.88,323.16Zm179.26,38.35c-3.76,2.08-7.54,4.13-11.28,6.26a8.23,8.23,0,0,0-4,5.27,11.18,11.18,0,0,0,1.17-.28c4.67-1.62,9.33-3.28,14-4.86a21.74,21.74,0,0,1,4.39-1.11,97.91,97.91,0,0,1,11.19-.9c2.57,0,4.08-.86,4.81-3.24.07-.22.11-.46.16-.69.69-1.25,1.41-2.48,2.06-3.75s1.25-2.64,1.9-4a9.15,9.15,0,0,0-7.69-.56c-3.12,1.17-6.3,2.21-9.31,3.62C345,358.43,342.6,360.07,340.14,361.51Zm8.9,42.31a57.24,57.24,0,0,0,13.72,5.38,3.63,3.63,0,0,0,3.67-1.05,22,22,0,0,0,1.93-2.74,9.74,9.74,0,0,0-1.21-.75c-4.4-1.7-7.58-4.57-9-9.2a2.21,2.21,0,0,0-1.27-1.2c-2.1-.73-4.24-1.32-6.36-2a24.76,24.76,0,0,0-9-3c-3.46-.49-6.89-1.16-10.34-1.74-1-.16-2-.26-3.35-.44a10.47,10.47,0,0,0,1,1.48c3.14,3.17,6.15,6.47,9.82,9.05C341.94,400,345.14,402.47,349,403.82ZM490.71,168.13a21.67,21.67,0,0,0,7.27-3.31,15.41,15.41,0,0,0-6.64-6.12c-1.74-.8-3.37-1.85-5.14-2.57a34.08,34.08,0,0,0-6.1-2,117.78,117.78,0,0,0-21.21-2c-6.51-.07-12.92.85-19.34,1.67a18.56,18.56,0,0,0-7.61,2.62,36.48,36.48,0,0,0,9.18,4l.56.26.95.17c2.28.92,4.52,1.94,6.83,2.75,10,3.5,20.13,6.21,30.83,6.05,2.85-.05,5.74.12,8.44-1.1l1.43-.22ZM325,387.4l0,0c-1.53-2.32-3.1-4.62-4.59-7a5,5,0,0,1,0-6c1.83-2.5,3.71-5,5.56-7.43,1.66-1.1,3.29-2.24,5-3.28,3-1.83,6.05-3.51,9-5.4a58.46,58.46,0,0,1,14.9-6.89,13.86,13.86,0,0,1,9.38.19,2.48,2.48,0,0,0,3.14-.8c1.77-1.93,3.63-3.78,5.45-5.66a55.4,55.4,0,0,1,11.09-6.4c2.85-1.32,5.78-2.12,8.92-1.2.29-3.72-1.83-11.41-3.78-13.57a13,13,0,0,1-5.52,5.79l-1.69-.57c1.28-1.15,2.22-2.07,3.24-2.91,2.5-2.05,3.69-4.56,3-7.81a9.66,9.66,0,0,1-.19-1.18,5.79,5.79,0,0,0-4.09-5.38,3.81,3.81,0,0,1-3-3.76l.27-2.63a6.23,6.23,0,0,1,1.63.89c1.31,1.5,2.55,3.06,3.81,4.6a11.82,11.82,0,0,1,2.95,6.43,6.7,6.7,0,0,0,.94,2.94c2.64,3.95,3.76,8.42,4.78,12.95.31,1.37.84,2.69,1.4,4.46l5.73-4.91a4.77,4.77,0,0,0,.63-.34c6.5-4.54,13.16-8.76,20.89-11a2.46,2.46,0,0,0,1.88-2.24,8.48,8.48,0,0,1,.24-1.41,40.15,40.15,0,0,0,.49-19,125.6,125.6,0,0,0-6.93-21.61c-2.15-5.39-3.78-10.85-3.5-16.74.12-2.48.12-5,.18-7.43a38.72,38.72,0,0,0-1.08-11.65,44.2,44.2,0,0,0-1.7-4.68c-2-4-4.24-7.88-6.1-11.94a53.81,53.81,0,0,1-3.07-8.76c-1.42-5.5-2.85-11-5.57-16a18.12,18.12,0,0,0-6.91-7.43c-4.21-2.46-8.27-5.15-12.4-7.75-4.36-2.74-9.18-4.46-13.95-6.28a6.28,6.28,0,0,0-1.87-.37c-3.91-.19-7.82-.47-11.73-.48-4.39,0-8.79.11-13.17.39a99.32,99.32,0,0,0-10.46,1.18,97.72,97.72,0,0,0-26.89,9.1c-11,5.41-22,10.59-32.37,17.15a29.66,29.66,0,0,1-4.29,2.62,32.59,32.59,0,0,0-7.84,4.89c-5.73,4.6-9.65,10.56-13.49,16.64-.73,1.05-1.47,2.08-2.17,3.14-3.06,4.58-5.6,9.56-9.72,13.33a58,58,0,0,0-9.71,12.43,43.77,43.77,0,0,0-4.24,8A53.93,53.93,0,0,0,215.08,277a141.85,141.85,0,0,0-2,21,17.17,17.17,0,0,1-.19,2.15A75.58,75.58,0,0,0,213,319c.5,4,1,7.94,1.19,11.92.27,5.82.29,11.66.34,17.48a17.35,17.35,0,0,0,2.19,8.49,30,30,0,0,1,1.49,2.72q3.92,9.15,8.62,17.92a175.7,175.7,0,0,0,12.73,20.29,206.52,206.52,0,0,0,17.67,20.53c3,3.12,5.83,6.47,9.23,9.06a102.79,102.79,0,0,0,24.34,14.26c1.25.5,2.43,1.2,3.66,1.77,3.91,1.81,7.79,3.71,11.77,5.35,3.77,1.55,7.63,2.86,11.47,4.22s7.51,2.75,11.34,3.85a61.1,61.1,0,0,0,7.3,1.23,2.33,2.33,0,0,0,.65.28,107.65,107.65,0,0,0,22.47,1c3.65-.25,7.36-.37,10.77-2,3.06-1.11,6.16-2.11,9.16-3.36,4.13-1.71,6.7-5.11,8.91-8.43l-6.13-7.84c-.32-.63-.62-1.27-.95-1.9q-3.61-6.94-7.24-13.89a21.27,21.27,0,0,0-2.72-7.54,46.65,46.65,0,0,1-6.48-.89c-2.91-.8-5.72-1.94-8.55-3-2.29-.88-4.54-1.89-6.81-2.85-.9-.65-1.8-1.31-2.71-1.94-6.4-4.36-12.79-8.7-17.87-14.68a41.83,41.83,0,0,0-3.27-3.11ZM252.49,110.53l.54.18,1,.19c2.18.74,4.4,1.39,6.53,2.24a112.25,112.25,0,0,1,23,12.73,16.3,16.3,0,0,1,2.35,2c3.28,3.49,6.55,7,9.76,10.56a22.31,22.31,0,0,1,1.88,3l-1.74.33a73.1,73.1,0,0,0-14.94-13.42c-.46-.32-.89-.68-1.32-1a50.67,50.67,0,0,0-13.72-8.23c-5.93-2.36-11.92-4.57-17.92-6.75s-12.13-2.89-18.28-3.71a95.36,95.36,0,0,0-14.35-.48,86.09,86.09,0,0,0-11.22,1c-3.47.5-6.88,1.41-10.31,2.12-1.72.36-3.48.56-5.17,1a108.6,108.6,0,0,0-26.31,11.92c-9.84,6-19.41,12.38-28.93,18.84-6.87,4.66-13.7,9.46-19.4,15.6-5.44,5.87-11,11.61-16.08,17.8a256.13,256.13,0,0,0-16,21.51c-5.17,7.87-9.72,16.16-14.26,24.42C57.28,241,50.09,260.59,47.87,281.81c-.7,6.74-1.16,13.51-.22,20.33,1.14,8.24,2.21,16.5,4.35,24.52,1.93,7.24,4.48,14.32,6.8,21.46,1.06,3.25,2.12,6.52,3.37,9.7s2.52,6.47,4.81,9.28,3.8,5.8,5.9,9.1l4.93-10.85a30.22,30.22,0,0,0,1.6-2.89,171.65,171.65,0,0,1,14-25.61c2.81-4.36,5.59-8.77,8-13.37a161.68,161.68,0,0,1,11.64-19.27c.67-.94,1.74-1.6,2.39-2.55,2.81-4.08,5.47-8.26,8.3-12.33,2.14-3.08,4.3-6.17,6.72-9,3.57-4.2,7.38-8.2,11.1-12.26,2.43-2.66,4.82-5.35,7.33-7.92A162,162,0,0,1,174.34,239c3.72-2.49,7.55-4.81,11.33-7.2.47-.3,1-.55,1.43-.88,4.92-3.55,9.67-7.35,15.34-9.73a14.5,14.5,0,0,0,2.28-1.32,100.8,100.8,0,0,1,15.81-8.46c4.76-2,9.31-4.6,14-6.73,13.33-6,26.7-11.88,41-15.42,11.31-2.8,22.3-6.79,33.78-9.05a218.94,218.94,0,0,1,36.59-4.49,109.52,109.52,0,0,1,15.8.41c7.6.9,15.12,2.51,22.69,3.69a33,33,0,0,1,10.68,3.4c4.43,2.39,8.73,5,13.13,7.44a19.27,19.27,0,0,1,6.13,5.29c1.39,1.84,2.63,3.81,4,5.69a9.54,9.54,0,0,1,1.68,4.68c.22,2.14.34,4.3.69,6.43a157,157,0,0,0,5.41,22.82c.53,1.65,1.1,3.3,1.65,4.95a1.93,1.93,0,0,0,0,.48q2.94,10,5.92,20a6.07,6.07,0,0,0,.91,1.34c.88-1.1,1.65-2,2.36-2.94q9-12,18-24c1.39-1.86,2.6-3.84,3.89-5.77,1.86-2.79,3.63-5.65,5.6-8.37q5.42-7.47,11-14.82c5.72-7.51,11.32-15.11,15.9-23.38,2.08-3.77,3.8-7.74,5.59-11.66.46-1,1.09-2.15.23-3.52-1,.36-2,.71-2.93,1a44.61,44.61,0,0,1-4.53,1.52c-7.71,1.81-15.42,1.17-23.07-.35a159.17,159.17,0,0,1-20.5-5.76A140.76,140.76,0,0,1,423.89,155a10.75,10.75,0,0,0-5.75-1.3,146.33,146.33,0,0,1-23.2-1.32c-5.71-.69-11.39-1.66-17.07-2.54-8.92-1.38-17.84-2.76-26.76-4.2-5.83-.94-11.62-2.22-17.49-2.92-7.61-.91-15.27-1.39-22.91-2.06a11.42,11.42,0,0,0-6.49,1.34c-7.16,3.85-14.3,7.76-21.45,11.65-.94.42-1.89.81-2.8,1.27-5.53,2.8-11,5.69-16.58,8.38a46,46,0,0,1-6.05,2c-.85-1.18.14-1.55.89-1.94,4.55-2.29,9.07-4.67,13.69-6.82,9.12-4.23,18.05-8.79,26.7-13.9a35.63,35.63,0,0,0,4.06-2c3.65-2.38,7.6-2.6,11.76-2,2.77.38,5.58.48,8.36.74,7.32.68,14.67,1,21.87,2.71,3,.71,6.12,1.05,9.18,1.56A6.05,6.05,0,0,0,355,144q11.57,2,23.15,3.89c1.62.27,3.27.4,5.4.65-.58-1.09-1-1.75-1.3-2.44-1.92-3.95-4.11-7.79-5.66-11.88-3-7.83-5.63-15.78-8.34-23.71a108.1,108.1,0,0,0-7.76-17.75,34.53,34.53,0,0,0-8.82-10.63c-2.89-2.27-5.75-4.58-8.66-6.84a12.47,12.47,0,0,0-2.41-1.54,55.47,55.47,0,0,0-23.62-5.44c-6.06,0-12.13.6-18.19.84a54.89,54.89,0,0,0-14.56,2.66,206.58,206.58,0,0,0-19.62,7.61c-5.18,2.27-10.1,5.11-15.14,7.7-1.56.8-3.15,1.54-4.69,2.38-4.54,2.5-9,5.1-13.61,7.53s-9.53,4.85-14.29,7.28a13,13,0,0,0-1.46,1,3.92,3.92,0,0,0,2.14.41,98.06,98.06,0,0,1,25,2.34C245.86,108.77,249.17,109.7,252.49,110.53ZM446,478.54c-1.76,2.14-3.35,4-4.88,6a10.23,10.23,0,0,1-5.95,3.78c-2.95.66-6,1.13-8.87,1.95s-4.89-.37-6.53-2.66q-2.65-3.7-5.49-7.28a18.77,18.77,0,0,1-3.8-14.62c.19-1.51.45-3,.54-4.52s0-1.56-2.2-2c-.57,1.94-1.27,3.88-1.71,5.88-.78,3.59-1.2,7.26-2.15,10.79-.63,2.36,0,3.72,1.85,5.09,3.36,2.58,6.62,5.29,9.87,8s6.35,5.61,9.68,8.22c5.59,4.39,11.33,8.6,17,12.93,4.69,3.59,9.46,7.11,14,10.89,8.1,6.76,15.47,14.36,24,20.67,5.31,4,10.48,8.12,15.73,12.17.59.46,1.27.79,2.13,1.32.75-3.23,1.5-6.09,2-9a3.93,3.93,0,0,0-.52-2.71c-3.51-5.15-6.88-10.42-10.78-15.26-5-6.22-10.46-12.09-15.76-18.07-5.62-6.34-11.31-12.61-16.92-19a22.31,22.31,0,0,1-4.68-7.47,4.36,4.36,0,0,0-1.39-2.15C449.52,480.37,447.73,479.5,446,478.54ZM370.47,403c.4-6,.54-11.66,1.24-17.28.6-4.81,1.24-9.77,2.93-14.26,3.16-8.45,7-16.64,13.09-23.55,1.68-1.92,3.34-3.88,5-5.83.54-.63,1-1.3,1.58-2-2.28-1.24-3.61-1.5-5.48-.89a27.45,27.45,0,0,0-4.19,1.75A62.2,62.2,0,0,0,371.7,350a32.67,32.67,0,0,0-4.91,5.53,44,44,0,0,0-7.62,21.67,39,39,0,0,0,3.59,20.27A9.22,9.22,0,0,0,370.47,403Zm-167.84-61.7-.81-.08a9.31,9.31,0,0,1-.49-4.12c.28-3-1.4-4.52-3.9-5.55a2.48,2.48,0,0,0-3,.6c-1.74,1.63-3.61,3.12-5.42,4.69-.62.55-1.2,1.14-1.71,1.64.54,1,2.17.83,1.69,2.47-1.23,0-2.49.07-3.74,0a5.21,5.21,0,0,0-3.18.76c-1.35.81-2.84,1.38-4.28,2.06l-2,1a19,19,0,0,0,1.84,2c3.6,2.91,7.15,5.89,10.89,8.61A14.07,14.07,0,0,0,199,357.8c3.71-.52,7.44-1,11.13-1.68a22.15,22.15,0,0,0,3.76-1.4c-4.35-6.49-5.87-13.87-9.62-20.41Zm209.93,120.1c-.25,1.76-.51,3.4-.71,5.05a17.49,17.49,0,0,0,3.22,12.89c1.84,2.51,3.81,4.92,5.6,7.47a4,4,0,0,0,4.28,1.95C429,487.9,433,487,437,486a5.27,5.27,0,0,0,2.34-1.59c1.46-1.58,2.81-3.27,4.15-4.95a9.86,9.86,0,0,0,.82-1.71l-5.68-3.05c-.62.83-1,1.43-1.48,2a8.87,8.87,0,0,1-12.43,1.47c-3.1-2.41-2.94-6,.38-8.1.69-.44,1.41-.85,2.2-1.33C423.36,465.9,414.64,461.54,412.56,461.39ZM496,579.06a6.64,6.64,0,0,0,1.43-.47c2.39-1.72,4.83-3.38,7.12-5.23,2.1-1.7,4.07-3.57,6-5.45.86-.83,1.52-1.78.84-3.18-2.48-5.17-4.87-10.39-7.32-15.59a14.46,14.46,0,0,0-1.15-1.6c-3.7,9.53-4.32,19.39-6.91,28.76A11.31,11.31,0,0,0,496,579.06ZM167.19,312.11a1.43,1.43,0,0,0-.15.44,4.39,4.39,0,0,0,0,1c1.47,6.63,3.84,12.83,8.57,17.9,1.49,1.61,2.11,1.67,3.91.52.34-.21.64-.48,1-.69a2.65,2.65,0,0,0,1.19-3.44c-1.28-4.35-2.33-8.78-3.47-13.17-.2-.78-.28-1.59-.54-2.33-.14-.4-.52-1-.84-1C173.6,310.92,170.24,309.78,167.19,312.11Zm277.4,114.11.29.53a11.74,11.74,0,0,1,1.66-.75,41.52,41.52,0,0,1,4.4-1.08,4.48,4.48,0,0,1,4.52,2.08c2.18,2.87,2.33,6,1.38,9.32a8.28,8.28,0,0,1-4.43,5.37,8.69,8.69,0,0,1-7.66.59c1.1,2.83,3.18,4.64,5.21,4.55,5-.23,8.53-2.85,10.82-7.15,2.1-3.92,1.23-8,.71-12.18-.37-3-5.79-6.73-8.81-6A17.27,17.27,0,0,0,444.59,426.22Zm11.35,6.38c-.41-1.35-.73-2.74-1.26-4a3,3,0,0,0-2.39-1.79,7.61,7.61,0,0,0-9.14,8.42c.3,2.26,1.18,4.44,3.43,5.41s5.82-.2,7.29-2.34A10.5,10.5,0,0,0,455.94,432.6ZM192.27,313.79c-.73-.22-1-.41-1.16-.34-2.41,1-4.82,2-7.17,3.13a2.61,2.61,0,0,0-1.16,1.47,11.74,11.74,0,0,0,.82,10.09c.06.1.28.11.77.28,1-1,2.44-1.95,3.09-3.28C189.22,321.51,190.64,317.71,192.27,313.79Zm162.48,53.67-7.64.3a7.45,7.45,0,0,0-.95.07,20.55,20.55,0,0,0-2.34.45c-1.08.32-1.34,1-.78,2a2.56,2.56,0,0,0,.91,1.08,36,36,0,0,0,5.56,2.61c1.85.58,3.4-.47,4.58-1.9A3.82,3.82,0,0,0,354.75,367.46Zm81.8,107.19c-3.38-3.58-6.61-3.12-10.76-1.73-1.67.55-1.89,1.83-.65,3.13a6.36,6.36,0,0,0,4.37,2.17C432.5,478.33,434.61,476.85,436.55,474.65Zm-253-137.08c5.15-2.41,8-4.53,9-6.62a7.57,7.57,0,0,0-4.8,1,3.15,3.15,0,0,1-3.55-.14,5.38,5.38,0,0,0-1.2-.49l-3.72,3.07Zm-17.46-17.15-4.1-9c-1.08,2.15-2.05,3.88-2.82,5.69a2.91,2.91,0,0,0,2.63,3.85C163.07,321,164.31,320.67,166.12,320.42Zm24.18,4.73c2.06.41,3.53.66,5,1,1.28.3,1.74-.37,2-1.45.28-1.33.54-2.66.91-4a1.94,1.94,0,0,0-1.12-2.63ZM348,389.22l.13.64c3,.95,5.68,2.84,9.08,2.84a22.38,22.38,0,0,0,0-2.87c-.2-1.49-.64-1.9-2.2-1.88a37.39,37.39,0,0,0-5,.38A8.65,8.65,0,0,0,348,389.22ZM179.86,339.69c-4-3.25-5.7-3.36-9.23-.52,1,2,1.43,2.5,2.85,2.22C175.48,341,177.43,340.35,179.86,339.69ZM341.09,369.2c-3.15.49-5.19,1.39-6.29,2.86a26.78,26.78,0,0,0,4.13.42C341.05,372.4,341.49,371.66,341.09,369.2Z" style="fill:#3a1f05"/><path d="M503.11,348.78a24,24,0,0,1-2.22,1.36,73.44,73.44,0,0,0-20.88,15,93.66,93.66,0,0,0-13.17,15.77,88.18,88.18,0,0,0-12.19,29.45c-.45,2.18-1,4.33-1.57,6.49a4.15,4.15,0,0,1-2.43,2.95,24.76,24.76,0,0,0-8.08,6.19c-2.64,3.16-2.67,6.89-2.13,10.69.16,1.1.57,2.16.77,3.25a10.31,10.31,0,0,0,4.69,6.93,6.34,6.34,0,0,1,3.05,5.8c0,3.48.57,7,.84,10.45.21,2.86.35,5.72.54,8.58.11,1.73.26,3.45.41,5.44a7.24,7.24,0,0,1-1.71-.37q-8.67-4.61-17.31-9.27c-3-1.6-5.79-3.39-8.78-4.9s-6.44-2.82-9.56-4.41c-2.69-1.38-5.27-3-7.84-4.6-4.54-2.82-9-5.83-13.58-8.53-3.7-2.16-5.95-5.49-8-9-1.69-2.89-3.09-5.95-4.73-8.88-2.06-3.69-2.65-7.83-3.77-11.81-1.66-5.92-1.53-12-1.41-18.06.06-3,.17-6.05.48-9.06a93.17,93.17,0,0,1,2.59-13.82,70.65,70.65,0,0,1,9-19.73,52,52,0,0,1,4.6-5.8q3.42-4,7-7.9a50.45,50.45,0,0,1,14.28-11.12c4.46-2.31,8.94-4.64,13.59-6.49a42.41,42.41,0,0,1,9.52-2.14c4.42-.63,8.53.67,12.46,2.63,3.64,1.82,7.25,3.69,10.92,5.45q14.7,7,29.44,14c3.69,1.72,7.46,3.25,11.17,4.91a2.22,2.22,0,0,0,2.47-.11Z" style="fill:#4f5902"/><path d="M524.17,598.17c1.52,0,2-1.14,2.37-2.36a5.91,5.91,0,0,0,1.57-.52c2-1.42,4.09-2.78,5.95-4.38,3.1-2.65,6-5.48,9.07-8.19,4.7-4.2,9.52-8.27,14.14-12.56a144,144,0,0,0,15.21-16.59c2.72-3.44,5.5-6.84,8.19-10.31,2.44-3.16,5-6.24,7.17-9.59,5.7-8.86,11.16-17.88,16.8-26.78a124.92,124.92,0,0,0,9-16.37c2.36-5.33,5-10.52,7.15-15.95,3.17-8.18,6.2-16.42,8.83-24.79,2.15-6.83,3.47-13.92,5.42-20.82a146.21,146.21,0,0,0,5.34-33.68c.2-4.46.32-8.92.58-13.38.17-2.78.59-5.54.79-8.32a97.28,97.28,0,0,0,.52-9.79c-.11-4.21-.57-8.42-.94-12.63-.08-1,0-2.16-1.25-2.59-.06-.78-.13-1.56-.19-2.34,1.34-1.64,1.34-1.64,5-1.94a21.23,21.23,0,0,1,.26,2.25c0,7.12.25,14.25,0,21.35-.35,9-1,18-1.74,27-.57,7.08-1.35,14.15-2.14,21.21-.81,7.23-2.58,14.29-4.19,21.37q-3.39,14.83-8.15,29.29a141,141,0,0,1-15.58,33.09,103.86,103.86,0,0,0-6.39,11.79c-2.71,5.68-6.47,10.65-10,15.77-4.19,6.05-8.51,12-12.7,18a106.57,106.57,0,0,1-13.36,16.29c-4.72,4.55-9.3,9.25-14.13,13.68-7.12,6.54-14.39,12.92-21.64,19.32-3.7,3.27-7.49,6.45-11.26,9.65a16.88,16.88,0,0,1-1.82,1.14l-2.77,1.81c-.47.3-.91.77-1.42.85-2.79.47-4.9,2.27-7.24,3.6-11.9,6.74-23.92,13.18-37,17.42-10.48,3.4-20.82,7.22-31.33,10.47a175.75,175.75,0,0,1-17.48,4c-5.79,1.16-11.6,2.23-17.45,3-4.34.58-8.75.62-13.13.87-4.94.28-9.88.62-14.83.77-4.71.13-9.43.1-14.15,0-5.59-.07-11.18-.25-16.77-.38-4.64-.1-9.27-.24-13.9-.3-1.75,0-3.51.23-5.26.19-2.79-.06-5.59-.15-8.36-.43-5.08-.51-10.17-1-15.21-1.83-3.78-.59-7.47-1.7-11.23-2.36a174.83,174.83,0,0,1-17.54-3.76A326.88,326.88,0,0,1,236.35,625a131.69,131.69,0,0,1-19-10.15c-8.93-5.76-18.38-10.7-26.86-17.15-5.09-3.88-10-8-15.22-11.68a150.16,150.16,0,0,1-15.75-12.91c-1.68-1.6-3.21-3.36-4.91-4.93-2.63-2.44-5.41-4.72-8-7.2-3.06-2.93-6-5.94-9-9-2.43-2.55-4.63-5.3-7.09-7.81a180.62,180.62,0,0,1-14.25-16.51c-.72-.94-1.51-1.84-2.26-2.75l4.4-.56c.46.64.87,1.31,1.37,1.92,1,1.16,2,2.27,2.93,3.44a110.94,110.94,0,0,0,11.75,13.14c1.83,1.65,3.52,3.45,5.27,5.19l8.45,8.42c1.84,2.1,3.6,4.27,5.54,6.27a124,124,0,0,0,9.41,9.22c5.15,4.29,10.59,8.23,15.92,12.31,2.66,2,5.23,4.23,8,6.06,10,6.58,20.1,13,30.17,19.55a83.37,83.37,0,0,0,7.12,4.42c6.48,3.3,13,6.51,19.59,9.57a140.73,140.73,0,0,0,24.21,9c8.49,2.2,17.05,4.11,25.61,6,6,1.33,12,2.55,18.07,3.55,3.52.58,7.17.45,10.71,1,7.54,1.1,15.15,1,22.71,1.12,11.66.25,23.33-.11,35-.21,4.31,0,8.64,0,12.95-.18,3.18-.13,6.34-.57,9.52-.87,1,0,2.07,0,3.09-.17,6.06-.88,12.14-1.63,18.15-2.77,5.62-1.07,11.15-2.55,16.72-3.86,4.88-1.44,9.77-2.86,14.62-4.37a9.54,9.54,0,0,0,2.18-1.41L460.9,629a.87.87,0,0,0,1.18.82,11.23,11.23,0,0,0,2-.64c5.93-2.53,11.86-5,17.75-7.66,3.57-1.58,7.05-3.38,10.6-5,5.07-2.31,10.4-4.06,15.09-7.14C513.14,605.69,518.63,601.9,524.17,598.17Z" style="fill:#e29867"/><path d="M640,348.57c1.29.43,1.17,1.61,1.25,2.59.37,4.21.83,8.42.94,12.63a97.28,97.28,0,0,1-.52,9.79c-.2,2.78-.62,5.54-.79,8.32-.26,4.46-.38,8.92-.58,13.38A146.21,146.21,0,0,1,635,429c-2,6.9-3.27,14-5.42,20.82-2.63,8.37-5.66,16.61-8.83,24.79-2.1,5.43-4.79,10.62-7.15,15.95a124.92,124.92,0,0,1-9,16.37c-5.64,8.9-11.1,17.92-16.8,26.78-2.16,3.35-4.73,6.43-7.17,9.59-2.69,3.47-5.47,6.87-8.19,10.31a144,144,0,0,1-15.21,16.59c-4.62,4.29-9.44,8.36-14.14,12.56-3,2.71-6,5.54-9.07,8.19-1.86,1.6-3.93,3-5.95,4.38a5.91,5.91,0,0,1-1.57.52,12.05,12.05,0,0,1-.88-1.9c-1.52-5.75-4.18-11-6.49-16.48-2.41-5.65-4.77-11.33-7.29-16.93-2.95-6.55-5.58-13.26-9.62-19.27-2.51-3.7-4.73-7.61-7.43-11.17-2.31-3-5.15-5.68-7.7-8.54-6.1-6.87-12.22-13.73-18.24-20.67-3.4-3.92-6.61-8-10-12a19.27,19.27,0,0,1-4.53-10.34c-1.19-9.28-2.32-18.56-2.1-27.94,0-.47.06-.95.09-1.45a10.54,10.54,0,0,1,1.33-.63c6.07-1.88,9.37-6,10.12-12.29a23.7,23.7,0,0,0-.61-9.49c-1-3.34-2.71-6-6.39-6.74a11.77,11.77,0,0,1-1.82-.73c.18-1.69.21-3.45.56-5.14,1.87-9.19,4.32-18.18,9.18-26.33a109.61,109.61,0,0,1,13.67-18.47,79.89,79.89,0,0,1,12.1-10.87,97.08,97.08,0,0,1,20.12-11,9.12,9.12,0,0,1,5.63-.18c8.41,1.9,16.8,3.88,25.24,5.63,4.45.92,9,1.55,13.48,2.1,5.4.66,10.81,1.22,16.23,1.62a104.47,104.47,0,0,0,21.27-1c8.8-1.13,17.66-1.71,26.45-2.83,5.54-.71,11-2,16.49-3C637,349.47,638.5,349,640,348.57Z" style="fill:#fae7c1"/><path d="M402.77,643.29c-3.18.3-6.34.74-9.52.87-4.31.18-8.64.14-12.95.18-11.67.1-23.34.46-35,.21-7.56-.16-15.17,0-22.71-1.12-3.54-.52-7.19-.39-10.71-1-6.06-1-12.08-2.22-18.07-3.55-8.56-1.9-17.12-3.81-25.61-6a140.73,140.73,0,0,1-24.21-9c-6.59-3.06-13.11-6.27-19.59-9.57a83.37,83.37,0,0,1-7.12-4.42c-10.07-6.5-20.16-13-30.17-19.55-2.8-1.83-5.37-4-8-6.06-5.33-4.08-10.77-8-15.92-12.31a124,124,0,0,1-9.41-9.22c-1.94-2-3.7-4.17-5.54-6.27,1.44.43,2.91.78,4.32,1.31,2.6,1,5.16,2.1,7.75,3.12,1.92.76,3.83,1.57,5.8,2.15a30.48,30.48,0,0,0,6.48,1.45c3.42.24,6.86.1,10.3.06a22.29,22.29,0,0,0,8.49-2.13,3.43,3.43,0,0,0,2.11-3,35.82,35.82,0,0,0-.23-5.95c-.67-5-1.69-10-1.68-15.14s.42-10-.39-15.05c-.53-3.31-1.42-6.34-4.06-8.64a8.14,8.14,0,0,1-1.26-1.93c1.94.91,3.93,1.74,5.81,2.77,5,2.74,10,5.59,15.06,8.36,1.81,1,3.68,1.87,5.53,2.8,2.06,3.44,3.15,7.47,6.19,10.33a5.63,5.63,0,0,1,.89,1.41,40.9,40.9,0,0,0,7.5,9.86,28.79,28.79,0,0,1,2.3,3,32.67,32.67,0,0,0,3.4,4c3.13,2.81,4.92,6.82,8.47,9.22,0,0,.06.15.11.21a31,31,0,0,0,6.87,6.25c4,2.38,8,4.7,11.72,7.41,3.57,2.59,7.56,4.41,11.29,6.68a10.85,10.85,0,0,0,2.56.76,12,12,0,0,0,0-2.21c-1.3-5.9-2.65-11.78-3.95-17.68-.83-3.72-1.93-7.44.09-11.16a6.55,6.55,0,0,0,.25-1.64c.77-3.48,2.44-4.77,6-4.85a33.18,33.18,0,0,1,13.28,2.49,8.33,8.33,0,0,0,1.13.38c4,1,8,2,12,3.1,1.39.37,2.73.9,4.12,1.25,3.47.87,7.06,1,10.58,1.59a10.34,10.34,0,0,0,7.5-1.36c2-1.26,4.33-2.26,5.62-4.36a37.1,37.1,0,0,1,8.8-9.68c.27-.22.34-.69.5-1,4.85-.82,9.73-1.54,14.55-2.5,3.58-.72,7.11-1.66,10.61-2.69,5.43-1.59,10.73-3.71,16.23-4.95a54.76,54.76,0,0,0,22.07-11c5.24-4.15,10.15-8.72,15.19-13.12,1.74-1.52,3.38-3.16,5.15-4.64a16.38,16.38,0,0,1,2.65-1.51l1.58,1.43c-1.34,1.12-3,2-3.94,3.38-3,4.49-7.21,7.85-11,11.57-2.32,2.28-5.09,4.08-7.51,6.26a25.76,25.76,0,0,0-5.06,5.39c-2.52,4.14-5.47,8-7.46,12.5-1.79,4.07-4.3,7.81-5.15,12.28a2.52,2.52,0,0,1-.47.82c-.94,1.38-1.87,2.77-2.86,4.12-2,2.71-4,5.3-7.26,6.76-3,1.34-5.8,3-8.68,4.53C363,572,359,576.09,355.17,580.39c-1.59,1.81-2.46,4.27-3.53,6.49a5.52,5.52,0,0,0,0,2.09,12.44,12.44,0,0,0,2.15,0c2.89-.54,5.76-1.16,8.64-1.72,1.25-.24,2.51-.45,3.77-.57a59.24,59.24,0,0,0,15-3.48c3.93-1.47,7.93-2.69,11.42-5.3s6.06-5.86,9.14-8.72a2,2,0,0,0,.48-.81c.87-2.73,1.69-5.47,2.57-8.2.95-2.95,1.79-6,3-8.83,1.45-3.61,3.18-7.12,4.81-10.66,1.09-2.38,2.07-4.83,3.34-7.12,3.58-6.4,6.62-13.1,10.77-19.18,1.77-2.6,3.41-5.28,5.16-8,.24,3.95.56,7.74.67,11.53s.05,7.52,0,11.28a10.23,10.23,0,0,1-.36,2.58c-1.1,3.91-2.26,7.8-3.41,11.7a6.52,6.52,0,0,1-.62,1.55,32.58,32.58,0,0,0-3.77,10.75,19.35,19.35,0,0,1-1.22,4.35c-1.21,2.63-2.28,5.25-2.15,8.22a5.74,5.74,0,0,1-.36,1.86,24.3,24.3,0,0,0-1.07,7.3c.06,5.52,0,11,0,16.56,0,3.19.12,6.38-.87,9.48a4.43,4.43,0,0,0-.08,1.67,25.32,25.32,0,0,1-1.65,9.6c-.74,2.18-1.73,4.28-2.63,6.41-1.24,2.94-2.14,6.1-3.83,8.75-2.65,4.15-4.25,8.92-7.6,12.64C402.8,642.76,402.82,643.06,402.77,643.29Z" style="fill:#e00428"/><path d="M298.62,142.61c-8.65,5.11-17.58,9.67-26.7,13.9-4.62,2.15-9.14,4.53-13.69,6.82-.75.39-1.74.76-.89,1.94-.22.23-.38.57-.64.68-2,.89-4.14,1.68-6.18,2.59-4.8,2.14-9.75,3.89-14.39,6.46-6,3.32-12.23,6.23-18.11,9.8a8.75,8.75,0,0,1-4.25,1.42,41.34,41.34,0,0,0-9.22,1.07,25.39,25.39,0,0,1-2.58.47A61.68,61.68,0,0,0,188,190.92a27,27,0,0,1-4.62,1.17c-6.09,1.21-11.67,3.77-17.17,6.49-4.72,2.33-9.3,5-14.09,7.14a65.62,65.62,0,0,0-13.79,8.05c-2.18,1.72-4.53,3.25-6.87,4.75a67.64,67.64,0,0,0-12,9.52c-3.66,3.75-6.86,8-10.18,12A65.94,65.94,0,0,0,100.82,253c-1,2.21-2.66,4.15-3.93,6.27-1.85,3.07-3.74,6.12-5.39,9.3s-3.08,6.48-4.46,9.8-2.62,6.83-3.92,10.26c-.2.52-.38,1-.6,1.55a29.43,29.43,0,0,0-1.83,4.12c-1.51,5.78-3,11.55-4.24,17.39A62,62,0,0,0,75,323.51c-.06,10,.15,20,.47,29.94a91.22,91.22,0,0,0,1.41,10.61c.07.46.58.86.89,1.29L72.88,376.2c-2.1-3.3-3.72-6.43-5.9-9.1s-3.54-6-4.81-9.28-2.31-6.45-3.37-9.7C56.48,341,53.93,333.9,52,326.66c-2.14-8-3.21-16.28-4.35-24.52-.94-6.82-.48-13.59.22-20.33,2.22-21.22,9.41-40.86,19.64-59.44,4.54-8.26,9.09-16.55,14.26-24.42a256.13,256.13,0,0,1,16-21.51c5.05-6.19,10.64-11.93,16.08-17.8,5.7-6.14,12.53-10.94,19.4-15.6,9.52-6.46,19.09-12.89,28.93-18.84a108.6,108.6,0,0,1,26.31-11.92c1.69-.49,3.45-.69,5.17-1,3.43-.71,6.84-1.62,10.31-2.12a86.09,86.09,0,0,1,11.22-1,95.36,95.36,0,0,1,14.35.48c6.15.82,12.39,1.56,18.28,3.71s12,4.39,17.92,6.75a50.67,50.67,0,0,1,13.72,8.23c.43.36.86.72,1.32,1a73.1,73.1,0,0,1,14.94,13.42l1.43.4Z" style="fill:#f9e7c1"/><path d="M380.89,308.18a3.81,3.81,0,0,0,3,3.76,5.79,5.79,0,0,1,4.09,5.38,9.66,9.66,0,0,0,.19,1.18c.72,3.25-.47,5.76-3,7.81-1,.84-2,1.76-3.24,2.91l1.69.57c.94.21,1,.95.91,1.67-.16,2.44-.35,4.87-.53,7.31a55.4,55.4,0,0,0-11.09,6.4c-3.57-.15-7.14-.35-10.71-.42-4-.07-8,.09-12-.06a12.3,12.3,0,0,0-8.48,3.21c-2,1.66-4.17,3.19-6.08,5a74.1,74.1,0,0,0-5.71,6c-1,1.13-1.57,2.59-2.56,3.71a4.91,4.91,0,0,0-1.34,4.38c-1.85,2.47-3.73,4.93-5.56,7.43a5,5,0,0,0,0,6c1.49,2.34,3.06,4.64,4.59,7a14.25,14.25,0,0,1-2.89-1,43.69,43.69,0,0,1-4.28-3,4.76,4.76,0,0,1-2.17-3.68c-.17-2.25-.66-4.61-3.2-6.15-.79,1.61-1.61,3.14-2.3,4.72q-3.58,8.22-7.09,16.47c-1.09,2.57-2.09,5.17-3.2,7.73a1.79,1.79,0,0,0,.46,2.34,19.08,19.08,0,0,0,1.76,1.62c2.07,1.41,4.14.77,5.22-1.47s2.32-4.72,3.53-7.05c1.82-3.5,5.17-4.34,8.46-2.24a36,36,0,0,1,5.09,3.94,66.28,66.28,0,0,0,9.45,7.67c2.08,1.31,3.95,3,6,4.3s4.39,2.56,6.65,3.71c3.08,1.58,6.22,3.05,9.86,4.82-3,.71-5.4,1.39-7.86,1.86a6.53,6.53,0,0,0-5.19,4.7c-.52,2.38,1.08,3.67,2.73,4.89.25.19.55.33.79.53a35.9,35.9,0,0,1,2.86,2.51c3.15,3.31,4.27,7.57,5.39,11.81a2.55,2.55,0,0,1-.61,2.89,40.84,40.84,0,0,1-4.14,3.2c-2.18,1.33-4.49,2.44-6.76,3.61a13.41,13.41,0,0,1-7.28,1.93,61.1,61.1,0,0,1-7.3-1.23c-3.83-1.1-7.58-2.51-11.34-3.85s-7.7-2.67-11.47-4.22c-4-1.64-7.86-3.54-11.77-5.35-1.23-.57-2.41-1.27-3.66-1.77a102.79,102.79,0,0,1-24.34-14.26c-3.4-2.59-6.25-5.94-9.23-9.06a206.52,206.52,0,0,1-17.67-20.53,175.7,175.7,0,0,1-12.73-20.29q-4.73-8.79-8.62-17.92a30,30,0,0,0-1.49-2.72,17.35,17.35,0,0,1-2.19-8.49c0-5.82-.07-11.66-.34-17.48-.18-4-.69-8-1.19-11.92a75.58,75.58,0,0,1-.11-18.89,17.17,17.17,0,0,0,.19-2.15,141.85,141.85,0,0,1,2-21,53.93,53.93,0,0,1,2.47-10.23,43.77,43.77,0,0,1,4.24-8,58,58,0,0,1,9.71-12.43c4.12-3.77,6.66-8.75,9.72-13.33.7-1.06,1.44-2.09,2.17-3.14,0,2.79-.07,5.59.09,8.37.21,3.79.51,7.58,1,11.35.2,1.63,1.1,3.17,1.32,4.8.58,4.19,3.4,6.43,6.93,7.71a19.43,19.43,0,0,1,6.06,3.14,14.7,14.7,0,0,0,7.14,3.59c1.19.17,2.58.66,3.46-.78a9.23,9.23,0,0,0,2.37-.18,7,7,0,0,1,4.44.09,75.73,75.73,0,0,0,7.42,1.82,97.47,97.47,0,0,0,10.62,1.45c1.93.13,3.92-.5,5.89-.78-.13,1.54.77,1.95,2.09,1.85A15,15,0,0,1,311,274c.79.45,1.88.35,2.76.67,1.92.71,3.85,1.46,5.69,2.35a2.78,2.78,0,0,1,1.45,2.6c-2.73,5-7.49,7.44-12.46,9.46-5.38,2.18-11.11,2.64-16.84,2.91l-2.88-.06a43.64,43.64,0,0,1-5.25-.23c-2.53-.39-3.49,0-4.94,2.58a33.18,33.18,0,0,0,3.63,2.54c2.61,1.36,5.36,2.44,7.95,3.83a18.31,18.31,0,0,0,9.13,2.33c2.24,0,4.48,0,6.71,0a8.21,8.21,0,0,0,3-.5c3.25-1.5,6.48-3.06,9.6-4.8,2.15-1.2,4.1-2.76,6.13-4.16s4-2.87,6.09-4.16c1.88-1.15,2.77-.82,3.86,1.11a8.65,8.65,0,0,1,.41.87c.77,1.83,1.5,3.68,2.32,5.49a3.73,3.73,0,0,0,5.26,1.95,6.57,6.57,0,0,1,4.81-.66c1,.31,1.82.65,2.06,1.71s-.57,1.52-1.21,2.14c-1.31,1.25-2.88,2.44-3.68,4-1.43,2.77-3.83,3.32-6.45,3.74-.81-1.29-1.16-1.51-2.34-.68-1.47,1-2.76,2.34-4.13,3.53l-1.37-.44.76-1.52-.41-.38c-.65.51-1.33,1-1.95,1.53-.95.84-1.8,1.82-2.82,2.58-5.7,4.23-9.24,10-12.11,16.36s-3.89,13.66-7.28,20c-.22.39.2,1.12.32,1.7a5.74,5.74,0,0,0,1.84-.67c.36-.31.39-1,.58-1.54.41-1.19.83-2.38,1.25-3.57,2.23-1,3.26-3.18,4.69-4.89,2.68-3.2,4.92-6.77,7.38-10.16a6.42,6.42,0,0,1,1.74-1.91c2-1.14,3.72-3.05,6.36-2.81.2,0,.42-.21.63-.32a24.68,24.68,0,0,0,2.36,1.62c.78.42,1.66.73,2.23-.37-.05-.18,0-.39-.13-.48a10.37,10.37,0,0,0-1.11-.87,7.87,7.87,0,0,1-2.79-9.48c.66.41,1.3.85,2,1.24a2.71,2.71,0,0,0,2.88.33,39.65,39.65,0,0,1,5.9-2.49c2.45-.76,4.5-1.7,5.36-4.43a4.42,4.42,0,0,1,3.39-3.1c2.76-.45,5.54-.47,8,1.25A18.65,18.65,0,0,0,363.5,312a7,7,0,0,0,3.92.31,26.36,26.36,0,0,0,6.64-2.57A12.45,12.45,0,0,1,380.89,308.18Zm-19.37,22.14c-.52.69-.11,1,.51,1.19a5.39,5.39,0,0,0,5.69-1.38c1.16-1.16,2.45-2.18,3.76-3.34,2.41,2.37,4.42,1.16,6.39-.16a13,13,0,0,0,1.22-1.13c.4-.34.84-.64,1.25-.94L382,326.4c1.51-3.24-.61-6.16-4.49-6.59-2.24-.45-4.36-.5-6.14,1.35a3.54,3.54,0,0,1-3.79.83,16,16,0,0,1-3.31-1.37,15.55,15.55,0,0,0-9.7-1.78,8.6,8.6,0,0,0-2.18.84c-6.2.3-12.3,2.24-14.29,4.67a6.46,6.46,0,0,0,5.76,1.35A24,24,0,0,1,357.21,327l2.22,1.11C360.41,328.58,361.43,329,361.52,330.32Zm-96.17,37.89,6.38-.45c2.3-.17,4.6-.31,6.89-.53a3,3,0,0,0,1.54-.6,54.83,54.83,0,0,0,4.17-3.57,2.37,2.37,0,0,0,.75-1.85,9.78,9.78,0,0,0-1.83-4.34,41.13,41.13,0,0,1-6.54-9.37c-3.72-7.71-2.93-5.24-3-13a15.3,15.3,0,0,1,2.32-8.16,9.79,9.79,0,0,0,1.19-2.59c.84-3.29,2.44-6.38,2.44-9.91,0-1.7.18-2-1.32-2.51-1.73-.62-3.51-1.05-5.24-1.66a74.31,74.31,0,0,1-7.34-2.77c-5.18-2.47-10-5.69-15.48-7.53a20.27,20.27,0,0,1-3.37-1.8,35.2,35.2,0,0,0-3.51-2,8.58,8.58,0,0,0-8.21.5,19.89,19.89,0,0,0-7,7.67c-1.81,3.2-1.94,6.87-3,10.29a9.17,9.17,0,0,0,.21,5.36c1,3.59,1.92,7.22,2.83,10.85,1.62,6.39,3.38,12.76,4.76,19.21,1.24,5.75,4.61,9.24,10.07,11a21.71,21.71,0,0,1,3.5,1.53c4.39,2.36,9.14,3.72,13.86,5.17C262.26,367.65,264.15,367.94,265.35,368.21Z" style="fill:#feb766"/><path d="M77.81,365.35c-.31-.43-.82-.83-.89-1.29a91.22,91.22,0,0,1-1.41-10.61c-.32-10-.53-20-.47-29.94a62,62,0,0,1,1.41-11.81c1.19-5.84,2.73-11.61,4.24-17.39a29.43,29.43,0,0,1,1.83-4.12c.22-.51.4-1,.6-1.55,1.3-3.43,2.52-6.88,3.92-10.26s2.82-6.62,4.46-9.8,3.54-6.23,5.39-9.3c1.27-2.12,2.88-4.06,3.93-6.27a65.94,65.94,0,0,1,8.55-12.94c3.32-4.08,6.52-8.28,10.18-12a67.64,67.64,0,0,1,12-9.52c2.34-1.5,4.69-3,6.87-4.75a65.62,65.62,0,0,1,13.79-8.05c4.79-2.17,9.37-4.81,14.09-7.14,5.5-2.72,11.08-5.28,17.17-6.49a27,27,0,0,0,4.62-1.17A61.68,61.68,0,0,1,202,187.76a25.39,25.39,0,0,0,2.58-.47,41.34,41.34,0,0,1,9.22-1.07A8.75,8.75,0,0,0,218,184.8c5.88-3.57,12.11-6.48,18.11-9.8,4.64-2.57,9.59-4.32,14.39-6.46,2-.91,4.13-1.7,6.18-2.59.26-.11.42-.45.64-.68a46,46,0,0,0,6.05-2c5.57-2.69,11.05-5.58,16.58-8.38.91-.46,1.86-.85,2.8-1.27.36.34.68.92,1.08,1a62.44,62.44,0,0,0,7.33.91,80.77,80.77,0,0,0,18.09-1.11,92.73,92.73,0,0,1,13.48-1.63c6.78-.27,13.59-.17,20.39-.05,2.93.06,5.85.56,8.77.83,2.3.21,4.6.52,6.9.54,9.17.08,18.34-.07,27.5.92a126,126,0,0,0,12.9.52,54.82,54.82,0,0,1,13.67,1.88,13.74,13.74,0,0,1,6.16,3,29.18,29.18,0,0,0,4.71,3.25c3.59,2.23,7.21,4.43,10.85,6.57a56.45,56.45,0,0,0,5.7,3c2.61,1.16,5.39,2,8,3.19,4.41,2.06,8.68,4.42,13.1,6.46,2.3,1.06,4.84,1.61,7.21,2.54,3,1.16,3.56,2.68,2.59,5.48a36.79,36.79,0,0,1-4,7.57c-1.06,1.67-2.74,2.94-3.78,4.61-2.5,4-4.64,8.19-8.24,11.36-.24.21-.34.55-.55.79-2.33,2.72-4.64,5.47-7,8.15-5.15,5.83-11.48,10.36-17.13,15.64a12.81,12.81,0,0,1-2.66,1.51c-.55-1.65-1.12-3.3-1.65-4.95a157,157,0,0,1-5.41-22.82c-.35-2.13-.47-4.29-.69-6.43a9.54,9.54,0,0,0-1.68-4.68c-1.36-1.88-2.6-3.85-4-5.69a19.27,19.27,0,0,0-6.13-5.29c-4.4-2.44-8.7-5-13.13-7.44a33,33,0,0,0-10.68-3.4c-7.57-1.18-15.09-2.79-22.69-3.69a109.52,109.52,0,0,0-15.8-.41,218.94,218.94,0,0,0-36.59,4.49c-11.48,2.26-22.47,6.25-33.78,9.05-14.28,3.54-27.65,9.41-41,15.42-4.72,2.13-9.27,4.69-14,6.73a100.8,100.8,0,0,0-15.81,8.46,14.5,14.5,0,0,1-2.28,1.32c-5.67,2.38-10.42,6.18-15.34,9.73-.45.33-1,.58-1.43.88-3.78,2.39-7.61,4.71-11.33,7.2a162,162,0,0,0-25.43,21.09c-2.51,2.57-4.9,5.26-7.33,7.92-3.72,4.06-7.53,8.06-11.1,12.26-2.42,2.85-4.58,5.94-6.72,9-2.83,4.07-5.49,8.25-8.3,12.33-.65.95-1.72,1.61-2.39,2.55a161.68,161.68,0,0,0-11.64,19.27c-2.38,4.6-5.16,9-8,13.37a171.65,171.65,0,0,0-14,25.61A30.22,30.22,0,0,1,77.81,365.35Z" style="fill:#d8c49b"/><path d="M170,503.6c1-1.31,2.13-2.56,3.06-3.93,2.7-3.94,5.4-7.89,8-11.92,3.17-5,6.19-10.05,9.32-15.05a29.48,29.48,0,0,1,8.34-8.78,14.53,14.53,0,0,1,2.55-1.1,4.18,4.18,0,0,0,.16.7,82.45,82.45,0,0,0,15.71,23c1.36,1.45,3,2.61,4.41,4a66,66,0,0,0,10.18,8.69c4.24,2.85,8.55,5.59,13.44,7.23,6.27,2.11,12.51,4.34,18.85,6.23,7,2.08,13.95,4.39,21.23,5.41,4.88.68,9.69,1.91,14.66,1.84a3.74,3.74,0,0,1,.94.13c3.06.76,6-.23,9-.65.87-.12.92-.73.88-1.41.93-.85,1.9-1.67,2.79-2.56a50.38,50.38,0,0,1,8.71-7c2.08-1.31,4.17-2.64,6.31-3.86,2.62-1.5,5.25-3,8-4.31,2.35-1.14,4.82-2,7.23-3.06,2.12-.91,4.24-1.82,6.34-2.77s4-1.85,6-2.84c4.95-2.47,9-6.25,13.49-9.39a39.41,39.41,0,0,0,6.81-6.61c2.56-2.93,4.84-6.1,7.24-9.15,1.82-2.31,3.67-4.59,5.43-6.93a7.85,7.85,0,0,0,.84-1.94c.2-.5.35-1,.53-1.5,1.1.89,2.16,1.84,3.3,2.68,2.43,1.81,5.13,3.32,7.3,5.39a9.74,9.74,0,0,1,2.68,9.26,31.45,31.45,0,0,1-1,4.18,3.59,3.59,0,0,0,1,3.93l4.14,4.3a64,64,0,0,1-12.8,12.45c-1.18.82-2.36,1.64-3.45,2.56a57.71,57.71,0,0,1-16.74,9.54c-5.21,2-10.39,4.09-15.45,6.42-7,3.21-13.75,6.76-20.7,10a67.15,67.15,0,0,1-9.17,3.39c-2,.59-4.15,1.18-6.31.34a21.4,21.4,0,0,0-2.57-1c-.76-.17-1.6,0-2.37-.17-6.18-1.36-12.31-2.89-18.69-3.33-4.24-.3-8.41-1.45-12.63-2.12a54.67,54.67,0,0,0-6.38-.62,2.94,2.94,0,0,0-3.3,2.19,3.74,3.74,0,0,0,1.14,4.09,81.28,81.28,0,0,1,6.43,6.57,20.33,20.33,0,0,0,4.15,3.88,5.7,5.7,0,0,1,1.07,1.41c-4-.29-8.08-.57-12.12-.89-2.06-.16-4.12-.32-6.17-.6-5-.68-10-2-15.11-1.82a4.42,4.42,0,0,1-1,0A149.08,149.08,0,0,1,228.69,531a189.36,189.36,0,0,1-21.09-9c-4.3-2.27-8.72-4.3-13-6.59-5-2.67-9.81-5.6-15.05-7.78a45,45,0,0,1-5.07-3.07,7,7,0,0,0-2.12-.85A12.69,12.69,0,0,0,170,503.6Z" style="fill:#df0428"/><path d="M269.36,268c-.88,1.44-2.27.95-3.46.78a14.7,14.7,0,0,1-7.14-3.59A19.43,19.43,0,0,0,252.7,262c-3.53-1.28-6.35-3.52-6.93-7.71-.22-1.63-1.12-3.17-1.32-4.8-.46-3.77-.76-7.56-1-11.35-.16-2.78-.07-5.58-.09-8.37,3.84-6.08,7.76-12,13.49-16.64a32.59,32.59,0,0,1,7.84-4.89,29.66,29.66,0,0,0,4.29-2.62c10.34-6.56,21.41-11.74,32.37-17.15a97.72,97.72,0,0,1,26.89-9.1,99.32,99.32,0,0,1,10.46-1.18c4.38-.28,8.78-.4,13.17-.39,3.91,0,7.82.29,11.73.48a6.28,6.28,0,0,1,1.87.37c4.77,1.82,9.59,3.54,13.95,6.28,4.13,2.6,8.19,5.29,12.4,7.75a18.12,18.12,0,0,1,6.91,7.43c2.72,5,4.15,10.51,5.57,16a53.81,53.81,0,0,0,3.07,8.76c1.86,4.06,4.12,7.93,6.1,11.94a44.2,44.2,0,0,1,1.7,4.68l-3.86.09h.07l-.53-.53a20,20,0,0,0-7.57-5.26,2.48,2.48,0,0,1-.55-.43c-.3-.51-.48-1.19-.93-1.49a36.5,36.5,0,0,0-3.7-2.12c-1.82-1-3.67-1.84-5.5-2.76-.9-.46-1.8-.94-2.7-1.41-1.09-2.14-3.05-3-5.23-3.32-2.36-.39-4.75-.6-6.5-2.57-.24-.28-.88-.22-1.33-.31a20.32,20.32,0,0,1-3.08-1.48c-2.62-1.84-3.63-1.89-6,0-.66-1.69-.28-3.8-2.27-5.41-.7,3,0,5.58.29,8.18.25,2.77.58,5.54.86,8.3a31.71,31.71,0,0,0,1.61,8.14l2-1c.29.31.61.6.88.94.51.66,1,1.34,1.48,2l-5.38,6.18a24.66,24.66,0,0,0-1.26,2.24c-.72,1.65-1.37,3.35-2,5,.14-2.3.44-4.59.39-6.88-.18-7.95.56-15.91-.42-23.85-.32-2.67-.72-3.64-3.36-3.7a50,50,0,0,1-10.28-1.62c-.11-1-.21-2-.33-3.05-.15-1.33-.24-2.68-.5-4-.16-.83-.43-1.8-1.7-1.37a2.56,2.56,0,0,0-2.93-1.1c-1.82.48-3.7.91-5,2.57-.63.81-1.49,1.43-2.17,2.22a5.76,5.76,0,0,1-3.74,1.85,56.52,56.52,0,0,0-17.34,5.68c-.87.45-2,.79-2.12,2a12.06,12.06,0,0,1-2.36.32c-4.72-.22-9.15,1.12-13.54,2.54-4.83,1.57-9.58,3.43-14.36,5.16-.41-.29-.78-.76-1.22-.82a28.53,28.53,0,0,1-3.09-.16c-4.46-1.18-9-.85-13.51-.8-1.66,0-3.47.44-4.43,1.95A116.07,116.07,0,0,0,255.81,242a22.77,22.77,0,0,0-1.75,6.63c-.35,2.23.41,3.09,2.43,3.53.5,2,.63,2,2.31,1.4.37-.14.73-.31,1.08-.48l15.78-7.67a10,10,0,0,1-.55,1.65c-.84,1.53-1.87,3-2.59,4.56-1,2.15-1.75,4.39-2.56,6.6-.26.71.19,1,.86,1.09-2.37,1.8-5.39,2.68-7.52,5.11a5,5,0,0,0,4.06-.62,51,51,0,0,0,7.8-4.61,83,83,0,0,1,13.4-8.73c6.37-3.37,12.79-6.5,20.1-7.26a5.73,5.73,0,0,1,5.22,1.69c.6.64,1.22,1.27,1.77,1.95a2.79,2.79,0,0,0,3,1c2.76-.47,4.69-2.28,6.69-4a1.36,1.36,0,0,0,.2-1.28c-1.06-1.86-2-3.89-4.61-4-1.66-.08-3.33-.25-5-.37l5.32-3.81,4-1.11c.56,0,1.12,0,1.67.11a7.18,7.18,0,0,1,6.64,7.84c-.71-.24-1.26-.18-1.35.72-.13,1.34-.26,2.68-.37,4-.2,2.53-.38,5-.58,7.57-1.28,1-2.41,2.24-4.32,2-.52-.06-1.09.59-1.67.82-1.29.53-2.65.91-3.89,1.53-.85.43-2.18-.1-2.56,1.25-2-1.07-4.18-2-6.1-3.24-4.72-3.07-9.61-5.39-15.46-4.78a30.69,30.69,0,0,0-11.13,3.47A116.63,116.63,0,0,0,270,264.51a29.32,29.32,0,0,0-2.2,2Zm104.69-69.33.32-.72c-.64-.43-1.27-.88-1.93-1.28-4.92-3-9.92-5.81-14.74-8.92-3.93-2.53-8.1-3.06-12.6-2.55a76,76,0,0,0-14.39,3.46c-4,1.28-8,2.85-11.93,4.31-.7.26-1.57.46-1.29,1.79a18.81,18.81,0,0,0,2.08-.47c1.74-.58,3.48-1.17,5.19-1.83,6.19-2.38,12.42-4.57,19-5.49,5.13-.7,9.86-.23,14.36,2.9s9.34,5.5,14.06,8.18A10,10,0,0,0,374.05,198.64Zm-43.12,6.68a6.39,6.39,0,0,0-.5,1.55c0,2.12-1.23,3.37-3,4.23-1,.49-2,.87-3.05,1.34-.75.35-1.47.76-2.21,1.14.58.6,1.14.94,1.54.8a53.08,53.08,0,0,0,6-2.2C332.05,211.13,332.68,207.6,330.93,205.32Z" style="fill:#fca33d"/><path d="M254,110.9l-1-.19-.54-.18c-3.32-.83-6.63-1.76-10-2.47a98.06,98.06,0,0,0-25-2.34,3.92,3.92,0,0,1-2.14-.41,13,13,0,0,1,1.46-1c4.76-2.43,9.57-4.78,14.29-7.28s9.07-5,13.61-7.53c1.54-.84,3.13-1.58,4.69-2.38,5-2.59,10-5.43,15.14-7.7a206.58,206.58,0,0,1,19.62-7.61,54.89,54.89,0,0,1,14.56-2.66c6.06-.24,12.13-.79,18.19-.84a55.47,55.47,0,0,1,23.62,5.44A12.47,12.47,0,0,1,343,75.29c2.91,2.26,5.77,4.57,8.66,6.84a34.53,34.53,0,0,1,8.82,10.63,108.1,108.1,0,0,1,7.76,17.75c2.71,7.93,5.36,15.88,8.34,23.71,1.55,4.09,3.74,7.93,5.66,11.88.33.69.72,1.35,1.3,2.44-2.13-.25-3.78-.38-5.4-.65Q366.53,146,355,144a6.05,6.05,0,0,1-1.11-.43,9.72,9.72,0,0,0-5-5.82c-.94-.44-1.8-1-2.72-1.51a92.56,92.56,0,0,0-16.69-7.09c-2.83-.84-5.64-1.71-8.49-2.47-3.59-1-7.18-2-10.83-2.7-3.88-.71-7.68-1.44-10.93-3.83-2-1.46-3.85-3.11-5.94-4.38a51,51,0,0,0-17-6.76,33.5,33.5,0,0,0-9.05-.29c-2.45.2-4.89.53-7.33.8-1.74.19-3.48.33-5.21.57C254.43,110.13,254.22,110.62,254,110.9Z" style="fill:#f9e7c1"/><path d="M365.3,461.44c1.64-.34,3.29-.62,4.9-1.05,1.84-.49,3.65-1.13,5.48-1.68.91-.27,1.84-.5,2.76-.75a21.78,21.78,0,0,1-1.84,1.88c-2.93,2.34-5.82,4.74-8.86,7A96.24,96.24,0,0,1,339.92,481c-7.84,2.46-15.66,5-23.49,7.51a34.76,34.76,0,0,1-3.45,1c-5.16,1.05-10.3,2.2-15.5,3-6.69,1.08-13.41,2-20.13,2.8a93.89,93.89,0,0,1-12.18.89c-4.78-.05-9.55-.65-14.32-1.06-4.3-.37-8.58-.82-12.88-1.19-2.22-.19-4.46-.24-6.69-.45a12.48,12.48,0,0,1-8.79-4.32c-1.17-1.41-2.4-2.78-3.6-4.17q-.54-3.63-1.1-7.28c-.41-2.74-1-5.48-1.18-8.24-.21-3.9-.11-7.83,0-11.74a7.76,7.76,0,0,1,.77-3.19,46.85,46.85,0,0,0,4.82-17.38c.44-5.6-.17-11.3-.41-17-.09-1.89-.46-3.78-.71-5.66a84.68,84.68,0,0,1-1.06-8.5,77.68,77.68,0,0,0-1-10.67c-.94-5.47-1.87-10.95-2.73-16.43a11.54,11.54,0,0,1,.31-5.82c2.09,2.47,4.18,4.47,5.68,6.84,1.88,3,3.82,5.84,5.83,8.71,1.87,2.66,3.27,5.65,4.92,8.47,4.33,7.43,8.78,14.8,12.48,22.58a57.33,57.33,0,0,0,6.5,10.29c1.92,2.51,3.13,5.59,5.08,8.07,4.15,5.26,8.08,10.66,11.74,16.26a9.56,9.56,0,0,0,2.37,2.65c2.54,1.78,5.14,3.49,7.84,5,3.83,2.15,7.92,3.86,11.63,6.18,4.64,2.9,8.95,6.35,13.54,9.35a13.94,13.94,0,0,0,10.12,2.51c1.8-.3,3.58-.7,5.38-1,5-.84,9.17-4,13.93-5.52.07,0,.13-.1.19-.15,3.39-2.78,7.54-4,11.58-5.33,3.84-1.25,7.84-2,11.77-3C360.09,464.4,363,463.61,365.3,461.44Z" style="fill:#feb766"/><path d="M402.77,643.29c.05-.23,0-.53.17-.69,3.35-3.72,4.95-8.49,7.6-12.64,1.69-2.65,2.59-5.81,3.83-8.75.9-2.13,1.89-4.23,2.63-6.41a25.32,25.32,0,0,0,1.65-9.6,4.43,4.43,0,0,1,.08-1.67c1-3.1.89-6.29.87-9.48,0-5.52,0-11,0-16.56a24.3,24.3,0,0,1,1.07-7.3,5.74,5.74,0,0,0,.36-1.86c-.13-3,.94-5.59,2.15-8.22a19.35,19.35,0,0,0,1.22-4.35A32.58,32.58,0,0,1,428.15,545a6.52,6.52,0,0,0,.62-1.55c1.15-3.9,2.31-7.79,3.41-11.7a10.23,10.23,0,0,0,.36-2.58c0-3.76.11-7.52,0-11.28s-.43-7.58-.67-11.53c-1.75,2.71-3.39,5.39-5.16,8-4.15,6.08-7.19,12.78-10.77,19.18-1.27,2.29-2.25,4.74-3.34,7.12-1.63,3.54-3.36,7.05-4.81,10.66-1.17,2.87-2,5.88-3,8.83-.88,2.73-1.7,5.47-2.57,8.2a2,2,0,0,1-.48.81c-3.08,2.86-5.72,6.16-9.14,8.72s-7.49,3.83-11.42,5.3a59.24,59.24,0,0,1-15,3.48c-1.26.12-2.52.33-3.77.57-2.88.56-5.75,1.18-8.64,1.72a12.44,12.44,0,0,1-2.15,0,5.52,5.52,0,0,1,0-2.09c1.07-2.22,1.94-4.68,3.53-6.49C359,576.09,363,572,368.1,569.2c2.88-1.55,5.71-3.19,8.68-4.53,3.22-1.46,5.27-4,7.26-6.76,1-1.35,1.92-2.74,2.86-4.12a2.52,2.52,0,0,0,.47-.82c.85-4.47,3.36-8.21,5.15-12.28,2-4.51,4.94-8.36,7.46-12.5A25.76,25.76,0,0,1,405,522.8c2.42-2.18,5.19-4,7.51-6.26,3.8-3.72,8-7.08,11-11.57.93-1.38,2.6-2.26,3.94-3.38,4.14,3.05,8.35,6,12.4,9.16,3.11,2.43,6,5.11,9,7.68-1.14,2.6-.56,5.31-.35,8,.25,3.15.85,6.28,1.24,9.43s.57,6.32,1.07,9.45a109.13,109.13,0,0,1,1.32,15.41q.13,8.28,0,16.55a46.27,46.27,0,0,1-.74,6.61c-.43,2.5-1.11,5-1.59,7.45-1.39,7.24-2.63,14.51-4.15,21.72-1.32,6.29-3,12.51-4.43,18.78a43.26,43.26,0,0,0-.57,4.71c-5.57,1.31-11.1,2.79-16.72,3.86-6,1.14-12.09,1.89-18.15,2.77C404.84,643.27,403.8,643.24,402.77,643.29Z" style="fill:#bc0624"/><path d="M427.76,240.56a12.81,12.81,0,0,0,2.66-1.51c5.65-5.28,12-9.81,17.13-15.64,2.37-2.68,4.68-5.43,7-8.15.21-.24.31-.58.55-.79,3.6-3.17,5.74-7.38,8.24-11.36,1-1.67,2.72-2.94,3.78-4.61a36.79,36.79,0,0,0,4-7.57c1-2.8.4-4.32-2.59-5.48-2.37-.93-4.91-1.48-7.21-2.54-4.42-2-8.69-4.4-13.1-6.46-2.58-1.22-5.36-2-8-3.19a56.45,56.45,0,0,1-5.7-3c-3.64-2.14-7.26-4.34-10.85-6.57a29.18,29.18,0,0,1-4.71-3.25,13.74,13.74,0,0,0-6.16-3,54.82,54.82,0,0,0-13.67-1.88,126,126,0,0,1-12.9-.52c-9.16-1-18.33-.84-27.5-.92-2.3,0-4.6-.33-6.9-.54-2.92-.27-5.84-.77-8.77-.83-6.8-.12-13.61-.22-20.39.05a92.73,92.73,0,0,0-13.48,1.63,80.77,80.77,0,0,1-18.09,1.11,62.44,62.44,0,0,1-7.33-.91c-.4-.07-.72-.65-1.08-1,7.15-3.89,14.29-7.8,21.45-11.65a11.42,11.42,0,0,1,6.49-1.34c7.64.67,15.3,1.15,22.91,2.06,5.87.7,11.66,2,17.49,2.92,8.92,1.44,17.84,2.82,26.76,4.2,5.68.88,11.36,1.85,17.07,2.54a146.33,146.33,0,0,0,23.2,1.32,10.75,10.75,0,0,1,5.75,1.3,140.76,140.76,0,0,0,22.26,9.37,159.17,159.17,0,0,0,20.5,5.76c7.65,1.52,15.36,2.16,23.07.35a44.61,44.61,0,0,0,4.53-1.52c1-.33,1.92-.68,2.93-1,.86,1.37.23,2.51-.23,3.52-1.79,3.92-3.51,7.89-5.59,11.66-4.58,8.27-10.18,15.87-15.9,23.38q-5.59,7.35-11,14.82c-2,2.72-3.74,5.58-5.6,8.37-1.29,1.93-2.5,3.91-3.89,5.77q-9,12-18,24c-.71.94-1.48,1.84-2.36,2.94a6.07,6.07,0,0,1-.91-1.34q-3-10-5.92-20A1.93,1.93,0,0,1,427.76,240.56Z" style="fill:#f8e5bf"/><path d="M185.84,512.71a8.14,8.14,0,0,0,1.26,1.93c2.64,2.3,3.53,5.33,4.06,8.64.81,5,.4,10,.39,15.05s1,10.1,1.68,15.14a35.82,35.82,0,0,1,.23,5.95,3.43,3.43,0,0,1-2.11,3,22.29,22.29,0,0,1-8.49,2.13c-3.44,0-6.88.18-10.3-.06a30.48,30.48,0,0,1-6.48-1.45c-2-.58-3.88-1.39-5.8-2.15-2.59-1-5.15-2.14-7.75-3.12-1.41-.53-2.88-.88-4.32-1.31l-8.45-8.42c-1.75-1.74-3.44-3.54-5.27-5.19a110.94,110.94,0,0,1-11.75-13.14c-.94-1.17-2-2.28-2.93-3.44-.5-.61-.91-1.28-1.37-1.92a4.75,4.75,0,0,1,1.26-.54,34.76,34.76,0,0,0,10.94-3.22c3.83-1.78,7.58-3.75,11.47-5.39,3.52-1.47,7.18-2.6,10.77-3.9A31.91,31.91,0,0,0,156.2,510,24.1,24.1,0,0,1,167,507.37a27.55,27.55,0,0,0,5.64.29,7.5,7.5,0,0,1,4.4.47c2.8,1.31,5.54,2.76,8.31,4.14l.48.45Z" style="fill:#bc0624"/><path d="M365.3,461.44c-2.29,2.17-5.21,3-8.16,3.69-3.93,1-7.93,1.74-11.77,3-4,1.32-8.19,2.55-11.58,5.33-.06.05-.12.13-.19.15-4.76,1.55-8.89,4.68-13.93,5.52-1.8.29-3.58.69-5.38,1a13.94,13.94,0,0,1-10.12-2.51c-4.59-3-8.9-6.45-13.54-9.35-3.71-2.32-7.8-4-11.63-6.18-2.7-1.52-5.3-3.23-7.84-5a9.56,9.56,0,0,1-2.37-2.65c-3.66-5.6-7.59-11-11.74-16.26-2-2.48-3.16-5.56-5.08-8.07a57.33,57.33,0,0,1-6.5-10.29c-3.7-7.78-8.15-15.15-12.48-22.58-1.65-2.82-3.05-5.81-4.92-8.47-2-2.87-3.95-5.76-5.83-8.71-1.5-2.37-3.59-4.37-5.68-6.84a11.54,11.54,0,0,0-.31,5.82c.86,5.48,1.79,11,2.73,16.43a77.68,77.68,0,0,1,1,10.67,84.68,84.68,0,0,0,1.06,8.5c.25,1.88.62,3.77.71,5.66.24,5.65.85,11.35.41,17a46.85,46.85,0,0,1-4.82,17.38,7.76,7.76,0,0,0-.77,3.19c-.08,3.91-.18,7.84,0,11.74.14,2.76.77,5.5,1.18,8.24q.56,3.64,1.1,7.28a11,11,0,0,1-.88-.79c-4.21-4.64-7.37-10-10.38-15.45a4.58,4.58,0,0,1-.13-3.7c.81-2.82,1.48-5.69,2.21-8.54A63.2,63.2,0,0,0,215,437.5c1.29-9.4.56-18.83.37-28.26-.09-4.23,0-8.47,0-12.7,0-6.71,0-13.43-.16-20.14-.05-3.11-.36-6.22-.51-9.34a9.64,9.64,0,0,1,.43-1.95c1.2.83,2.22,1.4,3.09,2.14a21.51,21.51,0,0,1,5.42,7.83,139.74,139.74,0,0,0,20.78,33c7.79,9.12,15.63,18.24,25.44,25.33a55.18,55.18,0,0,0,8.9,5.17c11.23,5.23,22.5,10.39,33.84,15.37,6.1,2.68,12.63,4.1,19.12,5.42,5.24,1.08,10.55,1.88,15.86,2.53,5.57.68,11.17.15,16.74-.42C364.66,461.43,365,461.45,365.3,461.44Z" style="fill:#fca33d"/><path d="M390.35,456.06c-.18.5-.33,1-.53,1.5a7.85,7.85,0,0,1-.84,1.94c-1.76,2.34-3.61,4.62-5.43,6.93-2.4,3.05-4.68,6.22-7.24,9.15a39.41,39.41,0,0,1-6.81,6.61c-4.48,3.14-8.54,6.92-13.49,9.39-2,1-4,1.92-6,2.84s-4.22,1.86-6.34,2.77c-2.41,1-4.88,1.92-7.23,3.06-2.72,1.32-5.35,2.81-8,4.31-2.14,1.22-4.23,2.55-6.31,3.86a50.38,50.38,0,0,0-8.71,7c-.89.89-1.86,1.71-2.79,2.56-1,.1-2.05.19-3.07.3a40.76,40.76,0,0,1-5.68.56,77.84,77.84,0,0,1-8-.9,78.77,78.77,0,0,1-9.85-1.65c-7.29-2-14.51-4.31-21.74-6.55-2.13-.66-4.17-1.61-6.3-2.24a106.72,106.72,0,0,1-23.08-9.74c-.34-.19-.55-.63-1-1.18a8,8,0,0,1,1.45-.14c2.52.27,5,.64,7.56.86,2.7.23,5.4.36,8.1.48,4.54.19,9.08.45,13.62.46,3.66,0,7.32-.29,11-.46.31,0,.62-.13.94-.17,3.62-.42,7.24-.91,10.88-1.22,3.25-.28,6.53-.25,9.77-.56a82.26,82.26,0,0,0,8.7-1.32,137.58,137.58,0,0,0,16.92-5.07c5.94-2,12-3.77,18.06-5.42a89.08,89.08,0,0,0,26.66-12.67,78.17,78.17,0,0,0,14-11.91c.65-.71,1.41-1.33,1.23-2.45l5.66-4.67A6.38,6.38,0,0,1,390.35,456.06Z" style="fill:#bc0624"/><path d="M440.73,636.49a43.26,43.26,0,0,1,.57-4.71c1.43-6.27,3.11-12.49,4.43-18.78,1.52-7.21,2.76-14.48,4.15-21.72.48-2.49,1.16-4.95,1.59-7.45a46.27,46.27,0,0,0,.74-6.61q.15-8.28,0-16.55a109.13,109.13,0,0,0-1.32-15.41c-.5-3.13-.69-6.3-1.07-9.45s-1-6.28-1.24-9.43c-.21-2.64-.79-5.35.35-8q11.07,8.87,22.12,17.74c.86.69,1.6,1.53,2.4,2.31,0,.88-.12,1.76-.09,2.63.14,4.22.27,8.43.48,12.64a60.59,60.59,0,0,0,.57,6.88,116,116,0,0,1,1.83,16.3,13.59,13.59,0,0,0,.18,1.41c.54,4,1.49,8,1.23,12.06-3.53,2.22-5.61,5.59-7.19,9.28-4.17,9.72-8.26,19.47-12.36,29.22a18.18,18.18,0,0,0-.58,1.81,9.54,9.54,0,0,1-2.18,1.41C450.5,633.63,445.61,635.05,440.73,636.49Z" style="fill:#df0428"/><path d="M338.13,309.67c2.62-.42,5-1,6.45-3.74.8-1.55,2.37-2.74,3.68-4,.64-.62,1.44-1.11,1.21-2.14s-1.06-1.4-2.06-1.71a6.57,6.57,0,0,0-4.81.66,3.73,3.73,0,0,1-5.26-1.95c-.82-1.81-1.55-3.66-2.32-5.49a8.65,8.65,0,0,0-.41-.87c-1.09-1.93-2-2.26-3.86-1.11-2.09,1.29-4.07,2.77-6.09,4.16s-4,3-6.13,4.16c-3.12,1.74-6.35,3.3-9.6,4.8a8.21,8.21,0,0,1-3,.5c-2.23.06-4.47,0-6.71,0a18.31,18.31,0,0,1-9.13-2.33c-2.59-1.39-5.34-2.47-7.95-3.83a33.18,33.18,0,0,1-3.63-2.54c1.45-2.62,2.41-3,4.94-2.58a43.64,43.64,0,0,0,5.25.23l2.88.06-1.35.82a29.24,29.24,0,0,0,8.38,2,12.58,12.58,0,0,0,8-1.85,8.57,8.57,0,0,1,1.3-.61c6.31-2.77,11.49-6.81,14.8-13,1.65-3.09,3.44-6.1,5.17-9.15l.26,1.78c.73.21,1.31.43,1.92.56,3,.64,5.77,2.16,8.95,1.59-.83,1.67-1.67,3.33-2.5,5l.52.37a10.09,10.09,0,0,0,1.31-1.39c2.37-3.6,4.76-7.19,7-10.86a31.06,31.06,0,0,0,1.8-4.13l1.33-.66,4.49,1.62a37.93,37.93,0,0,1,4.69,1.69c3,1.57,5.91,3.34,8.85,5,.27.83.59,1.64.8,2.48,1.28,5,2.49,10,3.82,15a15.74,15.74,0,0,0,1.44,2.91c-.84,1.25-1.79,2.43-1.35,4.13.38,1.54.56,3.13,1,4.65s1,3.26,1.56,4.87c1.6-.35,2.9-.68,4.22-.9,2.78-.47,5.16.83,7.48,2a18.42,18.42,0,0,1,6.88,5.34c1.93,2.57,4.48,4.68,6.79,7,1.69,1.68,3.71,3.19,3.69,5.88,0,2.93-.24,5.86-.38,8.79l-5.73,4.91c-.56-1.77-1.09-3.09-1.4-4.46-1-4.53-2.14-9-4.78-12.95a6.7,6.7,0,0,1-.94-2.94A11.82,11.82,0,0,0,386.6,311c-1.26-1.54-2.5-3.1-3.81-4.6a6.23,6.23,0,0,0-1.63-.89c-.11,1.11-.19,1.87-.27,2.63a12.45,12.45,0,0,0-6.83,1.6,26.36,26.36,0,0,1-6.64,2.57,7,7,0,0,1-3.92-.31,18.65,18.65,0,0,1-4.12-2.37c-2.5-1.72-5.28-1.7-8-1.25a4.42,4.42,0,0,0-3.39,3.1c-.86,2.73-2.91,3.67-5.36,4.43a39.65,39.65,0,0,0-5.9,2.49,2.71,2.71,0,0,1-2.88-.33c-.68-.39-1.32-.83-2-1.24.83-1,1.64-2.06,2.52-3.05C335.58,312.41,336.87,311.05,338.13,309.67Z" style="fill:#fca33d"/><path d="M402.4,332.91c.14-2.93.35-5.86.38-8.79,0-2.69-2-4.2-3.69-5.88-2.31-2.29-4.86-4.4-6.79-7a18.42,18.42,0,0,0-6.88-5.34c-2.32-1.16-4.7-2.46-7.48-2-1.32.22-2.62.55-4.22.9-.53-1.61-1.12-3.22-1.56-4.87s-.58-3.11-1-4.65c-.44-1.7.51-2.88,1.35-4.13,1-1.2.6-2.5.29-3.8a17.22,17.22,0,0,1-.24-6.21l1.92,1.72c.83.58,2.15,1,2.38,1.79.69,2.27,2.65,3.29,4.07,4.84a59.9,59.9,0,0,0,5.55,5.91,61.12,61.12,0,0,0,8.56,6,30.65,30.65,0,0,0,13.21,3.66c1.51.11,3.55.22,4.68-2.12a23.87,23.87,0,0,0-2.36-.47c-1-.1-2.09,0-3.1-.15-8.44-1.62-14.95-6.44-20.57-12.66a5.12,5.12,0,0,1-.23-5.84,4.9,4.9,0,0,1,5.56-2.11,16.22,16.22,0,0,0,4.94.49A28.4,28.4,0,0,0,407.38,279a19.66,19.66,0,0,0,4.43-3.16c1-.91,1.63-2.21.59-3.6a8,8,0,0,1,.21-1.86,3.62,3.62,0,0,0-1-4.3,9.06,9.06,0,0,1-1.29-2,5.89,5.89,0,0,0-.72-1.61,19.67,19.67,0,0,0-6.64-5c-3.71-1.66-7.46-3.22-11.19-4.85-2.69-1.18-5.41-2.33-8-3.65-1.46-.73-1.41-1-.56-2.6,4.21-1.91,8.79-2.21,13.26-2.92a8.49,8.49,0,0,1,3.29.38,17.54,17.54,0,0,1,10.6,7.28c.53.79,1,1.8,2.25,1.82a22,22,0,0,0-1.27-11.35l3.86-.09a38.72,38.72,0,0,1,1.08,11.65c-.06,2.47-.06,5-.18,7.43-.28,5.89,1.35,11.35,3.5,16.74A125.6,125.6,0,0,1,426.53,299a40.15,40.15,0,0,1-.49,19,8.48,8.48,0,0,0-.24,1.41,2.46,2.46,0,0,1-1.88,2.24c-7.73,2.22-14.39,6.44-20.89,11A4.77,4.77,0,0,1,402.4,332.91Z" style="fill:#feb766"/><path d="M446,478.54c1.72,1,3.51,1.83,5.13,2.94a4.36,4.36,0,0,1,1.39,2.15,22.31,22.31,0,0,0,4.68,7.47c5.61,6.36,11.3,12.63,16.92,19,5.3,6,10.75,11.85,15.76,18.07,3.9,4.84,7.27,10.11,10.78,15.26a3.93,3.93,0,0,1,.52,2.71c-.52,2.9-1.27,5.76-2,9-.86-.53-1.54-.86-2.13-1.32-5.25-4-10.42-8.21-15.73-12.17-8.49-6.31-15.86-13.91-24-20.67-4.54-3.78-9.31-7.3-14-10.89-5.65-4.33-11.39-8.54-17-12.93-3.33-2.61-6.43-5.51-9.68-8.22s-6.51-5.42-9.87-8c-1.8-1.37-2.48-2.73-1.85-5.09.95-3.53,1.37-7.2,2.15-10.79.44-2,1.14-3.94,1.71-5.88,2.19.46,2.29.49,2.2,2s-.35,3-.54,4.52a18.77,18.77,0,0,0,3.8,14.62q2.83,3.57,5.49,7.28c1.64,2.29,3.54,3.5,6.53,2.66s5.92-1.29,8.87-1.95a10.23,10.23,0,0,0,5.95-3.78C442.66,482.57,444.25,480.68,446,478.54Z" style="fill:#9e846a"/><path d="M290,541.45a5.7,5.7,0,0,0-1.07-1.41,20.33,20.33,0,0,1-4.15-3.88,81.28,81.28,0,0,0-6.43-6.57,3.74,3.74,0,0,1-1.14-4.09,2.94,2.94,0,0,1,3.3-2.19,54.67,54.67,0,0,1,6.38.62c4.22.67,8.39,1.82,12.63,2.12,6.38.44,12.51,2,18.69,3.33.77.17,1.61,0,2.37.17a21.4,21.4,0,0,1,2.57,1l-2.25.83c.13.34.14.54.25.61a3,3,0,0,0,.83.42c2.69.81,5.25.36,8-.29a67.74,67.74,0,0,0,16.59-6.5,237.32,237.32,0,0,1,22-10.43c3.08-1.29,6.29-2.28,9.34-3.64,6-2.67,11.41-6.33,16.9-9.87,1.13-.72,2.19-1.57,3.28-2.36.86,2.58.58,5.18.21,7.79-.17,1.21-.53,2.44.26,3.67,2.51-1.48,5-2.76,7.3-4.32,4.87-3.31,9.64-6.75,14.44-10.17.22-.15.26-.55.38-.84l3.4,2.85c-1.1,1-2.22,2-3.29,3.07-1.88,1.84-3.62,3.84-5.61,5.53-4.18,3.55-8.45,7-12.74,10.4a52.87,52.87,0,0,1-21.49,10.46c-6.9,1.53-13.74,3.35-20.51,5.36-6.93,2.06-13.66,4.76-20.87,5.85a113,113,0,0,1-14.89,1.63c-3.27.05-6.55-.08-9.82.09-2.84.14-5.67.77-8.51.83C300.82,541.6,295.39,541.47,290,541.45Z" style="fill:#bc0624"/><path d="M336.38,458.06a13.41,13.41,0,0,0,7.28-1.93c2.27-1.17,4.58-2.28,6.76-3.61a40.84,40.84,0,0,0,4.14-3.2,2.55,2.55,0,0,0,.61-2.89c-1.12-4.24-2.24-8.5-5.39-11.81a35.9,35.9,0,0,0-2.86-2.51c-.24-.2-.54-.34-.79-.53-1.65-1.22-3.25-2.51-2.73-4.89a6.53,6.53,0,0,1,5.19-4.7c2.46-.47,4.88-1.15,7.86-1.86-3.64-1.77-6.78-3.24-9.86-4.82-2.26-1.15-4.51-2.35-6.65-3.71s-3.94-3-6-4.3a66.28,66.28,0,0,1-9.45-7.67,36,36,0,0,0-5.09-3.94c-3.29-2.1-6.64-1.26-8.46,2.24-1.21,2.33-2.4,4.68-3.53,7.05s-3.15,2.88-5.22,1.47a19.08,19.08,0,0,1-1.76-1.62,1.79,1.79,0,0,1-.46-2.34c1.11-2.56,2.11-5.16,3.2-7.73q3.51-8.25,7.09-16.47c.69-1.58,1.51-3.11,2.3-4.72,2.54,1.54,3,3.9,3.2,6.15a4.76,4.76,0,0,0,2.17,3.68,43.69,43.69,0,0,0,4.28,3,14.25,14.25,0,0,0,2.89,1l0,0,.57.51a41.83,41.83,0,0,1,3.27,3.11c5.08,6,11.47,10.32,17.87,14.68.91.63,1.81,1.29,2.71,1.94a19.24,19.24,0,0,0,1.66,2.3,43.41,43.41,0,0,0,9.72,7.7c2.21,1.24,2.32,2,.67,3.89-.94,1.07-2.12,1.93-3.16,2.92-.61.59-1.47,1.2-.89,2.22s1.66.76,2.58.53a5.46,5.46,0,0,0,1.49-.74c1.16-.71,2.33-1.41,3.44-2.18a12.52,12.52,0,0,1,9-2.34q3.63,6.94,7.24,13.89c.33.63.63,1.27.95,1.9,0,2.15,0,4.31,0,6.46,0,3.86-1.48,6.73-5.18,8.24a31.38,31.38,0,0,1-3.3,1.36,4.48,4.48,0,0,0-3.42,3.57c-3.41,1.65-7.12,1.77-10.77,2a107.65,107.65,0,0,1-22.47-1A2.33,2.33,0,0,1,336.38,458.06Z" style="fill:#fca33d"/><path d="M524.17,598.17c-5.54,3.73-11,7.52-16.61,11.19-4.69,3.08-10,4.83-15.09,7.14-3.55,1.61-7,3.41-10.6,5-5.89,2.61-11.82,5.13-17.75,7.66a11.23,11.23,0,0,1-2,.64.87.87,0,0,1-1.18-.82c2.06-5.07,4.11-10.16,6.2-15.21s4.24-10.11,6.4-15.13a11.86,11.86,0,0,1,1.32-1.94c.23-.23.46-.46.7-.68l0,0c2-.32,4-.69,6.05-.94,3.47-.43,6.94-.79,10.41-1.18.87-.09,1.74-.19,2.6-.3l9-1.13c2.67-.34,5.35-.67,8-1a2.5,2.5,0,0,0,.85-.42c1.31-.76,2.56-1.64,3.94-2.27s3.11-1.14,4.67-1.7c1,3.11,2.12,6.21,3.11,9.34A6,6,0,0,1,524.17,598.17Z" style="fill:#feb766"/><path d="M254,110.9c.23-.28.44-.77.72-.81,1.73-.24,3.47-.38,5.21-.57,2.44-.27,4.88-.6,7.33-.8a33.5,33.5,0,0,1,9.05.29,51,51,0,0,1,17,6.76c2.09,1.27,4,2.92,5.94,4.38,3.25,2.39,7.05,3.12,10.93,3.83,3.65.67,7.24,1.73,10.83,2.7,2.85.76,5.66,1.63,8.49,2.47a92.56,92.56,0,0,1,16.69,7.09c.92.49,1.78,1.07,2.72,1.51a9.72,9.72,0,0,1,5,5.82c-3.06-.51-6.17-.85-9.18-1.56-7.2-1.69-14.55-2-21.87-2.71-2.78-.26-5.59-.36-8.36-.74-4.16-.56-8.11-.34-11.76,2a35.63,35.63,0,0,1-4.06,2l-1.42-.44-1.43-.4,1.74-.33a22.31,22.31,0,0,0-1.88-3c-3.21-3.56-6.48-7.07-9.76-10.56a16.3,16.3,0,0,0-2.35-2,112.25,112.25,0,0,0-23-12.73C258.39,112.29,256.17,111.64,254,110.9Z" style="fill:#d8c49b"/><path d="M370.47,403a9.22,9.22,0,0,1-7.71-5.53,39,39,0,0,1-3.59-20.27,44,44,0,0,1,7.62-21.67A32.67,32.67,0,0,1,371.7,350a62.2,62.2,0,0,1,12.93-9.05,27.45,27.45,0,0,1,4.19-1.75c1.87-.61,3.2-.35,5.48.89-.54.69-1,1.36-1.58,2-1.65,1.95-3.31,3.91-5,5.83-6.05,6.91-9.93,15.1-13.09,23.55-1.69,4.49-2.33,9.45-2.93,14.26C371,391.33,370.87,397,370.47,403Z" style="fill:#f8e5bf"/><path d="M477.66,590.4c.26-4.08-.69-8-1.23-12.06a13.59,13.59,0,0,1-.18-1.41,116,116,0,0,0-1.83-16.3,60.59,60.59,0,0,1-.57-6.88c-.21-4.21-.34-8.42-.48-12.64,0-.87.05-1.75.09-2.63,2.64,2.17,5.25,4.38,7.92,6.51,2.93,2.33,5.89,4.62,8.85,6.9,1.71,1.31,3.58,2.43,5.15,3.88,1.82,1.69,3,3.51,2.17,6.45-1.35,4.55-2.05,9.29-3.12,13.93a26.92,26.92,0,0,1-1.6,5,4.56,4.56,0,0,1-1.88,1.72C486.54,585.4,482.09,587.89,477.66,590.4Z" style="fill:#bc0624"/><path d="M380.72,457c.18,1.12-.58,1.74-1.23,2.45a78.17,78.17,0,0,1-14,11.91,89.08,89.08,0,0,1-26.66,12.67c-6.06,1.65-12.12,3.38-18.06,5.42a137.58,137.58,0,0,1-16.92,5.07,82.26,82.26,0,0,1-8.7,1.32c-3.24.31-6.52.28-9.77.56-3.64.31-7.26.8-10.88,1.22-.32,0-.63.15-.94.17-3.66.17-7.32.47-11,.46-4.54,0-9.08-.27-13.62-.46-2.7-.12-5.4-.25-8.1-.48-2.52-.22-5-.59-7.56-.86a8,8,0,0,0-1.45.14c.47.55.68,1,1,1.18a106.72,106.72,0,0,0,23.08,9.74c2.13.63,4.17,1.58,6.3,2.24,7.23,2.24,14.45,4.54,21.74,6.55a78.77,78.77,0,0,0,9.85,1.65,77.84,77.84,0,0,0,8,.9,40.76,40.76,0,0,0,5.68-.56c1-.11,2.05-.2,3.07-.3,0,.68,0,1.29-.88,1.41-3,.42-5.91,1.41-9,.65a3.74,3.74,0,0,0-.94-.13c-5,.07-9.78-1.16-14.66-1.84-7.28-1-14.23-3.33-21.23-5.41-6.34-1.89-12.58-4.12-18.85-6.23-4.89-1.64-9.2-4.38-13.44-7.23a66,66,0,0,1-10.18-8.69c-1.39-1.42-3.05-2.58-4.41-4a82.45,82.45,0,0,1-15.71-23,4.18,4.18,0,0,1-.16-.7c2.25-1.92,4.47-3.88,6.76-5.74a5,5,0,0,1,1.76-.51c-.73,2.85-1.4,5.72-2.21,8.54a4.58,4.58,0,0,0,.13,3.7c3,5.45,6.17,10.81,10.38,15.45a11,11,0,0,0,.88.79c1.2,1.39,2.43,2.76,3.6,4.17a12.48,12.48,0,0,0,8.79,4.32c2.23.21,4.47.26,6.69.45,4.3.37,8.58.82,12.88,1.19,4.77.41,9.54,1,14.32,1.06a93.89,93.89,0,0,0,12.18-.89c6.72-.82,13.44-1.72,20.13-2.8,5.2-.84,10.34-2,15.5-3a34.76,34.76,0,0,0,3.45-1c7.83-2.5,15.65-5,23.49-7.51a96.24,96.24,0,0,0,27.82-14.22c3-2.21,5.93-4.61,8.86-7a21.78,21.78,0,0,0,1.84-1.88Z" style="fill:#99021c"/><path d="M202.63,341.29l1.62-7c3.75,6.54,5.27,13.92,9.62,20.41a22.15,22.15,0,0,1-3.76,1.4c-3.69.65-7.42,1.16-11.13,1.68a14.07,14.07,0,0,1-10.5-2.41c-3.74-2.72-7.29-5.7-10.89-8.61a19,19,0,0,1-1.84-2l2-1c1.44-.68,2.93-1.25,4.28-2.06a5.21,5.21,0,0,1,3.18-.76c1.25.09,2.51,0,3.74,0,.48-1.64-1.15-1.42-1.69-2.47.51-.5,1.09-1.09,1.71-1.64,1.81-1.57,3.68-3.06,5.42-4.69a2.48,2.48,0,0,1,3-.6c2.5,1,4.18,2.52,3.9,5.55a9.31,9.31,0,0,0,.49,4.12Z" style="fill:#fbb564"/><path d="M290,541.45c5.43,0,10.86.15,16.29,0,2.84-.06,5.67-.69,8.51-.83,3.27-.17,6.55,0,9.82-.09a113,113,0,0,0,14.89-1.63c7.21-1.09,13.94-3.79,20.87-5.85,6.77-2,13.61-3.83,20.51-5.36a52.87,52.87,0,0,0,21.49-10.46c4.29-3.4,8.56-6.85,12.74-10.4,2-1.69,3.73-3.69,5.61-5.53,1.07-1,2.19-2,3.29-3.07l1.94,1.91a16.38,16.38,0,0,0-2.65,1.51c-1.77,1.48-3.41,3.12-5.15,4.64-5,4.4-9.95,9-15.19,13.12a54.76,54.76,0,0,1-22.07,11c-5.5,1.24-10.8,3.36-16.23,4.95-3.5,1-7,2-10.61,2.69-4.82,1-9.7,1.68-14.55,2.5-.63.06-1.26.11-1.89.19-1.89.24-3.76.62-5.66.71-5,.24-10,.35-15,.52-.24,0-.48,0-.72,0-3.47.3-6.94.8-10.42.87-7.58.13-15.17,0-22.76,0a19,19,0,0,1-2.38-.17c-4.79-.57-9.59-1.18-14.39-1.73-3.38-.38-6.81-.49-10.16-1.08-5.23-.93-10.41-2.12-15.6-3.27-7.78-1.73-15.4-3.94-22.52-7.65-1.82-.95-3.8-1.61-5.7-2.41s-3.72-1.81-5.53-2.8c-5-2.77-10-5.62-15.06-8.36-1.88-1-3.87-1.86-5.81-2.77h0l-.48-.45c-2.77-1.38-5.51-2.83-8.31-4.14a7.5,7.5,0,0,0-4.4-.47,27.55,27.55,0,0,1-5.64-.29L170,503.6a12.69,12.69,0,0,1,2.39,0,7,7,0,0,1,2.12.85,45,45,0,0,0,5.07,3.07c5.24,2.18,10.08,5.11,15.05,7.78,4.29,2.29,8.71,4.32,13,6.59a189.36,189.36,0,0,0,21.09,9,149.08,149.08,0,0,0,26.91,7.13,4.42,4.42,0,0,0,1,0c5.14-.22,10.08,1.14,15.11,1.82,2.05.28,4.11.44,6.17.6C281.88,540.88,285.92,541.16,290,541.45Z" style="fill:#99021c"/><path d="M521.07,587c-1.56.56-3.17,1-4.67,1.7s-2.63,1.51-3.94,2.27a2.5,2.5,0,0,1-.85.42c-2.67.36-5.35.69-8,1l-9,1.13c-.86.11-1.73.21-2.6.3-3.47.39-6.94.75-10.41,1.18-2,.25-4,.62-6.05.94a10.51,10.51,0,0,1,1.55-1.44c5.45-3.45,10.63-7.3,16.22-10.59s10.79-7.66,16.12-11.58c1.27-.93,2.45-2,3.89-3.15C516.13,575.28,518.89,581,521.07,587Z" style="fill:#fca33d"/><path d="M441.12,160.45a36.48,36.48,0,0,1-9.18-4,18.56,18.56,0,0,1,7.61-2.62c6.42-.82,12.83-1.74,19.34-1.67a117.78,117.78,0,0,1,21.21,2,34.08,34.08,0,0,1,6.1,2c1.77.72,3.4,1.77,5.14,2.57a15.41,15.41,0,0,1,6.64,6.12,21.67,21.67,0,0,1-7.27,3.31l-.55.23-1.43.22a8.37,8.37,0,0,0-5.32-4.75,122.93,122.93,0,0,0-18.28-5.43,40.75,40.75,0,0,0-6.6-.8,45.34,45.34,0,0,0-6.88.44c-2.51.32-5,.86-7.49,1.32-.84.15-1.53.5-1.53,1.52l-.95-.17Z" style="fill:#f8e5bf"/><path d="M412.56,461.39c2.08.15,10.8,4.51,14.77,7.29-.79.48-1.51.89-2.2,1.33-3.32,2.12-3.48,5.69-.38,8.1a8.87,8.87,0,0,0,12.43-1.47c.47-.54.86-1.14,1.48-2l5.68,3.05a9.86,9.86,0,0,1-.82,1.71c-1.34,1.68-2.69,3.37-4.15,4.95A5.27,5.27,0,0,1,437,486c-4,1-8,1.93-12.08,2.78a4,4,0,0,1-4.28-1.95c-1.79-2.55-3.76-5-5.6-7.47a17.49,17.49,0,0,1-3.22-12.89C412.05,464.79,412.31,463.15,412.56,461.39Z" style="fill:#9e846a"/><path d="M442.63,160.88c0-1,.69-1.37,1.53-1.52,2.49-.46,5-1,7.49-1.32a45.34,45.34,0,0,1,6.88-.44,40.75,40.75,0,0,1,6.6.8,122.93,122.93,0,0,1,18.28,5.43,8.37,8.37,0,0,1,5.32,4.75c-2.7,1.22-5.59,1-8.44,1.1-10.7.16-20.85-2.55-30.83-6.05C447.15,162.82,444.91,161.8,442.63,160.88Z" style="fill:#d8c49b"/><path d="M326.09,367a4.91,4.91,0,0,1,1.34-4.38c1-1.12,1.58-2.58,2.56-3.71a74.1,74.1,0,0,1,5.71-6c1.91-1.79,4.05-3.32,6.08-5a12.3,12.3,0,0,1,8.48-3.21c4,.15,8,0,12,.06,3.57.07,7.14.27,10.71.42-1.82,1.88-3.68,3.73-5.45,5.66a2.48,2.48,0,0,1-3.14.8,13.86,13.86,0,0,0-9.38-.19,58.46,58.46,0,0,0-14.9,6.89c-2.95,1.89-6,3.57-9,5.4C329.38,364.77,327.75,365.91,326.09,367Z" style="fill:#fca33d"/><path d="M420.58,495.4c-.12.29-.16.69-.38.84-4.8,3.42-9.57,6.86-14.44,10.17-2.3,1.56-4.79,2.84-7.3,4.32-.79-1.23-.43-2.46-.26-3.67.37-2.61.65-5.21-.21-7.79,1-.79,1.89-1.63,2.89-2.38,3.56-2.72,7.17-5.39,9.61-9.26a35.13,35.13,0,0,1,3.82,2.34C416.46,491.7,418.49,493.58,420.58,495.4Z" style="fill:#df0428"/><path d="M496,579.06a11.31,11.31,0,0,1,0-2.76c2.59-9.37,3.21-19.23,6.91-28.76a14.46,14.46,0,0,1,1.15,1.6c2.45,5.2,4.84,10.42,7.32,15.59.68,1.4,0,2.35-.84,3.18-2,1.88-3.92,3.75-6,5.45-2.29,1.85-4.73,3.51-7.12,5.23A6.64,6.64,0,0,1,496,579.06Z" style="fill:#4f5902"/><path d="M410.49,487.63c-2.44,3.87-6.05,6.54-9.61,9.26-1,.75-1.93,1.59-2.89,2.38s-2.15,1.64-3.28,2.36c-5.49,3.54-10.92,7.2-16.9,9.87-3.05,1.36-6.26,2.35-9.34,3.64a237.32,237.32,0,0,0-22,10.43,67.74,67.74,0,0,1-16.59,6.5c-2.71.65-5.27,1.1-8,.29a3,3,0,0,1-.83-.42c-.11-.07-.12-.27-.25-.61l2.25-.83c2.16.84,4.3.25,6.31-.34a67.15,67.15,0,0,0,9.17-3.39c7-3.24,13.74-6.79,20.7-10,5.06-2.33,10.24-4.43,15.45-6.42a57.71,57.71,0,0,0,16.74-9.54c1.09-.92,2.27-1.74,3.45-2.56a64,64,0,0,0,12.8-12.45C409.1,485.73,409.75,486.75,410.49,487.63Z" style="fill:#99021c"/><path d="M349,403.82c-3.9-1.35-7.1-3.86-10.42-6.2-3.67-2.58-6.68-5.88-9.82-9.05a10.47,10.47,0,0,1-1-1.48c1.37.18,2.36.28,3.35.44,3.45.58,6.88,1.25,10.34,1.74a24.76,24.76,0,0,1,9,3c.16.35.23.86.5,1a6.09,6.09,0,0,1,2.43,3.7c.4,1.28.79,2.58,1.12,3.88.43,1.73.3,2.08-1.51,2.52A26.32,26.32,0,0,1,349,403.82Z" style="fill:#f3415e"/><path d="M167.19,312.11c3.05-2.33,6.41-1.19,9.69-.81.32,0,.7.6.84,1,.26.74.34,1.55.54,2.33,1.14,4.39,2.19,8.82,3.47,13.17a2.65,2.65,0,0,1-1.19,3.44c-.34.21-.64.48-1,.69-1.8,1.15-2.42,1.09-3.91-.52-4.73-5.07-7.1-11.27-8.57-17.9a4.39,4.39,0,0,1,0-1A1.43,1.43,0,0,1,167.19,312.11Z" style="fill:#fbb564"/><path d="M360.56,362c-.05.23-.09.47-.16.69-.73,2.38-2.24,3.24-4.81,3.24a97.91,97.91,0,0,0-11.19.9A21.74,21.74,0,0,0,340,367.9c-4.68,1.58-9.34,3.24-14,4.86a11.18,11.18,0,0,1-1.17.28,8.23,8.23,0,0,1,4-5.27c3.74-2.13,7.52-4.18,11.28-6.26.79-.1,1.57-.22,2.35-.29,2.21-.22,4.41-.53,6.62-.57,2,0,3.95.29,5.92.37S358.85,360.87,360.56,362Z" style="fill:#df0428"/><path d="M444.59,426.22a17.27,17.27,0,0,1,8.09-4.7c3-.75,8.44,3,8.81,6,.52,4.14,1.39,8.26-.71,12.18-2.29,4.3-5.81,6.92-10.82,7.15-2,.09-4.11-1.72-5.21-4.55a8.69,8.69,0,0,0,7.66-.59,8.28,8.28,0,0,0,4.43-5.37c1-3.33.8-6.45-1.38-9.32a4.48,4.48,0,0,0-4.52-2.08,41.52,41.52,0,0,0-4.4,1.08,11.74,11.74,0,0,0-1.66.75Z" style="fill:#9e846a"/><path d="M374,421.94a12.52,12.52,0,0,0-9,2.34c-1.11.77-2.28,1.47-3.44,2.18a5.46,5.46,0,0,1-1.49.74c-.92.23-2,.53-2.58-.53s.28-1.63.89-2.22c1-1,2.22-1.85,3.16-2.92,1.65-1.9,1.54-2.65-.67-3.89a43.41,43.41,0,0,1-9.72-7.7,19.24,19.24,0,0,1-1.66-2.3c2.27,1,4.52,2,6.81,2.85,2.83,1.08,5.64,2.22,8.55,3a46.65,46.65,0,0,0,6.48.89A21.27,21.27,0,0,1,374,421.94Z" style="fill:#794007"/><path d="M455.94,432.6a10.5,10.5,0,0,1-2.07,5.66c-1.47,2.14-5,3.35-7.29,2.34s-3.13-3.15-3.43-5.41a7.61,7.61,0,0,1,9.14-8.42,3,3,0,0,1,2.39,1.79C455.21,429.86,455.53,431.25,455.94,432.6Z" style="fill:#9e846a"/><path d="M349,403.82a26.32,26.32,0,0,0,4-.4c1.81-.44,1.94-.79,1.51-2.52-.33-1.3-.72-2.6-1.12-3.88a6.09,6.09,0,0,0-2.43-3.7c-.27-.16-.34-.67-.5-1,2.12.64,4.26,1.23,6.36,2a2.21,2.21,0,0,1,1.27,1.2c1.44,4.63,4.62,7.5,9,9.2a9.74,9.74,0,0,1,1.21.75,22,22,0,0,1-1.93,2.74,3.63,3.63,0,0,1-3.67,1.05A57.24,57.24,0,0,1,349,403.82Z" style="fill:#df0428"/><path d="M360.56,362c-1.71-1.09-3.64-.86-5.53-.94s-3.95-.41-5.92-.37c-2.21,0-4.41.35-6.62.57-.78.07-1.56.19-2.35.29,2.46-1.44,4.82-3.08,7.38-4.28,3-1.41,6.19-2.45,9.31-3.62a9.15,9.15,0,0,1,7.69.56c-.65,1.4-1.24,2.74-1.9,4S361.25,360.71,360.56,362Z" style="fill:#f3415e"/><path d="M192.27,313.79c-1.63,3.92-3.05,7.72-4.81,11.35-.65,1.33-2.11,2.27-3.09,3.28-.49-.17-.71-.18-.77-.28a11.74,11.74,0,0,1-.82-10.09,2.61,2.61,0,0,1,1.16-1.47c2.35-1.12,4.76-2.12,7.17-3.13C191.27,313.38,191.54,313.57,192.27,313.79Z" style="fill:#fca33d"/><path d="M384,338.77c.18-2.44.37-4.87.53-7.31.05-.72,0-1.46-.91-1.67a13,13,0,0,0,5.52-5.79c1.95,2.16,4.07,9.85,3.78,13.57C389.81,336.65,386.88,337.45,384,338.77Z" style="fill:#fca33d"/><path d="M370.27,457.36a4.48,4.48,0,0,1,3.42-3.57,31.38,31.38,0,0,0,3.3-1.36c3.7-1.51,5.21-4.38,5.18-8.24,0-2.15,0-4.31,0-6.46l6.13,7.84c-2.21,3.32-4.78,6.72-8.91,8.43C376.43,455.25,373.33,456.25,370.27,457.36Z" style="fill:#fbb564"/><path d="M160.88,323.16a14.76,14.76,0,0,1,2.36-1c2.68-.64,3.09-.28,4.27,2.23,1.38,2.93,3,5.77,4.44,8.66.35.68.61,1.41.92,2.11-1.55-.62-3.11-1.2-4.63-1.89a6.93,6.93,0,0,1-2.18-1.41A21.68,21.68,0,0,1,160.88,323.16Z" style="fill:#fca33d"/><path d="M354.75,367.46a3.82,3.82,0,0,1-.66,4.61c-1.18,1.43-2.73,2.48-4.58,1.9a36,36,0,0,1-5.56-2.61,2.56,2.56,0,0,1-.91-1.08c-.56-1-.3-1.68.78-2a20.55,20.55,0,0,1,2.34-.45,7.45,7.45,0,0,1,.95-.07Z" style="fill:#f8e5bf"/><path d="M436.55,474.65c-1.94,2.2-4.05,3.68-7,3.57a6.36,6.36,0,0,1-4.37-2.17c-1.24-1.3-1-2.58.65-3.13C429.94,471.53,433.17,471.07,436.55,474.65Z" style="fill:#9e846a"/><path d="M176,303c.31.24.63.47.93.73a1.26,1.26,0,0,1-.09,2.19,11.63,11.63,0,0,1-8.68,2.47,2.06,2.06,0,0,1-1.47-3.48,31.58,31.58,0,0,1,2.72-2.95C171.52,303.09,173.78,303,176,303Z" style="fill:#fbb564"/><path d="M183.58,337.57l-4.25-3.2,3.72-3.07a5.38,5.38,0,0,1,1.2.49,3.15,3.15,0,0,0,3.55.14,7.57,7.57,0,0,1,4.8-1C191.63,333,188.73,335.16,183.58,337.57Z" style="fill:#fbb564"/><path d="M160.88,323.16a21.68,21.68,0,0,0,5.18,8.68,6.93,6.93,0,0,0,2.18,1.41c1.52.69,3.08,1.27,4.63,1.89-2.17,2.25-4.3,2.44-6,.35-2.93-3.55-5.77-7.18-8.62-10.81a14.93,14.93,0,0,1-1.08-2.11Z" style="fill:#fbb564"/><path d="M166.12,320.42c-1.81.25-3.05.53-4.29.58a2.91,2.91,0,0,1-2.63-3.85c.77-1.81,1.74-3.54,2.82-5.69Z" style="fill:#fca33d"/><path d="M190.3,325.15l6.74-7a1.94,1.94,0,0,1,1.12,2.63c-.37,1.3-.63,2.63-.91,4-.23,1.08-.69,1.75-2,1.45C193.83,325.81,192.36,325.56,190.3,325.15Z" style="fill:#fca33d"/><path d="M348,389.22a8.65,8.65,0,0,1,2-.89,37.39,37.39,0,0,1,5-.38c1.56,0,2,.39,2.2,1.88a22.38,22.38,0,0,1,0,2.87c-3.4,0-6.1-1.89-9.08-2.84Z" style="fill:#f8e5bf"/><path d="M179.86,339.69c-2.43.66-4.38,1.31-6.38,1.7-1.42.28-1.89-.22-2.85-2.22C174.16,336.33,175.91,336.44,179.86,339.69Z" style="fill:#fbb564"/><path d="M341.09,369.2c.4,2.46,0,3.2-2.16,3.28a26.78,26.78,0,0,1-4.13-.42C335.9,370.59,337.94,369.69,341.09,369.2Z" style="fill:#f8e5bf"/><path d="M176,303c-2.26,0-4.52.12-6.59-1l2.11-2.23Z" style="fill:#fca33d"/><path d="M475.52,596c-.24.22-.47.45-.7.68C475.05,596.46,475.28,596.23,475.52,596Z" style="fill:#fca33d"/><path d="M252.49,110.53l.54.18Z" style="fill:#d8c49b"/><path d="M441.12,160.45l.56.26Z" style="fill:#d8c49b"/><path d="M325.61,387.91l-.57-.51Z" style="fill:#feb766"/><path d="M490.16,168.36l.55-.23Z" style="fill:#d8c49b"/><path d="M212.24,526.64c1.9.8,3.88,1.46,5.7,2.41,7.12,3.71,14.74,5.92,22.52,7.65,5.19,1.15,10.37,2.34,15.6,3.27,3.35.59,6.78.7,10.16,1.08,4.8.55,9.6,1.16,14.39,1.73A19,19,0,0,0,283,543c7.59,0,15.18.1,22.76,0,3.48-.07,6.95-.57,10.42-.87.24,0,.48,0,.72,0,5-.17,10-.28,15-.52,1.9-.09,3.77-.47,5.66-.71.63-.08,1.26-.13,1.89-.19-.16.36-.23.83-.5,1a37.1,37.1,0,0,0-8.8,9.68c-1.29,2.1-3.6,3.1-5.62,4.36a10.34,10.34,0,0,1-7.5,1.36c-3.52-.54-7.11-.72-10.58-1.59-1.39-.35-2.73-.88-4.12-1.25-4-1.05-8-2.07-12-3.1a8.33,8.33,0,0,1-1.13-.38A33.18,33.18,0,0,0,276,548.23c-3.61.08-5.28,1.37-6,4.85a6.55,6.55,0,0,1-.25,1.64c-2,3.72-.92,7.44-.09,11.16,1.3,5.9,2.65,11.78,3.95,17.68a12,12,0,0,1,0,2.21A10.85,10.85,0,0,1,271,585c-3.73-2.27-7.72-4.09-11.29-6.68-3.74-2.71-7.76-5-11.72-7.41a31,31,0,0,1-6.87-6.25c0-.06-.06-.17-.11-.21-3.55-2.4-5.34-6.41-8.47-9.22a32.67,32.67,0,0,1-3.4-4,28.79,28.79,0,0,0-2.3-3,40.9,40.9,0,0,1-7.5-9.86,5.63,5.63,0,0,0-.89-1.41C215.39,534.11,214.3,530.08,212.24,526.64Z" style="fill:#bc0624"/><path d="M265.35,368.21c-1.2-.27-3.09-.56-4.9-1.12-4.72-1.45-9.47-2.81-13.86-5.17a21.71,21.71,0,0,0-3.5-1.53c-5.46-1.76-8.83-5.25-10.07-11-1.38-6.45-3.14-12.82-4.76-19.21-.91-3.63-1.79-7.26-2.83-10.85a9.17,9.17,0,0,1-.21-5.36c1-3.42,1.15-7.09,3-10.29a19.89,19.89,0,0,1,7-7.67,8.58,8.58,0,0,1,8.21-.5,35.2,35.2,0,0,1,3.51,2,20.27,20.27,0,0,0,3.37,1.8c5.5,1.84,10.3,5.06,15.48,7.53a74.31,74.31,0,0,0,7.34,2.77c1.73.61,3.51,1,5.24,1.66,1.5.54,1.32.81,1.32,2.51,0,3.53-1.6,6.62-2.44,9.91a9.79,9.79,0,0,1-1.19,2.59,15.3,15.3,0,0,0-2.32,8.16c.1,7.78-.69,5.31,3,13a41.13,41.13,0,0,0,6.54,9.37,9.78,9.78,0,0,1,1.83,4.34,2.37,2.37,0,0,1-.75,1.85,54.83,54.83,0,0,1-4.17,3.57,3,3,0,0,1-1.54.6c-2.29.22-4.59.36-6.89.53Z" style="fill:#fda43d"/><path d="M269.36,268l-1.55-1.44a29.32,29.32,0,0,1,2.2-2,116.63,116.63,0,0,1,16.12-9.89,30.69,30.69,0,0,1,11.13-3.47c5.85-.61,10.74,1.71,15.46,4.78,1.92,1.25,4.06,2.17,6.1,3.24l3.09,1.26,0,.55a20.44,20.44,0,0,1-2.86.67c-1.48.13-3,.08-4.47.1l-7-4.92c-.79,8.39-.72,7.43-5.59,11.45a43.46,43.46,0,0,0,11-3.22c2.22-.07,4.4-1.2,7.25-.16L313.89,267l-13.79,3.42c-2,.28-4,.91-5.89.78a97.47,97.47,0,0,1-10.62-1.45,75.73,75.73,0,0,1-7.42-1.82,7,7,0,0,0-4.44-.09A9.23,9.23,0,0,1,269.36,268Zm16-8.33a22.08,22.08,0,0,0-7.64,5.84c3.9,2.18,11.35,3.73,13.76,2.67C287.85,266.44,287,262.85,285.37,259.64Zm17.46-.24c0-.42-.06-.74-.09-1.06-.21-2.4-.6-2.64-3-2.17s-4.38,2.2-6.33,3.69a1.63,1.63,0,0,0-.37,1.27c.1,1.19.8,1.7,2.24,1.42a10.89,10.89,0,0,1,4.95.06c1.34.35,2.06-.28,2.41-1.66C302.73,260.42,302.76,259.85,302.83,259.4Z" style="fill:#3f2207"/><path d="M331.27,326.45c-.21.11-.43.33-.63.32-2.64-.24-4.34,1.67-6.36,2.81a6.42,6.42,0,0,0-1.74,1.91c-2.46,3.39-4.7,7-7.38,10.16-1.43,1.71-2.46,3.92-4.69,4.89a94.31,94.31,0,0,1,7.89-20.25,31.44,31.44,0,0,1,6.59-8.74c1.87-1.73,3.57-3.64,5.34-5.47l1.37.44c-.15.28-.28.56-.44.83C328.42,317.73,328.39,322.1,331.27,326.45Z" style="fill:#fca33d"/><path d="M300.1,270.37,313.89,267c3.4-.16,6.79-.33,10.18-.46,1.43-.06,2.86,0,4.29,0-2.22,4.55-4.39,9.12-7.51,13.15a2.78,2.78,0,0,0-1.45-2.6c-1.84-.89-3.77-1.64-5.69-2.35-.88-.32-2-.22-2.76-.67a15,15,0,0,0-8.76-1.77C300.87,272.32,300,271.91,300.1,270.37Z" style="fill:#fca33d"/><path d="M320.85,279.61c3.12-4,5.29-8.6,7.51-13.15a19.64,19.64,0,0,0,1.9-4.26c.54-2.85.69-5.77,1-8.67.2-2.52.38-5,.58-7.57.11-1.34.24-2.68.37-4,.09-.9.64-1,1.35-.72a17.81,17.81,0,0,1,.51,3.51c-.25,4.53-.56,9.06-1,13.58a15.13,15.13,0,0,1-2.31,6.72c-1.07,1.66-1.93,3.45-2.89,5.18-1.73,3.05-3.52,6.06-5.17,9.15-3.31,6.21-8.49,10.25-14.8,13a8.57,8.57,0,0,0-1.3.61,12.58,12.58,0,0,1-8,1.85,29.24,29.24,0,0,1-8.38-2l1.35-.82c5.73-.27,11.46-.73,16.84-2.91C313.36,287.05,318.12,284.64,320.85,279.61Z" style="fill:#794007"/><path d="M352.36,319.68a8.6,8.6,0,0,1,2.18-.84,15.55,15.55,0,0,1,9.7,1.78,16,16,0,0,0,3.31,1.37,3.54,3.54,0,0,0,3.79-.83c1.78-1.85,3.9-1.8,6.14-1.35-1,.75-2.09,1.43-3,2.27a57.61,57.61,0,0,0-5.15,5,9.09,9.09,0,0,1-7.32,3.26h-.47c-.09-1.31-1.11-1.74-2.09-2.22L357.21,327c1.14-.28,2.43,1.05,3.66-.4A28.28,28.28,0,0,0,352.36,319.68Z" style="fill:#fca33d"/><path d="M330.29,312.08c-1.77,1.83-3.47,3.74-5.34,5.47a31.44,31.44,0,0,0-6.59,8.74,94.31,94.31,0,0,0-7.89,20.25c-.42,1.19-.84,2.38-1.25,3.57-.19.53-.22,1.23-.58,1.54a5.74,5.74,0,0,1-1.84.67c-.12-.58-.54-1.31-.32-1.7,3.39-6.31,4.35-13.5,7.28-20s6.41-12.13,12.11-16.36c1-.76,1.87-1.74,2.82-2.58.62-.54,1.3-1,1.95-1.53l.41.38Z" style="fill:#794007"/><path d="M352.36,319.68a28.28,28.28,0,0,1,8.51,6.91c-1.23,1.45-2.52.12-3.66.4a24,24,0,0,0-13.38-1.29,6.46,6.46,0,0,1-5.76-1.35C340.06,321.92,346.16,320,352.36,319.68Z" style="fill:#3f2207"/><path d="M361.52,330.32H362a9.09,9.09,0,0,0,7.32-3.26,57.61,57.61,0,0,1,5.15-5c.93-.84,2-1.52,3-2.27,3.88.43,6,3.35,4.49,6.59l-1.63-1.84c-.41.3-.85.6-1.25.94a13,13,0,0,1-1.22,1.13c-2,1.32-4,2.53-6.39.16-1.31,1.16-2.6,2.18-3.76,3.34a5.39,5.39,0,0,1-5.69,1.38C361.41,331.34,361,331,361.52,330.32Z" style="fill:#3f2207"/><path d="M331.27,326.45c-2.88-4.35-2.85-8.72,0-13.1.16-.27.29-.55.44-.83,1.37-1.19,2.66-2.49,4.13-3.53,1.18-.83,1.53-.61,2.34.68-1.26,1.38-2.55,2.74-3.78,4.15-.88,1-1.69,2-2.52,3.05a7.87,7.87,0,0,0,2.79,9.48,10.37,10.37,0,0,1,1.11.87c.1.09.08.3.13.48-.57,1.1-1.45.79-2.23.37A24.68,24.68,0,0,1,331.27,326.45Z" style="fill:#794007"/><path d="M327.86,270.21c1-1.73,1.82-3.52,2.89-5.18a15.13,15.13,0,0,0,2.31-6.72c.45-4.52.76-9.05,1-13.58a17.81,17.81,0,0,0-.51-3.51,7.18,7.18,0,0,0-6.64-7.84c-.55-.08-1.11-.07-1.67-.11a48.16,48.16,0,0,1,5.1-1.89c3.45-.86,4.33-1.68,5-5.39-1.85-2-4.4-2-6.83-2.16-4.68-.26-9.37-.35-14.06-.51.16-1.24,1.25-1.58,2.12-2A56.52,56.52,0,0,1,334,215.61a5.76,5.76,0,0,0,3.74-1.85c.68-.79,1.54-1.41,2.17-2.22,1.28-1.66,3.16-2.09,5-2.57a2.56,2.56,0,0,1,2.93,1.1c0,.48-.08,1-.06,1.43.09,3.5.34,7,.26,10.5a11.54,11.54,0,0,1-2.06,6.07c-.66,1-1.28,2-1.9,3.05-.36.59-.55,1.19.24,1.63,0,1.83-.05,3.66,0,5.5a4.23,4.23,0,0,0,2.93,4c.37.15.95-.19,1.43-.31,1.52.12,1.37-1,1.38-1.94.12-7.16.21-14.32.31-21.47a50,50,0,0,0,10.28,1.62c2.64.06,3,1,3.36,3.7,1,7.94.24,15.9.42,23.85.05,2.29-.25,4.58-.39,6.88a10.83,10.83,0,0,1-.18,1.9,11.13,11.13,0,0,0,.51,6.79c.85,2.48,1.47,5,2.2,7.57-2.95-1.68-5.86-3.45-8.86-5a37.93,37.93,0,0,0-4.69-1.69l-4.49-1.62-1.33.66c-.33,0-.85-.21-1-.07-.58.74-1.05,1.56-1.56,2.36q-2.82,4.35-5.62,8.72c-3.18.57-6-.95-8.95-1.59-.61-.13-1.19-.35-1.92-.56Z" style="fill:#feb766"/><path d="M314.49,223.32c4.69.16,9.38.25,14.06.51,2.43.14,5,.13,6.83,2.16-.7,3.71-1.58,4.53-5,5.39a48.16,48.16,0,0,0-5.1,1.89l-4,1.11c-2.84.34-5.68.88-8.53,1-5.65.22-11.31.26-17,.29a13.64,13.64,0,0,0-7.16,1.57c-4.36,2.62-8.61,5.42-12.91,8.14l-15.78,7.67c-.35.17-.71.34-1.08.48-1.68.63-1.81.55-2.31-1.4.16-.36.35-.71.48-1.08a13.88,13.88,0,0,1,5.94-7.52c7-4.26,13.78-8.88,21.32-12.19,4.78-1.73,9.53-3.59,14.36-5.16,4.39-1.42,8.82-2.76,13.54-2.54A12.06,12.06,0,0,0,314.49,223.32Z" style="fill:#3a1f05"/><path d="M411.34,241.61A22,22,0,0,1,412.61,253c-1.24,0-1.72-1-2.25-1.82a17.54,17.54,0,0,0-10.6-7.28,8.49,8.49,0,0,0-3.29-.38c-4.47.71-9.05,1-13.26,2.92-3.42.13-6.84.27-10.25.38-1.67.05-3.37-.17-4.9.78-.14.09-.52-.18-.79-.29l5.38-6.18a72.36,72.36,0,0,0,12.19-7,13.78,13.78,0,0,1,2.53-1.31c3.95-1.71,7.77-.87,11.53.71,1.31.55,2.57,1.22,3.86,1.84a2.48,2.48,0,0,0,.55.43,20,20,0,0,1,7.57,5.26l.53.53Z" style="fill:#3a1f05"/><path d="M275.66,245.38c4.3-2.72,8.55-5.52,12.91-8.14a13.64,13.64,0,0,1,7.16-1.57c5.65,0,11.31-.07,17-.29,2.85-.12,5.69-.66,8.53-1l-5.32,3.81-9,2.89c-.53.17-1.06.36-1.59.51-10.09,3-19.26,7.88-28,13.66-2.12,1.4-4.31,2.69-6.47,4-.67-.06-1.12-.38-.86-1.09.81-2.21,1.59-4.45,2.56-6.6.72-1.58,1.75-3,2.59-4.56A10,10,0,0,0,275.66,245.38Z" style="fill:#fbb564"/><path d="M367.27,247.27c.27.11.65.38.79.29,1.53-.95,3.23-.73,4.9-.78,3.41-.11,6.83-.25,10.25-.38-.85,1.64-.9,1.87.56,2.6,2.63,1.32,5.35,2.47,8,3.65,3.73,1.63,7.48,3.19,11.19,4.85a19.67,19.67,0,0,1,6.64,5,5.89,5.89,0,0,1,.72,1.61,14.11,14.11,0,0,1-1.88-1.33,19.63,19.63,0,0,0-13.48-6c-.29-.25-.57-.69-.88-.71-4-.33-7.68-2-11.48-3.15a6.54,6.54,0,0,0-3.94,0,13,13,0,0,0-7.25,6.19l0,0-.78.62c-3,3.09-3.35,6.57-1.58,10.37.74,1.59,1.47,3.2,2.32,4.74a33.44,33.44,0,0,0,2,2.93c.59,1.19,1.19,2.38,1.76,3.58.36.74.45,1.4-.66,1.52l-1.92-1.72a17.22,17.22,0,0,0,.24,6.21c.31,1.3.71,2.6-.29,3.8a15.74,15.74,0,0,1-1.44-2.91c-1.33-5-2.54-10-3.82-15-.21-.84-.53-1.65-.8-2.48-.72-2.53-1.34-5.09-2.19-7.57a11.13,11.13,0,0,1-.51-6.79,10.83,10.83,0,0,0,.18-1.9c.67-1.68,1.32-3.38,2-5A24.66,24.66,0,0,1,367.27,247.27Z" style="fill:#794007"/><path d="M402.76,235.38c-1.29-.62-2.55-1.29-3.86-1.84-3.76-1.58-7.58-2.42-11.53-.71a13.78,13.78,0,0,0-2.53,1.31,72.36,72.36,0,0,1-12.19,7c-.49-.67-1-1.35-1.48-2-.27-.34-.59-.63-.88-.94A8.39,8.39,0,0,0,370,236c-2-5.2-1.83-10.69-2.21-16.11,2.35-1.9,3.36-1.85,6,0a19.37,19.37,0,0,0,3.08,1.47,2.58,2.58,0,0,0,1.33,3.05,11.51,11.51,0,0,0,3.9,1.62c2.7.4,5.28.89,7.32,2.89,0,0,.15,0,.36,0l.15-1.33c.9.47,1.8,1,2.7,1.41,1.83.92,3.68,1.81,5.5,2.76a36.5,36.5,0,0,1,3.7,2.12C402.28,234.19,402.46,234.87,402.76,235.38Z" style="fill:#fbb564"/><path d="M284.23,231.34c-7.54,3.31-14.33,7.93-21.32,12.19a13.88,13.88,0,0,0-5.94,7.52c-.13.37-.32.72-.48,1.08-2-.44-2.78-1.3-2.43-3.53a22.77,22.77,0,0,1,1.75-6.63A116.07,116.07,0,0,1,262,231.51c1-1.51,2.77-1.93,4.43-1.95,4.51-.05,9-.38,13.51.8a28.53,28.53,0,0,0,3.09.16C283.45,230.58,283.82,231.05,284.23,231.34Z" style="fill:#fbb564"/><path d="M270.82,259.28c2.16-1.34,4.35-2.63,6.47-4,8.73-5.78,17.9-10.67,28-13.66.53-.15,1.06-.34,1.59-.51l9-2.89c1.66.12,3.33.29,5,.37,2.61.13,3.55,2.16,4.61,4a1.36,1.36,0,0,1-.2,1.28c-2,1.68-3.93,3.49-6.69,4a2.79,2.79,0,0,1-3-1c-.55-.68-1.17-1.31-1.77-1.95a5.73,5.73,0,0,0-5.22-1.69c-7.31.76-13.73,3.89-20.1,7.26a83,83,0,0,0-13.4,8.73,51,51,0,0,1-7.8,4.61,5,5,0,0,1-4.06.62C265.43,262,268.45,261.08,270.82,259.28Z" style="fill:#794007"/><path d="M331.26,253.53c-.31,2.9-.46,5.82-1,8.67a19.64,19.64,0,0,1-1.9,4.26c-1.43,0-2.86,0-4.29,0-3.39.13-6.78.3-10.18.46l6.29-2.05c-2.85-1-5,.09-7.25.16l1.62-3.31c1.49,0,3,0,4.47-.1a20.44,20.44,0,0,0,2.86-.67l0-.55-3.09-1.26c.38-1.35,1.71-.82,2.56-1.25,1.24-.62,2.6-1,3.89-1.53.58-.23,1.15-.88,1.67-.82C328.85,255.77,330,254.54,331.26,253.53Z" style="fill:#fbb564"/><path d="M374.05,198.64a10,10,0,0,1-1.84-.62c-4.72-2.68-9.62-5.1-14.06-8.18s-9.23-3.6-14.36-2.9c-6.61.92-12.84,3.11-19,5.49-1.71.66-3.45,1.25-5.19,1.83a18.81,18.81,0,0,1-2.08.47c-.28-1.33.59-1.53,1.29-1.79,4-1.46,7.9-3,11.93-4.31a76,76,0,0,1,14.39-3.46c4.5-.51,8.67,0,12.6,2.55,4.82,3.11,9.82,5.95,14.74,8.92.66.4,1.29.85,1.93,1.28Z" style="fill:#794007"/><path d="M344.25,232.75c-.79-.44-.6-1-.24-1.63.62-1,1.24-2.05,1.9-3.05A11.54,11.54,0,0,0,348,222c.08-3.49-.17-7-.26-10.5,0-.48,0-.95.06-1.43,1.27-.43,1.54.54,1.7,1.37.26,1.32.35,2.67.5,4,.12,1,.22,2,.33,3.05-.1,7.15-.19,14.31-.31,21.47,0,.9.14,2.06-1.38,1.94-.08-3.93-.33-7.85-.76-12.09Z" style="fill:#794007"/><path d="M367.81,219.93c.38,5.42.18,10.91,2.21,16.11a8.39,8.39,0,0,1,.27,2.1l-2,1a31.71,31.71,0,0,1-1.61-8.14c-.28-2.76-.61-5.53-.86-8.3-.24-2.6-1-5.2-.29-8.18C367.53,216.13,367.15,218.24,367.81,219.93Z" style="fill:#794007"/><path d="M389.93,227.6l-.15,1.33c-.21,0-.33.06-.36,0-2-2-4.62-2.49-7.32-2.89a11.51,11.51,0,0,1-3.9-1.62,2.58,2.58,0,0,1-1.33-3.05c.45.1,1.09,0,1.33.32,1.75,2,4.14,2.18,6.5,2.57C386.88,224.64,388.84,225.46,389.93,227.6Z" style="fill:#794007"/><path d="M330.93,205.32c1.75,2.28,1.12,5.81-1.16,6.86a53.08,53.08,0,0,1-6,2.2c-.4.14-1-.2-1.54-.8.74-.38,1.46-.79,2.21-1.14,1-.47,2.06-.85,3.05-1.34,1.75-.86,3-2.11,3-4.23A6.39,6.39,0,0,1,330.93,205.32Z" style="fill:#794007"/><path d="M411.41,241.6l-.53-.53Z" style="fill:#feb766"/><path d="M185.37,512.27l.48.45Z" style="fill:#e00428"/><path d="M339,274.14q2.81-4.36,5.62-8.72c.51-.8,1-1.62,1.56-2.36.11-.14.63,0,1,.07a31.06,31.06,0,0,1-1.8,4.13c-2.25,3.67-4.64,7.26-7,10.86a10.09,10.09,0,0,1-1.31,1.39l-.52-.37C337.32,277.47,338.16,275.81,339,274.14Z" style="fill:#794007"/><path d="M374.52,282.9c1.11-.12,1-.78.66-1.52-.57-1.2-1.17-2.39-1.76-3.58,1-1.44,1.95-2.88,2.95-4.3a4,4,0,0,1,4.14-1.74c2,.26,4.09.31,6.14.45a18.31,18.31,0,0,1,2.35.15c2.57.51,5.1,1.25,7.68,1.57a15.65,15.65,0,0,0,5.63-.19,66.85,66.85,0,0,0,7.3-2.72,5.65,5.65,0,0,0,1.06.73,12.31,12.31,0,0,0,1.73.5c1,1.39.4,2.69-.59,3.6a19.66,19.66,0,0,1-4.43,3.16,28.4,28.4,0,0,1-10.17,3.22,16.22,16.22,0,0,1-4.94-.49,4.9,4.9,0,0,0-5.56,2.11,5.12,5.12,0,0,0,.23,5.84c5.62,6.22,12.13,11,20.57,12.66,1,.19,2.07,0,3.1.15A23.87,23.87,0,0,1,413,303c-1.13,2.34-3.17,2.23-4.68,2.12a30.65,30.65,0,0,1-13.21-3.66,61.12,61.12,0,0,1-8.56-6,59.9,59.9,0,0,1-5.55-5.91c-1.42-1.55-3.38-2.57-4.07-4.84C376.67,283.92,375.35,283.48,374.52,282.9Z" style="fill:#fca33d"/><path d="M412.4,272.25a12.31,12.31,0,0,1-1.73-.5,5.65,5.65,0,0,1-1.06-.73,66.85,66.85,0,0,1-7.3,2.72,15.65,15.65,0,0,1-5.63.19c-2.58-.32-5.11-1.06-7.68-1.57a18.31,18.31,0,0,0-2.35-.15c-2.27-.31-4.53-.69-6.81-.91-3.61-.34-6-2.66-8.4-5a6.27,6.27,0,0,1-.84-2c2.32-.88,4.47-1.65,6.59-2.5s4.24-1.77,6.35-2.65c.83-.25,1.67-.46,2.47-.76a22,22,0,0,1,9-1.6,19.63,19.63,0,0,1,13.48,6,14.11,14.11,0,0,0,1.88,1.33,9.06,9.06,0,0,0,1.29,2,3.62,3.62,0,0,1,1,4.3A8,8,0,0,0,412.4,272.25Zm-39.25-7.06c2.13,3.53,9.82,5.71,13.12,3.69-.53-1.45-1-2.95-1.64-4.41a2.33,2.33,0,0,0-2.78-1.65,22.49,22.49,0,0,0-2.51.74l-4.14,1.11C374.53,264.85,373.86,265,373.15,265.19Zm22.08-1.95c0-1.53-.69-2.1-2.49-2.1s-3.21,1-3.19,2.2c0,2,1.18,3.36,2.72,3.3A3.23,3.23,0,0,0,395.23,263.24Zm9.86,2-4.62,6.49c1.34.63,2.68.12,4-.38a3.14,3.14,0,0,0,2.16-2.88A3,3,0,0,0,405.09,265.25Z" style="fill:#3f2207"/><path d="M285.37,259.64c1.63,3.21,2.48,6.8,6.12,8.51-2.41,1.06-9.86-.49-13.76-2.67A22.08,22.08,0,0,1,285.37,259.64Z" style="fill:#f8e5bf"/><path d="M314.55,261.75l-1.62,3.31a43.46,43.46,0,0,1-11,3.22c4.87-4,4.8-3.06,5.59-11.45Z" style="fill:#f8e5bf"/><path d="M302.83,259.4c-.07.45-.1,1-.23,1.55-.35,1.38-1.07,2-2.41,1.66a10.89,10.89,0,0,0-4.95-.06c-1.44.28-2.14-.23-2.24-1.42a1.63,1.63,0,0,1,.37-1.27c1.95-1.49,3.77-3.21,6.33-3.69s2.83-.23,3,2.17C302.77,258.66,302.79,259,302.83,259.4Z" style="fill:#f8e5bf"/><path d="M344.25,232.75l3.6-2.94c.43,4.24.68,8.16.76,12.09-.48.12-1.06.46-1.43.31a4.23,4.23,0,0,1-2.93-4C344.2,236.41,344.25,234.58,344.25,232.75Z" style="fill:#fca33d"/><path d="M383.54,259.15c-2.11.88-4.22,1.81-6.35,2.65s-4.27,1.62-6.59,2.5a6.27,6.27,0,0,0,.84,2c2.38,2.34,4.79,4.66,8.4,5,2.28.22,4.54.6,6.81.91-2-.14-4.11-.19-6.14-.45a4,4,0,0,0-4.14,1.74c-1,1.42-2,2.86-2.95,4.3a33.44,33.44,0,0,1-2-2.93c-.85-1.54-1.58-3.15-2.32-4.74-1.77-3.8-1.38-7.28,1.58-10.36l.78-.63,0,0a4.27,4.27,0,0,0,.93.14c3-.14,6.08-.33,9.13-.43A9.65,9.65,0,0,1,383.54,259.15Z" style="fill:#fbb564"/><path d="M383.54,259.15a9.65,9.65,0,0,0-2-.33c-3.05.1-6.09.29-9.13.43a4.27,4.27,0,0,1-.93-.14,13,13,0,0,1,7.25-6.2,6.54,6.54,0,0,1,3.94,0c3.8,1.16,7.45,2.82,11.48,3.15.31,0,.59.46.88.71a22,22,0,0,0-9,1.6C385.21,258.69,384.37,258.9,383.54,259.15Z" style="fill:#fca33d"/><path d="M371.48,259.14l-.78.63Z" style="fill:#fca33d"/><path d="M373.15,265.19c.71-.18,1.38-.34,2.05-.52l4.14-1.11a22.49,22.49,0,0,1,2.51-.74,2.33,2.33,0,0,1,2.78,1.65c.6,1.46,1.11,3,1.64,4.41C383,270.9,375.28,268.72,373.15,265.19Z" style="fill:#f8e5bf"/><path d="M395.23,263.24a3.23,3.23,0,0,1-3,3.4c-1.54.06-2.69-1.34-2.72-3.3,0-1.23,1.39-2.21,3.19-2.2S395.22,261.71,395.23,263.24Z" style="fill:#f8e5bf"/><path d="M405.09,265.25a3,3,0,0,1,1.57,3.23,3.14,3.14,0,0,1-2.16,2.88c-1.35.5-2.69,1-4,.38Z" style="fill:#f8e5bf"/><path d="M323.1,51.65c164.45-14.53,309.54,107,324.07,271.45s-107,309.55-271.45,324.08S66.18,540.18,51.65,375.73" style="fill:none;stroke:#e5a980;stroke-miterlimit:10;stroke-width:18px"/><path d="M512.44,387.37a12.71,12.71,0,0,1-.18,10.11,14.26,14.26,0,0,1-2.91,4.35,9.25,9.25,0,0,1-3.57,2.32,18.05,18.05,0,0,1-3.54.84,10.83,10.83,0,0,1-3.36-.1,22.08,22.08,0,0,1-3.73-.94c-3.52-1.35-5.93-3.2-7.28-5.47a7.14,7.14,0,0,1-.43-7,7.73,7.73,0,0,1,3.1-3.37,5.23,5.23,0,0,1,4.37-.72,1.59,1.59,0,0,1,1,.77,2.17,2.17,0,0,1,0,1.59,6.59,6.59,0,0,0-.32,2.11,3.94,3.94,0,0,0,.31,1.67,3.43,3.43,0,0,0,.78,1.07,3.79,3.79,0,0,0,1.32.82,3.72,3.72,0,0,0,2.75,0,3.57,3.57,0,0,0,1.84-1.92,5.24,5.24,0,0,0,.17-3.35,16.61,16.61,0,0,0-1.44-3.9c-.67-1.28-1.35-2.56-2-3.83-1.68-3.06-2.08-5.55-1.16-7.59a9.81,9.81,0,0,1,6.68-5.41,23.74,23.74,0,0,1,11-.37q3.38.62,4.4,1.86c.69.84.65,2.09-.09,3.74s-1.73,2.34-3,2.07a4.51,4.51,0,0,1-1.53-.73,6.82,6.82,0,0,0-2.25-.88,3.9,3.9,0,0,0-2.6.33,3.59,3.59,0,0,0-1.8,1.8,3.89,3.89,0,0,0,0,2.84,17.4,17.4,0,0,0,1.56,3.43A43,43,0,0,1,512.44,387.37Z" style="fill:#e00428"/><path d="M518.89,392.25a2.74,2.74,0,0,0,.21-1.64,4.33,4.33,0,0,0-.65-1.6,1.39,1.39,0,0,1-.22-1.4c.51-1.13,2-1.85,4.65-2.19a17.48,17.48,0,0,1,6.14,0c1.5.37,2,1.22,1.46,2.46-.37.87-1.19,2.41-2.39,4.62s-2.22,4.26-3.09,6.17c-2.08,4.65-2.9,7.72-2.47,9.26a1.4,1.4,0,0,1,.26,1.63c-.52,1.16-1.67,1.81-3.43,1.92a12.69,12.69,0,0,1-5.4-.9q-3.66-1.39-2.73-3.46c0-.06.26-.43.7-1.09a50.25,50.25,0,0,0,4.9-8.73Zm16.67-14.09a5,5,0,0,1-3.68,2.62,10.73,10.73,0,0,1-4.9.18,6.26,6.26,0,0,1-3-1.37,1.62,1.62,0,0,1-.43-1.94,5.07,5.07,0,0,1,3.71-2.62,11.57,11.57,0,0,1,5-.33,5.67,5.67,0,0,1,3,1.32A1.78,1.78,0,0,1,535.56,378.16Z" style="fill:#e00428"/><path d="M564,401.48a16.36,16.36,0,0,1,.52,5.73,18.72,18.72,0,0,1-1.69,6.58,21.13,21.13,0,0,1-3.4,5.47,12,12,0,0,1-3.92,3.08,19.92,19.92,0,0,1-3.74,1.3,9.74,9.74,0,0,1-3.48.15,18.29,18.29,0,0,1-3.78-.83c-3.51-1.35-5.84-3.4-7-6.08a10.14,10.14,0,0,1,.29-8.56,11.31,11.31,0,0,1,3.56-4.41A5.06,5.06,0,0,1,546,402.7a1.41,1.41,0,0,1,1,.88,3.22,3.22,0,0,1-.22,2,10.91,10.91,0,0,0-.54,2.62,5.29,5.29,0,0,0,.14,2,3.77,3.77,0,0,0,.7,1.26,3.21,3.21,0,0,0,1.28.9,3.37,3.37,0,0,0,2.85-.23,5.13,5.13,0,0,0,2.09-2.47,7.88,7.88,0,0,0,.52-4.12,20.73,20.73,0,0,0-1.09-4.69c-.56-1.54-1.12-3.07-1.7-4.6-1.4-3.68-1.54-6.75-.37-9.35a13,13,0,0,1,7.42-7.07,20.43,20.43,0,0,1,11.29-.95c2.25.41,3.69,1.11,4.3,2.1s.44,2.53-.48,4.59-2,2.95-3.24,2.68a4,4,0,0,1-1.5-.82,5.12,5.12,0,0,0-2.2-1,3.65,3.65,0,0,0-2.7.52,5,5,0,0,0-2,2.32,5.75,5.75,0,0,0-.3,3.49,20.71,20.71,0,0,0,1.24,4.13Q563.3,399,564,401.48Z" style="fill:#e00428"/><path d="M585.55,399.35c2.81.69,4.67,2,5.57,3.87s.66,4.43-.73,7.51a12.36,12.36,0,0,1-6.79,6.59,13.76,13.76,0,0,1-9.78.26.81.81,0,0,0-1.08.53,3.79,3.79,0,0,0-.13,3,3.68,3.68,0,0,0,2.42,2.13,5,5,0,0,0,4.18-.7c1.55-.89,2.7-1.23,3.46-1a1.89,1.89,0,0,1,1.33,1.66,6.17,6.17,0,0,1-.7,3.28,11.36,11.36,0,0,1-2.65,3.63,9.39,9.39,0,0,1-3.41,2.2,11.67,11.67,0,0,1-3.42.57,13.49,13.49,0,0,1-5.12-.89,9.19,9.19,0,0,1-4.08-3,9,9,0,0,1-1.85-4.65,20.16,20.16,0,0,1,1.83-10.19,35.5,35.5,0,0,1,5.25-8.55,20.31,20.31,0,0,1,7.21-5.34A12.85,12.85,0,0,1,585.55,399.35Zm-9.85,11.22a.93.93,0,0,0,0,.71.74.74,0,0,0,.48.51,6.35,6.35,0,0,0,6.29-2.12,6.51,6.51,0,0,0,1.2-1.58c.7-1.38.4-2.45-.73-2.76a4.13,4.13,0,0,0-3.85,1.13A16.46,16.46,0,0,0,575.7,410.57Z" style="fill:#e00428"/><path d="M477.11,446.47a2.52,2.52,0,0,0-1.51.17,2.42,2.42,0,0,0-1.15,1.07,26.5,26.5,0,0,0-2.54,6.75,9,9,0,0,1-.39,1.66c-.51,1.12-1.79,1.4-3.84.8a14.84,14.84,0,0,1-5-2.44c-1.3-1-1.71-2.05-1.24-3.11.17-.25.26-.37.42-.62a95.84,95.84,0,0,0,8.62-15.44l3-7.36a4.19,4.19,0,0,0,.09-2.78,3.77,3.77,0,0,1-.08-2.41c.42-.93,1.59-1.33,3.54-1.22a23.48,23.48,0,0,1,6,1.12,33.53,33.53,0,0,1,4.62,1.77c1,.54,1.92,1,2.61,1.46a26.37,26.37,0,0,1,2.85,2.18,17.09,17.09,0,0,1,3,3.17,9.12,9.12,0,0,1,1.51,4.08,9.52,9.52,0,0,1-.93,5.28,11.9,11.9,0,0,1-3.86,4.77,11.32,11.32,0,0,1-5.19,2.24,19.7,19.7,0,0,1-8.87-.61Zm6.8-6.84a12.1,12.1,0,0,0,2.66-2.63,14.41,14.41,0,0,0,1.09-2,6.28,6.28,0,0,0,.52-1.86,4,4,0,0,0,0-1.58,3.18,3.18,0,0,0-.5-1.07,3.09,3.09,0,0,0-1-1,2.69,2.69,0,0,0-2.55-.11,3.47,3.47,0,0,0-1.75,1.71,29,29,0,0,0-2.78,4.94c-.85,1.89-1.31,3-1.43,3.33a1,1,0,0,0,.42,1.27,2.59,2.59,0,0,0,1.32.35A5.88,5.88,0,0,0,483.91,439.63Z" style="fill:#e00428"/><path d="M487.08,461.86l3.82-8.05a11.33,11.33,0,0,0,.87-2.72,4.93,4.93,0,0,0-.08-2.25,2.43,2.43,0,0,1,0-1.69c.46-1,1.81-1.42,4.06-1.2a12.47,12.47,0,0,1,4.88,1.19,3.6,3.6,0,0,1,1.76,1.78,3.63,3.63,0,0,1-.41,2.41q-.69,1.53-2.43,4.63c-1.16,2.06-1.84,3.32-2.05,3.77q-2.56,5.72,0,7.48c1.21.85,2.59.17,4.17-2.08a16.9,16.9,0,0,0,1.67-2.93,17.94,17.94,0,0,0,1.69-5.49,2.83,2.83,0,0,1,0-1.82c.48-1.07,1.71-1.46,3.7-1.2a13,13,0,0,1,4.91,1.51,2.18,2.18,0,0,1,1.05,3.07c-.57,1.28-1.59,3.21-3,5.76s-2.53,4.62-3.24,6.19-1.19,2.7-1.44,3.38a16.84,16.84,0,0,0-.74,3.29,5.74,5.74,0,0,0,.23,3.47,2.15,2.15,0,0,1,.35,1.88,2,2,0,0,1-1,1.06c-2.15.94-4.75.31-7.39-1.86-1.5-1.24-2.12-2.62-1.83-3.89l.45-2.11a.51.51,0,0,0-.15-.61l-.52-.1c-2.35,1.48-4.83,1.19-7.37-.81C485.39,471.1,484.76,467,487.08,461.86Z" style="fill:#e00428"/><path d="M529.13,464.56a10.42,10.42,0,0,1,4.84,5.51c.77,2.22.51,4.76-.76,7.58a8,8,0,0,1-6.08,5c-2.77.49-5.62-.34-8.59-2.41a.55.55,0,0,0-.95.26,4.45,4.45,0,0,0-.16,3.09,5.2,5.2,0,0,0,2.08,2.87,3.72,3.72,0,0,0,3.68.42c1.37-.5,2.4-.53,3-.06a2.75,2.75,0,0,1,1.14,2.08,6.23,6.23,0,0,1-.67,3.21,8,8,0,0,1-2.39,3.06,5.76,5.76,0,0,1-3,1.34,8.51,8.51,0,0,1-3-.36,13.37,13.37,0,0,1-4.47-2.34,13,13,0,0,1-3.52-4.3,13.39,13.39,0,0,1-1.54-5.33,21.06,21.06,0,0,1,1.76-10,25.73,25.73,0,0,1,4.72-7.38,12.22,12.22,0,0,1,6.41-3.56A10,10,0,0,1,529.13,464.56Zm-8.82,8.94a1.08,1.08,0,0,0,0,.73,1,1,0,0,0,.41.65q3.21,1.77,5.56-.48a4.39,4.39,0,0,0,1.08-1.3,2.2,2.2,0,0,0-.6-3.06,2.86,2.86,0,0,0-3.4.13A11,11,0,0,0,520.31,473.5Z" style="fill:#e00428"/><path d="M550.93,501.6l-.68,1.65-.12.27a8.17,8.17,0,0,0-.57,6.29,3.26,3.26,0,0,1,0,2.35,2.82,2.82,0,0,1-1.1,1.35,8.08,8.08,0,0,1-4.43,1.26,7.89,7.89,0,0,1-4.8-1.37,2.89,2.89,0,0,1-.93-3.56c.41-1.14.49-1.82.21-2l-.49,0a5.15,5.15,0,0,1-6.07-.57,9.38,9.38,0,0,1-3.08-4.17,12.17,12.17,0,0,1-.74-5.33,30.93,30.93,0,0,1,2.72-10.59,23.15,23.15,0,0,1,7.38-9.23,10.91,10.91,0,0,1,5.26-2,8.69,8.69,0,0,1,5.49,1.24,5.92,5.92,0,0,1,1.82,1.59l.6.85c.26.16.57-.09.94-.76s.8-1.56,1.3-2.67a29.86,29.86,0,0,0,1.13-2.81,9.88,9.88,0,0,0,.44-1.77,4.19,4.19,0,0,0,0-1.07,6.5,6.5,0,0,0-.63-1.73,2.28,2.28,0,0,1,0-2c.64-1.43,2.32-2.21,5.05-2.4s4.82.05,6.23.78a2,2,0,0,1,1,2.59,24.92,24.92,0,0,1-1.1,2.76q-.9,2-4.06,8T556,490.12l-3,6.73-1.49,3.47Zm-12.48-4.77c1.2.95,2.77.78,4.4-.49a11,11,0,0,0,3.41-4.07c1.53-3.4,1.51-5.61-.06-6.61-1.27-.82-2.77-.54-4.47.8A12.17,12.17,0,0,0,538,491C536.86,493.64,537,495.7,538.45,496.83Z" style="fill:#e00428"/><path d="M573.73,491.12A9.59,9.59,0,0,1,578.4,497c.64,2.48.19,5.42-1.32,8.79s-3.74,5.5-6.67,6.34-5.86.18-8.83-1.88q-.63-.45-1,.39a5.81,5.81,0,0,0-.37,3.58,4.84,4.84,0,0,0,2,3.07,3.49,3.49,0,0,0,3.82.1c1.48-.72,2.55-.86,3.21-.4a2.76,2.76,0,0,1,1,2.28,8.56,8.56,0,0,1-.91,3.74,11.45,11.45,0,0,1-2.7,3.75,6.93,6.93,0,0,1-3.26,1.86,7.87,7.87,0,0,1-3.13-.08,11.11,11.11,0,0,1-4.54-2.17,11.46,11.46,0,0,1-3.42-4.53,14.53,14.53,0,0,1-1.26-6,28.89,28.89,0,0,1,2.55-11.79,37.35,37.35,0,0,1,5.48-9.07,15.43,15.43,0,0,1,7-4.78A9,9,0,0,1,573.73,491.12Zm-9.84,11.19a1.59,1.59,0,0,0-.1.85,1,1,0,0,0,.39.71,4.44,4.44,0,0,0,5.84-1.11,6.36,6.36,0,0,0,1.22-1.62c.77-1.53.57-2.84-.42-3.46a2.81,2.81,0,0,0-3.55.48A15.53,15.53,0,0,0,563.89,502.31Z" style="fill:#e00428"/></svg>