<svg id="Layer_1" data-name="Layer 1" xmlns="http://www.w3.org/2000/svg" viewBox="0 0 300 300"><defs><style>.cls-1{fill:#03554f;}.cls-2{fill:#676767;}.cls-3{opacity:0.38;}.cls-4{fill:#006fab;}.cls-5{fill:#c0dea1;}.cls-6{fill:#fdd806;}.cls-7{fill:#4abbec;}.cls-8{fill:#7c7b7b;}.cls-9{opacity:0.2;}.cls-10{fill:#4bbbec;}.cls-11{fill:#0d7b73;}.cls-12{fill:#63bd5f;}.cls-13{fill:#e6e6e5;}.cls-14{fill:#8e9fa5;}.cls-15{opacity:0.27;}.cls-16{opacity:0.3;}.cls-17{fill:#c84427;}.cls-18{fill:#e1c2dd;}.cls-19{fill:#9badb6;}</style></defs><title>elementary_school_diaries</title><rect class="cls-1" x="25.05" width="249.96" height="300"/><path class="cls-2" d="M67.11,172.87c-4.5,0-10.6-4.15-12.83-7.17A3.23,3.23,0,0,0,53,164.46a2.23,2.23,0,0,0-1.79,0c-7,3.89-8.08.87-11.64,2.65a27.1,27.1,0,0,0-3.4,2.74c.69,3.1,4.25,3.56,4.94,6.65a4.76,4.76,0,0,0,.61,1.69c.91,1.3,2.84,1.48,4.4,1.15,6.32-1.36,21.54-3.84,31.54-4.84C77.53,173.61,68,172.87,67.11,172.87Z"/><g class="cls-3"><path class="cls-4" d="M77.63,192.19C75,179.87,69.54,152.52,68.4,151.9c-1.5-.82-9.52-.9-12.69-1.45-1.17.6-25,48.79-26.5,55.29,6,10,35.75,14.75,49.48.1C79.84,204.61,78.07,194.28,77.63,192.19Z"/></g><path class="cls-5" d="M75.57,133c-.62-1-2.36-9.73-9.71-9.75-11.15,0-12.15,7-12.63,8.5-.3.91-20.82.09-20.52,3,.64,6,14.5,8.5,19,11,2,2.39,4.5,6.5,11,6.2,3.66-.16,8.45-1.33,9.69-4.78,7.69-1.53,17.25-1.36,20.43-6.29C95.2,137.25,76.21,134,75.57,133Z"/><path class="cls-6" d="M75.57,133c-.31-.49-1.61,6-11.18,5.46C54,137.83,53.47,131,53.23,131.73c-.3.91-20.82.09-20.52,3,.64,6,14.5,8.5,19,11l20.71,1.42c7.69-1.53,17.25-1.36,20.43-6.29C95.2,137.25,76.21,134,75.57,133Z"/><path class="cls-7" d="M93.77,140c-.25-1.71-2.61-2.64-4-3.22a63,63,0,0,0-8-2.58c-1.31-.36-4.66-.68-5.68-1.64-.86-1.58-1.24-3.38-2.18-4.94a10.07,10.07,0,0,0-5.64-4.74c-4.92-1.44-11.71.51-14.42,5a11.39,11.39,0,0,0-1,2.22c-.09.28-.15.58-.26.85a2.72,2.72,0,0,1-.14.34c-1.29.54-3.78.21-5,.26-4.34.17-9.87-.29-14,1.45-4.26,1.82,1.24,6.41,3.31,7.57A49.62,49.62,0,0,0,45.17,144c2.71.95,5.35,1.52,7.23,3.76,4.15,5,10.46,6.22,16.46,3.68a8.37,8.37,0,0,0,3.31-2.35c.82-1,.87-1.29,2.23-1.52,1.09-.18,2.19-.33,3.29-.49,3.85-.53,7.9-.88,11.5-2.44C90.79,143.94,94.1,142.17,93.77,140ZM54,131.74c.71-1.37.85-2.8,1.89-4.07,2.1-2.61,5.54-3.5,8.75-3.66a8.34,8.34,0,0,1,8.17,4.51c.85,1.46,1.22,3.13,2,4.6-.18,2.23-3.69,3.74-5.53,4.23a18.67,18.67,0,0,1-5.87.5c-3.66-.22-9.33-1.5-9.43-6.07ZM47.26,133c1.25,0,3.68.24,5.31-.26.79,4.74,6.57,6.31,10.84,6.57a17.92,17.92,0,0,0,7.72-1c1.85-.76,4.26-2.15,5-4.18.6.22,1.27.34,1.77.49,2,.55,3.92,1,5.86,1.62a39,39,0,0,1,6.4,2.28c.54.27,1.61.69,1.91,1.26a1.07,1.07,0,0,1,.11.33c-9.49,2.5-19.74,2.77-29.49,2.16S42,140.18,33.75,134.54a2.82,2.82,0,0,1,.83-.33C38.5,132.93,43.19,133.2,47.26,133ZM69,149.73a14.25,14.25,0,0,1-5.62,1.44,10.57,10.57,0,0,1-9-3.4c-.23-.24-.44-.48-.65-.71a47.74,47.74,0,0,0,8.53,1A49.18,49.18,0,0,0,71.1,148,6.41,6.41,0,0,1,69,149.73Zm12.35-4.66c-1.71.26-3.43.48-5.14.72-.68.1-2.85.25-3,.28-3.24.92-7,.69-10.32.54-3.91-.17-8.27-.38-11.89-2l0,0c-.2-.1-.41-.2-.63-.29-2.36-1-4.81-1.72-7.21-2.6a27.78,27.78,0,0,1-7.24-3.53,9.58,9.58,0,0,1-1.64-1.5c8.11,5,18.47,6.43,27.74,7.06,9.5.65,19.49.46,28.84-1.73l-.21.16C88,144.08,84.42,144.59,81.32,145.07Z"/><path class="cls-8" d="M275,300H25.12s-.3-113-.07-113c43.49-25.5,250-14.5,250-14.5Z"/><path class="cls-2" d="M186.09,163.87c-10.73,3.13-9-2.5-17-7.56a19.2,19.2,0,0,0-3.57-1.72c-1.26-.1-2.69,1.67-3.13,2.86s-6.32,3.39-7.15,3.42c-5.28.16-7.37-3.78-11.29-4.22-2-.22-4.55,2.59-8.25,4.07-.75.3-1.61,7.65-1.25,9.06.26,1.05-.19,2.37.59,3.13a2.58,2.58,0,0,0,1.73.51,64,64,0,0,0,17.17-1.7c5.59-1.33,35.26-5.45,40.1-2.35C194.09,169.37,188.49,163.17,186.09,163.87Z"/><g class="cls-9"><path class="cls-4" d="M178,167.58c3.62-1.08,3.4-4.58,8.69-6.74,2.2-.9,6.59,2.4,8.81,1.58,3.9-1.42,6.24,1,9.37,1.76s7.07.4,8.68-2.4c1.25-2.15.78-5.25,2.7-6.84,1.37-1.13,3.36-.95,5.14-.87,8.14.38,16-2.5,23.66-5.34a10.92,10.92,0,0,0,2.54-1.19c.81-47.34,3.69-105,2.42-106.51-1.32-.09-2.63-.23-3.89-.4-.79-.11-1.56-.24-2.33-.38a31.69,31.69,0,0,1-7.3-2,50,50,0,0,1-5.67-2.49c-.89-.46-1.79-.94-2.68-1.44C207.22,82.85,194.23,124.37,170,168.5a13.67,13.67,0,0,0,1.61.18A19.68,19.68,0,0,0,178,167.58Z"/></g><path class="cls-5" d="M245.5,26.7c4.67.67,8-.54,9-5.35-.27-5.32-6.07-8.65-10.88-9-3.65-.23-6.15,1.21-9.34,2.63l-.17.05C230,22.44,240,25.92,245.5,26.7Z"/><path class="cls-6" d="M220.66,20.16c.69,2.17,2.63,3.91,4.3,5.34a40,40,0,0,0,21,9.54c4.74.65,20.8,2.08,18.76-6.67a.62.62,0,0,1,0-.19,22,22,0,0,0-8.89-5.86c-1.46,5.57-6.09,6.62-11.58,5.64-4-.72-8.36-1.89-10.9-5.29a7.3,7.3,0,0,1-.83-7.48c-.57-.08-1.15-.23-1.78-.28a34.45,34.45,0,0,0-6.09.08l-.06,0C222.32,15.9,219.79,17.41,220.66,20.16Z"/><path class="cls-6" d="M263,37.9a10.39,10.39,0,0,0,4.62-3.57c1-1.63.33-2.52-.8-3.82-.18-.21-.36-.42-.55-.62-.12,3.44-3.08,5.49-6.61,6.35-8.88,2.16-19.84.31-27.73-4.2-4.22-2.42-9.09-5.4-11.76-9.6-1.79-2.83-1.17-5.16.69-6.86l-.1,0a10.06,10.06,0,0,0-4.05,1.52c-1.54,1.25-.62,3.59.09,5.13,3,6.36,10.88,10.57,17,13.35a44.11,44.11,0,0,0,13.06,3.68C252.1,39.9,258.09,40.15,263,37.9Z"/><path class="cls-10" d="M236.45,38.23a45.88,45.88,0,0,0,7.3,2c1.76.29,3.78.53,6.18.75a.05.05,0,0,1,0,0c4.68.34,9.57.07,13.77-1.88,2.59-1.2,7.44-4.49,5.48-8-1.27-2.26-3.77-4.38-5.72-6a20.55,20.55,0,0,0-7.57-4.27c-.43-4.07-3.68-7.23-7.35-8.77A15.15,15.15,0,0,0,241.42,11a16.74,16.74,0,0,0-4.08.91c-1.31.48-2.93,1.86-4.16,1.91-1.57.07-3.28-.42-4.89-.41-1.26,0-2.51.07-3.76.19a.68.68,0,0,0-.34,0c-.67.07-1.34.16-2,.26-2.39.37-7.05,1.07-7.69,4-.91,4.11,3.08,8.65,5.84,11.07a45.72,45.72,0,0,0,7.76,5.35c.09-.19.16-.37.24-.56A56.32,56.32,0,0,0,236.45,38.23ZM215.17,18.34c0-4.07,14.52-5,18.38-3.68,10.62-7.24,21.71,0,21.71,6.76,5.62,1.23,10.62,6.76,13.14,9.83,2.36,2.87-3.49,8.52-12.18,9-14,.78-22.69-3.38-30.42-8.21C223.2,30.42,215.18,25.28,215.17,18.34Z"/><path class="cls-10" d="M236.45,38.23a56.32,56.32,0,0,1-8.11-4.49c-.08.19-.15.37-.24.56.89.5,1.79,1,2.68,1.44A50,50,0,0,0,236.45,38.23Z"/><path class="cls-10" d="M249.93,41c-2.4-.22-4.42-.46-6.18-.75.77.14,1.54.27,2.33.38,1.26.17,2.57.31,3.89.4A.05.05,0,0,0,249.93,41Z"/><path class="cls-10" d="M240.93,26.5c5,1.41,13,2,14.33-5.08,0-6.76-11.09-14-21.71-6.76C230.93,22,237.1,25.43,240.93,26.5Zm-6.79-11.42.17-.05c3.19-1.42,5.69-2.86,9.34-2.63,4.81.3,10.61,3.63,10.88,9-1,4.81-4.36,6-9,5.35C240,25.92,230,22.44,234.14,15.08Z"/><path class="cls-10" d="M256.22,40.25c8.69-.48,14.54-6.13,12.18-9-2.52-3.07-7.52-8.6-13.14-9.83-1.33,7.08-9.3,6.49-14.33,5.08-3.83-1.07-10-4.5-7.38-11.84-3.86-1.29-18.38-.39-18.38,3.68,0,6.94,8,12.08,10.63,13.7C233.53,36.87,242.23,41,256.22,40.25ZM224.55,15l.06,0a34.45,34.45,0,0,1,6.09-.08c.63.05,1.21.2,1.78.28a7.3,7.3,0,0,0,.83,7.48c2.54,3.4,6.93,4.57,10.9,5.29,5.49,1,10.12-.07,11.58-5.64a22,22,0,0,1,8.89,5.86.62.62,0,0,0,0,.19c2,8.75-14,7.32-18.76,6.67a40,40,0,0,1-21-9.54c-1.67-1.43-3.61-3.17-4.3-5.34C219.79,17.41,222.32,15.9,224.55,15Zm9.24,20.58c-6.1-2.78-14-7-17-13.35-.71-1.54-1.63-3.88-.09-5.13a10.06,10.06,0,0,1,4.05-1.52l.1,0c-1.86,1.7-2.48,4-.69,6.86,2.67,4.2,7.54,7.18,11.76,9.6,7.89,4.51,18.85,6.36,27.73,4.2,3.53-.86,6.49-2.91,6.61-6.35.19.2.37.41.55.62,1.13,1.3,1.79,2.19.8,3.82A10.39,10.39,0,0,1,263,37.9c-4.92,2.25-10.91,2-16.16,1.38A44.11,44.11,0,0,1,233.79,35.6Z"/><path class="cls-11" d="M159.2,166.14c-6.8.23-11.27,8.12-17.71,5.92a7.25,7.25,0,0,1-4.75-5.92c-.27-2.46.75-5,0-7.39-1.58-4.82-8.72-4.79-12.09-8.58-.94-1.06-1.67-2.47-3-2.86a4.94,4.94,0,0,0-3.07.47c-9.25,3.54-19.56,8.14-22.73,17.53,1.4,2,4.36,1.79,6.81,1.66s5.61.64,5.89,3.07-2.48,3.83-4.58,5-4,4.25-2.08,5.72c7.63-5,16.37-10.24,25.29-8.29,5.87,1.28,10.79,5.54,16.71,6.53,7.13,1.18,14-2.56,21.06-4.2.56-.13,1.12-.23,1.69-.31,1.14-2,2.27-4,3.37-6C166.52,167.89,162.39,166,159.2,166.14Z"/><path class="cls-11" d="M273.47,141.94c-4,.57-7.82-1.49-11.68-2.67s-8.85-1.1-11,2.33c-1,1.66-1.16,3.82-2.47,5.26a5.07,5.07,0,0,1-.79.68c-.2,11.73-.28,22.82-.13,32.27,6.28.63,12.82.1,19.14-.46,3.51-.31,8.45-3.14,8.45-3.14V141.7Z"/><path class="cls-11" d="M247.55,147.54a10.92,10.92,0,0,1-2.54,1.19c-7.63,2.84-15.52,5.72-23.66,5.34-1.78-.08-3.77-.26-5.14.87-1.92,1.59-1.45,4.69-2.7,6.84-1.61,2.8-5.55,3.17-8.68,2.4s-5.47-3.18-9.37-1.76c-2.22.82-6.61-2.48-8.81-1.58-5.29,2.16-5.07,5.66-8.69,6.74a19.68,19.68,0,0,1-6.38,1.1,13.67,13.67,0,0,1-1.61-.18c-1.1,2-2.23,4-3.37,6,11.13-1.59,22.63,6.16,35.14,2.23,5.87-1.84,11.19,0,17.1-1.6,3-.82,6.06-2.07,9.15-1.59,2.39.37,4.5,1.73,6.67,2.81a36.63,36.63,0,0,0,12.76,3.45C247.27,170.36,247.35,159.27,247.55,147.54Z"/><path class="cls-12" d="M275,157a22.78,22.78,0,0,0-8.3-1.65c-2.72.14-5.56,1.6-6.5,4.16-.73,2-.44,4.6-2.2,5.73a5.13,5.13,0,0,1-2.75.53l-12.61.1a11.29,11.29,0,0,1-3.85-.42c-1.31-.45-2.41-1.37-3.69-1.89a8.82,8.82,0,0,0-8,1.21,22.64,22.64,0,0,0-5.71,6.15,9.76,9.76,0,0,1-1.86,2.18c-2.5,1.94-6,.91-9.16.35s-7.28.15-7.87,3.26c2.87,1.31,6.16,1,9.31.88,6.28-.19,12.55.67,18.78,1.53,3.62.5,7.53,1.13,10.11,3.73,1.83,1.84,2.77,4.49,4.82,6.09,3.25,2.53,8,1.54,11.78,0s7.77-3.64,11.82-2.9a9,9,0,0,0,3,.39c2.91-.44,3-4.33,2.88-7.28"/><path class="cls-5" d="M111.12,38.06a12.36,12.36,0,0,0-7.68-1.13,20.37,20.37,0,0,0-13.23,7.64,8.5,8.5,0,0,0-1.82,3.68,4.74,4.74,0,0,0,.12,2c6.35-2.32,16.32-5.54,26-8.22A7.66,7.66,0,0,0,111.12,38.06Z"/><path class="cls-6" d="M150.23,37.91c-2.11-1.16-9.06-1-11.95-.85-5.37.31-14.43,2.38-23.75,4.95-9.7,2.68-19.67,5.9-26,8.22-1.36.5-2.56,1-3.55,1.36C77.13,54.75,60.73,61.8,56.7,70s17.88,4.45,22.09,3.9c16.34-2.13,41.83-10.61,51.83-15.13C146.12,51.75,154.67,40.36,150.23,37.91Z"/><path class="cls-5" d="M137.82,49.59c-2.1-2.42-13.72-1.91-20.45.13-24.74,7.53-43.79,15.37-41.68,18.7,1.36,2.14,7.25,2.36,12.29,2.11a49.41,49.41,0,0,0,5.55-.72s27-6.87,32.7-10.23c.21-.13,1-.54,2-1.14C132.87,55.71,139.39,51.41,137.82,49.59Z"/><path class="cls-4" d="M115.13,57.25C113.58,57.61,93.38,64,95.05,66c1.49,1.81,18.54-3.86,21.55-5.23,4.52-2,6.52-2.55,6.52-4C123.12,55.75,118.37,56.5,115.13,57.25Z"/><path class="cls-4" d="M150.81,37.41a.72.72,0,0,0-.2-.14.69.69,0,0,0-.2-.09c-3-1.34-7-1-10.21-1a59.17,59.17,0,0,0-8.89,1c-5.52,1-11,2.37-16.39,3.87a8.72,8.72,0,0,0-3.27-3.59.91.91,0,0,0-.16-.11.71.71,0,0,0-.18-.08c-5.42-2.62-12.14-1-16.93,2.32a17.59,17.59,0,0,0-6.14,6.65,7.23,7.23,0,0,0-.61,3.34A103.52,103.52,0,0,0,64.42,61.13c-2.79,1.91-12,8.51-8.13,12.8,1.39,1.55,4,1.81,5.89,2a51.26,51.26,0,0,0,9.35-.32c16.29-1.71,32.18-6.09,47.59-11.53,9-3.19,17.95-6.78,25.34-13C146.8,49,155.76,40.83,150.81,37.41ZM89.92,46.32c3.69-6.51,13.8-11.15,20.82-7.61a7.46,7.46,0,0,1,2.72,2.81c-2.24.63-4.47,1.29-6.7,1.95C100.94,45.21,95,47,89.12,49.11A7.49,7.49,0,0,1,89.92,46.32Zm26.89,16.12c-7.08,2.28-14.26,4.25-21.46,6.13a39.2,39.2,0,0,1-6.48,1.12c-1.54.14-14.22.57-12.17-2.58,1.47-2.28,5.61-3.74,7.91-4.81,5.24-2.44,10.67-4.45,16.12-6.37,6.68-2.34,13.57-5.06,20.55-6.37a47.37,47.37,0,0,1,9.36-.83c2,0,5-.1,6.56,1.32,1.08,2.21-10,8.18-11.56,9A54.54,54.54,0,0,1,116.81,62.44Zm32-18.22a34.71,34.71,0,0,1-8.38,8A60.8,60.8,0,0,1,130.38,58c5-3.12,14-9.42,11.74-11.41-2.78-2.45-15.84-2.21-23.61.15-28.58,8.7-50.58,17.75-48.14,21.59,1,1.65,8.36,2.5,8.42,2.51a33.67,33.67,0,0,0,9.51.51c-4.23.89-8.49,1.65-12.78,2.24-5,.69-11,1.78-16,.38-7.41-2.09,4.37-10.7,6.81-12.29A106.74,106.74,0,0,1,88,51.18l1.4-.52c4.75-1.7,9.56-3.22,14.31-4.69,3.41-1,6.84-2.07,10.28-3l1.45-.41c4.31-1.18,8.65-2.27,13-3.19a66.88,66.88,0,0,1,9.84-1.53c3.48-.21,8.34-.78,11.57.75C151.84,39.79,149.74,42.94,148.85,44.22Z"/><path class="cls-13" d="M275,203.29c-19,4.44-40.83,4-60.33,5.2a350.4,350.4,0,0,0-35.69,4l37.23,12.32a110.24,110.24,0,0,1,22.58,9.9c5.82,3.52,11,7.63,17.12,10.57s12.29,4.09,19.09,5.17Z"/><path class="cls-13" d="M234.15,73c-1.12-1.71-10.5-10.41-14.37-12a35.68,35.68,0,0,0-22.11-2l-27.5,52.08c3.94,4.83,9.59,9.79,13.77,11.48,9.16,2.72,20.76,1.54,28.22-.16,6.45-4.07,22.89-15.64,22.89-18C235.05,96.91,235.39,79.61,234.15,73Z"/><path class="cls-14" d="M264.2,282.69h-.32c-.11-27.82-.45-80.46-1.55-91-.55-5.35-1.16-46.93-8.36-55.33-4.7-5.47-9.1-10.89-15.84-13.43s-13-3.53-20.12-4.4l-8,4.51c9.29-.85,30.42,4.21,35,12.47,7.72,13.81,8.39,38.53,9.25,50.18,1.06,14.52,1.06,93.68,1,93.26-3.9-1.82-7.78-3.7-11.8-5.22-8.81-3.34-18.2-4.9-27.14-7.87-27.85-9.24-42-19.86-72.3-26.65-8.45-1.9-51.19-16.33-52.7-15.71-6,2.5-20,10-22.62,10.85C47.13,241,25.05,257,25.05,257v43H35.6a29.66,29.66,0,0,1,2.8-13.41c.13-.25.27-.48.42-.71a12,12,0,0,1,3.5-3.21c.44-.3.94-.63,1.45-1,1.51-1.09,3-2.5,2.8-4.33a7.43,7.43,0,0,1-3-6.82A50.32,50.32,0,0,1,45.5,262c.77-2.9,1.61-6.06,3.29-8.6,2.61-3.94,10.69-6.19,15-4.19,3.2,1.48,3.78,5.39,3.74,9.2,3.68,2.9,2,8.53-.54,11.61h0c-.09,1.47-.21,2.94-.39,4.4-.26,2.09-.21,4.66-2.53,5.21a.83.83,0,0,1-.27,0,18,18,0,0,1-2.2.47,17.2,17.2,0,0,0,2,1.81,5.15,5.15,0,0,0,1,.55,23,23,0,0,0,3.32.69l.46.14a5.45,5.45,0,0,1,2.88,2.17,7.24,7.24,0,0,1,.65,1.17c.25.53.46,1.08.66,1.63.62,1.7,1.1,3.47,1.79,5.14a27,27,0,0,1,2.13,6.36,1.41,1.41,0,0,1,0,.2h10.9c-2.66-5-2.76-10.73-2.48-16.3.08-1.67,0-3.81.64-5.38,1.08-2.51,4.24-3.48,6.72-3.4a.7.7,0,0,1,.69.48c1.5,1.34,4.45.83,6.21.55a49.45,49.45,0,0,0,7.86-2l1.74-.59a40.79,40.79,0,0,0,3.93-1.58l.39-.2.29-.12v0c.48-.26.95-.55,1.41-.85a30.28,30.28,0,0,1,3.2-1.9,6.94,6.94,0,0,1,2.32-.65,5.93,5.93,0,0,1,1.58.06,7.7,7.7,0,0,1,5.58,4.73,55.8,55.8,0,0,1,2.14,5.27,18.81,18.81,0,0,1,.76,3,13.64,13.64,0,0,1,.16,2c0,5.62-.57,11.23-.49,16.86H275V289.82S265.18,283.05,264.2,282.69Z"/><g class="cls-15"><path class="cls-10" d="M121.87,58c-2.5-1.5-22.49,5-25.42,8-.07,5.5-6.07,85.5-11.51,113.62-1.8,9.25-7.2,34-7,35.24.3,2.37-.75,17.45,45.55,15.63,25.42-1,37.56-8.5,37.49-15-.07-7-9.73-30-14-42.5C136.87,143.5,122.37,59.5,121.87,58Z"/></g><g class="cls-16"><path class="cls-4" d="M160.3,213.76C156.79,204,128,202,120.37,202c-12.32-.07-43.52,7.05-42,14.92,2,10.08,16.5,11.75,20,12.58,4.53,1.08,31.49,4.5,54.49-5C156,223.2,162.37,219.5,160.3,213.76Z"/></g><path class="cls-17" d="M215.53,95.77c.07-5.52.61-11.35-.08-16.84a.85.85,0,0,0,0-.17.62.62,0,0,0-.71-.58,170.21,170.21,0,0,0-21.86,3.68c-2,.44-3.91.89-5.81,1.52-.92.3-2.66.7-3.26,1.56-.82,1.17-.4,4.45-.46,5.84-.14,2.9-.23,5.8-.3,8.7s-.12,5.84-.08,8.76a23.37,23.37,0,0,0,.34,5.15.73.73,0,0,0,.53.52c4.09.88,9,0,13.12-.32,5.93-.44,11.87-1,17.78-1.67.36,0,.81-.31.75-.75a38.32,38.32,0,0,1,0-5.25C215.44,102.53,215.49,99.15,215.53,95.77Zm-31,16.77c-.05,0,0-.05,0,0Zm8.46-.19c-2.57.15-5.45-.18-8,.21a1,1,0,0,1-.4,0,6.92,6.92,0,0,1-.07-1c-.1-1.35-.11-2.72-.11-4.08,0-3.73,0-7.47.17-11.2.1-3.23-.19-6.89.45-10.07,0-.24,0-.33,0-.36l.19-.14a4.86,4.86,0,0,1,1.36-.6,29.77,29.77,0,0,1,3.37-1c3.05-.8,6.16-1.41,9.26-2,4.88-.9,9.85-1.89,14.8-2.36.55,5.24.05,10.78,0,16,0,3.38-.09,6.76-.12,10.15,0,1.49-.15,3.08,0,4.59C206.94,111.32,200,111.93,193,112.35Z"/><path class="cls-2" d="M264.17,231.14c-.12-12.22-.11-24.48-.87-36.67-.72-11.68-1.14-23.4-2.5-35-.79-6.79-1.58-14.11-4.39-20.42-1.46-3.3-4.18-6-6.61-8.55a33.25,33.25,0,0,0-10.66-7.89c.85-5.58-2.67-10.55-5.07-15.25a6.57,6.57,0,0,0,1.61-2.42c.53-1.53.13-3.78.14-5.38,0-2.69,0-5.38,0-8.07a158,158,0,0,0-.57-15.84c-.15-1.41-.16-2.68-1.08-3.78a41.15,41.15,0,0,0-4.1-4c-3.53-3.22-7.24-6.58-11.79-8.23a36.43,36.43,0,0,0-20.82-1.31c-.94.22-.54,1.66.4,1.44a34.8,34.8,0,0,1,18.63.84c4,1.29,7.09,3.61,10.28,6.33,2.26,1.94,6.47,4.66,6.87,7.79A116.84,116.84,0,0,1,234.31,88c.06,4.66,0,9.33,0,14,0,1.49.2,2.31-.77,3.43a29.25,29.25,0,0,1-3.38,3.11c-2.12,1.76-4.31,3.43-6.53,5a.81.81,0,0,0-.52.38c-1.22.88-2.45,1.76-3.68,2.62l-1.72,1.19a.61.61,0,0,0-.24.17c-1,.71-2.06,1.41-3.1,2.1a14,14,0,0,1-5.73,2.27,59.22,59.22,0,0,1-21.36.26c-6.87-1.36-12.24-6.84-16.57-12.06-.62-.74-1.67.32-1.06,1.06,3.66,4.41,8.54,9.68,14.1,11.68,6.22,2.23,13.78,1.92,20.22,1.22,1.86-.2,4-.32,6-.71h.08c8.47-.69,17.95,1.7,25.59,5.27,3.56,1.67,7.17,3.81,9.09,7.36a55.81,55.81,0,0,1,5,14.43,178.37,178.37,0,0,1,3.62,28c.07,1,.13,2,.18,3,.26,4.92.43,9.83.58,14.7.89,27.46.87,54.95,1.31,82.42,0,2.2.07,4.39.11,6.59.08,4.17.12,8.34.36,12.5,0,.46.13,1.39.19,2h1.42c0-.56-.1-1.81-.12-2.23-.23-4.07-.27-8.16-.35-12.24,0-2-.07-3.93-.1-5.89-.44-27.18-.45-54.37-1.27-81.53-.19-6.29-.42-12.62-.84-18.93-.06-.93-.12-1.86-.19-2.79-.49-6.55-1.18-13.07-2.23-19.52a85.64,85.64,0,0,0-3.69-15.15c-1.22-3.39-2.61-7-5.29-9.49-5.89-5.51-15-7.92-22.77-9.24a54.16,54.16,0,0,0-6.61-.77c1.06-.68,2.09-1.52,3.06-2.18l1.09-.75c6.69.83,13.46,1.88,19.77,4.35,5.53,2.16,9.62,6.42,13.43,10.82a21.51,21.51,0,0,1,4.82,8.25,72.63,72.63,0,0,1,2.2,10c2.09,13,2.11,26.06,3.22,39.12.88,10.27.83,20.66,1,31q.31,23,.21,46c0,4.3,0,8.82,0,13.36,0,6-.09,12.11-.43,17.84h1.5c0-1.25.13-4.52.16-5.84.09-3.82.14-7.64.18-11.47,0-1.73,0-3.47,0-5.2Q264.41,254.32,264.17,231.14ZM220,118q2-1.38,3.92-2.79A31.48,31.48,0,0,1,231,120,107.93,107.93,0,0,0,220,118Zm17.73,4-1.14-.41c-.87-.3-1.75-.57-2.63-.82l-.08-.11a32.5,32.5,0,0,0-8.6-6.41q1.83-1.35,3.62-2.75c1.09-.86,2.67-1.9,4.05-3.08C235.09,112.51,238.34,117.12,237.72,122Z"/><path class="cls-4" d="M200.84,76.68s-22.84-4.35-20.15-4.5l3.76-16.94-2.6-7.56c-1-.5-1-2.5-.5-4s2.91-1.56,4.24-2.28c1.16-.62,1.62-3,2.73-3.58l0-.14c-2-1.5-7.5-.5-9.5,1-1.84,1.38-6,5-6.27,8.5-.24,3.08,1.22,7.11.7,10.16s-2.18,7.79-1,11.08C171.16,70.65,168.65,77,167,79s-6.53,9.12-3.2,14.5a4.65,4.65,0,0,1-.89-.53c2.5,9.5-1,12.5-1,12.5,3.23,3.54,4.65,3.8,9.41,6.18,3,1.5,11.2,1.31,14.73.19,3.77-1.19,9.27-6.19,11.41-9.69a18.41,18.41,0,0,0,1.73-4A57.11,57.11,0,0,0,200.84,76.68Z"/><path class="cls-10" d="M205.37,84.54c-.06-1.25.13-2.51,0-3.75-.22-1.89-1.2-3.62-1.53-5.5-.4-2.32-.21-5.76-1.16-8.62-.33-1-5.11-7.37-6.18-9.81-1.19-2.69-.93-9.82-1.64-12.68-.49-1.94-3.33-6.22-5.78-6.47a.7.7,0,0,0-.35-.68c-3.94-2.46-9.46,0-12.47,2.86-2,1.88-4.05,4.26-4.39,7.1-.43,3.51,1.23,6.95.63,10.47s-2.29,6.87-1.62,10.42a7.61,7.61,0,0,0,.31,1.05c-1.47,3.28-2.65,6.84-4.8,9.72h0c-2.19,2.83-4.09,6.27-4.39,9.89a9,9,0,0,0,.24,2.87c.61.27,1.21.56,1.8.85a7.17,7.17,0,0,1-.58-2.76c0-3.59,2-7.19,4.11-10l.05-.07.07-.08c2-2.65,3.12-5.86,4.44-8.9a5.87,5.87,0,0,0,1.45,1.17,9.12,9.12,0,0,1,1.73-.89,4.6,4.6,0,0,1-2.43-2,4.77,4.77,0,0,1-.51-1.39,6.89,6.89,0,0,1-.12-1.25c0-2.86,1.18-5.55,1.7-8.33a19.28,19.28,0,0,0-.24-6.2c-.52-3.58-.47-6.13,2-9,2.59-3.06,8-6.87,12.16-4.43-.77.91-1.26,2.64-2.23,3.16-1.33.72-3.76.85-4.24,2.28s-.5,3.5.5,4l2.6,7.56,9.16,26.64c4.29-2.92,7.23-5.2,7.23-5.2a57.11,57.11,0,0,1-1.62,21.5l.17.5c2.45-1,5.45-4,6-5.78C206.18,90.19,205.51,87.36,205.37,84.54Z"/><path class="cls-18" d="M162,93.3a.72.72,0,0,1,.45-.87c-4.32-2-8.64-3.46-12.09-.71a7.64,7.64,0,0,0-1.65,2.34,14.43,14.43,0,0,0-4.16,1.44c-.93.5-1.83,2.83-2,3.89-.27,2.27,1.19,8.65,2.19,12.66-.88,5.16-1.68,9.7-1.88,10.09-.63,1.26-.76,2.2-1.94,3-4.74,3.12-6.27.76-11.64,2.56-3,1-3.86,4.91-2.41,5.81a12,12,0,0,0,6.91,1.19c.8-.27,3.56-1.55,6-2.76a1.45,1.45,0,0,0,.27.43,7.41,7.41,0,0,0,5.2,2.23c1.47-.13,2.76-1.12,4.23-1.31,1.67-.2,7.24,2.41,8.81-.29,1.25-2.15-1.35-4.49-2-5.3-1.58-2-1.69-3.62-1.68-6.16,0-2.33,1.13-5.14,0-8.19,1.29-3.34,1.69-11.83,1.69-11.83l5.35,3.76,0,0C164.66,102.77,162.77,96.25,162,93.3Zm-17.17,34.17c1-1.06,2.07-2.34,3.26-3.88l.46,4A4.45,4.45,0,0,1,144.87,127.47Z"/><path class="cls-6" d="M191.43,68.8c-1.58,1.38-3.47,5.55-4.75,6.37s-5.46,2.17-6.33,1c-1.11-1.48,1-5.5.67-7-.33-.28-2.61,1.3-4.17,2A60.15,60.15,0,0,0,175.27,77a17,17,0,0,0-.05,4.33c.1,1,.64,4,1.63,4.34s9.5,7.5,14.5,4c.33-2.31,4.8-17.44,5-20C196.45,67.42,192.67,67.72,191.43,68.8Z"/><path class="cls-18" d="M191,52.42c-1.11-.24-2.61.26-3.61-.24a16.24,16.24,0,0,1-3.83-2.92c-1.13-1.16-2.05-4.15-2.18-4.16-.63,0-1.2,1.29-2,2.08-1,1-5.5,2-5.5,3.5,0,1,0,3,0,3.77.45.74,1.54,1.36,1.54,2.23a20.05,20.05,0,0,0,2,7.55c.44.74,3,3.45,4.14,3.49.38,0-2.48,7.4-.93,8.65s9-4.15,9.5-4.5c.95-.69-2-5.5-2.71-7.94a12.39,12.39,0,0,0,1.34-2.19c.86-1.82.06-3.2.48-5.17.85.28,1.3.14,1.58-.7A5.77,5.77,0,0,0,191,52.42Z"/><path class="cls-5" d="M196.79,68.48c-1-1.92-4.29-1.38-5.74-.33h0a.72.72,0,0,0-.15.11c-2.32,2.27-3.06,5.9-6.33,7a6,6,0,0,1-2.38.55c-1.58-.22-1.42-1.38-1.15-2.64a12.83,12.83,0,0,0,.73-4,.76.76,0,0,0-.55-.72c-1.1-.17-3.23.85-4.41,1.8a3.82,3.82,0,0,0-.7.7l-.08.15a4.78,4.78,0,0,0-.39,1c-.18.65-.29,1.34-.43,1.84a21.37,21.37,0,0,0-.82,4.17l0,.51c0,.46,0,1,0,1.55,0,.41,0,.83.07,1.27.17,1.76.62,3.58,1.76,4.59a27.73,27.73,0,0,0,4.83,3c2.68,1.47,10.15,4.46,11.25-.25,1.16-5,2.67-9.93,3.91-14.92C196.54,72.53,197.6,70,196.79,68.48Zm-1.6,3.21c-.51,2.28-1.13,4.53-1.73,6.79-.64,2.42-1.31,4.84-1.94,7.26-.23.87-.42,1.77-.67,2.63-.31,1.06-.25,1.11-1.59,1.41-2.8.63-5.83-.94-8.18-2.31-1.38-.81-3.77-1.86-4.48-3.38a10.74,10.74,0,0,1-.74-5.48,21.84,21.84,0,0,1,.41-2.59c.12-.54.25-1.07.38-1.57s.22-1.19.39-1.85a3.06,3.06,0,0,1,.39-.94,1.25,1.25,0,0,1,.09-.12s.54-.32,1.16-.64c.25-.14.52-.28.79-.41s.55-.26.78-.36c-.31,2.92-2.65,7.64,2.13,7.2a9.55,9.55,0,0,0,5.11-1.86c1.88-1.65,2.65-4.33,4.43-6.1,1.05-.68,3.2-1.22,3.64.31A5.57,5.57,0,0,1,195.19,71.69Z"/><path class="cls-18" d="M203.19,87.66c-1.55,0-3.11-.13-4.66-.19.41-.31,1.81-.79,2-1.38s-1.07-1.34-3.39-1c2-3.84,4.84-7.47,4.67-11.75a6.21,6.21,0,0,0-2.8-4.14,3.57,3.57,0,0,0-3.65-.12c-1.06.72-3.05,4.87-3.48,7.06-.5,2.5-4,10-5,11.5-2,0-7.1-2.41-8.5-3-2-.83-3-3-4.94-2.35l-.2.19c.42-.81.83-1.59,1.15-2.24,0-.56,0-1.09,0-1.55l0-.51a21.37,21.37,0,0,1,.82-4.17c.14-.5.25-1.19.43-1.84a4.78,4.78,0,0,1,.39-1,4,4,0,0,0-1.46.7c-.61.49-2.72,1.82-3.22,3.82C170,81,166.05,88.45,166,88.91c-.41,2,0,4.62,1.88,5.49s5.09.21,7.09-.35c1.79-.5,4.29-.51,6.19-1l.24.14c2.5,1.5,5.5,3.5,8.89,3.16a6.06,6.06,0,0,0,2.92-2.76c4.23,1.06,5.71.07,7.18-1.4a6.38,6.38,0,0,1,2.23-1.64,1.15,1.15,0,0,0,.9-.79C203.55,89.29,204.34,87.68,203.19,87.66Zm-32.84,0,.87-1.54a4.29,4.29,0,0,0,.13,1,66.87,66.87,0,0,1,7.1,4.18Z"/><path class="cls-12" d="M206.44,88.3c-.16-2.49-.07-5-.33-7.51a36.81,36.81,0,0,0-1.38-4.9c-.54-2.21-.43-4.54-.75-6.78a12.94,12.94,0,0,0-2.64-6c-1.5-2.21-3.51-4.55-4.35-7.11-1-3-.74-6.5-1.06-9.65a11.68,11.68,0,0,0-2.49-6.35c-1.07-1.38-3.15-3.68-5.18-3-1.06.34-1.47,1.48-2,2.33C185.11,41.17,183.66,41,182,42a4,4,0,0,0-1.74,3,2.29,2.29,0,0,1,.89-.55.74.74,0,0,1,.77.25,3.79,3.79,0,0,1,1.72-1.73c.57-.25,1.2-.33,1.77-.59a4.14,4.14,0,0,0,2-2,5.69,5.69,0,0,1,.76-1.35c1.27-1.09,2.49.22,3.27,1A11.38,11.38,0,0,1,194,44c1.67,4.93,0,10.3,2.77,15,1.41,2.35,3.07,4.53,4.53,6.84,1.7,2.67,1.26,6,1.7,9,.28,1.87,1.13,3.52,1.49,5.36.44,2.29.16,4.82.36,7.17s.44,4.62-.86,6.55A12.34,12.34,0,0,1,199,98c-.88.4-.11,1.7.76,1.29a12.49,12.49,0,0,0,6.16-5.79A11.59,11.59,0,0,0,206.44,88.3Z"/><path class="cls-17" d="M191.68,52.22a.62.62,0,0,0-.65-.54H191c-1.35-.13-2.62.1-3.9-.52a10.2,10.2,0,0,1-3-2.42c-1-1.19-1.19-2.79-2.07-4a.86.86,0,0,0-.07-.1.74.74,0,0,0-.77-.25,2.29,2.29,0,0,0-.89.55,9.51,9.51,0,0,0-.69.79,6.62,6.62,0,0,1-3,2c-1.32.58-3.08,1.17-3.47,2.72a7.53,7.53,0,0,0,.43,4.86C174.89,57.69,175,60.4,176,63c.9,2.32,3.86,5.89,6.67,5.44,2.06-.33,3.9-2.26,5.12-3.81a10,10,0,0,0,1.79-3c.46-1.38.2-2.78.29-4.21C192,57.16,192.07,54.08,191.68,52.22Zm-15.87,3.6a4.63,4.63,0,0,0-.28-.54,10.17,10.17,0,0,1-.71-1.11,1.59,1.59,0,0,1,2.41,1l-.12.06A5.39,5.39,0,0,1,175.81,55.82Zm13.59,0a.75.75,0,0,0-.92.52c-.32,2.23.16,4.22-1.1,6.25-.93,1.49-3.39,4.63-5.46,4.32-1.22-.18-2.9-1.84-3.64-2.78a12.46,12.46,0,0,1-1.8-4.75,19.83,19.83,0,0,1-.3-2.13,7.09,7.09,0,0,0,1.25-.5.28.28,0,0,0,0,.09c-.14.92-.62,1.93,0,2.79a2.67,2.67,0,0,0,2.81.68,2.17,2.17,0,0,0,1.8-2.16c.08-1-1.42-1-1.5,0-.06.69-1.46,1.21-1.87.62-.21-.3.16-1.22.21-1.54a4.51,4.51,0,0,0-.18-2.67,3.16,3.16,0,0,0-4.14-2,4.29,4.29,0,0,1,.19-1.87c.57-1.24,2.64-1.65,3.82-2.24a5.1,5.1,0,0,0,1.21-.72,5.49,5.49,0,0,0,.69-.86,7.45,7.45,0,0,1,.61-.79c.27.59.46,1.27.73,1.8.07.14.15.27.22.4a9.49,9.49,0,0,0,2.17,2.54A11.88,11.88,0,0,0,187,52.83a8.3,8.3,0,0,0,3.33.31C190.4,54.12,190.45,56.08,189.4,55.85Z"/><path class="cls-17" d="M180.11,53.24c1.27-.31,2.58.34,3.87.25,1-.07,1-1.57,0-1.5-1.45.1-2.81-.55-4.27-.2C178.77,52,179.17,53.46,180.11,53.24Z"/><path class="cls-17" d="M183.76,54.49a2.61,2.61,0,0,1-1.45.23,3.28,3.28,0,0,1-1.17-.61c-.81-.54-1.56.76-.76,1.3a3.85,3.85,0,0,0,3.78.53C185.05,55.59,184.66,54.14,183.76,54.49Z"/><path class="cls-17" d="M182.78,61.44a5.57,5.57,0,0,1-2,.79,13.34,13.34,0,0,1-2-.12c-1-.11-.95,1.4,0,1.5a10.67,10.67,0,0,0,2.46.08,8.25,8.25,0,0,0,2.32-1C184.42,62.35,183.66,61.06,182.78,61.44Z"/><path class="cls-5" d="M163.49,92.9h0l-1-.46a.72.72,0,0,0-.45.87c.73,3,2.62,9.47-.22,11.93l0,0,1.25.88C166.22,103.12,164.36,96.46,163.49,92.9Z"/><path class="cls-17" d="M204.53,88a1.32,1.32,0,0,0-1.14-1.07,7.35,7.35,0,0,0-1.45-.2,52.79,52.79,0,0,0-.21-8.9c1.2-3.38,1.05-6.78-2.12-9.06a.59.59,0,0,0-.26-.19.63.63,0,0,0-.3-.12c-3.33-1.35-5.06.54-6.49,3.55s-2.08,6.28-3.42,9.33c-.65,1.49-1.34,3-2.08,4.42a3.8,3.8,0,0,1-.49.91c-.39.35-.11.15-.35.18a8,8,0,0,1-2.75-.83,45.22,45.22,0,0,1-4.6-1.94c-1.38-.69-2.69-2.32-4.28-2.57h-.16a24.56,24.56,0,0,1-.07-2.78l0-.51q-1,2-2,4a5.45,5.45,0,0,0-2.1,4c-.2.36-.39.72-.6,1.08a.77.77,0,0,0,.27,1l8.1,3.68.27.17.71.46c-1.08.15-2.18.25-3.26.46-2,.36-3.92,1.09-6,1-2.61-.16-3.81-2.63-3.12-5a17.72,17.72,0,0,1,1.13-2.37,81.23,81.23,0,0,0,3.47-8.22c.62-1.82.91-3.54,2.37-4.91a6.75,6.75,0,0,1,1.59-1.13l.38-.19A4.14,4.14,0,0,1,176.1,71s0,0,0,0a3.82,3.82,0,0,1,.7-.7,12.64,12.64,0,0,0-1.51.48,9.12,9.12,0,0,0-1.73.89,7.25,7.25,0,0,0-2.94,3.8c-1.47,4.26-3.31,8.23-5,12.37a6.85,6.85,0,0,0,0,5.17c-.5-.25-1-.51-1.53-.75s-1.19-.58-1.8-.85a20.53,20.53,0,0,0-6.48-1.9,7.18,7.18,0,0,0-7.4,3.83c-3.38.83-6,2.15-6.45,5.94s1.3,8.38,2.23,12.09c0,0,0,.07,0,.11-.44,2.58-.89,5.16-1.37,7.73-.56,3-1.28,5.37-4.63,6.51s-7.85-.44-10.88,2.32a5.14,5.14,0,0,0-1.73,4.39c.26,1.49,1.44,2,2.78,2.46a11.51,11.51,0,0,0,5.42.57,26.18,26.18,0,0,0,6-2.63,6.22,6.22,0,0,0,1.8,1.46,7,7,0,0,0,3.84,1c1.59-.1,2.93-1.3,4.52-1.32,2.71,0,10.33,3,9.55-2.8-.36-2.73-3.27-4.18-3.8-6.93-.69-3.61.87-7.16.49-10.78a.76.76,0,0,0-.17-.41,15.44,15.44,0,0,0,1.13-5.41c0-1-.49-4.15.05-5.44.3.31.61.61.92.91a5.67,5.67,0,0,1,1.22-.9c-.56-.54-1.11-1.08-1.64-1.65a.76.76,0,0,0-.91-.11c-1.39.89-1.2,3.27-1.2,4.69a19,19,0,0,1-1.52,8.69,31.68,31.68,0,0,1-5.12,7.63,29.61,29.61,0,0,0-3.58,5.38,31.79,31.79,0,0,0-3.16-1.95,7.17,7.17,0,0,0,1.43-2.41,24.12,24.12,0,0,0,.82-3.77c1-5.53,1.9-11.08,2.87-16.61a44.22,44.22,0,0,1,1-5.11,14.81,14.81,0,0,1,1.7-3.57c1.86-2.92,5.42-2.79,8.35-1.89a37.58,37.58,0,0,1,4.65,1.81c1,.44,1.91.9,2.87,1.35,1.55.75,3.11,1.49,4.7,2.12,3,1.19,6.75,2.8,10,2.05.94-.21.54-1.66-.4-1.44-2.76.62-6.15-.61-9.07-1.9a20.15,20.15,0,0,0,2.71-.45c2.35-.53,4.8-.7,7.13-1.26,2.35,1.5,4.84,2.91,7.56,3.22,2.39.26,3.93-1,5.1-2.74,1.75.42,3.73.79,5.39-.08a5.24,5.24,0,0,0,.51-.3c0,.09,0,.18,0,.26a22.56,22.56,0,0,1-4.46,9.94,4.39,4.39,0,0,1,.9,1.34,21.87,21.87,0,0,0,4.58-8.94c.33-1.32.61-2.67.83-4a11.82,11.82,0,0,1,1.89-1.42A3.15,3.15,0,0,0,204.53,88ZM133.66,134c-1.56.39-4.55.11-5.86-.85-2.39-1.75.86-4.41,2.57-4.95,2-.63,4-.37,6.09-.56a9.71,9.71,0,0,0,2.23-.46,12.59,12.59,0,0,0,0,3,6.91,6.91,0,0,0,.3,1.43A26.21,26.21,0,0,1,133.66,134Zm9.55-6.67c.64.41,1.24.83,1.84,1.15a.84.84,0,0,0,.5.24,3.61,3.61,0,0,0,2.74.12c.9-.31.51-1.76-.4-1.44a2.38,2.38,0,0,1-1.15.08,32.57,32.57,0,0,1,3.54-5.24,34.7,34.7,0,0,0,4.37-6.25c-.26,3.42-1.39,6.9,0,10.2.67,1.6,4.3,4.62,3.14,6.46s-4.64.5-6.23.17a6.69,6.69,0,0,0-4.26.46c-2.42.92-6.32.44-7-2.6a9.41,9.41,0,0,1-.15-2.65C140.34,126,141.74,126.35,143.21,127.28ZM146,100.91q-.61,3.51-1.2,7a41.16,41.16,0,0,1-1.37-6.87,6.33,6.33,0,0,1,.83-4,5.38,5.38,0,0,1,3.26-1.94A29.32,29.32,0,0,0,146,100.91Zm44.73-5.63c-2.41,1.34-5.82-.7-8.27-2.27l-1.36-.88-2.26-1.42c-1.21-.77-2.42-1.54-3.65-2.28-.81-.5-3.22-1.72-3.36-1.85a.08.08,0,0,1,0,0c-.3-.65,1-2.8,1.62-3.16l.14-.07c1.5-.63,3.2,1.39,4.44,2,.83.42,1.71.75,2.57,1.12a19.83,19.83,0,0,0,6.31,2,.74.74,0,0,0,.64-.37,49.84,49.84,0,0,0,4.07-8.65c1.15-2.93,2.31-11.65,7-9.53,2.3,1.53,2.7,3.71,2.19,6.09a13.06,13.06,0,0,1-.57,1.89c-1.33,3.56-4,7.3-5.09,9.82C194.18,90,193,94,190.71,95.28Zm9.78-10.58a3.69,3.69,0,0,0-2.08-.39c.68-1.21,1.39-2.4,2-3.62C200.52,82,200.53,83.36,200.49,84.7Zm2.32,4.63a3,3,0,0,1-1.2,1,9.59,9.59,0,0,0-1.09.68c-.22.19-.43.4-.64.61A6.2,6.2,0,0,1,198.21,93a5.84,5.84,0,0,1-3.83,0c.28-.51.53-1,.77-1.56.85-1.82,1.52-3.72,2.41-5.52.3-.05,2.13-.46,1.67.34-.13.23-.85.44-1.08.58a.76.76,0,0,0,.38,1.4l1.75,0a12.07,12.07,0,0,1,1.36.11l.17,0C202.51,88.46,203.26,88.41,202.81,89.33Z"/><path class="cls-17" d="M189.76,109c-4.5,3.22-10.89,3.72-16.23,2.56-2.87-.62-5.5-2.58-7.87-4.22a60.61,60.61,0,0,1-5.09-3.94,5.32,5.32,0,0,0-1.38.77c1.26,1.13,2.59,2.2,4,3.21.69.51,1.38,1,2.08,1.48l.75.52c2.27,1.55,4.71,3.16,7.41,3.69,5.38,1,11.92.74,16.56-2.38l.53-.36a30.21,30.21,0,0,0,2.9-2.3c.33-.3.65-.59,1-.9a1.74,1.74,0,0,0-.36-1.83A25.89,25.89,0,0,1,189.76,109Z"/><path class="cls-18" d="M75.78,300c-.44-3.44-1.57-4.57-2.7-7.85l-1.31-3.78a7.29,7.29,0,0,0-2.08-3.6c-1.35-1-3.2-1-4.87-1.37-1.15-.24-3.07-2-4.74-3.7-1.2-1.22-12.88-3.07-12.88-3.07a5.25,5.25,0,0,1,.06,1.9,7.36,7.36,0,0,1-3.3,4,17.13,17.13,0,0,0-4.13,3.22,12.73,12.73,0,0,0-2,4.8c-.83,3.17-1.66,6.22-1.5,9.5"/><path class="cls-18" d="M66.47,269.5a9.06,9.06,0,0,0,2.18-4.05c.45-2.3.32-5.33-1.69-6.54"/><path class="cls-10" d="M43.59,300a5.41,5.41,0,0,1-2-3.51,27.61,27.61,0,0,1-.2-4.07c-.06-2-1.37-5-1.94-7l4.13-3.07c1.25,2,3.08,5.16,5.16,6.32a9,9,0,0,0,7.91,0c2.5-1.12,5.54-4.06,7.33-6.13l5.16,1.94,3,3c-1,2-2.74,4.27-2.19,6.4.32,1.26.92,1.94,1.3,3.19a3.11,3.11,0,0,1,0,2.85"/><path class="cls-6" d="M64.11,278.79a19.5,19.5,0,0,1-16.3-1.74,7.83,7.83,0,0,1-2.75-2.52c-1.32-2.19-.74-5,0-7.46.62-2.17,2.35-11.4,5.26-14.34s11.56-4.45,13.92-2.41c2.16,1.87,2.65,5.65,2.47,8.5-.23,3.48-.15,16.9-1.83,19.88l-1,.22"/><path class="cls-4" d="M44.12,299.46c-2.43-2-1.68-5-2-7.77a26.58,26.58,0,0,0-1.51-5.29c-.2.26-.39.54-.57.82s-.35.58-.51.88a24.22,24.22,0,0,1,1.19,6.36A8.2,8.2,0,0,0,42.51,300h1.86A.64.64,0,0,0,44.12,299.46Z"/><path class="cls-4" d="M71.63,296.07c-.56-1.39-1.24-2.5-.86-4.09a8.29,8.29,0,0,1,.82-2c-.1-.31-.2-.61-.31-.92s-.23-.61-.35-.91c-.9,1.57-1.9,3.26-1.84,5.07.07,2.33,2.34,4.18,1.41,6.56a.78.78,0,0,0,0,.21H72A5.16,5.16,0,0,0,71.63,296.07Z"/><path class="cls-4" d="M50.46,290.14c3.91.89,7.46-.88,10.37-3.35.79-.68,1.55-1.4,2.28-2.14a5.25,5.25,0,0,0,.66-.87h0l-.3-.17a7.5,7.5,0,0,1-.88-.59c-2.31,2.53-5.07,5.1-8.47,5.71-4.74.86-7.21-2.43-9.39-5.94-.41.31-.83.6-1.23.87h0C45.19,286.44,47.12,289.38,50.46,290.14Z"/><path class="cls-17" d="M76.5,299.79a27,27,0,0,0-2.13-6.36c-.69-1.67-1.17-3.44-1.79-5.14-.2-.55-.41-1.1-.66-1.63a7.24,7.24,0,0,0-.65-1.17,5.45,5.45,0,0,0-2.88-2.17l-.46-.14a23,23,0,0,1-3.32-.69,5.15,5.15,0,0,1-1-.55,17.2,17.2,0,0,1-2-1.81,18,18,0,0,0,2.2-.47.83.83,0,0,0,.27,0c2.32-.55,2.27-3.12,2.53-5.21.18-1.46.3-2.93.39-4.4h0c2.5-3.08,4.22-8.71.54-11.61,0-3.81-.54-7.72-3.74-9.2-4.32-2-12.4.25-15,4.19-1.68,2.54-2.52,5.7-3.29,8.6a50.32,50.32,0,0,0-1.93,8.51,7.43,7.43,0,0,0,3,6.82c.23,1.83-1.29,3.24-2.8,4.33-.51.36-1,.69-1.45,1a12,12,0,0,0-3.5,3.21c-.15.23-.29.46-.42.71A29.68,29.68,0,0,0,35.6,300h1.5a25.22,25.22,0,0,1,2.4-11.9,12.89,12.89,0,0,1,1.08-1.7A10.34,10.34,0,0,1,43.07,284l.43-.29c.4-.27.82-.56,1.23-.87,1.57-1.19,3.06-2.64,3.33-4.49,3.24,1.76,7.7,2.31,11.53,2.05l.28.2c.94.76,1.76,1.71,2.72,2.47a6.41,6.41,0,0,0,1.18.76l.38.19c1.46.57,2.83.59,4,1a3.82,3.82,0,0,1,1.93,1.51,6,6,0,0,1,.48.84c.13.27.25.54.36.82q.36.9.66,1.83c.45,1.33.85,2.68,1.38,4A28.39,28.39,0,0,1,75,300h1.49A1.48,1.48,0,0,0,76.5,299.79Zm-9.27-35.31c0-1.14.16-2.54.24-4,1.29,1.82.72,4.53-.33,6.63ZM56,279a18.66,18.66,0,0,1-6.4-1.79,12.78,12.78,0,0,1-2.07-1.25,5.69,5.69,0,0,1-2.5-5,25.28,25.28,0,0,1,1-4.84,73,73,0,0,1,2.43-8.59c1.33-3.47,3.1-5.39,6.72-6.49,2.87-.86,7.66-1.95,9.52,1.16,1.65,2.76,1.19,6.17,1.1,9.23s-.16,6.07-.36,9.09C65.36,272,65.55,277,64,278l-.12,0a20.62,20.62,0,0,1-3.78.84A19.67,19.67,0,0,1,56,279Z"/><path class="cls-18" d="M113.61,272.18a4.72,4.72,0,0,0,.6-.34c-.87-3.44,1.44-7.27,2.14-10.38a2.26,2.26,0,0,0,2.73-.91c.61-.85.29-2.42.44-3.46s.52-5.09-1.11-5.26c-.85-.09-1.12.55-1.84,1l-12.21,22.71c1.67-.46,3.31-1,4.76-1.52Z"/><path class="cls-18" d="M153.75,230.81c-1.28-1.08-3.42-1.61-5-2.1,0-2.16,1.25-4.28-.06-6-.84-1.1-1.4,1.16-1.94,2.45-2,4.73-1.65,6.14-2.13,8.54a31.67,31.67,0,0,1-3.05,7.27c-1.49,2.86-4.91,5.61-6.41,8.46-2.15,4.08-5,10.28-6.91,11.72-2.75,2.06-6.26,3.85-7.22,7.22l.16.23c1.27,0,2.68.68,4.57,2.55.94.92,3.62,8.47,3.94,9.74.46-4.52,10.11-15.89,12.08-23.68,1.88-1.36,5.58-11.34,7-14.95a25.54,25.54,0,0,1,2.79-4.8c.47-.71,3-.39,3.29-1.2C155.4,234.66,155,231.9,153.75,230.81Z"/><path class="cls-12" d="M129.67,280.89c-.32-1.27-3-8.82-3.94-9.74-1.89-1.87-3.3-2.5-4.57-2.55a6,6,0,0,0-.85.06c-1.77.27-4.56,2.14-6,3.15l-.05,0s0,.06,0,.08l-.62.26a42.64,42.64,0,0,1-4.49,1.85l-5.07,2.08s-10.27,1.67-11.85-.44h.09c-2.09-.17-4.88.68-6.07,3-.41.82-.85,8.65-.54,11.62.44,4.26.43,6,2.58,9.69h41.05C129.19,293.93,130.15,282.82,129.67,280.89Z"/><path class="cls-4" d="M130.55,283.13a13.64,13.64,0,0,0-.16-2,18.81,18.81,0,0,0-.76-3,55.8,55.8,0,0,0-2.14-5.27,7.7,7.7,0,0,0-5.58-4.73,5.93,5.93,0,0,0-1.58-.06,6.94,6.94,0,0,0-2.32.65,30.28,30.28,0,0,0-3.2,1.9c-.46.3-.93.59-1.41.85v0l-.29.12-.39.2a40.79,40.79,0,0,1-3.93,1.58l-1.74.59a49.45,49.45,0,0,1-7.86,2c-1.76.28-4.71.79-6.21-.55a.7.7,0,0,0-.69-.48c-2.48-.08-5.64.89-6.72,3.4-.67,1.57-.56,3.71-.64,5.38-.28,5.57-.18,11.31,2.48,16.31H89a.81.81,0,0,0-.1-.39c-2.33-4.12-2.67-8.79-2.57-13.45,0-1.9.1-3.83.33-5.73.32-2.74,2.62-4,5.21-4,2.09,2.1,6.19,1.28,8.74.8q1.42-.27,2.85-.63c1.81-.45,3.59-1,5.35-1.62l4.78-2c.42-.22.85-.47,1.28-.73,3.54-2.09,7.25-4.82,10.46-.39,1.23,1.69,1.83,4.06,2.53,6a15,15,0,0,1,1.17,4.23c.32,5.94-.56,11.94-.48,17.89h1.5C130,294.37,130.57,288.75,130.55,283.13Z"/><path class="cls-6" d="M111,241.55c-3.77-2.27-7.84-1.51-11.89.22-1.36.58-3.61,3.49-4.47,5.49s-.44,7.15,1,8.35l.1.08c-1.31,6.43-3.72,19.13-3.39,23.45.26,3.27.6,7.85,2.34,11.63a25.61,25.61,0,0,0,4.91,6.84c6.85-1.48,11.46-9.52,9.28-16.17a46,46,0,0,1-1.59-4.43,18.51,18.51,0,0,1,.22-6.42c.17-1.29.28-2.61.35-3.95h0c1.07,2.19,1.86,3.42,4.21,2.78-.89-2.94.81-6.07,2.24-8.78a24.51,24.51,0,0,0,2.34-9.46C116.87,246.79,114.74,243.82,111,241.55Z"/><path class="cls-12" d="M108.44,243.66a7,7,0,0,1-2.72-2.69,3.66,3.66,0,0,0-.83-.9c-1.86-1.25-3.35,1-5.5.85l-.29,0c-.71-.11-2.44,1.35-2.89,2.55a1.52,1.52,0,0,0-.1.64,8.27,8.27,0,0,0,.28,1.55,5.11,5.11,0,0,0,.67,1.16,9.47,9.47,0,0,1,.43-.91,5.71,5.71,0,0,1,2.74-2.66c3.17-1.38,6.63,1.14,7.9,4a5.13,5.13,0,0,1,.25.69,7.52,7.52,0,0,1,.26,1.71c.59-.73.23-1.43.53-2.84C109.38,245.83,109.35,244,108.44,243.66Z"/><path class="cls-17" d="M155.39,232c-1-2.4-3.55-3.13-5.86-3.8.29-1.85,1.3-5.54-.8-6.37-1.57-.62-2.12,1.59-2.53,2.64a30.92,30.92,0,0,0-2,7.17,25.46,25.46,0,0,1-3.09,8.66c-1.52,2.85-4,4.92-5.83,7.56s-2.94,5.64-4.46,8.39a24.83,24.83,0,0,1-2,3.26,17.08,17.08,0,0,1-3.8,3.06,11.94,11.94,0,0,0-4.63,5.49,5.93,5.93,0,0,1,1.58.06c1.17-2.72,3.81-4.19,6.13-5.88a11.48,11.48,0,0,0,3-3.46c1.4-2.28,2.56-4.7,3.78-7.09a34.6,34.6,0,0,1,4.83-6.83,25.24,25.24,0,0,0,5.88-12.3,28.47,28.47,0,0,1,1.28-5.55,37.23,37.23,0,0,1,1.41-3.56c.74.14-.21,4.52-.25,5.29a.75.75,0,0,0,.55.72c1.7.52,4.23.94,5.25,2.59a4.92,4.92,0,0,1,.58,2.56c-.1,1.38-.43,1.27-1.53,1.63-2.36.77-3.29,2.65-4.36,4.94-2.12,4.5-3.43,9.36-5.91,13.71-.39.69-1,1.24-1.39,1.89a29.7,29.7,0,0,0-1.22,3.36,62.4,62.4,0,0,1-4.17,7.72c-1.89,3.1-4.76,6.61-6.14,10.26a18.81,18.81,0,0,1,.76,3v0c.35-2.43,1.9-4.7,3.14-6.77,1.76-2.92,3.63-5.77,5.31-8.73.76-1.36,1.5-2.73,2.14-4.15.56-1.21.83-2.71,1.48-3.85a63.32,63.32,0,0,0,3.23-5.77c1.14-2.55,2.15-5.15,3.17-7.74a26.59,26.59,0,0,1,2.37-4.78,3.93,3.93,0,0,1,1.21-1.49c.6-.31,1.42-.14,2.05-.4C156.44,236.6,156,233.57,155.39,232Z"/><path class="cls-17" d="M119.28,251.4a1.7,1.7,0,0,0-1.89-.06,15,15,0,0,0,0-1.9c-.47-4.85-4.73-9-9.46-9.87a12.64,12.64,0,0,0-8.49,1.35c2.15.12,3.64-2.1,5.5-.85a3.66,3.66,0,0,1,.83.9,11.65,11.65,0,0,1,7,2.73c3.89,3.4,3.54,8.36,2.29,13-1.12,4.14-4.33,7.69-3.81,12.1-1.41,0-2-1.14-2.65-2.4.07-1.21.13-2.42.13-3.65,0-3-.1-6-.11-9,0-1,.09-2.07.11-3.13,0-.32,0-.65,0-1a7.52,7.52,0,0,0-.26-1.71,5.13,5.13,0,0,0-.25-.69c-1.27-2.86-4.73-5.38-7.9-4a5.71,5.71,0,0,0-2.74,2.66,9.47,9.47,0,0,0-.43.91c-.12.29-.23.59-.33.89a43.93,43.93,0,0,0-1.12,4.77c-.08.4-.17.8-.25,1.21a11.58,11.58,0,0,1-.4-3.77,7.79,7.79,0,0,1,1.43-4.26,8.27,8.27,0,0,1-.28-1.55,1.52,1.52,0,0,1,.1-.64,12.77,12.77,0,0,0-1.36,1.81c-1.74,2.8-2.27,7.94,0,10.65-1.17,5.69-2.23,11.42-2.94,17.18-1.06,8.57.23,17.54,6.21,24.13,1.12,1.23,1.45,1.29,3.17.65a13.13,13.13,0,0,0,5.29-3.74,13.84,13.84,0,0,0,3-12.89c-1.11-3.09-2-5.43-1.6-8.81.14-1.19.26-2.36.36-3.53a3.57,3.57,0,0,0,3.91,1.25.77.77,0,0,0,.53-.92c-.91-4,2.1-7.34,3.31-11a27.39,27.39,0,0,0,1.15-5c1.89-1.34,1.72,1.43,1.64,2.65s.09,5.53-2.33,4.8a.77.77,0,0,0-.93.53c-.87,3.43-2.66,6.59-2.22,10.17.48-.26.95-.55,1.41-.85-.13-2.84,1.26-5.53,2.07-8.24,3.52.47,3.45-4.37,3.53-6.91C120.44,254.18,120.47,252.2,119.28,251.4Zm-11.15,30.24a12.32,12.32,0,0,1-2.78,11.67,10.81,10.81,0,0,1-5,3.32c-.3.08-.35.18-.35.23a2.05,2.05,0,0,0-.33-.25,8.41,8.41,0,0,1-1.54-1.77c-4.84-6.09-5.58-14.26-4.65-21.75.76-6.2,2-12.35,3.24-18.46a42.3,42.3,0,0,1,1.69-7c.05-.14.1-.28.16-.42,2.35-5.54,8.38-1.87,8.54,2.75,0,.08,0,.16,0,.24,0,5.34.25,10.7,0,16-.12,2.67-.69,5.32-.78,8S107.24,279.15,108.13,281.64Z"/><path class="cls-4" d="M99.1,241.65c.72-.2,1.44-.07,2.21-.35,1.11-.39,2.12-1.3,3.37-.42a8.79,8.79,0,0,1,1.3,1.7,14.58,14.58,0,0,0,1.79,1.57c.77.68.93,2.38.61,3.77a9.51,9.51,0,0,1,.29,2.68,6.74,6.74,0,0,0,1-6.7,2.78,2.78,0,0,0-.85-.89,17.09,17.09,0,0,1-2.49-2.47,3.53,3.53,0,0,0-2.46-1.6c-1.37-.1-2.49.93-3.78,1.18s-2,.1-3.18,1.15c-2.21,2-1.56,4.16-.18,6.42a10.68,10.68,0,0,1,.76-1.8C96.76,244.21,96.68,242.31,99.1,241.65Z"/><path class="cls-5" d="M238.11,265.86c-.77-3.69,4.17-14.18,4.72-17.06,1.5,1.1,2,1.71,3.51,2.81,1.26-2,7.08-9.76,6.72-10.17a34,34,0,0,0-7.14-6.39c-2.89-1.69-7.08-1.38-10.73-1.58l-23.06,3c-1.29.16-4.74.43-6.76,1.66a32.13,32.13,0,0,0-8.13,6.5c6.6,3,6.39,7.79,4.79,9.2,2.56-.21,3.12-.93,5.68-1.14-.14,5.64-2.12,8.26-3.13,11.58l-.16,8.56c.92,4.3-1.9,8.63-1.14,8.84,10.9,3,25.4,6.53,43.56-.54,1-.4-1.38-3.56-3.12-6.22Z"/><path class="cls-18" d="M213.34,273.67c-3.16-2.53-.59-3.66-4-5.83-4.51-2.88-13.63-8.23-13.68-8.63s4.16-2.84,6.38-5.34l.9-3.38L197.86,245c-4.51,1.72-8.39,7.64-12.76,12.76-.74.88,2.05,6.65,3.86,7.41,5.33,2.26,9.66,4.52,15,6.78.67.28,3.2,5.48,5,6.59,1.28.77,5.75,1.13,8.14.74C220.16,278.74,215.84,275.67,213.34,273.67Z"/><path class="cls-18" d="M247.61,249.37c4.33,2.23,5.73,3.81,10.21,5.73-2.95,2.15-17,8.6-18.79,10.47-2.07,2.18.95,4.09-1.19,5.6s-3.79,3.25-3.45,4.57c.29,1.08,4.17,1.93,5.17,2.34,1.95.12,2.65-.35,3.7-2s.68-5.54,1.84-7.11c1.32-1.79,11.37-3.6,13.23-4.81,2.31-1.49,6.4-4.65,7.94-5.57a5.52,5.52,0,0,0,2.48-3.39c-.17-1-2.42-4-3.7-5.33-1.78-1.78-9.22-7.21-11.71-8.21"/><path class="cls-4" d="M245.74,282.59a3.39,3.39,0,0,0,1.93-1.2c.51-.9-.27-2.11-.7-2.86-.77-1.34-1.57-2.66-2.4-4a6.49,6.49,0,0,1-.19.84,6.73,6.73,0,0,1-.5,1.14c.41.61.82,1.21,1.21,1.83.16.25,1.38,1.87,1.22,2.24-.07.16-.49.34-1,.53-1,.34-2.46.67-2.73.76a57.53,57.53,0,0,1-13.32,2.53,68.81,68.81,0,0,1-21.42-2.28c-.46-.11-1.8-.29-2.77-.57a1.89,1.89,0,0,1-1-.53c-.28-.51,1.1-3.76,1.2-4.43a13,13,0,0,0,.13-1.4c-.37-.61-.72-1.22-1.08-1.75a3.41,3.41,0,0,0-.53-.61,20.13,20.13,0,0,1-.71,6.37c-.22.71-.88,1.92-.51,2.69.3.61,1.2.85,2,1,0,.12-.08.23-.13.35-2,5.6-4.1,11.13-6.15,16.74h49.55A49.46,49.46,0,0,0,245.74,282.59Z"/><path class="cls-4" d="M253.8,241.3a1.38,1.38,0,0,0-.08-.27c-.4-1-1.95-2.12-2.62-2.75a27.6,27.6,0,0,0-4.34-3.59c-3.09-1.95-6.86-1.79-10.38-1.92s-6.9.71-10.26,1.15L213,235.65a31.86,31.86,0,0,0-6.07,1c-3.86,1.26-7.52,4.47-10.19,7.44a.88.88,0,0,0-.21.63.68.68,0,0,0,.36.55,8.45,8.45,0,0,1,.91.49c2.48,1.5,6.4,4.87,3.73,7.53h0c-.43.42-.15,1.36.53,1.28l.36-.05c1.53-.22,3-.7,4.52-1a21.69,21.69,0,0,1-1.27,5.88c-.5,1.36-1.3,2.75-1.67,4.17l1.41.86a7.51,7.51,0,0,1,.19-.82c1.17-3.77,2.72-6.9,2.89-11a.75.75,0,0,0-.75-.75,40.34,40.34,0,0,0-4.1.87c1.25-3.2-2.38-6.73-5.16-8.38,2.41-2.57,5.54-5.24,8.85-6.33a27.23,27.23,0,0,1,5.31-.94c3.44-.44,6.88-.91,10.31-1.36,3.78-.5,7.55-1.06,11.33-1.49a32.22,32.22,0,0,1,5.38,0c4.44.23,7.28,1.93,10.41,5,.55.53,1.68,1.33,2,2s.2-.33.23.2c0,.14-.23.37-.28.5a15.75,15.75,0,0,1-2,3c-.83,1.2-1.69,2.38-2.53,3.57-.2.27-.39.55-.57.82s-.48.69-.71,1c-1-.78-1.95-1.6-3-2.37a.76.76,0,0,0-1.1.45c-.65,3-2.06,5.91-3,8.82-.89,2.59-2,5.56-1.69,8.36a.64.64,0,0,0,0,.33.66.66,0,0,0,.2.35l0,.07a3.57,3.57,0,0,1,1.13-1.69c-.1-2.71,1.28-5.79,2.13-8.2.77-2.16,1.75-4.32,2.37-6.54.9.71,1.78,1.46,2.69,2.16a.76.76,0,0,0,1-.27c.33-.52.67-1,1-1.55l.86-1.23c.8-1.12,1.61-2.24,2.39-3.36a22.06,22.06,0,0,0,2.28-3.25A2.28,2.28,0,0,0,253.8,241.3Z"/><path class="cls-17" d="M214.88,273.94a7.29,7.29,0,0,1-2.45-2.55c-.27-.64-.29-1.34-.58-2a7.16,7.16,0,0,0-3-2.8l-3.43-2.11-1.41-.86c-1.89-1.15-3.79-2.3-5.66-3.49-.49-.31-1-.7-1.5-1,.2-.17.41-.41.58-.53a41.62,41.62,0,0,0,5-4.06l-.36.05c-.68.08-1-.86-.53-1.28a30.13,30.13,0,0,1-4.4,3.65c-.54.4-1.87,1.08-2.09,1.8-.37,1.22,1.31,1.88,2.15,2.42,2.16,1.38,4.36,2.71,6.56,4l1.2.73.29.18c1.18.71,2.39,1.4,3.53,2.19,1.84,1.27,1.58,2.21,2.43,3.92a10.39,10.39,0,0,0,3.18,3.15,23.29,23.29,0,0,1,1.79,1.5c1,1,1.47,1.4-.16,1.68a14.45,14.45,0,0,1-5.32-.34c-1.74-.42-2.52-1.57-3.5-3-.65-1-1.19-2-1.88-2.95l-.2-.27a4.09,4.09,0,0,0-1.37-1.06c-.61-.32-1.29-.55-2-.85-1.92-.85-3.81-1.75-5.71-2.63-2.14-1-4.73-1.75-6.7-3a8.64,8.64,0,0,1-2.73-3.65,6.07,6.07,0,0,1-.83-2.28c.07-1.07,1.45-2.22,2.1-3,2.84-3.51,5.71-7.72,9.9-9.72a8.45,8.45,0,0,0-.91-.49.68.68,0,0,1-.36-.55c-3.54,1.87-6.12,5.28-8.59,8.33-1,1.23-3.17,3-3.62,4.58a5,5,0,0,0,.6,3A15.29,15.29,0,0,0,187,264.3c1.15,1.43,2.54,1.85,4.21,2.6,2.46,1.1,4.89,2.26,7.33,3.39,1.61.74,3.88,1.29,5.21,2.56a3.41,3.41,0,0,1,.53.61c.36.53.71,1.14,1.08,1.75,1.07,1.78,2.26,3.65,4.19,4.31a16.73,16.73,0,0,0,5.18.62c1,0,2.94.15,3.77-.68C220.35,277.61,216,274.78,214.88,273.94Z"/><path class="cls-6" d="M235.21,217.09c-.41-2.85-1.32-6-3.8-7.42-3.4-2-8.16-1.33-11.48.79-2.5,1.6-5.61,4.73-6.22,7.63-.87,4.08-2,17.68-1,20.59s7.39,8.83,7.39,8.83c2.59,1,7.56,0,10.19-.84,3-1,6-5.5,7-9,.56-2-3.1-3-2.67-5A44.17,44.17,0,0,0,235.21,217.09Z"/><path class="cls-17" d="M236.25,216.8c-.66-4.37-2.61-8.29-7.31-9.19a14.1,14.1,0,0,0-11.79,3.61,15,15,0,0,0-4.06,5.28,16,16,0,0,0-.86,4c-.48,3.48-.78,7-.92,10.49-.11,2.53-.45,5.63.44,8.07,1.05,2.86,3.75,5.34,5.84,7.46a18.57,18.57,0,0,0,1.79,1.76c1.38,1,3.88.79,5.48.63a25.19,25.19,0,0,0,5.77-1.19,10.53,10.53,0,0,0,4.61-3.69,15.71,15.71,0,0,0,3.19-6.29c.32-1.86-1.29-2.78-2.32-4-.73-.88-.12-2.06,0-3.1.23-1.42.39-2.86.49-4.3a46.73,46.73,0,0,0-.39-9.53c-.19-1.37-2.27-.79-2.08.57a49.21,49.21,0,0,1-.54,15,3.61,3.61,0,0,0,1.39,3.29c.37.37,1,.79,1.2,1.29s-.29,1.55-.55,2.13a15.92,15.92,0,0,1-3.3,4.93,8.49,8.49,0,0,1-4.4,2.17,20.24,20.24,0,0,1-5.42.63,8.07,8.07,0,0,1-1.3-.13c-.25-.06-.79-.25-.36,0a4.61,4.61,0,0,1-.6-.57,46.88,46.88,0,0,1-5.4-6,6.51,6.51,0,0,1-1.3-2.6,20.36,20.36,0,0,1-.19-3.31c0-3.12.19-6.24.48-9.34.23-2.41.26-5.26,1.16-7.55a13.54,13.54,0,0,1,10.6-7.8,7.81,7.81,0,0,1,6.12,1.69c1.6,1.56,2.09,4,2.41,6.08C234.37,218.74,236.46,218.16,236.25,216.8Z"/><path class="cls-17" d="M264.14,248.1c-3.14-2.59-6.66-5.45-10.42-7.07a1.38,1.38,0,0,1,.08.27,2.28,2.28,0,0,1-.26,1.3,44.92,44.92,0,0,1,7.3,4.81c2.41,1.81,5.68,4.17,6.79,7.1,1.05,2.74-5.75,6.28-7.68,7.64-2.54,1.81-5.09,2.49-8.08,3.33-2.14.6-5.51,1.1-7.15,2.8-1,1.08-1.14,2.8-1.3,4.46a10.69,10.69,0,0,1-.45,2.43,3.2,3.2,0,0,1-1.6,1.93c-1.28.64-4-.24-5.11-.92-2.87-1.67,1.58-3.52,2.6-4.94a2.49,2.49,0,0,0,.42-2c0-.24-.07-.5-.1-.79a3.45,3.45,0,0,1,.23-1.9,4.41,4.41,0,0,1,1.87-1.61c5.46-3.3,11.69-5.49,16.91-9.16.41-.29.57-1.05,0-1.3-3.28-1.45-6.19-3.5-9.32-5.24l-.86,1.23c2.8,1.55,5.43,3.35,8.3,4.77-5.35,3.44-11.6,5.41-16.82,9.06a7,7,0,0,0-.72.57,3.57,3.57,0,0,0-1.13,1.69,2.59,2.59,0,0,0-.09.42,12.6,12.6,0,0,0,.19,1.87c-.05,1.86-1.8,2.65-2.91,3.95-2.53,2.94-.45,4.43,2.47,5.38,2.71.88,5.22.82,6.58-1.62a6.73,6.73,0,0,0,.5-1.14,6.49,6.49,0,0,0,.19-.84c.28-1.73.08-4,1.21-5.21s3.58-1.57,5.09-2c3.24-.95,6.5-1.54,9.3-3.5,1.81-1.26,3.55-2.61,5.37-3.85,1.5-1,3-2,3.73-3.8C270.31,253.42,266.06,249.67,264.14,248.1Z"/><path class="cls-11" d="M68.06,178.4a10.24,10.24,0,0,0-2.85-.74c-1.93-.1-4,.9-5.72,0-2.58-1.43-2.35-6.37-5.28-6.61a4.92,4.92,0,0,0-2,.46,27.8,27.8,0,0,1-11.75,1.63,5.57,5.57,0,0,1-2.28-.54c-1.71-.93-2.16-3.1-3-4.85a9.49,9.49,0,0,0-10.12-5.52v36.24S36.36,198,40,195.11c2.68-2.14,4.6-4,7.08-6.38a18.79,18.79,0,0,1,12.89-5.63c5.16-.21,10.51,0,15.23-2.1Z"/><path class="cls-19" d="M195.87,105.49a4.39,4.39,0,0,0-.9-1.34,6.89,6.89,0,0,0-1.28-1c-3.58-2.25-8.62-2.72-12.77-3.05a69.08,69.08,0,0,0-14.23.38c-1.91.24-5.19.56-7.4,1.8a5.67,5.67,0,0,0-1.22.9,3.58,3.58,0,0,0-.82,1.19c-1.59,3.8,6.55,4.76,8.65,5H166l-.75-.52c-.7-.48-1.39-1-2.08-1.48a17.82,17.82,0,0,1-2.4-.69c-.9-.33-2.53-.86-1.88-2.14a1.12,1.12,0,0,1,.32-.38,5.32,5.32,0,0,1,1.38-.77c.17-.08.34-.14.47-.19,3.81-1.51,8.26-1.66,12.31-1.79a61,61,0,0,1,10.38.46,38.08,38.08,0,0,1,6.92,1.48,7.29,7.29,0,0,1,3.15,1.7c.07.08.12.16.18.24a1.74,1.74,0,0,1,.36,1.83,2.22,2.22,0,0,1-1,.9,30.21,30.21,0,0,1-2.9,2.3.74.74,0,0,0,.3,0c1.85-.27,4.5-.94,5.17-3A2.63,2.63,0,0,0,195.87,105.49Z"/><path class="cls-4" d="M123.11,17.67a1.11,1.11,0,0,0-1.48-.38,1.58,1.58,0,0,0-.55,1.71,4.25,4.25,0,0,0,1.23,1,1,1,0,0,0,1.07-.76A1.84,1.84,0,0,0,123.11,17.67Z"/><path class="cls-4" d="M215.78,7.22a1.85,1.85,0,0,0-.69-1,1.21,1.21,0,0,0-1.48.42,2,2,0,0,0-.33,1.6c.15.73,1.73.38,1.73.38a1,1,0,0,0,.85-.47A1.2,1.2,0,0,0,215.78,7.22Z"/><path class="cls-4" d="M71.12,113.17a1.12,1.12,0,0,0-1.48-.38,1.58,1.58,0,0,0-.55,1.71,4.43,4.43,0,0,0,1.23,1,1,1,0,0,0,1.06-.77A1.78,1.78,0,0,0,71.12,113.17Z"/><path class="cls-4" d="M39.61,71.44a2.39,2.39,0,0,0-2.81-.57C33,73,36.46,75,38.09,75a2.12,2.12,0,0,0,2-1.17A2.36,2.36,0,0,0,39.61,71.44Z"/><path class="cls-4" d="M77,42.24c-1-.24-1.44,1-1.44,1a.72.72,0,0,0,.47,1c.39.13,1.73.25,1.94-.1A1.52,1.52,0,0,0,77,42.24Z"/><path class="cls-4" d="M175.28,133.13a4.19,4.19,0,0,0-2-.37c-1.23.62.13,3.74,2.07,2.63C175.67,134.62,176.07,133.54,175.28,133.13Z"/><path class="cls-4" d="M46.87,14.69c-.35.18-.48.11-.61.21A2.14,2.14,0,0,0,46.38,18a1.54,1.54,0,0,0,2.26-1.16C48.75,15.86,47.78,14.21,46.87,14.69Z"/><path class="cls-4" d="M162.82,59.78a1,1,0,1,0-1.88.3l.31.35a.83.83,0,0,0,1.38-.21.76.76,0,0,0,0-.3Z"/><path class="cls-4" d="M266.33,64.79a1.44,1.44,0,1,0-2.85.45l.46.55a1.26,1.26,0,0,0,2.1-.33,1,1,0,0,0,0-.45A1.38,1.38,0,0,0,266.33,64.79Z"/><path class="cls-12" d="M69,237.49c-.49-4.42-10.46-5-13.7-8-.7-.67-2.84-4.41-3.69-4.87-3.11-1.69-6.59,3.16-9.75,4.74-4.87,2.43-8.09-1-13.51-1.36-.8-.06-3.26,0-3.26,0v33.25s6.93-5.7,11.56-5.63c3.29,0,6.89,1.06,9.68-.69,2.25-1.41,3.16-4.16,4.22-6.6C53.55,241.31,69.79,245.06,69,237.49Z"/></svg>