<svg xmlns="http://www.w3.org/2000/svg" viewBox="0 0 500 500"><title>elementary_school_diaries</title><path d="M369.92,197.71c15.28-1.21,31.67,3.67,45.68,9.34,7.26,2.95,14.74,6.52,20.72,11.69,6.27,5.4,10.41,13.21,13.38,20.82,8.85,22.69,8.16,48.24,8.74,72.25,1.25,51.83,1.39,103.67,2.31,155.5.14,8.14.28,16.29.6,24.44.11,2.91-.4,7.18,1.12,9.8,2.38,4.1,11.53,6.41,14.38,1.56.65-1.09.54-2.65.61-3.89.37-6.31.33-12.65.38-19,.33-49.58-.45-99.22-1.82-148.78-.5-18-1.56-35.78-2.67-53.68-.58-9.34-1.06-18.75-3-27.94a88.67,88.67,0,0,0-10.49-26.36c-9.74-16.65-24.62-26.86-43-32.1-10.17-2.91-20.63-4.41-31.1-5.71-1.91-.23-1.89,2.77,0,3,21.12,2.61,44.1,6.21,60,21.61,14.87,14.38,21.82,34.56,23.6,54.74,1.68,19,2.68,38,3.28,57q2.31,73.39,2.14,146.87c0,8,0,15.94-.2,23.91-.05,2.29-.1,4.59-.24,6.88a5.68,5.68,0,0,1-.15,1.85c-1.45,2.6-8.06.93-9.49-1.8.09.17-.15-2-.21-2.88-.17-2.51-.25-5-.33-7.52-.28-8.3-.42-16.59-.56-24.89-.85-50.4-1-100.81-2.23-151.21-.53-22.35,0-45.77-6.47-67.36-4.06-13.58-10.76-26.21-23-33.91-12.91-8.12-28.35-13.11-43.27-15.81a73,73,0,0,0-18.82-1.4c-1.91.15-1.93,3.15,0,3Z"/><path d="M415.07,165.71c4.33,8.69,11.77,18.52,10.13,28.93-.29,1.88,2.6,2.7,2.89.79,1.81-11.46-5.63-21.62-10.43-31.23-.86-1.73-3.45-.21-2.59,1.51Z"/><path d="M396.54,180.05a63.22,63.22,0,0,1,18.9,13.5c1.34,1.4,3.46-.73,2.12-2.12a65.25,65.25,0,0,0-19.51-14c-1.74-.82-3.26,1.77-1.51,2.59Z"/><path d="M337.69,167.62c3.8-.38,8.13.28,11.1,2.91s2.74,6.48,3.18,10c.53,4.28,1.84,9-2.87,11.18-2.7,1.25-6.94,1.92-9.82,1-5.06-1.62-3-9.68-2.74-13.84.23-3.26,1.42-7.84.28-11-.65-1.81-3.55-1-2.89.79.91,2.52-.13,6.51-.32,9.11a77,77,0,0,0-.4,11.46c.59,7.25,8.62,7.5,14.36,6.08,3-.73,6.38-1.93,7.47-5,1.47-4.19-.09-9.52-.56-13.76-.94-8.58-8.46-12.77-16.79-11.93-1.9.2-1.92,3.2,0,3Z"/><path d="M289.08,173.32c7.32,8.83,17.09,19.37,28.21,23.36,12.44,4.46,27.55,3.83,40.44,2.44,5.29-.57,11.85-.77,16.81-2.76,3.3-1.33,6.49-4.14,9.43-6.14,8-5.46,16-11.12,23.63-17.12,4.13-3.24,11.78-7.82,13.59-13.14,1.05-3.06.25-7.55.27-10.76,0-5.38.05-10.76,0-16.14,0-10.54-.05-21.18-1.15-31.68-.29-2.81-.31-5.37-2.15-7.57A85.79,85.79,0,0,0,410,85.73c-7.06-6.43-14.48-13.15-23.58-16.46a73.06,73.06,0,0,0-41.65-2.62c-1.88.44-1.08,3.33.8,2.9a69.53,69.53,0,0,1,37.27,1.66c8,2.58,14.19,7.22,20.55,12.68,4.53,3.87,12.94,9.3,13.76,15.57,1.14,8.83,1.19,17.84,1.31,26.72.11,9.33,0,18.66,0,28,0,3,.38,4.61-1.55,6.85a57.94,57.94,0,0,1-6.77,6.23c-6.86,5.72-14.14,11-21.45,16.1q-5,3.53-10.13,6.92a27.87,27.87,0,0,1-11.45,4.53c-13.95,2.45-28.76,3.27-42.72.51-13.75-2.71-24.5-13.67-33.16-24.11-1.24-1.49-3.35.65-2.12,2.12Z"/><path d="M379.21,106.5c-14.6,1.27-29.44,4.21-43.73,7.37a119.27,119.27,0,0,0-11.61,3c-1.84.61-5.32,1.4-6.52,3.11-1.64,2.35-.81,8.91-.93,11.7q-.41,8.68-.6,17.39c-.13,5.84-.23,11.68-.15,17.52,0,3.36-.13,7,.68,10.3a1.49,1.49,0,0,0,1,1.05c8.2,1.75,18-.06,26.24-.66,11.88-.86,23.75-1.91,35.57-3.32.72-.09,1.62-.63,1.5-1.5-.46-3.42-.1-7.09-.07-10.52.06-6.76.16-13.53.24-20.29.13-11,1.22-22.71-.17-33.68-.24-1.89-3.24-1.91-3,0,1.39,11,.3,22.65.17,33.68-.08,6.76-.18,13.53-.24,20.29,0,3.43-.39,7.1.07,10.52l1.5-1.5c-14.42,1.72-28.93,3-43.43,3.85-5.14.3-10.9-.35-16,.43-1.38.21-1.11-.58-.68.39a8.27,8.27,0,0,1-.25-2.39c-.2-2.71-.21-5.45-.23-8.17-.06-7.46.11-14.93.34-22.39.2-6.47-.36-13.79.91-20.15.32-1.55-.73-.07.4-1a9.94,9.94,0,0,1,2.71-1.19,66.17,66.17,0,0,1,6.74-2c6.11-1.6,12.32-2.82,18.53-4,10.19-1.88,20.59-4,30.92-4.86C381.12,109.33,381.14,106.33,379.21,106.5Z"/><path d="M348.59,147.5c4.91-2,10.91-8,12-11.56,1.6-5.42.27-11.07,0-16.72-.12-2.5.27-5,0-7.5-.44-3.78-2.39-7.24-3-11-.81-4.65-.43-11.52-2.32-17.25-.66-2-10.24-14.74-12.37-19.61-2.37-5.4-1.86-19.65-3.29-25.37-1-4-7-13-12-13-3,0-3.84,6-6.51,7.44s-7.53,1.69-8.49,4.56-1,7,1,8" style="fill:#fff"/><path d="M349.35,148.79c4.88-2.25,10.17-6.52,12.32-11.59,1.37-3.21,1.26-7.06,1-10.47-.34-5-.14-10.09-.67-15-.37-3.43-1.94-6.49-2.75-9.8-1.09-4.42-.86-9.08-1.51-13.57-.72-5-2.53-7.84-5.28-11.89-3-4.42-7-9.1-8.7-14.22-2-6.07-1.48-13-2.12-19.3a23.31,23.31,0,0,0-5-12.71c-2.14-2.76-6.29-7.35-10.36-6-2.11.69-2.94,3-4,4.66-2.3,3.62-5.19,3.26-8.54,5.22-3.89,2.27-5,9.53-1.34,12.49,1.48,1.21,3.62-.9,2.12-2.12-3.42-2.79-.19-7.3,2.51-8.5,1.13-.51,2.4-.67,3.54-1.19a8.38,8.38,0,0,0,4.05-3.92c.47-.8.82-2.1,1.52-2.7,2.53-2.17,5,.45,6.53,2a22.75,22.75,0,0,1,5.12,8c3.33,9.86-.06,20.6,5.55,29.94,2.81,4.69,6.13,9.06,9.06,13.68,3.38,5.34,2.52,12,3.4,18,.54,3.73,2.26,7,3,10.71.89,4.59.32,9.64.72,14.34.38,4.42.88,9.24-1.72,13.1a24.54,24.54,0,0,1-10,8.24c-1.75.81-.23,3.39,1.52,2.59Z"/><path d="M351.5,103.5c2,14,.18,39.79-6.7,51-4.3,7-15.3,17-22.83,19.4-7.06,2.24-23.47,2.61-29.47-.39-9.52-4.76-22-14-28.46-21.09-2.31.8-1.54,10.65-1.54,13.09,0,13-12,27-16,31-.93.93-3.47,6-5.54,9.52" style="fill:#fff"/><path d="M350,103.5a109,109,0,0,1-1.32,35.07c-2.51,12.68-8.76,22.05-19.35,29.62-9,6.44-21.8,7.44-32.48,5.12-5.73-1.24-11-5.16-15.73-8.45a99.52,99.52,0,0,1-16-13.51,1.53,1.53,0,0,0-1.82-.24c-2.79,1.78-2.41,6.55-2.4,9.39,0,6.24-.32,11.55-3,17.39a64,64,0,0,1-10.25,15.25c-3.32,3.74-5.43,7.77-7.93,12.12a1.5,1.5,0,0,0,2.59,1.52,75,75,0,0,1,8.1-12.26,69.14,69.14,0,0,0,9.1-13.15c2.57-4.91,4.49-10.27,4.55-15.87,0-2.29-1.35-10.43.79-11.8l-1.82-.23a104.35,104.35,0,0,0,17.29,14.43c4.94,3.39,10.33,7.25,16.32,8.41,10.76,2.1,23.84,1.5,33.13-4.74,10.38-7,18-16.17,21-28.34A108.06,108.06,0,0,0,353,103.5c-.25-1.89-3.26-1.91-3,0Z"/><path d="M228.85,212.7c-3.69,1.77-7.74,4.37-11.75,5.35-3.11.77-9.09.21-11.71-1.7-4.78-3.51,1.73-8.83,5.15-9.9,4-1.26,8.07-.74,12.16-1.12,6.43-.6,12.05-4,14.27-10.14a48.36,48.36,0,0,0,1.64-7.55c2-11.06,3.81-22.16,5.75-33.23a88.08,88.08,0,0,1,1.91-10.2,29.73,29.73,0,0,1,3.41-7.15c3.71-5.84,10.84-5.57,16.7-3.78,8.44,2.58,16.23,7.3,24.44,10.56,6,2.38,13.5,5.6,20.08,4.11,1.88-.43,1.08-3.32-.8-2.9-7.58,1.72-17.51-3.54-24.21-6.53C278,135,270,130,261.3,129.18c-14-1.26-17.62,11.86-19.55,22.79-2.15,12.2-4.08,24.44-6.35,36.61-1.13,6-2.56,10.75-9.27,13-7,2.36-15.71-.88-21.77,4.64-2.29,2.08-4,5.62-3.46,8.78.52,3,2.88,4.07,5.56,4.93,3.21,1,7.5,1.84,10.85,1.13,4.46-.94,9-3.85,13.06-5.79,1.73-.84.21-3.43-1.52-2.59Z"/><path d="M246.65,136.79c-6.83,1.66-12.09,4.29-13.07,11.93s2.61,16.77,4.47,24.18c.47,1.87,3.37,1.08,2.9-.8-1.64-6.49-3.75-13.15-4.34-19.84a12.53,12.53,0,0,1,1.67-8c1.85-2.9,6-3.78,9.17-4.56,1.88-.45,1.08-3.34-.8-2.89Z"/><path d="M331.37,170.86c3.5-1.1,9.63-2.71,10.47-7,.79-4-3.58-7-6.68-8.51-7.93-3.77-17.75-4.75-26.47-5.25a130.68,130.68,0,0,0-29.38,1.23c-4.93.84-16.15,3.13-15.42,10.32.74,7.35,14.87,8.58,20.19,9.32,1.89.26,2.71-2.63.8-2.9-3.7-.51-22.57-3.16-16.61-9.47,5.1-5.4,17-5.24,23.72-5.57a130.86,130.86,0,0,1,23.25.68,95.79,95.79,0,0,1,13.34,2.47c2.51.69,5.52,1.43,7.56,3.12,5.75,4.76-2.06,7.6-5.57,8.71-1.83.58-1.05,3.47.8,2.89Z"/><path d="M259.07,177.14c.89,8.38-3.41,17.09,0,25.28,1.34,3.2,8.59,9.24,6.27,12.92s-9.27,1-12.46.35-5.33-.3-8.51.91c-4.85,1.84-12.66.89-14-5.2a18.39,18.39,0,0,1-.29-5.29c.34-4.05,3.16-3.27,6.09-1.41,3.35,2.13,6,4.43,10.16,3,1.81-.62,1-3.52-.8-2.89-5.65,1.93-10.75-8.27-16.34-4.5-2.72,1.83-2.3,7.3-2,10,.48,4.15,2,6.29,5.64,8.39a14,14,0,0,0,7.68,2.08c3.19-.2,5.87-2.6,9-2.64,5.41-.06,20.66,6,19.1-5.6-.73-5.47-6.55-8.36-7.6-13.87-1.39-7.22,1.74-14.31,1-21.56-.2-1.9-3.2-1.92-3,0Z"/><path d="M307.34,91.56c-2.61.29-6.37.64-8.4,2.29-1.23,1-5.44,3.65-6.44,7.65C289.86,112.05,281.9,127,281.71,128c-.84,4.06,0,9.25,3.75,11s10.19.42,14.18-.7,9.72-1,13.63-2.39L290.5,125.5s7.12-12.44,8.95-16.84C301.37,104,307.34,91.56,307.34,91.56Z" style="fill:#fff"/><path d="M307.34,90.06c-7.09.79-13.78,3.76-16.29,11-2.92,8.51-6.6,16.46-10.05,24.75-2,4.82-1.41,12,3.89,14.46,3.77,1.78,8.61.92,12.5.05,5.37-1.2,11-1.48,16.28-3.06,1.13-.35,1.59-2.18.35-2.75L291.26,124.2l.54,2.06c6.3-11,11.37-22.5,16.83-33.95.83-1.73-1.76-3.25-2.59-1.51-5.46,11.44-10.53,22.92-16.84,33.94a1.53,1.53,0,0,0,.54,2.06l22.77,10.34.36-2.74c-3.76,1.14-7.66,1.22-11.5,1.93s-7.83,2.2-11.94,1.94c-5.21-.34-7.62-5.27-6.22-10.08a34.52,34.52,0,0,1,2.24-4.72A161.55,161.55,0,0,0,292.4,107c1.25-3.62,1.81-7.07,4.74-9.82s6.15-3.68,10.2-4.13C309.23,92.84,309.26,89.84,307.34,90.06Z"/><path d="M332.67,87.74c-3.17,2.76-6.94,11.1-9.51,12.74s-10.92,4.35-12.66,2c-2.22-3,2-11,1.34-13.89-.66-.56-5.22,2.59-8.34,3.89,0,0-2.51,7.83-3.17,11.67a34.3,34.3,0,0,0-.08,8.65c.2,2.1,1.28,7.92,3.25,8.68,2.15.83,19,15,29,8,.67-4.62,9.61-34.87,9.93-40C342.7,85,335.15,85.58,332.67,87.74Z" style="fill:#fff"/><path d="M331.61,86.68c-4.64,4.54-6.13,11.8-12.67,14-1.32.45-3.33,1.3-4.75,1.1-3.17-.45-2.85-2.78-2.3-5.3s1.72-5.22,1.45-7.9a1.53,1.53,0,0,0-1.1-1.45c-2.76-.43-8.82,2.92-10.21,5-1,1.51-1.34,4.36-1.81,6.07a39.36,39.36,0,0,0-1.7,9.36c-.13,4.37.07,11.64,3.66,14.82,2.68,2.38,6.56,4.33,9.67,6,5.36,2.95,20.31,8.93,22.49-.5,2.32-10,5.36-19.86,7.83-29.84.72-2.92,2.85-8.07,1.23-11-2.12-3.85-8.58-2.76-11.49-.65-1.55,1.12-.05,3.72,1.51,2.59,2-1.44,6.6-2.71,7.51.45.29,1-.52,3-.75,4-1,4.56-2.24,9.07-3.45,13.58-1.29,4.84-2.62,9.68-3.89,14.52-.46,1.75-.83,3.53-1.33,5.26-.62,2.13-.51,2.22-3.19,2.82-5.6,1.26-11.66-1.89-16.35-4.62-2.77-1.61-7.54-3.72-9-6.76-2.73-5.82-1.53-13.4.1-19.28.39-1.41.7-4.8,1.73-5.82.16-.15,5.87-3.28,6.61-3.17l-1.11-1.44c.55,5.41-6.39,17.16,4.22,16.19,3.31-.3,7.65-1.44,10.23-3.71,3.79-3.34,5.31-8.74,8.94-12.29C335.11,87.45,333,85.33,331.61,86.68Z"/><path d="M344.5,120.5c5-1,6.58.83,6.32,1.82-.32,1.18-3.13,2.14-3.95,2.76,3.11.13,6.22.35,9.33.39,2.3,0,.72,3.24.56,4.17a2.25,2.25,0,0,1-1.8,1.57c-.82.21-2.46,1.29-4.46,3.29-3,3-5,5-13.79,2.69" style="fill:#fff"/><path d="M344.9,122c.49-.08,4.31-1,3.38.67-.27.46-1.71.89-2.16,1.16a1.51,1.51,0,0,0,.75,2.8c2,.09,4.2,0,6.22.3,1.46.21,3.31-.06,2.34,1.91-.69,1.39-3.38,2.32-4.58,3.34-1.49,1.29-2.79,3.06-4.61,3.93-2.83,1.34-6.27.39-9.13-.31-1.87-.46-2.67,2.43-.8,2.89,3.66.9,7.91,1.84,11.44,0,3.13-1.63,5.32-4.57,8.4-6.31a6.28,6.28,0,0,0,2.72-6.18,2.64,2.64,0,0,0-2.28-2.14c-2.93-.75-6.69-.3-9.72-.44l.76,2.79c1.83-1.1,5.66-2.42,4.48-5.29s-5.59-2.4-8-2c-1.9.3-1.09,3.19.8,2.9Z"/><path d="M347.76,88.61c-2.25-1.23-5.16-1.68-7.29-.23s-6.09,9.73-7,14.12c-1,5-8,20-10,23-4,0-14.2-4.82-17-6-3.93-1.66-6-6-9.87-4.69-3.13,2.69-5.13,5.69-4.13,9.69,3,1,15.7,9.42,20,12,5,3,11,7,17.8,6.33,5.79-1.79,9.76-13.73,12.2-19.28,3.92-8.89,11.25-16.94,10.88-26.65C353.27,94.06,350.25,90,347.76,88.61Z" style="fill:#fff"/><path d="M348.52,87.32c-7.08-3.19-10.65.66-13.59,6.87-2.83,6-4.17,12.56-6.84,18.66-1.31,3-2.68,5.94-4.17,8.83a7.5,7.5,0,0,1-1,1.81c-.78.72-.21.32-.7.38-1.51.18-4.15-1.18-5.5-1.68a90.47,90.47,0,0,1-9.21-3.86c-2.75-1.39-5.38-4.65-8.56-5.15-4.77-.76-10.8,7.79-7.78,12.08,1,1.41,4,2.26,5.47,3.14,3.31,2,6.56,4,9.82,6.1,6.19,3.93,12.8,8.94,20.28,9.77,7.26.81,10.63-5.48,13.34-11.29,1.77-3.78,3.12-7.74,5-11.45,2.37-4.62,5.32-8.92,7.37-13.69,3.26-7.6,3.54-15.53-4-20.52-1.61-1.07-3.12,1.52-1.51,2.59,12.5,8.3-3,26.16-6.95,35.6-1.89,4.53-4.2,12.62-8.84,15.2-5.79,3.22-14.5-3.36-19.26-6.3-4-2.45-7.84-5-11.81-7.42-1.64-1-3.84-1.8-5.26-3-.25-.22-1.41-.43-1.55-.73-.59-1.29,1.91-5.6,3.23-6.33,3.08-1.69,6.6,2.61,9.17,3.91,1.66.83,3.43,1.51,5.14,2.23,4,1.7,8.23,3.69,12.62,4a1.52,1.52,0,0,0,1.3-.74c3.36-5.33,5.84-11.44,8.14-17.29S337.55,85.66,347,89.91C348.75,90.69,350.28,88.11,348.52,87.32Z"/><path d="M331.73,55c-2.23-.48-5.23.52-7.23-.48a32.68,32.68,0,0,1-7.66-5.84c-2.25-2.31-4.1-8.3-4.36-8.31-1.26,0-2.4,2.57-4,4.15-2,2-11,4-11,7,0,2,0,6-.07,7.54.89,1.48,3.07,2.72,3.07,4.46,0,5,2.69,12.78,4.06,15.09.89,1.49,6.94,6.91,9.29,7,4,.13,10.65-6.08,13.41-12,1.71-3.65.1-6.41.95-10.35,1.69.56,2.59.29,3.16-1.4A11.7,11.7,0,0,0,331.73,55Z" style="fill:#fff"/><path d="M331.73,53.48c-2.71-.26-5.25.19-7.8-1a20.63,20.63,0,0,1-6-4.85c-2-2.37-2.37-5.57-4.13-8a1.55,1.55,0,0,0-1.69-.69c-1.52.54-2.15,1.46-3.15,2.69-1.83,2.21-3.36,3-5.92,4.08s-6.18,2.33-7,5.43c-.71,2.86-.54,7.23.86,9.71,2.67,4.72,2.89,10.12,4.89,15.27,1.8,4.64,7.72,11.79,13.34,10.88,4.13-.67,7.8-4.53,10.25-7.61A20.42,20.42,0,0,0,329,73.27c1-3.15.22-6.34.68-9.59l-1.85,1.05c5.86,1.31,6.22-6,5.37-10.15-.39-1.89-3.29-1.09-2.9.8.11.54,1,7-1.67,6.46a1.52,1.52,0,0,0-1.85,1c-.63,4.46.33,8.45-2.2,12.51-1.84,3-6.77,9.25-10.92,8.63-2.43-.36-5.8-3.68-7.27-5.56-2-2.57-2.89-6.39-3.62-9.51-.65-2.83-.29-5.78-1.9-8.25-1.05-1.63-1.69-2.12-1.87-4.06-.13-1.38-.31-3.71.28-5,1.14-2.47,5.29-3.3,7.65-4.46a11.35,11.35,0,0,0,2.41-1.45c1.13-1,2.2-3.48,3.55-4l-1.69-.69c1,1.36,1.44,3.44,2.21,4.94a18,18,0,0,0,4.77,5.88,23.43,23.43,0,0,0,5.58,3.87c2.57,1.09,5.29.42,8,.68C333.65,56.67,333.64,53.66,331.73,53.48Z"/><path d="M327.26,24.2c-5.68-3.53-15.26-1.55-20.52,2-6.38,4.32-13.2,11.68-13.33,19.76-.09,5.85,2.09,11.55,1.62,17.41-.39,4.85-1.68,9.62-2.08,14.49-.48,5.76-.76,14.72,6.31,16.48,1.87.46,2.67-2.43.79-2.89-6.93-1.73-4.07-15-3.32-19.88.42-2.72,1.09-5.45,1.3-8.2.3-3.86-.55-7.73-1.08-11.54-.72-5.16-.79-9.4,2.24-13.87a38.88,38.88,0,0,1,7.06-7.55c4.65-3.94,13.8-7.16,19.49-3.61,1.65,1,3.15-1.58,1.52-2.6Z"/><path d="M276.8,133.74c-1.89-3.18.84-9.18,2-12.27a56.68,56.68,0,0,1,5.75-11.66c4.72-7.06,7.56-14.94,11.26-22.55.84-1.73-1.75-3.26-2.6-1.52-2.28,4.71-4.18,9.61-6.46,14.33-1.92,4-4.53,7.44-6.64,11.29a66.23,66.23,0,0,0-5.68,13.78c-.86,3.1-2,7.14-.22,10.12a1.51,1.51,0,0,0,2.6-1.52Z"/><path d="M310,56.61c2.54-.61,5.16.68,7.75.5,1.91-.14,1.93-3.14,0-3-2.91.21-5.63-1.09-8.55-.39-1.88.44-1.08,3.34.8,2.89Z"/><path d="M310.56,61A7.71,7.71,0,0,0,318.13,62c1.78-.7,1-3.6-.8-2.9a5.12,5.12,0,0,1-2.9.45,6.58,6.58,0,0,1-2.35-1.21c-1.61-1.08-3.11,1.52-1.52,2.59Z"/><path d="M301.89,64.8a14.78,14.78,0,0,0,3.65-1.58c1.64-1,.14-3.6-1.52-2.6a11.24,11.24,0,0,1-2.93,1.28,1.51,1.51,0,0,0,.8,2.9Z"/><path d="M310.84,66.5c-.12,1.37-2.91,2.42-3.75,1.24-.41-.6.33-2.43.44-3.07a9.13,9.13,0,0,0-.36-5.35c-1.63-3.91-5.62-5.6-9.42-3.35a1.5,1.5,0,0,0,1.51,2.59c3.77-2.22,5.87,2.13,5.38,5.31-.29,1.84-1.25,3.88,0,5.59s3.77,1.84,5.62,1.36a4.34,4.34,0,0,0,3.59-4.32c.16-1.92-2.84-1.91-3,0Z"/><path d="M307.32,77.36a22,22,0,0,0,4.93.17c1.79-.22,3-1.23,4.63-1.93,1.77-.76.24-3.34-1.51-2.59-1.43.62-2.44,1.52-4.05,1.59a26.85,26.85,0,0,1-4-.24c-1.91-.21-1.9,2.79,0,3Z"/><path d="M46,299.13h8.16v.64H46.75v4.86h7v.65h-7v5.34h7.49v.64H46Z" style="fill:#fff"/><path d="M56.2,299.13v12.13h-.65V299.13Z" style="fill:#fff"/><path d="M58.49,307v.1a5,5,0,0,0,.21,1.46,3.53,3.53,0,0,0,.6,1.23,2.82,2.82,0,0,0,1,.83,3.41,3.41,0,0,0,3.48-.38,3.55,3.55,0,0,0,1.06-1.91h.65a3.92,3.92,0,0,1-1.25,2.34,3.77,3.77,0,0,1-2.54.82,3.94,3.94,0,0,1-1.7-.35,3.4,3.4,0,0,1-1.2-.95,4,4,0,0,1-.73-1.43,6.72,6.72,0,0,1-.23-1.78,6.45,6.45,0,0,1,.24-1.76,4.42,4.42,0,0,1,.74-1.47,3.58,3.58,0,0,1,1.23-1,3.73,3.73,0,0,1,1.75-.39,3.78,3.78,0,0,1,1.62.34,3.39,3.39,0,0,1,1.18.93,4.14,4.14,0,0,1,.73,1.36,5.55,5.55,0,0,1,.24,1.66,1.34,1.34,0,0,1,0,.19c0,.08,0,.14,0,.18Zm6.43-.56a4.89,4.89,0,0,0-.24-1.35,3.28,3.28,0,0,0-.61-1.12,3,3,0,0,0-1-.78,2.86,2.86,0,0,0-1.3-.29,3,3,0,0,0-1.38.3,3.14,3.14,0,0,0-1,.78,3.66,3.66,0,0,0-.63,1.13,5.07,5.07,0,0,0-.27,1.33Z" style="fill:#fff"/><path d="M67.09,302.53h.65v1.78h0a2.35,2.35,0,0,1,.36-.77,2.69,2.69,0,0,1,.62-.64,3,3,0,0,1,.82-.42,2.69,2.69,0,0,1,.94-.16,3.53,3.53,0,0,1,1.09.16,2.54,2.54,0,0,1,.78.43,1.89,1.89,0,0,1,.51.59,2.38,2.38,0,0,1,.26.68h0a3.11,3.11,0,0,1,1-1.39,2.9,2.9,0,0,1,1.72-.47,3.25,3.25,0,0,1,1.1.18,2.33,2.33,0,0,1,.86.54,2.43,2.43,0,0,1,.57.93,3.83,3.83,0,0,1,.21,1.33v6H78v-6a2.83,2.83,0,0,0-.25-1.31,1.92,1.92,0,0,0-.61-.72,1.63,1.63,0,0,0-.69-.31,3.48,3.48,0,0,0-.54-.06,2.84,2.84,0,0,0-1.1.21,2.26,2.26,0,0,0-.86.61,2.69,2.69,0,0,0-.57,1,4.23,4.23,0,0,0-.21,1.39v5.16h-.64v-6a2.81,2.81,0,0,0-.25-1.3,2,2,0,0,0-.58-.72,1.74,1.74,0,0,0-.68-.31,3.57,3.57,0,0,0-.55-.07,2.82,2.82,0,0,0-1,.19,2.72,2.72,0,0,0-.9.58,2.91,2.91,0,0,0-.66,1,3.76,3.76,0,0,0-.26,1.45v5.16h-.65Z" style="fill:#fff"/><path d="M80.85,307v.1a5.36,5.36,0,0,0,.2,1.46,3.73,3.73,0,0,0,.61,1.23,2.79,2.79,0,0,0,1,.83,3.43,3.43,0,0,0,3.49-.38,3.68,3.68,0,0,0,1.06-1.91h.64a3.87,3.87,0,0,1-1.25,2.34,3.77,3.77,0,0,1-2.54.82,3.86,3.86,0,0,1-1.69-.35,3.44,3.44,0,0,1-1.21-.95,4.1,4.1,0,0,1-.72-1.43A6.33,6.33,0,0,1,80.2,307a6.09,6.09,0,0,1,.25-1.76,4.24,4.24,0,0,1,.74-1.47,3.58,3.58,0,0,1,1.23-1,3.66,3.66,0,0,1,1.74-.39,3.83,3.83,0,0,1,1.63.34,3.48,3.48,0,0,1,1.18.93,4.12,4.12,0,0,1,.72,1.36,5.55,5.55,0,0,1,.25,1.66c0,.05,0,.12,0,.19a1.36,1.36,0,0,0,0,.18Zm6.42-.56a4.89,4.89,0,0,0-.24-1.35,3.1,3.1,0,0,0-.6-1.12,3.07,3.07,0,0,0-1-.78,2.9,2.9,0,0,0-1.31-.29,3,3,0,0,0-1.38.3,3.21,3.21,0,0,0-1,.78,3.29,3.29,0,0,0-.63,1.13,5.53,5.53,0,0,0-.28,1.33Z" style="fill:#fff"/><path d="M89.43,302.53h.65v1.87h0a2.81,2.81,0,0,1,.49-.88,3.24,3.24,0,0,1,.73-.65,3.13,3.13,0,0,1,.91-.41,3.77,3.77,0,0,1,1-.14,3.83,3.83,0,0,1,1.3.19,2.56,2.56,0,0,1,.88.49,2.65,2.65,0,0,1,.53.69,3,3,0,0,1,.28.77,4.29,4.29,0,0,1,.1.76c0,.24,0,.46,0,.64v5.4h-.64v-5.52a7,7,0,0,0-.06-.82,2.45,2.45,0,0,0-.29-.94,2.2,2.2,0,0,0-.75-.77,2.53,2.53,0,0,0-1.39-.33,2.91,2.91,0,0,0-1.32.28,2.83,2.83,0,0,0-1,.75,3.4,3.4,0,0,0-.62,1.16,4.93,4.93,0,0,0-.21,1.47v4.72h-.65Z" style="fill:#fff"/><path d="M101.47,303.09H99.56v6.1a2.31,2.31,0,0,0,.12.83.92.92,0,0,0,.37.47,1.33,1.33,0,0,0,.59.2,7.06,7.06,0,0,0,.81,0v.56a6.15,6.15,0,0,1-1,0,1.93,1.93,0,0,1-.82-.26,1.43,1.43,0,0,1-.57-.64,2.22,2.22,0,0,1-.18-1.17v-6.1H97.3v-.56h1.62v-2.72h.64v2.72h1.91Z" style="fill:#fff"/><path d="M108.45,309.53h0a2.68,2.68,0,0,1-.44.74,3.07,3.07,0,0,1-.71.62,3.69,3.69,0,0,1-.94.43,4.23,4.23,0,0,1-1.16.15,3.43,3.43,0,0,1-2.16-.6,2.25,2.25,0,0,1-.76-1.87,2.27,2.27,0,0,1,.31-1.25,2.33,2.33,0,0,1,.77-.76,3.26,3.26,0,0,1,1-.4,9.06,9.06,0,0,1,1.09-.17l1-.09a5.08,5.08,0,0,0,1.09-.16,1.39,1.39,0,0,0,.61-.3.88.88,0,0,0,.25-.5,5.41,5.41,0,0,0,0-.77,1.59,1.59,0,0,0-.13-.66,1.62,1.62,0,0,0-.43-.55,2.19,2.19,0,0,0-.75-.37,4,4,0,0,0-1.12-.14,3,3,0,0,0-1.9.58,2.32,2.32,0,0,0-.79,1.75h-.64a2.84,2.84,0,0,1,.93-2.17,3.67,3.67,0,0,1,2.43-.72,3.53,3.53,0,0,1,2.31.62,2.06,2.06,0,0,1,.72,1.63v5.08c0,.12,0,.25,0,.37a1.15,1.15,0,0,0,.06.34.45.45,0,0,0,.17.25.55.55,0,0,0,.34.09,2.41,2.41,0,0,0,.47-.05v.55a2.24,2.24,0,0,1-.52.06,1.51,1.51,0,0,1-.62-.1.82.82,0,0,1-.35-.27,1,1,0,0,1-.16-.4,2.57,2.57,0,0,1,0-.5Zm0-3.23a1.2,1.2,0,0,1-.72.39,7.82,7.82,0,0,1-1.08.15l-1.09.11c-.31,0-.63.08-1,.14a2.78,2.78,0,0,0-.86.32,1.69,1.69,0,0,0-.62.6,1.84,1.84,0,0,0-.23,1,1.69,1.69,0,0,0,.61,1.44,2.73,2.73,0,0,0,1.68.47,3.36,3.36,0,0,0,1.75-.4,3.15,3.15,0,0,0,1-.92,2.94,2.94,0,0,0,.43-1,4.48,4.48,0,0,0,.09-.66Z" style="fill:#fff"/><path d="M111.8,304.46h0a2.15,2.15,0,0,1,.44-.79,3,3,0,0,1,.76-.65,4,4,0,0,1,1-.42,3.91,3.91,0,0,1,1.14-.12v.64a3.2,3.2,0,0,0-1.16.1,3,3,0,0,0-1.25.75c-.16.17-.3.34-.42.49a2.1,2.1,0,0,0-.29.53,2.92,2.92,0,0,0-.19.65,4.93,4.93,0,0,0-.09.85v4.77h-.64v-8.73h.64Z" style="fill:#fff"/><path d="M115.14,302.53h.76l3.25,8,3-8h.73l-3.74,9.67c-.18.43-.35.8-.5,1.11a2,2,0,0,1-.52.69,1.62,1.62,0,0,1-.81.33,10,10,0,0,1-1.23.06v-.56a4.4,4.4,0,0,0,1.09-.11,1.64,1.64,0,0,0,.73-.45,2.24,2.24,0,0,0,.39-.69c.14-.33.31-.79.51-1.37Z" style="fill:#fff"/><path d="M136.5,302.59a3.21,3.21,0,0,0-.33-1.36,2.86,2.86,0,0,0-.8-1,3.38,3.38,0,0,0-1.22-.59,5.74,5.74,0,0,0-1.54-.2,5.59,5.59,0,0,0-1.1.12,3.38,3.38,0,0,0-1.08.42,2.44,2.44,0,0,0-.83.8,2.3,2.3,0,0,0-.32,1.25,1.89,1.89,0,0,0,.36,1.19,2.65,2.65,0,0,0,.93.74,7.14,7.14,0,0,0,1.33.45l1.51.32a14.66,14.66,0,0,1,1.52.37,5.18,5.18,0,0,1,1.33.57,3,3,0,0,1,.94,1,2.76,2.76,0,0,1,.36,1.47,2.94,2.94,0,0,1-.41,1.59,3.26,3.26,0,0,1-1,1.06,4.27,4.27,0,0,1-1.38.59,6.73,6.73,0,0,1-1.45.17,8,8,0,0,1-2-.23,4.56,4.56,0,0,1-1.64-.74,3.59,3.59,0,0,1-1.09-1.34,4.31,4.31,0,0,1-.39-2h.75a3.38,3.38,0,0,0,.29,1.69,3.05,3.05,0,0,0,.94,1.13,3.92,3.92,0,0,0,1.42.64,7.43,7.43,0,0,0,1.72.2,5.63,5.63,0,0,0,1.17-.14,3.55,3.55,0,0,0,1.14-.46,2.79,2.79,0,0,0,.86-.85,2.36,2.36,0,0,0,.35-1.32,2,2,0,0,0-.36-1.25,2.41,2.41,0,0,0-.94-.78,5.93,5.93,0,0,0-1.33-.48c-.49-.12-1-.23-1.52-.33s-1-.22-1.51-.36a5.53,5.53,0,0,1-1.33-.55,2.86,2.86,0,0,1-.93-.9,2.56,2.56,0,0,1-.36-1.42,2.82,2.82,0,0,1,.37-1.49,2.94,2.94,0,0,1,.95-1,3.9,3.9,0,0,1,1.32-.56,6,6,0,0,1,1.44-.18,7.18,7.18,0,0,1,1.78.21,4.14,4.14,0,0,1,1.44.66,3.25,3.25,0,0,1,1,1.17,4,4,0,0,1,.42,1.71Z" style="fill:#fff"/><path d="M145.75,305.23a2.35,2.35,0,0,0-.3-1,2.22,2.22,0,0,0-.63-.73,3,3,0,0,0-.91-.44,3.7,3.7,0,0,0-1.12-.16,3.06,3.06,0,0,0-1.44.33,3.24,3.24,0,0,0-1,.89,4,4,0,0,0-.65,1.26,4.72,4.72,0,0,0-.22,1.45,6.44,6.44,0,0,0,.2,1.63,3.75,3.75,0,0,0,.63,1.3,2.86,2.86,0,0,0,1.06.86,3.22,3.22,0,0,0,1.47.31,3,3,0,0,0,1.14-.21,3,3,0,0,0,1.57-1.42,3.56,3.56,0,0,0,.34-1.09h.64a4,4,0,0,1-.42,1.39,3.49,3.49,0,0,1-.82,1,3.55,3.55,0,0,1-1.12.64,4.17,4.17,0,0,1-1.33.22,4,4,0,0,1-1.82-.38,3.48,3.48,0,0,1-1.24-1,4.21,4.21,0,0,1-.72-1.49,6.79,6.79,0,0,1-.23-1.76,5.45,5.45,0,0,1,.27-1.73,4.11,4.11,0,0,1,.77-1.43,3.67,3.67,0,0,1,1.26-1,3.9,3.9,0,0,1,1.71-.36,4.77,4.77,0,0,1,1.34.18,3.42,3.42,0,0,1,1.1.54,2.58,2.58,0,0,1,.79.91,3.15,3.15,0,0,1,.38,1.28Z" style="fill:#fff"/><path d="M148.64,299.13v5.27h0a2.78,2.78,0,0,1,.48-.88,3.26,3.26,0,0,1,1.64-1.06,4.1,4.1,0,0,1,2.3.05,2.56,2.56,0,0,1,.88.49,2.49,2.49,0,0,1,.54.69,3.41,3.41,0,0,1,.28.77,5.48,5.48,0,0,1,.1.76c0,.24,0,.46,0,.64v5.4h-.65v-5.52c0-.22,0-.49-.05-.82a2.65,2.65,0,0,0-.3-.94,2,2,0,0,0-.75-.77,2.47,2.47,0,0,0-1.38-.33,3,3,0,0,0-1.33.28,3,3,0,0,0-1,.75,3.58,3.58,0,0,0-.62,1.16,4.93,4.93,0,0,0-.21,1.47v4.72H148V299.13Z" style="fill:#fff"/><path d="M156.41,306.9a5.59,5.59,0,0,1,.27-1.76,4.34,4.34,0,0,1,.77-1.46,3.61,3.61,0,0,1,1.26-1,3.74,3.74,0,0,1,1.71-.37,3.78,3.78,0,0,1,1.72.37,3.61,3.61,0,0,1,1.26,1,4.34,4.34,0,0,1,.77,1.46,6.09,6.09,0,0,1,0,3.52,4.25,4.25,0,0,1-.77,1.46,3.7,3.7,0,0,1-1.26,1,3.78,3.78,0,0,1-1.72.37,3.74,3.74,0,0,1-1.71-.37,3.7,3.7,0,0,1-1.26-1,4.25,4.25,0,0,1-.77-1.46A5.64,5.64,0,0,1,156.41,306.9Zm.65,0a5,5,0,0,0,.22,1.5,4.15,4.15,0,0,0,.64,1.28,3.17,3.17,0,0,0,1.06.9,3.11,3.11,0,0,0,3.94-.9,4,4,0,0,0,.65-1.28,5.26,5.26,0,0,0,0-3,4,4,0,0,0-.65-1.28,3.15,3.15,0,0,0-1-.9,3.33,3.33,0,0,0-2.89,0,3.28,3.28,0,0,0-1.06.9,4.15,4.15,0,0,0-.64,1.28A5,5,0,0,0,157.06,306.9Z" style="fill:#fff"/><path d="M165.54,306.9a5.9,5.9,0,0,1,.26-1.76,4.55,4.55,0,0,1,.78-1.46,3.66,3.66,0,0,1,1.25-1,4.18,4.18,0,0,1,3.44,0,3.61,3.61,0,0,1,1.26,1,4.53,4.53,0,0,1,.77,1.46,6.09,6.09,0,0,1,0,3.52,4.43,4.43,0,0,1-.77,1.46,3.7,3.7,0,0,1-1.26,1,3.88,3.88,0,0,1-4.69-1,4.45,4.45,0,0,1-.78-1.46A6,6,0,0,1,165.54,306.9Zm.65,0a5,5,0,0,0,.22,1.5,4,4,0,0,0,.64,1.28,3.17,3.17,0,0,0,1.06.9,3.11,3.11,0,0,0,3.94-.9,4.17,4.17,0,0,0,.65-1.28,5.26,5.26,0,0,0,0-3,4.17,4.17,0,0,0-.65-1.28,3.15,3.15,0,0,0-1.05-.9,3.33,3.33,0,0,0-2.89,0,3.28,3.28,0,0,0-1.06.9,4,4,0,0,0-.64,1.28A5,5,0,0,0,166.19,306.9Z" style="fill:#fff"/><path d="M175.88,299.13v12.13h-.65V299.13Z" style="fill:#fff"/><path d="M182.78,299.13h4a6.36,6.36,0,0,1,2.71.51,4.51,4.51,0,0,1,1.72,1.36,5.06,5.06,0,0,1,.91,1.93,9.36,9.36,0,0,1,.27,2.25,8,8,0,0,1-.34,2.4,5.17,5.17,0,0,1-1,1.93,4.88,4.88,0,0,1-1.76,1.29,6.28,6.28,0,0,1-2.53.46h-3.94Zm4,11.49a6,6,0,0,0,1.71-.26,4.24,4.24,0,0,0,1.55-.89,4.4,4.4,0,0,0,1.13-1.67,6.82,6.82,0,0,0,.44-2.62,7.78,7.78,0,0,0-.25-2.13,4.93,4.93,0,0,0-.65-1.48,3.36,3.36,0,0,0-.91-1,4.63,4.63,0,0,0-1.07-.53,4.93,4.93,0,0,0-1.11-.25,9.32,9.32,0,0,0-1-.06h-3.11v10.85Z" style="fill:#fff"/><path d="M194.15,300.88v-1.75h.65v1.75Zm0,10.38v-8.73h.65v8.73Z" style="fill:#fff"/><path d="M202.65,309.53h0a2.72,2.72,0,0,1-.45.74,3,3,0,0,1-.7.62,3.85,3.85,0,0,1-.94.43,4.28,4.28,0,0,1-1.16.15,3.43,3.43,0,0,1-2.16-.6,2.25,2.25,0,0,1-.76-1.87,2.36,2.36,0,0,1,.3-1.25,2.43,2.43,0,0,1,.77-.76,3.35,3.35,0,0,1,1-.4,9.21,9.21,0,0,1,1.1-.17l1-.09a5.19,5.19,0,0,0,1.1-.16,1.35,1.35,0,0,0,.6-.3.9.9,0,0,0,.26-.5,5.41,5.41,0,0,0,0-.77,1.59,1.59,0,0,0-.14-.66,1.47,1.47,0,0,0-.42-.55,2.39,2.39,0,0,0-.75-.37,4,4,0,0,0-1.12-.14,3,3,0,0,0-1.9.58,2.32,2.32,0,0,0-.79,1.75h-.65a2.91,2.91,0,0,1,.93-2.17,3.7,3.7,0,0,1,2.44-.72,3.51,3.51,0,0,1,2.3.62,2,2,0,0,1,.73,1.63v5.08c0,.12,0,.25,0,.37a1.16,1.16,0,0,0,.05.34.58.58,0,0,0,.17.25.57.57,0,0,0,.34.09,2.43,2.43,0,0,0,.48-.05v.55a2.33,2.33,0,0,1-.53.06,1.55,1.55,0,0,1-.62-.1.89.89,0,0,1-.35-.27,1,1,0,0,1-.16-.4,2.6,2.6,0,0,1,0-.5Zm0-3.23a1.26,1.26,0,0,1-.72.39,8,8,0,0,1-1.08.15l-1.09.11c-.32,0-.63.08-.95.14a2.68,2.68,0,0,0-.86.32,1.62,1.62,0,0,0-.62.6,1.84,1.84,0,0,0-.24,1,1.71,1.71,0,0,0,.61,1.44,2.74,2.74,0,0,0,1.69.47,3.38,3.38,0,0,0,1.75-.4,3,3,0,0,0,1-.92,3,3,0,0,0,.44-1,4.48,4.48,0,0,0,.09-.66Z" style="fill:#fff"/><path d="M206,304.46h.05a2.12,2.12,0,0,1,.43-.79,3.05,3.05,0,0,1,.77-.65,3.9,3.9,0,0,1,1-.42,4,4,0,0,1,1.15-.12v.64a3.27,3.27,0,0,0-1.17.1A2.92,2.92,0,0,0,207,304c-.16.17-.3.34-.42.49a2.5,2.5,0,0,0-.3.53,3.57,3.57,0,0,0-.19.65,6.31,6.31,0,0,0-.08.85v4.77h-.65v-8.73H206Z" style="fill:#fff"/><path d="M210.23,300.88v-1.75h.65v1.75Zm0,10.38v-8.73h.65v8.73Z" style="fill:#fff"/><path d="M213.17,307v.1a5,5,0,0,0,.21,1.46,3.71,3.71,0,0,0,.6,1.23,2.91,2.91,0,0,0,1,.83,3.41,3.41,0,0,0,3.48-.38,3.55,3.55,0,0,0,1.06-1.91h.65a3.92,3.92,0,0,1-1.25,2.34,3.77,3.77,0,0,1-2.54.82,3.94,3.94,0,0,1-1.7-.35,3.4,3.4,0,0,1-1.2-.95,3.93,3.93,0,0,1-.72-1.43,6.33,6.33,0,0,1-.24-1.78,6.45,6.45,0,0,1,.24-1.76,4.42,4.42,0,0,1,.74-1.47,3.53,3.53,0,0,1,1.24-1,3.66,3.66,0,0,1,1.74-.39,3.78,3.78,0,0,1,1.62.34,3.39,3.39,0,0,1,1.18.93A4.14,4.14,0,0,1,220,305a5.55,5.55,0,0,1,.24,1.66,1.34,1.34,0,0,1,0,.19V307Zm6.43-.56a4.89,4.89,0,0,0-.24-1.35,3.44,3.44,0,0,0-.6-1.12,3.1,3.1,0,0,0-1-.78,2.86,2.86,0,0,0-1.3-.29,3,3,0,0,0-1.38.3,3.26,3.26,0,0,0-1,.78,3.66,3.66,0,0,0-.63,1.13,5.51,5.51,0,0,0-.27,1.33Z" style="fill:#fff"/><path d="M222.06,308.36a2.77,2.77,0,0,0,.28,1.08,2.43,2.43,0,0,0,.62.8,2.67,2.67,0,0,0,.89.5,3.57,3.57,0,0,0,1.1.17,5.9,5.9,0,0,0,.91-.08,2.87,2.87,0,0,0,.9-.28,1.83,1.83,0,0,0,.69-.57,1.51,1.51,0,0,0,.27-.93,1.35,1.35,0,0,0-.44-1.1,3.07,3.07,0,0,0-1.11-.58,11.47,11.47,0,0,0-1.45-.33,7.24,7.24,0,0,1-1.44-.38,2.89,2.89,0,0,1-1.11-.72,2.24,2.24,0,0,1-.16-2.45,2.22,2.22,0,0,1,.74-.69,3.57,3.57,0,0,1,1-.37,6.18,6.18,0,0,1,1.13-.11,4.75,4.75,0,0,1,1.27.16,2.66,2.66,0,0,1,1,.49,2.26,2.26,0,0,1,.68.87,3,3,0,0,1,.25,1.27h-.65a2.41,2.41,0,0,0-.2-1,1.85,1.85,0,0,0-.54-.69,2.6,2.6,0,0,0-.82-.39,4.19,4.19,0,0,0-1-.13,4.58,4.58,0,0,0-.9.09,2.45,2.45,0,0,0-.8.29,1.75,1.75,0,0,0-.59.52,1.36,1.36,0,0,0-.23.79,1.35,1.35,0,0,0,.26.85,2,2,0,0,0,.67.52,4.61,4.61,0,0,0,.93.31l1.05.24c.43.08.83.17,1.21.28a3.46,3.46,0,0,1,1,.44,2,2,0,0,1,.65.72,2.35,2.35,0,0,1,.24,1.12,2.05,2.05,0,0,1-.32,1.18,2.65,2.65,0,0,1-.82.74,3.81,3.81,0,0,1-1.09.39,7,7,0,0,1-1.19.11,4.7,4.7,0,0,1-1.38-.2,3.11,3.11,0,0,1-1.11-.59,2.79,2.79,0,0,1-.75-1,3.26,3.26,0,0,1-.29-1.34Z" style="fill:#fff"/><path d="M210.57,461.34c.69-4.87,3.8-9.41,6.29-13.54,3.51-5.84,7.24-11.55,10.6-17.47,1.53-2.71,3-5.46,4.3-8.29,1.1-2.43,1.65-5.42,3-7.71,2.19-3.85,4.63-7.39,6.47-11.53,2.26-5.1,4.3-10.3,6.34-15.49a54.23,54.23,0,0,1,4.73-9.57c.66-1,1.31-2.39,2.43-3s2.84-.27,4.1-.79c3.9-1.62,3.07-7.69,1.79-10.89-2.09-5.23-8.06-6.49-12.94-8l1.1,1.45c.17-3.09,3.17-12-1.47-13.82-3.14-1.25-4.25,3.18-5.06,5.27a61.64,61.64,0,0,0-4.1,14.34c-.85,6.27-3.23,11.76-6.19,17.32s-8,9.84-11.65,15.14-5.89,11.26-8.93,16.77a50.76,50.76,0,0,1-4,6.52c-2,2.62-5,4.2-7.6,6.13-4.16,3-7.66,6.29-9.37,11.26-.63,1.83,2.26,2.61,2.89.8,2.1-6.08,7.73-9.15,12.64-12.73a22.75,22.75,0,0,0,6-6.91c2.81-4.56,5.14-9.41,7.57-14.18a69.32,69.32,0,0,1,9.67-13.67c5.83-6.83,10.44-15.66,11.76-24.61a56.44,56.44,0,0,1,2.55-11.09c.15-.41,2.58-7.18,2.83-7.13,1.47.29-.43,9-.51,10.59a1.51,1.51,0,0,0,1.1,1.44c3.41,1,8.46,1.89,10.5,5.18a10,10,0,0,1,1.17,5.13c-.21,2.75-.87,2.54-3.07,3.26-4.71,1.53-6.57,5.3-8.72,9.86-4.25,9-6.86,18.74-11.81,27.43-.79,1.38-2,2.49-2.79,3.79-1.14,1.88-1.55,4.66-2.43,6.72a126.19,126.19,0,0,1-8.35,15.43c-4.66,7.67-12.35,16.57-13.66,25.73-.27,1.89,2.62,2.7,2.9.8Z"/><path d="M209.91,498c-.14-10.29.79-20.55,1-30.84.11-6.65-1.94-12-4.37-18.19s-5.74-13-13.29-14c-4.21-.58-8.15,1.75-11.61,3.86a67.35,67.35,0,0,1-18.11,8.1,1.5,1.5,0,0,0,.79,2.9c5.15-1.42,10.24-2.88,14.78-5.76,3.6-2.28,7.84-5.95,12.26-6.2,8.93-.5,11.89,10.59,14.21,17,4.9,13.58,1.19,28.9,1.38,43.1a1.5,1.5,0,0,0,3,0Z"/><path d="M134.35,449c-5-.18-11.29,1.77-13.43,6.79-1.35,3.15-1.12,7.43-1.29,10.77-.58,11.3-.33,22.67,5.37,32.72a1.5,1.5,0,0,0,2.59-1.52c-4.61-8.12-5.33-17.07-5.14-26.26.08-3.82.21-7.67.66-11.46.67-5.77,5.74-8.23,11.24-8,1.94.06,1.93-2.94,0-3Z"/><path d="M142.74,409.3c-2.37-2.43-2.82-7.12-2.89-10.34-.08-4.36,1.76-7.56,4.45-10.91,7.43-9.24,22.37-8.94,30.89-1.49,7.79,6.8,7.09,16.71,4.6,25.92-2.39,8.82-9.51,16.3-7.35,25.92l1.05-1.84c-3.87.8-5.25-1.9-6.74-4.86-.87-1.73-3.46-.21-2.59,1.51,2.31,4.61,4.7,7.37,10.12,6.24a1.52,1.52,0,0,0,1.05-1.84c-1.81-8.08,4.21-14.68,6.62-21.94,1.82-5.45,3.06-11.87,2.51-17.64-.94-9.7-9.46-17.95-18.92-19.73a24.94,24.94,0,0,0-26.07,11.37c-3.68,5.92-4,16.44,1.15,21.75,1.35,1.39,3.47-.73,2.12-2.12Z"/><path d="M144.66,394c-2-3.36-2.17-2.5-2.66-6.65-.3-2.48,4.28-6.65,6-6.39,4.64.7,7.71-4.28,11.59-1.65,2,1.35,3.33,5.56,7.11,7.16,1.8.77,1.87,4.35,1.46,6.27-.77,3.56-.06,4.86-3.08,6.89" style="fill:#fff"/><path d="M146,393.23c-2.18-3.5-4-8.5,1.35-10.49,1.38-.51,3.06-.29,4.55-.77,2-.65,3.38-1.9,5.68-1.39,2.77.63,4.9,4.64,7.2,6.55,1.92,1.6,2.23,2.55,1.94,5.2-.27,2.48-.63,4.63-2.69,6.23-1.52,1.18.61,3.29,2.12,2.12,3.34-2.58,5.18-9.83,3-13.73a5.64,5.64,0,0,0-1.69-1.78,35.35,35.35,0,0,1-5-4.94c-1.35-1.64-2.66-3-4.92-3.19-2.74-.22-5,1.84-7.55,2.36-2.81.57-4.11.19-6.37,2.28-4.48,4.12-3.08,8.48-.22,13.06,1,1.64,3.61.14,2.59-1.51Z"/><path d="M168.93,461.63c-2.21-6.17-4-10.86-3.19-17.63a174.85,174.85,0,0,0,1.38-19.42c0-6-.19-12-.23-18,0-4.21.91-9-.85-13-2.54-5.72-9.47-10.76-15.8-8-6.83,3-7.88,12.06-9.24,18.45-2.9,13.66-5.63,27.41-7.34,41.27-2.11,17.15.48,35.08,12.44,48.26,2.24,2.46,2.89,2.58,6.34,1.3A26.17,26.17,0,0,0,163,487.41a27.61,27.61,0,0,0,5.9-25.78c-.54-1.85-3.44-1.06-2.89.8a24.64,24.64,0,0,1-5.57,23.35c-2.63,2.92-6.18,5.64-10.05,6.64-1.59.41.29,1-1.36-.05a17.06,17.06,0,0,1-3.08-3.53c-9.69-12.19-11.16-28.52-9.32-43.51,1.53-12.39,4-24.7,6.49-36.93,1-4.9,1.74-10.13,3.71-14.75,4.78-11.27,17.19-3.47,17.1,6-.11,10.68.5,21.4,0,32.07-.25,5.35-1.39,10.64-1.56,16s1.85,9.76,3.63,14.74C166.68,464.23,169.58,463.45,168.93,461.63Z"/><path d="M179.69,440.5c-1.32-6.49,2.64-12,4.23-18l-1.84,1c8.52,2.55,8.35-8.08,8.52-13.49.07-2.51.12-6.46-2.25-8.07s-4.57.33-6.5,1.83c-1.52,1.18.62,3.29,2.13,2.12,4.09-3.18,3.73,2.62,3.57,5.12s.18,11.05-4.68,9.6a1.52,1.52,0,0,0-1.84,1.05c-1.79,6.79-5.7,12.36-4.24,19.63.39,1.89,3.28,1.09,2.9-.8Z"/><path d="M77.59,456.28A38.06,38.06,0,0,1,49,454.52c-5.32-2.63-9.41-6.15-9.15-12.56.13-3.31,1.26-6.49,2-9.69a143.51,143.51,0,0,1,4.86-17.17c2.65-7,6.21-10.79,13.44-13,5.74-1.73,15.32-3.92,19,2.31,3.31,5.52,2.38,12.34,2.2,18.47s-.32,12.13-.72,18.18c-.21,3.23.23,14.58-3.58,15.47-1.88.44-1.08,3.34.8,2.9,4.64-1.09,4.54-6.23,5.06-10.41.83-6.61,1.05-13.28,1.26-19.93.28-8.92,3.28-25.82-6.86-30.52-8.63-4-24.79.49-30,8.38-3.36,5.08-5,11.39-6.57,17.21-1.45,5.46-3.43,11.39-3.88,17-1.59,19.8,28.11,22.32,41.5,18,1.82-.59,1-3.48-.8-2.89Z"/><path d="M42.7,455.82c.87,3.11-3.68,6.52-5.78,8-1.65,1.16-3.41,2.16-5,3.38a18.11,18.11,0,0,0-6.05,7.66A62.77,62.77,0,0,0,21,499.5c.05,1.93,3.05,1.94,3,0a55.46,55.46,0,0,1,2.27-15.4c1.45-5.53,2.62-10.74,7.38-14.41,4.26-3.27,13.92-7.76,12-14.67a1.51,1.51,0,0,0-2.9.8Z"/><path d="M67.87,462.27a23.74,23.74,0,0,0,8.94,5.53c5.64,1.86,11.16.67,14.1,7,2,4.23,3,8.88,4.79,13.17,1.7,4,3.51,7.54,4.18,11.88.3,1.9,3.19,1.1,2.9-.8-.77-4.92-3-8.78-4.79-13.35-1.68-4.23-2.68-8.79-4.67-12.9a11.26,11.26,0,0,0-7.69-6.32c-6-1.6-10.8-1.77-15.64-6.37-1.39-1.33-3.52.79-2.12,2.13Z"/><path d="M36.67,467.7c4.32,7,9.49,13.35,18.45,13.22s16.05-6.17,21.7-12.54c1.28-1.44-.83-3.57-2.12-2.13-4.5,5.08-9.78,10.09-16.7,11.37-9.16,1.69-14.42-4.42-18.74-11.43-1-1.64-3.61-.14-2.59,1.51Z"/><path d="M29.26,473.47c1.63,6.06,1.4,11.91,2,18.06.38,3.79,1.64,7.11,4.62,9.57,1.47,1.22,3.61-.89,2.12-2.12-4.35-3.6-3.73-8.9-3.93-14a54.8,54.8,0,0,0-1.92-12.33,1.5,1.5,0,0,0-2.89.8Z"/><path d="M89.73,474.5a21.11,21.11,0,0,0-1.92,11.94c.52,3.6,4.58,8.45,3.11,11.89-.75,1.75,1.84,3.28,2.59,1.51,1.19-2.77.81-4.36-.32-7.19-2.32-5.77-3.56-10.63-.87-16.64.79-1.75-1.8-3.27-2.59-1.51Z"/><path d="M83.76,440.21c5.1-6.26,8.58-17.83.69-23.53-1.57-1.13-3.07,1.47-1.52,2.59,6.14,4.42,2.41,14.27-1.29,18.82-1.21,1.49.9,3.62,2.12,2.12Z"/><path d="M421.69,368.93c-1.26-7.95-4.36-15.27-12.72-17.58-7.8-2.16-16.3.39-22.56,5.21S376.28,367,375.13,374.69a209.43,209.43,0,0,0-2,21.22c-.26,5.35-1,11.83.73,17,1.93,5.66,7.52,10.67,11.59,14.81a24.22,24.22,0,0,0,3.58,3.51c2.66,1.7,6.82,1.39,9.81,1.14,7.56-.63,14.72-2.31,19.83-8.22,3.89-4.5,10.29-13.11,5.37-18.64-2.39-2.69-3.42-3-2.91-7.32.35-2.89.91-5.72,1.16-8.63a92.69,92.69,0,0,0-.57-20.25c-.25-1.88-3.25-1.91-3,0a90,90,0,0,1-.48,28.08c-.39,2.14-1,4-.07,6s3.92,3.28,4.65,5.4c1.12,3.25-2.9,8.7-4.7,11.23-2.64,3.7-5.79,6.47-10.21,7.69-4.68,1.29-13,3.54-17.4.8-3.69-2.33-7.13-7.14-9.84-10.49-3.34-4.11-4.56-7.25-4.71-12.49-.29-10.76.17-22.64,2.57-33.17,1.92-8.38,10.32-15.65,18.43-17.89,5.12-1.42,11.54-1.41,15.87,2.06,4,3.2,5.18,8.35,5.94,13.19C419.1,371.62,422,370.82,421.69,368.93Z"/><path d="M445,497.5c0-4.62-4.06-9.56-6.44-13.19-1.05-1.61-3.65-.11-2.59,1.51,1.44,2.2,2.87,4.41,4.13,6.71.81,1.48,1.91,3.24,1.9,5a1.5,1.5,0,0,0,3,0Z"/><path d="M345.53,425c-9,3.46-16.78,15.3-25.52,25.54-1.49,1.75,4.11,13.29,7.71,14.82,10.67,4.52,19.33,9,30,13.55,1.32.56,6.4,11,10,13.18,2.56,1.55,11.52,2.25,16.28,1.48,6.09-1-2.55-7.11-7.55-11.11-6.32-5.06-1.19-7.32-8-11.67-9-5.75-27.28-16.45-27.37-17.26-.11-1.06,9.21-7.78,13.64-12.78" style="fill:#fff"/><path d="M344.77,423.75c-8.36,3.55-14.16,11.42-19.69,18.29-2,2.45-5.74,5.47-6.69,8.47-.62,1.95.55,4.45,1.28,6.18a30.36,30.36,0,0,0,4.05,7.06c2.61,3.27,6.37,4.27,10.1,6,4.62,2.09,9.2,4.28,13.81,6.4,4.13,1.89,8.67,2.88,11.18,6.77,2.86,4.44,5.48,10.14,11,11.57,3.66.95,15,3.12,17.43-1,2.54-4.3-6.78-9.68-9.17-11.65-3.26-2.69-3-4.89-4.68-8.19-1.55-3.07-5.11-4.74-7.9-6.47-6.84-4.23-13.82-8.27-20.56-12.66-.53-.35-2.29-1.15-2.51-1.74.58,1.55,2.12-.68,3.08-1.51a124.31,124.31,0,0,0,10.33-9.41c1.31-1.41-.81-3.54-2.12-2.12a83.13,83.13,0,0,1-7.05,6.61c-1.94,1.66-4.88,3.43-6.3,5.62s.21,3.22,2.1,4.5c4.85,3.29,9.95,6.23,14.95,9.28,2.69,1.64,5.38,3.28,8.05,4.95,1.79,1.12,3.83,2.14,4.93,4,.81,1.35.85,2.76,1.42,4.2.93,2.35,2.71,3.9,4.63,5.45,1.39,1.14,2.84,2.21,4.21,3.38.65.56,1.32,1.11,1.93,1.72,1,1,2,1.36,1.11,2.44-1.41,1.63-8.08.46-9.92.24-4.12-.51-6.2-1.68-8.62-5-1.62-2.23-2.95-4.64-4.49-6.91s-2.87-2.82-5.65-4c-8.51-3.74-17.42-7.34-25.63-11.67-3-1.56-4.63-4.2-6.11-7.16-.65-1.3-1.8-3.18-1.82-4.69,0-2.33,2.72-4.69,4.12-6.42,5.88-7.27,11.85-16.09,20.74-19.87,1.77-.75.24-3.34-1.52-2.59Z"/><path d="M445.05,433.89c8.66,4.47,11.47,7.62,20.41,11.47-5.9,4.29-34,17.19-37.57,20.94-4.15,4.35,1.9,8.17-2.39,11.2-4.52,3.19-7.58,6.49-6.89,9.12.57,2.17,8.33,3.88,10.34,4.7,3.89.23,5.3-.7,7.39-4s1.37-11.07,3.68-14.21c2.64-3.58,22.74-7.2,26.48-9.62,4.62-3,12.79-9.31,15.88-11.15s5.12-5.85,5-6.77c-.35-2.06-4.84-8.08-7.41-10.66-3.56-3.57-18.43-14.42-23.43-16.42" style="fill:#fff"/><path d="M444.3,435.19c6.92,3.66,13.22,8.27,20.41,11.46v-2.59c-11.15,7.84-24.73,11.82-35.91,19.63-1.92,1.34-3.53,2.93-3.88,5.37-.19,1.32.41,2.46.38,3.73-.09,3.71-3.59,5.31-5.82,7.9-5.07,5.89-.9,8.86,4.94,10.76,6.17,2,11.83,1.59,14.16-5.52,1.15-3.53.16-9.25,2.81-12.09,2.23-2.4,7.15-3.15,10.18-4,6.48-1.91,13-3.08,18.6-7,3.62-2.52,7.11-5.22,10.75-7.71,3-2,6.1-4,7.45-7.58,2.08-5.52-6.42-13-10.25-16.18-6.29-5.17-13.34-10.88-20.86-14.14-1.76-.75-3.29,1.83-1.52,2.6,5.67,2.44,10.86,6.5,15.77,10.18s11.35,8.33,13.59,14.19c2.09,5.48-11.5,12.55-15.36,15.29-5.1,3.61-10.19,5-16.16,6.65-4.29,1.21-11,2.2-14.31,5.61-4.34,4.5-.49,14.49-6.71,17.63-2.55,1.28-7.89-.48-10.22-1.84-5.74-3.34,3.16-7,5.21-9.88,1.42-2,.87-3.4.64-5.63-.43-4.23,1.21-5.22,4.19-7,10.92-6.61,23.39-11,33.84-18.32.82-.57,1.12-2.09,0-2.59-7.18-3.19-13.48-7.8-20.41-11.46-1.7-.9-3.22,1.69-1.51,2.59Z"/><path d="M427.5,466.47c-.92-5.78,2.24-12.73,4.13-18,1.79-5,4.16-10.05,5.29-15.28l-2.2.9c2.39,1.81,4.64,3.8,7,5.61a1.5,1.5,0,0,0,2.05-.53c2.66-4.22,5.7-8.19,8.55-12.28,1.43-2.06,5.6-6.33,5.06-9.16-.47-2.39-4.84-5.51-6.56-7.1a50.81,50.81,0,0,0-8-6.35c-6.72-4-15.15-3.3-22.67-3.64-1.93-.09-1.92,2.91,0,3,7.18.33,15.28-.49,21.62,3.52a51.27,51.27,0,0,1,7.5,6.14c1.2,1.13,5,4.26,4.88,5.29s-2.08,3.34-2.69,4.24c-1.19,1.76-2.42,3.5-3.64,5.24-2.24,3.17-4.59,6.3-6.66,9.58l2-.54c-2.39-1.81-4.64-3.8-7-5.61a1.5,1.5,0,0,0-2.2.89c-1.31,6-4.12,11.81-6.11,17.64-1.84,5.35-4.23,11.52-3.32,17.28.3,1.9,3.2,1.09,2.9-.8Z"/><path d="M374.08,406.67c-4.91.59-9.87,1.13-14.28,3.54a63.29,63.29,0,0,0-16.57,13.22,1.51,1.51,0,0,0,.31,2.35c4.43,2.15,15.32,10,9.26,16.05-.84.84-.28,2.72,1.06,2.56,3.88-.45,7.51-1.83,11.38-2.28l-1.5-1.5c-.36,8.37-3.71,15-6.22,22.77-.59,1.84,2.31,2.63,2.9.8,2.59-8,5.95-14.94,6.32-23.57a1.51,1.51,0,0,0-1.5-1.5c-3.88.45-7.5,1.83-11.38,2.28l1.07,2.56c7.7-7.67-3.41-17.62-9.88-20.76l.31,2.36a64.65,64.65,0,0,1,14.65-12c4.37-2.66,9.08-3.32,14.07-3.92,1.89-.23,1.92-3.23,0-3Z"/><path d="M357.22,481.29c.91,5.14-.58,9.85-2.06,14.7-.41,1.34-1.23,4.15,1.2,4.08,1.93-.06,1.94-3.06,0-3,.72,1.4,1.14,1.77,1.28,1.1,0-.19.1-.38.15-.57a7.71,7.71,0,0,0,.57-1.76c.49-1.52,1-3,1.32-4.58a26.43,26.43,0,0,0,.43-10.77c-.34-1.9-3.23-1.09-2.89.8Z"/><path d="M43.35,300.41a6,6,0,0,1,4.42,1.65,8.46,8.46,0,0,1,0,9.56,6,6,0,0,1-4.42,1.64H38.9V300.41Zm-.61,11.81a8.31,8.31,0,0,0,2.38-.3,3.73,3.73,0,0,0,1.65-.94,3.84,3.84,0,0,0,.95-1.68,8.42,8.42,0,0,0,.31-2.46,8.54,8.54,0,0,0-.31-2.47,3.64,3.64,0,0,0-2.6-2.62,8.7,8.7,0,0,0-2.38-.29H40.13v10.76Z"/><path d="M52.17,300.41v1.82H51v-1.82Zm0,3.57v9.28H51V304Z"/><path d="M54.58,305.42a2.69,2.69,0,0,1,.78-1,3.37,3.37,0,0,1,1.16-.55,5.72,5.72,0,0,1,1.48-.18,7.1,7.1,0,0,1,1.22.11,3.06,3.06,0,0,1,1.1.44,2.35,2.35,0,0,1,.79.91,3.21,3.21,0,0,1,.31,1.52v4.94a.6.6,0,0,0,.67.68.86.86,0,0,0,.36-.07v.95l-.35.06h-.39a1.74,1.74,0,0,1-.7-.11,1,1,0,0,1-.4-.34,1.15,1.15,0,0,1-.19-.51,4.5,4.5,0,0,1,0-.66h0a7.81,7.81,0,0,1-.62.81,3.18,3.18,0,0,1-.7.58,3,3,0,0,1-.88.36,5.06,5.06,0,0,1-1.18.13,4.34,4.34,0,0,1-1.22-.16,2.69,2.69,0,0,1-1-.48,2.46,2.46,0,0,1-.67-.85,2.84,2.84,0,0,1-.24-1.21,2.43,2.43,0,0,1,.43-1.52,2.67,2.67,0,0,1,1.15-.84,6.68,6.68,0,0,1,1.6-.41l1.81-.22.63-.09a1.16,1.16,0,0,0,.45-.19.89.89,0,0,0,.28-.37,1.72,1.72,0,0,0,.1-.61,2.17,2.17,0,0,0-.19-.95,1.48,1.48,0,0,0-.53-.58,2,2,0,0,0-.77-.3,5.58,5.58,0,0,0-.94-.08,2.9,2.9,0,0,0-1.77.51,2.06,2.06,0,0,0-.72,1.65H54.24A3.65,3.65,0,0,1,54.58,305.42Zm5.67,2.77a.65.65,0,0,1-.41.29,3.89,3.89,0,0,1-.54.12c-.48.09-1,.16-1.49.23a7.74,7.74,0,0,0-1.39.29,3,3,0,0,0-1,.57,1.37,1.37,0,0,0-.4,1.06,1.58,1.58,0,0,0,.17.76,1.82,1.82,0,0,0,.46.58,2.13,2.13,0,0,0,.66.37,2.54,2.54,0,0,0,.78.12,4,4,0,0,0,1.24-.2,3,3,0,0,0,1-.57,2.75,2.75,0,0,0,.7-.92,2.7,2.7,0,0,0,.27-1.22v-1.48Z"/><path d="M64.73,304v2.17h0a3.57,3.57,0,0,1,1.34-1.74,3.48,3.48,0,0,1,2.17-.56V305a3.55,3.55,0,0,0-1.41.21,3,3,0,0,0-1.08.69,3.1,3.1,0,0,0-.72,1.08,3.68,3.68,0,0,0-.25,1.35v4.95H63.69V304Z"/><path d="M70.51,300.41v1.82H69.38v-1.82Zm0,3.57v9.28H69.38V304Z"/><path d="M73.52,310.2a3.75,3.75,0,0,0,.55,1.18,3.31,3.31,0,0,0,1,.86,2.62,2.62,0,0,0,1.38.34,2.78,2.78,0,0,0,2-.65,3.4,3.4,0,0,0,1-1.72h1.13a4.51,4.51,0,0,1-1.32,2.44,3.93,3.93,0,0,1-2.73.87,4.33,4.33,0,0,1-1.9-.39,3.56,3.56,0,0,1-1.3-1.06,4.67,4.67,0,0,1-.75-1.57,7.17,7.17,0,0,1-.24-1.88,6.85,6.85,0,0,1,.24-1.8,4.86,4.86,0,0,1,.75-1.57,3.71,3.71,0,0,1,1.3-1.12,4.06,4.06,0,0,1,1.9-.42,3.8,3.8,0,0,1,1.91.45,3.75,3.75,0,0,1,1.29,1.18,4.74,4.74,0,0,1,.71,1.67,7.72,7.72,0,0,1,.18,1.92H73.35A5.29,5.29,0,0,0,73.52,310.2Zm5.62-3.47a3.34,3.34,0,0,0-.58-1.05,3,3,0,0,0-.92-.74,2.59,2.59,0,0,0-1.23-.28,2.63,2.63,0,0,0-1.24.28,3,3,0,0,0-.92.74,3.65,3.65,0,0,0-.6,1.06,5.26,5.26,0,0,0-.3,1.23h6A4.32,4.32,0,0,0,79.14,306.73Z"/><path d="M87.38,305.79a1.86,1.86,0,0,0-.53-.64,2.29,2.29,0,0,0-.77-.37,3.41,3.41,0,0,0-.92-.12,3.92,3.92,0,0,0-.76.08,2.62,2.62,0,0,0-.71.27,1.59,1.59,0,0,0-.53.5,1.35,1.35,0,0,0-.19.75,1.1,1.1,0,0,0,.18.64,1.68,1.68,0,0,0,.48.44,3.05,3.05,0,0,0,.63.3c.23.08.44.14.63.19l1.51.34a4.8,4.8,0,0,1,1,.26,3.07,3.07,0,0,1,.84.5,2.21,2.21,0,0,1,.84,1.82,2.29,2.29,0,0,1-.34,1.28,2.81,2.81,0,0,1-.88.87,3.57,3.57,0,0,1-1.19.47,6,6,0,0,1-1.32.15,4.24,4.24,0,0,1-2.65-.78,3.25,3.25,0,0,1-1.16-2.48h1.13a2.25,2.25,0,0,0,.84,1.74,3,3,0,0,0,1.9.58,4.24,4.24,0,0,0,.85-.09,2.53,2.53,0,0,0,.82-.31,1.91,1.91,0,0,0,.62-.54,1.4,1.4,0,0,0,.25-.82,1.28,1.28,0,0,0-.18-.7,1.41,1.41,0,0,0-.45-.46,2.7,2.7,0,0,0-.66-.32c-.25-.08-.5-.16-.75-.22l-1.46-.32a8.15,8.15,0,0,1-1-.33,3.26,3.26,0,0,1-.82-.47,2,2,0,0,1-.55-.68,2.31,2.31,0,0,1-.2-1,2.25,2.25,0,0,1,.32-1.21,2.35,2.35,0,0,1,.82-.81,4,4,0,0,1,1.12-.45,5.28,5.28,0,0,1,1.23-.14,4.56,4.56,0,0,1,1.31.18,3,3,0,0,1,1.06.55,2.81,2.81,0,0,1,.73.94,3.46,3.46,0,0,1,.31,1.31H87.59A2.09,2.09,0,0,0,87.38,305.79Z"/><path d="M97.44,304.93v8.33H96.3v-8.33H94.72V304H96.3v-.85a6.28,6.28,0,0,1,.09-1.1,2.14,2.14,0,0,1,.35-.86,1.6,1.6,0,0,1,.69-.56,2.77,2.77,0,0,1,1.12-.2l.47,0,.49.05v1l-.43-.07-.4,0a1.56,1.56,0,0,0-.72.14.92.92,0,0,0-.37.39,1.4,1.4,0,0,0-.13.56c0,.22,0,.46,0,.71V304h1.83v.95Z"/><path d="M101.4,304v2.17h0a3.63,3.63,0,0,1,1.34-1.74,3.48,3.48,0,0,1,2.17-.56V305a3.52,3.52,0,0,0-1.4.21,3.16,3.16,0,0,0-1.09.69,3.08,3.08,0,0,0-.71,1.08,3.49,3.49,0,0,0-.25,1.35v4.95h-1.14V304Z"/><path d="M111.5,304.1a4.07,4.07,0,0,1,1.38,1.07,4.57,4.57,0,0,1,.85,1.55,6.37,6.37,0,0,1,0,3.8,4.72,4.72,0,0,1-.85,1.56,4,4,0,0,1-1.38,1.05,4.3,4.3,0,0,1-1.88.39,4.36,4.36,0,0,1-1.88-.39,4.08,4.08,0,0,1-1.37-1.05,4.54,4.54,0,0,1-.85-1.56,6.37,6.37,0,0,1,0-3.8,4.41,4.41,0,0,1,.85-1.55,4.13,4.13,0,0,1,1.37-1.07,4.36,4.36,0,0,1,1.88-.39A4.3,4.3,0,0,1,111.5,304.1Zm-3.3.9a3.16,3.16,0,0,0-1,.9,4.15,4.15,0,0,0-.61,1.27,5.36,5.36,0,0,0,0,2.9,4.15,4.15,0,0,0,.61,1.27,3.16,3.16,0,0,0,1,.9,2.84,2.84,0,0,0,1.42.34,2.88,2.88,0,0,0,1.43-.34,3.23,3.23,0,0,0,1-.9,3.93,3.93,0,0,0,.61-1.27,5.09,5.09,0,0,0,.21-1.45,5.14,5.14,0,0,0-.21-1.45,3.93,3.93,0,0,0-.61-1.27,3.23,3.23,0,0,0-1-.9,2.88,2.88,0,0,0-1.43-.34A2.84,2.84,0,0,0,108.2,305Z"/><path d="M116.75,304v1.56h.06a3.68,3.68,0,0,1,1.17-1.35,3.35,3.35,0,0,1,1.87-.48,3.16,3.16,0,0,1,1.66.45,2.2,2.2,0,0,1,1,1.36,2.9,2.9,0,0,1,1.22-1.36,3.54,3.54,0,0,1,1.73-.45c2.06,0,3.08,1.08,3.08,3.25v6.3h-1.13V307a2.73,2.73,0,0,0-.49-1.76,2.08,2.08,0,0,0-1.71-.6,2.37,2.37,0,0,0-1.22.28,2.16,2.16,0,0,0-.78.75,3.26,3.26,0,0,0-.4,1.07,6.39,6.39,0,0,0-.12,1.25v5.25h-1.13V307a4.33,4.33,0,0,0-.1-.89,2.12,2.12,0,0,0-.33-.73,1.55,1.55,0,0,0-.6-.5,2.13,2.13,0,0,0-.92-.18,2.88,2.88,0,0,0-1.25.26,2.42,2.42,0,0,0-.86.72,3.35,3.35,0,0,0-.5,1.08,5.34,5.34,0,0,0-.16,1.36v5.18h-1.13V304Z"/><path d="M144.8,300.41v1h-7.66v4.64h7.17v1h-7.17v5.08h7.75v1h-9V300.41Z"/><path d="M147.53,300.41v12.85H146.4V300.41Z"/><path d="M150.55,310.2a3.53,3.53,0,0,0,.54,1.18,3.31,3.31,0,0,0,1,.86,2.62,2.62,0,0,0,1.38.34,2.78,2.78,0,0,0,1.95-.65,3.4,3.4,0,0,0,1-1.72h1.13a4.51,4.51,0,0,1-1.32,2.44,3.93,3.93,0,0,1-2.73.87,4.25,4.25,0,0,1-1.89-.39,3.51,3.51,0,0,1-1.31-1.06,4.67,4.67,0,0,1-.75-1.57,7.17,7.17,0,0,1-.24-1.88,6.85,6.85,0,0,1,.24-1.8,4.86,4.86,0,0,1,.75-1.57,3.66,3.66,0,0,1,1.31-1.12,4,4,0,0,1,1.89-.42,3.8,3.8,0,0,1,1.91.45,3.75,3.75,0,0,1,1.29,1.18,4.74,4.74,0,0,1,.71,1.67,7.28,7.28,0,0,1,.18,1.92h-7.14A4.83,4.83,0,0,0,150.55,310.2Zm5.61-3.47a3.34,3.34,0,0,0-.58-1.05,3,3,0,0,0-.92-.74,2.59,2.59,0,0,0-1.23-.28,2.63,2.63,0,0,0-1.24.28,3,3,0,0,0-.92.74,3.65,3.65,0,0,0-.6,1.06,4.79,4.79,0,0,0-.29,1.23h6A4,4,0,0,0,156.16,306.73Z"/><path d="M160.1,304v1.56h.05a3.61,3.61,0,0,1,1.18-1.35,3.29,3.29,0,0,1,1.86-.48,3.19,3.19,0,0,1,1.67.45,2.18,2.18,0,0,1,1,1.36,2.87,2.87,0,0,1,1.23-1.36,3.52,3.52,0,0,1,1.73-.45q3.08,0,3.08,3.25v6.3h-1.14V307a2.73,2.73,0,0,0-.49-1.76,2.07,2.07,0,0,0-1.7-.6,2.38,2.38,0,0,0-1.23.28,2.21,2.21,0,0,0-.77.75,3.27,3.27,0,0,0-.41,1.07A6.39,6.39,0,0,0,166,308v5.25H164.9V307a3.74,3.74,0,0,0-.1-.89,1.94,1.94,0,0,0-.32-.73,1.55,1.55,0,0,0-.6-.5,2.16,2.16,0,0,0-.92-.18,2.84,2.84,0,0,0-1.25.26,2.37,2.37,0,0,0-.87.72,3.34,3.34,0,0,0-.49,1.08,5.33,5.33,0,0,0-.17,1.36v5.18h-1.13V304Z"/><path d="M174.88,310.2a3.75,3.75,0,0,0,.55,1.18,3.19,3.19,0,0,0,1,.86,2.62,2.62,0,0,0,1.38.34,2.78,2.78,0,0,0,1.95-.65,3.47,3.47,0,0,0,1-1.72h1.13a4.51,4.51,0,0,1-1.32,2.44,3.93,3.93,0,0,1-2.73.87,4.33,4.33,0,0,1-1.9-.39,3.48,3.48,0,0,1-1.3-1.06,4.48,4.48,0,0,1-.75-1.57,7.17,7.17,0,0,1-.24-1.88,6.85,6.85,0,0,1,.24-1.8,4.66,4.66,0,0,1,.75-1.57,3.63,3.63,0,0,1,1.3-1.12,4.06,4.06,0,0,1,1.9-.42,3.83,3.83,0,0,1,1.91.45,3.75,3.75,0,0,1,1.29,1.18,4.93,4.93,0,0,1,.71,1.67,7.72,7.72,0,0,1,.18,1.92h-7.15A5.29,5.29,0,0,0,174.88,310.2Zm5.62-3.47a3.36,3.36,0,0,0-.59-1.05,2.89,2.89,0,0,0-.92-.74,2.53,2.53,0,0,0-1.22-.28,2.61,2.61,0,0,0-1.24.28,2.89,2.89,0,0,0-.92.74,3.65,3.65,0,0,0-.6,1.06,5.26,5.26,0,0,0-.3,1.23h6A4,4,0,0,0,180.5,306.73Z"/><path d="M184.5,304v1.6h0a2.67,2.67,0,0,1,1.15-1.36,3.4,3.4,0,0,1,1.82-.51,4.54,4.54,0,0,1,1.63.25,2.51,2.51,0,0,1,1.05.71,2.75,2.75,0,0,1,.56,1.12,6.33,6.33,0,0,1,.16,1.5v6h-1.13v-5.79a5.49,5.49,0,0,0-.11-1.11,2.31,2.31,0,0,0-.38-.89,1.79,1.79,0,0,0-.73-.59,2.58,2.58,0,0,0-1.14-.22,3,3,0,0,0-1.22.24,2.86,2.86,0,0,0-.9.67,3.2,3.2,0,0,0-.57,1,4,4,0,0,0-.23,1.27v5.41h-1.13V304Z"/><path d="M196.74,304v.95h-1.89v6.26a1.92,1.92,0,0,0,.16.88c.1.21.35.32.76.35a7.89,7.89,0,0,0,1-.06v1a4.18,4.18,0,0,0-.5,0h-.51a1.67,1.67,0,0,1-2-2.07v-6.35H192.1V304h1.62v-2.79h1.13V304Z"/><path d="M198.61,305.42a2.83,2.83,0,0,1,.79-1,3.28,3.28,0,0,1,1.16-.55,5.58,5.58,0,0,1,1.47-.18,7.3,7.3,0,0,1,1.23.11,3.14,3.14,0,0,1,1.1.44,2.52,2.52,0,0,1,.79.91,3.34,3.34,0,0,1,.3,1.52v4.94a.6.6,0,0,0,.67.68.86.86,0,0,0,.36-.07v.95l-.35.06h-.39a1.66,1.66,0,0,1-.69-.11,1,1,0,0,1-.41-.34,1.15,1.15,0,0,1-.18-.51,4.43,4.43,0,0,1-.05-.66h0a7.81,7.81,0,0,1-.62.81,3,3,0,0,1-.7.58,3,3,0,0,1-.88.36,5,5,0,0,1-1.18.13,4.27,4.27,0,0,1-1.21-.16,2.69,2.69,0,0,1-1-.48,2.25,2.25,0,0,1-.67-.85,2.84,2.84,0,0,1-.24-1.21,2.37,2.37,0,0,1,.43-1.52,2.7,2.7,0,0,1,1.14-.84,6.81,6.81,0,0,1,1.6-.41l1.81-.22.63-.09a1.16,1.16,0,0,0,.45-.19.89.89,0,0,0,.28-.37,1.53,1.53,0,0,0,.1-.61,2,2,0,0,0-.19-.95,1.46,1.46,0,0,0-.52-.58,2.1,2.1,0,0,0-.77-.3,5.7,5.7,0,0,0-1-.08,2.85,2.85,0,0,0-1.76.51,2,2,0,0,0-.72,1.65h-1.14A3.84,3.84,0,0,1,198.61,305.42Zm5.67,2.77a.65.65,0,0,1-.41.29,3.35,3.35,0,0,1-.54.12c-.48.09-1,.16-1.48.23a7.67,7.67,0,0,0-1.4.29,2.82,2.82,0,0,0-1,.57,1.34,1.34,0,0,0-.41,1.06,1.7,1.7,0,0,0,.17.76,2.14,2.14,0,0,0,.46.58,2.07,2.07,0,0,0,.67.37,2.53,2.53,0,0,0,.77.12,3.93,3.93,0,0,0,1.24-.2,3.09,3.09,0,0,0,1-.57,2.88,2.88,0,0,0,.7-.92,2.84,2.84,0,0,0,.26-1.22v-1.48Z"/><path d="M208.77,304v2.17h0a3.63,3.63,0,0,1,1.34-1.74,3.48,3.48,0,0,1,2.17-.56V305a3.52,3.52,0,0,0-1.4.21,3.16,3.16,0,0,0-1.09.69,3.08,3.08,0,0,0-.71,1.08,3.49,3.49,0,0,0-.25,1.35v4.95h-1.14V304Z"/><path d="M213.55,304l3.06,7.92,2.87-7.92h1.13l-4,10.69c-.17.39-.33.72-.47,1a2,2,0,0,1-.48.61,1.64,1.64,0,0,1-.61.33,3.64,3.64,0,0,1-.89.09l-.53,0a1,1,0,0,1-.33-.07v-.95l.38.06a2.56,2.56,0,0,0,.39,0,1.56,1.56,0,0,0,.62-.11,1.37,1.37,0,0,0,.42-.29,1.69,1.69,0,0,0,.31-.46l.27-.6.4-1L212.35,304Z"/><path d="M227.83,310.69a2.64,2.64,0,0,0,.89,1.06,3.53,3.53,0,0,0,1.34.57,8,8,0,0,0,1.66.17,4.94,4.94,0,0,0,1.09-.14,3.89,3.89,0,0,0,1.11-.46,2.89,2.89,0,0,0,.86-.81,2.12,2.12,0,0,0,.34-1.2,1.72,1.72,0,0,0-.25-.94,2.2,2.2,0,0,0-.63-.66,3.42,3.42,0,0,0-.85-.44,6.87,6.87,0,0,0-.92-.28l-2.86-.7a9.93,9.93,0,0,1-1.09-.36,3.4,3.4,0,0,1-.93-.58A2.71,2.71,0,0,1,227,305a2.92,2.92,0,0,1-.25-1.28,4.1,4.1,0,0,1,.18-1.1,3.13,3.13,0,0,1,.68-1.19,3.94,3.94,0,0,1,1.36-.94,5.37,5.37,0,0,1,2.21-.39,6.78,6.78,0,0,1,1.82.25,4.47,4.47,0,0,1,1.51.76,3.59,3.59,0,0,1,1.42,3h-1.22a3.07,3.07,0,0,0-.34-1.29,2.85,2.85,0,0,0-.77-.92,3.34,3.34,0,0,0-1.1-.55,4.31,4.31,0,0,0-1.3-.19,5.43,5.43,0,0,0-1.22.13,3.14,3.14,0,0,0-1,.43,2.17,2.17,0,0,0-.71.79,2.42,2.42,0,0,0-.27,1.2,2,2,0,0,0,.15.79,1.56,1.56,0,0,0,.42.56,2.07,2.07,0,0,0,.62.38,6,6,0,0,0,.75.24l3.13.77a9.29,9.29,0,0,1,1.29.44,4,4,0,0,1,1.06.65,2.66,2.66,0,0,1,.72.94,3.22,3.22,0,0,1,.26,1.35,4.68,4.68,0,0,1,0,.58,3.05,3.05,0,0,1-.22.76,3.5,3.5,0,0,1-.48.82,3,3,0,0,1-.87.75,5.21,5.21,0,0,1-1.36.54,7.83,7.83,0,0,1-1.94.21,8.3,8.3,0,0,1-2.11-.26,4.7,4.7,0,0,1-1.65-.8,3.66,3.66,0,0,1-1.06-1.39,4.6,4.6,0,0,1-.31-2h1.22A3.6,3.6,0,0,0,227.83,310.69Z"/><path d="M243.76,305.25a2.51,2.51,0,0,0-1.77-.59,2.84,2.84,0,0,0-1.42.34,3,3,0,0,0-1,.9,4,4,0,0,0-.62,1.27,5.36,5.36,0,0,0,0,2.9,4,4,0,0,0,.62,1.27,3,3,0,0,0,1,.9,2.84,2.84,0,0,0,1.42.34,2.54,2.54,0,0,0,1-.2,2.46,2.46,0,0,0,.83-.55,3,3,0,0,0,.6-.83,3.13,3.13,0,0,0,.28-1.07h1.14a4.32,4.32,0,0,1-1.24,2.64,3.67,3.67,0,0,1-2.6.95,4.36,4.36,0,0,1-1.88-.39,4.08,4.08,0,0,1-1.37-1.05,4.54,4.54,0,0,1-.85-1.56,6.37,6.37,0,0,1,0-3.8,4.41,4.41,0,0,1,.85-1.55,4.13,4.13,0,0,1,1.37-1.07,4.36,4.36,0,0,1,1.88-.39,4,4,0,0,1,2.53.79,3.43,3.43,0,0,1,1.24,2.39h-1.14A3.12,3.12,0,0,0,243.76,305.25Z"/><path d="M248.53,300.41v5.17h0a2.69,2.69,0,0,1,1.16-1.36,3.37,3.37,0,0,1,1.81-.51,4.54,4.54,0,0,1,1.63.25,2.44,2.44,0,0,1,1.61,1.83,6.33,6.33,0,0,1,.16,1.5v6H253.8v-5.79a5.49,5.49,0,0,0-.11-1.11,2.3,2.3,0,0,0-.37-.89,1.85,1.85,0,0,0-.73-.59,2.62,2.62,0,0,0-1.15-.22,2.9,2.9,0,0,0-1.21.24,2.65,2.65,0,0,0-.9.67,3,3,0,0,0-.58,1,4,4,0,0,0-.22,1.27v5.41h-1.14V300.41Z"/><path d="M262.88,304.1a4.07,4.07,0,0,1,1.38,1.07,4.75,4.75,0,0,1,.85,1.55,6.59,6.59,0,0,1,0,3.8,4.9,4.9,0,0,1-.85,1.56,4,4,0,0,1-1.38,1.05,4.73,4.73,0,0,1-3.76,0,4.12,4.12,0,0,1-1.38-1.05,4.69,4.69,0,0,1-.84-1.56,6.37,6.37,0,0,1,0-3.8,4.55,4.55,0,0,1,.84-1.55,4.17,4.17,0,0,1,1.38-1.07,4.73,4.73,0,0,1,3.76,0Zm-3.3.9a3.16,3.16,0,0,0-1,.9,4.15,4.15,0,0,0-.61,1.27,5.14,5.14,0,0,0-.21,1.45,5.09,5.09,0,0,0,.21,1.45,4.15,4.15,0,0,0,.61,1.27,3.16,3.16,0,0,0,1,.9,3.14,3.14,0,0,0,2.84,0,3.16,3.16,0,0,0,1-.9,4.15,4.15,0,0,0,.61-1.27,5.09,5.09,0,0,0,.21-1.45,5.14,5.14,0,0,0-.21-1.45,4.15,4.15,0,0,0-.61-1.27,3.16,3.16,0,0,0-1-.9,3.14,3.14,0,0,0-2.84,0Z"/><path d="M272.89,304.1a4.17,4.17,0,0,1,1.38,1.07,4.55,4.55,0,0,1,.84,1.55,6.37,6.37,0,0,1,0,3.8,4.69,4.69,0,0,1-.84,1.56,4.12,4.12,0,0,1-1.38,1.05,4.73,4.73,0,0,1-3.76,0,4,4,0,0,1-1.38-1.05,4.69,4.69,0,0,1-.84-1.56,6.37,6.37,0,0,1,0-3.8,4.55,4.55,0,0,1,.84-1.55,4.07,4.07,0,0,1,1.38-1.07,4.73,4.73,0,0,1,3.76,0Zm-3.3.9a3.16,3.16,0,0,0-1,.9,4.15,4.15,0,0,0-.61,1.27,5.14,5.14,0,0,0-.21,1.45,5.09,5.09,0,0,0,.21,1.45,4.15,4.15,0,0,0,.61,1.27,3.16,3.16,0,0,0,1,.9,3.14,3.14,0,0,0,2.84,0,3.16,3.16,0,0,0,1-.9,4.15,4.15,0,0,0,.61-1.27,5.09,5.09,0,0,0,.21-1.45,5.14,5.14,0,0,0-.21-1.45,4.15,4.15,0,0,0-.61-1.27,3.16,3.16,0,0,0-1-.9,3.14,3.14,0,0,0-2.84,0Z"/><path d="M278.25,300.41v12.85h-1.14V300.41Z"/><path d="M50.6,263.19a16.9,16.9,0,0,1-2.2-.18l-2.2-.29c-.21,2.66-.31,5.19-.31,7.61,0,.63,0,1.42,0,2.36s.05,1.73.05,2.37c0,.85,0,1.63-.09,2.33l4.31-.05a1.28,1.28,0,0,1,1,.4,1.37,1.37,0,0,1,.39,1,1.39,1.39,0,0,1-.39,1,1.28,1.28,0,0,1-1,.4c-.52,0-1.28,0-2.3,0l-2.3,0a20.91,20.91,0,0,0-2.7.25,21.3,21.3,0,0,1-2.71.26,1.29,1.29,0,0,1-1-.41,1.37,1.37,0,0,1-.39-1,1.41,1.41,0,0,1,.39-1,1.29,1.29,0,0,1,1-.41,24.23,24.23,0,0,0,2.94-.28,21.19,21.19,0,0,0,.13-2.53q0-.94-.09-2.31c0-.9-.08-1.67-.08-2.29,0-2.1.12-4.73.38-7.88l-1.78.05-1.78,0a1.3,1.3,0,0,1-1-.4,1.38,1.38,0,0,1-.4-1,1.26,1.26,0,0,1,1.29-1.39c.74-.08,2.12-.11,4.14-.11a50,50,0,0,1,6.82.59,1.45,1.45,0,0,1,.76,2.49A1.59,1.59,0,0,1,50.6,263.19Z"/><path d="M80.64,281.54a1.8,1.8,0,0,1-1.11-.36,1.23,1.23,0,0,1-.55-1,14.2,14.2,0,0,1-.79-2.69c-.11-.7-.47-2.66-1.08-5.9q-.69-3.68-.93-5.9a52.63,52.63,0,0,1-2.61,7.64A34.34,34.34,0,0,0,71.48,279a1.33,1.33,0,0,1,.16.62,1.2,1.2,0,0,1-.54,1A1.82,1.82,0,0,1,70,281c-1.23,0-1.84-.55-1.84-1.65l-.42-1.74-1.49-6.7q-.9-3.39-3-9.72a2,2,0,0,1-.1-.55c0-.84.48-1.27,1.44-1.27a1.49,1.49,0,0,1,1.37,1c.16.33.49,1.27,1,2.83s1.07,3.64,1.61,6l1.32,6.05a75.72,75.72,0,0,0,2.92-8.26c.59-2,1-3.35,1.35-4.12.82-2,1.62-3,2.39-3a1.39,1.39,0,0,1,1.36,1,27.2,27.2,0,0,1,1,5.61c.19,1.49.5,3.29.93,5.38l1.18,5.38q1.83-4.41,4.58-11.91c.1-.27.33-1.14.68-2.58a8.54,8.54,0,0,1,1-2.49,1.49,1.49,0,0,1,1.29-.75,1.21,1.21,0,0,1,1.38,1.36,6.59,6.59,0,0,1-.44,1.37l-.54,1.48L88.1,266,84,275.89c-.37,1.09-1,2.66-1.92,4.73A1.59,1.59,0,0,1,80.64,281.54Z"/><path d="M95.42,274c0,.54,0,1.36,0,2.45s0,1.91,0,2.46a1.33,1.33,0,0,1-.37,1,1.42,1.42,0,0,1-1.93,0,1.33,1.33,0,0,1-.38-1c0-.55,0-1.37,0-2.46s-.05-1.91-.05-2.45c0-.86,0-1.93.14-3.21s.13-2.35.13-3.2a1.37,1.37,0,0,1,.38-1,1.27,1.27,0,0,1,1-.39,1.31,1.31,0,0,1,1,.39,1.36,1.36,0,0,1,.37,1c0,.85,0,1.92-.13,3.2S95.42,273.16,95.42,274Zm-.62-11.1a1.58,1.58,0,0,1-1.13-.47,1.55,1.55,0,0,1,0-2.24,1.58,1.58,0,0,1,1.13-.47,1.55,1.55,0,0,1,1.13.47,1.57,1.57,0,0,1,0,2.24A1.55,1.55,0,0,1,94.8,262.92Z"/><path d="M103.51,269.48l-.2,6.79c0,.72,0,1.78-.11,3.18-.09.91-.54,1.36-1.34,1.36s-1.34-.46-1.34-1.39c0-1.1,0-2.76.15-5s.15-3.87.15-5c0-1.44,0-3.09.07-4.94s.07-3.51.07-5a1.35,1.35,0,1,1,2.69,0c0,1.44,0,3.09-.07,5S103.51,268,103.51,269.48Z"/><path d="M111.18,269.48l-.2,6.79c0,.72,0,1.78-.11,3.18-.09.91-.54,1.36-1.34,1.36s-1.34-.46-1.34-1.39c0-1.1,0-2.76.15-5s.15-3.87.15-5c0-1.44,0-3.09.07-4.94s.07-3.51.07-5a1.35,1.35,0,1,1,2.69,0c0,1.44,0,3.09-.07,5S111.18,268,111.18,269.48Z"/><path d="M137.09,261.82a1.32,1.32,0,0,1-.42-.07,16.59,16.59,0,0,0-4.46-.65,17,17,0,0,0-2.45.2,27.33,27.33,0,0,0-2.86.63,9.85,9.85,0,0,1,.13,1.42c0,1.27-.08,3-.23,5.23l6-.58q2.64-.27,3.24-.27a1.48,1.48,0,0,1,1,.38,1.36,1.36,0,0,1,.41,1,1.26,1.26,0,0,1-1.26,1.39l-3.26.29-6.31.57c0,.65-.07,1.26-.09,1.84s0,1.12,0,1.62c0,2,.15,3.2.44,3.56s.94.38,2.15.38c.56,0,1.41,0,2.55-.05s2-.05,2.56-.05a5.41,5.41,0,0,0,.81-.09,4.91,4.91,0,0,1,.79-.08,1.27,1.27,0,0,1,1.45,1.42,1.29,1.29,0,0,1-1.16,1.38,36.63,36.63,0,0,1-5.57.26c-2.82,0-4.64-.38-5.44-1.12s-1.31-2.68-1.31-5.61c0-.58,0-1.22,0-1.91s.06-1.44.11-2.24a1.56,1.56,0,0,1-.15-.67,1.46,1.46,0,0,1,.26-.84q.27-3.94.27-5.84a11.62,11.62,0,0,0-.13-1.48,10.33,10.33,0,0,1-.14-1.48c0-1.09.45-1.63,1.37-1.63a1.34,1.34,0,0,1,1,.4,28,28,0,0,1,3.1-.66,17.91,17.91,0,0,1,2.74-.22,14.76,14.76,0,0,1,5.3.79,1.34,1.34,0,0,1,.92,1.32,1.46,1.46,0,0,1-.36,1A1.23,1.23,0,0,1,137.09,261.82Z"/><path d="M151.91,281.13c-.17,0-.49-.2-.94-.6a6.51,6.51,0,0,1-.92-1,17.24,17.24,0,0,1-2.31,1.07,5.13,5.13,0,0,1-1.67.36,5.67,5.67,0,0,1-4.66-1.8A8.14,8.14,0,0,1,140,274a7.85,7.85,0,0,1,2.28-5.66,7.32,7.32,0,0,1,5.43-2.35,7.1,7.1,0,0,1,2.67.62c1.24.51,1.86,1.12,1.86,1.84a.94.94,0,0,1-.28.66,10.1,10.1,0,0,0-.21,1.71c-.05.79-.08,1.81-.09,3.05a11.36,11.36,0,0,0,.23,2.68,19.6,19.6,0,0,0,.87,2.4c.06.17.16.41.31.73l.08.23a1.2,1.2,0,0,1-.38.9A1.26,1.26,0,0,1,151.91,281.13Zm-2.84-9.51a11.69,11.69,0,0,1,.07-1.27c.05-.46.13-1,.23-1.47a7.28,7.28,0,0,0-.87-.39,2,2,0,0,0-.58-.12,4.77,4.77,0,0,0-3.66,1.73,6.52,6.52,0,0,0-.74,7.35,2.7,2.7,0,0,0,2.37,1.12,4.74,4.74,0,0,0,2.23-.48,7.85,7.85,0,0,0,1.38-1A49.49,49.49,0,0,1,149.07,271.62Z"/><path d="M164.71,268.58l-.68,0-.68,0q-.32,0-1.86.21l.26,8.08,0,.6v.7c0,2-.44,3-1.43,3a1.36,1.36,0,0,1-.95-.36,1.12,1.12,0,0,1-.41-.88c0-.35,0-.87,0-1.56s0-1.22,0-1.56l-.27-8c-.66,0-1.68-.1-3-.23a1.24,1.24,0,0,1-1.22-1.35,1.39,1.39,0,0,1,.37-1,1.24,1.24,0,0,1,.94-.4l2.87.24c0-.47,0-1.09-.06-1.87s-.06-1.34-.06-1.69a1.24,1.24,0,0,1,.4-.95,1.34,1.34,0,0,1,1-.38c.82,0,1.3.67,1.43,2,0,.34,0,.75,0,1.22l0,.79,0,.85c1.13-.14,1.78-.22,1.94-.22a7.79,7.79,0,0,1,1.86.14,1.2,1.2,0,0,1,.84,1.29,1.37,1.37,0,0,1-.38,1A1.27,1.27,0,0,1,164.71,268.58Z"/><path d="M191.24,262.74c-.21.34-.51.88-.87,1.6L188,270.15q-1.36,3.27-2.57,5.71l-1.71,3.05-.73,1.48a1.35,1.35,0,0,1-1.21.79,1.41,1.41,0,0,1-1-.39,1.27,1.27,0,0,1-.44-1,11.89,11.89,0,0,1,1.28-2.91l1.69-3.08a23.11,23.11,0,0,1-3.18-5,21,21,0,0,0-2.05-3.71q-2-3-2.31-3.57a1.55,1.55,0,0,1-.2-.74,1.3,1.3,0,0,1,.43-1,1.38,1.38,0,0,1,1-.4,1.33,1.33,0,0,1,1.12.64l1.09,1.7c1,1.43,1.6,2.4,1.91,2.92a20.17,20.17,0,0,1,1.6,3.12,15.58,15.58,0,0,0,1.93,3.1l3.13-7.62c.36-.63.85-1.6,1.48-2.92a1.31,1.31,0,0,1,1.27-.93,1.42,1.42,0,0,1,1,.39,1.23,1.23,0,0,1,.43,1A4.59,4.59,0,0,1,191.24,262.74Z"/><path d="M200,281a5.34,5.34,0,0,1-4-1.69,7.31,7.31,0,0,1-1.94-5.08,8.9,8.9,0,0,1,1.56-5.44,6.11,6.11,0,0,1,5.33-2.77,4.49,4.49,0,0,1,4.15,2.5,9.77,9.77,0,0,1,1.08,4.87,8.87,8.87,0,0,1-1.59,5.18A5.45,5.45,0,0,1,200,281Zm.82-12.21a3.45,3.45,0,0,0-3.14,1.92,6.94,6.94,0,0,0-.88,3.52,4.23,4.23,0,0,0,1.08,3.09,2.87,2.87,0,0,0,2.12.92,3.32,3.32,0,0,0,2.44-1,4.35,4.35,0,0,0,1.23-3.1Q203.91,268.84,200.86,268.82Z"/><path d="M220.79,272.24c0,.66,0,1.64,0,2.95s0,2.3,0,3c0,.2,0,.5,0,.91s0,.72,0,.92a1.27,1.27,0,0,1-.39,1,1.38,1.38,0,0,1-1,.38c-.71,0-1.15-.43-1.34-1.3a8.47,8.47,0,0,1-3.94.89,5.25,5.25,0,0,1-3-.79,3.54,3.54,0,0,1-1.54-2.56,44.38,44.38,0,0,1-.54-6.45,25.9,25.9,0,0,1,.41-4.27,1.23,1.23,0,0,1,1.3-1.19,1.41,1.41,0,0,1,1,.38,1.27,1.27,0,0,1,.39,1,14.62,14.62,0,0,1-.2,2,16.07,16.07,0,0,0-.19,2.11c0,1.52.05,2.82.15,3.91a13.62,13.62,0,0,0,.45,2.61,4.2,4.2,0,0,0,.89.37,2.85,2.85,0,0,0,.86.13,13.7,13.7,0,0,0,3.87-.59l0-2.77,0-2.65a42.48,42.48,0,0,1,.26-5.13,1.23,1.23,0,0,1,1.32-1.26,1.37,1.37,0,0,1,1,.39,1.22,1.22,0,0,1,.37.95Z"/><path d="M250.12,281.54a1.8,1.8,0,0,1-1.11-.36,1.21,1.21,0,0,1-.55-1,14.2,14.2,0,0,1-.79-2.69c-.11-.7-.47-2.66-1.08-5.9q-.71-3.68-.93-5.9a52.63,52.63,0,0,1-2.61,7.64A33.44,33.44,0,0,0,241,279a1.46,1.46,0,0,1,.16.62,1.18,1.18,0,0,1-.55,1,1.8,1.8,0,0,1-1.12.37c-1.23,0-1.84-.55-1.84-1.65l-.43-1.74-1.49-6.7q-.88-3.39-3-9.72a1.65,1.65,0,0,1-.1-.55c0-.84.48-1.27,1.44-1.27a1.48,1.48,0,0,1,1.36,1,27.4,27.4,0,0,1,1,2.83q.81,2.47,1.61,6l1.33,6.05a73.82,73.82,0,0,0,2.91-8.26c.6-2,1-3.35,1.36-4.12.82-2,1.61-3,2.39-3a1.37,1.37,0,0,1,1.35,1,27,27,0,0,1,1,5.61c.18,1.49.49,3.29.93,5.38l1.18,5.38q1.83-4.41,4.58-11.91c.1-.27.32-1.14.68-2.58a8.27,8.27,0,0,1,1-2.49,1.49,1.49,0,0,1,1.29-.75,1.21,1.21,0,0,1,1.38,1.36,6.59,6.59,0,0,1-.44,1.37l-.55,1.48-.75,2.43-4.06,9.87c-.37,1.09-1,2.66-1.93,4.73A1.59,1.59,0,0,1,250.12,281.54Z"/><path d="M273.11,281.07a1.24,1.24,0,0,1-1.27-1,22.67,22.67,0,0,1-.57-3.18,26.38,26.38,0,0,1-.25-3.26q0-.34,0-1.08c0-.48,0-.84,0-1.08,0-1.71-.43-2.57-1.29-2.57a4,4,0,0,0-3.1,1.58,18.24,18.24,0,0,0-1.91,3.07q0,5.21-.44,6.17a1.27,1.27,0,0,1-1.19.85,1.42,1.42,0,0,1-1-.39,1.2,1.2,0,0,1-.42-.93,2.37,2.37,0,0,1,.12-.6,9.52,9.52,0,0,0,.15-2l0-2,.05-10q.09-1.69.09-2.28a6.22,6.22,0,0,0-.13-1.32,6.07,6.07,0,0,1-.13-1.29,1.24,1.24,0,0,1,.4-.95,1.36,1.36,0,0,1,1-.38,1.23,1.23,0,0,1,1.31,1.21,14.33,14.33,0,0,1,.22,2.39c0,1,0,1.95-.1,3s-.07,2-.06,3v1.2a8.38,8.38,0,0,1,2.4-2.25,5.27,5.27,0,0,1,2.71-.74,3.29,3.29,0,0,1,3.12,1.47,7.91,7.91,0,0,1,.68,3.5l.11,2.61.28,2.85a27,27,0,0,0,.46,2.81,1.68,1.68,0,0,1,.06.4,1.24,1.24,0,0,1-.41.94A1.43,1.43,0,0,1,273.11,281.07Z"/><path d="M284.23,280.85a7.74,7.74,0,0,1-5-1.54,5.86,5.86,0,0,1-2.09-4.79,10,10,0,0,1,1.72-6,5.86,5.86,0,0,1,5-2.62,7.82,7.82,0,0,1,3.7.76,3.09,3.09,0,0,1,1.77,2.9,3.14,3.14,0,0,1-1.55,2.49,20.78,20.78,0,0,1-2.9,1.53l-5.22,2.48a5,5,0,0,0,1.91,1.7,5.76,5.76,0,0,0,2.66.58,8.27,8.27,0,0,0,2.21-.36,3.49,3.49,0,0,0,2.08-1.18c.31-.49.64-.73,1-.73a1.19,1.19,0,0,1,.85.36,1.13,1.13,0,0,1,.38.84c0,1-.82,1.88-2.45,2.61A10,10,0,0,1,284.23,280.85Zm-.37-12.45a3.52,3.52,0,0,0-2.78,1.29,8.65,8.65,0,0,0-1.65,3.89l4.2-2a18.2,18.2,0,0,0,3.52-2.09A4.63,4.63,0,0,0,283.86,268.4Z"/><path d="M303.67,281.2c-.79,0-1.23-.43-1.33-1.29l-.38-3a24.9,24.9,0,0,1-.19-3c0-.25,0-.69.05-1.3s0-1,0-1.3c0-2-.36-2.95-1.09-2.95a3.84,3.84,0,0,0-2.93,1.82,12.48,12.48,0,0,0-2,4.18c0,.36-.06.8-.13,1.34a12.31,12.31,0,0,0-.08,1.33c0,.27,0,.68.08,1.23a11.79,11.79,0,0,1,.08,1.23,1.37,1.37,0,0,1-.37,1,1.43,1.43,0,0,1-1.94,0,1.42,1.42,0,0,1-.37-1,11.79,11.79,0,0,0-.08-1.23q-.09-.82-.09-1.23c0-.94.06-2.24.2-3.9s.19-3,.19-3.91c0-.29,0-.72,0-1.3s-.05-1-.05-1.3a1.27,1.27,0,0,1,.39-1,1.34,1.34,0,0,1,1-.38c.84,0,1.3.6,1.38,1.78l0,1.6c1.53-2,3.11-3.06,4.72-3.06a3.07,3.07,0,0,1,3.05,1.93,9.92,9.92,0,0,1,.64,3.8V274a19.59,19.59,0,0,0,.29,2.93,18.54,18.54,0,0,1,.3,2.92,1.3,1.3,0,0,1-.39,1A1.37,1.37,0,0,1,303.67,281.2Z"/><path d="M327.39,263.19a16.9,16.9,0,0,1-2.2-.18l-2.2-.29c-.21,2.66-.32,5.19-.32,7.61,0,.63,0,1.42.06,2.36s0,1.73,0,2.37c0,.85,0,1.63-.09,2.33l4.3-.05a1.28,1.28,0,0,1,1,.4,1.37,1.37,0,0,1,.39,1,1.39,1.39,0,0,1-.39,1,1.28,1.28,0,0,1-1,.4c-.51,0-1.27,0-2.29,0l-2.3,0a20.91,20.91,0,0,0-2.7.25,21.27,21.27,0,0,1-2.72.26,1.28,1.28,0,0,1-1-.41,1.37,1.37,0,0,1-.39-1,1.41,1.41,0,0,1,.39-1,1.28,1.28,0,0,1,1-.41,23.89,23.89,0,0,0,2.94-.28,21,21,0,0,0,.14-2.53q0-.94-.09-2.31c-.06-.9-.09-1.67-.09-2.29q0-3.15.39-7.88l-1.78.05-1.78,0a1.3,1.3,0,0,1-1-.4,1.34,1.34,0,0,1-.4-1,1.26,1.26,0,0,1,1.29-1.39c.73-.08,2.11-.11,4.14-.11a50,50,0,0,1,6.82.59,1.3,1.3,0,0,1,1.22,1.46,1.28,1.28,0,0,1-.47,1A1.56,1.56,0,0,1,327.39,263.19Z"/><path d="M331.49,265.27c-.7,0-1.07-.42-1.09-1.26a10,10,0,0,1,.31-2l.52-2.39c.13-.72.47-1.08,1-1.08a1,1,0,0,1,.8.37,1.34,1.34,0,0,1,.31.87,18.94,18.94,0,0,1-.73,4.16C332.43,264.83,332.05,265.27,331.49,265.27Z"/><path d="M353.91,281.36a1.24,1.24,0,0,1-1.31-1.19c-.16-1-.33-2.42-.49-4.24l-.47-4.24a9,9,0,0,0-.46-1.84c-.31-.82-.65-1.23-1-1.23a4.67,4.67,0,0,0-1.89.86,7.55,7.55,0,0,0-1.72,1.27c0,.86,0,1.71.07,2.57L347,277a31.71,31.71,0,0,1,.26,3.57,1.37,1.37,0,0,1-.38,1,1.39,1.39,0,0,1-1.93,0,1.37,1.37,0,0,1-.37-1c0-1.1-.12-2.73-.34-4.89s-.33-3.78-.33-4.89a5.11,5.11,0,0,0-.41-2.25,6.77,6.77,0,0,0-2,1.42l-1.61,1.8a7.75,7.75,0,0,1-.7.87c0,.54,0,1.35-.15,2.42s-.15,1.85-.15,2.36a8,8,0,0,0,.13,1.15,6.58,6.58,0,0,1,.13,1.07,1.26,1.26,0,0,1-.41.94,1.44,1.44,0,0,1-1,.38c-1,0-1.55-1.17-1.55-3.51,0-.55.05-1.36.15-2.45s.15-1.9.15-2.45,0-1.2-.13-2.17-.13-1.7-.13-2.19c0-2.07.47-3.1,1.4-3.1a1.35,1.35,0,0,1,1,.46,1.47,1.47,0,0,1,.44,1,6.26,6.26,0,0,1-.07.8c0,.37-.07.64-.07.84l0,1.43a8.11,8.11,0,0,1,2.09-2.64,4,4,0,0,1,2.35-1.19,3,3,0,0,1,3,2.14,4.82,4.82,0,0,1,1.79-1.5,5.44,5.44,0,0,1,2.38-.5,3.12,3.12,0,0,1,3.11,2.46,36,36,0,0,1,.57,3.84q.38,2.35,1,7.84a1.12,1.12,0,0,1-.37.93A1.43,1.43,0,0,1,353.91,281.36Z"/><path d="M376.88,279.68a21.87,21.87,0,0,1-7.86,1.2,1.52,1.52,0,0,1-1.11-.55,1.67,1.67,0,0,1-.53-1.14v-4c0-1.31.08-3.17.25-5.58.18-2.61.28-4.49.3-5.66q0-1.26.15-3.75a1.18,1.18,0,0,1,.45-.9,14.41,14.41,0,0,1,4.22-.57,7.59,7.59,0,0,1,4.62,1.64,5.6,5.6,0,0,1,2.56,4.66,6.53,6.53,0,0,1-2.73,5.54,9.12,9.12,0,0,1,3.06,1.94,3.29,3.29,0,0,1,1,2.32,4.3,4.3,0,0,1-1.79,3.2A8.92,8.92,0,0,1,376.88,279.68Zm-2.6-7.19-1.45-.24-.54,0c-.24,0-.42,0-.55,0a11,11,0,0,1-1.57-.12c-.06,1.15-.08,2.18-.08,3.08v2.83a17.83,17.83,0,0,0,5.83-1,6.18,6.18,0,0,0,1.84-1.15c.55-.48.83-.83.83-1.07,0-.43-.58-.91-1.75-1.45A13.36,13.36,0,0,0,374.28,272.49Zm-1.53-10.95a16.36,16.36,0,0,0-2.09.09l0,2.39-.27,5.29c1.29.11,2,.16,2.08.15a5.65,5.65,0,0,0,3.37-1.28,3.94,3.94,0,0,0,1.41-3.13,3.1,3.1,0,0,0-1.43-2.41A4.88,4.88,0,0,0,372.75,261.54Z"/><path d="M387.55,274c0,.54,0,1.36,0,2.45s.05,1.91.05,2.46a1.33,1.33,0,0,1-.37,1,1.42,1.42,0,0,1-1.93,0,1.33,1.33,0,0,1-.38-1c0-.55,0-1.37,0-2.46s0-1.91,0-2.45c0-.86,0-1.93.13-3.21s.14-2.35.14-3.2a1.36,1.36,0,0,1,.37-1,1.31,1.31,0,0,1,1-.39,1.27,1.27,0,0,1,1,.39,1.37,1.37,0,0,1,.38,1c0,.85-.05,1.92-.14,3.2S387.55,273.16,387.55,274Zm-.62-11.1a1.55,1.55,0,0,1-1.13-.47,1.55,1.55,0,0,1,0-2.24,1.55,1.55,0,0,1,1.13-.47,1.56,1.56,0,0,1,1.13.47,1.57,1.57,0,0,1,0,2.24A1.56,1.56,0,0,1,386.93,262.92Z"/><path d="M403.42,274.33l-.32,4.6a19.19,19.19,0,0,1-.56,4.47,6,6,0,0,1-2,3.26,7.58,7.58,0,0,1-4.74,1.28,16.21,16.21,0,0,1-3.05-.25c-1.15-.23-1.72-.7-1.72-1.42a1.07,1.07,0,0,1,1.19-1.22,9.28,9.28,0,0,1,1.64.24,11.21,11.21,0,0,0,2.54.21,3.7,3.7,0,0,0,3.63-2.54,15.73,15.73,0,0,0,.69-5.13,5.62,5.62,0,0,1-1.75,2.05,4.08,4.08,0,0,1-2.34.69,5.22,5.22,0,0,1-4-1.69,6.21,6.21,0,0,1-1.55-4.38,8.3,8.3,0,0,1,2.12-5.95,7.77,7.77,0,0,1,6-2.33,6,6,0,0,1,2.13.33,2.72,2.72,0,0,1,1.31,1c1,0,1.46.57,1.46,1.62a15.72,15.72,0,0,1-.28,2.6C403.58,273,403.45,273.88,403.42,274.33ZM399,268.41a4.85,4.85,0,0,0-4,1.79,6.43,6.43,0,0,0-1.27,4.1,5,5,0,0,0,.75,3,2.65,2.65,0,0,0,2.26,1,3.6,3.6,0,0,0,2.68-1.56,5.55,5.55,0,0,0,1.34-2.84c.19-1,.39-2.53.61-4.63a3.76,3.76,0,0,0-2.35-.84Z"/></svg>