<svg xmlns="http://www.w3.org/2000/svg" viewBox="0 0 550 550"><title>ella_baker</title><rect x="55" y="55" width="440" height="440" style="fill:#af2b08;stroke:#af2b08;stroke-linecap:round;stroke-linejoin:round;stroke-width:6px"/><path d="M116.35,259.59a32.61,32.61,0,0,1-3.28-9.2c-1-5.24-1-10.54-1.36-15.83a5.64,5.64,0,0,0-.87-2.74c-.93-1.49-1.71-3.08-2.51-4.65-.53-1-.92-2.18-1.52-3.19-2.54-4.33-3.58-9.1-4.31-14-.08-.59-.24-1.16-.29-1.75a8.24,8.24,0,0,1,.85-5.28,14,14,0,0,0,2.13-6.61,8.56,8.56,0,0,0-.13-1.33q-.51-4.46-1-8.88c1.06-.29,1.33.45,1.74.91.56.63,1,1.36,1.61,2,.83.88,1.65.72,2.09-.4a4.67,4.67,0,0,0,.24-1.35c.1-1.76.23-3.53.26-5.3a20.14,20.14,0,0,1,1.22-6.33,53.24,53.24,0,0,0,1.82-6,40.77,40.77,0,0,1,4.91-11.73,11.49,11.49,0,0,1,2.18-2.5,2.83,2.83,0,0,0,1-2,32.65,32.65,0,0,1,.66-3.66,8.68,8.68,0,0,1,3.81-5.3,28.89,28.89,0,0,1,2.92-2,5.54,5.54,0,0,0,2.69-3.91c.67-3,1.3-6,2-9a35.42,35.42,0,0,1,4.48-10.63c3-4.8,6.23-9.4,10.56-13.12a4.57,4.57,0,0,0,.68-.71c3.64-4.69,8.8-6.41,14.37-7.2a13.21,13.21,0,0,1,3.33.45l.74-1.46c.89-1.74,1.74-3.5,2.67-5.22a23.18,23.18,0,0,0,2-3.37c.69-2.08,2.42-3,4-4.17a14.56,14.56,0,0,0,1.81-1.37c2.54-2.64,4.06-5.93,5.76-9.11A25.1,25.1,0,0,1,185.18,71a9.37,9.37,0,0,1,6.28-4,68.89,68.89,0,0,1,11.73-1.08,30.73,30.73,0,0,0,4.88-.43,8.49,8.49,0,0,0,4.74-2.61c1.46-1.52,1.44-2.14-.07-3.58-.4-.39-.78-.82-1.36-1.43a15.37,15.37,0,0,1,1.82-1,12.13,12.13,0,0,1,5.4-.78A15.63,15.63,0,0,0,224,55.3a10.66,10.66,0,0,0,6.26-4.44q.93-1.39,2-2.7c1.74-2.14,3.51-2.56,6.08-1.51.67.27,1.36.48,2,.71,1.61.53,3,.48,4.23-1a4.45,4.45,0,0,1,1.84-1.08C252.15,43,257.94,42.19,264,44a51.28,51.28,0,0,0,5.75,1.27,18.62,18.62,0,0,0,6.45.28c3-.49,5.69.4,8.32,1.64a3.49,3.49,0,0,1,.93.91c.25.29.43.85.69.88,1.63.16,3.34.73,4.91,0a7.71,7.71,0,0,1,4.17-.72,16.17,16.17,0,0,1,9.31,4.27c2.11,2,4.17,4,6.25,6,.52.5,1,1,1.58,1.48a45.16,45.16,0,0,1,7.71,8.1,21.65,21.65,0,0,0,6.45,5.57c2.18-1.93,2.57-1.92,4.43,0,6,6.25,10.55,13.33,13,21.68a39.61,39.61,0,0,1,1.7,14.34c-.35,4.25-.87,8.45-1.52,12.67a66.81,66.81,0,0,0-.65,18,17.5,17.5,0,0,0,.65,2.47c2.2-1,1.4-3.82,3.54-4.66.94,3.85,1.84,7.53.28,11.29a4.6,4.6,0,0,1-.19.56c-2.9,4.91-2.78,10.24-2.21,15.65a44.53,44.53,0,0,1,.16,5.89c-.14,3.86-.38,7.72-.59,11.59a32,32,0,0,1-2.17,10.14,90.14,90.14,0,0,1-6.74,13.74c-1.3,2.13-2.51,4.3-3.77,6.44h-3.59l-.52-1.2c0-1.83-.11-3.66,0-5.49.11-2.28.48-4.55.54-6.83a40.74,40.74,0,0,0-.34-5.29c-.4-3.57-.46-7.19-1.51-10.67-.3-1-.61-2-.83-3a68.2,68.2,0,0,0-6-16.56c-1.5-2.91-2.88-5.87-5.06-8.38-1.54-1.78-2.59-4-4.26-5.63-2.58-2.49-5.47-4.67-8.27-6.93a39.47,39.47,0,0,0-11.34-6.15C286.2,135.53,281,135,276,134.07c-6-1.09-12.06-1.64-18.08-2.55-5.54-.84-11.11-.66-16.67-.67A5.14,5.14,0,0,0,240,131c-6.6,1.42-13.16,2.91-19,6.49-3,1.81-6.15,3.24-9.2,4.9a12,12,0,0,0-1.81,1.48l-.34.38,0,0-.34.37,0,0-.52.65,0,0a12.86,12.86,0,0,0-2.79,1.66,85.26,85.26,0,0,0-6.41,6.9,31.83,31.83,0,0,0-4.17,6.4,106.2,106.2,0,0,0-4.24,10.78,66,66,0,0,0-3.25,16.31,26.18,26.18,0,0,1-1.11,6.35c-1.82,5.45-3.53,11-7,15.7-.62.84-1.18,1.73-1.73,2.62-2,3.3-4,6.6-4.87,10.45a10.87,10.87,0,0,1-1.41,3.65,21.57,21.57,0,0,0-3,8.84,47.87,47.87,0,0,1-2.06,8.76,4.06,4.06,0,0,1-4,2.9,13.11,13.11,0,0,1-5.73-1.07,17.91,17.91,0,0,0-2-.61l0,0-.38-.31c-2.34-.54-4.67-1.16-7-1.57a11,11,0,0,0-2.87.3c-1.42-.45-2.86-.85-4.26-1.36-2-.75-3.94-1.73-6-2.34-3.35-1-6.69-1-9.8.94a3.85,3.85,0,0,1-.71.33,8.44,8.44,0,0,0-4.76,4.4,25.35,25.35,0,0,0-2.42,10.57C116.67,257.16,116.46,258.37,116.35,259.59ZM203.69,92.32l-.51.29a14,14,0,0,0-1.48-1.19c-1.45-.87-2.9-1.75-4.42-2.49-.9-.44-1.63.13-2.2.84a1.54,1.54,0,0,0,.07,2.13,42.34,42.34,0,0,0,8.95,9c2.3,1.64,4.64,3.19,7,4.76a2.09,2.09,0,0,0,2.15.52,9.39,9.39,0,0,0-.69-2.06c-.86-1.38-1.85-2.68-2.76-4-.41-.62-.74-1.29-1.11-1.93l.29-.39a7.41,7.41,0,0,1,1.72.48c.85.48,1.59,1.15,2.43,1.66,2.06,1.26,4.13,2.52,6.23,3.71a2.69,2.69,0,0,0,2.92.09c-1-4.44-4.81-7.27-7-11.29a2.59,2.59,0,0,1,2.34,1c1,1,2,2.08,3,3.08a12.13,12.13,0,0,0,1.53,1,5.12,5.12,0,0,0,.62-4.3,10.88,10.88,0,0,1-.22-3.11c.13-1.25,1-1.63,2.11-.9a22.27,22.27,0,0,1,3.22,2.57c2.5,2.52,5.52,2.24,8.67,1.91a4,4,0,0,0,.21-1,12.14,12.14,0,0,1,1.11-5.32,8.65,8.65,0,0,0,.24-3.46c0-.83-.45-1.65-.49-2.49A5.61,5.61,0,0,0,234.84,77c-2.52-1.75-5-3.53-7.59-5.23a1.89,1.89,0,0,0-1.44-.15c-3.06,1-4,2.39-4,5.65a1.7,1.7,0,0,1,0,.39c-.15.73-.08,1.76-.53,2.14a8.16,8.16,0,0,1-3.11,1.49,4.46,4.46,0,0,1-2.28-.37,4.45,4.45,0,0,0-3.25-.05,5.94,5.94,0,0,1-1.52.38c-1.68.23-3.59,0-5,.75s-2.45,2.48-3.65,3.78l-.13.15a2.21,2.21,0,0,0-.41,2.87c.33.7.8,1.35,1.15,2A15.48,15.48,0,0,1,203.69,92.32ZM318.56,115c.13,1.08.23,2,.35,2.86s-.26,1.85.63,2.08c.56.15,1.43-.42,2-.87a37.13,37.13,0,0,1,6.1-4.28,7.59,7.59,0,0,0,2.52-2.4,25.67,25.67,0,0,0,2.07-3.79c.32-.65.49-1.36,1.4-1.42a1.86,1.86,0,0,1,1.92,1.12c.84,1.92,1.65,3.85,2.31,5.83a25.47,25.47,0,0,1,.64,3.74c1.89-1,3.29-2.14,3.73-4.22a44.22,44.22,0,0,1,1.39-4.91c.85-2.6.4-5.08-.29-7.79-1.47,1.4-.78,3.64-2.4,4.79-.91-1.08-.62-2.13-.52-3.16s.22-1.82.23-2.73a1.08,1.08,0,0,0-1.08-1.25c-1,1.75-.15,4.15-1.9,6a6.25,6.25,0,0,1-.88-1.57c-.68-3.87-1.33-7.73-1.91-11.61-.16-1.15.73-1.7,1.77-1.15a6.55,6.55,0,0,1,1.54,1.19c1.31,1.34,2.58,2.73,3.86,4.09a6.31,6.31,0,0,0-.49-2.66,51.1,51.1,0,0,0-2.74-5.43,29.07,29.07,0,0,0-3-3.83,2,2,0,0,0-2.69-.34c-1.9,1.08-3.51,2.35-3.17,4.91a18.34,18.34,0,0,1,0,2,62.86,62.86,0,0,1-1.54,14.61,9.38,9.38,0,0,1-1.78,3.41,1.88,1.88,0,0,1-1.73.45c-.4-.2-.63-1.09-.65-1.68,0-1,.24-2.08.23-3.12a6.58,6.58,0,0,0-.48-1.74c-1.86.62-1.57,2.91-3.44,3.46a48.35,48.35,0,0,0-2.68-11.13l-2,3.35-.48-.08c-.41-2.19-.83-4.38-1.26-6.62-1.05.09-1.58.45-1.83,1.36-.43,1.57-1,3.1-1.47,4.67-1,3.32-2,6.62-2.86,10a7.34,7.34,0,0,0,3.48,7.71c.49-1.08.93-2.17,1.47-3.21.15-.29.68-.64.9-.56a1.62,1.62,0,0,1,.84.9,5.14,5.14,0,0,1,.07,1.37c.13,1.86.7,2.28,2.49,1.9ZM290.45,98.34a2.16,2.16,0,0,0,2.16-1.81,3,3,0,0,1,2.47-2.45,3.16,3.16,0,0,0,2.32-2c.9-2,1.72-4,2.54-6a2.82,2.82,0,0,0-.37-2.79c-.93-1.35-1.79-2.75-2.72-4.1a19.71,19.71,0,0,0-7.24-6.2,5.63,5.63,0,0,0-1.25-.35c-1.31,1.61-.52,3.84-1.82,5.3-1-.12-1.26-.73-1.41-1.48-.26-1.29-.5-2.57-.78-3.85a20.43,20.43,0,0,0-7.46-11.91,23.26,23.26,0,0,0-2-1.21,19.08,19.08,0,0,0,1,6.91c1,2.9,2.27,5.71,3.4,8.58.36.92,1.15,1.79.67,2.89a1.2,1.2,0,0,1-.44.11c-2-.39-2.36-.14-2.57,1.91-.11,1-.22,2.08-.34,3.12-.43,3.72.29,7,3.28,9.6.46.4.91.82,1.64,1.47.38-1.44.65-2.5.95-3.55a23.32,23.32,0,0,1,1-3,1.38,1.38,0,0,1,1.14-.45c.25,0,.63.5.66.8.08.83,0,1.68,0,2.52,0,1.47.68,2,2.11,1.74a5.07,5.07,0,0,0,1.53-.79c.47-.27.91-.59,1.46-1C291.43,93.25,289.8,95.77,290.45,98.34ZM134.64,145a3.53,3.53,0,0,0,2.54-3.72c0-1.44,0-2.89,0-4.33a34.27,34.27,0,0,1,2.55-12,4.44,4.44,0,0,1,.84-1.31c.24-.26.75-.61.94-.51a1.76,1.76,0,0,1,.73,1c.45,1.3.76,2.64,1.26,3.91.4,1,1.06,1.1,1.83.37a3.74,3.74,0,0,0,.69-.94c.89-1.82,1.78-3.65,2.61-5.5.43-.93.74-1.91,1.14-3,.87.22,1.55.38,2.23.57a4.58,4.58,0,0,0,4.7-1.23c1.77-1.75,3.51-3.52,5.22-5.33,3.25-3.44,3.25-3.45,3.89-8,.18-1.31.26-2.64.4-4.06a4.37,4.37,0,0,0-2.86,1.27,6.88,6.88,0,0,1-4.58,1.47c-3-.24-5.29,1-7.45,2.91a56.78,56.78,0,0,0-8.52,8.94c-3.83,5.16-6.87,10.66-8.18,17-.55,2.69-1.09,5.39-1.88,8-.46,1.53-.4,2.65.93,3.6A11.1,11.1,0,0,1,134.64,145ZM219,114.65l.11-.53a28.13,28.13,0,0,1-2.91-2.52,38.08,38.08,0,0,0-8.36-6.77c-1.39-.87-2.7-1.86-4-2.78-3.57-2.42-7-5.08-11.08-6.66a2.12,2.12,0,0,0-2.77.53,9.38,9.38,0,0,1-.82.85,2.06,2.06,0,0,0-.51,2.48c.83,2.13,1.49,4.32,2.27,6.47a5.06,5.06,0,0,0,.92,1.5,62.41,62.41,0,0,0,16.9,13.91,10.77,10.77,0,0,0,1.36.55,2.6,2.6,0,0,0,1.18-2.26c0-.59,0-1.18,0-1.77,0-1.53.11-1.61,1.67-1.79,1.16-.13,2.35-.19,3.5-.41A23.66,23.66,0,0,0,219,114.65Zm45-22a5.27,5.27,0,0,0,3.11-5,54.11,54.11,0,0,0-.95-11.92,13.82,13.82,0,0,0-1.5-4.64c-2-3.28-4.3-6.42-6.56-9.55a2.27,2.27,0,0,0-1.76-.94c-.5.11-1,1-1.21,1.58a26.24,26.24,0,0,0-.88,4.21c-.35,2.79-1,5.61-.79,8.38.27,4.36,1.13,8.68,1.68,13A9.9,9.9,0,0,0,258,93.3c1.21,1.31,2,1.24,2.92-.27a31.84,31.84,0,0,0,1.39-2.9Zm-16.59-4.3c1.43,1,1.5,2.78,2.43,4a19.3,19.3,0,0,0,3.24,4c.12-.87.22-1.42.26-2a63.91,63.91,0,0,0-2.41-20.36c-1-3.69-3.08-6.78-5.37-9.73-.95-1.22-2-1.14-2.85.15a3.35,3.35,0,0,0-.48,1.83,12.82,12.82,0,0,0,.49,3.68c.9,2.62-.5,4.39-1.92,6.21a7.29,7.29,0,0,1-1.14,1.08,2.08,2.08,0,0,0-.78,2.24c.3,1.87.39,3.77.7,5.63a6.59,6.59,0,0,0,1,2.5c1.47,2.17,3,4.27,4.61,6.36a14.18,14.18,0,0,0,1.69,1.63C247.94,93.07,246.92,90.74,247.38,88.38Zm86.16,63.14c.53,1.82-.37,3.27-.74,4.83a15.86,15.86,0,0,0-.48,1.89,2.79,2.79,0,0,0,1.76,2.57c1.05.33,1.52-.45,2-1.13l1.27-1.74c.6,1.23.63,1.25.18,2.46A7.82,7.82,0,0,0,338,167a42.24,42.24,0,0,1,2.47,6.17c.87,2.74,1.52,5.54,2.29,8.32,0,.2.26.37.59.83a24.23,24.23,0,0,0,.38-2.59c.06-2.88.05-5.77.08-8.65a34.5,34.5,0,0,0-1.51-9.46c-1-3.46-1.88-6.93-2.69-10.43a12.35,12.35,0,0,1-.4-4.26c.57-4.33,1.41-8.63,2.06-13a7.49,7.49,0,0,0-.82-5.32c-.45.77-.8,1.3-1.08,1.87-3.39,6.86-6.64,13.79-9.47,20.91a3.89,3.89,0,0,0-.33,1.52,4.47,4.47,0,0,0,.46,1.36,4.36,4.36,0,0,0,1.36-.55C332.18,153.09,332.84,152.28,333.54,151.52Zm-129.1-28.79a7.56,7.56,0,0,0-3.24-5,77.82,77.82,0,0,1-6.08-5.25c-1.89-1.81-3.6-3.81-5.4-5.71-.41-.42-.89-.77-1.33-1.15-.88-.76-1.77-1.5-2.64-2.27-.39-.34-.7-.78-1.12-1.1-1.19-.92-1.95-.64-2.15.82a4.33,4.33,0,0,0,0,1.76,7,7,0,0,1,0,4,3.74,3.74,0,0,0,.2,2.28,23.71,23.71,0,0,0,8.59,11.2,17.38,17.38,0,0,0,6.94,3.06,3,3,0,0,0,1.68-.06C201.46,124.56,202.94,123.61,204.44,122.73Zm107-54.5a3.92,3.92,0,0,0-.1-4.34c-1.18-1.65-2.35-3.32-3.68-4.85a4.17,4.17,0,0,0-2.3-1.3,22.1,22.1,0,0,1-5.53-1.91,28.89,28.89,0,0,0-5.4-1.68c-1.33-.29-1.79.22-1.8,1.61a15.53,15.53,0,0,0,.2,2.54c.66,4.33,2.85,8.12,4.44,12.12a3.65,3.65,0,0,0,.53.83,2,2,0,0,0,2,.93,1.89,1.89,0,0,0,1.54-1.58c.16-.64.44-1.26.77-2.17a17.35,17.35,0,0,0,7.54,5.3c.91-1.92.83-2.69-.44-4.06a21.17,21.17,0,0,0-7.41-5.38A5.61,5.61,0,0,1,298.22,60a4.46,4.46,0,0,1,1.43.21c2.52,1.52,5,3.07,7.5,4.68a5.21,5.21,0,0,1,1.48,1.55A4.1,4.1,0,0,0,311.43,68.23Zm-1,22-2.09.92a2.7,2.7,0,0,1-1.16-2.49c0-2.35-1.18-4.25-2.44-6.09a6,6,0,0,0-1.43-1.06c-.28.69-.46,1.09-.61,1.51a107.55,107.55,0,0,0-3.45,13.49,12.13,12.13,0,0,0,2,9.68c1.06,1.62,1.66,1.79,3.41,1a3.68,3.68,0,0,0,2.05-2.25c.31-.87.58-1.74.92-2.6,1.05-2.68,2.16-5.34,3.18-8A3.92,3.92,0,0,0,310.44,90.22Zm-136,20-.57.16a6,6,0,0,0-.3,1.79,61.68,61.68,0,0,0,1.1,6.36c.49,2,1,4.22,2.6,5.63,3.84,3.3,7.76,6.59,13.45,5.17.38-.09.79,0,1.18-.09a8.76,8.76,0,0,0,4.22-1.49,10.77,10.77,0,0,0-1.61-.91c-4.34-1.51-7.63-4.5-10.8-7.65-1.8-1.8-3.51-3.71-5.33-5.49C177.12,112.5,175.75,111.4,174.43,110.25ZM270,93.34a10.61,10.61,0,0,1,2.28-1.88,4.24,4.24,0,0,0,2.57-3.23,13.69,13.69,0,0,0,.14-5.84c-.53-2.75-.79-5.56-1.32-8.32a8.75,8.75,0,0,0-4.61-6.19c-1.19,1.79-2.63,3.36-2.22,5.56a58.81,58.81,0,0,1,1,12.7A12.23,12.23,0,0,0,270,93.34ZM145.4,182.28c-.42-3.83-.78-7.24-1.19-10.64a2.91,2.91,0,0,0-.52-1c-1.54-2.5-3.08-5-4.64-7.5a3.84,3.84,0,0,0-1.59-1.71,6.36,6.36,0,0,0,.1,1.39c.82,2.48,1.36,5.07,3.05,7.18.41.51.82,1,.14,1.82-3.16-1.29-5.24-4-7.7-6.23-1,1-.71,2-.23,2.95a34.89,34.89,0,0,0,10.7,12.83A14.35,14.35,0,0,0,145.4,182.28Zm22.16-65a20.25,20.25,0,0,0,1.8,10,11.13,11.13,0,0,0,4.42,4.86,9.5,9.5,0,0,0,4.83,1.39c1.42,0,2.12-.81,1.72-2.14a4.58,4.58,0,0,0-1.33-2.09,59.28,59.28,0,0,1-6.42-6.84C171.11,120.73,169.42,119.21,167.56,117.32Zm-2.73,52.28q.34-3,.67-6a5.75,5.75,0,0,0-.86-3.75c-1.92-3.23-4.79-5.42-8.25-7.58C157.19,159.23,159.6,164.94,164.83,169.6ZM144.4,218.35a5.29,5.29,0,0,0-2.12,3.42c-.71,4.34,1.46,7.68,3.94,10.89a.33.33,0,0,0,.15.12c.55.1,1.23.42,1.61.21s.53-1,.52-1.48c0-1.17-.4-2.35-.32-3.5C148.46,224.21,146,221.61,144.4,218.35Zm-4.26,5.52-.42,0a17.38,17.38,0,0,0-2.1,6.64,8.34,8.34,0,0,0,.38,3.06c.87,2.6,4.78,5,7.32,4.62a1.08,1.08,0,0,0,.66-.36,2.49,2.49,0,0,0-.83-3.16,5.78,5.78,0,0,1-3.51-4.39c-.15-.57-.34-1.12-.47-1.7C140.82,227,140.49,225.43,140.14,223.87Zm16.17-58.64a34,34,0,0,0-2-8.57,2.48,2.48,0,0,0-.33-.49l-3.66-4.85a6,6,0,0,0-3.81-2.13c1.53,3.43,3,6.56,4.32,9.75C152,161.64,154.18,163.33,156.31,165.23Zm174.31,47.28c.54-.4.94-.55,1.1-.84,3.36-6.26,7.16-12.3,9.73-19.17-.37.13-.52.13-.58.21a94.46,94.46,0,0,0-9,12.88A9,9,0,0,0,330.62,212.51ZM151.93,223.6a6.24,6.24,0,0,0-.11-3.75c-1-3.84-4.14-6.39-6-9.73-.24,2.53-.76,5,1.19,7.2C148.7,219.27,150.21,221.4,151.93,223.6Zm21.29-56.17c3.12-1.39,3.66-3,1.95-5.32a8.86,8.86,0,0,0-4.85-3.25C171.31,161.8,172.24,164.54,173.22,167.43Zm-22,38.94c-1.77.9-2.15,1.28-1.81,2.06a16.78,16.78,0,0,0,4,5.91l1.42-2.88Z" style="fill:#38230f"/><path d="M230.78,496.07a11.85,11.85,0,0,1-4.47,3c-4.8,2.17-9.9,3.34-14.91,4.76a39.82,39.82,0,0,1-8.54,1c-5.61.31-11.24.46-16.85.66a37.43,37.43,0,0,1-8.58-.74c-3.78-.74-7.56-1.43-11.34-2.18-2-.39-3.93-.91-6-.28a3.92,3.92,0,0,1-2.32-.1,36.52,36.52,0,0,1-7.38-3.13c-2.48-1.57-5-3.07-7.62-4.43a36,36,0,0,1-10.93-9.11c-1.21-1.44-2.2-3.06-3.33-4.57-1.32-1.77-2.7-3.48-4-5.25-.82-1.09-1.58-2.24-2.36-3.36-2.75-3.9-5.34-7.91-8.3-11.64-1.46-1.85-3.58-3.19-5.44-4.7s-3.88-3.07-5.83-4.6c-1.28-1-2.54-2-3.86-3a38.8,38.8,0,0,0-9.3-4.5c-2.52-1-4.48-2.88-6.55-4.59-3.52-2.91-5.48-6.93-7.75-10.74-.73-1.23-1.35-2.53-2.07-3.77a23.82,23.82,0,0,1-2.35-6.81c.56-.33,1.12-.65,1.68-1a47.31,47.31,0,0,0,5.1-3.3c5.12-4.29,10.15-8.7,15.19-13.09,4.58-4,9.46-7.47,15.26-9.49.38-.13.78-.22,1.33-.38-.11.49-.14.75-.22,1a9.9,9.9,0,0,0,1.74,10,113.25,113.25,0,0,0,7.44,8.64,61.48,61.48,0,0,1,5.68,7.25c1.9,2.75,3.56,5.66,5.34,8.49a63.23,63.23,0,0,1,5.71,10.75c.91,2.39,2,4.7,2.92,7.08,1.39,3.6,2.85,7.18,3.34,11.07A18,18,0,0,0,146,465.59c.41.42.78.89,1.16,1.34a52.24,52.24,0,0,1,7.79,12.7c.75,1.68.54,2.6-.8,3.86-.91.85-1.79,1.73-2.73,2.55a3.39,3.39,0,0,0-1.06,4.09c1.3,3.08,2.68,6.13,4.23,9.08,1,1.88,3.69,2.29,5.8,1-.31-.67-.62-1.38-1-2.06-1.18-2.27-2.4-4.51-3.56-6.79a5.92,5.92,0,0,1,.66-6.64c.76-1,1-1.05,2.14-.43,1.45.76,2.85,1.63,4.34,2.3,2.69,1.2,5.39,2.4,8.15,3.4a8.84,8.84,0,0,0,8.45-1,23.08,23.08,0,0,1,7.27-3.8c.62-.17,1.43-.4,1.4-1.62a16.42,16.42,0,0,0-2.11,0c-1.68.23-3.37.46-5,.84-3.61.83-6.75-.28-9.68-2.2-2.25-1.47-4.43-3.05-6.58-4.66-2.3-1.73-4.66-3.43-6.78-5.37-2.31-2.12-4.35-4.55-6.59-6.76a34.75,34.75,0,0,1-5.93-8,14.26,14.26,0,0,1-1.31-4.07c-.56-2.83-.89-5.69-1.46-8.51-.9-4.44-3.37-8.23-5.4-12.17-3.28-6.37-7.56-12.11-11.61-18a27.47,27.47,0,0,0-3.11-3.54c-3.44-3.51-7.07-6.84-10.34-10.5a8,8,0,0,1-1.32-9c1.3-3,2.45-6.06,3.68-9.08,1.36-3.34,2.67-6.7,4.11-10,2.21-5,4.67-10,6.72-15.08,2-4.92,3.47-10,5.34-15a13.27,13.27,0,0,1,2.64-4.53,78.29,78.29,0,0,1,6.29-5.3l.3.32c-.84,1-1.71,2-2.48,3a5.85,5.85,0,0,0-1.19,2.2,9.2,9.2,0,0,0,.48,5.41,70,70,0,0,0,3.57,7.21,113,113,0,0,0,6.34,9.46c4.82,6.38,9.53,12.82,13.7,19.66,2.69,4.41,5.44,8.79,8.21,13.16,2.38,3.76,4.75,7.54,7.26,11.21,2.33,3.41,4.8,6.72,7.29,10a58.48,58.48,0,0,0,4.4,5.27,39.22,39.22,0,0,1,6.34,8.72c2.67,5,5.16,10.17,7.84,15.19,4.35,8.15,8.51,16.41,13.26,24.31,4.85,8.09,10.06,16,14.56,24.26.3.56,1,.9,1.57,1.34a5.42,5.42,0,0,0,.26.92A1.15,1.15,0,0,1,230.78,496.07Z" style="fill:#f09d05"/><path d="M231.24,493.39c-.54-.44-1.27-.78-1.57-1.34-4.5-8.3-9.71-16.17-14.56-24.26-4.75-7.9-8.91-16.16-13.26-24.31-2.68-5-5.17-10.15-7.84-15.19a39.22,39.22,0,0,0-6.34-8.72,58.48,58.48,0,0,1-4.4-5.27c-2.49-3.29-5-6.6-7.29-10-2.51-3.67-4.88-7.45-7.26-11.21-2.77-4.37-5.52-8.75-8.21-13.16-4.17-6.84-8.88-13.28-13.7-19.66a113,113,0,0,1-6.34-9.46,70,70,0,0,1-3.57-7.21,9.2,9.2,0,0,1-.48-5.41,5.85,5.85,0,0,1,1.19-2.2c.77-1.05,1.64-2,2.47-3l.59-.71-.21-.2-.67.59a78.29,78.29,0,0,0-6.29,5.3,13.27,13.27,0,0,0-2.64,4.53c-1.87,5-3.37,10.08-5.34,15-2,5.1-4.51,10-6.72,15.08-1.44,3.3-2.75,6.66-4.11,10-1.23,3-2.38,6.08-3.68,9.08a8,8,0,0,0,1.32,9c3.27,3.66,6.9,7,10.34,10.5a27.47,27.47,0,0,1,3.11,3.54c4.05,5.88,8.33,11.62,11.61,18,2,3.94,4.5,7.73,5.4,12.17.57,2.82.9,5.68,1.46,8.51a14.26,14.26,0,0,0,1.31,4.07,34.75,34.75,0,0,0,5.93,8c2.24,2.21,4.28,4.64,6.59,6.76,2.12,1.94,4.48,3.64,6.78,5.37,2.15,1.61,4.33,3.19,6.58,4.66,2.93,1.92,6.07,3,9.68,2.2,1.65-.38,3.34-.61,5-.84a16.42,16.42,0,0,1,2.11,0c0,1.22-.78,1.45-1.4,1.62a23.08,23.08,0,0,0-7.27,3.8,8.84,8.84,0,0,1-8.45,1c-2.76-1-5.46-2.2-8.15-3.4-1.49-.67-2.89-1.54-4.34-2.3-1.18-.62-1.38-.59-2.14.43a5.92,5.92,0,0,0-.66,6.64c1.16,2.28,2.38,4.52,3.56,6.79.35.68.66,1.39,1,2.06-2.11,1.29-4.82.88-5.8-1-1.55-2.95-2.93-6-4.23-9.08A3.39,3.39,0,0,1,151.4,486c.94-.82,1.82-1.7,2.73-2.55,1.34-1.26,1.55-2.18.8-3.86a52.24,52.24,0,0,0-7.79-12.7c-.38-.45-.75-.92-1.16-1.34A18,18,0,0,1,141.19,455c-.49-3.89-1.95-7.47-3.34-11.07-.92-2.38-2-4.69-2.92-7.08a63.23,63.23,0,0,0-5.71-10.75c-1.78-2.83-3.44-5.74-5.34-8.49a61.48,61.48,0,0,0-5.68-7.25,113.25,113.25,0,0,1-7.44-8.64,9.9,9.9,0,0,1-1.74-10c.08-.24.11-.5.22-1-.55.16-.95.25-1.33.38-5.8,2-10.68,5.51-15.26,9.49-5,4.39-10.07,8.8-15.19,13.09a47.31,47.31,0,0,1-5.1,3.3c-.56.35-1.12.67-1.68,1-.75-1.62-.73-2.06.4-2.76,6.06-3.75,11.34-8.48,16.57-13.22a93.83,93.83,0,0,1,16.09-11.21,23.45,23.45,0,0,1,4.31-1.83,5.23,5.23,0,0,0,3.51-3.07c4.44-10.42,9.07-20.75,13.44-31.19a117.26,117.26,0,0,0,3.83-11.54,19.45,19.45,0,0,1,6.92-10c1.29-1,2.59-2,3.92-3a4.34,4.34,0,0,0,1.88-3,87.2,87.2,0,0,0,1.13-17.82c0-1-.32-2.1.47-3l.7,0h0l.4.4h0c.13,1.35.37,2.71.37,4.06,0,3-.17,6-.25,9a2.19,2.19,0,0,0,.28.71c-.12.22-.34.43-.36.66-.28,3.06-.66,6.11-.76,9.17a19.61,19.61,0,0,1-1.24,7.09,4.48,4.48,0,0,0-.67,3.36c.08,1.05.19,2.09.31,3.13.43,3.9,1.38,7.62,3.85,10.78s5.05,6.35,7.57,9.53a27.89,27.89,0,0,1,2.21,3c1.27,2.13,2.33,4.39,3.64,6.5,4.54,7.36,9.15,14.67,13.73,22,.35.55.73,1.09,1.12,1.61,3.4,4.56,6.82,9.09,10.19,13.66,2.49,3.37,4.91,6.79,7.37,10.18.27.37.61.68.88,1.05a16.88,16.88,0,0,1,1.64,2.42A141.3,141.3,0,0,0,202.36,440a12.94,12.94,0,0,1,.72,1.61c.94,2,1.83,4.05,2.87,6,1.35,2.54,3,5,4.22,7.53a126.74,126.74,0,0,0,8.93,15.66,197,197,0,0,1,10.62,18.36c.42.77,1,1.46,1.65,2.42,2.16-3.3,4.28-6.23,6-9.35a19.42,19.42,0,0,1,7.67-7.89,10.49,10.49,0,0,0,3.93-3.95c-2.73-1.58-5.16-3.34-6.43-6.3-2.29.3-4.41.66-6.55.84s-3-.47-3.24-2.53a39.55,39.55,0,0,1-.31-6.25,20.24,20.24,0,0,0-3.39-12.67c-2.35-3.37-4.81-6.67-7.33-9.92-3.61-4.66-7.21-9.34-11-13.85-2.69-3.2-5.21-6.55-8.43-9.28-1.78-1.52-3.18-3.5-5-5a90.3,90.3,0,0,1-9.2-8.51c-1.23-1.34-2.66-2.52-3.9-3.86-3.2-3.46-6.27-7-9.52-10.44-1.74-1.84-3.77-3.41-5.59-5.18-2.62-2.55-5.24-5.11-7.71-7.8-1.93-2.12-3.67-4.44-5.44-6.71-1.12-1.45-2.15-3-3.19-4.48-2.66-3.88-5.32-7.76-7.93-11.68a6.41,6.41,0,0,1-.55-1.8,7.55,7.55,0,0,1,1.42,1.12c1,1.25,1.87,2.57,2.8,3.86a11.33,11.33,0,0,0,.75,1.37c2.26,3.2,4.5,6.41,6.81,9.57a59.32,59.32,0,0,0,6.47,8.11c5,4.75,9.86,9.57,14.78,14.37.52.5,1,1,1.46,1.59,2,2.32,3.83,4.81,6,7,4.23,4.18,8.7,8.11,13,12.28,3.64,3.57,7.15,7.28,10.64,11,2,2.15,3.91,4.39,5.76,6.67q3.33,4.09,6.5,8.33c3.4,4.53,6.81,9.08,10.12,13.69A16.87,16.87,0,0,1,234,454.21a28,28,0,0,0,.85,5.78,2.17,2.17,0,0,0,2.39,1.87c1.05,0,2.1,0,3.14,0a7.92,7.92,0,0,0,1.47-.42c-.78-.36-1.24-.58-1.72-.78s-1-.36-1.46-.56c-2-.79-2.81-1.67-2.2-4.32a43.89,43.89,0,0,1,1.76-5c.35-1.26.6-2.55,1.06-3.77.72-1.92,2.2-2.42,3.84-1.25,1.48,1.05,2.84,2.29,4.26,3.45.37.3.75.58,1.26,1,.32-1.39.58-2.52.85-3.65,1.85-7.76,3.76-15.5,5.53-23.27.9-3.95,1.6-7.95,3.57-11.57a3.51,3.51,0,0,0,.17-1.15c1.84-2.63,2.45-5.75,3.45-8.7a2.74,2.74,0,0,0-.14-1.18c-1.63-.08-3.09-.16-4.56-.2a47.38,47.38,0,0,1-14-2.73,105.62,105.62,0,0,1-11.48-5,98.08,98.08,0,0,1-8.88-5c-3.38-2.11-6.64-4.41-9.95-6.64a31,31,0,0,1-2.57-1.79c-3.27-2.71-6.51-5.44-9.76-8.17-1.3-1.1-2.55-2.25-3.87-3.32-2.37-1.94-4.9-3.71-7.14-5.8-3.62-3.39-7.11-6.93-10.56-10.51-2.5-2.58-4.91-5.26-7.2-8a33.18,33.18,0,0,1-3.87-5.64,51.9,51.9,0,0,1-4.58-12.9,3.94,3.94,0,0,1,.65-3l1,1.75c.25.88.54,1.75.74,2.63,1.47,6.34,4.59,11.87,8.41,17a57.55,57.55,0,0,0,3.94,4.34c.81.76,1.65,1.49,2.42,2.28,3,3.1,6,6.26,9,9.33a50.53,50.53,0,0,0,4.11,3.63c3.56,2.86,7.29,5.52,10.71,8.54,3.63,3.22,7.58,6,11.46,8.83a128.54,128.54,0,0,0,25.65,14.3A42.67,42.67,0,0,0,262.89,398c3.81-.34,7.57-1.23,11.36-1.85,5.54-.92,9.66-4.12,13.25-8.17a4,4,0,0,0,.45-1.26,20.26,20.26,0,0,0,4.66-6.45c.8-1.64,1.61-3.28,2.46-4.91,1.22-2.31,2.56-4.57,3.69-6.93,1.43-3,2.69-6.1,4-9.15,1.58-3.6,3.26-7.15,4.72-10.79,2.69-6.74,5.23-13.53,8.63-20a115.27,115.27,0,0,0,6.57-16.17c.64-1.84,1.24-3.71,1.87-5.56a1.66,1.66,0,0,0,.24-.3c3.25-7.54,5.69-15.29,6.15-23.56.1-1.69.31-3.39.31-5.08,0-7.62-1.3-15.1-2.6-22.57a38.3,38.3,0,0,1,.06-14c.7-3.6,1.59-7.15,2.24-10.75a12.44,12.44,0,0,0-.33-6.47,8.3,8.3,0,0,0-2.38-.18c-2.29.5-4.56,1.14-6.81,1.78-3.52,1-7,2.19-10.55,3a25.16,25.16,0,0,0-5.27,1.41,23,23,0,0,0-2.49.37c-2.7.69-5.48,1.1-7.89,2.73a8.31,8.31,0,0,1-8.54.78,3.21,3.21,0,0,1,1.18-3c1.11-1,2.11-2.16,3.23-3.15a50.23,50.23,0,0,1,4.68-3.84c2-1.4,4.29-2.49,6.33-3.89a18.51,18.51,0,0,1,7-2.92,7.76,7.76,0,0,1,3.29.06c2.84.75,5.61,1.74,8.43,2.57,3.1.93,6.23,1.78,9.7,2.77a19.69,19.69,0,0,0-.42-2.23c-.4-1.31-.9-2.59-1.32-3.89s-1-2.71-.59-4.19l.52,1.2h3.59c-1.17,2.17-.87,4.22-.07,6.53a23.9,23.9,0,0,1,.31,13.54c-.58,2.42-1.12,4.85-1.67,7.28a35.06,35.06,0,0,0-.26,12.13c.48,4,1.47,8,1.84,12,.5,5.41.83,10.86.83,16.29a45.5,45.5,0,0,1-2.9,15c-3.25,9.27-6.63,18.49-10.21,27.63-1.94,4.93-4.43,9.64-6.58,14.48s-4.32,9.7-6.23,14.64a244.61,244.61,0,0,1-11.14,23.83l-2.53,4.93a17.41,17.41,0,0,0,1,1.67c3.71,4.67,7.29,9.46,11.6,13.61,1.37,1.32,2.69,2.69,4,4.07a2.7,2.7,0,0,0,2.07.86c4,.06,6.22,1.47,7.51,5.33a61.46,61.46,0,0,1,1.93,8.2c.74,3.92,1.49,7.86,1.93,11.82.48,4.29.82,8.62.88,12.94.13,11,.27,21.89,1.05,32.82.32,4.44.94,8.86,1.56,13.27a24,24,0,0,0,1.27,4.32c.56,1.6,1.22,3.17,1.85,4.8-.41.49-.78.93-1.16,1.36-1.17.25-1.67-.47-2-1.42-.46-1.36-.94-2.72-1.37-4.1a43.13,43.13,0,0,1-2.27-10.72c-.19-4.12-.5-8.23-.62-12.35-.21-6.62-.29-13.23-.44-19.85-.1-4.39-.21-8.77-.37-13.16a155.27,155.27,0,0,0-2.46-20.84,20.3,20.3,0,0,0-2.49-7.2,5.34,5.34,0,0,0-5.49-2.68,11.41,11.41,0,0,0-3.58,1,66.15,66.15,0,0,0-7.16,3.67c-5.13,3.15-10.17,6.47-15.24,9.72-.7.45-1.34,1.1-2.61.6a16.31,16.31,0,0,1,1.73-1.66,161.85,161.85,0,0,1,19.27-12.16c1.79-.92,3.53-1.95,5.38-3a8.41,8.41,0,0,0-.78-1.05,153.74,153.74,0,0,1-13.08-14.4,9.3,9.3,0,0,0-3.53-3.1c-.12.21-.24.45-.38.67-.38.61-.8,1.2-1.15,1.83a20.85,20.85,0,0,1-11.64,10c-4,1.32-8.25,2-12.38,3-.74.17-1.48.3-2.44.49,2.37,3.54,4.63,6.81,6.77,10.16,3.91,6.13,7.71,12.33,11.63,18.45,3.46,5.4,7,10.73,10.19,16.33s6.07,11.65,7.3,18.14c1.4,7.4,4.18,14.31,6.94,21.24a11.68,11.68,0,0,0,2.68,3.8c1.28,1.25,2.23.86,2.62-.86.31-1.4.53-2.82.85-4.23a24.67,24.67,0,0,1,.82-2.33,9.6,9.6,0,0,1,.52.89,2.51,2.51,0,0,1,.19.75,68.32,68.32,0,0,1-.1,12.55,14.29,14.29,0,0,1-1.1,3.35,1.66,1.66,0,0,1-2,1.18,28.67,28.67,0,0,1-4-7.65c-.49-1.49-1.15-2.92-1.69-4.4-2.18-6-4.5-11.87-6.46-17.91-1.47-4.53-2.32-9.26-4.26-13.66-2.09-4.73-4.06-9.51-6.25-14.19a55.57,55.57,0,0,0-3.62-6c-.74-1.14-1.77-2.1-2.45-3.28-1.42-2.49-2.6-5.14-4.63-7.25a1.4,1.4,0,0,1-.29-.5c-1.29-3.65-4.42-6.14-6-9.58,0-.06-.08-.1-.12-.16-2.09-3.08-4.18-6.17-6.29-9.24-.53-.76-.91-1.71-2.07-2.09l-.58,1.91a5.81,5.81,0,0,1,2.75,3.13,42.32,42.32,0,0,1,1.87,5.15c1.51,6.1,2.86,12.23,4.34,18.34.93,3.82,2,7.63,4.2,10.95q3.6,5.5,7.51,10.81a20.32,20.32,0,0,1,4.25,9.15l.15.47.09.68.05.38.36,1.59.22.67.16.91.33,1.19.07.38.32,1.21.21,1.18.16.45.1.7.05.38.18.88s-.07.09-.06.12a1.88,1.88,0,0,0,.14.24c0,.25.05.5.07.74l.05.38.14.85s-.07.12-.05.16a2,2,0,0,0,.17.27l.48,3.46,0,.38.12.84c0,.06-.06.13,0,.17a3,3,0,0,0,.18.3l.27,2.68c0,.06-.07.13-.05.17a2.19,2.19,0,0,0,.17.29c.12.91.23,1.81.34,2.72,0,0-.08.1-.07.13a1.23,1.23,0,0,0,.14.25l.1,1.12a.35.35,0,0,0,0,.38l.1.84c0,.06-.06.13,0,.18a1.87,1.87,0,0,0,.17.31c.11.9.21,1.79.32,2.68,0,.05-.08.11-.07.15s.11.18.16.27c.12,1.1.25,2.2.34,3.31.13,1.71-1,2.6-2.62,2a4.56,4.56,0,0,1-1.2-.67c-2.49-1.92-5.11-3.69-7.38-5.83-2.91-2.74-5.52-5.79-8.27-8.69s-5.4-5.69-8.13-8.56a5.71,5.71,0,0,0-.92.66,9.87,9.87,0,0,1-4.28,3c-.57.2-1,1-1.36,1.55-.86,1.54-1.61,3.14-2.45,4.7a11.9,11.9,0,0,1-6.89,5.51,2.81,2.81,0,0,1-3.36-.8,20.69,20.69,0,0,1-3.88-5.64c-.63-1.48-1.39-2.9-2.24-4.66-.6.84-1,1.39-1.39,2-1.53,2.52-3,5.09-4.6,7.55A40.82,40.82,0,0,1,231.24,493.39Zm55.31.72a2.16,2.16,0,0,0,1.82-1.61c1.51-3.75.88-7.79,1.76-11.62a.74.74,0,0,0,0-.19c-.89-6.29-1.84-12.58-3.93-18.61a20.49,20.49,0,0,0-2.34-4.5c-1.51-2.3-3.28-4.43-4.81-6.71-2.34-3.48-4.75-6.91-6.33-10.84a96.57,96.57,0,0,1-4.09-13.52c-1.33-5.47-2.83-10.89-4.28-16.33a9.38,9.38,0,0,0-.77-2c-.46-.83-1.14-.88-1.65-.08a36.56,36.56,0,0,0-2.55,4.41c-1.84,4-2.6,8.36-3.67,12.6-1.33,5.26-2.5,10.56-3.74,15.84-.71,3-1.48,6-2.13,9-.54,2.45.1,3.82,2.3,5a30.62,30.62,0,0,0,3,1.29,9.52,9.52,0,0,1,2.66-1.19,5.14,5.14,0,0,0,3.14-1.36,3.44,3.44,0,0,1,3.86-.69c3,1.47,5.88,3.2,7.93,6a3.27,3.27,0,0,1,.35,1l-.33.27c-.77-.65-1.5-1.36-2.31-1.95a54,54,0,0,0-4.84-3.33c-2.21-1.26-3-1-4.67,1.22.54,1.27,1.06,2.6,1.67,3.9a1.89,1.89,0,0,0,.88,1c2.12.68,3,2.44,3.78,4.26a4.7,4.7,0,0,1-.74,5.15c-1.17,1.43-1.12,2,.1,3.38.3.35.63.67.95,1q8.51,8.75,17,17.48C285.21,492.9,285.9,493.5,286.55,494.11Zm-29.44-30.18a6.63,6.63,0,0,0-.37.88,7.15,7.15,0,0,1-4.64,5.2,3.22,3.22,0,0,0-1.36,1.06,16.62,16.62,0,0,1-5.18,4.44c-1,.63-2,1.25-2.94,2-1.3,1-1.37,1.29-.86,2.84a26.24,26.24,0,0,0,4.59,8.19,8.21,8.21,0,0,0,1.3,1.19,2.54,2.54,0,0,0,2.92.26,11.09,11.09,0,0,0,4.58-3.91c1-1.59,1.93-3.27,2.81-5,.74-1.4.71-1.45-.54-2.39a5.58,5.58,0,0,1-2.54-4c-.23-3.18.5-6,3.44-7.81a1.54,1.54,0,0,0,.74-2.21Zm64.35-240.61a11.82,11.82,0,0,0-1.23-1.14c-2.46-1.61-5.28-2.14-8.07-2.86a9.75,9.75,0,0,0-7.7,1.29A81.53,81.53,0,0,0,290.72,231a17,17,0,0,0-1.18,1.35,3.55,3.55,0,0,0,3.88-.22c4.78-2.85,10.09-3.8,15.49-4.42A26,26,0,0,0,321.46,223.32ZM249.38,456.88c0,1.1-.82,1.11-1.31,1.48a20.71,20.71,0,0,0-2.7,2.22,3.19,3.19,0,0,0-.5,3.83,7.3,7.3,0,0,0,4.84,4,3.43,3.43,0,0,0,3.74-1.13c1.36-1.77,2.55-3.66,1.62-6.1a4,4,0,0,1-.27-1.73,2.24,2.24,0,0,0-1.94-2.52,8.59,8.59,0,0,1-4.05-2.63c-1.34-1.44-2.67-2.88-4.05-4.28a8.26,8.26,0,0,0-1.8-1.49,1.41,1.41,0,0,0-2.26.7c-.81,2.33-1.53,4.71-2.12,7.1a2,2,0,0,0,1.36,2.52c1.79.81,3.5,1.28,5.17-.49A4.15,4.15,0,0,1,249.38,456.88ZM259.5,468.8a4.42,4.42,0,0,0-2.32,4.49,3.47,3.47,0,0,0,2.6,3.48,4.26,4.26,0,0,0,4.56-1.91,2.57,2.57,0,0,0-.73-3.43C262.29,470.62,261,469.76,259.5,468.8Zm2.32-2.39a3.46,3.46,0,0,0,1.15,2.77,2.08,2.08,0,0,0,2.61.64,2.55,2.55,0,0,0,1.17-3,12.58,12.58,0,0,0-.95-1.91c-.54-.9-1.12-1.84-2.33-1.79-.76,0-1.56,1.56-1.65,2.88Zm-5.05-7.1a3.21,3.21,0,0,0,1.65,3.24,1.54,1.54,0,0,0,2.31-1.63,4.28,4.28,0,0,0-2.08-3.19c-.86-.52-1.48-.23-1.76.77A5.66,5.66,0,0,0,256.77,459.31Z" style="fill:#78290e"/><path d="M311.48,499.59a1.66,1.66,0,0,0,2-1.18,14.29,14.29,0,0,0,1.1-3.35,68.32,68.32,0,0,0,.1-12.55,2.51,2.51,0,0,0-.19-.75,9.6,9.6,0,0,0-.52-.89,24.67,24.67,0,0,0-.82,2.33c-.32,1.41-.54,2.83-.85,4.23-.39,1.72-1.34,2.11-2.62.86a11.68,11.68,0,0,1-2.68-3.8c-2.76-6.93-5.54-13.84-6.94-21.24-1.23-6.49-4.05-12.39-7.3-18.14s-6.73-10.93-10.19-16.33c-3.92-6.12-7.72-12.32-11.63-18.45-2.14-3.35-4.4-6.62-6.77-10.16,1-.19,1.7-.32,2.44-.49,4.13-1,8.35-1.69,12.38-3a20.85,20.85,0,0,0,11.64-10c.35-.63.77-1.22,1.15-1.83.14-.22.26-.46.38-.67a9.3,9.3,0,0,1,3.53,3.1,153.74,153.74,0,0,0,13.08,14.4,8.41,8.41,0,0,1,.78,1.05c-1.85,1-3.59,2.06-5.38,3a161.85,161.85,0,0,0-19.27,12.16,16.31,16.31,0,0,0-1.73,1.66c1.27.5,1.91-.15,2.61-.6,5.07-3.25,10.11-6.57,15.24-9.72a66.15,66.15,0,0,1,7.16-3.67,11.41,11.41,0,0,1,3.58-1,5.34,5.34,0,0,1,5.49,2.68,20.3,20.3,0,0,1,2.49,7.2,155.27,155.27,0,0,1,2.46,20.84c.16,4.39.27,8.77.37,13.16.15,6.62.23,13.23.44,19.85.12,4.12.43,8.23.62,12.35a43.13,43.13,0,0,0,2.27,10.72c.43,1.38.91,2.74,1.37,4.1.32.95.82,1.67,2,1.42a10.4,10.4,0,0,1-7.36,3.53,74.24,74.24,0,0,1-7.46,0,2.39,2.39,0,0,1-1.15-.14c-.89-.54-1.47.07-2.13.45Z" style="fill:#ef9c05"/><path d="M311.48,499.59l-.32,1.14a10.59,10.59,0,0,1-10.64,3.85c-1.59-.29-3.22-.42-4.83-.61-3.49-.42-7-.72-10.47-1.26-4.3-.66-8.57-1.55-12.87-2.26a34.76,34.76,0,0,0-4.67-.4c-4.44-.17-8.89-.37-13.33-.36a24.83,24.83,0,0,0-5.39.81c-2.22.5-4.41,1.33-6.72,1.08s-4.73-.39-6.79-1.63a10.33,10.33,0,0,1-2.68-2.47,3,3,0,0,0-2-1.41,1.15,1.15,0,0,0,.72-1.76,5.42,5.42,0,0,1-.26-.92,40.82,40.82,0,0,0,3.11-3.74c1.62-2.46,3.07-5,4.6-7.55.36-.59.79-1.14,1.39-2,.85,1.76,1.61,3.18,2.24,4.66a20.69,20.69,0,0,0,3.88,5.64,2.81,2.81,0,0,0,3.36.8,11.9,11.9,0,0,0,6.89-5.51c.84-1.56,1.59-3.16,2.45-4.7.34-.6.79-1.35,1.36-1.55a9.87,9.87,0,0,0,4.28-3,5.71,5.71,0,0,1,.92-.66c2.73,2.87,5.44,5.71,8.13,8.56s5.36,6,8.27,8.69c2.27,2.14,4.89,3.91,7.38,5.83a4.56,4.56,0,0,0,1.2.67c1.59.6,2.75-.29,2.62-2-.09-1.11-.22-2.21-.34-3.31l-.09-.42c-.11-.89-.21-1.78-.32-2.68,0-.16-.08-.33-.13-.49l-.1-.84s.12-.1.11-.12a1.74,1.74,0,0,0-.15-.26c0-.37-.06-.74-.1-1.12l-.07-.38-.33-2.72c-.05-.15-.09-.31-.13-.46l-.27-2.68-.13-.47-.12-.84s.12-.1.11-.12a1.13,1.13,0,0,0-.16-.26l-.48-3.46-.12-.43-.14-.85s.12-.1.11-.12a1.83,1.83,0,0,0-.16-.26c0-.24,0-.49-.07-.74a.51.51,0,0,0-.08-.36l-.18-.88c0-.05.11-.1.1-.12a1.35,1.35,0,0,0-.15-.26l-.1-.7-.16-.45-.21-1.18-.32-1.21-.07-.38-.33-1.19c-.05-.3-.1-.6-.16-.91s-.14-.44-.22-.67L288,464.6s.12-.1.11-.12a1.83,1.83,0,0,0-.16-.26l-.09-.68-.15-.47a20.32,20.32,0,0,0-4.25-9.15q-3.91-5.3-7.51-10.81c-2.18-3.32-3.27-7.13-4.2-10.95-1.48-6.11-2.83-12.24-4.34-18.34a42.32,42.32,0,0,0-1.87-5.15,5.81,5.81,0,0,0-2.75-3.13l.58-1.91c1.16.38,1.54,1.33,2.07,2.09,2.11,3.07,4.2,6.16,6.29,9.24,0,.06.1.1.12.16,1.6,3.44,4.73,5.93,6,9.58a1.4,1.4,0,0,0,.29.5c2,2.11,3.21,4.76,4.63,7.25.68,1.18,1.71,2.14,2.45,3.28a55.57,55.57,0,0,1,3.62,6c2.19,4.68,4.16,9.46,6.25,14.19,1.94,4.4,2.79,9.13,4.26,13.66,2,6,4.28,11.95,6.46,17.91.54,1.48,1.2,2.91,1.69,4.4A28.67,28.67,0,0,0,311.48,499.59Z" style="fill:#f9f5e3"/><path d="M401.53,373.84c-.39,2.49-.78,4.6-1,6.73-.21,1.69-.22,3.4-.43,5.09-.23,1.86-1,2.54-2.89,2.48a21,21,0,0,1-3.7-.44,3.36,3.36,0,0,1-2.79-3.55c0-2,0-4.06.08-6.09.24-8.59.52-17.17.75-25.75.1-4,.26-4.12,4.22-3.54a5.18,5.18,0,0,0,.78.09,5,5,0,0,1,4.52,2.9c2.54,4.35,5.22,8.62,7.87,12.92.43.69.74,1.56,2,1.7a17.41,17.41,0,0,0,.19-1.84q0-4.62,0-9.24c0-2.69.23-3.14,2.64-4.19q3-1.29,6-2.55c.52-.22,1.08-.37,1.9-.64.06,1.15.19,2.09.16,3-.24,10-.52,19.91-.77,29.87,0,1.44,0,2.89-.08,4.33s-.51,2-2.1,2.35c-4.63,1-8.15-.6-10.31-4.76A27.39,27.39,0,0,0,401.53,373.84Zm-5.69-21c-.38.45-.75.7-.82,1a15.86,15.86,0,0,0-.43,2.9c-.18,4.78-.31,9.57-.44,14.35,0,1.7-.1,3.41-.09,5.11,0,2,0,4.05.18,6.07.09,1.3.83,2.26,2.28,3.17.15-1,.32-1.75.35-2.48.29-6,.55-12,.83-18.06a5.62,5.62,0,0,1,.29-1.1c1.17.26,1.47,1.22,2,1.92,3.81,5.32,7.6,10.68,11.38,16a16.38,16.38,0,0,0,4.27,3.79,16.49,16.49,0,0,0,1.71-6.91c.22-6.88.27-13.76.38-20.64a3.74,3.74,0,0,0-.92-2.74c-1.36,1.12-1.2,2.64-1.28,4-.32,5.82-.58,11.65-.9,17.47a4.58,4.58,0,0,1-.79,2.88c-.23,0-.43,0-.47-.09C407.56,370.71,401.79,361.89,395.84,352.8Z" style="fill:#f4ae0c"/><path d="M376.77,349c2-.21,3.76-.45,5.57-.57s2.43.54,2.46,2.24c0,1.37-.15,2.75-.19,4.12-.08,2.23-.28,4.46-.15,6.67.38,6.8.88,13.6,1.35,20.39.16,2.38-.44,3.07-2.82,3.2a8.84,8.84,0,0,0-1.37.1,3.88,3.88,0,0,1-4.56-1.84c-1.45,1-2.88,1.87-4.21,2.89a6.85,6.85,0,0,1-8.39.53c-1.29-.77-2.67-1.4-3.95-2.18a7.37,7.37,0,0,1-3.69-6.34c-.2-4.38-.39-8.77-.76-13.14-.4-4.83-1-9.64-1.51-14.46,0-.38-.05-.77-.09-1.3a27.7,27.7,0,0,1,7.47-1.46c1.67-.08,2.5.85,2.67,2.76.21,2.22.29,4.45.42,6.67.25,4.25.46,8.5.76,12.75a11.17,11.17,0,0,0,.7,3.24,3.86,3.86,0,0,0,4.44,2.74c2.47-.3,4-1.64,4.31-3.85,1.1-7.27,2-14.54,1.43-21.91A9.25,9.25,0,0,1,376.77,349Zm3.32,2.65a9.1,9.1,0,0,0-.88,4.1c0,5.32,0,10.63-.06,15.94,0,.92-.12,1.83-.18,2.74a4.48,4.48,0,0,1-3.68,4.31,37.77,37.77,0,0,1-5.77,1.15,5.79,5.79,0,0,1-6.47-4.54,14.37,14.37,0,0,1-.36-2.71c-.44-5.29-.83-10.58-1.29-15.86a45.07,45.07,0,0,0-.68-4.47c-.06-.31-.41-.57-.63-.86-.28.23-.75.41-.82.69a9.72,9.72,0,0,0-.33,2.67c.11,2,.47,4,.55,6.07.18,4.65.26,9.3.39,13.95a11.52,11.52,0,0,0,.05,1.18,8.51,8.51,0,0,0,4.18,6.33,6.26,6.26,0,0,0,6.36.25c1.8-.78,3.6-1.58,5.43-2.31s2.73-.51,4.06,1.13a7.17,7.17,0,0,0,.61.57,4.25,4.25,0,0,0,1.36-3.56c-.08-2.36-.21-4.71-.3-7.07-.19-5.57-.36-11.14-.56-16.71a11,11,0,0,0-.31-2.13C380.7,352.28,380.4,352.07,380.09,351.68Z" style="fill:#f4ae0c"/><path d="M350.41,358.7c-1.13-.23-2-.38-2.9-.58a24.8,24.8,0,0,0-11.68.23,9.94,9.94,0,0,0-1.31.41c-1.57.63-1.94,1.38-1.64,3.08.23,1.29.4,2.58.57,3.87s.64,1.77,1.94,1.69c1.95-.11,3.9-.38,5.85-.58l5.44-.52a29.2,29.2,0,0,1-.08,6.75c-.17,1-1,1.33-1.87,1.5-1.41.28-2.84.48-4.27.65s-3,.28-4.5.44c-1.72.17-2.16.7-1.92,2.44.27,2,.6,4,.88,6,.34,2.4-.32,3.41-2.68,4a45,45,0,0,1-4.44.82c-2.09.27-3.1-.52-3.36-2.6a36.66,36.66,0,0,1-.24-3.92c-.19-8.65-.34-17.3-.52-25.95,0-1.44-.19-2.88-.3-4.32-.27-3.24.24-3.83,3.45-4l6.48-.26c4.78-.21,9.56-.44,14.34-.61,2.14-.07,2.74.53,2.75,2.6C350.42,352.76,350.41,355.63,350.41,358.7Zm-4.76-7.8-11,.92c-1.31.11-2.62.13-3.92.31-1.61.22-2.74.62-2.84,2.83-.17,3.72-.61,7.45-.61,11.17,0,5,.28,10.09.48,15.13.05,1.36.24,2.71.36,4.05,2.1.21,2.7-.27,2.65-2.08a10.23,10.23,0,0,0-.19-1.56c-.32-1.67-.71-3.33-1-5-.39-2.38.17-3.06,2.56-3.38,2.92-.4,5.84-.79,8.74-1.29.7-.12,1.61.05,2.14-.86-.15-.2-.25-.52-.44-.58a12.2,12.2,0,0,0-2.81-.71c-2.55-.12-5.11-.07-7.66-.12-2.15-.05-2.54-.45-2.61-2.52-.05-1.18-.15-2.35-.2-3.53-.07-2-.17-3.93-.18-5.9a2.46,2.46,0,0,1,2.19-2.8,7.36,7.36,0,0,1,1.16-.16c2.87-.3,5.73-.57,8.59-.9,1.75-.19,3.48-.46,5.37-.71Z" style="fill:#f4ae0d"/><path d="M434.85,349.4c2.79.29,5.63.35,8.38.9,5.34,1.09,9.24,4.48,12.5,8.65a43.3,43.3,0,0,1,2.62,4.15c3.45,5.62,1.31,15.88-4.11,20.09a21.64,21.64,0,0,1-13.41,4.93c-3,0-6,0-9.05,0a10.32,10.32,0,0,1-1.75-.21,2.32,2.32,0,0,1-2.08-2,13.91,13.91,0,0,1-.27-2.14q-.31-15-.61-30.09c-.07-3.65.36-4.05,4-4h3.74Zm-3.76,31h-.22c0,.92-.07,1.84,0,2.75.13,1.45.82,1.95,2.22,1.79,1-.12,2.08-.26,3.12-.31,2.67-.1,5.35-.08,8-.24,4.61-.28,7.77-2.82,10-6.71,1.9-3.38,1.85-7,1.22-10.7a22.74,22.74,0,0,0-1.17-4.14c-2.05-5.34-6-8.12-11.69-8.36-2.94-.13-5.89,0-8.83,0-2.36,0-2.92.6-2.88,2.92,0,3.46.2,6.93.23,10.4C431.12,372,431.09,376.2,431.09,380.38Z" style="fill:#f4ae0c"/><path d="M463.12,371.11c0-4.13.16-8.26-.06-12.38a50,50,0,0,0-1.32-7.72c-.37-1.75-.18-2.42,1.44-3.08,2.86-1.15,5.71-.67,8.45.33,1.34.5,1.57,2,1.66,3.35.16,2.49.25,5,.35,7.46q.53,13.26,1,26.53a7.84,7.84,0,0,1,0,1.37c-.17,1.12-.69,1.67-1.85,1.61-2.48-.12-5-.29-7.43-.63-1.73-.24-2.32-1.13-2.33-3.07,0-4.59,0-9.18,0-13.77Zm2.42-20a13.4,13.4,0,0,0-.07,1.8c.41,4.42.93,8.84,1.24,13.27s.44,9,.57,13.52c0,1.36-.23,2.74-.28,4.11-.07,1.68.24,2,1.84,2,1.76.05,2.17-.35,2.17-2.14,0-.4,0-.79,0-1.18q-.24-11.47-.5-23-.08-3.44-.28-6.86c-.09-1.49-.52-1.87-1.95-1.84C467.42,350.86,466.58,351,465.54,351.09Z" style="fill:#f4ae0d"/><path d="M116.35,259.59c.11-1.22.32-2.43.31-3.65a25.35,25.35,0,0,1,2.42-10.57,8.44,8.44,0,0,1,4.76-4.4,3.85,3.85,0,0,0,.71-.33c3.11-2,6.45-1.94,9.8-.94,2.05.61,4,1.59,6,2.34,1.4.51,2.84.91,4.26,1.36a17.21,17.21,0,0,0,1.43,1.28c1,.7,2.16,1.25,3.12,2s2.1,1.44,2.56,3.26a7.68,7.68,0,0,1-2-1c-2.28-2.27-5.25-3.06-8.17-4a21.68,21.68,0,0,1-3.22-1.35c-1.57-.8-3.09-1.7-4.64-2.54a3.27,3.27,0,0,0-2.84-.22c-1.21.47-2.41,1-3.62,1.46a8.08,8.08,0,0,0-5.16,3.59,16.61,16.61,0,0,0-2.6,9.26A21.75,21.75,0,0,0,120.7,264a9.91,9.91,0,0,1,.32,1.33,27.63,27.63,0,0,0,3,9.23c.57,1,.89,2.17,1.38,3.23a5.14,5.14,0,0,0,.78,1l.39,1.18c.13.27.27.53.4.79a12.94,12.94,0,0,0,.46,2.07c.78,1.93,1.6,3.85,2.48,5.74,1.27,2.72,2.48,5.51,4.56,7.73a54.11,54.11,0,0,0,8.9,7.91,40.57,40.57,0,0,1,5.08,4.57,3.31,3.31,0,0,1,1.2,2.2c-1.4.05-1.87-1-2.51-1.74-.84-1-1.47-2.17-2.86-2.51h0l-.4-.4h0l-.42-.48-.33-.31c-5.53-3.92-10.52-8.35-13.41-14.66q-4.17-9.09-8.16-18.24a25.64,25.64,0,0,1-2.18-7.7,3,3,0,0,0-1.17-2.26C117.3,262,116.94,260.66,116.35,259.59Z" style="fill:#73250e"/><path d="M253.56,38.85l1.26-.45.13.38-1.27.41Z" style="fill:#d5ba9d"/><path d="M143.43,305.91l.42.48-.7,0,0-.44Z" style="fill:#9a4914"/><path d="M143.43,305.91l-.24.07-.09-.38Z" style="fill:#78290e"/><path d="M328.23,212.3c-.44,1.48.16,2.83.59,4.19s.92,2.58,1.32,3.89a19.69,19.69,0,0,1,.42,2.23c-3.47-1-6.6-1.84-9.7-2.77-2.82-.83-5.59-1.82-8.43-2.57a7.76,7.76,0,0,0-3.29-.06,18.51,18.51,0,0,0-7,2.92c-2,1.4-4.29,2.49-6.33,3.89a50.23,50.23,0,0,0-4.68,3.84c-1.12,1-2.12,2.13-3.23,3.15a3.21,3.21,0,0,0-1.18,3,35.19,35.19,0,0,0-1.44,3.77,51.67,51.67,0,0,0-1.64,7.41,64,64,0,0,0-.06,7.46c0,1.73,0,1.76,1.71,2.31,4,1.27,7.92,2.63,11.94,3.71a43.11,43.11,0,0,0,7.67,1.28c3.85.3,7.46-1,11-2.2.64-.22,1.44-.41,1.49-1.35l3.91-1.55c.89.14,1.29-.24,1.23-1.13l.33-1.2a1.12,1.12,0,0,0,1.22-1.2c1,0,1.91-.3,1.6-1.39-.61-2.18-1.49-4.28-2.29-6.4-.08-.21-.38-.35-.6-.48-4.67-2.89-9.63-4.66-15.23-3.92a14,14,0,0,0-7.87,3.16c-1.8,1.6-3.65,3.16-5.47,4.74-.79-.23-1.79.43-2.37-.61,1.07.48,1.57-.33,2.12-1a42.4,42.4,0,0,1,7.84-7.12,9.51,9.51,0,0,1,3-1.48,21.64,21.64,0,0,1,9.34-.53c3.62.66,6.77,2.09,8.88,5.22.87,1.29,1.5,2.75,2.27,4.11.33.58.42,1.41,1.31,1.52a5.62,5.62,0,0,0,.4-4.58c-1.41-3.92-4-6.56-8.19-7.41a30.49,30.49,0,0,0-11.31-.27c-3.33.56-6.36,1.52-8.72,4.06a4.28,4.28,0,0,1-1,.6,7.82,7.82,0,0,1,.68-1.71,26.06,26.06,0,0,1,2.53-3.19c1.25-1.3,2.64-2.47,4-3.7a7.29,7.29,0,0,0,.7-.86,25.16,25.16,0,0,1,5.27-1.41c3.55-.83,7-2,10.55-3,2.25-.64,4.52-1.28,6.81-1.78a8.3,8.3,0,0,1,2.38.18,12.44,12.44,0,0,1,.33,6.47c-.65,3.6-1.54,7.15-2.24,10.75a38.3,38.3,0,0,0-.06,14c1.3,7.47,2.58,14.95,2.6,22.57,0,1.69-.21,3.39-.31,5.08-.46,8.27-2.9,16-6.15,23.56a1.66,1.66,0,0,1-.24.3c-.37.25-.75.49-1.11.76-2.92,2.18-6.18,2.46-8.92.68a17,17,0,0,1-2.72-2.21c-1.7-1.72-3.33-3.5-4.94-5.29a30.46,30.46,0,0,1-2-2.61,25,25,0,0,0-2.24-3.17,21.44,21.44,0,0,1-4.4-6.67,37,37,0,0,0-4.61-7.89c-1.91-2.47-2.61-5.69-4.91-7.93a11.17,11.17,0,0,1-1.89-2.23,3,3,0,0,0-3.23-1.66l-.16-.1.16.1a23.61,23.61,0,0,0,.81,2.37c1.33,2.85,2.68,5.7,4.11,8.5a9.91,9.91,0,0,0,1.45,1.75,20.86,20.86,0,0,0,.31,2.08,11.35,11.35,0,0,1-.44,7.93,5.53,5.53,0,0,0-.25,1.31l-.83,3.68-3.58,3.49a7,7,0,0,0-3.37-1.29,7.57,7.57,0,0,1-6.9-7,2.53,2.53,0,0,1-.08-2.26c.62-1.36,1.15-2.77,1.73-4.15,2.57-6.15.8-11.67-2.65-16.81-1.81-2.7-4-5.15-5.41-8.12a15.06,15.06,0,0,0-2.22-3.45,14.53,14.53,0,0,1-2.85-4.85,47.89,47.89,0,0,1-1.82-6.17,44.27,44.27,0,0,1-.43-5.05,24.33,24.33,0,0,1-.37-3.48,38.84,38.84,0,0,0-1.48-12l-.57-2.19c0-.51,0-1,0-1.52l-.33-.46c-1.28-2.24-3.33-3.63-5.36-5.08a3.93,3.93,0,0,0-4-.69,33.79,33.79,0,0,1-14.42,2.21c-4.68-.43-9.33-1.15-14-1.67a15,15,0,0,0-3.48.06c-2.34.29-4.25,1.62-6.24,2.75-4,2.28-8.19,4.39-11.6,7.63a7.72,7.72,0,0,1,.66-2.39c1.5-2.21,3.16-4.31,4.74-6.47.5-.68,1-1.39,1.41-2.11,2.24-3.69,4.35-7.46,6.71-11.07,2.22-3.37,4.71-6.58,7.08-9.86.22-.32.57-.65.6-1,.17-2.56.25-5.13-1.38-7.35a15.69,15.69,0,0,0-1.37-1.66,65.13,65.13,0,0,0-4.85-4.84c-1.69-1.41-3.64-2.53-5.46-3.79-4.24-3-5.42-7.22-4.88-12.07.31-2.77,1-5.51,1.54-8.24a15.41,15.41,0,0,1,1.93-5.71c1-1.39,1.77-2.86,2.65-4.3v0l.52-.65,0,0c.12-.12.23-.25.34-.37l0,0,.34-.38a12,12,0,0,1,1.81-1.48c3.05-1.66,6.23-3.09,9.2-4.9,5.89-3.58,12.45-5.07,19-6.49a5.14,5.14,0,0,1,1.17-.15c5.56,0,11.13-.17,16.67.67,6,.91,12.1,1.46,18.08,2.55,5.07.92,10.24,1.46,15.14,3.27a39.47,39.47,0,0,1,11.34,6.15c2.8,2.26,5.69,4.44,8.27,6.93,1.67,1.62,2.72,3.85,4.26,5.63,2.18,2.51,3.56,5.47,5.06,8.38a68.2,68.2,0,0,1,6,16.56c.22,1,.53,2,.83,3,1.05,3.48,1.11,7.1,1.51,10.67a40.74,40.74,0,0,1,.34,5.29c-.06,2.28-.43,4.55-.54,6.83C328.12,208.64,328.22,210.47,328.23,212.3Z" style="fill:#c5915b"/><path d="M144.23,306.77c1.39.34,2,1.54,2.86,2.51.64.74,1.11,1.79,2.51,1.74a3.31,3.31,0,0,0-1.2-2.2,40.57,40.57,0,0,0-5.08-4.57,54.11,54.11,0,0,1-8.9-7.91c-2.08-2.22-3.29-5-4.56-7.73-.88-1.89-1.7-3.81-2.48-5.74a12.94,12.94,0,0,1-.46-2.07h0a25.87,25.87,0,0,0,6.26,7.66,24.35,24.35,0,0,0,5.18,3.48,7.46,7.46,0,0,1,2.67,2.21c1.31,1.63,2.39,3.44,3.62,5.13a17.58,17.58,0,0,0,1.59,1.7c.33-.39.6-.57.63-.78a6.84,6.84,0,0,0-1.19-5.58c-.39-.5-.72-1.05-1.08-1.59a21.63,21.63,0,0,1,4.06,1.07,17.79,17.79,0,0,1,3.11,2.43,3.16,3.16,0,0,0-2.6,5.05,1.73,1.73,0,0,1-.12,2.59,2.51,2.51,0,0,0-.69,2.87c.35.79,2,1.42,3.11,1.28a5.27,5.27,0,0,0,.57-.14c1.91-.41,2.05-.34,2.69,1.5.06.18.09.38.17.56.56,1.37,1.29,2.78,2.92,2.77s2.4-1.39,2.91-2.79c.3-.83.47-1.71.76-2.8.9.41,1.64.79,2.41,1.09a2.31,2.31,0,0,0,2.58-.21,2.79,2.79,0,0,0,.88-2.85,5.49,5.49,0,0,0-1.64-2.61c-.88-.89-.82-1.41,0-2.37a11.82,11.82,0,0,0,1.45-1.82c.69-1.3.07-2.34-1.4-2.48a14.15,14.15,0,0,0-2.16,0,2.34,2.34,0,0,1-2.55-1.6c-.89-1.89-2.18-3.59-4.54-3.9a7.4,7.4,0,0,0-.85-1.74c-1.4-1.64-2.83-3.26-4.36-4.77a4.47,4.47,0,0,1-1.56-3.84,8.9,8.9,0,0,0-1-5.13,5.41,5.41,0,0,1-.7-1.82,7.89,7.89,0,0,1,.07-2.83,17.06,17.06,0,0,1,1.38-3,5.3,5.3,0,0,0-.57-5.89c-1.44-1.94-2.77-4-4.1-6a2.82,2.82,0,0,1-.49-1.6c.16-1.95-.11-2.72-1.86-3.59-2.05-1-4.18-1.86-6.26-2.8a9.14,9.14,0,0,0-6.33-.27c-2.7.71-4.48,2.67-6.17,4.66-1.13,1.35-1.19,3.15-1.1,4.87.07,1.3.19,2.6.38,3.89a50.84,50.84,0,0,0,1.2,7.1,55.29,55.29,0,0,1,1.94,10.94h0a5.14,5.14,0,0,1-.78-1c-.49-1.06-.81-2.22-1.38-3.23a27.63,27.63,0,0,1-3-9.23,9.91,9.91,0,0,0-.32-1.33,21.75,21.75,0,0,1-1.24-8.83c.19-.26.5-.49.55-.78.37-2.27,1.9-3.77,3.41-5.31,1.19-1.2,2.28-2.5,3.42-3.74a2.33,2.33,0,0,0,.38-3c1.21-.49,2.41-1,3.62-1.46a3.27,3.27,0,0,1,2.84.22c1.55.84,3.07,1.74,4.64,2.54a21.68,21.68,0,0,0,3.22,1.35c2.92.95,5.89,1.74,8.17,4a7.68,7.68,0,0,0,2,1c-.46-1.82-1.62-2.49-2.56-3.26s-2.1-1.32-3.12-2a17.21,17.21,0,0,1-1.43-1.28,11,11,0,0,1,2.87-.3c2.37.41,4.7,1,7,1.57l.38.31,0,0c0,.2-.07.43,0,.58,1.4,2.59,2.72,5.23,4.25,7.73a4,4,0,0,0,3.94,2,37.21,37.21,0,0,0,6.75-1.05c1.84-.43,3.67-.92,5.58-.22a3.23,3.23,0,0,1,2.22,3.48,67.88,67.88,0,0,1-1.62,7.25,18.85,18.85,0,0,0,.28,11.18,25.61,25.61,0,0,0,4,8.24,18.21,18.21,0,0,1,1.57,2.71c1.34,2.62,2.66,5.24,3.94,7.89a18.06,18.06,0,0,1,2,4.67,8.43,8.43,0,0,0,2.63,4.46,45.79,45.79,0,0,0,4,3.7,23.52,23.52,0,0,0,3.24,2.5c1.62,1,3.42,1.63,5.05,2.58a12.21,12.21,0,0,0,6,1.62,4.55,4.55,0,0,1,2,.63,8.76,8.76,0,0,1,3.74,4.34c1.56,3.46,2.53,6.86,1.12,10.59a3.85,3.85,0,0,0,0,1.55c.06.77.2,1.54.24,2.32a14.66,14.66,0,0,0,.15,3.33,7.48,7.48,0,0,1-.36,4.4c-.21.69-.59,1.33-.78,2a1.87,1.87,0,0,1-2,1.5c-1.94,0-3.76.07-5.56-1.24s-3.57-2.61-4.56-4.69c-.39-.83-.61-1.74-1.05-2.53-.92-1.66-1.92-3.32-3.74-4.13a4.86,4.86,0,0,0-5.63,1,5.33,5.33,0,0,0-1,5.71c.88,2.31,2.07,4.52,3.14,6.76.81,1.71,1.57,3.45,2.48,5.1a15.23,15.23,0,0,0,2.58,3.86,20,20,0,0,0,4.71,3.15c2.61,1.32,5.39,2.28,8,3.57,3.73,1.85,7.75,2.94,11.47,4.92a22.59,22.59,0,0,1,9.17,8.54c1.63,2.79,3.62,5.26,5.46,7.87,2.37,3.36,5.53,5,9.6,4a18.62,18.62,0,0,1,5.76-.19,38.74,38.74,0,0,1,5.12,1.12c2.17.45,4.36.78,6.51,1.29a10.36,10.36,0,0,0,5.79-.17c.93-.3,1.91-.44,2.85-.69q2-.53,3.93-1.11a20.17,20.17,0,0,1,3.89-1.18,14,14,0,0,1,6.12.8,4,4,0,0,1-.45,1.26c-3.59,4.05-7.71,7.25-13.25,8.17-3.79.62-7.55,1.51-11.36,1.85a42.67,42.67,0,0,1-21.06-3.43,128.54,128.54,0,0,1-25.65-14.3c-3.88-2.86-7.83-5.61-11.46-8.83-3.42-3-7.15-5.68-10.71-8.54a50.53,50.53,0,0,1-4.11-3.63c-3-3.07-6-6.23-9-9.33-.77-.79-1.61-1.52-2.42-2.28.7-.51.44-1.2.21-1.78a36.32,36.32,0,0,0-2-4.45c-2-3.51-4.17-6.94-6.21-10.44-.75-1.29-1.23-2.75-2-4s-1.29-2.92-3.07-3.32l-1-1.75a3.94,3.94,0,0,0-.65,3,51.9,51.9,0,0,0,4.58,12.9,33.18,33.18,0,0,0,3.87,5.64c2.29,2.76,4.7,5.44,7.2,8,3.45,3.58,6.94,7.12,10.56,10.51,2.24,2.09,4.77,3.86,7.14,5.8,1.32,1.07,2.57,2.22,3.87,3.32,3.25,2.73,6.49,5.46,9.76,8.17a31,31,0,0,0,2.57,1.79c3.31,2.23,6.57,4.53,9.95,6.64a98.08,98.08,0,0,0,8.88,5,105.62,105.62,0,0,0,11.48,5,47.38,47.38,0,0,0,14,2.73c1.47,0,2.93.12,4.56.2a2.74,2.74,0,0,1,.14,1.18c-1,3-1.61,6.07-3.45,8.71a3.89,3.89,0,0,0-3.91,2.37,9.11,9.11,0,0,1-.68.95c-3.34,5.06-6.89,10-9,15.78-.82,2.29-1.66,4.65-3.65,6.39a19.54,19.54,0,0,1-4.28,2.7,3.36,3.36,0,0,0-1.76,4.39,18,18,0,0,1,1.25,5.49c0,.83,0,2.1,1.45,2.16a43.89,43.89,0,0,0-1.76,5c-.61,2.65.2,3.53,2.2,4.32.49.2,1,.36,1.46.56s.94.42,1.72.78a7.92,7.92,0,0,1-1.47.42c-1,.06-2.09.06-3.14,0a2.17,2.17,0,0,1-2.39-1.87,28,28,0,0,1-.85-5.78,16.87,16.87,0,0,0-3.25-10.27c-3.31-4.61-6.72-9.16-10.12-13.69q-3.18-4.23-6.5-8.33c-1.85-2.28-3.76-4.52-5.76-6.67-3.49-3.72-7-7.43-10.64-11-4.25-4.17-8.72-8.1-13-12.28-2.17-2.15-4-4.64-6-7-.47-.55-.94-1.09-1.46-1.59-4.92-4.8-9.82-9.62-14.78-14.37a59.32,59.32,0,0,1-6.47-8.11c-2.31-3.16-4.55-6.37-6.81-9.57a11.33,11.33,0,0,1-.75-1.37c0-2.48,0-5,0-7.44a9.27,9.27,0,0,0-.17-1.75q-1.87-10.15-3.79-20.31a2.19,2.19,0,0,1-.28-.71c.08-3,.23-6,.25-9C144.6,309.48,144.36,308.12,144.23,306.77Zm15.53-16.72.54.11c.15-.44.48-.92.42-1.32-.3-1.78-.39-3.66-1.67-5.11-1.1-1.24-2.28-2.41-3.42-3.62l-.4.2a10.53,10.53,0,0,0,.56,1.86,4.64,4.64,0,0,0,1.16,1.31,8,8,0,0,1,2.63,5.48C159.62,289.33,159.7,289.69,159.76,290.05Z" style="fill:#9a4914"/><path d="M288,386.75a14,14,0,0,0-6.12-.8,20.17,20.17,0,0,0-3.89,1.18q-2,.58-3.93,1.11c-.94.25-1.92.39-2.85.69a10.36,10.36,0,0,1-5.79.17c-2.15-.51-4.34-.84-6.51-1.29a38.74,38.74,0,0,0-5.12-1.12,18.62,18.62,0,0,0-5.76.19c-4.07,1-7.23-.64-9.6-4-1.84-2.61-3.83-5.08-5.46-7.87a22.59,22.59,0,0,0-9.17-8.54c-3.72-2-7.74-3.07-11.47-4.92-2.62-1.29-5.4-2.25-8-3.57a20,20,0,0,1-4.71-3.15A15.23,15.23,0,0,1,197,351c-.91-1.65-1.67-3.39-2.48-5.1-1.07-2.24-2.26-4.45-3.14-6.76a5.33,5.33,0,0,1,1-5.71,4.86,4.86,0,0,1,5.63-1c1.82.81,2.82,2.47,3.74,4.13.44.79.66,1.7,1.05,2.53,1,2.08,2.73,3.36,4.56,4.69s3.62,1.25,5.56,1.24a1.87,1.87,0,0,0,2-1.5c.19-.69.57-1.33.78-2a7.48,7.48,0,0,0,.36-4.4,14.66,14.66,0,0,1-.15-3.33c0-.78-.18-1.55-.24-2.32a3.85,3.85,0,0,1,0-1.55c1.41-3.73.44-7.13-1.12-10.59a8.76,8.76,0,0,0-3.74-4.34,4.55,4.55,0,0,0-2-.63,12.21,12.21,0,0,1-6-1.62c-1.63-.95-3.43-1.62-5.05-2.58a23.52,23.52,0,0,1-3.24-2.5,45.79,45.79,0,0,1-4-3.7,8.43,8.43,0,0,1-2.63-4.46,18.06,18.06,0,0,0-2-4.67c-1.28-2.65-2.6-5.27-3.94-7.89a18.21,18.21,0,0,0-1.57-2.71,25.61,25.61,0,0,1-4-8.24,18.85,18.85,0,0,1-.28-11.18,67.88,67.88,0,0,0,1.62-7.25A3.23,3.23,0,0,0,175.4,254c-1.91-.7-3.74-.21-5.58.22a37.21,37.21,0,0,1-6.75,1.05,4,4,0,0,1-3.94-2c-1.53-2.5-2.85-5.14-4.25-7.73-.08-.15,0-.38,0-.58a17.91,17.91,0,0,1,2,.61,13.11,13.11,0,0,0,5.73,1.07,4.06,4.06,0,0,0,4-2.9,47.87,47.87,0,0,0,2.06-8.76,21.57,21.57,0,0,1,3-8.84,10.87,10.87,0,0,0,1.41-3.65C174,218.64,176,215.34,178,212c.55-.89,1.11-1.78,1.73-2.62,3.51-4.71,5.22-10.25,7-15.7a26.18,26.18,0,0,0,1.11-6.35,66,66,0,0,1,3.25-16.31,106.2,106.2,0,0,1,4.24-10.78,31.83,31.83,0,0,1,4.17-6.4,85.26,85.26,0,0,1,6.41-6.9,12.86,12.86,0,0,1,2.79-1.66c-.89,1.44-1.71,2.91-2.66,4.3a15.41,15.41,0,0,0-1.93,5.71c-.57,2.73-1.23,5.47-1.54,8.24-.54,4.85.64,9.11,4.88,12.07,1.82,1.26,3.77,2.38,5.46,3.79a65.13,65.13,0,0,1,4.85,4.84,15.69,15.69,0,0,1,1.37,1.66c1.63,2.22,1.55,4.79,1.38,7.35,0,.34-.38.67-.6,1-2.37,3.28-4.86,6.49-7.08,9.86-2.36,3.61-4.47,7.38-6.71,11.07-.44.72-.91,1.43-1.41,2.11-1.58,2.16-3.24,4.26-4.74,6.47a7.72,7.72,0,0,0-.66,2.39c-.23.69-1,1.24-.56,2.16,1.73.46,3.34-.06,5-.53l8.61-2.42a5.8,5.8,0,0,1-.41.87,13.71,13.71,0,0,0-2.79,9.56c.12,1.36,0,2.74,0,4.12-.73.4-1.46.84-2.21,1.21-1.94.94-3.91,1.82-5.85,2.77a6.84,6.84,0,0,0-1.19,1c1.57.93,2.24-.42,3.19-.73s2-.81,3-1.21c.91,1.73.93,1.74,2.44,1.17.3-.11.6-.24.9-.36l.49.24c-1.14.56-2.28,1.14-3.43,1.68-.73.34-1.13.8-.9,1.64-1.18.33-2.36.6-3.51,1-2.36.8-4.64,1.86-7,2.44-4.37,1-6.7,4.26-8.92,7.7a1.32,1.32,0,0,0-.18.55c-.19,3.23-.1,6.45,1.47,9.37s3.34,5.61,5,8.42c1.06,1.79,2.18,3.56,3.07,5.43,1.7,3.6,3,7.39,4.95,10.88a13.08,13.08,0,0,0,7.63,6.68c2.42.75,4.77,1.77,7.16,2.63a5.6,5.6,0,0,0,1.71.39,38.32,38.32,0,0,0,8-.54c2.88-.5,5.8-.77,8.72-1a5.85,5.85,0,0,1,4.24,1.7c2.77,2.34,4.16,5.49,5.5,8.69.65,1.56,1.53,3.12,1.14,4.89-.5,2.28-1.07,4.56-1.77,6.79-.84,2.68-1.89,5.29-2.73,8-.18.54.13,1.24.22,1.86a21.15,21.15,0,0,1-7.08,2.33c-1.39-1.25-1.55-2.15-.59-3.48.27-.37.67-.65.91-1a6.37,6.37,0,0,0,.46-1.23c-1.7-.42-3,.44-4.41.51a10.81,10.81,0,0,0-5.23,2,3.68,3.68,0,0,0-.85,5.92,55.45,55.45,0,0,0,4.79,4,8.6,8.6,0,0,0,2.14.84c.73.51,1.5,1,2.19,1.55,1.27,1,2.54,2.05,3.74,3.16a31.36,31.36,0,0,0,7.57,4.87c3.69,1.83,7.33,4,11.24,5.1a74.2,74.2,0,0,0,13.31,2.16c5.81.59,11.44-.73,17-2.36a14.85,14.85,0,0,0,2.68-1.18c3.79-2,6.31-5.23,8.34-8.87a37.69,37.69,0,0,0,1.91-4.3c.23-.56.29-1.2-.62-1.3l.36-1.61a4.2,4.2,0,0,0,1.93-2.35,30.51,30.51,0,0,0,4.62-7.24,6.82,6.82,0,0,0,.48-4.9c-.26-.87-.47-1.77-.77-2.63a77.58,77.58,0,0,0-3.19-8.81c-1.66-3.37-2.59-7-3.83-10.45-.3-.85-.54-1.72-.81-2.59.91-1.54,1.58-3.11,1-5a18.85,18.85,0,0,0-3.77-6.5c-.25-.3-.79-.37-1.19-.54-.14-.86-.24-1.73-.41-2.59-.39-2-.22-4.17-2.28-5.45a9.91,9.91,0,0,1-1.45-1.75c-1.43-2.8-2.78-5.65-4.11-8.5a23.61,23.61,0,0,1-.81-2.37h0a3,3,0,0,1,3.23,1.66,11.17,11.17,0,0,0,1.89,2.23c2.3,2.24,3,5.46,4.91,7.93a37,37,0,0,1,4.61,7.89,21.44,21.44,0,0,0,4.4,6.67,25,25,0,0,1,2.24,3.17,30.46,30.46,0,0,0,2,2.61c1.61,1.79,3.24,3.57,4.94,5.29a17,17,0,0,0,2.72,2.21c2.74,1.78,6,1.5,8.92-.68.36-.27.74-.51,1.11-.76-.63,1.85-1.23,3.72-1.87,5.56a115.27,115.27,0,0,1-6.57,16.17c-3.4,6.44-5.94,13.23-8.63,20-1.46,3.64-3.14,7.19-4.72,10.79-1.34,3.05-2.6,6.14-4,9.15-1.13,2.36-2.47,4.62-3.69,6.93-.85,1.63-1.66,3.27-2.46,4.91A20.26,20.26,0,0,1,288,386.75Zm-18.56-23.57,0,.3a22.23,22.23,0,0,0-4.32,0,43.94,43.94,0,0,1-8.56.74A6.45,6.45,0,0,0,252,366.1c-1.62,1.5-1.49,3.32.19,4.71a9.73,9.73,0,0,1,1.62,1.65A21.21,21.21,0,0,0,265.43,380c1.42.39,3,.19,4.45.51a29.56,29.56,0,0,0,10.23.71,6.21,6.21,0,0,0,4.21-2.2c1.81-2.14,3.67-4.25,5.3-6.52a7.77,7.77,0,0,0,1.83-5.24,2.27,2.27,0,0,0-2.26-2.22c-1.11-.05-2.23-.06-3.34,0a43.79,43.79,0,0,1-9.14-.82C274.28,363.84,271.83,363.52,269.39,363.18Z" style="fill:#b26e3a"/><path d="M203.69,92.32a15.48,15.48,0,0,0-.6-1.52c-.35-.7-.82-1.35-1.15-2a2.21,2.21,0,0,1,.41-2.87l.13-.15c1.2-1.3,2.18-3,3.65-3.78s3.3-.52,5-.75a5.94,5.94,0,0,0,1.52-.38,4.45,4.45,0,0,1,3.25.05,4.46,4.46,0,0,0,2.28.37,8.16,8.16,0,0,0,3.11-1.49c.45-.38.38-1.41.53-2.14a1.7,1.7,0,0,0,0-.39c0-3.26.95-4.63,4-5.65a1.89,1.89,0,0,1,1.44.15c2.56,1.7,5.07,3.48,7.59,5.23a5.61,5.61,0,0,1,2.82,4.47c0,.84.46,1.66.49,2.49a8.65,8.65,0,0,1-.24,3.46,12.14,12.14,0,0,0-1.11,5.32,4,4,0,0,1-.21,1c-3.15.33-6.17.61-8.67-1.91a22.27,22.27,0,0,0-3.22-2.57c-1.06-.73-2-.35-2.11.9a10.88,10.88,0,0,0,.22,3.11,5.12,5.12,0,0,1-.62,4.3,12.13,12.13,0,0,1-1.53-1c-1-1-2-2-3-3.08a2.59,2.59,0,0,0-2.34-1c2.17,4,5.94,6.85,7,11.29a2.69,2.69,0,0,1-2.92-.09c-2.1-1.19-4.17-2.45-6.23-3.71-.84-.51-1.58-1.18-2.43-1.66a7.41,7.41,0,0,0-1.72-.48l-.29.39c.37.64.7,1.31,1.11,1.93.91,1.36,1.9,2.66,2.76,4a9.39,9.39,0,0,1,.69,2.06,2.09,2.09,0,0,1-2.15-.52c-2.34-1.57-4.68-3.12-7-4.76a42.34,42.34,0,0,1-8.95-9,1.54,1.54,0,0,1-.07-2.13c.57-.71,1.3-1.28,2.2-.84,1.52.74,3,1.62,4.42,2.49a14,14,0,0,1,1.48,1.19Z" style="fill:#a48450"/><path d="M318.56,115l-1.33.21c-1.79.38-2.36,0-2.49-1.9a5.14,5.14,0,0,0-.07-1.37,1.62,1.62,0,0,0-.84-.9c-.22-.08-.75.27-.9.56-.54,1-1,2.13-1.47,3.21a7.34,7.34,0,0,1-3.48-7.71c.82-3.36,1.88-6.66,2.86-10,.46-1.57,1-3.1,1.47-4.67.25-.91.78-1.27,1.83-1.36.43,2.24.85,4.43,1.26,6.62l.48.08,2-3.35a48.35,48.35,0,0,1,2.68,11.13c1.87-.55,1.58-2.84,3.44-3.46a6.58,6.58,0,0,1,.48,1.74c0,1-.25,2.09-.23,3.12,0,.59.25,1.48.65,1.68a1.88,1.88,0,0,0,1.73-.45,9.38,9.38,0,0,0,1.78-3.41,62.86,62.86,0,0,0,1.54-14.61,18.34,18.34,0,0,0,0-2c-.34-2.56,1.27-3.83,3.17-4.91a2,2,0,0,1,2.69.34,29.07,29.07,0,0,1,3,3.83,51.1,51.1,0,0,1,2.74,5.43,6.31,6.31,0,0,1,.49,2.66c-1.28-1.36-2.55-2.75-3.86-4.09a6.55,6.55,0,0,0-1.54-1.19c-1-.55-1.93,0-1.77,1.15.58,3.88,1.23,7.74,1.91,11.61a6.25,6.25,0,0,0,.88,1.57c1.75-1.87.87-4.27,1.9-6a1.08,1.08,0,0,1,1.08,1.25c0,.91-.14,1.82-.23,2.73s-.39,2.08.52,3.16c1.62-1.15.93-3.39,2.4-4.79.69,2.71,1.14,5.19.29,7.79a44.22,44.22,0,0,0-1.39,4.91c-.44,2.08-1.84,3.17-3.73,4.22a25.47,25.47,0,0,0-.64-3.74c-.66-2-1.47-3.91-2.31-5.83a1.86,1.86,0,0,0-1.92-1.12c-.91.06-1.08.77-1.4,1.42a25.67,25.67,0,0,1-2.07,3.79,7.59,7.59,0,0,1-2.52,2.4,37.13,37.13,0,0,0-6.1,4.28c-.57.45-1.44,1-2,.87-.89-.23-.53-1.33-.63-2.08S318.69,116.09,318.56,115Z" style="fill:#a3824f"/><path d="M290.45,98.34c-.65-2.57,1-5.09-.12-7.81-.55.36-1,.68-1.46,1a5.07,5.07,0,0,1-1.53.79c-1.43.3-2.08-.27-2.11-1.74,0-.84.06-1.69,0-2.52,0-.3-.41-.79-.66-.8a1.38,1.38,0,0,0-1.14.45,23.32,23.32,0,0,0-1,3c-.3,1-.57,2.11-.95,3.55-.73-.65-1.18-1.07-1.64-1.47-3-2.56-3.71-5.88-3.28-9.6.12-1,.23-2.08.34-3.12.21-2,.54-2.3,2.57-1.91a1.2,1.2,0,0,0,.44-.11c.48-1.1-.31-2-.67-2.89-1.13-2.87-2.39-5.68-3.4-8.58a19.08,19.08,0,0,1-1-6.91,23.26,23.26,0,0,1,2,1.21,20.43,20.43,0,0,1,7.46,11.91c.28,1.28.52,2.56.78,3.85.15.75.45,1.36,1.41,1.48,1.3-1.46.51-3.69,1.82-5.3a5.63,5.63,0,0,1,1.25.35,19.71,19.71,0,0,1,7.24,6.2c.93,1.35,1.79,2.75,2.72,4.1a2.82,2.82,0,0,1,.37,2.79c-.82,2-1.64,4-2.54,6a3.16,3.16,0,0,1-2.32,2,3,3,0,0,0-2.47,2.45A2.16,2.16,0,0,1,290.45,98.34Z" style="fill:#a48350"/><path d="M134.64,145a11.1,11.1,0,0,0-.95-.85c-1.33-.95-1.39-2.07-.93-3.6.79-2.62,1.33-5.32,1.88-8,1.31-6.36,4.35-11.86,8.18-17a56.78,56.78,0,0,1,8.52-8.94c2.16-1.88,4.48-3.15,7.45-2.91a6.88,6.88,0,0,0,4.58-1.47,4.37,4.37,0,0,1,2.86-1.27c-.14,1.42-.22,2.75-.4,4.06-.64,4.55-.64,4.56-3.89,8-1.71,1.81-3.45,3.58-5.22,5.33a4.58,4.58,0,0,1-4.7,1.23c-.68-.19-1.36-.35-2.23-.57-.4,1-.71,2-1.14,3-.83,1.85-1.72,3.68-2.61,5.5a3.74,3.74,0,0,1-.69.94c-.77.73-1.43.64-1.83-.37-.5-1.27-.81-2.61-1.26-3.91a1.76,1.76,0,0,0-.73-1c-.19-.1-.7.25-.94.51a4.44,4.44,0,0,0-.84,1.31,34.27,34.27,0,0,0-2.55,12c0,1.44,0,2.89,0,4.33A3.53,3.53,0,0,1,134.64,145Z" style="fill:#a48350"/><path d="M219,114.65a23.66,23.66,0,0,1-2.56.8c-1.15.22-2.34.28-3.5.41-1.56.18-1.63.26-1.67,1.79,0,.59,0,1.18,0,1.77a2.6,2.6,0,0,1-1.18,2.26,10.77,10.77,0,0,1-1.36-.55,62.41,62.41,0,0,1-16.9-13.91,5.06,5.06,0,0,1-.92-1.5c-.78-2.15-1.44-4.34-2.27-6.47a2.06,2.06,0,0,1,.51-2.48,9.38,9.38,0,0,0,.82-.85,2.12,2.12,0,0,1,2.77-.53c4.09,1.58,7.51,4.24,11.08,6.66,1.35.92,2.66,1.91,4,2.78a38.08,38.08,0,0,1,8.36,6.77,28.13,28.13,0,0,0,2.91,2.52Z" style="fill:#a48450"/><path d="M264,92.68l-1.67-2.55a31.84,31.84,0,0,1-1.39,2.9c-.94,1.51-1.71,1.58-2.92.27a9.9,9.9,0,0,1-2.88-5.46c-.55-4.34-1.41-8.66-1.68-13-.18-2.77.44-5.59.79-8.38a26.24,26.24,0,0,1,.88-4.21c.18-.63.71-1.47,1.21-1.58a2.27,2.27,0,0,1,1.76.94c2.26,3.13,4.54,6.27,6.56,9.55a13.82,13.82,0,0,1,1.5,4.64,54.11,54.11,0,0,1,.95,11.92A5.27,5.27,0,0,1,264,92.68Z" style="fill:#a48450"/><path d="M247.38,88.38c-.46,2.36.56,4.69-.56,7.28A14.18,14.18,0,0,1,245.13,94c-1.57-2.09-3.14-4.19-4.61-6.36a6.59,6.59,0,0,1-1-2.5c-.31-1.86-.4-3.76-.7-5.63a2.08,2.08,0,0,1,.78-2.24,7.29,7.29,0,0,0,1.14-1.08c1.42-1.82,2.82-3.59,1.92-6.21a12.82,12.82,0,0,1-.49-3.68,3.35,3.35,0,0,1,.48-1.83c.83-1.29,1.9-1.37,2.85-.15,2.29,3,4.4,6,5.37,9.73a63.91,63.91,0,0,1,2.41,20.36c0,.55-.14,1.1-.26,2a19.3,19.3,0,0,1-3.24-4C248.88,91.16,248.81,89.39,247.38,88.38Z" style="fill:#a48350"/><path d="M333.54,151.52c-.7.76-1.36,1.57-2.12,2.26a4.36,4.36,0,0,1-1.36.55,4.47,4.47,0,0,1-.46-1.36,3.89,3.89,0,0,1,.33-1.52c2.83-7.12,6.08-14,9.47-20.91.28-.57.63-1.1,1.08-1.87a7.49,7.49,0,0,1,.82,5.32c-.65,4.33-1.49,8.63-2.06,13a12.35,12.35,0,0,0,.4,4.26c.81,3.5,1.73,7,2.69,10.43a34.5,34.5,0,0,1,1.51,9.46c0,2.88,0,5.77-.08,8.65a24.23,24.23,0,0,1-.38,2.59c-.33-.46-.54-.63-.59-.83-.77-2.78-1.42-5.58-2.29-8.32A42.24,42.24,0,0,0,338,167a7.82,7.82,0,0,1-.47-6.62c.45-1.21.42-1.23-.18-2.46l-1.27,1.74c-.51.68-1,1.46-2,1.13a2.79,2.79,0,0,1-1.76-2.57,15.86,15.86,0,0,1,.48-1.89C333.17,154.79,334.07,153.34,333.54,151.52Z" style="fill:#a3824f"/><path d="M204.44,122.73c-1.5.88-3,1.83-4.53,2.64a3,3,0,0,1-1.68.06,17.38,17.38,0,0,1-6.94-3.06,23.71,23.71,0,0,1-8.59-11.2,3.74,3.74,0,0,1-.2-2.28,7,7,0,0,0,0-4,4.33,4.33,0,0,1,0-1.76c.2-1.46,1-1.74,2.15-.82.42.32.73.76,1.12,1.1.87.77,1.76,1.51,2.64,2.27.44.38.92.73,1.33,1.15,1.8,1.9,3.51,3.9,5.4,5.71a77.82,77.82,0,0,0,6.08,5.25A7.56,7.56,0,0,1,204.44,122.73Z" style="fill:#a48350"/><path d="M311.43,68.23a4.1,4.1,0,0,1-2.8-1.76,5.21,5.21,0,0,0-1.48-1.55c-2.47-1.61-5-3.16-7.5-4.68a4.46,4.46,0,0,0-1.43-.21,5.61,5.61,0,0,0,3.59,4.26,21.17,21.17,0,0,1,7.41,5.38c1.27,1.37,1.35,2.14.44,4.06a17.35,17.35,0,0,1-7.54-5.3c-.33.91-.61,1.53-.77,2.17a1.89,1.89,0,0,1-1.54,1.58,2,2,0,0,1-2-.93,3.65,3.65,0,0,1-.53-.83c-1.59-4-3.78-7.79-4.44-12.12a15.53,15.53,0,0,1-.2-2.54c0-1.39.47-1.9,1.8-1.61a28.89,28.89,0,0,1,5.4,1.68,22.1,22.1,0,0,0,5.53,1.91,4.17,4.17,0,0,1,2.3,1.3c1.33,1.53,2.5,3.2,3.68,4.85A3.92,3.92,0,0,1,311.43,68.23Z" style="fill:#a3824f"/><path d="M310.44,90.22a3.92,3.92,0,0,1,.38,4.11c-1,2.69-2.13,5.35-3.18,8-.34.86-.61,1.73-.92,2.6a3.68,3.68,0,0,1-2.05,2.25c-1.75.76-2.35.59-3.41-1a12.13,12.13,0,0,1-2-9.68A107.55,107.55,0,0,1,302.71,83c.15-.42.33-.82.61-1.51a6,6,0,0,1,1.43,1.06c1.26,1.84,2.42,3.74,2.44,6.09a2.7,2.7,0,0,0,1.16,2.49Z" style="fill:#a48350"/><path d="M174.43,110.25c1.32,1.15,2.69,2.25,3.94,3.48,1.82,1.78,3.53,3.69,5.33,5.49,3.17,3.15,6.46,6.14,10.8,7.65a10.77,10.77,0,0,1,1.61.91,8.76,8.76,0,0,1-4.22,1.49c-.39.08-.8,0-1.18.09-5.69,1.42-9.61-1.87-13.45-5.17-1.64-1.41-2.11-3.6-2.6-5.63a61.68,61.68,0,0,1-1.1-6.36,6,6,0,0,1,.3-1.79Z" style="fill:#a3824f"/><path d="M270,93.34a12.23,12.23,0,0,1-2.15-7.2,58.81,58.81,0,0,0-1-12.7c-.41-2.2,1-3.77,2.22-5.56a8.75,8.75,0,0,1,4.61,6.19c.53,2.76.79,5.57,1.32,8.32a13.69,13.69,0,0,1-.14,5.84,4.24,4.24,0,0,1-2.57,3.23A10.61,10.61,0,0,0,270,93.34Z" style="fill:#a3824f"/><path d="M145.4,182.28a14.35,14.35,0,0,1-1.88-.95,34.89,34.89,0,0,1-10.7-12.83c-.48-.95-.81-1.93.23-2.95,2.46,2.27,4.54,4.94,7.7,6.23.68-.78.27-1.31-.14-1.82-1.69-2.11-2.23-4.7-3.05-7.18a6.36,6.36,0,0,1-.1-1.39,3.84,3.84,0,0,1,1.59,1.71c1.56,2.49,3.1,5,4.64,7.5a2.91,2.91,0,0,1,.52,1C144.62,175,145,178.45,145.4,182.28Z" style="fill:#a3824f"/><path d="M167.56,117.32c1.86,1.89,3.55,3.41,5,5.13a59.28,59.28,0,0,0,6.42,6.84,4.58,4.58,0,0,1,1.33,2.09c.4,1.33-.3,2.17-1.72,2.14a9.5,9.5,0,0,1-4.83-1.39,11.13,11.13,0,0,1-4.42-4.86A20.25,20.25,0,0,1,167.56,117.32Z" style="fill:#a3824f"/><path d="M164.83,169.6c-5.23-4.66-7.64-10.37-8.44-17.3,3.46,2.16,6.33,4.35,8.25,7.58a5.75,5.75,0,0,1,.86,3.75Q165.17,166.62,164.83,169.6Z" style="fill:#a3824f"/><path d="M144.4,218.35c1.6,3.26,4.06,5.86,3.78,9.66-.08,1.15.29,2.33.32,3.5,0,.51-.17,1.29-.52,1.48s-1.06-.11-1.61-.21a.33.33,0,0,1-.15-.12c-2.48-3.21-4.65-6.55-3.94-10.89A5.29,5.29,0,0,1,144.4,218.35Z" style="fill:#a3824f"/><path d="M140.14,223.87c.35,1.56.68,3.13,1,4.69.13.58.32,1.13.47,1.7a5.78,5.78,0,0,0,3.51,4.39,2.49,2.49,0,0,1,.83,3.16,1.08,1.08,0,0,1-.66.36c-2.54.39-6.45-2-7.32-4.62a8.34,8.34,0,0,1-.38-3.06,17.38,17.38,0,0,1,2.1-6.64Z" style="fill:#a3824f"/><path d="M156.31,165.23c-2.13-1.9-4.36-3.59-5.49-6.29-1.33-3.19-2.79-6.32-4.32-9.75a6,6,0,0,1,3.81,2.13l3.66,4.85a2.48,2.48,0,0,1,.33.49A34,34,0,0,1,156.31,165.23Z" style="fill:#a3824f"/><path d="M330.62,212.51a9,9,0,0,1,1.28-6.92,94.46,94.46,0,0,1,9-12.88c.06-.08.21-.08.58-.21-2.57,6.87-6.37,12.91-9.73,19.17C331.56,212,331.16,212.11,330.62,212.51Z" style="fill:#a3824f"/><path d="M151.93,223.6c-1.72-2.2-3.23-4.33-5-6.28-1.95-2.2-1.43-4.67-1.19-7.2,1.89,3.34,5,5.89,6,9.73A6.24,6.24,0,0,1,151.93,223.6Z" style="fill:#a3824f"/><path d="M173.22,167.43c-1-2.89-1.91-5.63-2.9-8.57a8.86,8.86,0,0,1,4.85,3.25C176.88,164.46,176.34,166,173.22,167.43Z" style="fill:#a3824f"/><path d="M151.25,206.37l3.59,5.09-1.42,2.88a16.78,16.78,0,0,1-4-5.91C149.1,207.65,149.48,207.27,151.25,206.37Z" style="fill:#a3824f"/><path d="M209.23,144.69l-.52.65Z" style="fill:#b26e3a"/><path d="M209.6,144.28c-.11.12-.22.25-.34.37C209.38,144.53,209.49,144.41,209.6,144.28Z" style="fill:#b26e3a"/><path d="M210,143.87l-.34.38Z" style="fill:#b26e3a"/><path d="M154.89,245l-.38-.31Z" style="fill:#b26e3a"/><path d="M144.33,345a6.41,6.41,0,0,0,.55,1.8c2.61,3.92,5.27,7.8,7.93,11.68,1,1.51,2.07,3,3.19,4.48,1.77,2.27,3.51,4.59,5.44,6.71,2.47,2.69,5.09,5.25,7.71,7.8,1.82,1.77,3.85,3.34,5.59,5.18,3.25,3.41,6.32,7,9.52,10.44,1.24,1.34,2.67,2.52,3.9,3.86a90.3,90.3,0,0,0,9.2,8.51c1.8,1.49,3.2,3.47,5,5,3.22,2.73,5.74,6.08,8.43,9.28,3.79,4.51,7.39,9.19,11,13.85,2.52,3.25,5,6.55,7.33,9.92a20.24,20.24,0,0,1,3.39,12.67,39.55,39.55,0,0,0,.31,6.25c.26,2.06,1.13,2.7,3.24,2.53s4.26-.54,6.55-.84c1.27,3,3.7,4.72,6.43,6.3a10.49,10.49,0,0,1-3.93,3.95,19.42,19.42,0,0,0-7.67,7.89c-1.77,3.12-3.89,6.05-6,9.35-.66-1-1.23-1.65-1.65-2.42a197,197,0,0,0-10.62-18.36,126.74,126.74,0,0,1-8.93-15.66c-1.26-2.58-2.87-5-4.22-7.53-1-2-1.93-4-2.87-6a12.94,12.94,0,0,0-.72-1.61,141.3,141.3,0,0,1-8.25-15.39,16.88,16.88,0,0,0-1.64-2.42c-.27-.37-.61-.68-.88-1.05-2.46-3.39-4.88-6.81-7.37-10.18-3.37-4.57-6.79-9.1-10.19-13.66-.39-.52-.77-1.06-1.12-1.61-4.58-7.33-9.19-14.64-13.73-22-1.31-2.11-2.37-4.37-3.64-6.5a27.89,27.89,0,0,0-2.21-3c-2.52-3.18-5.08-6.33-7.57-9.53s-3.42-6.88-3.85-10.78c-.12-1-.23-2.08-.31-3.13a4.48,4.48,0,0,1,.67-3.36C143,340,143.65,342.49,144.33,345Z" style="fill:#f9f5e2"/><path d="M286.55,494.11c-.65-.61-1.34-1.21-2-1.86q-8.52-8.73-17-17.48c-.32-.33-.65-.65-.95-1-1.22-1.42-1.27-1.95-.1-3.38a4.7,4.7,0,0,0,.74-5.15c-.78-1.82-1.66-3.58-3.78-4.26a1.89,1.89,0,0,1-.88-1c-.61-1.3-1.13-2.63-1.67-3.9,1.64-2.19,2.46-2.48,4.67-1.22a54,54,0,0,1,4.84,3.33c.81.59,1.54,1.3,2.31,1.95l.33-.27a3.27,3.27,0,0,0-.35-1c-2.05-2.77-4.92-4.5-7.93-6a3.44,3.44,0,0,0-3.86.69,5.14,5.14,0,0,1-3.14,1.36,9.52,9.52,0,0,0-2.66,1.19,30.62,30.62,0,0,1-3-1.29c-2.2-1.2-2.84-2.57-2.3-5,.65-3,1.42-6,2.13-9,1.24-5.28,2.41-10.58,3.74-15.84,1.07-4.24,1.83-8.59,3.67-12.6a36.56,36.56,0,0,1,2.55-4.41c.51-.8,1.19-.75,1.65.08a9.38,9.38,0,0,1,.77,2c1.45,5.44,2.95,10.86,4.28,16.33A96.57,96.57,0,0,0,272.69,440c1.58,3.93,4,7.36,6.33,10.84,1.53,2.28,3.3,4.41,4.81,6.71a20.49,20.49,0,0,1,2.34,4.5c2.09,6,3,12.32,3.93,18.61a.74.74,0,0,1,0,.19c-.88,3.83-.25,7.87-1.76,11.62A2.16,2.16,0,0,1,286.55,494.11Zm-25.48-77.85c-.75,6.07-1.5,12-2.24,18-.76,6.14-1.91,12.16-5,17.62a3.43,3.43,0,0,0-.12,1.17,3.51,3.51,0,0,0,2-2.28c.48-1.22.88-2.46,1.27-3.71,1.57-5,3.1-10,3.16-15.32a33.55,33.55,0,0,1,.46-4.69c.48-3.1,1-6.19,1.58-9.28C262.27,417.1,262.52,416.44,261.07,416.26Z" style="fill:#f8f4e2"/><path d="M291.88,246.37c.58,1,1.58.38,2.37.61-.42.49-.86,1-1.25,1.47-.83,1.07-1.64,2.15-2.45,3.23-.35,1.6-.13,2,1.3,2a7.52,7.52,0,0,0,2.29-.46,14.49,14.49,0,0,1,8.1-.27,41.31,41.31,0,0,0,7.33,1,28.88,28.88,0,0,0,9.75-1.86,12.08,12.08,0,0,0,2.46-1.53l2.33.73a1.12,1.12,0,0,1-1.22,1.2,2.27,2.27,0,0,0-.93.15c-1.61,1-3.2,2-4.83,3.07l.29.66c-.05.94-.85,1.13-1.49,1.35-3.57,1.22-7.18,2.5-11,2.2a43.11,43.11,0,0,1-7.67-1.28c-4-1.08-8-2.44-11.94-3.71-1.7-.55-1.7-.58-1.71-2.31a64,64,0,0,1,.06-7.46,51.67,51.67,0,0,1,1.64-7.41,35.19,35.19,0,0,1,1.44-3.77,8.31,8.31,0,0,0,8.54-.78c2.41-1.63,5.19-2,7.89-2.73a23,23,0,0,1,2.49-.37,7.29,7.29,0,0,1-.7.86c-1.32,1.23-2.71,2.4-4,3.7a26.06,26.06,0,0,0-2.53,3.19,7.82,7.82,0,0,0-.68,1.71v-.06l-.41.52c-1.47,1.38-3,2.71-4.39,4.17A8.86,8.86,0,0,0,291.88,246.37Zm-1.18-.61-.27-.34a4,4,0,0,0-1.18.3c-2.11,1.29-3.17,3.38-4,5.58-.25.63,0,1.29,1,1.5C286.73,249.85,288.77,247.84,290.7,245.76Z" style="fill:#b16d39"/><path d="M238.27,450.78c-1.45-.06-1.41-1.33-1.45-2.16a18,18,0,0,0-1.25-5.49,3.36,3.36,0,0,1,1.76-4.39,19.54,19.54,0,0,0,4.28-2.7c2-1.74,2.83-4.1,3.65-6.39,2.07-5.81,5.62-10.72,9-15.78a9.11,9.11,0,0,0,.68-.95,3.89,3.89,0,0,1,3.91-2.37,3.49,3.49,0,0,1-.17,1.14c-2,3.62-2.67,7.62-3.57,11.57-1.77,7.77-3.68,15.51-5.53,23.27-.27,1.13-.53,2.26-.85,3.65-.51-.39-.89-.67-1.26-1-1.42-1.16-2.78-2.4-4.26-3.45-1.64-1.17-3.12-.67-3.84,1.25C238.87,448.23,238.62,449.52,238.27,450.78Z" style="fill:#c48f59"/><path d="M257.11,463.93l1.95.72a1.54,1.54,0,0,1-.74,2.21c-2.94,1.8-3.67,4.63-3.44,7.81a5.58,5.58,0,0,0,2.54,4c1.25.94,1.28,1,.54,2.39-.88,1.68-1.78,3.36-2.81,5a11.09,11.09,0,0,1-4.58,3.91,2.54,2.54,0,0,1-2.92-.26,8.21,8.21,0,0,1-1.3-1.19,26.24,26.24,0,0,1-4.59-8.19c-.51-1.55-.44-1.85.86-2.84.94-.71,1.95-1.33,2.94-2a16.62,16.62,0,0,0,5.18-4.44A3.22,3.22,0,0,1,252.1,470a7.15,7.15,0,0,0,4.64-5.2A6.63,6.63,0,0,1,257.11,463.93Z" style="fill:#f8f4e2"/><path d="M321.46,223.32a26,26,0,0,1-12.55,4.36c-5.4.62-10.71,1.57-15.49,4.42a3.55,3.55,0,0,1-3.88.22,17,17,0,0,1,1.18-1.35,81.53,81.53,0,0,1,13.74-10.36,9.75,9.75,0,0,1,7.7-1.29c2.79.72,5.61,1.25,8.07,2.86A11.82,11.82,0,0,1,321.46,223.32Z" style="fill:#9a4914"/><path d="M249.38,456.88a4.15,4.15,0,0,0-4.27,1.47c-1.67,1.77-3.38,1.3-5.17.49a2,2,0,0,1-1.36-2.52c.59-2.39,1.31-4.77,2.12-7.1a1.41,1.41,0,0,1,2.26-.7,8.26,8.26,0,0,1,1.8,1.49c1.38,1.4,2.71,2.84,4.05,4.28a8.59,8.59,0,0,0,4.05,2.63,2.24,2.24,0,0,1,1.94,2.52,4,4,0,0,0,.27,1.73c.93,2.44-.26,4.33-1.62,6.1a3.43,3.43,0,0,1-3.74,1.13,7.3,7.3,0,0,1-4.84-4,3.19,3.19,0,0,1,.5-3.83,20.71,20.71,0,0,1,2.7-2.22C248.56,458,249.37,458,249.38,456.88Zm-1.3,7.2,3.65-4.76c-2.4-.53-3.5-.13-4.23,1.45S247,463.24,248.08,464.08Z" style="fill:#f6f1de"/><path d="M144.33,345c-.68-2.53-1.37-5.07-2.06-7.6a19.61,19.61,0,0,0,1.24-7.09c.1-3.06.48-6.11.76-9.17,0-.23.24-.44.36-.66q1.91,10.15,3.79,20.31a9.27,9.27,0,0,1,.17,1.75c0,2.48,0,5,0,7.44-.93-1.29-1.82-2.61-2.8-3.86A7.55,7.55,0,0,0,144.33,345Z" style="fill:#c48f59"/><path d="M165.4,323.69c1.78.4,2.26,2.06,3.07,3.32s1.28,2.72,2,4c2,3.5,4.2,6.93,6.21,10.44a36.32,36.32,0,0,1,2,4.45c.23.58.49,1.27-.21,1.78a57.55,57.55,0,0,1-3.94-4.34c-3.82-5.16-6.94-10.69-8.41-17C165.94,325.44,165.65,324.57,165.4,323.69Z" style="fill:#c38e58"/><path d="M259.5,468.8c1.5,1,2.79,1.82,4.11,2.63a2.57,2.57,0,0,1,.73,3.43,4.26,4.26,0,0,1-4.56,1.91,3.47,3.47,0,0,1-2.6-3.48A4.42,4.42,0,0,1,259.5,468.8Z" style="fill:#f6f1de"/><path d="M261.82,466.41V466c.09-1.32.89-2.85,1.65-2.88,1.21-.05,1.79.89,2.33,1.79a12.58,12.58,0,0,1,.95,1.91,2.55,2.55,0,0,1-1.17,3,2.08,2.08,0,0,1-2.61-.64A3.46,3.46,0,0,1,261.82,466.41Z" style="fill:#f6f1de"/><path d="M256.77,459.31a5.66,5.66,0,0,1,.12-.81c.28-1,.9-1.29,1.76-.77a4.28,4.28,0,0,1,2.08,3.19,1.54,1.54,0,0,1-2.31,1.63A3.21,3.21,0,0,1,256.77,459.31Z" style="fill:#f6f1de"/><path d="M288.74,467.77l.33,1.19Z" style="fill:#f6f1de"/><path d="M289.14,469.34l.32,1.21Z" style="fill:#f6f1de"/><path d="M139.79,332.63l.67-.59.21.2-.59.71Z" style="fill:#f09d05"/><path d="M292.44,490.63c.05.16.09.33.13.49a1.87,1.87,0,0,1-.17-.31C292.38,490.76,292.42,490.69,292.44,490.63Z" style="fill:#f6f1de"/><path d="M289.67,471.73l.16.45Z" style="fill:#f6f1de"/><path d="M292.89,493.8l.09.42c-.05-.09-.12-.18-.16-.27S292.86,493.85,292.89,493.8Z" style="fill:#f6f1de"/><path d="M288.36,466.19c.08.23.15.45.22.67C288.51,466.64,288.44,466.42,288.36,466.19Z" style="fill:#f6f1de"/><path d="M292.3,489.41a1.74,1.74,0,0,1,.15.26s-.07.08-.11.12A.35.35,0,0,1,292.3,489.41Z" style="fill:#f6f1de"/><path d="M289.93,472.88a1.35,1.35,0,0,1,.15.26s-.06.07-.1.12Z" style="fill:#f6f1de"/><path d="M290.16,474.14a.51.51,0,0,1,.08.36,1.88,1.88,0,0,1-.14-.24S290.14,474.18,290.16,474.14Z" style="fill:#f6f1de"/><path d="M292.13,487.91l.07.38a1.23,1.23,0,0,1-.14-.25S292.1,488,292.13,487.91Z" style="fill:#f6f1de"/><path d="M291.67,484.73c0,.15.08.31.13.46a1.53,1.53,0,0,1-.18-.29S291.65,484.79,291.67,484.73Z" style="fill:#f6f1de"/><path d="M291.27,481.58l.13.47a3,3,0,0,1-.18-.3S291.25,481.64,291.27,481.58Z" style="fill:#f6f1de"/><path d="M291.1,480.36a1.13,1.13,0,0,1,.16.26s-.07.08-.11.12Z" style="fill:#f6f1de"/><path d="M290.5,476.47l.12.43a2,2,0,0,1-.17-.27S290.48,476.52,290.5,476.47Z" style="fill:#f6f1de"/><path d="M290.31,475.24a1.83,1.83,0,0,1,.16.26s-.07.08-.11.12Z" style="fill:#f6f1de"/><path d="M143.84,306.38l.4.4Z" style="fill:#9a4914"/><path d="M287.71,463.07l.15.47Z" style="fill:#f6f1de"/><path d="M288,464.22a1.83,1.83,0,0,1,.16.26s-.07.08-.11.12Z" style="fill:#f6f1de"/><path d="M395.84,352.8c6,9.09,11.72,17.91,17.5,26.72,0,.07.24.05.47.09a4.58,4.58,0,0,0,.79-2.88c.32-5.82.58-11.65.9-17.47.08-1.4-.08-2.92,1.28-4a3.74,3.74,0,0,1,.92,2.74c-.11,6.88-.16,13.76-.38,20.64a16.49,16.49,0,0,1-1.71,6.91,16.38,16.38,0,0,1-4.27-3.79c-3.78-5.35-7.57-10.71-11.38-16-.5-.7-.8-1.66-2-1.92a5.62,5.62,0,0,0-.29,1.1c-.28,6-.54,12-.83,18.06,0,.73-.2,1.45-.35,2.48-1.45-.91-2.19-1.87-2.28-3.17-.14-2-.17-4-.18-6.07,0-1.7,0-3.41.09-5.11.13-4.78.26-9.57.44-14.35a15.86,15.86,0,0,1,.43-2.9C395.09,353.5,395.46,353.25,395.84,352.8Z" style="fill:#6b260c"/><path d="M380.09,351.68c.31.39.61.6.67.86a11,11,0,0,1,.31,2.13c.2,5.57.37,11.14.56,16.71.09,2.36.22,4.71.3,7.07a4.25,4.25,0,0,1-1.36,3.56,7.17,7.17,0,0,1-.61-.57c-1.33-1.64-2.14-1.9-4.06-1.13s-3.63,1.53-5.43,2.31a6.26,6.26,0,0,1-6.36-.25,8.51,8.51,0,0,1-4.18-6.33,11.52,11.52,0,0,1-.05-1.18c-.13-4.65-.21-9.3-.39-13.95-.08-2-.44-4-.55-6.07a9.72,9.72,0,0,1,.33-2.67c.07-.28.54-.46.82-.69.22.29.57.55.63.86a45.07,45.07,0,0,1,.68,4.47c.46,5.28.85,10.57,1.29,15.86a14.37,14.37,0,0,0,.36,2.71,5.79,5.79,0,0,0,6.47,4.54,37.77,37.77,0,0,0,5.77-1.15,4.48,4.48,0,0,0,3.68-4.31c.06-.91.17-1.82.18-2.74,0-5.31,0-10.62.06-15.94A9.1,9.1,0,0,1,380.09,351.68Z" style="fill:#6b260c"/><path d="M345.65,350.9l.82,2.3c-1.89.25-3.62.52-5.37.71-2.86.33-5.72.6-8.59.9a7.36,7.36,0,0,0-1.16.16,2.46,2.46,0,0,0-2.19,2.8c0,2,.11,3.94.18,5.9.05,1.18.15,2.35.2,3.53.07,2.07.46,2.47,2.61,2.52,2.55,0,5.11,0,7.66.12a12.2,12.2,0,0,1,2.81.71c.19.06.29.38.44.58-.53.91-1.44.74-2.14.86-2.9.5-5.82.89-8.74,1.29-2.39.32-2.95,1-2.56,3.38.27,1.68.66,3.34,1,5a10.23,10.23,0,0,1,.19,1.56c0,1.81-.55,2.29-2.65,2.08-.12-1.34-.31-2.69-.36-4.05-.2-5-.48-10.09-.48-15.13,0-3.72.44-7.45.61-11.17.1-2.21,1.23-2.61,2.84-2.83,1.3-.18,2.61-.2,3.92-.31Z" style="fill:#6d270c"/><path d="M431.09,380.38c0-4.18,0-8.37,0-12.56,0-3.47-.18-6.94-.23-10.4,0-2.32.52-2.88,2.88-2.92,2.94-.05,5.89-.17,8.83,0,5.67.24,9.64,3,11.69,8.36a22.74,22.74,0,0,1,1.17,4.14c.63,3.67.68,7.32-1.22,10.7-2.19,3.89-5.35,6.43-10,6.71-2.66.16-5.34.14-8,.24-1,.05-2.08.19-3.12.31-1.4.16-2.09-.34-2.22-1.79-.09-.91,0-1.83,0-2.75Zm2.73-24.5a14.45,14.45,0,0,0-.35,2.1q0,11.19,0,22.38c0,1.56.34,2,1.84,2.3,6.86,1.54,12.73-1.61,16.13-7,3-4.85,1.87-14.85-7-17.21C441.07,357.5,437.62,356.78,433.82,355.88Z" style="fill:#6d270c"/><path d="M465.54,351.09c1-.1,1.88-.23,2.71-.25,1.43,0,1.86.35,1.95,1.84q.21,3.42.28,6.86.27,11.47.5,23c0,.39,0,.78,0,1.18,0,1.79-.41,2.19-2.17,2.14-1.6,0-1.91-.35-1.84-2,.05-1.37.32-2.75.28-4.11-.13-4.51-.26-9-.57-13.52s-.83-8.85-1.24-13.27A13.4,13.4,0,0,1,465.54,351.09Z" style="fill:#6b260c"/><path d="M127.22,242.32a2.33,2.33,0,0,1-.38,3c-1.14,1.24-2.23,2.54-3.42,3.74-1.51,1.54-3,3-3.41,5.31-.05.29-.36.52-.55.78a16.61,16.61,0,0,1,2.6-9.26A8.08,8.08,0,0,1,127.22,242.32Z" style="fill:#c38e58"/><path d="M126.52,280l-.39-1.18h0l.4,1.18Z" style="fill:#9a4914"/><path d="M126.92,280.8l-.4-.79h0l.39.79Z" style="fill:#9a4914"/><path d="M258.73,222.94l.57,2.19a38.84,38.84,0,0,1,1.48,12,24.33,24.33,0,0,0,.37,3.48,44.27,44.27,0,0,0,.43,5.05,47.89,47.89,0,0,0,1.82,6.17,14.53,14.53,0,0,0,2.85,4.85,15.06,15.06,0,0,1,2.22,3.45c1.44,3,3.6,5.42,5.41,8.12,3.45,5.14,5.22,10.66,2.65,16.81-.58,1.38-1.11,2.79-1.73,4.15a2.53,2.53,0,0,0,.08,2.26c-.3.12-.74.15-.86.37a7.09,7.09,0,0,1-5.44,3.67,2.52,2.52,0,0,0-2.38,1.77,19,19,0,0,0-8.62,4.37c-2.14,0-3.12-.73-3-2.59a5.93,5.93,0,0,1,1.07-2.62,13.39,13.39,0,0,1,1.54-1.76,3.48,3.48,0,0,0,.38-4.18c-.33-.63-.74-1.22-1.11-1.82l-.39-2-.83-.08c-1.68.94-2.37,2.7-3.39,4.18-.37.53-.76,1-1.14,1.55.08-2.14.23-4.28.21-6.42a5.58,5.58,0,0,1,1.09-4,2.18,2.18,0,0,0,.49-1,37.7,37.7,0,0,0,.34-9.95c-.28-3.74-.95-7.46-1.55-11.17a25,25,0,0,0-1.15-4.12,12,12,0,0,0-1.16-2h1.84a2.61,2.61,0,0,0-1-2.42c-.3-.57-.57-1.16-.91-1.72-1.65-2.71-3.33-5.42-5-8.13.11-.65.22-1.29.32-1.94a10.81,10.81,0,0,1,.9,1c1.42,2,2.81,4.1,4.26,6.11.62.85,1.15,1.87,2.6,2.18a5.41,5.41,0,0,0-.75-2.69c-.94-1.72-2-3.39-2.9-5.12a14.48,14.48,0,0,0-8.47-7.41c-.35-.66-.67-1.35-1.06-2s-.87-1.23-1.31-1.83c2.89.37,5.78.77,8.68,1.12,3.17.37,6.36.59,9.29,2a8.58,8.58,0,0,0,1.6.38c.08-.7.1-1.21.19-1.7C257.74,228.67,258.24,225.81,258.73,222.94Z" style="fill:#b26e3a"/><path d="M290.55,251.68c.81-1.08,1.62-2.16,2.45-3.23.39-.51.83-1,1.25-1.47,1.82-1.58,3.67-3.14,5.47-4.74a14,14,0,0,1,7.87-3.16c5.6-.74,10.56,1,15.23,3.92.22.13.52.27.6.48.8,2.12,1.68,4.22,2.29,6.4.31,1.09-.63,1.42-1.6,1.39l-2.33-.73c-.3-.76-.95-.84-1.64-.85,0-3.12-1-4.75-3.34-5.13a17,17,0,0,1-5.17,7.55c-3.53.52-7.06.9-10.39-.91a25.06,25.06,0,0,0-2.47-6.39,62.81,62.81,0,0,0-6.64,6.51Zm13.89-8.82c-.57.7-1.09,1.07-1.07,1.4a1.53,1.53,0,0,0,.89,1c.18.07.82-.46.87-.77S304.81,243.67,304.44,242.86Z" style="fill:#3a2410"/><path d="M258.73,222.94c-.49,2.87-1,5.73-1.48,8.6-.09.49-.11,1-.19,1.7a8.58,8.58,0,0,1-1.6-.38c-2.93-1.44-6.12-1.66-9.29-2-2.9-.35-5.79-.75-8.68-1.12a39.23,39.23,0,0,0-13.43-5.36,19.24,19.24,0,0,0-5.43-.5,45.1,45.1,0,0,0-6.27,1.53l-8.61,2.42c-1.63.47-3.24,1-5,.53-.45-.92.33-1.47.56-2.16,3.41-3.24,7.56-5.35,11.6-7.63,2-1.13,3.9-2.46,6.24-2.75a15,15,0,0,1,3.48-.06c4.66.52,9.31,1.24,14,1.67a33.79,33.79,0,0,0,14.42-2.21,3.93,3.93,0,0,1,4,.69c2,1.45,4.08,2.84,5.36,5.08l.33.46C258.74,221.93,258.74,222.43,258.73,222.94Zm-56.15,2.6.24.47c3.76-1,7.53-2,11.28-3.08a20.72,20.72,0,0,1,11.34-.36,47.7,47.7,0,0,1,10.28,3.77,21,21,0,0,0,7.37,2.5c3.68.47,7.36.9,11,1.43.94.14,1.35-.1,1.51-1a25.67,25.67,0,0,1,.75-3.63c1.09-3.23-.42-5.39-2.8-7.25-.41-.32-.84-.61-1.25-.93a2.93,2.93,0,0,0-2.9-.56A59.91,59.91,0,0,1,237.31,219a55,55,0,0,1-12.87-.86,19.72,19.72,0,0,0-12.39,1.67c-2.62,1.32-5.07,3-7.58,4.49C203.82,224.66,203.21,225.11,202.58,225.54Z" style="fill:#76250b"/><path d="M291.88,246.37a8.86,8.86,0,0,1,1.09-2.2c1.39-1.46,2.92-2.79,4.39-4.17l.41-.52v.06a4.28,4.28,0,0,0,1-.6c2.36-2.54,5.39-3.5,8.72-4.06a30.49,30.49,0,0,1,11.31.27c4.16.85,6.78,3.49,8.19,7.41a5.62,5.62,0,0,1-.4,4.58c-.89-.11-1-.94-1.31-1.52-.77-1.36-1.4-2.82-2.27-4.11-2.11-3.13-5.26-4.56-8.88-5.22a21.64,21.64,0,0,0-9.34.53,9.51,9.51,0,0,0-3,1.48,42.4,42.4,0,0,0-7.84,7.12C293.45,246,293,246.85,291.88,246.37Z" style="fill:#402711"/><path d="M266.2,297.27a2.52,2.52,0,0,1,2.38-1.77,7.09,7.09,0,0,0,5.44-3.67c.12-.22.56-.25.86-.37a7.57,7.57,0,0,0,6.9,7,7,7,0,0,1,3.37,1.29c-.67.6-1.36,1.16-2,1.8a8.1,8.1,0,0,1-8.19,2.23,40,40,0,0,0-4.4-.52l1.19-1.15a4.66,4.66,0,0,1,1-.11,4.62,4.62,0,0,0,3.8-1.07c-2-2.29-4.13-3.7-7.07-3.58C268.43,297.35,267.31,297.29,266.2,297.27Z" style="fill:#9a4914"/><path d="M270.57,303.22a40,40,0,0,1,4.4.52,8.1,8.1,0,0,0,8.19-2.23c.63-.64,1.32-1.2,2-1.8l3.58-3.49h3.06c.15.9.31,1.81.46,2.72-2.14,1.76-4.24,3.59-7.27,3.56-.2,0-.41.25-.62.38a2.74,2.74,0,0,0-2.42,1.07c-.86.89-1.62,1.87-2.43,2.82l-.27.41h0a12.55,12.55,0,0,0-1.61.64,2.57,2.57,0,0,1-2.94.05,4.43,4.43,0,0,0-.9-.35l-.41-.36h0l-.26-.39-3.18-2.05A1.13,1.13,0,0,1,270.57,303.22Z" style="fill:#74240b"/><path d="M291.79,296.21h-3.06c.28-1.23.56-2.46.83-3.68,1.07.77,1.42-.05,1.84-.8s.12-1.74,1.24-1.93c.46,1.05,1,2.08,1.39,3.15.51,1.43.89,2.9,1.34,4.36-.79-.21-1.59-.41-2.37-.64C292.59,296.56,292.19,296.37,291.79,296.21Z" style="fill:#b26e3a"/><path d="M292.64,289.81c-1.12.19-.86,1.27-1.24,1.93s-.77,1.57-1.84.8a5.53,5.53,0,0,1,.25-1.31,11.35,11.35,0,0,0,.44-7.93,20.86,20.86,0,0,1-.31-2.08c2.06,1.28,1.89,3.49,2.28,5.45.17.86.27,1.73.41,2.59Z" style="fill:#78290e"/><path d="M317.42,256.35l-.29-.66c1.63-1.05,3.22-2.08,4.83-3.07a2.27,2.27,0,0,1,.93-.15l-.33,1.2-1.23,1.13Z" style="fill:#78290e"/><path d="M321.33,254.8l1.23-1.13C322.62,254.56,322.22,254.94,321.33,254.8Z" style="fill:#b16d39"/><path d="M283.57,268.6l-.16-.1.16.1Z" style="fill:#b26e3a"/><path d="M258.74,221.42l-.33-.46Z" style="fill:#b26e3a"/><path d="M126.92,280.8l-.39-.79-.4-1.18a55.29,55.29,0,0,0-1.94-10.94,50.84,50.84,0,0,1-1.2-7.1c-.19-1.29-.31-2.59-.38-3.89-.09-1.72,0-3.52,1.1-4.87,1.69-2,3.47-3.95,6.17-4.66a9.14,9.14,0,0,1,6.33.27c2.08.94,4.21,1.78,6.26,2.8,1.75.87,2,1.64,1.86,3.59a2.82,2.82,0,0,0,.49,1.6c1.33,2,2.66,4.05,4.1,6a5.3,5.3,0,0,1,.57,5.89,17.06,17.06,0,0,0-1.38,3,7.89,7.89,0,0,0-.07,2.83,5.41,5.41,0,0,0,.7,1.82,8.9,8.9,0,0,1,1,5.13,4.47,4.47,0,0,0,1.56,3.84c1.53,1.51,3,3.13,4.36,4.77a7.4,7.4,0,0,1,.85,1.74l-2.42,3.13A7.53,7.53,0,0,1,149.9,291a12.69,12.69,0,0,0-7.07-4.32,8,8,0,0,1-4-2.4,26.64,26.64,0,0,1-6.29-11.41,18.78,18.78,0,0,1-.22-4.64.72.72,0,0,1,.87-.81c-.35,4.37,1.21,8.18,3.49,11.78a11.25,11.25,0,0,0,7.25,6.58c1.53.52,3.15.76,4.73,1.13a1.78,1.78,0,0,0,2-.7l-1.34-1.15-.42-.35h0a36,36,0,0,1-.36-4.26,12.89,12.89,0,0,0-2.11-7.2,31.15,31.15,0,0,1-1.6-3.74,1.36,1.36,0,0,1,.87-2c1.84-.58,2.36-2,2.39-3.63s-1.13-2.89-2.41-4.07l-1.89,2a12.06,12.06,0,0,0-2.46,4.51,19.75,19.75,0,0,1-1.19,2.61c-.92.13-1.23-.34-1-1.14.34-1.11.74-2.2,1.17-3.28.35-.88.64-1.8,0-2.58s-1.59-.27-2.33,0c-1.14.44-2.22,1-3.33,1.53a2,2,0,0,1,1.05-1.89c.8-.61,1.68-1.12,2.52-1.66l6.25-1.78-2.19-4.93a15.58,15.58,0,0,0-6-3.58l-1.83-.75c-1.15.91-.91,2-.92,3-.11,6.57.64,4.73-2.37,10.87-.79,1.62-1.29,3.37-1.93,5.06-.22.94-.49,1.87-.66,2.82-1.34,7.16,1.41,12.89,6.78,17.26,2.68,2.17,6.09,3.43,9.17,5.1.36.54.69,1.09,1.08,1.59a6.84,6.84,0,0,1,1.19,5.58c0,.21-.3.39-.63.78a17.58,17.58,0,0,1-1.59-1.7c-1.23-1.69-2.31-3.5-3.62-5.13a7.46,7.46,0,0,0-2.67-2.21,24.35,24.35,0,0,1-5.18-3.48A25.87,25.87,0,0,1,126.92,280.8Zm1.17-30.28a19.24,19.24,0,0,0-3.11,2.27,4.21,4.21,0,0,0-1.14,2.62,84,84,0,0,0,.5,9.39,31,31,0,0,0,1.47,5.13l.47,0c.21-.59.46-1.17.63-1.77q1-3.48,1.93-7c1.22-4.15,2.44-8.29,3.72-12.61A8.44,8.44,0,0,0,128.09,250.52Z" style="fill:#74240b"/><path d="M138.3,259.93c-.84.54-1.72,1.05-2.52,1.66a2,2,0,0,0-1.05,1.89c-.5,1.33-1,2.65-1.52,4a.72.72,0,0,0-.87.81,18.78,18.78,0,0,0,.22,4.64,26.64,26.64,0,0,0,6.29,11.41,8,8,0,0,0,4,2.4A12.69,12.69,0,0,1,149.9,291a7.53,7.53,0,0,0,4.18,2.75c.35,1.11.69,2.22,1,3.29l-3.33-.55a17.79,17.79,0,0,0-3.11-2.43A21.63,21.63,0,0,0,144.6,293c-3.08-1.67-6.49-2.93-9.17-5.1-5.37-4.37-8.12-10.1-6.78-17.26.17-.95.44-1.88.66-2.82.55-.63,1.34-1.18,1.59-1.91a13.57,13.57,0,0,1,3-4.25c1.05-1.24,2.59-1.52,4-2.09C138,259.57,138.16,259.81,138.3,259.93Z" style="fill:#c38e58"/><path d="M151.77,296.53l3.33.55c-.33-1.07-.67-2.18-1-3.29l2.42-3.13c2.36.31,3.65,2,4.54,3.9a2.34,2.34,0,0,0,2.55,1.6,14.15,14.15,0,0,1,2.16,0c1.47.14,2.09,1.18,1.4,2.48a11.82,11.82,0,0,1-1.45,1.82c-.8,1-.86,1.48,0,2.37a5.49,5.49,0,0,1,1.64,2.61,2.79,2.79,0,0,1-.88,2.85,2.31,2.31,0,0,1-2.58.21c-.77-.3-1.51-.68-2.41-1.09-.29,1.09-.46,2-.76,2.8-.51,1.4-1.28,2.78-2.91,2.79s-2.36-1.4-2.92-2.77c-.08-.18-.11-.38-.17-.56-.64-1.84-.78-1.91-2.69-1.5a5.27,5.27,0,0,1-.57.14c-1.15.14-2.76-.49-3.11-1.28a2.51,2.51,0,0,1,.69-2.87,1.73,1.73,0,0,0,.12-2.59A3.16,3.16,0,0,1,151.77,296.53Zm5.71,15.09c2.45-1.88,3.05-3.35,2.3-5.11l-3.57.18A6.75,6.75,0,0,0,157.48,311.62Zm-.59-14.35c.45,0,.65,0,.83-.09,2.43-.61,2.74-1.67,1.06-3.56a3.26,3.26,0,0,0-.41-.42,1.59,1.59,0,0,0-2.67,1.58A23.9,23.9,0,0,0,156.89,297.27Zm-.57,5.31c.52.66.85,1.44,1.38,1.63s1.21-.26,1.68-.62a3.49,3.49,0,0,0,.69-1.36,1.39,1.39,0,0,0-.25-1.78,1.49,1.49,0,0,0-2,0A11.63,11.63,0,0,0,156.32,302.58ZM155.16,301l.36-1.53c-2.47-1.75-3.51-1.9-4.86-.75C151.63,300.62,152.88,301.28,155.16,301Zm6.46-3a5.3,5.3,0,0,0,.32,1.62,1.58,1.58,0,0,0,1.14.74,3.19,3.19,0,0,0,2.64-2.8C163.63,296.86,163.41,296.88,161.62,298Zm4.24,8.24a6.52,6.52,0,0,0-4-4.11C161.1,304.88,162.79,306.6,165.86,306.22Zm-10.57-1.67c-2.11-1.93-4.7-1-5.35,1.76C152,306.62,153.67,305.77,155.29,304.55Zm2.58-6.27v.58c.6,0,1.28.38,2-.78Z" style="fill:#9e5c19"/><path d="M159.76,290.05c-.06-.36-.14-.72-.18-1.09a8,8,0,0,0-2.63-5.48,4.64,4.64,0,0,1-1.16-1.31,10.53,10.53,0,0,1-.56-1.86l.4-.2c1.14,1.21,2.32,2.38,3.42,3.62,1.28,1.45,1.37,3.33,1.67,5.11.06.4-.27.88-.42,1.32Z" style="fill:#76250b"/><path d="M269.92,304.7l3.18,2.05.26.39h0a.74.74,0,0,0,0,.39,10.61,10.61,0,0,1-.77,4,9.78,9.78,0,0,0-.69,4,19.22,19.22,0,0,0,3.5,9,7.39,7.39,0,0,1,1.48,4.36,7,7,0,0,1-2.54.62,72.73,72.73,0,0,1-8-1.63,11.49,11.49,0,0,0-6.72.16c-3.41,1.09-6.88,2-10.34,3-2.43.67-4.89,1.25-7.34,1.88l-.48.24-1.15.15c-.09-.62-.4-1.32-.22-1.86.84-2.67,1.89-5.28,2.73-8,.7-2.23,1.27-4.51,1.77-6.79.39-1.77-.49-3.33-1.14-4.89-1.34-3.2-2.73-6.35-5.5-8.69a5.85,5.85,0,0,0-4.24-1.7c-2.92.21-5.84.48-8.72,1a38.32,38.32,0,0,1-8,.54,5.6,5.6,0,0,1-1.71-.39c-2.39-.86-4.74-1.88-7.16-2.63a13.08,13.08,0,0,1-7.63-6.68c-1.9-3.49-3.25-7.28-4.95-10.88-.89-1.87-2-3.64-3.07-5.43-1.65-2.81-3.44-5.55-5-8.42S185.8,262.25,186,259a1.32,1.32,0,0,1,.18-.55c2.22-3.44,4.55-6.66,8.92-7.7,2.4-.58,4.68-1.64,7-2.44,1.15-.39,2.33-.66,3.51-1l3.51.13,0,1.43-1.59.16,1.19,1.07a6,6,0,0,0,.49,1.43,24.86,24.86,0,0,0,3.46,3.94c3.52,3.51,7.85,4.63,12.62,4.86a28.53,28.53,0,0,0,7.72-1.05,14.16,14.16,0,0,0,5.12-2.32c2.29-1.71,4.44-3.57,7.19-4.52l3.55,1.18a12,12,0,0,1,1.16,2,25,25,0,0,1,1.15,4.12c.6,3.71,1.27,7.43,1.55,11.17a37.7,37.7,0,0,1-.34,9.95,2.18,2.18,0,0,1-.49,1,5.58,5.58,0,0,0-1.09,4c0,2.14-.13,4.28-.21,6.42a47.55,47.55,0,0,0-1.3,5.06,7.14,7.14,0,0,0,3.3,7.62,10.91,10.91,0,0,0,5.33,1.74l5.3,2.56c.52-.81.79-1.72,1.39-2.07C266.36,306.29,268.17,305.54,269.92,304.7Z" style="fill:#c5915b"/><path d="M279.51,306.76c.81-.95,1.57-1.93,2.43-2.82a2.74,2.74,0,0,1,2.42-1.07l.73.37.39.81c3.54,1.57,6.69.74,9.61-1.53.51-.39,1-.83,1.47-1.25.27.87.51,1.74.81,2.59,1.24,3.49,2.17,7.08,3.83,10.45a77.58,77.58,0,0,1,3.19,8.81c.3.86.51,1.76.77,2.63a6.82,6.82,0,0,1-.48,4.9,30.51,30.51,0,0,1-4.62,7.24,10.36,10.36,0,0,0-1.47-2,38.56,38.56,0,0,0-4.38-3.26c-4.26-2.64-9.07-3.93-13.78-5.44-1.74-.65-2.55-2.09-3.16-3.71a18.67,18.67,0,0,1-1.19-8l.77-1.58h0l.23-.39.19-.75.26-.44.23-1c.49-1.35,1-2.7,1.46-4.05h0Z" style="fill:#c5915b"/><path d="M269.39,363.18c2.44.34,4.89.66,7.32,1a43.79,43.79,0,0,0,9.14.82c1.11-.06,2.23-.05,3.34,0a2.27,2.27,0,0,1,2.26,2.22,7.77,7.77,0,0,1-1.83,5.24c-1.63,2.27-3.49,4.38-5.3,6.52a6.21,6.21,0,0,1-4.21,2.2,29.56,29.56,0,0,1-10.23-.71c-1.45-.32-3-.12-4.45-.51a21.21,21.21,0,0,1-11.58-7.54,9.73,9.73,0,0,0-1.62-1.65c-1.68-1.39-1.81-3.21-.19-4.71a6.45,6.45,0,0,1,4.43-1.83,43.94,43.94,0,0,0,8.56-.74,22.23,22.23,0,0,1,4.32,0Z" style="fill:#c5915b"/><path d="M280.43,327.17c4.71,1.51,9.52,2.8,13.78,5.44a38.56,38.56,0,0,1,4.38,3.26,10.36,10.36,0,0,1,1.47,2,4.2,4.2,0,0,1-1.93,2.35c-1.63.43-3.27.8-4.88,1.3-.42.13-.72.64-1.08,1a4.58,4.58,0,0,0-2.59.07,16,16,0,0,1-2.8.39l-2-.86-.49-.19-1.47-.1c-1.26-1.2-2.68-.67-4-.31a19.59,19.59,0,0,1-9.62.26c-.87-.21-1.73-.45-2.59-.68a.73.73,0,0,1-.29-.07l-.89-.3-2.26-.14h-.41l-.79-.1h-.75l-1.22.06a1.09,1.09,0,0,0-1.55.05l-3.54.16h-1.19c-1.64-.05-3.28-.06-4.91-.17-3.18-.21-6.37-.49-9.55-.73-.59-.05-1.18,0-1.77-.09a20.64,20.64,0,0,0-7.07.72,10.48,10.48,0,0,0,.95,1.21c1.92,1.68,3.88,3.31,5.78,5a30.88,30.88,0,0,0,7.91,5c1.43.64,2.83,1.37,4.23,2.08a46.91,46.91,0,0,0,19.86,4.63c4.44.15,8.67-.95,12.91-2a3.12,3.12,0,0,0,1-.05c6-2.32,11.08-5.72,13.61-12,.34-.84.79-1.63,1.19-2.45.91.1.85.74.62,1.3a37.69,37.69,0,0,1-1.91,4.3c-2,3.64-4.55,6.88-8.34,8.87a14.85,14.85,0,0,1-2.68,1.18c-5.55,1.63-11.18,2.95-17,2.36a74.2,74.2,0,0,1-13.31-2.16c-3.91-1.14-7.55-3.27-11.24-5.1a31.36,31.36,0,0,1-7.57-4.87c-1.2-1.11-2.47-2.14-3.74-3.16-.69-.57-1.46-1-2.19-1.55-.51-.48-1-1-1.53-1.43-1.85-1.49-1.95-2.54-.2-4.09a7.7,7.7,0,0,1,2.16-1.19c.76-.33,1.56-.53,2.35-.79a21.15,21.15,0,0,0,7.08-2.33l1.15-.15.48-.24c2.45-.63,4.91-1.21,7.34-1.88,3.46-.94,6.93-1.87,10.34-3a11.49,11.49,0,0,1,6.72-.16,72.73,72.73,0,0,0,8,1.63,7,7,0,0,0,2.54-.62C278.49,327.24,278.49,327.24,280.43,327.17Zm15,11.53,1.36-1.25a23.39,23.39,0,0,0-2.82-2.71,50,50,0,0,0-12.61-5.81,2.38,2.38,0,0,0-2.54.54,6.59,6.59,0,0,1-6.22,1.49q-3.43-.79-6.83-1.75a8.09,8.09,0,0,0-4.82-.12c-2.55.81-5.08,1.69-7.62,2.54a53,53,0,0,0-10.14,3.6,4.83,4.83,0,0,0-2.51,2.54,5.1,5.1,0,0,0,1.31.47c2.74.16,5.48.32,8.22.39,2.55.07,5.11.07,7.67,0,1.43,0,2.85-.27,4.28-.33,2-.09,4.07-.33,6,.69,3,1.6,6.17,1.46,9.37.94,2.06-.33,4.13-1,6.17,0a12.12,12.12,0,0,0,6.57.62C292,340.36,294.08,340.42,295.41,338.7Z" style="fill:#76250b"/><path d="M209.15,247.47l-3.51-.13c-.23-.84.17-1.3.9-1.64,1.15-.54,2.29-1.12,3.43-1.68.94-.45,1.9-.87,2.82-1.36a54.45,54.45,0,0,1,17.67-6.08c5.3-.8,10,.23,13.44,4.8,1.66,2.71,3.34,5.42,5,8.13.34.56.61,1.15.91,1.72-1,1-1.65-.18-2.46-.36-.07-1.23-.91-1.93-1.73-2.71a12,12,0,0,1-2.15-2.46,11.71,11.71,0,0,0-3.84-3.83,2.19,2.19,0,0,0-2.41-.29c0,.36-.06.68-.06,1a9.66,9.66,0,0,1-2.87,7.45,3.88,3.88,0,0,0-.58,1.17,26.8,26.8,0,0,1-9.6.79c0-.06,0-.15,0-.19a19.82,19.82,0,0,1-4.09-7.25,1.42,1.42,0,0,0-1.18-.7c-1.91.36-3.84.78-5.26,2.29l-3.19,1.25Zm17.2-5.95c-.51.66-.94,1-1,1.4a.87.87,0,0,0,.9,1.17c.39,0,1-.57,1-.89S226.79,242.29,226.35,241.52Z" style="fill:#3a2410"/><path d="M212.36,225.38a45.1,45.1,0,0,1,6.27-1.53,19.24,19.24,0,0,1,5.43.5,39.23,39.23,0,0,1,13.43,5.36c.44.6.91,1.19,1.31,1.83s.71,1.32,1.06,2c-.26,0-.58.11-.78,0-3.16-1.75-6.59-1.23-9.78-.61a62.83,62.83,0,0,0-14,4.3c-2,.92-4,1.81-6.07,2.72,0-1.38.08-2.76,0-4.12a13.71,13.71,0,0,1,2.79-9.56A5.8,5.8,0,0,0,212.36,225.38Z" style="fill:#c48f59"/><path d="M209.2,239.93c2-.91,4.06-1.8,6.07-2.72a62.83,62.83,0,0,1,14-4.3c3.19-.62,6.62-1.14,9.78.61.2.11.52,0,.78,0a14.48,14.48,0,0,1,8.47,7.41c.92,1.73,2,3.4,2.9,5.12a5.41,5.41,0,0,1,.75,2.69c-1.45-.31-2-1.33-2.6-2.18-1.45-2-2.84-4.08-4.26-6.11a10.81,10.81,0,0,0-.9-1,6.74,6.74,0,0,0-4.5-3.49c-1.39-.39-2.78-.75-4.14-1.23a13.27,13.27,0,0,0-7.91-.26c-1.39.36-2.78.73-4.18,1.07a29.64,29.64,0,0,0-14,8.25c-.3.12-.6.25-.9.36-1.51.57-1.53.56-2.44-1.17-1,.4-2,.88-3,1.21s-1.62,1.66-3.19.73a6.84,6.84,0,0,1,1.19-1c1.94-.95,3.91-1.83,5.85-2.77C207.74,240.77,208.47,240.33,209.2,239.93Z" style="fill:#402711"/><path d="M209.48,243.78a29.64,29.64,0,0,1,14-8.25c1.4-.34,2.79-.71,4.18-1.07a13.27,13.27,0,0,1,7.91.26c1.36.48,2.75.84,4.14,1.23a6.74,6.74,0,0,1,4.5,3.49c-.1.65-.21,1.29-.32,1.94-3.42-4.57-8.14-5.6-13.44-4.8a54.45,54.45,0,0,0-17.67,6.08c-.92.49-1.88.91-2.82,1.36Z" style="fill:#c38e58"/><path d="M233.2,335.52c-.79.26-1.59.46-2.35.79a7.7,7.7,0,0,0-2.16,1.19c-1.75,1.55-1.65,2.6.2,4.09.54.44,1,1,1.53,1.43a8.6,8.6,0,0,1-2.14-.84,55.45,55.45,0,0,1-4.79-4,3.68,3.68,0,0,1,.85-5.92,10.81,10.81,0,0,1,5.23-2c1.39-.07,2.71-.93,4.41-.51a6.37,6.37,0,0,1-.46,1.23c-.24.38-.64.66-.91,1C231.65,333.37,231.81,334.27,233.2,335.52Z" style="fill:#9a4914"/><path d="M297.77,341.85c-.4.82-.85,1.61-1.19,2.45-2.53,6.3-7.59,9.7-13.61,12a3.12,3.12,0,0,1-1,.05,64.85,64.85,0,0,1,5-4.29,18.39,18.39,0,0,0,4.83-5.74,3.77,3.77,0,0,0,.38-3.83c.36-.33.66-.84,1.08-1,1.61-.5,3.25-.87,4.88-1.3Z" style="fill:#c48f59"/><path d="M296.56,301.27c-.49.42-1,.86-1.47,1.25-2.92,2.27-6.07,3.1-9.61,1.53.47-.14.93-.31,1.4-.42s1.22-.24,1.83-.36l1.54-.43a5.77,5.77,0,0,0,5.12-5.52c-.45-1.46-.83-2.93-1.34-4.36-.39-1.07-.93-2.1-1.39-3.15,0-.18,0-.37,0-.55.4.17.94.24,1.19.54a18.85,18.85,0,0,1,3.77,6.5C298.14,298.16,297.47,299.73,296.56,301.27Z" style="fill:#76250b"/><path d="M261.07,416.26c1.45.18,1.2.84,1.08,1.5-.54,3.09-1.1,6.18-1.58,9.28a33.55,33.55,0,0,0-.46,4.69c-.06,5.32-1.59,10.32-3.16,15.32-.39,1.25-.79,2.49-1.27,3.71a3.51,3.51,0,0,1-2,2.28,3.43,3.43,0,0,1,.12-1.17c3.11-5.46,4.26-11.48,5-17.62C259.57,428.29,260.32,422.33,261.07,416.26Z" style="fill:#78290e"/><path d="M320.14,249.69c.69,0,1.34.09,1.64.85a12.08,12.08,0,0,1-2.46,1.53,28.88,28.88,0,0,1-9.75,1.86,41.31,41.31,0,0,1-7.33-1,14.49,14.49,0,0,0-8.1.27,7.52,7.52,0,0,1-2.29.46c-1.43,0-1.65-.37-1.3-2l1.58-.36a4.11,4.11,0,0,0,1.19.31c2.64-.11,5.28-.28,7.92-.43,3.33,1.81,6.86,1.43,10.39.91.15.12.3.34.44.33C315,252.3,317.85,251.77,320.14,249.69Z" style="fill:#73250e"/><path d="M290.7,245.76c-1.93,2.08-4,4.09-4.45,7-1.07-.21-1.28-.87-1-1.5.86-2.2,1.92-4.29,4-5.58a4,4,0,0,1,1.18-.3Z" style="fill:#78290e"/><path d="M297.77,239.48l-.41.52Z" style="fill:#c5915b"/><path d="M248.08,464.08c-1.08-.84-1.26-1.84-.58-3.31s1.83-2,4.23-1.45Z" style="fill:#78290e"/><path d="M433.82,355.88c3.8.9,7.25,1.62,10.65,2.53,8.86,2.36,10,12.36,7,17.21-3.4,5.43-9.27,8.58-16.13,7-1.5-.33-1.83-.74-1.84-2.3q0-11.19,0-22.38A14.45,14.45,0,0,1,433.82,355.88Zm4.88,23.55c.34.17.71.53,1,.48,2.28-.37,4.66-.48,6.45-2.25a6.06,6.06,0,0,0,3.74-5.34,13.84,13.84,0,0,0-.27-2.93,10.13,10.13,0,0,0-12.65-7.9c0,1.78,0,3.61,0,5.43,0,3.08,0,6.16.06,9.23C437.06,377.48,437.22,378.81,438.7,379.43Z" style="fill:#f4ae0c"/><path d="M258,306.78a10.91,10.91,0,0,1-5.33-1.74,7.14,7.14,0,0,1-3.3-7.62,47.55,47.55,0,0,1,1.3-5.06c.38-.52.77-1,1.14-1.55,1-1.48,1.71-3.24,3.39-4.18l.83.08.39,2a17.81,17.81,0,0,0-4.33,7,11.91,11.91,0,0,0-.74,3.77c0,1.56,1.95,4.37,3.09,4.43,1.56.08,2.36-1.15,3.15-2.27a19,19,0,0,1,8.62-4.37c1.11,0,2.23.08,3.33,0,2.94-.12,5.08,1.29,7.07,3.58a4.62,4.62,0,0,1-3.8,1.07,4.66,4.66,0,0,0-1,.11,4.8,4.8,0,0,0-4.15,1.19,6.43,6.43,0,0,1-5.83,1.45,9.28,9.28,0,0,0-4,.26C257.86,305.63,257.92,306.21,258,306.78Z" style="fill:#74240b"/><path d="M224.1,252a26.8,26.8,0,0,0,9.6-.79,27.1,27.1,0,0,0,3.5-.14,16.8,16.8,0,0,1,7.53.11,7.08,7.08,0,0,0,2.61-.3c.81.18,1.48,1.36,2.46.36a2.61,2.61,0,0,1,1,2.42h-1.84l-3.55-1.18a10.82,10.82,0,0,0-5.73-.57,60.29,60.29,0,0,1-15,1.35,19.18,19.18,0,0,1-8.52-2.6c-1.92-1.11-3.85-2.18-5.78-3.26l3.19-1.25a9.92,9.92,0,0,0,6.93,5C221.7,251.35,222.89,251.69,224.1,252Z" style="fill:#78290e"/><path d="M257.58,301.64c-.79,1.12-1.59,2.35-3.15,2.27-1.14-.06-3.13-2.87-3.09-4.43a11.91,11.91,0,0,1,.74-3.77,17.81,17.81,0,0,1,4.33-7c.37.6.78,1.19,1.11,1.82a3.48,3.48,0,0,1-.38,4.18,13.39,13.39,0,0,0-1.54,1.76,5.93,5.93,0,0,0-1.07,2.62C254.46,300.91,255.44,301.62,257.58,301.64Z" style="fill:#9a4914"/><path d="M256,286.71l-.83-.08Z" style="fill:#9a4914"/><path d="M320.14,249.69c-2.29,2.08-5.11,2.61-8.07,2.75-.14,0-.29-.21-.44-.33a17,17,0,0,0,5.17-7.55C319.11,244.94,320.14,246.57,320.14,249.69Z" style="fill:#d5ba9d"/><path d="M301.24,251.2c-2.64.15-5.28.32-7.92.43a4.11,4.11,0,0,1-1.19-.31,62.81,62.81,0,0,1,6.64-6.51A25.06,25.06,0,0,1,301.24,251.2Z" style="fill:#d5ba9d"/><path d="M304.44,242.86c.37.81.74,1.23.69,1.61s-.69.84-.87.77a1.53,1.53,0,0,1-.89-1C303.35,243.93,303.87,243.56,304.44,242.86Z" style="fill:#d5ba9d"/><path d="M202.58,225.54c.63-.43,1.24-.88,1.89-1.27,2.51-1.52,5-3.17,7.58-4.49a19.72,19.72,0,0,1,12.39-1.67,55,55,0,0,0,12.87.86,59.91,59.91,0,0,0,12.11-2.06,2.93,2.93,0,0,1,2.9.56c.41.32.84.61,1.25.93,2.38,1.86,3.89,4,2.8,7.25a25.67,25.67,0,0,0-.75,3.63c-.16.89-.57,1.13-1.51,1-3.66-.53-7.34-1-11-1.43a21,21,0,0,1-7.37-2.5,47.7,47.7,0,0,0-10.28-3.77,20.72,20.72,0,0,0-11.34.36c-3.75,1.06-7.52,2.06-11.28,3.08Z" style="fill:#9a4914"/><path d="M258,306.78c-.07-.57-.13-1.15-.21-1.81a9.28,9.28,0,0,1,4-.26,6.43,6.43,0,0,0,5.83-1.45,4.8,4.8,0,0,1,4.15-1.19l-1.19,1.15a1.13,1.13,0,0,0-.65,1.48c-1.75.84-3.56,1.59-5.24,2.57-.6.35-.87,1.26-1.39,2.07Z" style="fill:#b16d39"/><path d="M276.85,313.84c-.25.53-.51,1.05-.77,1.58a3.17,3.17,0,0,1-1.9-2.88c-.2-1.65-.3-3.31-.45-5l0-.06a4.43,4.43,0,0,1,.9.35,2.57,2.57,0,0,0,2.94-.05,12.55,12.55,0,0,1,1.61-.64c-.48,1.35-1,2.7-1.46,4a3.72,3.72,0,0,0-.16-1.13c-.19-.35-.66-.88-.85-.83a1.79,1.79,0,0,0-1,.91,7.24,7.24,0,0,0-.4,1.87C275.16,313.27,275.42,313.57,276.85,313.84Z" style="fill:#9a4914"/><path d="M290.25,302.84l-1.54.43-3.62,0-.73-.37c.21-.13.42-.38.62-.38,3,0,5.13-1.8,7.27-3.56,1,.16.88.84.55,1.42a6.18,6.18,0,0,1-1.19,1.21Z" style="fill:#b16d39"/><path d="M290.25,302.84l1.36-1.28a6.18,6.18,0,0,0,1.19-1.21c.33-.58.42-1.26-.55-1.42-.15-.91-.31-1.82-.46-2.72.4.16.8.35,1.21.47.78.23,1.58.43,2.37.64A5.77,5.77,0,0,1,290.25,302.84Z" style="fill:#9a4914"/><path d="M273.36,307.54a.74.74,0,0,1,0-.39l.41.36,0,.06Z" style="fill:#9a4914"/><path d="M279.51,306.76l-.27.41Z" style="fill:#9a4914"/><path d="M273.36,307.14l-.26-.39Z" style="fill:#9a4914"/><path d="M149.37,285.1l1.34,1.15a1.78,1.78,0,0,1-2,.7c-1.58-.37-3.2-.61-4.73-1.13a11.25,11.25,0,0,1-7.25-6.58,21.16,21.16,0,0,1,2.81-7.74,7.91,7.91,0,0,0,.68-2.56,19.75,19.75,0,0,0,1.19-2.61,12.06,12.06,0,0,1,2.46-4.51c1.51.42,1.77.58,1.56,1.92a10.48,10.48,0,0,1-1.16,3c-1.49,2.92-2.94,5.8-2.8,9.23.13,3.16,1.14,4.66,4.21,5.7,1.08.36,2,.78,2.24,2.15.05.34.69.6,1.06.9h0Z" style="fill:#c38e58"/><path d="M149,284.75c-.37-.3-1-.56-1.06-.9-.19-1.37-1.16-1.79-2.24-2.15-3.07-1-4.08-2.54-4.21-5.7-.14-3.43,1.31-6.31,2.8-9.23a10.48,10.48,0,0,0,1.16-3c.21-1.34-.05-1.5-1.56-1.92l1.89-2c1.28,1.18,2.44,2.32,2.41,4.07s-.55,3.05-2.39,3.63a1.36,1.36,0,0,0-.87,2,31.15,31.15,0,0,0,1.6,3.74,12.89,12.89,0,0,1,2.11,7.2A36,36,0,0,0,149,284.75Z" style="fill:#9a4914"/><path d="M140.19,268.94a7.91,7.91,0,0,1-.68,2.56,21.16,21.16,0,0,0-2.81,7.74c-2.28-3.6-3.84-7.41-3.49-11.78.51-1.33,1-2.65,1.52-4,1.11-.52,2.19-1.09,3.33-1.53.74-.28,1.64-.88,2.33,0s.33,1.7,0,2.58c-.43,1.08-.83,2.17-1.17,3.28C139,268.6,139.27,269.07,140.19,268.94Z" style="fill:#9a4914"/><path d="M138.3,259.93c-.14-.12-.34-.36-.42-.33-1.4.57-2.94.85-4,2.09a13.57,13.57,0,0,0-3,4.25c-.25.73-1,1.28-1.59,1.91.64-1.69,1.14-3.44,1.93-5.06,3-6.14,2.26-4.3,2.37-10.87,0-1-.23-2.12.92-3l1.83.75c.14,1.41.23,2.82.42,4.22s1,1.75,2.2,1.16,2.26-1.2,3.38-1.8l2.19,4.93Z" style="fill:#9a4914"/><path d="M128.84,261.16q-1,3.49-1.93,7c-.17.6-.42,1.18-.63,1.77l-.47,0a31,31,0,0,1-1.47-5.13,84,84,0,0,1-.5-9.39,4.21,4.21,0,0,1,1.14-2.62,19.24,19.24,0,0,1,3.11-2.27,18.88,18.88,0,0,1,.67,7.44A21.45,21.45,0,0,0,128.84,261.16Z" style="fill:#c38e58"/><path d="M128.84,261.16a21.45,21.45,0,0,1-.08-3.2,18.88,18.88,0,0,0-.67-7.44,8.44,8.44,0,0,1,4.47-2C131.28,252.87,130.06,257,128.84,261.16Z" style="fill:#9a4914"/><path d="M142.36,253.22c-1.12.6-2.24,1.23-3.38,1.8s-2,.15-2.2-1.16-.28-2.81-.42-4.22A15.58,15.58,0,0,1,142.36,253.22Z" style="fill:#c38e58"/><path d="M149.37,285.1l-.42-.35Z" style="fill:#9a4914"/><path d="M157.48,311.62a6.75,6.75,0,0,1-1.27-4.93l3.57-.18C160.53,308.27,159.93,309.74,157.48,311.62Z" style="fill:#f6f1de"/><path d="M156.89,297.27a23.9,23.9,0,0,1-1.19-2.49,1.59,1.59,0,0,1,2.67-1.58,3.26,3.26,0,0,1,.41.42c1.68,1.89,1.37,2.95-1.06,3.56C157.54,297.22,157.34,297.22,156.89,297.27Z" style="fill:#f6f1de"/><path d="M156.32,302.58a11.63,11.63,0,0,1,1.51-2.12,1.49,1.49,0,0,1,2,0,1.39,1.39,0,0,1,.25,1.78,3.49,3.49,0,0,1-.69,1.36c-.47.36-1.24.78-1.68.62S156.84,303.24,156.32,302.58Z" style="fill:#f6f1de"/><path d="M155.16,301c-2.28.25-3.53-.41-4.5-2.28,1.35-1.15,2.39-1,4.86.75Z" style="fill:#f6f1de"/><path d="M161.62,298c1.79-1.1,2-1.12,4.1-.44a3.19,3.19,0,0,1-2.64,2.8,1.58,1.58,0,0,1-1.14-.74A5.3,5.3,0,0,1,161.62,298Z" style="fill:#f6f1de"/><path d="M165.86,306.22c-3.07.38-4.76-1.34-4-4.11A6.52,6.52,0,0,1,165.86,306.22Z" style="fill:#f6f1de"/><path d="M155.29,304.55c-1.62,1.22-3.25,2.07-5.35,1.76C150.59,303.55,153.18,302.62,155.29,304.55Z" style="fill:#f6f1de"/><path d="M157.87,298.28l2-.2c-.7,1.16-1.38.76-2,.78Z" style="fill:#d5ba9d"/><path d="M210.37,247.39c1.93,1.08,3.86,2.15,5.78,3.26a19.18,19.18,0,0,0,8.52,2.6,60.29,60.29,0,0,0,15-1.35,10.82,10.82,0,0,1,5.73.57c-2.75.95-4.9,2.81-7.19,4.52a14.16,14.16,0,0,1-5.12,2.32,28.53,28.53,0,0,1-7.72,1.05c-4.77-.23-9.1-1.35-12.62-4.86a24.86,24.86,0,0,1-3.46-3.94,6,6,0,0,1-.49-1.43l2.42,1.61c-.2-1.68-1.4-2-2-2.84l0-1.43Zm14.87,9.35c2,.71,9.42-.45,11.53-1.73-.27-.2-.49-.5-.72-.51a11.21,11.21,0,0,0-2.32.11c-2.36.44-4.7.93-7,1.45A7.23,7.23,0,0,0,225.24,256.74Z" style="fill:#b16d39"/><path d="M273.36,307.54l.37,0c.15,1.66.25,3.32.45,5a3.17,3.17,0,0,0,1.9,2.88,18.67,18.67,0,0,0,1.19,8c.61,1.62,1.42,3.06,3.16,3.71-1.94.07-1.94.07-3.55,1.64a7.39,7.39,0,0,0-1.48-4.36,19.22,19.22,0,0,1-3.5-9,9.78,9.78,0,0,1,.69-4A10.61,10.61,0,0,0,273.36,307.54Z" style="fill:#b16d39"/><path d="M209.18,248.9c.62.8,1.82,1.16,2,2.84l-2.42-1.61-1.19-1.07Z" style="fill:#78290e"/><path d="M241.91,332.8l-.48.24Z" style="fill:#b26e3a"/><path d="M276.85,313.84c-1.43-.27-1.69-.57-1.49-1.81a7.24,7.24,0,0,1,.4-1.87,1.79,1.79,0,0,1,1-.91c.19-.05.66.48.85.83a3.72,3.72,0,0,1,.16,1.13c-.08.35-.15.7-.23,1.05l-.26.44c-.07.25-.13.5-.19.75l-.23.39Z" style="fill:#74240b"/><path d="M285.09,303.24l3.62,0c-.61.12-1.23.21-1.83.36s-.93.28-1.4.42Z" style="fill:#9a4914"/><path d="M276.86,313.84l.23-.39Z" style="fill:#9a4914"/><path d="M277.28,312.7l.26-.44Z" style="fill:#9a4914"/><path d="M292.17,342.51a3.77,3.77,0,0,1-.38,3.83,18.39,18.39,0,0,1-4.83,5.74,64.85,64.85,0,0,0-5,4.29c-4.24,1.08-8.47,2.18-12.91,2a46.91,46.91,0,0,1-19.86-4.63c-1.4-.71-2.8-1.44-4.23-2.08a30.88,30.88,0,0,1-7.91-5c-1.9-1.69-3.86-3.32-5.78-5a10.48,10.48,0,0,1-.95-1.21,20.64,20.64,0,0,1,7.07-.72c.59,0,1.18,0,1.77.09,3.18.24,6.37.52,9.55.73,1.63.11,3.27.12,4.91.17-1,1-1,1.23,0,1.87A18.79,18.79,0,0,1,256,344a12.92,12.92,0,0,0,5.86,2.94c3.3.7,6.53,1.8,10,1.53,2.07-.16,4.16-.16,6.22-.45a8.59,8.59,0,0,0,3.23-1.19c1.91-1.18,4-2.12,5.51-3.89a16,16,0,0,0,2.8-.39A4.58,4.58,0,0,1,292.17,342.51Z" style="fill:#b26e3a"/><path d="M295.41,338.7c-1.33,1.72-3.38,1.66-5.19,1.84a12.12,12.12,0,0,1-6.57-.62c-2-.95-4.11-.3-6.17,0-3.2.52-6.38.66-9.37-.94-1.9-1-3.95-.78-6-.69-1.43.06-2.85.3-4.28.33-2.56.05-5.12.05-7.67,0-2.74-.07-5.48-.23-8.22-.39a5.1,5.1,0,0,1-1.31-.47,4.83,4.83,0,0,1,2.51-2.54,53,53,0,0,1,10.14-3.6c-.24.94-.49,1.88-.75,2.91,1,1.26,2.44,1.18,3.85,1.17,2.67,0,5.35-.25,8,0,1.94.16,3.43-.2,4.61-1.75,1-1.34,1.15-1.37,3.15-.81l-.25,3.32c2.06.41,2.7.32,4.22-.42,1-.48,2-.9,3-1.33a4.3,4.3,0,0,1,3.41.07,15,15,0,0,0,3.59.73c1,.12,2,0,2.94,0,2.51.08,4.78.67,6.14,3.07C295.28,338.64,295.35,338.66,295.41,338.7Z" style="fill:#9a4914"/><path d="M295.41,338.7c-.06,0-.13-.06-.16-.11-1.36-2.4-3.63-3-6.14-3.07-1,0-2,.09-2.94,0a15,15,0,0,1-3.59-.73,4.3,4.3,0,0,0-3.41-.07c-1,.43-2,.85-3,1.33-1.52.74-2.16.83-4.22.42l.25-3.32c-2-.56-2.14-.53-3.15.81-1.18,1.55-2.67,1.91-4.61,1.75-2.65-.22-5.33,0-8,0-1.41,0-2.84.09-3.85-1.17.26-1,.51-2,.75-2.91,2.54-.85,5.07-1.73,7.62-2.54a8.09,8.09,0,0,1,4.82.12q3.39,1,6.83,1.75a6.59,6.59,0,0,0,6.22-1.49,2.38,2.38,0,0,1,2.54-.54A50,50,0,0,1,294,334.74a23.39,23.39,0,0,1,2.82,2.71Z" style="fill:#b16d39"/><path d="M286.78,343c-1.5,1.77-3.6,2.71-5.51,3.89a8.59,8.59,0,0,1-3.23,1.19c-2.06.29-4.15.29-6.22.45-3.45.27-6.68-.83-10-1.53A12.92,12.92,0,0,1,256,344a18.79,18.79,0,0,0-2.32-1.44c-1-.64-1-.84,0-1.87h1.19l3.54-.15,1.55-.06,1.22-.06h.75l.79.1h.41l2.26.14.89.3a.73.73,0,0,0,.29.07,10.91,10.91,0,0,0,1.37,1.35c2.11,1.53,4.31,2.28,7,1.21a38.11,38.11,0,0,1,5.46-1.45c.8-.19,1.63-.26,2.45-.38l1.47.1.49.19Z" style="fill:#c5915b"/><path d="M282.79,341.82c-.82.12-1.65.19-2.45.38a38.11,38.11,0,0,0-5.46,1.45c-2.65,1.07-4.85.32-7-1.21a10.91,10.91,0,0,1-1.37-1.35c.86.23,1.72.47,2.59.68a19.59,19.59,0,0,0,9.62-.26C280.11,341.15,281.53,340.62,282.79,341.82Z" style="fill:#9a4914"/><path d="M259.94,340.52l-1.55.06A1.08,1.08,0,0,1,259.94,340.52Z" style="fill:#9a4914"/><path d="M266.26,341l-.89-.3Z" style="fill:#9a4914"/><path d="M261.91,340.47h0Z" style="fill:#9a4914"/><path d="M263.11,340.58h0Z" style="fill:#9a4914"/><path d="M254.85,340.73h0Z" style="fill:#b26e3a"/><path d="M284.75,342.11l-.49-.19Z" style="fill:#9a4914"/><path d="M247.34,250.87a7.08,7.08,0,0,1-2.61.3,16.8,16.8,0,0,0-7.53-.11,27.1,27.1,0,0,1-3.5.14,3.88,3.88,0,0,1,.58-1.17,9.66,9.66,0,0,0,2.87-7.45c0-.32,0-.64.06-1a2.19,2.19,0,0,1,2.41.29,11.71,11.71,0,0,1,3.84,3.83,12,12,0,0,0,2.15,2.46C246.43,248.94,247.27,249.64,247.34,250.87Z" style="fill:#d5ba9d"/><path d="M224.1,252c-1.21-.3-2.4-.64-3.61-.89a9.92,9.92,0,0,1-6.93-5c1.42-1.51,3.35-1.93,5.26-2.29a1.42,1.42,0,0,1,1.18.7,19.82,19.82,0,0,0,4.09,7.25S224.09,251.93,224.1,252Z" style="fill:#d5ba9d"/><path d="M226.35,241.52c.44.77.9,1.23.88,1.68s-.63.85-1,.89a.87.87,0,0,1-.9-1.17C225.41,242.51,225.84,242.18,226.35,241.52Z" style="fill:#d5ba9d"/><path d="M438.7,379.43a24.56,24.56,0,0,0,7.46-1.77c-1.79,1.77-4.17,1.88-6.45,2.25C439.41,380,439,379.6,438.7,379.43Z" style="fill:#b26e3a"/><path d="M225.24,256.74a7.23,7.23,0,0,1,1.45-.68c2.34-.52,4.68-1,7-1.45a11.21,11.21,0,0,1,2.32-.11c.23,0,.45.31.72.51C234.66,256.29,227.29,257.45,225.24,256.74Z" style="fill:#78290e"/><rect x="27.75" y="27.75" width="494.5" height="494.5" style="fill:none;stroke:#862a0d;stroke-linecap:round;stroke-linejoin:round;stroke-width:6px"/></svg>