<svg xmlns="http://www.w3.org/2000/svg" viewBox="0 0 267.36 267.6"><title>ghost_plant</title><path d="M37.43,160.24c-3.84-2.6-7.89-5-10.94-8.51a53.83,53.83,0,0,1-3.9-5.72,1.2,1.2,0,0,1,.2-1.71c6.54-6.5,13.42-12.58,21.47-17.18,1.68-1,3.52-1.66,5.26-2.47-3.65-3-7.3-6-10.86-9.08a13.45,13.45,0,0,1-3.49-5.8c-.32-.87.28-1.45,1-1.82q4-2.08,8-4.1c3-1.51,6-3,9-4.45.24-.12.45-.31.77-.52-.47-.61-.92-1.16-1.34-1.74-2.71-3.8-5.39-7.63-8.16-11.4-1.37-1.87-2.95-3.58-4.33-5.43a2.71,2.71,0,0,1-.62-2c.12-.44,1.08-.73,1.72-.92,3.48-1,7-1.93,10.45-3,5.64-1.76,11.17-3.89,17.06-4.72A42.24,42.24,0,0,1,88,71.07c3.33,1.09,6.62,2.31,9.93,3.48l.74.23c-.13-2.26-.35-4.39-.37-6.52,0-4.67-.34-9.38.17-14,.32-2.79,1.84-5.49,3-8.15,3.57-8,7.82-15.56,13.76-22.08a2.08,2.08,0,0,1,2.65-.62c1.76.73,3.54,1.42,5.42,2.18,1.21-2.8,2.41-5.53,3.58-8.27,1.08-2.54,2.14-5.08,3.21-7.62a8.92,8.92,0,0,1,.52-1.08c1-1.68,2.2-1.89,3.38-.34,2.38,3.16,4.63,6.42,6.92,9.64l10.58,14.95c2.07-1.69,4-3.33,6-4.83,2.2-1.65,4.44-3.27,6.77-4.72,1.83-1.15,2.9-.94,3.89.7,4.56,7.56,9.31,15,12.48,23.31,1.46,3.82,1.7,7.86,2.12,12l6.64-1.27q6.22-1.22,12.45-2.45c.9-.17,1.37,0,1,1a4.54,4.54,0,0,1-.51,1.32,8.54,8.54,0,0,0-2.07,5.61c0,1.48,0,3,0,4.59.85-.27,1.75-.53,2.63-.84,4.06-1.44,8.32-1.84,12.55-2.42,1.59-.21,3.16-.44,4.75-.67,2.4-.34,3.17.27,3.21,2.7a70,70,0,0,1-6.55,30.3c-1.91,4.24-4.64,7.92-7.21,11.72l-.52.79c1.44,0,2.7.1,4,0a30.6,30.6,0,0,1,16,3.1c5.22,2.48,10.23,5.4,15.35,8.1,3.25,1.71,6.53,3.36,10,5.17a10,10,0,0,1-1.65,2.14c-6.66,5-13,10.51-20.24,14.74a31.65,31.65,0,0,1-14.27,4.49,11.48,11.48,0,0,0-1.32.28c.52.41.86.7,1.22,1,3.2,2.39,6.48,4.68,9.59,7.19,3.66,3,5.51,7.21,7.52,11.28,2.23,4.51,4.2,9.16,7.2,13.24.09.13.16.28.24.42,1,1.83.78,2.32-1.19,2.91l-22.06,6.49-4,.93c-4.79.23-5.8,1.15-6.49,5.84-.38,2.55-.82,5.1-1.16,7.66-.13,1-.61,1.26-1.53,1.07s-1.56-.28-2.33-.42l-4.8-1a11.22,11.22,0,0,0-1.23-.43l-12.9-3c-.37-.08-.76-.1-1.18-.15-.1.5-.15.89-.25,1.27-.66,2.58-.87,5.39-2.08,7.68-4.13,7.83-8.56,15.51-13,23.17-1.61,2.79-3.19,2.86-5.56.64a28.64,28.64,0,0,0-2.85-2.56,1.89,1.89,0,0,0-1.76,0c-3.19,2.84-6.29,5.77-9.42,8.68-1.85,1.24-3.75,2.41-5.53,3.76-2,1.5-3.86,2.18-5.83.08-.67-.63-1.32-1.28-2-1.89-5.2-4.55-9.94-9.49-13.3-15.61-.35-.65-.72-1.3-1.13-2-.33.32-.58.52-.79.75-1.2,1.29-2.39,2.59-3.6,3.86-1.46,1.52-2.2,1.35-3-.63a1.55,1.55,0,0,1-.07-.23,74.45,74.45,0,0,1-4.32-22.6,10.13,10.13,0,0,0-.22-1.28c-.3.13-.46.17-.59.25-4.22,3-9.11,4.78-13.78,6.92-3.45,1.57-6.91,3.1-10.37,4.66l-5.29,1.66-7.26,1.51-4,.53c-.87,0-1.74-.09-2.61-.1a1.59,1.59,0,0,1-1.74-1.66c-.12-1.22-.33-2.43-.51-3.64.11-1.42.21-2.85.31-4.28a5.31,5.31,0,0,0,.43-1.19c.25-2.11.45-4.24.68-6.35.1-.83-.21-1.32-1.06-1.36-1.7-.08-3.4-.14-5.1-.2l-3.12-.24L48,198.1c-1-.31-1.5-.89-1-2,.22-.51.39-1,.59-1.57l3.54-9.39,2.35-4.54c1.3-2.19,2.61-4.37,3.89-6.57,1-1.75,2-3.51,3.17-5.53l-8.23-1.72-4.56-1.52-6.25-2.89ZM108.25,142l7.17-1.66c.59,1.4-.61,2.13-1.18,3.1l-6.72,6.16c-2,1.29-3.88,2.67-5.91,3.86a91.06,91.06,0,0,0-17.15,13,60.06,60.06,0,0,0-15.08,23.45C67,196.44,65.16,203.09,65,210.12c.07,2.15.15,4.3.22,6.45a1.11,1.11,0,0,0,1.39,1.22c2.72-.34,5.47-.56,8.16-1.07,7.62-1.45,14.65-4.58,21.55-8a7.41,7.41,0,0,0,4-4.08,81.86,81.86,0,0,0,6-6.84c3.11-4.43,5.92-9.07,8.86-13.61a2.66,2.66,0,0,0,.11-2.63c-1.2-2.82-2.44-5.62-3.67-8.43-.42-2.18-.85-4.36-1.32-6.78a22.73,22.73,0,0,0-2,1.34c-1.58,1.35-3.13,2.73-4.68,4.11a22.4,22.4,0,0,0-7.22,11.74,7.56,7.56,0,0,1-1.1,2.61,11.12,11.12,0,0,1-13.12,3.41A3.75,3.75,0,0,1,80,185.79a10.39,10.39,0,0,1,.36-2c.44-1.57.94-3.11,1.41-4.67.35-.48.66-1,1-1.44,1.48-1.68,3-3.33,4.48-5A54.5,54.5,0,0,1,99.9,162c1.64-1,3.17-2.13,4.75-3.2a7.75,7.75,0,0,0,1-.44c2.21-1.49,4.49-2.9,6.59-4.53a10.49,10.49,0,0,0,1.8-2.71c1.27-2.48,2.51-5,3.81-7.42a10.47,10.47,0,0,1,1.15-1.52l.32.14.27,1.36c-1.71,3.65-3.64,7.21-5.08,11-2,5.38-2.87,11-1.34,16.67A47.3,47.3,0,0,0,117.3,181c3.07,5.74,5.79,11.56,6.69,18.08.15,1.1.41,2.19.67,3.51,3.29-3,6.41-5.71,9.32-8.62,5.46-5.45,10.81-11,16.18-16.55a12.84,12.84,0,0,0,3.46-8.09,18.82,18.82,0,0,0-2.7-10.76c-2.53-4.66-5.26-9.22-6.93-14.31-.09-.28-.62-.42-.94-.63l-2.17.72a4.57,4.57,0,0,1-3.84-.67c-1.74-.95-3.52-1.83-5.28-2.74-.77-.4-1.14-.17-1.55.62a26.49,26.49,0,0,1-2.06,3,5.66,5.66,0,0,1-4.92-1.84c-1.9-1.91-3.91-3.7-5.88-5.55l-2.84-2.89a17.34,17.34,0,0,0-5-4.15c-2.18-1.19-3-2.87-2.2-5.16a13.94,13.94,0,0,1,1.81-3.17q4.29-6.26,8.64-12.47c.48-.69.46-1.15-.25-1.68a25.21,25.21,0,0,1-3.58-2.9c-1.77-1.91-3.36-4-5-6a2.11,2.11,0,0,0-1.58-1.89C100.11,94.1,93,91,85.12,90.48c-5.31-.35-10.6.08-15.45,2.42-10,4.82-20,9.83-29.94,14.79a14.37,14.37,0,0,0-2,1.57c1.06.5,1.81.94,2.63,1.24,1.8.64,3.61,1.25,5.44,1.8a3.26,3.26,0,0,1,2.46,3.16,5.51,5.51,0,0,0,1.83,3.78c.63.56,1.21,1.17,1.81,1.76,3.92,3.78,8,7.33,12.95,9.76,4.73,2.31,9.39,4.78,14.61,5.84A36.06,36.06,0,0,0,96.92,138c4-.6,7.83-1.67,11.74-2.52,1.84-.4,3.62-1.25,5.57-.67.76,1.35.74,1.4-.71,1.77-.49.12-1,.26-1.46.39-4.14.18-8.92,3-9.48,5.7Zm34.56-30.5,1.95-2.41c-2.57-.57-4.88-1.14-7.21-1.57a10,10,0,0,0-5.77.17,1.85,1.85,0,0,0-1.94,1.72c-.65,3-1.33,6-1.93,9-.4,2-1.23,4-.7,6.08.3.51.5,1.2.94,1.45a1.67,1.67,0,0,0,1.46-.39c3.61-3.48,7.22-7,10.73-10.56A27,27,0,0,0,142.81,111.48Zm5.69,9.82c-.9,0-1.81.1-2.71.06a4.75,4.75,0,0,0-3.78,1.09,1.91,1.91,0,0,0-.1,2.44,2.08,2.08,0,0,0,1.45.94,16.77,16.77,0,0,0,3.47,0c2.58-.24,5.15-.58,7.72-.84,1.18-.13,1.5.27,1.25,1.44-.41,2-.81,4-1.21,6a5.43,5.43,0,0,0,.46,5.66c.47.68.81,1.46,1.3,2.14a1.06,1.06,0,0,1-.11,1.57c-1.81-.83-3.64-1.62-5.41-2.51s-1.65-.86-2.58,1c.15.11.34.26.54.39,2.73,1.79,5.38,3.72,8.21,5.34,6.22,3.55,12.55,3.8,18.88.17,3.15-1.8,6.34-3.55,9.51-5.32L193,136.5c-.19-.23-.3-.39-.43-.52-3.92-3.94-7.81-7.89-11.76-11.79a15.3,15.3,0,0,0-8.58-4.67c-1.06-.16-2.15-.21-3.19-.44a14.75,14.75,0,0,0-13.32,3.2,6.87,6.87,0,0,1-1.85-1.1,27.44,27.44,0,0,1-2.66-3.67,6.51,6.51,0,0,0-4.52-3.19c-2.43-.49-4.94,1.7-4.81,3.9,2,.66,3.86,1.22,5.69,1.91C148,120.28,148.21,120.9,148.5,121.3ZM122.16,104c2-.52,2.27-.41,3.13,1.48.37.84.59,1.74,1,2.56a22.59,22.59,0,0,0,1.34,2.22c1.22-3.5,1.28-3.8,5.93-4.73-2.33-5.11-4.58-10.19-7-15.2-.43-.89-1.61-1.41-2.45-2.11-1-.37-2.08-.81-3.15-1.1-1.88-.5-2.78.12-2.57,2.06.5,4.62,1.16,9.22,1.83,13.82C120.43,104.7,120.69,104.78,122.16,104Zm4.12,27.44a14.14,14.14,0,0,1,2.92-1.22c3.52-.65,7.07-1.17,10.61-1.69.78-.11,1-.45.66-1.11a15.76,15.76,0,0,0-1.6-2.91c-1.34-1.67-2.36-1.71-4.06-.4-1.48,1.15-2.91,2.37-4.47,3.41a3.3,3.3,0,0,1-4-.09,3.41,3.41,0,0,1-1.37-3.8c.5-2.09,1-4.19,1.45-6.28,1.09-4.64,1.09-4.64-1.94-7.52l-.1-.06c-.17-1-.3-2-.54-3.06s-.77-1.1-1.47-.5a11.4,11.4,0,0,0-2,2.05q-5.39,7.92-10.68,15.91a8.82,8.82,0,0,0-.63,1.88c1.56-.28,2.77-.47,4-.71,2.82-.55,3.9,0,5.09,2.65,1,2.21,1.91,4.48,3.08,6.59,1.39,2.51,3,4.91,4.58,7.28a2.22,2.22,0,0,0,1.67,1c.59-.09,1.11-.82,1.57-1.35.18-.2.14-.61.17-.92.17-1.65-.94-2.68-1.94-3.68C125.6,135.26,125,133.54,126.28,131.44Zm41-41.61a9.23,9.23,0,0,0-4,8.25c.21,3.53.56,7.07,1,10.58a9.28,9.28,0,0,1-1.94,6.94c-.4.52-.72,1.1-1.23,1.9l2-.12a22.88,22.88,0,0,1,3.3-.17c2.22.17,4.43.49,6.65.74,2.13.79,2.61.61,3.56-1.38a24.94,24.94,0,0,0,1.44-3.16,79.29,79.29,0,0,0,2.36-8.12,12.22,12.22,0,0,0-1.54-8.08c-1.55-3-3.09-5.94-4.81-8.81a2.83,2.83,0,0,0-4.25-.91C168.91,88.21,168.1,89.05,167.26,89.83Zm30-10.27q.54-5.88,1.07-11.77c.2-2.26.31-4.54.65-6.78a20.86,20.86,0,0,1,1.14-3.49,3.77,3.77,0,0,0-.69,0c-5.11,1-10.21,2.15-15.33,3.15a23.88,23.88,0,0,0-12.2,5.92,59,59,0,0,0-8.65,11.14,6.1,6.1,0,0,0-.76,1.48q-1.41,4.69-2.74,9.41a9.4,9.4,0,0,0-.18,1.69l.48.2A8.33,8.33,0,0,0,161,89c1.72-5.08,3.7-10.1,6.83-14.44,3.85-5.35,9.59-6.92,14.55-2.35l.85,1.5c1.19-1.09,2.25-2.1,3.36-3.06a1.32,1.32,0,0,1,2.22.34,32.4,32.4,0,0,1,2,3.42A32.4,32.4,0,0,1,193.72,88c0,1.71.28,3.41.43,5.11l.46,0c.36-1.7.75-3.38,1.08-5.08C196.24,85.2,196.75,82.38,197.28,79.56Zm-146.43,1c.73-.4,1.45-.83,2.2-1.18,3.86-1.77,8-2,12.16-2.18,3.27-.15,6.53-.52,9.8-.63a75.63,75.63,0,0,1,10.75,0c4.08.44,7.52,2.33,9.49,6.25A65.44,65.44,0,0,1,98.54,89c1.48,4,5.16,3.93,8.35,5.24a8.45,8.45,0,0,0-.17-.94,38.91,38.91,0,0,1-1.57-11.7,2.16,2.16,0,0,0-1.23-2.09,59.08,59.08,0,0,0-19.46-7.71A44.16,44.16,0,0,0,65,72c-3.74.92-7.35,2.39-11,3.57-4,1.29-8,2.52-12.39,3.89l5.69,2.79c2.35,2.55,4.65,5.15,7.07,7.64,1.52,1.56,3.19,3,4.82,4.44a2.71,2.71,0,0,0,3.23.29c2.69-1.33,5.39-2.62,8.08-3.93a12.69,12.69,0,0,1,6.22-1.51,35.76,35.76,0,0,0,4-.25l.07-.32a15.72,15.72,0,0,0-3-1c-3.31-.48-6.63-.9-10-1.21-4.95-.45-9.83-1.06-14.39-3.23A4.17,4.17,0,0,1,50.85,80.51Zm110.38,94.12a23.07,23.07,0,0,0,4.89,7.53c.7.68.83,1.3.2,2.05a2.14,2.14,0,0,1-.63-.29q-5.08-4.72-10.16-9.48c-.35-.33-.73-.63-1.17-1a5,5,0,0,0,.16,4.88c2.43,4.76,5.54,9.06,10.27,11.75,6.09,3.47,12.25,6.89,19.12,8.68,4.12,1.07,8.27,2,12.41,3a31.64,31.64,0,0,0,9.33,1.81,1.28,1.28,0,0,0,.93-.77,24.54,24.54,0,0,0,0-13.33c-.14-1.1-.3-2.21-.4-3.32-.9-9.93-4.79-18.71-10.4-26.81-3.48-5-8-9.16-12.25-13.46a3.2,3.2,0,0,0-.89-.61,1.7,1.7,0,0,0-2.16.46c-.65.73-.08,1.28.35,1.77,1.31,1.5,2.68,3,4,4.45,6,6.72,10,14.38,11.21,23.4.37,2.75-.32,4.08-2.81,5.11a18.9,18.9,0,0,1-3.57-.8,43.09,43.09,0,0,1-15.19-11.72,26.08,26.08,0,0,0-9.82-7c-1.89-1.19-3.76-2.4-5.68-3.54-.94-.56-1.52-.26-1.73.81a9.14,9.14,0,0,0-.26,2.48A41.08,41.08,0,0,0,161.23,174.63Zm1.44,48.27c.06.8.19,1.59.17,2.39,0,.54-.09,1.36-.42,1.55-.74.43-1.2-.27-1.59-.85a35.24,35.24,0,0,0-2.46-3.53c-3.73-4.21-7.54-8.36-11.32-12.53-4.18-4.59-6.3-10.19-7.89-16.05-.18-.66-.3-1.32-.46-2.08-1.64.9-2.44,2.08-2.1,3.73a23.64,23.64,0,0,0,1.35,4.81,64.43,64.43,0,0,0,3.83,7.32,46.26,46.26,0,0,0,5.24,7.41c5.2,5.58,10.63,11,16,16.36,2.52,2.54,3.26,2.39,5.08-.66,2.87-4.84,5.74-9.69,8.67-14.49a36.66,36.66,0,0,0,5.5-14.18,2.37,2.37,0,0,0-.14-1.49,3.19,3.19,0,0,0-1.5-1c-.1,0-.59.67-.73,1.1-.72,2.19-1.25,4.45-2.11,6.58a10.59,10.59,0,0,1-4.22,5.14c-.06-.26-.09-.4-.12-.55-.24-1.28-.15-2.77-.79-3.81a56.2,56.2,0,0,0-5.73-7.94c-3.56-3.92-7.46-7.54-11.18-11.33-.77-.79-1.22-.52-1.81.19a15.63,15.63,0,0,0-3.63,8.59c-.35,3.63,0,7.17,2.06,10.34a12.15,12.15,0,0,0,.43,1.73A29.18,29.18,0,0,0,162.67,222.9ZM122.4,51.47a14.5,14.5,0,0,1,1.37,2.33,35.29,35.29,0,0,0,3.68,7.88c1.36,2,2.22,4.39,3.39,6.56a5.86,5.86,0,0,0,1.67,1.93c2.18,1.51,4.54,2.79,6.67,4.38a16.66,16.66,0,0,1,6.51,11.32c.29,1.95.53,3.91.8,5.93h3.45c1.58,0,1.81-.16,1.73-1.69-.2-3.58-.36-7.17-.75-10.74-.51-4.62-1.52-9.13-4.09-13.12-1.51-2.35-3-4.71-4.58-7a13.07,13.07,0,0,1-2.35-7.65c0-1.39-.14-2.78-.21-4.18a49.79,49.79,0,0,1,2.36-5.86c2.08-3.78,4.4-3.83,7-.4,3,3.9,4.63,8.45,6.5,12.9a35.61,35.61,0,0,1,2.37,20.17c-.91,5.18-2.12,10.31-3.15,15.47-.1.48,0,1.28.27,1.47a1.71,1.71,0,0,0,1.55-.1,3.12,3.12,0,0,0,1.28-1.69A34.2,34.2,0,0,1,161,79.23a14.86,14.86,0,0,0,1.64-7.41c-.22-4-.45-8-1-11.92a50.58,50.58,0,0,0-8.11-21.2c-6.46-9.61-13.29-19-20-28.44-.28-.4-.64-.74-1.11-1.29-.46,1.31-.83,2.35-1.2,3.39a11.32,11.32,0,0,0-.7,1.22c-1.79,4.21-3.56,8.42-5.34,12.63-.9,2-1.72,4-2.7,6-2,4-4.2,7.89-6.06,11.94-2.61,5.71-3.13,11.82-3,18,0,1.83.66,2.43,2.57,2.41a1.46,1.46,0,0,0,.1-.34,7.84,7.84,0,0,0-.05-1.19c-.63-4,.28-7.69,1.45-11.4.47-1.49,1-1.73,2.52-1.13ZM88.33,145.7c0-1.89-1-2.84-2.79-3.25a27.55,27.55,0,0,0-9.62-.39,15.14,15.14,0,0,0-5.71,1.51,29.59,29.59,0,0,1-11.45,3.48,45,45,0,0,0-7.91,1.66,13.36,13.36,0,0,1-10.66-.55c-1.36-.68-2.74-1.3-4.14-1.89-1.25-.52-1.73-.25-2.1,1-.55,1.88-.1,3.06,1.71,4.41A73.64,73.64,0,0,0,49,159.3a17.56,17.56,0,0,0,8.73,1.61,16.1,16.1,0,0,1,2.85-.17c2,.2,4,.57,6,.84a24,24,0,0,0,4,.46,46.62,46.62,0,0,0,5-.65c1.72-.25,2-.68,1.3-2.29-1-2.56-.72-3.44,1.73-4.69a25.6,25.6,0,0,0,8-6.13A19.53,19.53,0,0,0,88.33,145.7Zm107.75,3.55v.36a2.79,2.79,0,0,0,.59.26c1.4.3,2.8.62,4.22.85,3.89.63,7.78,1.24,11.68,1.8,1,.15,2.08,0,3.11.11,2.14.23,3.67,1.62,5.25,2.92a25.24,25.24,0,0,1,8.36,12c1.12,3.51-.75,6-4.43,6.06a42.13,42.13,0,0,0-7.71.71,6.48,6.48,0,0,1-6.27-1.61c-.81-.73-1.74-1.32-2.81-2.13,0,2.57.07,4.81,0,7a17.32,17.32,0,0,0,2.36,9c.54,1,1.24,1.42,2.33.89,4.73-2.32,9.55-4.46,14.14-7a8.52,8.52,0,0,1,8-.65c1.93.79,4,1.33,6,2l.22-.27a6.91,6.91,0,0,0-.54-1.09,41.23,41.23,0,0,1-5.26-9.92c-2-5.14-4.49-10-8.5-13.89a53.42,53.42,0,0,0-11.63-8.19,2.3,2.3,0,0,0-1.14-.29c-2.39.1-4.78.25-7.17.37s-5,.22-7.49.35C198.21,149,197.14,149.15,196.08,149.25Zm34.41-15.15c-.69-.35-1.07-.56-1.46-.73-8-3.65-16.47-6-24.82-8.65-3.16-1-5.85.33-8.47,1.89a1.8,1.8,0,0,0-.58.74,4,4,0,0,0,.88,5.11,9.39,9.39,0,0,1,1,1.16,17.8,17.8,0,0,0,5.25,4.83,12.81,12.81,0,0,0,8.72,2.28c2.32-.3,4.67-.46,7-.71,3.53-.36,7-1.09,9.85-3.29A27,27,0,0,0,230.49,134.1Zm-44.86-21.86c.94-.12,1.59-.19,2.24-.29a31.91,31.91,0,0,0,9-2.27,32.58,32.58,0,0,0,14.07-13,7.21,7.21,0,0,0,.93-4.85,2,2,0,0,0-2.39-2,11.2,11.2,0,0,0-2.68.55,13.76,13.76,0,0,1-8.69.32,1.09,1.09,0,0,0-1.52.72,10.68,10.68,0,0,0-.41,1.12,50.15,50.15,0,0,1-7.41,15.09C187.74,109.1,186.79,110.57,185.63,112.24Zm-79-33.52.33.06c.11-.36.25-.72.33-1.09.59-2.52,1.14-5.06,1.76-7.57.32-1.33.94-1.49,1.87-.49a19.33,19.33,0,0,1,1.74,2.28,2.06,2.06,0,0,0,2.58.93,13.72,13.72,0,0,1,1.33-.54c1.3-.29,2.7-1,3.91-.72,5.22,1.06,9.7,3.77,14,6.79a4.42,4.42,0,0,1,1.18,1.18c2.34,3.79,5,7.44,5.67,12a1.37,1.37,0,0,0,2.39.79,3.06,3.06,0,0,0,.65-2c-.08-1.55-.41-3.08-.61-4.62-.42-3.28-1.3-6.41-3.91-8.63a48.43,48.43,0,0,0-6.74-4.95,45.52,45.52,0,0,0-13-4.68c-3.55-.82-6.94-2.35-10.39-3.57-1-.36-2-.74-3.1-1.13ZM185,114.64l.05.61a28.14,28.14,0,0,0,2.87.28c2.44,0,4.88-.12,7.31-.16,4.84-.09,9.67-.13,14.51-.25a39.81,39.81,0,0,1,20.51,4.71c6,3.29,12,6.71,19.13,7.12.67,0,1.34,0,2.14,0a2.49,2.49,0,0,0-.23-.48c-1.44-.9-2.82-1.93-4.34-2.68-7.77-3.83-15.55-7.63-23.38-11.34a12.1,12.1,0,0,0-4.59-1.16,116,116,0,0,0-28.15,1.91C188.89,113.61,187,114.16,185,114.64ZM140,239.35c1.11-.94,2.4-2,3.64-3.09s2.47-2.16,2.73-3.84a12.48,12.48,0,0,0-1.22-8.47c-3-5-7.49-8.2-12.77-10.38-1.33-.55-2,.08-2,1.59a25,25,0,0,0,3,11.23C135.44,230.66,137.67,234.89,140,239.35ZM49.42,195a10.7,10.7,0,0,0,1.58.26c4.22-.07,8.45-.13,12.67-.26,2.11-.07,3.12-1,3.26-2.93.22-3,.33-6,.55-9.06.14-2-.68-2.79-2.69-2.79a13.49,13.49,0,0,0-4.86.93,13.77,13.77,0,0,0-7.35,6A68,68,0,0,0,49.42,195ZM199.76,74.54c2.07-.2,4.09-.33,6.07-.63a6.44,6.44,0,0,1,6.59,2.43,22.67,22.67,0,0,0,4.79,4.94,5.68,5.68,0,0,1,1.43,2.41,11.76,11.76,0,0,1,.44,2.3,7.81,7.81,0,0,0,.48-1.14c1.05-5.31,2.4-10.57,2.22-16.06-.1-2.85,0-2.89-2.77-2.67-5.81.47-11.57,1.16-17,3.54A2.85,2.85,0,0,0,200,72.13C199.9,72.88,199.84,73.62,199.76,74.54ZM158.34,229.43l0-.64c-.5-.39-1-.75-1.51-1.17a1.25,1.25,0,0,0-1.91,0c-2.06,2-4.07,4.06-6.16,6-2.62,2.45-5.29,4.85-8,7.25a1,1,0,0,1-1.66-.11c-1-1.16-2.21-2.21-3.17-3.43-2-2.54-3.73-5.3-5.85-7.73-7.28-8.33-10.68-18.28-12.36-29l-.51-3.19-.48-.12c-.37.46-1,.89-1.07,1.37a17.71,17.71,0,0,0,.08,4.18A65.87,65.87,0,0,0,121,220.09c2.48,5.54,5.35,10.82,9.92,15q4.22,3.83,8.4,7.68a1.62,1.62,0,0,0,2.27.12c1.64-1.14,3.32-2.22,4.86-3.48C150.42,236.11,154.37,232.75,158.34,229.43ZM102.93,76.61c0-.55,0-1.11,0-1.65-.24-2.5-.47-5-.75-7.49a31.06,31.06,0,0,1,1.5-13.92,88.88,88.88,0,0,1,11.67-22.33,3.65,3.65,0,0,1,4.78-1.53c1.43.5,1.83.31,2.34-1.11.14-.4.27-.81.44-1.33-2-.88-3.91-1.75-5.86-2.53-.22-.09-.74.19-.92.44q-3.06,4.08-6,8.21c-3.14,4.34-5.19,9.25-7.48,14.05-1.75,3.66-3.21,7.4-3.05,11.57.12,2.79.13,5.59.34,8.37.18,2.46.55,4.91.91,7.35A2,2,0,0,0,102.93,76.61Zm36.8,66.59.16.22a28.67,28.67,0,0,0,4.52-2.31,23.54,23.54,0,0,0,7.26-9.22c.41-.91,1-2.07.09-2.77a4.18,4.18,0,0,0-2.91-.84c-5,.71-10.07,1.58-15.09,2.45-1.76.31-3.52.7-5.24,1.17-1.29.35-1.87,1.45-1.15,2.35a24.89,24.89,0,0,0,4.46,4.75,58.89,58.89,0,0,0,7,3.87A8.39,8.39,0,0,0,139.73,143.2ZM156,118.72l.28.19c.61-.49,1.24-.94,1.81-1.46,3-2.73,5-5.75,4.45-10.14-.57-4.59-.69-9.23-1-13.84-.09-1.39-.22-1.55-1.56-1.39l-17.08,2.13c-2.69.34-4.93,1.34-5.91,4.13a4.43,4.43,0,0,0,.1,3.84c.51-.81.95-1.52,1.4-2.22a5.44,5.44,0,0,1,4.15-2.7c4.2-.44,8.4-.92,12.58-1.49,1.14-.15,1.54.29,1.74,1.25.53,2.57,1.12,5.13,1.58,7.72.8,4.54.49,8.91-2.18,12.87A4.39,4.39,0,0,0,156,118.72ZM59.23,132.64a4.83,4.83,0,0,0-.61-.8c-2.18-1.68-4.35-3.39-6.59-5a2.36,2.36,0,0,0-1.77-.27A22.65,22.65,0,0,0,46.33,128a62.54,62.54,0,0,0-14.84,10.24c-2.13,1.93-4.31,3.81-6.46,5.72-.58.53-1.07,1.16-.58,2s1.2,1.85,1.9,2.93c2.87-3,5.59-5.83,8.35-8.65a42.19,42.19,0,0,1,4.8-4.66c4.42-3.28,9.34-4.76,14.89-3.51C55.87,132.36,57.41,132.42,59.23,132.64ZM164.72,70.78a4.7,4.7,0,0,0,.77-.6c1.51-2.11,3.06-4.2,4.46-6.37a4.63,4.63,0,0,0,.65-2.5c-.06-2.42-.21-4.86-.5-7.27a7.56,7.56,0,0,0-3.62-5.66c-1.13-.71-1.71-.53-2.29.63-1.41,2.78-2.21,5.64-1.18,8.75a5.05,5.05,0,0,1,.19.94C163.7,62.65,164.19,66.6,164.72,70.78ZM177.86,46l.2-.15a2.79,2.79,0,0,0-.14-.65c-.71-1.6-1.31-3.27-2.16-4.8-2.79-5-5.66-9.9-8.51-14.84-.52-.91-1.19-.87-2-.32A60.72,60.72,0,0,0,154,34.34c-.6.64-.91,1.1-.24,1.92s1.33.65,2,.08c1.8-1.45,3.62-2.87,5.41-4.35,1.45-1.2,2.22-1.27,3.49.07,4.14,4.37,8.24,8.79,12.36,13.18C177.32,45.51,177.59,45.75,177.86,46ZM112.55,201a3,3,0,0,0-1.2,2.62c-.23,6.61,1.22,13,2.75,19.34a5.44,5.44,0,0,0,.62,1.16h.39a4.18,4.18,0,0,0,.52-1.44,36.05,36.05,0,0,0-.35-4.88c-.53-3.26-1.24-6.49-1.79-9.74C113.1,205.78,112.87,203.46,112.55,201Z" style="fill:#42b280"/><path d="M37.43,160.24l4.09,2.15c-.34,2.79-1.17,5.48-.78,8.38.64,4.85,1,9.73,1.47,14.6A59.34,59.34,0,0,0,45.64,201q2.38,6.38,5.19,12.58a55.44,55.44,0,0,0,3.54,6c2.82,4.6,5.8,9.08,9.86,12.74,2,1.79,3.86,3.7,5.93,5.39a42,42,0,0,0,6.5,4.64c5.07,2.71,10.21,5.3,15.47,7.61,4.18,1.84,8.57,3.24,12.91,4.68,1.21.41,2.66.06,3.88.44a62.24,62.24,0,0,0,13.4,2.17c2.14.18,4.3.24,6.42.58a32.42,32.42,0,0,0,10.72,0c4.54-.79,9-1.81,13.5-3a79,79,0,0,0,28.47-14c3.63-2.86,7.24-5.75,10.69-8.82a102.82,102.82,0,0,0,7.93-8c3.4-3.81,5.76-8.34,8-12.88,3.15-6.35,6.29-12.73,7.46-19.85l4-.93c-1.5,4.2-2.81,8.49-4.56,12.59-2.54,6-5.16,11.94-8.19,17.68a40.71,40.71,0,0,1-12.07,13.64c-6.2,4.58-12.53,9-18.82,13.45-8.06,5.69-17.16,8.9-26.65,11.22a67.91,67.91,0,0,1-28.42.68,75,75,0,0,0-8.22-.79,62.41,62.41,0,0,1-19.18-4.88A104.43,104.43,0,0,1,71.73,242a70.65,70.65,0,0,1-22.27-25.75,96.2,96.2,0,0,1-10-30.83c-.43-3.32-.53-6.69-.8-10Q38.05,167.83,37.43,160.24Z" style="fill:#ae5a19"/><path d="M215.52,191.19c-1.17,7.12-4.31,13.5-7.46,19.85-2.25,4.54-4.61,9.07-8,12.88a102.82,102.82,0,0,1-7.93,8c-3.45,3.07-7.06,6-10.69,8.82a79,79,0,0,1-28.47,14c-4.45,1.22-9,2.24-13.5,3a32.42,32.42,0,0,1-10.72,0c-2.12-.34-4.28-.4-6.42-.58a62.24,62.24,0,0,1-13.4-2.17c-1.22-.38-2.67,0-3.88-.44-4.34-1.44-8.73-2.84-12.91-4.68-5.26-2.31-10.4-4.9-15.47-7.61a42,42,0,0,1-6.5-4.64c-2.07-1.69-4-3.6-5.93-5.39-4.06-3.66-7-8.14-9.86-12.74a55.44,55.44,0,0,1-3.54-6Q48,207.34,45.64,201a59.34,59.34,0,0,1-3.43-15.58c-.44-4.87-.83-9.75-1.47-14.6-.39-2.9.44-5.59.78-8.38l6.25,2.89a3.84,3.84,0,0,0,0,.59c.55,3.4,1.08,6.8,1.67,10.19.53,3,1.12,6.06,1.69,9.1l-3.54,9.39c-.2.53-.37,1.06-.59,1.57-.5,1.09,0,1.67,1,2l7.2,2.22a38.42,38.42,0,0,1,2.11,4.33,21.73,21.73,0,0,0,5.75,9.29c.18,1.21.39,2.42.51,3.64a1.59,1.59,0,0,0,1.74,1.66c.87,0,1.74.07,2.61.1a15.68,15.68,0,0,1,1.24,1.46c2.16,3.15,4.23,6.37,6.45,9.48a18.26,18.26,0,0,0,7.77,6.57,119.71,119.71,0,0,0,11.53,4,24.64,24.64,0,0,1,10,5.13,16.16,16.16,0,0,0,13.59,3.93,56.61,56.61,0,0,1,12.47-.63c1.14.1,2.28.28,3.43.43,1.85.24,3.69.63,5.55.73a27.41,27.41,0,0,0,15.32-3.89,23.38,23.38,0,0,1,8.48-3.05c2.72-.38,5.32-1,7.38-3,1.28-1.25,2.61-2.46,3.94-3.67,2.39-2.17,4.72-4.4,7.66-5.87a32.27,32.27,0,0,0,10.56-8.82,119.88,119.88,0,0,0,7.23-10,71.18,71.18,0,0,0,3.49-6.79c.77.14,1.56.25,2.33.42s1.4,0,1.53-1.07c.34-2.56.78-5.11,1.16-7.66C209.72,192.34,210.73,191.42,215.52,191.19Z" style="fill:#d38f3b"/><path d="M108.92,98.74c1.66,2,3.25,4.09,5,6a25.21,25.21,0,0,0,3.58,2.9c.71.53.73,1,.25,1.68q-4.35,6.23-8.64,12.47a13.94,13.94,0,0,0-1.81,3.17c-.77,2.29,0,4,2.2,5.16a17.34,17.34,0,0,1,5,4.15l-.28.52c-2-.58-3.73.27-5.57.67-3.91.85-7.79,1.92-11.74,2.52a36.06,36.06,0,0,1-17.48-1.38c1.25-.21,2.49-.46,3.74-.63,4.79-.68,9.35-2,13.33-4.84.76-.55,1.42-1.23,2.13-1.86l-.2-.29a10.58,10.58,0,0,1-1.32.41,53.58,53.58,0,0,1-6,1A27.33,27.33,0,0,1,78.23,128c-5.78-2.5-11.25-5.41-14.49-11.3A14.3,14.3,0,0,1,62,106.57a5,5,0,0,1,.83-1.35c.12.5.24,1,.35,1.51.68,2.94,2.89,4.23,5.78,3.31A15.5,15.5,0,0,0,71.44,109a10.06,10.06,0,0,1,10.17.09A55.84,55.84,0,0,0,87.76,112a14.58,14.58,0,0,0,10.75.44c1.48-.55,2.7-1.52,2.73-3.16.05-3.09-.88-6-3.51-7.75a25.28,25.28,0,0,0-9.45-3.94c-2.93-.57-5.91-.88-8.86-1.3a3.9,3.9,0,0,1,.76-.39,29.78,29.78,0,0,1,7.66-.53,68.55,68.55,0,0,1,14.48,1.87C104.52,97.72,106.72,98.24,108.92,98.74Z" style="fill:#b9e2c1"/><path d="M79.18,217.3l5.29-1.66a6.13,6.13,0,0,0,1.24.23c2.35-.06,4.7-.22,7.05-.19a4.44,4.44,0,0,1,2.26.82,41.14,41.14,0,0,1,3.86,3c1.64,1.43,3.26,2.9,4.8,4.44,2.1,2.09,3.72,4.66,6.41,6.18,2.26,1.26,4.52,2.52,7.19,2a5.61,5.61,0,0,1,4.44,1.18c4,2.78,7.94,5.59,12,8.28a27,27,0,0,0,3.92,1.84c2,2.1,3.85,1.42,5.83-.08,1.78-1.35,3.68-2.52,5.53-3.76,1-.16,2-.25,2.92-.5a22.8,22.8,0,0,1,7.38-1.17c1.7.13,3.42.12,5.12.26a6.94,6.94,0,0,0,6.33-3.16c3.78-5,7.45-10.1,11.22-15.12a13.19,13.19,0,0,1,6.53-4.86,29.83,29.83,0,0,0,9-4.47,24.27,24.27,0,0,1-1.57,4.46,29.44,29.44,0,0,1-11.48,10.71,30.85,30.85,0,0,0-8.37,6.08c-1.89,2.11-4,4-6,6.05a8.29,8.29,0,0,1-5.76,2.48,20.31,20.31,0,0,0-8.66,2.39c-2.59,1.4-5.2,2.77-7.9,3.93-2.88,1.23-5.87,2.26-9.13,1.58-.93-.19-1.87-.34-2.81-.48-3.3-.47-6.59-1-9.89-1.39a20.7,20.7,0,0,0-4.51-.21,20.09,20.09,0,0,1-10.84-1.56c-3.32-1.55-6.56-3.28-9.86-4.88a17.67,17.67,0,0,0-2.58-.84,4.52,4.52,0,0,0-.53-1.13,19.25,19.25,0,0,1-3.88-6.52,17.34,17.34,0,0,0-10.18-11A27.79,27.79,0,0,1,79.18,217.3Z" style="fill:#97501d"/><path d="M81.76,179.13c-.47,1.56-1,3.1-1.41,4.67a10.39,10.39,0,0,0-.36,2,3.75,3.75,0,0,0,2.24,3.76,11.12,11.12,0,0,0,13.12-3.41,7.56,7.56,0,0,0,1.1-2.61,22.4,22.4,0,0,1,7.22-11.74c1.55-1.38,3.1-2.76,4.68-4.11a22.73,22.73,0,0,1,2-1.34c.47,2.42.9,4.6,1.32,6.78a5.94,5.94,0,0,0-.72,1c-1,2.52-1.89,5.08-3,7.58-1.53,3.63-3.7,6.8-7.27,8.74-2.59,1.41-5.27,2.66-7.87,4.06A5.45,5.45,0,0,0,89.75,199c-.33,3.3,3.19,6.07,6,6.08a45.11,45.11,0,0,0,4.61-.42,7.41,7.41,0,0,1-4,4.08c-6.9,3.43-13.93,6.56-21.55,8-2.69.51-5.44.73-8.16,1.07a1.11,1.11,0,0,1-1.39-1.22c-.07-2.15-.15-4.3-.22-6.45a4.81,4.81,0,0,0,2.79-2.78c1-2.46,1.93-5,2.7-7.5a61.73,61.73,0,0,1,8.5-18.1A18.8,18.8,0,0,1,81.76,179.13Z" style="fill:#b6dac1"/><path d="M62.79,105.22a5,5,0,0,0-.83,1.35,14.3,14.3,0,0,0,1.78,10.1c3.24,5.89,8.71,8.8,14.49,11.3a27.33,27.33,0,0,0,12.92,2.44,53.58,53.58,0,0,0,6-1,10.58,10.58,0,0,0,1.32-.41l.2.29c-.71.63-1.37,1.31-2.13,1.86-4,2.87-8.54,4.16-13.33,4.84-1.25.17-2.49.42-3.74.63-5.22-1.06-9.88-3.53-14.61-5.84-5-2.43-9-6-12.95-9.76-.6-.59-1.18-1.2-1.81-1.76a5.51,5.51,0,0,1-1.83-3.78,3.26,3.26,0,0,0-2.46-3.16c-1.83-.55-3.64-1.16-5.44-1.8-.82-.3-1.57-.74-2.63-1.24a14.37,14.37,0,0,1,2-1.57c10-5,19.91-10,29.94-14.79,4.85-2.34,10.14-2.77,15.45-2.42,7.85.52,15,3.62,22.22,6.37a2.11,2.11,0,0,1,1.58,1.89c-2.2-.5-4.4-1-6.6-1.51a68.55,68.55,0,0,0-14.48-1.87,29.78,29.78,0,0,0-7.66.53,3.9,3.9,0,0,0-.76.39l-.45,0-.32,0c-1,.1-2,.14-3,.31a30.91,30.91,0,0,0-10.3,4.29A5,5,0,0,0,62.79,105.22Z" style="fill:#e7f6e9"/><path d="M196.32,201.74c-4.14-1-8.29-1.93-12.41-3-6.87-1.79-13-5.21-19.12-8.68-4.73-2.69-7.84-7-10.27-11.75a5,5,0,0,1-.16-4.88c.44.38.82.68,1.17,1q5.08,4.74,10.16,9.48a2.14,2.14,0,0,0,.63.29c.1.2.16.48.32.6a29.68,29.68,0,0,0,10.09,5.1c2.13.51,4.3,1.32,6.6.35a3.69,3.69,0,0,0-1.84-2.9c-2.78-2.19-5.62-4.33-8.36-6.57-1.32-1.09-1.59-2.24-1-3.1s1.66-.93,3.17-.28c2,.87,4,1.76,6,2.65A19.29,19.29,0,0,0,190.1,182c1.17-.06,2.65.06,3.13-1.56,2.49-1,3.18-2.36,2.81-5.11-1.2-9-5.21-16.68-11.21-23.4-1.33-1.49-2.7-3-4-4.45-.43-.49-1-1-.35-1.77a1.7,1.7,0,0,1,2.16-.46,3.2,3.2,0,0,1,.89.61c4.29,4.3,8.77,8.43,12.25,13.46,5.61,8.1,9.5,16.88,10.4,26.81.1,1.11.26,2.22.4,3.32a3.94,3.94,0,0,0-.45.36c-1.35,1.51-2.83,2.62-5.06,2.34a24.16,24.16,0,0,0-4.08,0c-2.09.11-2.62,1-1.64,2.79A9.39,9.39,0,0,1,196.32,201.74Z" style="fill:#e7f6e9"/><path d="M143.05,143.67c.32.21.85.35.94.63,1.67,5.09,4.4,9.65,6.93,14.31a18.82,18.82,0,0,1,2.7,10.76,12.84,12.84,0,0,1-3.46,8.09C144.79,183,139.44,188.56,134,194c-2.91,2.91-6,5.59-9.32,8.62-.26-1.32-.52-2.41-.67-3.51-.9-6.52-3.62-12.34-6.69-18.08a47.3,47.3,0,0,1-4.16-9.76c-1.53-5.62-.71-11.29,1.34-16.67,1.44-3.75,3.37-7.31,5.08-11a4,4,0,0,1,2.82,3.64,25,25,0,0,1-.23,2.57c-1.91,2.32-2.53,5.21-3.43,8a20.74,20.74,0,0,0-.81,11.45,58,58,0,0,0,3.35,9,14.88,14.88,0,0,0,6.89,7.08,4.44,4.44,0,0,0,1.93.48,13.3,13.3,0,0,0,9.23-3.37c1.77-1.49,3.43-3.11,5.05-4.77,4.11-4.21,5-9.27,3.7-14.85a2.86,2.86,0,0,0-2.69-2.33c.09.5.19,1,.27,1.48a10.19,10.19,0,0,1,.24,1.88,11.79,11.79,0,0,1-10.11,11.38,10.6,10.6,0,0,1-3.08.1c-3.37-.44-5.63-2.62-7.65-5.12.1-.9.13-1.82.32-2.71.48-2.28,1.79-3.28,4.15-3.29,1.8,0,3.61.1,5.4,0a9.92,9.92,0,0,0,3.45-.79,9.53,9.53,0,0,0,5.81-9.15C144.12,150.76,143.45,147.22,143.05,143.67Z" style="fill:#e7f6e9"/><path d="M139.69,47.4c.07,1.4.23,2.79.21,4.18a13.07,13.07,0,0,0,2.35,7.65c1.56,2.31,3.07,4.67,4.58,7,2.57,4,3.58,8.5,4.09,13.12.39,3.57.55,7.16.75,10.74.08,1.53-.15,1.69-1.73,1.69h-3.45c-.27-2-.51-4-.8-5.93a16.66,16.66,0,0,0-6.51-11.32c-2.13-1.59-4.49-2.87-6.67-4.38a5.86,5.86,0,0,1-1.67-1.93c-1.17-2.17-2-4.54-3.39-6.56a35.29,35.29,0,0,1-3.68-7.88,14.5,14.5,0,0,0-1.37-2.33,20.8,20.8,0,0,1,0-3.35c.4-2.37.86-4.75,1.49-7.08s1.71-4.38,2.15-6.65a14.73,14.73,0,0,0-.84-8.18c1.78-4.21,3.55-8.42,5.34-12.63a11.32,11.32,0,0,1,.7-1.22.88.88,0,0,1,.29.2c2.55,3.68,5.11,7.36,7.62,11.08a7.74,7.74,0,0,1,1.28,2.65,10.55,10.55,0,0,1-.21,2.89,23.54,23.54,0,0,0-7.72-10.86c-1.56-1.22-2.43-.89-2.94,1-.69,2.57-1.32,5.17-1.85,7.78-.45,2.16.18,3.43,1.62,4.38a5.18,5.18,0,0,1,1.9,2c1,2.29,2.46,3.59,5.08,3.15a14.2,14.2,0,0,0,.28,8.65C137.14,46.84,138,47.37,139.69,47.4Z" style="fill:#b6dac1"/><path d="M88.33,145.7a19.53,19.53,0,0,1-1.7,2.58,25.6,25.6,0,0,1-8,6.13c-2.45,1.25-2.77,2.13-1.73,4.69.66,1.61.42,2-1.3,2.29a46.62,46.62,0,0,1-5,.65,24,24,0,0,1-4-.46c-2-.27-4-.64-6-.84a16.1,16.1,0,0,0-2.85.17A17.56,17.56,0,0,1,49,159.3a73.64,73.64,0,0,1-13.29-7.57c-1.81-1.35-2.26-2.53-1.71-4.41.37-1.3.85-1.57,2.1-1,1.4.59,2.78,1.21,4.14,1.89a13.36,13.36,0,0,0,10.66.55,45,45,0,0,1,7.91-1.66,29.59,29.59,0,0,0,11.45-3.48,15.14,15.14,0,0,1,5.71-1.51,27.55,27.55,0,0,1,9.62.39C87.36,142.86,88.35,143.81,88.33,145.7Z" style="fill:#b6dac1"/><path d="M155.76,122.28a14.75,14.75,0,0,1,13.32-3.2c1,.23,2.13.28,3.19.44a15.3,15.3,0,0,1,8.58,4.67c4,3.9,7.84,7.85,11.76,11.79.13.13.24.29.43.52l-7.65,4.31c-3.17,1.77-6.36,3.52-9.51,5.32-6.33,3.63-12.66,3.38-18.88-.17-2.83-1.62-5.48-3.55-8.21-5.34-.2-.13-.39-.28-.54-.39.93-1.87.94-1.83,2.58-1s3.6,1.68,5.41,2.51c2.3.72,3.32-.08,3.52-1.94a25.79,25.79,0,0,0-.08-4.39c-.1-2-.86-4,.42-5.91a16.27,16.27,0,0,0,2.22-.33,2,2,0,0,0,1.53-2.37,3.83,3.83,0,0,0-2.62-2.86c-1.88-.46-3.79-.79-5.69-1.18Zm28.51,11.48a4,4,0,0,0-1.57-2.57c-2-1.69-3.88-3.44-5.81-5.19a6.17,6.17,0,0,0-4.27-1.9,5.46,5.46,0,0,0-3.19.91c-1,.8-.11,2,.31,3,.75,1.71,1.55,3.41,2.33,5.11-.57,1.39-1.09,2.8-1.73,4.15-.73,1.55-1.63,3-2.36,4.57a2.46,2.46,0,0,0,.53,3,2.18,2.18,0,0,0,2.65.29,35.76,35.76,0,0,0,10.27-6.22C182.86,137.55,184.65,136.18,184.27,133.76Z" style="fill:#e7f6e9"/><path d="M152.39,208c-2-3.17-2.41-6.71-2.06-10.34A15.63,15.63,0,0,1,154,189c.59-.71,1-1,1.81-.19,3.72,3.79,7.62,7.41,11.18,11.33a56.2,56.2,0,0,1,5.73,7.94c.64,1,.55,2.53.79,3.81,0,.15.06.29.12.55a10.59,10.59,0,0,0,4.22-5.14c.86-2.13,1.39-4.39,2.11-6.58.14-.43.63-1.14.73-1.1a3.19,3.19,0,0,1,1.5,1,2.37,2.37,0,0,1,.14,1.49,36.66,36.66,0,0,1-5.5,14.18c-2.93,4.8-5.8,9.65-8.67,14.49-1.82,3-2.56,3.2-5.08.66-5.39-5.41-10.82-10.78-16-16.36a46.26,46.26,0,0,1-5.24-7.41,64.43,64.43,0,0,1-3.83-7.32,23.64,23.64,0,0,1-1.35-4.81c-.34-1.65.46-2.83,2.1-3.73.16.76.28,1.42.46,2.08,1.59,5.86,3.71,11.46,7.89,16.05,3.78,4.17,7.59,8.32,11.32,12.53a35.24,35.24,0,0,1,2.46,3.53c.39.58.85,1.28,1.59.85.33-.19.4-1,.42-1.55,0-.8-.11-1.59-.17-2.39a8.8,8.8,0,0,0,2.06-1.73c2.9-4.58,4.32-9.45,2.56-14.87a13.85,13.85,0,0,0-7-8.54c-3-1.53-5.33-.51-6.31,2.69-.16.53-.28,1.07-.4,1.62C153.19,204,152.8,206,152.39,208Z" style="fill:#b5dac1"/><path d="M98.17,238.92a17.67,17.67,0,0,1,2.58.84c3.3,1.6,6.54,3.33,9.86,4.88a20.09,20.09,0,0,0,10.84,1.56,20.7,20.7,0,0,1,4.51.21c3.3.41,6.59.92,9.89,1.39.94.14,1.88.29,2.81.48,3.26.68,6.25-.35,9.13-1.58,2.7-1.16,5.31-2.53,7.9-3.93a20.31,20.31,0,0,1,8.66-2.39,8.29,8.29,0,0,0,5.76-2.48c2-2,4.1-3.94,6-6.05a30.85,30.85,0,0,1,8.37-6.08A29.44,29.44,0,0,0,196,215.06a24.27,24.27,0,0,0,1.57-4.46c.56-2.09,1.13-4.17,1.69-6.26l4.8,1a71.18,71.18,0,0,1-3.49,6.79,119.88,119.88,0,0,1-7.23,10,32.27,32.27,0,0,1-10.56,8.82c-2.94,1.47-5.27,3.7-7.66,5.87-1.33,1.21-2.66,2.42-3.94,3.67-2.06,2-4.66,2.63-7.38,3a23.38,23.38,0,0,0-8.48,3.05A27.41,27.41,0,0,1,140,250.41c-1.86-.1-3.7-.49-5.55-.73-1.15-.15-2.29-.33-3.43-.43a56.61,56.61,0,0,0-12.47.63A16.16,16.16,0,0,1,104.91,246a24.64,24.64,0,0,0-10-5.13,119.71,119.71,0,0,1-11.53-4,18.26,18.26,0,0,1-7.77-6.57c-2.22-3.11-4.29-6.33-6.45-9.48a15.68,15.68,0,0,0-1.24-1.46l4-.53a14.32,14.32,0,0,0,.75,1.46c1.7,2.5,3.55,4.91,5.12,7.49A19.79,19.79,0,0,0,89,236.37C92,237.35,95.11,238.08,98.17,238.92Z" style="fill:#ab5514"/><path d="M139.69,47.4c-1.71,0-2.55-.56-3.07-2.1a14.2,14.2,0,0,1-.28-8.65,11.86,11.86,0,0,0,1.19-1.16,10.36,10.36,0,0,0,2.72-6.31,10.55,10.55,0,0,0,.21-2.89,7.74,7.74,0,0,0-1.28-2.65c-2.51-3.72-5.07-7.4-7.62-11.08a.88.88,0,0,0-.29-.2c.37-1,.74-2.08,1.2-3.39.47.55.83.89,1.11,1.29,6.68,9.47,13.51,18.83,20,28.44a50.58,50.58,0,0,1,8.11,21.2c.56,4,.79,7.94,1,11.92A14.86,14.86,0,0,1,161,79.23a34.2,34.2,0,0,0-3.15,10.13,3.12,3.12,0,0,1-1.28,1.69,1.71,1.71,0,0,1-1.55.1c-.29-.19-.37-1-.27-1.47,1-5.16,2.24-10.29,3.15-15.47A35.61,35.61,0,0,0,155.56,54c-1.87-4.45-3.52-9-6.5-12.9-2.61-3.43-4.93-3.38-7,.4A49.79,49.79,0,0,0,139.69,47.4Z" style="fill:#e5f5e9"/><path d="M196.08,149.25c1.06-.1,2.13-.25,3.2-.31,2.49-.13,5-.22,7.49-.35s4.78-.27,7.17-.37a2.3,2.3,0,0,1,1.14.29,53.42,53.42,0,0,1,11.63,8.19c4,3.88,6.48,8.75,8.5,13.89a41.23,41.23,0,0,0,5.26,9.92,6.91,6.91,0,0,1,.54,1.09l-.22.27c-2-.65-4-1.19-6-2a8.52,8.52,0,0,0-8,.65c-4.59,2.57-9.41,4.71-14.14,7-1.09.53-1.79.14-2.33-.89a17.32,17.32,0,0,1-2.36-9c.09-2.23,0-4.47,0-7,1.07.81,2,1.4,2.81,2.13a6.48,6.48,0,0,0,6.27,1.61,42.13,42.13,0,0,1,7.71-.71c3.68-.1,5.55-2.55,4.43-6.06a25.24,25.24,0,0,0-8.36-12c-1.58-1.3-3.11-2.69-5.25-2.92-1-.11-2.09,0-3.11-.11-3.9-.56-7.79-1.17-11.68-1.8-1.42-.23-2.82-.55-4.22-.85a2.79,2.79,0,0,1-.59-.26Z" style="fill:#b5dac1"/><path d="M122.15,149.86a25,25,0,0,0,.23-2.57,4,4,0,0,0-2.82-3.64l-.27-1.36-.32-.14a10.47,10.47,0,0,0-1.15,1.52c-1.3,2.46-2.54,4.94-3.81,7.42a4.85,4.85,0,0,1-.23-1.22c.12-2.15.3-4.3.46-6.45.57-1,1.77-1.7,1.18-3.1,0-2,.6-2.88,1.93-3.16,2,1.85,4,3.64,5.88,5.55a5.66,5.66,0,0,0,4.92,1.84c1,2.78,2,5.57,3.16,8.32a1.92,1.92,0,0,0,1.2,1,5.23,5.23,0,0,0,4.54-1.24c2.49-2.21,3.21-5.2,3.83-8.26l2.17-.72c.4,3.55,1.07,7.09,1.12,10.64a9.53,9.53,0,0,1-5.81,9.15,9.92,9.92,0,0,1-3.45.79c-1.79.13-3.6,0-5.4,0-2.36,0-3.67,1-4.15,3.29-.19.89-.22,1.81-.32,2.71a12.72,12.72,0,0,1-3.7-11c.34-2.63,1.11-5.21,1.67-7.81C123.18,150.71,123.39,149.89,122.15,149.86Z" style="fill:#bcecc1"/><path d="M137.62,243.46a27,27,0,0,1-3.92-1.84c-4-2.69-8-5.5-12-8.28a5.61,5.61,0,0,0-4.44-1.18c-2.67.48-4.93-.78-7.19-2-2.69-1.52-4.31-4.09-6.41-6.18-1.54-1.54-3.16-3-4.8-4.44a41.14,41.14,0,0,0-3.86-3,4.44,4.44,0,0,0-2.26-.82c-2.35,0-4.7.13-7.05.19a6.13,6.13,0,0,1-1.24-.23c3.46-1.56,6.92-3.09,10.37-4.66,4.67-2.14,9.56-3.88,13.78-6.92.13-.08.29-.12.59-.25a10.13,10.13,0,0,1,.22,1.28,74.45,74.45,0,0,0,4.32,22.6,1.55,1.55,0,0,0,.07.23c.77,2,1.51,2.15,3,.63,1.21-1.27,2.4-2.57,3.6-3.86.21-.23.46-.43.79-.75.41.72.78,1.37,1.13,2,3.36,6.12,8.1,11.06,13.3,15.61C136.3,242.18,137,242.83,137.62,243.46Z" style="fill:#873e0b"/><path d="M193.23,180.44c-.48,1.62-2,1.5-3.13,1.56a19.29,19.29,0,0,1-8.79-1.94c-2-.89-4-1.78-6-2.65-1.51-.65-2.64-.53-3.17.28s-.3,2,1,3.1c2.74,2.24,5.58,4.38,8.36,6.57a3.69,3.69,0,0,1,1.84,2.9c-2.3,1-4.47.16-6.6-.35a29.68,29.68,0,0,1-10.09-5.1c-.16-.12-.22-.4-.32-.6.63-.75.5-1.37-.2-2.05a23.07,23.07,0,0,1-4.89-7.53,1.54,1.54,0,0,0,.27-.5c.18-1.82.29-3.64.51-5.45.35-2.76.81-5.51,2.64-7.78a26.08,26.08,0,0,1,9.82,7,43.09,43.09,0,0,0,15.19,11.72A18.9,18.9,0,0,0,193.23,180.44Z" style="fill:#b7dac2"/><path d="M47.28,82.2l-5.69-2.79C46,78,50,76.81,54,75.52c3.68-1.18,7.29-2.65,11-3.57a44.16,44.16,0,0,1,19.45-.13,59.08,59.08,0,0,1,19.46,7.71,2.16,2.16,0,0,1,1.23,2.09,38.91,38.91,0,0,0,1.57,11.7,8.45,8.45,0,0,1,.17.94C103.7,93,100,93,98.54,89a65.44,65.44,0,0,0-3.29-6.25c-2-3.92-5.41-5.81-9.49-6.25a75.63,75.63,0,0,0-10.75,0c-3.27.11-6.53.48-9.8.63-4.16.18-8.3.41-12.16,2.18-.75.35-1.47.78-2.2,1.18Z" style="fill:#e6f5e9"/><path d="M81.76,179.13A18.8,18.8,0,0,0,79,181.74a61.73,61.73,0,0,0-8.5,18.1c-.77,2.54-1.7,5-2.7,7.5A4.81,4.81,0,0,1,65,210.12c.12-7,2-13.68,4.34-20.24a60.06,60.06,0,0,1,15.08-23.45,91.06,91.06,0,0,1,17.15-13c2-1.19,3.94-2.57,5.91-3.86-.12.5-.21,1-.37,1.49-.82,2.57-1.67,5.13-2.5,7.7-1.58,1.07-3.11,2.23-4.75,3.2a54.5,54.5,0,0,0-12.61,10.74c-1.5,1.65-3,3.3-4.48,5C82.42,178.13,82.11,178.65,81.76,179.13Z" style="fill:#e7f6e9"/><path d="M230.49,134.1a27,27,0,0,1-2.6,2.63c-2.89,2.2-6.32,2.93-9.85,3.29-2.33.25-4.68.41-7,.71a12.81,12.81,0,0,1-8.72-2.28,17.8,17.8,0,0,1-5.25-4.83,9.39,9.39,0,0,0-1-1.16,4,4,0,0,1-.88-5.11,1.8,1.8,0,0,1,.58-.74c2.62-1.56,5.31-2.9,8.47-1.89,8.35,2.66,16.81,5,24.82,8.65C229.42,133.54,229.8,133.75,230.49,134.1Z" style="fill:#b6dac1"/><path d="M199.21,204.34c-.56,2.09-1.13,4.17-1.69,6.26a29.83,29.83,0,0,1-9,4.47,13.19,13.19,0,0,0-6.53,4.86c-3.77,5-7.44,10.11-11.22,15.12a6.94,6.94,0,0,1-6.33,3.16c-1.7-.14-3.42-.13-5.12-.26a22.8,22.8,0,0,0-7.38,1.17c-1,.25-2,.34-2.92.5,3.13-2.91,6.23-5.84,9.42-8.68a1.89,1.89,0,0,1,1.76,0,28.64,28.64,0,0,1,2.85,2.56c2.37,2.22,4,2.15,5.56-.64,4.44-7.66,8.87-15.34,13-23.17,1.21-2.29,1.42-5.1,2.08-7.68.1-.38.15-.77.25-1.27.42.05.81.07,1.18.15l12.9,3A11.22,11.22,0,0,1,199.21,204.34Z" style="fill:#873e0b"/><path d="M100.36,204.63a45.11,45.11,0,0,1-4.61.42c-2.81,0-6.33-2.78-6-6.08a5.45,5.45,0,0,1,3.07-4.42c2.6-1.4,5.28-2.65,7.87-4.06,3.57-1.94,5.74-5.11,7.27-8.74,1.06-2.5,2-5.06,3-7.58a5.94,5.94,0,0,1,.72-1c1.23,2.81,2.47,5.61,3.67,8.43a2.66,2.66,0,0,1-.11,2.63c-2.94,4.54-5.75,9.18-8.86,13.61A81.86,81.86,0,0,1,100.36,204.63Z" style="fill:#e7f6e9"/><path d="M185.63,112.24c1.16-1.67,2.11-3.14,3.14-4.54a50.15,50.15,0,0,0,7.41-15.09,10.68,10.68,0,0,1,.41-1.12,1.09,1.09,0,0,1,1.52-.72,13.76,13.76,0,0,0,8.69-.32,11.2,11.2,0,0,1,2.68-.55,2,2,0,0,1,2.39,2,7.21,7.21,0,0,1-.93,4.85,32.58,32.58,0,0,1-14.07,13,31.91,31.91,0,0,1-9,2.27C187.22,112.05,186.57,112.12,185.63,112.24Z" style="fill:#b5dac1"/><path d="M182.39,72.18c-5-4.57-10.7-3-14.55,2.35-3.13,4.34-5.11,9.36-6.83,14.44a8.33,8.33,0,0,1-.94,1.55l-.48-.2a9.4,9.4,0,0,1,.18-1.69q1.33-4.72,2.74-9.41a6.1,6.1,0,0,1,.76-1.48,59,59,0,0,1,8.65-11.14,23.88,23.88,0,0,1,12.2-5.92c5.12-1,10.22-2.1,15.33-3.15a3.77,3.77,0,0,1,.69,0A20.86,20.86,0,0,0,199,61c-.34,2.24-.45,4.52-.65,6.78q-.54,5.88-1.07,11.77a40.11,40.11,0,0,1-.93-4,16.77,16.77,0,0,0-3.14-8.24,4,4,0,0,0-4.54-1.48C185.38,66.77,183.61,69.2,182.39,72.18Z" style="fill:#e5f5e9"/><path d="M152.39,208c.41-2,.8-3.93,1.21-5.89.12-.55.24-1.09.4-1.62,1-3.2,3.31-4.22,6.31-2.69a13.85,13.85,0,0,1,7,8.54c1.76,5.42.34,10.29-2.56,14.87a8.8,8.8,0,0,1-2.06,1.73,29.18,29.18,0,0,1-9.85-13.21A12.15,12.15,0,0,1,152.39,208Z" style="fill:#e8f7eb"/><path d="M106.6,78.72V62.77c1.06.39,2.07.77,3.1,1.13,3.45,1.22,6.84,2.75,10.39,3.57a45.52,45.52,0,0,1,13,4.68,48.43,48.43,0,0,1,6.74,4.95c2.61,2.22,3.49,5.35,3.91,8.63.2,1.54.53,3.07.61,4.62a3.06,3.06,0,0,1-.65,2,1.37,1.37,0,0,1-2.39-.79c-.66-4.59-3.33-8.24-5.67-12a4.42,4.42,0,0,0-1.18-1.18c-4.31-3-8.79-5.73-14-6.79-1.21-.24-2.61.43-3.91.72a13.72,13.72,0,0,0-1.33.54,2.06,2.06,0,0,1-2.58-.93,19.33,19.33,0,0,0-1.74-2.28c-.93-1-1.55-.84-1.87.49-.62,2.51-1.17,5-1.76,7.57-.08.37-.22.73-.33,1.09Z" style="fill:#e5f5e9"/><path d="M167.26,89.83c.84-.78,1.65-1.62,2.54-2.34a2.83,2.83,0,0,1,4.25.91c1.72,2.87,3.26,5.84,4.81,8.81a12.22,12.22,0,0,1,1.54,8.08,79.29,79.29,0,0,1-2.36,8.12,24.94,24.94,0,0,1-1.44,3.16c-.95,2-1.43,2.17-3.56,1.38,0-1.18,0-2.35,0-3.53a20.43,20.43,0,0,0-2.87-10.67A20.72,20.72,0,0,1,168,94.1C168,92.63,168.22,91.13,167.26,89.83Z" style="fill:#b6dac1"/><path d="M185,114.64c2-.48,3.88-1,5.83-1.44A116,116,0,0,1,219,111.29a12.1,12.1,0,0,1,4.59,1.16c7.83,3.71,15.61,7.51,23.38,11.34,1.52.75,2.9,1.78,4.34,2.68a2.49,2.49,0,0,1,.23.48c-.8,0-1.47,0-2.14,0-7.1-.41-13.12-3.83-19.13-7.12a39.81,39.81,0,0,0-20.51-4.71c-4.84.12-9.67.16-14.51.25-2.43,0-4.87.15-7.31.16a28.14,28.14,0,0,1-2.87-.28Z" style="fill:#e5f5e9"/><path d="M98.17,238.92c-3.06-.84-6.16-1.57-9.17-2.55a19.79,19.79,0,0,1-11.21-8.61c-1.57-2.58-3.42-5-5.12-7.49a14.32,14.32,0,0,1-.75-1.46l7.26-1.51a27.79,27.79,0,0,0,4.4,3,17.34,17.34,0,0,1,10.18,11,19.25,19.25,0,0,0,3.88,6.52A4.52,4.52,0,0,1,98.17,238.92Z" style="fill:#d4995f"/><path d="M140,239.35c-2.3-4.46-4.53-8.69-6.67-13a25,25,0,0,1-3-11.23c0-1.51.69-2.14,2-1.59,5.28,2.18,9.82,5.36,12.77,10.38a12.48,12.48,0,0,1,1.22,8.47c-.26,1.68-1.53,2.77-2.73,3.84S141.08,238.41,140,239.35Z" style="fill:#b5dac1"/><path d="M49.42,195a68,68,0,0,1,3.16-7.81,13.77,13.77,0,0,1,7.35-6,13.49,13.49,0,0,1,4.86-.93c2,0,2.83.82,2.69,2.79-.22,3-.33,6-.55,9.06-.14,1.94-1.15,2.86-3.26,2.93-4.22.13-8.45.19-12.67.26A10.7,10.7,0,0,1,49.42,195Z" style="fill:#b5dac1"/><path d="M199.76,74.54c.08-.92.14-1.66.21-2.41A2.85,2.85,0,0,1,202,69.66c5.42-2.38,11.18-3.07,17-3.54,2.76-.22,2.67-.18,2.77,2.67.18,5.49-1.17,10.75-2.22,16.06a7.81,7.81,0,0,1-.48,1.14,11.76,11.76,0,0,0-.44-2.3,5.68,5.68,0,0,0-1.43-2.41,22.67,22.67,0,0,1-4.79-4.94,6.44,6.44,0,0,0-6.59-2.43C203.85,74.21,201.83,74.34,199.76,74.54Z" style="fill:#b5dac1"/><path d="M158.34,229.43c-4,3.32-7.92,6.68-11.93,9.95-1.54,1.26-3.22,2.34-4.86,3.48a1.62,1.62,0,0,1-2.27-.12q-4.18-3.86-8.4-7.68c-4.57-4.15-7.44-9.43-9.92-15a65.87,65.87,0,0,1-5.14-17.24,17.71,17.71,0,0,1-.08-4.18c0-.48.7-.91,1.07-1.37l.48.12.51,3.19c1.68,10.7,5.08,20.65,12.36,29,2.12,2.43,3.85,5.19,5.85,7.73,1,1.22,2.13,2.27,3.17,3.43a1,1,0,0,0,1.66.11c2.67-2.4,5.34-4.8,8-7.25,2.09-2,4.1-4,6.16-6a1.25,1.25,0,0,1,1.91,0c.47.42,1,.78,1.51,1.17Z" style="fill:#b3d9bf"/><path d="M126.28,131.44c-1.29,2.1-.68,3.82.94,5.46,1,1,2.11,2,1.94,3.68,0,.31,0,.72-.17.92-.46.53-1,1.26-1.57,1.35a2.22,2.22,0,0,1-1.67-1c-1.6-2.37-3.19-4.77-4.58-7.28-1.17-2.11-2.08-4.38-3.08-6.59-1.19-2.63-2.27-3.2-5.09-2.65-1.2.24-2.41.43-4,.71a8.82,8.82,0,0,1,.63-1.88q5.31-8,10.68-15.91a11.4,11.4,0,0,1,2-2.05c.7-.6,1.25-.41,1.47.5s.37,2,.54,3.06c-2.53,3.78-5.07,7.55-7.58,11.34-.91,1.37-.85,2,.65,2.61A18.78,18.78,0,0,1,126.28,131.44Z" style="fill:#e5f5e9"/><path d="M167.26,89.83c1,1.3.71,2.8.74,4.27a20.72,20.72,0,0,0,2.18,9.65,20.43,20.43,0,0,1,2.87,10.67c0,1.18,0,2.35,0,3.53-2.22-.25-4.43-.57-6.65-.74a22.88,22.88,0,0,0-3.3.17l-2,.12c.51-.8.83-1.38,1.23-1.9a9.28,9.28,0,0,0,1.94-6.94c-.42-3.51-.77-7-1-10.58A9.23,9.23,0,0,1,167.26,89.83Z" style="fill:#bbecc0"/><path d="M102.93,76.61a2,2,0,0,1-2.11-1.9c-.36-2.44-.73-4.89-.91-7.35-.21-2.78-.22-5.58-.34-8.37-.16-4.17,1.3-7.91,3.05-11.57,2.29-4.8,4.34-9.71,7.48-14.05q3-4.14,6-8.21c.18-.25.7-.53.92-.44,2,.78,3.87,1.65,5.86,2.53-.17.52-.3.93-.44,1.33-.51,1.42-.91,1.61-2.34,1.11a3.65,3.65,0,0,0-4.78,1.53,88.88,88.88,0,0,0-11.67,22.33,31.06,31.06,0,0,0-1.5,13.92c.28,2.49.51,5,.75,7.49C103,75.5,102.93,76.06,102.93,76.61Z" style="fill:#b3d9c0"/><path d="M139.73,143.2a8.39,8.39,0,0,1-.88-.33,58.89,58.89,0,0,1-7-3.87,24.89,24.89,0,0,1-4.46-4.75c-.72-.9-.14-2,1.15-2.35,1.72-.47,3.48-.86,5.24-1.17,5-.87,10-1.74,15.09-2.45a4.18,4.18,0,0,1,2.91.84c.88.7.32,1.86-.09,2.77a23.54,23.54,0,0,1-7.26,9.22,28.67,28.67,0,0,1-4.52,2.31Zm1.92-4.33c2.68-.06,6-3.86,5.67-6.35a1.75,1.75,0,0,0-1.91-1.59,9.7,9.7,0,0,0-1.29.23c-2.26.49-4.52.94-6.77,1.5-1.68.41-2.37,2.1-1.21,3,1.52,1.15,3.2,2.09,4.83,3.09A1.72,1.72,0,0,0,141.65,138.87Z" style="fill:#b9ebbf"/><path d="M47.28,82.2l3.57-1.69a4.17,4.17,0,0,0,2.61,2.57c4.56,2.17,9.44,2.78,14.39,3.23,3.33.31,6.65.73,10,1.21a15.72,15.72,0,0,1,3,1l-.07.32a35.76,35.76,0,0,1-4,.25,12.69,12.69,0,0,0-6.22,1.51c-2.69,1.31-5.39,2.6-8.08,3.93a2.71,2.71,0,0,1-3.23-.29c-1.63-1.45-3.3-2.88-4.82-4.44C51.93,87.35,49.63,84.75,47.28,82.2Z" style="fill:#b5dac1"/><path d="M126.28,131.44a18.78,18.78,0,0,0-8.86-7.72c-1.5-.63-1.56-1.24-.65-2.61,2.51-3.79,5-7.56,7.58-11.34l.1.06c3,2.88,3,2.88,1.94,7.52-.49,2.09-1,4.19-1.45,6.28a3.41,3.41,0,0,0,1.37,3.8,3.3,3.3,0,0,0,4,.09c1.56-1,3-2.26,4.47-3.41,1.7-1.31,2.72-1.27,4.06.4a15.76,15.76,0,0,1,1.6,2.91c.33.66.12,1-.66,1.11-3.54.52-7.09,1-10.61,1.69A14.14,14.14,0,0,0,126.28,131.44Z" style="fill:#bbecc0"/><path d="M125.23,26.21a14.73,14.73,0,0,1,.84,8.18c-.44,2.27-1.54,4.4-2.15,6.65s-1.09,4.71-1.49,7.08a20.8,20.8,0,0,0,0,3.35l-2.3-1c-1.48-.6-2-.36-2.52,1.13-1.17,3.71-2.08,7.45-1.45,11.4a7.84,7.84,0,0,1,.05,1.19,1.46,1.46,0,0,1-.1.34c-1.91,0-2.52-.58-2.57-2.41-.17-6.2.35-12.31,3-18,1.86-4.05,4.07-7.94,6.06-11.94C123.51,30.23,124.33,28.21,125.23,26.21Z" style="fill:#e5f5e9"/><path d="M156,118.72a4.39,4.39,0,0,1,.37-1.11c2.67-4,3-8.33,2.18-12.87-.46-2.59-1.05-5.15-1.58-7.72-.2-1-.6-1.4-1.74-1.25-4.18.57-8.38,1-12.58,1.49a5.44,5.44,0,0,0-4.15,2.7c-.45.7-.89,1.41-1.4,2.22a4.43,4.43,0,0,1-.1-3.84c1-2.79,3.22-3.79,5.91-4.13L160,92.08c1.34-.16,1.47,0,1.56,1.39.3,4.61.42,9.25,1,13.84.55,4.39-1.49,7.41-4.45,10.14-.57.52-1.2,1-1.81,1.46Z" style="fill:#e4f5e8"/><path d="M59.23,132.64c-1.82-.22-3.36-.28-4.84-.61-5.55-1.25-10.47.23-14.89,3.51a42.19,42.19,0,0,0-4.8,4.66c-2.76,2.82-5.48,5.67-8.35,8.65-.7-1.08-1.33-2-1.9-2.93s0-1.46.58-2c2.15-1.91,4.33-3.79,6.46-5.72A62.54,62.54,0,0,1,46.33,128a22.65,22.65,0,0,1,3.93-1.39,2.36,2.36,0,0,1,1.77.27c2.24,1.6,4.41,3.31,6.59,5A4.83,4.83,0,0,1,59.23,132.64Z" style="fill:#b3d9c0"/><path d="M182.39,72.18c1.22-3,3-5.41,6.28-6.35a4,4,0,0,1,4.54,1.48,16.77,16.77,0,0,1,3.14,8.24,40.11,40.11,0,0,0,.93,4c-.53,2.82-1,5.64-1.59,8.45-.33,1.7-.72,3.38-1.08,5.08l-.46,0c-.15-1.7-.4-3.4-.43-5.11a32.4,32.4,0,0,0-2.94-13.57,32.4,32.4,0,0,0-2-3.42,1.32,1.32,0,0,0-2.22-.34c-1.11,1-2.17,2-3.36,3.06Z" style="fill:#b5dac1"/><path d="M196.32,201.74a9.39,9.39,0,0,0-1-6.82c-1-1.8-.45-2.68,1.64-2.79a24.16,24.16,0,0,1,4.08,0c2.23.28,3.71-.83,5.06-2.34a3.94,3.94,0,0,1,.45-.36,24.54,24.54,0,0,1,0,13.33,1.28,1.28,0,0,1-.93.77A31.64,31.64,0,0,1,196.32,201.74Z" style="fill:#b7dac2"/><path d="M164.72,70.78c-.53-4.18-1-8.13-1.52-12.08a5.05,5.05,0,0,0-.19-.94c-1-3.11-.23-6,1.18-8.75.58-1.16,1.16-1.34,2.29-.63A7.56,7.56,0,0,1,170.1,54c.29,2.41.44,4.85.5,7.27a4.63,4.63,0,0,1-.65,2.5c-1.4,2.17-2.95,4.26-4.46,6.37A4.7,4.7,0,0,1,164.72,70.78Z" style="fill:#b5dac1"/><path d="M177.86,46c-.27-.25-.54-.49-.79-.76-4.12-4.39-8.22-8.81-12.36-13.18-1.27-1.34-2-1.27-3.49-.07-1.79,1.48-3.61,2.9-5.41,4.35-.7.57-1.31.79-2-.08s-.36-1.28.24-1.92a60.72,60.72,0,0,1,11.23-9.1c.81-.55,1.48-.59,2,.32,2.85,4.94,5.72,9.87,8.51,14.84.85,1.53,1.45,3.2,2.16,4.8a2.79,2.79,0,0,1,.14.65Z" style="fill:#b3d9c0"/><path d="M124.08,88.22c.84.7,2,1.22,2.45,2.11,2.43,5,4.68,10.09,7,15.2-4.65.93-4.71,1.23-5.93,4.73a22.59,22.59,0,0,1-1.34-2.22c-.39-.82-.61-1.72-1-2.56-.86-1.89-1.14-2-3.13-1.48.17-.85.29-1.71.5-2.54.8-3.13,2.18-6.15,1.89-9.49C124.44,90.72,124.24,89.47,124.08,88.22Z" style="fill:#baebc0"/><path d="M140.88,144.39c-.62,3.06-1.34,6.05-3.83,8.26a5.23,5.23,0,0,1-4.54,1.24,1.92,1.92,0,0,1-1.2-1c-1.11-2.75-2.12-5.54-3.16-8.32a26.49,26.49,0,0,0,2.06-3c.41-.79.78-1,1.55-.62,1.76.91,3.54,1.79,5.28,2.74A4.57,4.57,0,0,0,140.88,144.39Z" style="fill:#b6dac1"/><path d="M155.54,122.75c1.9.39,3.81.72,5.69,1.18a3.83,3.83,0,0,1,2.62,2.86,2,2,0,0,1-1.53,2.37,16.27,16.27,0,0,1-2.22.33,4.1,4.1,0,0,0-3.89,1.55,11.52,11.52,0,0,1-1.62,1.32c.4-2,.8-4,1.21-6,.25-1.17-.07-1.57-1.25-1.44-2.57.26-5.14.6-7.72.84a16.77,16.77,0,0,1-3.47,0,2.08,2.08,0,0,1-1.45-.94,1.91,1.91,0,0,1,.1-2.44,4.75,4.75,0,0,1,3.78-1.09c.9,0,1.81,0,2.71-.06Z" style="fill:#b5dac1"/><path d="M124.08,88.22c.16,1.25.36,2.5.47,3.75.29,3.34-1.09,6.36-1.89,9.49-.21.83-.33,1.69-.5,2.54-1.47.78-1.73.7-2-1-.67-4.6-1.33-9.2-1.83-13.82-.21-1.94.69-2.56,2.57-2.06C122,87.41,123,87.85,124.08,88.22Z" style="fill:#b5dac1"/><path d="M164.65,160.9c-1.83,2.27-2.29,5-2.64,7.78-.22,1.81-.33,3.63-.51,5.45a1.54,1.54,0,0,1-.27.5,41.08,41.08,0,0,1-4.25-14,9.14,9.14,0,0,1,.26-2.48c.21-1.07.79-1.37,1.73-.81C160.89,158.5,162.76,159.71,164.65,160.9Z" style="fill:#baebc0"/><path d="M52.33,166.8l8.23,1.72c-1.15,2-2.14,3.78-3.17,5.53-1.28,2.2-2.59,4.38-3.89,6.57-.37-.4-1-.74-1.07-1.2a17.88,17.88,0,0,1-.54-4.1C51.94,172.48,52.17,169.64,52.33,166.8Z" style="fill:#d4995f"/><path d="M104.65,158.77c.83-2.57,1.68-5.13,2.5-7.7.16-.48.25-1,.37-1.49l6.72-6.16c-.16,2.15-.34,4.3-.46,6.45a4.85,4.85,0,0,0,.23,1.22,10.49,10.49,0,0,1-1.8,2.71c-2.1,1.63-4.38,3-6.59,4.53A7.75,7.75,0,0,1,104.65,158.77Z" style="fill:#b5dac1"/><path d="M154.59,132.36a11.52,11.52,0,0,0,1.62-1.32,4.1,4.1,0,0,1,3.89-1.55c-1.28,1.89-.52,3.92-.42,5.91a25.79,25.79,0,0,1,.08,4.39c-.2,1.86-1.22,2.66-3.52,1.94a1.06,1.06,0,0,0,.11-1.57c-.49-.68-.83-1.46-1.3-2.14A5.43,5.43,0,0,1,154.59,132.36Z" style="fill:#bcecc1"/><path d="M155.54,122.75l-7-1.45c-.29-.4-.5-1-.89-1.17-1.83-.69-3.7-1.25-5.69-1.91-.13-2.2,2.38-4.39,4.81-3.9a6.51,6.51,0,0,1,4.52,3.19,27.44,27.44,0,0,0,2.66,3.67,6.87,6.87,0,0,0,1.85,1.1Z" style="fill:#b9ebbf"/><path d="M52.33,166.8c-.16,2.84-.39,5.68-.44,8.52a17.88,17.88,0,0,0,.54,4.1c.1.46.7.8,1.07,1.2l-2.35,4.54c-.57-3-1.16-6.06-1.69-9.1-.59-3.39-1.12-6.79-1.67-10.19a3.84,3.84,0,0,1,0-.59Z" style="fill:#aa5715"/><path d="M127.21,124.44c-.53-2.11.3-4.08.7-6.08.6-3,1.28-6,1.93-9a1.85,1.85,0,0,1,1.94-1.72c.81.63,1.62,1.26,2.42,1.91a4.84,4.84,0,0,1,2.15,3c-.4,0-.79,0-1.19.08-1.29.13-2.59.39-3.33,1.54a52.72,52.72,0,0,0-2.8,5,1.61,1.61,0,0,0,.33,2.16C129.09,122.7,128.63,123.91,127.21,124.44Z" style="fill:#b3d9c0"/><path d="M127.21,124.44c1.42-.53,1.88-1.74,2.15-3.08a4.4,4.4,0,0,0,1.32-.48c1.91-1.55,3.84-3.09,5.62-4.78a2.84,2.84,0,0,0,.74-3.18l5.77-1.44a27,27,0,0,1-2.47,3.46c-3.51,3.59-7.12,7.08-10.73,10.56a1.67,1.67,0,0,1-1.46.39C127.71,125.64,127.51,125,127.21,124.44Z" style="fill:#b9ebbf"/><path d="M112.55,201c.32,2.43.55,4.75.94,7.05.55,3.25,1.26,6.48,1.79,9.74a36.05,36.05,0,0,1,.35,4.88,4.18,4.18,0,0,1-.52,1.44h-.39a5.44,5.44,0,0,1-.62-1.16c-1.53-6.36-3-12.73-2.75-19.34A3,3,0,0,1,112.55,201Z" style="fill:#b3d9bf"/><path d="M142.81,111.48,137,112.92l-.69-.31a4.84,4.84,0,0,0-2.15-3c-.8-.65-1.61-1.28-2.42-1.91a10,10,0,0,1,5.77-.17c2.33.43,4.64,1,7.21,1.57Z" style="fill:#e5f5e9"/><path d="M63.08,213.94a21.73,21.73,0,0,1-5.75-9.29,38.42,38.42,0,0,0-2.11-4.33l3.12.24c1.21,2.34,2.38,4.7,3.63,7a20.51,20.51,0,0,0,1.42,2.07C63.29,211.09,63.19,212.52,63.08,213.94Z" style="fill:#aa5715"/><path d="M63.39,209.66A20.51,20.51,0,0,1,62,207.59c-1.25-2.33-2.42-4.69-3.63-7,1.7.06,3.4.12,5.1.2.85,0,1.16.53,1.06,1.36-.23,2.11-.43,4.24-.68,6.35A5.31,5.31,0,0,1,63.39,209.66Z" style="fill:#d4995f"/><path d="M117.35,137.16c-1.33.28-1.88,1.17-1.93,3.16L108.25,142a8.39,8.39,0,0,1,.83-1.67c.94-1.16,2-2.25,3-3.36.49-.13,1-.27,1.46-.39,1.45-.37,1.47-.42.71-1.77l.28-.52Z" style="fill:#b5dac1"/><path d="M112.06,137c-1,1.11-2,2.2-3,3.36a8.39,8.39,0,0,0-.83,1.67l-5.67.67C103.14,139.93,107.92,137.13,112.06,137Z" style="fill:#e4f5e8"/><path d="M79,96.24l.45,0c3,.42,5.93.73,8.86,1.3a25.28,25.28,0,0,1,9.45,3.94c2.63,1.79,3.56,4.66,3.51,7.75,0,1.64-1.25,2.61-2.73,3.16A14.58,14.58,0,0,1,87.76,112a55.84,55.84,0,0,1-6.15-2.93A10.06,10.06,0,0,0,71.44,109,15.5,15.5,0,0,1,68.92,110c-2.89.92-5.1-.37-5.78-3.31-.11-.5-.23-1-.35-1.51a5,5,0,0,1,2.6-4.43,30.91,30.91,0,0,1,10.3-4.29c1-.17,2-.21,3-.31Z" style="fill:#42b27f"/><path d="M79,96.24l-.32,0Z" style="fill:#b9e2c1"/><path d="M122.15,149.86c1.24,0,1,.85.86,1.61-.56,2.6-1.33,5.18-1.67,7.81a12.72,12.72,0,0,0,3.7,11c2,2.5,4.28,4.68,7.65,5.12a10.6,10.6,0,0,0,3.08-.1,11.79,11.79,0,0,0,10.11-11.38,10.19,10.19,0,0,0-.24-1.88c-.08-.49-.18-1-.27-1.48a2.86,2.86,0,0,1,2.69,2.33c1.32,5.58.41,10.64-3.7,14.85-1.62,1.66-3.28,3.28-5.05,4.77a13.3,13.3,0,0,1-9.23,3.37,4.44,4.44,0,0,1-1.93-.48,14.88,14.88,0,0,1-6.89-7.08,58,58,0,0,1-3.35-9,20.74,20.74,0,0,1,.81-11.45C119.62,155.07,120.24,152.18,122.15,149.86Z" style="fill:#42b480"/><path d="M140.25,29.18a10.36,10.36,0,0,1-2.72,6.31,11.86,11.86,0,0,1-1.19,1.16c-2.62.44-4.08-.86-5.08-3.15a5.18,5.18,0,0,0-1.9-2c-1.44-.95-2.07-2.22-1.62-4.38.53-2.61,1.16-5.21,1.85-7.78.51-1.89,1.38-2.22,2.94-1A23.54,23.54,0,0,1,140.25,29.18Z" style="fill:#42b280"/><path d="M184.27,133.76c.38,2.42-1.41,3.79-2.84,5.08a35.76,35.76,0,0,1-10.27,6.22,2.18,2.18,0,0,1-2.65-.29,2.46,2.46,0,0,1-.53-3c.73-1.55,1.63-3,2.36-4.57.64-1.35,1.16-2.76,1.73-4.15a27.49,27.49,0,0,0,3.82,1.78,18.42,18.42,0,0,0,3.67.39A5.28,5.28,0,0,0,184.27,133.76Z" style="fill:#b7dac2"/><path d="M184.27,133.76a5.28,5.28,0,0,1-4.71,1.49,18.42,18.42,0,0,1-3.67-.39,27.49,27.49,0,0,1-3.82-1.78c-.78-1.7-1.58-3.4-2.33-5.11-.42-1-1.28-2.16-.31-3a5.46,5.46,0,0,1,3.19-.91,6.17,6.17,0,0,1,4.27,1.9c1.93,1.75,3.84,3.5,5.81,5.19A4,4,0,0,1,184.27,133.76Z" style="fill:#42b480"/><path d="M141.65,138.87a1.72,1.72,0,0,1-.68-.13c-1.63-1-3.31-1.94-4.83-3.09-1.16-.89-.47-2.58,1.21-3,2.25-.56,4.51-1,6.77-1.5a9.7,9.7,0,0,1,1.29-.23,1.75,1.75,0,0,1,1.91,1.59C147.64,135,144.33,138.81,141.65,138.87Zm2.52-6.13c-1.23.87-2.76,1-3.63,2.27C142.52,135.81,144.12,134.86,144.17,132.74Z" style="fill:#42b480"/><path d="M136.35,112.61l.69.31a2.84,2.84,0,0,1-.74,3.18c-1.78,1.69-3.71,3.23-5.62,4.78a4.4,4.4,0,0,1-1.32.48,1.61,1.61,0,0,1-.33-2.16,52.72,52.72,0,0,1,2.8-5c.74-1.15,2-1.41,3.33-1.54C135.56,112.65,136,112.63,136.35,112.61Z" style="fill:#42b480"/><path d="M144.17,132.74c0,2.12-1.65,3.07-3.63,2.27C141.41,133.7,142.94,133.61,144.17,132.74Z" style="fill:#b3d9bf"/></svg>