<svg id="Layer_1" data-name="Layer 1" xmlns="http://www.w3.org/2000/svg" viewBox="0 0 300 300"><defs><style>.cls-1{fill:#f7dac7;}.cls-2{fill:none;}.cls-3{fill:#802c19;}.cls-4{fill:#9f3321;}.cls-5{fill:#cb5d28;}.cls-6{fill:#5a250d;}.cls-7{fill:#fff;}.cls-8{fill:#f89b59;}</style></defs><title>hang_in_there</title><rect class="cls-1" x="-34.93" y="8.45" width="381.38" height="286.03"/><path class="cls-2" d="M206.29,184.84c2.93-2.44,0-17.17,0-17.17l-.32-.92-14.63,2.7C192.44,175.26,196.67,192.85,206.29,184.84Z"/><path class="cls-3" d="M.34,148.61l42.91-15.32c10.49-1.85,19.07-12.33,32.42-14.24,4.71-.68,21,1.91,27.64-1,5.73-17.17,17.35-20.84,24.79-24.79,6-3.18,38.14-28.61,38.14-28.61H124.29s-13.42,2.88-17.16,5.72C101.76,74.5,94,86.31,88.06,89.49,68.77,99.82.34,106.65.34,106.65"/><polygon class="cls-2" points="94.47 174.23 87.08 170.87 94.47 174.23 94.47 174.23"/><path class="cls-4" d="M78.53,152.42c-.4-2.92.71-6.92,2.32-11.3l-.42-.14L.34,123.82v32.41s54.35-.95,62.93,7.63c9.53,13.35,21,5.72,21,5.72l2.83,1.29,7.38,3.36-.68-2.74S79.44,159.23,78.53,152.42Z"/><path class="cls-4" d="M280.66,142.89l22.88-5.73V114.28c-14.3,1-48.63,21.93-59.11,36.23C240.09,154,225.36,162,225.36,162l-4,.22c-3.78.2-9.91.49-16.85.7.61,1.59,1.11,3,1.42,3.88l.32.92s2.93,14.73,0,17.17c-9.62,8-13.85-9.58-14.95-15.39-.21-1.09-.31-1.78-.31-1.78L178.16,163a87.45,87.45,0,0,1-11.92-1,41.66,41.66,0,0,1-7.07-2.21c-6.15-2.38-13.31-5.85-17.72-7.32-8.58-2.86-38.55-4.14-38.55-4.14h0c5.55,2.07,10.28,3.88,13.76,6.05l22.89,22.88s22.42,12.56,30.51,15.25c5.72,1.91,72.5-5.77,82,1.91,1.66,1.34,9.54,3.81,9.54,3.81l38.14,32.42V196.28l-28.61-19.07s1.69-7.85,0-9.54c-2.36-2.35-11.69,2.9-13.35,0C257.77,160.05,280.66,142.89,280.66,142.89Z"/><path class="cls-5" d="M236.8,108.56c-2-2.73-7.63,1.91-13.35,1.91-3.81-3.82-17.16-7.63-17.16-7.63s-5.29-8.06-7.63-7.63c-3.41.63-3.81,13.35-3.81,13.35s-5.72,9.54-5.72,15.26c-11.45,11.44-10.61,28.32-19.07,32.41-1.36.66-5.72-1.9-5.72-1.9l-5.47,5,.3.37a41.66,41.66,0,0,0,7.07,2.21,87.45,87.45,0,0,0,11.92,1L191,167.67l0,.11v.05c0,.07,0,.16,0,.28s0,0,0,.07.06.32.09.53h0c0,.22.09.46.14.74h0c1.1,5.81,5.33,23.4,14.95,15.39,2.93-2.44,0-17.17,0-17.17l-.32-.92h0l0-.06-.19-.53-.15-.41c0-.12-.08-.24-.13-.37l-.18-.5c-.05-.15-.11-.3-.17-.46l-.19-.51c-.12-.34-.25-.68-.39-1,6.94-.21,13.07-.5,16.85-.7L219.64,141s11.44-3.82,11.44-21C232.89,117.37,238.67,111.16,236.8,108.56Z"/><path class="cls-6" d="M201.34,153.78c-.94-1.34-2.79-1.95-4.74-2.6-3.35-1.11-6.52-2.16-6.52-6.39h-1.91c0,5.61,4.53,7.11,7.83,8.2,1.65.55,3.2,1.06,3.79,1.89a85.38,85.38,0,0,1,4.78,8l2.62-.1C207.05,162.4,203.75,157.17,201.34,153.78Z"/><path class="cls-7" d="M205.29,112.5v3.69h-1.82V112.5a3.81,3.81,0,1,0,1.82,0Z"/><path class="cls-6" d="M205.29,116.19V112.5a3.39,3.39,0,0,0-.91-.13h0a3.39,3.39,0,0,0-.91.13v3.69Z"/><path class="cls-7" d="M220.54,117.84v3.69h-1.81v-3.69a3.82,3.82,0,1,0,1.81,0Z"/><path class="cls-6" d="M220.54,121.53v-3.69a3.22,3.22,0,0,0-1.81,0v3.69Z"/><path class="cls-8" d="M219.64,130.49c0,4.74-7.63,6.67-11.45,6.67-6.31,0-11.44-3.84-11.44-8.58s9.54-8.58,11.44-8.58C214.51,120,219.64,125.75,219.64,130.49Z"/><path class="cls-6" d="M213.87,125l-5.5.37-3.62-2.18a.72.72,0,0,0-1,.25.7.7,0,0,0,.24,1l3.47,2.08v2.37c-2.4.22-5.72.84-5.72,2.56,0,.4,1.42.44,1.42.05.23-.47,2.5-1,4.83-1.22a17.31,17.31,0,0,1,3.28,3.08s1.43.4,1.43,0c0-1.45-2.45-3.29-3.81-4.2v-2.38l5.05-.33a.72.72,0,0,0,.67-.76A.69.69,0,0,0,213.87,125Z"/><path class="cls-5" d="M55.4,221c-4-.34-8.2-.7-12.25-1-2.24,3.28-2.12,8.19-1.94,12.87,4.13,1.21,8.6,2.29,13.11,3.22C53.14,231,54.18,225.25,55.4,221Z"/><path class="cls-5" d="M66.48,221.92c-2-.14-4.21-.32-6.56-.51-.9,4.45-1.71,10.77-.49,15.71,3,.54,5.93,1,8.75,1.41A31.91,31.91,0,0,1,66.48,221.92Z"/><path class="cls-5" d="M69.59,222.1A19.44,19.44,0,0,0,71.38,239c2.05.26,4,.47,5.84.65-.13-.29-.26-.58-.37-.89-1.87-5.09-.74-11.49.76-16.44Q73.85,222.32,69.59,222.1Z"/><path class="cls-5" d="M39,219.76c-10-.62-18-.64-17.7,1.31.63,3.76,6.2,7.11,14,9.91A25,25,0,0,1,39,219.76Z"/><path class="cls-5" d="M252.05,194.37c-9.49-7.68-76.27,0-82-1.91-8.09-2.69-30.51-15.25-30.51-15.25l-22.89-22.88c-3.48-2.17-8.21-4-13.76-6.05-2.84-1.07-5.89-2.2-9.12-3.49-2-4.73,7.63-19.07,7.63-19.07s-1.61-8.21-3.82-9.53c-1.85-1.11-7-.49-8.58,1-.61,6.76-5.23,16-8.16,24-1.61,4.38-2.72,8.38-2.32,11.3.91,6.81,15.25,19.07,15.25,19.07l.68,2.74h0l-7.38-3.36c-.5,1.21-7.71,19.14-4.74,23.5a89.81,89.81,0,0,0,18.35,4.78l.72,2.85,9.53,13.35s-8.66,6-29.29,6.84c-1.51,4.53-2.88,10.71-1.22,15.23A8.15,8.15,0,0,0,81.92,240c1.59.1,3,.15,4.23.15,11.61,0,36.23-3.82,45.77-13.35,42,1.91,64.83-13.35,72.46-32.42,19.07,9.54,57.21,3.81,57.21,3.81S253.71,195.71,252.05,194.37Z"/><rect class="cls-6" x="115" y="212.65" width="1.43" height="11.12" transform="translate(-130.93 205.16) rotate(-59.04)"/><line class="cls-2" x1="212.01" y1="148.61" x2="194.85" y2="133.35"/></svg>