<svg id="Layer_1" data-name="Layer 1" xmlns="http://www.w3.org/2000/svg" viewBox="0 0 300 300"><defs><style>.cls-1{fill:#e7c2dc;}.cls-2{fill:#010101;}.cls-3{fill:#bba3ce;}.cls-4{fill:#7560aa;}.cls-5,.cls-7{fill:none;}.cls-5{stroke:#fff;stroke-linecap:round;stroke-miterlimit:10;stroke-width:0.85px;}.cls-6{fill:#fff;}</style></defs><title>hippa_hippo</title><path class="cls-1" d="M112.62,140.55c-4.31,2.16-9.7,8.63-9.7,8.63S91.06,151.33,90,156.72c-1,4.86,11,11.12,16.17,11.87,3.51.5,10.79,0,10.79,0l34-4.86Z"/><path class="cls-2" d="M171.86,258.59l7.62-4.91-39.63,2.77s-16.45,9.09-13.21,14.48c3.92,6.54,31.22-3.3,31.22-3.3l.61-.39c-1.85,5.25-2.45,11.12,2.67,13.39,9.71,4.32,23.19-20.48,23.19-20.48Z"/><path class="cls-1" d="M159.59,244.05l-.6-4.3-24.89-.34,2.24,21.91s8.5,6.24,11.87,6.47c4.07.27,12.92-4.49,13.91-5l.1.71a32.63,32.63,0,0,0,4.32,5.39c3.5,2.95,22.64-2.15,22.64-2.15l5.39-28.37Z"/><path class="cls-3" d="M210.75,160c7.54-3.24,12.93-15.1,12.93-17.25,0-9.71-9.7-39.9-15.42-47.29l-.2-.21a1.13,1.13,0,0,0,.53-1c0-2.15-9.51-8.8-9.51-8.8l-.2-2c-8.62-5.39-6.47-10.78-12.94-12.77l-31.27,21c0,7.6-10.78,8.13-18.87,12.13l-3.9-3.7s-7.13-6.51-10.74-5.29c-3.15,9.17-9.82,17.84-14.75,21.73,1.73,4.5,10.27,3.57,11.62,13-4.08,8.07-7.83,16-9.72,19.77-1.51,5.28,11.86,4.25,11.86,7.54l2.16,9.71L104,212.79l12.94,10.79-1.08,8.62,35.58,12.94,64.7-10.78-15.09-67.89C204.6,163.58,208.06,161.11,210.75,160Z"/><path class="cls-4" d="M144.67,151.44c1.08-2.05,5.54-10.78,3.54-13.05-1.65-1.86-13.38,4-14.49,14.26-2.36.29-4.4.57-6,.84a14.85,14.85,0,0,0-10.78,8.63c-.42,1,1.26,2.15,4.92,3-2.79,1.6-8.48,5-9.24,6.69-1.33,3,6.47,12.94,6.47,12.94l15-18.27c9.34.3,22.38-.47,38.88-3.3l1.61-5.93,8.09-9.16S161.58,149.72,144.67,151.44Z"/><line class="cls-1" x1="145.76" y1="45.33" x2="145.56" y2="45.11"/><path class="cls-1" d="M171.47,52.69,170,51.32l2,.21s3.42.34,5.47-1.87c1.52-1.64,2-4.26,1.4-7.8-2.21-.9-7.71,3.44-10.78,6.5l-.29.3-3.86-1.29-.13-.19c-1.58-2.45-3.87-5.09-4.82-5.09-3.7,0-4.72,5.85-4.73,5.91a.67.67,0,0,1-1.33-.22l-8.91.77a17.32,17.32,0,0,0-8.4,4.38,27.23,27.23,0,0,1-5.44,4.19,5.4,5.4,0,0,1-2.77.08,5.5,5.5,0,0,0-1.55-.08c-2.12,1.06-5,5.81-6.15,10.17-.57,2.14-.63,3.87-.18,4.81a9.47,9.47,0,0,0,1.25.12l.07,0a.62.62,0,0,1,.33,0A42,42,0,0,0,129,71a38.12,38.12,0,0,1,7.31-1.15c1.78,0,3.93,1.08,6.22,2.22,2.05,1,4.17,2.09,5.65,2.09,4.65,0,7.56-4.32,8.62-6.24-2.16-.12-3.44-.48-3.81-1.08a1,1,0,0,1,0-.93c1.19-2.37,7.93-6.84,10.31-6.84a.67.67,0,1,1,0,1.34c-1.83,0-7.52,3.76-8.92,5.79a14.59,14.59,0,0,0,3.54.41l1,0-.39.92c-.14.33-3.49,8-10.32,8-1.79,0-4-1.09-6.26-2.23-2-1-4.15-2.08-5.61-2.08a37.19,37.19,0,0,0-7,1.12,47.5,47.5,0,0,1-7.49,1.22c.49,1.92,2,6.67,5.12,8.24,5.62,2.81,19.08,2,23.12,0a7.65,7.65,0,0,0,4-3.92.68.68,0,0,1,1.29.42A9.07,9.07,0,0,1,150.66,83c-2.35,1.17-7.49,2-12.67,2a31.17,31.17,0,0,1-10.78-1.59c-.58,2-5.42,15.67,5.17,22.17,3.43-2.19,20.68-5.42,22.18-13.23,1.73-.82-8.7,0-11.13,5.45a.68.68,0,0,1-.62.4.66.66,0,0,1-.27-.06.67.67,0,0,1-.34-.89c2.77-6.22,11.62-6.55,20.19-6.86,5.41-.2,10.53-.38,13.52-2.07,4-2.29,10.44-7.37,10.44-11.28C186.35,66.64,171.62,52.83,171.47,52.69Z"/><path class="cls-5" d="M143.89,46.74c-2.52.5-4.8,2.18-7,4-2.46,2.13-4.76,4.51-7.06,5.66-1,.48-3.55-.39-4.31,0-3.81,1.9-8.62,12.93-6.47,16.17,4.31,1.08,12.55-2.16,17.25-2.16,3.24,0,8.61,4.32,11.87,4.32,6.46,0,9.7-7.55,9.7-7.55s-4.81-.09-4.31-1.08c1.07-2.16,7.54-6.47,9.7-6.47"/><path class="cls-6" d="M155.21,49.71a3.78,3.78,0,0,0,7.55,0Z"/><path class="cls-2" d="M159,49.71a2,2,0,1,0,4.06,0Z"/><path class="cls-5" d="M121,72.79s1.36,7.38,5.67,9.53c5.79,2.9,19.41,2.16,23.72,0A8.3,8.3,0,0,0,154.67,78"/><circle class="cls-5" cx="142.54" cy="62.65" r="3.5"/><circle class="cls-5" cx="125.56" cy="59.68" r="2.16"/><rect class="cls-6" x="142.24" y="197.16" width="39.96" height="1.08" transform="translate(-92.26 223.01) rotate(-56.31)"/><rect class="cls-6" x="90.52" y="165.89" width="15.1" height="3.23" transform="translate(-89.38 217.89) rotate(-74.7)"/><path class="cls-2" d="M98,175.88l-4.16-1.14,4.27-15.6,4.16,1.14ZM95.18,174l2.08.57L101,161l-2.07-.57Z"/><path class="cls-2" d="M186.3,39.88c-.65-3.26-6.79-3.89-15.7-3.71-.21-2.65-.59-7.23-.95-9.58l-.07-.21c-3.08-4.82-20.25-8.8-26.87-7.13-2.59.65-6.17,6.48-6.57,7.14l-3,13.88C123.84,44,117.37,49,117.37,50.08c0,0,14,4.75,15.92,4.56.7-.59,5.28-3.73,6.34-4.57a31.49,31.49,0,0,0,4.83-.62c2.89-.49,5.73-1.12,8.51-1.81,0-.11.07-.31.13-.58s.1-.38.16-.61c-2.92.75-5.93,1.42-9,1.93-6.67,1.13-21.73,1.45-24.32,1.25,3.88-4.51,16-8,18.24-9.22,3.05-.17,7-.63,11.57-1.16l4.07-.47c10.28-1.16,20.55-2,27-.69-3,.72-6.64,1.93-10.73,3.28-2.28.76-4.75,1.57-7.34,2.38l.37.45c.67.86,1.22,1.66,1.5,2.09l2.74.91c1.63-1.59,9-8.49,12.31-6.3l.19.13,0,.22a14.32,14.32,0,0,1,0,6C183.8,45.44,186.92,43,186.3,39.88ZM136.83,50.1Zm2.58-20.6c-2,.44-3.16,2.9-3.68,4.28l1.39-6.92c1.06-1.74,4-6.11,5.85-6.56,6.16-1.56,22.63,2.16,25.64,6.56.28,1.93.57,5.22.78,7.78C166.34,34,142.34,28.85,139.41,29.5Z"/><path class="cls-2" d="M84.69,171.66c-.52-.28-5.08-2.82-4.81-5.74a29,29,0,0,1,1.76-5.33c1-2.46,2.15-5.52,2.07-6.6-.1-1.27-2.76-4.32-4.42-6l.76-.77c.47.46,4.58,4.55,4.73,6.64.1,1.32-1,4.12-2.13,7.07a31.5,31.5,0,0,0-1.7,5c-.17,1.88,3,4,4.25,4.69Z"/><path class="cls-2" d="M92.24,145.78c-.52-.28-5.08-2.82-4.81-5.74.1-1.15,1-2.46,2-3.85s1.94-2.81,1.86-3.77c-.08-1.17-2.84-2.24-4.16-2.57l.26-1c.49.13,4.81,1.28,5,3.54.1,1.34-1,2.93-2,4.46a9.45,9.45,0,0,0-1.78,3.34c-.17,1.88,3,4,4.25,4.69Z"/><path class="cls-2" d="M85,185.9a2.63,2.63,0,0,1-.49,0,2,2,0,0,1-1.35-.9,11.11,11.11,0,0,1-.83-2c-.41-1.16-.92-2.6-1.54-2.91s-2.87.23-4.65.87l-.37-1c.69-.25,4.21-1.48,5.5-.82,1,.51,1.55,2,2.08,3.51a10.64,10.64,0,0,0,.72,1.76.91.91,0,0,0,.63.41c1.51.27,4.35-1.61,5.33-2.36l.66.86C90.33,183.58,87.23,185.9,85,185.9Z"/><path class="cls-7" d="M193.52,91.94a.54.54,0,0,1,.35.21c.88,1.16,3.36,4.12,4.86,4.67,1.8-1.59,4.31-1.64,6.34-1.68,2.27,0,3-.19,3-1,0-1.14-4.46-5-8.9-8.09C198.29,88,196.18,89.89,193.52,91.94Z"/><path class="cls-7" d="M171.36,269.25c5.28-.13,13.42-1.95,17.35-3L194,238.6l-18.13,3Z"/><path class="cls-7" d="M135.63,240h-.93L136.86,261c1.18.85,7.48,5.32,10.7,6.11l-3.77-24.2Z"/><path class="cls-7" d="M160.1,244.25l2.64,19a30.81,30.81,0,0,0,4.14,5.17,5.89,5.89,0,0,0,3.39.79l4.44-27.43Z"/><path class="cls-7" d="M122.55,165.84c-3.43,1.66-8.76,4.68-9.44,6.2-.83,1.88,3.08,8,6,11.86L133,167A66.83,66.83,0,0,1,122.55,165.84Z"/><path class="cls-7" d="M144.94,243.35l3.73,23.9c3.76-.06,11.05-3.82,12.87-4.79l-2.51-18-7.64,1.28Z"/><path class="cls-6" d="M147.56,259.49l.11.74,1.07-.17-.07-.45h-.43A4.89,4.89,0,0,1,147.56,259.49Z"/><path class="cls-6" d="M194.67,237.81a.54.54,0,0,0-.63.43l-.07.36,1.13-.19A.54.54,0,0,0,194.67,237.81Z"/><path class="cls-6" d="M201.58,167.44a98.9,98.9,0,0,1,9.45-7c8.66-5.41,13.19-15.28,13.19-17.71,0-10-9.73-39.88-15.41-47.45a1.76,1.76,0,0,0,.32-1.08c0-2.28-7.83-7.9-9.64-9.17a3.58,3.58,0,0,0-.09-1.78l-.07-.18-.16-.11A19.29,19.29,0,0,1,192,75.42c-1.35-2.28-2.52-4.26-5.94-5.31H186c-3.14-7.52-10.13-14.87-12.73-17.43a7.65,7.65,0,0,0,5.09-2.25c1.85-2,2.4-5.06,1.66-9.17l0-.22-.19-.13c-3.28-2.19-10.67,4.71-12.3,6.3l-2.74-.91c-.8-1.22-3.75-5.48-5.74-5.48-4.72,0-5.88,6.64-5.93,6.92l1.07.18c0-.06,1.05-6,4.86-6,1.11,0,3.55,3,4.94,5.14l.1.16,3.73,1.25.24-.24c3.12-3.12,8.75-7.53,11-6.51.62,3.63.14,6.32-1.42,8-2.1,2.26-5.55,1.92-5.58,1.92l-1.62-.18,1.19,1.11c.15.14,14.92,14,14.92,24.4,0,4-6.44,9.09-10.51,11.39-3,1.71-8.14,1.9-13.58,2.1-8.52.31-17.33.63-20.07,6.78l1,.44c1.61-3.63,5.8-5,10.8-5.61-.31,4.66-5.32,6.36-11.1,8.31-3.87,1.3-7.85,2.66-11,5-9.89-6.31-4.92-22.2-4.87-22.36a.54.54,0,1,0-1-.33A33.16,33.16,0,0,0,124.75,92c0,6.42,2.23,11.25,6.42,14.07-4.83,4.74-14.61,24.89-20.55,37.12-1.13,2.34-2.09,4.31-2.83,5.81a2.89,2.89,0,0,0,.23,2.32c1,1.77,4,2.49,6.8,3.19,2.26.56,4.81,1.18,4.81,2.18a.51.51,0,0,0,.13.34,13.48,13.48,0,0,0-3.32,4.86,1.44,1.44,0,0,0,.28,1.49c.62.77,2,1.47,4.19,2.05-2.51,1.28-7.93,4.22-8.78,6.14-1.43,3.2,5.72,12.45,6.54,13.49l.41.53,2.75-3.33c.78,15.23-6.43,49.45-6.5,49.8l-.1.46,18.3,6.66,2.3,22.4.2.14c.35.26,8.65,6.34,12.14,6.57l.38,0c3.86,0,10.83-3.52,13.16-4.75a34,34,0,0,0,4.48,5.69c.89.75,2.63,1,4.77,1,6.54,0,16.86-2.68,18.36-3.08l.33-.09,5.45-28.7v0l-1.13.19-5.26,27.67c-3.93,1-12.07,2.85-17.35,3l-.1.62-1.06-.18.07-.45a5.89,5.89,0,0,1-3.39-.79,30.81,30.81,0,0,1-4.14-5.17l-2.64-19,14.61-2.44-4.44,27.43h1.09l4.48-27.63,18.13-3,.07-.36a.54.54,0,0,1,1.06.17l21.69-3.61Zm6.47-73.26c0,.77-.71.91-3,1-2,0-4.54.09-6.34,1.68-1.5-.55-4-3.51-4.86-4.67a.54.54,0,0,0-.35-.21c2.66-2,4.77-4,5.63-5.85C203.59,89.23,208.05,93,208.05,94.18Zm-93,59.31c-2.5-.61-5.33-1.3-6.13-2.68a1.77,1.77,0,0,1-.16-1.39c.7-1.41,1.67-3.39,2.8-5.73,5.72-11.78,16.36-33.69,20.78-37.22,3-2.43,7.08-3.79,11-5.11,6-2,11.61-3.93,11.83-9.45,2.33-.23,4.8-.33,7.24-.42,5.57-.2,10.83-.39,14.08-2.23,3.82-2.16,11.05-7.53,11.05-12.33a16.49,16.49,0,0,0-1.06-5.52c2.46,1,3.43,2.57,4.62,4.56a20.41,20.41,0,0,0,7.3,7.78c.72,2.94-4.77,6.85-10.07,10.64-5.52,3.94-11.23,8-12.54,12.25-4.51.53-9-5.42-12-9.39l-.39-.51-.4.2A25.86,25.86,0,0,1,159,98.42c-3.16,1-6.15,1.88-7,5.34l0,.1V104c.48,3.36,2.53,7,4.33,10.16,2.24,4,4.17,7.38,2.35,8.74s-6.93,2.49-12.44,3.76c-7.85,1.81-16.74,3.85-20,7.07s-2.6,5.06-2.13,6.75a3.47,3.47,0,0,1-.12,3.07c-1.15,2-6.41,4.41-8.35,5.15a.56.56,0,0,0-.31.7.56.56,0,0,0,.51.35.65.65,0,0,0,.19,0c.3-.11,7.33-2.84,8.9-5.63a4.57,4.57,0,0,0,.22-3.89c-.43-1.55-.84-3,1.85-5.7,3-3,11.74-5,19.44-6.78,5.87-1.35,10.93-2.51,12.85-4,2.57-1.93.42-5.73-2.06-10.13-1.74-3.07-3.7-6.55-4.18-9.68.75-2.79,3.31-3.57,6.26-4.47a29.88,29.88,0,0,0,3.81-1.35c3.38,4.51,8,10.52,13.2,9.55l.34-.06.08-.34c1-4,6.7-8,12.21-12,1.38-1,2.71-1.93,3.94-2.86a.53.53,0,0,0,.1.4c.37.49,3.64,4.75,5.77,5.15l.28,0,.21-.2c1.49-1.5,3.79-1.55,5.82-1.59a9.16,9.16,0,0,0,2.84-.33c5.59,7.41,15.22,37,15.22,46.83,0,1.75-4.09,11.41-12.69,16.79a135.65,135.65,0,0,0-15.09,11.8c-6.37-3.74-14.83-14.1-14.9-19.89,4.48-5,10.33-11.25,13.36-13.67l.24-.2,0-.3c-1.07-7.49-1.08-21.41,0-25.67a.55.55,0,0,0-.4-.66.54.54,0,0,0-.65.4c-1.07,4.3-1.09,18.12-.05,25.78a131.86,131.86,0,0,0-10.42,10.48c-1.33.11-10.42.82-21.06,1.75l9.38-25.3-1-.37-9.55,25.78c-12.21,1.09-26.13,2.45-32.62,3.53a16,16,0,0,0-7,3.33C120.24,154.78,117.84,154.17,115.08,153.49ZM177,155.3c.72-.82,1.56-1.76,2.48-2.79,1,6.53,9.23,15.94,15,19.53-1.66,1.47-3.24,2.89-4.66,4.18l0-.07C185.39,174.66,177.35,161.51,177,155.3Zm-2.42,2.75,1.46-1.66c1.05,6.69,8.33,18.38,13,20.58-2.57,2.35-4.5,4.18-5.26,4.9-1.75-1.52-9.17-8.1-10.25-11.3C172.6,167.86,174.34,159.23,174.58,158.05Zm-57,4.69c-.2-.24-.15-.37-.12-.42,2.22-5.57,7.75-7.86,10.37-8.3,11.48-1.91,46.42-4.71,53.62-5.28-2.13,2.34-4.1,4.54-5.51,6.15h0c-1.27,1.43-2.1,2.4-2.23,2.55l-.09.1,0,.14c0,.19-.51,2.4-.89,5C138.85,168.47,119.81,165.52,117.56,162.74Zm1.54,21.16c-2.91-3.82-6.82-10-6-11.86.68-1.52,6-4.54,9.44-6.2A66.83,66.83,0,0,0,133,167Zm42.44,78.56c-1.82,1-9.11,4.73-12.87,4.79l.07.45-1.07.17-.11-.74c-3.22-.79-9.52-5.26-10.7-6.11L134.7,240h.93l8.16,3,3.77,24.2a4.89,4.89,0,0,0,.68.12h.43l-3.73-23.9,6.45,2.35,7.64-1.28Zm-10-17.87L138.91,240l-3.08-1.12-19.35-7c.88-4.23,7.39-36.31,6.38-50.37a.46.46,0,0,0-.13-.3L134.4,167c1.12,0,2.27,0,3.48,0a211.84,211.84,0,0,0,34.64-3.25c-.35,2.71-.53,5.61,0,7.1,1.33,3.89,10.56,11.76,10.95,12.09l.37.32.35-.34c.12-.11,8.26-7.94,16.49-14.78l14.83,65.71Z"/><path class="cls-6" d="M170.27,261.6l-.07.45,1.06.18.1-.63Z"/></svg>