<svg xmlns="http://www.w3.org/2000/svg" viewBox="0 0 450 450"><title>jelly_thoughts</title><path d="M73.5,447.5l374.32.13.18-41.55c-18.46-13.36-62.57-19.59-84.71-25-18.22-4.44-25-11.9-39.26-28.56-12.21-14.24-23.81-36.34-21.45-55s6.66-28.36,16.77-44.29c8.9-14,25.71-57.82,29.28-81.62,2.69-17.9,10.5-45.73-8.33-70.82-14.27-19-37.67-49.06-49-54.88C253.5,26.5,170.71,35,147.2,37.51c-5.76.61-9.25,1.52-14.89.2s-9.87-5.55-10.55-11.29C87.24,43.17,86.32,82.28,104.71,100c-12.7,12.1-29,45-29.21,56.53-.16,10.35,8.17,13.92,14.23,20.93C86.05,193.1,59,207.41,49,222.37c-4.78,7.15-5.74,13.56-.11,21.62,3.94,5.63,26.23,1.31,30.06,7,3.69,5.51-5.46,13.8-1.63,19.22,5.2,7.36,8.77,6.17,23,5,9.93-.83,24.44,5.21,25.33,9.26.85,3.83-25.33,13.35-31.64,19.08a14.56,14.56,0,0,0-4.64,9.37c-.14,5.76,7.79,10.19,9.48,13.73,3.85,8.05-4.66,18.36,2.82,29.24,6.42,9.34,15.36,6.91,26.66,6.15,17.21-1.16,31.53-1.77,33.86-1.16,8.48,2.21,5,11.36,10.37,18.3,8,10.41,19.93,9.82,24.2,22.22-21,20.47-75.51,32.58-112.09,42.43C74.24,446.63,76.5,444.5,73.5,447.5Z" style="fill:#d0c3f1;stroke:#d0c3f1;stroke-miterlimit:10;stroke-width:5px"/><path d="M380.46,147.42c-4.29-5.07-9.82-9-13.72-14.4-3.06-4.21-5-9.12-7.49-13.69-6.08-11.11-18.53-62.52-55.75-60.83-9,.41-26.54,14.25-32.5,16.5-10.34,3.91-51.5,5.5-55,39-2,18.94,1.09,25.8,10,30,26.5,12.5,5.5,48.5,20.5,61.5,14.52,12.58,26.76,3.06,38.5,3.5,11.42.42,19.24,22.81,29.08,28.63,22,13,58.54,1.53,67.18-23,3.17-9,3.67-19.22,6.25-28.46C391.32,172.6,389.87,158.55,380.46,147.42Z" style="fill:none;stroke:#fff;stroke-miterlimit:10;stroke-width:3px"/><path d="M219.55,368.17c-7,11.62-16.05,20.33-26.87,30.32" style="fill:none;stroke:#fff;stroke-linecap:round;stroke-linejoin:round;stroke-width:5px"/><path d="M121,140.33c.06,9,.87,17.44,5.24,24a1.49,1.49,0,0,0,1.25.67,1.47,1.47,0,0,0,.83-.25,1.5,1.5,0,0,0,.64-1.56,1.45,1.45,0,0,0,1.06.28,1.51,1.51,0,0,0,1.3-1.68c-1.56-12.19-3.82-23.49-14.2-27.83a1.5,1.5,0,0,0-1.75.45c-7.84,9.88-7.89,18.49-7.95,28.45l0,2.13a1.5,1.5,0,0,0,1.49,1.51h0a1.5,1.5,0,0,0,1.5-1.48l0-2.14c0-2.42,0-4.72.15-6.94a30.33,30.33,0,0,0,4.11,10.88,1.51,1.51,0,0,0,1.27.7,1.48,1.48,0,0,0,.8-.23,1.5,1.5,0,0,0,.47-2.07c-3.4-5.42-4.74-12-4.23-20.63a30.8,30.8,0,0,1,1.83-4.11c.3,9,1,22.41,6.65,26.54a1.5,1.5,0,0,0,1.78-2.41c-4.79-3.52-5.5-26.6-5.52-27m6,6.42c2.62,4.85,3.7,11.25,4.56,17.95A32.24,32.24,0,0,1,123.77,144.05Z" style="fill:#7437f5"/><path d="M212.82,143.49c-.79-4.36-2.79-7.48-5.79-9-3.34-1.71-7.81-1.38-12.94.95-10.4,4.72-21.86,17-24.05,25.72-.55,2.2-.58,5.63-.61,9.6-.05,5.08-.1,10.83-1.34,14.25-.69,1.89-1.55,4.69-2.63,8.23-4.56,14.88-14,45.49-23.94,44-1-3,.52-13.17,3.28-17.94,7.17-12.39,8.92-30.86,10.32-45.7.76-8,1.42-15,2.78-18.51a70.85,70.85,0,0,1,6.4-12.38c4.43-7.22,7.64-12.43,2.61-24.58a1.5,1.5,0,0,0-1.23-.92c-5.51-.59-8-.83-10.52-1.08s-5-.48-10.5-1.07a1.49,1.49,0,0,0-1.44.7c-6.22,10.12-4.9,17.85-3.37,26.81.52,3,1.06,6.17,1.32,9.6.77,9.79-.8,23.12-4.29,36.58-2.77,10.65-5.68,17.21-7.44,19.64-.17-1.53-.37-2.92-.55-4.19-.76-5.28-1.26-8.77,1.72-14,5.6-9.83,4.11-16.8,2.39-24.87-.29-1.31-.57-2.66-.84-4.07-.1-.51-1-2.05-2.39-.91C123,166,118,166.08,109.22,165l-1.7-.21a1.5,1.5,0,0,0-1.63,1.11c-2.12,8.08.71,13.61,3.71,19.47,1.89,3.7,3.85,7.53,4.73,12.33.93,5.07-2.49,10.56-6.12,16.37-3.06,4.9-6.22,10-6.66,15-.21,2.46.78,5,1.73,7.49,1.84,4.76,3.43,8.88-1.65,13-8.39,6.78-16.84,4.47-27.55,1.55l-.19,0a1.5,1.5,0,0,0-.78,2.9l.18.05c11.08,3,20.65,5.63,30.22-2.12,6.79-5.48,4.45-11.54,2.57-16.4-.87-2.26-1.69-4.38-1.54-6.15.38-4.33,3.35-9.09,6.22-13.69,3.77-6,7.66-12.29,6.52-18.5-1-5.24-3.11-9.44-5-13.15-2.67-5.22-5-9.78-3.77-16.08l.35.05c8.4,1,12.92,1.61,20.83-3.9.12.61.25,1.22.38,1.82,1.66,7.78,3,13.92-2.05,22.76-3.5,6.15-2.88,10.47-2.09,15.94.27,1.85.57,3.94.73,6.31a1.5,1.5,0,0,0,1,1.3,2.74,2.74,0,0,0,2.71-.52c5.93-4.44,15.51-38.29,13.83-59.78-.27-3.57-.82-6.77-1.35-9.87-1.44-8.45-2.59-15.18,2.48-23.93,4.86.52,7.22.75,9.58,1s4.71.46,9.6,1c4,10.13,1.43,14.28-2.73,21A73.17,73.17,0,0,0,155.1,154c-1.51,3.92-2.15,10.71-3,19.31-1.38,14.55-3.09,32.65-9.94,44.48-2.89,5-5.48,17.78-2.95,21.58a1.52,1.52,0,0,0,.84.61,7.71,7.71,0,0,0,2.15.31c11.95,0,20.72-28.64,26.09-46.15,1-3.36,1.92-6.27,2.58-8.09,1.42-3.9,1.47-9.92,1.52-15.24,0-3.62.06-7,.53-8.91,2-7.86,12.83-19.38,22.37-23.71,3-1.35,7.18-2.62,10.33-1,2.7,1.38,3.78,4.51,4.21,6.89,1.41,7.81-1.92,19.67-7.12,25.39A120.52,120.52,0,0,1,191,180.1c-5.49,4.55-8.63,7.23-9.35,9.4-.4,1.24-.85,2.67-1.34,4.26-2.15,7-5.41,17.5-11.08,28-2.77,5.14-7.49,10.18-12.06,15.06-6.25,6.68-12.16,13-13.1,19.43a1.49,1.49,0,0,0,.28,1.12c8.06,10.75.52,18.82-3.09,21.79-7.39,6.08-17.68,7.65-21.6,3.31a1.49,1.49,0,1,0-2.22,2c2.15,2.4,5.36,3.44,8.93,3.44,5.59,0,12.08-2.55,16.79-6.43,6.77-5.57,11.29-15.11,4-25.38,1.1-5.35,6.51-11.13,12.22-17.23,4.7-5,9.56-10.2,12.51-15.69,5.81-10.79,9.12-21.49,11.31-28.57.48-1.57.92-3,1.32-4.2.48-1.45,4.7-4.95,8.42-8a122.19,122.19,0,0,0,12.1-11C210.8,165,214.4,152.23,212.82,143.49Z" style="fill:#fff"/><path d="M172,319.09c-9.25-3.36-34-3-54.53,6.4-.15.08-.56.26-1.38-.72-2.5-3-3.78-10.92-2.14-13.27l.16-.23c1.11-1.57,3.4-4.84,2.22-8.75S104.78,294.11,97,291.1a1.5,1.5,0,0,0-1.94.86c-.3.77,2.08,1.64,2.86,1.94,6.63,2.58,14.61,6.51,15.51,9.48.76,2.52-.78,4.71-1.8,6.16l-.17.25c-2.6,3.72-.88,13.11,2.29,16.91,2.07,2.47,4.15,1.88,4.94,1.52,20.5-9.4,44.55-9.11,52.26-6.31a8.46,8.46,0,0,1,5.47,9.44c-1,6.23-8.62,13.09-27,13.65-10.93.33-20.38-2.16-27.32-7.2a49,49,0,0,1-5.26-4.62c-1.34-1.29-2.72-2.62-4.21-3.84-3.76-3.06-12.48-4.15-16.83-3.56a1.5,1.5,0,1,0,.4,3c4.22-.58,11.76.66,14.53,2.92,1.39,1.13,2.73,2.42,4,3.67a52.51,52.51,0,0,0,5.57,4.89c7.06,5.12,16.42,7.8,27.18,7.8l2,0c13.25-.4,28.06-4.86,29.87-16.17A11.44,11.44,0,0,0,172,319.09Z" style="fill:#fff"/><path d="M259.64,200.41a4.54,4.54,0,0,1-3.39-1.41c-1.82-2-1.63-5-.8-7.28l-.19-.07c-2.46-.86-4.58-1.61-4.67-3.45a7.64,7.64,0,0,1,.12-1.41,2.36,2.36,0,0,0,0-1.14c-.13-.3-.67-.53-1.24-.76a6.29,6.29,0,0,1-1.91-1.09c-2.11-2-1.09-7.13-.86-8.15a1.21,1.21,0,0,1,1.44-.93,1.23,1.23,0,0,1,.93,1.45c-.5,2.29-.57,5.19.14,5.84a4.12,4.12,0,0,0,1.19.63,3.53,3.53,0,0,1,2.67,4.53,5.48,5.48,0,0,0-.09.84,11.49,11.49,0,0,0,3,1.35c3.36,1.18,8.43,3,7.6,7.88a3.49,3.49,0,0,1-2.54,2.93A4.74,4.74,0,0,1,259.64,200.41Z" style="fill:#7437f5"/><circle cx="268.5" cy="232.5" r="2.5" style="fill:#f13a5b"/><path d="M268.58,245.35a7.3,7.3,0,0,1-4.51-1.51c-2.2-1.7-3.59-4.71-4.13-8.94-.59-4.52,0-8.17,1.7-10.83h0c2.69-4.2,5.8-4.27,7.4-3.95,4.38.9,7.95,6.45,8.74,11.09.72,4.23-.36,8.54-2.82,11.25A8.66,8.66,0,0,1,268.58,245.35Zm-4.42-19.66c-1.32,2.05-1.74,5-1.25,8.83.44,3.42,1.45,5.75,3,6.95,1.91,1.48,5,1,6.83-1s2.65-5.39,2.08-8.73c-.61-3.59-3.47-8.05-6.38-8.65-1.51-.31-3,.57-4.28,2.63Z" style="fill:#fff"/><path d="M250.92,275.41a4,4,0,0,0-.47,2.86,3.26,3.26,0,0,0,1.14,2.31,2.3,2.3,0,0,0,2.85-.35,3.27,3.27,0,0,0,.78-2.9C254.87,275.44,252.59,273.05,250.92,275.41Z" style="fill:#ab66f4"/><path d="M239.85,272.27a4,4,0,0,0-.48,2.86,3.33,3.33,0,0,0,1.15,2.31,2.29,2.29,0,0,0,2.84-.35,3.3,3.3,0,0,0,.79-2.91C243.79,272.3,241.52,269.91,239.85,272.27Z" style="fill:#ab66f4"/><path d="M264.85,271.7a4,4,0,0,0-.48,2.86,3.35,3.35,0,0,0,1.15,2.31,2.29,2.29,0,0,0,2.84-.35,3.3,3.3,0,0,0,.79-2.91C268.79,271.72,266.52,269.34,264.85,271.7Z" style="fill:#ab66f4"/><path d="M273.19,270.88c-.93-5.46-4.37-12.3-9.12-14.81a7.45,7.45,0,0,0-5.65-.67c-2.7-2.9-5.74-4.41-8.69-4.22s-5.77,2.07-8.07,5.61a15.34,15.34,0,0,0-1.16,2.2c-2.68-.88-5.24,0-7.2,2.61-2.81,3.73-2.27,10.18-1.47,15.37s2.76,8.89,5.88,10.95a13.94,13.94,0,0,0,7,2.06,10.52,10.52,0,0,0,2.34,2.67,8.76,8.76,0,0,0,5.46,1.86,10.52,10.52,0,0,0,7.79-3.61,2.69,2.69,0,0,0,.2-.27h0a11.89,11.89,0,0,0,8.74-4C272.71,282.87,274.21,276.82,273.19,270.88Zm-29-12.45c1.75-2.7,3.68-4.14,5.73-4.26,1.85-.11,3.83.82,5.73,2.66l-.12.1a8.47,8.47,0,0,0-.67.57,1.42,1.42,0,0,0-.13.12,9.82,9.82,0,0,0-.77.8c-.07.07-.13.15-.19.22-.2.23-.4.47-.59.73a2.56,2.56,0,0,0-.2.26c-.25.34-.49.68-.73,1.05a4.94,4.94,0,0,0-.36.69l0,.08-.29,0-.33,0a4.33,4.33,0,0,0-.62,0h-.26a5.86,5.86,0,0,0-.84.12l-.11,0a5.73,5.73,0,0,0-.7.23l-.23.12a4,4,0,0,0-.54.29l-.24.16a6.12,6.12,0,0,0-.5.39l-.21.18a7.36,7.36,0,0,0-.65.7h0l0,0c-.24-.3-.48-.6-.73-.87-.05-.07-.11-.12-.16-.18l-.58-.62-.26-.25-.49-.46-.29-.24q-.24-.21-.48-.39l-.14-.12A11.58,11.58,0,0,1,244.18,258.43Zm-4.82,27c-2.38-1.57-3.91-4.55-4.57-8.89-.41-2.71-1.51-9.91.91-13.11a3.6,3.6,0,0,1,2.83-1.76,4,4,0,0,1,2.05.66,7.74,7.74,0,0,1,.91.62l.12.09c.29.23.58.49.88.78l.15.15c.29.3.59.61.88,1l.14.16c.3.37.6.75.9,1.16l0,0c-.1.19-.18.38-.27.57s-.28.57-.4.85-.3.71-.43,1.06-.22.58-.32.88-.22.72-.33,1.09l-.24.88c-.09.37-.16.74-.24,1.12s-.11.57-.16.85-.11.75-.16,1.13-.07.54-.1.81-.06.76-.08,1.14,0,.49,0,.72c0,.41,0,.8,0,1.2v.55c0,.57,0,1.11.1,1.61a6.56,6.56,0,0,0,.07.71h0v0c.09.69.21,1.35.33,2,0,.15.06.29.08.43.14.64.28,1.25.45,1.82,0,.05,0,.1,0,.15.1.34.2.68.32,1A10.41,10.41,0,0,1,239.36,285.41Zm9.53,4.88a8,8,0,0,1-2-2.51,19.78,19.78,0,0,1-1.92-6.78c0-.14,0-.29-.05-.51,0-.47-.07-1-.09-1.48A22.84,22.84,0,0,1,247.63,267a13.25,13.25,0,0,1,1-1.51c.1-.12.21-.24.32-.35l.1-.1a3.92,3.92,0,0,1,.32-.25l.1-.07a2.43,2.43,0,0,1,.49-.22l.13,0a2.31,2.31,0,0,1,.47-.07h.21a2.18,2.18,0,0,1,.42,0l.24,0a4.13,4.13,0,0,1,.73.24h0c3.54,1.5,7.4,7.05,8.45,12.15,0,.15.07.3.09.46a14.62,14.62,0,0,1-2.21,10.92v0l-.11.15a5.64,5.64,0,0,1-.4.53C255.55,291.7,251.45,292.32,248.89,290.29Zm18.16-5.64h0a9.26,9.26,0,0,1-4.57,2.74c0-.05,0-.1,0-.14s.11-.25.16-.38c.14-.35.27-.7.39-1.06l.15-.49c.11-.36.2-.73.29-1.1,0-.14.07-.28.09-.42.11-.51.19-1,.25-1.55l0-.33c0-.42.07-.85.08-1.28,0-.18,0-.36,0-.54,0-.39,0-.77,0-1.16l0-.51c-.05-.55-.11-1.09-.2-1.64,0-.2-.08-.41-.12-.59-.07-.36-.16-.72-.26-1.08,0-.13-.07-.25-.11-.38s-.13-.47-.21-.7l-.16-.45c-.07-.21-.15-.42-.23-.63s-.12-.31-.19-.47-.16-.4-.25-.6-.15-.31-.22-.47-.18-.39-.28-.58l-.24-.47-.31-.57c-.09-.15-.17-.3-.26-.44s-.23-.39-.35-.58l-.25-.4-.41-.6-.24-.35-.52-.69-.16-.21c-.23-.29-.48-.58-.72-.86l-.06-.07c-.23-.25-.45-.49-.68-.72l-.21-.2c-.18-.18-.36-.36-.55-.53l-.26-.22c-.17-.15-.34-.3-.51-.43l-.28-.22q-.26-.19-.51-.36l-.3-.2-.24-.16,0,0a1.9,1.9,0,0,1,.11-.21c.16-.24.31-.47.47-.69a9,9,0,0,1,3.38-3.11,4.35,4.35,0,0,1,4.06.22c3.38,1.78,6.63,7.22,7.56,12.65C271.1,276.44,269.88,281.53,267.05,284.65Z" style="fill:#fff"/><path d="M205,87c-.46-1.31-1.83-1.88-3.65-1.55a34,34,0,0,1-5.69.41l-1,0a9.6,9.6,0,0,0-.78-4.07,1.46,1.46,0,0,0-1.18-.79,1.48,1.48,0,0,0-1.31.55,21.82,21.82,0,0,0-2.71,5,14.92,14.92,0,0,0-2.81,1c-1.07.52-9.13,5.42-10.53,7.07a47.86,47.86,0,0,0-4.44,6c-.68,1-1.44,2.23-2.57,3.81l-.09.13-.46.63c1.06-3.68,3.26-7.06,5.58-10.59a71.09,71.09,0,0,0,4.34-7.24,69.86,69.86,0,0,0,3.16-8.07c1.73-5,3.36-9.78,6.9-13.21a1.5,1.5,0,0,0,.29-1.76,1.52,1.52,0,0,0-1.59-.8c-5.39.91-10.28,4.92-13.42,11a59.39,59.39,0,0,0-4.32,12.82c-.28,1.09-.56,2.18-.85,3.26-1.3,4.8-3.13,10.22-6.87,14.09a.7.7,0,0,0-.1.16,29.44,29.44,0,0,0-11-27.57,55.5,55.5,0,0,0-4.65-3.06c-1.09-.66-2.21-1.35-3.27-2.07a35.94,35.94,0,0,1-7.29-6.64,1.53,1.53,0,0,0-1.63-.47,1.51,1.51,0,0,0-1,1.34c-.18,3.12,1.22,6.37,3.93,9.15a36.9,36.9,0,0,0,5.84,4.55l1.54,1.06c4.84,3.37,8,6.64,10,10.28a14.44,14.44,0,0,1,.24,12.18,1.41,1.41,0,0,0-.29-.31,35.63,35.63,0,0,1-5.07-5.72c-2.21-2.84-4.5-5.78-7-7.37-4.42-2.77-9.89-2.68-14.71-2.59h-.3c-1.57,0-3.33,0-4.19-1l-.2-.24c-.6-.69-2-2.31-3.77-1.34a2.65,2.65,0,0,0-1.29,1.9c-.66,3.21,2.2,6.07,5.28,6.73a17.16,17.16,0,0,0,5.2.08c.79-.07,1.54-.13,2.28-.14a14.68,14.68,0,0,1,11.1,4.87c.57.64,1.11,1.35,1.68,2.1a16.11,16.11,0,0,0,5,4.82c-.16.1-.3.21-.43.31l-.05,0c-3.67-1.71-9.93,0-12.87,2.59a39.47,39.47,0,0,0-3.24,3.38,28.41,28.41,0,0,1-3.76,3.76,29,29,0,0,1-6.27,3.34c-2.87,1.24-5.84,2.53-8.19,4.84a3.26,3.26,0,0,0-1.07,2,2.49,2.49,0,0,0,.63,1.86,3.1,3.1,0,0,0,2.12,1h.17a5.33,5.33,0,0,0,2.53-.79c6.65-3.5,13.52-7.13,19.53-12l.7-.58a20.59,20.59,0,0,1,3.55-2.54,12,12,0,0,1,5.81-.69,35.14,35.14,0,0,0-7.05,4.48c-5.59,4.72-8.71,11.58-11.46,17.63a22.26,22.26,0,0,0-1.68,4.58,1.5,1.5,0,0,0,.9,1.7,2.79,2.79,0,0,0,1.09.22,4.34,4.34,0,0,0,3.21-1.76,23.7,23.7,0,0,0,3.54-6.4c.36-.83.71-1.66,1.1-2.47A27.37,27.37,0,0,1,154,115.44c.48.15,1,.29,1.49.42a76.69,76.69,0,0,0-5.73,10.36c-.57,1.16-1.13,2.31-1.71,3.45-2.49,4.91-6.08,10.93-11.71,13.91l-.23.12a6,6,0,0,0-2.77,2.34,3.33,3.33,0,0,0,.18,3.27,2.56,2.56,0,0,0,2.14,1.2h.18a3.34,3.34,0,0,0,1.66-.65,58.34,58.34,0,0,0,20.58-23.28l.84-1.77a37,37,0,0,1,2.87-5.35,11.21,11.21,0,0,1,.77,4.93,33.29,33.29,0,0,1-1.51,7.27c-.17.59-.33,1.18-.49,1.76-2.47,9.1-1.8,16.2,2,21.1a6.23,6.23,0,0,0,3.2,2.38,4.2,4.2,0,0,0,1,.13,3.54,3.54,0,0,0,3.37-2.2c.77-2.15-.91-3.78-2-4.86l-.6-.6c-1.5-1.61-1.77-4.18-1.92-6.9a44.84,44.84,0,0,1,.22-10.55c.22-1.18.53-2.33.85-3.55s.7-2.58.94-3.92a10.84,10.84,0,0,0,.11-2.19,23.52,23.52,0,0,1,3.55,6.19c.34,1.17.63,2.39.92,3.58a34,34,0,0,0,2.68,8.15c1.79,3.41,5.5,6.75,9.76,6.75a8.24,8.24,0,0,0,1.39-.12,3.51,3.51,0,0,0,2.14-1.11,3.11,3.11,0,0,0-.22-3.95,6.4,6.4,0,0,0-2.05-1.45l-.22-.11a16.47,16.47,0,0,1-8.62-12.65c-.06-.59-.09-1.19-.12-1.79a13.29,13.29,0,0,0-1.29-6c-1.23-2.17-4.23-3.86-6.76-5h.19a33.8,33.8,0,0,0,6.91-.92c3.74-.8,7.63-1.8,10.45-4.54a21,21,0,0,0,4-6.09,35.4,35.4,0,0,0,3.17-8s.09-.42.21-1c.49-.16,1-.32,1.5-.52.76-.29,1.53-.56,2.31-.82a30.9,30.9,0,0,0,5.7-2.41C204.76,89.54,205.41,88.23,205,87Zm-56.05,22.91c-.34-.5-.64-1-.52-1.41.2-.63,1.27-1.06,2.94-1.17,4.33-.3,7.77.15,10.5,1.37,1.84.82,3.44,2,3.37,2.83C165,114,151,113,148.91,109.89Zm29-2c-1.63.95-5.28,1.41-8.05,1.64,2.38-4.26,6.19-7.7,9.66-10.64a13.64,13.64,0,0,1,5.8-2.83c-.25.78-.5,1.49-.72,2.1C183.32,101.61,181.43,105.83,177.87,107.9Z" style="fill:#f13a5b"/><path d="M193.91,168.44a12.63,12.63,0,0,0-4.89,2.93,11.16,11.16,0,0,0-2.63,3.12c-1,2-.15,3.56,1.46,3.6C194.08,178.26,200.43,166.87,193.91,168.44Z" style="fill:#fff;stroke:#ab66f4;stroke-linecap:round;stroke-linejoin:round;stroke-width:3px"/><path d="M198.54,143.64c.6,1.16,3,3.86,5.92,3.44a2.57,2.57,0,0,0,2.25-3.13C205.49,138.42,196,138.76,198.54,143.64Z" style="fill:none;stroke:#ab66f4;stroke-linecap:round;stroke-linejoin:round;stroke-width:3px"/><path d="M184.4,181.93c7.49-9.75,19.49-17.29,21.14-29.47a12.27,12.27,0,0,0-1.37-8.15,7.13,7.13,0,0,0-7.12-3.48c-2.21.44-3.94,2.11-5.54,3.71l-10.29,10.31a24.35,24.35,0,0,0-4.43,5.4,24.23,24.23,0,0,0-2.15,8.11c-.62,4.34-7,31-4,33.17C175,204.54,182.08,184.63,184.4,181.93Z" style="fill:#d0c3f1;stroke:#ab66f4;stroke-linecap:round;stroke-linejoin:round;stroke-width:3px"/><path d="M187.83,155.38a9.53,9.53,0,0,0-4.13,4,7.35,7.35,0,0,0-1.25,3.71,3.46,3.46,0,0,0,4,3.43C194.13,165.46,194.78,152.51,187.83,155.38Z" style="fill:#d0c3f1;stroke:#ab66f4;stroke-linecap:round;stroke-linejoin:round;stroke-width:3px"/><path d="M181.44,176.94a9.31,9.31,0,0,0-2.07,4.21c-.27,1.08-.87,5.35,2.83,5.06C187.7,185.78,185.48,172.91,181.44,176.94Z" style="fill:#d0c3f1;stroke:#ab66f4;stroke-linecap:round;stroke-linejoin:round;stroke-width:3px"/><path d="M203,150.66a9.3,9.3,0,0,0-3.35,3.93c-.55,1.08-2.12,6.91,2.39,6.19C208.46,159.76,208.67,147.48,203,150.66Z" style="fill:#d0c3f1;stroke:#ab66f4;stroke-linecap:round;stroke-linejoin:round;stroke-width:3px"/><path d="M174.44,161.94c-2.94,2.56-2.51,6.48-2.32,7.5.35,1.86,1.84,2.48,3.08,1.77C180,168.49,178.74,158.19,174.44,161.94Z" style="fill:#d0c3f1;stroke:#ab66f4;stroke-linecap:round;stroke-linejoin:round;stroke-width:3px"/><path d="M195.19,139.69a10.94,10.94,0,0,0-4.93,2.57,9.33,9.33,0,0,0-2.54,3c-.94,2,.08,3.68,1.78,3.88C196.05,149.93,201.91,138.7,195.19,139.69Z" style="fill:#d0c3f1;stroke:#ab66f4;stroke-linecap:round;stroke-linejoin:round;stroke-width:3px"/><path d="M362.92,198.84c-3.3-2.27-6.18-1.64-9.24-1-.89.2-1.82.4-2.81.54-1.28.19-2.34,0-2.5-.38a1.6,1.6,0,0,0-.38-.54,25.82,25.82,0,0,0,1.71-4,26.54,26.54,0,0,0,5.46-2.26l.77-.44a13.53,13.53,0,0,1,2.36-1.16,3.17,3.17,0,0,1,2.47,0,4,4,0,0,1,1.56,2.08,1.62,1.62,0,0,0,1.7,1c2.16-.24,3.09-5.26,3.1-5.31.57-3.24-.73-4.44-1.56-4.86-2.6-1.31-5.6-.59-7.92.19a56,56,0,0,0-6.4,2.59,35.3,35.3,0,0,0-.75-9.05,38.36,38.36,0,0,0-5.07-12.56,22.2,22.2,0,0,0-8.05-7.92c-1.94-1-6.44-3.27-6.62-3.57-1.08-1.83-.78-5.39-.57-7.73l0-.29a53.28,53.28,0,0,1,1.63-5.85c2.7-8.81,3.17-11,1.62-11.95a1.92,1.92,0,0,0-1.54-.2c-.72.2-2.05.58-6,8.76l-.08.16a26.36,26.36,0,0,0-3,16.09,42,42,0,0,0-7.57-.52c.86-4.51,1.32-12.71.72-14.94-.9-3.46-2.42-9.26-5.69-11.16-4.26-2.5-6.42-1-7.14-.22a3.45,3.45,0,0,0-.38,4.24,14.82,14.82,0,0,0,1.17,1.41c1.85,2.1,5.71,6.46,5.7,9.87,0,4.28-1.45,8.46-2.95,12.52a10.56,10.56,0,0,0-1.16.6l-.26.16c-1.25-.75-2.65-1.59-4.12-2.49-11.77-7.18-20.4-12.16-24.21-11a2.87,2.87,0,0,0-1.83,1.51c-1.14,2.35,1.47,3.78,2.89,4.55a7.54,7.54,0,0,1,.81.46,64.34,64.34,0,0,0,6.49,3.45,49.49,49.49,0,0,1,7.64,4.3,45.38,45.38,0,0,1,3.83,3.24c1.25,1.12,2.52,2.26,3.91,3.3,0,.19,0,.39-.05.59-6.21-1.15-12.46,1.72-16.79,4.09l-2.37,1.32c-4.51,2.54-8.77,4.95-13.72,5.38a11.19,11.19,0,0,1-2-.36c-1.91-.45-3.57-.84-4.66,0a2.05,2.05,0,0,0-.77,1.58c0,1.95,3.69,4.73,7,5.43a6.16,6.16,0,0,0,.93.14c5.27.48,10.16-1.68,14.89-3.77a62.54,62.54,0,0,1,6.81-2.7c4.32-1.31,8.18-2.28,11.56-.94l.07,0a34.76,34.76,0,0,0,1.5,4.8c-6.88,4.47-11.27,5.74-20.46,7.15-7.33,1.11-13.71,11.32-15.14,15.38-.4,1.17-.75,2.62.12,3.56a1.73,1.73,0,0,0,1,.55,1.89,1.89,0,0,0,1,0c2.86-.74,4.86-3.48,7-6.39,1.58-2.15,3.21-4.38,5.14-5.65,4.16-2.71,13.95-5.39,26.44-5.24l.14.2a27.48,27.48,0,0,1-8,15.06c-1.31,1.24-2.72,2.35-4.23,3.52a50.85,50.85,0,0,0-5.21,4.5c-3.13,3.23-4.8,5.59-5.87,10.25-1,4.45.39,8.16,3.77,9.93a2.84,2.84,0,0,0,.38.13,1.66,1.66,0,0,0,.83-.06,1.52,1.52,0,0,0,.88-.84,29.3,29.3,0,0,0,1.22-4.29,31.76,31.76,0,0,1,4.65-11.5,29.75,29.75,0,0,1,5.88-6.27,56.62,56.62,0,0,0,4.15-3.87,39.3,39.3,0,0,0,7-10.17c1.22,1.2,2.48,2.34,3.75,3.38a1.22,1.22,0,0,0-.2.35,25.18,25.18,0,0,0-1.4,7.14,28.71,28.71,0,0,1-.84,5.32c-1,3.35-3.21,6.14-5.57,9.1-1,1.18-1.92,2.41-2.81,3.67-1.51,2.16-3.15,6.4-4.35,9.49-.2.51-.38,1-.55,1.39a1.51,1.51,0,0,0,.84,1.94,2.22,2.22,0,0,0,.39.12c1.13.24,2.72-.51,6.14-6.68,1.62-3,4.11-5.28,6.75-7.74,1.06-1,2.15-2,3.17-3.07a16,16,0,0,0,3.49-4.86,18.59,18.59,0,0,0,1.08-5.31l.61-6.17c.4.22.79.45,1.17.65,0,.09.05.18.08.27a23.31,23.31,0,0,1,1,13.84c-.27,1.09-.61,2.16-1,3.3-.41,1.31-.85,2.65-1.14,4a25.69,25.69,0,0,0,.18,11.16c.35,1.51,2.44,5.66,4.73,6.57a5.47,5.47,0,0,0,.67.2,2.49,2.49,0,0,0,2.26-.54c.4-.36,1.65-1.48.39-6a34.51,34.51,0,0,1-.18-17.93c.19-.7.4-1.39.6-2.1a34.46,34.46,0,0,0,1.16-4.76,13.21,13.21,0,0,0-.1-4.72l.26.06c1.27,1.28,2.32,3.76,3.14,5.71a7.83,7.83,0,0,1,.38,2.83c.09,6.58.39,12.45,3.07,17.86a7.72,7.72,0,0,0,5.2,3.62l.3.06a6,6,0,0,0,5.31-1.5,2.83,2.83,0,0,0,1-2.35c-.17-1.35-1.37-2.06-2.77-2.88-2.33-1.38-5.23-3.09-5.51-7.76-.14-2.47-.89-8.28-1.25-10.62a14.34,14.34,0,0,0-1.68-5,6.3,6.3,0,0,0,1.37-.54,8.78,8.78,0,0,0,2.39,1.72,9.73,9.73,0,0,0,2.15.73,11.76,11.76,0,0,0,4.83-.07c.8-.18,1.58-.44,2.34-.68a11.89,11.89,0,0,1,3.36-.78c.95,0,5.73-.29,6.44-2.68C364.61,201.06,364.53,199.94,362.92,198.84Zm-19.27-.06c-.26.38-.56.76-.86,1.13a3.92,3.92,0,0,1-1.59,1.14l-2.53.46-.28.05-2.72-.22a23.06,23.06,0,0,1-2.41-.57c-.72-.2-1.47-.45-2.22-.74a39.18,39.18,0,0,1-6.53-3.29q-.93-.57-1.89-1.23A49.47,49.47,0,0,1,315,189c-.78-.81-1.54-1.66-2.27-2.54-.44-.53-.88-1.07-1.3-1.64-.76-1-1.48-2-2.15-3.12a35.84,35.84,0,0,1-5.65-18.13c0-.39,0-.78,0-1.18,0-.13,0-.25,0-.38,0-.28,0-.55,0-.84a6.52,6.52,0,0,1,.39-2.08,6,6,0,0,1,2.09-2.85l0,0a3.2,3.2,0,0,1,.27-.22,6.89,6.89,0,0,1,.64-.4c.18-.11.36-.2.54-.29a9.11,9.11,0,0,1,1.36-.58c3.95-1.42,21.34,9.54,19.13,11.66-1.2,1.16-3.27,1.92-4.74,3a15.27,15.27,0,0,0-6.36,8.08c-.8,2.14.37,4.92,3.11,7.44a13.27,13.27,0,0,0,5.92,3.31,5.7,5.7,0,0,0,3.65-.32c2.85-1.34,3.38-4.47,3.84-7.22a13.42,13.42,0,0,1,1.14-4.19,6,6,0,0,1,4-3.11c2.44-.56,9.94,9.7,9.46,13.74-.05.48-.12,1-.21,1.47a22.76,22.76,0,0,1-.53,2.44,25.06,25.06,0,0,1-1.14,3.24A22.8,22.8,0,0,1,343.65,198.78Z" style="fill:#f13a5b"/><path d="M188.69,293.24c-3.19,8.23-1.17,17.59,2.22,25.75,3,7.3,7.66,14.64,15.06,17.4,8.73,3.26,19.21-1.38,24-9.37s4.37-18.41.41-26.84C223.1,284.69,198,269.17,188.69,293.24Z" style="fill:#fff"/><path d="M346.42,92.75c-1.2-3.24-10.11-3.19-11.25-3a14.11,14.11,0,0,0-5.36,2.6l-.26.18a84.82,84.82,0,0,1-11.82,6.68c-1.9.88-4.11,1.81-6.24,1.68-1.44-.09-2.83-1.2-4.13-3.3a1.3,1.3,0,0,0-.16-.31,14.31,14.31,0,0,0-1.89-5.15,14.75,14.75,0,0,1,.78-1.38A36.56,36.56,0,0,0,308,87.42a16.3,16.3,0,0,0,6-.45A1.51,1.51,0,0,0,315,85.64a1.48,1.48,0,0,0-.87-1.46l-3.32-1.55a9.9,9.9,0,0,1,1.33-1.34,4.45,4.45,0,0,1,1.44-.9,3.8,3.8,0,0,1,1.64,0,14.78,14.78,0,0,1,6.63,3l.2.16A5.62,5.62,0,0,0,324.83,85a3.24,3.24,0,0,0,2.72-.94,2.51,2.51,0,0,0,.69-2.24,3.38,3.38,0,0,0-.74-1.44,16.85,16.85,0,0,0-5.22-4.86c-3.52-1.84-8.17-1.49-12.12.94a20.24,20.24,0,0,0-4.44,3.75c-3.46-1.54-7.77-3.14-12.08-2.16a13,13,0,0,0-5.9,3.21,44.77,44.77,0,0,0-7.81-1.1c-9.55-.5-19.76,4.35-25.88,11.91l-.18-.09c-4.79-2.35-9.18-2.39-12-.09-2.64,2.14-4.07,5.47-5.34,8.41l-.09.22c-.45,1-1,2.1-1.52,3.11-1.51,3-3.09,6-2.95,9.63a1.56,1.56,0,0,0,1.19,1.42,1.6,1.6,0,0,0,.94-.11c3.08-1.44,4.73-4.46,6.19-7.12a39.75,39.75,0,0,1,5.81-8c1.24-1.15,1.86-1,3.93-.71h0a42.13,42.13,0,0,0-3.7,16.09,11.92,11.92,0,0,0-3.93.1,31.42,31.42,0,0,0-3.81,1.22c-.67.24-1.32.49-2,.71-1.7.55-6.87,1.39-11.44,2.13-1.72.29-3.38.55-4.76.79a30.27,30.27,0,0,1-3.49-.44c-.61-.08-1.12-.17-1.42-.2a4,4,0,0,0-2.92.8,2.87,2.87,0,0,0-1.09,1.92c-.09.82.07,2.84,3.5,3.84,1.74.51,3.52,1,5.3,1.38,4.08.86,8.18,1.1,12-.47a26.59,26.59,0,0,0,3.91-2.13,19.69,19.69,0,0,1,4.24-2.19,13.07,13.07,0,0,1,6.55,0l.44.11c.22,1,.45,1.91.75,2.87a15.2,15.2,0,0,0-9.27,13,6.11,6.11,0,0,0,.18,2,7,7,0,0,0,1.2,2.15c.68.91,1.36,1.77,2.06,2.55a52.9,52.9,0,0,0-4,7.26c-1,2.16-1.93,4.72-1.41,7.34a3.45,3.45,0,0,0,2.41,2.84,2.24,2.24,0,0,0,.86,0,3.24,3.24,0,0,0,2.45-2.23,40.92,40.92,0,0,0,1.54-4.48,25.55,25.55,0,0,1,2.31-5.88c.14-.23.29-.46.45-.68a16.71,16.71,0,0,0,6.36,2.87l.16,0a1.51,1.51,0,0,0,1.58-.7c.77-1.3.44-3-.94-4.5a18.62,18.62,0,0,0-3-2.78A47.29,47.29,0,0,0,258.64,130c1.69.18,3.44.31,5.22.37h0c2.4,3,4.52,5.94,4.44,9.14-.05,2.55-1.48,4.9-3,7.38-.34.58-.7,1.16-1,1.73a38.69,38.69,0,0,0-2.68,5.72c-1.84,5-.74,7.77.49,9.25a1.49,1.49,0,0,0,.84.51,1.51,1.51,0,0,0,.56,0,1.49,1.49,0,0,0,1.16-1c.33-.9.56-1.8.79-2.66.14-.54.27-1.09.44-1.61a36.78,36.78,0,0,1,3.92-7.9c.58-1,1.16-1.92,1.71-2.9,1.76-3.14,4-7.91,3.1-12.91a22.64,22.64,0,0,0-.67-2.58,14.64,14.64,0,0,1-.65-2.72,42,42,0,0,0,4.34-.84s0,0,.07,0c2.39,1,4.85,4.5,5.17,7.39.11,1.07.14,2.16.16,3.31a21.48,21.48,0,0,0,.88,6.74c2,5.77,8,8.69,13.48,11a12.75,12.75,0,0,0,2.2.73,4.69,4.69,0,0,0,4-.73,1.48,1.48,0,0,0,.57-1.23,1.56,1.56,0,0,0-.66-1.19l-9.15-6.26a12.44,12.44,0,0,1-3.32-2.88c-1.26-1.82-1.34-4.25-1.43-6.84l0-1a49.38,49.38,0,0,0-2.25-12.88,34.44,34.44,0,0,0,5.22-3.75,20.88,20.88,0,0,0,8.75,3.54c.72.1,1.44.18,2.16.25a14.31,14.31,0,0,1,4.55,1c1.89.89,3.27,2.65,4.73,4.52.48.6.94,1.21,1.43,1.78a26.62,26.62,0,0,0,6.83,5.73,12.33,12.33,0,0,0,3.66,1.52,6.74,6.74,0,0,0,2.9,0,1.5,1.5,0,0,0,.82-2.44A34.26,34.26,0,0,0,321,131l-.6-.39a9.84,9.84,0,0,1-2.93-2.38,10.55,10.55,0,0,1-1.05-2.29,12.25,12.25,0,0,0-1.4-3c-2.26-3.24-6.51-3.78-9.93-4.2-3.67-.46-5.92-1.47-6.85-3.08,1-1.14,1.86-2.32,2.71-3.53,2.22,1.3,5.06,1.85,7.81,2.37s5.62,1.08,7.46,2.35,3,3.29,4.24,5.42c.62,1,1.26,2.14,2,3.17a20.58,20.58,0,0,0,7.6,6.41,1.42,1.42,0,0,0,.35.11,1.49,1.49,0,0,0,1.47-.52c1-1.22,1.65-3.45-.91-7.17l-5.12-7.37a21,21,0,0,0-3.8-4.49c-2.55-2.08-5.69-2.82-8.72-3.53a21.42,21.42,0,0,1-6.9-2.48c-.67-.43-.79-.75-.79-.79a.79.79,0,0,0,0-.22,30,30,0,0,1,4.16,1c1,.3,2.1.61,3.2.84a17.57,17.57,0,0,0,1.79.29c3.3.38,6.83-.92,10.48-3.88.94-.76,1.81-1.6,2.66-2.39a21.13,21.13,0,0,1,5-3.91A22.94,22.94,0,0,1,339.27,96a28,28,0,0,0,6.29-1.28A1.52,1.52,0,0,0,346.42,92.75Zm-45.19-6.32-.43.71c-.41-.32-.84-.64-1.3-.94C300.07,86.26,300.65,86.34,301.23,86.43Zm-8.37.56a8.24,8.24,0,0,1,1.07-.43,24.23,24.23,0,0,1,5.33,3.22q-1.59,2.88-2.93,5.88a45.94,45.94,0,0,0-9.1,1.67C287.63,93.22,289.77,88.51,292.86,87Zm-22.11,2.17c1.57-4,10.24-4.82,14.3-4.79a28.44,28.44,0,0,0-2.83,5,57.47,57.47,0,0,0-3.41,11v0c-1.72.73-3.23,1.46-4.47,2.07a17.8,17.8,0,0,1-1.49-2.06l-.17-.27C270.89,97.21,268.87,94,270.75,89.16Zm-18.94,13c.08-.17,1.54-2.26,1.62-2.4a24.71,24.71,0,0,1,2.83,1.93c1.25,1,4,7,4.62,9.35a51,51,0,0,0-5.06,4.69l-.77.85c-.9-.17-1.93-.41-3-.68-.89-.21-1.81-.44-2.74-.63A30.37,30.37,0,0,1,251.81,102.2Zm-6.25,33.33a13.53,13.53,0,0,1,3.35-4.11,21,21,0,0,1,2.34-1.49l0,0a6,6,0,0,1,.35.72,4.25,4.25,0,0,1-.56,3.55,16.66,16.66,0,0,1-2.51,3l-.52.55c-.78.83-1.53,1.67-2.26,2.54a4.17,4.17,0,0,1-.29-.44A5,5,0,0,1,245.56,135.53Zm38.73-12.08c-10.91,5.33-22.93,4.19-32.23,2.57,2.79-5.33,7.3-10.26,13.45-14.72.48,3.93.94,6.9,1.47,8.13a7.08,7.08,0,0,0,5.19,3.94,10.72,10.72,0,0,0,1.3.17c2.3.14,14.49-4.35,15.33-8.36.74-3.53-2.07-6.05-5.23-6.72a16.41,16.41,0,0,1-7-3.79c8.44-4.14,19-7.31,27-5.62a6.4,6.4,0,0,1,.63.14C301.53,108.37,292.57,119.43,284.29,123.45Z" style="fill:#7437f5"/><path d="M213.66,293.42a3.41,3.41,0,0,0,.21,2.48,2.82,2.82,0,0,0,1.44,1.67,2,2,0,0,0,2.29-.89,2.8,2.8,0,0,0,0-2.58C216.94,292.61,214.54,291.11,213.66,293.42Z" style="fill:#ab66f4"/><path d="M193.32,300.4a3.46,3.46,0,0,0,.21,2.48,2.84,2.84,0,0,0,1.45,1.67,2,2,0,0,0,2.29-.89,2.83,2.83,0,0,0,0-2.58C196.6,299.59,194.21,298.09,193.32,300.4Z" style="fill:#ab66f4"/><path d="M217.88,323.58a3.4,3.4,0,0,0-1.52,2,2.84,2.84,0,0,0-.07,2.21,2,2,0,0,0,2.29.89,2.81,2.81,0,0,0,1.77-1.87C220.85,325.21,220.1,322.48,217.88,323.58Z" style="fill:#ab66f4"/><path d="M196.13,299.54c-2,5.28-.75,11.27,1.42,16.5,1.93,4.67,4.91,9.38,9.65,11.15,5.59,2.08,12.3-.89,15.36-6s2.8-11.79.27-17.19C218.17,294.06,202.11,284.12,196.13,299.54Z" style="fill:#d0c3f1"/><path d="M211,329.36a12.32,12.32,0,0,1-4.33-.77c-4.35-1.62-7.89-5.65-10.51-12-2.83-6.83-3.31-12.75-1.43-17.61,2.78-7.18,7.41-8.82,10.81-8.94H206c7.42,0,15.2,6.83,18.23,13.3,2.93,6.24,2.8,13.36-.33,18.6A15.32,15.32,0,0,1,211,329.36Zm-5-36.31h-.32c-3.62.12-6.35,2.49-8.11,7h0c-1.6,4.12-1.13,9.29,1.4,15.38,2.29,5.53,5.25,9,8.79,10.32,4.66,1.74,10.74-.67,13.56-5.37,2.62-4.39,2.7-10.44.19-15.79C218.81,299,212,293.05,206,293.05Z" style="fill:#ab66f4"/><path d="M204.14,301.17a3.41,3.41,0,0,0,.21,2.48,2.82,2.82,0,0,0,1.44,1.67,2,2,0,0,0,2.29-.89,2.8,2.8,0,0,0,0-2.58C207.42,300.35,205,298.86,204.14,301.17Z" style="fill:#ab66f4"/><path d="M212.25,301.75a3.38,3.38,0,0,0,.22,2.47,2.81,2.81,0,0,0,1.44,1.68,2,2,0,0,0,2.29-.9,2.83,2.83,0,0,0,0-2.58C215.53,300.93,213.14,299.43,212.25,301.75Z" style="fill:#ab66f4"/><path d="M210.22,311.12a3.43,3.43,0,0,0,.22,2.47,2.84,2.84,0,0,0,1.44,1.68,2,2,0,0,0,2.29-.9,2.83,2.83,0,0,0,0-2.58C213.51,310.3,211.11,308.8,210.22,311.12Z" style="fill:#ab66f4"/><path d="M205.76,293.68a3.38,3.38,0,0,0,.21,2.47,2.87,2.87,0,0,0,1.44,1.68,2,2,0,0,0,2.29-.9,2.8,2.8,0,0,0,0-2.58C209,292.86,206.64,291.36,205.76,293.68Z" style="fill:#ab66f4"/><path d="M194.06,311a3.44,3.44,0,0,0,.49,2.44,2.79,2.79,0,0,0,1.61,1.5,2,2,0,0,0,2.18-1.14,2.8,2.8,0,0,0-.25-2.57C197.24,309.86,194.69,308.63,194.06,311Z" style="fill:#ab66f4"/><path d="M197.7,303.7a3.46,3.46,0,0,0,.22,2.48,2.87,2.87,0,0,0,1.44,1.68,2,2,0,0,0,2.29-.9,2.8,2.8,0,0,0,0-2.58C201,302.89,198.59,301.39,197.7,303.7Z" style="fill:#ab66f4"/><path d="M217.7,309.2a3.46,3.46,0,0,0,.21,2.48,2.8,2.8,0,0,0,1.45,1.67,2,2,0,0,0,2.29-.89,2.83,2.83,0,0,0,0-2.58C221,308.39,218.59,306.89,217.7,309.2Z" style="fill:#ab66f4"/><path d="M219.72,299.83a3.46,3.46,0,0,0,.22,2.48,2.79,2.79,0,0,0,1.44,1.67,2,2,0,0,0,2.29-.89,2.83,2.83,0,0,0,0-2.58C223,299,220.61,297.52,219.72,299.83Z" style="fill:#ab66f4"/><path d="M206.56,324.45a3.43,3.43,0,0,0,.21,2.47,2.85,2.85,0,0,0,1.45,1.68,2,2,0,0,0,2.29-.9,2.83,2.83,0,0,0,0-2.58C209.84,323.63,207.45,322.13,206.56,324.45Z" style="fill:#ab66f4"/><path d="M213,318.38a3.38,3.38,0,0,0,.22,2.47,2.81,2.81,0,0,0,1.44,1.68,2,2,0,0,0,2.29-.9,2.83,2.83,0,0,0,0-2.58C216.25,317.56,213.86,316.07,213,318.38Z" style="fill:#ab66f4"/><path d="M199.5,292a3.4,3.4,0,0,0-1.75,1.77,2.78,2.78,0,0,0-.34,2.18,2,2,0,0,0,2.16,1.17,2.81,2.81,0,0,0,2-1.65C202.25,294,201.84,291.22,199.5,292Z" style="fill:#ab66f4"/><path d="M202.34,314.9a3.45,3.45,0,0,0,.22,2.48,2.87,2.87,0,0,0,1.44,1.68,2,2,0,0,0,2.29-.9,2.8,2.8,0,0,0,0-2.58C205.63,314.09,203.23,312.59,202.34,314.9Z" style="fill:#ab66f4"/><path d="M222.72,315a3.4,3.4,0,0,0,.22,2.48,2.84,2.84,0,0,0,1.44,1.68,2,2,0,0,0,2.29-.9,2.83,2.83,0,0,0,0-2.58C226,314.18,223.61,312.68,222.72,315Z" style="fill:#ab66f4"/><path d="M166.32,331.59c.79-1.08,1-2.45-.73-3.19a2.86,2.86,0,0,0-1.23-.22,17.15,17.15,0,0,0-10.71-5,60.63,60.63,0,0,0-11.5.39h0a2.81,2.81,0,0,0-1.3-.26,5.6,5.6,0,0,0-2.76.9,60.6,60.6,0,0,0-9.57,2.67,7.69,7.69,0,0,0-3.64,2.42,2.18,2.18,0,0,0-.44.11,2.3,2.3,0,0,0-1.17,2.62,2.94,2.94,0,0,0,1.2,1.68h0a4.62,4.62,0,0,0,.33.67c1.23,2.08,3.41,3.09,5.58,3.88,1.49.53,3,1,4.54,1.43a2.45,2.45,0,0,0,1,1.38,3.27,3.27,0,0,0,3,.19,3.89,3.89,0,0,0,.81-.46,62.89,62.89,0,0,0,11.76,1.13c.94,0,1.89,0,2.83-.06,2.65-.13,5.42-.46,7.75-2,4.45-3,4.8-6.12,4.28-8.23Zm-2.85,1.64c-.08,1.38-1.11,2.76-3.11,4.11A6.37,6.37,0,0,1,159,338a1.79,1.79,0,0,0-1.28-1.95,4,4,0,0,0-2.9.1,3.38,3.38,0,0,0-2,1.58,1.94,1.94,0,0,0-.12,1.14,59.47,59.47,0,0,1-11.52-.89c-1.58-.27-3.16-.61-4.71-1-1.72-.45-3.42-1-5.08-1.57a11.82,11.82,0,0,1-2.9-1.4,1.76,1.76,0,0,0,.71-2.52,3,3,0,0,0-1-1.21,9,9,0,0,1,1.38-.62,59.38,59.38,0,0,1,5.73-1.78,2.07,2.07,0,0,0,1.75,1.45,5.16,5.16,0,0,0,3.68-1.11,6.21,6.21,0,0,0,1.53-1.69,58.36,58.36,0,0,1,7.58-.5c1.21,0,2.43,0,3.63.12l.21,0a5.72,5.72,0,0,0-.59.17,3.29,3.29,0,0,0-2,1.58,2.3,2.3,0,0,0,.91,2.72,3.27,3.27,0,0,0,3,.2c1.5-.61,3.07-2.63,1.94-3.95-.49-.17-1-.31-1.48-.43a13.75,13.75,0,0,1,1.48.43,14.55,14.55,0,0,1,4.37,2.4,6.21,6.21,0,0,1,2.13,2.94A2.94,2.94,0,0,1,163.47,333.23Z" style="fill:#ab66f4"/><path d="M144,332.16a4,4,0,0,0-2.9.1,3.29,3.29,0,0,0-2,1.58,2.29,2.29,0,0,0,.91,2.72,3.27,3.27,0,0,0,3,.2C144.72,336,146.61,333.33,144,332.16Z" style="fill:#ab66f4"/></svg>