<svg id="Layer_1" data-name="Layer 1" xmlns="http://www.w3.org/2000/svg" viewBox="0 0 500 500"><defs><style>.cls-1{fill:#bdbdbd;}.cls-2{fill:#e0e1e0;}.cls-3{fill:#838383;}.cls-4{fill:#505050;}.cls-5{fill:#adabab;}.cls-6{fill:#333;}.cls-7{fill:#6d6b6b;}.cls-8{fill:#010101;}.cls-9{fill:#f3f3f3;}.cls-10{fill:#77c043;}</style></defs><title>loading</title><rect class="cls-1" width="500" height="500"/><path class="cls-2" d="M79,56.05l225.37-12.2,60.77,37.53-245.8,9.38Z"/><path class="cls-3" d="M81.82,218.35,151.25,361v18.76L81.82,285.9Z"/><rect class="cls-4" x="380.4" y="276.61" width="2.33" height="82.37" transform="translate(-114.47 294.76) rotate(-37.13)"/><path class="cls-5" d="M119.35,88.88l245.8-7.5L379.22,285.9,119.35,296.16Z"/><rect class="cls-6" x="146.43" y="108.3" width="192.61" height="159.04" rx="9.38" transform="translate(-6.34 8.49) rotate(-1.98)"/><rect class="cls-7" x="166.6" y="125.39" width="156.67" height="127.5" rx="16.89" transform="translate(-6.38 8.57) rotate(-1.98)"/><path class="cls-8" d="M185.12,256.15a18.05,18.05,0,0,1-18-17.43l-3.24-93.67a18.07,18.07,0,0,1,17.42-18.67l122.82-4.24a18.05,18.05,0,0,1,18.67,17.42L326,233.23a18.07,18.07,0,0,1-17.42,18.66l-122.82,4.25Zm-3.76-127.44A15.73,15.73,0,0,0,166.19,145l3.24,93.67a15.71,15.71,0,0,0,16.25,15.17l122.82-4.24a15.74,15.74,0,0,0,15.18-16.26l-3.24-93.67a15.73,15.73,0,0,0-16.26-15.17Z"/><rect class="cls-8" x="144.09" y="339.73" width="249.51" height="1.16" transform="translate(-15.18 12.56) rotate(-2.6)"/><polygon class="cls-8" points="136.25 331.51 136.19 330.35 380.13 317.21 380.19 318.38 136.25 331.51"/><rect class="cls-8" x="127.73" y="306.42" width="240.4" height="1.16" transform="translate(-13 10.97) rotate(-2.47)"/><path class="cls-8" d="M399.49,391.08l-1.14-.22a14.73,14.73,0,0,1,6-9.88c8-5.47,21.84-2.84,34-.52,9.28,1.76,18,3.43,20.17.2,1.69-2.56-.48-8.29-6.64-17.51-18.82-28.16-56.28-58.77-76.37-56l-.15-1.15c20.48-2.82,58.48,28.1,77.49,56.54,6.54,9.79,8.65,15.77,6.64,18.8-2.57,3.88-10.86,2.3-21.35.3-11.95-2.28-25.49-4.86-33.13.35C402.09,384,400.27,386.94,399.49,391.08Z"/><path class="cls-3" d="M400.08,412.32h18.8c-3.58-10.66-10.58-18.21-18.8-19.32Z"/><path class="cls-3" d="M376.36,414.65a52,52,0,0,0-1.83,13.85c0,19.69,10.5,35.65,23.45,35.65s23.45-16,23.45-35.65a52,52,0,0,0-1.83-13.85Z"/><path class="cls-3" d="M397.76,412.32V392.86c-9,.13-16.83,8-20.68,19.46Z"/><path class="cls-9" d="M79,56.05l40.34,32.84V296.16l-51.6-94.7Z"/><path class="cls-4" d="M151.25,361,408.3,349.69v18.77l-257,11.25Z"/><path class="cls-10" d="M188.63,160.25a4.83,4.83,0,0,1-.07,1.12l-6.7.23a4.38,4.38,0,0,1-.15-1.11,4.68,4.68,0,0,1,.07-1.12l2.23-.08a5.52,5.52,0,0,1-.15-1.11,4.62,4.62,0,0,1,.08-1.12,4.53,4.53,0,0,1-.15-1.12,4.24,4.24,0,0,1,.07-1.12,4.38,4.38,0,0,1-.15-1.11,4.68,4.68,0,0,1,.07-1.12,5.52,5.52,0,0,1-.15-1.11,5.26,5.26,0,0,1,.07-1.12,5.73,5.73,0,0,1-.15-1.11,4.62,4.62,0,0,1,.08-1.12l-1.68.05a5.52,5.52,0,0,1-.15-1.11,5.31,5.31,0,0,1,.07-1.12l3.91-.13a4.13,4.13,0,0,1,.15,1.11,4.83,4.83,0,0,1-.07,1.12,5.13,5.13,0,0,1,.15,1.11,5.46,5.46,0,0,1-.07,1.12,5.32,5.32,0,0,1,.15,1.11,4.75,4.75,0,0,1-.08,1.12,4.27,4.27,0,0,1,.15,1.12,4.37,4.37,0,0,1-.07,1.12,4.13,4.13,0,0,1,.15,1.11,4.83,4.83,0,0,1-.07,1.12,5.23,5.23,0,0,1,.15,1.11,4.83,4.83,0,0,1-.07,1.12l2.23-.08A5.33,5.33,0,0,1,188.63,160.25Z"/><path class="cls-10" d="M200.68,156.48l-.84,0a4.69,4.69,0,0,1,.16,1.12,4.83,4.83,0,0,1-.08,1.12l-1.39,0a5.13,5.13,0,0,1,.15,1.11,4.79,4.79,0,0,1-.08,1.12l-4.46.15a4.38,4.38,0,0,1-.15-1.11,4.68,4.68,0,0,1,.07-1.12l-1.39.05a4.38,4.38,0,0,1-.15-1.11,4.21,4.21,0,0,1,.07-1.12l-.84,0a5.73,5.73,0,0,1-.15-1.12,5.31,5.31,0,0,1,.07-1.12l.84,0a4.88,4.88,0,0,1-.15-1.11,4.68,4.68,0,0,1,.07-1.12l1.4,0a4.38,4.38,0,0,1-.15-1.11,4.68,4.68,0,0,1,.07-1.12l4.47-.16a5.33,5.33,0,0,1,.15,1.12,4.83,4.83,0,0,1-.08,1.12l1.4-.05a5.13,5.13,0,0,1,.15,1.11,5.46,5.46,0,0,1-.07,1.12l.83,0a4.69,4.69,0,0,1,.16,1.12A4.83,4.83,0,0,1,200.68,156.48Zm-2.23.07a4.38,4.38,0,0,1-.15-1.11,4.68,4.68,0,0,1,.07-1.12l-.84,0a5.63,5.63,0,0,1-.15-1.11,4.62,4.62,0,0,1,.08-1.12l-2.79.09a5.33,5.33,0,0,1,.15,1.12,4.83,4.83,0,0,1-.08,1.12l-.83,0a5.13,5.13,0,0,1,.15,1.11,4.79,4.79,0,0,1-.08,1.12l.84,0a4.13,4.13,0,0,1,.15,1.11,4.83,4.83,0,0,1-.07,1.12l2.79-.1a4.38,4.38,0,0,1-.15-1.11,4.72,4.72,0,0,1,.07-1.12Z"/><path class="cls-10" d="M212.08,159.43a4.79,4.79,0,0,1-.08,1.12l-2.23.08a4.38,4.38,0,0,1-.15-1.11,4.68,4.68,0,0,1,.07-1.12l-1.11,0a4.53,4.53,0,0,1-.15-1.12,4.72,4.72,0,0,1,.07-1.12l-3.35.12a5.32,5.32,0,0,1,.15,1.11,5.46,5.46,0,0,1-.07,1.12l3.35-.11a5.13,5.13,0,0,1,.15,1.11,4.79,4.79,0,0,1-.08,1.12l-4.46.15a4.38,4.38,0,0,1-.15-1.11,4.72,4.72,0,0,1,.07-1.12l-1.12,0a5.52,5.52,0,0,1-.15-1.11,4.62,4.62,0,0,1,.08-1.12l1.11,0a5.52,5.52,0,0,1-.15-1.11,5.26,5.26,0,0,1,.07-1.12l4.47-.16a5.52,5.52,0,0,1-.15-1.11,4.68,4.68,0,0,1,.07-1.12l-3.9.13a4.38,4.38,0,0,1-.15-1.11,4.21,4.21,0,0,1,.07-1.12l5-.17a4.13,4.13,0,0,1,.15,1.11,4.83,4.83,0,0,1-.07,1.12l1.11,0a4.68,4.68,0,0,1,.16,1.11,4.75,4.75,0,0,1-.08,1.12,4.27,4.27,0,0,1,.15,1.12,4.87,4.87,0,0,1-.07,1.12,4.13,4.13,0,0,1,.15,1.11,4.83,4.83,0,0,1-.07,1.12l1.11,0A4.68,4.68,0,0,1,212.08,159.43Z"/><path class="cls-10" d="M219.23,151.36l-2.79.1a5.13,5.13,0,0,1,.15,1.11,4.79,4.79,0,0,1-.08,1.12l-.83,0a5.13,5.13,0,0,1,.15,1.11,4.79,4.79,0,0,1-.08,1.12l.84,0a4.27,4.27,0,0,1,.15,1.12,4.87,4.87,0,0,1-.07,1.12l2.79-.1a4.13,4.13,0,0,1,.15,1.11,4.83,4.83,0,0,1-.07,1.12l-3.07.11a4.51,4.51,0,0,1-.15-1.11,4.32,4.32,0,0,1,.07-1.13l-1.4.05a5.52,5.52,0,0,1-.15-1.11,4.62,4.62,0,0,1,.08-1.12l-.84,0a4.38,4.38,0,0,1-.15-1.11,4.68,4.68,0,0,1,.07-1.12l.84,0a4.51,4.51,0,0,1-.15-1.11,4.68,4.68,0,0,1,.07-1.12l1.4-.05a4.53,4.53,0,0,1-.15-1.12,4.24,4.24,0,0,1,.07-1.12l3.07-.1a5.13,5.13,0,0,1,.15,1.11A4.83,4.83,0,0,1,219.23,151.36Zm3.62-3.48a4.83,4.83,0,0,1-.07,1.12,5.32,5.32,0,0,1,.15,1.11,5.41,5.41,0,0,1-.07,1.12,5.33,5.33,0,0,1,.15,1.12,4.79,4.79,0,0,1-.08,1.12,4.13,4.13,0,0,1,.15,1.11,4.83,4.83,0,0,1-.07,1.12,4.19,4.19,0,0,1,.15,1.11,4.83,4.83,0,0,1-.07,1.12,5.32,5.32,0,0,1,.15,1.11,5.56,5.56,0,0,1-.07,1.13l-2.24.07a5.52,5.52,0,0,1-.15-1.11,4.62,4.62,0,0,1,.08-1.12l-.84,0a4.45,4.45,0,0,1-.15-1.11,4.68,4.68,0,0,1,.07-1.12l.84,0a4.53,4.53,0,0,1-.15-1.12,4.72,4.72,0,0,1,.07-1.12l-.84,0a5.52,5.52,0,0,1-.15-1.11,4.62,4.62,0,0,1,.08-1.12l.83,0a5.52,5.52,0,0,1-.15-1.11,4.62,4.62,0,0,1,.08-1.12,4.51,4.51,0,0,1-.15-1.11,4.21,4.21,0,0,1,.07-1.12,4.53,4.53,0,0,1-.15-1.12,4.72,4.72,0,0,1,.07-1.12l2.23-.07a4.13,4.13,0,0,1,.15,1.11,4.83,4.83,0,0,1-.07,1.12A4.13,4.13,0,0,1,222.85,147.88Z"/><path class="cls-10" d="M233.29,158.7a4.83,4.83,0,0,1-.08,1.12l-6.7.23a5.63,5.63,0,0,1-.15-1.11,4.62,4.62,0,0,1,.08-1.12l2.23-.08a4.45,4.45,0,0,1-.15-1.11,4.68,4.68,0,0,1,.07-1.12,5.73,5.73,0,0,1-.15-1.12,5.31,5.31,0,0,1,.07-1.12,5.52,5.52,0,0,1-.15-1.11,4.62,4.62,0,0,1,.08-1.12l-1.68.06a5.63,5.63,0,0,1-.15-1.11,4.62,4.62,0,0,1,.08-1.12l3.9-.14a4.25,4.25,0,0,1,.15,1.11,4.83,4.83,0,0,1-.07,1.12,4.25,4.25,0,0,1,.15,1.11,4.92,4.92,0,0,1-.07,1.13,5.13,5.13,0,0,1,.15,1.11,4.79,4.79,0,0,1-.08,1.12,4.52,4.52,0,0,1,.16,1.11,4.79,4.79,0,0,1-.08,1.12l2.24-.08A5.33,5.33,0,0,1,233.29,158.7Zm-5-12.13a5.52,5.52,0,0,1-.15-1.11,5.31,5.31,0,0,1,.07-1.12l2.24-.08a5.33,5.33,0,0,1,.15,1.12,4.83,4.83,0,0,1-.08,1.12Z"/><path class="cls-10" d="M238.21,150.7l1.11,0a4.25,4.25,0,0,1,.15,1.11,4.79,4.79,0,0,1-.07,1.12l-.84,0a4.27,4.27,0,0,1,.15,1.12,4.83,4.83,0,0,1-.07,1.12,5.13,5.13,0,0,1,.15,1.11,4.83,4.83,0,0,1-.07,1.12,5.23,5.23,0,0,1,.15,1.11,5.46,5.46,0,0,1-.07,1.12l-2.24.08a5.52,5.52,0,0,1-.15-1.11,5.26,5.26,0,0,1,.07-1.12,5.73,5.73,0,0,1-.15-1.11,4.75,4.75,0,0,1,.08-1.13,4.38,4.38,0,0,1-.15-1.11,4.24,4.24,0,0,1,.07-1.12,4.38,4.38,0,0,1-.15-1.11,4.68,4.68,0,0,1,.07-1.12,5.63,5.63,0,0,1-.15-1.11,5.26,5.26,0,0,1,.07-1.12l2-.07a5.13,5.13,0,0,1,.15,1.11A5.46,5.46,0,0,1,238.21,150.7Zm7.2,3.1a4.79,4.79,0,0,1-.07,1.12,5.33,5.33,0,0,1,.15,1.12,5.51,5.51,0,0,1-.07,1.12,5.13,5.13,0,0,1,.15,1.11,4.79,4.79,0,0,1-.08,1.12l-2.23.08a4.53,4.53,0,0,1-.15-1.12,4.72,4.72,0,0,1,.07-1.12,5.52,5.52,0,0,1-.15-1.11,5.31,5.31,0,0,1,.07-1.12,5.52,5.52,0,0,1-.15-1.11,4.62,4.62,0,0,1,.08-1.12,4.45,4.45,0,0,1-.15-1.11,4.68,4.68,0,0,1,.07-1.12l-3.63.12a5.52,5.52,0,0,1-.15-1.11,5.26,5.26,0,0,1,.07-1.12l4.47-.16a4.27,4.27,0,0,1,.15,1.12,4.87,4.87,0,0,1-.07,1.12l1.39,0a4.13,4.13,0,0,1,.15,1.11,4.83,4.83,0,0,1-.07,1.12A4.25,4.25,0,0,1,245.41,153.8Z"/><path class="cls-10" d="M256.5,151.18a4.75,4.75,0,0,1-.08,1.12,4.27,4.27,0,0,1,.15,1.12,4.37,4.37,0,0,1-.07,1.12,4.13,4.13,0,0,1,.15,1.11,4.83,4.83,0,0,1-.07,1.12,5.23,5.23,0,0,1,.15,1.11,5.46,5.46,0,0,1-.07,1.12l-1.12,0a4.25,4.25,0,0,1,.15,1.11,4.83,4.83,0,0,1-.07,1.12l-1.12,0a4.25,4.25,0,0,1,.15,1.11,4.79,4.79,0,0,1-.07,1.12l-4.47.16a5.52,5.52,0,0,1-.15-1.11,4.62,4.62,0,0,1,.08-1.12l3.34-.12a5.52,5.52,0,0,1-.15-1.11,4.62,4.62,0,0,1,.08-1.12l1.11,0a5.52,5.52,0,0,1-.15-1.11,4.62,4.62,0,0,1,.08-1.12l-1.12,0a4.53,4.53,0,0,1-.15-1.12,4.72,4.72,0,0,1,.07-1.12l1.12,0a4.38,4.38,0,0,1-.15-1.11,4.68,4.68,0,0,1,.07-1.12,5.52,5.52,0,0,1-.15-1.11,4.68,4.68,0,0,1,.07-1.12l-3.63.12a4.69,4.69,0,0,1,.16,1.12,4.79,4.79,0,0,1-.08,1.12l-.83,0a5.13,5.13,0,0,1,.15,1.11,4.79,4.79,0,0,1-.08,1.12l.84,0a4.25,4.25,0,0,1,.15,1.11,4.83,4.83,0,0,1-.07,1.12l2.51-.08a4.13,4.13,0,0,1,.15,1.11,4.83,4.83,0,0,1-.07,1.12l-3.35.11a4.38,4.38,0,0,1-.15-1.11,4.72,4.72,0,0,1,.07-1.12l-1.4.05a5.52,5.52,0,0,1-.15-1.11,4.62,4.62,0,0,1,.08-1.12l-.84,0a4.53,4.53,0,0,1-.15-1.12,5.31,5.31,0,0,1,.07-1.12l.84,0a4.88,4.88,0,0,1-.15-1.11,4.72,4.72,0,0,1,.07-1.12l1.4,0a4.38,4.38,0,0,1-.15-1.11,4.68,4.68,0,0,1,.07-1.12l6.7-.23a5.13,5.13,0,0,1,.15,1.11,5.46,5.46,0,0,1-.07,1.12A5.32,5.32,0,0,1,256.5,151.18Z"/><path class="cls-10" d="M264.67,156.49a4.13,4.13,0,0,1,.15,1.11,4.83,4.83,0,0,1-.07,1.12l-2.79.1a4.51,4.51,0,0,1-.15-1.11,4.81,4.81,0,0,1,.07-1.13,5.52,5.52,0,0,1-.15-1.11,5.31,5.31,0,0,1,.07-1.12l2.8-.09a5.13,5.13,0,0,1,.15,1.11A4.79,4.79,0,0,1,264.67,156.49Z"/><path class="cls-10" d="M275.84,156.1a5.32,5.32,0,0,1,.15,1.11,5.46,5.46,0,0,1-.07,1.12l-2.8.1a5.52,5.52,0,0,1-.15-1.11,4.62,4.62,0,0,1,.08-1.12,4.51,4.51,0,0,1-.15-1.11A4.77,4.77,0,0,1,273,154l2.79-.09a5.13,5.13,0,0,1,.15,1.11A4.83,4.83,0,0,1,275.84,156.1Z"/><path class="cls-10" d="M287,155.71a4.27,4.27,0,0,1,.15,1.12,4.87,4.87,0,0,1-.07,1.12l-2.79.09a4.38,4.38,0,0,1-.15-1.11,4.68,4.68,0,0,1,.07-1.12,5.52,5.52,0,0,1-.15-1.11,4.68,4.68,0,0,1,.07-1.12l2.79-.1a4.25,4.25,0,0,1,.15,1.11A4.83,4.83,0,0,1,287,155.71Z"/></svg>