<svg id="Layer_1" data-name="Layer 1" xmlns="http://www.w3.org/2000/svg" viewBox="0 0 300 300"><defs><style>.cls-1{fill:#587877;}.cls-2{fill:#def0ef;}.cls-3{fill:#c1e2c9;}.cls-4{fill:#afdcf0;}.cls-5{fill:#9bd8da;}.cls-6{fill:#ffcfd8;}.cls-7{fill:#faeaee;}</style></defs><title>money_fish</title><rect class="cls-1" x="-1.07" y="37.1" width="302.13" height="225.81"/><path class="cls-2" d="M217.43,170.74a3,3,0,0,0-1.92-1.26c-2-.09-3.12,4.41-7,6-4.61,1.87-6.83,5.25-16.81,7.88-3.1.81-11.28,10.41-15.56,10.35a2.07,2.07,0,0,1-1.24-.38c-1.58-8.92-2.63-16.8,1.58-24.68,2.9-5.44,3.67-18.9,8.4-24.15,4-4.45,6.63-3.94,5.77-7.36-1-4.2-5.77-5.25-12.07-10.5-8.11-6.76-24.27-9.84-33.35-9.89a20.48,20.48,0,0,0-5,.44c-6.77,1.78-16.12,4.25-25.08,8.58a66.89,66.89,0,0,0-9.58,5.6c-2.89,2-11.4,6.06-16,9.16-1.69,1.15-2.84,2.17-2.94,2.92-.53,3.67-4.36,11.13-4,15.9.08.94,1.08,2.16,2.61,3.57h0c1.66,1.53,4,3.27,6.41,5.12,4.56,3.44,9.67,7.23,12.26,10.59a82.24,82.24,0,0,0,6.83,7.7l0,0c11.66,11.78,29.89,25,43.55,28.23.53,0,1.06,0,1.6,0,15.85.08,33.33-5,47.77-11.31,4.87-2.11,5.68-7.36,8.93-11.55C216.8,186.46,221.82,175.8,217.43,170.74Zm-80.43,31c-4.16-1.85-6-6.7-9.08-9.82a62.24,62.24,0,0,0-11.51-9.4.79.79,0,0,1,.79-1.36A63.36,63.36,0,0,1,128,189.85a33.59,33.59,0,0,1,4.21,4.79c1.6,2.25,2.95,4.62,5.58,5.79C138.72,200.84,137.92,202.2,137,201.79Zm16.16-77.91c.6-.81,2,0,1.36.8-.39.53,1.46,2.48,1.9,2.77,1.2.75,3.35.9,4.71,1.25a28.74,28.74,0,0,1,8.51,3.63c.85.54.06,1.9-.8,1.36a26,26,0,0,0-7.4-3.28c-1.79-.49-4-.66-5.68-1.54C154.5,128.19,152,125.39,153.16,123.88Zm-10.95,2.19c-.93-.37-.52-1.89.42-1.51,3.11,1.24,5.11,3.87,7.26,6.3,3.28,3.72,6.67,6,11.63,6.89,4.18.75,7.3,1.07,10.17,4.36a43.06,43.06,0,0,1,6.51,10.38c.41.92-.94,1.72-1.36.8a39.94,39.94,0,0,0-6.71-10.56c-3.11-3.34-7.51-2.91-11.64-4a18.68,18.68,0,0,1-8.84-5.76C147.41,130.53,145.39,127.35,142.21,126.07Zm24,29c-1.72,1.49-4.48.36-5.14-1.49a3.42,3.42,0,0,1,.19-2.41,2.87,2.87,0,0,1,2.09-1.62c2.83-.62,3.83,1.16,4.07,2.18A3.45,3.45,0,0,1,166.26,155.09Zm9.57,53.58c-4.2,1.6-10.29,3.12-14.67,1.42-2.28-.88-3.92-3.26-5.08-5.31-1.72-3-1.75-7.85-5.62-9.09-1-.31-.55-1.83.42-1.52a7.46,7.46,0,0,1,4.57,4.62c1.36,3.23,2.07,6.37,4.79,8.87,3.57,3.27,11.19,1,15.17-.51C176.36,206.78,176.76,208.31,175.83,208.67Z"/><path class="cls-3" d="M108.29,121.37c-3-2.51-7.41-2.39-11.16-1.34-2.17.6-8.83,4.17-10.28,4.62-1.1.35-3.85.44-4.95.78-3.45,1-4.47,5.62-4.12,9.29L89.72,140l-.11.55c4.56-3.1,13.07-7.11,16-9.16a66.89,66.89,0,0,1,9.58-5.6C113.32,125.19,109.1,122.05,108.29,121.37Z"/><path class="cls-4" d="M89.72,140C78,135.84,62.54,125.91,53.29,124.66h-.07l-.73-.07-.7,0h-.31c-8.4,0-19.95,10-20.48,14.18-.63,5,1.54,13.83,4.83,17.71a31.44,31.44,0,0,0,7.86,4.23c13.69,3.45,27.5,2.95,41.6,2.43l0-.17h0c-.38-.35-.73-.69-1-1a5,5,0,0,1-1.57-2.55,11.4,11.4,0,0,1,.17-2.92,27.91,27.91,0,0,1,.76-3.24c1.07-3.67,2.69-7.45,3-9.74a2,2,0,0,1,.53-.95,6.91,6.91,0,0,1,.77-.74l.48-.4c.35-.27.74-.55,1.16-.83Z"/><path class="cls-3" d="M95.55,189.29c4.83-.31,10.69-1.11,15.28-3a82.24,82.24,0,0,1-6.83-7.7c-2.59-3.36-7.7-7.15-12.26-10.59-4.84,1.25-13.23,3.58-14,4.2s-4,7.64-3.37,10.2c.42,1.66,4.76,6.37,6.07,7a8.44,8.44,0,0,0,3.59.67c.72,0,1.43,0,2.14-.08C89.85,189.75,91.91,189.52,95.55,189.29Z"/><path class="cls-5" d="M114.72,146.94c1.49-2.32,6.54-6.95,10.43-4.23l.62.41.17-.16c-1.42-1,2.74-11.08-.44-13.82-6.55-5.67-17.08-3.49-23.6,2.22-8.41,7.35-3.15,16.28-.07,18.53,2.41,1.77,10.79,2.89,13.72,3.52l.18-.17h0C115.09,153,112.92,149.74,114.72,146.94Z"/><path class="cls-6" d="M135.51,147.64c-3.51-2.46-6-2.15-9.74-4.52l-.62-.41c-3.89-2.72-8.94,1.91-10.43,4.23-1.8,2.8.37,6.1,1,6.29h0c2.59.78,5.38,1.88,6.66,4.27,1.47,2.74.4,4,.92,7.11a9.12,9.12,0,0,0,5.77,6.92C126.32,167.36,140.76,151.31,135.51,147.64Z"/><path class="cls-3" d="M192.65,93.61a5,5,0,0,0-4.26-.19c-2.11.82-4.8,3.62-4.92,5.88s.48,4.51.61,6.78c.3,5.3-1.41,10.42-2.81,15.55-.94,3.39-4.23,9.22-5.56,13.39a6.81,6.81,0,0,0,.09,4.69c.75,1.44,4.94,1.51,5.83-1.73.85-3.08,3.77-16,5.46-24.33.72-3.53,2.93-5.73,4.33-8.46C194,100.19,195.05,95,192.65,93.61Zm-2.94,9.2a3.48,3.48,0,0,1-4.09-.34,2.18,2.18,0,0,1-.37-1.55,7.53,7.53,0,0,1,3.29-4.48,1.63,1.63,0,0,1,2.23,1.21C191.18,98.9,190.79,102.06,189.71,102.81Z"/><path class="cls-4" d="M165.85,148a6.18,6.18,0,0,0-4.29.95c-1.72,1-2.32,2.73-2.9,4.6-.52,1.7,2.22,8.94,5.56,10.35,3.84,1.62,4.89-5.73,5.47-9.4S169.43,148.84,165.85,148Zm.41,7.12c-1.72,1.49-4.48.36-5.14-1.49a3.42,3.42,0,0,1,.19-2.41,2.87,2.87,0,0,1,2.09-1.62c2.83-.62,3.83,1.16,4.07,2.18A3.45,3.45,0,0,1,166.26,155.09Z"/><path class="cls-1" d="M167.35,147.61c-4.43-1.77-9.35,1.77-9.54,6.47-.15,3.61,2.8,8.87,6,10.47l.08,0,.11,0c4.08,1.37,5.37-4.11,5.94-7C170.69,153.91,171.67,149.35,167.35,147.61Zm1.14,9.31c-.36,1.91-1.12,7.06-4,6.22-2.49-1.31-4-4.48-4.74-7.06-1.15-3.88,2.14-8.54,6.54-7.16C170.06,150.08,169.06,153.92,168.49,156.92Z"/><path class="cls-7" d="M189.6,141.39a23.92,23.92,0,0,0-4.72,4.32c-4.12,5.55-4.35,13.38-6.37,19.87-1.18,3.26-2.79,6.36-3.56,9.74a18.72,18.72,0,0,0-.55,3.17,38.81,38.81,0,0,0,.15,7.23c.13,1.24.2,6.5,1.28,7.16,1.33.79,4.2-1.4,6-2.95,1.12-.86,2.2-1.79,3.27-2.71,2-1.66,4-3.74,6.43-4.63a73.56,73.56,0,0,0,8-2.9c1.59-.8,3.09-1.75,4.6-2.7a39.64,39.64,0,0,1,4.05-2.2,12,12,0,0,0,4.25-3.74,6.07,6.07,0,0,1,2.36-2.05c-.21-.44-.43-.86-.67-1.28,0-.1-1.89-7-3.87-9.86a16.22,16.22,0,0,0-8-6.21.8.8,0,0,0-.89,1.16c1.53,2.26,3.51,4.28,4.62,6.78-.19-.11-.38-.23-.58-.33-.75-.39-1.66.63-1,1.24a13.86,13.86,0,0,1,4.47,6.83c.21.73.4,1.43.62,2.1a25.91,25.91,0,0,0-3.67-1.89c-.64-.27-1.25.62-.89,1.15s3.07,5.74,1.46,5.92c-.49,0-2.05-1.46-2.45-1.74a54.74,54.74,0,0,0-7.76-4.94.8.8,0,0,0-1.08,1.08c.89,1.51,2.28,2.52,3.24,4,1.64,2.48.78,4.64-1.55,5.79a8.83,8.83,0,0,0-5.53-6.32.79.79,0,0,0-1,1c.5,1.33,1.09,2.64,1.56,4a7.36,7.36,0,0,1,.52,2.26,3.93,3.93,0,0,0,0,1.24,23.16,23.16,0,0,0-2.48-2,.79.79,0,0,0-1,.55c-.11.77.14,2.1.08,3.14a21.18,21.18,0,0,0-4.42-3.64c-.53-.37-1.14.14-1.18.68a7.78,7.78,0,0,0,.71,3.38,6.81,6.81,0,0,1,.65,2.39,6.59,6.59,0,0,1-1.17,2.7c-1.28-.72-2.33-1.94-3.68-2.37a.79.79,0,0,0-1,.55c-.34,1.12.23,2.62.42,3.9a6.43,6.43,0,0,0-2.82,2.06,6.63,6.63,0,0,0,0-2c-.18-1-.7-1.23.16-2.39.27-.35.67-.33.9-.77a1.75,1.75,0,0,0-.36-1.92c-.63-.92-1.48-1.26-.27-2,.67-.43,2.33-.21,3.06,0a.8.8,0,0,0,1-.76c.05-1.25-1-2.06-2-2.74a9.83,9.83,0,0,1,1.79-.15.8.8,0,0,0,.68-1.19c-.85-1.6-2.35-2.73-3.46-4.15,2.16.19,4.52,1.77,6.19,2.8a.8.8,0,0,0,1.08-1.08A63.41,63.41,0,0,0,180.5,169c.49.05,1,.08,1.49.09a.8.8,0,0,0,.68-1.19,18.57,18.57,0,0,0-2.47-3.89c-1.4-1.86.46-2.18,1.91-1.22,1.82,1.19,3.13,3,4.94,4.21.54.35,1.42-.25,1.16-.89-.93-2.28-1.9-4.54-3.05-6.71,2.46,1.17,5.38,2.44,7.54,1a.8.8,0,0,0,.16-1.24c-2.47-2.37-4.23-5.34-6.86-7.43,3.18.54,5.37,3.63,8.06,5.61.58.43,1.32-.27,1.16-.89a37.81,37.81,0,0,0-2.72-7.72c1.43,1.14,2.76,2.56,4,3.66a.79.79,0,0,0,1.32-.76,29,29,0,0,0-1.11-3.6,18.15,18.15,0,0,0,4.55,1.44c.77.1.92-.88.56-1.34-2.82-3.61-6-7.28-10.28-9.15a3,3,0,0,1-.09.32A4.84,4.84,0,0,1,189.6,141.39Z"/><path class="cls-1" d="M218.19,170.35a1,1,0,0,0-.12-.16.64.64,0,0,0-.15-.14,4.14,4.14,0,0,0-1.6-1.09,2.23,2.23,0,0,0-1.53,0,6.07,6.07,0,0,0-2.36,2.05,12,12,0,0,1-4.25,3.74,39.64,39.64,0,0,0-4.05,2.2c-1.51.95-3,1.9-4.6,2.7a73.56,73.56,0,0,1-8,2.9c-2.46.89-4.47,3-6.43,4.63-1.07.92-2.15,1.85-3.27,2.71-1.84,1.55-4.71,3.74-6,2.95-1.08-.66-1.15-5.92-1.28-7.16a38.81,38.81,0,0,1-.15-7.23,18.72,18.72,0,0,1,.55-3.17c.77-3.38,2.38-6.48,3.56-9.74,2-6.49,2.25-14.32,6.37-19.87a23.92,23.92,0,0,1,4.72-4.32,4.84,4.84,0,0,0,1.82-2.09,3,3,0,0,0,.09-.32c.53-2.13-1-4.48-2.51-5.83-.55-.49-1.13-1-1.72-1.41s-1.09-.72-1.62-1.07-.85-.57-1.27-.86l0-.09q1.41-6.16,2.72-12.36c.58-2.77,1.06-5.37,2.55-7.84a49.54,49.54,0,0,0,3.34-5.89c1.25-2.88,3.18-7.94.32-10.46l-.29-.24-.35-.14c-3-1.21-6,.08-8.07,2.47-3.23,3.68-1.27,7.9-1.31,12.3a47,47,0,0,1-3.5,15.84c-.31.79-.65,1.56-1,2.34l-.2-.15a38.09,38.09,0,0,0-10.36-5.42A69,69,0,0,0,146.19,116c-.59,0-1.17,0-1.75,0-3.55.07-6.86,1.11-10.26,2.07a125.64,125.64,0,0,0-15.78,5.44,16.76,16.76,0,0,1-2.58,1.1,2.55,2.55,0,0,1-1.95-.28c-.9-.51-1.77-1.09-2.62-1.68-1.54-1.07-3-2.46-4.7-3.19-4.24-1.81-9-.63-12.94,1.22-2,.91-3.92,1.94-5.91,2.82s-4,.61-6,1.22C78,125.79,77,129.93,77,133.44a175.2,175.2,0,0,0-17-7.81l-.88-.31a22.48,22.48,0,0,0-7.58-1.58c-4,0-8,1.91-11.32,4a30.79,30.79,0,0,0-8.4,7.56c-1.94,2.71-1.83,5.59-1.38,8.83.56,4.12,1.8,9.07,4.53,12.35,1.82,2.19,5.32,3.79,8,4.7,6.22,2.14,13.46,2.56,20,2.86,7.45.34,14.9.07,22.35-.21l.88.74c1.3,1.1,2.66,2.14,4,3.17-2.54.64-5.08,1.3-7.6,2-1.58.45-4.07.77-5.3,2s-2.11,4-2.7,5.73c-.67,1.95-1.38,4.18-.34,6.11a20.07,20.07,0,0,0,5,5.76c2.51,2,6,1.48,9,1.26,4.19-.31,8.42-.52,12.58-1.07,1.84-.24,3.67-.55,5.48-1,1-.24,2-.5,2.94-.82s1.41-.43,2,0a3.93,3.93,0,0,1,.59.5c1.61,1.57,3.27,3.14,5,4.68l1.06.94A132.66,132.66,0,0,0,138,208.43a77.24,77.24,0,0,0,9.56,4.74c1.16.45,2.33.88,3.5,1.26a21.69,21.69,0,0,0,7.28.95l.93,0c1.18,0,2.36-.11,3.54-.2l.19,0,1.49-.13.39,0,1.23-.14.6-.06.95-.13.82-.11.3,0c.88-.12,1.74-.26,2.61-.41l.36-.06.93-.16.86-.16.58-.11,1.11-.22,2.27-.49c3.51-.79,7-1.74,10.39-2.8,4.78-1.48,9.48-3.21,14.09-5.14,3.54-1.48,5.82-3.16,7.73-6.52.31-.53.62-1,.94-1.56.5-1,1-1.92,1.57-2.85.69-1.12,1.49-2.18,2.26-3.26.35-.5.7-1,1-1.53C218.63,184.07,222.35,175.87,218.19,170.35Zm-38.78-42.18h0c.2-.47.41-.94.62-1.41l0-.06a51.88,51.88,0,0,0,2.5-6.79c1.35-4.82,2.73-9.74,2.23-14.8-.26-2.55-1.21-5.42.22-7.76s4.42-4.38,7.25-3.06c2,1.49.6,5.34-.06,7.18a33.65,33.65,0,0,1-3.46,6.59c-2.19,3.47-2.76,7.18-3.61,11.13q-1,4.82-2.13,9.61v0l-.36,1.6,0,.09-.12.56c-.49,2.12-.81,7.07-2.85,8.34s-3.47,0-3.5-2c0-2.34,1.25-4.73,2.18-6.81C178.69,129.79,179.05,129,179.41,128.17Zm-63.17-1.56a17.85,17.85,0,0,1,3,.31q-.06,7.53-.11,15.06l-.34.17a.68.68,0,0,0,0-.53c-1.55-4.88-2.81-9.83-4-14.81,0,0,0-.1,0-.15C115.23,126.63,115.74,126.61,116.24,126.61Zm7.86,2.4a62.38,62.38,0,0,1-2.53,12.17h0a7.84,7.84,0,0,0-.91.2q.06-7,.11-14.09a10.14,10.14,0,0,1,3.36,1.59Zm1.4,1.48a3.07,3.07,0,0,1,.24.62c.73,2.52-.17,5.55-.57,8a17.72,17.72,0,0,0-.37,2.55,6.05,6.05,0,0,0-1.59-.52A62.37,62.37,0,0,0,125.5,130.49Zm-3.31,12.22c2.24-.13,4.34,1.89,6.41,2.72a34.53,34.53,0,0,1,6.43,2.84c3.05,2.62-2.34,10.45-3.63,12.9-1.13,2.17-3.61,5.89-3.5,8.89a8.31,8.31,0,0,1-3.8-5.63c-.32-1.86.16-3.79-.34-5.63a7.53,7.53,0,0,0-2.81-4.05c-1.44-1.07-3.83-1.28-5.09-2.41-3.24-2.89.59-7.25,4-8.93l.6-.27A5.5,5.5,0,0,1,122.19,142.71Zm-9,7.7h.13a7.14,7.14,0,0,0,.63,1.93c-3.09-.48-6.73-.81-9.65-2.07C107.27,150.32,110.24,150.23,113.2,150.41Zm-11.56-1.82h0a7.79,7.79,0,0,1-1-1.11,12.41,12.41,0,0,1-1.59-2.8,88.87,88.87,0,0,1,14.39,3.61,3.45,3.45,0,0,0-.1.56l-.08,0C109.35,148.59,105.49,148.83,101.64,148.59Zm12.27-1.78A92.78,92.78,0,0,0,98.48,143a10.23,10.23,0,0,1-.12-3.61c5.33,2.2,10.62,4.46,15.86,6.86C114.11,146.42,114,146.62,113.91,146.81Zm-15.2-9a11.9,11.9,0,0,1,1-2.24,14.2,14.2,0,0,1,1.8-2.57l1.13.92c4.14,3.31,8.61,6.52,11.87,10.69C109.27,142.26,104,140,98.71,137.83Zm5.34-4.73-1.25-1-.23-.19a16.74,16.74,0,0,1,2.74-2.08c.32-.19.64-.38,1-.56l.33.41c.34.41.66.83,1,1.25,3.11,4.13,5.67,8.73,9.47,12.28-.36.27-.71.57-1,.87C112.74,139.77,108.28,136.48,104.05,133.1Zm9.11-6.24c0,.23.11.46.17.69,1.06,4.44,2.2,8.86,3.54,13.23-3-3.25-5.31-7.13-8-10.69-.32-.43-.64-.84-1-1.26-.08-.09-.15-.19-.23-.29a21.27,21.27,0,0,1,5.45-1.69Zm-4.89-4.51a43.68,43.68,0,0,0,4,3.06l-.3.06a22.94,22.94,0,0,0-3.79,1.12c-2.28-1.07-3.69-4-4.7-6.28A10.51,10.51,0,0,1,108.27,122.35Zm-6.5-2.2,0,.08c1,2.35,2.4,5.51,4.64,7.13a23.71,23.71,0,0,0-2.81,1.61c-2.27-2.59-4.63-5-5.73-8.29A14.79,14.79,0,0,1,101.77,120.15Zm-6.83,1.59c.48-.22,1-.41,1.46-.59,1.15,3.48,3.56,6,5.95,8.74a17.3,17.3,0,0,0-2.18,2c-2.84-2.78-5.35-5.87-8.21-8.64C93,122.72,94,122.18,94.94,121.74ZM90.5,124a.31.31,0,0,0,.09.11c3,2.86,5.6,6.11,8.57,9a15.28,15.28,0,0,0-1.06,1.6l-.55.3h0a36.8,36.8,0,0,1-3.87-4.41,38.2,38.2,0,0,0-5.75-5.48A24.09,24.09,0,0,0,90.5,124Zm7.27,11.34h0a.3.3,0,0,0,0-.08A.3.3,0,0,1,97.77,135.34Zm-.39.87Zm-11.21-10.6a.73.73,0,0,0,.25.31,38.5,38.5,0,0,1,6.4,6.1,38.14,38.14,0,0,0,3.28,3.78L93.88,137c-4-3.52-8.38-6.46-11.69-10.75A38.9,38.9,0,0,1,86.17,125.61Zm-6.38,2.45a4.13,4.13,0,0,1,1-1.08c3.31,4.33,7.58,7.34,11.67,10.86l-.69.4-.1.06,0,0c-3.65-1.41-6.9-3.84-10-6.14-.62-.45-1.73-1.63-2.74-1.84A7.38,7.38,0,0,1,79.79,128.06Zm-1.21,3.87c.34.28.78.53,1.11.77,1.13.82,2.25,1.65,3.4,2.45A44.48,44.48,0,0,0,89.45,139c-3.73-1.37-7.34-3-10.91-4.75A15.41,15.41,0,0,1,78.58,131.93ZM77.14,162.3a200.18,200.18,0,0,1-25.21-1,54.48,54.48,0,0,1-5.92-.93,28.32,28.32,0,0,1-5.88-2.17c-.23-.11-.45-.23-.69-.36l-.5-.27c6.59.5,13.13,1.54,19.69,2.42,1,.13,1.42-1.38.42-1.52-7.48-1-14.94-2.22-22.49-2.63a11.18,11.18,0,0,1-1.83-2.49,23.59,23.59,0,0,1-1.1-2.73c10.15,1.59,20.08,4.22,30.25,5.69,1,.15,1.42-1.37.42-1.52-10.48-1.51-20.72-4.27-31.19-5.83v0A40,40,0,0,1,32,144.6c12.27.52,23.47,7,35.84,7a.79.79,0,0,0,0-1.58c-12.44,0-23.7-6.52-36.08-7a10,10,0,0,1,.95-6.13,117.65,117.65,0,0,0,43.89,12.22c1,.08,1-1.5,0-1.57a115.51,115.51,0,0,1-43-12,24.72,24.72,0,0,1,4.29-4.26,152.24,152.24,0,0,0,39.33,13.62c1,.2,1.42-1.32.42-1.52a151,151,0,0,1-38.34-13.15,37.91,37.91,0,0,1,3.52-2.2A20.21,20.21,0,0,1,45,127c8.6,4.83,17.28,9.3,26.87,11.85a.79.79,0,0,0,.42-1.52c-9-2.4-17.25-6.53-25.35-11a17.32,17.32,0,0,1,11.08.33c.54.17,1.07.37,1.6.56.87.34,1.72.69,2.56,1,8.88,3.71,17.21,8.69,26.23,12.09a8,8,0,0,0-2,1.93,7.39,7.39,0,0,0-.83,2.53c-.51,1.91-1.24,3.76-1.87,5.64-.9,2.69-2.56,6.7-1.63,9.61a6.15,6.15,0,0,0,1.33,2.16C81.31,162.23,79.22,162.29,77.14,162.3Zm13.44,26.58c-1,.09-2.25.26-3.49.38,3.84-3.51,9.57-3.29,14.49-4.1,1-.17.58-1.69-.42-1.52-5.63.93-12.08.69-16.1,5.45a.88.88,0,0,0-.16.3,7.88,7.88,0,0,1-4.6-1.11,15.89,15.89,0,0,1-3-2.95c5.54-4.86,14.34-4.3,21.23-4.91,1-.09,1-1.67,0-1.58-7.3.65-16.25.18-22.17,5.23-.2-.29-.39-.58-.55-.85-1.14-1.91-.16-4.22.57-6.14a2.25,2.25,0,0,1,.08-.24l18.45-2.61c1-.15.57-1.66-.42-1.52l-17.4,2.46a5.61,5.61,0,0,1,1.71-2.51c1.57-1.08,4.28-1.38,6.1-1.88,2.28-.63,4.58-1.22,6.88-1.79a69.36,69.36,0,0,1,10.69,9c2.24,2.48,4.23,5.15,6.55,7.57l.46.47C103.36,188.09,97,188.37,90.58,188.88Zm120.26,4.32c-.84,1.38-1.56,2.83-2.34,4.19a13.1,13.1,0,0,1-3.37,4.19l-.17.11a8.62,8.62,0,0,1-1.5.93l-.31.14-.65.31A116.33,116.33,0,0,1,189.3,208a116.31,116.31,0,0,1-26.14,5.55,49.44,49.44,0,0,1-6.32.3,15.22,15.22,0,0,1-3.74-.42l-.46-.13c-.33-.09-.66-.17-1-.28a61.76,61.76,0,0,1-10.25-4.47,122.62,122.62,0,0,1-30.32-23c-1.76-1.85-3.46-3.74-5.07-5.68a77.36,77.36,0,0,0-13.47-12.22l-.36-.27a72,72,0,0,1-6.48-5.21l-.55-.53c-2.42-2.45-1.65-5.13-.74-8.26.49-1.7,1.09-3.37,1.67-5,.51-1.48.73-3.28,1.35-4.69.81-1.86,3.46-3.06,5.12-4.05l1.44-.84.43-.25c.89-.51,1.78-1,2.68-1.5A13,13,0,0,0,100,149.3c3.54,3.92,10.48,3.87,15.3,4.87a.81.81,0,0,0,.44,0c1,.43,2.12.62,3,1.12a6.22,6.22,0,0,1,3.59,5c.21,2.65-.17,5,1.17,7.43a10.21,10.21,0,0,0,5,4.41c1.18,1.69,1.37,3.72,1.89,5.68.44,1.67,1,3.28,1.38,5,.72,3.29,1.43,6.12,3.45,8.88,4.16,5.67,10.53,9,16.19,12.91.84.58,1.62-.79.8-1.36-6-4.16-13.28-7.75-17-14.39-1.62-2.91-1.76-6.4-2.74-9.53-.87-2.76-1.11-5.76-2.78-8.16,0,0,0,0,0,0-1-1.71.73-4.63,1.46-6.14,1.19-2.49,2.57-4.88,3.79-7.36,1.33-2.73,4.24-8.06,1.05-10.56l0,0-.13-.1c-2.53-1.67-5.39-2.26-8.07-3.58-.4-.2-.77-.41-1.13-.62a.79.79,0,0,0-.21-.36c-.82-.84.67-5.53.81-6.62.25-1.91.51-4.19-.37-6-1-2.11-3.8-3.34-5.9-4a15.7,15.7,0,0,0-2.62-.57,8.19,8.19,0,0,1,.79-.39c1.71-.73,3.45-1.41,5.2-2q3.84-1.38,7.77-2.53l2.08-.64c4.53-1.29,8.85-2.27,13.71-2a70.89,70.89,0,0,1,20.1,4.19,36.27,36.27,0,0,1,9.2,4.78c.27.21.56.41.83.61a35.63,35.63,0,0,0-3.36,8.46c-.39,2-.34,4.86,2,5.6a4.61,4.61,0,0,0,5.5-2.5,35.22,35.22,0,0,0,1.85-7.27l.82.52a18,18,0,0,1,3.69,2.82c1.15,1.24,2.23,3.31.88,4.75-1.5,1.62-3.55,2.65-5,4.35-2.26,2.59-3.37,6-4.29,9.28-1.14,4.09-1.83,8.32-3.15,12.37s-3.47,7.62-4,12.08a37.32,37.32,0,0,0,0,7.62c.08.81.14,1.67.22,2.55.05.39.1.78.16,1.17s.11,1,.15,1.54a15.88,15.88,0,0,0,.59,2.53,1.91,1.91,0,0,0,1.46,1.34h0a5.89,5.89,0,0,0,3.47-.74c.23-.11.45-.24.67-.36.81-.49,1.57-1.06,2.25-1.57,2.26-1.68,4.33-3.59,6.51-5.37.22-.18.43-.34.65-.49a10.63,10.63,0,0,1,2.6-1.71c1.74-.72,3.59-1.14,5.38-1.76A40.38,40.38,0,0,0,202.2,180c2-1.16,3.86-2.42,5.92-3.42a17.35,17.35,0,0,0,2.76-1.59,16.59,16.59,0,0,0,2.58-2.78c.88-1.11,1.54-2.09,2.6-1.52a2.51,2.51,0,0,1,.7.48l.29.32c2.48,3.32,1.18,8.09-.21,11.6C215.34,186.81,212.93,189.79,210.84,193.2Z"/><path class="cls-5" d="M129.42,85.69c0,.49,0,1-.07,1.47a.71.71,0,0,0,.5-.91A.75.75,0,0,0,129.42,85.69Z"/><path class="cls-5" d="M127,83.55c-.13.53.29.57.71.53,0-.36-.11-.72-.18-1.09A.79.79,0,0,0,127,83.55Z"/><path class="cls-5" d="M154.77,78.21a2.17,2.17,0,0,0-1.09-.57c-6.49-1.92-9.25-2.45-15.75-.58-4.06,1.17-7.94,3.67-12.13,3.22a1.85,1.85,0,0,0-1.07.07c-1,.5-.19,2.06-.53,3.13a22.33,22.33,0,0,1,1,5.47,10.37,10.37,0,0,0,.94,3.59c.52.69,3.44-1.6,4.22-2,3.78-1.9,8.29-1.58,12.42-.64s9,2.06,9.93,1.62c1.25-.58,1.63-2.13,1.8-3.5a83.83,83.83,0,0,0,.57-8.38A2.16,2.16,0,0,0,154.77,78.21ZM130.87,88a3.11,3.11,0,0,1-1.75.87c-.06.32-.13.64-.22,1a.79.79,0,0,1-1.52-.42c.05-.18.09-.36.12-.53l-.63-.13a.79.79,0,0,1,.42-1.52,3.78,3.78,0,0,0,.47.08,13,13,0,0,0,.08-1.65,2,2,0,0,1-2.11-.77,2.29,2.29,0,0,1,.65-3,2.57,2.57,0,0,1,.83-.41.8.8,0,0,1,1.55-.16s0,.06,0,.08a5.22,5.22,0,0,1,1.26.38c.93.39.12,1.75-.8,1.36l-.07,0c.06.31.1.62.14.93A2.42,2.42,0,0,1,131,85,2.2,2.2,0,0,1,130.87,88ZM150,81.15a4.71,4.71,0,0,0-1.37-1.23,16.06,16.06,0,0,0-.46,2.19c1.15.27,2.1.62,2.31,2a3,3,0,0,1-1.75,3.29,3.16,3.16,0,0,1-1.68.16A7.54,7.54,0,0,1,146,89.38c-.63.79-1.74-.33-1.11-1.11a7.34,7.34,0,0,0,.75-1.21,10.27,10.27,0,0,1-1.91-1.41c-.75-.69.37-1.8,1.12-1.12a8.33,8.33,0,0,0,1.33,1,17.91,17.91,0,0,0,.41-2.23,2.61,2.61,0,0,1-1.39-2.66c.08-1.87,1.16-2.55,2.42-2.5a7,7,0,0,1,.34-.74c.48-.89,1.84-.09,1.36.8-.06.11-.11.22-.16.33a5.06,5.06,0,0,1,2,1.48C151.77,80.82,150.66,82,150,81.15Z"/><path class="cls-5" d="M146.87,81.48c.07-.53.16-1,.26-1.56A1.42,1.42,0,0,0,146.87,81.48Z"/><path class="cls-5" d="M147.58,86a1.29,1.29,0,0,0,1.2-.64c.73-1.13,0-1.51-.79-1.72C147.88,84.47,147.76,85.26,147.58,86Z"/><path class="cls-5" d="M213,71.42c-.54.58-1.08,1.16-1.64,1.72,1.07.41,2.11.24,1.89-1A2.33,2.33,0,0,0,213,71.42Z"/><path class="cls-5" d="M221.06,66.54a3.41,3.41,0,0,0-1.64-1c-5.26-2-11.13-2-16.33-4.08a30.4,30.4,0,0,0-5.11-2,5.25,5.25,0,0,0-5.07,1.31,24.39,24.39,0,0,1,.57,3.33c-.69,4.1-4.29,5.59-5.24,9.64,2.15-.12,8.18-.63,10.79-.08,1.86.4,3.25,1.93,4.89,2.88,2.8,1.62,9.83,3.39,11.51,2.28.51-.34,4.86-6.2,5.75-9.1A3.55,3.55,0,0,0,221.06,66.54ZM201,64.2c.56.85-.8,1.64-1.36.8l-.21-.32-.77,1.14a1.92,1.92,0,0,1,1,1.84A2.59,2.59,0,0,1,198,70.12a2.72,2.72,0,0,1-2.22-.18L195,71.17c-.57.84-1.94,0-1.36-.79l.93-1.36c-.18-.17-.36-.35-.52-.52-.68-.75.44-1.87,1.12-1.12a3,3,0,0,0,.31.32l1.08-1.58a2.52,2.52,0,0,1-.59-2.25,2.28,2.28,0,0,1,2.7-2,2.17,2.17,0,0,1,.6.27c.13-.2.26-.39.4-.58.57-.84,1.93-.05,1.36.79l-.63.91C200.59,63.61,200.79,63.92,201,64.2Zm17,2.92a9.94,9.94,0,0,0-.89.53,5.68,5.68,0,0,1,.56,1.79c.14,1-1.38,1.42-1.52.42a4.89,4.89,0,0,0-.33-1.26,21.08,21.08,0,0,0-1.76,1.65l0,0a3.36,3.36,0,0,1,.44,3.44c-1,1.83-2.94,1.61-4.49.6a13.11,13.11,0,0,1-2.21,1.52c-.9.48-1.69-.88-.8-1.36a12.52,12.52,0,0,0,1.8-1.2A4.13,4.13,0,0,1,207.71,71c-.08-1,1.5-1,1.58,0A2.14,2.14,0,0,0,210,72.3c.71-.68,1.39-1.41,2.07-2.13a3.31,3.31,0,0,1-.72-1.45C211,66.81,213,66,214.6,66.06a2.84,2.84,0,0,1,1.46.41,12.11,12.11,0,0,1,1.17-.71C218.12,65.29,218.92,66.65,218,67.12Z"/><path class="cls-5" d="M197.55,64.63l.76-1.11C197.68,63.32,197.42,64,197.55,64.63Z"/><path class="cls-5" d="M197.78,67.07l-1.06,1.55a.91.91,0,0,0,1.27-.44A.75.75,0,0,0,197.78,67.07Z"/><path class="cls-5" d="M213.27,68.2a.92.92,0,0,0-.14.85c.47-.5,1-1,1.47-1.43A1.38,1.38,0,0,0,213.27,68.2Z"/><path class="cls-5" d="M218.71,123.14a2.48,2.48,0,0,0-.39-.21c0,.67-.12,1.33-.2,2a1.14,1.14,0,0,0,.64-.18A1,1,0,0,0,218.71,123.14Z"/><path class="cls-5" d="M216.26,120.87a.89.89,0,0,0,.59.26c0-.51,0-1,.05-1.52a1.24,1.24,0,0,0-.39.09A.76.76,0,0,0,216.26,120.87Z"/><path class="cls-5" d="M245.21,117.33c-1-1.73-9.67-3-13.41-2.46-3.24.5-14.9,3.88-18.12-.14a33,33,0,0,0-2,10.58c.17,2.37,1.36,5.33,3.73,5.47,1.24.07,3-1,4.11-1.45a24.2,24.2,0,0,1,18.37.49c2.11.94,4.15,2.21,6.45,2.41C245,128,246.33,119.27,245.21,117.33Zm-25.84,8.88a2.91,2.91,0,0,1-1.45.26c-.06.41-.11.82-.18,1.23-.17,1-1.69.57-1.52-.42.06-.38.11-.77.16-1.15-.42-.15-.82-.33-1.19-.5-.92-.42-.12-1.78.79-1.36.17.08.38.18.61.27.07-.61.13-1.22.17-1.83a3.22,3.22,0,0,1-.62-.11,2.48,2.48,0,0,1-1.46-1.29,2.33,2.33,0,0,1,1.74-3.2,3,3,0,0,1,.51-.06.79.79,0,0,1,1.56.18v.15a3.23,3.23,0,0,1,1.3,1.1c.55.84-.76,1.61-1.33.83,0,.34,0,.68-.05,1a2.94,2.94,0,0,1,2.19,1.77A2.59,2.59,0,0,1,219.37,126.21Zm21.3-6.69a5.54,5.54,0,0,0-1.43-.59c-.24.73-.48,1.45-.73,2.18,1.07,0,2.13.06,2.65,1.19.72,1.56-.45,3.16-1.86,3.74a4.72,4.72,0,0,1-2.64.26c-.08.22-.16.44-.25.66-.35,1-1.88.53-1.52-.41.09-.24.18-.47.26-.7a15,15,0,0,1-2.46-1.36c-.84-.55-.05-1.92.8-1.36a14.7,14.7,0,0,0,2.2,1.27l.66-1.85a2.57,2.57,0,0,1-2-1.52,2.73,2.73,0,0,1,1.49-3.58,5,5,0,0,1,2.28-.3c.05-.14.09-.27.13-.41.31-1,1.83-.55,1.52.42a2.58,2.58,0,0,1-.08.26,7.29,7.29,0,0,1,1.74.74C242.32,118.7,241.53,120.07,240.67,119.52Z"/><path class="cls-5" d="M236.68,118.84a1.19,1.19,0,0,0-.92,1.37,1.1,1.1,0,0,0,1.11.86c.26-.78.53-1.57.78-2.35A3.4,3.4,0,0,0,236.68,118.84Z"/><path class="cls-5" d="M238,122.68c-.25.71-.5,1.42-.76,2.12a3.3,3.3,0,0,0,1-.06c.54-.11,2.53-1.22,1.28-2-.27-.17-1,0-1.32,0Z"/><path class="cls-5" d="M236.79,195.86c0,.2-.11.4-.16.6.21,0,.42,0,.63-.08A.79.79,0,0,0,236.79,195.86Z"/><path class="cls-5" d="M248.76,195.66a3.59,3.59,0,0,0-.63.24,1.55,1.55,0,0,0-.73,1.12l.87,0C248.44,196.56,248.61,196.11,248.76,195.66Z"/><path class="cls-5" d="M258.17,193.39a2.5,2.5,0,0,0-1-1.41c-5.24-1.56-11.14.73-16.25-1.22-2.61-1-4.91-3.07-7.7-3.14a31.19,31.19,0,0,1,.15,3.65c-.55,4.94-2.94,7.23-4,12.09,2.25.16,4.52-.67,6.73-.23a14.52,14.52,0,0,1,3.92,1.76,34.4,34.4,0,0,0,14.51,4.16,1.68,1.68,0,0,0,1.11-.2c.56-.4.44-1.24.34-1.92C255.34,202.39,257.87,198,258.17,193.39Zm-19.4,3.86a.82.82,0,0,1-.55.55,9.91,9.91,0,0,1-2,.27c-.13.49-.25,1-.38,1.48a.79.79,0,0,1-1.52-.42l.3-1.15-.74-.13c-1-.22-.57-1.74.42-1.52.24,0,.48.08.72.11.1-.41.22-.83.32-1.24a1.54,1.54,0,0,1-.58-1.23,1.66,1.66,0,0,1,1.22-1.46c.13-.54.26-1.07.38-1.6.22-1,1.74-.57,1.52.42-.07.32-.15.63-.23.95a3.35,3.35,0,0,1,.47.06c1,.22.56,1.74-.42,1.52a2.7,2.7,0,0,0-.41-.05c0,.16-.07.32-.11.48a2.35,2.35,0,0,1,.85.46A2.57,2.57,0,0,1,238.77,197.25Zm13.71-1.67c-.56,0-1.28-.1-2-.1-.16.51-.33,1-.52,1.52h.21c1.53.15,3,1,2.88,2.71-.15,2.84-3.06,3.58-5.72,3.32-.29.64-.57,1.27-.82,1.89-.38.93-1.9.52-1.52-.42.24-.57.49-1.16.76-1.75a7.53,7.53,0,0,1-1.84-.7.79.79,0,0,1,.8-1.36,6.86,6.86,0,0,0,1.66.69c.41-.89.82-1.8,1.22-2.71a1.7,1.7,0,0,1-1.38-.56,2.65,2.65,0,0,1,.45-3.27,5.09,5.09,0,0,1,2.61-.85c.11-.43.2-.85.28-1.28.18-1,1.7-.57,1.52.42-.05.27-.11.53-.17.8.58,0,1.13,0,1.59.07C253.49,194.07,253.49,195.64,252.48,195.58Z"/><path class="cls-5" d="M249.34,198.53c-.43,1-.9,2.05-1.36,3.06h.15a5.24,5.24,0,0,0,1.75-.35c.6-.23,2.84-1.48.93-2.52A2.62,2.62,0,0,0,249.34,198.53Z"/><path class="cls-5" d="M105.43,224.87a.71.71,0,0,0,.42.12c.75,0,.81-.71.68-1.36C106.17,224,105.81,224.46,105.43,224.87Z"/><path class="cls-5" d="M107.22,219.24c-.89.18-.6.83-.29,1.44,0,0,0,0,0,.08.36-.41.71-.82,1-1.25A.76.76,0,0,0,107.22,219.24Z"/><path class="cls-5" d="M117.64,229.51a1.78,1.78,0,0,0,1.26.15c1.07-.31.64-1.17.14-1.87C118.56,228.36,118.1,228.93,117.64,229.51Z"/><path class="cls-5" d="M114.27,218.12c-3-1.15-6.07-2.58-9.32-2.61,0,0-5.18,7.13-7.93,10.78a2,2,0,0,0-.55,1.42,1.39,1.39,0,0,0,1.43,1,6.69,6.69,0,0,0,1.81-.46c2.58-.8,5.4-.07,7.84,1.07s4.7,2.7,7.2,3.7a17.85,17.85,0,0,0,7.78,1.25,2.41,2.41,0,0,0,1.32-.36c.28-.22,4.46-8.38,6.24-12.2A58.56,58.56,0,0,1,114.27,218.12Zm-3.87.79c-.22.33-.45.66-.69,1a3.08,3.08,0,0,1,0,1c-.09.62-.71.69-1.13.41l-.84,1,.16.36a3.43,3.43,0,0,1-.36,3.11c-.93,1.35-2.17,1-3.19.18a7.72,7.72,0,0,1-.73.58c-.83.59-1.61-.78-.79-1.36.16-.11.32-.24.48-.37a5.36,5.36,0,0,1-.81-1.6.79.79,0,0,1,1.52-.42,5.76,5.76,0,0,0,.39.94c.5-.55,1-1.12,1.43-1.65-.54-.95-1.17-2-.69-3.08.88-2,2.66-1.78,3.72-.62a1.33,1.33,0,0,0,.14-.19C109.58,217.26,111,218.05,110.4,218.91Zm13.43,3.69c-.24.23-.46.47-.69.7a4.55,4.55,0,0,1,.57,2.31.79.79,0,0,1-1.57,0,3.63,3.63,0,0,0-.17-1.11c-.64.67-1.27,1.36-1.89,2.06a3.81,3.81,0,0,1,1.1,2.58,2.58,2.58,0,0,1-2.78,2.12,3.83,3.83,0,0,1-1.73-.52l0,0c-.6.8-2,0-1.36-.8l.15-.19a5.77,5.77,0,0,1-1-1.5c-.44-.91.92-1.71,1.36-.79a5.43,5.43,0,0,0,.67,1c.54-.68,1.08-1.35,1.64-2-.71-1-1.38-2.13-.69-3.27a3.59,3.59,0,0,1,4.34-1.2,2,2,0,0,1,.29.15c.24-.23.46-.48.7-.71C123.44,220.78,124.55,221.89,123.83,222.6Z"/><path class="cls-5" d="M118.74,224a1.38,1.38,0,0,0,.38,1.25c.56-.63,1.13-1.26,1.71-1.88a2.21,2.21,0,0,0-.48-.07C119.86,223.32,118.92,223.52,118.74,224Z"/></svg>