<svg xmlns="http://www.w3.org/2000/svg" viewBox="0 0 500 500"><title>money_fish</title><rect width="500" height="500" style="fill:#5f6868"/><path d="M381.34,286.22c-.4-.85-.84-1.66-1.29-2.47,0-.2-3.6-13.36-7.38-18.78a30.81,30.81,0,0,0-15.23-11.82,1.52,1.52,0,0,0-1.7,2.2c2.92,4.3,6.69,8.16,8.81,12.91-.37-.2-.72-.43-1.1-.63-1.44-.75-3.18,1.2-1.82,2.36a26.64,26.64,0,0,1,8.52,13c.4,1.4.76,2.73,1.18,4a50.19,50.19,0,0,0-7-3.6c-1.21-.51-2.38,1.18-1.7,2.2.83,1.23,5.86,10.93,2.8,11.26-.95.1-3.91-2.77-4.68-3.32-4.73-3.35-9.53-6.87-14.78-9.39a1.51,1.51,0,0,0-2.05,2.05c1.69,2.87,4.35,4.8,6.16,7.55,3.13,4.71,1.5,8.83-2.95,11a16.82,16.82,0,0,0-10.53-12,1.5,1.5,0,0,0-1.84,1.84c1,2.55,2.08,5,3,7.62a13.35,13.35,0,0,1,1,4.3,7.38,7.38,0,0,0-.09,2.35c-1.31-.91-3.76-3.51-4.73-3.79a1.52,1.52,0,0,0-1.85,1.05c-.21,1.47.26,4,.17,6-2.24-2.8-5.77-5.05-8.43-6.92-1-.71-2.17.26-2.25,1.29-.18,2.32.58,4.3,1.35,6.45.51,1.41,1.32,3,1.24,4.54s-1.26,3.54-2.23,5.13c-2.42-1.35-4.44-3.68-7-4.51a1.53,1.53,0,0,0-1.85,1.05c-.65,2.14.44,5,.79,7.43-2.14.46-3.73,2.33-5.35,3.93a12.72,12.72,0,0,0,0-3.9c-.33-2-1.34-2.33.31-4.53.5-.68,1.27-.63,1.71-1.47.7-1.36.11-2.5-.69-3.66-1.2-1.75-2.82-2.41-.51-3.88,1.27-.82,4.44-.41,5.82-.07a1.53,1.53,0,0,0,1.9-1.45c.08-2.38-1.83-3.92-3.91-5.21a17.85,17.85,0,0,1,3.41-.29,1.52,1.52,0,0,0,1.3-2.26c-1.62-3.05-4.48-5.21-6.6-7.9,4.12.36,8.62,3.37,11.79,5.33a1.51,1.51,0,0,0,2.05-2.05,118.57,118.57,0,0,0-9-12.86c.93.09,1.86.15,2.83.16a1.52,1.52,0,0,0,1.3-2.25,35.74,35.74,0,0,0-4.7-7.41c-2.67-3.54.86-4.15,3.63-2.33,3.46,2.27,6,5.75,9.41,8,1,.68,2.71-.46,2.21-1.69A137.5,137.5,0,0,0,324.89,268c4.69,2.23,10.25,4.66,14.37,1.83a1.53,1.53,0,0,0,.3-2.36c-4.7-4.51-8.05-10.16-13.06-14.15,6.06,1,10.22,6.91,15.34,10.69,1.11.82,2.51-.52,2.21-1.69a72.19,72.19,0,0,0-5.18-14.7c2.73,2.16,5.26,4.86,7.57,7A1.51,1.51,0,0,0,349,253.1a55.29,55.29,0,0,0-2.12-6.86c2.85,1.13,5.53,2.36,8.67,2.76,1.46.18,1.75-1.68,1.06-2.56-5.47-7-11.67-14.16-20.05-17.64-.71-.29-17.39,17.37-16.67,18.2l-11,38s-6,19-6,24c0,4,1,19,2.61,21.34-.75.75,3.19,4,4.11,3.22,1.49-1.25,3.7-4.37,5.89-4.11l6.65-4.5c.59.24,12.4-10.55,12.4-10.55l11.85-4.07s23.57-10.88,24.35-12.84C370.7,297.49,382.17,288,381.34,286.22Z" style="fill:#faeaee"/><path d="M386.5,289.5c-6.69-7.69-7.56,5.17-17,9-8.77,3.56-13,10-32,15-6.54,1.72-25,24-32,19-3-17-5-32,3-47,5.53-10.37,7-36,16-46,7.63-8.47,12.63-7.49,11-14-2-8-11-10-23-20-19-15.85-61.3-21.08-73-18-12.92,3.4-30.76,8.1-47.83,16.38-3.43-1-11.61-7.09-13.16-8.4-5.69-4.78-14.1-4.55-21.26-2.56-4.13,1.15-16.81,8-19.57,8.81-2.1.66-7.32.84-9.43,1.48-6.56,2-8.51,10.69-7.84,17.69-18.68-9.07-38-19.4-49.91-19.4-16,0-38,19-39,27-1.2,9.62,2.92,26.33,9.19,33.72,1,1.13,10.8,7,15,8.06,26.07,6.56,79.29,4.3,79.29,4.3,3.22,3,7.67,6.34,12.43,9.93-7.84,1.94-25.24,6.49-26.8,7.83-1.27,1.09-7.67,14.54-6.42,19.42.8,3.15,9.07,12.12,11.56,13.27,3.35,1.56,7.22,1.35,10.91,1.12,6.93-.45,10.86-.89,17.79-1.34,9.19-.59,20.36-2.11,29.09-5.64,22.21,22.44,56.94,47.72,83,53.82,31,.85,65.59-9.14,94-21.49,9.26-4,10.81-14,17-22C385.31,319.42,394.87,299.12,386.5,289.5Z" style="fill:#e2f2e8"/><path d="M387.56,288.44c-4.22-4.48-7.39-2.6-10.74,1.65-2.35,3-4.61,5.45-8.08,7.11a79.75,79.75,0,0,0-7.71,4.2c-2.88,1.81-5.74,3.61-8.78,5.13-4.91,2.46-10.05,3.66-15.15,5.52-4.67,1.71-8.51,5.66-12.23,8.83-2.82,2.4-5.63,4.83-8.65,7-1.72,1.21-6.18,4.81-8.54,3.88s-2.66-11.88-2.92-14.53a64.86,64.86,0,0,1,.36-17.27c1.53-8.78,6.4-16.44,8.63-25.07,2.07-8,3.53-16.29,6.35-24.12a31.23,31.23,0,0,1,6.08-10.83c2.83-3.07,6.84-5,9.51-8.15,3.18-3.74,1-9.14-1.88-12.4-2.23-2.51-5.19-4.34-8-6.17-4.65-3-9-6.27-13.44-9.67a72.49,72.49,0,0,0-19.72-10.31c-14.23-5.17-30.14-8.31-45.33-8-6.76.12-13,2.1-19.53,3.92a243.45,243.45,0,0,0-30,10.37c-3,1.29-5.52,3.33-8.63,1.57-1.72-1-3.36-2.09-5-3.21-2.93-2-5.66-4.68-9-6.08-8.07-3.43-17.06-1.18-24.65,2.32-3.77,1.75-7.45,3.71-11.25,5.39s-7.66,1.16-11.45,2.32c-7.85,2.4-9.45,12.09-8.94,19.13l2.26-1.29c-11.44-5.57-22.76-11.63-34.72-16-8.51-3.12-16.73-4.82-25.51-1.83a62.6,62.6,0,0,0-22.38,14c-4.82,4.58-8.71,9.31-8.77,16.16a55.66,55.66,0,0,0,7,27.18c3.4,5.94,9.8,9.22,16,11.72,7.19,2.89,15.76,3.41,23.41,4.12,9.4.88,18.85,1.25,28.28,1.41q12.45.21,24.88-.12c1.43,0,3.88-.64,5.23-.17.8.28,2,1.86,2.91,2.64,3,2.45,6.07,4.76,9.14,7.07l.36-2.74c-5.88,1.46-11.74,3-17.56,4.66-3,.86-7.75,1.47-10.09,3.77-2.59,2.53-4,7.6-5.15,10.91-1.27,3.72-2.61,8-.63,11.64a38.36,38.36,0,0,0,9.55,11c4.78,3.78,11.37,2.8,17.05,2.38,8-.58,16-1,24-2a105.72,105.72,0,0,0,10.42-1.85c1.89-.45,3.76-1,5.61-1.55,2.41-.78,3.07-1,4.93.86,21,20.51,46.66,40.64,74.86,49.87,6.93,2.27,13.64,2,20.88,1.45a193.32,193.32,0,0,0,24.54-3.39,272.58,272.58,0,0,0,49.37-15.21c7-2.86,12.37-5.59,16.39-12.24,1.88-3.11,3.38-6.44,5.28-9.53s4.32-6,6.25-9.13c6.05-9.86,13.23-25.69,4.92-36.21-1.2-1.51-3.31.62-2.12,2.12,5,6.33,2.47,15.57-.22,22.35-2.85,7.19-7.44,12.86-11.42,19.35-4.1,6.7-6.54,14.27-14.06,17.94-8.55,4.19-17.92,7.28-27,10.21-18.17,5.89-37.09,10.15-56.23,11-4.27.19-8.55.43-12.71-.65a80.66,80.66,0,0,1-11.77-4.26,163.85,163.85,0,0,1-21.62-11.59,259.75,259.75,0,0,1-45.88-36.79,1.5,1.5,0,0,0-1.46-.39c-12.29,4.74-25.35,5.27-38.33,6.32-5.92.48-14.4,2.47-19.56-1.14a34.11,34.11,0,0,1-8.63-9.64c-2.17-3.63-.32-8,1.07-11.7,1-2.64,2.2-6.77,4.62-8.42,3-2,8.15-2.61,11.61-3.56,4.61-1.27,9.25-2.47,13.89-3.62a1.53,1.53,0,0,0,.36-2.75c-2.87-2.16-5.75-4.32-8.54-6.6-1.18-1-2.8-3-4.25-3.48a7.14,7.14,0,0,0-2.26,0c-4.63.11-9.26.24-13.9.28-16,.14-32.1-.13-48-2-7.63-.89-15-1.95-21.89-5.6-2.43-1.3-5.57-2.7-7.55-4.69-3.33-3.35-5.11-8.9-6.42-13.27-2.12-7-4.75-16.94-.32-23.54,4.55-6.78,11.82-12.19,18.86-16.12,9.66-5.38,18.42-6.21,28.88-2.76,12.81,4.23,24.82,10.84,36.9,16.73a1.52,1.52,0,0,0,2.26-1.3c-.31-4.24-.06-9,2.33-12.68,3-4.7,8.17-3.7,12.92-4.82,5.55-1.31,10.77-4.89,15.94-7.22,8.39-3.78,17.74-4.66,25.37,1.17,3.39,2.59,9.47,8.44,13.95,7.82,2.13-.29,4.87-2.27,6.86-3.12,3.26-1.4,6.57-2.69,9.91-3.9,4.87-1.77,9.82-3.35,14.79-4.83,7-2.07,14.3-4.76,21.65-5.1,14.41-.68,29.53,2.3,43.15,6.8,7.47,2.47,14.9,5.66,21.23,10.4,3.78,2.85,7.41,5.81,11.37,8.43,3.37,2.23,7.19,4.26,10,7.26,2.19,2.37,4.24,6.3,1.68,9.06-2.85,3.07-6.76,5-9.59,8.27-4.31,4.93-6.43,11.47-8.17,17.67-2.19,7.8-3.5,15.85-6,23.55-2.58,7.9-6.61,14.53-7.54,23a71.8,71.8,0,0,0,0,14.51c.44,4.67.62,10.4,2.14,14.83,1.4,4.07,6.31,2.69,9.39,1.16,6.17-3.06,11.34-8.22,16.56-12.61,2.31-1.95,4.75-4.29,7.58-5.47,4.18-1.74,8.73-2.57,12.92-4.39,6.46-2.8,12-7.13,18.26-10.19,3.31-1.6,5.93-3.07,8.38-5.88s4.61-8.15,8.45-4.08C386.77,292,388.88,289.84,387.56,288.44Z" style="fill:#5f6868"/><path d="M143.15,230.9c-23.81-8.4-55.81-29.4-72.81-29.4-16,0-38,19-39,27-1.2,9.62,2.92,26.33,9.19,33.72,1,1.13,10.8,7,15,8.06,26.07,6.56,52.36,5.62,79.23,4.63" style="fill:#afdcf0"/><path d="M143.54,229.46c-18.21-6.56-34.84-16.73-52.71-24.08-6.4-2.64-13.45-5.39-20.49-5.38-7.68,0-15.22,3.63-21.56,7.69-6,3.84-11.83,8.59-16,14.4-3.7,5.16-3.49,10.65-2.65,16.8,1.08,7.86,3.43,17.28,8.64,23.53,3.47,4.17,10.12,7.21,15.16,8.94,11.84,4.07,25.63,4.88,38.05,5.45,14.24.65,28.5.12,42.74-.4,1.92-.07,1.93-3.07,0-3-22.23.82-44.69,1.68-66.71-2-8.4-1.42-15.61-3.39-22.9-7.81-6.44-3.91-8.94-11.41-10.72-18.46-1.57-6.22-3.5-14.6.2-20.38s9.87-10.7,15.7-14.44c6.14-3.94,13.45-7.53,20.93-7.26,6.68.24,13.36,3,19.43,5.51,17.62,7.36,34.08,17.34,52.09,23.82,1.82.65,2.6-2.24.79-2.89Z" style="fill:#5f6868"/><path d="M149.79,284.37c-7.53,1.85-27.77,6.6-29.37,8-1.27,1.09-7.67,14.54-6.42,19.42.8,3.15,9.07,12.12,11.56,13.27,3.35,1.56,7.22,1.35,10.91,1.12,6.93-.45,10.86-.89,17.79-1.34,9.79-.63,20.83-1.32,29.78-5.36" style="fill:#ade9e8"/><path d="M149.39,282.92c-5.64,1.38-11.29,2.72-16.91,4.17-3.72,1-9,1.53-12.31,3.66-2.47,1.61-3.63,5.31-4.71,7.9-1.64,3.92-4.14,9.44-2.82,13.78s5.78,8.47,8.93,11.38c4.28,3.95,9.21,4.17,14.9,3.84,15.81-.92,33.57-.61,48.32-6.9,1.77-.76.25-3.34-1.51-2.6-12.91,5.51-27.9,5.07-41.69,6.13-6.07.47-13,1.86-17.89-2.59-2.92-2.67-7.58-6.83-8.31-10.85s2.2-9.89,3.89-13.45c1.49-3.17,2-4,5.34-5.05,8.4-2.58,17-4.44,25.57-6.52,1.88-.46,1.08-3.36-.8-2.9Z" style="fill:#5f6868"/><path d="M386.34,289.5c-6.69-7.69-7.56,5.17-17,9-8.77,3.56-13,10-32,15-6.54,1.72-25,24-32,19-3-17-5-32,3-47,5.53-10.37,7-36,16-46,7.63-8.47,12.63-7.49,11-14-2-8-11-10-23-20-19-15.85-61.3-21.08-73-18-17.65,4.64-44.47,11.69-66,27-7.55,5.37-35.25,17.73-36,23-1,7-8.31,21.21-7.52,30.29.64,7.33,30.52,23.71,40.52,36.71,18.9,24.56,64,61,96,68.49,31,.85,65.59-9.14,94-21.49,9.26-4,10.81-14,17-22C385.15,319.42,394.71,299.12,386.34,289.5Z" style="fill:#def0ef"/><path d="M387.4,288.44c-2.79-3-5.72-3.81-8.76-.76-1.86,1.86-3.18,4.19-5.05,6.05-2.42,2.42-5.28,3.43-8.22,5-4.54,2.41-8.67,5.51-13.28,7.81-6,3-13.29,3.69-18.79,7.4-4.27,2.89-8,6.54-12,9.82-2.13,1.77-10.8,9.93-14.17,7.9-2.07-1.25-2.21-11.27-2.45-13.63a74.44,74.44,0,0,1-.28-13.76c.7-8.43,4.54-15,7.24-22.78,4.43-12.7,4.48-28.56,12.72-39.65,2.46-3.31,5.77-5.72,9-8.22a9.17,9.17,0,0,0,3.45-4c1.49-4.2-1.62-9-4.59-11.71-5.67-5.13-12.81-8.75-18.82-13.48a68.52,68.52,0,0,0-15.89-9.28,134.33,134.33,0,0,0-39.6-9.52,75.16,75.16,0,0,0-15.51-.18c-5.36.62-10.66,2.47-15.83,3.94-16.27,4.62-32.42,10.4-46.95,19.19-5.31,3.21-10.29,6.76-15.74,9.73-5.63,3.07-11.34,6-16.86,9.29-3.36,2-7.92,4.27-10.2,7.61-1,1.48-1.11,3.1-1.57,4.82-1,3.64-2.35,7.17-3.55,10.73-1.73,5.14-4.88,12.77-3.12,18.3,1.13,3.59,4.9,6.45,7.64,8.76,10.22,8.58,22.13,15.5,31.14,25.45,4.27,4.72,8,9.81,12.46,14.42,5.31,5.55,10.93,10.81,16.74,15.83a250.87,250.87,0,0,0,38.49,27.73,146.88,146.88,0,0,0,19.39,9.51,88.24,88.24,0,0,0,9.26,3.1c3.85,1,7.89.71,11.85.56,18.51-.7,36.86-4.58,54.5-10.06q13.65-4.25,26.84-9.79c6.73-2.81,11.07-6,14.73-12.41s7.83-12.34,11.55-18.67,6.71-13.16,7.64-20.34c.69-5.34,0-10.43-3.41-14.72-1.2-1.51-3.31.62-2.12,2.12,4.71,6,2.68,14.53.28,21-2.58,7-6.61,12.8-10.77,18.89-4,5.81-6.09,13.37-11.87,17.74-3.57,2.7-8.18,4.07-12.32,5.71q-6.44,2.55-13,4.81c-17,5.87-34.73,10.33-52.69,12.06-7.93.76-16.17,1.62-23.84-.83a116.78,116.78,0,0,1-19.53-8.52c-25.18-13.47-49.13-32.53-67.39-54.55-7.74-9.34-16.67-16.5-26.33-23.79-4.58-3.45-9.35-6.84-13.39-10.93-4.61-4.67-3.14-9.76-1.41-15.72.93-3.24,2.08-6.42,3.18-9.62,1-2.82,1.38-6.26,2.57-8.94,1.55-3.53,6.59-5.83,9.75-7.7,9.64-5.73,19.65-10.62,29-16.78,14-9.17,29.75-15.2,45.72-19.95,10.4-3.09,19.86-5.79,30.76-5.13a134.67,134.67,0,0,1,38.27,8,68.86,68.86,0,0,1,17.52,9.1c5.89,4.43,12,8.45,18,12.81,2.4,1.77,4.76,3.8,5.8,6.7,1.34,3.77-.66,5.22-3.42,7.32-4.68,3.57-8.63,7.47-11.15,12.83-5.39,11.44-6.14,24.31-10.46,36.09-2.49,6.8-5.8,12.58-6.82,19.93-1.07,7.72-.4,15.5.72,23.17.63,4.34-.09,10.61,5.66,10.45,3.9-.11,7.72-3,10.7-5.21,4.31-3.2,8.26-6.84,12.4-10.24,4.84-4,9.49-4.92,15.32-7.1a82.74,82.74,0,0,0,15.05-7.69c3.82-2.4,8.4-4,12-6.72a30.46,30.46,0,0,0,5.21-5.55c2.06-2.61,3.51-4.83,6.5-1.65C386.61,292,388.72,289.84,387.4,288.44Z" style="fill:#5f6868"/><path d="M285,276.42c7.32,3.08,9.32-10.92,10.43-17.91,1.14-7.22-.51-10.71-7.33-12.37-2.74-.67-5.71.43-8.17,1.8-3.26,1.81-4.41,5.2-5.51,8.76C273.44,259.93,278.66,273.74,285,276.42Z" style="fill:#afdcf0"/><path d="M284.62,277.86c7.77,2.61,10.22-7.84,11.32-13.33,1.4-7.08,3.28-15.77-5-19.07-8.44-3.39-17.81,3.35-18.17,12.31-.27,6.88,5.34,16.89,11.45,19.94,1.73.86,3.25-1.73,1.52-2.59-4.85-2.42-7.76-8.57-9.22-13.54-2.17-7.38,4.08-16.26,12.46-13.64,7.12,2.22,5.22,9.53,4.13,15.23-.7,3.69-2.15,13.67-7.73,11.8C283.58,274.35,282.8,277.25,284.62,277.86Z" style="fill:#5f6868"/><path d="M212.12,236.59c-2.7-1.92,5.22-21.09-.83-26.32-12.48-10.79-32.53-6.64-44.95,4.23-16,14-6,31-.14,35.3,4.6,3.36,20.57,5.49,26.14,6.7" style="fill:#ade9e8"/><path d="M213.18,235.52c-1.56-1.6,1.27-10.52,1.54-12.59.47-3.65,1-8-.7-11.42-2-4-7.25-6.36-11.25-7.64a34.17,34.17,0,0,0-17.16-.58c-11.11,2.26-23.48,9.47-27.86,20.42-3.36,8.38-.92,18.36,5.06,25,6.74,7.46,19.94,7.36,29.13,9.28,1.89.39,2.69-2.5.8-2.9-9.17-1.9-22.82-1.7-28.91-9.84-9.2-12.31-3.07-26.21,9-33.64a39.51,39.51,0,0,1,20.81-6.1c5.72.06,16.25,2.13,18.1,8.55,1.39,4.81-.32,10.57-1.09,15.34-.39,2.38-1.55,6.28.4,8.29,1.34,1.39,3.46-.74,2.12-2.13Z" style="fill:#5f6868"/><path d="M230.34,245.5c-7.05-4.93-12-4-19.72-9.39-7.41-5.17-17,3.64-19.87,8.07-3.41,5.32.71,11.62,1.91,12,5,1.49,10.26,3.58,12.7,8.14,2.8,5.23.78,7.68,1.76,13.53a17.35,17.35,0,0,0,11,13.18C212.84,283.07,240.34,252.5,230.34,245.5Z" style="fill:#ffcfd8"/><path d="M231.1,244.2c-4.83-3.18-10.26-4.3-15.39-6.81-4.14-2-7-4.93-11.91-4.19-7.07,1.09-16.36,8.6-15.84,16.37.18,2.6,1.41,6.29,3.77,7.78,2,1.26,4.73,1.54,6.84,2.69,3.76,2,6.49,5.14,6.83,9.6.39,5-.33,9.48,2.23,14.14a19.68,19.68,0,0,0,10.07,8.68c1.27.53,2.29-1.17,1.7-2.2-1.86-3.25,1.4-8.82,2.77-11.69,2.28-4.74,4.9-9.31,7.22-14,2.55-5.18,8.09-15.33,2-20.1-1.5-1.18-3.64.93-2.12,2.12,6.17,4.84-4.28,20-6.75,24.72-2.64,5-9.13,14.53-5.72,20.49l1.69-2.2a16,16,0,0,1-9.87-12.09c-.61-3.55.29-7.23-.66-10.73a14.28,14.28,0,0,0-5.35-7.71c-2.74-2-7.29-2.44-9.69-4.58-7.66-6.84,5.41-18,12.06-18.35,4.27-.24,8.26,3.62,12.21,5.18,4.28,1.7,8.49,2.94,12.38,5.51C231.2,247.86,232.7,245.26,231.1,244.2Z" style="fill:#5f6868"/><path d="M339.17,142.62a9.6,9.6,0,0,0-8.12-.37c-4,1.56-9.14,6.89-9.36,11.21s.9,8.58,1.15,12.9c.57,10.1-2.68,19.85-5.36,29.61-1.78,6.46-8.05,17.56-10.58,25.5a12.91,12.91,0,0,0,.17,8.94c1.43,2.74,9.41,2.88,11.11-3.3,1.61-5.86,7.17-30.42,10.4-46.33,1.37-6.72,5.57-10.91,8.24-16.12C341.71,155.15,343.73,145.31,339.17,142.62Z" style="fill:#ade9e8"/><path d="M339.92,141.33c-5.95-2.79-11.9-.3-16,4.43-6.13,7-2.41,15-2.49,23.43-.09,9.94-3.06,20.91-6.66,30.16-3,7.68-8.1,15.19-9.69,23.35-.75,3.81-.64,9.25,3.73,10.66a8.76,8.76,0,0,0,10.46-4.76c2.22-4.94,2.86-11.16,4.06-16.4q2.77-12.15,5.35-24.35c1.12-5.29,2-10.23,4.87-14.94,2.24-3.72,4.62-7.19,6.36-11.21,2.45-5.66,6.3-15.75.05-20.37-1.55-1.15-3.05,1.45-1.51,2.59,3.83,2.84,1.15,10.16-.11,13.67a63.89,63.89,0,0,1-6.59,12.55c-4.16,6.61-5.26,13.67-6.87,21.19s-3.3,15.12-5,22.66c-.93,4-1.53,13.46-5.42,15.88s-6.6.09-6.67-3.84c-.08-4.46,2.39-9,4.16-13,3-6.74,6.08-13.22,8.08-20.35,2.57-9.19,5.19-18.57,4.23-28.2-.48-4.85-2.3-10.31.44-14.77s8.4-8.34,13.79-5.82C340.15,144.73,341.67,142.14,339.92,141.33Z" style="fill:#5f6868"/><path d="M291.21,253.33c-.45-1.94-2.37-5.33-7.75-4.15a5.44,5.44,0,0,0-4,3.08,6.54,6.54,0,0,0-.37,4.59c1.27,3.52,6.52,5.67,9.8,2.85A6.6,6.6,0,0,0,291.21,253.33Z" style="fill:#5f6868"/><path d="M335.58,150.3c-.32-1-1.55-3.48-4.26-2.3s-5.79,5.78-6.25,8.55a4.2,4.2,0,0,0,.7,2.95,6.66,6.66,0,0,0,7.79.64C335.63,158.72,336.37,152.69,335.58,150.3Z" style="fill:#5f6868"/><path d="M166.94,215c-1.48-1.22-3.61.89-2.12,2.13,8.61,7.17,18.5,13.78,25.47,22.68-10-4.57-20.19-8.89-30.39-13.11-1.78-.73-2.56,2.17-.8,2.9,10.73,4.43,21.4,9,31.94,13.83a1.64,1.64,0,0,0,2.29-1.52,1.31,1.31,0,0,0,.73-2.06C186.87,229.85,176.29,222.75,166.94,215Z" style="fill:#5f6868"/><path d="M198,235.55a1.29,1.29,0,0,0,.45-1.51c-3-9.52-5.48-19.2-7.8-28.91-.44-1.88-3.34-1.08-2.89.8,2.13,8.9,4.39,17.76,7.08,26.51-6.92-7.4-11.75-16.53-18.23-24.28-1.24-1.49-3.35.65-2.12,2.12,7.6,9.09,12.93,20.1,22,28,1.46,1.26,3.59-.85,2.13-2.12Z" style="fill:#5f6868"/><path d="M199.28,206q-.12,15-.22,30a1.5,1.5,0,0,0,3,0q.12-15,.22-30A1.5,1.5,0,0,0,199.28,206Z" style="fill:#5f6868"/><path d="M208.63,210a118.6,118.6,0,0,1-4.93,23.51c-.6,1.84,2.3,2.63,2.89.79a122,122,0,0,0,5-24.3C211.84,208.11,208.84,208.13,208.63,210Z" style="fill:#5f6868"/><path d="M189.72,244.1c-9.71-3.57-19.75-5.66-29.91-7.45-1.89-.33-2.7,2.56-.8,2.9,10.17,1.78,20.2,3.88,29.91,7.44C190.74,247.66,191.52,244.76,189.72,244.1Z" style="fill:#5f6868"/><path d="M187.86,247.78c-7.33-.46-14.68,0-22-.46-1.92-.12-1.92,2.88,0,3,7.33.46,14.68,0,22,.46C189.78,250.9,189.78,247.9,187.86,247.78Z" style="fill:#5f6868"/><path d="M178.64,205.53c-5.06-2.18-7.89-9-9.9-13.73-.76-1.77-3.34-.25-2.59,1.51,2.21,5.18,5.42,12.41,11,14.82C178.88,208.88,180.41,206.3,178.64,205.53Z" style="fill:#5f6868"/><path d="M158.46,193.31a1.5,1.5,0,0,0-2.89.8c2.13,7.43,7.27,12.59,12.22,18.27,1.27,1.46,3.39-.67,2.13-2.12C165.33,205,160.44,200.22,158.46,193.31Z" style="fill:#5f6868"/><path d="M146.93,198.58c-1.4-1.34-3.52.78-2.12,2.12,5.92,5.65,11,12.09,16.93,17.74,1.4,1.33,3.52-.79,2.12-2.13C157.94,210.67,152.85,204.23,146.93,198.58Z" style="fill:#5f6868"/><path d="M150.69,213.05a75.79,75.79,0,0,0-12.31-11.5c-1.53-1.17-3,1.43-1.52,2.59a73,73,0,0,1,12.19,11.63,62.4,62.4,0,0,0,6.89,7.81c1.45,1.27,3.58-.85,2.12-2.13C155.23,219,153.08,215.94,150.69,213.05Z" style="fill:#5f6868"/><path d="M127.71,203.31c-1.11-1.56-3.72-.06-2.59,1.51,6.84,9.58,16.15,15.74,24.82,23.43,1.44,1.28,3.57-.84,2.12-2.12C143.6,218.63,134.39,212.66,127.71,203.31Z" style="fill:#5f6868"/><path d="M146.78,227.69c-7-2.69-13.16-7.33-19.13-11.7-1.6-1.17-4.89-4.84-7.11-3.12-1.52,1.19.58,1.9.93,2.29a16.77,16.77,0,0,0,2.58,1.89c2.15,1.57,4.29,3.15,6.47,4.68,4.87,3.41,9.9,6.7,15.46,8.85C147.78,231.27,148.56,228.37,146.78,227.69Z" style="fill:#5f6868"/><path d="M120.68,214.57c-.27-.08-.3.08,0,0Z" style="fill:#5f6868"/><path d="M117.58,301.15l35.38-5c1.9-.27,1.09-3.16-.8-2.89l-35.38,5C114.88,298.52,115.69,301.41,117.58,301.15Z" style="fill:#5f6868"/><path d="M159.85,304.93c-14.18,1.25-31.61.28-42.87,10.5-1.44,1.3.69,3.42,2.12,2.12,10.54-9.56,27.5-8.45,40.75-9.62C161.76,307.76,161.77,304.76,159.85,304.93Z" style="fill:#5f6868"/><path d="M164.94,314.05c-10.73,1.78-23,1.32-30.66,10.39-1.24,1.47.87,3.6,2.12,2.12,7.23-8.58,19.2-7.93,29.34-9.61C167.64,316.63,166.83,313.74,164.94,314.05Z" style="fill:#5f6868"/><path d="M57.2,205.79c16.63,9.38,33.38,18.07,51.92,23a1.5,1.5,0,0,0,.8-2.89C91.63,221,75.11,212.45,58.72,203.2A1.5,1.5,0,0,0,57.2,205.79Z" style="fill:#5f6868"/><path d="M120.19,237.46a286.79,286.79,0,0,1-75.1-26.08c-1.72-.89-3.23,1.7-1.52,2.59a289.82,289.82,0,0,0,75.82,26.38C121.28,240.74,122.08,237.84,120.19,237.46Z" style="fill:#5f6868"/><path d="M118.19,245.31A220.38,220.38,0,0,1,35.13,222c-1.72-.87-3.24,1.72-1.51,2.59a224.09,224.09,0,0,0,84.57,23.76C120.11,248.45,120.1,245.45,118.19,245.31Z" style="fill:#5f6868"/><path d="M94.74,259.05c-20.31-2.94-40.13-8.32-60.44-11.26-1.89-.28-2.7,2.61-.8,2.89C53.81,253.62,73.64,259,93.94,262,95.83,262.22,96.65,259.33,94.74,259.05Z" style="fill:#5f6868"/><path d="M84.74,266.05c-14.44-1.94-28.83-4.29-43.4-5.05-1.93-.1-1.92,2.9,0,3,14.3.75,28.43,3,42.6,4.95C85.83,269.2,86.65,266.31,84.74,266.05Z" style="fill:#5f6868"/><path d="M101.5,250c-24,0-45.76-12.81-69.75-13.33-1.93,0-1.93,3,0,3,24,.52,45.7,13.29,69.75,13.33A1.5,1.5,0,0,0,101.5,250Z" style="fill:#5f6868"/><path d="M262.24,351.38c-11.47-7.92-25.27-14.76-32.31-27.4-3.08-5.54-3.34-12.18-5.22-18.15-1.74-5.56-2.17-11.64-5.89-16.33-1.2-1.51-3.31.63-2.12,2.12,2.64,3.32,3,7.42,4,11.37.84,3.19,1.91,6.25,2.62,9.48,1.39,6.27,2.74,11.66,6.59,16.92,7.91,10.79,20,17.13,30.82,24.59C262.31,355.08,263.82,352.48,262.24,351.38Z" style="fill:#5f6868"/><path d="M311.64,254.74A81.91,81.91,0,0,0,299.25,235c-5.48-6.26-11.41-6.89-19.38-8.31-9.43-1.69-15.88-6-22.13-13.11-4.1-4.64-7.92-9.65-13.83-12-1.8-.72-2.57,2.18-.8,2.89,6,2.42,9.9,8.48,14.17,13.1,4.7,5.08,10.06,9.13,16.83,11,7.87,2.12,16.25,1.29,22.16,7.65,5.37,5.77,9.52,13,12.77,20.11C309.85,258,312.43,256.49,311.64,254.74Z" style="fill:#5f6868"/><path d="M268.91,209.76c3.12,1.68,7.41,2,10.81,2.93a50,50,0,0,1,14.1,6.24c1.63,1,3.14-1.55,1.51-2.59a54.47,54.47,0,0,0-16.19-6.9c-2.6-.67-6.69-.94-9-2.39-.84-.54-4.37-4.26-3.62-5.27,1.15-1.56-1.46-3.06-2.59-1.52C261.84,203.14,266.5,208.47,268.91,209.76Z" style="fill:#5f6868"/><path d="M306.32,358.82c-7.57,2.91-22.07,7.21-28.87,1-5.18-4.75-6.54-10.73-9.14-16.89-1.74-4.13-4.33-7.38-8.69-8.78-1.84-.59-2.63,2.3-.8,2.89,7.37,2.36,7.42,11.51,10.7,17.3,2.22,3.92,5.33,8.45,9.67,10.12,8.35,3.23,19.94.35,27.93-2.71C308.91,361,308.13,358.13,306.32,358.82Z" style="fill:#5f6868"/><path d="M234.7,346c-5-2.22-7.57-6.73-10.61-11a63.26,63.26,0,0,0-8-9.12,122.22,122.22,0,0,0-20.59-16.46c-1.65-1-3.16,1.58-1.51,2.59a117.87,117.87,0,0,1,21.93,17.91c5.85,5.93,9.37,15.17,17.29,18.69C234.94,349.39,236.47,346.81,234.7,346Z" style="fill:#5f6868"/><path d="M267,113.3a4.16,4.16,0,0,0-2.08-1.1c-12.36-3.66-17.61-4.66-30-1.09-7.73,2.23-15.12,7-23.11,6.12a3.58,3.58,0,0,0-2,.13c-1.89,1-.37,3.93-1,6,0,0,2,6.28,1.92,10.41,0,1.33,1,5.77,1.79,6.84,1,1.33,6.56-3,8-3.79,7.2-3.61,15.79-3,23.64-1.2s17.14,3.92,18.92,3.08c2.37-1.12,3.11-4.06,3.42-6.67a157.46,157.46,0,0,0,1.1-16A4.09,4.09,0,0,0,267,113.3Z" style="fill:#ade9e8"/><path d="M439.24,187.79c-1.9-3.29-18.4-5.82-25.53-4.7-6.16,1-28.37,7.41-34.5-.25-1.73,3.43-4.2,15.63-3.87,20.14s2.59,10.16,7.1,10.42c2.37.14,5.62-1.91,7.83-2.76a46.12,46.12,0,0,1,35,.93c4,1.79,7.9,4.2,12.28,4.59C438.87,208.09,441.38,191.48,439.24,187.79Z" style="fill:#ade9e8"/><path d="M462.11,329.94c-10-3-21.22,1.4-30.95-2.32-5-1.9-9.35-5.85-14.67-6a59,59,0,0,1,.29,6.94c-1,9.4-5.6,13.76-7.58,23,4.28.3,8.61-1.28,12.81-.43,2.69.55,5.07,2,7.47,3.35a65.43,65.43,0,0,0,27.64,7.92,3.23,3.23,0,0,0,2.11-.38c1.06-.77.84-2.37.64-3.66-1.34-8.65,3.49-17.05,4.06-25.78A4.72,4.72,0,0,0,462.11,329.94Z" style="fill:#ade9e8"/><path d="M393.26,91.07a6.6,6.6,0,0,0-3.12-2c-10-3.79-21.2-3.71-31.11-7.78-3.23-1.32-6.31-3.08-9.72-3.8s-7.39-.16-9.65,2.5c0,0,1.23,5.47,1.08,6.34-1.31,7.8-8.18,10.65-10,18.35,4.09-.22,15.58-1.2,20.55-.14,3.54.75,6.19,3.67,9.32,5.48,5.32,3.09,18.71,6.46,21.9,4.34,1-.65,9.27-11.81,11-17.34C394.1,95.06,394.51,92.73,393.26,91.07Z" style="fill:#ade9e8"/><path d="M189.91,379.71c-5.78-2.18-11.57-4.9-17.75-5,0,0-9.87,13.58-15.1,20.54A3.66,3.66,0,0,0,156,398a2.64,2.64,0,0,0,2.72,1.85,12.41,12.41,0,0,0,3.45-.87c4.92-1.52,10.28-.14,14.93,2s8.94,5.13,13.71,7.05a34.38,34.38,0,0,0,14.81,2.38,4.45,4.45,0,0,0,2.51-.7c.55-.42,8.5-15.95,11.89-23.22A110.92,110.92,0,0,1,189.91,379.71Z" style="fill:#ade9e8"/><path d="M218.54,124.38c-.07-.59-.15-1.18-.25-1.77l.12,0c1.76.74,3.29-1.84,1.52-2.6a11.21,11.21,0,0,0-2.4-.71.83.83,0,0,0,0-.15,1.52,1.52,0,0,0-3,.29,5.2,5.2,0,0,0-1.58.79,4.34,4.34,0,0,0-1.23,5.66c.92,1.52,2.48,1.56,4,1.46a25.55,25.55,0,0,1-.15,3.15,6.5,6.5,0,0,1-.9-.16,1.5,1.5,0,0,0-.8,2.89c.39.1.8.18,1.21.25-.08.34-.15.68-.23,1a1.5,1.5,0,0,0,2.89.8c.16-.61.29-1.22.41-1.83a6,6,0,0,0,3.34-1.66,4.18,4.18,0,0,0,.16-5.58A4.53,4.53,0,0,0,218.54,124.38Zm-4.36-.92a1.5,1.5,0,0,1,1-1.06c.14.69.26,1.38.34,2.07C214.73,124.55,213.94,124.48,214.18,123.46Zm4.44,6.88c.08-.94.13-1.87.12-2.81a1.48,1.48,0,0,1,.84,1.06A1.38,1.38,0,0,1,218.62,130.34Z" style="fill:#5f6868"/><path d="M256.42,113.93c.1-.2.19-.42.3-.62.92-1.7-1.67-3.22-2.59-1.52a12.79,12.79,0,0,0-.65,1.41c-2.4-.09-4.45,1.2-4.6,4.75-.1,2.25.75,4.21,2.65,5.07a34.14,34.14,0,0,1-.79,4.24,15.68,15.68,0,0,1-2.53-1.93c-1.42-1.3-3.55.82-2.13,2.12a18.68,18.68,0,0,0,3.63,2.69,12.91,12.91,0,0,1-1.43,2.3c-1.19,1.5.92,3.63,2.12,2.12a14.15,14.15,0,0,0,2-3.45,5.72,5.72,0,0,0,3.2-.3,5.8,5.8,0,0,0,3.35-6.26c-.41-2.65-2.21-3.32-4.41-3.84a29.32,29.32,0,0,1,.89-4.16,9.12,9.12,0,0,1,2.6,2.33c1.18,1.53,3.29-.61,2.12-2.12A9.82,9.82,0,0,0,256.42,113.93Zm-3.93,2.61c-.21,1-.37,2-.51,3A2.68,2.68,0,0,1,252.49,116.54ZM255.62,127a2.4,2.4,0,0,1-2.29,1.21c.35-1.46.57-3,.78-4.48C255.63,124.1,257,124.84,255.62,127Z" style="fill:#5f6868"/><path d="M380,98.21l-.06-.08A45,45,0,0,1,383.31,95a9.19,9.19,0,0,1,.64,2.4c.27,1.91,3.16,1.1,2.89-.79a10.38,10.38,0,0,0-1.07-3.42c.55-.35,1.11-.69,1.7-1,1.71-.9.2-3.49-1.51-2.59a22.21,22.21,0,0,0-2.22,1.35,5.53,5.53,0,0,0-2.78-.79c-3.08-.09-6.78,1.44-6.17,5.06A6.27,6.27,0,0,0,376.15,98c-1.28,1.38-2.57,2.76-3.94,4a4.08,4.08,0,0,1-1.37-2.53c-.15-1.91-3.15-1.93-3,0a8,8,0,0,0,2.17,4.43,21.92,21.92,0,0,1-3.43,2.27c-1.7.91-.19,3.5,1.52,2.6a24.63,24.63,0,0,0,4.2-2.9c3,1.93,6.62,2.34,8.57-1.14C382,102.77,381.34,100,380,98.21Zm-1.61-4a2.64,2.64,0,0,1,2.54-1.1c-1,.86-1.9,1.77-2.8,2.71A1.73,1.73,0,0,1,378.42,94.23Zm-3.67,9.4c1.07-1.06,2.09-2.16,3.12-3.26a4.53,4.53,0,0,1,.48,1.32C378.76,104.1,376.78,104.41,374.75,103.63Z" style="fill:#5f6868"/><path d="M352.46,81.65l-.76,1.11a4.47,4.47,0,0,0-1.13-.52c-2.51-.69-4.69,1.39-5.14,3.75a4.76,4.76,0,0,0,1.12,4.28l-2.06,3c-.23-.22-.43-.43-.59-.61-1.3-1.43-3.42.69-2.12,2.12.3.34.63.67,1,1L341,98.38c-1.1,1.59,1.5,3.1,2.59,1.51.54-.78,1.08-1.57,1.61-2.36a5.17,5.17,0,0,0,4.24.36,5,5,0,0,0,3.14-4.68,3.69,3.69,0,0,0-2-3.52l1.48-2.16.38.61c1.07,1.59,3.67.09,2.59-1.52-.36-.55-.75-1.14-1.17-1.71l1.19-1.74C356.15,81.57,353.55,80.07,352.46,81.65Zm-2.52,3.68-1.44,2.1C348.24,86.25,348.74,84.94,349.94,85.33Zm-.6,8.85a1.73,1.73,0,0,1-2.42.84l2-2.94A1.44,1.44,0,0,1,349.34,94.18Z" style="fill:#5f6868"/><path d="M388.22,195.4c0-.65.06-1.29.08-1.94,1.09,1.49,3.6,0,2.54-1.57a6,6,0,0,0-2.47-2.1v-.29a1.51,1.51,0,0,0-3-.34,5.45,5.45,0,0,0-1,.11,4.43,4.43,0,0,0-3.3,6.1,4.57,4.57,0,0,0,2.78,2.44,5.85,5.85,0,0,0,1.18.22c-.09,1.17-.21,2.33-.33,3.49-.44-.18-.84-.37-1.16-.52-1.74-.8-3.27,1.79-1.51,2.59a23,23,0,0,0,2.28.95c-.11.73-.2,1.47-.32,2.2-.32,1.89,2.57,2.7,2.89.8.13-.79.23-1.57.34-2.36a5.54,5.54,0,0,0,2.78-.48,5,5,0,0,0,2.34-5.92A5.67,5.67,0,0,0,388.22,195.4Zm-4.1-.87a1.44,1.44,0,0,1,.48-2.22,2,2,0,0,1,.73-.18c0,1-.05,1.93-.09,2.9A1.66,1.66,0,0,1,384.12,194.53Zm4.77,7.37a2.29,2.29,0,0,1-1.23.34c.15-1.26.28-2.52.38-3.78a3.46,3.46,0,0,1,.74.38A1.86,1.86,0,0,1,388.89,201.9Z" style="fill:#5f6868"/><path d="M432.12,189.37a13,13,0,0,0-3.31-1.41c.05-.16.11-.33.16-.5.58-1.85-2.31-2.64-2.89-.8-.08.26-.17.52-.25.78a9.6,9.6,0,0,0-4.34.57,5.19,5.19,0,0,0-2.84,6.82,4.84,4.84,0,0,0,3.73,2.89c-.42,1.18-.83,2.36-1.26,3.53a27.67,27.67,0,0,1-4.2-2.41c-1.61-1.07-3.12,1.53-1.51,2.59A28.29,28.29,0,0,0,420.1,204l-.5,1.34c-.68,1.8,2.22,2.59,2.9.79.16-.42.31-.85.47-1.27a8.9,8.9,0,0,0,5-.49c2.69-1.11,4.92-4.15,3.55-7.11-1-2.16-3-2.3-5-2.28q.71-2.07,1.38-4.14a9.92,9.92,0,0,1,2.73,1.12C432.24,193,433.75,190.4,432.12,189.37Zm-10.87,3.91a2.27,2.27,0,0,1,1.76-2.62,6.8,6.8,0,0,1,1.85-.23c-.49,1.49-1,3-1.5,4.48A2.09,2.09,0,0,1,421.25,193.28Zm4.58,4.7c.58,0,2-.26,2.51.07,2.37,1.53-1.42,3.64-2.44,3.85A6.29,6.29,0,0,1,424,202c.49-1.35,1-2.69,1.44-4Z" style="fill:#5f6868"/><path d="M423.94,334.34l.21-.91a4.52,4.52,0,0,1,.77.09c1.88.42,2.69-2.48.8-2.89a5.84,5.84,0,0,0-.88-.12c.14-.61.29-1.21.43-1.81.42-1.88-2.47-2.68-2.89-.8-.23,1-.49,2-.72,3.05a3.18,3.18,0,0,0-2.33,2.79,2.89,2.89,0,0,0,1.11,2.33c-.2.79-.42,1.58-.62,2.37-.46-.06-.91-.12-1.37-.22-1.88-.41-2.69,2.48-.8,2.89.47.11.94.18,1.41.25-.19.73-.37,1.47-.57,2.2a1.5,1.5,0,0,0,2.89.8c.26-.94.49-1.89.74-2.83a17.8,17.8,0,0,0,3.81-.51,1.49,1.49,0,0,0,1.05-1,4.83,4.83,0,0,0-1.42-4.75A4.43,4.43,0,0,0,423.94,334.34Zm-.73,3a1.5,1.5,0,0,1,.89,1c-.39.07-.79.12-1.19.16C423,338.09,423.12,337.71,423.21,337.32Z" style="fill:#5f6868"/><path d="M453.09,336.8c1.93.12,1.92-2.88,0-3-.87-.05-1.91-.11-3-.13.12-.5.22-1,.32-1.52.33-1.89-2.56-2.7-2.9-.8-.14.81-.33,1.63-.54,2.44a9.65,9.65,0,0,0-5,1.62c-1.57,1.25-2.17,4.57-.86,6.22a3.22,3.22,0,0,0,2.63,1.07c-.75,1.74-1.55,3.46-2.33,5.17a13.36,13.36,0,0,1-3.16-1.33,1.5,1.5,0,0,0-1.51,2.59,13.82,13.82,0,0,0,3.49,1.34c-.5,1.13-1,2.24-1.44,3.34-.73,1.78,2.17,2.56,2.89.79.49-1.18,1-2.39,1.56-3.6,5.08.49,10.61-.9,10.9-6.33.17-3.27-2.56-4.87-5.48-5.15h-.41c.36-1,.7-1.93,1-2.9C450.65,336.62,452,336.74,453.09,336.8Zm-9.67,2.73a3,3,0,0,1,1.39-2.12A6.09,6.09,0,0,1,446,337c-.29.85-.61,1.7-.94,2.55Zm6.5,3.25c3.63,2-.63,4.36-1.77,4.8a10.67,10.67,0,0,1-3.34.67h-.29c.88-1.93,1.77-3.87,2.59-5.84A5.06,5.06,0,0,1,449.92,342.78Z" style="fill:#5f6868"/><path d="M206,386.14c-.45.44-.89.91-1.33,1.36-.18-.1-.35-.21-.55-.3-2.77-1.14-6.66-.44-8.28,2.28-1.3,2.18,0,4.38,1.31,6.23-1.06,1.25-2.09,2.52-3.11,3.81a9.65,9.65,0,0,1-1.28-2c-.84-1.73-3.43-.21-2.59,1.52a11.11,11.11,0,0,0,2,2.85l-.29.37c-1.16,1.54,1.44,3,2.59,1.51l0-.05a7.42,7.42,0,0,0,3.29,1c2.41.12,5-1.48,5.28-4.05.17-1.85-.92-3.43-2.08-4.91q1.75-2,3.59-3.92a6.59,6.59,0,0,1,.32,2.12,1.5,1.5,0,0,0,3,0,8.56,8.56,0,0,0-1.09-4.4c.44-.44.87-.9,1.31-1.33C209.48,386.9,207.36,384.78,206,386.14ZM198.41,391c.35-1,2.14-1.37,3.06-1.34a4.35,4.35,0,0,1,.93.13c-1.11,1.18-2.19,2.38-3.26,3.59A2.7,2.7,0,0,1,198.41,391Zm.31,10.69a3.28,3.28,0,0,1-2.4-.28c.87-1.1,1.76-2.2,2.67-3.28C200,399.46,200.76,401.1,198.72,401.69Z" style="fill:#5f6868"/><path d="M179.94,379.7c-.08.13-.18.24-.26.37-2-2.21-5.41-2.7-7.09,1.16-.91,2.07.28,4.06,1.32,5.88-.88,1-1.78,2.09-2.72,3.13a10.37,10.37,0,0,1-.75-1.78,1.5,1.5,0,0,0-2.89.8,10.48,10.48,0,0,0,1.53,3.05c-.3.25-.6.49-.91.71-1.57,1.11-.07,3.71,1.51,2.59a16.09,16.09,0,0,0,1.39-1.11c2,1.64,4.3,2.23,6.08-.34a6.55,6.55,0,0,0,.68-5.92c-.09-.24-.2-.46-.31-.69.54-.61,1.07-1.22,1.6-1.85.81.53,2,.4,2.15-.79a5.83,5.83,0,0,0-.05-1.82c.45-.61.9-1.23,1.31-1.87C183.57,379.58,181,378.08,179.94,379.7Zm-6.08,13.1a1.35,1.35,0,0,1-.8-.23c.73-.77,1.42-1.57,2.11-2.36C175.42,391.46,175.3,392.74,173.86,392.8Zm2.07-8.2c-.59-1.17-1.15-2.41.55-2.75a1.46,1.46,0,0,1,1.51.52c-.64.81-1.31,1.6-2,2.37Z" style="fill:#5f6868"/></svg>