<svg id="Layer_1" data-name="Layer 1" xmlns="http://www.w3.org/2000/svg" viewBox="0 0 288 288"><defs><style>.cls-1{fill:#ffe784;}.cls-2{fill:#f26337;}.cls-3{fill:#fab280;}.cls-4{fill:#fbb03b;}.cls-5{fill:#facc4b;}.cls-6{fill:#169246;}.cls-7{fill:#f7eed8;}.cls-8{fill:#f79756;}</style></defs><title>peaches</title><rect class="cls-1" width="288" height="288"/><path class="cls-2" d="M30.46,32.31l.61,0,.61,0,2.56-7.73,2.55,7.73.61,0,.6,0,3-9.9A4.18,4.18,0,0,1,41.74,21a2.2,2.2,0,0,1,.84-.67V20c-.35,0-.79,0-1.33,0s-1.37,0-2.15,0v.34a1.79,1.79,0,0,1,1.11.37,1.41,1.41,0,0,1,.38,1.09,7.74,7.74,0,0,1-.4,2l-1.65,5.23-2.37-7.24A2.6,2.6,0,0,1,36,21a.49.49,0,0,1,.28-.49,2.33,2.33,0,0,1,.9-.15V20c-.53,0-1.36,0-2.5,0s-1.83,0-2.47,0v.34a1,1,0,0,1,.54.24,1.55,1.55,0,0,1,.41.7L34,24l-1.75,5.17-2.53-7.33A3,3,0,0,1,29.6,21a.63.63,0,0,1,.6-.68V20c-.45,0-1.16,0-2.13,0s-1.89,0-2.58,0v.34a1,1,0,0,1,.59.28,2.07,2.07,0,0,1,.5.83Z"/><path class="cls-2" d="M51.33,30.67V26a5.85,5.85,0,0,0-.13-1.39,2,2,0,0,0-.42-.86,2.36,2.36,0,0,0-1.91-.68,2.85,2.85,0,0,0-2.82,1.62v-6a11.31,11.31,0,0,1-2.53.25,10,10,0,0,1-1.08-.06v.37a1,1,0,0,1,.86.36,2.06,2.06,0,0,1,.25,1.16v9.87a1.4,1.4,0,0,1-.25,1,1.14,1.14,0,0,1-.86.27v.37c1.2-.05,2-.07,2.39-.07s1,0,2.15.07v-.37a.88.88,0,0,1-.73-.27,1.63,1.63,0,0,1-.2-1V25.83a2.07,2.07,0,0,1,.49-1.43,1.55,1.55,0,0,1,1.22-.56.91.91,0,0,1,.84.36,2,2,0,0,1,.24,1.07v5.4a1.61,1.61,0,0,1-.21,1,.87.87,0,0,1-.73.27v.37c1.11-.05,1.86-.07,2.25-.07s1.09,0,2.29.07v-.37a1.12,1.12,0,0,1-.86-.27A1.4,1.4,0,0,1,51.33,30.67Z"/><path class="cls-2" d="M57.9,31a1.48,1.48,0,0,0,.4,1,1.87,1.87,0,0,0,1.33.38,2.94,2.94,0,0,0,1.91-.64l-.17-.3a1.06,1.06,0,0,1-.63.3.29.29,0,0,1-.3-.18,1.58,1.58,0,0,1-.08-.59V26.28a6.69,6.69,0,0,0-.13-1.51,1.78,1.78,0,0,0-.51-.93,2.24,2.24,0,0,0-1-.59,5.32,5.32,0,0,0-1.47-.18,7,7,0,0,0-1.5.16,4,4,0,0,0-1.15.43,2.19,2.19,0,0,0-.72.64,1.37,1.37,0,0,0-.24.82,1.39,1.39,0,0,0,.33.95,1.15,1.15,0,0,0,.94.38,1.44,1.44,0,0,0,1-.34,1.21,1.21,0,0,0,.4-.94,1.28,1.28,0,0,0-.27-.81,1.59,1.59,0,0,0-.75-.52,1.73,1.73,0,0,1,1.26-.42,1.31,1.31,0,0,1,1.05.41A1.75,1.75,0,0,1,57.87,25v1.35a.82.82,0,0,1-.45.74,7.3,7.3,0,0,1-1.39.6,14.18,14.18,0,0,0-1.48.59,2.71,2.71,0,0,0-1,.79,2,2,0,0,0-.41,1.29,2.08,2.08,0,0,0,.55,1.51,2.17,2.17,0,0,0,1.65.57A2.81,2.81,0,0,0,57.9,31ZM56,28.65a4.41,4.41,0,0,1,1-.86,2.75,2.75,0,0,0,.89-.76v3.55a1.45,1.45,0,0,1-1.18.71,1,1,0,0,1-.78-.34,1.53,1.53,0,0,1-.3-1.05A2,2,0,0,1,56,28.65Z"/><path class="cls-2" d="M67.8,30.73l-.3-.15c-.28.69-.68,1-1.17,1a.69.69,0,0,1-.58-.22,1.08,1.08,0,0,1-.19-.73v-7h2v-.34h-2V20.47a5.26,5.26,0,0,1-2.49.56v2.29H61.61v.34h1.46v5.86A6.54,6.54,0,0,0,63.2,31a1.84,1.84,0,0,0,.49.91,2.35,2.35,0,0,0,1.73.59A2.39,2.39,0,0,0,67.8,30.73Z"/><path class="cls-2" d="M76.41,32.28v-.37a1,1,0,0,1-.81-.27,1.53,1.53,0,0,1-.23-1v-3a1.5,1.5,0,0,1,.49.14,1,1,0,0,1,.36.4l1.72,3.1a.64.64,0,0,1,.08.26.28.28,0,0,1-.13.25.82.82,0,0,1-.38.08v.37c1.1-.05,1.85-.07,2.23-.07s.9,0,1.82.07v-.37a1,1,0,0,1-.45-.28c-.11-.14-.26-.34-.45-.62l-2.91-4.87L78.86,25A4.72,4.72,0,0,1,81,23.66v-.34c-.39,0-1.07.05-2,.05-.72,0-1.4,0-2-.05v.34a2.14,2.14,0,0,1,1,.27.73.73,0,0,1,.36.63,1.58,1.58,0,0,1-.57,1.06L76.41,26.9a1.16,1.16,0,0,1-.44.32,2,2,0,0,1-.6.13V18.71a11.24,11.24,0,0,1-2.53.24c-.34,0-.7,0-1.07-.05v.36a1,1,0,0,1,.86.36,2.19,2.19,0,0,1,.25,1.17v9.88a1.45,1.45,0,0,1-.25,1,1.15,1.15,0,0,1-.86.27v.37c1.2-.05,2-.07,2.39-.07S75.26,32.23,76.41,32.28Z"/><path class="cls-2" d="M85.6,30.67V23.13a11,11,0,0,1-2.53.24c-.35,0-.71,0-1.07-.05v.36a1,1,0,0,1,.86.36,2.2,2.2,0,0,1,.24,1.17v5.46a1.46,1.46,0,0,1-.24,1,1.12,1.12,0,0,1-.86.27v.37c1.24-.05,2-.07,2.4-.07s1.15,0,2.31.07v-.37a1.14,1.14,0,0,1-.86-.27A1.4,1.4,0,0,1,85.6,30.67Z"/><path class="cls-2" d="M84.25,21.51a1.72,1.72,0,0,0,1.15-.35,1.24,1.24,0,0,0,.43-1,1.22,1.22,0,0,0-.43-1,1.72,1.72,0,0,0-1.15-.36,1.7,1.7,0,0,0-1.15.36,1.19,1.19,0,0,0-.43,1,1.21,1.21,0,0,0,.43,1A1.7,1.7,0,0,0,84.25,21.51Z"/><path class="cls-2" d="M92,32.28v-.37a.87.87,0,0,1-.73-.27,1.61,1.61,0,0,1-.21-1V25.85a2.11,2.11,0,0,1,.5-1.43,1.55,1.55,0,0,1,1.22-.58.93.93,0,0,1,.84.36,2,2,0,0,1,.23,1.07v5.4a1.61,1.61,0,0,1-.21,1,.87.87,0,0,1-.73.27v.37c1.16-.05,1.91-.07,2.26-.07s1.13,0,2.29.07v-.37a1.12,1.12,0,0,1-.86-.27,1.4,1.4,0,0,1-.25-1V26a6.49,6.49,0,0,0-.12-1.4,1.94,1.94,0,0,0-.42-.85,2.41,2.41,0,0,0-1.91-.68,2.87,2.87,0,0,0-2.84,1.62V23.13a11,11,0,0,1-2.53.24c-.35,0-.71,0-1.08-.05v.36a1,1,0,0,1,.87.36,2.2,2.2,0,0,1,.24,1.17v5.46a1.46,1.46,0,0,1-.24,1,1.13,1.13,0,0,1-.87.27v.37c1.25-.05,2-.07,2.4-.07S90.93,32.23,92,32.28Z"/><path class="cls-2" d="M106.66,32.21c.36,0,.72,0,1.07,0V31.9a1,1,0,0,1-.86-.37,2.16,2.16,0,0,1-.24-1.16V18.71a11.4,11.4,0,0,1-2.54.24c-.34,0-.7,0-1.07-.05v.36a1,1,0,0,1,.86.36,2.19,2.19,0,0,1,.25,1.17v2.94a2.61,2.61,0,0,0-1.93-.66,3.83,3.83,0,0,0-2,.53,3.56,3.56,0,0,0-1.37,1.58,6,6,0,0,0-.49,2.57,5.55,5.55,0,0,0,.94,3.58,3.19,3.19,0,0,0,2.6,1.19A2.22,2.22,0,0,0,104.13,31v1.49A11,11,0,0,1,106.66,32.21Zm-3.06-.85a1.42,1.42,0,0,1-1,.41,1.34,1.34,0,0,1-1.23-.93,7.93,7.93,0,0,1-.4-3.05,7.66,7.66,0,0,1,.48-3.16,1.56,1.56,0,0,1,1.42-1.05,1.46,1.46,0,0,1,1.27.59v6.06A1.82,1.82,0,0,1,103.6,31.36Z"/><path class="cls-2" d="M120.09,31.39a4.89,4.89,0,0,0,1.13-3.58,5,5,0,0,0-1.13-3.6,4.83,4.83,0,0,0-6.23,0,4.9,4.9,0,0,0-1.13,3.6,4.85,4.85,0,0,0,1.13,3.58,4.86,4.86,0,0,0,6.23,0Zm-4.3-.29a9.06,9.06,0,0,1-.45-3.29,9.18,9.18,0,0,1,.45-3.31c.29-.72.69-1.08,1.18-1.08s.89.36,1.19,1.07a9.4,9.4,0,0,1,.44,3.32,9.32,9.32,0,0,1-.43,3.3c-.29.71-.69,1.06-1.2,1.06S116.08,31.82,115.79,31.1Z"/><path class="cls-2" d="M123.4,30.67a1.46,1.46,0,0,1-.24,1,1.13,1.13,0,0,1-.87.27v.37c1.16-.05,1.91-.07,2.26-.07l2.49,0,.49,0v-.37a2,2,0,0,1-1.22-.31,1.3,1.3,0,0,1-.41-1.11V23.68h1.85v-.35H125.9V21.76a11.28,11.28,0,0,1,.07-1.51,1.54,1.54,0,0,1,.26-.76,1,1,0,0,1,.93-.46,1.16,1.16,0,0,1,.41.07.46.46,0,0,1,.22.18,1.38,1.38,0,0,0-.77.48,1.31,1.31,0,0,0-.25.8,1.16,1.16,0,0,0,.36.9,1.36,1.36,0,0,0,1,.33,1.21,1.21,0,0,0,.89-.35,1.18,1.18,0,0,0,.34-.85,1.71,1.71,0,0,0-.16-.75,1.57,1.57,0,0,0-.43-.55,3,3,0,0,0-1.85-.57,3.6,3.6,0,0,0-1.35.25,2.81,2.81,0,0,0-1,.62,3.1,3.1,0,0,0-.85,1.41,8.32,8.32,0,0,0-.25,2.33h-1.18v.35h1.18Z"/><path class="cls-2" d="M140.26,23.56a2.78,2.78,0,0,0-1.6-.49,3,3,0,0,0-1.63.43A2.64,2.64,0,0,0,136,24.72V23.13a11.31,11.31,0,0,1-2.53.24c-.35,0-.71,0-1.08-.05v.36a1,1,0,0,1,.86.36,2.1,2.1,0,0,1,.25,1.17v8.66a1.43,1.43,0,0,1-.23.93,1.08,1.08,0,0,1-.81.25v.36l2.19-.06c.34,0,1.16,0,2.44,0h.47v-.36a2,2,0,0,1-1.18-.29A1.29,1.29,0,0,1,136,33.7V32a2.2,2.2,0,0,0,.79.41,3.41,3.41,0,0,0,1,.14,3.57,3.57,0,0,0,2.93-1.33,5.81,5.81,0,0,0,1.09-3.8,6.2,6.2,0,0,0-.4-2.38A3.19,3.19,0,0,0,140.26,23.56ZM138.66,31a1.65,1.65,0,0,1-1.6,1.1,1.37,1.37,0,0,1-1.09-.47V25.33a2,2,0,0,1,.61-1.11,1.55,1.55,0,0,1,1-.4c.49,0,.86.3,1.12.9a8.31,8.31,0,0,1,.39,3A8.33,8.33,0,0,1,138.66,31Z"/><path class="cls-2" d="M150.56,26.92c0-2.56-1.08-3.85-3.26-3.85a4,4,0,0,0-3.08,1.24,5.07,5.07,0,0,0-1.16,3.58,4.93,4.93,0,0,0,1.08,3.46,3.79,3.79,0,0,0,2.92,1.17,3.24,3.24,0,0,0,2.23-.79,4.13,4.13,0,0,0,1.24-1.91l-.31-.11a2.6,2.6,0,0,1-2.29,1.39,1.94,1.94,0,0,1-1.1-.35,2.39,2.39,0,0,1-.83-1.11,4.8,4.8,0,0,1-.32-1.9c0-.37,0-.65,0-.82Zm-4.9-.33a6.22,6.22,0,0,1,.51-2.38,1.18,1.18,0,0,1,1-.77c.41,0,.71.3.91.89a6.76,6.76,0,0,1,.27,2.26Z"/><path class="cls-2" d="M159.25,31.76a.32.32,0,0,1-.31-.18,1.63,1.63,0,0,1-.07-.59V26.28a7.34,7.34,0,0,0-.13-1.51,1.93,1.93,0,0,0-.51-.93,2.29,2.29,0,0,0-1-.59,5.4,5.4,0,0,0-1.48-.18,7,7,0,0,0-1.5.16,4.06,4.06,0,0,0-1.15.43,2.41,2.41,0,0,0-.72.64,1.37,1.37,0,0,0-.23.82,1.39,1.39,0,0,0,.33.95,1.14,1.14,0,0,0,.93.38,1.42,1.42,0,0,0,1-.34,1.18,1.18,0,0,0,.4-.94,1.28,1.28,0,0,0-.27-.81,1.59,1.59,0,0,0-.75-.52,1.74,1.74,0,0,1,1.26-.42,1.28,1.28,0,0,1,1.05.41,1.69,1.69,0,0,1,.34,1.13v1.35a.83.83,0,0,1-.44.74,7.77,7.77,0,0,1-1.4.6,14.18,14.18,0,0,0-1.48.59,2.71,2.71,0,0,0-1,.79,2,2,0,0,0-.4,1.29,2.12,2.12,0,0,0,.54,1.51,2.21,2.21,0,0,0,1.66.57A2.81,2.81,0,0,0,156.41,31a1.47,1.47,0,0,0,.39,1,1.9,1.9,0,0,0,1.34.38,2.93,2.93,0,0,0,1.9-.64l-.17-.3A1.06,1.06,0,0,1,159.25,31.76Zm-2.88-1.18a1.44,1.44,0,0,1-1.18.71,1,1,0,0,1-.78-.34,1.59,1.59,0,0,1-.29-1.05,2,2,0,0,1,.34-1.25,4.48,4.48,0,0,1,1-.86,2.69,2.69,0,0,0,.88-.76Z"/><path class="cls-2" d="M166.86,30.77a2.48,2.48,0,0,1-1.18.31,2,2,0,0,1-1.65-.81,4.29,4.29,0,0,1-.66-2.67,6.59,6.59,0,0,1,.58-3,1.74,1.74,0,0,1,2.24-1,.93.93,0,0,1,.42.31,1.6,1.6,0,0,0-.81.52,1.32,1.32,0,0,0-.33.9,1.23,1.23,0,0,0,.36.93,1.37,1.37,0,0,0,1,.35,1.31,1.31,0,0,0,1-.39,1.34,1.34,0,0,0,.38-1,1.74,1.74,0,0,0-.25-.92,2,2,0,0,0-.7-.71,3.09,3.09,0,0,0-.95-.38,5.3,5.3,0,0,0-1.22-.14,4.51,4.51,0,0,0-2.22.55,3.79,3.79,0,0,0-1.52,1.62,5.61,5.61,0,0,0-.55,2.6,4.87,4.87,0,0,0,1.12,3.5,3.83,3.83,0,0,0,2.91,1.18,3.15,3.15,0,0,0,2.24-.81,4.26,4.26,0,0,0,1.21-1.93l-.29-.1A2.91,2.91,0,0,1,166.86,30.77Z"/><path class="cls-2" d="M178.19,31.64a1.46,1.46,0,0,1-.24-1V26a5.85,5.85,0,0,0-.13-1.39,2,2,0,0,0-.43-.86,2.33,2.33,0,0,0-1.9-.68,2.86,2.86,0,0,0-2.83,1.62v-6a11.18,11.18,0,0,1-2.53.25,10,10,0,0,1-1.07-.06v.37a1,1,0,0,1,.86.36,2.15,2.15,0,0,1,.25,1.16v9.87a1.45,1.45,0,0,1-.25,1,1.15,1.15,0,0,1-.86.27v.37c1.2-.05,2-.07,2.39-.07s1,0,2.15.07v-.37a.87.87,0,0,1-.73-.27,1.61,1.61,0,0,1-.21-1V25.83a2.08,2.08,0,0,1,.5-1.43,1.53,1.53,0,0,1,1.22-.56.93.93,0,0,1,.84.36,2,2,0,0,1,.23,1.07v5.4a1.71,1.71,0,0,1-.2,1,.88.88,0,0,1-.73.27v.37c1.11-.05,1.86-.07,2.25-.07s1.09,0,2.29.07v-.37A1.13,1.13,0,0,1,178.19,31.64Z"/><path class="cls-2" d="M33.79,52.56a.29.29,0,0,1-.3-.18,1.58,1.58,0,0,1-.08-.59V47.08a6.69,6.69,0,0,0-.13-1.51,1.93,1.93,0,0,0-.51-.93,2.29,2.29,0,0,0-1-.59,5.38,5.38,0,0,0-1.47-.18,6.9,6.9,0,0,0-1.5.16,4.13,4.13,0,0,0-1.16.43,2.41,2.41,0,0,0-.72.64,1.44,1.44,0,0,0-.23.82,1.39,1.39,0,0,0,.33.95,1.15,1.15,0,0,0,.94.38,1.44,1.44,0,0,0,1-.34,1.2,1.2,0,0,0,.39-.94,1.33,1.33,0,0,0-.26-.81,1.62,1.62,0,0,0-.76-.52,1.75,1.75,0,0,1,1.27-.42,1.31,1.31,0,0,1,1,.41,1.75,1.75,0,0,1,.33,1.13v1.35a.81.81,0,0,1-.44.74,7.61,7.61,0,0,1-1.39.6,14.46,14.46,0,0,0-1.49.59,2.76,2.76,0,0,0-1,.79,2,2,0,0,0-.41,1.29,2.08,2.08,0,0,0,.55,1.51,2.17,2.17,0,0,0,1.65.57A2.81,2.81,0,0,0,31,51.79a1.43,1.43,0,0,0,.4,1,1.87,1.87,0,0,0,1.33.38,2.9,2.9,0,0,0,1.91-.64l-.17-.3A1.08,1.08,0,0,1,33.79,52.56Zm-2.88-1.18a1.43,1.43,0,0,1-1.18.71,1,1,0,0,1-.78-.34,1.59,1.59,0,0,1-.29-1A1.93,1.93,0,0,1,29,49.46a4.19,4.19,0,0,1,1-.87,2.69,2.69,0,0,0,.88-.76Z"/><path class="cls-2" d="M41.05,43.87a2.35,2.35,0,0,0-1.4.46,2.92,2.92,0,0,0-.95,1.21V43.93a11.06,11.06,0,0,1-2.53.24c-.35,0-.71,0-1.08-.05v.36a1,1,0,0,1,.87.36A2.2,2.2,0,0,1,36.2,46v5.46a1.46,1.46,0,0,1-.24,1,1.13,1.13,0,0,1-.87.27v.37l.35,0L37.57,53l2.36.05.4,0v-.37a2,2,0,0,1-1.24-.31,1.36,1.36,0,0,1-.39-1.11V46.7a2.5,2.5,0,0,1,.46-1.42,1.64,1.64,0,0,1,1.11-.8,1.09,1.09,0,0,1,.28,0h.21A1.58,1.58,0,0,0,40,45.82a1,1,0,0,0,.34.8,1.4,1.4,0,0,0,.94.3,1.27,1.27,0,0,0,1-.4,1.48,1.48,0,0,0,.37-1.05,1.66,1.66,0,0,0-.4-1.13A1.46,1.46,0,0,0,41.05,43.87Z"/><path class="cls-2" d="M50.67,47.72c0-2.56-1.08-3.85-3.25-3.85a4,4,0,0,0-3.09,1.24,5.07,5.07,0,0,0-1.16,3.58,4.93,4.93,0,0,0,1.08,3.46,3.79,3.79,0,0,0,2.92,1.17,3.24,3.24,0,0,0,2.23-.79,4.05,4.05,0,0,0,1.24-1.91l-.31-.11A2.6,2.6,0,0,1,48,51.9a1.94,1.94,0,0,1-1.1-.35,2.39,2.39,0,0,1-.83-1.11,4.8,4.8,0,0,1-.32-1.9c0-.37,0-.65,0-.82Zm-4.9-.33A6.22,6.22,0,0,1,46.28,45a1.17,1.17,0,0,1,1-.77c.41,0,.71.3.91.89a6.76,6.76,0,0,1,.27,2.26Z"/><path class="cls-2" d="M60.67,44.12v.34A1.26,1.26,0,0,1,62,45.85a4.66,4.66,0,0,1-.28,1.39l-1.2,3.32-2.11-5.11a1.38,1.38,0,0,1-.12-.48.37.37,0,0,1,.27-.41,3.24,3.24,0,0,1,.82-.08v-.36c-.92.07-1.73.1-2.41.1s-1.61,0-2.37-.1v.36a.86.86,0,0,1,.53.19,2,2,0,0,1,.54.78l3.67,8.36-.27.83c-.34.91-.86,1.37-1.58,1.37l-.4,0a1.35,1.35,0,0,0,.64-.46,1.09,1.09,0,0,0,.23-.67,1,1,0,0,0-.36-.8,1.45,1.45,0,0,0-.94-.29,1.55,1.55,0,0,0-1,.32,1.09,1.09,0,0,0-.38.86,1.15,1.15,0,0,0,.58,1,2.46,2.46,0,0,0,1.31.36,2.27,2.27,0,0,0,1.51-.44,2.86,2.86,0,0,0,.76-1.23L62.5,46A3.61,3.61,0,0,1,63,44.9a1.38,1.38,0,0,1,.65-.44v-.34c-.31,0-.76.05-1.33.05S61.22,44.15,60.67,44.12Z"/><path class="cls-2" d="M68.42,43.87A4.21,4.21,0,0,0,65.31,45a4.9,4.9,0,0,0-1.13,3.6,4.85,4.85,0,0,0,1.13,3.58,4.86,4.86,0,0,0,6.23,0,4.89,4.89,0,0,0,1.13-3.58A5,5,0,0,0,71.54,45,4.18,4.18,0,0,0,68.42,43.87Zm1.2,8c-.29.71-.69,1.06-1.2,1.06s-.89-.35-1.18-1.07a9.06,9.06,0,0,1-.45-3.29,9.18,9.18,0,0,1,.45-3.31c.29-.72.69-1.08,1.18-1.08s.9.36,1.19,1.07a9.18,9.18,0,0,1,.44,3.32A9.32,9.32,0,0,1,69.62,51.91Z"/><path class="cls-2" d="M82.38,51.19V43.93a11.37,11.37,0,0,1-2.53.24c-.35,0-.71,0-1.08-.05v.36a1,1,0,0,1,.86.36A2.1,2.1,0,0,1,79.88,46v4.54A2.14,2.14,0,0,1,79.39,52a1.54,1.54,0,0,1-1.19.58.85.85,0,0,1-.82-.37,2.09,2.09,0,0,1-.22-1.09V43.93a11.31,11.31,0,0,1-2.53.24c-.36,0-.72,0-1.08-.05v.36a1,1,0,0,1,.86.36A2.1,2.1,0,0,1,74.66,46v4.38a6.53,6.53,0,0,0,.13,1.4,2,2,0,0,0,.41.85,2.35,2.35,0,0,0,1.89.68,2.85,2.85,0,0,0,2.79-1.61v1.56A11.31,11.31,0,0,1,82.41,53a9.76,9.76,0,0,1,1.08,0v-.37a1,1,0,0,1-.86-.36A2.06,2.06,0,0,1,82.38,51.19Z"/><path class="cls-2" d="M92.36,52.42a.69.69,0,0,1-.58-.22,1.15,1.15,0,0,1-.18-.73v-7h2v-.34h-2V41.27a5.33,5.33,0,0,1-2.5.56v2.29H87.64v.34H89.1v5.86a6.54,6.54,0,0,0,.13,1.5,1.92,1.92,0,0,0,.49.91,2.59,2.59,0,0,0,4.11-1.2l-.29-.15C93.25,52.07,92.86,52.42,92.36,52.42Z"/><path class="cls-2" d="M98.58,43.87A4.19,4.19,0,0,0,95.47,45a4.91,4.91,0,0,0-1.14,3.6,4.85,4.85,0,0,0,1.14,3.58,4.86,4.86,0,0,0,6.23,0,4.89,4.89,0,0,0,1.13-3.58A5,5,0,0,0,101.7,45,4.18,4.18,0,0,0,98.58,43.87Zm1.2,8c-.29.71-.69,1.06-1.2,1.06s-.89-.35-1.19-1.07A9.33,9.33,0,0,1,97,48.61a9.46,9.46,0,0,1,.44-3.31c.3-.72.69-1.08,1.19-1.08s.89.36,1.19,1.07a9.4,9.4,0,0,1,.44,3.32A9.32,9.32,0,0,1,99.78,51.91Z"/><path class="cls-2" d="M112.43,51.17V39.51a11.24,11.24,0,0,1-2.53.24c-.35,0-.7,0-1.07,0v.36a1,1,0,0,1,.85.36,2.09,2.09,0,0,1,.26,1.17v2.94a2.63,2.63,0,0,0-1.93-.66,3.81,3.81,0,0,0-2,.53A3.56,3.56,0,0,0,104.64,46a6,6,0,0,0-.49,2.57,5.49,5.49,0,0,0,.94,3.58,3.17,3.17,0,0,0,2.59,1.19,2.23,2.23,0,0,0,2.26-1.56v1.49a10.94,10.94,0,0,1,2.53-.24c.35,0,.71,0,1.07.05V52.7a1,1,0,0,1-.87-.37A2.16,2.16,0,0,1,112.43,51.17ZM109.94,51a1.82,1.82,0,0,1-.53,1.13,1.44,1.44,0,0,1-1,.41,1.33,1.33,0,0,1-1.22-.93,7.89,7.89,0,0,1-.41-3,7.47,7.47,0,0,1,.49-3.16,1.55,1.55,0,0,1,1.42-1,1.46,1.46,0,0,1,1.27.59Z"/><path class="cls-2" d="M122,52.56a.32.32,0,0,1-.31-.18,1.63,1.63,0,0,1-.07-.59V47.08a7.34,7.34,0,0,0-.13-1.51,1.87,1.87,0,0,0-.52-.93,2.19,2.19,0,0,0-1-.59,5.27,5.27,0,0,0-1.47-.18,7,7,0,0,0-1.5.16,4.06,4.06,0,0,0-1.15.43,2.41,2.41,0,0,0-.72.64,1.37,1.37,0,0,0-.23.82,1.39,1.39,0,0,0,.33.95,1.13,1.13,0,0,0,.93.38,1.42,1.42,0,0,0,1-.34,1.18,1.18,0,0,0,.4-.94,1.28,1.28,0,0,0-.27-.81,1.59,1.59,0,0,0-.75-.52,1.74,1.74,0,0,1,1.26-.42,1.28,1.28,0,0,1,1,.41,1.69,1.69,0,0,1,.34,1.13v1.35a.83.83,0,0,1-.44.74,7.77,7.77,0,0,1-1.4.6,14.18,14.18,0,0,0-1.48.59,2.71,2.71,0,0,0-1,.79,2,2,0,0,0-.4,1.29,2.12,2.12,0,0,0,.54,1.51,2.21,2.21,0,0,0,1.66.57,2.79,2.79,0,0,0,2.54-1.41,1.52,1.52,0,0,0,.4,1,1.9,1.9,0,0,0,1.34.38,2.92,2.92,0,0,0,1.91-.64l-.18-.3A1.06,1.06,0,0,1,122,52.56Zm-2.88-1.18a1.45,1.45,0,0,1-1.18.71,1,1,0,0,1-.78-.34,1.53,1.53,0,0,1-.29-1,1.93,1.93,0,0,1,.34-1.24,4.26,4.26,0,0,1,1-.87,2.69,2.69,0,0,0,.88-.76Z"/><path class="cls-2" d="M128.55,44.12v.34a1.25,1.25,0,0,1,1.28,1.39,4.61,4.61,0,0,1-.27,1.39l-1.2,3.32-2.11-5.11a1.23,1.23,0,0,1-.13-.48.37.37,0,0,1,.27-.41,3.33,3.33,0,0,1,.83-.08v-.36c-.93.07-1.73.1-2.41.1s-1.61,0-2.38-.1v.36a.87.87,0,0,1,.54.19,2.23,2.23,0,0,1,.54.78l3.67,8.36-.28.83c-.33.91-.86,1.37-1.57,1.37l-.4,0a1.35,1.35,0,0,0,.64-.46,1.08,1.08,0,0,0,.22-.67,1,1,0,0,0-.35-.8,1.47,1.47,0,0,0-.94-.29,1.53,1.53,0,0,0-1,.32,1.09,1.09,0,0,0-.38.86,1.13,1.13,0,0,0,.58,1,2.43,2.43,0,0,0,1.31.36,2.27,2.27,0,0,0,1.51-.44,3,3,0,0,0,.76-1.23l3.1-8.72a3.59,3.59,0,0,1,.55-1.05,1.33,1.33,0,0,1,.65-.44v-.34c-.31,0-.76.05-1.34.05S129.09,44.15,128.55,44.12Z"/><path class="cls-2" d="M135.36,50.65a1.52,1.52,0,0,0-1.07.36,1.39,1.39,0,0,0,0,2,1.52,1.52,0,0,0,1.07.36,1.57,1.57,0,0,0,1.08-.36,1.39,1.39,0,0,0,0-2A1.57,1.57,0,0,0,135.36,50.65Z"/><path class="cls-2" d="M138.79,40.36a5,5,0,0,0-3-.84,5.08,5.08,0,0,0-2.6.61,2.6,2.6,0,0,0-.73.65,1.44,1.44,0,0,0-.26.86,1.17,1.17,0,0,0,.35.85,1.18,1.18,0,0,0,.88.34,1.41,1.41,0,0,0,1-.35,1.19,1.19,0,0,0,.38-.89,1.23,1.23,0,0,0-1-1.27,1.31,1.31,0,0,1,.62-.34,3.56,3.56,0,0,1,.89-.11,1.84,1.84,0,0,1,1.56.76,4.73,4.73,0,0,1,.1,4.31,3.7,3.7,0,0,1-1.82,1.39V49h.35V46.49a7.49,7.49,0,0,0,3.23-1.44,3,3,0,0,0,1.19-2.41A2.67,2.67,0,0,0,138.79,40.36Z"/><path class="cls-3" d="M130.43,188.39c-8,3.2-27.18,14.64-18.81,39.72,12.15,36.47,58.53,31.36,69,0,3.56-10.68,2.09-35.54-16.73-43.9C148.48,177.36,140.88,184.21,130.43,188.39Z"/><path class="cls-2" d="M154.69,185.85c-6.95.87-10.11,3.17-13,6-1.85-2.16-6.68-6.27-7.56-7.14-3.15-3.11-4.23,3.74-3.7,6.23.49,2.3,3.27,5.11,4.84,6.68-3.93,2-10.74,2.15-13.22,1.56a.6.6,0,0,0-.71.44.59.59,0,0,0,.44.71,17.81,17.81,0,0,0,3.78.32c3.89,0,9.23-.75,11.95-3.11,1.36-1.17,2.46-2.29,3.53-3.37,3.38-3.44,6.06-6.15,13.79-7.12a.59.59,0,0,0,.52-.66A.6.6,0,0,0,154.69,185.85Z"/><circle class="cls-2" cx="132.03" cy="217.17" r="4.18"/><circle class="cls-2" cx="160.75" cy="216.61" r="4.18"/><path class="cls-1" d="M160.75,203c-4.05,0-7.32,6.08-7.32,13.58h14.63C168.06,209.11,164.79,203,160.75,203Z"/><path class="cls-1" d="M132,203.58c-4,0-7.32,6.08-7.32,13.59h14.64C139.35,209.66,136.07,203.58,132,203.58Z"/><path class="cls-2" d="M177,209.09a.61.61,0,0,0-.76-.35l-8,3c-.12-.61-.26-1.2-.43-1.77l5.93-5.49a.58.58,0,0,0,0-.83.59.59,0,0,0-.83,0l-5.53,5.12c-1.4-3.84-3.81-6.33-6.61-6.33-4.44,0-7.91,6.23-7.91,14.19a.59.59,0,0,0,.59.59h14.63a.59.59,0,0,0,.59-.59c0-.16,0-.31,0-.46h6.74a.59.59,0,0,0,0-1.18H168.6c0-.7-.12-1.38-.21-2l8.24-3.09A.59.59,0,0,0,177,209.09ZM154,216c.16-6.78,3.17-12.4,6.72-12.4s6.55,5.62,6.72,12.4Z"/><path class="cls-2" d="M132,203c-2.86,0-5.31,2.59-6.7,6.56l-5.78-5.36a.59.59,0,1,0-.8.87l6.2,5.74c-.15.52-.27,1.07-.38,1.63l-8.35-3.13a.59.59,0,0,0-.42,1.1l8.37,3.14a.45.45,0,0,0,.2,0h0c-.09.63-.16,1.28-.2,1.95h-7.12a.59.59,0,0,0-.59.59.58.58,0,0,0,.59.59h7.07c0,.16,0,.3,0,.46a.6.6,0,0,0,.59.59h14.64a.6.6,0,0,0,.59-.59C139.94,209.22,136.46,203,132,203Zm-6.72,13.59c.17-6.79,3.18-12.41,6.72-12.41s6.55,5.62,6.72,12.41Z"/><path class="cls-1" d="M153.28,232.69l-13.2-.11s2.63-17,6.74-16.94"/><path class="cls-2" d="M153.28,233.28h0l-13.2-.11a.57.57,0,0,1-.44-.2.64.64,0,0,1-.14-.48c.45-2.91,2.93-17.45,7.32-17.45h0a.6.6,0,0,1,0,1.19h0c-2.41,0-4.92,9-6,15.77l12.51.1a.6.6,0,0,1,.59.6A.59.59,0,0,1,153.28,233.28Z"/><circle class="cls-2" cx="127.22" cy="233.59" r="1.54"/><circle class="cls-2" cx="167.2" cy="232.05" r="1.54"/><path class="cls-2" d="M146.65,236.2c-6.29,0-13,1.76-13,5s6.67,5,13,5,13-1.76,13-5S152.93,236.2,146.65,236.2ZM138.84,244c-2.49-.75-4-1.81-4-2.81s1.76-2.25,4.68-3Zm1.93-6.1a26.4,26.4,0,0,1,2.77-.39v7.36a27.14,27.14,0,0,1-3.54-.56Zm3.95,7.06v-7.54c.63,0,1.26-.06,1.93-.06s1.31,0,1.93.06V245c-.62,0-1.27.06-1.93.06S145.34,245,144.72,245Zm5-.09v-7.36a26.4,26.4,0,0,1,2.77.39l.77,6.41A27.14,27.14,0,0,1,149.76,244.89Zm4.7-.87-.71-5.82c2.92.76,4.68,1.92,4.68,3S157,243.27,154.46,244Z"/><path class="cls-2" d="M126.45,226.08a6.74,6.74,0,1,0,6.74,6.74A6.74,6.74,0,0,0,126.45,226.08Zm0,12.3a5.56,5.56,0,1,1,5.56-5.56A5.56,5.56,0,0,1,126.45,238.38Z"/><path class="cls-2" d="M166.43,224.54a6.75,6.75,0,1,0,6.75,6.74A6.75,6.75,0,0,0,166.43,224.54Zm0,12.3a5.56,5.56,0,1,1,5.56-5.56A5.57,5.57,0,0,1,166.43,236.84Z"/><path class="cls-4" d="M225.76,157.67l.65,1.16a19.53,19.53,0,0,0-3.25-2.46c-6.51-3.91-22.13,1.3-28.29,16.35-9.82,24,8.71,43.66,15.18,45.17,20.92,4.87,39.66,2.85,49.86-20.6C267.47,179.9,253.1,149.86,225.76,157.67Z"/><path class="cls-2" d="M235.18,168.62c.11-2.06,2.77-4,4.68-4.81s5,.26,6.15,1.36c1.9,1.78-5.74,4.56-6.15,6.75"/><path class="cls-2" d="M221.23,183.14l-.14,0a.59.59,0,0,1-.43-.72,7.64,7.64,0,0,0-3.64-8,10,10,0,0,0-9.25-.15.59.59,0,1,1-.51-1.06,11.14,11.14,0,0,1,10.36.19,8.74,8.74,0,0,1,4.18,9.35A.59.59,0,0,1,221.23,183.14Z"/><path class="cls-2" d="M246.59,196a.6.6,0,0,1-.57-.44,5.76,5.76,0,0,1-.12-.81,8.53,8.53,0,0,0-3.54-6.67c-3.74-2.48-7.8-.76-10,.16a.59.59,0,0,1-.47-1.09c2.22-.94,6.82-2.89,11.09,0a9.57,9.57,0,0,1,4.06,7.52,4.43,4.43,0,0,0,.09.63.58.58,0,0,1-.42.72Z"/><path class="cls-5" d="M226.41,186.71s1.75,18-1.34,19.38-12.83-9.3-12.17-12.62"/><path class="cls-2" d="M224.44,206.8c-1.11,0-2.57-.71-4.35-2.12-3.53-2.8-8.31-8.6-7.77-11.32a.59.59,0,0,1,1.16.22c-.36,1.79,3.49,7.12,7.35,10.18,2.13,1.69,3.46,2,4,1.79,1.86-.84,1.7-11.49,1-18.78a.59.59,0,0,1,1.18-.11c.3,3.07,1.62,18.47-1.68,20A2.3,2.3,0,0,1,224.44,206.8Z"/><path class="cls-2" d="M224.44,206.8c-1.11,0-2.57-.71-4.35-2.12-3.53-2.8-8.31-8.6-7.77-11.32.28-1.44,4.4-3.27,6.16-4a.58.58,0,0,1,.75.28l2.36,4.73a.59.59,0,0,1-.26.79.58.58,0,0,1-.79-.27l-2.12-4.23c-2.54,1.1-4.79,2.41-4.94,2.92-.36,1.78,3.49,7.11,7.35,10.17,2.13,1.69,3.46,2,4,1.79,1.86-.84,1.7-11.49,1-18.78a.59.59,0,0,1,1.18-.11c.3,3.07,1.62,18.47-1.68,20A2.3,2.3,0,0,1,224.44,206.8Z"/><path class="cls-2" d="M226.72,212.15a27,27,0,0,1-13.37-3.39c-5.52-3.36-7.74-9-9.06-13.52a.59.59,0,0,1,1.13-.33c1.87,6.43,4.5,10.39,8.54,12.84a26.19,26.19,0,0,0,17.24,2.8.59.59,0,0,1,.69.47.58.58,0,0,1-.46.69A24.05,24.05,0,0,1,226.72,212.15Z"/><path class="cls-2" d="M255.41,206.25a.58.58,0,0,0-.43-.4,13.58,13.58,0,0,0-11,2.56,12.46,12.46,0,0,0-5.24,9.47.61.61,0,0,0,.26.52.67.67,0,0,0,.33.1.54.54,0,0,0,.25-.06A76.26,76.26,0,0,0,248,214a90.21,90.21,0,0,0,7.27-7.19A.57.57,0,0,0,255.41,206.25Z"/><path class="cls-4" d="M226.47,220.64a73.46,73.46,0,0,1-16.56-2.18.59.59,0,0,1,.27-1.15c25.36,5.91,40.52-.34,49.19-20.26,4.12-9.48,1.61-22.64-6-31.29-7-7.93-16.71-10.6-27.48-7.52a.59.59,0,0,1-.32-1.14c11.23-3.21,21.42-.41,28.69,7.88,7.86,9,10.46,22.67,6.16,32.54C252.49,215.82,239.23,220.64,226.47,220.64Z"/><path class="cls-4" d="M210.05,218.48l-.14,0c-4-.93-12.06-8.2-16.06-18.89a.59.59,0,1,1,1.1-.41c4,10.65,11.92,17.38,15.23,18.15a.59.59,0,0,1,.44.71A.58.58,0,0,1,210.05,218.48Z"/><path class="cls-5" d="M258.1,200c-.48-.12-1-.21-1.47-.29l1.33-5.17-1.14-.3-1.38,5.33a19.3,19.3,0,0,0-4.08.11,35,35,0,0,0-1.18-4.64l-.18-.56-1.12.36.18.56a36.08,36.08,0,0,1,1.13,4.44v0a23.12,23.12,0,0,0-6.55,2.32c-1.6-1.75-4.35-5.49-4.38-5.53l-.35-.47-.95.7.35.47c.12.16,2.62,3.57,4.28,5.43-.66.4-1.3.82-1.93,1.29a22.35,22.35,0,0,0-3.62,3.36l-5.16-4.23-.75.91,5.17,4.24A19.31,19.31,0,0,0,233,215l-7.55-.24,0,1.19,7.32.23a18,18,0,0,0-.36,2.87.58.58,0,0,0,.56.61h0a.6.6,0,0,0,.59-.57,17.44,17.44,0,0,1,.37-2.89H234l0-.54A19,19,0,0,1,241.37,205a22.63,22.63,0,0,1,2-1.35l.08.09.32-.32a19.63,19.63,0,0,1,14-2.29.6.6,0,0,0,.71-.43A.59.59,0,0,0,258.1,200Z"/><path class="cls-5" d="M202.07,184.05c0-.42,0-.85.05-1.27a24,24,0,0,0-.15-2.85c2.28-.18,6.86-.9,7.07-.94l.58-.09-.18-1.16-.59.09s-4.81.76-7,.92a18,18,0,0,0-2.11-6.08,41.3,41.3,0,0,1,6.1-3.13l.55-.22-.45-1.09-.55.22a42.1,42.1,0,0,0-6.26,3.2,14.34,14.34,0,0,0-2.3-2.61.61.61,0,0,0-.84.05.6.6,0,0,0,.06.84c3.24,2.86,5,7.41,4.91,12.83-.09,6.42-2.76,12.75-6.8,16.12a.59.59,0,0,0-.08.83.6.6,0,0,0,.46.21.58.58,0,0,0,.38-.14,16.12,16.12,0,0,0,2.35-2.45l.08.06A68.41,68.41,0,0,1,203,202.2l.42.41.82-.86-.43-.41a66.71,66.71,0,0,0-5.76-4.91l-.07-.05a23,23,0,0,0,2.53-4.91l.38.13c1.5.5,4.46,1.75,4.49,1.77l.54.23.47-1.09-.55-.23c-.12-.05-3-1.29-4.58-1.81l-.37-.12a25.53,25.53,0,0,0,1.1-5.11c2.7.63,7.33,2.07,7.38,2.09l.57.17.35-1.12-.57-.18C209.49,186.14,204.78,184.67,202.07,184.05Z"/><path class="cls-2" d="M194.26,175.6a.61.61,0,0,0-.63-.14.62.62,0,0,0-.39.52l-1,15.91a.59.59,0,0,0,.36.58.5.5,0,0,0,.23.05.6.6,0,0,0,.44-.19C197.14,188.09,198.42,179.86,194.26,175.6Z"/><path class="cls-5" d="M194.4,200a.58.58,0,0,1-.55-.38,36.56,36.56,0,0,1,.47-27.07,29.52,29.52,0,0,1,17.47-16.9c4.53-1.5,8.89-1.4,11.67.26,3.44,2.07,5.81,5,8.11,7.87,3.92,4.87,7.63,9.48,16.37,10.28a.59.59,0,1,1-.1,1.17c-9.25-.84-13.29-5.86-17.2-10.71-2.33-2.9-4.53-5.64-7.79-7.59-2.49-1.5-6.48-1.55-10.68-.16a28.29,28.29,0,0,0-16.75,16.22,35.43,35.43,0,0,0-.47,26.22.59.59,0,0,1-.34.76A.76.76,0,0,1,194.4,200Z"/><path class="cls-6" d="M257.05,187.6c1.33-1.38,1.7-9.49-.09-11.28-2.83-2.83-12.9-7.13-14.29-6.75.25,2,.31,5.63,1.43,7.94C247.84,185.19,254.61,190.12,257.05,187.6Z"/><path class="cls-4" d="M191.89,114.42c-1.53-13-8.32-22.93-18.62-27.38-12.15-5.25-26.5-.94-29.26,0l-.45.14c-11,3.54-23.54,12.56-20.69,35.51,2.08,16.66,11.77,24.09,19.53,27.39a41.73,41.73,0,0,0,16.26,3.15c9.15,0,17.83-2.68,23.15-6.67C189.2,141,193.44,127.49,191.89,114.42Z"/><path class="cls-2" d="M164.87,93.8a17.12,17.12,0,0,0-5.25,1.28c-.74-1.44-.08-3.74-1.42-4.78-.53-.42-3.13-.81-3.3.39,0,.23-1.15,5.27-1.41,6.44-.23,0-.87-.61-1.34-1-2-1.86-5.36-5-11.52-2.91a.6.6,0,0,0-.38.75.59.59,0,0,0,.75.37c5.5-1.83,8.42.87,10.35,2.65.85.79,1.47,1.37,2.16,1.37h0a18.49,18.49,0,0,0,4.58-1.41c2.34-.9,5-1.93,6.74-1.93a.59.59,0,0,0,.59-.59A.6.6,0,0,0,164.87,93.8Z"/><path class="cls-5" d="M159.63,133.86a5.5,5.5,0,0,1,5.49,5.49,5.21,5.21,0,0,1-.22,1.49l21.32-1.61c-1.68-4.94-8-12.24-28.63-19.25l-.37-.12c-2.89,1.43-20.1,10.49-23.09,23.31l20.5-1.55a5.49,5.49,0,0,1,5-7.76Z"/><path class="cls-2" d="M165.12,139.35a5.55,5.55,0,1,0-.22,1.49A5.21,5.21,0,0,0,165.12,139.35Zm-5.49,4.31a4.3,4.3,0,0,1-3.7-2.14,4.24,4.24,0,0,1-.61-2.17,4.31,4.31,0,0,1,8.62,0,4.22,4.22,0,0,1-.32,1.59A4.3,4.3,0,0,1,159.63,143.66Z"/><path class="cls-2" d="M159.85,148.13a5.44,5.44,0,0,1-3.44-1,.6.6,0,0,1-.09-.83.58.58,0,0,1,.83-.09c1,.79,2.72,1,4.68.53,2.33-.54,4.33-1.85,5-3.25a.59.59,0,0,1,1.07.49c-.81,1.75-3.08,3.29-5.78,3.91A10.14,10.14,0,0,1,159.85,148.13Z"/><path class="cls-2" d="M143.11,117.82c-.21,0-.42,0-.64,0a10.7,10.7,0,0,1-8.21-5.3.59.59,0,1,1,1-.62,9.56,9.56,0,0,0,7.29,4.74,10.24,10.24,0,0,0,8.1-3.69.58.58,0,0,1,.83-.05.6.6,0,0,1,.05.83A11.45,11.45,0,0,1,143.11,117.82Z"/><path class="cls-2" d="M150.11,108l-.14,0-13.17-3a.58.58,0,0,1-.44-.71.59.59,0,0,1,.7-.44l13.18,3a.59.59,0,0,1-.13,1.17Z"/><path class="cls-2" d="M169,117.82a11.44,11.44,0,0,1-8.42-4.11.6.6,0,0,1,.05-.83.58.58,0,0,1,.83.05,10.23,10.23,0,0,0,8.1,3.69,9.56,9.56,0,0,0,7.29-4.74.59.59,0,0,1,1,.62,10.7,10.7,0,0,1-8.21,5.3C169.41,117.82,169.2,117.82,169,117.82Z"/><path class="cls-2" d="M162,108a.59.59,0,0,1-.13-1.17l13.18-3a.59.59,0,0,1,.7.44.58.58,0,0,1-.44.71l-13.17,3Z"/><path class="cls-2" d="M158,118.86l-.6-.2a.59.59,0,0,0-.45,0c-2.1,1-20.31,10.26-23.82,23.74.32.32.64.64,1,.94,0,0,0,0,0,0a.84.84,0,0,0,0-.17c2.36-10.11,13.56-17.88,19.61-21.42-1.91,3.14-1.92,8.66-1.92,8.66l10.77-.4s-.88-7.12-3.65-9.56c19.51,6.86,25.63,14,27.28,18.78a.78.78,0,0,1,.05.14l0,0c.25-.45.5-.91.74-1.38C184.87,132.88,177.94,125.66,158,118.86Z"/><path class="cls-6" d="M172.5,92.06c-2.95-2.22-7.16-4.23-8.64-2.56-3,3.35,10.81,21.22,3,33,6.18-.37,13.88-10.71,13.68-16.48C180.38,101.39,173.17,92.56,172.5,92.06Z"/><path class="cls-5" d="M130.43,132.44,140,122.13s-9.42-4.29-11.53-2.25C126.15,122.09,130.43,132.44,130.43,132.44Z"/><path class="cls-2" d="M130.43,133h-.11a.6.6,0,0,1-.44-.36c-.74-1.79-4.3-10.84-1.85-13.2,2.28-2.21,10.55,1.39,12.19,2.14a.57.57,0,0,1,.33.42.59.59,0,0,1-.14.52l-9.55,10.3A.59.59,0,0,1,130.43,133Zm-.13-13.11a2.12,2.12,0,0,0-1.45.39c-1.35,1.3.26,7.13,1.78,11l8.35-9C136.13,121.12,132.43,119.92,130.3,119.92Z"/><path class="cls-5" d="M176.58,119.57l10.15,9.72s3.64-10.59,1.23-12.66C185.72,114.72,176.58,119.57,176.58,119.57Z"/><path class="cls-2" d="M186.73,129.88a.58.58,0,0,1-.41-.17L176.17,120a.6.6,0,0,1-.18-.51.59.59,0,0,1,.31-.44c1.59-.84,9.62-4.93,12-2.87,2.59,2.22-.42,11.47-1.06,13.3a.58.58,0,0,1-.41.38Zm-9.15-10.16,8.88,8.49c1.28-4,2.54-9.91,1.11-11.13C186.33,116,181.23,117.89,177.58,119.72Z"/><line class="cls-7" x1="160.89" y1="92.85" x2="164.43" y2="89.77"/><path class="cls-6" d="M160.88,93.44a.56.56,0,0,1-.44-.21.58.58,0,0,1,.06-.83L164,89.33a.59.59,0,1,1,.78.89l-3.55,3.07A.58.58,0,0,1,160.88,93.44Z"/><path class="cls-8" d="M254.86,70.5C249.18,95.45,230,99,217.3,97.62,201.23,95.86,182,78,187.38,55.89c4.43-18.19,18.05-27.49,42.44-23C238.34,34.53,260.7,44.81,254.86,70.5Z"/><path class="cls-2" d="M231.78,35.07a.59.59,0,0,0-.73.41,12.56,12.56,0,0,1-7.58,8.13,9.34,9.34,0,0,0-1.88-3.89A3.06,3.06,0,0,0,219,38.6a2,2,0,0,0-1.56,1.11c-.47.89-.32,3.66-.16,5a4.23,4.23,0,0,1-1.9-.5A13.4,13.4,0,0,1,212.89,42c-1.68-1.82-3.13-3.39-7.62-2.13a.59.59,0,0,0-.41.73.6.6,0,0,0,.73.41c3.79-1.07,4.84.07,6.43,1.79a14.29,14.29,0,0,0,2.73,2.46A6,6,0,0,0,218,46a15.86,15.86,0,0,0,5.31-1,13.93,13.93,0,0,0,8.89-9.15A.6.6,0,0,0,231.78,35.07Z"/><path class="cls-6" d="M235.32,37.34c7,2.76,15-1,17.49-6.38.69-1.53-5.8-6.17-9.4-6.93-14.31-3-21.86,12.51-21.17,15.5S231.21,35.71,235.32,37.34Z"/><path class="cls-5" d="M194.83,57.64c-1.18-4.73,13-8.27,23.63-1.18,10.64-7.09,26-3.55,24.81,1.18-7.09,0-24.81,3.54-24.81,3.54S229.41,75,226.73,78.9c-2.15,3.18-13.11,3.12-15.36,0-2.73-3.78,7.09-17.72,7.09-17.72S199.56,56.46,194.83,57.64Z"/><path class="cls-2" d="M209,67.09a.59.59,0,0,0-.59.59,5.37,5.37,0,0,1-1.36,3.69,2.83,2.83,0,0,0,.18-1,3,3,0,0,0-5.69-1.12,6.37,6.37,0,0,1-.22-1.6c0-2.6,1.67-5.91,3.55-5.91a.59.59,0,0,0,.59-.59.6.6,0,0,0-.59-.59c-2.67,0-4.73,3.81-4.73,7.09s2.12,5.91,4.73,5.91,4.72-2.65,4.72-5.91A.58.58,0,0,0,209,67.09Z"/><path class="cls-2" d="M237.37,67.33a.58.58,0,0,0-.59.59,5.39,5.39,0,0,1-1.36,3.69,3.15,3.15,0,0,0,.17-1,3,3,0,0,0-5.68-1.12,5.87,5.87,0,0,1-.22-1.59c0-2.61,1.67-5.91,3.54-5.91a.59.59,0,1,0,0-1.18c-2.66,0-4.72,3.81-4.72,7.09s2.12,5.9,4.72,5.9,4.73-2.65,4.73-5.9A.59.59,0,0,0,237.37,67.33Z"/><path class="cls-2" d="M242.1,54.22c-4.28-3-15.26-3.84-23.64,1.53-8.35-5.37-18.51-4.42-22.41-1.67-1.49,1.05-2.12,2.36-1.79,3.7a.59.59,0,0,0,.72.43c4-1,18.82,2.46,22.51,3.34-2.13,3.13-9.21,14.07-6.6,17.7,1.4,1.93,5.26,2.61,8.27,2.61h.29c1.42,0,6.18-.27,7.77-2.61,2.55-3.77-5.26-14.49-7.7-17.66,3.76-.73,17.74-3.35,23.75-3.35a.61.61,0,0,0,.58-.45C244.17,56.51,243.55,55.24,242.1,54.22ZM226.24,78.57a3.33,3.33,0,0,1-1.19,1,2.36,2.36,0,0,0-4.45,1.08c-.38,0-.77,0-1.17,0a19.91,19.91,0,0,1-2.48-.12,2.35,2.35,0,0,0-4.27-1.28,3,3,0,0,1-.83-.71c-1.73-2.41,3-11,6.64-16.38C222.58,67.45,228,76.06,226.24,78.57Zm-7.76-18c-1.6-.4-15.19-3.72-21.61-3.72a13.51,13.51,0,0,0-1.51.08,2.92,2.92,0,0,1,1.37-1.9c3.76-2.65,13.73-3.21,21.4,1.91a.61.61,0,0,0,.66,0c7.88-5.25,18.67-4.55,22.63-1.76a2.72,2.72,0,0,1,1.32,1.86C235.65,57.21,220.18,60.24,218.48,60.58Z"/><path class="cls-5" d="M229.49,85.31a4.88,4.88,0,0,1-1.26-2.14c-.32-2.88,4.41-4.27,6.93-1.93.94.87,1.51,3.28,1.9,4.68"/><path class="cls-2" d="M239.77,85.4c-.16,0-1-.06-2.28-.1a.57.57,0,0,0,.14-.56,8.3,8.3,0,0,0-2.07-3.93,5.44,5.44,0,0,0-6-.78,3.19,3.19,0,0,0-2,3.21,4.44,4.44,0,0,0,1.07,2.08c-5.35.25-11.09,1-13.32,3.12a3,3,0,0,0-1.06,2.28.58.58,0,0,0,.59.59.59.59,0,0,0,.59-.59,1.89,1.89,0,0,1,.69-1.42c4.16-3.9,23.3-2.73,23.49-2.72a.58.58,0,0,0,.63-.55A.61.61,0,0,0,239.77,85.4Zm-9.86-.51a4,4,0,0,1-1.09-1.78,2.1,2.1,0,0,1,1.3-2,4.23,4.23,0,0,1,4.64.6,7.38,7.38,0,0,1,1.74,3.39.54.54,0,0,0,.1.2c-.89,0-1.92,0-3,0a16.52,16.52,0,0,1-1.2-2.42.59.59,0,0,0-.76-.33.6.6,0,0,0-.34.77,19.15,19.15,0,0,0,.95,2c-.69,0-1.4,0-2.12,0A.58.58,0,0,0,229.91,84.89Z"/><path class="cls-5" d="M197.43,65.8a.52.52,0,0,1-.21,0,51.09,51.09,0,0,1-5.85-2.64.6.6,0,0,1-.24-.8.59.59,0,0,1,.8-.25,48,48,0,0,0,5.71,2.58.6.6,0,0,1-.21,1.15Z"/><path class="cls-5" d="M191.77,70.64a.59.59,0,0,1-.09-1.17l5.61-.9a.58.58,0,0,1,.68.48.59.59,0,0,1-.49.68l-5.61.91Z"/><path class="cls-5" d="M195,76a.58.58,0,0,1-.46-.23.59.59,0,0,1,.1-.83l3.49-2.74a.59.59,0,0,1,.73.93l-3.49,2.74A.58.58,0,0,1,195,76Z"/><path class="cls-5" d="M241.19,65.8a.6.6,0,0,1-.21-1.15,48,48,0,0,0,5.71-2.58.59.59,0,0,1,.8.25.6.6,0,0,1-.24.8,50.33,50.33,0,0,1-5.85,2.64A.52.52,0,0,1,241.19,65.8Z"/><path class="cls-5" d="M246.85,70.64h-.1l-5.61-.91a.59.59,0,1,1,.19-1.16l5.61.9a.59.59,0,0,1-.09,1.17Z"/><path class="cls-5" d="M243.59,76a.58.58,0,0,1-.37-.13l-3.49-2.74a.59.59,0,1,1,.73-.93L244,74.9a.59.59,0,0,1,.1.83A.58.58,0,0,1,243.59,76Z"/><path class="cls-3" d="M102,79.54c-4.41-5.21-12.87-9.6-24.11-7.6C71.33,64.5,58.17,69.88,52,74.21c-13,9.2-16.68,24.92-10.28,44.28C44.69,127.4,57.51,139,70.36,139a19.83,19.83,0,0,0,3.07-.23c16.4-2.49,28.19-11.2,33.17-24.51C111.08,102.3,109.18,88,102,79.54ZM87.28,86.89a2.43,2.43,0,0,1-.94-.24Z"/><path class="cls-2" d="M87.54,86.36A20.32,20.32,0,0,1,85.27,85c.3-.36.68-.79,1.1-1.27,2.68-3,4.57-5.28,4.48-6.49a1.77,1.77,0,0,0-1-1.43,6.14,6.14,0,0,0-4.38-.31h0c-.41.22-2.13,1.32-5.09,3.25-.32-.86-.57-1.74-.83-2.63a31.61,31.61,0,0,0-1.22-3.63.59.59,0,0,0-.78-.3.58.58,0,0,0-.31.77,27.51,27.51,0,0,1,1.17,3.49c1.1,3.79,2.23,7.71,8.61,11a.52.52,0,0,0,.27.07.59.59,0,0,0,.52-.32A.59.59,0,0,0,87.54,86.36Z"/><path class="cls-2" d="M102.7,93.37a.6.6,0,0,0-.83-.06l-2.26,1.93a17.17,17.17,0,0,0-2.76-2l1.32-2.11a.59.59,0,1,0-1-.62L95.8,92.65a10.11,10.11,0,0,0-3.06-.89l-.28-2.69a.59.59,0,1,0-1.17.13l.26,2.49a11.3,11.3,0,0,0-3.4.61L87,89.67a.58.58,0,0,0-.77-.32.6.6,0,0,0-.32.77l1.1,2.61a17.87,17.87,0,0,0-2.89,1.6l-2.46-2a.59.59,0,0,0-.73.93L83.16,95a19.93,19.93,0,0,0-2,1.73.59.59,0,0,0-.13.62.6.6,0,0,0,.51.38l9.88.78a4.94,4.94,0,0,0,9.53.76l1,.07h0a.57.57,0,0,0,.51-.3.56.56,0,0,0,0-.62,17.35,17.35,0,0,0-2-2.4l2.18-1.86A.61.61,0,0,0,102.7,93.37Z"/><path class="cls-2" d="M66.59,91,64,92.4a15.12,15.12,0,0,0-2.71-2l1.41-2.29a.58.58,0,0,0-.19-.81.59.59,0,0,0-.81.19l-1.47,2.36A10.28,10.28,0,0,0,57.9,89l-.26-2.93a.59.59,0,1,0-1.17.1l.23,2.67a10.84,10.84,0,0,0-2.91.2l-1-2.35a.59.59,0,0,0-.77-.31.59.59,0,0,0-.31.78l.91,2.15a17.72,17.72,0,0,0-3.4,1.38.67.67,0,0,0-.12-.29L47.7,88.8a.59.59,0,0,0-.83-.07.6.6,0,0,0-.07.84l1.4,1.64.06.05a19.65,19.65,0,0,0-2.21,1.5.61.61,0,0,0-.19.61.58.58,0,0,0,.48.43l10,1.59a4.95,4.95,0,0,0,9.47,1.5l.71.12h.1a.58.58,0,0,0,.49-.26.6.6,0,0,0,0-.63,19.08,19.08,0,0,0-2.24-2.86L67.17,92a.59.59,0,0,0-.58-1Z"/><path class="cls-2" d="M67.56,117.78a4.6,4.6,0,0,1,4,3.16c1.36-1.57,4-2.42,5.34-1.73,2.12,1.05,3.43,3.72,7.14,5.42-7.25,3-21.43.66-26-4.43C62.62,119.38,65,117.78,67.56,117.78Z"/><path class="cls-1" d="M102.53,98.6h0s0,0,0,0a.62.62,0,0,0-.15-.21l-.06,0a.53.53,0,0,0-.28-.1L81.63,96.59a.55.55,0,0,0-.18,0c-.71.17-3,.79-3.61,1.66-1.09,1.69-.45,4.58.23,7.65s1.33,6,.16,7c-.85.8-3.08,1.21-5.56,1s-4.61-1-5.32-1.87c-1-1.25.18-4.11,1.29-6.87,1.19-3,2.31-5.77,1.4-7.61-.42-.86-2.39-1.52-3.29-1.78l-20.23-3.2a.57.57,0,0,0-.29,0l-.07,0a.58.58,0,0,0-.19.15l0,0h0a.43.43,0,0,0-.09.23s0,0,0,0v.08a.86.86,0,0,0,.06.23s0,0,0,0c.16.27,4,6.58,9.7,7.53a9.67,9.67,0,0,0,1.5.12c4.54,0,8.62-3.19,9.67-4.08A6.22,6.22,0,0,1,69,98.15c.67,1.36-.41,4-1.45,6.64-1.29,3.21-2.5,6.24-1.13,8,1.11,1.45,3.92,2.15,6.17,2.33.42,0,.85,0,1.3,0,2,0,4.08-.36,5.16-1.38,1.66-1.56.94-4.77.19-8.17-.6-2.69-1.22-5.47-.4-6.75a6.75,6.75,0,0,1,2.53-1.05c1,1.23,5,5.66,10,6.06.26,0,.51,0,.77,0,5.33,0,9.81-4.32,10.19-4.7h0l0,0s0,0,0,0a.51.51,0,0,0,.12-.23.14.14,0,0,0,0-.07s0,0,0,0A.48.48,0,0,0,102.53,98.6ZM55.81,99.88C52,99.25,49,95.82,47.69,94L65.25,96.8C63.48,98.12,59.64,100.52,55.81,99.88Zm35.69,2.85c-3.8-.3-7-3.23-8.53-4.85l17.56,1.39C98.85,100.63,95.29,103,91.5,102.73Z"/><path class="cls-1" d="M89.51,120.65a.6.6,0,0,0-.82.2A7.31,7.31,0,0,1,84.14,124a15.49,15.49,0,0,1-4.33-3.23,10.94,10.94,0,0,0-2.64-2.1c-1.42-.71-3.81-.11-5.42,1.26a5,5,0,0,0-4.19-2.75,14.09,14.09,0,0,0-4.36,1,35.66,35.66,0,0,1-5.12,1.41,6.25,6.25,0,0,1-3.17-3.94.59.59,0,0,0-1.12.37,7.43,7.43,0,0,0,3.82,4.66c3.51,6.06,7.33,9.4,11.69,10.2a11.66,11.66,0,0,0,2,.18c3.9,0,8.16-1.94,13-5.87a8.49,8.49,0,0,0,5.4-3.73A.6.6,0,0,0,89.51,120.65Zm-20,9.07c-3.32-.61-6.35-2.9-9.18-7,4,2.38,10.13,3.8,15.71,3.8a26.26,26.26,0,0,0,5.14-.47C76.82,129.15,73,130.35,69.51,129.72Zm-10.27-9.16a37.27,37.27,0,0,0,4.34-1.26,13,13,0,0,1,4-.93A4.08,4.08,0,0,1,71,121.16a.59.59,0,0,0,.45.37.61.61,0,0,0,.54-.2c1.27-1.47,3.6-2.1,4.63-1.6a10.2,10.2,0,0,1,2.33,1.9,18.71,18.71,0,0,0,3.6,2.9C75.69,126.61,64,124.62,59.24,120.56Z"/><path class="cls-2" d="M97,111.38h0l-13.12-.76a.59.59,0,0,1-.56-.63.58.58,0,0,1,.63-.55L97,110.2a.59.59,0,0,1,0,1.18Z"/><path class="cls-2" d="M95.09,115.75h0l-8.93-.59A.59.59,0,1,1,86.2,114l8.92.59a.59.59,0,0,1,0,1.18Z"/><path class="cls-2" d="M60.91,109l-.13,0L48,106.16A.59.59,0,0,1,48.2,105L61,107.85a.59.59,0,0,1-.12,1.17Z"/><path class="cls-2" d="M57.47,112.76h-.13l-8.75-1.86a.59.59,0,0,1,.25-1.16l8.75,1.87a.58.58,0,0,1,.45.7A.59.59,0,0,1,57.47,112.76Z"/><path class="cls-8" d="M94.64,197.32C89.86,177.66,75,169.57,51.52,173.93,43,175.51,21.9,185.45,26,212.15c2.83,18.41,13.81,28,31.89,28a58.39,58.39,0,0,0,6.32-.36c9.28-1,19.16-7.21,25.18-15.79A32.2,32.2,0,0,0,94.64,197.32Z"/><path class="cls-2" d="M76,179a7.81,7.81,0,0,0-6.53,2.91,13,13,0,0,1-3.39,2.67A4.66,4.66,0,0,1,64,185a9.66,9.66,0,0,0-.44-3.58,2.29,2.29,0,0,0-3.11-.14A4.85,4.85,0,0,0,58.86,184c-2.7-.87-5.27-2.22-6.17-3.59a.59.59,0,1,0-1,.65c1.73,2.63,8.26,5,12.41,5a5.66,5.66,0,0,0,2.55-.48,14.38,14.38,0,0,0,3.67-2.89c1.46-1.48,2.52-2.56,5.69-2.56a.59.59,0,0,0,.6-.59A.6.6,0,0,0,76,179Z"/><path class="cls-6" d="M46.13,180.09c-7,2.76-15.36.68-19.85-4,4.49-3.65,5.78-6.3,9.4-6.93,2.21-.37,10.86-1.5,12.69-.21,3.82,2.68,11.53,9.18,10.84,12.17S50.25,178.46,46.13,180.09Z"/><circle class="cls-2" cx="47.09" cy="205.79" r="2.76"/><circle class="cls-2" cx="71.2" cy="206.48" r="2.76"/><path class="cls-2" d="M47.44,224.42c-.46,2.48,3.12,5.21,8,6.11s9.18-.37,9.63-2.85Z"/><path class="cls-5" d="M94.39,204.65a.57.57,0,0,0-.55,0c-4.19,2.29-7.74-1.2-11.49-4.9-3.09-3-6.28-6.18-9.86-5.56-3,.53-5.82,3.62-8.73,9.72-1,2.09-.31,5.09.36,8,.14.63.28,1.26.41,1.87-2.49.74-3.79,1.54-4.43,2.73a5.19,5.19,0,0,0-.07,4,16.28,16.28,0,0,1-4.6-.38c.45-1.43,1.15-4,0-5.48a2.84,2.84,0,0,0-1.95-1.08c1.76-3.65,3.87-8.12,2.35-10.81-3.13-5.57-6.18-8.46-9.32-8.85-4-.49-7.34,3-10.59,6.47s-6,6.38-9.16,5.76h-.11c0,.39,0,.77,0,1.17,3.69.62,6.95-2.8,10.1-6.11s6.2-6.54,9.6-6.12c2.74.34,5.5,3,8.43,8.25,1.24,2.21-.91,6.67-2.48,9.93-1,2-1.72,3.57-1.71,4.53s.53,2.12,3,3a16.66,16.66,0,0,0,5.51.91c2.53,0,4.91-.56,6-1.78,1.63-1.85.91-5,.15-8.31-.62-2.71-1.27-5.5-.45-7.22,2.7-5.64,5.28-8.61,7.88-9.07,3-.52,5.81,2.28,8.82,5.24,3.71,3.66,7.93,7.81,12.88,5.09h0C94.41,205.35,94.4,205,94.39,204.65ZM51.83,217.77A10.78,10.78,0,0,1,53,214.69a2,2,0,0,1,1.54.65c.77,1.06.15,3.27-.22,4.45l-.25-.08C52.64,219.18,51.83,218.48,51.83,217.77Zm12.41,1.4a5.18,5.18,0,0,1-3,1.21,4.31,4.31,0,0,1-.08-3.32c.46-.85,1.56-1.5,3.6-2.12C65,216.71,65,218.27,64.24,219.17Z"/><path class="cls-5" d="M55,224.78a7,7,0,0,0,2.74.56l.47,0a.59.59,0,1,0-.08-1.18,5.69,5.69,0,0,1-2.67-.45.59.59,0,0,0-.46,1.09Z"/><path class="cls-5" d="M56,232.52a4.45,4.45,0,0,0-4.27.87.6.6,0,0,0,0,.84.59.59,0,0,0,.83,0,3.27,3.27,0,0,1,3.14-.55,3.25,3.25,0,0,1,2.3,1.48.58.58,0,0,0,.56.42l.18,0a.6.6,0,0,0,.39-.74A4.19,4.19,0,0,0,56,232.52Z"/><path class="cls-5" d="M42.8,202.07a4.69,4.69,0,0,0-1.44,6.33.59.59,0,0,0,.49.27.58.58,0,0,0,.33-.1.59.59,0,0,0,.17-.82,3.3,3.3,0,0,1-.39-2.54,3.34,3.34,0,0,1,1.46-2.13.59.59,0,0,0,.2-.81A.6.6,0,0,0,42.8,202.07Z"/><path class="cls-5" d="M75.74,203.48a.61.61,0,0,0,.06.84,3.3,3.3,0,0,1,1.09,2.33,3.35,3.35,0,0,1-.81,2.45.6.6,0,0,0,0,.84.59.59,0,0,0,.4.15.56.56,0,0,0,.43-.19,4.49,4.49,0,0,0,1.12-3.31,4.54,4.54,0,0,0-1.49-3.17A.61.61,0,0,0,75.74,203.48Z"/><path class="cls-2" d="M36.6,153.47a3,3,0,0,1-2.25-.77,2.73,2.73,0,0,1-.73-1.95,3.29,3.29,0,0,1,1.1-2.61,3.9,3.9,0,0,1,2.68-1,1.87,1.87,0,0,1,.36,0c.06,0,.08.26.08.64s-.05.61-.16.69h-.09a2.73,2.73,0,0,0-1.67.48,1.61,1.61,0,0,0-.46.63,2.31,2.31,0,0,0-.2,1,1.42,1.42,0,0,0,.36,1,1.5,1.5,0,0,0,1.16.39,2.41,2.41,0,0,0,1.1-.24l.07,0a1.4,1.4,0,0,1,.11.73c0,.4-.05.65-.15.73A2.67,2.67,0,0,1,36.6,153.47Z"/><path class="cls-2" d="M43.65,152.5a2.55,2.55,0,0,1-2.08.93,2.67,2.67,0,0,1-2.06-.81,3,3,0,0,1-.75-2.12,3.3,3.3,0,0,1,.93-2.3,3.24,3.24,0,0,1,2.5-1,2.36,2.36,0,0,1,.69.08.38.38,0,0,1,.06.26,3.77,3.77,0,0,1,0,.44.91.91,0,0,1,.51.23,2.61,2.61,0,0,1,.51.47,2.09,2.09,0,0,1,.35.67,3,3,0,0,1,.15,1A3.31,3.31,0,0,1,43.65,152.5Zm-1.18-3.12a1.1,1.1,0,0,0-.6-.2h-.11a1,1,0,0,1,0-.23,1.19,1.19,0,0,1,0-.33,1.38,1.38,0,0,0-1,.49,1.9,1.9,0,0,0-.47,1.38,1.55,1.55,0,0,0,.66,1.44,1.37,1.37,0,0,0,.7.16,1.14,1.14,0,0,0,.84-.42,1.71,1.71,0,0,0,.39-1.23C42.88,149.9,42.75,149.55,42.47,149.38Z"/><path class="cls-2" d="M47.1,150.09v1.5a9.4,9.4,0,0,1,0,1.48,1.2,1.2,0,0,1-.6.27,3.6,3.6,0,0,1-.7.09c-.18,0-.28,0-.28,0a13.06,13.06,0,0,0,.1-2l0-3a3,3,0,0,1,.06-.89,1.32,1.32,0,0,1,.51-.27,2.46,2.46,0,0,1,.67-.11c.21,0,.32,0,.32.07a4.58,4.58,0,0,0,0,.64c0,.21,0,.32,0,.32l0,0a1.69,1.69,0,0,1,.2-.23,2.45,2.45,0,0,1,.57-.38,1.76,1.76,0,0,1,.82-.23,1.51,1.51,0,0,1,.67.14,1.4,1.4,0,0,1,.44.34,1.84,1.84,0,0,1,.31.58c.08.24.14.47.19.69a6.65,6.65,0,0,1,.1.85c0,.49,0,1.11,0,1.87l0,1.56c0,.06-.14.12-.44.18a3.47,3.47,0,0,1-.7.08l-.44-.06a20.86,20.86,0,0,0,.13-2.33,7.09,7.09,0,0,0-.15-1.69c-.09-.38-.29-.57-.58-.57a1.08,1.08,0,0,0-.72.24,1.22,1.22,0,0,0-.35.48l-.09.23Z"/><path class="cls-2" d="M53.38,144.35c0,.21,0,.77-.07,1.68a4.43,4.43,0,0,1,1,0,2.3,2.3,0,0,1-.13.81c-.09.23-.17.35-.26.35H53.3q0,2,0,3.21c0,.82,0,1.37,0,1.65a1.81,1.81,0,0,0,.55,1.13c0,.1-.17.24-.51.43a2.15,2.15,0,0,1-1,.28s-.08-.05-.15-.14a1.65,1.65,0,0,1-.25-.44,2.2,2.2,0,0,1-.15-.6c0-.19,0-.89,0-2.09s0-2.34,0-3.4h-.74c-.05,0-.07-.24-.07-.58s0-.55.12-.62l.71,0a9.16,9.16,0,0,0,0-1c0-.15-.05-.24-.05-.26s.16-.19.47-.31a2.4,2.4,0,0,1,.8-.17C53.26,144.3,53.38,144.32,53.38,144.35Z"/><path class="cls-2" d="M59,153.09a3.53,3.53,0,0,1-1.77.3,2.57,2.57,0,0,1-2-.79,3,3,0,0,1-.71-2.1,3.35,3.35,0,0,1,.85-2.28,3,3,0,0,1,2.38-1,2.11,2.11,0,0,1,1.15.33,1.27,1.27,0,0,1,.53,1.17,2.49,2.49,0,0,1-.73,1.65,4.58,4.58,0,0,1-2,1.24c0,.1.11.19.33.26a2.43,2.43,0,0,0,.65.09,3.16,3.16,0,0,0,1.6-.35s0,0,0,0a.72.72,0,0,1,0,.25A2,2,0,0,1,59,153.09Zm-1.16-4.25c0-.25-.14-.38-.41-.38a1.18,1.18,0,0,0-1,.56,2.17,2.17,0,0,0-.42,1.35q0,.18.06.18a1.89,1.89,0,0,0,1.1-.55A1.54,1.54,0,0,0,57.86,148.84Z"/><path class="cls-2" d="M60.46,151.43l0-3.13a3.13,3.13,0,0,1,.06-.92,1.74,1.74,0,0,1,.5-.28,1.85,1.85,0,0,1,.64-.12c.2,0,.3,0,.3.05,0,.39-.05.69-.05.9s0,.3,0,.3,0,0,.08-.06a1.79,1.79,0,0,1,.19-.18,2.64,2.64,0,0,1,.52-.35,1.38,1.38,0,0,1,.7-.22,1.42,1.42,0,0,1,1.31.77,2.1,2.1,0,0,1,1.68-1.07,1.25,1.25,0,0,1,1.19.71,4.93,4.93,0,0,1,.44,1.58c0,.76.08,1.55.08,2.37L68,153.34c0,.06-.15.12-.44.18a3.55,3.55,0,0,1-.71.08l-.42-.06a19.33,19.33,0,0,0,.14-2.13c0-.55,0-.94,0-1.17a4.36,4.36,0,0,0-.11-.71.94.94,0,0,0-.24-.5.57.57,0,0,0-.42-.16.77.77,0,0,0-.45.14,1.1,1.1,0,0,0-.29.27.46.46,0,0,0-.09.18c0,.28,0,.94,0,2l0,1.06c0,.07-.14.13-.43.18a4.17,4.17,0,0,1-.69.08l-.43-.06a18.48,18.48,0,0,0,.12-2,5.8,5.8,0,0,0-.1-1.32.48.48,0,0,0-.53-.37.87.87,0,0,0-.72.42,1.41,1.41,0,0,0-.29.65v1.7a7.11,7.11,0,0,1-.05,1.37,2.14,2.14,0,0,1-1.4.32c-.07,0-.1,0-.1,0A14.43,14.43,0,0,0,60.46,151.43Z"/><path class="cls-2" d="M70.79,146.62v.63q3.54,0,3.54,2.74a3,3,0,0,1-.3,1.35,2.75,2.75,0,0,1-.74,1,4.66,4.66,0,0,1-1,.59,3.9,3.9,0,0,1-1.6.41v.2a21.09,21.09,0,0,0,.11,2.67,1.35,1.35,0,0,1-.6.27,2.92,2.92,0,0,1-.69.1c-.18,0-.27,0-.27,0a16.83,16.83,0,0,1,0-1.76l.06-6.2c0-.73,0-1.23,0-1.52a1.83,1.83,0,0,1,.54-.31,2.11,2.11,0,0,1,.66-.14A.81.81,0,0,1,70.79,146.62Zm-.07,4.54,0,.67a2.26,2.26,0,0,0,1.42-.46,1.62,1.62,0,0,0,.62-1.35c0-1-.67-1.44-2-1.44v.63Z"/><path class="cls-2" d="M77.08,144.35c0,.21,0,.77-.06,1.68a4.5,4.5,0,0,1,1,0,2.29,2.29,0,0,1-.14.81c-.08.23-.17.35-.25.35H77c0,1.32,0,2.39,0,3.21s0,1.37,0,1.65a1.75,1.75,0,0,0,.54,1.13c0,.1-.17.24-.51.43a2.09,2.09,0,0,1-1,.28s-.07-.05-.15-.14a2,2,0,0,1-.24-.44,2.23,2.23,0,0,1-.16-.6c0-.19,0-.89,0-2.09s0-2.34,0-3.4h-.75a1.31,1.31,0,0,1-.07-.58c0-.34,0-.55.12-.62l.71,0a7.09,7.09,0,0,0,0-1,2,2,0,0,1,0-.26c0-.09.15-.19.46-.31a2.5,2.5,0,0,1,.81-.17C77,144.3,77.08,144.32,77.08,144.35Z"/><path class="cls-2" d="M81.76,152.58v-.31a2.45,2.45,0,0,1-.81.79,1.87,1.87,0,0,1-1,.29c-.94,0-1.47-.72-1.6-2.17,0-.23,0-.83,0-1.79a6.33,6.33,0,0,1,.12-1.7,1.77,1.77,0,0,1,1.12-.28.71.71,0,0,1,.38.06s0,.13,0,.36c0,.68-.07,1.2-.07,1.56s0,.64,0,.81,0,.28,0,.33a2.42,2.42,0,0,0,0,.26.93.93,0,0,0,.1.32.65.65,0,0,0,.62.39.92.92,0,0,0,.74-.42c.22-.28.33-.48.32-.59V150a17.71,17.71,0,0,1,.08-2.62c0-.09.18-.17.42-.26a1.93,1.93,0,0,1,.7-.13.91.91,0,0,1,.4,0l0,.63c0,1.27-.08,2.25-.08,3a11,11,0,0,0,0,1.32,2.64,2.64,0,0,0,.37,1.06c0,.09-.19.23-.55.43a2.16,2.16,0,0,1-.94.29c-.07,0-.15-.13-.24-.4A3.64,3.64,0,0,1,81.76,152.58Z"/><path class="cls-2" d="M89.2,152.5a2.56,2.56,0,0,1-2.08.93,2.66,2.66,0,0,1-2.06-.81,3,3,0,0,1-.75-2.12,3.3,3.3,0,0,1,.93-2.3,3.24,3.24,0,0,1,2.5-1,2.36,2.36,0,0,1,.69.08s0,.12,0,.26a3.61,3.61,0,0,1,0,.44.91.91,0,0,1,.51.23,2.61,2.61,0,0,1,.51.47,2.31,2.31,0,0,1,.35.67,3,3,0,0,1,.15,1A3.31,3.31,0,0,1,89.2,152.5ZM88,149.38a1.16,1.16,0,0,0-.6-.2h-.11a.62.62,0,0,1,0-.23,1.76,1.76,0,0,1,0-.33,1.37,1.37,0,0,0-1,.49,1.9,1.9,0,0,0-.48,1.38,1.54,1.54,0,0,0,.67,1.44,1.37,1.37,0,0,0,.7.16,1.14,1.14,0,0,0,.84-.42,1.71,1.71,0,0,0,.39-1.23A1.16,1.16,0,0,0,88,149.38Z"/><path class="cls-2" d="M94.31,152.58v-.31a2.65,2.65,0,0,1-.81.79,1.9,1.9,0,0,1-1,.29c-.94,0-1.47-.72-1.61-2.17,0-.23,0-.83,0-1.79a6.33,6.33,0,0,1,.12-1.7,1.75,1.75,0,0,1,1.12-.28.67.67,0,0,1,.37.06s0,.13,0,.36c0,.68-.07,1.2-.07,1.56s0,.64,0,.81a3.12,3.12,0,0,0,0,.33,1.16,1.16,0,0,0,0,.26,1.22,1.22,0,0,0,.09.32.66.66,0,0,0,.62.39.93.93,0,0,0,.75-.42,1.25,1.25,0,0,0,.32-.59V150a17.71,17.71,0,0,1,.08-2.62c0-.09.18-.17.42-.26a1.87,1.87,0,0,1,.69-.13.84.84,0,0,1,.4,0l0,.63c0,1.27-.08,2.25-.08,3a11,11,0,0,0,0,1.32,2.5,2.5,0,0,0,.36,1.06c0,.09-.18.23-.54.43a2.16,2.16,0,0,1-.94.29c-.07,0-.15-.13-.24-.4A3.11,3.11,0,0,1,94.31,152.58Z"/><path class="cls-2" d="M100.74,151.55a1.69,1.69,0,0,1-.67,1.29,4.15,4.15,0,0,1-1.46.81,4.43,4.43,0,0,1-1.36.25s-.11-.06-.19-.16a1.69,1.69,0,0,1-.33-1v-.09a2.86,2.86,0,0,0,1.58-.36c.37-.24.55-.49.55-.75a.74.74,0,0,0-.33-.53,4.13,4.13,0,0,0-.74-.49,3.28,3.28,0,0,1-.73-.57,1.08,1.08,0,0,1-.33-.74,1.85,1.85,0,0,1,1-1.49A3.74,3.74,0,0,1,99.9,147c.09,0,.2.13.35.37a1.65,1.65,0,0,1,.22.75,3.43,3.43,0,0,0-.8.16c-.7.23-1,.5-1,.83s.35.55,1,.95a2.53,2.53,0,0,1,.73.63A1.33,1.33,0,0,1,100.74,151.55Z"/><path class="cls-2" d="M130,168.4a3.41,3.41,0,0,1-1.78.31,2.59,2.59,0,0,1-2-.78,3.06,3.06,0,0,1-.71-2.11,3.35,3.35,0,0,1,.85-2.28,3,3,0,0,1,2.38-1,2.11,2.11,0,0,1,1.15.33,1.27,1.27,0,0,1,.53,1.17,2.45,2.45,0,0,1-.73,1.64,4.4,4.4,0,0,1-2,1.24c0,.11.11.2.33.26a2.08,2.08,0,0,0,.64.1,3,3,0,0,0,1.61-.36h0a.76.76,0,0,1,0,.26A1.89,1.89,0,0,1,130,168.4Zm-1.16-4.24c0-.25-.14-.38-.41-.38a1.15,1.15,0,0,0-1,.56,2.16,2.16,0,0,0-.42,1.34c0,.13,0,.19.06.19a1.89,1.89,0,0,0,1.1-.55A1.54,1.54,0,0,0,128.85,164.16Z"/><path class="cls-2" d="M133.18,168.7a2,2,0,0,1-.61-.08,21.39,21.39,0,0,0-.85-2.82,16.48,16.48,0,0,1-.85-3.08.53.53,0,0,1,.14-.11,2,2,0,0,1,.49-.18,3.18,3.18,0,0,1,.79-.09,32.7,32.7,0,0,0,1.22,4.22q0,.08.06,0a13.15,13.15,0,0,0,.73-2.26,20.19,20.19,0,0,0,.55-2.39s.1-.1.29-.14a3.62,3.62,0,0,1,.73-.06,1.09,1.09,0,0,1,.62.13,26.76,26.76,0,0,1-1,3.45c-.63,2-1,3.1-1,3.17a1.85,1.85,0,0,1-1,.22Z"/><path class="cls-2" d="M141.44,165.43q0,1.66,0,1.95a1.77,1.77,0,0,0,.46,1.05c0,.1-.18.25-.53.44a1.94,1.94,0,0,1-1,.29c-.08,0-.17-.11-.26-.35a3.55,3.55,0,0,1-.15-.53c0-.11,0-.17,0-.17l0,0a2.59,2.59,0,0,1-1.65.56,2.17,2.17,0,0,1-1.47-.46,1.56,1.56,0,0,1-.51-1.21,2.27,2.27,0,0,1,.33-1.26,2.39,2.39,0,0,1,.77-.78,4.08,4.08,0,0,1,1-.43,4.63,4.63,0,0,1,1.28-.26l0,0c0-.43-.56-.65-1.66-.65a7.41,7.41,0,0,0-1,.05h0a1.83,1.83,0,0,1,.17-.66,2,2,0,0,1,.28-.52,1.93,1.93,0,0,1,.95-.12,3.56,3.56,0,0,1,2.25.58,2.18,2.18,0,0,1,.72,1.79Zm-1.49.85v-.5a1.23,1.23,0,0,0,0-.29,2.57,2.57,0,0,0-1.54.46.87.87,0,0,0-.42.73.62.62,0,0,0,.2.47.86.86,0,0,0,.61.19,1.43,1.43,0,0,0,.78-.24A.88.88,0,0,0,140,166.28Z"/><path class="cls-2" d="M144.41,165.4v1.51a9.4,9.4,0,0,1,0,1.48,1.2,1.2,0,0,1-.6.27,3.6,3.6,0,0,1-.7.09c-.18,0-.28,0-.28,0a13.06,13.06,0,0,0,.1-2l0-3a3.09,3.09,0,0,1,.06-.9,1.48,1.48,0,0,1,.51-.26,2.46,2.46,0,0,1,.67-.11c.21,0,.32,0,.32.07a4.49,4.49,0,0,0,0,.64c0,.21,0,.32,0,.32l0,0a1.69,1.69,0,0,1,.2-.23,2.51,2.51,0,0,1,.57-.37,1.67,1.67,0,0,1,.82-.24,1.51,1.51,0,0,1,.67.14,1.56,1.56,0,0,1,.44.34,1.6,1.6,0,0,1,.3.57,5.84,5.84,0,0,1,.2.7,6.65,6.65,0,0,1,.1.85c0,.49,0,1.11,0,1.87l0,1.56c0,.06-.14.12-.44.18a3.6,3.6,0,0,1-.7.09l-.44-.07a20.86,20.86,0,0,0,.13-2.33,7.09,7.09,0,0,0-.15-1.69c-.09-.38-.29-.57-.58-.57a1.08,1.08,0,0,0-.72.24,1.22,1.22,0,0,0-.35.48l-.09.23Z"/><path class="cls-2" d="M153.88,165.1l0,3.16a5.47,5.47,0,0,1-.28,1.84,3.55,3.55,0,0,1-.68,1.26,3.19,3.19,0,0,1-.92.72,3.35,3.35,0,0,1-1.69.47s-.08-.06-.16-.2a2.27,2.27,0,0,1-.23-.55,2.17,2.17,0,0,1-.1-.64h.25a2.78,2.78,0,0,0,.51,0,2,2,0,0,0,.61-.26,2,2,0,0,0,.61-.56,3.14,3.14,0,0,0,.44-1,5.77,5.77,0,0,0,.19-1.59.12.12,0,0,0,0-.05l0,0a1.94,1.94,0,0,1-1.75.87,1.71,1.71,0,0,1-1.43-.71,2.6,2.6,0,0,1-.53-1.59,3.6,3.6,0,0,1,1-2.64,4,4,0,0,1,2.94-1c.31,0,.47,0,.47.07a2.56,2.56,0,0,1,0,.49v.2h.14a1.45,1.45,0,0,1,.58.08ZM152.42,164l-.28,0a1.71,1.71,0,0,0-1.35.55,2,2,0,0,0-.5,1.38,1.07,1.07,0,0,0,.25.72.85.85,0,0,0,.72.31,1,1,0,0,0,.79-.38,1,1,0,0,0,.32-.59C152.37,164.91,152.39,164.26,152.42,164Z"/><path class="cls-2" d="M159.34,168.4a3.4,3.4,0,0,1-1.77.31,2.6,2.6,0,0,1-2-.78,3.05,3.05,0,0,1-.7-2.11,3.38,3.38,0,0,1,.84-2.28,3,3,0,0,1,2.38-1,2.17,2.17,0,0,1,1.16.33,1.27,1.27,0,0,1,.52,1.17,2.45,2.45,0,0,1-.73,1.64,4.42,4.42,0,0,1-2,1.24c0,.11.1.2.32.26a2.1,2.1,0,0,0,.65.1,3,3,0,0,0,1.6-.36h0s0,.09,0,.26A1.89,1.89,0,0,1,159.34,168.4Zm-1.16-4.24c0-.25-.14-.38-.41-.38a1.15,1.15,0,0,0-1,.56,2.16,2.16,0,0,0-.41,1.34c0,.13,0,.19,0,.19a1.91,1.91,0,0,0,1.11-.55A1.56,1.56,0,0,0,158.18,164.16Z"/><path class="cls-2" d="M160.74,166.51l0-4.83c0-.7,0-1.17,0-1.42s0-.38,0-.4.15-.19.45-.31a2.35,2.35,0,0,1,.79-.17c.23,0,.35,0,.35.05-.05.33-.07,1.49-.07,3.47l0,3.26q0,.93,0,1.14a2.43,2.43,0,0,0,.39,1.07c0,.08-.18.23-.55.42a2,2,0,0,1-.93.29c-.07,0-.15-.13-.24-.4a3.05,3.05,0,0,1-.16-.69C160.75,167.8,160.74,167.3,160.74,166.51Z"/><path class="cls-2" d="M164.43,160.44a.78.78,0,0,1,.59.24.89.89,0,0,1,.23.63.85.85,0,0,1-.3.66,1,1,0,0,1-.67.27.77.77,0,0,1-.59-.23.94.94,0,0,1,.08-1.29A.94.94,0,0,1,164.43,160.44Zm.67,3.32,0,2.17a13.68,13.68,0,0,0,.06,1.52,2.24,2.24,0,0,0,.34.92c0,.08-.18.23-.54.42a2,2,0,0,1-.94.29c-.08,0-.16-.13-.24-.4a3.69,3.69,0,0,1-.15-.75c0-.25,0-1.05,0-2.43a12.92,12.92,0,0,1,.09-2.26,1.83,1.83,0,0,1,1.08-.24.58.58,0,0,1,.38.08Z"/><path class="cls-2" d="M169.13,168.79a3,3,0,0,1-2.26-.77,2.77,2.77,0,0,1-.73-2,3.33,3.33,0,0,1,1.1-2.61,3.9,3.9,0,0,1,2.69-1h.36c.05,0,.08.26.08.64s-.06.61-.16.69h-.09a2.69,2.69,0,0,0-1.67.48,1.62,1.62,0,0,0-.47.63,2.41,2.41,0,0,0-.2,1,1.41,1.41,0,0,0,.36,1,1.52,1.52,0,0,0,1.16.39,2.45,2.45,0,0,0,1.11-.24l.06,0c.08.08.11.32.11.72s-.05.66-.15.74A2.62,2.62,0,0,1,169.13,168.79Z"/><path class="cls-2" d="M176.2,165.43q0,1.66,0,1.95a1.77,1.77,0,0,0,.46,1.05c0,.1-.18.25-.53.44a1.94,1.94,0,0,1-.95.29c-.08,0-.17-.11-.26-.35a3.55,3.55,0,0,1-.15-.53c0-.11,0-.17,0-.17l0,0a2.59,2.59,0,0,1-1.65.56,2.13,2.13,0,0,1-1.46-.46,1.53,1.53,0,0,1-.52-1.21,2.27,2.27,0,0,1,.33-1.26,2.39,2.39,0,0,1,.77-.78,4.08,4.08,0,0,1,1-.43,4.63,4.63,0,0,1,1.28-.26l0,0c0-.43-.56-.65-1.66-.65a7.41,7.41,0,0,0-1,.05h0A1.78,1.78,0,0,1,172,163a2,2,0,0,1,.28-.52,1.93,1.93,0,0,1,.95-.12,3.55,3.55,0,0,1,2.25.58,2.18,2.18,0,0,1,.72,1.79Zm-1.48.85v-.5a.88.88,0,0,0,0-.29,2.57,2.57,0,0,0-1.54.46.87.87,0,0,0-.42.73.62.62,0,0,0,.2.47.86.86,0,0,0,.61.19,1.48,1.48,0,0,0,.79-.24A.9.9,0,0,0,174.72,166.28Z"/><path class="cls-2" d="M177.56,166.51l.05-4.83c0-.7,0-1.17,0-1.42s0-.38,0-.4.14-.19.44-.31a2.35,2.35,0,0,1,.79-.17c.24,0,.35,0,.35.05,0,.33-.07,1.49-.07,3.47l0,3.26c0,.62,0,1,0,1.14a2.56,2.56,0,0,0,.39,1.07c0,.08-.18.23-.55.42a2,2,0,0,1-.93.29c-.07,0-.15-.13-.24-.4a3.05,3.05,0,0,1-.16-.69C177.56,167.8,177.56,167.3,177.56,166.51Z"/><path class="cls-2" d="M212,107.18l.07,5.33a4.19,4.19,0,0,1,0,.66,2.23,2.23,0,0,1-1.35.37l-.37-.07a49.28,49.28,0,0,0,.2-5.46c0-.67,0-1.16,0-1.47l-.59,0a1.37,1.37,0,0,1-.07-.59,1,1,0,0,1,.12-.64l.52,0,0-1.61c0-.14.31-.38,1-.71a4.19,4.19,0,0,1,1.66-.49c.05,0,.12.1.2.3a1.24,1.24,0,0,1,.13.47c0,.11,0,.18,0,.2a2,2,0,0,0-.35.14,7.17,7.17,0,0,0-.64.36c-.22.15-.34.28-.35.38s-.06.55-.08,1h.06a5.18,5.18,0,0,1,1.08,0,1.93,1.93,0,0,1-.26,1c-.06.11-.11.16-.16.16l-.73,0Z"/><path class="cls-2" d="M218.89,111.75a2.54,2.54,0,0,1-2.08.92,2.67,2.67,0,0,1-2.06-.81,3,3,0,0,1-.74-2.11,3.29,3.29,0,0,1,.92-2.31,3.24,3.24,0,0,1,2.5-1,2.55,2.55,0,0,1,.7.08.46.46,0,0,1,.05.26,2.39,2.39,0,0,1,0,.44,1,1,0,0,1,.51.23,3.49,3.49,0,0,1,.52.47,2.05,2.05,0,0,1,.34.68,2.93,2.93,0,0,1,.15,1A3.3,3.3,0,0,1,218.89,111.75Zm-1.18-3.13a1.1,1.1,0,0,0-.6-.2H217a.53.53,0,0,1,0-.23,1.24,1.24,0,0,1,0-.33,1.43,1.43,0,0,0-1,.49,1.9,1.9,0,0,0-.47,1.38,1.55,1.55,0,0,0,.66,1.44,1.39,1.39,0,0,0,.7.16,1.14,1.14,0,0,0,.84-.42,1.66,1.66,0,0,0,.4-1.22A1.16,1.16,0,0,0,217.71,108.62Z"/><path class="cls-2" d="M223.45,112.71a3,3,0,0,1-2.26-.77,2.7,2.7,0,0,1-.73-2,3.33,3.33,0,0,1,1.1-2.61,3.9,3.9,0,0,1,2.69-1h.36a1.34,1.34,0,0,1,.08.64c0,.38-.06.61-.16.69h-.1a2.68,2.68,0,0,0-1.66.48,1.68,1.68,0,0,0-.47.63,2.49,2.49,0,0,0-.2,1,1.4,1.4,0,0,0,.36,1,1.52,1.52,0,0,0,1.16.39,2.45,2.45,0,0,0,1.11-.24l.06,0a1.33,1.33,0,0,1,.11.72c0,.41-.05.65-.15.73A2.62,2.62,0,0,1,223.45,112.71Z"/><path class="cls-2" d="M229.13,111.82l0-.28v0a2.35,2.35,0,0,1-.81.79,1.78,1.78,0,0,1-.95.29c-.93,0-1.47-.72-1.6-2.17,0-.23,0-.83,0-1.79a6.39,6.39,0,0,1,.12-1.7,1.77,1.77,0,0,1,1.12-.28.71.71,0,0,1,.38.06s0,.13,0,.36q-.06,1-.06,1.56c0,.37,0,.64,0,.81s0,.29,0,.33a2.42,2.42,0,0,0,0,.26.86.86,0,0,0,.1.32.65.65,0,0,0,.62.39,1,1,0,0,0,.75-.42,1.2,1.2,0,0,0,.31-.59v-.46a19.55,19.55,0,0,1,.08-2.62.8.8,0,0,1,.42-.26,2.21,2.21,0,0,1,.7-.13.91.91,0,0,1,.4,0l0,.63c0,1.27-.08,2.25-.08,3a8.56,8.56,0,0,0,.06,1.32,2.45,2.45,0,0,0,.36,1.06c0,.09-.19.24-.55.43a2,2,0,0,1-.93.29c-.08,0-.16-.13-.24-.4A3.11,3.11,0,0,1,229.13,111.82Z"/><path class="cls-2" d="M235.55,110.79a1.66,1.66,0,0,1-.67,1.29,4.11,4.11,0,0,1-1.45.81,4.49,4.49,0,0,1-1.37.25c-.05,0-.11,0-.19-.16a1.65,1.65,0,0,1-.33-1v-.09a2.92,2.92,0,0,0,1.59-.36q.54-.36.54-.75a.77.77,0,0,0-.33-.53,4.05,4.05,0,0,0-.73-.49,2.82,2.82,0,0,1-.74-.57,1.06,1.06,0,0,1-.33-.74,1.87,1.87,0,0,1,1-1.49,3.78,3.78,0,0,1,2.16-.68c.09,0,.21.12.35.36a1.67,1.67,0,0,1,.23.76,2.9,2.9,0,0,0-.8.16c-.71.22-1.06.5-1.06.82s.35.55,1,1a2.53,2.53,0,0,1,.73.63A1.33,1.33,0,0,1,235.55,110.79Z"/><path class="cls-2" d="M240.79,112.33a3.53,3.53,0,0,1-1.77.3,2.62,2.62,0,0,1-2-.78,3,3,0,0,1-.7-2.1,3.35,3.35,0,0,1,.84-2.28,3,3,0,0,1,2.38-1,2.17,2.17,0,0,1,1.16.33,1.29,1.29,0,0,1,.52,1.17,2.48,2.48,0,0,1-.72,1.65,4.7,4.7,0,0,1-2,1.24c0,.1.11.19.32.26a2.5,2.5,0,0,0,.65.1,3.06,3.06,0,0,0,1.6-.36l0,0s0,.09,0,.26A1.94,1.94,0,0,1,240.79,112.33Zm-1.16-4.24c0-.26-.13-.39-.41-.39a1.21,1.21,0,0,0-1,.56,2.17,2.17,0,0,0-.41,1.35c0,.12,0,.18.05.18a1.85,1.85,0,0,0,1.11-.55A1.54,1.54,0,0,0,239.63,108.09Z"/><path class="cls-2" d="M245.53,106.61l0-2a3.58,3.58,0,0,1,0-.86,1.74,1.74,0,0,1,.53-.32,1.79,1.79,0,0,1,.69-.15c.23,0,.34,0,.34,0-.07,1.48-.11,3.05-.11,4.71s0,2.65.08,3a1.8,1.8,0,0,0,.44,1.07c0,.09-.18.23-.55.42a2.16,2.16,0,0,1-.94.29s-.07,0-.12-.11a1.75,1.75,0,0,1-.31-.91s0,0,0,0l0,0a1.92,1.92,0,0,1-1.67.8,1.62,1.62,0,0,1-1.41-.71,2.58,2.58,0,0,1-.52-1.58,3.76,3.76,0,0,1,.93-2.57A3.48,3.48,0,0,1,245.53,106.61Zm0,1.4s-.05,0-.14,0h-.06a1.69,1.69,0,0,0-1.34.55,2,2,0,0,0-.48,1.38,1.3,1.3,0,0,0,.23.81.83.83,0,0,0,.71.31.88.88,0,0,0,.76-.41,1.26,1.26,0,0,0,.28-.65C245.51,109,245.53,108.33,245.55,108Z"/><path class="cls-2" d="M124.88,268.2a3,3,0,0,1-2.26-.77,2.73,2.73,0,0,1-.73-1.95,3.33,3.33,0,0,1,1.1-2.61,3.9,3.9,0,0,1,2.69-1H126s.08.26.08.64-.06.61-.16.69h-.1a2.68,2.68,0,0,0-1.66.48,1.53,1.53,0,0,0-.47.63,2.46,2.46,0,0,0-.2,1,1.4,1.4,0,0,0,.36,1,1.5,1.5,0,0,0,1.16.39,2.45,2.45,0,0,0,1.11-.24l.06,0a1.33,1.33,0,0,1,.11.72c0,.4,0,.65-.15.73A2.65,2.65,0,0,1,124.88,268.2Z"/><path class="cls-2" d="M127.28,265.23l0-4.63a6.1,6.1,0,0,1,.07-1.36,1.62,1.62,0,0,1,.52-.3,1.79,1.79,0,0,1,.69-.15c.23,0,.34,0,.34,0s0,.66-.06,1.75,0,1.79,0,2.13v.12c0,.05,0,.07,0,.07l.27-.27a3.2,3.2,0,0,1,.59-.36,1.8,1.8,0,0,1,.84-.24,1.43,1.43,0,0,1,.66.14,1.27,1.27,0,0,1,.43.32,1.36,1.36,0,0,1,.29.54,5.1,5.1,0,0,1,.19.65c0,.2.07.47.09.82s0,1.06,0,1.78l-.05,1.78c0,.07-.18.13-.45.19a4.07,4.07,0,0,1-.68.08l-.44-.07a20.64,20.64,0,0,0,.13-2.31,6.48,6.48,0,0,0-.16-1.68c-.11-.38-.32-.57-.65-.57a.87.87,0,0,0-.6.25,1.45,1.45,0,0,0-.39.51l-.12.25c0,.62,0,1.27,0,2a3.51,3.51,0,0,1-.07,1.1,2.22,2.22,0,0,1-1.46.36c-.08,0-.11,0-.11,0A22.38,22.38,0,0,0,127.28,265.23Z"/><path class="cls-2" d="M137.9,264.84c0,1.11,0,1.76,0,2a1.66,1.66,0,0,0,.46,1c0,.1-.18.25-.53.44a1.94,1.94,0,0,1-1,.29c-.08,0-.17-.11-.26-.35a2.17,2.17,0,0,1-.15-.52.85.85,0,0,0,0-.18l0,0a2.64,2.64,0,0,1-1.66.56,2.1,2.1,0,0,1-1.46-.46,1.56,1.56,0,0,1-.51-1.21,2.27,2.27,0,0,1,.33-1.26,2.37,2.37,0,0,1,.76-.78,3.92,3.92,0,0,1,1-.42,4.3,4.3,0,0,1,1.28-.27h0q0-.66-1.65-.66a5.65,5.65,0,0,0-1,.06h0a1.87,1.87,0,0,1,.17-.67,1.74,1.74,0,0,1,.28-.52c.07-.08.39-.12.95-.12a3.51,3.51,0,0,1,2.24.58,2.16,2.16,0,0,1,.72,1.79Zm-1.48.86v-.51a1.23,1.23,0,0,0,0-.29,2.6,2.6,0,0,0-1.55.46.89.89,0,0,0-.41.74.61.61,0,0,0,.2.46.83.83,0,0,0,.61.19,1.43,1.43,0,0,0,.78-.24A.87.87,0,0,0,136.42,265.7Z"/><path class="cls-2" d="M144.14,264.51l0,3.16a5.47,5.47,0,0,1-.28,1.84,3.71,3.71,0,0,1-.68,1.26,3.41,3.41,0,0,1-.92.73,3.47,3.47,0,0,1-1.69.46s-.08-.06-.16-.2a2.35,2.35,0,0,1-.23-.54,2.33,2.33,0,0,1-.11-.65h.26a2.85,2.85,0,0,0,.51,0,2.08,2.08,0,0,0,.61-.26,2,2,0,0,0,.61-.56,3.26,3.26,0,0,0,.44-1,6.16,6.16,0,0,0,.19-1.58s0-.06,0-.06l0,0a1.91,1.91,0,0,1-1.74.87,1.7,1.7,0,0,1-1.43-.71,2.53,2.53,0,0,1-.53-1.58,3.64,3.64,0,0,1,1-2.65,4,4,0,0,1,3-1c.31,0,.47,0,.47.06a3.75,3.75,0,0,1,0,.5l0,.2h.15a1.26,1.26,0,0,1,.57.08Zm-1.45-1.12-.28,0a1.71,1.71,0,0,0-1.35.55,2,2,0,0,0-.5,1.38,1.12,1.12,0,0,0,.24.72.87.87,0,0,0,.72.31,1,1,0,0,0,.8-.37,1.1,1.1,0,0,0,.32-.6C142.64,264.32,142.65,263.67,142.69,263.39Z"/><path class="cls-2" d="M145.4,266l0-3a3.2,3.2,0,0,1,0-.84,1.2,1.2,0,0,1,.51-.26,2.08,2.08,0,0,1,.67-.11c.21,0,.32,0,.32.06a6.71,6.71,0,0,0,0,.82,1.59,1.59,0,0,0,0,.46.09.09,0,0,0,.06,0L147,263l.26-.26a2.22,2.22,0,0,1,.42-.32,2.18,2.18,0,0,1,1.22-.37,1,1,0,0,1,.11.53,2.19,2.19,0,0,1-.19,1.08l-.05.11-.17,0a1.75,1.75,0,0,0-1.51.79,1,1,0,0,0-.21.48v1.17a15.16,15.16,0,0,1,0,1.64,2.18,2.18,0,0,1-1.47.36c-.07,0-.11,0-.11,0A14.82,14.82,0,0,0,145.4,266Z"/><path class="cls-2" d="M150.67,259.85a.78.78,0,0,1,.59.25.91.91,0,0,1-.07,1.28,1,1,0,0,1-.67.28.74.74,0,0,1-.58-.24.94.94,0,0,1,.07-1.28A.91.91,0,0,1,150.67,259.85Zm.67,3.33,0,2.16a13.68,13.68,0,0,0,.06,1.52,2.1,2.1,0,0,0,.34.92c0,.08-.19.23-.55.42a2.06,2.06,0,0,1-.94.3c-.07,0-.16-.14-.23-.4a4,4,0,0,1-.16-.76q0-.36,0-2.43a12.67,12.67,0,0,1,.09-2.25,1.83,1.83,0,0,1,1.08-.24c.21,0,.33,0,.38.08Z"/><path class="cls-2" d="M154.26,264.82v1.5a8.09,8.09,0,0,1-.05,1.48,1.12,1.12,0,0,1-.6.27,3.51,3.51,0,0,1-.7.09c-.18,0-.27,0-.27,0a15,15,0,0,0,.09-2l0-3a2.45,2.45,0,0,1,.07-.89,1.15,1.15,0,0,1,.5-.26,2.17,2.17,0,0,1,.68-.12c.21,0,.31,0,.31.07a4.58,4.58,0,0,0,0,.64c0,.21,0,.32,0,.32l0,0a2.91,2.91,0,0,1,.2-.23,2.51,2.51,0,0,1,.57-.37,1.7,1.7,0,0,1,.82-.24,1.48,1.48,0,0,1,.67.14,1.77,1.77,0,0,1,.45.34,2.07,2.07,0,0,1,.3.58,5.14,5.14,0,0,1,.19.69c0,.21.08.5.11.85s0,1.11,0,1.87l0,1.56c0,.06-.15.12-.44.18a3.78,3.78,0,0,1-.71.09l-.44-.07a20.86,20.86,0,0,0,.13-2.33,7.2,7.2,0,0,0-.14-1.69c-.1-.38-.3-.57-.59-.57a1,1,0,0,0-.71.24,1.26,1.26,0,0,0-.36.48l-.09.23Z"/><path class="cls-2" d="M163.09,267.82a3.57,3.57,0,0,1-1.78.3,2.59,2.59,0,0,1-2-.78,3.05,3.05,0,0,1-.71-2.1,3.31,3.31,0,0,1,.85-2.28,3,3,0,0,1,2.38-1,2.11,2.11,0,0,1,1.15.33,1.27,1.27,0,0,1,.53,1.17,2.49,2.49,0,0,1-.73,1.65,4.58,4.58,0,0,1-2,1.24c0,.1.11.19.33.26a2.43,2.43,0,0,0,.64.1,3,3,0,0,0,1.6-.36l.05,0a.76.76,0,0,1,0,.26A1.94,1.94,0,0,1,163.09,267.82Zm-1.16-4.25c0-.25-.14-.38-.42-.38a1.18,1.18,0,0,0-.95.56,2.17,2.17,0,0,0-.42,1.35c0,.12,0,.18.05.18a1.91,1.91,0,0,0,1.11-.55A1.53,1.53,0,0,0,161.93,263.57Z"/><path class="cls-2" d="M167.82,262.1l0-2a4.38,4.38,0,0,1,0-.86,1.67,1.67,0,0,1,.53-.32,1.84,1.84,0,0,1,.7-.15c.22,0,.33,0,.33,0-.07,1.48-.1,3.05-.1,4.71a27.16,27.16,0,0,0,.08,3,1.8,1.8,0,0,0,.44,1.07c0,.09-.19.23-.56.42a2.13,2.13,0,0,1-.94.28s-.06,0-.12-.1a1.78,1.78,0,0,1-.3-.91s0,0,0,0l0,0a1.91,1.91,0,0,1-1.67.8,1.67,1.67,0,0,1-1.41-.71,2.58,2.58,0,0,1-.52-1.58,3.76,3.76,0,0,1,.93-2.57A3.5,3.5,0,0,1,167.82,262.1Zm0,1.4s0,0-.15,0h0a1.7,1.7,0,0,0-1.34.54,2,2,0,0,0-.49,1.39,1.36,1.36,0,0,0,.23.81.84.84,0,0,0,.71.31.89.89,0,0,0,.76-.41,1.33,1.33,0,0,0,.29-.65C167.81,264.47,167.82,263.82,167.85,263.5Z"/><path class="cls-2" d="M206.48,234.41l0-4.92a9.73,9.73,0,0,1,.07-1.74,1.77,1.77,0,0,1,.53-.3,1.84,1.84,0,0,1,.7-.15c.22,0,.33,0,.33,0s0,.6-.07,1.52,0,1.49,0,1.71h.22a4,4,0,0,1,2.41.68,2.34,2.34,0,0,1,.65.83,2.79,2.79,0,0,1,.28,1.29,2.62,2.62,0,0,1-1,2.11,5.16,5.16,0,0,1-2.52,1.09,1.32,1.32,0,0,1,0,.33,1.12,1.12,0,0,1-.6.27,3.69,3.69,0,0,1-.71.09q-.27,0-.27,0A22.34,22.34,0,0,0,206.48,234.41Zm1.53.7a2.29,2.29,0,0,0,.72-.11,1.73,1.73,0,0,0,.61-.29,1.44,1.44,0,0,0,.43-.54,2.14,2.14,0,0,0,.19-1,1.1,1.1,0,0,0-.42-.92,1.56,1.56,0,0,0-1-.31l-.61,0v1C208,234.15,208,234.87,208,235.11Z"/><path class="cls-2" d="M217.22,235.75a2.54,2.54,0,0,1-2.08.92,2.66,2.66,0,0,1-2.06-.81,3,3,0,0,1-.75-2.11,3.3,3.3,0,0,1,.93-2.31,3.24,3.24,0,0,1,2.5-1,2.36,2.36,0,0,1,.69.08.38.38,0,0,1,.06.26,3.77,3.77,0,0,1,0,.44,1,1,0,0,1,.51.23,3,3,0,0,1,.51.47,2.05,2.05,0,0,1,.35.68,2.93,2.93,0,0,1,.15,1A3.35,3.35,0,0,1,217.22,235.75ZM216,232.62a1.1,1.1,0,0,0-.6-.2h-.11a.92.92,0,0,1,0-.23,1.24,1.24,0,0,1,0-.33,1.41,1.41,0,0,0-1,.49,1.9,1.9,0,0,0-.48,1.38,1.56,1.56,0,0,0,.67,1.44,1.37,1.37,0,0,0,.7.16,1.14,1.14,0,0,0,.84-.42,1.7,1.7,0,0,0,.39-1.22C216.45,233.15,216.32,232.79,216,232.62Z"/><path class="cls-2" d="M222.33,235.82v-.31a2.54,2.54,0,0,1-.81.79,1.78,1.78,0,0,1-.95.29c-.94,0-1.47-.72-1.6-2.17,0-.23,0-.83,0-1.79a6.39,6.39,0,0,1,.12-1.7,1.77,1.77,0,0,1,1.12-.28c.21,0,.33,0,.37.06s0,.13,0,.36c0,.68-.07,1.2-.07,1.56s0,.64,0,.81,0,.29,0,.33a1.16,1.16,0,0,0,0,.26.86.86,0,0,0,.1.32.65.65,0,0,0,.62.39.92.92,0,0,0,.74-.42c.22-.28.33-.48.32-.59v-.46a17.71,17.71,0,0,1,.08-2.62.8.8,0,0,1,.42-.26,2.16,2.16,0,0,1,.7-.13.91.91,0,0,1,.4.05l0,.63c0,1.27-.08,2.25-.08,2.95a11,11,0,0,0,0,1.32,2.74,2.74,0,0,0,.36,1.06c0,.09-.18.24-.54.43a2,2,0,0,1-.94.29c-.07,0-.15-.13-.24-.4A3.64,3.64,0,0,1,222.33,235.82Z"/><path class="cls-2" d="M226.76,233.33v1.5a8,8,0,0,1-.05,1.48,1.2,1.2,0,0,1-.6.27,3.51,3.51,0,0,1-.7.09c-.18,0-.27,0-.27,0a14.81,14.81,0,0,0,.09-2l0-3a2.45,2.45,0,0,1,.07-.89,1.1,1.1,0,0,1,.5-.26,2.17,2.17,0,0,1,.68-.12c.21,0,.31,0,.31.07a4.58,4.58,0,0,0,0,.64c0,.21,0,.32,0,.32l0,0a1.69,1.69,0,0,1,.2-.23,2.51,2.51,0,0,1,.57-.37,1.67,1.67,0,0,1,.82-.24,1.48,1.48,0,0,1,.67.14,1.77,1.77,0,0,1,.45.34,2.07,2.07,0,0,1,.3.58c.08.25.14.48.19.69s.08.5.11.85,0,1.12,0,1.87l0,1.56c0,.06-.15.12-.44.18a3.78,3.78,0,0,1-.71.09l-.44-.07a20.68,20.68,0,0,0,.13-2.32,7.83,7.83,0,0,0-.14-1.7c-.1-.38-.3-.57-.59-.57a1,1,0,0,0-.71.24,1.16,1.16,0,0,0-.36.48l-.09.23Z"/><path class="cls-2" d="M233,227.59c0,.21,0,.77-.07,1.68a5.36,5.36,0,0,1,1,0,2.22,2.22,0,0,1-.13.81c-.09.24-.17.35-.25.35H233q0,2,0,3.21c0,.82,0,1.37,0,1.65a1.81,1.81,0,0,0,.55,1.13c0,.1-.17.24-.51.43a2.15,2.15,0,0,1-1,.28s-.08,0-.15-.14a1.32,1.32,0,0,1-.24-.44,1.91,1.91,0,0,1-.16-.6c0-.19,0-.89,0-2.09s0-2.33,0-3.4h-.74c-.05,0-.07-.23-.07-.58a1,1,0,0,1,.12-.62l.71,0a8.88,8.88,0,0,0,0-1,1.82,1.82,0,0,1,0-.27c0-.09.15-.19.46-.31a2.4,2.4,0,0,1,.8-.17C232.92,227.54,233,227.56,233,227.59Z"/><path class="cls-2" d="M235.26,228.37a.78.78,0,0,1,.59.24.89.89,0,0,1,.23.63.85.85,0,0,1-.3.65.94.94,0,0,1-.67.28.74.74,0,0,1-.58-.24.84.84,0,0,1-.22-.62.86.86,0,0,1,.29-.66A.9.9,0,0,1,235.26,228.37Zm.67,3.32,0,2.16a13.68,13.68,0,0,0,.06,1.52,2.1,2.1,0,0,0,.34.92c0,.09-.19.23-.55.42a2,2,0,0,1-.93.3c-.08,0-.16-.14-.24-.4a3.83,3.83,0,0,1-.16-.76q0-.36,0-2.43a12.67,12.67,0,0,1,.09-2.25,1.83,1.83,0,0,1,1.08-.24.58.58,0,0,1,.38.08Z"/><path class="cls-2" d="M239,231.18l.06,5.33c0,.35,0,.57,0,.66a2.23,2.23,0,0,1-1.35.37l-.37-.07a49.28,49.28,0,0,0,.2-5.46c0-.67,0-1.16,0-1.47l-.58,0s-.07-.24-.07-.59a1,1,0,0,1,.12-.64l.52,0,0-1.61c0-.14.31-.38,1-.71a4.2,4.2,0,0,1,1.65-.49q.09,0,.21.3a1.46,1.46,0,0,1,.13.47.64.64,0,0,1,0,.2l-.34.14a6,6,0,0,0-.64.36c-.23.15-.34.28-.35.38a9,9,0,0,0-.08,1h.05a5.18,5.18,0,0,1,1.08,0,1.93,1.93,0,0,1-.25,1c-.06.11-.12.16-.16.16l-.73,0Z"/><path class="cls-2" d="M243.89,235.82v-.31a2.54,2.54,0,0,1-.81.79,1.8,1.8,0,0,1-.95.29c-.94,0-1.47-.72-1.6-2.17,0-.23,0-.83,0-1.79a6.39,6.39,0,0,1,.12-1.7,1.75,1.75,0,0,1,1.12-.28.67.67,0,0,1,.37.06s0,.13,0,.36c-.05.68-.07,1.2-.07,1.56s0,.64,0,.81a1.87,1.87,0,0,0,0,.33,1.16,1.16,0,0,0,0,.26.86.86,0,0,0,.1.32.65.65,0,0,0,.62.39.92.92,0,0,0,.74-.42,1.25,1.25,0,0,0,.32-.59v-.46a17.71,17.71,0,0,1,.08-2.62.8.8,0,0,1,.42-.26,2.16,2.16,0,0,1,.7-.13.91.91,0,0,1,.4.05l0,.63c-.05,1.27-.08,2.25-.08,2.95a11,11,0,0,0,0,1.32,2.45,2.45,0,0,0,.36,1.06c0,.09-.18.24-.54.43a2,2,0,0,1-.94.29c-.07,0-.15-.13-.24-.4A3.11,3.11,0,0,1,243.89,235.82Z"/><path class="cls-2" d="M246.71,234.43l0-4.82c0-.7,0-1.18,0-1.43s0-.38,0-.4.14-.19.44-.31a2.4,2.4,0,0,1,.8-.17c.23,0,.34,0,.34,0,0,.33-.06,1.49-.06,3.47l0,3.27c0,.61,0,1,0,1.13a2.37,2.37,0,0,0,.38,1.07q0,.14-.54.42a2.06,2.06,0,0,1-.94.3c-.07,0-.15-.14-.24-.4a3.25,3.25,0,0,1-.16-.7C246.72,235.72,246.71,235.23,246.71,234.43Z"/><path class="cls-2" d="M48.94,254.33l0-4.92a8.46,8.46,0,0,1,.07-1.73,1.51,1.51,0,0,1,.52-.31,1.88,1.88,0,0,1,.7-.15c.22,0,.34,0,.34.06s0,.59-.08,1.51,0,1.49,0,1.71h.21a4.05,4.05,0,0,1,2.42.68,2.52,2.52,0,0,1,.65.84A2.77,2.77,0,0,1,54,253.3a2.63,2.63,0,0,1-1,2.12,5.16,5.16,0,0,1-2.52,1.08,2,2,0,0,1,0,.34,1.29,1.29,0,0,1-.61.26,3.06,3.06,0,0,1-.7.1c-.19,0-.28,0-.28,0A21.23,21.23,0,0,0,48.94,254.33Zm1.53.71a2.36,2.36,0,0,0,.72-.12,2,2,0,0,0,.61-.28,1.69,1.69,0,0,0,.42-.55,2.09,2.09,0,0,0,.2-1,1.08,1.08,0,0,0-.42-.92,1.53,1.53,0,0,0-1-.32l-.61,0v1C50.42,254.08,50.43,254.8,50.47,255Z"/><path class="cls-2" d="M59.48,253.28c0,1.11,0,1.76,0,1.94a1.72,1.72,0,0,0,.46,1.06c0,.09-.18.24-.53.44a2.05,2.05,0,0,1-1,.29c-.08,0-.17-.12-.26-.35a2.21,2.21,0,0,1-.15-.53c0-.12,0-.17,0-.17l0,0a2.58,2.58,0,0,1-1.66.56,2.1,2.1,0,0,1-1.46-.46,1.54,1.54,0,0,1-.51-1.2,2.27,2.27,0,0,1,.33-1.26,2.19,2.19,0,0,1,.76-.78,4.34,4.34,0,0,1,1-.43,4.3,4.3,0,0,1,1.28-.27h0c0-.44-.55-.65-1.65-.65a5.9,5.9,0,0,0-1,.05h0a2.62,2.62,0,0,1,.45-1.19c.07-.08.39-.12,1-.12a3.58,3.58,0,0,1,2.24.58,2.18,2.18,0,0,1,.72,1.8Zm-1.48.85v-.51a1.29,1.29,0,0,0,0-.29,2.61,2.61,0,0,0-1.55.47.87.87,0,0,0-.41.73.63.63,0,0,0,.2.47.89.89,0,0,0,.61.18,1.43,1.43,0,0,0,.78-.24A.87.87,0,0,0,58,254.13Z"/><path class="cls-2" d="M62.32,251.1l.07,5.34a4.12,4.12,0,0,1,0,.65,2.19,2.19,0,0,1-1.34.37l-.38-.06a47.16,47.16,0,0,0,.2-5.47c0-.67,0-1.16,0-1.47l-.59,0a1.42,1.42,0,0,1-.06-.59,1.06,1.06,0,0,1,.12-.64l.52,0,0-1.62c0-.14.31-.37,1-.7a4,4,0,0,1,1.65-.5s.12.1.21.3a1.39,1.39,0,0,1,.12.47,1,1,0,0,1,0,.21,1.53,1.53,0,0,0-.35.14,4.23,4.23,0,0,0-.64.36c-.22.14-.34.27-.34.38a6.59,6.59,0,0,0-.08.94h0a6.29,6.29,0,0,1,1.08,0,2,2,0,0,1-.25,1c-.07.11-.12.16-.16.16l-.74,0Z"/><path class="cls-2" d="M65.92,251.1l.07,5.34a4.12,4.12,0,0,1,0,.65,2.17,2.17,0,0,1-1.34.37l-.38-.06a47.16,47.16,0,0,0,.2-5.47c0-.67,0-1.16,0-1.47l-.59,0a1.42,1.42,0,0,1-.06-.59,1.06,1.06,0,0,1,.12-.64l.52,0,0-1.62c0-.14.31-.37,1-.7a4,4,0,0,1,1.65-.5s.12.1.21.3a1.39,1.39,0,0,1,.12.47,1,1,0,0,1,0,.21,1.53,1.53,0,0,0-.35.14,4.23,4.23,0,0,0-.64.36c-.22.14-.34.27-.34.38a6.59,6.59,0,0,0-.08.94h0a6.29,6.29,0,0,1,1.08,0,2,2,0,0,1-.25,1c-.07.11-.12.16-.16.16l-.74,0Z"/><path class="cls-2" d="M68.18,254.36l0-4.83c0-.7,0-1.18,0-1.43s0-.38,0-.4.14-.19.44-.3a2.16,2.16,0,0,1,.8-.18c.23,0,.34,0,.34.06,0,.33-.06,1.48-.06,3.46l0,3.27c0,.61,0,1,0,1.13a2.33,2.33,0,0,0,.38,1.07c0,.09-.18.23-.54.43a2.16,2.16,0,0,1-.94.29c-.07,0-.15-.13-.24-.4a3.31,3.31,0,0,1-.16-.69C68.18,255.64,68.18,255.15,68.18,254.36Z"/><path class="cls-2" d="M75.39,256.25a3.55,3.55,0,0,1-1.78.31,2.6,2.6,0,0,1-2-.79,3,3,0,0,1-.71-2.1,3.33,3.33,0,0,1,.85-2.28,3,3,0,0,1,2.38-1,2.12,2.12,0,0,1,1.15.34,1.27,1.27,0,0,1,.53,1.16,2.45,2.45,0,0,1-.73,1.65,4.49,4.49,0,0,1-2,1.24c0,.11.11.19.33.26a2.08,2.08,0,0,0,.64.1,3,3,0,0,0,1.6-.36h0a.67.67,0,0,1,0,.25A1.9,1.9,0,0,1,75.39,256.25ZM74.23,252c0-.26-.14-.39-.41-.39a1.18,1.18,0,0,0-1,.56,2.21,2.21,0,0,0-.42,1.35c0,.12,0,.19,0,.19a1.91,1.91,0,0,0,1.11-.56A1.52,1.52,0,0,0,74.23,252Z"/><path class="cls-2" d="M80.12,250.53l0-2a3.78,3.78,0,0,1,0-.87,1.51,1.51,0,0,1,.52-.31,1.72,1.72,0,0,1,.7-.16c.22,0,.34,0,.34.06-.07,1.47-.11,3-.11,4.7s0,2.66.08,3a1.76,1.76,0,0,0,.44,1.06c0,.09-.19.23-.55.42a2.2,2.2,0,0,1-.94.29s-.07,0-.12-.11a1.66,1.66,0,0,1-.31-.9s0,0,0,0l0,0a1.88,1.88,0,0,1-1.66.8,1.67,1.67,0,0,1-1.42-.7,2.66,2.66,0,0,1-.52-1.59,3.74,3.74,0,0,1,.94-2.57A3.55,3.55,0,0,1,80.12,250.53Zm0,1.4s-.05,0-.15,0h0a1.71,1.71,0,0,0-1.34.55,2,2,0,0,0-.49,1.39,1.27,1.27,0,0,0,.24.8.81.81,0,0,0,.7.32.87.87,0,0,0,.76-.42,1.29,1.29,0,0,0,.29-.65C80.11,252.9,80.12,252.25,80.15,251.93Z"/></svg>