<svg id="Layer_1" data-name="Layer 1" xmlns="http://www.w3.org/2000/svg" viewBox="0 0 800 800"><defs><style>.cls-1{fill:#f26337;}.cls-2{fill:#fbb03b;}.cls-3{fill:#facc4b;}.cls-4{fill:#169246;}.cls-5{fill:#f79756;}.cls-6{fill:#fab280;}.cls-7{fill:#ffe784;}.cls-8{fill:#f7eed8;}</style></defs><title>peachmotions</title><rect class="cls-1" width="800" height="800"/><path class="cls-2" d="M641.89,529.56l2.1,3.61a64.9,64.9,0,0,0-10.5-7.68c-21-12.22-71.41,4.07-91.27,51.13-31.68,75.07,28.11,136.53,49,141.24,67.5,15.24,128,8.92,160.89-64.42C776.47,599.08,730.1,505.13,641.89,529.56Z"/><path class="cls-1" d="M672.29,563.79c.34-6.44,8.94-12.53,15.08-15s16.06.8,19.87,4.26c6.11,5.54-18.53,14.23-19.87,21.09"/><path class="cls-1" d="M627.27,609.19a2,2,0,0,1-.47-.06,1.83,1.83,0,0,1-1.38-2.24c2.36-9.16-2.68-20-11.72-25.14-8.54-4.89-20-5.06-29.86-.46a1.94,1.94,0,0,1-2.54-.87,1.81,1.81,0,0,1,.89-2.46c11-5.13,23.83-4.9,33.44.61,10.61,6.07,16.28,18.36,13.49,29.22A1.91,1.91,0,0,1,627.27,609.19Z"/><path class="cls-1" d="M709.1,649.46a1.9,1.9,0,0,1-1.84-1.36,21.08,21.08,0,0,1-.4-2.54c-.54-4.72-1.67-14.54-11.42-20.84-12.06-7.78-25.14-2.4-32.17.48a1.92,1.92,0,0,1-2.5-1,1.82,1.82,0,0,1,1-2.42c7.14-2.94,22-9,35.78-.16,11.22,7.25,12.49,18.23,13.1,23.5a13.78,13.78,0,0,0,.28,2,1.84,1.84,0,0,1-1.34,2.27A2.14,2.14,0,0,1,709.1,649.46Z"/><path class="cls-3" d="M644,620.38s5.63,56.22-4.32,60.58-41.4-29.08-39.28-39.46"/><path class="cls-1" d="M637.63,683.2c-3.59,0-8.29-2.22-14-6.63-11.39-8.76-26.82-26.92-25.08-35.43a1.91,1.91,0,0,1,2.24-1.45,1.85,1.85,0,0,1,1.5,2.17c-1.14,5.59,11.27,22.24,23.71,31.81,6.88,5.29,11.18,6.38,12.92,5.6,6-2.62,5.48-35.91,3.2-58.71a1.87,1.87,0,0,1,1.72-2,1.89,1.89,0,0,1,2.08,1.66c1,9.61,5.22,57.78-5.44,62.44A7,7,0,0,1,637.63,683.2Z"/><path class="cls-1" d="M637.63,683.2c-3.59,0-8.29-2.22-14-6.63-11.39-8.76-26.82-26.92-25.08-35.43.91-4.47,14.2-10.2,19.87-12.46a1.93,1.93,0,0,1,2.43.88l7.63,14.78a1.83,1.83,0,0,1-.86,2.48A1.94,1.94,0,0,1,625,646l-6.82-13.23c-8.2,3.41-15.47,7.53-16,9.11-1.14,5.58,11.27,22.23,23.71,31.8,6.88,5.29,11.18,6.38,12.92,5.6,6-2.62,5.48-35.91,3.2-58.71a1.87,1.87,0,0,1,1.72-2,1.89,1.89,0,0,1,2.08,1.66c1,9.61,5.22,57.78-5.44,62.44A7,7,0,0,1,637.63,683.2Z"/><path class="cls-1" d="M645,699.92c-15.36,0-31.63-3.84-43.15-10.62-17.82-10.48-25-28.09-29.24-42.27a1.85,1.85,0,0,1,1.3-2.29,1.91,1.91,0,0,1,2.36,1.26c6,20.1,14.53,32.48,27.56,40.15,14.7,8.65,37.57,12.25,55.61,8.77a1.91,1.91,0,0,1,2.24,1.45,1.85,1.85,0,0,1-1.5,2.17A80.33,80.33,0,0,1,645,699.92Z"/><path class="cls-1" d="M737.55,681.48a1.88,1.88,0,0,0-1.36-1.27c-11.21-2.72-24.8.34-35.48,8-10.33,7.43-16.33,17.94-16.9,29.6a1.83,1.83,0,0,0,.84,1.61,1.94,1.94,0,0,0,1.06.32,2.05,2.05,0,0,0,.8-.17c.84-.38,20.75-9.29,27.14-13.86s22.78-21.75,23.47-22.47A1.81,1.81,0,0,0,737.55,681.48Z"/><path class="cls-2" d="M644.17,726.45c-18.73,0-37.12-3.11-53.42-6.79a1.85,1.85,0,0,1-1.42-2.22,1.9,1.9,0,0,1,2.29-1.38c81.82,18.46,130.75-1.08,158.71-63.36,13.3-29.64,5.2-70.79-19.26-97.85-22.41-24.79-53.91-33.14-88.66-23.51a1.93,1.93,0,0,1-2.35-1.27,1.84,1.84,0,0,1,1.31-2.29c36.25-10,69.13-1.29,92.56,24.64,25.39,28.08,33.75,70.88,19.89,101.75C728.14,711.39,685.34,726.45,644.17,726.45Z"/><path class="cls-2" d="M591.19,719.71a2.28,2.28,0,0,1-.44-.05c-13-2.93-38.92-25.66-51.83-59.08A1.83,1.83,0,0,1,540,658.2a1.94,1.94,0,0,1,2.46,1.08c12.87,33.33,38.44,54.36,49.13,56.78a1.84,1.84,0,0,1,1.42,2.22A1.89,1.89,0,0,1,591.19,719.71Z"/><path class="cls-3" d="M746.25,661.89c-1.55-.38-3.15-.67-4.76-.91l4.3-16.17-3.7-.92-4.42,16.66a64.15,64.15,0,0,0-13.18.34c-.65-5-3.66-14.13-3.79-14.52l-.58-1.75-3.63,1.12.58,1.77c0,.09,3,9.24,3.65,13.88v.09a76.25,76.25,0,0,0-21.15,7.27c-5.17-5.49-14-17.16-14.12-17.29L684.33,650l-3.07,2.19,1.13,1.49c.38.5,8.46,11.14,13.8,17a73.21,73.21,0,0,0-6.22,4,70.74,70.74,0,0,0-11.67,10.51l-16.65-13.22-2.42,2.85L675.9,688a59.36,59.36,0,0,0-10.68,20.88l-24.36-.75-.12,3.7,23.59.72a58,58,0,0,0-1.16,9,1.87,1.87,0,0,0,1.81,1.93h.09a1.88,1.88,0,0,0,1.91-1.76,54,54,0,0,1,1.21-9h.36l.05-1.7c3.32-13,11.45-24.63,23.64-33.4a73.5,73.5,0,0,1,6.63-4.23l.27.27,1-1c14.49-7.84,31.11-10.61,45.15-7.19a1.91,1.91,0,0,0,2.32-1.34A1.85,1.85,0,0,0,746.25,661.89Z"/><path class="cls-3" d="M565.44,612.05c.09-1.32.14-2.65.16-4a72.11,72.11,0,0,0-.48-8.92c7.38-.55,22.14-2.81,22.81-2.91l1.88-.29-.6-3.65-1.88.29c-.16,0-15.51,2.37-22.66,2.89a54.89,54.89,0,0,0-6.81-19c6.16-4.33,19.55-9.72,19.69-9.77l1.76-.71-1.45-3.42-1.76.71c-.58.23-13.58,5.46-20.21,10a44.66,44.66,0,0,0-7.42-8.16,1.94,1.94,0,0,0-2.69.16,1.8,1.8,0,0,0,.17,2.6c10.46,8.94,16.08,23.19,15.84,40.13-.29,20.09-8.9,39.87-21.94,50.4a1.82,1.82,0,0,0-.24,2.6,1.92,1.92,0,0,0,1.46.66,1.94,1.94,0,0,0,1.23-.43,51.5,51.5,0,0,0,7.59-7.67l.28.19c7.19,4.94,18.06,14.94,18.17,15l1.38,1.27,2.63-2.67L571,666.12c-.46-.41-11.18-10.28-18.6-15.37l-.23-.16a69.48,69.48,0,0,0,8.17-15.34l1.22.39c4.85,1.57,14.4,5.5,14.5,5.54l1.75.72,1.5-3.4-1.76-.72c-.4-.16-9.79-4-14.79-5.64l-1.17-.38a80,80,0,0,0,3.54-16c8.71,2,23.65,6.48,23.81,6.52l1.82.56,1.14-3.53-1.82-.55C589.39,618.57,574.21,614,565.44,612.05Z"/><path class="cls-1" d="M540.23,585.64a1.93,1.93,0,0,0-2-.44,1.84,1.84,0,0,0-1.24,1.61l-3.26,49.76a1.85,1.85,0,0,0,1.16,1.82,1.94,1.94,0,0,0,2.15-.45C549.55,624.68,553.68,599,540.23,585.64Z"/><path class="cls-3" d="M540.7,661.78a1.9,1.9,0,0,1-1.78-1.2c-10.69-27.68-10.16-57,1.53-84.66,10.6-25.12,31.68-44.87,56.37-52.83,14.61-4.7,28.68-4.4,37.65.81,11.09,6.45,18.75,15.67,26.15,24.59,12.67,15.25,24.64,29.66,52.85,32.15a1.87,1.87,0,0,1,1.73,2,1.91,1.91,0,0,1-2.07,1.67c-29.83-2.63-42.87-18.33-55.48-33.52-7.53-9.06-14.63-17.62-25.14-23.73-8-4.67-20.93-4.85-34.49-.47-23.65,7.62-43.85,26.58-54,50.72-11.32,26.83-11.84,55.17-1.49,82a1.83,1.83,0,0,1-1.12,2.38A1.93,1.93,0,0,1,540.7,661.78Z"/><path class="cls-4" d="M742.86,623.13c4.27-4.29,5.49-29.65-.29-35.25-9.13-8.84-41.62-22.3-46.12-21.12.82,6.36,1,17.6,4.63,24.83C713.12,615.6,735,631,742.86,623.13Z"/><path class="cls-5" d="M262.67,592.57c-15.44-61.49-63.54-86.77-139.13-73.15C96.15,524.36,28,555.47,41.22,639c9.13,57.55,44.54,87.5,102.88,87.49a193.74,193.74,0,0,0,20.39-1.12c29.94-3.18,61.84-22.56,81.26-49.39C258.57,658.23,271.91,629.38,262.67,592.57Z"/><path class="cls-1" d="M202.59,535.35c-11.83,0-16.33,4.42-21.1,9.09a41.92,41.92,0,0,1-10.91,8.36,15.47,15.47,0,0,1-6.94,1.18c0-4.1-.39-10-1.43-11.21-2.32-2.81-7.11-2.63-10.05-.41-2.74,2.06-4.12,5.35-4.95,8.64-8.73-2.73-17-7-19.92-11.25a2,2,0,0,0-2.64-.53,1.82,1.82,0,0,0-.55,2.56c5.59,8.24,26.66,15.79,40.05,15.79a18.51,18.51,0,0,0,8.21-1.5,45.8,45.8,0,0,0,11.85-9c4.72-4.64,8.14-8,18.38-8a1.85,1.85,0,1,0,0-3.7Z"/><path class="cls-4" d="M106.13,538.68c-22.64,8.66-49.57,2.13-64-12.55,14.48-11.42,18.64-19.72,30.34-21.66,7.12-1.19,35-4.7,40.94-.67,12.32,8.38,37.2,28.69,35,38.05C146,551.62,119.41,533.6,106.13,538.68Z"/><ellipse class="cls-1" cx="109.23" cy="619.06" rx="8.89" ry="8.62"/><ellipse class="cls-1" cx="187.03" cy="621.22" rx="8.89" ry="8.62"/><path class="cls-1" d="M110.37,677.32c-1.48,7.74,10,16.3,25.73,19.12s29.62-1.18,31.09-8.92Z"/><path class="cls-3" d="M261.86,615.51a1.92,1.92,0,0,0-1.79,0c-13.52,7.17-25-3.75-37.07-15.31-10-9.52-20.25-19.35-31.81-17.39-9.82,1.67-18.78,11.33-28.18,30.4-3.22,6.53-1,15.91,1.16,25,.46,2,.92,3.92,1.33,5.85-8,2.32-12.22,4.81-14.29,8.54-1.77,3.16-1.8,7.18-.22,12.51a54.4,54.4,0,0,1-14.85-1.19c1.46-4.49,3.72-12.4.13-17.14a9.13,9.13,0,0,0-6.28-3.38c5.67-11.42,12.46-25.41,7.57-33.82-10.09-17.4-19.93-26.45-30.07-27.67-12.83-1.52-23.7,9.54-34.19,20.25-10,10.23-19.48,19.93-29.55,18a2,2,0,0,0-.34,0c0,1.22,0,2.42.07,3.67,11.91,1.92,22.43-8.75,32.59-19.13,9.83-10,20-20.45,31-19.12,8.86,1.06,17.76,9.51,27.22,25.81,4,6.89-2.93,20.84-8,31-3.1,6.24-5.55,11.17-5.53,14.15,0,2.75,1.7,6.63,9.63,9.5a54.28,54.28,0,0,0,17.77,2.85c8.16,0,15.84-1.73,19.31-5.55,5.25-5.79,2.93-15.61.46-26-2-8.45-4.08-17.19-1.43-22.55,8.7-17.66,17-26.94,25.4-28.37,9.61-1.63,18.76,7.12,28.47,16.39,12,11.44,25.58,24.41,41.58,15.92h0C261.92,617.67,261.88,616.58,261.86,615.51Zm-137.34,41c0-1.72,1.66-5.41,3.72-9.61,2.35.15,4,.76,5,2,2.49,3.29.48,10.22-.72,13.91-.26-.09-.54-.16-.8-.26C127.14,660.94,124.53,658.73,124.52,656.51Zm40,4.39c-1.71,1.88-5.32,3.15-9.75,3.79-1.49-4.69-1.57-8-.25-10.38,1.5-2.68,5-4.69,11.63-6.63C167.09,653.21,167.11,658.09,164.56,660.9Z"/><path class="cls-3" d="M134.86,678.44a23.17,23.17,0,0,0,8.83,1.74c.5,0,1,0,1.51,0a1.85,1.85,0,1,0-.26-3.68,19.1,19.1,0,0,1-8.59-1.41,1.94,1.94,0,0,0-2.5,1A1.82,1.82,0,0,0,134.86,678.44Z"/><path class="cls-3" d="M138.07,702.64c-5.58-1.31-10.72-.28-13.76,2.74a1.81,1.81,0,0,0,0,2.61,2,2,0,0,0,2.7,0c2.09-2.08,5.87-2.73,10.13-1.73s6.94,3.13,7.42,4.65a1.89,1.89,0,0,0,1.82,1.31,2.23,2.23,0,0,0,.56-.08,1.84,1.84,0,0,0,1.26-2.31C147.24,706.67,143.25,703.86,138.07,702.64Z"/><path class="cls-3" d="M95.4,607.43a14.14,14.14,0,0,0-6.44,9,13.77,13.77,0,0,0,1.77,10.81,1.95,1.95,0,0,0,2.64.54,1.81,1.81,0,0,0,.56-2.55,10.21,10.21,0,0,1-1.26-8,10.42,10.42,0,0,1,4.71-6.64,1.82,1.82,0,0,0,.64-2.54A2,2,0,0,0,95.4,607.43Z"/><path class="cls-3" d="M201.69,611.85a1.8,1.8,0,0,0,.19,2.6,10.3,10.3,0,0,1,3.5,7.31,10.19,10.19,0,0,1-2.6,7.65,1.8,1.8,0,0,0,.11,2.61,2,2,0,0,0,2.7-.11,14.31,14.31,0,0,0-1.22-20.25A1.94,1.94,0,0,0,201.69,611.85Z"/><path class="cls-6" d="M487.18,86.85c-14.22-16.27-41.51-30-77.81-23.74-21.11-23.26-63.57-6.44-83.38,7.1-42.05,28.75-53.84,77.92-33.2,138.47,9.49,27.85,50.88,64.1,92.32,64.09a68.85,68.85,0,0,0,9.92-.71c52.92-7.8,90.94-35,107-76.65C516.52,158.05,510.39,113.41,487.18,86.85Zm-47.48,23a7.56,7.56,0,0,1-3-.74Z"/><path class="cls-1" d="M440.56,108.2a66.32,66.32,0,0,1-7.35-4.21c1-1.13,2.22-2.49,3.58-4,8.64-9.5,14.73-16.52,14.44-20.31A5.55,5.55,0,0,0,448,75.23c-4.14-2.25-11.61-2.19-14.12-1h0c-1.33.66-6.89,4.1-16.44,10.17-1-2.7-1.85-5.45-2.68-8.23a91.16,91.16,0,0,0-3.94-11.35,1.92,1.92,0,0,0-2.51-1,1.82,1.82,0,0,0-1,2.43,86.43,86.43,0,0,1,3.78,10.9c3.53,11.85,7.17,24.09,27.77,34.25a1.87,1.87,0,0,0,.86.2,1.92,1.92,0,0,0,1.7-1A1.81,1.81,0,0,0,440.56,108.2Z"/><path class="cls-1" d="M489.47,130.13a1.93,1.93,0,0,0-2.68-.2l-7.29,6a52.78,52.78,0,0,0-8.91-6.38l4.26-6.59a1.82,1.82,0,0,0-.6-2.55,1.94,1.94,0,0,0-2.63.59l-4.42,6.84a33.26,33.26,0,0,0-9.86-2.79l-.91-8.41a1.88,1.88,0,0,0-2.09-1.64,1.86,1.86,0,0,0-1.7,2l.84,7.8a36.76,36.76,0,0,0-11,1.9L439,118.54a1.92,1.92,0,0,0-2.5-1,1.82,1.82,0,0,0-1,2.41l3.53,8.15a58.87,58.87,0,0,0-9.31,5L421.72,127a2,2,0,0,0-2.68.29,1.81,1.81,0,0,0,.3,2.6l7.08,5.45a61.79,61.79,0,0,0-6.45,5.4,1.8,1.8,0,0,0-.41,1.93,1.88,1.88,0,0,0,1.63,1.19l31.88,2.46a15.79,15.79,0,0,0,14.34,12.73,16,16,0,0,0,16.43-10.37l3.14.24h.15a1.91,1.91,0,0,0,1.64-.92,1.79,1.79,0,0,0-.06-2,60.69,60.69,0,0,0-6.46-7.5l7-5.82A1.8,1.8,0,0,0,489.47,130.13Z"/><path class="cls-1" d="M373,122.59l-8.21,4.48A50,50,0,0,0,356,120.7l4.58-7.16a1.82,1.82,0,0,0-.62-2.54,1.94,1.94,0,0,0-2.62.6l-4.74,7.4a33.91,33.91,0,0,0-7.66-2.43l-.83-9.16a1.91,1.91,0,0,0-3.8.33l.75,8.32a37.57,37.57,0,0,0-9.39.63l-3.2-7.32a1.92,1.92,0,0,0-2.5-1,1.82,1.82,0,0,0-1,2.42l2.94,6.74a59.19,59.19,0,0,0-11,4.31,1.8,1.8,0,0,0-.4-.89L312,115.83a2,2,0,0,0-2.69-.21,1.81,1.81,0,0,0-.22,2.6l4.49,5.14a1.07,1.07,0,0,0,.22.15,61.63,61.63,0,0,0-7.13,4.7,1.84,1.84,0,0,0-.63,1.92,1.9,1.9,0,0,0,1.54,1.34l32.41,5a15.65,15.65,0,0,0,12.7,13.74,16.13,16.13,0,0,0,17.84-9.05l2.32.36.3,0a1.93,1.93,0,0,0,1.58-.82,1.8,1.8,0,0,0,.05-2,59.92,59.92,0,0,0-7.24-8.94l7.26-4a1.82,1.82,0,0,0,.72-2.52A1.93,1.93,0,0,0,373,122.59Z"/><path class="cls-1" d="M376.09,206.45c5,0,10.32,3.56,12.94,9.89,4.39-4.93,12.77-7.58,17.22-5.43,6.84,3.29,11.07,11.63,23.06,17-23.42,9.44-69.17,2.05-84-13.85C360.14,211.46,368,206.45,376.09,206.45Z"/><path class="cls-7" d="M488.92,146.46v0s0,0-.05-.07a1.92,1.92,0,0,0-.51-.66,1.33,1.33,0,0,0-.19-.14,1.92,1.92,0,0,0-.89-.33l-65.79-5.06a2,2,0,0,0-.59,0c-2.28.52-9.84,2.44-11.66,5.19-3.51,5.29-1.43,14.32.76,23.89,2.11,9.16,4.28,18.64.51,22.08-2.73,2.5-9.93,3.77-17.92,3.15s-14.89-3-17.19-5.85c-3.11-3.92.59-12.85,4.17-21.5,3.84-9.28,7.47-18,4.53-23.78-1.37-2.68-7.72-4.75-10.64-5.57l-65.26-10a1.93,1.93,0,0,0-.93.11L307,128a2.06,2.06,0,0,0-.61.49s-.06,0-.09.08a0,0,0,0,1,0,0,1.78,1.78,0,0,0-.29.71.76.76,0,0,0,0,.15,1,1,0,0,0,0,.24,1.6,1.6,0,0,0,.19.71s0,.1,0,.14c.52.84,12.82,20.57,31.3,23.54a30.61,30.61,0,0,0,4.84.37c14.65,0,27.8-10,31.21-12.76,3.38,1.07,6.62,2.56,7.08,3.31,2.17,4.26-1.3,12.65-4.66,20.77-4.16,10-8.09,19.53-3.65,25.12,3.59,4.52,12.63,6.73,19.9,7.29,1.34.1,2.75.16,4.18.16,6.35,0,13.18-1.12,16.67-4.31,5.34-4.88,3-14.93.59-25.57-1.93-8.41-3.92-17.1-1.27-21.09.54-.83,4.21-2.29,8.17-3.31,3.26,3.87,16,17.7,32.4,19,.82.07,1.65.1,2.46.1,17.22,0,31.68-13.52,32.9-14.69l0,0,.08-.07s0-.06,0-.08a1.78,1.78,0,0,0,.41-.72c0-.07,0-.13.06-.21s0-.1,0-.15A1.8,1.8,0,0,0,488.92,146.46Zm-150.74,4c-12.29-2-21.93-12.72-26.21-18.34l56.66,8.7C362.92,145,350.53,152.47,338.18,150.48Zm115.14,8.91c-12.25-.94-22.65-10.11-27.51-15.17l56.67,4.36C477,152.83,465.54,160.33,453.32,159.39Z"/><path class="cls-7" d="M446.89,215.42a1.92,1.92,0,0,0-2.61.63c-4.47,7.22-12.54,9.42-14.71,9.89-6.32-2.92-10.39-6.73-14-10.11-2.76-2.6-5.36-5.06-8.51-6.58-4.59-2.21-12.32-.32-17.5,3.95-3.06-5.29-8.14-8.6-13.51-8.6-4.54,0-8.95,1.44-14.06,3.11a117.77,117.77,0,0,1-16.55,4.4c-1.57-.68-7.23-3.64-10.22-12.32a1.92,1.92,0,0,0-2.41-1.17,1.83,1.83,0,0,0-1.2,2.34c3.44,10,10.15,13.61,12.34,14.54,11.32,19,23.65,29.43,37.71,31.91a38.22,38.22,0,0,0,6.61.58c12.58,0,26.33-6.07,41.81-18.38,2.32-.46,12-2.84,17.43-11.66A1.81,1.81,0,0,0,446.89,215.42Zm-64.51,28.36c-10.73-1.9-20.48-9.06-29.64-21.78,12.86,7.42,32.69,11.88,50.7,11.88a89.5,89.5,0,0,0,16.6-1.46C406,242,393.56,245.76,382.38,243.78Zm-33.14-28.63a128.65,128.65,0,0,0,14-3.94c5-1.63,8.93-2.91,12.84-2.91,4.52,0,9,3.51,11.17,8.73a1.9,1.9,0,0,0,1.46,1.13,1.94,1.94,0,0,0,1.76-.62c4.08-4.59,11.61-6.57,14.92-5,2.61,1.26,4.9,3.42,7.55,5.91a58.85,58.85,0,0,0,11.61,9.08C402.33,234.05,364.62,227.85,349.24,215.15Z"/><path class="cls-1" d="M471.05,186.45h-.11L428.61,184a1.85,1.85,0,1,1,.22-3.69l42.33,2.41a1.85,1.85,0,1,1-.11,3.69Z"/><path class="cls-1" d="M464.9,200.11h-.13L436,198.26a1.85,1.85,0,1,1,.25-3.69l28.8,1.85a1.85,1.85,0,0,1-.13,3.69Z"/><path class="cls-1" d="M354.62,179a2,2,0,0,1-.42,0l-41.4-8.88a1.84,1.84,0,0,1-1.45-2.2,1.89,1.89,0,0,1,2.27-1.41L355,175.39a1.86,1.86,0,0,1,1.45,2.2A1.91,1.91,0,0,1,354.62,179Z"/><path class="cls-1" d="M343.51,190.76a1.87,1.87,0,0,1-.4,0l-28.23-5.83a1.85,1.85,0,0,1-1.46-2.19,1.9,1.9,0,0,1,2.26-1.42l28.23,5.83a1.84,1.84,0,0,1,1.46,2.19A1.89,1.89,0,0,1,343.51,190.76Z"/><path class="cls-6" d="M349.51,522.59c-25.83,10-87.7,45.77-60.71,124.22,39.21,114,188.88,98.06,222.61,0,11.49-33.4,6.75-111.14-54-137.29C407.74,488.11,383.24,509.52,349.51,522.59Z"/><path class="cls-1" d="M427.77,514.65c-22.4,2.71-32.59,9.9-41.92,18.66-6-6.74-21.58-19.61-24.39-22.31-10.17-9.75-13.67,11.67-11.95,19.48,1.57,7.17,10.55,16,15.61,20.87-12.69,6.31-34.67,6.73-42.64,4.89a1.93,1.93,0,0,0-2.3,1.37,1.86,1.86,0,0,0,1.42,2.23,60.17,60.17,0,0,0,12.19,1c12.55,0,29.77-2.37,38.56-9.73,4.38-3.66,7.95-7.17,11.4-10.56,10.91-10.74,19.53-19.22,44.5-22.24a1.86,1.86,0,0,0,1.65-2.06A1.91,1.91,0,0,0,427.77,514.65Z"/><ellipse class="cls-1" cx="354.67" cy="612.58" rx="13.49" ry="13.08"/><ellipse class="cls-1" cx="447.32" cy="610.85" rx="13.49" ry="13.08"/><path class="cls-7" d="M447.32,568.36c-13,0-23.61,19-23.61,42.49h47.23C470.94,587.38,460.36,568.36,447.32,568.36Z"/><path class="cls-7" d="M354.67,570.08c-13,0-23.62,19-23.62,42.5h47.23C378.28,589.11,367.71,570.08,354.67,570.08Z"/><path class="cls-1" d="M499.7,587.32a1.92,1.92,0,0,0-2.45-1.08l-25.92,9.42c-.39-1.9-.83-3.75-1.36-5.51L489.1,573a1.81,1.81,0,0,0,.1-2.61,2,2,0,0,0-2.69-.1l-17.84,16c-4.52-12-12.31-19.76-21.34-19.76-14.31,0-25.52,19.48-25.52,44.34a1.88,1.88,0,0,0,1.9,1.85h47.23a1.88,1.88,0,0,0,1.9-1.85c0-.48,0-.94,0-1.42h21.75a1.85,1.85,0,1,0,0-3.7H472.67c-.14-2.18-.38-4.29-.69-6.36l26.61-9.67A1.83,1.83,0,0,0,499.7,587.32ZM425.64,609c.54-21.21,10.25-38.8,21.69-38.8S468.47,587.79,469,609Z"/><path class="cls-1" d="M354.66,568.24c-9.21,0-17.12,8.11-21.6,20.51L314.39,572a2,2,0,0,0-2.69.1,1.8,1.8,0,0,0,.1,2.61l20,17.95q-.71,2.46-1.22,5.1L303.65,588a1.93,1.93,0,0,0-2.46,1.08,1.83,1.83,0,0,0,1.12,2.38l27,9.81a2,2,0,0,0,.67.11h0c-.28,2-.51,4-.65,6.11h-23a1.85,1.85,0,1,0,0,3.7h22.84c0,.47,0,.94,0,1.42a1.88,1.88,0,0,0,1.91,1.85h47.22a1.88,1.88,0,0,0,1.9-1.85C380.18,587.71,369,568.24,354.66,568.24ZM333,610.73c.54-21.21,10.25-38.8,21.68-38.8s21.15,17.59,21.69,38.8Z"/><path class="cls-7" d="M423.23,661.13l-42.6-.34s8.48-53.11,21.76-53"/><path class="cls-1" d="M423.23,663h0l-42.59-.35a1.91,1.91,0,0,1-1.44-.65,1.78,1.78,0,0,1-.43-1.47c1.45-9.13,9.43-54.57,23.6-54.57h0a1.85,1.85,0,1,1,0,3.69h0c-7.76,0-15.88,28.14-19.49,49.33l40.39.32a1.85,1.85,0,1,1,0,3.7Z"/><ellipse class="cls-1" cx="339.14" cy="663.94" rx="4.96" ry="4.81"/><ellipse class="cls-1" cx="468.15" cy="659.13" rx="4.96" ry="4.81"/><path class="cls-1" d="M401.84,672.09c-20.28,0-41.83,5.49-41.83,15.67s21.55,15.67,41.83,15.67,41.83-5.49,41.83-15.67S422.12,672.09,401.84,672.09Zm-25.19,24.47c-8-2.35-12.83-5.67-12.83-8.8,0-3.41,5.7-7,15.11-9.41Zm6.23-19.09c2.74-.52,5.73-.93,8.92-1.22v23a90,90,0,0,1-11.43-1.74Zm12.74,22.09V676c2-.11,4.07-.18,6.22-.18s4.22.07,6.24.18v23.59c-2,.11-4.09.17-6.24.17S397.63,699.67,395.62,699.56Zm16.27-.3v-23c3.18.29,6.18.7,8.91,1.22l2.51,20A90.1,90.1,0,0,1,411.89,699.26Zm15.14-2.7-2.28-18.21c9.41,2.36,15.11,6,15.11,9.41C439.86,690.89,435.07,694.21,427,696.56Z"/><path class="cls-1" d="M336.65,640.45c-12,0-21.75,9.45-21.75,21.08s9.76,21.09,21.75,21.09,21.76-9.46,21.76-21.09S348.65,640.45,336.65,640.45Zm0,38.47c-9.89,0-17.94-7.8-17.94-17.39s8.05-17.39,17.94-17.39,18,7.8,18,17.39S346.55,678.92,336.65,678.92Z"/><path class="cls-1" d="M465.67,635.64c-12,0-21.75,9.46-21.75,21.08s9.76,21.09,21.75,21.09,21.76-9.46,21.76-21.09S477.67,635.64,465.67,635.64Zm0,38.47c-9.89,0-17.94-7.8-17.94-17.39s8-17.39,17.94-17.39,17.95,7.8,17.95,17.39S475.57,674.11,465.67,674.11Z"/><path class="cls-2" d="M382.37,370c-4.94-40.5-26.85-71.72-60.1-85.65-39.19-16.42-85.51-2.92-94.4-.05l-1.44.45c-35.54,11.05-76,39.28-66.76,111,6.68,52.1,38,75.34,63,85.65,16.72,6.89,34.85,9.87,52.46,9.87,29.53,0,57.55-8.4,74.68-20.86C373.67,453.12,387.36,410.88,382.37,370Z"/><path class="cls-1" d="M295.17,305.53c-4.71,0-10.85,1.84-16.93,4-2.41-4.52-.25-11.71-4.58-15-1.71-1.29-10.11-2.52-10.67,1.22-.11.74-3.7,16.5-4.53,20.15-.75,0-2.81-1.92-4.32-3.27-6.48-5.8-17.31-15.5-37.19-9.08a1.83,1.83,0,0,0-1.2,2.34,1.92,1.92,0,0,0,2.41,1.17c17.74-5.74,27.16,2.7,33.39,8.28,2.75,2.47,4.76,4.26,7,4.26h.13c3.27-.1,8.6-2.09,14.78-4.4,7.56-2.82,16.13-6,21.74-6a1.85,1.85,0,1,0,0-3.69Z"/><path class="cls-3" d="M278.26,430.78c9.76,0,17.71,7.7,17.71,17.17a16.86,16.86,0,0,1-.68,4.68l68.79-5c-5.45-15.46-26-38.3-92.41-60.2l-1.19-.39c-9.3,4.49-64.85,32.81-74.49,72.9l66.16-4.85a16.58,16.58,0,0,1-1.61-7.1C260.54,438.48,268.49,430.78,278.26,430.78Z"/><path class="cls-1" d="M296,448c0-9.47-8-17.17-17.71-17.17s-17.72,7.7-17.72,17.17a16.58,16.58,0,0,0,1.61,7.1,17.89,17.89,0,0,0,33.14-2.42A16.86,16.86,0,0,0,296,448Zm-17.71,13.47a14,14,0,0,1-11.94-6.67,13,13,0,0,1-2-6.8,13.91,13.91,0,0,1,27.81,0,13,13,0,0,1-1,5A13.9,13.9,0,0,1,278.26,461.42Z"/><path class="cls-1" d="M279,475.43c-4.51,0-8.37-1.1-11.1-3.24a1.81,1.81,0,0,1-.29-2.6,1.94,1.94,0,0,1,2.68-.27c3.14,2.46,8.79,3.08,15.11,1.66,7.49-1.69,13.94-5.78,16.06-10.18a1.92,1.92,0,0,1,2.53-.9,1.83,1.83,0,0,1,.92,2.45c-2.62,5.47-9.94,10.27-18.65,12.23A33.3,33.3,0,0,1,279,475.43Z"/><path class="cls-1" d="M225,380.64c-.69,0-1.38,0-2.06-.07-10.47-.7-20.13-6.74-26.51-16.56a1.82,1.82,0,0,1,.6-2.55,2,2,0,0,1,2.63.58c5.72,8.82,14.3,14.23,23.54,14.84s18.88-3.7,26.11-11.55a2,2,0,0,1,2.69-.15,1.81,1.81,0,0,1,.15,2.61C244.53,376,234.74,380.64,225,380.64Z"/><path class="cls-1" d="M247.54,350a2.1,2.1,0,0,1-.43-.05l-42.51-9.48a1.83,1.83,0,0,1-1.43-2.21,1.91,1.91,0,0,1,2.28-1.39L248,346.33a1.85,1.85,0,0,1,1.43,2.21A1.9,1.9,0,0,1,247.54,350Z"/><path class="cls-1" d="M308.47,380.64c-9.78,0-19.57-4.61-27.16-12.85a1.81,1.81,0,0,1,.15-2.61,2,2,0,0,1,2.69.15c7.23,7.85,17,12.18,26.11,11.55s17.82-6,23.54-14.84a2,2,0,0,1,2.63-.58A1.82,1.82,0,0,1,337,364c-6.38,9.82-16,15.86-26.5,16.56C309.84,380.62,309.15,380.64,308.47,380.64Z"/><path class="cls-1" d="M285.89,350a1.9,1.9,0,0,1-1.86-1.44,1.85,1.85,0,0,1,1.43-2.21L328,336.85a1.92,1.92,0,0,1,2.29,1.39,1.84,1.84,0,0,1-1.44,2.21l-42.51,9.48A2.1,2.1,0,0,1,285.89,350Z"/><path class="cls-1" d="M272.9,383.89l-1.93-.64a2,2,0,0,0-1.46.09c-6.76,3.2-65.52,32.11-76.84,74.26,1,1,2.07,2,3.13,2.94l0-.09c0-.18.1-.36.15-.55,7.6-31.62,43.75-55.91,63.26-67-6.16,9.8-6.19,27.07-6.19,27.07l34.77-1.23S285,396.48,276,388.87c62.95,21.44,82.71,43.61,88,58.72l.16.43c0,.05.06.09.08.14.82-1.39,1.62-2.81,2.38-4.29C359.7,427.74,337.35,405.14,272.9,383.89Z"/><path class="cls-4" d="M319.81,300.09c-9.54-6.95-23.12-13.23-27.9-8-9.59,10.47,34.87,66.37,9.66,103.28,19.94-1.16,44.77-33.48,44.15-51.53C345.22,329.24,322,301.66,319.81,300.09Z"/><path class="cls-3" d="M184,426.35l30.8-32.22s-30.39-13.43-37.22-7.05C170.24,394,184,426.35,184,426.35Z"/><path class="cls-1" d="M184,428.19l-.34,0a1.94,1.94,0,0,1-1.43-1.12c-2.38-5.6-13.88-33.9-6-41.3,7.38-6.9,34.06,4.36,39.33,6.69a1.87,1.87,0,0,1,1.08,1.32,1.83,1.83,0,0,1-.47,1.62L185.43,427.6A1.92,1.92,0,0,1,184,428.19Zm-.4-41c-2.14,0-3.79.37-4.69,1.22-4.37,4.08.85,22.3,5.74,34.54l26.94-28.18C202.43,390.94,190.49,387.19,183.64,387.19Z"/><path class="cls-3" d="M333,386.11l32.74,30.38s11.77-33.11,4-39.57C362.47,371,333,386.11,333,386.11Z"/><path class="cls-1" d="M365.7,418.34a2,2,0,0,1-1.32-.51l-32.74-30.38a1.8,1.8,0,0,1-.57-1.59,1.84,1.84,0,0,1,1-1.38c5.12-2.63,31.05-15.42,38.85-9,8.36,6.92-1.37,35.84-3.41,41.57a1.88,1.88,0,0,1-1.35,1.2A2.3,2.3,0,0,1,365.7,418.34Zm-29.5-31.77,28.64,26.57c4.12-12.51,8.2-31,3.6-34.82C364.41,375,348,380.85,336.2,386.57Z"/><line class="cls-8" x1="282.32" y1="302.54" x2="293.75" y2="292.93"/><path class="cls-4" d="M282.32,304.39a1.91,1.91,0,0,1-1.44-.64,1.81,1.81,0,0,1,.19-2.61l11.43-9.6a2,2,0,0,1,2.7.18,1.82,1.82,0,0,1-.2,2.61l-11.43,9.61A2,2,0,0,1,282.32,304.39Z"/><path class="cls-5" d="M625.14,403c-18.31,80.48-80,92-121.13,87.49-51.83-5.66-113.85-63.27-96.51-134.59,14.27-58.67,58.21-88.68,136.88-74C571.88,287,644,320.15,625.14,403Z"/><path class="cls-1" d="M550.71,288.72a1.91,1.91,0,0,0-2.35,1.32c-4.33,15.44-16.47,22.89-24.47,26.22-1.5-5.61-3.49-9.74-6-12.55-2.36-2.6-5.45-4-8.3-3.6a6.55,6.55,0,0,0-5,3.58c-1.51,2.85-1,11.79-.5,16.26a13.52,13.52,0,0,1-6.14-1.64,43,43,0,0,1-8.1-7.34c-5.43-5.87-10.1-10.94-24.58-6.87a1.91,1.91,0,0,0,1,3.67c12.23-3.44,15.62.23,20.75,5.79a47.11,47.11,0,0,0,8.79,7.93c2.39,1.58,6.1,2.36,10.46,2.36a50.81,50.81,0,0,0,17.13-3.27c8.51-3.16,23.54-11.19,28.68-29.51A1.92,1.92,0,0,0,550.71,288.72Z"/><path class="cls-4" d="M562.13,296c22.63,8.93,48.52-3.11,56.41-20.56,2.23-4.94-18.72-19.91-30.33-22.35-46.16-9.74-70.49,40.33-68.27,50C522.27,313.19,548.86,290.79,562.13,296Z"/><path class="cls-3" d="M431.54,361.51c-3.82-15.24,41.91-26.67,76.21-3.81,34.3-22.86,83.84-11.43,80,3.81-22.86,0-80,11.44-80,11.44s35.31,44.41,26.68,57.16c-6.95,10.25-42.3,10.05-49.54,0C476.08,417.89,507.75,373,507.75,373S446.78,357.7,431.54,361.51Z"/><path class="cls-1" d="M477.27,392a1.9,1.9,0,0,0-1.91,1.91,17.37,17.37,0,0,1-4.38,11.9,9.51,9.51,0,0,0-17.77-6.76,19.87,19.87,0,0,1-.71-5.14c0-8.4,5.38-19.06,11.43-19.06a1.91,1.91,0,0,0,0-3.81c-8.59,0-15.25,12.29-15.25,22.87s6.84,19,15.25,19,15.24-8.55,15.24-19A1.9,1.9,0,0,0,477.27,392Z"/><path class="cls-1" d="M568.73,392.76a1.91,1.91,0,0,0-1.91,1.91,17.36,17.36,0,0,1-4.38,11.91,9.66,9.66,0,0,0,.57-3.15,9.52,9.52,0,0,0-18.33-3.61,19.59,19.59,0,0,1-.72-5.15c0-8.4,5.38-19.06,11.43-19.06a1.91,1.91,0,0,0,0-3.81c-8.59,0-15.24,12.29-15.24,22.87s6.83,19.05,15.24,19.05,15.24-8.55,15.24-19.05A1.91,1.91,0,0,0,568.73,392.76Z"/><path class="cls-1" d="M584,350.5c-13.8-9.72-49.22-12.41-76.25,4.93-26.94-17.32-59.7-14.28-72.3-5.4-4.79,3.38-6.84,7.63-5.76,12a1.9,1.9,0,0,0,2.31,1.38c12.83-3.21,60.71,7.92,72.61,10.78-6.88,10.1-29.71,45.37-21.27,57.08,4.49,6.23,16.94,8.41,26.66,8.41h.94c4.58-.07,19.94-.88,25.07-8.44,8.23-12.15-17-46.72-24.85-57,12.12-2.34,57.21-10.8,76.62-10.8a1.92,1.92,0,0,0,1.85-1.44C590.66,357.86,588.66,353.78,584,350.5ZM532.85,429a10.52,10.52,0,0,1-3.85,3.1,7.6,7.6,0,0,0-14.34,3.5c-1.23.09-2.49.15-3.78.17a61.36,61.36,0,0,1-8-.4,7.57,7.57,0,0,0-13.77-4.12,9.75,9.75,0,0,1-2.66-2.3c-5.6-7.77,9.62-35.62,21.42-52.84C521,393.17,538.34,420.93,532.85,429ZM507.8,371c-5.16-1.27-49-12-69.69-12a41.5,41.5,0,0,0-4.87.26c.24-2.61,2.42-4.72,4.41-6.12,12.14-8.56,44.29-10.37,69,6.14a1.9,1.9,0,0,0,2.12,0c25.42-17,60.21-14.68,73-5.68,2,1.39,4.14,3.48,4.27,6C563.17,360.12,513.3,369.9,507.8,371Z"/><path class="cls-3" d="M543.33,450.77s-3.73-3.77-4.07-6.9c-1-9.28,14.22-13.76,22.35-6.22,3,2.81,4.86,10.58,6.14,15.08"/><path class="cls-1" d="M576.47,451.07c-.5,0-3.21-.19-7.34-.34a1.86,1.86,0,0,0,.45-1.78c-1.71-6-3.83-10.07-6.67-12.7-5.61-5.2-13.94-5.21-19.27-2.53-4.4,2.22-6.75,6.09-6.28,10.36.28,2.55,2.17,5.19,3.45,6.73-17.26.79-35.78,3.31-43,10.06a9.87,9.87,0,0,0-3.42,7.35,1.91,1.91,0,0,0,3.82,0,6.13,6.13,0,0,1,2.21-4.57c13.44-12.61,75.16-8.81,75.79-8.77a1.91,1.91,0,0,0,.24-3.81Zm-31.79-1.64c-1.26-1.28-3.34-4-3.53-5.76-.41-3.79,2.8-5.84,4.2-6.54,4.15-2.1,10.62-2.11,15,1.92,2.27,2.1,4.1,5.68,5.6,10.94a2.1,2.1,0,0,0,.33.65c-2.87-.08-6.19-.15-9.83-.16a52.39,52.39,0,0,1-3.86-7.8,1.91,1.91,0,0,0-3.55,1.4,57.36,57.36,0,0,0,3.07,6.42q-3.35,0-6.87.13A1.83,1.83,0,0,0,544.68,449.43Z"/><path class="cls-3" d="M433.45,374.93a2,2,0,0,1-.67-.12,161.14,161.14,0,0,1-18.86-8.53,1.91,1.91,0,0,1-.78-2.58,1.89,1.89,0,0,1,2.57-.79,156.63,156.63,0,0,0,18.41,8.33,1.91,1.91,0,0,1-.67,3.69Z"/><path class="cls-3" d="M415.2,390.56a1.91,1.91,0,0,1-.29-3.79l18.1-2.91a1.9,1.9,0,1,1,.6,3.76l-18.1,2.91A1.55,1.55,0,0,1,415.2,390.56Z"/><path class="cls-3" d="M425.72,407.7a1.9,1.9,0,0,1-1.17-3.4l11.28-8.85a1.91,1.91,0,0,1,2.35,3L426.9,407.3A1.93,1.93,0,0,1,425.72,407.7Z"/><path class="cls-3" d="M581.07,387.83a1.91,1.91,0,0,1-.67-3.69,155.84,155.84,0,0,0,18.4-8.32,1.9,1.9,0,1,1,1.79,3.36,158.79,158.79,0,0,1-18.85,8.53A2,2,0,0,1,581.07,387.83Z"/><path class="cls-3" d="M599.31,403.46l-.3,0-18.11-2.91a1.9,1.9,0,1,1,.61-3.76l18.1,2.91a1.91,1.91,0,0,1-.3,3.79Z"/><path class="cls-3" d="M588.79,420.61a1.92,1.92,0,0,1-1.17-.41l-11.28-8.85a1.91,1.91,0,0,1,2.35-3L590,417.2a1.91,1.91,0,0,1,.32,2.68A1.88,1.88,0,0,1,588.79,420.61Z"/></svg>