<svg id="Layer_1" data-name="Layer 1" xmlns="http://www.w3.org/2000/svg" viewBox="0 0 300 300"><defs><style>.cls-1{fill:#f57e20;opacity:0.61;}.cls-2{fill:#ffd137;opacity:0.41;}.cls-3{fill:#241a0e;opacity:0.7;}.cls-3,.cls-64{stroke:#181818;}.cls-10,.cls-11,.cls-13,.cls-14,.cls-15,.cls-29,.cls-3,.cls-32,.cls-34,.cls-45,.cls-47,.cls-54,.cls-64,.cls-7,.cls-8{stroke-miterlimit:10;}.cls-4{fill:#181818;opacity:0.83;}.cls-5{fill:#22170c;}.cls-6{fill:#62180c;}.cls-11,.cls-14,.cls-22,.cls-29,.cls-31,.cls-64,.cls-7{fill:none;}.cls-7{stroke:#22170c;}.cls-64,.cls-7{stroke-width:1.5px;}.cls-8{fill:#f9b9b7;}.cls-10,.cls-14,.cls-16,.cls-22,.cls-27,.cls-28,.cls-35,.cls-8{stroke:#2b190d;}.cls-10,.cls-14,.cls-22,.cls-23,.cls-27,.cls-28,.cls-29,.cls-31,.cls-32,.cls-33,.cls-35,.cls-40,.cls-45,.cls-52,.cls-8{stroke-linecap:round;}.cls-9{fill:#4d170e;}.cls-10{fill:#b65226;}.cls-11,.cls-12,.cls-13,.cls-15,.cls-23,.cls-31,.cls-32,.cls-40,.cls-54{stroke:#4d170e;}.cls-12,.cls-13{fill:#ae3724;}.cls-12,.cls-16,.cls-22,.cls-23,.cls-27,.cls-28,.cls-31,.cls-33,.cls-35,.cls-40,.cls-52{stroke-linejoin:round;}.cls-15,.cls-16,.cls-32,.cls-40{fill:#891d1a;}.cls-17{fill:#596029;}.cls-18{fill:#2b190d;}.cls-19{fill:#504f21;}.cls-20{fill:#fde3dd;}.cls-21,.cls-23{fill:#e16e25;}.cls-24{fill:#010101;}.cls-25{fill:#9b1a42;}.cls-26{fill:#650829;}.cls-27{fill:#9f5424;}.cls-28{fill:#312f2e;}.cls-29{stroke:#47140e;}.cls-30{fill:#47140e;}.cls-33,.cls-35{fill:#fdd6c5;}.cls-33{stroke:#010101;}.cls-34,.cls-45{fill:#ec9822;stroke:#9b3020;}.cls-36{fill:#e9c429;}.cls-37{fill:#f6e393;}.cls-38{fill:#e98c24;}.cls-39{fill:#fbae3a;}.cls-41{fill:#4a4947;}.cls-42{fill:#753c19;}.cls-43{fill:#8c1f63;}.cls-44{fill:#460538;}.cls-46{fill:#842419;}.cls-47,.cls-52{fill:#d24e27;stroke:#7b2517;}.cls-48{fill:#fde6e0;}.cls-49{fill:#761313;}.cls-50,.cls-54{fill:#f58240;}.cls-51{fill:#fdf9d2;}.cls-53{fill:#f16180;}.cls-55{fill:#fff7f5;}.cls-56{fill:#803494;}.cls-57{fill:#d65574;}.cls-58{fill:#f37889;}.cls-59{fill:#6c1e5f;opacity:0.52;}.cls-60{fill:#feee4c;opacity:0.44;}.cls-61{fill:#feed43;opacity:0.86;}.cls-62{fill:#fff;}.cls-63{fill:#c37229;opacity:0.81;}</style></defs><title>roach_revelers</title><polygon class="cls-1" points="33.17 35.01 33.77 214.98 272.19 194.92 277.28 35.01 33.17 35.01"/><polygon class="cls-2" points="165.12 35.01 164.83 214.98 272.48 194.92 277.28 35.01 165.12 35.01"/><polygon class="cls-3" points="273.05 187.01 -1.86 211.03 -2.15 264.99 299.04 264.99 299.04 194.92 273.05 187.01"/><path class="cls-4" d="M225.58,214.7,33.17,116.1l-35-6.22L-2.15,265H96.74l111.32-24.86s39.43,6.79,42.95-3.39C256.09,222.05,225.58,223.62,225.58,214.7Z"/><path class="cls-5" d="M250.73,179.38c-2-9.7-28.65-13.19-36.73-19.77-6.57-5.35-15.83-30-15.83-30s-93.83-6.85-133.36-2.72c-9.3,1-15.6,2.55-17,5-6.31,11.36-1.41,74.87-1.41,74.87s2.8,1.79,7.26,4.52c12.45,7.62,37.86,22.61,51.79,26.84,29.6,9,122.06-20.34,122.06-20.34S257.22,210.18,250.73,179.38Z"/><path class="cls-6" d="M227,190.12s15.93-10.13,18.65-6.22c4.2,6.06-9,22.2-15.82,24.87-20.35,7.91-81.37,17.52-111.89,16.95-9.4-.17-31.1-16.67-27.69-25.43,3-7.63,32.78,0,32.78,0S94.2,170.91,84.59,167c-8.5-3.5-15.26-4.52-25.43.57C53.51,156.78,53.34,130.13,62,124c13.56-9.61,121.49-13,140.14,0,8.05,5.61,11.87,35.6,11.87,35.6s-11.72-1.18-14.7,1.69c-3.6,3.49-4,16.95-4,16.95Z"/><path class="cls-7" d="M84.59,167.52s10.87-9.16,15.26-10.17c11-2.55,67-6.5,88.72-2.83,3.05.52,11.3,6.78,11.3,6.78"/><path class="cls-7" d="M106.63,184.75s59.05-11.3,73.18,9"/><path class="cls-7" d="M195.63,178s-26.56-2.82-36.46,4.86"/><path class="cls-8" d="M32.89,209.05s-.57-3.39-2.83-3.39-2.41,2.66-2.41,2.66"/><path class="cls-9" d="M82,242.21c2.35,1.31,4,7,4,7S58.32,259.91,32.89,231"/><path class="cls-10" d="M29.5,223.18c1.69,20.34,51.42,27.12,59.9,14.12-5.66-3.39-19.22-17.51-29.95-14.69A49.26,49.26,0,0,0,38,214.14s-5.08-6.78-9-6.22c-5.84.84-4.47,12.18-1.69,14.13,5.65,3.95,9.6-2.26,9.6-2.26"/><path class="cls-8" d="M28.93,218.09c0-1.69-2.87-2.83-4.06-2.62a2.61,2.61,0,0,0-2.15,2.62c0,1.11.56,3.39,2.82,3.39C27.24,221.48,28.93,219.29,28.93,218.09Z"/><path class="cls-11" d="M84.83,241.07c3.43,3.58,1.74,5.28.61,6.49"/><path class="cls-12" d="M44.19,226c-1.13-2.26-14.13,2.83-17.52,6.22,1.13,2.82,8.09.51,10.74,0C39.67,231.78,45.22,228.06,44.19,226Z"/><path class="cls-12" d="M44.19,222.61c-2.75-.85.59-9,2.26-11.3A49,49,0,0,1,51,206.79S48.3,223.89,44.19,222.61Z"/><path class="cls-12" d="M50.4,223.74c-2.38-2,11.6-13.54,12.44-12.43C64.53,213.57,53.75,226.59,50.4,223.74Z"/><path class="cls-13" d="M73.57,209.05l-1.69,11.3s-4.42,7.07-1.13,7.35C77.53,228.26,73.57,209.05,73.57,209.05Z"/><path class="cls-12" d="M50.4,227.13s-2.64,2.76-2.82,4.52c-.32,3.16,5.3,15.66,6.22,12.44C54.93,240.13,50.4,227.13,50.4,227.13Z"/><path class="cls-13" d="M62.84,227.13s-.46,5.57,0,7.35c1,4,6.78,12.43,10.73,12.43C78.43,246.91,62.84,227.13,62.84,227.13Z"/><path class="cls-14" d="M74.7,228.83c-3.39,2.26-2.82,5.65-1.13,9.61"/><path class="cls-14" d="M77.53,232.22c-2.26,2.82-1.13,6.22,2.82,7.35"/><path class="cls-15" d="M59.45,225.44c-2.83,3.95-7.35,13-7.35,13s-.27,4.32,1.13,4.52C57.19,243.52,63.71,227.29,59.45,225.44Z"/><path class="cls-16" d="M59.45,221.48c-.6-.85-3.39-2.26-4.52-1.39a14.51,14.51,0,0,1,3.1,4.5c.73,2,.91,3.28,2,3.11C61.27,227.49,60.18,222.52,59.45,221.48Z"/><path class="cls-15" d="M64,200.57s-5.65,13.57-4,14.13c2.18.73,4.87-4.49,5.09-6.78C65.28,206,64,200.57,64,200.57Z"/><path class="cls-16" d="M69.62,198.88a30.09,30.09,0,0,0,0,5.09c.56,2.26,2.82,6.21,3.95,5.65S69.62,198.88,69.62,198.88Z"/><path class="cls-15" d="M84.87,223.18s-9,16.39-12,20.57c-.44.63,1.64,2.6,1.64,2.6s8.1-15.26,12.62-19.22C88,226.38,84.87,223.18,84.87,223.18Z"/><path class="cls-16" d="M83.74,214.7A56.59,56.59,0,0,1,86,221.48c.23,1.4-1.69,2.83-.56,5.09.68,1.36,3-3.57,2.82-5.09C88.05,219.46,83.74,214.7,83.74,214.7Z"/><path class="cls-16" d="M57.75,195.49s4.52,5.08,6.22,5.65c1.06-.68.26-3.82-2.26-5.09A5.53,5.53,0,0,0,57.75,195.49Z"/><polyline class="cls-14" points="8.02 190.97 15.94 202.84 25.32 211.39"/><path class="cls-14" d="M2.37,214.7c7.35-1.69,20.35,2.83,20.35,2.83"/><path class="cls-15" d="M19.89,223.18c1.13,2.82,3.32,7.75,5.65,9a7.71,7.71,0,0,0,2.83,0S18.74,220.3,19.89,223.18Z"/><path class="cls-16" d="M13.67,219.22s5.11-.74,6.22.57c.55.64.57,4,.57,4Z"/><path class="cls-15" d="M49.27,209.62c-4.52-4.52-5.65-17.52-5.65-17.52s6.12,7.1,7.35,10.17C52.1,205.1,50.61,211,49.27,209.62Z"/><path class="cls-15" d="M34,213l-1.7,1.13s-2.26,5.08-1.69,5.65C32,221.13,34,213,34,213Z"/><path class="cls-15" d="M35.15,210.75s2.4-3.68,3.39-2.83-2.26,4-2.26,4Z"/><path class="cls-17" d="M51,176.84C48.14,179.1,39.1,186.45,40.8,191c-2,2.5-5.65,6.78-6.78,8.47-.94,1.42,1.69,2.83,1.69,2.83s5.37-6.49,7.35-8.48c4.52,1.13,11.3-7.34,13.56-11.86C56.4,180,52.87,176.7,51,176.84Z"/><path class="cls-16" d="M43.06,191.53c-.05-1.16-3.62-2.49-4.52-1.69-.53.47.56,2.82.56,2.82S43.11,192.87,43.06,191.53Z"/><circle class="cls-18" cx="30.46" cy="206.34" r="0.76"/><circle class="cls-18" cx="25.54" cy="216.96" r="0.85"/><ellipse class="cls-18" cx="83.74" cy="237.3" rx="1.13" ry="0.57"/><line class="cls-14" x1="47.58" y1="200.57" x2="52.66" y2="197.75"/><line class="cls-14" x1="47.58" y1="196.34" x2="50.4" y2="194.92"/><line class="cls-14" x1="50.97" y1="202.27" x2="52.66" y2="202.27"/><line class="cls-14" x1="47.58" y1="204.53" x2="45.32" y2="206.79"/><line class="cls-14" x1="46.45" y1="197.75" x2="43.06" y2="197.75"/><line class="cls-14" x1="45.32" y1="202.27" x2="41.93" y2="202.27"/><line class="cls-14" x1="69.62" y1="218.66" x2="73.57" y2="220.92"/><line class="cls-14" x1="74.72" y1="221.48" x2="76.4" y2="221.48"/><line class="cls-14" x1="73.57" y1="216.96" x2="76.4" y2="215.83"/><line class="cls-14" x1="74.22" y1="213.01" x2="76.4" y2="211.31"/><line class="cls-14" x1="59.45" y1="203.4" x2="62.84" y2="206.23"/><line class="cls-14" x1="63.97" y1="209.05" x2="66.23" y2="209.05"/><line class="cls-14" x1="61.14" y1="209.83" x2="57.75" y2="209.05"/><line class="cls-14" x1="65.1" y1="205.66" x2="66.79" y2="204.53"/><line class="cls-14" x1="64.26" y1="201.86" x2="66.23" y2="198.88"/><line class="cls-14" x1="18.2" y1="227.7" x2="21.07" y2="225.92"/><line class="cls-14" x1="24.98" y1="229.39" x2="26.67" y2="226.57"/><line class="cls-14" x1="23.28" y1="227.7" x2="20.46" y2="231.09"/><line class="cls-14" x1="22.72" y1="225.44" x2="23.28" y2="223.74"/><line class="cls-14" x1="24.69" y1="231.59" x2="23.85" y2="233.35"/><line class="cls-14" x1="56.06" y1="227.13" x2="58.32" y2="231.09"/><line class="cls-14" x1="53.8" y1="231.65" x2="55.77" y2="233.35"/><line class="cls-14" x1="59.69" y1="234.76" x2="60.58" y2="234.48"/><line class="cls-14" x1="60.01" y1="237.87" x2="55.49" y2="237.87"/><line class="cls-14" x1="83.74" y1="227.7" x2="81.48" y2="224.31"/><line class="cls-14" x1="84.35" y1="230.3" x2="86" y2="231.09"/><line class="cls-14" x1="80.35" y1="234.48" x2="78.09" y2="230.52"/><line class="cls-14" x1="75.78" y1="241.35" x2="79.17" y2="240.78"/><path class="cls-19" d="M54.84,184.91l-6.75-5.66a37,37,0,0,0-5.71,6.06l7.38,5.55A33.87,33.87,0,0,0,54.84,184.91Z"/><path class="cls-19" d="M34.57,198.79a.43.43,0,0,1,0-.07l-.39.54a6,6,0,0,0,2,2.51h0l.35-.42,0,0A5.37,5.37,0,0,1,34.57,198.79Z"/><path class="cls-19" d="M35.7,197.4a.24.24,0,0,0-.06-.11l-.41.52a5.79,5.79,0,0,0,1.71,3l.37-.43h0A5.49,5.49,0,0,1,35.7,197.4Z"/><path class="cls-9" d="M117.39,201.89s2.48,2.73,4.12,2.84c4.55.3,19.87-8.54,21.32-14.59"/><path class="cls-13" d="M118.84,178.85s-15.14,17.36-7.78,21.41c11.12,6.13,37.62-5.07,39.09-27.81.26-4,1.65-12.39-1.37-18.56l-15.72-7c-3.67.17-18.79,12.39-16.34,34.53"/><path class="cls-9" d="M133.06,146.92c-3.67.17-18.79,12.39-16.34,34.53,0,0,5.06-7.7,9.82-14.38,2.31-3.25-1.25-8.13.8-11.65,3.09-5.28,8-2.86,9.43-3.4a10.4,10.4,0,0,0,3-2.15Z"/><path class="cls-13" d="M139,156.7c2.35.42,9.05-.91,11-4.62,1.74-3.23.63-8.53-1.5-11s-11.21-4.22-13.41-1.75C132,143,133,155.64,139,156.7Z"/><path class="cls-20" d="M142.47,148a3.5,3.5,0,0,0,2.46,3.25c1.56.42,3-1.31,3.16-3l-5.58-1.3A5.49,5.49,0,0,0,142.47,148Z"/><path class="cls-21" d="M144.24,144.5c-.87.05-1.55,1.06-1.73,2.42l5.58,1.3a3.37,3.37,0,0,0,0-.55C148,145.8,145.33,144.44,144.24,144.5Z"/><line class="cls-22" x1="138.08" y1="140.91" x2="128.59" y2="133.55"/><path class="cls-18" d="M144.23,144.22c-1.27.08-2.17,1.75-2,3.8a3.81,3.81,0,0,0,2.66,3.51,2.19,2.19,0,0,0,.67.07,2.46,2.46,0,0,0,1.41-.59,4.27,4.27,0,0,0,1.46-3.36C148.27,145.57,145.37,144.15,144.23,144.22Zm2.35,6.35A1.75,1.75,0,0,1,145,151a3.24,3.24,0,0,1-2.25-3,5.71,5.71,0,0,1,0-.72l1.55.37a1.14,1.14,0,0,0,.62,1.12,1.19,1.19,0,0,0,1.48-.63l1.37.32A3.67,3.67,0,0,1,146.58,150.57Zm-3.75-3.86c.21-1.09.76-1.89,1.43-1.93.93-.05,3.47,1.21,3.57,2.91v.19Z"/><path class="cls-21" d="M134.78,142.52a3.1,3.1,0,0,0-2.91,3.26l6.16-1C137.88,143.14,136.47,142.42,134.78,142.52Z"/><path class="cls-20" d="M131.87,145.78v0a3.09,3.09,0,0,0,3.28,2.91c1.72-.1,3-2.13,2.89-3.85,0,0,0-.05,0-.08Z"/><path class="cls-18" d="M134.77,142.24a3.39,3.39,0,1,0,.4,6.77c1.91-.12,3.26-2.33,3.15-4.15S136.82,142.11,134.77,142.24Zm0,.56c1.28-.08,2.68.37,2.92,1.81h0l-5.55.89A2.82,2.82,0,0,1,134.8,142.8Zm.34,5.64a2.82,2.82,0,0,1-2.95-2.37l1.05-.17a1.31,1.31,0,0,0,1.5.82,1.28,1.28,0,0,0,.93-1.21l2.09-.33C137.7,146.65,136.6,148.35,135.14,148.44Z"/><path class="cls-15" d="M152.11,205.17s.16,2.82,2.45,3.25c1.76.33,3.37,4.51,4.75,3.68.74-.45-.28-2.06-.73-2.79-1-1.57-5.7-4.7-5.7-4.7"/><path class="cls-13" d="M148.84,190s-.29,12.57,3.27,15.19c1.2.13,1.51-3.41,1.42-4.61-.23-3-2.4-11.75-2.4-11.75"/><path class="cls-23" d="M137.75,182.82c.17,2.82,13.62,2.53,13.38,6-2.19,1.27-16.16,4.36-20.71-5.56-.63-1.36,2-4.08,4.65-3.81l7.56-.31.37,6.21"/><path class="cls-15" d="M157,193c.08,1.33,3.69,1.66,4.68,2.55.61.55,1.05,2.88,1.86,2.72s.78-2.25.4-2.85c-.93-1.46-4.75-3.68-5.88-3.62"/><path class="cls-13" d="M151.35,178.8S154.72,192,157,193c.7.3,1-2.13,1-2.89,0-3.22-4.12-12.21-4.12-12.21"/><path class="cls-23" d="M139,175.38c.89-4,14.88-1.26,14.87,2.51-4.42,2-12.84,3-16.83,2.7-2.55-.21-4.81-4.8-1.73-10.08l6.1-2.06,4.26,4.84"/><path class="cls-24" d="M162.32,176.74a5.59,5.59,0,0,0-3.47-2.13l1-4.93a.28.28,0,0,0-.22-.33.29.29,0,0,0-.34.22l-1,4.91c-2.05-.4-4.21-.36-4.66.63a.69.69,0,0,0,0,.63c.39.78,2.14,1.65,4.27,2.13a10.71,10.71,0,0,0,2.83.32c.9-.05,1.47-.34,1.66-.86A.74.74,0,0,0,162.32,176.74Zm-4.26.58c-2.1-.47-3.63-1.3-3.89-1.83,0-.09,0-.13,0-.15.13-.28.66-.48,1.48-.53a10.48,10.48,0,0,1,2.56.23l-.18.83a.29.29,0,0,0,.22.34h.07a.26.26,0,0,0,.26-.22l.18-.83c2.14.54,3.12,1.72,3.14,2C161.7,177.59,160.59,177.89,158.06,177.32Z"/><path class="cls-25" d="M159,154.66c-.43,2.29-2.32,11.39,1.13,12.42,3.06.92,4.91-6,5.84-9.44C165.87,156,160.56,153.92,159,154.66Z"/><path class="cls-26" d="M159,154.66a2.62,2.62,0,0,0,1.86,2.72c1.47.63,4.58.86,5.11.26C165.87,156,160.56,153.92,159,154.66Z"/><path class="cls-24" d="M164.65,150.69c-1.05-.63-2.51-1.12-3.48-.67h0l-.06,0c-2.7,2.54-4,11.15-2.88,15.06.38,1.32,1,2.07,1.86,2.23a2.45,2.45,0,0,0,.54,0,2.78,2.78,0,0,0,1.69-.78c2.78-2.44,4.72-10.29,4.55-13.27C166.78,152.31,165.67,151.29,164.65,150.69Zm-.29.48A4.27,4.27,0,0,1,166.2,153c-1.09-.11-4.26-.63-4.59-2.57A4.09,4.09,0,0,1,164.36,151.17Zm-2.43,15a2.05,2.05,0,0,1-1.75.62c-.78-.15-1.21-1.07-1.43-1.83-1.11-3.81.23-11.42,2.37-14.08.67,2.17,4.17,2.64,5.17,2.73C166.34,156.6,164.47,164,161.93,166.18Z"/><path class="cls-23" d="M145.14,164.26s6.63-2.63,8.92-2.23c1.28.22,4.12,2.59,4.12,2.59a2.84,2.84,0,0,0,4.08,2c.83.56,1.33,3.31-2.65,3-1.7-.14-3.52-2.06-4.82-4.81-3.88,1.36-13.74,7.18-16.72,4.39-1.4-1.31,1.36-5.74,3-7,0,0,3.56-2.67,4.95-2.56,1.1.09,3.55,2.62,3.55,2.62"/><path class="cls-15" d="M101.83,185c-.61,2.3-5.83,3.78-5,5.39.56,1,3.58-.62,4.44-1.4.71-.63,1.49-3.48,1.49-3.48"/><path class="cls-23" d="M123.21,176.33c-.16-2.69-9.42-4.34-10.58-1.92a9.88,9.88,0,0,0,1.86,2.72c3.12.1,6.79,4.35,9.29,4,1.4-.21,4.3-2.24,4.31-3.65s.34-4.59-.6-5.34c-1.34-1.07-6.1,2.06-6.1,2.06"/><path class="cls-13" d="M115.81,175.63c-.2-.69-3.45-.92-3.45-.92-1.73.45-14.26,7.64-9.55,10.76,3.39-.2,8.75-6.43,11.57-8.63C114.75,176.56,115.94,176.08,115.81,175.63Z"/><path class="cls-23" d="M126.79,169.89c-.2-3.44-14.22-5.42-14.27-2,1.73.46,1.74,1.94,2.39,2.12,3.45.92,9.49,5.27,12.72,4.33,2-.58,5.39-4.44,5.27-6.54,0,0-2.73-4.07-4.22-4.27-2.86-.4-5.45,3.55-5.45,3.55"/><path class="cls-15" d="M102.07,173.06c-1,.11-1.92,1.68-2.12,2.39-.27,1-4.7.74-3.88,1.36,4.15,3.15,7.21-2.74,7.21-2.74"/><path class="cls-13" d="M114.91,170c-2.44.89-6.7,4.56-9.35,4.52-1,0-3.34-.56-3.49-1.49.4-2.86,2.66-3,10.45-5.15,0,0,3.39-.21,4.58.85C117.21,169.79,115.51,169.81,114.91,170Z"/><path class="cls-27" d="M109.92,152.78s1.7,9.52,4,10.51c.4.07,1-.8,1.07-1.19a38.72,38.72,0,0,0-2.87-10C111.61,152.68,109.92,152.78,109.92,152.78Z"/><path class="cls-23" d="M129.07,160.69s-5.77-7-7.77-6.89c-2.85.09-5.33,5.41-11.18,2.36-.61,1.48,1.93,3.85,4.22,4.28,1.5.28,4.58.86,6.07-2.63,3,2.65,6.47,8.67,9.56,8.49,2.26-.14,3.75-3.62,3-6.41,0,0-1-4.42-2.53-4.38-1.07,0-3.21,3-3.21,3"/><path class="cls-28" d="M112.14,152.08c.47-1.73-4-.33-2.22.7C110.42,153.07,112,152.64,112.14,152.08Z"/><path class="cls-29" d="M113.51,193.89c.26-5.11,15.89.75,15.89.75"/><path class="cls-29" d="M116,188.08c3.11-4.72,14.77.82,14.77.82"/><path class="cls-29" d="M120.8,183.26c1.55-2.35,5.67.23,5.67.23"/><circle class="cls-30" cx="115.43" cy="197.73" r="1.13"/><line class="cls-31" x1="148.83" y1="192.35" x2="146.89" y2="193.59"/><line class="cls-31" x1="150.12" y1="195.01" x2="145.96" y2="197.05"/><line class="cls-31" x1="149.19" y1="198.27" x2="147.19" y2="198.67"/><line class="cls-31" x1="151.34" y1="201.82" x2="148.06" y2="203.71"/><line class="cls-31" x1="153.63" y1="202.25" x2="157.08" y2="203.18"/><line class="cls-31" x1="153.31" y1="198.88" x2="155.75" y2="199.86"/><line class="cls-31" x1="152.18" y1="192.71" x2="154.25" y2="193.72"/><line class="cls-31" x1="152.33" y1="196.67" x2="154.99" y2="196.51"/><line class="cls-31" x1="155.12" y1="179.73" x2="157.96" y2="179.91"/><line class="cls-31" x1="156.01" y1="182.97" x2="157.56" y2="182.77"/><line class="cls-31" x1="156.98" y1="185.66" x2="159.46" y2="186.05"/><line class="cls-31" x1="156.21" y1="188.51" x2="160.19" y2="188.84"/><line class="cls-31" x1="155.63" y1="191.28" x2="154.15" y2="192.03"/><line class="cls-31" x1="154.94" y1="186.23" x2="152.89" y2="189.84"/><line class="cls-31" x1="151.98" y1="181.25" x2="150.23" y2="183.21"/><line class="cls-31" x1="153.81" y1="184.17" x2="151.46" y2="184.83"/><line class="cls-31" x1="111.49" y1="169.67" x2="109.07" y2="166.98"/><line class="cls-31" x1="108.34" y1="169.04" x2="105.09" y2="166.65"/><line class="cls-31" x1="104.77" y1="171.49" x2="102.97" y2="169.04"/><line class="cls-31" x1="105.56" y1="174.55" x2="105.1" y2="176.27"/><line class="cls-31" x1="108.24" y1="172.66" x2="108.45" y2="175.51"/><line class="cls-31" x1="111.09" y1="172.38" x2="111.73" y2="173.61"/><line class="cls-31" x1="114.09" y1="170.57" x2="113.92" y2="172.35"/><line class="cls-32" x1="113.34" y1="176.83" x2="114.39" y2="180.25"/><line class="cls-32" x1="110.98" y1="179.99" x2="110.58" y2="182.74"/><line class="cls-32" x1="108.12" y1="181.4" x2="108.98" y2="184.53"/><line class="cls-32" x1="106.13" y1="184.08" x2="106.27" y2="186.39"/><line class="cls-32" x1="104.17" y1="179.73" x2="101.25" y2="178.2"/><line class="cls-32" x1="108.02" y1="177.8" x2="105.16" y2="177.4"/><line class="cls-32" x1="103.94" y1="182.11" x2="99.76" y2="181.69"/><path class="cls-33" d="M103.91,146.91l.73,2.79s2.76-1.3,3.45.92"/><path class="cls-33" d="M104.8,142.89c.17,2.82,5.25,2.52,4.82,4.81"/><path class="cls-33" d="M111.87,147.57s-1.29-2.76,2.09-3"/><line class="cls-22" x1="168.26" y1="120.14" x2="148.6" y2="141.7"/><path class="cls-9" d="M232.08,157.06a40.1,40.1,0,0,1,7.91-1.13c-1.13,3.39-9.61,10.17-14.13,10.74"/><path class="cls-15" d="M205.24,134.74c-3.11,6.5-.78,17.12,2.4,23,1.59,2.93,3,5.54,6.06,8.33,2.67,2.39,12.56,1.57,14.32-.61,6.32-7.83,12.53-28.74.1-40"/><path class="cls-21" d="M208.34,127.11c-3.84,7.28-7.06,14.41.93,30,2.18,4.25,3.87,6.2,5.93,7.58,2.62,1.76,7,2.31,11.49,1.06,8.5-12.87,8.5-30.39,1.43-40.28C235.47,116.94,218,113,218,113S203.26,118.64,208.34,127.11Z"/><path class="cls-34" d="M218,154.24c1.7-6.22-7.35-12.43-7.91-3.74a78.43,78.43,0,0,0-13,3.17l1.7,2.26S214.56,158.76,218,154.24Z"/><path class="cls-34" d="M192.85,171.46c-4.14-1.55,5.62-17.05,5.62-17.05s2.89.13,3,.63C201.65,156.15,196.45,169.11,192.85,171.46Z"/><path class="cls-15" d="M193.21,170.25c-3.14,1.69-6.36,6.27-6.62,8,1.07.78,4-3.56,4-3.56s1.75-.18,2.13-.95S194,170.28,193.21,170.25Z"/><path class="cls-34" d="M216.26,145.2c1.13-5.09-7.35-9.61-9-2.1-5.85.27-11.79,2.73-13.57,3.23C195.35,149.15,214.64,148.43,216.26,145.2Z"/><path class="cls-34" d="M197,130.5c-1.18-.21.71,3.83,1.7,4.53,3.11,2.18,12.43,6.21,16.39,3.95,1.13-6.21-4-12.43-7.82-4.81A42.29,42.29,0,0,0,197,130.5Z"/><path class="cls-35" d="M215.13,118.07c.57-1.2-2.26-4.52-4-4.52-2.26,0-4.12,3.62-2.48,6C210,121.46,214.51,119.35,215.13,118.07Z"/><path class="cls-35" d="M219.08,114.68c0-1.1,2.29-2.83,3.39-2.82s3.3,1.72,3.39,2.82-1.13,2.83-3.39,2.83A3.19,3.19,0,0,1,219.08,114.68Z"/><circle class="cls-24" cx="222.33" cy="115.39" r="0.99"/><circle class="cls-24" cx="211.74" cy="117.51" r="1.13"/><path class="cls-11" d="M215.2,114.28s-8.14-9.84-11.38-12.59c-2.17-1.86-9.6-3.36-9.6-6.22"/><path class="cls-11" d="M237.73,97.16c-8.48,2.83-14.41,14.7-14.41,14.7"/><path class="cls-11" d="M216.26,159.89s3.39-4.52,11.86-.57"/><path class="cls-11" d="M218.52,162.71c.56-2.82,6.78-1.69,6.78-1.69"/><path class="cls-15" d="M215.41,121.75c-.28-.29-10.9-1.9-11.59.84C203.26,124.85,213.43,123.72,215.41,121.75Z"/><path class="cls-15" d="M216.82,120.9c-.67-.67,2.26-1.7,4-1.7,2,0,5.08.57,7.34,0C226.43,122.59,217.39,121.46,216.82,120.9Z"/><path class="cls-15" d="M250.16,152s3.4,3.6,5.09,4a9.49,9.49,0,0,0,2.82-.56Z"/><path class="cls-36" d="M253,145.48c.06,4,.45,8.76,2.82,8.76,2,0,2.86-5.24,3.19-8.76Z"/><path class="cls-37" d="M253,145.48c.66,1.35,6,0,6,0C258,144.37,252.34,144.13,253,145.48Z"/><path class="cls-18" d="M259.46,164.24a5.62,5.62,0,0,0-3-2.37l-.33,0,0-7.35c2.94-.69,3.32-10.9,3.35-12.1v-.18l-.16-.08c-.15-.07-3.56-1.75-6.49,0l-.14.08v.93c0,3.59,0,9,1.73,10.79a1.94,1.94,0,0,0,1.14.57l0,7.31a4.6,4.6,0,0,0-3.16.91,1.2,1.2,0,0,0-.22,1.21c.36,1.08,2.29,1.78,3.93,2a8.57,8.57,0,0,0,1,.06,2.76,2.76,0,0,0,2.38-.84A.92.92,0,0,0,259.46,164.24Zm-.72-21.76a4.42,4.42,0,0,1-5.32,0A6.75,6.75,0,0,1,258.74,142.48Zm-5.47.66v-.07a4.53,4.53,0,0,0,2.82.86,4.61,4.61,0,0,0,2.8-.83c-.21,4.48-1.16,10.86-3.08,10.86a1.34,1.34,0,0,1-1-.43C253.24,151.93,253.26,146.43,253.27,143.14ZM259,164.82c-.31.49-1.41.7-2.81.53-1.71-.21-3.23-.91-3.46-1.59a.64.64,0,0,1,.11-.67,4.24,4.24,0,0,1,2.72-.72h0v.91h.56v-.88a.73.73,0,0,1,.22,0,5.15,5.15,0,0,1,2.62,2A.39.39,0,0,1,259,164.82Z"/><path class="cls-38" d="M245.64,128.24c.28,2,.2,3.91.51,4.53a6.43,6.43,0,0,0,6.38,0,21.62,21.62,0,0,0,.7-4.45C252.13,126.77,247,126.89,245.64,128.24Z"/><path class="cls-39" d="M245.64,127.68c.28.85,2.69,1.33,3.67,1.41s4,0,3.92-1.34C252.13,126.2,247,126.32,245.64,127.68Z"/><path class="cls-18" d="M253.76,124.2c-.36-1.08-2.5-1.47-4.22-1.47s-3.86.39-4.22,1.47l0,.09c0,5,.2,7.8.6,8.6l0,.07.06,0a6.75,6.75,0,0,0,6.7,0l.1-.06,0-.12a49.08,49.08,0,0,0,1-8.53Zm-4.22-.9c1.82,0,3.34.43,3.65,1-.25.68-1.34,1.13-2.91,1.19-2,.08-4-.48-4.38-1.2C246.21,123.72,247.73,123.3,249.54,123.3Zm2.74,9.29a6.25,6.25,0,0,1-5.91,0c-.22-.55-.48-2.34-.5-7.5a7.32,7.32,0,0,0,4,1h.39a4.8,4.8,0,0,0,2.89-.84A51.85,51.85,0,0,1,252.28,132.59Z"/><path class="cls-34" d="M235.47,156.5c.49-2-1.64-4.69-5.64-6.61-5.1-8.08-9.62,2.09-7.92,4.35C223.82,156.8,233.21,157.06,235.47,156.5Z"/><path class="cls-34" d="M220.78,146.33c-1.7-3.39,1.13-13.56,9.6-5.45a63.81,63.81,0,0,1,9.61-.2C240.56,146.41,226.14,149.15,220.78,146.33Z"/><path class="cls-34" d="M249.6,151.41s-6.22-10.17-9-10.73c-.88-.18-2.93.79-2.82,1.69C238.17,146.08,249.6,151.41,249.6,151.41Z"/><path class="cls-34" d="M218.52,137.29c1,2.33,3.71,2.48,5.08,2.26,3.39-.57,12.43-4,15.82-9.05a36.48,36.48,0,0,0-11.3,1.7C218.94,126,217.83,135.63,218.52,137.29Z"/><path class="cls-34" d="M252.42,131.07c0-.16-.66,0-.66,0l-12.34-.54s-2.64,2.58-1.69,2.27C241.12,131.63,249.6,133.9,252.42,131.07Z"/><path class="cls-40" d="M253.55,127.68c.57,1.13-1.74,2.74-1.13,3.39S255.81,128.81,253.55,127.68Z"/><path class="cls-34" d="M182.92,140.11c0-1.69,10.73,5.09,14.12,5.09.06,1.07-2.88,1.79-3.95,1.69C190,146.61,182.92,141.81,182.92,140.11Z"/><path class="cls-34" d="M193.3,122.45s1.74,8.51,3.44,10.76c.6.79,3.42,2.24,3.74,1.3C201.22,132.38,193.3,122.45,193.3,122.45Z"/><path class="cls-41" d="M187.58,107.91c-.82,1.32-.52,3.2.37,5.15l1.74-3.44A7.28,7.28,0,0,0,187.58,107.91Z"/><path class="cls-42" d="M196.57,118.2a100.57,100.57,0,0,0-6.88-8.58L188,113.06c2.08,4.54,7.4,9.43,9.29,8.37C198,121,196.57,118.2,196.57,118.2Z"/><path class="cls-18" d="M196.8,118a98.27,98.27,0,0,0-6.77-8.46,1.59,1.59,0,0,0-.13-.13,7.47,7.47,0,0,0-2.23-1.81l-.21-.07-.12.19c-1.68,2.72,1,7.51,4.12,10.81,1.63,1.69,3.7,3.29,5.16,3.29a1.51,1.51,0,0,0,.76-.19C198.24,121.19,197.28,119,196.8,118Zm-9.1-9.77a8.19,8.19,0,0,1,1.64,1.4L188,112.39A5.21,5.21,0,0,1,187.7,108.27Zm9.41,12.91c-.91.51-3.06-.73-5.24-3a19.87,19.87,0,0,1-3.61-5.11l1.5-3a98.07,98.07,0,0,1,6.55,8.22C197,119.76,197.32,121.06,197.11,121.18Z"/><path class="cls-15" d="M194.27,116.21c.45-.37,2.32.2,2.32.2s-2.55,3.91-2.76,6.23C192.24,122.4,193.14,117.11,194.27,116.21Z"/><path class="cls-15" d="M182.92,140.11s-7.93,1.49-8.48-.56c-.26-1,3.39-2.26,3.39-2.26V139l5.09,1.13"/><path class="cls-43" d="M174,130.12c0,2.56,1,5.12,3.87,5.47,3.09.39,4.8-2.54,5.31-5.44C181.64,128.41,174,130.12,174,130.12Z"/><path class="cls-44" d="M174,130.12c3,2.36,8.67,2.93,9.18,0C181.64,128.41,174,130.12,174,130.12Z"/><path class="cls-18" d="M178.11,143.56v-7.67l.28,0a4.22,4.22,0,0,0,3.3-1.58c1.67-1.94,2.31-5.57,1.5-8.42l-.05-.1a4,4,0,0,0-2.58-1.09c-2.11-.25-4.69.22-5.73,1l-.07.08a8.72,8.72,0,0,0-.41,7.55,4.28,4.28,0,0,0,3.2,2.44v7.72c-1.2,0-3.38.55-4.18,1.4a1.07,1.07,0,0,0-.34.83c.07,1,1.37,1.64,3.47,1.8q.41,0,.87,0c1.92,0,4.38-.44,4.69-1.78a.92.92,0,0,0-.2-.78C181.21,144.21,179.12,143.67,178.11,143.56Zm-2.89-17.39a8.88,8.88,0,0,1,5.28-.89,3.47,3.47,0,0,1,2.16.84h0c-1.34,2.31-7,.38-7.51.19C175.17,126.27,175.19,126.22,175.22,126.17Zm-.36,7a8.21,8.21,0,0,1,0-6.16,21.94,21.94,0,0,0,5,.83,4,4,0,0,0,2.94-1,9.16,9.16,0,0,1-1.55,7.13,3.84,3.84,0,0,1-6.41-.83Zm6.65,12.56c-.2.88-2.53,1.5-5,1.31-1.71-.13-2.9-.64-2.95-1.27a.52.52,0,0,1,.19-.4c.66-.7,2.67-1.17,3.77-1.23v1.09h.56v-1.07c1,.11,2.82.64,3.31,1.27A.36.36,0,0,1,181.51,145.7Z"/><line class="cls-11" x1="211.74" y1="127.11" x2="224.73" y2="125.98"/><line class="cls-11" x1="197.78" y1="160.27" x2="201.6" y2="162.47"/><line class="cls-11" x1="195.31" y1="165.86" x2="197.83" y2="167.14"/><line class="cls-11" x1="193.18" y1="166.81" x2="190.4" y2="167.3"/><line class="cls-11" x1="193.28" y1="164.08" x2="189.72" y2="163.4"/><line class="cls-11" x1="192.91" y1="155.38" x2="196.18" y2="157.68"/><line class="cls-11" x1="192.57" y1="160.03" x2="196.57" y2="159.91"/><line class="cls-11" x1="196.44" y1="155.91" x2="198.4" y2="157.29"/><line class="cls-11" x1="189.13" y1="142.94" x2="190.83" y2="137.29"/><line class="cls-11" x1="192.52" y1="143.5" x2="193.65" y2="142.37"/><line class="cls-11" x1="191.2" y1="146.38" x2="191.39" y2="148.02"/><line class="cls-11" x1="189.7" y1="144.07" x2="186.31" y2="147.46"/><line class="cls-11" x1="186.31" y1="138.98" x2="186.31" y2="141.81"/><line class="cls-11" x1="185.18" y1="142.94" x2="184.05" y2="144.07"/><line class="cls-11" x1="243.38" y1="146.33" x2="239.42" y2="150.28"/><line class="cls-11" x1="241.68" y1="144.07" x2="238.58" y2="145.76"/><line class="cls-11" x1="242.81" y1="142.37" x2="243.94" y2="140.68"/><line class="cls-11" x1="245.64" y1="146.89" x2="247.34" y2="144.07"/><line class="cls-11" x1="247.34" y1="147.46" x2="249.03" y2="146.89"/><line class="cls-11" x1="244.51" y1="148.59" x2="243.38" y2="150.28"/><line class="cls-11" x1="195.21" y1="127.3" x2="190.91" y2="127.6"/><line class="cls-11" x1="195.95" y1="132.04" x2="194.42" y2="133.01"/><line class="cls-11" x1="191.84" y1="124.94" x2="193.98" y2="125.68"/><line class="cls-11" x1="200.2" y1="128.43" x2="198.2" y2="130.73"/><line class="cls-11" x1="195.04" y1="126.05" x2="196.67" y2="124.81"/><line class="cls-11" x1="241.68" y1="131.63" x2="242.25" y2="135.03"/><line class="cls-11" x1="244.79" y1="132.79" x2="245.64" y2="134.46"/><line class="cls-11" x1="243.38" y1="131.63" x2="242.81" y2="128.24"/><line class="cls-11" x1="247.62" y1="130.86" x2="247.9" y2="129.37"/><path class="cls-34" d="M236.58,160.36c.3-2-.35-6.67-2.51-6.38-2,.26-2.82,1.93-2.56,5.91.19,2.87-1.64,10.65.28,13.39C234.34,171.19,236.18,163,236.58,160.36Z"/><path class="cls-15" d="M238.86,179.1c1-.74-6.22-7.91-7.24-6.6-1.21,1.54,2.15,2.65,2.15,2.65S236.6,180.8,238.86,179.1Z"/><line class="cls-11" x1="234.51" y1="159.59" x2="240.21" y2="158.71"/><line class="cls-11" x1="233.2" y1="161.41" x2="229.71" y2="160.86"/><line class="cls-11" x1="238.18" y1="162.84" x2="236.14" y2="162.11"/><line class="cls-11" x1="233.99" y1="164.84" x2="236.78" y2="167.96"/><line class="cls-11" x1="231.23" y1="166.67" x2="228.4" y2="167.8"/><line class="cls-35" x1="206.08" y1="112.99" x2="214" y2="115.81"/><line class="cls-35" x1="225.87" y1="110.73" x2="219.08" y2="115.25"/><circle class="cls-37" cx="258.07" cy="138.42" r="0.85"/><circle class="cls-37" cx="253.27" cy="139.26" r="0.57"/><circle class="cls-37" cx="254.4" cy="135.87" r="1.13"/><circle class="cls-37" cx="257.79" cy="133.05" r="0.57"/><line class="cls-45" x1="222.47" y1="135.03" x2="228.12" y2="132.2"/><line class="cls-34" x1="207.31" y1="134.17" x2="212.3" y2="136.16"/><line class="cls-34" x1="207.21" y1="142.94" x2="211.74" y2="144.63"/><line class="cls-34" x1="214.56" y1="151.98" x2="210.04" y2="150.28"/><line class="cls-34" x1="224.73" y1="144.07" x2="230.38" y2="140.68"/><line class="cls-34" x1="225.86" y1="151.98" x2="229.82" y2="149.72"/><path class="cls-35" d="M180.09,102.82s-.07,3.18.57,4,3.39,1.13,3.39,1.13"/><path class="cls-35" d="M183.48,96c-2.26,2.27,3.39,5.09-.56,6.22"/><path class="cls-35" d="M188.57,99.43s-1.11,2.72-.57,3.39,3.58.17,4,1.13c.3.76-1.7,2.82-1.7,2.82"/><line class="cls-11" x1="233.2" y1="157.29" x2="230.67" y2="154.24"/><path class="cls-46" d="M87,86.43c17.52,17.51,3.09,55.79-7.63,56.79-1.13.1-2.26-2.83-2.26-2.83"/><path class="cls-30" d="M64.88,104.79s3.77,32.78,12.81,34.47c10.18-6.78,25.72-33.06,9.89-53.4"/><path class="cls-22" d="M90,61.56C86,62.7,79.83,76,79.83,76"/><path class="cls-22" d="M58.88,57s7.92,4.81,10.06,7.79c1.84,2.57,6.49,10.89,6.49,10.89"/><path class="cls-21" d="M78.83,132.48s-24.3-15.82-10.18-42.94c-8.47-9.05,9-14.7,9-14.7s15.83,4.52,9,13C104.25,111.57,78.83,132.48,78.83,132.48Z"/><path class="cls-47" d="M72.61,113.83s-1.16-1.53-4-1.13c-4,.57-7.91,7.91-10.73,11.87,1.13,2.83,16-4.76,18.08-9.61.68-1.58-2.43-8.75-7-8.19-1.46.18-1.69,6.22-1.69,6.22"/><path class="cls-47" d="M73.17,105.36c-3-3.67-13.41.73-15.25,1.69a27.68,27.68,0,0,0-2.83,2.26s18.77,3.11,20.91-3.39c.44-1.34-.73-6.49-4.69-6.49-2.82,0-4.52,4.52-4.52,4.52"/><path class="cls-23" d="M54.93,103.38c-1.8-1.19-9.61-3.39-9.61-3.39s10.74,10.17,13.56,8.48C60.25,107.64,56.62,104.51,54.93,103.38Z"/><polygon class="cls-48" points="27.12 101.68 24.3 101.68 24.3 103.36 27.12 103.15 27.12 101.68"/><polygon class="cls-49" points="27.68 101.68 27.68 103.11 46.89 101.68 27.68 101.68"/><path class="cls-18" d="M54,101.12H24a.29.29,0,0,0-.28.28v2.26a.27.27,0,0,0,.09.21.26.26,0,0,0,.19.07h0L54,101.68a.28.28,0,0,0,0-.56Zm-29.67,2.24v-1.68h2.83v1.47Zm3.4-.25v-1.43h19.2Z"/><path class="cls-47" d="M83.91,115a6,6,0,0,1,5.74.16c3.23,2.39,8.11,7.47,8.95,10-6.21,1.13-16.28-4.89-18.08-8.48-1.13-2.26,2.66-7.63,6.61-7.06,1.26.18,2.27,5.08,2.27,5.08"/><path class="cls-47" d="M82.22,107.05a5.78,5.78,0,0,1,4.8-.92s10.46,2.68,9.89,5.44c-3,.85-12.43,1.13-16.39-1.69-2.06-1.47-.73-8.76,4.35-8.76,4.53,0,5.09,5.65,5.09,5.65"/><path class="cls-23" d="M93.92,110.73c0-4,11.47-12,11.47-12s-1.32,6.27-3.56,8.57C100.68,108.51,96.18,111.86,93.92,110.73Z"/><polygon class="cls-50" points="107.11 97.03 106.85 98.47 103.25 98.5 103.95 96.95 107.11 97.03"/><path class="cls-51" d="M114.56,98.41l-7.14.06.25-1.34a.28.28,0,0,0,0-.09l6.73.16Z"/><path class="cls-24" d="M102.55,98.67a.31.31,0,0,0,0,.28.28.28,0,0,0,.19.12h0l12.08-.1a.28.28,0,0,0,.21-.1.26.26,0,0,0,.07-.22l-.26-1.77a.26.26,0,0,0-.27-.24l-10.87-.25a.27.27,0,0,0-.26.16Zm11.84-1.47.17,1.21-7.14.06.25-1.34a.28.28,0,0,0,0-.09Zm-11.14,1.3L104,97l3.16.07-.26,1.44Z"/><path class="cls-22" d="M74.3,120.61c2.83-2.82,7.92,0,7.92,0"/><path class="cls-22" d="M74.87,124c1.69-3.39,5.09.57,6.22-1.13"/><path class="cls-47" d="M67.92,95.47c.57-6.22,8.08-3.67,8.08-.28,0,1.78-.63,4.34-2.26,5.08-2.66,1.21-8.64-.28-12-1.41-3.16-1-5.93-3.4-5.65-4.52.56-2.26,11.3,2.82,13.72.85"/><path class="cls-23" d="M52.24,82.92c-1,5.22,4.49,13.14,6.8,12.8.89-3.32-1.62-6.38-2.66-7.64C54.86,86.22,53.84,85,52.24,82.92Z"/><polygon class="cls-50" points="51.06 80.78 50.91 82.24 54.37 83.26 54.12 81.57 51.06 80.78"/><path class="cls-51" d="M43.51,80.06l6.85,2,.14-1.36a.19.19,0,0,1,0-.08L44,79Z"/><path class="cls-18" d="M54.65,81.31a.29.29,0,0,0-.21-.24L43.92,78.34a.27.27,0,0,0-.33.16l-.73,1.63a.31.31,0,0,0,0,.23.31.31,0,0,0,.18.16l11.59,3.4h0a.26.26,0,0,0,.22-.07.28.28,0,0,0,.09-.25Zm-4.13-.67a.19.19,0,0,0,0,.08l-.14,1.36-6.85-2L44,79Zm.39,1.6.15-1.46,3.06.79.25,1.69Z"/><ellipse class="cls-18" cx="78.26" cy="125.98" rx="0.57" ry="0.85" transform="translate(-43.27 40.97) rotate(-23.18)"/><path class="cls-52" d="M88.26,93.77s-7.91-2.26-9.43,3.11c-.46,1.59.64,5.89,2.26,6.22,5.34,1.08,15.25-7.91,17.51-14.7-4.52.57-14.12,8.48-14.12,8.48"/><path class="cls-23" d="M99.48,73.8S93.35,91,96.18,91c2.26,0,4.59-5.75,4.52-8.48C100.65,80.71,99.48,73.8,99.48,73.8Z"/><path class="cls-53" d="M116.69,66.93c1.81-2.26-2.15-7.34-4.53-6.78-3.49,1.94-10.62,5.09-11.86,10.17-2,1.8-6.44,3.68-7.68,4.81a1.53,1.53,0,0,0,1.46,2c2.94-1.13,4.07-2.82,7.46-4.52C105.5,74.28,113.42,68.89,116.69,66.93Z"/><path class="cls-23" d="M102,74.28s-1.22-4.87-2.26-5.09c-.58-.12-1.7,2.64-1.13,2.83A10.54,10.54,0,0,1,102,74.28Z"/><path class="cls-23" d="M82,130.18s9.71-7,13.68-7.35a1.11,1.11,0,0,1,.74,1.63C93.52,131.35,82,130.18,82,130.18Z"/><path class="cls-23" d="M52.74,80.62l3.55,4.32s1.34-4.8,0-5.68C55.35,78.66,52.74,80.62,52.74,80.62Z"/><path class="cls-23" d="M72.64,129.21s-9.41-2.59-11.92-4.59c-1.49-1.18.74-3.21,1.63-3.18C65.57,121.57,72.64,129.21,72.64,129.21Z"/><path class="cls-54" d="M74.3,83.88c-1.39-.2-5,2.07-4.52,3.39.64,1.75,7.35,1.13,7.35,1.13L76,86.14S72,86.71,74.3,83.88Z"/><path class="cls-54" d="M80.52,83.88c1.32-.15,4.9,1.55,4.52,2.83-.49,1.65-6.78,1.13-6.78,1.13l.57-1.7S82.22,86.71,80.52,83.88Z"/><path class="cls-23" d="M43.79,105.36s-1.13-4.07,1.7-5.2c.7-.28-3.5-.5-4,.11C39.83,102.53,43.79,105.36,43.79,105.36Z"/><path class="cls-23" d="M73.23,137.18s2.44-5.41,1.66-7c-.27-.57-2.25-.92-2.25-.92Z"/><path class="cls-23" d="M82,130.18l-2.27,6.71s2.76-1.66,3-2.3C83.24,133.5,82,130.18,82,130.18Z"/><path class="cls-35" d="M41.31,75.52c-4.39-1.56-6,3.39-9.56-.93"/><path class="cls-35" d="M40,82.78c-2.16-.11,1.57,2.82-2.48,2.62"/><path class="cls-35" d="M38.62,79.8c-3.88-.94-2.52,2.59-2.52,2.59l-4,.18"/><path class="cls-55" d="M75,78.74a.26.26,0,0,1-.09.05l-5.88,1.79a2.61,2.61,0,0,0,.54,1.17,2.36,2.36,0,0,0,1.87.72,3.88,3.88,0,0,0,3.67-3.13A1.4,1.4,0,0,0,75,78.74Z"/><circle class="cls-18" cx="73.17" cy="79.36" r="1.13"/><path class="cls-56" d="M74.81,78.24c-.52-.91-1.5-1.9-2.15-2h-.13c-1.14,0-3.36,1.62-3.5,2.6A5.5,5.5,0,0,0,69,80l5.8-1.76S74.8,78.25,74.81,78.24Z"/><path class="cls-18" d="M73,75.75l.47-1.38a.29.29,0,0,0-.17-.36.28.28,0,0,0-.36.18l-.52,1.5a3.07,3.07,0,0,0-.63.13V73.71a.28.28,0,1,0-.56,0V76a.13.13,0,0,0,0,.06,6.29,6.29,0,0,0-1.1.66l-1.22-2a.27.27,0,0,0-.38-.1.28.28,0,0,0-.1.39L69.66,77a4.27,4.27,0,0,0-1,1.22L67.76,77a.28.28,0,1,0-.47.31L68.42,79s0,0,0,0a4.25,4.25,0,0,0,.75,3.14,2.87,2.87,0,0,0,2.29.92,4.46,4.46,0,0,0,4.24-3.65C75.81,78.22,74.19,76.13,73,75.75Zm-1.49,6.72a2.36,2.36,0,0,1-1.87-.72,2.61,2.61,0,0,1-.54-1.17L75,78.79a.26.26,0,0,0,.09-.05,1.4,1.4,0,0,1,.11.6A3.88,3.88,0,0,1,71.48,82.47ZM69,78.84c.14-1,2.36-2.6,3.5-2.6h.13c.65.09,1.63,1.08,2.15,2,0,0,0,0,0,0L69,80A5.5,5.5,0,0,1,69,78.84Z"/><path class="cls-55" d="M83.13,79.35a2.92,2.92,0,0,0,.93,2,2.35,2.35,0,0,0,1.78-.08,5.13,5.13,0,0,0,2.89-2A2.27,2.27,0,0,0,88.64,78h0l-5.51.54A5,5,0,0,0,83.13,79.35Z"/><circle class="cls-18" cx="87.02" cy="77.95" r="1.13"/><path class="cls-56" d="M87,75.54c-.92-.59-1.89-.37-2.9.63a3.42,3.42,0,0,0-.9,1.75l5.23-.52A4.1,4.1,0,0,0,87,75.54Z"/><path class="cls-18" d="M89.79,73.88a.29.29,0,0,0-.07-.4.28.28,0,0,0-.39.07l-1.42,2a3.46,3.46,0,0,0-.6-.5,2.14,2.14,0,0,0-.3-.17s0,0,0-.06V73.15a.29.29,0,0,0-.57,0v1.56a2.3,2.3,0,0,0-1.1,0l0-1a.28.28,0,0,0-.29-.28.27.27,0,0,0-.27.29l0,1.19a.09.09,0,0,0,0,0,3.63,3.63,0,0,0-.84.58L83,74.12a.3.3,0,0,0-.4-.08.28.28,0,0,0-.07.39l1,1.52a4.54,4.54,0,0,0-1,3.46,3.36,3.36,0,0,0,1.19,2.45,1.66,1.66,0,0,0,.92.23A4.54,4.54,0,0,0,86,81.85c1.32-.44,2.89-1.45,3.24-2.39a4.4,4.4,0,0,0-1-3.46l0,0Zm-1.06,5.38a5.13,5.13,0,0,1-2.89,2,2.35,2.35,0,0,1-1.78.08,2.92,2.92,0,0,1-.93-2,5,5,0,0,1,0-.86L88.63,78h0A2.27,2.27,0,0,1,88.73,79.26ZM87,75.54a4.1,4.1,0,0,1,1.43,1.86l-5.23.52a3.42,3.42,0,0,1,.9-1.75C85.12,75.17,86.09,75,87,75.54Z"/><path class="cls-23" d="M105.54,96.42l-4.6,3.18s0-5,1.56-5.46C103.56,93.81,105.54,96.42,105.54,96.42Z"/><path class="cls-35" d="M115.72,87s-2.25,2.47-2.17,3.49,2.83,2.1,2.64,3.1c-.09.51-1.94,1.19-1.94,1.19"/><line class="cls-35" x1="121.39" y1="90.24" x2="118.85" y2="93.16"/><path class="cls-35" d="M123.62,93.5s.33,2.94-.38,3.42-2.72-.77-2.72-.77l-.85.93"/><path class="cls-35" d="M20.74,80.78s-3.29,6.13-2.26,7.91c.69,1.2,4.33,1.09,5.08,2.26,1,1.54,0,7.35,0,7.35"/><path class="cls-35" d="M25.26,80.78s2.26,4.13,2.26,5.65a10.61,10.61,0,0,1-1.13,2.82"/><path class="cls-57" d="M112.16,60.15a9,9,0,0,0,1.25,4,11.48,11.48,0,0,0,3.28,2.82C118.5,64.67,114.54,59.59,112.16,60.15Z"/><path class="cls-58" d="M103,66.05a33.94,33.94,0,0,0,2.36,5.51c.76,1,1,.81,1,.81A24.71,24.71,0,0,0,111.58,70c-2.12-1.92-4-7.3-4-7.3A24,24,0,0,0,103,66.05Z"/><line class="cls-22" x1="54.37" y1="88.4" x2="50.97" y2="86.99"/><line class="cls-22" x1="54.93" y1="90.95" x2="51.53" y2="90.95"/><line class="cls-22" x1="56.06" y1="88.12" x2="57.19" y2="85.86"/><line class="cls-22" x1="56.62" y1="91.51" x2="58.88" y2="89.82"/><line class="cls-22" x1="52.12" y1="85.41" x2="50.4" y2="84.17"/><line class="cls-22" x1="55.49" y1="93.21" x2="54.36" y2="95.47"/><line class="cls-22" x1="49.84" y1="99.43" x2="50.36" y2="101.68"/><line class="cls-22" x1="56.06" y1="106.21" x2="57.75" y2="103.38"/><line class="cls-22" x1="54.93" y1="103.38" x2="56.06" y2="100.56"/><line class="cls-22" x1="52.66" y1="104.51" x2="53.23" y2="107.34"/><line class="cls-22" x1="50.4" y1="103.38" x2="48.14" y2="103.95"/><line class="cls-22" x1="46.45" y1="98.86" x2="47.01" y2="100.56"/><line class="cls-22" x1="61.71" y1="123.72" x2="61.71" y2="126.55"/><line class="cls-22" x1="63.4" y1="123.16" x2="65.66" y2="122.03"/><line class="cls-22" x1="63.97" y1="124.85" x2="65.66" y2="127.68"/><line class="cls-22" x1="66.79" y1="124.85" x2="68.66" y2="124.32"/><line class="cls-22" x1="68.43" y1="128.12" x2="68.49" y2="130.5"/><line class="cls-22" x1="69.48" y1="127.11" x2="71.74" y2="126.55"/><line class="cls-22" x1="96.74" y1="88.12" x2="93.92" y2="84.73"/><line class="cls-22" x1="99.73" y1="86.99" x2="102.96" y2="85.86"/><line class="cls-22" x1="97.87" y1="83.6" x2="99.57" y2="80.78"/><line class="cls-22" x1="95.43" y1="77.48" x2="97.31" y2="80.78"/><line class="cls-22" x1="101.83" y1="77.95" x2="100.32" y2="79.15"/><line class="cls-22" x1="97.87" y1="76.26" x2="99" y2="78.52"/><line class="cls-22" x1="94.48" y1="82.47" x2="96.37" y2="82.92"/><line class="cls-22" x1="103.24" y1="101.68" x2="107.48" y2="101.69"/><line class="cls-22" x1="99.57" y1="100.56" x2="100.22" y2="102.62"/><line class="cls-22" x1="99.57" y1="105.08" x2="102.96" y2="103.95"/><line class="cls-22" x1="100.13" y1="107.34" x2="104.09" y2="107.9"/><line class="cls-22" x1="95.43" y1="103.66" x2="96.18" y2="108.47"/><line class="cls-22" x1="98.72" y1="109.65" x2="100.7" y2="110.73"/><line class="cls-22" x1="96.74" y1="103.38" x2="97.87" y2="104.32"/><line class="cls-22" x1="94.48" y1="125.33" x2="94.48" y2="129.37"/><line class="cls-22" x1="91.18" y1="127.68" x2="89.4" y2="130.5"/><line class="cls-22" x1="88.83" y1="124.85" x2="90.13" y2="126.29"/><line class="cls-22" x1="93.41" y1="124.06" x2="90.63" y2="122.74"/><line class="cls-22" x1="88.26" y1="128.12" x2="84.97" y2="127.11"/><polygon class="cls-59" points="103.81 35.29 104.37 55.35 195.91 67.22 198.74 35.29 103.81 35.29"/><path class="cls-60" d="M286.33,95.19c-7-2.87-30-.69-31.08,6.78-1.13,7.91.56,27.69,31.64,28.25,6.15.11,15.26-19.21,15.26-19.21S291.5,97.32,286.33,95.19Z"/><ellipse class="cls-61" cx="293.95" cy="112.99" rx="3.39" ry="4.52"/><path class="cls-62" d="M298.47,101.69a5.42,5.42,0,0,0-7.06.28c-1.7,1.59-4.52,9.6-4.52,9.6l13.56,1.13S300.59,103.39,298.47,101.69Z"/><polygon class="cls-63" points="291.69 119.77 290 193.51 292.82 193.51 294.52 119.77 291.69 119.77"/><line class="cls-64" x1="293.39" y1="108.47" x2="293.25" y2="110.73"/></svg>