<svg id="Layer_1" data-name="Layer 1" xmlns="http://www.w3.org/2000/svg" viewBox="0 0 600 600"><defs><style>.cls-1{fill:#443e40;}.cls-2{isolation:isolate;}</style></defs><path class="cls-1" d="M347.35,94.14a34.06,34.06,0,0,0-2-7.75c-.75-1.74-4.5-5-6.26-4.27-2.57,1-3.28,4.91-3.28,4.91s.39,4,.8,9C339.94,95.14,345.55,94.37,347.35,94.14Z"/><path class="cls-1" d="M358.66,102.69c-1.15-5.25-3.13-9.6-5.06-11.69-2.73-3-5.06,1.63-5.06,1.63s.39,4.47.72,9.26A31.93,31.93,0,0,1,358.66,102.69Z"/><path class="cls-1" d="M337.15,113.46c-.91,0-2-16.54-2.53-25.85l-10.86,2.73c.29,4.94.79,15.47-.15,16.48a23.78,23.78,0,0,0-5.48,9.15c7.77-3.48,35.32,2.37,40.77,3.58l0-.17a39,39,0,0,0,0-15.59,31.1,31.1,0,0,0-9.56-.9c.35,5.17.6,10.38.21,10.5-.8.23-.82-9.7-2.05-18.26-1.75.23-7.42,1-10.64,1.83C336.85,97,337.91,113.42,337.15,113.46Z"/><path class="cls-1" d="M317.73,117.35c-1.67,6.64-.27,13.48,1.75,19.51,2.29-.1,10.39-.41,18.75-.32,15.5.18,20.12,1.59,21.69,2.56a83.3,83.3,0,0,0-.82-18.48C354.79,119.66,323.33,112.87,317.73,117.35Z"/><path class="cls-1" d="M319.47,164.25c11.87.73,36.53,1.62,42-3a36.05,36.05,0,0,1-1.84-7.56,118.73,118.73,0,0,1,.25-13.31c-3.09-3.41-29-3-40.05-2.52.86,2.45,1.8,4.77,2.66,6.86,1.78,4.35,3.19,7.78,2.89,10A15,15,0,0,1,319.47,164.25Z"/><path class="cls-1" d="M316.05,160.43a8.25,8.25,0,0,1-2.34,3.36h4.71a13.93,13.93,0,0,0,6-9.24c.27-1.93-1.17-5.42-2.82-9.46-4.27-10.41-10.72-26.15,1.32-38.95.46-.8.3-8.84-.14-16.15l0-.41s-.3-4.45-.52-6.73c-.12-1.24-.21-2.13-.26-2.78-2.43-5.22-12.24,0-12.33,3.15-.67,2.92,2.45,14.56,1.4,24.5a64.83,64.83,0,0,0,1.85,21.8s-10.44-17.19-15.47-15.22c-2.88,1.13-2.72,5.55-1.53,9.25,2.49,7.77,15.77,24.63,15.77,24.63S316.83,157.91,316.05,160.43Z"/><path class="cls-1" d="M323.2,82.75c.35,3.66.54,5.55.58,6.56l10.78-2.71c-.18-3.08-.28-5.14-.28-5.14s-.82-5.77-6.47-5.77C323.48,75.69,323,80,323,80v.75C323.06,81.35,323.13,82.05,323.2,82.75Z"/><path class="cls-1" d="M361.79,162.23c-3.86,2.85-14.45,3.62-24.81,3.62-11.73,0-23.13-1-24-1.06v-.06c-.59,2.67-3.92,18.1-4,25.11,3.66,3.88,52.06,4.23,58.34-3.6C369.9,183,364.9,171.43,361.79,162.23Z"/><path class="cls-1" d="M133.53,301.65c-2.71-7.74-5.17-27-14.41-27a11.21,11.21,0,0,0-2.27.24c3.7,4.91,8.66,18.17,12,30.41,1.43,5.29,4.24,16.7,3.54,22.55a9.3,9.3,0,0,0,3.07-2.36C139.92,320.72,136,308.78,133.53,301.65Z"/><path class="cls-1" d="M142.76,274c-.38,0-.77,0-1.18,0-8.89.65-7.37,13.35-7,25.33.43,12.83,3.07,25.73,9.69,25.79.22,0,.44,0,.65,0C146.34,312.09,143.63,282.73,142.76,274Z"/><path class="cls-1" d="M192.13,261.94c-3.79-10.18-17.91-6-21.32-10.54-5.88-7.83-21.73-23.44-53.79-17.19C87.41,240,80.41,253.63,75.18,260.37c-4.82,6.22-15.35,6.2-17.43,10.9-2,4.42,2,16.39,2,16.39s32.45,24.94,43.68,22.21a30,30,0,0,0,7.83,14.42c6.31,6.67,12.1,3.08,12.1,3.08a9.32,9.32,0,0,0,7.92.92c.68-3.8-.54-12.07-3.42-22.73-3.72-13.73-8.81-26.42-12-30.39-5.09,1.7-5.64,7.17-5.64,7.17s-5.21-.09-6.7,8.7a67.38,67.38,0,0,0-.9,8c-9.44-9.78-31.66-21.92-31.66-21.92s8.53-.91,11.36-8.89c2.16-6.07,21.15-16,38.77-18.28,21.1-2.79,35.29,3.37,42.18,9.64,7.75,7.06,22.68,3.18,20.42,10.7-2,6.75-9.59,16.2-15.17,24-2.71-.52-5.83-1-7.92-1.35a42.29,42.29,0,0,0-1.82-8.79c-1.29-3.94-7.79-6.54-7.79-6.54s-2-3.2-7.19-3.6c.9,8.94,3.56,37.62,2.17,50.9,4.69-1.14,6.85-6.92,6.85-6.92a13.92,13.92,0,0,0,5.92-6.9,35.76,35.76,0,0,0,1.87-8.67l2.49.4c-1,2.21-1.24,3.86-.17,4.68,2,1.54,4.36-.21,7-3.68,1,.13,1.86.24,2.56.31,1.2.12,2.23-4.66,2-7.1,1.71-2.76,3.52-5.8,5.45-8.86C185.75,278.85,194.72,268.87,192.13,261.94Z"/><path class="cls-1" d="M540.56,263a25,25,0,0,1-3.35-8.27l-.05-.27-.25-.1h0l0-.14-.25-.1a10,10,0,0,1-2.44-1.4c-3.28-2.75-5-7.7-4.72-14.1v-.38l-.29-.09V238l-.35-.11a4.15,4.15,0,0,1-1.25-.69c-3.65-3.34-4.17-13-4.24-15.18,1.75-.33,7.63-1.55,9.13-3.19,1.19-1.3,1-6.8,1-7.89l0-.46h-.28v-.24l-.46,0c-1.46,0-35.79-1.25-39.52,0-4.32,1.46-14.59,9.2-18.81,12.46l-.92.72,1.15.17c11.66,1.77,17.05,6.14,16.47,13.34a87.32,87.32,0,0,1-2.67,12.81l-3.89,1.86-.07,11.28,3.51,3.38-.76,4.34h0L486,277.13h0l-1,5.48h0l-.92,5.31c-1.12,1.05-8.82,8.44-10.12,12v.38l0,0v.91c-.08,24.4-.08,76.16-.08,76.68l0,.17c.07.19,7,18.69,28.36,18.69,22.83,0,27.19-18.56,27.23-18.75v-.06l-1.9-77.06h0v-1l0-.17h0v0h0c-1.31-3.56-9.41-11.23-10.53-12.28l-1.31-6.06-.05,0-1.08-5h0l-.22-1v0L513.4,271l.05,0-1-4.66,2.48-3.22-.08-11.25-3.75-2.33-2.53-11.27,3.47-3.77c1.29,2.07,2.69,4.11,4.16,6.06,4,5.4,15.86,21.28,21.65,26.06a6.3,6.3,0,0,0,2.68,1.64h.17a1,1,0,0,0,.69-.24C542.76,266.82,541.79,265.14,540.56,263ZM502.24,395.72c-20,0-26.89-16.66-27.39-18,0-2.45,0-51.45.08-75.7.15.1.31.18.47.27l.37.21c.33.19.67.37,1,.55l.49.25.93.45.63.29.85.37.75.31.76.29.88.33.67.23,1,.33.58.17c.37.12.75.23,1.13.33l.49.13,1.25.32.39.09,1.36.29.32.07,1.45.26.25.05,1.54.23.19,0,1.6.19.14,0c.55.05,1.1.11,1.65.15h.11c.56,0,1.12.08,1.69.1H498l1.7.05h1.92l1.66,0h.05a54.17,54.17,0,0,0,13.35-2.16l.22-.06c.43-.13.84-.27,1.26-.42l.34-.11,1.14-.43.4-.15c.36-.15.71-.29,1.06-.45l.43-.19,1-.47.43-.21.95-.5.41-.24c.31-.18.61-.35.91-.54l.39-.25.87-.58.12-.09,1.89,76.24C528.17,379.12,523.84,395.72,502.24,395.72Zm24.34-95.8v.42c-9.64,7.29-27,9-41.06,5.11l-.25-.08c-.47-.13-.94-.27-1.4-.42l-.51-.17-1.09-.37-.74-.28-.83-.32-.92-.39-.6-.26c-.36-.16-.72-.34-1.07-.51l-.4-.19-1.19-.63-.23-.13c-.44-.24-.86-.49-1.28-.76l-.07,0v-.73c1.3-3.3,8.72-10.44,9.81-11.48,2.83,2.8,8,4.48,14.26,4.63h.92c7,0,13.58-2,16.63-5.05C518.2,289.84,525.38,296.77,526.58,299.92ZM516,287.43c-2.91,3.1-9.74,5.06-17,4.89-6.21-.15-11.36-1.89-13.89-4.67l.75-4.32.22.14c.32.22.66.44,1,.64l.43.24c.39.2.78.4,1.19.57l.4.17c.45.18.92.35,1.4.51l.29.09c.54.17,1.08.31,1.64.45l.16,0q.92.21,1.86.36h0a34.51,34.51,0,0,0,15.88-1.25l.16,0c.47-.17.92-.34,1.36-.52l.51-.23c.29-.13.57-.26.85-.41s.61-.32.9-.49l.13-.09c.25-.15.51-.29.74-.45ZM514.77,282a16,16,0,0,1-4.27,2.21l-.27.09-1.38.43-.67.17-.78.18c-.45.11-.91.2-1.38.28l-.22,0a35.11,35.11,0,0,1-12.27-.05l-.25-.05c-.5-.11-1-.22-1.47-.35l-.55-.16c-.35-.1-.7-.22-1-.34l-.8-.31-.67-.28q-.51-.24-1-.51l-.49-.28c-.33-.2-.64-.42-.94-.64l-.25-.2.82-4.54.25.12.89.42.52.22c.31.12.62.24.94.34l.6.2,1,.28.68.17,1,.21.77.14c.31.06.62.1.94.15l.85.11.91.09.92.07.87,0,1,0h.76c.44,0,.88,0,1.33,0l.68,0,1.38-.12.6-.06c.51-.06,1-.14,1.52-.22l.43-.07a28.39,28.39,0,0,0,3.74-.91l.27-.09c.48-.16.95-.33,1.4-.52.17-.06.33-.14.5-.21.36-.16.71-.32,1.05-.49l.54-.3.52-.28Zm-2.29-10.51,1,4.39-.52.31c-.21.12-.42.25-.65.37s-.44.21-.66.31l-.77.35-.67.25c-.29.11-.59.22-.9.32l-.63.19-1,.29-.57.13c-.39.09-.78.18-1.18.25l-.46.08c-.45.08-.89.15-1.35.21l-.25,0a36.43,36.43,0,0,1-5.13.27h-.17c-.33,0-.65,0-1,0l-.91-.05-.77-.07c-.36,0-.72-.07-1.07-.12s-.44-.06-.65-.1c-.38-.06-.76-.11-1.13-.18l-.57-.13c-.38-.08-.76-.16-1.14-.26l-.49-.14c-.37-.11-.75-.22-1.11-.35l-.43-.16c-.36-.14-.71-.27-1-.42l-.39-.19c-.26-.13-.51-.26-.75-.4l.82-4.55a19,19,0,0,0,2.05.77h0c.45.14.92.27,1.39.4l.09,0c.45.11.9.21,1.37.3l.19,0c.43.08.87.16,1.32.22l.3,0c.41.06.82.11,1.24.15l.43,0,1.14.07.58,0,1,0h.69l1.08,0,.79,0,.89-.07c.31,0,.63,0,.94-.09l.62-.08A27.15,27.15,0,0,0,512.48,271.46Zm-1.14-5.38,1,4.33a28.77,28.77,0,0,1-12.11,2.71h-1.64c-.53,0-1.05,0-1.57-.07h-.07a25.31,25.31,0,0,1-8.79-2l.86-4.92c1.46.59,5.16,1.78,11.5,1.79C507.13,267.9,510.37,266.57,511.34,266.08ZM521,222.24c-.72,2.44-4.85,6.59-7.31,9.06-.61.61-1.12,1.13-1.52,1.55l0,0-4.71,5.13,2.6,11.61h-.34a33.83,33.83,0,0,1-19.9.22h-.4A86.54,86.54,0,0,0,492.06,237c.61-7.58-4.68-12.24-16.17-14.22,4-3.1,13.65-10.27,17.6-11.61,2.11-.72,15.8-.59,27.77-.31C521.71,214.23,521.71,220,521,222.24Z"/><path class="cls-1" d="M426.1,387c-1-4.41-19.43-25.78-28.21-33.22-2.19,13.76,9.19,25.68,10.58,29.11,3,7.53,3.06,16.26,10.47,24.39.31.34.64.66,1,1C423,399.6,426.5,388.77,426.1,387Z"/><path class="cls-1" d="M431.39,279.78c1.66,4-1.72,6.85-5.64,10.13-3.68,3.08-7.85,6.57-8.1,11.7-.21,4.38,2.47,9.33,8.19,15.13a4,4,0,0,1,1.34,3.14c-.2,3.67-5.55,8.05-10.72,12.3s-10.18,8.35-11.41,12.44c-2.2,2-6,5.69-6.91,8.05a154.22,154.22,0,0,1,15,15.25l6.48-9.58L406.4,343.88c1.63-3.49,6.21-7.26,10.69-10.93,5.59-4.58,10.87-8.91,11.09-13a5.08,5.08,0,0,0-1.62-3.9c-5.52-5.59-8.1-10.29-7.91-14.39.23-4.68,4.05-7.88,7.74-11,4-3.38,7.86-6.58,5.92-11.28-3.07-7.44-17.77-20-32.9-21.94-10.23-1.32-19,2.43-25.38,10.83l.8.6c6.22-8.21,14.45-11.73,24.45-10.44C414.07,260.36,428.4,272.55,431.39,279.78Z"/><path class="cls-1" d="M439.71,357.81l-12.24-2-12.28-14.63-8.14,2,13.84,15.12-7.07,10.45c6.73,7.71,12.68,15.49,13.26,18.08.53,2.38-4.05,15.73-6.35,22.2,3.7,3.11,9.06,5.16,16.49,3.89,6.59-1.12,12.33-8.36,13.68-15.61C452.12,390.76,447.59,371.85,439.71,357.81Zm-20.17-5a5.9,5.9,0,0,0-4.83-6l.18-1a6.89,6.89,0,0,1,5.65,7Z"/><path class="cls-1" d="M428,354.86l11.08,1.83a44.08,44.08,0,0,0-8.59-10.95c-2-1.32-10.48-3.5-13.76-4.32Z"/><path class="cls-1" d="M285.81,224.2A9.1,9.1,0,0,1,285,221c0-1.7-.31-3.32-10.21-6.56,1.25-2.38,3.83.13,4.39-1.69.89-2.9-7.59-7.11-7.59-7.11s3.94-1.36,4.23-3.54c.23-1.65-4.61-1.87-5.13-4.47s-5.14-4.27-5.14-4.27a3,3,0,0,0,1.64-2.43c0-1.91-3.64-3-4.95-11h-.07c-1.32,8.08-4.92,9.13-4.95,11a3,3,0,0,0,1.63,2.43s-4.62,1.68-5.13,4.27-5.36,2.82-5.14,4.47c.3,2.18,4.23,3.54,4.23,3.54s-8.47,4.21-7.59,7.11c.56,1.82,3.14-.69,4.39,1.69-9.89,3.24-10.25,4.86-10.21,6.56a9.13,9.13,0,0,1-.84,3.25c-1.41,2.7-9.08,2.91-8.06,7.43.33,1.42,4.51-.42,5,1,.33,1-2.76.74-2.19,3,1.26,5.14,11.86,0,11.86,0s-6.83,5.06-5.41,7.56c1.32,2.33,5.67-.59,5.67-.59s3.92,2.68,5.42,2.59c1.7-.1,5-2,5-2a5.81,5.81,0,0,1,1.51,3.1,22.06,22.06,0,0,1-.76,6.26H251v9.17h22.32v-9.17h-5.47a21.71,21.71,0,0,1-.77-6.26,5.88,5.88,0,0,1,1.51-3.1s3.26,1.93,5,2c1.5.09,5.42-2.59,5.42-2.59s4.35,2.92,5.68.59c1.42-2.5-5.42-7.56-5.42-7.56s10.6,5.14,11.86,0c.57-2.31-2.52-2-2.19-3,.45-1.39,4.63.45,5-1C294.89,227.11,287.21,226.9,285.81,224.2Zm-23.65-34.92a1.25,1.25,0,1,1-1.25,1.25A1.25,1.25,0,0,1,262.16,189.28Zm8.61,65.35v5.09H253.56v-5.09Z"/><polygon class="cls-1" points="170.95 399.05 176.75 395.18 165.12 381 160.95 383.56 170.95 399.05"/><path class="cls-1" d="M184.47,365.82c-7.85-8.58-19.61-2.25-19.61-2.25L150,373.49l-4.56-3.78s-7.58-2.54-15.52,4A21.65,21.65,0,0,0,122.47,388l.37.48a13.12,13.12,0,0,0-5,1.89c2.5,2.45,4.91,5,7.17,7.69a56.15,56.15,0,0,1,4.68,7.46,18.35,18.35,0,0,0,3.43-3.93l2.19,2.79-11.67,7.3s-.48-.75-3.62-4.95l1.34-.87,1.83,1.95a10,10,0,0,0,5.69-1.69,55.48,55.48,0,0,0-4.65-7.44C122,396,119.54,393.42,117,391a8.32,8.32,0,0,0-2.83,4l1,1.94-16.6,11.36a6.36,6.36,0,0,0,.15,6.06c2,3.58,6.25,2.15,6.25,2.15L115.05,410c0,1.87.15,3.55-.49,5-.86,1.94-6.86,6-6.86,6L66.79,450.83s-9,6.3-5.61,11.7c4.88,7.69,14,.42,14,.42l94.94-63.35-10-15.52,0,0-.22-.39-.2-.32h0l-1.38-2.51c1.8-1.13,3.41-2.12,4.71-2.87,5.33-3.08,6.88-2.81,9.15-1.68,1.23.61,10.9,12.05,10.9,12.05s4-.88,4.79-2.33C189,384.1,187.17,368.76,184.47,365.82Zm-110.79,94c-3.28,1.89-6.75,2-7.76.24s.81-4.71,4.09-6.6,6.74-2,7.75-.24S77,457.92,73.68,459.81Zm88.65-62a1.19,1.19,0,1,1-1.19,1.19A1.19,1.19,0,0,1,162.33,397.82Z"/><path class="cls-1" d="M211.36,178l-.7-7.46-27.14,2.19-.3-.15a17.75,17.75,0,0,0-4.88-1.57c-19.13-1.47-92.87-1.49-93.61-1.49H84.4l-.13.31c0,.11-1.15,2.81-1.15,11,0,7.88,1.08,11.76,1.13,11.92l.1.35h.37c.6,0,48.87,1,76.66,1,6.59,0,12-.05,15.41-.19a11.29,11.29,0,0,0,5.06-1.91l.2-.13,28.27,3.74.61-7.52h5.36V178.3Zm-30.27,13.3a10.15,10.15,0,0,1-4.38,1.6c-3.13.13-8,.19-14,.19l-.16-18.92-59.5-1.44,1.09,19.71c-9.93-.17-17.3-.32-19-.35a52.16,52.16,0,0,1-1-11.29c0-6.42.7-9.39,1-10.28,5.63,0,74.77.07,93.13,1.48a16.86,16.86,0,0,1,4.26,1.33Z"/><path class="cls-1" d="M354,337.19l-7.51.13-87.11,0L244,341l14.54,2.38,87.95,0,6.91,1.39Zm-102,4.13.11-1.24,7.29-1.73,86.55,0,0,4-87.42,0Z"/><path class="cls-1" d="M409.86,451.84a183.75,183.75,0,0,0,16.66,7.86c6.11-4.37,12.64-8.36,16.62-10.71-3.54-1.84-18.56-9.45-33-13.83-7.37-2.25-14.58-4-17.41,1.85C393.27,440.92,399.15,446,409.86,451.84Z"/><path class="cls-1" d="M412.25,473.11c1.92-3.71,7.32-8.36,13.31-12.72-6-2.47-29.92-12.84-33.42-21.82-4.82,14.49-5.27,24.76-5.27,24.76l.28,3.12A168.75,168.75,0,0,0,412.25,473.11Z"/><path class="cls-1" d="M424.32,486c-3.35,1.05-7.17,5.7-8.9,8,3.21-1.46,12.24-5.35,16.45-4.87a12.07,12.07,0,0,1,2.51.59C430.58,487.42,426.33,485.36,424.32,486Z"/><path class="cls-1" d="M514.84,483.16c-10,3.77-32.43,11.63-46.26,11.63a25,25,0,0,1-4.94-.43c-7.17-1.45-14.32-5.72-21.23-9.85s-13.58-8.12-19.54-8.77a169.87,169.87,0,0,1-35.62-8.2L389,487l24.87,7.42c1-1.46,5.81-8,10.15-9.37,4.49-1.44,16.59,7.62,17.1,8v0c6.24,3.76,13,9,17.76,10.27,25.81,6.85,55.94-13.94,55.94-13.94S514.73,487.57,514.84,483.16Z"/><path class="cls-1" d="M512.08,470.52c-5.32-4.7-11.6,1-18.23-.41l-8.66,4.8-.48-.88,7.8-4.32c-7.68-2.88-27.3-23.75-35-24.51-2.64-.29-8.33,1.93-11.44,3.26-3.15,1.82-11.47,6.73-19.05,12.14l-.33.24c-6,4.29-11.39,8.87-13.39,12.46,3.22.57,6.45,1.06,9.7,1.44,6.18.68,12.86,4.68,19.95,8.91,6.83,4.09,13.9,8.31,20.91,9.73,12.42,2.52,40.22-7.23,51.11-11.34C515.92,477.24,515,473.05,512.08,470.52Z"/><path class="cls-1" d="M447.12,227.75c-9.26,2.25-23.68,9.13-34.77,7.81-10.74-1.27-24.81-6.23-26.21-8.15h-9.66l-4.86,7.82c2.87-.87,5.55-1.78,8.1-2.43,6.54,3.34,20.65,8.34,29.44,9.34,10.93,1.2,36.4-6.34,45.84-9.63C460,230.75,449.23,227.24,447.12,227.75Z"/><path class="cls-1" d="M349.6,221.13l6.16-4.24c-9.67.7-25,8-27.13,9h21Z"/><path class="cls-1" d="M451.53,210.93c-6.2-1.1-35.81-2.86-44.38-1.26-10.83,2-20.78,5.25-28.46,10.75-6.06-2.13-9.64-4.07-21-3.62l-7.07,4.85v5.27H328.36V230s18.86,7.74,28.71,7.74a46.83,46.83,0,0,0,13.11-2.07l5.74-9.24h10.4c1.95-2.72,13.27-9.15,26.93-11.66,10.92-2,25.55,2.75,33.61,2.87C448.91,217.66,457.73,212,451.53,210.93Zm-95.26,14.19a1.39,1.39,0,1,1,1.39-1.39A1.39,1.39,0,0,1,356.27,225.12Z"/><path class="cls-1" d="M537.77,101.73c-1.95-.86-101.23,30.6-129.15,51.26-3.46,2.55-13.11,9.84-10.73,13.41,21.79,1.44,92.07-18.23,92.07-18.23s-5-9.7-5.75-15.81c1.13-4.78,13.24-3.8,18.06-4.46,10.23-1.39,38.8-12.48,40-14.17C544.14,111.14,540.7,103,537.77,101.73Zm-32.19,22.14-9.87-5.56.49-.88,9.87,5.56Zm4.73-1.12-9.7-6.11.54-.84,9.7,6.11ZM514,121l-7.55-6.4.64-.76,7.55,6.4Zm4.09-1.4L511.66,113l.72-.7,6.47,6.65Zm4.32-1.83L516,111.36l.7-.7,6.44,6.44Zm3.93-1.51-5.63-6.19.74-.68,5.63,6.19Zm3.39-.65L524.91,109l.8-.58,4.86,6.67Zm4.3-1.13-5.21-7.71.82-.56,5.21,7.71Zm3.79-1.57L533,106.83l.78-.62,4.85,6.11Z"/><path class="cls-1" d="M305.74,397.47c-2.91-3-17.93-1.27-18-1.26-.73-7.44-1.38-12.58-1.38-12.58H274.6l3.87,52.93-1,.08-3.87-53H249.31L242,437.07l-1-.14,7.29-53.3h-8.6l-7.29,26.63c0,.37.05.57.05.57s-4.73,28.11-1.05,37.5c3.19,8.13,52.56,9.79,56.48,0a26.37,26.37,0,0,0,1.4-6.54c3.11.1,10,.15,11.73-1.32C303.58,438.24,310.26,402.16,305.74,397.47Zm-9.62,36.58c-1,1.22-4.23.92-6.37.57.27-10.17-.62-23.2-1.55-33.55,2-.23,10.52-1.08,11.92,1C303,406.43,298.26,431.43,296.12,434.05Z"/><path class="cls-1" d="M238.67,383.63h-.4s-12.64,2.94-13.87,6.58c5,5.93,6.93,13.44,7.65,17.56Z"/><path class="cls-1" d="M253.73,134.24a1.77,1.77,0,0,0-.36-.33c0-.1-92.84-56.54-100.41-59.94,0,0-.46-.18-.51-.18-.33,0-5.4,3.64-6.69,6s-3,9.83-3.44,11.85l-.25.41.14.09v0l.71.43,5.85-9.8,1.81,1.08-5.85,9.8.86.52,5.85-9.81,1.82,1.09-5.85,9.79.86.52,5.85-9.8L155.94,87l-5.85,9.8.86.52,5.85-9.81,1.82,1.08-5.86,9.81.86.52,5.85-9.81,1.82,1.08-5.85,9.8.86.52,5.85-9.8L164,91.8l-5.85,9.8.86.52,5.85-9.81,1.82,1.08-5.85,9.8.86.52,5.84-9.81L169.31,95l-5.85,9.8.86.52,5.85-9.81L172,96.58l-5.85,9.8.86.52,5.85-9.8,1.81,1.08-5.84,9.8.86.52,5.84-9.81,1.82,1.09-5.85,9.8.86.52,5.85-9.81,1.82,1.08-5.86,9.8.86.52,5.85-9.81,1.81,1.08-5.84,9.81.86.52,5.84-9.81,1.82,1.08-5.85,9.8.86.52,5.85-9.8,1.81,1.08-5.85,9.8.86.52,5.85-9.81,2.1,1.25-5.85,9.8.86.52,5.85-9.8,1.81,1.08-5.85,9.8.86.52,5.85-9.81,1.82,1.08-5.86,9.8.86.52,5.85-9.81,1.82,1.09-5.85,9.8.86.52,5.85-9.81,1.81,1.08-5.85,9.8.86.52,5.85-9.8,1.81,1.08-5.84,9.8.86.52,5.84-9.81L207,117.5l-5.85,9.8.86.52,5.85-9.81,1.82,1.08-5.86,9.8.86.52,5.85-9.81,1.81,1.09-5.84,9.8.86.52,5.84-9.81,1.82,1.08-5.85,9.8.86.52,5.85-9.8,1.81,1.08-5.85,9.8.86.52,5.85-9.81,1.82,1.08-5.85,9.8.86.52,5.84-9.8,1.82,1.08-5.85,9.8.86.52,5.85-9.81,1.81,1.08-5.85,9.8.86.52,5.85-9.8,1.81,1.08-5.84,9.8.86.52,5.84-9.81,1.82,1.09-5.85,9.8.86.52,5.85-9.81,1.87,1.12-5.85,9.8.86.52,5.85-9.81,2.09,1.25-5.84,9.8.86.52,5.84-9.81,1.82,1.09-5.85,9.8.86.52,5.85-9.81,1.82,1.08-5.86,9.8.86.52L243,139l1.81,1.08-5.84,9.8.86.52,5.84-9.81,1.82,1.09-5.85,9.79.73.44h0l.13.08.22-.37c1.5-1.27,7.44-6.35,8.85-8.71C252.66,141.11,254.21,135,253.73,134.24Z"/><path class="cls-1" d="M218.11,494.54l35.25-.58a16.78,16.78,0,0,0-8.78-3.76c-6.41-.57-10.72.74-15.51,1.43-5.9.85-10.64,1.26-12.94,1.42Z"/><path class="cls-1" d="M253.76,494.35v.6l-36,.59L214.37,493l-26-17.12s15.47-16.39,1.24-27.62c-4.77-3.77-16.91-.85-19.47,4.66-3.2,6.85,2.16,15.08,2.16,15.08s-23-10-26.81-4.65c-7.86,10.95,6.37,27.7,22.21,27.46,8.15-.13,9.35-4.67,13.76-4.13,4.61.57,9.66,7.76,9.66,7.76l4.91-1.78s7.69,6.69,14.2,10.34c8.76.48,33.33-.65,44.59-2.2A5.39,5.39,0,0,0,253.76,494.35Zm-82.57-11.82c-.69,3.58-6.23,6.57-15.56.22-6.17-4.2-10.21-7.93-7-13.76,1.74-3.21,9.23-1.85,15.56,2.68C170.25,476,172.24,477.3,171.19,482.53Zm11.45-14.11a8.67,8.67,0,1,1,8.67-8.67A8.67,8.67,0,0,1,182.64,468.42ZM211,499.33a2.69,2.69,0,1,1,2.69-2.69A2.68,2.68,0,0,1,211,499.33Z"/><path class="cls-1" d="M354.22,462.77c-13.32,3.42-27.75,7.7-28.56,9-1.41,2.31-2.72,11.42-1.58,18.79.95,6.09,4.25,12.45,5.76,15.12L294.9,521.9l-1-7.15L321.64,501l6.7,4c-1.69-3.12-4.38-8.76-5.24-14.32-1.12-7.16,0-16.69,1.7-19.47,1.31-2.14,22.68-7.77,28.76-9.34-1.38-1.42-4.56-4.39-7-4.37-3.61,0-25.57,5.36-28.87,10.18-1.91,2.77-2.88,14-1.39,21.52a34.64,34.64,0,0,0,4.6,11.05l-28,13.88,1.23,9.16-.08,0s1.16,2.93,2,2.87c1.26-.09,2.37-3.7,2.73-5l31.61-14.67s27.64-10.37,28.29-11.81C359.54,492.31,356.46,467.61,354.22,462.77Zm-3.47,24.09c-.93,6.33-6.77,10.87-11.67,10.15s-8.11-6.44-7.18-12.77,5.67-10.88,10.57-10.15S351.69,480.53,350.75,486.86Z"/><g class="cls-2"><g class="cls-2"><path class="cls-1" d="M211.83,301.93c0-1-.93-1.41-2.75-1.91s-3.86-1.29-3.86-3.73c0-2.21,1.69-3.68,4.45-3.68a8.4,8.4,0,0,1,4.27,1.1l-.6,2a7.58,7.58,0,0,0-3.65-1.07c-1.45,0-2.08.61-2.08,1.47,0,1,1.11,1.41,2.81,1.86,1.87.52,3.8,1.37,3.8,3.74s-1.81,3.87-4.73,3.87a8.89,8.89,0,0,1-4.46-1.15l.55-2.09a7.52,7.52,0,0,0,3.95,1.19C210.88,303.57,211.83,302.92,211.83,301.93Z"/><path class="cls-1" d="M222.22,305.62a6,6,0,0,1-6.38-6.47,6.25,6.25,0,0,1,6.4-6.54,6,6,0,0,1,6.35,6.46A6.24,6.24,0,0,1,222.22,305.62Zm0-11c-2.37,0-3.89,1.79-3.89,4.43s1.54,4.52,4,4.52,3.91-1.8,3.91-4.44S224.6,294.64,222.18,294.64Z"/><path class="cls-1" d="M230.85,305.32V292.91h2.42V303.2h5.6v2.12Z"/><path class="cls-1" d="M241,305.32V292.91h2.41v12.41Z"/></g><g class="cls-2"><path class="cls-1" d="M250.31,305.32h-4.05V292.91h4.21c4.23,0,6.69,2.42,6.69,6.12S254.72,305.32,250.31,305.32Zm0-10.36h-1.65v8.32h1.77c2.62,0,4.29-1.37,4.29-4.13S253.17,295,250.33,295Z"/></g><g class="cls-2"><path class="cls-1" d="M269.88,305.32h-2.44l-1-2.94h-5l-1,2.94H258l4.53-12.41h2.93Zm-6-10.32L262,300.38h3.75Z"/><path class="cls-1" d="M273.81,305.32h-2.42V292.91h4.35c3.13,0,4.8,1.49,4.8,3.77a3.61,3.61,0,0,1-2.68,3.58l3.26,5.06h-2.76l-2.76-4.55-1.79.12ZM275.6,299c1.49-.08,2.46-.76,2.46-2.11s-1-1.9-2.7-1.9h-1.57V299Z"/><path class="cls-1" d="M283,305.32V292.91h2.4v12.41Z"/></g><g class="cls-2"><path class="cls-1" d="M293.8,295v10.28h-2.4V295h-4.15v-2.13H298V295Z"/></g><g class="cls-2"><path class="cls-1" d="M305.49,300.52v4.8h-2.4V300.5l-4.33-7.59h2.62l2.94,5.36,2.88-5.36h2.6Z"/></g><g class="cls-2"><path class="cls-1" d="M316.35,292.91h8.26V295h-5.86v3.27h4.77v2.09h-4.77v4.94h-2.4Z"/></g><g class="cls-2"><path class="cls-1" d="M332.25,305.62a6,6,0,0,1-6.38-6.47,6.25,6.25,0,0,1,6.4-6.54,6,6,0,0,1,6.35,6.46A6.24,6.24,0,0,1,332.25,305.62Zm0-11c-2.37,0-3.89,1.79-3.89,4.43s1.54,4.52,4,4.52,3.91-1.8,3.91-4.44S334.63,294.64,332.21,294.64Z"/><path class="cls-1" d="M343.3,305.32h-2.42V292.91h4.35c3.13,0,4.8,1.49,4.8,3.77a3.61,3.61,0,0,1-2.68,3.58l3.26,5.06h-2.76l-2.76-4.55-1.79.12Zm1.79-6.37c1.49-.08,2.46-.76,2.46-2.11s-1-1.9-2.7-1.9h-1.57V299Z"/><path class="cls-1" d="M352.41,305.32V292.91h8.46v2h-6.08v3.11h5v2.05h-5v3.16h6.08v2Z"/><path class="cls-1" d="M369.17,305.32h-2.94l-4.41-12.41h2.5l3.4,10,3.39-10h2.5Z"/><path class="cls-1" d="M375.1,305.32V292.91h8.46v2h-6.08v3.11h5v2.05h-5v3.16h6.08v2Z"/></g><g class="cls-2"><path class="cls-1" d="M388.32,305.32H385.9V292.91h4.35c3.13,0,4.8,1.49,4.8,3.77a3.61,3.61,0,0,1-2.68,3.58l3.26,5.06h-2.76l-2.76-4.55-1.79.12Zm1.79-6.37c1.49-.08,2.46-.76,2.46-2.11s-1-1.9-2.7-1.9H388.3V299Z"/></g></g><path class="cls-1" d="M365.72,402.26v-15.2h-1.29c.27-5.69.29-13.57-1.51-15.45l-.21-.23-.31.07c-3.79.9-5.65,4.91-5.93,7.23-.15,1.18-.18,5-.18,8.38h-1.41v15.2h-3.27V424.7H369V402.26ZM362,372.76c-.08,1.47-.67,4.68-4.27,5.33A7.78,7.78,0,0,1,362,372.76Zm-4.45,6.46a6,6,0,0,0,3.92-2,6.85,6.85,0,0,0,1.45-3.05c.63,2.8.66,8,.44,12.86h-5.94c0-3,0-6.35.1-7.81Z"/></svg>