<svg id="Layer_1" data-name="Layer 1" xmlns="http://www.w3.org/2000/svg" viewBox="0 0 600 600"><defs><style>.cls-1,.cls-2,.cls-4,.cls-8{fill:#443e40;}.cls-2,.cls-3{stroke:#fff;}.cls-2,.cls-3,.cls-4,.cls-5,.cls-7{stroke-miterlimit:10;}.cls-3,.cls-5{fill:none;}.cls-4,.cls-5,.cls-7{stroke:#443e40;}.cls-6,.cls-7{fill:#fff;}.cls-8{font-size:19.85px;font-family:FreightSansProSemibold-Regular, FreightSans Pro;}.cls-9{letter-spacing:0em;}.cls-10{letter-spacing:0.01em;}.cls-11{letter-spacing:0.02em;}.cls-12{letter-spacing:0em;}.cls-13{letter-spacing:-0.01em;}.cls-14{letter-spacing:-0.03em;}</style></defs><title>solidarity_forever</title><path class="cls-1" d="M367.28,186.24c3.57-4.45-7-24.22-7.66-32.56-.67-8.57,1.86-21.89-.75-34.3C361.43,108,357.4,95.13,353.6,91c-2.73-3-5.06,1.63-5.06,1.63s1.78,20.53,1,20.76c-1.11.32-.72-19.06-4.16-27-.75-1.74-4.5-5-6.26-4.27-2.57,1-3.28,4.91-3.28,4.91s2.57,26.37,1.31,26.43-2.87-32-2.87-32-.82-5.77-6.47-5.77c-4.33,0-4.81,4.29-4.81,4.29s-.11,32.38,1.31,32.12c1-.19,1.31-21.67-2.11-31.35-1.88-6.33-12.5-.83-12.59,2.47-.67,2.92,2.45,14.56,1.4,24.5a64.72,64.72,0,0,0,1.85,21.8s-10.44-17.19-15.47-15.22c-2.88,1.13-2.72,5.55-1.53,9.25,2.49,7.77,15.77,24.63,15.77,24.63s5.2,9.73,4.42,12.25a8.27,8.27,0,0,1-3,3.9s-4,17.82-4.11,25.51C312.6,193.72,361,194.07,367.28,186.24Z"/><path class="cls-2" d="M317.25,117.08c5.82-5.25,42.45,3.16,42.45,3.16"/><path class="cls-2" d="M360.34,140.13c-3.64-4.58-41.5-2.74-41.5-2.74"/><path class="cls-3" d="M336.73,96.48c3.89-1,11.25-1.92,11.25-1.92"/><path class="cls-3" d="M322.37,78.87c-.27-1.34,1.25,12.18.87,11.09"/><path class="cls-3" d="M313,164.29h5.57a14.39,14.39,0,0,0,6.3-9.66c1-7.17-18.25-30.47-1.63-48.15.93-1,0-16.52,0-16.52L335,87"/><path class="cls-3" d="M349,102.4a31.49,31.49,0,0,1,10.66,1.06"/><path class="cls-3" d="M313,164.29s41.34,3.66,48.79-2.67"/><path class="cls-1" d="M162.9,307.5c4.25,3.23,9.85-8,17-19.33,5.85-9.32,14.82-19.3,12.23-26.23-3.79-10.18-17.91-6-21.32-10.54-5.88-7.83-21.73-23.44-53.79-17.19C87.41,240,80.41,253.63,75.18,260.37c-4.82,6.22-15.35,6.2-17.43,10.9-2,4.42,2,16.39,2,16.39S99.49,318.2,106.23,308c5.58-8.5-35.3-30.83-35.3-30.83s8.53-.91,11.36-8.89c2.16-6.07,21.15-16,38.77-18.28,21.1-2.79,35.29,3.37,42.18,9.64,7.75,7.06,22.68,3.18,20.42,10.7C180,282.6,158,303.76,162.9,307.5Z"/><path class="cls-1" d="M119.12,274.65c9.24,0,11.7,19.26,14.41,27,2.48,7.13,6.39,19.07,1.9,23.84a9.36,9.36,0,0,1-12.07,1.88s-5.79,3.59-12.1-3.08c-7.35-7.78-10.47-17.4-7.77-33.25,1.49-8.79,6.7-8.7,6.7-8.7S110.93,274.65,119.12,274.65Z"/><path class="cls-1" d="M158.75,284.15c-1.29-3.94-7.79-6.54-7.79-6.54s-2.58-4.1-9.38-3.61c-8.89.65-7.37,13.35-7,25.33.43,12.83,3.07,25.73,9.69,25.79,5.86.05,8.52-7.13,8.52-7.13a13.92,13.92,0,0,0,5.92-6.9C161.05,304.76,161.93,293.9,158.75,284.15Z"/><path class="cls-3" d="M114.68,273.51c6.14,2.64,21.09,50.45,16.39,56.81"/><path class="cls-3" d="M143,271.39s4.54,42.12,2.12,55.87"/><path class="cls-1" d="M158.13,292.57s14.42,2.1,15.85,3.15c1.25.92,0,8.56-1.51,8.41-4.21-.42-14.93-2.2-14.93-2.2Z"/><path class="cls-4" d="M536.72,254.83c-5.76-2.3-8.05-8.79-7.76-16.23-6-2-6.13-17-6.13-17s7.67-1.36,9.27-3.12c1.11-1.21.86-7.53.86-7.53s-4.89-.17-11.23-.33c.51,3.56.48,9.43-.23,11.76-1,3.38-7.71,9.37-9.37,11.28.32.54,2,3.06,4.78,6.84,7.7,10.49,22,28.92,24.13,27.12S538.08,262.32,536.72,254.83Z"/><path class="cls-5" d="M474.43,301.18c-.08,24.68-.08,76.68-.08,76.68s6.59,18.36,27.89,18.36c22.69,0,26.74-18.36,26.74-18.36l-1.91-77.26C514.08,310.62,488.45,310.1,474.43,301.18Z"/><path class="cls-5" d="M485.55,282.42l-1,5.77s-8.76,8.23-10.11,11.89v1.1c14,8.92,39.65,9.44,52.64-.58l0-.77c-1.3-3.65-10.53-12.24-10.53-12.24l-1.18-5.42C508.92,287.39,492.29,288.11,485.55,282.42Z"/><path class="cls-5" d="M487.52,271.32l-1,5.56c7.17,4.29,21.1,3.57,27.48-.79l-1.17-5.38C506.37,274.25,494.46,274.77,487.52,271.32Z"/><path class="cls-5" d="M536.43,254.58c-5.76-2.3-8-8.79-7.76-16.23-6-2-6.14-17-6.14-17s7.67-1.37,9.27-3.12c1.11-1.21.87-7.53.87-7.53s-35.65-1.26-39.34,0c-4,1.35-13.61,8.48-18.66,12.39,13.17,2,17.43,7.14,16.89,13.87-.4,4.89-2.75,13.12-2.75,13.12L485,251.91l-.07,10.75,3.55,3.41-.92,5.25c6.94,3.45,18.85,2.93,25.32-.61l-1-4.52,2.52-3.27-.08-10.8-3.69-2.3L508,238.09l4.09-4.45a78.75,78.75,0,0,0,4.48,6.59c7.71,10.48,22,28.91,24.13,27.12S537.78,262.07,536.43,254.58Z"/><path class="cls-5" d="M486.53,276.88l-1,5.54c6.74,5.69,23.37,5,29.79-.25L514,276.09C507.63,280.45,493.7,281.17,486.53,276.88Z"/><path class="cls-5" d="M484.57,287.76c6.08,7.19,25.91,6.32,31.81,0"/><path class="cls-1" d="M510.42,249.55h-.7a33.83,33.83,0,0,1-19.9.22h-1.19l-3.85,1.86-.08,10.74,3.56,3.41s3.77,2.11,12.22,2.12c8.16,0,11.19-2,11.19-2l2.52-3.26-.08-10.81Z"/><path class="cls-1" d="M430.48,345.74c-2.5-1.64-15.07-4.64-15.07-4.64l-8.75,2.11s-8.08,6.8-8.68,10c-2.6,14,9.08,26.19,10.49,29.67,3,7.53,3.06,16.26,10.47,24.39,3.68,4,9.56,7.08,18.28,5.59,6.59-1.12,12.33-8.36,13.68-15.61C452.54,388.52,443.8,357.35,430.48,345.74Z"/><path class="cls-3" d="M395.38,351.27c6.88,4.05,30.05,30.42,31.21,35.61.66,2.93-7.53,25.23-7.53,25.23"/><polyline class="cls-3" points="403.44 339.91 420.26 358.29 413.29 368.59"/><path class="cls-3" d="M414.8,346.39a6.36,6.36,0,0,1,5.24,6.47"/><polyline class="cls-3" points="414.8 339.91 427.73 355.32 439.99 357.35"/><path class="cls-5" d="M405.46,347.75c-3-10.11,29.43-22.54,20.74-31.36-22.76-23.07,10.42-25.26,5.65-36.8s-38.42-36.09-57.42-11"/><path class="cls-1" d="M285.81,224.2A9,9,0,0,1,285,221c0-1.7-.31-3.32-10.21-6.56,1.25-2.38,3.83.13,4.39-1.69.89-2.9-7.59-7.11-7.59-7.11s3.94-1.36,4.23-3.54c.23-1.65-4.61-1.87-5.13-4.47s-5.14-4.27-5.14-4.27a3,3,0,0,0,1.64-2.43c0-1.91-3.64-3-4.95-11h-.07c-1.32,8.08-4.92,9.13-4.95,11a3,3,0,0,0,1.63,2.43s-4.62,1.68-5.13,4.27-5.36,2.82-5.14,4.47c.3,2.18,4.23,3.54,4.23,3.54s-8.47,4.21-7.59,7.11c.56,1.82,3.14-.69,4.39,1.69-9.89,3.24-10.25,4.86-10.21,6.56a9.19,9.19,0,0,1-.84,3.25c-1.41,2.7-9.08,2.91-8.06,7.43.33,1.42,4.51-.42,5,1,.33,1-2.76.74-2.19,3.05,1.26,5.14,11.86,0,11.86,0s-6.83,5.06-5.41,7.56c1.32,2.33,5.67-.59,5.67-.59s3.92,2.68,5.42,2.59c1.7-.1,5-2,5-2a5.78,5.78,0,0,1,1.51,3.1,22,22,0,0,1-.76,6.26H251v9.17h22.32v-9.17h-5.47a21.87,21.87,0,0,1-.77-6.26,5.86,5.86,0,0,1,1.51-3.1s3.26,1.93,5,2c1.5.09,5.42-2.59,5.42-2.59s4.35,2.92,5.68.59c1.42-2.5-5.42-7.56-5.42-7.56s10.6,5.14,11.86,0c.57-2.31-2.52-2-2.19-3.05.45-1.39,4.63.45,5-1C294.89,227.11,287.21,226.9,285.81,224.2Z"/><rect class="cls-6" x="253.56" y="254.63" width="17.21" height="5.09"/><circle class="cls-6" cx="262.16" cy="190.53" r="1.25"/><path class="cls-1" d="M163,378c5.33-3.08,6.88-2.81,9.15-1.68,1.23.61,10.9,12.05,10.9,12.05s4-.88,4.79-2.33c1.11-1.94-.67-17.28-3.37-20.22-7.85-8.58-19.61-2.25-19.61-2.25L125.33,390l-1.76-1.64a13.12,13.12,0,0,0-6.1,2.23,8.24,8.24,0,0,0-3.29,4.38l1,1.94-16.6,11.36a6.36,6.36,0,0,0,.15,6.06c2,3.58,6.25,2.15,6.25,2.15l16.38-10.62,1.83,1.95a10,10,0,0,0,6.46-2.25,18.47,18.47,0,0,0,4-4.8l-1.72-2.42S154.34,383,163,378Z"/><path class="cls-1" d="M61.18,462.53c4.88,7.69,14,.42,14,.42l101.57-67.77L165.12,381l-5.05,3.1-2.33-4.23-12.27-10.16s-7.58-2.54-15.52,4A21.63,21.63,0,0,0,122.47,388l12.84,16.38-11.67,7.3s-.75-1.18-6.8-9.17c-3.12,5-.89,9.31-2.28,12.41-.86,1.94-6.86,6-6.86,6L66.79,450.83S57.75,457.13,61.18,462.53Z"/><ellipse class="cls-6" cx="71.84" cy="456.63" rx="6.84" ry="3.67" transform="translate(-218.69 97.1) rotate(-30)"/><line class="cls-3" x1="171.53" y1="400.86" x2="160.07" y2="383.12"/><path class="cls-3" d="M115.76,389.05a113.94,113.94,0,0,1,8.87,9.33,55.53,55.53,0,0,1,5.06,8.2"/><circle class="cls-6" cx="162.33" cy="399.01" r="1.19"/><path class="cls-1" d="M183,173.1l27.66-2.59.7,7.46,4.93.33v9.75h-5.36l-.61,7.52-28.75-3.93a10.7,10.7,0,0,1-4.84,1.83c-17.76.73-92-.82-92-.82s-1.11-3.88-1.11-11.78c0-8.15,1.11-10.78,1.11-10.78s74.24,0,93.57,1.48A17.53,17.53,0,0,1,183,173.1Z"/><path class="cls-7" d="M183,173l-1.43,18.55a10.74,10.74,0,0,1-4.84,1.82c-17.76.73-92-.82-92-.82s-1.11-3.88-1.11-11.78c0-8.15,1.11-10.78,1.11-10.78s74.24,0,93.57,1.49A17.27,17.27,0,0,1,183,173Z"/><polygon class="cls-1" points="162.56 174.14 103.06 172.7 104.17 192.85 162.72 193.51 162.56 174.14"/><polygon class="cls-5" points="346.53 337.82 259.42 337.85 246.51 340.91 258.51 342.88 346.51 342.85 346.53 337.82"/><polygon class="cls-4" points="346.53 337.82 353.49 337.7 352.92 344.14 346.51 342.85 346.53 337.82"/><polygon class="cls-1" points="246.98 340.75 252.06 341.59 252.24 339.5 246.98 340.75"/><path class="cls-1" d="M443.92,449.4s-17.27-9.23-33.76-14.24c-7.61-2.32-15.07-4.17-17.69,2.44-5.13,15-5.6,25.73-5.6,25.73L389,487l25.26,7.54s12.44-6,17.61-5.41c7.48.81,19.72,12.28,27,14.21,25.81,6.85,55.94-13.94,55.94-13.94s-.09-2,.05-6.88c1.14-5,.19-9.39-2.78-12-5.66-5-12.4,1.8-19.5-.78-7.62-2.78-27.35-23.78-35.09-24.54C453.76,444.79,443.92,449.4,443.92,449.4Z"/><path class="cls-3" d="M447.12,447.27s-30.5,17.06-34.67,26.55"/><path class="cls-3" d="M392.2,436.46c0,10.19,34.86,24,34.86,24"/><path class="cls-3" d="M440.82,493.45s-12.35-9.3-16.65-7.92C419.49,487,414.08,495,414.08,495"/><path class="cls-3" d="M519.63,480.76s-40,16.32-55.89,13.11c-14.32-2.9-28.79-17.32-40.82-18.63a169,169,0,0,1-39.87-9.75"/><line class="cls-3" x1="504.97" y1="463.37" x2="484.95" y2="474.47"/><path class="cls-1" d="M328.36,226.05s17.42-8.63,27.81-9.19c12.6-.68,16.2,1.34,22.52,3.56,7.68-5.5,17.63-8.74,28.46-10.75,8.57-1.6,38.18.16,44.38,1.26s-2.62,6.73-4.67,6.69c-8.06-.12-22.69-4.88-33.61-2.87-15.12,2.78-27.38,10.36-27.23,12.4.13,1.69,15.07,7.08,26.33,8.41,11.09,1.32,25.51-5.56,34.77-7.81,2.11-.51,12.9,3,7.88,4.76-9.44,3.29-34.91,10.83-45.84,9.63-8.79-1-22.9-6-29.44-9.34-6.39,1.63-13.58,4.92-22.65,4.92-9.85,0-28.71-7.74-28.71-7.74Z"/><polyline class="cls-3" points="360.39 212.32 350.1 219.39 350.1 224.42 327.25 224.42"/><polyline class="cls-3" points="386.46 226.91 376.2 226.91 370.06 236.79"/><circle class="cls-6" cx="356.27" cy="223.73" r="1.39"/><path class="cls-1" d="M397.89,166.4c-2.38-3.57,7.27-10.86,10.73-13.41,27.92-20.66,127.2-52.12,129.15-51.26,2.93,1.3,6.37,9.41,4.5,12-1.2,1.69-29.77,12.78-40,14.17-4.82.66-16.93-.32-18.06,4.46.7,6.11,5.75,15.81,5.75,15.81S419.68,167.84,397.89,166.4Z"/><line class="cls-3" x1="505.82" y1="123.43" x2="495.95" y2="117.87"/><line class="cls-3" x1="500.88" y1="116.22" x2="510.58" y2="122.33"/><line class="cls-3" x1="506.81" y1="114.25" x2="514.36" y2="120.65"/><line class="cls-3" x1="512.02" y1="112.63" x2="518.49" y2="119.28"/><line class="cls-3" x1="516.36" y1="111.01" x2="522.8" y2="117.45"/><line class="cls-3" x1="521.12" y1="109.76" x2="526.75" y2="115.95"/><line class="cls-3" x1="525.31" y1="108.68" x2="530.17" y2="115.35"/><line class="cls-3" x1="529.27" y1="106.52" x2="534.48" y2="114.23"/><line class="cls-3" x1="533.4" y1="106.52" x2="538.25" y2="112.63"/><path class="cls-1" d="M224.4,390.21c1.23-3.64,13.87-6.58,13.87-6.58h48.09s6.58,52.09,1.53,64.7c-3.92,9.79-53.29,8.13-56.48,0-3.68-9.39,1.05-37.5,1.05-37.5S231.67,398.84,224.4,390.21Z"/><path class="cls-1" d="M287.74,396.21s15.08-1.74,18,1.26c4.52,4.69-2.16,40.77-4.72,43-2.19,1.91-13.26,1.26-13.26,1.26v-7.51s6.83,1.7,8.36-.17c2.14-2.62,6.92-27.62,4-32-1.58-2.33-12.33-.93-12.33-.93Z"/><line class="cls-3" x1="239.53" y1="382.37" x2="230.54" y2="415.19"/><line class="cls-3" x1="249.41" y1="379.24" x2="241.51" y2="437"/><line class="cls-3" x1="273.78" y1="379.24" x2="277.97" y2="436.6"/><path class="cls-1" d="M152.45,73.79c-2,.12-4.9,8.21-4.9,8.21l101.28,60.45s6.59-5.38,4.9-8.21C252.56,132.27,154.4,73.66,152.45,73.79Z"/><line class="cls-5" x1="142.5" y1="92.28" x2="148.45" y2="82.32"/><line class="cls-5" x1="151.12" y1="83.91" x2="145.17" y2="93.88"/><line class="cls-5" x1="153.8" y1="85.51" x2="147.85" y2="95.47"/><line class="cls-5" x1="156.47" y1="87.1" x2="150.52" y2="97.07"/><line class="cls-5" x1="159.14" y1="88.7" x2="153.19" y2="98.67"/><line class="cls-5" x1="161.82" y1="90.3" x2="155.87" y2="100.26"/><line class="cls-5" x1="164.49" y1="91.89" x2="158.54" y2="101.86"/><line class="cls-5" x1="167.16" y1="93.49" x2="161.22" y2="103.45"/><line class="cls-5" x1="169.84" y1="95.08" x2="163.89" y2="105.05"/><line class="cls-5" x1="172.51" y1="96.68" x2="166.56" y2="106.64"/><line class="cls-5" x1="175.18" y1="98.27" x2="169.24" y2="108.24"/><line class="cls-5" x1="177.86" y1="99.87" x2="171.91" y2="109.84"/><line class="cls-5" x1="180.53" y1="101.47" x2="174.58" y2="111.43"/><line class="cls-5" x1="183.2" y1="103.06" x2="177.26" y2="113.03"/><line class="cls-5" x1="185.88" y1="104.66" x2="179.93" y2="114.62"/><line class="cls-5" x1="188.55" y1="106.25" x2="182.6" y2="116.22"/><line class="cls-5" x1="191.51" y1="108.02" x2="185.56" y2="117.98"/><line class="cls-5" x1="194.18" y1="109.61" x2="188.23" y2="119.58"/><line class="cls-5" x1="196.85" y1="111.21" x2="190.9" y2="121.17"/><line class="cls-5" x1="199.53" y1="112.8" x2="193.58" y2="122.77"/><line class="cls-5" x1="202.2" y1="114.4" x2="196.25" y2="124.36"/><line class="cls-5" x1="204.87" y1="115.99" x2="198.93" y2="125.96"/><line class="cls-5" x1="207.55" y1="117.59" x2="201.6" y2="127.56"/><line class="cls-5" x1="210.22" y1="119.19" x2="204.27" y2="129.15"/><line class="cls-5" x1="212.89" y1="120.78" x2="206.95" y2="130.75"/><line class="cls-5" x1="215.57" y1="122.38" x2="209.62" y2="132.34"/><line class="cls-5" x1="218.24" y1="123.97" x2="212.29" y2="133.94"/><line class="cls-5" x1="220.91" y1="125.57" x2="214.97" y2="135.53"/><line class="cls-5" x1="223.59" y1="127.16" x2="217.64" y2="137.13"/><line class="cls-5" x1="226.26" y1="128.76" x2="220.31" y2="138.72"/><line class="cls-5" x1="228.93" y1="130.35" x2="222.99" y2="140.32"/><line class="cls-5" x1="231.61" y1="131.95" x2="225.66" y2="141.92"/><line class="cls-5" x1="234.34" y1="133.58" x2="228.39" y2="143.55"/><line class="cls-5" x1="237.29" y1="135.34" x2="231.35" y2="145.31"/><line class="cls-5" x1="239.97" y1="136.94" x2="234.02" y2="146.91"/><line class="cls-5" x1="242.64" y1="138.54" x2="236.69" y2="148.5"/><line class="cls-5" x1="245.31" y1="140.13" x2="239.37" y2="150.1"/><line class="cls-5" x1="247.99" y1="141.73" x2="242.04" y2="151.69"/><path class="cls-1" d="M153.09,73.76a12.8,12.8,0,0,0-7.33,6c-1.61,2.71-3.55,12.37-3.55,12.37Z"/><path class="cls-1" d="M253.32,133.59a12.76,12.76,0,0,1-1.78,9.28c-1.62,2.71-9.2,9-9.2,9Z"/><path class="cls-1" d="M254.83,500.78c3.11-6.64-6.31-10.23-10.25-10.58-6.41-.57-10.72.74-15.51,1.43-8.38,1.21-14.44,1.52-14.44,1.52l-26.25-17.29s15.47-16.39,1.24-27.62c-4.77-3.77-16.91-.85-19.47,4.66-3.2,6.85,2.16,15.08,2.16,15.08s-23-10-26.81-4.65c-7.86,10.95,6.37,27.7,22.21,27.46,8.15-.13,9.35-4.67,13.76-4.13,4.61.57,9.66,7.76,9.66,7.76l4.91-1.78s7.69,6.69,14.2,10.34C219,503.46,243.57,502.33,254.83,500.78Z"/><circle class="cls-7" cx="182.64" cy="459.75" r="8.67"/><path class="cls-6" d="M164.19,471.67c6.06,4.35,8.05,5.63,7,10.86-.69,3.58-6.23,6.57-15.56.22-6.17-4.2-10.21-7.93-7-13.76C150.37,465.78,157.86,467.14,164.19,471.67Z"/><polyline class="cls-3" points="253.76 494.45 217.95 495.04 206.25 486.26"/><circle class="cls-6" cx="211.02" cy="496.64" r="2.69"/><path class="cls-1" d="M354.26,462.66s-4.49-5.14-7.74-5.12c-3.61,0-25.57,5.36-28.87,10.18-1.91,2.77-2.88,14-1.39,21.52a34.69,34.69,0,0,0,4.85,11.46l9.07,5.45"/><path class="cls-2" d="M325.23,471.51c1.34-2.19,29.25-9.32,29.25-9.32,2.24,3.87,5.66,29.94,4.62,32.73-.9,2.38-28.92,12.33-28.92,12.33s-5.32-8.48-6.59-16.61C322.45,483.32,323.71,474,325.23,471.51Z"/><path class="cls-6" d="M350.75,486.86c-.93,6.33-6.77,10.87-11.67,10.15s-8.11-6.44-7.18-12.77,5.67-10.88,10.57-10.15S351.69,480.53,350.75,486.86Z"/><polyline class="cls-5" points="323 499.79 293.39 514.46 294.49 522.64 332.38 505.05"/><path class="cls-1" d="M296,526.24c1.54-.11,2.86-5.5,2.86-5.5L294,523.37S295.16,526.3,296,526.24Z"/><text class="cls-8" transform="translate(204.37 305.32)">SOLI<tspan class="cls-9" x="40.46" y="0">D</tspan><tspan x="53.5" y="0">ARI</tspan><tspan class="cls-10" x="82.46" y="0">T</tspan><tspan class="cls-11" x="94.19" y="0">Y</tspan><tspan class="cls-12" x="106.02" y="0"> </tspan><tspan class="cls-13" x="110.55" y="0">F</tspan><tspan x="120.67" y="0">OREVE</tspan><tspan class="cls-14" x="180.1" y="0">R</tspan></text><path class="cls-1" d="M365.72,402.26v-15.2h-1.29c.27-5.69.29-13.57-1.51-15.45l-.21-.23-.31.07c-3.79.9-5.65,4.91-5.93,7.23-.15,1.18-.18,5-.18,8.38h-1.41v15.2h-3.27V424.7H369V402.26ZM362,372.76c-.08,1.47-.67,4.68-4.27,5.33A7.78,7.78,0,0,1,362,372.76Zm-4.45,6.46a6,6,0,0,0,3.92-2,6.88,6.88,0,0,0,1.45-3.05c.63,2.8.66,8,.44,12.86h-5.94C357.39,384,357.42,380.68,357.52,379.22Z"/></svg>