<svg id="Layer_1" data-name="Layer 1" xmlns="http://www.w3.org/2000/svg" viewBox="0 0 600 600"><defs><style>.cls-1{fill:#2d2c3d;}.cls-2{fill:#00a1d7;}</style></defs><title>tshirt_design</title><rect class="cls-1" width="600" height="600"/><path class="cls-2" d="M348.74,87.15a33.47,33.47,0,0,0-2-7.66c-.78-1.8-4.65-5.14-6.46-4.41-2.64,1.07-3.38,5.06-3.38,5.06s.37,3.86.77,8.67C341.32,88.05,346.88,87.37,348.74,87.15Z"/><path class="cls-2" d="M360.4,95.93c-1.21-5.25-3.2-9.58-5.14-11.7-2.81-3.08-5.21,1.68-5.21,1.68s.38,4.41.71,9.23A33.07,33.07,0,0,1,360.4,95.93Z"/><path class="cls-2" d="M324.25,75.73c.32,3.25.51,5.19.57,6.38,2.46-.62,8.7-2.18,10.76-2.71-.17-3-.26-5-.26-5s-.85-5.95-6.67-5.95A4.73,4.73,0,0,0,323.9,72C323.94,72.61,324.1,74.25,324.25,75.73Z"/><path class="cls-2" d="M319.24,109.43c8.89-3.05,35.2,2.51,41.49,3.92a40,40,0,0,0,0-15.57,31.8,31.8,0,0,0-9.9-.94c.34,5.22.58,10.36.18,10.47-.82.23-.85-9.73-2.07-18.47-1.8.21-7.62.92-11.15,1.69.62,7.68,1.19,16.83.44,16.86-1,0-2.06-16.59-2.61-26.25l-10.76,2.71c.58,10.41.47,16.12-.32,17A24.3,24.3,0,0,0,319.24,109.43Z"/><path class="cls-2" d="M363.69,157.65c-6,2.88-20.07,3.56-32,3.56-4.5,0-8.68-.1-12-.21h0c-2.94-.1-5.2-.2-6.43-.27-.82,3.78-3.93,18.51-4,25.39,3.82,4,53.74,4.4,60.2-3.67C372.08,179.08,366.88,167.14,363.69,157.65Z"/><path class="cls-2" d="M316.52,155.8a7.64,7.64,0,0,1-2.19,3.28l4.79.19c1.28-1,5-4.45,5.69-9.52.25-1.9-1.2-5.44-2.89-9.55-4.43-10.81-11.13-27.14,1.37-40.5.44-1.17-.52-21.61-.74-23.8-.16-1.72-.27-2.84-.31-3.57-3-4.31-12.27.74-12.35,3.87-.7,3,2.52,15,1.44,25.25a67.06,67.06,0,0,0,1.9,22.48s-10.76-17.73-15.94-15.69c-3,1.16-2.81,5.72-1.58,9.54,2.57,8,16.26,25.39,16.26,25.39S317.33,153.2,316.52,155.8Z"/><path class="cls-2" d="M361.81,133.06a85.45,85.45,0,0,0-.81-17.9c-10.48-2.39-37.21-7.37-42.41-3.55-1.64,6.65-.28,13.5,1.73,19.58C326.55,130.92,353.4,130,361.81,133.06Z"/><path class="cls-2" d="M361.74,134.79c-5.14-2.45-26.57-2.52-40.85-1.92.85,2.39,1.77,4.64,2.61,6.69,1.85,4.5,3.31,8.06,3,10.42a16.51,16.51,0,0,1-4.91,9.36c12.68.36,34.63.38,41.56-3.32a34.43,34.43,0,0,1-1.68-7.13A128.61,128.61,0,0,1,361.74,134.79Z"/><path class="cls-2" d="M191,260.49c-3.91-10.48-18.46-6.18-22-10.86-6.07-8.07-22.41-24.16-55.45-17.73-30.51,5.95-37.74,20-43.12,27-5,6.41-15.83,6.39-18,11.24-2,4.56,2,16.9,2,16.9S88,312.72,99.59,309.88a31.14,31.14,0,0,0,8.1,14.92c6.5,6.87,12.46,3.18,12.46,3.18a9.94,9.94,0,0,0,7.81,1.07c.76-3.72-.51-12.46-3.49-23.48-3.8-14.06-9.18-27.45-12.41-31.32-4.94,1.88-5.48,7.31-5.48,7.31s-5.37-.1-6.91,9a68.49,68.49,0,0,0-.92,8.24C89,288.67,66.1,276.15,66.1,276.15s8.8-.93,11.72-9.16c2.22-6.27,21.81-16.45,40-18.85,21.76-2.88,36.39,3.48,43.49,9.94,8,7.27,23.39,3.27,21.06,11-2.1,7-9.91,16.74-15.67,24.74-2.79-.54-6-1.06-8.14-1.39a43.83,43.83,0,0,0-1.88-9.07c-1.32-4.05-8-6.73-8-6.73s-2-3.17-7.1-3.69c.93,9.26,3.65,38.63,2.24,52.39,4.65-1.33,6.79-7.07,6.79-7.07a14.35,14.35,0,0,0,6.09-7.11,36.81,36.81,0,0,0,1.9-8.94l2.55.4c-1.06,2.28-1.27,4-.16,4.83,2.09,1.59,4.49-.21,7.23-3.79,1,.13,1.91.24,2.63.31,1.26.13,2.31-4.79,2-7.31,1.76-2.84,3.62-6,5.6-9.14C184.46,277.93,193.71,267.64,191,260.49Z"/><path class="cls-2" d="M138.94,272.94c-9.16.66-7.59,13.75-7.18,26.1.09,2.46.25,4.92.5,7.3-.54-1.75-1.11-3.42-1.62-4.88-2.79-8-5.32-27.86-14.85-27.86a10.89,10.89,0,0,0-2,.18c4.31,5.8,9.57,21.31,12.29,31.34,1.45,5.4,4.28,16.92,3.66,23.13A11.79,11.79,0,0,0,132.6,326c1.7-1.81,2.23-4.61,2.09-7.8,1.59,4.45,3.88,7.37,7.07,7.39H142c1.49-13.33-1.32-43.71-2.22-52.71A8.43,8.43,0,0,0,138.94,272.94Z"/><path class="cls-2" d="M546.81,264a15.44,15.44,0,0,0-1.33-2.69,25.77,25.77,0,0,1-3.44-8.54l0-.31-.3-.12c-5.17-2.07-8-8-7.64-16.18v-.43l-.4-.13c-3.84-1.31-5.2-8.36-5.67-13,0-1.49,0-2.7,0-3.31,1.73-.36,7.36-1.61,8.91-3.3l.11-.16.11-.1c1.23-1.35,1.08-7.05,1-8.17l0-.53-.52,0c-1.51-.05-36.91-1.29-40.77,0-4.62,1.58-16,10.25-19.4,12.87l-1,.81,1.31.2c12,1.83,17.53,6.31,16.94,13.68a90.81,90.81,0,0,1-2.75,13.18l-4.05,2-.09,11.68L491.4,265l-1,5.53h0l-1,5.7h0l-.77,4.35h0l-1.19,6.74c-1.18,1.12-9.08,8.7-10.42,12.35v.31h0v1.33h0c-.08,25.27-.08,78.21-.08,78.75l0,.19c.07.19,7.19,19.3,29.29,19.3,23.57,0,28.08-19.18,28.12-19.37l0-.07-2.07-80.79c-1.4-3.69-9.65-11.52-10.84-12.63l-1.38-6.32h0l-1.08-5h0l-1.2-5.5h0l-.15-.71-.1-.45h0l-.8-3.66,2.55-3.32-.08-11.64-3.87-2.41-2.53-11.57,3.51-3.81c.6,1,1.92,3,4.25,6.18,4.08,5.54,16.2,21.75,22.23,26.79a6.83,6.83,0,0,0,2.87,1.78h.17a1.06,1.06,0,0,0,.74-.27C547.48,266,547.37,265.11,546.81,264ZM533.24,380a24.55,24.55,0,0,1-4.92,9.19c-5.15,6.12-12.58,9.22-22.08,9.22-20.53,0-27.65-17.07-28.19-18.46,0-2.64,0-53,.07-77.94.61.37,1.24.71,1.89,1l.37.19c.88.45,1.79.86,2.73,1.25l.42.18c.94.37,1.89.73,2.87,1.05l.47.15c1,.31,2,.6,3,.85l.5.13c1,.25,2,.47,3.07.66l.52.09q1.56.29,3.15.48l.52.06c1.06.12,2.14.22,3.21.29l.49,0q1.63.09,3.27.09h1.57l.9,0,1-.05.87-.05,1.05-.08.82-.07c.39,0,.77-.08,1.15-.12l.7-.08,1.71-.25.25,0c.56-.09,1.12-.19,1.67-.3l.58-.12,1.19-.26.67-.16,1.06-.27.69-.2,1-.29.7-.23,1-.32.69-.26.91-.35.67-.28.87-.38.65-.31.83-.41.62-.33.8-.45.6-.35.76-.49.55-.37.22-.14Zm-2-80.29v.41l-.5.36-.62.44-.63.4-.67.42c-.21.13-.43.24-.64.36s-.48.28-.73.41l-.65.33-.78.38-.66.3-.83.36-.67.26-.88.34-.66.23-.94.32-.66.2-1,.29-.66.17-1,.26-.65.15-1.08.23-.63.12c-.37.07-.74.15-1.12.21l-.62.09c-.38.06-.77.13-1.16.18l-.58.07-1.22.14-.5,0c-.44.05-.89.09-1.33.12H509a59.73,59.73,0,0,1-6.56.09l-.61,0-1.1-.07-.76,0-1-.1-.82-.08-1-.12-.88-.11-.93-.14-.9-.15-.89-.17-.92-.17-.87-.19-.9-.21-.85-.22c-.31-.08-.61-.15-.91-.24l-.81-.24c-.31-.09-.61-.17-.91-.27s-.53-.18-.8-.27-.59-.19-.88-.3l-.78-.29-.86-.33-.75-.32-.84-.36-.72-.34-.83-.4-.69-.37-.79-.42-.67-.4c-.21-.12-.42-.24-.62-.37v-.71c1.33-3.38,8.86-10.64,10.07-11.79,2.93,2.88,8.23,4.61,14.73,4.76l.93,0c7.22,0,13.95-2,17.12-5.17C522.8,289.47,530,296.47,531.25,299.67Zm-11.88-17.33,1,4.45c-3,3.16-10,5.17-17.38,5-6.39-.16-11.69-1.94-14.3-4.79l.77-4.34.34.22c.24.16.48.31.74.46s.53.3.81.44.53.27.81.39l.89.37.88.32c.31.11.63.21,1,.3l.95.26,1,.22,1,.2,1,.15,1,.13,1.06.1,1.06.06,1.07,0,.57,0,.86,0h.19c.64,0,1.27-.05,1.9-.1l.3,0c.62-.05,1.23-.12,1.84-.2l.28,0c.62-.09,1.24-.19,1.84-.31l.13,0c.61-.13,1.2-.26,1.77-.41l.13,0c.57-.15,1.12-.32,1.66-.5l.26-.09q.78-.26,1.5-.57l.25-.11c.48-.21,1-.43,1.38-.66l.16-.09c.44-.25.86-.5,1.25-.77ZM518,276l1.11,5.1c-.17.13-.36.26-.55.38s-.39.28-.61.41-.54.29-.82.43-.44.24-.68.35-.63.26-1,.39l-.73.29-1.08.35-.76.23c-.39.11-.8.2-1.21.29-.25.06-.49.13-.74.18-.44.09-.9.16-1.35.23l-.71.13c-.5.07-1,.12-1.53.17l-.59.07c-.63.05-1.27.08-1.91.1l-.25,0c-.73,0-1.46,0-2.19,0h0c-.72,0-1.43-.07-2.13-.13l-.6-.08c-.5-.05-1-.11-1.49-.19-.26,0-.5-.1-.76-.15-.42-.08-.84-.15-1.25-.25s-.53-.15-.79-.22-.75-.2-1.11-.32-.52-.2-.77-.29-.68-.25-1-.4-.48-.24-.72-.36-.6-.3-.88-.47-.43-.29-.64-.44-.44-.3-.64-.46l.81-4.57.34.15.71.34.74.31c.25.1.52.19.78.28l.78.26.85.24.82.21.9.19.86.16.93.14c.29.05.59.09.89.12l.95.09.92.07.95,0,.94,0h.87l1.26,0,.81,0,1.28-.11.76-.08,1.39-.2.61-.1c.65-.11,1.3-.24,1.92-.4h0c.64-.15,1.26-.33,1.86-.52l.5-.17q.63-.21,1.23-.45l.6-.26c.34-.15.68-.3,1-.47l.59-.32C517.67,276.18,517.84,276.1,518,276Zm-1.22-5.62,1,4.42c-.18.12-.37.23-.57.34s-.38.23-.59.34l-.83.39c-.21.1-.41.2-.63.29s-.62.23-.93.34-.44.17-.67.24-.68.2-1,.3l-.68.19c-.37.1-.74.17-1.12.25-.22.05-.45.11-.68.15l-1.21.2-.65.1-1.38.15-.53.05c-.64.05-1.29.09-1.93.11h-.15c-.59,0-1.19,0-1.78,0-.25,0-.48,0-.73,0l-1.19-.06-.82-.08c-.35,0-.71-.06-1.05-.11l-.84-.13-1-.16c-.28-.05-.54-.12-.81-.18s-.63-.13-.93-.21l-.77-.23-.86-.26-.73-.28c-.26-.1-.53-.2-.79-.32s-.44-.21-.66-.32-.37-.19-.55-.29l.81-4.59.33.13.66.26.71.26.72.23.74.21.77.19.76.17.81.16.79.13.84.11.81.1.85.07q.42,0,.84.06l.84,0,.88,0h.76l1.15,0,.7,0c.4,0,.79-.05,1.18-.09l.66-.06c.43,0,.86-.1,1.29-.16l.52-.07a33.79,33.79,0,0,0,3.47-.74l.45-.14q.6-.17,1.17-.36l.56-.21,1-.38.57-.25Zm-1.22-5.58,1,4.42-.53.26-.6.28-.77.31-.66.25-.82.27-.69.21-.87.22c-.24.06-.47.13-.71.18l-.93.18-.71.14c-.34.06-.69.1-1,.15l-.64.09c-.41.05-.83.09-1.24.12l-.47,0c-1.16.09-2.32.11-3.47.09l-.38,0c-.45,0-.89,0-1.33-.06l-.53-.05c-.39,0-.78-.07-1.16-.12l-.59-.08-1.05-.16-.62-.12-1-.2-.64-.17c-.29-.08-.58-.15-.86-.24s-.43-.14-.64-.21l-.78-.27-.63-.27-.51-.22.89-5c1.5.61,5.32,1.83,11.84,1.83C511.13,266.66,514.47,265.34,515.55,264.81Zm-1.34-17.08H514c-6.07,2.05-14.42,2.27-20.52.22h-.37a87.56,87.56,0,0,0,2.73-13.19c.63-7.8-4.8-12.61-16.6-14.68,6.71-5.14,14.67-10.75,18-11.89,2.17-.74,16.25-.62,28.56-.32.52,3.83.41,9.53-.24,11.65-.77,2.51-5,6.79-7.53,9.34q-.88.88-1.47,1.5h0c-.2.22-.39.42-.53.59l-4.41,4.79Z"/><path class="cls-2" d="M286.42,209.08a9.72,9.72,0,0,1-.84-3.35c0-1.75-.32-3.42-10.28-6.76,1.26-2.45,3.86.13,4.42-1.75.89-3-7.64-7.33-7.64-7.33s4-1.39,4.26-3.65c.22-1.7-4.65-1.92-5.17-4.6s-5.17-4.4-5.17-4.4a3.09,3.09,0,0,0,1.64-2.51c0-2-3.22-.76-5-9.11h-.07c-1.69,8.35-4.95,7.14-5,9.11a3.09,3.09,0,0,0,1.64,2.51s-4.64,1.72-5.16,4.4-5.4,2.9-5.17,4.6c.29,2.26,4.25,3.65,4.25,3.65s-8.53,4.35-7.64,7.33c.56,1.88,3.16-.7,4.42,1.75-10,3.34-10.31,5-10.27,6.76a9.73,9.73,0,0,1-.85,3.35c-1.42,2.78-9.14,3-8.11,7.66.33,1.47,4.54-.43,5,1,.33,1-2.78.76-2.2,3.15,1.26,5.3,11.93,0,11.93,0s-6.88,5.22-5.45,7.79c1.34,2.41,5.71-.61,5.71-.61s4,2.76,5.46,2.67c1.71-.1,5-2.09,5-2.09a6,6,0,0,1,1.52,3.19,23.2,23.2,0,0,1-.77,6.46h-8.83v10.59h29.12V238.3h-8.84a23.2,23.2,0,0,1-.77-6.46,6,6,0,0,1,1.52-3.19s3.28,2,5,2.09c1.51.09,5.46-2.67,5.46-2.67s4.37,3,5.71.61c1.43-2.57-5.45-7.79-5.45-7.79s10.67,5.3,11.94,0c.57-2.39-2.54-2.1-2.21-3.15.46-1.43,4.66.47,5-1C295.57,212.09,287.84,211.86,286.42,209.08Zm-23.79-36a1.29,1.29,0,1,1-1.27,1.29A1.28,1.28,0,0,1,262.63,173.08Zm11.65,67.7v6H251v-6Z"/><path class="cls-2" d="M208.61,173.92l-.72-7.69-28.4,2a17.61,17.61,0,0,0-5-1.57C154.84,165.1,79,165.08,78,165.08h-.38l-.15.35c0,.12-1.18,2.91-1.18,11.33,0,8.13,1.11,12.14,1.16,12.31l.11.4H78c.62,0,50.41,1,79.06,1,6.79,0,12.4-.06,15.87-.2a11.36,11.36,0,0,0,5.29-2l.22-.15v-.08l29.09,4,.63-7.75h5.53v-10Zm-35.72,15.26c-3.22.13-8.29.19-14.43.2L158.29,170,97,168.49l1.1,20.23c-10.17-.18-17.74-.33-19.6-.37a54.76,54.76,0,0,1-1-11.59c0-6.52.69-9.58,1-10.54,6.09,0,77.1.07,96,1.53a16.25,16.25,0,0,1,4.34,1.35l-1.43,18.45A10,10,0,0,1,172.89,189.18Z"/><path class="cls-2" d="M356.93,359l-7.84.06-89.77-.82h-.07l-16.18,3.68,15.25,2.64,90.67.84,7.16,1.5Zm-105.21,3.26.11-1.17,7.54-1.72,89.17.83,0,1.5,0,2.54-90.06-.82Z"/><path class="cls-2" d="M444.66,465.5c6.18-4.48,12.73-8.56,16.72-11-4.53-2.33-19.22-9.64-33.37-13.94-7.35-2.23-14.58-4.05-17.67,1.34h0C410.35,449.8,434.15,461.2,444.66,465.5Z"/><path class="cls-2" d="M443.06,466.68c-7.06-3-29.72-13.08-33.78-22.08-4.83,14.68-5.28,25-5.28,25l.26,2.86a184.23,184.23,0,0,0,25.7,6.88C432,475.65,437.22,471,443.06,466.68Z"/><path class="cls-2" d="M533.09,477c-5.33-4.71-11.59.73-18.21-.32l-9.35,5.18-.82-1.5,7.85-4.35c-8.15-3.44-27.91-24.34-35.75-25.12-2.6-.26-8.09,1.84-11.37,3.22-3.84,2.23-28.34,16.69-33.71,25.58,3.08.54,6.27,1,9.52,1.37,6.45.7,13.38,4.84,20.72,9.23,7,4.2,14.28,8.54,21.45,10,12.8,2.59,41.62-7.56,52.68-11.74C537,483.79,536,479.57,533.09,477Z"/><path class="cls-2" d="M442.71,493.35c-3.12,1-6.69,5.14-8.59,7.59,3.75-1.67,12.21-5.17,16.28-4.73.16,0,.33.07.49.1C447.5,494.28,444.28,492.85,442.71,493.35Z"/><path class="cls-2" d="M535.93,490.46c-10.35,3.91-33.43,12-47.7,12a26.19,26.19,0,0,1-5.15-.45c-7.46-1.51-14.84-5.93-22-10.2s-13.94-8.33-20-9a176.71,176.71,0,0,1-36.64-8.41L406.2,494l25.32,7.56c1-1.38,6-8.36,10.67-9.85,3.91-1.26,12.71,4.95,16.4,7.76,6.78,3.89,14.44,10,19.64,11.38,26.6,7.06,57.67-14.38,57.67-14.38S535.83,494.7,535.93,490.46Z"/><path class="cls-2" d="M349.66,215l2.07-1.43a104.62,104.62,0,0,0-18.1,6.21h16Z"/><path class="cls-2" d="M450.54,224.11c-9.55,2.32-24.41,9.41-35.85,8.06-10.49-1.24-24.07-5.9-26.69-8.07H377.9l-4.71,7.58c2.78-.85,5.38-1.73,7.86-2.36,6.75,3.41,21.29,8.62,30.36,9.62,11.26,1.25,37.52-6.52,47.26-9.92C463.84,227.22,452.72,223.58,450.54,224.11Z"/><path class="cls-2" d="M455.09,206.77c-6.39-1.14-36.92-3-45.75-1.3-11.17,2.07-21.43,5.42-29.35,11.08-6.51-2.28-10.23-4.37-23.21-3.66-.36,0-.73,0-1.1.08l-4.32,3v5.59H329.84c-1.1.51-1.74.83-1.74.83v4s19.45,8,29.6,8a47.6,47.6,0,0,0,13-2l6.22-10H388v.16c2.36-2.9,13.84-9.3,27.62-11.84,11.26-2.07,26.35,2.84,34.66,3C452.39,213.7,461.44,207.89,455.09,206.77Zm-98.21,14.62a1.43,1.43,0,1,1,1.43-1.43A1.43,1.43,0,0,1,356.88,221.39Z"/><path class="cls-2" d="M542.87,96.46c-2-.89-104.37,31.55-133.16,52.85-3.56,2.63-13.52,10.14-11.06,13.83,22.47,1.48,94.89-18.78,94.89-18.78s-5.2-10-5.92-16.3c1.16-4.93,13.65-3.92,18.62-4.59,10.58-1.44,40-12.88,41.27-14.62C549.43,106.16,545.89,97.8,542.87,96.46Zm-33.36,23.12-10.18-5.73.84-1.49,10.17,5.73Zm4.87-1.16-10-6.3.91-1.44,10,6.3Zm3.79-1.8L510.4,110l1.1-1.3,7.78,6.61Zm4.21-1.48-6.67-6.85,1.22-1.19L523.6,114Zm4.45-1.87-6.64-6.64,1.2-1.2,6.64,6.63Zm4-1.57-5.81-6.39,1.26-1.15,5.81,6.39Zm3.46-.7-5-6.88,1.38-1,5,6.88Zm4.42-1.17-5.37-8,1.42-1,5.37,8Zm3.93-1.6-5-6.3,1.34-1.06,5,6.3Z"/><path class="cls-2" d="M214.55,502.24l35.88-.57a17.71,17.71,0,0,0-8.7-3.56c-6.61-.59-11.06.76-16,1.47-5.68.82-10.31,1.24-12.83,1.43Z"/><path class="cls-2" d="M252,503.35l-38,.6-8-6-22.2-14.62s15.95-16.89,1.28-28.48c-4.91-3.88-17.43-.87-20.08,4.81-3.29,7.06,2.23,15.55,2.23,15.55s-23.71-10.27-27.64-4.79c-8.1,11.28,6.57,28.55,22.9,28.3,8.4-.13,9.64-4.81,14.19-4.25,4.76.59,10,8,10,8l5.06-1.84s7.93,6.9,14.64,10.67c9,.48,34.36-.67,46-2.28A5.42,5.42,0,0,0,252,503.35ZM166.1,490.2c-.71,3.69-6.42,6.77-16,.22-6.36-4.32-10.52-8.17-7.26-14.18,1.8-3.31,9.52-1.91,16,2.77C165.09,483.49,167.14,484.81,166.1,490.2Zm11.77-14.55a8.94,8.94,0,1,1,8.93-8.94A8.94,8.94,0,0,1,177.87,475.65Zm29.25,31.87a2.78,2.78,0,1,1,2.77-2.77A2.77,2.77,0,0,1,207.12,507.52Z"/><path class="cls-2" d="M362.33,472.86c-13.68,2.47-28.3,5.7-29.57,6.93-1.6,2.26-3.55,11.62-2.95,19,.51,6.15,3.3,12.75,4.67,15.69l-37.32,14.29-.45-7.32,29.52-12,6,4.23a49.24,49.24,0,0,1-4.12-14.72c-.61-7.53,1.29-17.35,3.28-20.12,1.55-2.15,22.39-6.1,30.29-7.54-1.42-1.64-4.26-4.56-6.65-4.72-3.72-.25-26.7,3.59-30.46,8.29-2.16,2.71-4,14.15-3,22a35.87,35.87,0,0,0,3.86,11.66l-29.86,12.18.55,9.59s1,3.09,1.87,3.09c1.3,0,2.7-3.58,3.19-4.93l34.64-13.27c13.5-3.76,27.55-8.29,28.63-9.67C365.47,503.16,364.21,478.46,362.33,472.86Zm-18.59,32.55c-5-1.11-7.95-6.1-6.51-12.54s6.64-10.76,11.63-9.64,9,7.31,7.56,13.75A10.89,10.89,0,0,1,343.74,505.41Z"/><path class="cls-2" d="M252.89,129h0c-1.22-2-102.41-62.45-104.43-62.32h0c-.79,0-3.9,1-7,6.13-1.67,2.8-3.8,12.66-3.8,12.66h0l1,.58,6-10.11L146.51,77l-6,10.11,1,.59,6-10.11,1.78,1.06-6,10.11,1,.58,6-10.11L152,80.24l-6,10.11,1,.59,6-10.11,1.78,1.06-6,10.11,1,.58,6-10.11,1.78,1.06-6,10.11,1,.59,6-10.11,1.78,1.06-6,10.11,1,.58,6-10.11,1.78,1.06-6,10.11,1,.59,6-10.11,1.78,1.06-6,10.11,1,.58,6-10.11,1.78,1.06-6,10.11,1,.59,6-10.11,1.77,1.06-6,10.11,1,.58,6-10.11,1.78,1.06-6,10.11,1,.59,6-10.11,1.78,1.06-6,10.11,1,.58,6-10.11,1.78,1.06-6,10.11,1,.59,6-10.11,1.78,1.06-6,10.11,1,.58,6-10.11L185.1,100l-6,10.11,1,.59,6-10.11,2.07,1.23-6,10.11,1,.59,6-10.11,1.78,1.06-6,10.11,1,.58,6-10.11,1.77,1.06-6,10.11,1,.59,6-10.11,1.78,1.06-6,10.11,1,.58,6-10.11,1.78,1.06-6,10.11,1,.59,6-10.11,1.78,1.06-6,10.11,1,.58,6-10.11,1.78,1.06-6,10.11,1,.59,6-10.11,1.78,1.06-6,10.11,1,.58,6-10.11,1.78,1.06-6,10.11,1,.59,6-10.11,1.78,1.06-6,10.11,1,.58,6-10.11,1.78,1.06-6,10.11,1,.59,6-10.11,1.78,1.06-6,10.11,1,.58,6-10.11,1.78,1.06-6,10.11,1,.59,6-10.11,1.78,1.06-6,10.11,1,.58,6-10.11,1.78,1.06-6,10.11,1,.59,6-10.11,1.78,1.06-6,10.11,1,.58,6-10.11,1.83,1.1-6,10.11,1,.58,6-10.11,2.07,1.24-6,10.11,1,.58,6-10.11,1.78,1.06-6,10.11,1,.58,6-10.1,1.78,1.06-6,10.11,1,.58,6-10.11,1.78,1.06-6,10.11,1,.58,6-10.1,1.78,1.06-6,10.11,1,.58,0,0s7.8-6.57,9.48-9.37C253.88,132.75,253.26,129.37,252.89,129Z"/><polygon class="cls-2" points="161.78 384.41 172.08 400.34 177.48 396.74 165.49 382.13 161.78 384.41"/><path class="cls-2" d="M185.45,366.47c-8.09-8.85-20.22-2.31-20.22-2.31l-15.3,10.22-4.7-3.89s-7.82-2.62-16,4.1a22.32,22.32,0,0,0-7.71,14.71l.4.51a13.75,13.75,0,0,0-4.89,1.76,95.81,95.81,0,0,1,7.39,7.94,55.46,55.46,0,0,1,4.84,7.69,19.47,19.47,0,0,0,3.28-3.84l2.21,2.83-12,7.52s-.48-.76-3.69-5l1.38-.9,1.89,2a10.29,10.29,0,0,0,5.57-1.54,54.68,54.68,0,0,0-4.8-7.67,98.09,98.09,0,0,0-7.42-7.95,8.18,8.18,0,0,0-2.68,3.93l1.07,2L96.92,410.25a6.59,6.59,0,0,0,.16,6.25c2.06,3.68,6.44,2.21,6.44,2.21L113.87,412c0,1.9.14,3.61-.5,5.06-.9,2-7.08,6.19-7.08,6.19L64.11,454.11s-9.32,6.49-5.78,12.06c5,7.93,14.43.44,14.43.44l97.9-65.32-10.38-16L158.45,382c1.85-1.17,3.52-2.19,4.86-3,5.49-3.18,7.09-2.9,9.44-1.73,1.26.63,11.23,12.42,11.23,12.42s4.09-.91,4.94-2.4C190.06,385.32,188.23,369.5,185.45,366.47Zm-113,95.84c-3.37,1.94-7,2.06-8,.25s.84-4.86,4.22-6.81,7-2.06,8-.25S75.85,460.36,72.47,462.31Zm90.14-62.86a1.23,1.23,0,1,1-1.23,1.23A1.23,1.23,0,0,1,162.61,399.45Z"/><path class="cls-2" d="M240.73,287.61c4.91-1.09,7.26-3.82,7.26-8.18,0-6.5-3.93-9.12-13.81-9.12H218.25v4.1H221c.77,0,1,.38,1,1.52v24.95c0,1.14-.27,1.58-1,1.58h-2.72v4.09h15.88c10.7,0,15.34-3,15.34-9.93C249.47,291.43,246.63,288.49,240.73,287.61Zm-11.24-13.2H234c4.59,0,6.23,1.52,6.23,5.95,0,4.14-2.13,5.89-6.55,5.89h-4.15Zm5,28h-5V289.8h5.29c4.64,0,6.72,1.74,6.72,6.44C241.5,300.77,239.59,302.46,234.46,302.46Z"/><path class="cls-2" d="M265.62,279.26c-8.19,0-13.81,5.68-13.81,14s4.86,14,14.52,14c6.87,0,10.48-3.38,11.95-7.64l-4.15-1.85c-1.25,3.22-3.44,5.13-7.2,5.13-5,0-7.43-3.28-7.59-8.24h19.32v-1.37C278.66,284.5,274,279.26,265.62,279.26Zm-6.39,11.68c.33-5.24,2.51-7.47,6.39-7.47s5.51,2.07,5.62,7.47Z"/><path class="cls-2" d="M298.53,279.26c-3.17,0-5.95,1.75-7.21,6v-5.84a34.29,34.29,0,0,1-6.38.54h-4.43v4.1h2.57c.71,0,.93.32.93,1.63V301c0,1.26-.33,1.42-.93,1.42h-2.4v4.09h14.19v-4.09H292.3c-.6,0-.92-.16-.92-1.42v-8.35c0-5.57,1.85-8.9,5.45-8.9a2.75,2.75,0,0,1,1.81.55,3.62,3.62,0,0,0,1.09,7.09c3.11,0,5.18-2.29,5.18-5.73C304.91,281.77,302.46,279.26,298.53,279.26Z"/><path class="cls-2" d="M326.58,302.46h-2.13v4.09H338.2v-4.09h-2.4c-.6,0-.93-.16-.93-1.42V289.2c0-6.66-3-9.94-8.62-9.94-4.26,0-7.31,1.8-9,5.46v-5.29a33.15,33.15,0,0,1-6.33.54h-4.25v4.1h2.4c.71,0,.93.32.93,1.63V301c0,1.26-.33,1.42-.93,1.42h-2.4v4.09h13.75v-4.09h-2.13c-.6,0-.93-.16-.93-1.42v-8.3c0-5.94,2.13-8.67,5.79-8.67,3,0,4.37,1.58,4.37,5.29V301C327.51,302.3,327.18,302.46,326.58,302.46Z"/><path class="cls-2" d="M346,277.52a4.48,4.48,0,1,0,0-8.95,4.48,4.48,0,1,0,0,8.95Z"/><path class="cls-2" d="M349.72,301V279.43a34.42,34.42,0,0,1-6.39.54H339v4.1h2.12c.93,0,1.2.49,1.2,2.18V301c0,1.15-.27,1.42-.87,1.42H339v4.09h13.91v-4.09h-2.29C350,302.46,349.72,302.19,349.72,301Z"/><path class="cls-2" d="M381.75,293.29c0-8.79-4.63-14-13-14-8.19,0-13.81,5.68-13.81,14s4.86,14,14.52,14c6.88,0,10.48-3.38,11.95-7.64l-4.15-1.85c-1.25,3.22-3.43,5.13-7.2,5.13-5,0-7.42-3.28-7.59-8.24h19.32Zm-19.43-2.35c.33-5.24,2.51-7.47,6.39-7.47s5.51,2.07,5.62,7.47Z"/><path class="cls-2" d="M254.85,322.71h5.67v1.44h-4v2.25h3.27v1.43H256.5v3.4h-1.65Z"/><path class="cls-2" d="M266.12,331.43a4.15,4.15,0,0,1-4.38-4.44,4.29,4.29,0,0,1,4.39-4.49,4.14,4.14,0,0,1,4.36,4.44A4.28,4.28,0,0,1,266.12,331.43Zm0-7.54c-1.62,0-2.68,1.23-2.68,3.05s1.07,3.1,2.73,3.1,2.69-1.24,2.69-3.05S267.75,323.89,266.09,323.89Z"/><path class="cls-2" d="M274.06,331.23h-1.67v-8.52h3c2.15,0,3.3,1,3.3,2.59a2.47,2.47,0,0,1-1.84,2.45l2.24,3.48h-1.9l-1.9-3.12-1.22.08Zm1.22-4.38c1-.05,1.7-.52,1.7-1.44s-.67-1.31-1.86-1.31H274v2.78Z"/><path class="cls-2" d="M287.13,331.23h-1.69l-2.35-8.52h1.77l1.49,6.49,1.77-6.49H290l1.8,6.49,1.47-6.49H295l-2.35,8.52h-1.72l-1.88-6.59Z"/><path class="cls-2" d="M300.38,331.43A4.15,4.15,0,0,1,296,327a4.29,4.29,0,0,1,4.39-4.49,4.14,4.14,0,0,1,4.36,4.44A4.28,4.28,0,0,1,300.38,331.43Zm0-7.54c-1.62,0-2.68,1.23-2.68,3.05s1.07,3.1,2.73,3.1,2.69-1.24,2.69-3.05S302,323.89,300.35,323.89Z"/><path class="cls-2" d="M308.32,331.23h-1.67v-8.52h3c2.15,0,3.3,1,3.3,2.59a2.47,2.47,0,0,1-1.84,2.45l2.24,3.48h-1.9l-1.9-3.12-1.22.08Zm1.22-4.38c1-.05,1.7-.52,1.7-1.44s-.67-1.31-1.86-1.31H308.3v2.78Z"/><path class="cls-2" d="M316.6,326.62l3.22-3.91h2l-3.66,4.18,3.71,4.34h-2l-3.22-3.9h0v3.9h-1.67v-8.52h1.67v3.91Z"/><path class="cls-2" d="M323.27,331.23v-8.52h5.81v1.4h-4.17v2.14h3.42v1.41h-3.42v2.17h4.17v1.4Z"/><path class="cls-2" d="M332.7,331.23H331v-8.52h3c2.16,0,3.3,1,3.3,2.59a2.47,2.47,0,0,1-1.84,2.45l2.24,3.48h-1.9l-1.89-3.12-1.23.08Zm1.23-4.38c1-.05,1.69-.52,1.69-1.44s-.67-1.31-1.86-1.31h-1.07v2.78Z"/><path class="cls-2" d="M343.52,328.9c0-.71-.64-1-1.9-1.31S339,326.7,339,325c0-1.52,1.15-2.53,3-2.53a5.84,5.84,0,0,1,2.93.75l-.41,1.41a5.17,5.17,0,0,0-2.51-.74c-1,0-1.43.42-1.43,1s.77,1,1.94,1.28,2.6.94,2.6,2.57-1.24,2.65-3.24,2.65a6.11,6.11,0,0,1-3.07-.79l.38-1.43a5.18,5.18,0,0,0,2.71.82C342.86,330,343.52,329.58,343.52,328.9Z"/><rect class="cls-2" x="355.29" y="326.74" width="19.18" height="1.14"/><rect class="cls-2" x="225.53" y="326.47" width="19.18" height="1.14"/><path class="cls-2" d="M307.4,409.08c-3-3.17-18.95-1.33-18.95-1.33-.77-7.85-1.46-13.27-1.46-13.27H275c1.13,12,4,43.72,4,55.85H277.3c0-12.11-2.87-44-4-55.85H248.06c-2.08,11.85-7.52,44-7.52,56.27h-1.69c0-12.49,5.36-44.15,7.49-56.27h-8.22l-8.07,29.35c-.71,4.41-4.54,29.85-1,38.87,3.36,8.58,55.42,10.33,59.56,0a28,28,0,0,0,1.47-6.86c3.29.1,10.57.15,12.35-1.41C305.13,452.07,312.17,414,307.4,409.08Zm-10.14,38.59c-1.05,1.28-4.44,1-6.7.6.29-10.71-.64-24.44-1.62-35.35,2.19-.25,11.05-1.11,12.51,1C304.56,418.54,299.52,444.91,297.26,447.67Z"/><path class="cls-2" d="M236.37,394.48h-.09s-13.33,3.1-14.62,6.94c5,5.89,7.06,13.27,7.92,17.74Z"/><path class="cls-2" d="M423.54,339.12c-1.79-1.2-9-3.15-12.42-4l10.27,12.56,10,1.71A42,42,0,0,0,423.54,339.12Z"/><path class="cls-2" d="M432.42,351.12l0,.12-11.92-2-11.82-14.46-6.89,1.71,13.16,14.77-6.71,10.18c6.34,7.48,11.92,15,12.47,17.51s-3.83,15.45-6.09,21.94c3.49,2.88,8.48,4.71,15.31,3.51,6.24-1.09,11.68-8.13,13-15.17C444,382.92,439.79,364.74,432.42,351.12ZM412.79,346a5.33,5.33,0,0,0-4.25-5.45l.3-1.68A7,7,0,0,1,414.5,346Z"/><path class="cls-2" d="M419,379.29c-.92-4.23-18.08-24.63-26.4-31.93-1.8,13.21,8.77,24.58,10.08,27.88,2.88,7.32,2.89,15.8,9.91,23.71l.62.66C416.05,391.43,419.38,380.93,419,379.29Z"/><path class="cls-2" d="M424.3,275c1.56,3.86-1.63,6.59-5.31,9.76-3.5,3-7.45,6.4-7.69,11.4-.21,4.29,2.33,9.13,7.77,14.79a3.91,3.91,0,0,1,1.24,3c-.18,3.52-5.23,7.77-10.12,11.88s-9.78,8.25-10.87,12.3c-2,1.87-5.21,5.09-6.24,7.34a146.8,146.8,0,0,1,14,14.56l5.71-8.68-12.14-13.62c1.35-3.5,5.87-7.31,10.28-11,5.31-4.47,10.32-8.68,10.53-12.7a5.06,5.06,0,0,0-1.56-3.85c-5.21-5.42-7.65-10-7.46-13.94.22-4.52,3.82-7.61,7.3-10.6,3.85-3.31,7.48-6.43,5.63-11.05-2.95-7.31-17-19.57-31.38-21.39-9.67-1.22-18,2.44-24,10.61l.92.68c5.84-7.93,13.54-11.35,22.91-10.16C407.86,256.12,421.46,268,424.3,275Z"/><path class="cls-2" d="M371.86,418V402.31h-1.2c.1-5.23-.17-10.93-1.67-12.52l-.23-.23-.32.07c-3.9.93-5.82,5.07-6.11,7.45-.1.83-.15,2.9-.17,5.23h-1.47V418h-3.37v22h17.92V418Zm-2.34-15.68h-6.23c0-1.95.06-3.71.13-4.67a6.19,6.19,0,0,0,4-2,7.25,7.25,0,0,0,1.49-3.15A48.08,48.08,0,0,1,369.52,402.31ZM368,391c-.08,1.52-.69,4.83-4.4,5.5A8,8,0,0,1,368,391Z"/></svg>