<svg xmlns="http://www.w3.org/2000/svg" viewBox="0 0 950 950"><title>witch_lair</title><rect width="950" height="950" style="fill:#fff"/><path d="M806.21,579.5H181.92s-18.67,28.6-25.9,37.32c-7.08,8.54-31.57,27.09-38.59,35.68C100.73,672.94,65,735,65,735s44.8,4.11,59.78,4.5c144.26,3.78,432.91-9.84,577.2-7,40.93.81,122.59,10.86,163.48,12,23.93.67,70.54-4.5,70.54-4.5s-43.9-67.19-67.36-90.5c-10.66-10.59-34.52-33.38-44-44.89-5-6-18.38-25.11-18.38-25.11" style="fill:#1d1d15"/><rect y="556" width="950" height="2" style="fill:#1d1d15"/><path d="M873.77,589.94h-2c0-10.64-21.12-13-41.55-15.33C808.51,572.15,788,569.83,788,558h2c0,10,20.56,12.37,40.45,14.62C851.75,575,873.77,577.52,873.77,589.94Z" style="fill:#1d1d15"/><path d="M199.27,753.93c1.14-11.58,2-18.11-6-27-3.09-3.45-13.68-5.15-18.32-4.37-1.34,9.2-13.18,16-19.8,16.8-4.2,12.09-16.63,17.48-21.64,25.81,4.3,10.86,2.14,35.2,2.14,35.2l5.94,2.34s15.78-32.7,11.77-38.28c-2.71-3.78,1.22-10,4.82-12.42,10.11,6.28,29.12,10.35,39.78,6.54.69-.3,4,.49,4.56,1.4,5.64,9.14,6.8,23.66,29.68,26.44-.23,5.21-3.88,14.4-11.44,19.77-6,4.24-16.23,5.37-16.23,5.37l1.22,8.5S247.38,809,257,803.61c4.24-2.38,4-14.45,4-14.45L248.51,772.8s-3.93-14.72-.5-22c-6-.66-13.48-5.54-17.92-5.35-5.59.23-20.35,5.13-23.88,11.18C202.84,756.49,200.12,755.59,199.27,753.93Z" style="fill:#fff"/><path d="M205.8,821.06a1,1,0,0,1-.55-.17,1,1,0,0,1-.44-.69l-1.22-8.5a1,1,0,0,1,.88-1.13c.1,0,10.08-1.15,15.76-5.19a27.91,27.91,0,0,0,11-18.1c-18-2.49-22.44-12.19-26.4-20.76a58.24,58.24,0,0,0-3.06-6,6.73,6.73,0,0,0-3.39-1c-8.85,3.16-27.33,1.33-40.06-6.29a13.11,13.11,0,0,0-4.66,7.2,4.34,4.34,0,0,0,.62,3.44c.69,1,2.81,3.93-4.27,22.18-3.42,8.8-7.38,17-7.42,17.12a1,1,0,0,1-1.27.49l-5.94-2.34a1,1,0,0,1-.63-1c0-.24,2.1-24.23-2.07-34.74a1,1,0,0,1,.07-.88c2.11-3.51,5.41-6.44,8.9-9.55,5-4.49,10.25-9.13,12.66-16.08a1,1,0,0,1,.82-.66c6.73-.83,17.72-7.62,18.93-15.95a1,1,0,0,1,.83-.84c5-.85,15.87.94,19.22,4.68,8.06,9,7.39,15.73,6.29,26.91l0,.5c.72,1,2.72,1.71,5.38,1.93,4.38-6.39,19.07-10.92,24.37-11.14,2.48-.1,5.67,1.17,9,2.53,3.07,1.24,6.23,2.52,9,2.83a1,1,0,0,1,.77.51,1,1,0,0,1,0,.91c-3,6.4.07,19.37.5,21.08l12.32,16.2a1,1,0,0,1,.2.59c0,1.29.12,12.74-4.5,15.34-9.57,5.39-49.68,16.09-51.38,16.54A.78.78,0,0,1,205.8,821.06Zm-.09-8.64.92,6.38c6.61-1.78,41.34-11.28,49.83-16.06C259.1,801.25,260,794,260,789.5l-12.24-16.1a.88.88,0,0,1-.17-.35c-.16-.58-3.59-13.67-.93-21.41a46.14,46.14,0,0,1-8.27-2.76c-3.16-1.28-6.12-2.48-8.21-2.4-5.82.25-19.87,5.24-23.06,10.69a1,1,0,0,1-.92.5c-4-.22-6.8-1.39-7.77-3.28a1.08,1.08,0,0,1-.1-.56l.08-.82c1.08-11,1.68-17.06-5.79-25.38-2.62-2.92-12-4.62-16.71-4.14-1.91,9.36-13.5,15.71-19.92,16.8-2.67,7.13-8.16,12-13,16.34-3.23,2.88-6.29,5.6-8.26,8.68,3.74,10.17,2.41,30.24,2.08,34.43l4.39,1.73c6-12.52,14.07-32.8,11.46-36.42a6.38,6.38,0,0,1-1-5,15.15,15.15,0,0,1,6-8.88,1,1,0,0,1,1.08,0c9.82,6.1,28.55,10.15,38.92,6.45,1.05-.45,4.9.42,5.75,1.81a58.5,58.5,0,0,1,3.18,6.23c3.8,8.25,8.12,17.6,25.77,19.74a1,1,0,0,1,.88,1c-.27,6.06-4.51,15.33-11.86,20.55C216.34,810.6,208.51,812,205.71,812.42Z" style="fill:#1d1d15"/><path d="M247.92,752.53s33.51,1.6,39.78,6.54c4.37,3.44,9.95,12.52-2.29,17.42-6.12,2.44-19.34-5.77-26.12-3.45-7.35,2.51-27,13.38-27,13.38s22.14-7.9,29.83-8.84,18.48,7.3,25.73,4.43c10.86-4.3,13-18.35,4.82-26.72-6-6.15-47.29-4.93-47.29-4.93Z" style="fill:#fff"/><path d="M232.25,787.42a1,1,0,0,1-.91-.59,1,1,0,0,1,.43-1.29c.8-.44,19.85-10.93,27.19-13.44,3.71-1.27,8.93.28,14,1.77,4.61,1.37,9.37,2.78,12.1,1.69,4.08-1.64,6.35-3.84,6.74-6.54.49-3.37-2.09-7.11-4.69-9.16-4.94-3.9-30-5.89-39.22-6.34a1,1,0,0,1-.59-.23l-2.58-2.16a1,1,0,0,1,.61-1.77c4.27-.12,41.92-1.05,48,5.23a18.15,18.15,0,0,1,4.84,16.48,16.18,16.18,0,0,1-10,11.87c-4.33,1.72-9.61-.15-14.72-2-3.93-1.38-8-2.82-11.26-2.42-7.49.92-29.39,8.71-29.61,8.79A1,1,0,0,1,232.25,787.42Zm31.11-10.92c3.38,0,7.13,1.33,10.77,2.61,4.76,1.68,9.68,3.41,13.31,2a14.22,14.22,0,0,0,8.8-10.43A16.16,16.16,0,0,0,291.92,756c-4.34-4.45-31.05-4.92-43.9-4.69l.29.24c3.74.19,33.84,1.88,40,6.75,3.15,2.47,6.05,6.84,5.44,11-.5,3.46-3.18,6.18-8,8.1-3.37,1.35-8.24-.09-13.41-1.62-4.74-1.41-9.66-2.86-12.76-1.8-3.6,1.23-10.3,4.55-16.11,7.56,6.64-2.15,14.42-4.47,18.45-5A11,11,0,0,1,263.36,776.5Z" style="fill:#1d1d15"/><path d="M175.78,722.67c.78-2-31.16-27.53-50.48-13.4-4.94,3.61-15.33,21.43-9.75,30.5,4,6.49,17.91,24.25,17.91,24.25l2-2.09s-10.73-16.63-14.15-22.19c-5.57-9.07,3.13-23.92,7.2-26.93C144.65,700.87,174.21,726.63,175.78,722.67Z" style="fill:#fff"/><path d="M133.46,765h-.05a1,1,0,0,1-.74-.38c-.57-.72-14-17.88-18-24.34-6.09-9.89,5.08-28.22,10-31.83,14.53-10.63,36.32.38,46.9,8.55,5.73,4.42,5.28,5.55,5.1,6h0a1.63,1.63,0,0,1-1,.93c-1.48.54-4-.73-9.45-3.67-10-5.36-26.83-14.35-37.22-6.67-3.89,2.87-12.11,17.2-6.94,25.6,3.37,5.49,14,22,14.13,22.17a1,1,0,0,1-.12,1.23l-2,2.08A1,1,0,0,1,133.46,765ZM139,706a21.71,21.71,0,0,0-13.14,4.05c-4.63,3.39-14.68,20.74-9.49,29.17,3.4,5.53,14.24,19.53,17.13,23.24l.63-.67c-2-3.14-10.73-16.67-13.73-21.54-2.56-4.17-2.6-10.07-.1-16.62,2.1-5.53,5.39-10,7.56-11.64,11.41-8.43,28.9.93,39.35,6.52a59,59,0,0,0,7,3.41c-2.6-2.89-13.11-10.89-25-14.34A36.75,36.75,0,0,0,139,706Zm36.74,16.65h0Z" style="fill:#1d1d15"/><rect x="99" y="182" width="126" height="126" style="fill:#1d1d15"/><rect x="107" y="189" width="111" height="111" style="fill:#fff"/><path d="M219,301H106V188H219Zm-111-2H217V190H108Z" style="fill:#1d1d15"/><path d="M181.15,290c-9,0-19.47-.46-31.15-1-8.63-.38-17.55-.78-27-1l-.88,0-.09-.89c-1.11-11.67-.63-28.77-.16-45.3.36-12.95.7-25.18.16-32.72l0-.36.21-.29c3.94-5.53,15.65-9.48,32.11-10.84,19.38-1.61,43.54.84,50.41,7.71l.25.26,0,.35c3,29.91,3,60.28,0,81.24l-.09.66-.64.17C198.5,289.5,190.67,290,181.15,290Zm-57.23-4c9.16.26,17.8.64,26.17,1,23.43,1,42,1.87,53-.84,2.87-20.7,2.85-50.41-.06-79.73-6.06-5.54-27.64-8.63-48.58-6.9-15.34,1.27-26.66,4.9-30.44,9.73.51,7.66.17,19.76-.19,32.54C123.38,257.9,122.92,274.5,123.92,286Z" style="fill:#1d1d15"/><path d="M134.93,272.89a30.15,30.15,0,0,1-10-1.56c-4.49-1.62-7-4.23-7-7.33h2c0,2.17,2.06,4.15,5.64,5.45,11.79,4.27,24.18-.79,28.59-6.09l1.54,1.28C150.8,270.6,142.39,272.89,134.93,272.89Z" style="fill:#1d1d15"/><path d="M191,272.63a16.83,16.83,0,0,1-7.28-1.44,10.51,10.51,0,0,1-5.69-6.92l1.92-.54a8.5,8.5,0,0,0,4.63,5.66c7.53,3.61,20.65-1.83,20.78-1.88l.78,1.84C205.72,269.53,198.25,272.63,191,272.63Z" style="fill:#1d1d15"/><circle cx="191.5" cy="256.5" r="3.6" style="fill:#1d1d15"/><circle cx="133.5" cy="256.5" r="3.5" style="fill:#1d1d15"/><path d="M199,313H186s-1.59-6.41,0-8c2.3-2.3,11-1.53,13,1C200.41,307.75,199,313,199,313Z" style="fill:#1d1d15"/><path d="M189,306s-10-12.95-14-11,1.12,13.64,0,18c-4.5,17.5,2.22,18.76,7,22,8.5,23.5,21.5,29.5,30.5,32.5,6,2,11,16,14,21,1,1.71,0,8,0,8s-5,4-1,10c2.26,3.39,5,0,5,0l18-6s.93,5.23,4,6c8,2,12-9,12-9s1.3-8.85,3-8c.82.41-.06,8.35,2.43,18,3.59,13.95,9.94,31.47,12.19,34.88,5.38,8.12,10.27.53,10-2-.34-3.28-8.85-19.73-10.3-35.5-1.32-14.38-1.63-23.86-1.32-27.38,2-23-5.82-28.05-11-36-15-23-49-21-49-21s-7.16-2.37-9-4c-1.09-1-2-5-2-5s4.18-12.87,1-15c-3.74-2.51-14,10-14,10" style="fill:#1d1d15"/><path d="M287.11,446.79c-1.58,0-3.55-.89-5.61-4-2.33-3.52-8.71-21.18-12.3-35.1a71.45,71.45,0,0,1-2-14.64c0-.94-.09-1.9-.16-2.51a26.48,26.48,0,0,0-1.83,7.07l0,.15c0,.11-4.33,11.61-12.89,9.47-2.71-.68-3.94-4.13-4.37-5.76l-17,5.68a4.59,4.59,0,0,1-3.27,1.6,3.57,3.57,0,0,1-2.78-1.83c-3.81-5.71-.08-9.85.92-10.8.39-2.5.65-6.25.06-7.23-.79-1.31-1.68-3.17-2.71-5.32-2.84-5.9-6.73-14-10.89-15.36-10-3.35-22.63-10.1-30.88-32.72-.5-.33-1-.64-1.55-1-4.52-2.71-9.66-5.78-5.56-21.72.41-1.57-.15-4.49-.69-7.3-.91-4.8-1.86-9.75,1.09-11.18.76-.37,5.05-1.57,14.92,11.21a.75.75,0,1,1-1.18.92c-4-5.18-10.7-11.94-13.08-10.79-1.92.94-1,5.51-.27,9.56.59,3.11,1.16,6,.67,8-3.82,14.85.6,17.5,4.87,20.05.62.38,1.23.74,1.82,1.14a.82.82,0,0,1,.29.37c8,22.07,19.66,28.58,30,32,4.75,1.58,8.64,9.65,11.76,16.13,1,2.12,1.89,3.94,2.64,5.19,1.12,1.86.28,7.42.1,8.51a.81.81,0,0,1-.27.47c-.18.14-4.4,3.66-.85,9a2.17,2.17,0,0,0,1.61,1.17,3.25,3.25,0,0,0,2.19-1.22.73.73,0,0,1,.34-.24l18-6a.71.71,0,0,1,.62.07.73.73,0,0,1,.36.51c.24,1.32,1.32,4.87,3.44,5.4,6.95,1.74,10.75-7.57,11.09-8.46.35-2.33,1.3-7.63,2.9-8.47a1.27,1.27,0,0,1,1.17,0c.7.35.75,1.31.89,4.14a70.22,70.22,0,0,0,1.92,14.34c3.49,13.55,9.88,31.29,12.1,34.65,1.24,1.87,3.17,3.93,5.35,3.15a5.69,5.69,0,0,0,3.28-4.66,41.48,41.48,0,0,0-2.15-6.17c-2.67-6.84-7.15-18.31-8.16-29.33-1.4-15.32-1.6-24.26-1.32-27.51,1.64-18.79-3.27-25.28-8-31.56-1-1.27-2-2.59-2.86-4-14.58-22.36-48-20.68-48.33-20.66a.68.68,0,0,1-.28,0c-.74-.25-7.35-2.46-9.26-4.15-1.21-1.07-2.07-4.68-2.23-5.4a.74.74,0,0,1,0-.39c1.66-5.12,3.16-12.9,1.29-14.15-2.19-1.46-8.92,4.88-13,9.86a.75.75,0,0,1-1.16-1,71.17,71.17,0,0,1,5.67-6c4.37-4.06,7.42-5.41,9.33-4.13,3.38,2.26.2,13-.64,15.65.37,1.58,1.12,3.88,1.72,4.41,1.38,1.23,6.56,3.12,8.6,3.8,2.49-.1,35-1,49.53,21.35.87,1.34,1.81,2.57,2.8,3.88,4.68,6.21,10,13.24,8.32,32.59-.28,3.2-.08,12,1.32,27.26,1,10.8,5.41,22.14,8.06,28.92a37.69,37.69,0,0,1,2.24,6.56c.19,1.77-1.55,5.25-4.26,6.22A4.4,4.4,0,0,1,287.11,446.79Z" style="fill:#fff"/><path d="M197.85,305.58a.77.77,0,0,1-.53-.21c-1-1-7.62-1.14-9.31-.44a.75.75,0,1,1-.58-1.38c1.92-.8,9.31-.87,10.95.75a.75.75,0,0,1,0,1.06A.74.74,0,0,1,197.85,305.58Z" style="fill:#fff"/><path d="M181.5,316.5c.45-.89,3.11-.46,4,0,1.11.57,3.12,3.44,2,4C183.5,322.5,180.5,318.5,181.5,316.5Z" style="fill:#fff"/><path d="M196.5,321.5c-.56-.56.42-2.46,1-3,.76-.7,4.8-2,5-1C203.5,322.5,197.5,322.5,196.5,321.5Z" style="fill:#fff"/><path d="M194.5,328.25h-6a.76.76,0,0,1-.75-.75v-3a.75.75,0,0,1,1.5,0v2.25h4.5V324.5a.75.75,0,0,1,1.5,0v3A.76.76,0,0,1,194.5,328.25Z" style="fill:#fff"/><path d="M191.5,331.25c-1.28,0-2.82-2.09-3.63-3.34a.77.77,0,0,1,.22-1,.76.76,0,0,1,1,.22,8.05,8.05,0,0,0,2.39,2.66,8.57,8.57,0,0,0,2.35-2.66.76.76,0,0,1,1-.22.77.77,0,0,1,.22,1C194.32,329.16,192.78,331.25,191.5,331.25Z" style="fill:#fff"/><polygon points="185.5 314.5 184.5 318.5 187.5 315.5 185.5 314.5" style="fill:#1d1d15"/><path d="M184.5,319a.57.57,0,0,1-.25-.06.5.5,0,0,1-.23-.56l1-4a.45.45,0,0,1,.27-.33.47.47,0,0,1,.43,0l2,1a.47.47,0,0,1,.27.37.46.46,0,0,1-.14.43l-3,3A.47.47,0,0,1,184.5,319Zm1.33-3.77-.41,1.64,1.24-1.23Z" style="fill:#1d1d15"/><polygon points="196.5 317.5 199.5 319.5 198.5 315.5 196.5 317.5" style="fill:#1d1d15"/><path d="M199.5,320a.57.57,0,0,1-.28-.08l-3-2a.55.55,0,0,1-.22-.37.49.49,0,0,1,.15-.4l2-2a.49.49,0,0,1,.83.23l1,4a.48.48,0,0,1-.19.53A.52.52,0,0,1,199.5,320Zm-2.22-2.58,1.42.95-.47-1.89Z" style="fill:#1d1d15"/><path d="M697,614h15s5,3,5,8.5V646c0,3-5.86,6.49-11.8,6.49S693.27,649,693,646c-.58-6.35-.83-15-.92-22.92A10.94,10.94,0,0,1,697,614Z" style="fill:#fff"/><path d="M705.21,653.49h0c-6.32,0-12.86-3.67-13.2-7.4-.49-5.43-.8-13.17-.92-23a11.85,11.85,0,0,1,5.41-10l.23-.14h15.56l.24.15c.22.13,5.48,3.4,5.48,9.35V646c0,1.83-1.52,3.74-4.18,5.24A18,18,0,0,1,705.21,653.49ZM697.3,615a9.83,9.83,0,0,0-4.22,8.07c.12,9.78.43,17.46.92,22.84.19,2.15,5.4,5.58,11.2,5.58h0a15.85,15.85,0,0,0,7.62-2c1.93-1.09,3.17-2.46,3.17-3.5V622.5c0-4.21-3.4-6.87-4.3-7.5Z" style="fill:#1d1d15"/><ellipse cx="704.5" cy="613" rx="9.5" ry="4.52" style="fill:#fff"/><path d="M704.5,618.52c-6.82,0-10.5-2.84-10.5-5.52s3.68-5.52,10.5-5.52S715,610.32,715,613,711.32,618.52,704.5,618.52Zm0-9c-6,0-8.5,2.29-8.5,3.52s2.49,3.52,8.5,3.52,8.5-2.29,8.5-3.52S710.51,609.48,704.5,609.48Z" style="fill:#1d1d15"/><path d="M716.06,643.26c7.94,6.74,22.56,16.55,30.43,18.86,2.1.61,6.71-.5,8.9-.38,5.11,4.56,11.66,4.73,15.49,7.12.87,3.89,7.62,4.82,7.62,4.82l3.61-5.72s-1.66-3.71-4.94-3.78c-3.39-2.93-8.67-9.48-12.66-12.67-1-2-1.21-7-2.7-8.37-8.15-7.14-26-18.31-32.89-20.71S710,635,716.06,643.26Z" style="fill:#fff"/><path d="M779,674.76l-.64-.09c-.29,0-7-1-8.34-5.15a26.17,26.17,0,0,0-4.89-1.87c-3.24-1-6.91-2.16-10.13-4.92-.77,0-1.83.13-2.93.26-2.17.25-4.4.52-5.86.08-8.33-2.44-23.24-12.63-30.8-19.05l-.16-.17c-3.68-5-1.24-11.83,2-16.15,3-4.12,8-7.65,12-6.21,7.17,2.51,25.17,13.84,33.22,20.9,1.13,1,1.58,3.15,2.06,5.43a19.35,19.35,0,0,0,.79,3.06,81.82,81.82,0,0,1,7.2,7.16c1.86,2,3.63,3.89,5.05,5.16,3.62.34,5.37,4.19,5.45,4.36l.22.48Zm-24-14h.4l.35,0,.26.23c3,2.65,6.53,3.77,9.68,4.75a24.94,24.94,0,0,1,5.68,2.28l.35.22.09.4c.53,2.35,4.18,3.54,6.16,3.94l2.94-4.66c-.51-.87-1.82-2.7-3.8-2.74h-.36l-.27-.24c-1.55-1.34-3.45-3.37-5.46-5.53a77.65,77.65,0,0,0-7.17-7.1l-.17-.14-.1-.2a16.58,16.58,0,0,1-1-3.73c-.33-1.6-.79-3.78-1.42-4.34-7.75-6.79-25.7-18.11-32.57-20.52-2.61-.91-6.72,1.41-9.77,5.52-2.77,3.74-4.95,9.55-2,13.68,8.4,7.11,22.73,16.46,30,18.59a16.79,16.79,0,0,0,5.06-.16A29.9,29.9,0,0,1,755,660.73Z" style="fill:#1d1d15"/><polygon points="472.97 752.44 462.9 776.62 504.21 810.88 599.92 754.46 472.97 752.44" style="fill:#1d1d15"/><path d="M566.13,752.53S532,800.87,514.28,800.8c-15,0-37.28-2-47.56-40.17-5.08,13.33-8.86,29-3.14,35,12.42,13.19,54.34,26.17,67.83,21.26C559.48,806.7,605,759.5,610,745.39c2.89-8.11-12.09-32.24-12.09-32.24" style="fill:#fff"/><path d="M523.83,819c-18,0-50.33-11.3-61-22.61-6.35-6.76-1.91-23.36,2.93-36.08a1,1,0,0,1,1-.65,1,1,0,0,1,.91.74c9.31,34.53,27.9,39.36,46.61,39.43h0c17,0,50.66-47.37,51-47.85a1,1,0,1,1,1.63,1.16c-1.4,2-34.6,48.69-52.63,48.69h0c-11.88,0-36.29-.14-47.69-37.95-5.62,15.71-6.44,26.71-2.28,31.14,11.87,12.61,53.68,25.77,66.76,21,27.56-10,73-57.13,78-70.94,2.24-6.27-7.91-24.77-12-31.37a1,1,0,0,1,1.7-1.06c0,.06,3.81,6.16,7.18,13.18,4.61,9.6,6.29,16.3,5,19.93-5.16,14.44-50.55,61.7-79.19,72.13A23.64,23.64,0,0,1,523.83,819Z" style="fill:#1d1d15"/><path d="M545.38,703.36s-77.61,18.51-82.48,41C460,758,485.06,786.7,505.22,786.7c24.18,0,98.73-59.44,92.69-73.55C579.77,705.09,545.38,703.36,545.38,703.36Z" style="fill:#fff"/><path d="M505.21,787.7c-13,0-26.54-11-34.17-20.49-7-8.63-10.37-17.24-9.12-23,2.1-9.69,16.8-19.67,43.7-29.68a384.19,384.19,0,0,1,39.53-12.1.67.67,0,0,1,.28,0c1.41.07,34.79,1.83,52.88,9.88a1,1,0,0,1,.52.52c1.11,2.6,0,6.45-3.28,11.45-6.94,10.53-23.78,26.23-42.89,40C532.27,778.92,514.53,787.7,505.21,787.7Zm40.26-83.34a387.76,387.76,0,0,0-39.17,12c-25.84,9.61-40.51,19.37-42.42,28.23-1.11,5.13,2.23,13.31,8.71,21.35,7.94,9.83,21.1,19.75,32.62,19.75,8.92,0,26.22-8.64,46.28-23.1,18.93-13.65,35.57-29.15,42.39-39.49,3.32-5,3.65-7.77,3.23-9.22C579.85,706.41,547.89,704.5,545.47,704.36Z" style="fill:#1d1d15"/><path d="M518.31,694c-4.9,1.43-8.9,9-16.17,13.38-9.09,5.53-21,8.51-20.1,14.83,2.12,14.72,37.64,30.11,52.39,28.21,5.61-.72,7.83-7,15.36-12.78,10.51-8,25.61-16.79,23.94-24.5C570.62,698.83,532.38,689.89,518.31,694Z" style="fill:#fff"/><path d="M531.79,751.58c-16.41,0-48.68-14.92-50.74-29.22-.75-5.2,5.33-8.14,12.37-11.54,2.75-1.33,5.59-2.7,8.2-4.29a43.5,43.5,0,0,0,8.47-7.34c2.76-2.85,5.14-5.32,7.94-6.14l.28,1-.28-1c10.86-3.18,34,1.14,46.75,8.71,5.72,3.4,9.05,7.16,9.92,11.18,1.5,6.91-8.45,14-18.08,20.95-2.1,1.51-4.27,3.06-6.22,4.55a49.09,49.09,0,0,0-7,6.79c-2.86,3.2-5.12,5.72-8.8,6.19A22,22,0,0,1,531.79,751.58ZM527.1,694a31.38,31.38,0,0,0-8.51,1c-2.29.67-4.5,3-7.06,5.61a45.07,45.07,0,0,1-8.87,7.66c-2.69,1.64-5.58,3-8.37,4.38-6.33,3.06-11.8,5.71-11.26,9.46,2,14,37.08,29.19,51.28,27.36,2.94-.38,4.87-2.55,7.56-5.54a50.81,50.81,0,0,1,7.31-7c2-1.51,4.16-3.07,6.27-4.58C564.13,726,574,719,572.75,713.36c-.74-3.4-3.85-6.82-9-9.88C553.4,697.32,538,694,527.1,694Z" style="fill:#1d1d15"/><path d="M539.2,749.1a1,1,0,0,1-.94-.67c-.84-2.32-2.52-6.38-3.52-7.36-4.47-4.4-14-8-23.22-11.37-6.43-2.39-12.5-4.64-16.4-7.05-2.3-1.42-7.36-7.21-7.57-7.46a1,1,0,1,1,1.5-1.31c1.41,1.61,5.42,6,7.12,7.06,3.74,2.31,9.71,4.53,16,6.89,9.42,3.49,19.16,7.11,23.93,11.81,1.65,1.62,3.76,7.46,4,8.12a1,1,0,0,1-.61,1.28A1,1,0,0,1,539.2,749.1Z" style="fill:#1d1d15"/><path d="M502.09,823c-4.15,0-10.86-7.71-13.53-11-1.08,2.46-3.15,6.71-5,7.83-3.61,2.22-15.4,1.27-16.73,1.15a1,1,0,0,1-.86-.67,1,1,0,0,1,.27-1.06c.59-.54,1.46-1.23,2.47-2,3.46-2.73,9.25-7.31,9.25-10.8a1,1,0,1,1,2,0c0,4.46-6,9.22-10,12.37l-.46.37c4.26.22,10.92.26,13-1,1.4-.86,3.71-5.64,4.84-8.44a1,1,0,0,1,.8-.62,1,1,0,0,1,.92.38c3.48,4.54,10.07,11.66,13.06,11.55.92,0,3.38-2.93,5-5.51a1,1,0,0,1,1.69,1.08c-.94,1.48-4.2,6.32-6.61,6.43Z" style="fill:#1d1d15"/><path d="M504.83,823c-1.69,0-2.63,0-2.68,0a1,1,0,0,1-1-1,1,1,0,0,1,1-1c.79,0,78.43,2.39,105.93-43.16l-9,.81-30.36,14.85a1,1,0,0,1-.88-1.8l30.53-14.93a1,1,0,0,1,.34-.09l11.09-1a1,1,0,0,1,1,1.48c-7.86,14-25.47,32.47-64.76,41.29A197,197,0,0,1,504.83,823Z" style="fill:#1d1d15"/><path d="M598.91,778.63a1,1,0,0,1-.7-1.71l9.07-9.06a1,1,0,0,1,1-.26,1,1,0,0,1,.7.72l2,8.06a1,1,0,0,1-1.94.49l-1.59-6.35-7.82,7.82A1,1,0,0,1,598.91,778.63Z" style="fill:#1d1d15"/><path d="M604,773.59h-.13a1,1,0,0,1-.74-.5l-5.69-10a1,1,0,0,1,.08-1.12l6.2-7.86a1,1,0,0,1,1-.35,1,1,0,0,1,.76.73l3.53,13.8a1,1,0,0,1-.26.95l-4,4A1,1,0,0,1,604,773.59Zm-4.49-10.88,4.71,8.25,2.7-2.7L604,757Z" style="fill:#1d1d15"/><path d="M466.93,821c-5.17,0-13.53-4.47-16-8.55-1.33-2.21-.49-8.92,1-11.15,1.8-2.64,8.6-6.87,9.37-7.34a1,1,0,0,1,1.15.07c.2.17,5.1,4.09,7.13,6.12a1,1,0,0,1,.28.87c-.44,2.62-3.35,3.32-6.43,4.06-4.52,1.09-9.19,2.22-8.68,8.72,3.11,2.65,8.34,5.2,12.11,5.2a1,1,0,1,1,0,2Zm-5.11-25c-2.32,1.47-7,4.62-8.17,6.39s-1.75,7.71-1,9c.05.09.11.17.17.26.59-6.23,6.07-7.55,10.19-8.54,2.22-.54,4.17-1,4.76-2C466.09,799.47,463.06,797,461.82,796Z" style="fill:#1d1d15"/><path d="M473,815.91a1,1,0,0,1-1-1c0-1.26-3.91-2.28-6.77-3-4.29-1.12-8.34-2.18-8.34-5a1,1,0,0,1,2,0c0,1.3,4,2.34,6.85,3.09,4.25,1.12,8.26,2.17,8.26,5A1,1,0,0,1,473,815.91Z" style="fill:#1d1d15"/><path d="M462.9,795.76a1,1,0,0,1-.38-.07c-2.07-.85-8.82-3.84-8.68-7,.1-2.4,4.63-4.08,6.58-4.69a1,1,0,0,1,.6,1.91c-2.84.89-5.16,2.3-5.18,2.87,0,1.19,3.88,3.63,7.44,5.07a1,1,0,0,1-.38,1.93Z" style="fill:#1d1d15"/><path d="M781.5,764.5s-3.44,2-4,2c-5.5-.5-16.7-1.52-27.36.53-7.58,1.45-13.64,3.47-13.64,7.47,0,8,7,9,14,7,3.79-1.08,11.58.09,15,1,10.17,2.7,31.52,11.38,42,3" style="fill:#1d1d15"/><path d="M795.24,789.8c-8.17,0-17.41-2.82-24.4-4.95-2-.62-3.94-1.2-5.53-1.62-3.17-.85-11-2.05-14.6-1-5.12,1.46-9.38,1.17-12-.81-2-1.48-3-3.8-3-6.91,0-4.82,7.2-6.86,14.25-8.21,10.76-2.06,22.1-1,27.56-.54a31.89,31.89,0,0,0,3.56-1.89l.76,1.28c-3.65,2.18-4.22,2.13-4.45,2.11-5.39-.49-16.6-1.51-27.15.51-6.07,1.17-13,3-13,6.74,0,2.61.79,4.53,2.36,5.71,2.21,1.67,6.1,1.88,10.68.57,4.2-1.2,12.34.18,15.4,1,1.62.43,3.55,1,5.59,1.65,10.85,3.31,27.24,8.31,35.75,1.49l.94,1.18C804.56,788.81,800.09,789.8,795.24,789.8Z" style="fill:#fff"/><path d="M750.5,764.5c1.5,1.5,3,5,4,6,3,3,8.45,4.66,9.5,1,1-3.5-9.5-9-9.5-9S749.86,763.86,750.5,764.5Z" style="fill:#1d1d15"/><path d="M761,774.34a11.15,11.15,0,0,1-7-3.31,14.21,14.21,0,0,1-1.75-2.65A18.36,18.36,0,0,0,750,765a.93.93,0,0,1-.25-.89c.08-.33.28-1.1,4.57-2.36l.29-.09.27.15c1.84,1,11,6,9.87,9.87a3.4,3.4,0,0,1-2.51,2.49A4.7,4.7,0,0,1,761,774.34Zm-9.56-9.9a23.36,23.36,0,0,1,2.07,3.19A14.27,14.27,0,0,0,755,770c2,2,5,3.25,6.81,2.78a2,2,0,0,0,1.44-1.46c.56-2-4.76-5.79-8.86-8A19.66,19.66,0,0,0,751.45,764.44Z" style="fill:#fff"/><path d="M744.67,730.19c.83-5.69-5.25-8.78-6.67-12.19-.82-2-2.5-7.5,9-3l8.5,7.5Z" style="fill:#1d1d15"/><path d="M743.67,731.82l.26-1.73c.49-3.37-1.69-5.73-3.8-8a14.08,14.08,0,0,1-2.82-3.78c-1.14-2.73-.57-4.13.11-4.83,1.44-1.46,4.66-1.19,9.85.84l.23.14,9.21,8.12ZM740.2,714a2.35,2.35,0,0,0-1.71.48c-.5.52-.43,1.69.2,3.2a13.48,13.48,0,0,0,2.54,3.34c1.84,2,4.06,4.41,4.25,7.65l8.81-6.26-7.69-6.79A19.1,19.1,0,0,0,740.2,714Z" style="fill:#fff"/><path d="M807.73,786.17c4.77,6.33,3.77,44.33,3.77,44.33s66,13,74.5,9.5c2.5-6.5,12.59-33.89,12-57-.49-18.5-6.94-45-16-55-18.5-20.5-42.5-16.5-52-11-21.5-11.5-28.76-5.32-38-3-7.4,1.86-20.5-5.5-30.5.5-8,4.79-22,17-22,30,0,3.16,2.9,7.84,3,11,.09,2.57-1,9,5,8,2,2,5.15,1.49,7.14.09,2.17-1.52,3.36-4.59,4.86-4.09.67.22-1.5,2.5-1.89,4.54-.26,1.4.39,5,2.89,5.46,4.44.89,8-11,11-13s3.5-1.5,6-4c3,3-1.36,7.39,3,13C784,770,803.08,780,807.73,786.17Z" style="fill:#1d1d15"/><path d="M880.76,841.33c-17.94,0-67-9.63-69.41-10.09a.75.75,0,0,1-.6-.76c.34-13.05,0-39-3.62-43.86h0c-2.45-3.25-9.31-7.78-15.36-11.78-5.47-3.61-10.19-6.73-11.86-8.88-2.58-3.31-2.32-6.27-2.11-8.64.13-1.54.23-2.72-.37-3.71a11,11,0,0,1-3,2,22,22,0,0,0-2.52,1.46c-1,.67-2.25,2.92-3.47,5.11-2.26,4.06-4.83,8.67-8.1,8-2.91-.59-3.82-4.5-3.47-6.34a9.59,9.59,0,0,1,1.26-2.91c-.22.24-.44.52-.66.78a12.62,12.62,0,0,1-2.41,2.44c-2.22,1.56-5.55,2-7.82.08a4.69,4.69,0,0,1-3.82-.9c-1.81-1.57-1.74-4.53-1.69-6.68,0-.45,0-.85,0-1.19a18.55,18.55,0,0,0-1.44-5.12,18.58,18.58,0,0,1-1.56-5.9c0-13.62,14.63-26,22.36-30.64,6.34-3.81,13.75-2.47,20.29-1.29,4,.71,7.69,1.39,10.42.7,1.52-.38,3-.86,4.5-1.37,7.38-2.46,15.74-5.25,33.67,4.24,11-6.15,34.72-8.42,52.57,11.36,9.07,10,15.69,36.8,16.18,55.48.59,22.58-9.07,49.56-12,57.29a.71.71,0,0,1-.41.42A16.55,16.55,0,0,1,880.76,841.33Zm-68.5-11.44c22.62,4.43,65.74,11.88,73.16,9.52,3.08-8.06,12.4-34.39,11.82-56.39-.49-18.41-7-44.71-15.8-54.52-17.45-19.34-40.58-16.92-51.06-10.85a.76.76,0,0,1-.73,0c-17.61-9.42-25.36-6.84-32.85-4.34-1.5.5-3,1-4.62,1.41-3,.76-6.93.06-11-.69-6.28-1.13-13.39-2.41-19.24,1.1-15.88,9.53-21.64,22.78-21.64,29.36a17.73,17.73,0,0,0,1.46,5.37,19.68,19.68,0,0,1,1.54,5.61c0,.35,0,.79,0,1.26,0,1.86-.1,4.41,1.17,5.51a3.53,3.53,0,0,0,3,.51.75.75,0,0,1,.65.21c1.68,1.68,4.38,1.28,6.18,0a11.36,11.36,0,0,0,2.11-2.16c1-1.28,2-2.49,3.42-2a.93.93,0,0,1,.58.55c.21.57-.14,1.15-.71,2.11a9.36,9.36,0,0,0-1.26,2.73c-.19,1,.3,4.18,2.3,4.58,2.21.45,4.58-3.83,6.49-7.26,1.42-2.56,2.65-4.76,3.94-5.62a25.12,25.12,0,0,1,2.67-1.55A10.33,10.33,0,0,0,777,752a.77.77,0,0,1,1.06,0c1.6,1.6,1.43,3.48,1.26,5.48-.19,2.22-.41,4.74,1.8,7.59,1.52,2,6.37,5.16,11.51,8.55,6.45,4.27,13.12,8.67,15.72,12.13C812.91,791.8,812.38,824.71,812.26,829.89Z" style="fill:#fff"/><path d="M867.5,822.5c-11.5,3.5-42.73-1.14-57-3-11.5-1.5-39-1-38,12,.82,10.61,20.36-.82,38,8,7.27,3.63,27.53,1,45.5,2.46,18.5,1.54,29.14-.06,30.1-2.46" style="fill:#1d1d15"/><path d="M869.51,843.33c-4,0-8.56-.2-13.57-.62-7.17-.59-14.87-.52-21.66-.46-10.51.1-19.6.18-24.12-2.08-8.47-4.23-17.36-3.7-24.51-3.27-7.5.45-13.43.8-13.9-5.34a8.51,8.51,0,0,1,2.81-7.09c7-6.67,25.83-7,36-5.71l4,.53c14.79,2,42.33,5.64,52.69,2.49a.75.75,0,0,1,.44,1.44c-10.68,3.25-37.37-.32-53.32-2.45l-4-.53c-8.37-1.09-27.91-1.23-34.81,5.31a7,7,0,0,0-2.34,5.89c.34,4.47,4.46,4.43,12.31,4,7.33-.44,16.44-1,25.28,3.43,4.19,2.1,13.1,2,23.42,1.92,6.83-.06,14.57-.13,21.81.47,18.84,1.56,28.64-.27,29.33-2a.75.75,0,0,1,1.4.56C885.88,842.08,879.45,843.33,869.51,843.33Z" style="fill:#fff"/><path d="M750.5,728.5c0-3.34-1.76-7.91-3-11-.75-1.87-2-7,4-7,5.13,0,13,6,13,12" style="fill:#1d1d15"/><path d="M750.5,729.25a.76.76,0,0,1-.75-.75c0-3.39-2-8.34-3-10.72-.35-.89-1.4-3.94,0-6.08.88-1.29,2.44-2,4.66-2,6.82,0,13.75,7.42,13.75,12.75a.75.75,0,0,1-1.5,0c0-5.32-7.3-11.25-12.25-11.25-1.69,0-2.83.43-3.41,1.29-1.06,1.57-.1,4.17.11,4.68,1.51,3.76,3,8,3,11.28A.76.76,0,0,1,750.5,729.25Z" style="fill:#fff"/><path d="M747.5,753.25a.75.75,0,0,1-.67-.41,5.58,5.58,0,0,1,2.33-7,.75.75,0,0,1,1,.33.74.74,0,0,1-.33,1,4.09,4.09,0,0,0-1.67,5,.74.74,0,0,1-.33,1A.84.84,0,0,1,747.5,753.25Z" style="fill:#fff"/><path d="M832.5,822.75a.83.83,0,0,1-.4-.11c-4.47-2.8-8-11.2-8.49-20-.28-5.46.44-15.54,8.43-21.75.81-.63.5-1.36-1.17-3.9-2.48-3.78-6.63-10.1-3.08-20.75a24.15,24.15,0,0,0,0-14.5.75.75,0,1,1,1.4-.52,25.21,25.21,0,0,1,0,15.5c-3.32,10,.43,15.67,2.91,19.45,1.53,2.32,2.85,4.34.84,5.9-7.45,5.8-8.12,15.33-7.85,20.49.42,8.2,3.77,16.27,7.79,18.78a.76.76,0,0,1,.24,1A.78.78,0,0,1,832.5,822.75Z" style="fill:#fff"/><path d="M700.26,344H300.14V135.1H700.26Zm-398.12-2H698.26V137.1H302.14Z" style="fill:#1d1d15"/><rect x="301.1" y="231.83" width="147.44" height="96.83" style="fill:#1d1d15"/><rect x="301.14" y="135" width="398.12" height="15.4" style="fill:#1d1d15"/><rect x="301.14" y="164.71" width="398.12" height="15.4" style="fill:#1d1d15"/><rect x="300" y="197.62" width="398.12" height="15.4" style="fill:#1d1d15"/><rect x="301.14" y="229.44" width="398.12" height="15.4" style="fill:#1d1d15"/><rect x="301.14" y="262.45" width="398.12" height="15.4" style="fill:#1d1d15"/><rect x="301.14" y="294.55" width="398.12" height="15.4" style="fill:#1d1d15"/><rect x="301.14" y="326.82" width="398.12" height="15.4" style="fill:#1d1d15"/><polygon points="320.73 250.52 314.72 249.24 310.25 253.47 309.61 247.35 304.21 244.41 309.83 241.91 310.95 235.86 315.07 240.44 321.17 239.64 318.09 244.97 320.73 250.52" style="fill:#fff"/><polygon points="344.39 250.52 338.37 249.24 333.9 253.47 333.26 247.35 327.86 244.41 333.48 241.91 334.61 235.86 338.72 240.44 344.82 239.64 341.74 244.97 344.39 250.52" style="fill:#fff"/><polygon points="368.04 250.52 362.02 249.24 357.56 253.47 356.92 247.35 351.51 244.41 357.13 241.91 358.26 235.86 362.37 240.44 368.48 239.64 365.4 244.97 368.04 250.52" style="fill:#fff"/><polygon points="391.69 250.52 385.68 249.24 381.21 253.47 380.57 247.35 375.16 244.41 380.79 241.91 381.91 235.86 386.03 240.44 392.13 239.64 389.05 244.97 391.69 250.52" style="fill:#fff"/><polygon points="416.29 250.52 410.27 249.24 405.81 253.47 405.17 247.35 399.76 244.41 405.38 241.91 406.51 235.86 410.63 240.44 416.73 239.64 413.65 244.97 416.29 250.52" style="fill:#fff"/><polygon points="439.94 250.52 433.93 249.24 429.46 253.47 428.82 247.35 423.42 244.41 429.04 241.91 430.16 235.86 434.28 240.44 440.38 239.64 437.3 244.97 439.94 250.52" style="fill:#fff"/><polygon points="318.34 292.36 312.33 291.08 307.86 295.31 307.22 289.19 301.81 286.25 307.44 283.75 308.56 277.7 312.68 282.27 318.78 281.48 315.7 286.8 318.34 292.36" style="fill:#fff"/><polygon points="342 292.36 335.98 291.08 331.51 295.31 330.87 289.19 325.47 286.25 331.09 283.75 332.22 277.7 336.33 282.27 342.43 281.48 339.35 286.8 342 292.36" style="fill:#fff"/><polygon points="365.65 292.36 359.63 291.08 355.16 295.31 354.52 289.19 349.12 286.25 354.74 283.75 355.87 277.7 359.98 282.27 366.08 281.48 363.01 286.8 365.65 292.36" style="fill:#fff"/><polygon points="389.3 292.36 383.28 291.08 378.82 295.31 378.18 289.19 372.77 286.25 378.39 283.75 379.52 277.7 383.64 282.27 389.74 281.48 386.66 286.8 389.3 292.36" style="fill:#fff"/><polygon points="413.9 292.36 407.88 291.08 403.42 295.31 402.77 289.19 397.37 286.25 402.99 283.75 404.12 277.7 408.24 282.27 414.33 281.48 411.26 286.8 413.9 292.36" style="fill:#fff"/><polygon points="437.55 292.36 431.54 291.08 427.07 295.31 426.43 289.19 421.02 286.25 426.65 283.75 427.77 277.7 431.89 282.27 437.99 281.48 434.91 286.8 437.55 292.36" style="fill:#fff"/><polygon points="319.54 334.2 313.52 332.92 309.05 337.15 308.41 331.03 303.01 328.09 308.63 325.59 309.76 319.54 313.87 324.11 319.97 323.32 316.9 328.64 319.54 334.2" style="fill:#fff"/><polygon points="343.19 334.2 337.17 332.92 332.71 337.15 332.07 331.03 326.66 328.09 332.28 325.59 333.41 319.54 337.53 324.11 343.63 323.32 340.55 328.64 343.19 334.2" style="fill:#fff"/><polygon points="366.84 334.2 360.83 332.92 356.36 337.15 355.72 331.03 350.32 328.09 355.94 325.59 357.06 319.54 361.18 324.11 367.28 323.32 364.2 328.64 366.84 334.2" style="fill:#fff"/><polygon points="390.5 334.2 384.48 332.92 380.01 337.15 379.37 331.03 373.97 328.09 379.59 325.59 380.72 319.54 384.83 324.11 390.93 323.32 387.85 328.64 390.5 334.2" style="fill:#fff"/><polygon points="415.1 334.2 409.08 332.92 404.61 337.15 403.97 331.03 398.57 328.09 404.19 325.59 405.32 319.54 409.43 324.11 415.53 323.32 412.45 328.64 415.1 334.2" style="fill:#fff"/><polygon points="438.75 334.2 432.73 332.92 428.26 337.15 427.62 331.03 422.22 328.09 427.84 325.59 428.97 319.54 433.08 324.11 439.18 323.32 436.11 328.64 438.75 334.2" style="fill:#fff"/><polygon points="324.32 272.04 318.3 270.76 313.84 274.99 313.19 268.87 307.79 265.93 313.41 263.43 314.54 257.38 318.65 261.95 324.75 261.16 321.68 266.48 324.32 272.04" style="fill:#fff"/><polygon points="351.56 272.04 345.54 270.76 341.07 274.99 340.43 268.87 335.03 265.93 340.65 263.43 341.78 257.38 345.89 261.95 351.99 261.16 348.92 266.48 351.56 272.04" style="fill:#fff"/><polygon points="381.19 272.04 375.17 270.76 370.7 274.99 370.06 268.87 364.66 265.93 370.28 263.43 371.41 257.38 375.52 261.95 381.62 261.16 378.55 266.48 381.19 272.04" style="fill:#fff"/><polygon points="410.82 272.04 404.8 270.76 400.33 274.99 399.69 268.87 394.29 265.93 399.91 263.43 401.04 257.38 405.15 261.95 411.25 261.16 408.18 266.48 410.82 272.04" style="fill:#fff"/><polygon points="437.81 272.04 431.79 270.76 427.32 274.99 426.68 268.87 421.28 265.93 426.9 263.43 428.03 257.38 432.14 261.95 438.24 261.16 435.17 266.48 437.81 272.04" style="fill:#fff"/><polygon points="324.32 313.88 318.3 312.6 313.84 316.83 313.19 310.71 307.79 307.77 313.41 305.27 314.54 299.22 318.65 303.79 324.75 303 321.68 308.32 324.32 313.88" style="fill:#fff"/><polygon points="351.56 313.88 345.54 312.6 341.07 316.83 340.43 310.71 335.03 307.77 340.65 305.27 341.78 299.22 345.89 303.79 351.99 303 348.92 308.32 351.56 313.88" style="fill:#fff"/><polygon points="381.19 313.88 375.17 312.6 370.7 316.83 370.06 310.71 364.66 307.77 370.28 305.27 371.41 299.22 375.52 303.79 381.62 303 378.55 308.32 381.19 313.88" style="fill:#fff"/><polygon points="410.82 313.88 404.8 312.6 400.33 316.83 399.69 310.71 394.29 307.77 399.91 305.27 401.04 299.22 405.15 303.79 411.25 303 408.18 308.32 410.82 313.88" style="fill:#fff"/><polygon points="437.81 313.88 431.79 312.6 427.32 316.83 426.68 310.71 421.28 307.77 426.9 305.27 428.03 299.22 432.14 303.79 438.24 303 435.17 308.32 437.81 313.88" style="fill:#fff"/><path d="M893,602c0,9-22.8,15-46,15s-46-7-46-16c0-8.84,22.8-13,46-13S893,593.16,893,602Z" style="fill:#fff"/><path d="M847,618c-22.7,0-47-6.83-47-17,0-10.33,25.32-14,47-14,23.36,0,47,5.15,47,15C894,612,870.1,618,847,618Zm0-29c-26.07,0-45,5-45,12,0,7.85,21.45,15,45,15,24.39,0,45-6.41,45-14C892,594.71,872.23,589,847,589Z" style="fill:#1d1d15"/><path d="M725,295s4-47,13-87c20-20,77-13,91,1,4.85,20.63,11,86,11,86" style="fill:#fff"/><path d="M839,295.09c-.06-.65-6.14-64.95-10.91-85.58-14.48-14-70.05-19.69-89.18-1C730.07,247.92,726,294.62,726,295.08l-2-.16c0-.48,4.11-47.53,13-87.14l.07-.28.2-.21c9.15-9.14,26.82-13.72,48.51-12.54,19.2,1,36.85,6.48,43.91,13.54l.2.2.06.28c4.82,20.46,11,85.48,11,86.14Z" style="fill:#1d1d15"/><ellipse cx="782.5" cy="295.5" rx="57.5" ry="4.5" style="fill:#fff"/><path d="M782.5,301c-15.38,0-29.85-.47-40.74-1.32C724,298.29,724,296.61,724,295.5s0-2.79,17.76-4.18c10.89-.85,25.36-1.32,40.74-1.32s29.85.47,40.74,1.32C841,292.71,841,294.39,841,295.5s0,2.79-17.76,4.18C812.35,300.53,797.88,301,782.5,301Zm-56-5.5c4,1.57,24,3.5,56,3.5s52-1.93,56-3.5c-4-1.57-24-3.5-56-3.5S730.49,293.93,726.51,295.5Z" style="fill:#1d1d15"/><path d="M852,577c.79-4.35,8.75-8.17,7-14-3-10-7-24-7-24a30.8,30.8,0,0,0,8-11c2.4-5.59-10-8-10-8l5-133s7.29-7.68,8-13c.46-3.43-4-9.18-5.66-15.07S860,351,860,349s-4-8-7.49-10C848,339,819,338,819,338V325h-7v5l-25-12v-6s13-2,11-7H786.67l.33-14h-7l-.33,14H768c-1,5,12,7,12,7v16h7v-4l24,12v14h8v-7l28.41.9c-.59,1.36-2.41,3.1-2.41,5.1,1,3,3.61,3.59,1.44,9.9-1.94,5.62-6.7,11.79-6.44,15.1.41,5.24,8,13,8,13l-6,133s-13.47,1.92-10,8a35.93,35.93,0,0,0,10,11s-6,14-9,24c-1.64,5.46,7.25,9.06,8,14,1.11,7.35-2,8-15,20,9,7,30,10,40,0C857,590,850.7,584.17,852,577Z" style="fill:#fff"/><path d="M847.64,604.43c-.68,0-1.37,0-2.06-.06-7.72-.38-15.46-2.9-20.19-6.58A1,1,0,0,1,825,597a1,1,0,0,1,.32-.77c2.62-2.42,4.89-4.42,6.7-6,7.28-6.42,8.8-7.76,8-13.09-.27-1.82-2-3.55-3.77-5.38-2.48-2.53-5.3-5.4-4.2-9.06,2.59-8.62,7.45-20.33,8.73-23.36a37.21,37.21,0,0,1-9.64-10.85,4.27,4.27,0,0,1-.29-4.17c1.64-3.35,7.85-4.76,10.2-5.19L847,387.38c-1.47-1.55-7.59-8.32-8-13.3-.17-2.21,1.39-5.14,3.2-8.53a50.91,50.91,0,0,0,3.29-7c1.43-4.16.67-5.4-.3-7a10.66,10.66,0,0,1-1.14-2.27,1.19,1.19,0,0,1,0-.32,7.65,7.65,0,0,1,1.68-4.15L820,344v6a1,1,0,0,1-1,1h-8a1,1,0,0,1-1-1V336.62l-22-11V328a1,1,0,0,1-1,1h-7a1,1,0,0,1-1-1V312.84c-2.47-.45-9.13-1.94-11.31-5.06a3.75,3.75,0,0,1-.67-3,1,1,0,0,1,1-.8h10.69l.31-13a1,1,0,0,1,1-1h7a1,1,0,0,1,.72.3,1,1,0,0,1,.28.72l-.31,13H798a1,1,0,0,1,.93.63,3.55,3.55,0,0,1-.2,3.16c-1.78,3.12-8.29,4.6-10.73,5v4.53l23,11V325a1,1,0,0,1,1-1h7a1,1,0,0,1,1,1v12c5.08.18,28.54,1,32.52,1a1.15,1.15,0,0,1,.48.13c3.71,2.08,8,8.32,8,10.83a5,5,0,0,1-1.21,2.71,7.3,7.3,0,0,0-1.48,7,42.5,42.5,0,0,0,3,7.28c1.58,3.19,2.94,5.95,2.64,8.18-.67,5.05-6.65,11.81-8,13.28L851,519.2c2.27.53,8.05,2.18,9.78,5.43a4.24,4.24,0,0,1,.11,3.76,32.14,32.14,0,0,1-7.78,11c.8,2.82,4.21,14.68,6.82,23.37,1.21,4-1.51,7.11-3.91,9.83-1.44,1.63-2.8,3.17-3.07,4.64-1.12,6.21,3.93,11.48,13.63,19a1,1,0,0,1,.39.73,1,1,0,0,1-.29.77C862.34,602.07,855.63,604.43,847.64,604.43Zm-20.06-7.52c8.8,6,27.32,8.52,36.88.16-8.28-6.5-14.83-12.59-13.44-20.25h0c.36-2,1.9-3.76,3.53-5.61,2.26-2.55,4.38-5,3.49-7.92-3-9.89-7-23.88-7-24a1,1,0,0,1,.33-1,30.16,30.16,0,0,0,7.71-10.61,2.22,2.22,0,0,0,0-2c-1.35-2.55-7.12-4.18-9.23-4.59a1,1,0,0,1-.81-1l5-133a1.05,1.05,0,0,1,.27-.65c.08-.07,7.08-7.51,7.74-12.44.22-1.63-1.08-4.26-2.45-7a44.12,44.12,0,0,1-3.18-7.64,9.22,9.22,0,0,1,1.77-8.63A4,4,0,0,0,859,349c0-1.47-3.57-7-6.77-9-5.23-.08-33-1-33.26-1a1,1,0,0,1-1-1V326h-5v4a1,1,0,0,1-.47.85,1,1,0,0,1-1,0l-25-12a1,1,0,0,1-.57-.9v-6a1,1,0,0,1,.85-1c3.28-.5,8.93-2.1,10.14-4.21a1.61,1.61,0,0,0,.22-.8H786.67a1,1,0,0,1-.72-.3,1,1,0,0,1-.28-.72l.31-13h-5l-.31,13a1,1,0,0,1-1,1H769a2.3,2.3,0,0,0,.31.63c1.75,2.49,8.41,4,10.83,4.38a1,1,0,0,1,.85,1v15h5v-3a1,1,0,0,1,1.45-.89l24,12a1,1,0,0,1,.55.89v13h6v-6a1,1,0,0,1,1-1l28.41.9a1,1,0,0,1,.89,1.4,10.65,10.65,0,0,1-1,1.61,6.79,6.79,0,0,0-1.37,2.94,10.53,10.53,0,0,0,.89,1.7c1.1,1.79,2.23,3.64.49,8.68A53.6,53.6,0,0,1,844,366.5c-1.6,3-3.1,5.8-3,7.42.31,4,5.67,10.29,7.71,12.38a1,1,0,0,1,.29.74l-6,133a1,1,0,0,1-.86,1c-2.22.32-8.27,1.7-9.51,4.22a2.25,2.25,0,0,0,.24,2.29,35.31,35.31,0,0,0,9.68,10.67,1,1,0,0,1,.37,1.22c-.06.14-6,14.07-9,23.9-.76,2.52,1.41,4.73,3.71,7.08,1.94,2,4,4,4.32,6.48,1,6.41-1.26,8.38-8.64,14.89C831.75,593.15,829.8,594.87,827.58,596.91Z" style="fill:#1d1d15"/><path d="M60,443c2,7,0,106,0,130,0,3,8,3,8,0,0-22.09,1-122-2-133-2.34-8.59-17-15-27-18-7.61-2.28-27,14-27,14l6.38,3.25S33.8,425.77,39,428C46,431,58.09,436.32,60,443Z" style="fill:#fff"/><path d="M64,576.25c-2.94,0-5-1.34-5-3.25,0-6.57.15-18.86.33-33.09.44-36.51,1.12-91.69-.29-96.64h0c-1.82-6.38-14.39-11.76-20.43-14.35C35.24,427.48,24.82,435,19,440a1,1,0,0,1-1.12.14l-6.37-3.25a1,1,0,0,1-.54-.78,1,1,0,0,1,.35-.88c2-1.7,20-16.55,27.93-14.19,5.77,1.73,24.81,8.2,27.67,18.7,2.58,9.45,2.25,83,2.09,118.27,0,6.42,0,11.61,0,15C69,574.91,66.94,576.25,64,576.25ZM37.72,426.77a4.21,4.21,0,0,1,1.67.31C46.2,430,58.88,435.43,61,442.73h0c1.5,5.22.84,58.38.37,97.2C61.15,554.16,61,566.44,61,573c0,.68,1.37,1.25,3,1.25s3-.57,3-1.25c0-3.38,0-8.58,0-15,.16-35.24.49-108.55-2-117.74-2.07-7.55-15-13.89-26.33-17.3-5.43-1.63-18.84,8-24.9,12.84l4.42,2.26C21,435.68,31.82,426.77,37.72,426.77Z" style="fill:#1d1d15"/><polygon points="142 519 121 543 38 541 65 518 142 519" style="fill:#fff"/><path d="M121,544h0l-83-2a1,1,0,0,1-.63-1.76l27-23A1,1,0,0,1,65,517l77,1a1,1,0,0,1,.9.59,1,1,0,0,1-.16,1.07l-21,24A1,1,0,0,1,121,544Zm-80.36-3.94L120.56,542l19.26-22-74.46-1Z" style="fill:#1d1d15"/><polygon points="142 457 121 481 38 479 65 456 142 457" style="fill:#fff"/><path d="M121,482h0l-83-2a1,1,0,0,1-.63-1.76l27-23A1,1,0,0,1,65,455l77,1a1,1,0,0,1,.9.59,1,1,0,0,1-.16,1.07l-21,24A1,1,0,0,1,121,482Zm-80.36-3.94L120.56,480l19.26-22-74.46-1Z" style="fill:#1d1d15"/><path d="M146,436c-2,33,3,111,3,137,0,3-8,3-8,0,0-26-3-109-1.56-137.37C141,429,158,421,158,421l3.64,4S147.61,432.86,146,436Z" style="fill:#fff"/><path d="M145,576.25c-2.94,0-5-1.34-5-3.25,0-9-.36-24.81-.77-43.07-.77-33.77-1.73-75.8-.79-94.35a.57.57,0,0,1,0-.18c1.65-7,18.39-15,19.1-15.3a1,1,0,0,1,1.17.23l3.64,4a1,1,0,0,1,.25.83,1,1,0,0,1-.5.71c-5.19,2.91-13.73,8.23-15.15,10.43-1.25,21.16.35,61,1.64,93,.74,18.43,1.38,34.34,1.38,43.71C150,574.91,147.94,576.25,145,576.25Zm-4.57-140.47c-.93,18.52,0,60.42.79,94.1.42,18.28.78,34.06.78,43.12,0,.68,1.37,1.25,3,1.25s3-.57,3-1.25c0-9.33-.64-25.22-1.38-43.63-1.29-32.18-2.9-72.24-1.62-93.43a1.14,1.14,0,0,1,.11-.4c1.48-2.88,11.43-8.78,14.95-10.8l-2.3-2.52C152.77,424.66,141.68,431,140.43,435.78Z" style="fill:#1d1d15"/><path d="M158,421s4.75,4.76,4,7c-2,6-33.41,7.21-38.56,20.63C121,455,119.43,607.16,121,615c1,5,7,4,9,0,3.26-6.51-1.64-158.83,1-165,3-7,37-12,38-19,.33-2.28-2.61-10.27-5-11C162.07,419.41,158,421,158,421Z" style="fill:#fff"/><path d="M124.83,619.39a5.81,5.81,0,0,1-.72,0A4.79,4.79,0,0,1,120,615.2c-.84-4.2-.79-45.41-.3-84,.16-13.07,1.07-78.49,2.79-83,3.25-8.48,15.93-12.21,26.12-15.21,5.79-1.7,11.78-3.47,12.42-5.39.33-1-1.68-3.88-3.76-6a1,1,0,0,1-.27-.92,1,1,0,0,1,.62-.72c.45-.18,4.46-1.7,6.65-1,3,.92,6.07,9.52,5.7,12.1-.6,4.21-9.42,7.14-19.64,10.55-8,2.67-17.15,5.71-18.43,8.7-1.17,2.73-.69,41.6-.27,75.89.64,51.66.94,85.78-.76,89.17A7,7,0,0,1,124.83,619.39Zm35-197.94c1.59,1.79,3.84,4.81,3.16,6.87-1,2.91-6.33,4.48-13.76,6.67-9.76,2.87-21.92,6.45-24.82,14-1,2.62-2.07,35.69-2.65,82.28-.55,43.37-.43,80.06.26,83.53a2.83,2.83,0,0,0,2.4,2.56,4.94,4.94,0,0,0,4.73-2.81c1.6-3.2,1-50.36.54-88.25-.56-45.78-.82-73.78.43-76.69,1.64-3.82,10.38-6.74,19.64-9.82,8-2.65,17.86-6,18.29-8.93.3-2.1-2.64-9.39-4.3-9.9A8.6,8.6,0,0,0,159.79,421.45Z" style="fill:#1d1d15"/><path d="M29,605c1,4,8.45,4.44,9,0,1-8,2-139,0-150-1.34-7.38-26-19-26-19s-2,4,0,7c3.16,4.74,15.45,8.9,18,14C32,461,27,597.18,29,605Z" style="fill:#fff"/><path d="M33.83,609.17c-2.46,0-5.14-1.3-5.8-3.93h0c-1-4-.28-39.07.5-76.15.68-32.42,1.45-69.17.56-71.68-1.2-2.39-5.17-4.77-9-7.07s-7.29-4.36-8.91-6.79c-2.3-3.44-.16-7.81-.06-8a1,1,0,0,1,1.32-.45c.06,0,6.28,3,12.58,6.78,8.66,5.23,13.36,9.59,14,12.94,1.89,10.37,1.21,140.71,0,150.3-.28,2.3-2.15,3.88-4.75,4ZM12.54,437.37c-.4,1.21-.84,3.38.29,5.08,1.37,2.05,4.88,4.15,8.27,6.17,4.09,2.45,8.32,5,9.79,7.93,1,2,.64,24.75-.36,72.59C29.82,562.8,29,601,30,604.76h0c.42,1.69,2.47,2.5,4.15,2.4.62,0,2.64-.31,2.89-2.28,1.19-9.57,1.88-139.38,0-149.7C36,449.79,19.85,440.91,12.54,437.37Z" style="fill:#1d1d15"/><path d="M113,466c0-9-11.52-21.82-13-27-1.57-5.5.84-25.62,1.69-35.33,3.31-2.67.37-4.54.22-5.12C101,395,90,395,88.6,397.58c-.19.35-5.6,2.42-.87,5.94-1.09,10.36-2.69,31-4,36.2C82,447,69.44,454.9,68,465c-1,7,14.59,11,23,10.72C100.28,475.41,113,473.28,113,466Z" style="fill:#fff"/><path d="M90.2,476.74c-6.52,0-17.37-2.35-21.51-7A6,6,0,0,1,67,464.86c.85-5.94,5.32-11.11,9.26-15.67,3-3.47,5.81-6.73,6.53-9.71.89-3.62,2-15,2.88-25.12.36-3.84.69-7.48,1-10.39a4.24,4.24,0,0,1-1.87-3.37c.09-1.9,2-3,2.85-3.58l.18-.11c1.43-2.12,6.32-2.37,9.16-2,3.27.4,5.34,1.57,5.86,3.29,0,.06.11.13.17.22a4.07,4.07,0,0,1,1.22,3,4.3,4.3,0,0,1-1.59,2.73c-.15,1.66-.34,3.59-.54,5.68-1,9.78-2.39,24.56-1.15,28.89.5,1.72,2.3,4.54,4.4,7.79,3.85,6,8.64,13.44,8.64,19.48,0,9-16.06,10.49-23,10.72Zm4.53-80c-2.73,0-4.91.67-5.26,1.31a1.77,1.77,0,0,1-.78.67c-.6.37-1.86,1.13-1.89,2,0,.56.51,1.28,1.52,2a1,1,0,0,1,.4.91c-.31,3-.67,6.84-1,10.91-.94,10.15-2,21.65-2.92,25.42-.84,3.44-3.82,6.88-7,10.53-4,4.57-8,9.29-8.79,14.65a4,4,0,0,0,1.19,3.3c3.77,4.2,14.65,6.49,20.79,6.28,4.93-.16,21-1.28,21-8.72,0-5.46-4.62-12.63-8.32-18.4-2.18-3.39-4.07-6.31-4.64-8.33-1.34-4.69.06-19.1,1.08-29.62.22-2.26.42-4.33.57-6.07a1,1,0,0,1,.37-.69,2.92,2.92,0,0,0,1.19-1.65,2.28,2.28,0,0,0-.76-1.56,2.39,2.39,0,0,1-.55-.88c-.22-.88-1.87-1.64-4.2-1.93A17.45,17.45,0,0,0,94.73,396.75Z" style="fill:#1d1d15"/><path d="M85.32,458.1a1.5,1.5,0,0,1-.92-.3c-3.69-2.77-8-10.15-9.06-11.93l-3.58-.9a1,1,0,0,1-.57-.39c-.68-.95-2.26-3.31-2.19-4.64.14-2.51,4.21-6.94,7-6.94,1.7,0,3.76,2.79,4.84,4.46A1,1,0,0,1,81,438v3.67c1.08,1.45,6.06,8.22,7.89,11.88h0c.64,1.28-.73,2.91-1.64,3.67A3.14,3.14,0,0,1,85.32,458.1Zm-12.72-15,3.64.91a1,1,0,0,1,.63.48c0,.09,4.79,8.58,8.55,11.55A4,4,0,0,0,87,454.32c-2-3.91-7.78-11.64-7.84-11.72a1,1,0,0,1-.2-.6v-3.7c-1.12-1.67-2.52-3.21-3-3.3-1.51,0-4.88,3.4-5,5.06A10.43,10.43,0,0,0,72.6,443.12Z" style="fill:#1d1d15"/><path d="M90.5,477C78.38,477,67,470.45,67,466.5c0-4.29,12.41-7.5,23.5-7.5s23.5,3.21,23.5,7.5C114,470.45,102.62,477,90.5,477Zm0-16c-12.21,0-21.5,3.67-21.5,5.5,0,2.08,9.67,8.5,21.5,8.5s21.5-6.42,21.5-8.5C112,464.67,102.71,461,90.5,461Z" style="fill:#1d1d15"/><ellipse cx="95.5" cy="398.36" rx="6.5" ry="2.36" style="fill:#fff"/><path d="M95.5,401.73c-3.61,0-7.5-1.06-7.5-3.37S91.89,395,95.5,395s7.5,1.05,7.5,3.36S99.11,401.73,95.5,401.73Zm0-4.73c-3.52,0-5.36,1-5.5,1.39.14.34,2,1.34,5.5,1.34s5.28-1,5.49-1.37C100.78,398,98.94,397,95.5,397Zm5.5,1.39h0Z" style="fill:#1d1d15"/><polyline points="54 524.93 71.36 510.58 116.52 513.97 105.55 528.23" style="fill:#fff"/><path d="M105.55,529.23a1,1,0,0,1-.61-.21,1,1,0,0,1-.18-1.4l9.83-12.79-42.91-3.22-17,14.1a1,1,0,0,1-1.28-1.54l17.36-14.36a1,1,0,0,1,.71-.23L116.59,513a1,1,0,0,1,.84.59,1,1,0,0,1-.12,1l-11,14.26A1,1,0,0,1,105.55,529.23Z" style="fill:#1d1d15"/><polygon points="54 524.93 54 532.61 105.55 537 105.55 528.23 54 524.93" style="fill:#fff"/><path d="M105.55,538h-.09l-51.54-4.39a1,1,0,0,1-.92-1v-7.67a1,1,0,0,1,1.06-1l51.55,3.29a1,1,0,0,1,.94,1V537a1,1,0,0,1-.33.74A1,1,0,0,1,105.55,538ZM55,531.69l49.55,4.22v-6.75L55,526Z" style="fill:#1d1d15"/><polygon points="116.52 513.97 105.55 528.23 105.55 537 117.61 521.64 116.52 513.97" style="fill:#fff"/><path d="M105.55,538a1.26,1.26,0,0,1-.33,0,1,1,0,0,1-.67-1v-8.77a.94.94,0,0,1,.21-.61l11-14.26a1,1,0,0,1,1.79.47l1.09,7.67a1,1,0,0,1-.2.76l-12.07,15.36A1,1,0,0,1,105.55,538Zm1-9.43v5.54l10-12.75-.7-4.9Z" style="fill:#1d1d15"/><polygon points="55 519.45 98.97 523.84 98.97 515.07 55 512.87 55 519.45" style="fill:#fff"/><path d="M99,524.84h-.1l-44-4.38a1,1,0,0,1-.9-1v-6.58a1,1,0,0,1,.31-.72,1,1,0,0,1,.74-.28l44,2.2a1,1,0,0,1,1,1v8.78a1,1,0,0,1-1,1Zm-43-6.29,42,4.18V516l-42-2.1Z" style="fill:#1d1d15"/><polygon points="55 512.87 77.03 503 114.32 505.19 98.97 515.07 55 512.87" style="fill:#fff"/><path d="M99,516.06h0l-44-2.19a1,1,0,0,1-.36-1.91l22-9.87a1,1,0,0,1,.47-.09l37.29,2.2a1,1,0,0,1,.48,1.83l-15.35,9.88A1,1,0,0,1,99,516.06Zm-39.76-4,39.49,2,12.5-8-34-2Z" style="fill:#1d1d15"/><polygon points="114.32 505.19 114.32 512.87 98.97 523.84 98.97 515.07 114.32 505.19" style="fill:#fff"/><path d="M99,524.84a1,1,0,0,1-.46-.11,1,1,0,0,1-.54-.89v-8.78a1,1,0,0,1,.46-.84l15.35-9.87a1,1,0,0,1,1.54.84v7.68a1,1,0,0,1-.42.82l-15.35,11A1,1,0,0,1,99,524.84Zm1-9.23v6.29l13.35-9.54V507Z" style="fill:#1d1d15"/><rect x="179" y="538" width="601" height="32" style="fill:#fff"/><path d="M781,571H178V537H781Zm-601-2H779V539H180Z" style="fill:#1d1d15"/><path d="M231.59,402.06c8.76-6.58,499.2-6.56,507.09,2,7.46,8.09-.21,110.84-.21,110.84l-507.88-2.1S222.45,408.91,231.59,402.06Z" style="fill:#fff"/><path d="M738.47,515.9h0l-507.88-2.1a1,1,0,0,1-1-.92c-.84-10.69-7.92-104.64,1.4-111.62,5.67-4.25,168.94-5.05,254.47-4.88,66.1.14,127.15.79,171.91,1.83,79,1.84,81.2,4.26,82,5.17,7.54,8.18.85,101,.06,111.6A1,1,0,0,1,738.47,515.9Zm-507-4.1,506,2.1c3-41.15,5.62-103.5.4-109.17-4.54-3.44-108.53-6.06-252.86-6.35-137-.27-248.07,1.7-252.9,4.49C225.85,407.7,228.3,470.28,231.51,511.8Z" style="fill:#1d1d15"/><polyline points="200.65 624.5 205.76 616.55 205.76 587.21 200.65 587.21" style="fill:#fff"/><path d="M200.65,625.5a1,1,0,0,1-.54-.16,1,1,0,0,1-.3-1.38l4.95-7.71v-28h-4.11a1,1,0,1,1,0-2h5.11a1,1,0,0,1,1,1v29.34a1,1,0,0,1-.16.54L201.49,625A1,1,0,0,1,200.65,625.5Z" style="fill:#1d1d15"/><rect x="183.12" y="587.21" width="17.53" height="37.29" style="fill:#fff"/><path d="M200.65,625.5H183.12a1,1,0,0,1-1-1V587.21a1,1,0,0,1,1-1h17.53a1,1,0,0,1,1,1V624.5A1,1,0,0,1,200.65,625.5Zm-16.53-2h15.53V588.21H184.12Z" style="fill:#1d1d15"/><polyline points="759.78 626.56 753.01 619.99 753.01 588.8 759.78 588.43" style="fill:#fff"/><path d="M759.78,627.56a1,1,0,0,1-.7-.28l-6.76-6.58A1,1,0,0,1,752,620V588.8a1,1,0,0,1,1-1l6.76-.37a1,1,0,0,1,.11,2l-5.82.32v29.81l6.46,6.28a1,1,0,0,1,0,1.42A1,1,0,0,1,759.78,627.56Z" style="fill:#1d1d15"/><rect x="759.78" y="588.61" width="16.88" height="37.95" style="fill:#fff"/><path d="M776.65,627.56H759.78a1,1,0,0,1-1-1V588.61a1,1,0,0,1,1-1h16.88a1,1,0,0,1,1,1v37.95A1,1,0,0,1,776.65,627.56Zm-15.87-2h14.87V589.61H760.78Z" style="fill:#1d1d15"/><polygon points="715.31 452.25 715.31 512.11 787.79 570.5 787.79 486.5 715.31 452.25" style="fill:#fff"/><path d="M787.79,571.5a1,1,0,0,1-.63-.22l-72.48-58.39a1,1,0,0,1-.37-.78V452.25a1,1,0,0,1,.46-.84,1,1,0,0,1,1-.06l72.48,34.25a1,1,0,0,1,.57.9v84a1,1,0,0,1-.57.9A.94.94,0,0,1,787.79,571.5Zm-71.48-59.87,70.48,56.78V487.13l-70.48-33.3Z" style="fill:#1d1d15"/><polygon points="245.36 453.71 245.79 505.5 178.79 570.5 178.79 484.5 245.36 453.71" style="fill:#fff"/><path d="M178.79,571.5a1,1,0,0,1-.39-.08,1,1,0,0,1-.61-.92v-86a1,1,0,0,1,.58-.91l66.57-30.78a1,1,0,0,1,.95.06,1,1,0,0,1,.47.84l.43,51.78a1,1,0,0,1-.31.73l-67,65A1,1,0,0,1,178.79,571.5Zm1-86.36v83l65-63.06-.42-49.81Z" style="fill:#1d1d15"/><path d="M245.36,453.71c-8.72-2.46-13.91-2-18.26-.58-16.81,5.41-62.08,23.41-64.69,30.52-1.07,2.9,1.71,24.87,1.45,48-.3,25.72-.39,52.82,3.29,56.47.2.2,627.23,12.27,629.14-1.65,1.5-10.93,1.5-24.93,3.44-58.48,1.28-22,5.77-39.45,2.56-45.71-3.67-7.16-47.5-26.74-63.5-29.74-5-.94-23.48-.25-23.48-.25s54.48,26.25,58,32.29c2.66,4.52-4,71.41-4,71.41l-576.73,2.19s-2.19-65,0-71.56C195,479.53,228.8,465.2,245.36,453.71Z" style="fill:#fff"/><path d="M607.17,594.14q-60.33,0-139.61-.71c-80.06-.71-156.94-1.83-207.32-2.65-24-.39-48-.8-67.56-1.17-25.9-.49-25.9-.49-26.23-.82-3.53-3.49-4-22.8-3.6-57.19.14-12.36-.59-24.51-1.13-33.38-.55-9-.79-13.44-.25-14.91,2.94-8,50.59-26.39,65.33-31.14,3.87-1.25,9.14-2.15,18.83.58a1,1,0,0,1,.71.8,1,1,0,0,1-.41,1c-6.69,4.63-16.09,9.69-25.19,14.58C208,476,194.85,483.05,193.56,486.89c-1.65,5-.72,47.55,0,70.25L768.44,555c2.55-25.8,5.84-66.85,4-69.9-2.5-4.24-35.83-21.4-57.61-31.9a1,1,0,0,1-.55-1.1,1,1,0,0,1,.94-.8c.76,0,18.63-.68,23.7.27,15.21,2.85,60.21,22.47,64.21,30.26,2.15,4.2,1.14,12.46-.25,23.89-.81,6.63-1.72,14.14-2.2,22.33-.76,13.09-1.22,23.2-1.59,31.32-.59,12.81-.94,20.54-1.86,27.24-.15,1.07-1.33,1.61-2.35,2C783.88,592.26,720.87,594.14,607.17,594.14Zm-439.54-7c9.05.27,162.89,3.19,311.27,4.43,267.57,2.25,313.29-2.37,316.42-5.37.89-6.59,1.24-14.27,1.82-26.93.37-8.13.84-18.24,1.59-31.34.48-8.26,1.4-15.81,2.22-22.47,1.3-10.65,2.32-19.07.45-22.72-3.24-6.32-45.49-26-62.8-29.22-3.42-.64-13.49-.49-19.19-.35,12.94,6.31,51.62,25.5,54.8,30.91,2.75,4.66-3.18,65.13-3.87,72a1,1,0,0,1-1,.9l-576.73,2.19h0a1,1,0,0,1-1-1c-.09-2.66-2.17-65.29,0-71.91,1.53-4.6,13.86-11.23,28.12-18.9,8.25-4.43,16.75-9,23.18-13.24-7.84-1.9-12.26-1.11-15.56,0-17.87,5.76-61.7,23.48-64.07,29.92-.41,1.14-.05,7.15.37,14.1.54,8.9,1.29,21.09,1.14,33.52C164.64,550.72,164.28,582.41,167.63,587.1Z" style="fill:#1d1d15"/><path d="M416.79,395.5c-4.7,5.55-2.61,23.18-2.73,42.16-.16,25.46-8.27,49.84,2.73,57.84s136,16,141,3c3.77-9.8,5.18-40.33,3.85-66.9-.64-12.71,6.37-24.69.15-36.1-3-5.5-35.08-3.66-67.5-3.36S425,385.78,416.79,395.5Z" style="fill:#fff"/><path d="M512.54,506.34c-11.33,0-23.34-.42-34.25-1.06-26.06-1.53-56.61-5-62.09-9-8-5.8-6.52-19.49-4.82-35.35a231.89,231.89,0,0,0,1.68-23.31c0-4.86-.08-9.58-.19-14.14-.33-13.54-.58-24.24,3.16-28.66h0c6-7.06,25.3-6,47.68-4.75,10.07.55,20.49,1.13,30.57,1,6-.06,12-.16,17.81-.27,30.56-.55,48-.63,50.58,4.15,4.07,7.48,2.68,15.3,1.34,22.86-.79,4.45-1.61,9.05-1.37,13.67,1.24,24.84.12,56.8-3.92,67.31-.66,1.73-2.79,3.1-6.5,4.2C544.13,505.45,529.05,506.34,512.54,506.34Zm-72-115.14c-11,0-19.68,1.09-22.94,4.95h0c-3.24,3.83-3,14.71-2.68,27.31.11,4.58.22,9.32.19,14.21-.05,8.12-.92,16.29-1.69,23.51-1.63,15.23-3,28.39,4,33.51,4.35,3.16,30,6.78,61,8.6,26.62,1.55,59.84,1.81,73.24-2.15,4-1.18,5-2.38,5.21-3,3.53-9.19,5.19-38.4,3.78-66.49a62.77,62.77,0,0,1,1.4-14.12c1.34-7.55,2.61-14.69-1.13-21.55-2.15-4-25.86-3.52-48.78-3.11-5.81.11-11.82.21-17.83.27-10.15.09-20.59-.49-30.7-1.05C455.46,391.64,447.5,391.2,440.49,391.2Zm-23.7,4.3h0Z" style="fill:#1d1d15"/><path d="M202.84,525.93c-4.56,6-4.81,22.29,0,24.91C210.49,555,379.29,555,388.76,550s12.33-40.3,12.33-40.3-2-13.79-7.22-16.4" style="fill:#fff"/><path d="M289,554.86c-40,0-82.59-1-86.61-3.14-1.61-.88-2.81-3-3.47-6-1.31-6.09-.36-15.73,3.15-20.36a1,1,0,0,1,1.6,1.2c-3.13,4.14-4,13.2-2.8,18.74.53,2.44,1.41,4.11,2.48,4.69,3.25,1.77,42.71,3,91.8,2.9,50.92-.13,89.23-1.68,93.17-3.78,7.35-3.91,11-29.64,11.8-39.38-.57-3.77-2.8-13.61-6.67-15.54a1,1,0,0,1,.9-1.79c5.63,2.82,7.68,16.57,7.76,17.16a1.62,1.62,0,0,1,0,.22c-.12,1.46-3,35.85-12.86,41.1-5.26,2.8-54,3.91-94.11,4Z" style="fill:#1d1d15"/><path d="M260.7,493c-10.91-11.54-7.94-29.3-7.61-46.62.36-19.26-.07-36.72,5.25-43,8.45-9.94,33.84-6.65,63.43-7.86,35-1.43,65-8.06,74.37-.37,7.65,6.29,2.23,23.38,2.28,43.79.06,22.27,5.37,41.5-4.28,50C384.76,497.34,278,511.27,260.7,493Z" style="fill:#fff"/><path d="M305.33,503c-6.54,0-12.56-.23-17.91-.71-14-1.26-23.27-4.14-27.44-8.55-9.45-10-8.84-24.05-8.19-39,.12-2.75.25-5.59.3-8.37,0-2.24.07-4.46.1-6.64.24-16.72.45-31.16,5.39-37,6.61-7.78,22.57-7.82,42.77-7.87,6.85,0,13.93,0,21.38-.34,10.9-.44,21.48-1.41,30.81-2.26,20.94-1.92,37.48-3.43,44.24,2.12,5.59,4.6,4.74,14.13,3.67,26.19-.49,5.55-1,11.83-1,18.37,0,6.16.43,12,.83,17.64,1.05,14.89,1.89,26.66-5.45,33.14-4.95,4.38-34.42,10-64.35,12.2C321.52,502.65,313.06,503,305.33,503Zm73.85-110.42c-7.32,0-16.36.83-26.45,1.75-9.36.85-20,1.82-30.92,2.27-7.49.31-14.59.32-21.45.34-19.69.05-35.24.09-41.26,7.17-4.47,5.25-4.67,19.36-4.91,35.7q0,3.27-.1,6.65c-.06,2.8-.18,5.66-.3,8.41-.63,14.47-1.22,28.13,7.64,37.5,7.07,7.47,32.82,10.33,68.87,7.64,32.15-2.4,59.1-8.09,63.18-11.7,6.59-5.84,5.79-17.16,4.77-31.5-.4-5.68-.81-11.56-.83-17.79,0-6.62.55-13,1-18.54,1-11.48,1.82-20.55-2.95-24.47C392.4,393.44,386.71,392.56,379.18,392.56Z" style="fill:#1d1d15"/><path d="M251.34,493.57c-13.36,5.54-48.5,32.36-48.5,32.36s26.47-2.84,44.78-1.75c39.17,2.32,124.87,5.12,134.57.75s6.7-19.62,11.68-31.66c-6.08-7.77-43.84-1.93-81.58-1.4C283.34,492.27,261.44,489.39,251.34,493.57Z" style="fill:#fff"/><path d="M344.42,528.22c-31.75,0-74.74-1.73-96.86-3-18-1.07-44.35,1.72-44.61,1.74a1,1,0,0,1-1-.62,1,1,0,0,1,.32-1.17c1.44-1.09,35.4-27,48.72-32.48l.39.92-.39-.92c6.87-2.85,18.45-2.54,34.49-2.1,8,.21,17,.45,26.84.32,11.71-.17,23.66-.86,34.21-1.46,25.34-1.47,43.65-2.52,48.17,3.24a1,1,0,0,1,.13,1c-1.8,4.36-2.53,9.15-3.24,13.78-1.22,7.94-2.36,15.44-8.95,18.41C378.74,527.58,363.64,528.22,344.42,528.22Zm-106-5.29c3.21,0,6.36.08,9.29.25,41.93,2.49,125,5,134.1.84,5.6-2.53,6.61-9.18,7.79-16.89a64.05,64.05,0,0,1,3.14-13.66c-4.63-4.46-23.9-3.35-46.1-2.07-10.57.61-22.55,1.3-34.31,1.47-9.85.13-18.92-.11-26.92-.33-15.19-.4-27.19-.73-33.66,2-10.89,4.51-36.83,23.64-45.45,30.09C212.52,524,226,522.93,238.39,522.93Z" style="fill:#1d1d15"/><path d="M753.79,522.5c5,4.45,7,22-2,26-5.84,2.59-64,4-110,.1-25.41-2.16-44.76,3-58-.1-13-3-28-30-28-30s3-18,11.55-21.86C589.81,486.51,719.85,492.08,753.79,522.5Z" style="fill:#fff"/><path d="M704.9,552c-19.88,0-43-.7-63.19-2.42-12.54-1.06-23.52-.35-33.2.28s-18.13,1.18-25-.4c-13.28-3.06-28-29.37-28.65-30.48a1.05,1.05,0,0,1-.11-.65c.13-.76,3.19-18.58,12.13-22.61,11.65-5.25,50.1-6.27,89.43-2.36,67.43,6.7,91.06,22.08,98.1,28.39,3.36,3,5.32,11.1,4.28,17.67-.77,4.9-3.09,8.45-6.55,10S729.22,552,704.9,552Zm-76.54-5c4.29,0,8.79.15,13.52.55,45.78,3.89,104,2.44,109.5,0,3.6-1.6,4.92-5.49,5.39-8.47,1-6.51-1.1-13.59-3.65-15.88-14.56-13-49.89-23.21-97-27.88-38.4-3.81-77.23-2.85-88.42,2.19-7.35,3.32-10.45,18.31-10.91,20.77,1.7,3,15.49,26.51,27.17,29.21,6.54,1.5,14.8,1,24.37.34C614.5,547.48,621.13,547.05,628.36,547.05Z" style="fill:#1d1d15"/><path d="M570.65,522.75c6.16,6.82,4.14,23.75-.39,27.64-6.12,5.26-60.2-1.76-106.49,1a370.07,370.07,0,0,1-68.17-2.47c-6.29-.63-8.81-20.4-2.36-25.28C393.24,523.62,557.79,508.5,570.65,522.75Z" style="fill:#fff"/><path d="M554.5,553.41c-6.52,0-15-.3-25.52-.7-19.25-.73-43.22-1.64-65.15-.34a370.14,370.14,0,0,1-66.47-2.25l-1.86-.22c-2.59-.26-4.72-2.91-6-7.45-1.92-6.84-1.27-16.29,3.14-19.63a1.07,1.07,0,0,1,.51-.2c.41,0,41.65-3.8,83.93-5.78,57-2.66,88.77-.9,94.31,5.24,3,3.33,4.49,9.15,4.05,16-.37,5.91-2.15,11.05-4.53,13.09C569,552.83,563.61,553.41,554.5,553.41Zm-66.05-3.69c14.3,0,28.39.53,40.61,1,20.19.77,37.63,1.43,40.55-1.08,1.93-1.65,3.5-6.47,3.84-11.7.39-6.2-.93-11.62-3.54-14.51h0c-9.89-11-119.45-4-176.28,1.17-3.42,2.9-3.92,11.21-2.2,17.32,1,3.59,2.6,5.83,4.27,6l1.9.22a366.15,366.15,0,0,0,66.11,2.24C471.8,549.9,480.16,549.72,488.45,549.72Z" style="fill:#1d1d15"/><path d="M403.71,494.85c-5.93,5.19-7.85,22.67-10.47,28.77,8,1,35.27-1.17,66.05.29,54.5,2.59,106.5,7.59,110.5.59,3.59-6.28-10.31-22.39-19.07-28.52C533.28,483.77,410.68,488.75,403.71,494.85Z" style="fill:#fff"/><path d="M547.32,529.06c-12.85,0-30.79-1-53.46-2.27-11.21-.65-22.81-1.32-34.62-1.88-17.64-.84-34.33-.48-46.52-.21-9.37.2-16.14.34-19.6-.09a1,1,0,0,1-.74-.49,1,1,0,0,1-.05-.89,66.89,66.89,0,0,0,2.48-8.77c1.89-7.82,4-16.68,8.24-20.36h0c4-3.53,38.87-6.11,70.22-6.55,19.79-.29,67-.11,78,7.61,8.93,6.25,23.42,22.73,19.37,29.84C569,528,561,529.06,547.32,529.06Zm-111.86-6.67c7.5,0,15.58.13,23.88.52,11.82.56,23.42,1.23,34.64,1.88,37.09,2.14,72.12,4.16,74.94-.79,1.37-2.39-.4-7.21-4.84-13.22a68.06,68.06,0,0,0-13.93-14c-17-11.92-139.33-6.84-145.78-1.2-3.73,3.26-5.89,12.17-7.62,19.33-.74,3.06-1.4,5.78-2.1,7.82,3.67.26,10.11.12,18,0C419.17,522.56,426.94,522.39,435.46,522.39Z" style="fill:#1d1d15"/><path d="M582.79,395.5c-10,8-6,21.31-4.55,43.7,1.61,25.52-4.45,48.3,8.55,56.3,16,9.85,123.63,10.5,133-2,6-8-.93-27-3.78-48.78-3-22.6.4-43-7.22-46.22-14-6-35.51-.43-60.49-1.77C620.34,395.24,591.09,388.86,582.79,395.5Z" style="fill:#fff"/><path d="M653.2,503.89c-26.82,0-58.45-2.32-66.94-7.54-9.67-6-9.34-19.1-8.91-35.74.18-6.84.36-13.91-.11-21.35-.29-4.56-.7-8.82-1-12.58-1.45-15.21-2.41-25.26,6-32,6.09-4.87,22.23-3.17,40.91-1.21,8.25.87,16.78,1.77,25.29,2.23a246.05,246.05,0,0,0,27.25-.49c13.31-.77,24.81-1.43,33.57,2.33,5.54,2.37,5.86,11.78,6.3,24.81.23,6.71.49,14.32,1.52,22.2.85,6.48,2,12.6,3.19,18.52,2.72,14,4.87,25,.4,31-5.23,7-36.91,9.62-64.81,9.78ZM597,393.53c-6.22,0-11,.72-13.54,2.75-7.53,6-6.67,15.13-5.23,30.21.36,3.77.76,8.05,1.05,12.64.48,7.53.29,15,.12,21.54-.41,16-.73,28.63,8,34,7.11,4.37,35.9,7.41,68.46,7.23,33.93-.19,59.33-3.8,63.22-9s1.76-16.44-.76-29.41c-1.1-5.67-2.35-12.1-3.21-18.64-1-8-1.3-15.63-1.54-22.39-.4-11.83-.72-21.17-5.09-23-8.33-3.57-19.61-2.93-32.67-2.18a242.58,242.58,0,0,1-27.47.49c-8.56-.46-17.12-1.36-25.39-2.23C613.12,394.48,604.08,393.53,597,393.53Z" style="fill:#1d1d15"/><path d="M563.79,496.5c8,7,10.15,26,18,26,20,0,150,5,172,0-23-17-48-31-58-31-17.54,0-52,2.52-81.5,2.78C589.54,494.5,568.35,491.93,563.79,496.5Z" style="fill:#fff"/><path d="M703.92,525.73c-30,0-66.57-.93-93.11-1.61-13.63-.35-24.39-.62-29-.62-5,0-7.81-6.3-10.74-13-2.24-5.09-4.55-10.34-7.92-13.29a1,1,0,0,1-.34-.72,1,1,0,0,1,.29-.74c3.5-3.5,14.73-3.2,30.27-2.8,6.34.17,13.52.35,20.93.29,15.85-.14,33.2-.93,48.51-1.64,13.35-.61,24.88-1.14,33-1.14,11.26,0,38.27,16.17,58.59,31.2a1,1,0,0,1,.39,1,1,1,0,0,1-.76.77C746.57,525.17,727.25,525.73,703.92,525.73ZM565.33,496.59c3.21,3.29,5.42,8.29,7.55,13.14,2.66,6,5.18,11.77,8.91,11.77,4.66,0,15.43.27,29.07.62,42.31,1.08,119.67,3,140.48-.18-23.52-17.14-46.67-29.44-55.55-29.44-8.07,0-19.58.53-32.91,1.14-15.33.7-32.7,1.5-48.58,1.64-7.45.06-14.65-.12-21-.29C580.48,494.66,569.27,494.36,565.33,496.59Z" style="fill:#1d1d15"/><path d="M633.87,492.89c-13.29-1.27-24-4.3-30.75-3.07s-7.38,4.3-5.53,6.15c4.92,1.84,12.91,0,22.18,2.24" style="fill:#1d1d15"/><path d="M619.77,499l-.17,0a56.08,56.08,0,0,0-13.05-1.25c-3.62-.05-6.75-.09-9.23-1a.65.65,0,0,1-.26-.17,3.29,3.29,0,0,1-1-3.36c.43-1.36,2-3.16,6.9-4.06,4.37-.79,10.08.1,17.3,1.23,4.09.64,8.73,1.37,13.65,1.84a.75.75,0,1,1-.14,1.49c-5-.48-9.63-1.2-13.74-1.85-6.81-1.06-12.68-2-16.8-1.23-4.58.83-5.54,2.39-5.73,3a1.8,1.8,0,0,0,.48,1.74c2.21.78,5.16.81,8.56.86A57.76,57.76,0,0,1,620,497.48a.75.75,0,0,1-.18,1.48Z" style="fill:#fff"/><path d="M603.74,514.42c-4.37,1.36-22.76,11.07-24.6,9.84-2.86-1.91-.62-9.84,4.3-12.3,6.71-3.35,19.11-7.24,25.83-9.22a39.56,39.56,0,0,0,12.3-5.54c3.91-2.79,18.74-5.21,20.91-7.38,5.54-5.54,17.71-10.11,25.22-7.38,6.76,2.46,17.22-4.92,23.37-2.46l2.46,26.45L663.86,516.5s-5.73-2-8.91-1.11c-9.39,2.72-21.69-4-30.3-.35-7.91,3.39-11.87,7.7-17.22,9.84-5.09,2-6.56-6.43-3.69-10.46,2.27-3.2,11.4-5.88,14.76-7.38s5.65.94,9.22.62c3.82-.35,8.61-3.69,15.38-3.08" style="fill:#1d1d15"/><path d="M605.94,525.94a3.65,3.65,0,0,1-3-1.51c-1.6-2-1.86-5.75-.81-8.62-1.77.74-4.27,1.9-6.87,3.11-11.11,5.15-15.29,6.83-16.59,6-1.14-.75-1.7-2.24-1.58-4.18.2-3.22,2.36-7.61,6-9.41,6.82-3.41,19.19-7.28,25.95-9.27a39.21,39.21,0,0,0,12.08-5.43c2.1-1.5,6.94-2.83,11.63-4.11,3.87-1.06,8.26-2.27,9.18-3.19,5.89-5.89,18.26-10.37,26-7.56,3.18,1.16,7.45-.08,11.58-1.28,4.38-1.28,8.53-2.48,11.81-1.17a.77.77,0,0,1,.47.63l2.46,26.45a.77.77,0,0,1-.51.78L664.1,517.21a.75.75,0,0,1-.49,0c-.06,0-5.54-1.94-8.46-1.09-4.65,1.35-9.94.46-15.06-.4-5.58-.94-10.85-1.83-15.15,0a58.45,58.45,0,0,0-10,5.68,39.74,39.74,0,0,1-7.24,4.16A4.72,4.72,0,0,1,605.94,525.94Zm-1.6-11.08c-1.67,2.36-1.75,6.64-.17,8.64a2.31,2.31,0,0,0,3,.68,38.68,38.68,0,0,0,7-4,60,60,0,0,1,10.24-5.82c4.7-2,10.44-1.05,16-.12,4.95.83,10.08,1.69,14.4.44,3-.88,7.94.64,9.12,1l28.87-9.79-2.36-25.38c-2.77-.86-6.49.22-10.41,1.36-4.36,1.27-8.87,2.58-12.52,1.25-7.11-2.58-19,1.75-24.43,7.21-1.2,1.2-5.21,2.3-9.84,3.57-4.35,1.19-9.27,2.54-11.16,3.89a40,40,0,0,1-12.53,5.64c-5.4,1.6-18.73,5.69-25.7,9.18-3,1.5-5,5.32-5.14,8.16a3.12,3.12,0,0,0,.91,2.85c1.28.35,10-3.68,15.13-6.08,3.69-1.72,6.91-3.21,8.6-3.78,2-2.53,7.59-4.62,11.7-6.16,1.3-.49,2.42-.91,3.21-1.27,2.13-.94,3.92-.45,5.65,0a10.56,10.56,0,0,0,3.82.54,20.31,20.31,0,0,0,4.43-1.2c2.95-1,6.62-2.28,11.08-1.88a.75.75,0,0,1-.14,1.5c-4.13-.38-7.49.78-10.45,1.8a21.64,21.64,0,0,1-4.79,1.27,12,12,0,0,1-4.34-.58c-1.62-.44-3-.82-4.65-.09-.83.36-2,.79-3.29,1.29-3.81,1.43-9.56,3.59-11.16,5.83Z" style="fill:#fff"/><path d="M739,517.42s-6.76,2.54-9.21,4.13c-2.08,1.35-2.78,3.79-3.7,5.79-.61,1.3-3.94,2.21-4.31,3.69-.42,1.69.84,5.58,1.23,6.76,1.28,3.82,13.73,6.39,15.38.62,1.23-4.31-3.48-6.32-2-8.81,2-3.49,7-7.18,7-11.94,0-3.85-5.57-10.62-7.75-16-1.7-4.2-2.84-7.74-4-8.13,0,0-37.66-8.43-43,1.84-6.76,12.92-15.38,12.31-20.3,19.07-1.83,2.53-8.61,2.46-11.68,7.38S652,535.12,648,540.2c-.79,1-4.18.56-5,1.55-1.74,2.19-4.2,7.73,1.29,10.26,4,1.85,8.66-.69,11.73-3.76,2.35-2.34,3.73-.52,4.31-3.08.8-3.56.51-5,4.92-8,7.38-4.92,12.07-9.09,16-8,11.07,3.08,32.33,4,44.9-1.84" style="fill:#1d1d15"/><path d="M647.17,553.38a7.57,7.57,0,0,1-3.2-.69,6.05,6.05,0,0,1-3.65-4.07c-.64-2.67.72-5.62,2.08-7.34.58-.73,1.74-.89,3-1a5.07,5.07,0,0,0,2-.5c2.23-2.79,3.68-6.64,5.07-10.36a45.83,45.83,0,0,1,3.55-8c2-3.11,5.24-4.35,7.89-5.35,1.72-.65,3.2-1.21,3.83-2.07,2-2.8,4.67-4.39,7.46-6.07,4.12-2.48,8.79-5.29,12.78-12.9,5.58-10.67,42.31-2.58,43.88-2.23,1.26.43,2,2.32,3.55,6.2l.94,2.38a54.1,54.1,0,0,0,3.64,6.77c2.16,3.61,4.19,7,4.17,9.53,0,3.5-2.44,6.41-4.57,9A26.65,26.65,0,0,0,737,530c-.42.74,0,1.42.76,2.68.93,1.48,2.1,3.33,1.35,6-.69,2.42-3.1,3.85-6.62,3.93-4.06.07-9.26-1.74-10.19-4.51-.79-2.38-1.65-5.55-1.25-7.19a2.41,2.41,0,0,1,.6-1c-13.31,4.05-31.42,2.66-40.66.09-2.83-.78-6.43,1.72-11.41,5.18-1.23.86-2.55,1.78-4,2.72-3.56,2.37-3.8,3.57-4.33,6.18-.08.42-.17.87-.28,1.36a2.44,2.44,0,0,1-2.22,2.22,3.92,3.92,0,0,0-2.29,1.22C654.1,551.22,650.62,553.38,647.17,553.38ZM704.89,491c-7.42,0-13.78,1.16-15.62,4.67-4.18,8-9,10.92-13.33,13.5-2.77,1.67-5.16,3.11-7,5.66-.89,1.22-2.57,1.86-4.51,2.59-2.56,1-5.47,2.07-7.15,4.75a44.47,44.47,0,0,0-3.41,7.7c-1.44,3.83-2.93,7.79-5.31,10.77-.58.73-1.74.88-3,1.05a5.16,5.16,0,0,0-2,.49c-.93,1.17-2.35,3.76-1.8,6.06a4.57,4.57,0,0,0,2.82,3.05c3.67,1.69,8-.75,10.88-3.6a5.44,5.44,0,0,1,3-1.63c.72-.15.86-.19,1.07-1.08.1-.48.19-.91.27-1.32.55-2.76.89-4.42,5-7.14,1.41-.94,2.72-1.85,3.94-2.7,5.32-3.7,9.16-6.37,12.67-5.39,10.52,2.92,31.63,3.94,44.13-1.69l.38-.87c.75-1.76,1.59-3.75,3.48-5,2.49-1.62,9.08-4.1,9.36-4.2a.75.75,0,1,1,.53,1.4c-.07,0-6.72,2.53-9.08,4.06-1.5,1-2.22,2.67-2.91,4.3q-.26.6-.51,1.17h0a5.51,5.51,0,0,1-2.32,2c-.8.48-1.81,1.09-1.93,1.58-.24,1,.21,3.34,1.21,6.34.62,1.85,5,3.57,8.74,3.49,1.65,0,4.53-.46,5.21-2.84.56-2-.33-3.38-1.18-4.74s-1.69-2.68-.78-4.23a26.5,26.5,0,0,1,2.66-3.56c2.07-2.49,4.2-5,4.22-8,0-2.1-2-5.48-4-8.75a54.56,54.56,0,0,1-3.75-7c-.33-.83-.65-1.64-.94-2.4-.89-2.26-2-5.08-2.58-5.3A136.33,136.33,0,0,0,704.89,491Z" style="fill:#fff"/><path d="M723.05,467.68c5.8-5.56,12.56-11.4,16-9.84,2.66,1.21-.4,18.17-3.07,22.75-1.69,2.9-1.2,9.86-5.77,17.05-2.84,4.48-6,4-8.66,5.67-3.24,2.05-7.1,5.35-10.71,5.35-3.8,0-5.11-2-8.69-4.69-2.34-1.78-7.38-4.31-9.69-7.92-2-3.05-1.29-10.9-2-14.58-4.87-10.1-.7-8.15-1.8-12.56-.89-3.59-3.17-10.79-2.46-12.3,1.78-3.83,14.15,11.68,17.84,10.45C707.9,465.76,718.75,465.22,723.05,467.68Z" style="fill:#1d1d15"/><path d="M710.83,509.41c-3.23,0-4.85-1.34-7.09-3.2-.61-.51-1.28-1.06-2-1.65-.59-.44-1.35-.94-2.24-1.51-2.6-1.69-5.84-3.79-7.63-6.59-1.36-2.12-1.54-6-1.71-9.75a40.83,40.83,0,0,0-.42-5c-3.21-6.68-2.55-8.4-2-9.92a3.7,3.7,0,0,0,.17-2.7c-.19-.77-.45-1.71-.72-2.72-1.38-5.06-2.31-8.74-1.69-10.08a1.71,1.71,0,0,1,1.21-1c1.79-.39,4.48,1.83,8.72,5.48,3,2.55,7,6,8.35,5.58,3.86-1.28,14.3-1.92,19.17.42,6.35-6.06,12.69-11.32,16.43-9.61a2.2,2.2,0,0,1,1.11,1.45c1.34,4.21-1.34,18.07-3.84,22.36a16.75,16.75,0,0,0-1.28,4.52,34.59,34.59,0,0,1-4.5,12.55,10.83,10.83,0,0,1-6.44,4.83,11.61,11.61,0,0,0-2.46,1.08c-.67.42-1.37.9-2.09,1.39C717.07,507.25,713.92,509.41,710.83,509.41Zm-23.69-52.66H687s-.1,0-.17.17c-.44.93,1,6.21,1.77,9,.28,1,.54,2,.74,2.76a5.2,5.2,0,0,1-.23,3.6c-.47,1.24-1,2.65,2,8.82a.49.49,0,0,1,.06.17,38.78,38.78,0,0,1,.46,5.32c.16,3.39.34,7.23,1.48,9,1.62,2.53,4.71,4.53,7.19,6.14.91.59,1.69,1.1,2.32,1.58.8.6,1.48,1.17,2.11,1.69,2.14,1.78,3.44,2.85,6.13,2.85s5.57-2,8.17-3.81c.74-.5,1.45-1,2.14-1.42a13.19,13.19,0,0,1,2.76-1.23,9.3,9.3,0,0,0,5.67-4.22,32.78,32.78,0,0,0,4.3-12,16.82,16.82,0,0,1,1.45-5c2.27-3.89,4.9-17.4,3.71-21.15-.15-.47-.3-.55-.3-.55-3.41-1.55-12,6.62-15.16,9.7a.74.74,0,0,1-.89.11c-4.06-2.32-14.72-1.8-18.46-.56-2,.67-5-1.76-9.8-5.86C691.87,459.72,688.42,456.75,687.14,456.75Z" style="fill:#fff"/><path d="M695.3,499.17c2.05,1,3.08,5.12,6.44,5.68,2.79.46,6.55-2.11,6.55-2.11s3.86,4.57,8.1,3.48c3.52-.9,4.65-2.85,6.7-3.67" style="fill:#1d1d15"/><path d="M715,506.89c-3.22,0-5.95-2.57-6.83-3.5-1.05.64-4.09,2.35-6.55,1.95-2.22-.36-3.48-2.09-4.58-3.6a7,7,0,0,0-2-2.13.5.5,0,0,1-.23-.67.51.51,0,0,1,.67-.22,7.34,7.34,0,0,1,2.36,2.43c1,1.43,2.12,2.9,3.94,3.2,2.57.42,6.15-2,6.19-2a.51.51,0,0,1,.66.09s3.72,4.32,7.6,3.33a11.65,11.65,0,0,0,4.35-2.24,9.81,9.81,0,0,1,2.29-1.41.49.49,0,0,1,.65.28.5.5,0,0,1-.28.65,9.23,9.23,0,0,0-2.07,1.28,12.35,12.35,0,0,1-4.7,2.41A5.74,5.74,0,0,1,715,506.89Z" style="fill:#fff"/><path d="M708.5,502.86a45.19,45.19,0,0,1-3.86-4.59l7.25.49S710,501.17,708.5,502.86Z" style="fill:#1d1d15"/><path d="M708.5,503.61a.77.77,0,0,1-.53-.22,45.66,45.66,0,0,1-3.94-4.68.75.75,0,0,1,0-.8.79.79,0,0,1,.71-.39l7.25.49a.76.76,0,0,1,.63.44.72.72,0,0,1-.1.77s-2,2.45-3.4,4.13a.74.74,0,0,1-.54.26Zm-2.26-4.48c.59.75,1.4,1.73,2.23,2.62.67-.8,1.38-1.67,1.93-2.34Z" style="fill:#fff"/><path d="M698.75,484.13c1.21-.73,6.53,1.45,7,2.66.41,1-1.45,3.37-3.14,2.89C698.27,488.48,697.25,485,698.75,484.13Z" style="fill:#fff"/><path d="M703.08,490.25a2.47,2.47,0,0,1-.6-.08c-3.06-.85-4.64-2.82-4.86-4.39a2,2,0,0,1,.87-2.08h0c.77-.46,2.33-.09,3.49.3s3.81,1.53,4.24,2.6a2.6,2.6,0,0,1-.79,2.44A3.25,3.25,0,0,1,703.08,490.25ZM699,484.56a1,1,0,0,0-.39,1.09c.16,1.24,1.51,2.82,4.13,3.55a2.1,2.1,0,0,0,1.94-.82,1.8,1.8,0,0,0,.6-1.41c-.15-.38-1.61-1.34-3.63-2-1.67-.57-2.46-.5-2.65-.39Z" style="fill:#1d1d15"/><path d="M715.88,486.81c-.58,1,.11,3.63,1.21,3.86,2.48.53,7.49-3.14,6.53-5.07C722.79,484,716.61,485.6,715.88,486.81Z" style="fill:#fff"/><path d="M717.6,491.22a3,3,0,0,1-.61-.06,2.18,2.18,0,0,1-1.4-1.41,4,4,0,0,1-.13-3.2c.69-1.16,4.36-2.22,6.5-2.14,1.09,0,1.8.37,2.1,1s.36,1.37-.59,2.61C722.21,489.61,719.54,491.22,717.6,491.22Zm4.1-5.81c-2.07,0-5,1.06-5.39,1.65h0a3.14,3.14,0,0,0,.2,2.29c.24.56.52.8.68.83,1.55.33,4.31-1.27,5.49-2.81.29-.37.73-1.06.49-1.55-.12-.23-.59-.38-1.25-.41Zm-5.82,1.4h0Z" style="fill:#1d1d15"/><polyline points="701.47 484.36 701.65 486.3 703.03 484.94" style="fill:#1d1d15"/><path d="M701.65,486.8a.51.51,0,0,1-.17,0,.5.5,0,0,1-.33-.42l-.18-1.94a.5.5,0,0,1,.45-.55.49.49,0,0,1,.54.45l.09.9.63-.63a.49.49,0,0,1,.7,0,.48.48,0,0,1,0,.7L702,486.66A.5.5,0,0,1,701.65,486.8Z" style="fill:#1d1d15"/><polyline points="718.59 485.42 719.27 487.4 719.71 485.13" style="fill:#1d1d15"/><path d="M719.27,487.9a.5.5,0,0,1-.48-.34l-.68-2a.5.5,0,1,1,.95-.33l.07.21.08-.42a.5.5,0,0,1,1,.19l-.44,2.27a.51.51,0,0,1-.46.4Z" style="fill:#1d1d15"/><path d="M704.64,499a.76.76,0,0,1-.75-.75l0-5.24a.75.75,0,0,1,.75-.75h0a.75.75,0,0,1,.75.74l0,5.24a.76.76,0,0,1-.75.76Z" style="fill:#fff"/><path d="M711.89,499.51a.64.64,0,0,1-.2,0,.75.75,0,0,1-.53-.92l1.58-5.75a.74.74,0,0,1,.92-.52.76.76,0,0,1,.53.92L712.61,499A.74.74,0,0,1,711.89,499.51Z" style="fill:#fff"/><path d="M690.52,482.65a.5.5,0,0,1-.5-.5c0-1.73,2.91-3.77,3.25-4a.5.5,0,0,1,.56.82c-1.09.75-2.81,2.26-2.81,3.17A.5.5,0,0,1,690.52,482.65Z" style="fill:#fff"/><path d="M716.29,473.71a.46.46,0,0,1-.23,0,.5.5,0,0,1-.22-.67c1.28-2.57,6.74-5.62,7-5.75a.5.5,0,0,1,.48.88s-5.41,3-6.56,5.32A.49.49,0,0,1,716.29,473.71Z" style="fill:#fff"/><path d="M230.5,374.5c3,5,4,18,4,22,0,2-2.91,3.63-3.84,6.48a4.11,4.11,0,0,0,3.84,5.52c3,0,5-2,8.93-5.09,1.63-1.29,3.07.09,4.07-2.91,1.34-4-5-14,6-31" style="fill:#1d1d15"/><path d="M234.5,409.25a5.2,5.2,0,0,1-4-2.1,4.71,4.71,0,0,1-.56-4.4,11.39,11.39,0,0,1,2.31-3.68c.81-1,1.5-1.78,1.5-2.57,0-4.45-1.12-17-3.89-21.61a.75.75,0,1,1,1.28-.78c3.1,5.16,4.11,18.41,4.11,22.39,0,1.33-.9,2.4-1.85,3.54a9.71,9.71,0,0,0-2,3.18,3.21,3.21,0,0,0,.35,3,3.66,3.66,0,0,0,2.78,1.48c2.32,0,4.05-1.39,6.91-3.69l1.55-1.24a4.32,4.32,0,0,1,2-.84c.83-.16,1.29-.25,1.78-1.72a11.55,11.55,0,0,0-.14-4.32c-.72-5.34-1.92-14.26,6.22-26.85a.75.75,0,0,1,1.26.82c-7.84,12.12-6.69,20.7-6,25.83.28,2.09.5,3.73.08,5-.71,2.13-1.7,2.48-2.92,2.72a2.87,2.87,0,0,0-1.4.54l-1.54,1.23C239.34,407.65,237.34,409.25,234.5,409.25Z" style="fill:#fff"/><path d="M739.66,247.46c.21,16.62,12.2,28,27.93,27.68s34-15.48,33.79-32.11-13.15-29.87-28.89-29.6S739.44,230.83,739.66,247.46Z" style="fill:#1d1d15"/><path d="M767,275.65a27.66,27.66,0,0,1-19.51-7.59c-5.29-5.13-8.27-12.45-8.37-20.6-.22-16.49,16.91-34.24,33.32-34.53a27.91,27.91,0,0,1,20,8A31,31,0,0,1,801.88,243c.22,17.24-18.66,32.34-34.28,32.61ZM773,213.93h-.47c-15.93.28-32.55,17.51-32.34,33.52.1,7.88,3,14.95,8.07,19.9a26.77,26.77,0,0,0,19.35,7.29c18.15-.31,33.48-17.64,33.3-31.6a30,30,0,0,0-9-21.36A27,27,0,0,0,773,213.93Z" style="fill:#1d1d15"/><path d="M742.7,247.52c.2,14.81,10.88,24.91,24.9,24.67s30.29-13.8,30.1-28.61S786,217,772,217.2,742.51,232.7,742.7,247.52Z" style="fill:#1d1d15"/><path d="M767.11,273.19a25.26,25.26,0,0,1-17.78-6.91,26.29,26.29,0,0,1-7.63-18.75c-.19-15,15.35-31.07,30.25-31.33a25.44,25.44,0,0,1,18.25,7.31,28.19,28.19,0,0,1,8.5,20.05c.2,15.66-16.92,29.38-31.09,29.63Zm5.28-55H772c-13.92.24-28.46,15.3-28.28,29.3a24.25,24.25,0,0,0,7,17.34,23.22,23.22,0,0,0,16.85,6.35c15.87-.28,29.28-15.41,29.12-27.6A26.19,26.19,0,0,0,788.81,225,23.47,23.47,0,0,0,772.39,218.19Z" style="fill:#fff"/><path d="M768,273h-.07a1,1,0,0,1-.88-.68l-5.94-17.74L744,254a1,1,0,0,1-.94-.76,1,1,0,0,1,.48-1.11l14.09-8-5.81-17.36a1,1,0,0,1,.34-1.11,1,1,0,0,1,1.17,0L770.11,237l20-11.41a1,1,0,0,1,1.19.14,1,1,0,0,1,.2,1.17L782.4,245.3l12.7,8.59a1,1,0,0,1,.39,1.14,1,1,0,0,1-1,.69l-17-.58-8.6,17.31A1,1,0,0,1,768,273Zm-4.76-18.35,4.94,14.74,7.13-14.33Zm15.24-1.48,12.62.43-9.6-6.5Zm-15.91-.54,13.71.47,3.55-7.13L770,239.34,760,245Zm-15-.51,12.86.44L758.25,246ZM772,238.23l8.77,5.94,7.57-15.24Zm-17.34-9.31,4.75,14.18,8.8-5Z" style="fill:#fff"/><path d="M323,393s-20,7.22-23,20c-1.14,4.93,9,12.36,11,17,3.24,7.39,1.08,25.43,9,27,9.42,1.87,21.25-14.66,19-24-1.42-5.88-13-13.07-12-19s21.94-12.66,23-20C346,392,323,393,323,393Z" style="fill:#fff"/><path d="M321.48,458.14a8.37,8.37,0,0,1-1.67-.16c-5.81-1.15-6.77-9.28-7.7-17.14-.48-4.08-.93-7.94-2-10.44-.71-1.62-2.61-3.74-4.61-6-3.58-4-7.27-8.09-6.44-11.65,3.05-13.15,22.79-20.41,23.63-20.71l.3-.06c2.38-.1,23.37-.95,27.49,1.11l.64.32-.1.71c-.63,4.34-6.86,8.11-12.89,11.76-4.78,2.89-9.72,5.88-10.11,8.26-.48,2.85,2.77,6.41,5.92,9.86,2.76,3,5.38,5.91,6.06,8.75,1.5,6.19-2.65,14.57-7.51,19.64C328.89,456.12,325,458.14,321.48,458.14ZM323.2,394c-1.76.67-19.54,7.68-22.23,19.24-.59,2.54,2.91,6.43,6,9.86,2.12,2.36,4.13,4.59,5,6.51,1.21,2.77,1.68,6.77,2.18,11,.84,7.15,1.71,14.54,6.09,15.41,3.22.64,7.16-1.18,10.82-5,5.15-5.36,8.17-13,7-17.79-.57-2.33-3.13-5.14-5.6-7.86-3.47-3.8-7.05-7.73-6.42-11.53.55-3.3,5.42-6.24,11.06-9.65,5-3,10.54-6.38,11.74-9.56C344.8,393.53,331.71,393.63,323.2,394Z"/><path d="M307,426a1,1,0,0,1-.71-.29,1,1,0,0,1,0-1.42c6.56-6.55,10.11-10.57,10.08-13,0-1.54-1.47-2.94-3.69-5.06-1.24-1.19-2.78-2.67-4.43-4.54a1,1,0,1,1,1.5-1.32c1.59,1.8,3,3.19,4.32,4.41,2.48,2.38,4.28,4.1,4.3,6.49,0,2.92-2.36,6.16-10.66,14.47A1,1,0,0,1,307,426Z" style="fill:#1d1d15"/><path d="M328,440a1,1,0,0,1-.78-.38,1,1,0,0,1,.16-1.4l10-8a1,1,0,0,1,1.24,1.56l-10,8A1,1,0,0,1,328,440Z" style="fill:#1d1d15"/><path d="M332,404a1,1,0,0,1-.82-.42,1,1,0,0,1,.24-1.4l13.85-9.79a1,1,0,1,1,1.15,1.63l-13.84,9.8A1,1,0,0,1,332,404Z" style="fill:#1d1d15"/><path d="M329,400a1,1,0,0,1-.8-.4,1,1,0,0,1,.2-1.4l8-6a1,1,0,1,1,1.2,1.6l-8,6A1,1,0,0,1,329,400Z" style="fill:#1d1d15"/><path d="M324,397a1,1,0,0,1-.8-.4,1,1,0,0,1,.2-1.4l4-3a1,1,0,1,1,1.2,1.6l-4,3A1,1,0,0,1,324,397Z" style="fill:#1d1d15"/><path d="M434.5,572.5s12-8,12-5-4,10-4,10" style="fill:#1d1d15"/><path d="M443.15,577.87l-1.3-.74c1.07-1.88,3.85-7.24,3.9-9.57-1.14-.17-6,2.31-10.83,5.56l-.84-1.24c3.07-2.06,10.43-6.71,12.47-5.62a1.33,1.33,0,0,1,.7,1.24C447.25,570.66,443.32,577.58,443.15,577.87Z" style="fill:#fff"/><path d="M325.5,658.5s-11-7.43-10-11c2-7,9.83-13.84,9.83-19.24L315.5,612.5l-18.37,16.76s-.65,12.42,1.37,16.24c3.9,7.39,14.08,18.32,21,21,3.62,1.4,15,1,15-4a5.31,5.31,0,0,0-4.5-4.87A7.87,7.87,0,0,0,325.5,658.5Z" style="fill:#1d1d15"/><path d="M324.54,668a15.93,15.93,0,0,1-5.31-.75c-7.17-2.78-17.39-13.76-21.39-21.35-2.09-4-1.48-16.11-1.45-16.63a.71.71,0,0,1,.24-.51L315,612a.76.76,0,0,1,.61-.19.75.75,0,0,1,.54.34L326,627.86a.8.8,0,0,1,.11.4c0,3.13-2.31,6.53-4.77,10.14-2.06,3-4.19,6.17-5.09,9.31-.58,2,5,6.94,9.34,9.92a8.3,8.3,0,0,1,4.56-.74c2.52.42,5.13,2.63,5.13,5.61a4.11,4.11,0,0,1-2,3.44C331.19,667.35,327.69,668,324.54,668Zm-26.67-38.34c-.08,1.91-.43,12.26,1.29,15.54,3.81,7.21,13.85,18,20.61,20.65,2.66,1,9.66.94,12.63-1.09a2.65,2.65,0,0,0,1.35-2.21c0-2.16-2-3.82-3.87-4.14a7.24,7.24,0,0,0-4,.8.76.76,0,0,1-.78,0c-1.91-1.29-11.42-7.93-10.3-11.83,1-3.36,3.16-6.6,5.29-9.73,2.26-3.32,4.4-6.47,4.51-9.09l-9.24-14.81Z" style="fill:#fff"/><path d="M386.28,629.53c3.22,7,26.22,24,35.22,35,2.11,2.58,13,5,13-3,0-4.12-6-4-6-4s-16-25-15.28-37.36" style="fill:#1d1d15"/><path d="M428.56,667.72c-3.17,0-6.5-1.35-7.64-2.74-4.1-5-11.14-11.29-17.94-17.35-8-7.14-15.58-13.88-17.38-17.79l1.36-.63c1.67,3.63,9.13,10.27,17,17.3,6.85,6.1,13.92,12.41,18.1,17.51,1.19,1.46,5.85,2.91,8.91,1.82,1.83-.65,2.76-2.11,2.76-4.34a2.44,2.44,0,0,0-.75-1.86c-1.45-1.43-4.46-1.39-4.49-1.39h-.41l-.23-.36c-.66-1-16.12-25.34-15.4-37.8l1.5.09c-.65,11.21,13.06,33.55,14.95,36.57,1,0,3.6.3,5.13,1.8a4,4,0,0,1,1.2,2.94c0,3.65-2,5.14-3.75,5.75A8.67,8.67,0,0,1,428.56,667.72Z" style="fill:#fff"/><path d="M255,628c-5.44,9-14.61,37.58-5,42,1.77.82,7.1-2,7-4-.5-10.5,2.5-23.47,9-24,18.5-1.5,35.5-19.5,43-17,26.13,8.71,45.5-4.5,49,2,5.06,9.4,5.38,33.54,14,39,3,1.92,12.39,1,13-2,.31-1.57-1.5-5.5-4-6-.88-.18-2.23,1.46-3,1-2.5-1.5-.66-21.73,4-27,4.94-5.59,26.68-3.78,34-15,7.5-11.5,18.5-11.5,24-14,4.32-2,9.5,6.5,18-6,1.91-2.81-3.11-9.72-4-13-1.5-5.5-10.36-10-10.36-10s.67-9.95-1.47-10.57S433,570,433,570s-24.32,6.57-32.5,3.5c-8-3-19-1-30-4-19.53-5.33-58-11-74.5-5.5-9.12,3-27.77-19.88-32-30-2.35-5.61-3.5-18.5,4-24,3.43-2.51,15.83,4.09,17,0,1.73-6-12.88-15.39-22-11-13.5,6.5-15.36,23.73-14,36,1.5,13.5,25.5,33.5,26.5,40.5.9,6.31-6.16,12.91-5,28C271.5,616.5,258.81,621.67,255,628Z" style="fill:#1d1d15"/><path d="M250.78,670.89a2.5,2.5,0,0,1-1.09-.21,7.47,7.47,0,0,1-3.9-4.92c-1.71-5.56-.15-13.94,1.46-20,1.81-6.81,4.67-14.11,7.11-18.16a30.15,30.15,0,0,1,5.62-6c4.89-4.43,10.43-9.45,9.77-18-.7-9.08,1.5-15.06,3.26-19.86,1.17-3.18,2.09-5.7,1.75-8.09-.38-2.68-4.88-8-9.65-13.59-7.1-8.37-16-18.79-16.86-26.94a53.18,53.18,0,0,1,1.46-20.46c2.32-7.79,6.68-13.27,13-16.3,6.06-2.91,14.24-.21,19.19,4,3.14,2.64,4.55,5.53,3.86,7.92-.82,2.87-5,1.93-9.32.94-3.11-.71-6.64-1.51-8-.55-7.16,5.26-5.95,17.85-3.75,23.11,4.11,9.82,22.47,32.45,31.07,29.58,16.1-5.37,53.86-.26,74.94,5.49,5.34,1.45,10.63,1.71,15.74,2s10.16.49,14.32,2.06c7.49,2.8,29.57-2.87,31.85-3.47,2.34-2.3,7.64-7.19,9.76-6.59,2.35.67,2.25,7.46,2.05,10.85,1.86,1,8.91,5.12,10.3,10.21a26.19,26.19,0,0,0,1.72,3.89c1.75,3.5,3.73,7.46,2.18,9.73-6.11,9-10.9,7.59-14.39,6.58-1.5-.44-2.81-.82-3.92-.32a33.87,33.87,0,0,1-5,1.63c-5.88,1.62-13.19,3.64-18.7,12.1-4.51,6.92-14.33,9.07-22.22,10.8-5.36,1.18-10,2.2-11.85,4.29-3.49,4-5.53,17.71-4.78,23.77.22,1.81.6,2.08.61,2.09s.52-.3.79-.46a2.9,2.9,0,0,1,2-.64,5.87,5.87,0,0,1,3.55,3,6.36,6.36,0,0,1,1,3.93c-.21,1-1.08,1.88-2.57,2.52-3.1,1.32-9,1.57-11.57,0-5.52-3.49-7.69-13.76-9.79-23.69-1.31-6.17-2.54-12-4.47-15.58-1.22-2.27-5.28-1.54-11.43-.45-8.71,1.55-21.86,3.9-37.15-1.2-3.14-1-8.67,2.2-15.07,5.95-7.8,4.58-17.51,10.27-27.63,11.09-5.61.45-8.83,12.37-8.31,23.21.07,1.4-1.43,2.63-2.33,3.24A9.35,9.35,0,0,1,250.78,670.89ZM255,628l.64.39c-4.49,7.46-11.27,27.65-8.41,36.93a6.05,6.05,0,0,0,3.08,4c.63.29,2.59-.24,4.27-1.37,1.18-.79,1.69-1.53,1.67-1.91-.47-9.93,2.22-24.18,9.69-24.79,9.78-.79,19.32-6.39,27-10.88,7-4.1,12.52-7.35,16.31-6.08,14.92,5,27.85,2.67,36.4,1.14,6.8-1.21,11.29-2,13,1.21,2,3.78,3.29,9.71,4.62,16,1.94,9.18,4.14,19.58,9.12,22.74,1.92,1.21,7.25,1.17,10.18-.08,1-.42,1.58-.93,1.68-1.44.26-1.27-1.37-4.71-3.41-5.11h0a3.14,3.14,0,0,0-.89.44c-.69.42-1.55.94-2.35.46-.63-.37-1-1.25-1.26-2.76-.87-5.64.89-20.63,5.09-25.38,2.17-2.45,7-3.52,12.65-4.75,8-1.76,17.1-3.75,21.28-10.16,5.83-8.93,13.76-11.13,19.56-12.73a34.3,34.3,0,0,0,4.76-1.54c1.62-.74,3.24-.27,5,.24,3.39,1,7.23,2.11,12.73-6,1.05-1.55-.87-5.4-2.28-8.22a25.89,25.89,0,0,1-1.82-4.16c-1.4-5.12-9.89-9.46-10-9.5l-.44-.22,0-.5c.36-5.27-.21-9.59-.93-9.8s-4.79,2.75-8.43,6.35l-.14.14-.19.05c-1,.27-24.66,6.6-33,3.48-3.95-1.48-8.77-1.71-13.87-2s-10.57-.52-16.07-2c-20.89-5.69-58.25-10.78-74.06-5.51a6.47,6.47,0,0,1-2,.31c-10.21,0-26.9-21.15-30.91-30.73-2.43-5.81-3.68-19.08,4.25-24.89,1.87-1.38,5.42-.57,9.18.29,3.33.75,7.11,1.61,7.54.1.51-1.76-.76-4.14-3.38-6.35-4.48-3.78-12.15-6.38-17.57-3.76-15.41,7.42-14.29,28.85-13.58,35.24.85,7.69,9.53,17.91,16.51,26.13,5.33,6.28,9.54,11.24,10,14.34.4,2.77-.63,5.58-1.82,8.83-1.71,4.66-3.85,10.47-3.17,19.22.71,9.31-5.37,14.82-10.26,19.25a29,29,0,0,0-5.35,5.7Z" style="fill:#fff"/><path d="M452.5,586.5a8.58,8.58,0,0,0-2,3s1.5,2.5,3,3C455,590,454,588,452.5,586.5Z" style="fill:#fff"/></svg>